<svg width="685" height="381" viewBox="0 0 685 381" fill="none" xmlns="http://www.w3.org/2000/svg">
<path opacity="0.2" fill-rule="evenodd" clip-rule="evenodd" d="M-8.79665 24.5453C41.7825 159.422 127.795 223.805 274.268 223.805C421.068 223.805 507.138 159.134 557.671 23.6392C564.385 5.63821 573.86 -5.43235 592.339 2.72892C610.053 10.5521 634.85 21.5035 666.73 35.5832C683.688 43.0723 689.131 56.8477 681.84 77.2821C611.107 275.523 477.625 381 274.268 381C71.1981 381 -62.1946 275.822 -133.004 78.1236C-140.621 56.8617 -133.004 42.1235 -118.174 35.5754C-100.561 27.7947 -75.8415 16.877 -44.0166 2.82252C-28.8772 -3.86267 -16.9445 2.82252 -8.79665 24.5453Z" fill="url(#paint0_linear_6702_35436)"/>
<defs>
<linearGradient id="paint0_linear_6702_35436" x1="222.482" y1="407.827" x2="235.876" y2="-271.405" gradientUnits="userSpaceOnUse">
<stop stop-color="#39A5E7"/>
<stop offset="0.460635" stop-color="#C3DEEE"/>
<stop offset="1" stop-color="#F0F3F5" stop-opacity="0.21"/>
</linearGradient>
</defs>
</svg>
