<svg width="390" height="319" viewBox="0 0 390 319" fill="none" xmlns="http://www.w3.org/2000/svg">
<path opacity="0.2" fill-rule="evenodd" clip-rule="evenodd" d="M0.0225296 154.248C62.6913 221.336 139.07 238.835 249.072 204.449C359.32 169.986 412.124 111.919 425.278 20.7314C427.026 8.61676 432.116 -0.0887467 447.487 0.350958C462.222 0.772322 482.849 1.36236 509.368 2.12086C523.474 2.52435 530.083 9.31115 528.347 22.9859C511.506 155.65 430.563 248.736 277.84 296.477C125.333 344.151 5.90565 313.891 -83.453 214.774C-93.0643 204.114 -90.0412 193.698 -80.1021 186.383C-68.2983 177.693 -51.732 165.498 -30.4033 149.799C-20.257 142.331 -10.072 143.443 0.0225296 154.248Z" fill="url(#paint0_linear_596_17343)"/>
<defs>
<linearGradient id="paint0_linear_596_17343" x1="243.858" y1="324.34" x2="125.648" y2="-75.2809" gradientUnits="userSpaceOnUse">
<stop stop-color="#39A5E7"/>
<stop offset="0.460635" stop-color="#C3DEEE"/>
<stop offset="1" stop-color="#F0F3F5" stop-opacity="0.21"/>
</linearGradient>
</defs>
</svg>
