<svg width="291" height="182" viewBox="0 0 291 182" fill="none" xmlns="http://www.w3.org/2000/svg">
<path d="M61.4395 37.1818V30.2121L273.144 30.2121C274.106 30.2121 274.886 30.9922 274.886 31.9545V35.4394C274.886 36.4017 274.106 37.1818 273.144 37.1818L61.4395 37.1818Z" fill="#98C2E2"/>
<path d="M61.4395 61.5758V51.1212H132.008C132.97 51.1212 133.75 51.9013 133.75 52.8636V59.8333C133.75 60.7957 132.97 61.5758 132.008 61.5758L61.4395 61.5758Z" fill="url(#paint0_linear_531_36980)"/>
<path d="M61.4395 82.4848V75.5152H132.008C132.97 75.5152 133.75 76.2953 133.75 77.2576V80.7424C133.75 81.7047 132.97 82.4848 132.008 82.4848H61.4395Z" fill="#98C2E2"/>
<path d="M61.4395 103.394V96.4242H98.9016C99.8639 96.4242 100.644 97.2043 100.644 98.1667V101.652C100.644 102.614 99.8639 103.394 98.9016 103.394H61.4395Z" fill="#98C2E2"/>
<path d="M61.4395 124.303V117.333H93.6743C94.6366 117.333 95.4167 118.113 95.4167 119.076V122.561C95.4167 123.523 94.6366 124.303 93.6743 124.303H61.4395Z" fill="#98C2E2"/>
<path d="M61.4395 145.212V138.242H81.4773C82.4396 138.242 83.2198 139.023 83.2198 139.985V143.47C83.2198 144.432 82.4396 145.212 81.4773 145.212H61.4395Z" fill="#98C2E2"/>
<path d="M144.84 61.1137C144.193 61.1137 143.617 61.0025 143.112 60.7802C142.609 60.555 142.212 60.246 141.921 59.8533C141.632 59.4577 141.483 59.0015 141.475 58.4846H143.363C143.375 58.7012 143.445 58.8917 143.575 59.0563C143.708 59.218 143.884 59.3436 144.104 59.4331C144.323 59.5227 144.57 59.5674 144.844 59.5674C145.13 59.5674 145.383 59.5169 145.602 59.4158C145.822 59.3148 145.994 59.1747 146.118 58.9957C146.242 58.8167 146.304 58.6102 146.304 58.3763C146.304 58.1395 146.238 57.9302 146.105 57.7483C145.975 57.5635 145.787 57.4191 145.542 57.3151C145.299 57.2112 145.01 57.1592 144.675 57.1592H143.848V55.7818H144.675C144.958 55.7818 145.208 55.7328 145.425 55.6346C145.644 55.5364 145.815 55.4007 145.936 55.2274C146.057 55.0513 146.118 54.8463 146.118 54.6124C146.118 54.3901 146.064 54.1951 145.958 54.0277C145.854 53.8573 145.706 53.7245 145.516 53.6292C145.328 53.5339 145.109 53.4863 144.857 53.4863C144.603 53.4863 144.371 53.5325 144.16 53.6249C143.949 53.7144 143.78 53.8429 143.653 54.0103C143.526 54.1778 143.458 54.3742 143.45 54.5994H141.652C141.661 54.0883 141.807 53.6379 142.09 53.248C142.373 52.8582 142.754 52.5536 143.233 52.3341C143.715 52.1118 144.26 52.0006 144.866 52.0006C145.478 52.0006 146.014 52.1118 146.473 52.3341C146.932 52.5565 147.289 52.8568 147.543 53.235C147.8 53.6104 147.927 54.032 147.924 54.4998C147.927 54.9964 147.772 55.4108 147.46 55.7429C147.152 56.0749 146.749 56.2857 146.252 56.3752V56.4445C146.905 56.5283 147.401 56.755 147.742 57.1246C148.086 57.4913 148.256 57.9504 148.253 58.5019C148.256 59.0072 148.11 59.4562 147.816 59.849C147.524 60.2417 147.121 60.5506 146.607 60.7759C146.093 61.0011 145.504 61.1137 144.84 61.1137ZM149.601 60.9924V59.641L152.759 56.7174C153.027 56.4575 153.253 56.2236 153.434 56.0157C153.619 55.8078 153.759 55.6043 153.855 55.405C153.95 55.2029 153.998 54.9849 153.998 54.751C153.998 54.4911 153.938 54.2673 153.82 54.0796C153.702 53.8891 153.54 53.7432 153.335 53.6422C153.13 53.5382 152.897 53.4863 152.637 53.4863C152.366 53.4863 152.129 53.5411 151.927 53.6508C151.725 53.7606 151.569 53.9179 151.459 54.123C151.35 54.328 151.295 54.572 151.295 54.8549H149.515C149.515 54.2746 149.646 53.7707 149.909 53.3433C150.172 52.916 150.54 52.5853 151.013 52.3515C151.487 52.1176 152.033 52.0006 152.65 52.0006C153.286 52.0006 153.839 52.1132 154.309 52.3385C154.783 52.5608 155.151 52.8698 155.414 53.2654C155.677 53.661 155.808 54.1143 155.808 54.6254C155.808 54.9603 155.742 55.291 155.609 55.6173C155.479 55.9436 155.246 56.3059 154.911 56.7044C154.576 57.1 154.104 57.575 153.495 58.1294L152.2 59.3985V59.4591H155.925V60.9924H149.601ZM165.638 52.1219H167.513V57.8825C167.513 58.5293 167.359 59.0953 167.05 59.5804C166.744 60.0655 166.315 60.4438 165.764 60.7152C165.212 60.9838 164.57 61.118 163.836 61.118C163.1 61.118 162.456 60.9838 161.904 60.7152C161.353 60.4438 160.924 60.0655 160.618 59.5804C160.312 59.0953 160.159 58.5293 160.159 57.8825V52.1219H162.034V57.7223C162.034 58.0601 162.108 58.3604 162.255 58.6232C162.405 58.886 162.616 59.0924 162.888 59.2426C163.159 59.3927 163.475 59.4678 163.836 59.4678C164.2 59.4678 164.516 59.3927 164.785 59.2426C165.056 59.0924 165.265 58.886 165.413 58.6232C165.563 58.3604 165.638 58.0601 165.638 57.7223V52.1219ZM173.868 54.673C173.834 54.3236 173.685 54.0522 173.422 53.8587C173.16 53.6653 172.803 53.5685 172.353 53.5685C172.046 53.5685 171.788 53.6119 171.577 53.6985C171.366 53.7822 171.205 53.8992 171.092 54.0493C170.982 54.1995 170.928 54.3698 170.928 54.5604C170.922 54.7192 170.955 54.8578 171.027 54.9762C171.102 55.0946 171.205 55.1971 171.335 55.2837C171.465 55.3675 171.615 55.4411 171.785 55.5046C171.955 55.5653 172.137 55.6173 172.331 55.6606L173.128 55.8512C173.515 55.9378 173.87 56.0533 174.193 56.1977C174.517 56.342 174.797 56.5196 175.034 56.7304C175.27 56.9412 175.454 57.1895 175.584 57.4754C175.717 57.7613 175.784 58.089 175.787 58.4586C175.784 59.0015 175.646 59.4721 175.371 59.8706C175.1 60.2662 174.707 60.5737 174.193 60.7932C173.682 61.0097 173.066 61.118 172.344 61.118C171.628 61.118 171.004 61.0083 170.473 60.7888C169.944 60.5694 169.531 60.2445 169.234 59.8143C168.939 59.3812 168.785 58.8455 168.771 58.2074H170.585C170.606 58.5048 170.691 58.7531 170.841 58.9524C170.994 59.1487 171.198 59.2974 171.452 59.3985C171.709 59.4967 171.999 59.5458 172.322 59.5458C172.64 59.5458 172.916 59.4996 173.149 59.4072C173.386 59.3148 173.57 59.1863 173.7 59.0217C173.83 58.8571 173.894 58.6679 173.894 58.4543C173.894 58.255 173.835 58.0876 173.717 57.9518C173.601 57.8161 173.431 57.7006 173.206 57.6053C172.983 57.51 172.711 57.4234 172.387 57.3455L171.421 57.1029C170.673 56.921 170.083 56.6366 169.65 56.2496C169.217 55.8627 169.002 55.3415 169.004 54.686C169.002 54.1489 169.144 53.6797 169.433 53.2784C169.725 52.877 170.125 52.5637 170.633 52.3385C171.141 52.1132 171.719 52.0006 172.366 52.0006C173.024 52.0006 173.598 52.1132 174.089 52.3385C174.583 52.5637 174.967 52.877 175.242 53.2784C175.516 53.6797 175.657 54.1446 175.666 54.673H173.868ZM180.193 60.9924H177.049V52.1219H180.219C181.112 52.1219 181.88 52.2995 182.524 52.6546C183.167 53.0069 183.663 53.5137 184.009 54.1749C184.359 54.8362 184.533 55.6274 184.533 56.5485C184.533 57.4725 184.359 58.2666 184.009 58.9307C183.663 59.5948 183.165 60.1045 182.515 60.4597C181.868 60.8148 181.094 60.9924 180.193 60.9924ZM178.924 59.3855H180.115C180.67 59.3855 181.136 59.2873 181.514 59.091C181.895 58.8917 182.181 58.5842 182.372 58.1684C182.565 57.7497 182.662 57.2097 182.662 56.5485C182.662 55.893 182.565 55.3574 182.372 54.9416C182.181 54.5258 181.897 54.2197 181.519 54.0233C181.14 53.827 180.674 53.7288 180.12 53.7288H178.924V59.3855Z" fill="#00194F"/>
<path d="M2.29602 30.124V37.7273H1.3753V30.124H2.29602ZM4.89944 34.2969V37.7273H4.02328V32.0248H4.86974V32.9158H4.94399C5.07765 32.6262 5.2806 32.3936 5.55285 32.2178C5.82511 32.0396 6.17656 31.9505 6.60722 31.9505C6.99332 31.9505 7.33116 32.0297 7.62074 32.1881C7.91032 32.3441 8.13555 32.5817 8.29643 32.9009C8.4573 33.2178 8.53774 33.6187 8.53774 34.1038V37.7273H7.66158V34.1632C7.66158 33.7152 7.54525 33.3663 7.3126 33.1163C7.07995 32.8638 6.76067 32.7376 6.35476 32.7376C6.07508 32.7376 5.82511 32.7982 5.60483 32.9195C5.38702 33.0408 5.21501 33.2178 5.08878 33.4504C4.96256 33.6831 4.89944 33.9652 4.89944 34.2969ZM12.2921 37.8461C11.8169 37.8461 11.3973 37.726 11.0335 37.4859C10.6697 37.2434 10.385 36.9018 10.1796 36.4613C9.97419 36.0183 9.87148 35.4948 9.87148 34.8909C9.87148 34.2919 9.97419 33.7722 10.1796 33.3316C10.385 32.891 10.6709 32.5507 11.0372 32.3107C11.4035 32.0706 11.8268 31.9505 12.3069 31.9505C12.6782 31.9505 12.9715 32.0124 13.1868 32.1362C13.4046 32.2574 13.5704 32.396 13.6843 32.552C13.8006 32.7054 13.8909 32.8316 13.9553 32.9306H14.0295V30.124H14.9057V37.7273H14.0592V36.8511H13.9553C13.8909 36.9551 13.7994 37.0862 13.6806 37.2446C13.5618 37.4006 13.3922 37.5404 13.1719 37.6642C12.9517 37.7854 12.6584 37.8461 12.2921 37.8461ZM12.4109 37.059C12.7623 37.059 13.0593 36.9674 13.3019 36.7843C13.5444 36.5986 13.7288 36.3425 13.855 36.0158C13.9813 35.6866 14.0444 35.3067 14.0444 34.876C14.0444 34.4503 13.9825 34.0778 13.8588 33.7585C13.735 33.4368 13.5519 33.1868 13.3093 33.0086C13.0667 32.8279 12.7673 32.7376 12.4109 32.7376C12.0396 32.7376 11.7302 32.8329 11.4827 33.0235C11.2377 33.2116 11.0533 33.4677 10.9296 33.792C10.8083 34.1137 10.7476 34.4751 10.7476 34.876C10.7476 35.2819 10.8095 35.6507 10.9333 35.9824C11.0595 36.3115 11.2451 36.5739 11.4902 36.7694C11.7377 36.9625 12.0446 37.059 12.4109 37.059ZM18.9487 37.8461C18.4339 37.8461 17.9822 37.7236 17.5936 37.4785C17.2075 37.2335 16.9055 36.8907 16.6877 36.4501C16.4724 36.0096 16.3647 35.4948 16.3647 34.9057C16.3647 34.3117 16.4724 33.7932 16.6877 33.3502C16.9055 32.9071 17.2075 32.5631 17.5936 32.3181C17.9822 32.073 18.4339 31.9505 18.9487 31.9505C19.4635 31.9505 19.9139 32.073 20.3 32.3181C20.6886 32.5631 20.9906 32.9071 21.2059 33.3502C21.4237 33.7932 21.5326 34.3117 21.5326 34.9057C21.5326 35.4948 21.4237 36.0096 21.2059 36.4501C20.9906 36.8907 20.6886 37.2335 20.3 37.4785C19.9139 37.7236 19.4635 37.8461 18.9487 37.8461ZM18.9487 37.059C19.3397 37.059 19.6615 36.9588 19.9139 36.7583C20.1664 36.5578 20.3532 36.2942 20.4745 35.9675C20.5958 35.6408 20.6564 35.2869 20.6564 34.9057C20.6564 34.5246 20.5958 34.1694 20.4745 33.8402C20.3532 33.511 20.1664 33.245 19.9139 33.042C19.6615 32.8391 19.3397 32.7376 18.9487 32.7376C18.5576 32.7376 18.2359 32.8391 17.9834 33.042C17.7309 33.245 17.5441 33.511 17.4228 33.8402C17.3015 34.1694 17.2409 34.5246 17.2409 34.9057C17.2409 35.2869 17.3015 35.6408 17.4228 35.9675C17.5441 36.2942 17.7309 36.5578 17.9834 36.7583C18.2359 36.9588 18.5576 37.059 18.9487 37.059ZM23.7462 34.2969V37.7273H22.87V32.0248H23.7165V32.9158H23.7908C23.9244 32.6262 24.1274 32.3936 24.3996 32.2178C24.6719 32.0396 25.0233 31.9505 25.454 31.9505C25.8401 31.9505 26.1779 32.0297 26.4675 32.1881C26.7571 32.3441 26.9823 32.5817 27.1432 32.9009C27.3041 33.2178 27.3845 33.6187 27.3845 34.1038V37.7273H26.5084V34.1632C26.5084 33.7152 26.392 33.3663 26.1594 33.1163C25.9267 32.8638 25.6074 32.7376 25.2015 32.7376C24.9219 32.7376 24.6719 32.7982 24.4516 32.9195C24.2338 33.0408 24.0618 33.2178 23.9356 33.4504C23.8093 33.6831 23.7462 33.9652 23.7462 34.2969ZM31.3764 37.8461C30.827 37.8461 30.353 37.7248 29.9545 37.4822C29.5585 37.2372 29.2529 36.8957 29.0375 36.4576C28.8247 36.017 28.7182 35.5047 28.7182 34.9206C28.7182 34.3365 28.8247 33.8217 29.0375 33.3762C29.2529 32.9282 29.5523 32.5792 29.936 32.3292C30.3221 32.0768 30.7725 31.9505 31.2873 31.9505C31.5843 31.9505 31.8776 32 32.1672 32.099C32.4568 32.198 32.7204 32.3589 32.958 32.5817C33.1956 32.8019 33.3849 33.094 33.526 33.4578C33.6671 33.8217 33.7376 34.2696 33.7376 34.8018V35.173H29.342V34.4157H32.8466C32.8466 34.0939 32.7823 33.8068 32.6536 33.5544C32.5273 33.3019 32.3466 33.1027 32.1115 32.9566C31.8789 32.8106 31.6041 32.7376 31.2873 32.7376C30.9384 32.7376 30.6364 32.8242 30.3815 32.9975C30.129 33.1683 29.9347 33.391 29.7986 33.6657C29.6625 33.9405 29.5944 34.235 29.5944 34.5493V35.0542C29.5944 35.4849 29.6687 35.85 29.8172 36.1494C29.9681 36.4464 30.1773 36.6729 30.4446 36.8288C30.7119 36.9823 31.0225 37.059 31.3764 37.059C31.6066 37.059 31.8145 37.0268 32.0001 36.9625C32.1882 36.8957 32.3504 36.7967 32.4865 36.6655C32.6226 36.5318 32.7278 36.366 32.8021 36.168L33.6485 36.4056C33.5594 36.6927 33.4097 36.9452 33.1993 37.163C32.9889 37.3783 32.729 37.5466 32.4197 37.6679C32.1103 37.7867 31.7625 37.8461 31.3764 37.8461ZM39.1097 33.3019L38.3226 33.5247C38.2731 33.3935 38.2001 33.266 38.1036 33.1423C38.0095 33.016 37.8808 32.9121 37.7175 32.8304C37.5541 32.7487 37.345 32.7079 37.0901 32.7079C36.7411 32.7079 36.4503 32.7883 36.2176 32.9492C35.9874 33.1076 35.8723 33.3093 35.8723 33.5544C35.8723 33.7722 35.9515 33.9442 36.1099 34.0704C36.2683 34.1966 36.5158 34.3018 36.8524 34.386L37.6989 34.5939C38.2088 34.7176 38.5887 34.907 38.8387 35.1619C39.0886 35.4143 39.2136 35.7398 39.2136 36.1383C39.2136 36.465 39.1196 36.7571 38.9315 37.0145C38.7459 37.2719 38.486 37.4748 38.1518 37.6233C37.8177 37.7718 37.4291 37.8461 36.9861 37.8461C36.4045 37.8461 35.9231 37.7198 35.5419 37.4674C35.1608 37.2149 34.9194 36.8462 34.818 36.361L35.6496 36.1531C35.7288 36.46 35.8785 36.6902 36.0988 36.8437C36.3216 36.9971 36.6124 37.0739 36.9713 37.0739C37.3796 37.0739 37.7039 36.9872 37.9439 36.814C38.1865 36.6382 38.3078 36.4279 38.3078 36.1828C38.3078 35.9848 38.2385 35.819 38.0999 35.6854C37.9613 35.5492 37.7484 35.4478 37.4613 35.3809L36.5109 35.1582C35.9887 35.0344 35.605 34.8426 35.36 34.5827C35.1174 34.3204 34.9962 33.9924 34.9962 33.5989C34.9962 33.2772 35.0865 32.9925 35.2672 32.745C35.4503 32.4975 35.6991 32.3032 36.0134 32.1621C36.3302 32.0211 36.6891 31.9505 37.0901 31.9505C37.6544 31.9505 38.0974 32.0743 38.4191 32.3218C38.7434 32.5693 38.9736 32.896 39.1097 33.3019ZM40.5325 37.7273V32.0248H41.4087V37.7273H40.5325ZM40.978 31.0744C40.8072 31.0744 40.66 31.0162 40.5362 30.8999C40.4149 30.7836 40.3543 30.6437 40.3543 30.4804C40.3543 30.317 40.4149 30.1772 40.5362 30.0608C40.66 29.9445 40.8072 29.8864 40.978 29.8864C41.1488 29.8864 41.2948 29.9445 41.4161 30.0608C41.5399 30.1772 41.6017 30.317 41.6017 30.4804C41.6017 30.6437 41.5399 30.7836 41.4161 30.8999C41.2948 31.0162 41.1488 31.0744 40.978 31.0744ZM44.6915 37.8609C44.3301 37.8609 44.0022 37.7929 43.7077 37.6567C43.4131 37.5181 43.1793 37.3189 43.006 37.059C42.8328 36.7967 42.7461 36.4798 42.7461 36.1086C42.7461 35.7819 42.8105 35.5171 42.9392 35.3141C43.0679 35.1087 43.2399 34.9478 43.4552 34.8315C43.6706 34.7151 43.9082 34.6285 44.168 34.5716C44.4304 34.5122 44.694 34.4652 44.9588 34.4305C45.3053 34.386 45.5862 34.3526 45.8016 34.3303C46.0194 34.3055 46.1778 34.2647 46.2768 34.2078C46.3782 34.1508 46.429 34.0518 46.429 33.9108V33.8811C46.429 33.5148 46.3287 33.2301 46.1283 33.0272C45.9303 32.8242 45.6295 32.7227 45.2261 32.7227C44.8078 32.7227 44.4799 32.8143 44.2423 32.9975C44.0047 33.1806 43.8376 33.3762 43.7411 33.5841L42.9095 33.2871C43.058 32.9405 43.256 32.6708 43.5035 32.4777C43.7535 32.2822 44.0257 32.1461 44.3202 32.0693C44.6173 31.9901 44.9093 31.9505 45.1964 31.9505C45.3796 31.9505 45.5899 31.9728 45.8275 32.0174C46.0676 32.0594 46.299 32.1473 46.5218 32.281C46.747 32.4146 46.9339 32.6163 47.0824 32.8861C47.2309 33.1559 47.3051 33.5172 47.3051 33.9702V37.7273H46.429V36.9551H46.3844C46.325 37.0788 46.226 37.2112 46.0874 37.3523C45.9488 37.4934 45.7644 37.6134 45.5343 37.7124C45.3041 37.8114 45.0232 37.8609 44.6915 37.8609ZM44.8252 37.0739C45.1717 37.0739 45.4637 37.0058 45.7013 36.8697C45.9414 36.7335 46.1221 36.5578 46.2433 36.3425C46.3671 36.1272 46.429 35.9007 46.429 35.6631V34.8612C46.3919 34.9057 46.3102 34.9466 46.1839 34.9837C46.0602 35.0183 45.9166 35.0493 45.7533 35.0765C45.5924 35.1013 45.4352 35.1235 45.2818 35.1433C45.1308 35.1607 45.0083 35.1755 44.9143 35.1879C44.6866 35.2176 44.4737 35.2658 44.2757 35.3327C44.0802 35.397 43.9218 35.4948 43.8005 35.626C43.6817 35.7547 43.6223 35.9304 43.6223 36.1531C43.6223 36.4576 43.7349 36.6877 43.9601 36.8437C44.1878 36.9971 44.4762 37.0739 44.8252 37.0739Z" fill="#00194F"/>
<path d="M1.68716 52.7755L3.94439 59.1759H4.03349L6.29072 52.7755H7.25598L4.46415 60.3788H3.51373L0.721894 52.7755H1.68716ZM8.32149 60.3788V54.6763H9.19765V60.3788H8.32149ZM8.76699 53.7259C8.59622 53.7259 8.44895 53.6677 8.3252 53.5514C8.20392 53.4351 8.14328 53.2952 8.14328 53.1319C8.14328 52.9685 8.20392 52.8287 8.3252 52.7124C8.44895 52.596 8.59622 52.5379 8.76699 52.5379C8.93777 52.5379 9.0838 52.596 9.20507 52.7124C9.32883 52.8287 9.3907 52.9685 9.3907 53.1319C9.3907 53.2952 9.32883 53.4351 9.20507 53.5514C9.0838 53.6677 8.93777 53.7259 8.76699 53.7259ZM13.1933 60.4976C12.6438 60.4976 12.1699 60.3763 11.7714 60.1338C11.3754 59.8887 11.0697 59.5472 10.8544 59.1091C10.6415 58.6685 10.5351 58.1562 10.5351 57.5721C10.5351 56.988 10.6415 56.4732 10.8544 56.0277C11.0697 55.5797 11.3692 55.2307 11.7528 54.9807C12.1389 54.7283 12.5894 54.6021 13.1042 54.6021C13.4012 54.6021 13.6945 54.6516 13.9841 54.7506C14.2736 54.8496 14.5372 55.0104 14.7748 55.2332C15.0124 55.4535 15.2018 55.7455 15.3429 56.1093C15.4839 56.4732 15.5545 56.9212 15.5545 57.4533V57.8245H11.1588V57.0672H14.6635C14.6635 56.7454 14.5991 56.4583 14.4704 56.2059C14.3442 55.9534 14.1635 55.7542 13.9284 55.6082C13.6957 55.4621 13.421 55.3891 13.1042 55.3891C12.7552 55.3891 12.4532 55.4757 12.1983 55.649C11.9459 55.8198 11.7516 56.0425 11.6154 56.3173C11.4793 56.592 11.4113 56.8865 11.4113 57.2008V57.7057C11.4113 58.1364 11.4855 58.5015 11.634 58.8009C11.785 59.098 11.9941 59.3244 12.2614 59.4803C12.5287 59.6338 12.8394 59.7105 13.1933 59.7105C13.4235 59.7105 13.6314 59.6783 13.817 59.614C14.0051 59.5472 14.1672 59.4482 14.3033 59.317C14.4395 59.1833 14.5447 59.0175 14.6189 58.8195L15.4654 59.0571C15.3763 59.3442 15.2265 59.5967 15.0161 59.8145C14.8058 60.0298 14.5459 60.1981 14.2365 60.3194C13.9271 60.4382 13.5794 60.4976 13.1933 60.4976ZM19.3673 54.6763V55.4188H16.4121V54.6763H19.3673ZM17.2734 53.3101H18.1495V58.7453C18.1495 58.9928 18.1854 59.1784 18.2572 59.3021C18.3315 59.4234 18.4255 59.5051 18.5394 59.5472C18.6557 59.5868 18.7782 59.6066 18.9069 59.6066C19.0034 59.6066 19.0826 59.6016 19.1445 59.5917C19.2064 59.5793 19.2559 59.5694 19.293 59.562L19.4712 60.3491C19.4118 60.3714 19.3289 60.3936 19.2225 60.4159C19.116 60.4407 18.9812 60.453 18.8178 60.453C18.5703 60.453 18.3277 60.3998 18.0901 60.2934C17.855 60.187 17.6595 60.0249 17.5036 59.8071C17.3501 59.5892 17.2734 59.3145 17.2734 58.9829V53.3101ZM21.5614 56.9484V60.3788H20.6852V54.6763H21.5317V55.5673H21.6059C21.7396 55.2777 21.9425 55.0451 22.2148 54.8694C22.487 54.6912 22.8385 54.6021 23.2691 54.6021C23.6553 54.6021 23.9931 54.6813 24.2827 54.8397C24.5723 54.9956 24.7975 55.2332 24.9584 55.5525C25.1192 55.8693 25.1997 56.2702 25.1997 56.7553V60.3788H24.3235V56.8147C24.3235 56.3668 24.2072 56.0178 23.9745 55.7678C23.7419 55.5153 23.4226 55.3891 23.0167 55.3891C22.737 55.3891 22.487 55.4498 22.2668 55.571C22.049 55.6923 21.8769 55.8693 21.7507 56.1019C21.6245 56.3346 21.5614 56.6167 21.5614 56.9484ZM28.4788 60.5124C28.1174 60.5124 27.7895 60.4444 27.495 60.3082C27.2004 60.1696 26.9665 59.9704 26.7933 59.7105C26.62 59.4482 26.5334 59.1314 26.5334 58.7601C26.5334 58.4334 26.5978 58.1686 26.7265 57.9656C26.8552 57.7602 27.0272 57.5993 27.2425 57.483C27.4578 57.3667 27.6954 57.28 27.9553 57.2231C28.2177 57.1637 28.4813 57.1167 28.7461 57.082C29.0926 57.0375 29.3735 57.0041 29.5888 56.9818C29.8066 56.957 29.965 56.9162 30.064 56.8593C30.1655 56.8024 30.2163 56.7034 30.2163 56.5623V56.5326C30.2163 56.1663 30.116 55.8816 29.9155 55.6787C29.7175 55.4757 29.4168 55.3743 29.0134 55.3743C28.5951 55.3743 28.2672 55.4658 28.0296 55.649C27.792 55.8321 27.6249 56.0277 27.5284 56.2356L26.6968 55.9386C26.8453 55.5921 27.0433 55.3223 27.2908 55.1292C27.5407 54.9337 27.813 54.7976 28.1075 54.7209C28.4045 54.6417 28.6966 54.6021 28.9837 54.6021C29.1668 54.6021 29.3772 54.6243 29.6148 54.6689C29.8549 54.711 30.0863 54.7988 30.3091 54.9325C30.5343 55.0661 30.7212 55.2678 30.8697 55.5376C31.0182 55.8074 31.0924 56.1688 31.0924 56.6217V60.3788H30.2163V59.6066H30.1717C30.1123 59.7303 30.0133 59.8627 29.8747 60.0038C29.7361 60.1449 29.5517 60.2649 29.3215 60.3639C29.0914 60.4629 28.8104 60.5124 28.4788 60.5124ZM28.6124 59.7254C28.9589 59.7254 29.251 59.6573 29.4886 59.5212C29.7287 59.3851 29.9094 59.2093 30.0306 58.994C30.1544 58.7787 30.2163 58.5522 30.2163 58.3146V57.5127C30.1791 57.5572 30.0975 57.5981 29.9712 57.6352C29.8475 57.6699 29.7039 57.7008 29.5406 57.728C29.3797 57.7528 29.2225 57.775 29.0691 57.7948C28.9181 57.8122 28.7956 57.827 28.7015 57.8394C28.4738 57.8691 28.261 57.9174 28.063 57.9842C27.8675 58.0485 27.7091 58.1463 27.5878 58.2775C27.469 58.4062 27.4096 58.5819 27.4096 58.8047C27.4096 59.1091 27.5222 59.3393 27.7474 59.4952C27.9751 59.6486 28.2635 59.7254 28.6124 59.7254ZM32.6916 60.3788V54.6763H33.5381V55.5673H33.6123C33.7311 55.2629 33.9229 55.0265 34.1878 54.8582C34.4526 54.6874 34.7706 54.6021 35.1419 54.6021C35.5181 54.6021 35.8312 54.6874 36.0812 54.8582C36.3336 55.0265 36.5304 55.2629 36.6715 55.5673H36.7309C36.8769 55.2728 37.0959 55.0389 37.388 54.8656C37.68 54.6899 38.0303 54.6021 38.4386 54.6021C38.9485 54.6021 39.3655 54.7617 39.6898 55.081C40.014 55.3978 40.1761 55.8915 40.1761 56.5623V60.3788H39.2999V56.5623C39.2999 56.1415 39.1849 55.8408 38.9547 55.6601C38.7245 55.4795 38.4535 55.3891 38.1416 55.3891C37.7407 55.3891 37.4301 55.5104 37.2098 55.7529C36.9895 55.993 36.8794 56.2975 36.8794 56.6662V60.3788H35.9884V56.4732C35.9884 56.149 35.8832 55.8878 35.6728 55.6898C35.4624 55.4894 35.1914 55.3891 34.8597 55.3891C34.632 55.3891 34.4192 55.4498 34.2212 55.571C34.0256 55.6923 33.8672 55.8606 33.746 56.0759C33.6272 56.2888 33.5678 56.5351 33.5678 56.8147V60.3788H32.6916Z" fill="#00194F"/>
<path d="M0.959497 75.3725V74.5558H6.66198V75.3725H4.27109V82.1591H3.35038V75.3725H0.959497ZM8.84032 78.7287V82.1591H7.96415V74.5558H8.84032V77.3476H8.91457C9.04822 77.0531 9.2487 76.8192 9.516 76.6459C9.78578 76.4702 10.1447 76.3824 10.5926 76.3824C10.9812 76.3824 11.3215 76.4603 11.6136 76.6162C11.9056 76.7697 12.1321 77.0061 12.293 77.3253C12.4563 77.6421 12.538 78.0456 12.538 78.5356V82.1591H11.6619V78.595C11.6619 78.1421 11.5443 77.7919 11.3092 77.5444C11.0765 77.2944 10.7535 77.1694 10.3402 77.1694C10.0531 77.1694 9.79568 77.2301 9.56798 77.3513C9.34275 77.4726 9.16455 77.6496 9.03337 77.8822C8.90467 78.1149 8.84032 78.397 8.84032 78.7287ZM15.819 82.2927C15.4576 82.2927 15.1297 82.2247 14.8352 82.0885C14.5406 81.9499 14.3067 81.7507 14.1335 81.4908C13.9602 81.2285 13.8736 80.9117 13.8736 80.5404C13.8736 80.2137 13.938 79.9489 14.0667 79.7459C14.1954 79.5405 14.3674 79.3796 14.5827 79.2633C14.798 79.147 15.0356 79.0603 15.2955 79.0034C15.5579 78.944 15.8215 78.897 16.0863 78.8623C16.4328 78.8178 16.7137 78.7844 16.929 78.7621C17.1468 78.7374 17.3052 78.6965 17.4042 78.6396C17.5057 78.5827 17.5565 78.4837 17.5565 78.3426V78.3129C17.5565 77.9466 17.4562 77.662 17.2557 77.459C17.0577 77.256 16.757 77.1546 16.3536 77.1546C15.9353 77.1546 15.6074 77.2461 15.3698 77.4293C15.1322 77.6124 14.9651 77.808 14.8686 78.0159L14.037 77.7189C14.1855 77.3724 14.3835 77.1026 14.631 76.9095C14.8809 76.714 15.1532 76.5779 15.4477 76.5012C15.7447 76.422 16.0368 76.3824 16.3239 76.3824C16.507 76.3824 16.7174 76.4046 16.955 76.4492C17.1951 76.4913 17.4265 76.5791 17.6493 76.7128C17.8745 76.8464 18.0614 77.0481 18.2099 77.3179C18.3584 77.5877 18.4326 77.9491 18.4326 78.402V82.1591H17.5565V81.3869H17.5119C17.4525 81.5106 17.3535 81.643 17.2149 81.7841C17.0763 81.9252 16.8919 82.0452 16.6617 82.1442C16.4316 82.2432 16.1506 82.2927 15.819 82.2927ZM15.9526 81.5057C16.2991 81.5057 16.5912 81.4376 16.8288 81.3015C17.0689 81.1654 17.2496 80.9896 17.3708 80.7743C17.4946 80.559 17.5565 80.3325 17.5565 80.0949V79.293C17.5193 79.3375 17.4377 79.3784 17.3114 79.4155C17.1877 79.4502 17.0441 79.4811 16.8808 79.5083C16.7199 79.5331 16.5627 79.5554 16.4093 79.5752C16.2583 79.5925 16.1358 79.6073 16.0417 79.6197C15.814 79.6494 15.6012 79.6977 15.4032 79.7645C15.2077 79.8288 15.0492 79.9266 14.928 80.0578C14.8092 80.1865 14.7498 80.3622 14.7498 80.585C14.7498 80.8894 14.8624 81.1196 15.0876 81.2755C15.3153 81.429 15.6037 81.5057 15.9526 81.5057ZM20.0318 82.1591V76.4566H20.908V82.1591H20.0318ZM20.4773 75.5062C20.3065 75.5062 20.1593 75.448 20.0355 75.3317C19.9142 75.2154 19.8536 75.0755 19.8536 74.9122C19.8536 74.7488 19.9142 74.609 20.0355 74.4927C20.1593 74.3763 20.3065 74.3182 20.4773 74.3182C20.6481 74.3182 20.7941 74.3763 20.9154 74.4927C21.0391 74.609 21.101 74.7488 21.101 74.9122C21.101 75.0755 21.0391 75.2154 20.9154 75.3317C20.7941 75.448 20.6481 75.5062 20.4773 75.5062ZM23.3889 74.5558V82.1591H22.5127V74.5558H23.3889ZM26.6717 82.2927C26.3103 82.2927 25.9824 82.2247 25.6879 82.0885C25.3933 81.9499 25.1595 81.7507 24.9862 81.4908C24.813 81.2285 24.7263 80.9117 24.7263 80.5404C24.7263 80.2137 24.7907 79.9489 24.9194 79.7459C25.0481 79.5405 25.2201 79.3796 25.4354 79.2633C25.6508 79.147 25.8884 79.0603 26.1482 79.0034C26.4106 78.944 26.6742 78.897 26.939 78.8623C27.2855 78.8178 27.5664 78.7844 27.7818 78.7621C27.9996 78.7374 28.158 78.6965 28.257 78.6396C28.3584 78.5827 28.4092 78.4837 28.4092 78.3426V78.3129C28.4092 77.9466 28.3089 77.662 28.1085 77.459C27.9105 77.256 27.6097 77.1546 27.2063 77.1546C26.788 77.1546 26.4601 77.2461 26.2225 77.4293C25.9849 77.6124 25.8178 77.808 25.7213 78.0159L24.8897 77.7189C25.0382 77.3724 25.2362 77.1026 25.4837 76.9095C25.7337 76.714 26.0059 76.5779 26.3004 76.5012C26.5975 76.422 26.8895 76.3824 27.1766 76.3824C27.3598 76.3824 27.5701 76.4046 27.8077 76.4492C28.0478 76.4913 28.2792 76.5791 28.502 76.7128C28.7272 76.8464 28.9141 77.0481 29.0626 77.3179C29.2111 77.5877 29.2853 77.9491 29.2853 78.402V82.1591H28.4092V81.3869H28.3646C28.3052 81.5106 28.2062 81.643 28.0676 81.7841C27.929 81.9252 27.7446 82.0452 27.5145 82.1442C27.2843 82.2432 27.0034 82.2927 26.6717 82.2927ZM26.8054 81.5057C27.1519 81.5057 27.4439 81.4376 27.6815 81.3015C27.9216 81.1654 28.1023 80.9896 28.2236 80.7743C28.3473 80.559 28.4092 80.3325 28.4092 80.0949V79.293C28.3721 79.3375 28.2904 79.3784 28.1641 79.4155C28.0404 79.4502 27.8968 79.4811 27.7335 79.5083C27.5726 79.5331 27.4155 79.5554 27.262 79.5752C27.111 79.5925 26.9885 79.6073 26.8945 79.6197C26.6668 79.6494 26.4539 79.6977 26.2559 79.7645C26.0604 79.8288 25.902 79.9266 25.7807 80.0578C25.6619 80.1865 25.6025 80.3622 25.6025 80.585C25.6025 80.8894 25.7151 81.1196 25.9403 81.2755C26.168 81.429 26.4564 81.5057 26.8054 81.5057ZM31.7607 78.7287V82.1591H30.8845V76.4566H31.731V77.3476H31.8052C31.9389 77.058 32.1418 76.8254 32.4141 76.6497C32.6863 76.4715 33.0378 76.3824 33.4685 76.3824C33.8546 76.3824 34.1924 76.4616 34.482 76.62C34.7716 76.7759 34.9968 77.0135 35.1577 77.3328C35.3185 77.6496 35.399 78.0505 35.399 78.5356V82.1591H34.5228V78.595C34.5228 78.1471 34.4065 77.7981 34.1738 77.5481C33.9412 77.2956 33.6219 77.1694 33.216 77.1694C32.9363 77.1694 32.6863 77.2301 32.4661 77.3513C32.2483 77.4726 32.0762 77.6496 31.95 77.8822C31.8238 78.1149 31.7607 78.397 31.7607 78.7287ZM39.1533 82.2779C38.6781 82.2779 38.2586 82.1579 37.8947 81.9178C37.5309 81.6752 37.2463 81.3337 37.0409 80.8931C36.8354 80.4501 36.7327 79.9266 36.7327 79.3227C36.7327 78.7237 36.8354 78.204 37.0409 77.7634C37.2463 77.3229 37.5322 76.9826 37.8985 76.7425C38.2648 76.5024 38.688 76.3824 39.1682 76.3824C39.5394 76.3824 39.8327 76.4442 40.048 76.568C40.2658 76.6893 40.4317 76.8279 40.5455 76.9838C40.6618 77.1372 40.7522 77.2635 40.8165 77.3625H40.8908V74.5558H41.7669V82.1591H40.9205V81.2829H40.8165C40.7522 81.3869 40.6606 81.5181 40.5418 81.6765C40.423 81.8324 40.2535 81.9722 40.0332 82.096C39.8129 82.2173 39.5196 82.2779 39.1533 82.2779ZM39.2721 81.4908C39.6236 81.4908 39.9206 81.3993 40.1631 81.2161C40.4057 81.0305 40.5901 80.7743 40.7163 80.4476C40.8425 80.1184 40.9056 79.7385 40.9056 79.3078C40.9056 78.8821 40.8438 78.5096 40.72 78.1904C40.5962 77.8686 40.4131 77.6186 40.1705 77.4404C39.928 77.2598 39.6285 77.1694 39.2721 77.1694C38.9009 77.1694 38.5915 77.2647 38.344 77.4553C38.0989 77.6434 37.9145 77.8996 37.7908 78.2238C37.6695 78.5455 37.6089 78.9069 37.6089 79.3078C37.6089 79.7138 37.6708 80.0825 37.7945 80.4142C37.9207 80.7434 38.1064 81.0057 38.3514 81.2012C38.5989 81.3943 38.9058 81.4908 39.2721 81.4908Z" fill="#00194F"/>
<path d="M1.3753 103.068V95.4649H3.94439C4.54087 95.4649 5.02845 95.5725 5.40713 95.7879C5.78829 96.0007 6.07044 96.2891 6.2536 96.6529C6.43675 97.0167 6.52832 97.4226 6.52832 97.8706C6.52832 98.3186 6.43675 98.7257 6.2536 99.092C6.07292 99.4583 5.79324 99.7504 5.41456 99.9682C5.03588 100.184 4.55077 100.291 3.95924 100.291H2.11781V99.4744H3.92954C4.33792 99.4744 4.66586 99.4039 4.91336 99.2628C5.16087 99.1217 5.34031 98.9312 5.45168 98.6911C5.56554 98.4485 5.62246 98.175 5.62246 97.8706C5.62246 97.5662 5.56554 97.2939 5.45168 97.0538C5.34031 96.8138 5.15963 96.6257 4.90965 96.4895C4.65967 96.3509 4.32802 96.2816 3.91469 96.2816H2.29602V103.068H1.3753ZM8.76885 99.6378V103.068H7.89269V95.4649H8.76885V98.2567H8.8431C8.97675 97.9622 9.17723 97.7283 9.44453 97.555C9.71431 97.3793 10.0732 97.2914 10.5212 97.2914C10.9098 97.2914 11.2501 97.3694 11.5421 97.5253C11.8342 97.6788 12.0606 97.9152 12.2215 98.2344C12.3849 98.5512 12.4666 98.9547 12.4666 99.4447V103.068H11.5904V99.5041C11.5904 99.0512 11.4728 98.701 11.2377 98.4535C11.005 98.2035 10.6821 98.0785 10.2687 98.0785C9.98162 98.0785 9.72421 98.1391 9.49651 98.2604C9.27128 98.3817 9.09308 98.5587 8.9619 98.7913C8.8332 99.024 8.76885 99.3061 8.76885 99.6378ZM14.0694 103.068V97.3657H14.9456V103.068H14.0694ZM14.515 96.4153C14.3442 96.4153 14.1969 96.3571 14.0732 96.2408C13.9519 96.1245 13.8912 95.9846 13.8912 95.8213C13.8912 95.6579 13.9519 95.5181 14.0732 95.4018C14.1969 95.2854 14.3442 95.2273 14.515 95.2273C14.6857 95.2273 14.8318 95.2854 14.953 95.4018C15.0768 95.5181 15.1387 95.6579 15.1387 95.8213C15.1387 95.9846 15.0768 96.1245 14.953 96.2408C14.8318 96.3571 14.6857 96.4153 14.515 96.4153ZM17.4265 95.4649V103.068H16.5504V95.4649H17.4265ZM19.0313 103.068V97.3657H19.9074V103.068H19.0313ZM19.4768 96.4153C19.306 96.4153 19.1587 96.3571 19.035 96.2408C18.9137 96.1245 18.8531 95.9846 18.8531 95.8213C18.8531 95.6579 18.9137 95.5181 19.035 95.4018C19.1587 95.2854 19.306 95.2273 19.4768 95.2273C19.6476 95.2273 19.7936 95.2854 19.9149 95.4018C20.0386 95.5181 20.1005 95.6579 20.1005 95.8213C20.1005 95.9846 20.0386 96.1245 19.9149 96.2408C19.7936 96.3571 19.6476 96.4153 19.4768 96.4153ZM21.5122 105.207V97.3657H22.3586V98.2716H22.4626C22.5269 98.1726 22.6161 98.0463 22.7299 97.8929C22.8462 97.737 23.0121 97.5983 23.2274 97.4771C23.4452 97.3533 23.7397 97.2914 24.111 97.2914C24.5911 97.2914 25.0144 97.4115 25.3807 97.6516C25.747 97.8916 26.0328 98.232 26.2383 98.6725C26.4437 99.1131 26.5464 99.6328 26.5464 100.232C26.5464 100.836 26.4437 101.359 26.2383 101.802C26.0328 102.243 25.7482 102.584 25.3844 102.827C25.0205 103.067 24.601 103.187 24.1258 103.187C23.7595 103.187 23.4662 103.126 23.2459 103.005C23.0257 102.881 22.8561 102.741 22.7373 102.586C22.6185 102.427 22.5269 102.296 22.4626 102.192H22.3883V105.207H21.5122ZM22.3735 100.217C22.3735 100.648 22.4366 101.028 22.5628 101.357C22.6891 101.683 22.8735 101.94 23.116 102.125C23.3586 102.308 23.6556 102.4 24.007 102.4C24.3733 102.4 24.679 102.303 24.924 102.11C25.1715 101.915 25.3572 101.652 25.4809 101.323C25.6071 100.992 25.6702 100.623 25.6702 100.217C25.6702 99.816 25.6084 99.4546 25.4846 99.1329C25.3633 98.8086 25.1789 98.5525 24.9314 98.3644C24.6864 98.1738 24.3783 98.0785 24.007 98.0785C23.6506 98.0785 23.3511 98.1688 23.1086 98.3495C22.866 98.5277 22.6829 98.7777 22.5591 99.0995C22.4354 99.4187 22.3735 99.7912 22.3735 100.217ZM27.8829 105.207V97.3657H28.7294V98.2716H28.8333C28.8977 98.1726 28.9868 98.0463 29.1006 97.8929C29.217 97.737 29.3828 97.5983 29.5981 97.4771C29.8159 97.3533 30.1105 97.2914 30.4817 97.2914C30.9619 97.2914 31.3851 97.4115 31.7514 97.6516C32.1177 97.8916 32.4036 98.232 32.609 98.6725C32.8144 99.1131 32.9171 99.6328 32.9171 100.232C32.9171 100.836 32.8144 101.359 32.609 101.802C32.4036 102.243 32.1189 102.584 31.7551 102.827C31.3913 103.067 30.9718 103.187 30.4966 103.187C30.1303 103.187 29.837 103.126 29.6167 103.005C29.3964 102.881 29.2269 102.741 29.1081 102.586C28.9893 102.427 28.8977 102.296 28.8333 102.192H28.7591V105.207H27.8829ZM28.7442 100.217C28.7442 100.648 28.8073 101.028 28.9336 101.357C29.0598 101.683 29.2442 101.94 29.4867 102.125C29.7293 102.308 30.0263 102.4 30.3778 102.4C30.7441 102.4 31.0497 102.303 31.2948 102.11C31.5423 101.915 31.7279 101.652 31.8516 101.323C31.9779 100.992 32.041 100.623 32.041 100.217C32.041 99.816 31.9791 99.4546 31.8554 99.1329C31.7341 98.8086 31.5497 98.5525 31.3022 98.3644C31.0572 98.1738 30.749 98.0785 30.3778 98.0785C30.0214 98.0785 29.7219 98.1688 29.4793 98.3495C29.2368 98.5277 29.0536 98.7777 28.9299 99.0995C28.8061 99.4187 28.7442 99.7912 28.7442 100.217ZM34.2537 103.068V97.3657H35.1298V103.068H34.2537ZM34.6992 96.4153C34.5284 96.4153 34.3811 96.3571 34.2574 96.2408C34.1361 96.1245 34.0755 95.9846 34.0755 95.8213C34.0755 95.6579 34.1361 95.5181 34.2574 95.4018C34.3811 95.2854 34.5284 95.2273 34.6992 95.2273C34.8699 95.2273 35.016 95.2854 35.1373 95.4018C35.261 95.5181 35.3229 95.6579 35.3229 95.8213C35.3229 95.9846 35.261 96.1245 35.1373 96.2408C35.016 96.3571 34.8699 96.4153 34.6992 96.4153ZM37.6107 99.6378V103.068H36.7346V97.3657H37.581V98.2567H37.6553C37.7889 97.9671 37.9919 97.7345 38.2641 97.5587C38.5364 97.3805 38.8879 97.2914 39.3185 97.2914C39.7046 97.2914 40.0425 97.3706 40.332 97.529C40.6216 97.685 40.8468 97.9226 41.0077 98.2419C41.1686 98.5587 41.249 98.9596 41.249 99.4447V103.068H40.3729V99.5041C40.3729 99.0561 40.2565 98.7072 40.0239 98.4572C39.7912 98.2047 39.472 98.0785 39.0661 98.0785C38.7864 98.0785 38.5364 98.1391 38.3161 98.2604C38.0983 98.3817 37.9263 98.5587 37.8001 98.7913C37.6738 99.024 37.6107 99.3061 37.6107 99.6378ZM45.241 103.187C44.6915 103.187 44.2175 103.066 43.8191 102.823C43.423 102.578 43.1174 102.237 42.9021 101.798C42.6892 101.358 42.5828 100.846 42.5828 100.261C42.5828 99.6774 42.6892 99.1626 42.9021 98.7171C43.1174 98.2691 43.4169 97.9201 43.8005 97.6701C44.1866 97.4177 44.6371 97.2914 45.1519 97.2914C45.4489 97.2914 45.7422 97.3409 46.0317 97.4399C46.3213 97.5389 46.5849 97.6998 46.8225 97.9226C47.0601 98.1429 47.2494 98.4349 47.3905 98.7987C47.5316 99.1626 47.6021 99.6106 47.6021 100.143V100.514H43.2065V99.7566H46.7111C46.7111 99.4348 46.6468 99.1477 46.5181 98.8953C46.3919 98.6428 46.2112 98.4436 45.976 98.2975C45.7434 98.1515 45.4687 98.0785 45.1519 98.0785C44.8029 98.0785 44.5009 98.1651 44.246 98.3384C43.9935 98.5092 43.7993 98.7319 43.6631 99.0066C43.527 99.2814 43.4589 99.5759 43.4589 99.8902V100.395C43.4589 100.826 43.5332 101.191 43.6817 101.49C43.8327 101.787 44.0418 102.014 44.3091 102.17C44.5764 102.323 44.887 102.4 45.241 102.4C45.4711 102.4 45.679 102.368 45.8647 102.303C46.0528 102.237 46.2149 102.138 46.351 102.006C46.4871 101.873 46.5923 101.707 46.6666 101.509L47.513 101.747C47.4239 102.034 47.2742 102.286 47.0638 102.504C46.8534 102.719 46.5936 102.887 46.2842 103.009C45.9748 103.128 45.6271 103.187 45.241 103.187ZM52.9742 98.6428L52.1871 98.8656C52.1376 98.7344 52.0646 98.6069 51.9681 98.4832C51.8741 98.3569 51.7454 98.253 51.582 98.1713C51.4186 98.0896 51.2095 98.0488 50.9546 98.0488C50.6056 98.0488 50.3148 98.1292 50.0821 98.2901C49.8519 98.4485 49.7369 98.6502 49.7369 98.8953C49.7369 99.1131 49.8161 99.2851 49.9745 99.4113C50.1329 99.5375 50.3804 99.6427 50.717 99.7269L51.5634 99.9348C52.0733 100.059 52.4532 100.248 52.7032 100.503C52.9532 100.755 53.0782 101.081 53.0782 101.479C53.0782 101.806 52.9841 102.098 52.796 102.355C52.6104 102.613 52.3505 102.816 52.0164 102.964C51.6822 103.113 51.2937 103.187 50.8506 103.187C50.269 103.187 49.7876 103.061 49.4064 102.808C49.0253 102.556 48.784 102.187 48.6825 101.702L49.5141 101.494C49.5933 101.801 49.743 102.031 49.9633 102.185C50.1861 102.338 50.4769 102.415 50.8358 102.415C51.2442 102.415 51.5684 102.328 51.8085 102.155C52.051 101.979 52.1723 101.769 52.1723 101.524C52.1723 101.326 52.103 101.16 51.9644 101.026C51.8258 100.89 51.6129 100.789 51.3258 100.722L50.3754 100.499C49.8532 100.375 49.4696 100.184 49.2245 99.9236C48.982 99.6613 48.8607 99.3333 48.8607 98.9398C48.8607 98.6181 48.951 98.3334 49.1317 98.0859C49.3149 97.8384 49.5636 97.6441 49.8779 97.5031C50.1947 97.362 50.5536 97.2914 50.9546 97.2914C51.5189 97.2914 51.9619 97.4152 52.2837 97.6627C52.6079 97.9102 52.8381 98.2369 52.9742 98.6428Z" fill="#00194F"/>
<path d="M1.3753 116.374H2.47422L5.05815 122.685H5.14726L7.73119 116.374H8.83011V123.977H7.96879V118.201H7.89454L5.51851 123.977H4.6869L2.31087 118.201H2.23661V123.977H1.3753V116.374ZM12.2354 124.111C11.8741 124.111 11.5461 124.043 11.2516 123.907C10.9571 123.768 10.7232 123.569 10.5499 123.309C10.3767 123.047 10.2901 122.73 10.2901 122.359C10.2901 122.032 10.3544 121.767 10.4831 121.564C10.6118 121.359 10.7838 121.198 10.9992 121.081C11.2145 120.965 11.4521 120.879 11.712 120.822C11.9743 120.762 12.2379 120.715 12.5027 120.681C12.8493 120.636 13.1302 120.603 13.3455 120.58C13.5633 120.556 13.7217 120.515 13.8207 120.458C13.9222 120.401 13.9729 120.302 13.9729 120.161V120.131C13.9729 119.765 13.8727 119.48 13.6722 119.277C13.4742 119.074 13.1735 118.973 12.7701 118.973C12.3518 118.973 12.0238 119.064 11.7862 119.247C11.5486 119.431 11.3816 119.626 11.285 119.834L10.4534 119.537C10.6019 119.191 10.7999 118.921 11.0474 118.728C11.2974 118.532 11.5697 118.396 11.8642 118.319C12.1612 118.24 12.4532 118.201 12.7404 118.201C12.9235 118.201 13.1339 118.223 13.3715 118.267C13.6116 118.309 13.843 118.397 14.0657 118.531C14.291 118.665 14.4778 118.866 14.6263 119.136C14.7748 119.406 14.8491 119.767 14.8491 120.22V123.977H13.9729V123.205H13.9284C13.869 123.329 13.77 123.461 13.6314 123.602C13.4928 123.743 13.3084 123.863 13.0782 123.962C12.848 124.061 12.5671 124.111 12.2354 124.111ZM12.3691 123.324C12.7156 123.324 13.0077 123.256 13.2453 123.12C13.4853 122.984 13.666 122.808 13.7873 122.592C13.911 122.377 13.9729 122.151 13.9729 121.913V121.111C13.9358 121.156 13.8541 121.197 13.7279 121.234C13.6041 121.268 13.4606 121.299 13.2972 121.327C13.1364 121.351 12.9792 121.374 12.8257 121.393C12.6748 121.411 12.5522 121.426 12.4582 121.438C12.2305 121.468 12.0176 121.516 11.8196 121.583C11.6241 121.647 11.4657 121.745 11.3444 121.876C11.2256 122.005 11.1662 122.18 11.1662 122.403C11.1662 122.708 11.2788 122.938 11.5041 123.094C11.7318 123.247 12.0201 123.324 12.3691 123.324ZM17.3244 116.374V123.977H16.4483V116.374H17.3244ZM20.6073 124.111C20.2459 124.111 19.918 124.043 19.6234 123.907C19.3289 123.768 19.095 123.569 18.9218 123.309C18.7485 123.047 18.6619 122.73 18.6619 122.359C18.6619 122.032 18.7262 121.767 18.8549 121.564C18.9836 121.359 19.1556 121.198 19.371 121.081C19.5863 120.965 19.8239 120.879 20.0838 120.822C20.3461 120.762 20.6097 120.715 20.8746 120.681C21.2211 120.636 21.502 120.603 21.7173 120.58C21.9351 120.556 22.0935 120.515 22.1925 120.458C22.294 120.401 22.3447 120.302 22.3447 120.161V120.131C22.3447 119.765 22.2445 119.48 22.044 119.277C21.846 119.074 21.5453 118.973 21.1419 118.973C20.7236 118.973 20.3956 119.064 20.158 119.247C19.9204 119.431 19.7534 119.626 19.6568 119.834L18.8252 119.537C18.9737 119.191 19.1717 118.921 19.4192 118.728C19.6692 118.532 19.9415 118.396 20.236 118.319C20.533 118.24 20.8251 118.201 21.1122 118.201C21.2953 118.201 21.5057 118.223 21.7433 118.267C21.9834 118.309 22.2148 118.397 22.4375 118.531C22.6628 118.665 22.8496 118.866 22.9981 119.136C23.1466 119.406 23.2209 119.767 23.2209 120.22V123.977H22.3447V123.205H22.3002C22.2408 123.329 22.1418 123.461 22.0032 123.602C21.8646 123.743 21.6802 123.863 21.45 123.962C21.2198 124.061 20.9389 124.111 20.6073 124.111ZM20.7409 123.324C21.0874 123.324 21.3795 123.256 21.6171 123.12C21.8571 122.984 22.0378 122.808 22.1591 122.592C22.2828 122.377 22.3447 122.151 22.3447 121.913V121.111C22.3076 121.156 22.2259 121.197 22.0997 121.234C21.9759 121.268 21.8324 121.299 21.669 121.327C21.5082 121.351 21.351 121.374 21.1975 121.393C21.0466 121.411 20.9241 121.426 20.83 121.438C20.6023 121.468 20.3894 121.516 20.1914 121.583C19.9959 121.647 19.8375 121.745 19.7162 121.876C19.5974 122.005 19.538 122.18 19.538 122.403C19.538 122.708 19.6506 122.938 19.8759 123.094C20.1036 123.247 20.3919 123.324 20.7409 123.324ZM25.1802 126.116C25.0317 126.116 24.8993 126.103 24.7829 126.079C24.6666 126.056 24.5862 126.034 24.5416 126.012L24.7644 125.24C24.9772 125.294 25.1653 125.314 25.3287 125.299C25.492 125.284 25.6368 125.211 25.7631 125.08C25.8918 124.951 26.0093 124.742 26.1157 124.452L26.2791 124.007L24.1704 118.275H25.1208L26.6949 122.819H26.7543L28.3284 118.275H29.2788L26.8583 124.809C26.7494 125.103 26.6145 125.347 26.4536 125.54C26.2927 125.736 26.1058 125.881 25.893 125.975C25.6826 126.069 25.445 126.116 25.1802 126.116ZM34.4746 119.552L33.6875 119.775C33.638 119.643 33.565 119.516 33.4685 119.392C33.3744 119.266 33.2457 119.162 33.0824 119.08C32.919 118.999 32.7099 118.958 32.4549 118.958C32.106 118.958 31.8151 119.038 31.5825 119.199C31.3523 119.358 31.2372 119.559 31.2372 119.804C31.2372 120.022 31.3164 120.194 31.4748 120.32C31.6332 120.447 31.8807 120.552 32.2173 120.636L33.0638 120.844C33.5736 120.968 33.9536 121.157 34.2035 121.412C34.4535 121.664 34.5785 121.99 34.5785 122.388C34.5785 122.715 34.4845 123.007 34.2964 123.264C34.1107 123.522 33.8509 123.725 33.5167 123.873C33.1826 124.022 32.794 124.096 32.351 124.096C31.7693 124.096 31.288 123.97 30.9068 123.717C30.5256 123.465 30.2843 123.096 30.1829 122.611L31.0145 122.403C31.0937 122.71 31.2434 122.94 31.4637 123.094C31.6864 123.247 31.9773 123.324 32.3361 123.324C32.7445 123.324 33.0687 123.237 33.3088 123.064C33.5514 122.888 33.6726 122.678 33.6726 122.433C33.6726 122.235 33.6033 122.069 33.4647 121.935C33.3261 121.799 33.1133 121.698 32.8262 121.631L31.8758 121.408C31.3535 121.284 30.9699 121.093 30.7249 120.833C30.4823 120.57 30.3611 120.242 30.3611 119.849C30.3611 119.527 30.4514 119.243 30.6321 118.995C30.8152 118.748 31.064 118.553 31.3783 118.412C31.6951 118.271 32.054 118.201 32.4549 118.201C33.0192 118.201 33.4623 118.324 33.784 118.572C34.1083 118.819 34.3384 119.146 34.4746 119.552ZM35.8974 123.977V118.275H36.7736V123.977H35.8974ZM36.3429 117.324C36.1721 117.324 36.0249 117.266 35.9011 117.15C35.7798 117.034 35.7192 116.894 35.7192 116.73C35.7192 116.567 35.7798 116.427 35.9011 116.311C36.0249 116.195 36.1721 116.136 36.3429 116.136C36.5137 116.136 36.6597 116.195 36.781 116.311C36.9047 116.427 36.9666 116.567 36.9666 116.73C36.9666 116.894 36.9047 117.034 36.781 117.15C36.6597 117.266 36.5137 117.324 36.3429 117.324ZM40.0564 124.111C39.695 124.111 39.3671 124.043 39.0726 123.907C38.778 123.768 38.5441 123.569 38.3709 123.309C38.1976 123.047 38.111 122.73 38.111 122.359C38.111 122.032 38.1754 121.767 38.3041 121.564C38.4328 121.359 38.6048 121.198 38.8201 121.081C39.0354 120.965 39.273 120.879 39.5329 120.822C39.7953 120.762 40.0589 120.715 40.3237 120.681C40.6702 120.636 40.9511 120.603 41.1664 120.58C41.3842 120.556 41.5426 120.515 41.6416 120.458C41.7431 120.401 41.7939 120.302 41.7939 120.161V120.131C41.7939 119.765 41.6936 119.48 41.4931 119.277C41.2951 119.074 40.9944 118.973 40.591 118.973C40.1727 118.973 39.8448 119.064 39.6072 119.247C39.3696 119.431 39.2025 119.626 39.106 119.834L38.2744 119.537C38.4229 119.191 38.6209 118.921 38.8684 118.728C39.1183 118.532 39.3906 118.396 39.6851 118.319C39.9821 118.24 40.2742 118.201 40.5613 118.201C40.7444 118.201 40.9548 118.223 41.1924 118.267C41.4325 118.309 41.6639 118.397 41.8867 118.531C42.1119 118.665 42.2988 118.866 42.4473 119.136C42.5958 119.406 42.67 119.767 42.67 120.22V123.977H41.7939V123.205H41.7493C41.6899 123.329 41.5909 123.461 41.4523 123.602C41.3137 123.743 41.1293 123.863 40.8991 123.962C40.669 124.061 40.388 124.111 40.0564 124.111ZM40.19 123.324C40.5365 123.324 40.8286 123.256 41.0662 123.12C41.3063 122.984 41.487 122.808 41.6082 122.592C41.732 122.377 41.7939 122.151 41.7939 121.913V121.111C41.7567 121.156 41.6751 121.197 41.5488 121.234C41.4251 121.268 41.2815 121.299 41.1182 121.327C40.9573 121.351 40.8001 121.374 40.6467 121.393C40.4957 121.411 40.3732 121.426 40.2791 121.438C40.0514 121.468 39.8386 121.516 39.6406 121.583C39.445 121.647 39.2866 121.745 39.1654 121.876C39.0466 122.005 38.9872 122.18 38.9872 122.403C38.9872 122.708 39.0998 122.938 39.325 123.094C39.5527 123.247 39.8411 123.324 40.19 123.324Z" fill="#00194F"/>
<path d="M5.53336 139.184C5.48881 138.808 5.30813 138.516 4.99133 138.308C4.67452 138.1 4.28594 137.996 3.82559 137.996C3.48898 137.996 3.19445 138.05 2.942 138.159C2.69202 138.268 2.49649 138.418 2.35542 138.608C2.21681 138.799 2.14751 139.016 2.14751 139.258C2.14751 139.461 2.19578 139.636 2.2923 139.782C2.3913 139.925 2.51753 140.045 2.67098 140.142C2.82444 140.236 2.98531 140.314 3.15362 140.376C3.32192 140.435 3.47661 140.483 3.61768 140.52L4.38989 140.728C4.5879 140.78 4.80818 140.852 5.05073 140.944C5.29576 141.035 5.52965 141.16 5.7524 141.319C5.97763 141.475 6.16326 141.675 6.30928 141.92C6.45531 142.165 6.52832 142.466 6.52832 142.822C6.52832 143.233 6.42066 143.604 6.20533 143.936C5.99248 144.268 5.68063 144.531 5.26977 144.727C4.86139 144.922 4.36514 145.02 3.78104 145.02C3.23653 145.02 2.76503 144.932 2.36655 144.756C1.97055 144.581 1.65869 144.336 1.43099 144.021C1.20576 143.707 1.0783 143.342 1.0486 142.926H1.99901C2.02376 143.213 2.12029 143.451 2.28859 143.639C2.45937 143.825 2.6747 143.963 2.93457 144.055C3.19693 144.144 3.47908 144.188 3.78104 144.188C4.13249 144.188 4.44806 144.131 4.72774 144.018C5.00742 143.901 5.22893 143.74 5.39228 143.535C5.55564 143.327 5.63731 143.085 5.63731 142.807C5.63731 142.555 5.56677 142.349 5.4257 142.191C5.28462 142.033 5.09899 141.904 4.86881 141.805C4.63864 141.706 4.38989 141.619 4.12259 141.545L3.18703 141.278C2.59302 141.107 2.12276 140.863 1.77626 140.546C1.42975 140.23 1.2565 139.815 1.2565 139.303C1.2565 138.877 1.37159 138.506 1.60177 138.189C1.83442 137.87 2.14628 137.622 2.53733 137.446C2.93086 137.268 3.37018 137.179 3.85529 137.179C4.34534 137.179 4.78095 137.267 5.16211 137.443C5.54326 137.616 5.84522 137.854 6.06797 138.155C6.2932 138.457 6.412 138.8 6.42437 139.184H5.53336ZM7.92332 144.886V139.184H8.79948V144.886H7.92332ZM8.36882 138.233C8.19804 138.233 8.05078 138.175 7.92703 138.059C7.80575 137.943 7.74511 137.803 7.74511 137.639C7.74511 137.476 7.80575 137.336 7.92703 137.22C8.05078 137.104 8.19804 137.045 8.36882 137.045C8.5396 137.045 8.68563 137.104 8.8069 137.22C8.93065 137.336 8.99253 137.476 8.99253 137.639C8.99253 137.803 8.93065 137.943 8.8069 138.059C8.68563 138.175 8.5396 138.233 8.36882 138.233ZM11.2804 141.456V144.886H10.4042V139.184H11.2507V140.075H11.3249C11.4586 139.785 11.6615 139.553 11.9338 139.377C12.2061 139.199 12.5575 139.11 12.9882 139.11C13.3743 139.11 13.7121 139.189 14.0017 139.347C14.2913 139.503 14.5165 139.741 14.6774 140.06C14.8383 140.377 14.9187 140.778 14.9187 141.263V144.886H14.0425V141.322C14.0425 140.874 13.9262 140.525 13.6936 140.275C13.4609 140.023 13.1416 139.897 12.7357 139.897C12.456 139.897 12.2061 139.957 11.9858 140.079C11.768 140.2 11.596 140.377 11.4697 140.609C11.3435 140.842 11.2804 141.124 11.2804 141.456ZM18.8215 147.144C18.3983 147.144 18.0345 147.089 17.73 146.98C17.4256 146.874 17.1719 146.733 16.9689 146.557C16.7685 146.384 16.6088 146.198 16.49 146L17.188 145.51C17.2672 145.614 17.3674 145.733 17.4887 145.866C17.61 146.003 17.7758 146.12 17.9862 146.219C18.199 146.321 18.4775 146.371 18.8215 146.371C19.2819 146.371 19.6618 146.26 19.9613 146.037C20.2607 145.814 20.4105 145.466 20.4105 144.99V143.832H20.3362C20.2719 143.936 20.1803 144.065 20.0615 144.218C19.9452 144.369 19.7769 144.504 19.5566 144.623C19.3388 144.739 19.0443 144.797 18.673 144.797C18.2127 144.797 17.7993 144.688 17.433 144.471C17.0692 144.253 16.7808 143.936 16.568 143.52C16.3576 143.104 16.2524 142.599 16.2524 142.005C16.2524 141.421 16.3551 140.913 16.5606 140.48C16.766 140.044 17.0519 139.707 17.4182 139.47C17.7845 139.23 18.2077 139.11 18.6879 139.11C19.0591 139.11 19.3536 139.171 19.5714 139.295C19.7917 139.417 19.96 139.555 20.0764 139.711C20.1952 139.865 20.2867 139.991 20.3511 140.09H20.4402V139.184H21.2866V145.05C21.2866 145.54 21.1753 145.938 20.9525 146.245C20.7322 146.555 20.4352 146.781 20.0615 146.925C19.6902 147.071 19.2769 147.144 18.8215 147.144ZM18.7918 144.01C19.1433 144.01 19.4403 143.93 19.6828 143.769C19.9254 143.608 20.1098 143.377 20.236 143.075C20.3622 142.773 20.4253 142.411 20.4253 141.991C20.4253 141.58 20.3635 141.217 20.2397 140.903C20.116 140.588 19.9328 140.342 19.6902 140.164C19.4477 139.986 19.1482 139.897 18.7918 139.897C18.4206 139.897 18.1112 139.991 17.8637 140.179C17.6186 140.367 17.4343 140.619 17.3105 140.936C17.1892 141.253 17.1286 141.604 17.1286 141.991C17.1286 142.387 17.1905 142.737 17.3142 143.041C17.4404 143.343 17.6261 143.581 17.8711 143.754C18.1186 143.925 18.4255 144.01 18.7918 144.01ZM24.5685 145.02C24.2072 145.02 23.8792 144.952 23.5847 144.816C23.2902 144.677 23.0563 144.478 22.883 144.218C22.7098 143.956 22.6232 143.639 22.6232 143.268C22.6232 142.941 22.6875 142.676 22.8162 142.473C22.9449 142.268 23.1169 142.107 23.3323 141.991C23.5476 141.874 23.7852 141.788 24.0451 141.731C24.3074 141.671 24.571 141.624 24.8358 141.59C25.1824 141.545 25.4633 141.512 25.6786 141.489C25.8964 141.465 26.0548 141.424 26.1538 141.367C26.2553 141.31 26.306 141.211 26.306 141.07V141.04C26.306 140.674 26.2058 140.389 26.0053 140.186C25.8073 139.983 25.5066 139.882 25.1032 139.882C24.6849 139.882 24.3569 139.973 24.1193 140.157C23.8817 140.34 23.7147 140.535 23.6181 140.743L22.7865 140.446C22.935 140.1 23.133 139.83 23.3805 139.637C23.6305 139.441 23.9028 139.305 24.1973 139.228C24.4943 139.149 24.7863 139.11 25.0734 139.11C25.2566 139.11 25.467 139.132 25.7046 139.176C25.9447 139.219 26.1761 139.306 26.3988 139.44C26.6241 139.574 26.8109 139.775 26.9594 140.045C27.1079 140.315 27.1822 140.676 27.1822 141.129V144.886H26.306V144.114H26.2615C26.2021 144.238 26.1031 144.37 25.9645 144.511C25.8259 144.652 25.6415 144.773 25.4113 144.872C25.1811 144.971 24.9002 145.02 24.5685 145.02ZM24.7022 144.233C25.0487 144.233 25.3408 144.165 25.5784 144.029C25.8184 143.893 25.9991 143.717 26.1204 143.502C26.2441 143.286 26.306 143.06 26.306 142.822V142.02C26.2689 142.065 26.1872 142.106 26.061 142.143C25.9372 142.177 25.7937 142.208 25.6303 142.236C25.4695 142.26 25.3123 142.283 25.1588 142.302C25.0079 142.32 24.8853 142.335 24.7913 142.347C24.5636 142.377 24.3507 142.425 24.1527 142.492C23.9572 142.556 23.7988 142.654 23.6775 142.785C23.5587 142.914 23.4993 143.089 23.4993 143.312C23.4993 143.617 23.6119 143.847 23.8372 144.003C24.0649 144.156 24.3532 144.233 24.7022 144.233ZM28.7814 147.025V139.184H29.6278V140.09H29.7318C29.7961 139.991 29.8852 139.865 29.9991 139.711C30.1154 139.555 30.2812 139.417 30.4966 139.295C30.7144 139.171 31.0089 139.11 31.3801 139.11C31.8603 139.11 32.2835 139.23 32.6498 139.47C33.0161 139.71 33.302 140.05 33.5074 140.491C33.7129 140.931 33.8156 141.451 33.8156 142.05C33.8156 142.654 33.7129 143.177 33.5074 143.62C33.302 144.061 33.0174 144.402 32.6536 144.645C32.2897 144.885 31.8702 145.005 31.395 145.005C31.0287 145.005 30.7354 144.945 30.5151 144.823C30.2948 144.699 30.1253 144.56 30.0065 144.404C29.8877 144.245 29.7961 144.114 29.7318 144.01H29.6575V147.025H28.7814ZM29.6427 142.035C29.6427 142.466 29.7058 142.846 29.832 143.175C29.9582 143.502 30.1426 143.758 30.3852 143.943C30.6277 144.127 30.9247 144.218 31.2762 144.218C31.6425 144.218 31.9482 144.122 32.1932 143.929C32.4407 143.733 32.6263 143.471 32.7501 143.141C32.8763 142.81 32.9394 142.441 32.9394 142.035C32.9394 141.634 32.8775 141.273 32.7538 140.951C32.6325 140.627 32.4481 140.371 32.2006 140.183C31.9556 139.992 31.6474 139.897 31.2762 139.897C30.9198 139.897 30.6203 139.987 30.3778 140.168C30.1352 140.346 29.9521 140.596 29.8283 140.918C29.7045 141.237 29.6427 141.609 29.6427 142.035ZM37.4687 145.005C36.9539 145.005 36.5022 144.883 36.1137 144.638C35.7275 144.393 35.4256 144.05 35.2078 143.609C34.9925 143.169 34.8848 142.654 34.8848 142.065C34.8848 141.471 34.9925 140.952 35.2078 140.509C35.4256 140.066 35.7275 139.722 36.1137 139.477C36.5022 139.232 36.9539 139.11 37.4687 139.11C37.9835 139.11 38.434 139.232 38.8201 139.477C39.2087 139.722 39.5106 140.066 39.726 140.509C39.9438 140.952 40.0527 141.471 40.0527 142.065C40.0527 142.654 39.9438 143.169 39.726 143.609C39.5106 144.05 39.2087 144.393 38.8201 144.638C38.434 144.883 37.9835 145.005 37.4687 145.005ZM37.4687 144.218C37.8598 144.218 38.1815 144.118 38.434 143.917C38.6864 143.717 38.8733 143.453 38.9946 143.127C39.1159 142.8 39.1765 142.446 39.1765 142.065C39.1765 141.684 39.1159 141.328 38.9946 140.999C38.8733 140.67 38.6864 140.404 38.434 140.201C38.1815 139.998 37.8598 139.897 37.4687 139.897C37.0777 139.897 36.7559 139.998 36.5035 140.201C36.251 140.404 36.0642 140.67 35.9429 140.999C35.8216 141.328 35.761 141.684 35.761 142.065C35.761 142.446 35.8216 142.8 35.9429 143.127C36.0642 143.453 36.251 143.717 36.5035 143.917C36.7559 144.118 37.0777 144.218 37.4687 144.218ZM41.3901 144.886V139.184H42.2366V140.045H42.296C42.3999 139.763 42.588 139.534 42.8603 139.358C43.1325 139.183 43.4394 139.095 43.781 139.095C43.8453 139.095 43.9258 139.096 44.0223 139.098C44.1188 139.101 44.1919 139.105 44.2414 139.11V140.001C44.2117 139.993 44.1436 139.982 44.0372 139.967C43.9332 139.95 43.8231 139.941 43.7067 139.941C43.4295 139.941 43.182 139.999 42.9642 140.116C42.7489 140.23 42.5781 140.388 42.4519 140.591C42.3282 140.791 42.2663 141.02 42.2663 141.278V144.886H41.3901ZM47.4973 145.005C46.9478 145.005 46.4738 144.884 46.0754 144.641C45.6793 144.396 45.3737 144.055 45.1584 143.617C44.9455 143.176 44.8391 142.664 44.8391 142.08C44.8391 141.496 44.9455 140.981 45.1584 140.535C45.3737 140.087 45.6732 139.738 46.0568 139.488C46.4429 139.236 46.8934 139.11 47.4082 139.11C47.7052 139.11 47.9985 139.159 48.288 139.258C48.5776 139.357 48.8412 139.518 49.0788 139.741C49.3164 139.961 49.5058 140.253 49.6468 140.617C49.7879 140.981 49.8584 141.429 49.8584 141.961V142.332H45.4628V141.575H48.9674C48.9674 141.253 48.9031 140.966 48.7744 140.713C48.6482 140.461 48.4675 140.262 48.2323 140.116C47.9997 139.97 47.725 139.897 47.4082 139.897C47.0592 139.897 46.7572 139.983 46.5023 140.157C46.2498 140.327 46.0556 140.55 45.9194 140.825C45.7833 141.1 45.7152 141.394 45.7152 141.708V142.213C45.7152 142.644 45.7895 143.009 45.938 143.309C46.089 143.606 46.2981 143.832 46.5654 143.988C46.8327 144.141 47.1433 144.218 47.4973 144.218C47.7274 144.218 47.9353 144.186 48.121 144.122C48.3091 144.055 48.4712 143.956 48.6073 143.825C48.7434 143.691 48.8486 143.525 48.9229 143.327L49.7693 143.565C49.6802 143.852 49.5305 144.104 49.3201 144.322C49.1097 144.537 48.8499 144.706 48.5405 144.827C48.2311 144.946 47.8834 145.005 47.4973 145.005Z" fill="#00194F"/>
<path d="M80.3163 171.26V178.864H79.3956V172.226H79.351L77.4947 173.458V172.523L79.3956 171.26H80.3163ZM84.983 178.968C84.4236 178.968 83.9472 178.815 83.5536 178.511C83.1601 178.204 82.8594 177.76 82.6515 177.178C82.4436 176.594 82.3396 175.889 82.3396 175.062C82.3396 174.24 82.4436 173.539 82.6515 172.957C82.8618 172.373 83.1638 171.927 83.5573 171.62C83.9533 171.311 84.4285 171.156 84.983 171.156C85.5374 171.156 86.0113 171.311 86.4049 171.62C86.8009 171.927 87.1028 172.373 87.3107 172.957C87.5211 173.539 87.6263 174.24 87.6263 175.062C87.6263 175.889 87.5223 176.594 87.3144 177.178C87.1065 177.76 86.8058 178.204 86.4123 178.511C86.0188 178.815 85.5423 178.968 84.983 178.968ZM84.983 178.151C85.5374 178.151 85.968 177.884 86.2749 177.349C86.5818 176.814 86.7353 176.052 86.7353 175.062C86.7353 174.404 86.6647 173.843 86.5237 173.38C86.3851 172.917 86.1846 172.565 85.9222 172.322C85.6624 172.08 85.3493 171.958 84.983 171.958C84.4335 171.958 84.0041 172.229 83.6947 172.771C83.3853 173.311 83.2306 174.074 83.2306 175.062C83.2306 175.72 83.2999 176.28 83.4385 176.74C83.5771 177.2 83.7764 177.551 84.0363 177.791C84.2986 178.031 84.6142 178.151 84.983 178.151Z" fill="#00194F"/>
<path d="M166.545 178.968C166.109 178.968 165.717 178.881 165.368 178.708C165.019 178.534 164.739 178.297 164.529 177.995C164.319 177.693 164.203 177.349 164.184 176.963H165.075C165.109 177.307 165.265 177.591 165.542 177.817C165.822 178.039 166.156 178.151 166.545 178.151C166.857 178.151 167.134 178.078 167.376 177.932C167.621 177.786 167.813 177.585 167.952 177.33C168.093 177.073 168.164 176.782 168.164 176.458C168.164 176.126 168.09 175.83 167.944 175.571C167.801 175.308 167.603 175.102 167.35 174.951C167.098 174.8 166.81 174.723 166.485 174.72C166.253 174.718 166.014 174.754 165.769 174.828C165.524 174.9 165.322 174.993 165.164 175.107L164.302 175.003L164.763 171.26H168.713V172.077H165.535L165.268 174.319H165.312C165.468 174.196 165.664 174.093 165.899 174.011C166.134 173.93 166.379 173.889 166.634 173.889C167.099 173.889 167.514 174 167.878 174.223C168.244 174.443 168.531 174.745 168.739 175.129C168.949 175.512 169.055 175.951 169.055 176.443C169.055 176.928 168.946 177.361 168.728 177.742C168.512 178.121 168.215 178.421 167.837 178.641C167.458 178.859 167.027 178.968 166.545 178.968ZM173.009 178.968C172.45 178.968 171.974 178.815 171.58 178.511C171.186 178.204 170.886 177.76 170.678 177.178C170.47 176.594 170.366 175.889 170.366 175.062C170.366 174.24 170.47 173.539 170.678 172.957C170.888 172.373 171.19 171.927 171.584 171.62C171.98 171.311 172.455 171.156 173.009 171.156C173.564 171.156 174.038 171.311 174.431 171.62C174.827 171.927 175.129 172.373 175.337 172.957C175.547 173.539 175.653 174.24 175.653 175.062C175.653 175.889 175.549 176.594 175.341 177.178C175.133 177.76 174.832 178.204 174.439 178.511C174.045 178.815 173.569 178.968 173.009 178.968ZM173.009 178.151C173.564 178.151 173.994 177.884 174.301 177.349C174.608 176.814 174.762 176.052 174.762 175.062C174.762 174.404 174.691 173.843 174.55 173.38C174.411 172.917 174.211 172.565 173.949 172.322C173.689 172.08 173.376 171.958 173.009 171.958C172.46 171.958 172.03 172.229 171.721 172.771C171.412 173.311 171.257 174.074 171.257 175.062C171.257 175.72 171.326 176.28 171.465 176.74C171.604 177.2 171.803 177.551 172.063 177.791C172.325 178.031 172.641 178.151 173.009 178.151Z" fill="#00194F"/>
<path d="M255.453 171.156C255.765 171.159 256.077 171.218 256.388 171.335C256.7 171.451 256.985 171.644 257.242 171.914C257.5 172.181 257.706 172.546 257.862 173.009C258.018 173.472 258.096 174.052 258.096 174.75C258.096 175.426 258.032 176.026 257.903 176.551C257.777 177.073 257.594 177.514 257.354 177.872C257.116 178.231 256.827 178.504 256.485 178.689C256.146 178.875 255.762 178.968 255.334 178.968C254.908 178.968 254.528 178.883 254.194 178.715C253.863 178.544 253.59 178.308 253.378 178.006C253.167 177.702 253.032 177.349 252.973 176.948H253.879C253.96 177.297 254.123 177.585 254.365 177.813C254.61 178.038 254.933 178.151 255.334 178.151C255.921 178.151 256.384 177.895 256.723 177.382C257.064 176.87 257.235 176.146 257.235 175.21H257.176C257.037 175.418 256.872 175.598 256.682 175.749C256.491 175.9 256.28 176.016 256.047 176.098C255.814 176.179 255.567 176.22 255.304 176.22C254.869 176.22 254.469 176.113 254.105 175.897C253.744 175.68 253.454 175.381 253.237 175.003C253.021 174.621 252.914 174.186 252.914 173.696C252.914 173.23 253.017 172.805 253.225 172.419C253.436 172.03 253.73 171.721 254.109 171.491C254.49 171.26 254.938 171.149 255.453 171.156ZM255.453 171.973C255.141 171.973 254.86 172.051 254.61 172.207C254.363 172.36 254.166 172.568 254.02 172.831C253.876 173.091 253.805 173.379 253.805 173.696C253.805 174.013 253.874 174.301 254.012 174.561C254.154 174.818 254.345 175.024 254.588 175.177C254.833 175.328 255.111 175.404 255.423 175.404C255.658 175.404 255.877 175.358 256.08 175.266C256.283 175.172 256.46 175.045 256.611 174.884C256.765 174.72 256.885 174.536 256.971 174.331C257.058 174.123 257.101 173.906 257.101 173.681C257.101 173.384 257.029 173.105 256.886 172.846C256.745 172.586 256.549 172.375 256.299 172.214C256.052 172.054 255.77 171.973 255.453 171.973ZM262.036 178.968C261.477 178.968 261 178.815 260.607 178.511C260.213 178.204 259.913 177.76 259.705 177.178C259.497 176.594 259.393 175.889 259.393 175.062C259.393 174.24 259.497 173.539 259.705 172.957C259.915 172.373 260.217 171.927 260.611 171.62C261.007 171.311 261.482 171.156 262.036 171.156C262.591 171.156 263.065 171.311 263.458 171.62C263.854 171.927 264.156 172.373 264.364 172.957C264.574 173.539 264.68 174.24 264.68 175.062C264.68 175.889 264.576 176.594 264.368 177.178C264.16 177.76 263.859 178.204 263.466 178.511C263.072 178.815 262.596 178.968 262.036 178.968ZM262.036 178.151C262.591 178.151 263.021 177.884 263.328 177.349C263.635 176.814 263.789 176.052 263.789 175.062C263.789 174.404 263.718 173.843 263.577 173.38C263.438 172.917 263.238 172.565 262.975 172.322C262.716 172.08 262.402 171.958 262.036 171.958C261.487 171.958 261.057 172.229 260.748 172.771C260.439 173.311 260.284 174.074 260.284 175.062C260.284 175.72 260.353 176.28 260.492 176.74C260.63 177.2 260.83 177.551 261.089 177.791C261.352 178.031 261.667 178.151 262.036 178.151Z" fill="#00194F"/>
<path d="M61.7475 12.4799C61.5774 12.3097 61.3015 12.3097 61.1314 12.4799L58.3593 15.252C58.1891 15.4221 58.1891 15.698 58.3593 15.8681C58.5294 16.0382 58.8052 16.0382 58.9753 15.8681L61.4395 13.4039L63.9036 15.8681C64.0737 16.0382 64.3495 16.0382 64.5197 15.8681C64.6898 15.698 64.6898 15.4221 64.5197 15.252L61.7475 12.4799ZM61.4395 160.894H61.0038V161.33H61.4395V160.894ZM290.876 161.202C291.046 161.032 291.046 160.756 290.876 160.586L288.104 157.814C287.934 157.644 287.658 157.644 287.488 157.814C287.318 157.984 287.318 158.26 287.488 158.43L289.952 160.894L287.488 163.358C287.318 163.528 287.318 163.804 287.488 163.974C287.658 164.144 287.934 164.144 288.104 163.974L290.876 161.202ZM61.0038 12.7879V160.894H61.8751V12.7879H61.0038ZM61.4395 161.33H290.568V160.458H61.4395V161.33Z" fill="#333333"/>
<defs>
<linearGradient id="paint0_linear_531_36980" x1="98.0104" y1="198.792" x2="170.467" y2="189.038" gradientUnits="userSpaceOnUse">
<stop stop-color="#00194F"/>
<stop offset="0.838542" stop-color="#AF0000"/>
</linearGradient>
</defs>
</svg>
