<svg width="119" height="37" viewBox="0 0 119 37" fill="none" xmlns="http://www.w3.org/2000/svg">
<g id="Group">
<g id="Logo Efex">
<path id="Vector" fill-rule="evenodd" clip-rule="evenodd" d="M116.832 36.9998H102.089L98.2285 31.9859L105.672 22.1367L116.832 36.9998Z" fill="#00194F"/>
<path id="Vector_2" fill-rule="evenodd" clip-rule="evenodd" d="M114.067 7.6521L105.666 19.032L99.1006 10.0086H107.47L109.085 7.6521H114.067Z" fill="#00194F"/>
<path id="Vector_3" fill-rule="evenodd" clip-rule="evenodd" d="M99.8027 8.75812C99.8027 8.75812 106.48 8.63901 106.69 8.75812C106.9 8.87723 110.062 4.42828 110.062 4.42828H103.077L99.8027 8.75812Z" fill="#00194F"/>
<path id="Vector_4" fill-rule="evenodd" clip-rule="evenodd" d="M106.201 3.3689C106.201 3.3689 111.964 3.07918 111.964 3.3689C111.964 3.65702 114.407 0 114.407 0H108.791L106.201 3.3689Z" fill="#00194F"/>
<path id="Vector_5" fill-rule="evenodd" clip-rule="evenodd" d="M111.917 4.4986H115.311L113.675 6.56694H110.403L111.917 4.4986Z" fill="#00194F"/>
<path id="Vector_6" fill-rule="evenodd" clip-rule="evenodd" d="M115.152 0.86438H118.083L116.9 2.87317H113.663L115.152 0.86438Z" fill="#00194F"/>
<g id="Group_2">
<path id="Vector_7" fill-rule="evenodd" clip-rule="evenodd" d="M76.3174 4.33942H91.4513L103.363 20.7107L91.0607 36.9887H76.1221L88.6199 20.7107L76.3174 4.33942Z" fill="#AF0000"/>
</g>
<g id="Group_3">
<path id="Vector_8" d="M11.3565 12.4986V16.5113H21.7024V24.2117H11.3565V28.8232H23.1124V36.9855H0.916992V4.33624H23.1124V12.4986H11.3565Z" fill="#00194F"/>
<path id="Vector_9" d="M50.5762 4.3363V12.4519H37.5039V16.9717H46.9093V24.6721H37.5039V36.9839H27.0645V4.3363H50.5762Z" fill="#00194F"/>
<path id="Vector_10" d="M64.542 12.4986V16.5114H74.8879V24.2117H64.542V28.8232H76.2979V36.9855H54.1025V4.3363H76.2979V12.4986H64.542Z" fill="#00194F"/>
</g>
</g>
</g>
</svg>
