<svg xmlns="http://www.w3.org/2000/svg" width="25" height="19" viewBox="0 0 25 19" fill="none">
    <path
        d="M3.92857 8.1L10.2857 8.1V18.5H1L1 13.3L1 7.6V7.12497C1 3.42993 3.66512 0.5 6.92855 0.5L7.35714 0.5L8.57143 0.5V3.3H7.35714H6.92855C4.93915 3.3 3.42857 5.12329 3.42857 7.12497V7.6V8.1H3.92857ZM17.6429 8.1L24 8.1L24 18.5L14.7143 18.5V13.3V7.6L14.7143 7.12497C14.7143 3.42993 17.3794 0.5 20.6428 0.5L21.0714 0.5L22.2857 0.5V3.3H21.0714H20.6428C18.6534 3.3 17.1429 5.12329 17.1429 7.12497V7.6V8.1H17.6429Z"
        stroke="url(#paint0_linear_428_15036)" />
    <defs>
        <linearGradient id="paint0_linear_428_15036" x1="0.5" y1="19" x2="25.065" y2="18.4492"
            gradientUnits="userSpaceOnUse">
            <stop stop-color="#00194F" />
            <stop offset="0.838542" stop-color="#AF0000" />
        </linearGradient>
    </defs>
</svg>