<svg width="32" height="32" viewBox="0 0 32 32" fill="none" xmlns="http://www.w3.org/2000/svg">
<g clip-path="url(#clip0_35949_365299)">
<path d="M16 32C7.16 32 0 24.846 0 16.0133V15.9867C0 7.15404 7.16 0 16 0C24.84 0 32 7.15404 32 15.9867V16.0133C32 24.846 24.84 32 16 32Z" fill="url(#paint0_linear_35949_365299)"/>
<path d="M16.7454 21.9569C15.9586 21.9569 15.3184 22.526 15.3184 23.2254C15.3184 23.9248 15.9586 24.4945 16.7454 24.4945C17.5322 24.4945 18.1732 23.9254 18.1732 23.2254C18.1732 22.5254 17.533 21.9569 16.7454 21.9569ZM16.7454 23.6012C16.5125 23.6012 16.3234 23.4324 16.3234 23.2254C16.3234 23.0184 16.5125 22.8502 16.7454 22.8502C16.9783 22.8502 17.1682 23.0184 17.1682 23.2254C17.1682 23.4324 16.979 23.6012 16.7454 23.6012Z" fill="white"/>
<path d="M21.821 21.9569C21.0336 21.9569 20.3936 22.526 20.3936 23.2254C20.3936 23.9248 21.0336 24.4945 21.821 24.4945C22.6083 24.4945 23.2484 23.9254 23.2484 23.2254C23.2484 22.5254 22.6076 21.9569 21.821 21.9569ZM21.821 23.6012C21.5882 23.6012 21.3983 23.4324 21.3983 23.2254C21.3983 23.0184 21.5882 22.8502 21.821 22.8502C22.0538 22.8502 22.2437 23.0184 22.2437 23.2254C22.2437 23.4324 22.0538 23.6012 21.821 23.6012Z" fill="white"/>
<path d="M14.8695 14.8654L15.5708 17.4817H22.3346L23.2473 15.6754H17.2711L17.0542 14.8654H21.2325L22.1835 13.0038H16.555L16.362 12.2823H20.9097L21.8278 10.4551H13.6875L14.3703 13.0038L14.8695 14.8654Z" fill="white"/>
<path d="M23.6638 13.0479L22.7352 14.8654H23.0247C24.617 14.8654 25.9129 16.1609 25.9129 17.7536C25.9129 19.3462 24.6174 20.6417 23.0247 20.6417H12.9856L10.2326 9.86157L9.75731 8H5V9.86157H8.31107L11.5401 22.5033L11.6109 22.4852V22.5029H15.0489C15.3102 21.8631 15.9395 21.4102 16.6726 21.4102C17.4057 21.4102 18.035 21.8627 18.297 22.5029H20.2186C20.4803 21.8631 21.1093 21.4102 21.8423 21.4102C22.5754 21.4102 23.1921 21.853 23.4585 22.4819C25.8746 22.2622 27.7741 20.2257 27.7741 17.7532C27.7741 15.2807 25.9808 13.361 23.6634 13.0476L23.6638 13.0479Z" fill="white"/>
</g>
<defs>
<linearGradient id="paint0_linear_35949_365299" x1="16" y1="32.2097" x2="16" y2="0.162878" gradientUnits="userSpaceOnUse">
<stop stop-color="#FF7400"/>
<stop offset="1" stop-color="#FFAB52"/>
</linearGradient>
<clipPath id="clip0_35949_365299">
<rect width="32" height="32" fill="white"/>
</clipPath>
</defs>
</svg>
