<svg width="228" height="209" viewBox="0 0 228 209" fill="none" xmlns="http://www.w3.org/2000/svg">
<g clip-path="url(#clip0_6619_24433)">
<path opacity="0.7" d="M227.99 -0.178589H0V208.25H227.99V-0.178589Z" fill="url(#paint0_linear_6619_24433)"/>
<path opacity="0.2" d="M105.17 208.25H20.057L228 15.1378V94.1803L105.18 208.241L105.17 208.25ZM0 72.1962V188.963L203.678 -0.187866H77.9431L0.0101654 72.1868L0 72.1962Z" fill="white"/>
<path d="M25.9791 30.8445C24.8071 30.8445 23.7446 30.5926 22.7916 30.0887C21.8497 29.5739 21.1048 28.8674 20.5572 27.9692C20.0205 27.0601 19.7521 26.036 19.7521 24.8968C19.7521 23.7577 20.0205 22.739 20.5572 21.8409C21.1048 20.9317 21.8497 20.2252 22.7916 19.7214C23.7446 19.2066 24.8125 18.9492 25.9955 18.9492C26.9923 18.9492 27.8904 19.1244 28.69 19.4749C29.5006 19.8254 30.1797 20.3293 30.7273 20.9865L29.0186 22.5638C28.2409 21.6656 27.277 21.2165 26.1269 21.2165C25.415 21.2165 24.7797 21.3753 24.2211 21.693C23.6624 21.9997 23.2243 22.4323 22.9067 22.991C22.6 23.5496 22.4466 24.1849 22.4466 24.8968C22.4466 25.6088 22.6 26.2441 22.9067 26.8027C23.2243 27.3613 23.6624 27.7995 24.2211 28.1171C24.7797 28.4238 25.415 28.5772 26.1269 28.5772C27.277 28.5772 28.2409 28.1226 29.0186 27.2135L30.7273 28.7907C30.1797 29.4589 29.5006 29.9682 28.69 30.3187C27.8795 30.6692 26.9758 30.8445 25.9791 30.8445ZM41.0245 21.808V30.6473H38.5928V29.5958C38.2533 29.9792 37.848 30.2749 37.377 30.483C36.906 30.6802 36.3967 30.7788 35.849 30.7788C34.688 30.7788 33.7679 30.4447 33.0888 29.7765C32.4097 29.1084 32.0701 28.1171 32.0701 26.8027V21.808H34.6332V26.4248C34.6332 27.8488 35.2301 28.5607 36.4241 28.5607C37.0374 28.5607 37.5303 28.3636 37.9028 27.9692C38.2752 27.564 38.4614 26.967 38.4614 26.1784V21.808H41.0245ZM46.3728 30.7788C45.6389 30.7788 44.9215 30.6912 44.2205 30.5159C43.5195 30.3297 42.9608 30.0997 42.5446 29.8258L43.399 27.9857C43.7933 28.2376 44.2698 28.4457 44.8284 28.61C45.387 28.7634 45.9347 28.84 46.4714 28.84C47.5558 28.84 48.098 28.5717 48.098 28.035C48.098 27.783 47.9501 27.6023 47.6543 27.4928C47.3586 27.3832 46.904 27.2901 46.2907 27.2135C45.5677 27.1039 44.9708 26.978 44.4998 26.8356C44.0288 26.6932 43.618 26.4413 43.2675 26.0798C42.928 25.7183 42.7582 25.2035 42.7582 24.5354C42.7582 23.9768 42.917 23.4839 43.2347 23.0567C43.5633 22.6185 44.0343 22.279 44.6477 22.038C45.272 21.797 46.0059 21.6766 46.8493 21.6766C47.4736 21.6766 48.0925 21.7478 48.7059 21.8901C49.3302 22.0216 49.845 22.2078 50.2503 22.4488L49.3959 24.2725C48.6182 23.8344 47.7694 23.6153 46.8493 23.6153C46.3016 23.6153 45.8909 23.692 45.617 23.8453C45.3432 23.9987 45.2063 24.1958 45.2063 24.4368C45.2063 24.7106 45.3541 24.9023 45.6499 25.0118C45.9456 25.1214 46.4166 25.2254 47.0629 25.324C47.7858 25.4445 48.3773 25.5759 48.8373 25.7183C49.2973 25.8498 49.6971 26.0962 50.0367 26.4577C50.3762 26.8191 50.546 27.323 50.546 27.9692C50.546 28.5169 50.3817 29.0043 50.0531 29.4315C49.7245 29.8587 49.2426 30.1928 48.6073 30.4337C47.9829 30.6638 47.2381 30.7788 46.3728 30.7788ZM57.8286 30.2202C57.5767 30.4064 57.2645 30.5488 56.8921 30.6473C56.5307 30.735 56.1473 30.7788 55.742 30.7788C54.6905 30.7788 53.8745 30.5104 53.2939 29.9737C52.7244 29.437 52.4396 28.6484 52.4396 27.6078V23.9768H51.0759V22.0052H52.4396V19.8528H55.0027V22.0052H57.2043V23.9768H55.0027V27.5749C55.0027 27.9473 55.0958 28.2376 55.282 28.4457C55.4791 28.6429 55.753 28.7415 56.1035 28.7415C56.5087 28.7415 56.8538 28.6319 57.1386 28.4129L57.8286 30.2202ZM63.2007 30.7788C62.2697 30.7788 61.4318 30.5871 60.6869 30.2037C59.9531 29.8094 59.378 29.2672 58.9618 28.5772C58.5456 27.8871 58.3374 27.1039 58.3374 26.2277C58.3374 25.3514 58.5456 24.5682 58.9618 23.8782C59.378 23.1881 59.9531 22.6514 60.6869 22.268C61.4318 21.8737 62.2697 21.6766 63.2007 21.6766C64.1318 21.6766 64.9642 21.8737 65.6981 22.268C66.432 22.6514 67.007 23.1881 67.4232 23.8782C67.8395 24.5682 68.0476 25.3514 68.0476 26.2277C68.0476 27.1039 67.8395 27.8871 67.4232 28.5772C67.007 29.2672 66.432 29.8094 65.6981 30.2037C64.9642 30.5871 64.1318 30.7788 63.2007 30.7788ZM63.2007 28.6757C63.8579 28.6757 64.3946 28.4567 64.8109 28.0185C65.238 27.5695 65.4516 26.9725 65.4516 26.2277C65.4516 25.4828 65.238 24.8914 64.8109 24.4532C64.3946 24.0041 63.8579 23.7796 63.2007 23.7796C62.5435 23.7796 62.0013 24.0041 61.5742 24.4532C61.147 24.8914 60.9334 25.4828 60.9334 26.2277C60.9334 26.9725 61.147 27.5695 61.5742 28.0185C62.0013 28.4567 62.5435 28.6757 63.2007 28.6757ZM81.0811 21.6766C82.1873 21.6766 83.0636 22.0052 83.7099 22.6624C84.3671 23.3086 84.6957 24.2835 84.6957 25.5869V30.6473H82.1326V25.9812C82.1326 25.2802 81.9847 24.7599 81.689 24.4204C81.4042 24.0699 80.9934 23.8946 80.4567 23.8946C79.8543 23.8946 79.3778 24.0918 79.0273 24.4861C78.6768 24.8695 78.5015 25.4445 78.5015 26.2112V30.6473H75.9385V25.9812C75.9385 24.5901 75.3798 23.8946 74.2626 23.8946C73.6711 23.8946 73.2001 24.0918 72.8496 24.4861C72.4991 24.8695 72.3239 25.4445 72.3239 26.2112V30.6473H69.7608V21.808H72.2089V22.8267C72.5375 22.4542 72.9373 22.1695 73.4082 21.9723C73.8902 21.7751 74.416 21.6766 74.9855 21.6766C75.6099 21.6766 76.174 21.8025 76.6778 22.0544C77.1817 22.2954 77.5869 22.6514 77.8936 23.1224C78.2551 22.6624 78.7097 22.3064 79.2573 22.0544C79.8159 21.8025 80.4239 21.6766 81.0811 21.6766ZM95.7479 26.2605C95.7479 26.2934 95.7315 26.5234 95.6986 26.9506H89.0116C89.1321 27.4983 89.4169 27.9309 89.866 28.2486C90.3151 28.5662 90.8737 28.725 91.5418 28.725C92.0019 28.725 92.4071 28.6593 92.7577 28.5279C93.1191 28.3855 93.4532 28.1664 93.7599 27.8707L95.1236 29.3494C94.2911 30.3023 93.0753 30.7788 91.4761 30.7788C90.4794 30.7788 89.5976 30.5871 88.8309 30.2037C88.0641 29.8094 87.4727 29.2672 87.0564 28.5772C86.6402 27.8871 86.4321 27.1039 86.4321 26.2277C86.4321 25.3624 86.6347 24.5847 87.04 23.8946C87.4562 23.1936 88.0203 22.6514 88.7323 22.268C89.4552 21.8737 90.2603 21.6766 91.1475 21.6766C92.0128 21.6766 92.796 21.8628 93.497 22.2352C94.198 22.6076 94.7457 23.1443 95.14 23.8453C95.5453 24.5354 95.7479 25.3404 95.7479 26.2605ZM91.1639 23.6153C90.5834 23.6153 90.096 23.7796 89.7017 24.1082C89.3074 24.4368 89.0664 24.8859 88.9788 25.4555H93.3327C93.2451 24.8968 93.0041 24.4532 92.6098 24.1246C92.2155 23.7851 91.7335 23.6153 91.1639 23.6153ZM99.9024 22.9745C100.209 22.5473 100.62 22.2242 101.135 22.0052C101.66 21.7861 102.263 21.6766 102.942 21.6766V24.0425C102.657 24.0206 102.465 24.0096 102.367 24.0096C101.633 24.0096 101.058 24.2177 100.642 24.634C100.226 25.0392 100.017 25.6526 100.017 26.4741V30.6473H97.4543V21.808H99.9024V22.9745ZM112.157 30.7788C111.423 30.7788 110.706 30.6912 110.005 30.5159C109.304 30.3297 108.745 30.0997 108.329 29.8258L109.183 27.9857C109.577 28.2376 110.054 28.4457 110.613 28.61C111.171 28.7634 111.719 28.84 112.256 28.84C113.34 28.84 113.882 28.5717 113.882 28.035C113.882 27.783 113.734 27.6023 113.439 27.4928C113.143 27.3832 112.688 27.2901 112.075 27.2135C111.352 27.1039 110.755 26.978 110.284 26.8356C109.813 26.6932 109.402 26.4413 109.052 26.0798C108.712 25.7183 108.542 25.2035 108.542 24.5354C108.542 23.9768 108.701 23.4839 109.019 23.0567C109.347 22.6185 109.818 22.279 110.432 22.038C111.056 21.797 111.79 21.6766 112.633 21.6766C113.258 21.6766 113.877 21.7478 114.49 21.8901C115.114 22.0216 115.629 22.2078 116.034 22.4488L115.18 24.2725C114.402 23.8344 113.554 23.6153 112.633 23.6153C112.086 23.6153 111.675 23.692 111.401 23.8453C111.127 23.9987 110.99 24.1958 110.99 24.4368C110.99 24.7106 111.138 24.9023 111.434 25.0118C111.73 25.1214 112.201 25.2254 112.847 25.324C113.57 25.4445 114.161 25.5759 114.621 25.7183C115.082 25.8498 115.481 26.0962 115.821 26.4577C116.16 26.8191 116.33 27.323 116.33 27.9692C116.33 28.5169 116.166 29.0043 115.837 29.4315C115.509 29.8587 115.027 30.1928 114.391 30.4337C113.767 30.6638 113.022 30.7788 112.157 30.7788ZM126.57 26.2605C126.57 26.2934 126.554 26.5234 126.521 26.9506H119.834C119.954 27.4983 120.239 27.9309 120.688 28.2486C121.137 28.5662 121.696 28.725 122.364 28.725C122.824 28.725 123.229 28.6593 123.58 28.5279C123.941 28.3855 124.275 28.1664 124.582 27.8707L125.946 29.3494C125.113 30.3023 123.898 30.7788 122.298 30.7788C121.302 30.7788 120.42 30.5871 119.653 30.2037C118.886 29.8094 118.295 29.2672 117.879 28.5772C117.463 27.8871 117.254 27.1039 117.254 26.2277C117.254 25.3624 117.457 24.5847 117.862 23.8946C118.279 23.1936 118.843 22.6514 119.555 22.268C120.278 21.8737 121.083 21.6766 121.97 21.6766C122.835 21.6766 123.618 21.8628 124.319 22.2352C125.02 22.6076 125.568 23.1443 125.962 23.8453C126.368 24.5354 126.57 25.3404 126.57 26.2605ZM121.986 23.6153C121.406 23.6153 120.918 23.7796 120.524 24.1082C120.13 24.4368 119.889 24.8859 119.801 25.4555H124.155C124.067 24.8968 123.826 24.4532 123.432 24.1246C123.038 23.7851 122.556 23.6153 121.986 23.6153ZM130.725 22.9745C131.031 22.5473 131.442 22.2242 131.957 22.0052C132.483 21.7861 133.085 21.6766 133.764 21.6766V24.0425C133.479 24.0206 133.288 24.0096 133.189 24.0096C132.455 24.0096 131.88 24.2177 131.464 24.634C131.048 25.0392 130.84 25.6526 130.84 26.4741V30.6473H128.277V21.808H130.725V22.9745ZM144.367 21.808L140.637 30.6473H137.992L134.279 21.808H136.924L139.372 27.8214L141.902 21.808H144.367ZM145.413 21.808H147.976V30.6473H145.413V21.808ZM146.694 20.5757C146.223 20.5757 145.84 20.4388 145.544 20.165C145.248 19.8912 145.1 19.5516 145.1 19.1463C145.1 18.7411 145.248 18.4015 145.544 18.1277C145.84 17.8538 146.223 17.7169 146.694 17.7169C147.165 17.7169 147.548 17.8484 147.844 18.1112C148.14 18.3741 148.288 18.7027 148.288 19.097C148.288 19.5242 148.14 19.8802 147.844 20.165C147.548 20.4388 147.165 20.5757 146.694 20.5757ZM154.626 30.7788C153.684 30.7788 152.835 30.5871 152.08 30.2037C151.335 29.8094 150.749 29.2672 150.322 28.5772C149.905 27.8871 149.697 27.1039 149.697 26.2277C149.697 25.3514 149.905 24.5682 150.322 23.8782C150.749 23.1881 151.335 22.6514 152.08 22.268C152.835 21.8737 153.684 21.6766 154.626 21.6766C155.557 21.6766 156.368 21.8737 157.058 22.268C157.759 22.6514 158.268 23.2045 158.586 23.9275L156.598 24.9954C156.138 24.1849 155.475 23.7796 154.61 23.7796C153.942 23.7796 153.388 23.9987 152.95 24.4368C152.512 24.8749 152.293 25.4719 152.293 26.2277C152.293 26.9834 152.512 27.5804 152.95 28.0185C153.388 28.4567 153.942 28.6757 154.61 28.6757C155.486 28.6757 156.149 28.2705 156.598 27.4599L158.586 28.5443C158.268 29.2453 157.759 29.793 157.058 30.1873C156.368 30.5816 155.557 30.7788 154.626 30.7788ZM168.608 26.2605C168.608 26.2934 168.591 26.5234 168.559 26.9506H161.872C161.992 27.4983 162.277 27.9309 162.726 28.2486C163.175 28.5662 163.734 28.725 164.402 28.725C164.862 28.725 165.267 28.6593 165.618 28.5279C165.979 28.3855 166.313 28.1664 166.62 27.8707L167.984 29.3494C167.151 30.3023 165.935 30.7788 164.336 30.7788C163.339 30.7788 162.458 30.5871 161.691 30.2037C160.924 29.8094 160.333 29.2672 159.916 28.5772C159.5 27.8871 159.292 27.1039 159.292 26.2277C159.292 25.3624 159.495 24.5847 159.9 23.8946C160.316 23.1936 160.88 22.6514 161.592 22.268C162.315 21.8737 163.12 21.6766 164.007 21.6766C164.873 21.6766 165.656 21.8628 166.357 22.2352C167.058 22.6076 167.606 23.1443 168 23.8453C168.405 24.5354 168.608 25.3404 168.608 26.2605ZM164.024 23.6153C163.443 23.6153 162.956 23.7796 162.562 24.1082C162.167 24.4368 161.926 24.8859 161.839 25.4555H166.193C166.105 24.8968 165.864 24.4532 165.47 24.1246C165.075 23.7851 164.594 23.6153 164.024 23.6153Z" fill="white"/>
<path d="M110.664 44.1481H19.2646V61.1241H110.664V44.1481Z" fill="white"/>
<path d="M27.0488 54.7972V51.3136H29.1376V51.6878H27.4706V52.8649H28.9811V53.2391H27.4706V54.7972H27.0488ZM30.282 51.3136V54.7972H29.8601V51.3136H30.282ZM31.1278 54.7972V51.3136H32.3049C32.577 51.3136 32.8004 51.3601 32.9751 51.4531C33.1497 51.5449 33.279 51.6714 33.3629 51.8324C33.4468 51.9934 33.4888 52.1766 33.4888 52.3818C33.4888 52.5871 33.4468 52.7691 33.3629 52.9278C33.279 53.0866 33.1503 53.2113 32.9768 53.3021C32.8033 53.3917 32.5816 53.4364 32.3117 53.4364H31.3591V53.0554H32.2981C32.484 53.0554 32.6337 53.0282 32.7471 52.9738C32.8617 52.9193 32.9444 52.8422 32.9955 52.7424C33.0476 52.6415 33.0737 52.5213 33.0737 52.3818C33.0737 52.2423 33.0476 52.1204 32.9955 52.0161C32.9433 51.9118 32.86 51.8313 32.7454 51.7746C32.6309 51.7167 32.4795 51.6878 32.2913 51.6878H31.5496V54.7972H31.1278ZM32.7675 53.2323L33.6248 54.7972H33.135L32.2913 53.2323H32.7675ZM36.0968 52.1845C36.0764 52.0121 35.9936 51.8783 35.8485 51.7831C35.7033 51.6878 35.5253 51.6402 35.3144 51.6402C35.1601 51.6402 35.0252 51.6651 34.9095 51.715C34.795 51.7649 34.7054 51.8335 34.6408 51.9209C34.5773 52.0082 34.5455 52.1074 34.5455 52.2185C34.5455 52.3115 34.5676 52.3915 34.6118 52.4584C34.6572 52.5241 34.715 52.5791 34.7853 52.6234C34.8557 52.6665 34.9294 52.7022 35.0065 52.7305C35.0836 52.7577 35.1545 52.7799 35.2191 52.7969L35.5729 52.8921C35.6636 52.9159 35.7646 52.9488 35.8757 52.9908C35.988 53.0327 36.0951 53.09 36.1972 53.1626C36.3004 53.234 36.3854 53.3259 36.4523 53.4381C36.5192 53.5504 36.5527 53.6882 36.5527 53.8515C36.5527 54.0397 36.5034 54.2098 36.4047 54.3618C36.3072 54.5137 36.1643 54.6345 35.976 54.7241C35.7889 54.8137 35.5616 54.8585 35.2939 54.8585C35.0445 54.8585 34.8284 54.8182 34.6459 54.7377C34.4644 54.6572 34.3215 54.5449 34.2172 54.4009C34.114 54.2569 34.0556 54.0896 34.042 53.8991H34.4775C34.4888 54.0307 34.533 54.1395 34.6101 54.2257C34.6884 54.3108 34.787 54.3743 34.9061 54.4162C35.0263 54.457 35.1556 54.4775 35.2939 54.4775C35.455 54.4775 35.5996 54.4514 35.7277 54.3992C35.8558 54.3459 35.9573 54.2722 36.0322 54.1781C36.107 54.0828 36.1444 53.9717 36.1444 53.8447C36.1444 53.729 36.1121 53.6349 36.0475 53.5623C35.9828 53.4897 35.8978 53.4308 35.7923 53.3854C35.6869 53.3401 35.5729 53.3004 35.4504 53.2663L35.0218 53.1439C34.7496 53.0656 34.5342 52.9539 34.3754 52.8088C34.2166 52.6636 34.1373 52.4737 34.1373 52.2389C34.1373 52.0439 34.19 51.8738 34.2955 51.7286C34.4021 51.5824 34.5449 51.469 34.7241 51.3884C34.9044 51.3068 35.1057 51.266 35.328 51.266C35.5525 51.266 35.7521 51.3062 35.9267 51.3867C36.1013 51.4661 36.2397 51.575 36.3418 51.7133C36.445 51.8517 36.4994 52.0087 36.5051 52.1845H36.0968ZM37.0557 51.6878V51.3136H39.6685V51.6878H38.573V54.7972H38.1512V51.6878H37.0557ZM44.4291 51.3136V54.7972H44.0209L42.1226 52.062H42.0886V54.7972H41.6667V51.3136H42.075L43.9801 54.0556H44.0141V51.3136H44.4291ZM45.4161 54.7972H44.9739L46.253 51.3136H46.6885L47.9676 54.7972H47.5254L46.4844 51.8647H46.4571L45.4161 54.7972ZM45.5794 53.4364H47.3621V53.8107H45.5794V53.4364ZM48.5102 51.3136H49.0137L50.1976 54.2053H50.2385L51.4223 51.3136H51.9258V54.7972H51.5312V52.1505H51.4972L50.4086 54.7972H50.0275L48.9389 52.1505H48.9049V54.7972H48.5102V51.3136ZM52.7717 54.7972V51.3136H54.8741V51.6878H53.1935V52.8649H54.7652V53.2391H53.1935V54.423H54.9013V54.7972H52.7717Z" fill="#43426A"/>
<path d="M208.41 67.4901H19.2646V84.4662H208.41V67.4901Z" fill="white"/>
<path d="M29.852 75.7444H29.4302C29.4052 75.6231 29.3616 75.5165 29.2992 75.4246C29.238 75.3328 29.1631 75.2557 29.0747 75.1933C28.9874 75.1298 28.8904 75.0822 28.7838 75.0504C28.6772 75.0186 28.5661 75.0028 28.4504 75.0028C28.2395 75.0028 28.0484 75.0561 27.8772 75.1627C27.7071 75.2693 27.5716 75.4263 27.4706 75.6338C27.3709 75.8414 27.321 76.0959 27.321 76.3976C27.321 76.6992 27.3709 76.9538 27.4706 77.1613C27.5716 77.3689 27.7071 77.5259 27.8772 77.6325C28.0484 77.7391 28.2395 77.7924 28.4504 77.7924C28.5661 77.7924 28.6772 77.7765 28.7838 77.7448C28.8904 77.713 28.9874 77.666 29.0747 77.6036C29.1631 77.5401 29.238 77.4624 29.2992 77.3706C29.3616 77.2776 29.4052 77.171 29.4302 77.0508H29.852C29.8203 77.2288 29.7625 77.3881 29.6785 77.5287C29.5946 77.6694 29.4903 77.789 29.3656 77.8877C29.2408 77.9852 29.1008 78.0595 28.9454 78.1105C28.7912 78.1615 28.6262 78.187 28.4504 78.187C28.1533 78.187 27.8891 78.1145 27.6578 77.9693C27.4264 77.8242 27.2444 77.6178 27.1117 77.3501C26.9791 77.0825 26.9127 76.765 26.9127 76.3976C26.9127 76.0302 26.9791 75.7127 27.1117 75.445C27.2444 75.1774 27.4264 74.971 27.6578 74.8259C27.8891 74.6807 28.1533 74.6081 28.4504 74.6081C28.6262 74.6081 28.7912 74.6337 28.9454 74.6847C29.1008 74.7357 29.2408 74.8106 29.3656 74.9092C29.4903 75.0067 29.5946 75.1258 29.6785 75.2664C29.7625 75.4059 29.8203 75.5652 29.852 75.7444ZM33.473 76.3976C33.473 76.765 33.4067 77.0825 33.274 77.3501C33.1413 77.6178 32.9593 77.8242 32.728 77.9693C32.4967 78.1145 32.2324 78.187 31.9353 78.187C31.6382 78.187 31.374 78.1145 31.1427 77.9693C30.9113 77.8242 30.7293 77.6178 30.5966 77.3501C30.464 77.0825 30.3976 76.765 30.3976 76.3976C30.3976 76.0302 30.464 75.7127 30.5966 75.445C30.7293 75.1774 30.9113 74.971 31.1427 74.8259C31.374 74.6807 31.6382 74.6081 31.9353 74.6081C32.2324 74.6081 32.4967 74.6807 32.728 74.8259C32.9593 74.971 33.1413 75.1774 33.274 75.445C33.4067 75.7127 33.473 76.0302 33.473 76.3976ZM33.0648 76.3976C33.0648 76.0959 33.0143 75.8414 32.9134 75.6338C32.8136 75.4263 32.6781 75.2693 32.5069 75.1627C32.3368 75.0561 32.1463 75.0028 31.9353 75.0028C31.7244 75.0028 31.5333 75.0561 31.3621 75.1627C31.192 75.2693 31.0565 75.4263 30.9556 75.6338C30.8558 75.8414 30.8059 76.0959 30.8059 76.3976C30.8059 76.6992 30.8558 76.9538 30.9556 77.1613C31.0565 77.3689 31.192 77.5259 31.3621 77.6325C31.5333 77.7391 31.7244 77.7924 31.9353 77.7924C32.1463 77.7924 32.3368 77.7391 32.5069 77.6325C32.6781 77.5259 32.8136 77.3689 32.9134 77.1613C33.0143 76.9538 33.0648 76.6992 33.0648 76.3976ZM36.9448 74.6558V78.1394H36.5365L34.6382 75.4042H34.6042V78.1394H34.1823V74.6558H34.5906L36.4957 77.3978H36.5297V74.6558H36.9448ZM37.5984 75.03V74.6558H40.2111V75.03H39.1157V78.1394H38.6938V75.03H37.5984ZM40.5981 78.1394H40.1558L41.435 74.6558H41.8704L43.1496 78.1394H42.7073L41.6663 75.2069H41.6391L40.5981 78.1394ZM40.7614 76.7786H42.544V77.1528H40.7614V76.7786ZM46.3317 75.7444H45.9099C45.8849 75.6231 45.8412 75.5165 45.7789 75.4246C45.7176 75.3328 45.6428 75.2557 45.5543 75.1933C45.467 75.1298 45.3701 75.0822 45.2635 75.0504C45.1569 75.0186 45.0457 75.0028 44.9301 75.0028C44.7192 75.0028 44.5281 75.0561 44.3568 75.1627C44.1867 75.2693 44.0512 75.4263 43.9503 75.6338C43.8505 75.8414 43.8006 76.0959 43.8006 76.3976C43.8006 76.6992 43.8505 76.9538 43.9503 77.1613C44.0512 77.3689 44.1867 77.5259 44.3568 77.6325C44.5281 77.7391 44.7192 77.7924 44.9301 77.7924C45.0457 77.7924 45.1569 77.7765 45.2635 77.7448C45.3701 77.713 45.467 77.666 45.5543 77.6036C45.6428 77.5401 45.7176 77.4624 45.7789 77.3706C45.8412 77.2776 45.8849 77.171 45.9099 77.0508H46.3317C46.2999 77.2288 46.2421 77.3881 46.1582 77.5287C46.0743 77.6694 45.97 77.789 45.8452 77.8877C45.7205 77.9852 45.5804 78.0595 45.4251 78.1105C45.2708 78.1615 45.1058 78.187 44.9301 78.187C44.633 78.187 44.3687 78.1145 44.1374 77.9693C43.9061 77.8242 43.7241 77.6178 43.5914 77.3501C43.4587 77.0825 43.3924 76.765 43.3924 76.3976C43.3924 76.0302 43.4587 75.7127 43.5914 75.445C43.7241 75.1774 43.9061 74.971 44.1374 74.8259C44.3687 74.6807 44.633 74.6081 44.9301 74.6081C45.1058 74.6081 45.2708 74.6337 45.4251 74.6847C45.5804 74.7357 45.7205 74.8106 45.8452 74.9092C45.97 75.0067 46.0743 75.1258 46.1582 75.2664C46.2421 75.4059 46.2999 75.5652 46.3317 75.7444ZM46.8229 75.03V74.6558H49.4356V75.03H48.3401V78.1394H47.9183V75.03H46.8229Z" fill="#43426A"/>
<path d="M208.329 90.8323H19.2646V153.238H208.329V90.8323Z" fill="white"/>
<path d="M27.0488 97.9979H27.5523L28.7362 100.89H28.777L29.9609 97.9979H30.4644V101.482H30.0698V98.8348H30.0357L28.9471 101.482H28.5661L27.4775 98.8348H27.4434V101.482H27.0488V97.9979ZM31.3102 101.482V97.9979H33.4126V98.3721H31.7321V99.5492H33.3038V99.9235H31.7321V101.107H33.4399V101.482H31.3102ZM36.0781 98.8688C36.0577 98.6965 35.9749 98.5627 35.8298 98.4674C35.6846 98.3721 35.5066 98.3245 35.2956 98.3245C35.1414 98.3245 35.0065 98.3495 34.8908 98.3994C34.7763 98.4493 34.6867 98.5179 34.6221 98.6052C34.5585 98.6925 34.5268 98.7917 34.5268 98.9029C34.5268 98.9958 34.5489 99.0758 34.5931 99.1427C34.6385 99.2085 34.6963 99.2635 34.7666 99.3077C34.8369 99.3508 34.9107 99.3865 34.9878 99.4149C35.0649 99.4421 35.1358 99.4642 35.2004 99.4812L35.5542 99.5765C35.6449 99.6003 35.7458 99.6332 35.857 99.6751C35.9692 99.7171 36.0764 99.7743 36.1785 99.8469C36.2817 99.9184 36.3667 100.01 36.4336 100.122C36.5005 100.235 36.534 100.373 36.534 100.536C36.534 100.724 36.4846 100.894 36.386 101.046C36.2885 101.198 36.1456 101.319 35.9573 101.408C35.7702 101.498 35.5429 101.543 35.2752 101.543C35.0258 101.543 34.8097 101.503 34.6272 101.422C34.4457 101.342 34.3028 101.229 34.1985 101.085C34.0953 100.941 34.0369 100.774 34.0233 100.583H34.4588C34.4701 100.715 34.5143 100.824 34.5914 100.91C34.6697 100.995 34.7683 101.059 34.8874 101.101C35.0076 101.141 35.1369 101.162 35.2752 101.162C35.4363 101.162 35.5808 101.136 35.709 101.084C35.8371 101.03 35.9386 100.957 36.0135 100.862C36.0883 100.767 36.1257 100.656 36.1257 100.529C36.1257 100.413 36.0934 100.319 36.0288 100.247C35.9641 100.174 35.8791 100.115 35.7736 100.07C35.6682 100.024 35.5542 99.9847 35.4317 99.9507L35.0031 99.8282C34.7309 99.75 34.5155 99.6383 34.3567 99.4931C34.1979 99.348 34.1186 99.158 34.1186 98.9233C34.1186 98.7282 34.1713 98.5581 34.2767 98.413C34.3833 98.2667 34.5262 98.1533 34.7054 98.0728C34.8857 97.9911 35.087 97.9503 35.3093 97.9503C35.5338 97.9503 35.7334 97.9906 35.908 98.0711C36.0826 98.1505 36.221 98.2593 36.323 98.3977C36.4262 98.536 36.4807 98.6931 36.4863 98.8688H36.0781ZM39.1327 98.8688C39.1123 98.6965 39.0295 98.5627 38.8843 98.4674C38.7392 98.3721 38.5611 98.3245 38.3502 98.3245C38.196 98.3245 38.061 98.3495 37.9454 98.3994C37.8308 98.4493 37.7413 98.5179 37.6766 98.6052C37.6131 98.6925 37.5814 98.7917 37.5814 98.9029C37.5814 98.9958 37.6035 99.0758 37.6477 99.1427C37.6931 99.2085 37.7509 99.2635 37.8212 99.3077C37.8915 99.3508 37.9652 99.3865 38.0423 99.4149C38.1194 99.4421 38.1903 99.4642 38.255 99.4812L38.6088 99.5765C38.6995 99.6003 38.8004 99.6332 38.9115 99.6751C39.0238 99.7171 39.131 99.7743 39.233 99.8469C39.3362 99.9184 39.4213 100.01 39.4882 100.122C39.5551 100.235 39.5885 100.373 39.5885 100.536C39.5885 100.724 39.5392 100.894 39.4405 101.046C39.343 101.198 39.2001 101.319 39.0119 101.408C38.8248 101.498 38.5974 101.543 38.3298 101.543C38.0803 101.543 37.8643 101.503 37.6817 101.422C37.5003 101.342 37.3574 101.229 37.2531 101.085C37.1499 100.941 37.0915 100.774 37.0779 100.583H37.5133C37.5247 100.715 37.5689 100.824 37.646 100.91C37.7242 100.995 37.8229 101.059 37.942 101.101C38.0622 101.141 38.1914 101.162 38.3298 101.162C38.4908 101.162 38.6354 101.136 38.7635 101.084C38.8917 101.03 38.9932 100.957 39.068 100.862C39.1429 100.767 39.1803 100.656 39.1803 100.529C39.1803 100.413 39.148 100.319 39.0833 100.247C39.0187 100.174 38.9336 100.115 38.8282 100.07C38.7227 100.024 38.6088 99.9847 38.4863 99.9507L38.0576 99.8282C37.7855 99.75 37.57 99.6383 37.4113 99.4931C37.2525 99.348 37.1731 99.158 37.1731 98.9233C37.1731 98.7282 37.2258 98.5581 37.3313 98.413C37.4379 98.2667 37.5808 98.1533 37.76 98.0728C37.9403 97.9911 38.1416 97.9503 38.3638 97.9503C38.5883 97.9503 38.7879 97.9906 38.9626 98.0711C39.1372 98.1505 39.2755 98.2593 39.3776 98.3977C39.4808 98.536 39.5352 98.6931 39.5409 98.8688H39.1327ZM40.425 101.482H39.9827L41.2619 97.9979H41.6973L42.9765 101.482H42.5342L41.4932 98.5491H41.466L40.425 101.482ZM40.5883 100.121H42.3709V100.495H40.5883V100.121ZM45.7368 99.0866C45.6994 98.972 45.65 98.8694 45.5888 98.7787C45.5287 98.6868 45.4567 98.6086 45.3728 98.544C45.29 98.4793 45.1959 98.43 45.0904 98.396C44.9849 98.3619 44.8693 98.3449 44.7434 98.3449C44.537 98.3449 44.3493 98.3982 44.1804 98.5048C44.0114 98.6114 43.877 98.7685 43.7772 98.976C43.6774 99.1835 43.6275 99.4381 43.6275 99.7397C43.6275 100.041 43.678 100.296 43.7789 100.503C43.8799 100.711 44.0165 100.868 44.1889 100.975C44.3612 101.081 44.5551 101.135 44.7706 101.135C44.9702 101.135 45.146 101.092 45.2979 101.007C45.451 100.921 45.5701 100.799 45.6551 100.643C45.7413 100.485 45.7844 100.3 45.7844 100.087L45.9137 100.114H44.8659V99.7397H46.1926V100.114C46.1926 100.401 46.1314 100.65 46.0089 100.862C45.8876 101.074 45.7198 101.239 45.5054 101.356C45.2922 101.471 45.0473 101.529 44.7706 101.529C44.4622 101.529 44.1911 101.457 43.9575 101.311C43.7251 101.166 43.5436 100.96 43.4132 100.692C43.2839 100.425 43.2193 100.107 43.2193 99.7397C43.2193 99.4642 43.2562 99.2164 43.3299 98.9964C43.4047 98.7753 43.5102 98.587 43.6463 98.4317C43.7823 98.2763 43.9434 98.1573 44.1293 98.0745C44.3153 97.9917 44.52 97.9503 44.7434 97.9503C44.9271 97.9503 45.0983 97.9781 45.2571 98.0337C45.417 98.0881 45.5593 98.1658 45.684 98.2667C45.8099 98.3665 45.9148 98.4861 45.9987 98.6256C46.0826 98.7639 46.1405 98.9176 46.1722 99.0866H45.7368ZM46.9151 101.482V97.9979H49.0176V98.3721H47.337V99.5492H48.9087V99.9235H47.337V101.107H49.0448V101.482H46.9151Z" fill="#43426A"/>
<path d="M208.664 44.1479H117.265V61.124H208.664V44.1479Z" fill="white"/>
<path d="M125.05 54.7972V51.3136H125.472V54.423H127.091V54.7972H125.05ZM128.107 54.7972H127.665L128.944 51.3136H129.379L130.658 54.7972H130.216L129.175 51.8647H129.148L128.107 54.7972ZM128.27 53.4364H130.053V53.8107H128.27V53.4364ZM133.106 52.1845C133.086 52.0121 133.003 51.8783 132.858 51.7831C132.713 51.6878 132.535 51.6402 132.324 51.6402C132.169 51.6402 132.034 51.6651 131.919 51.715C131.804 51.7649 131.715 51.8335 131.65 51.9209C131.587 52.0082 131.555 52.1074 131.555 52.2185C131.555 52.3115 131.577 52.3915 131.621 52.4584C131.667 52.5241 131.724 52.5791 131.795 52.6234C131.865 52.6665 131.939 52.7022 132.016 52.7305C132.093 52.7577 132.164 52.7799 132.228 52.7969L132.582 52.8921C132.673 52.9159 132.774 52.9488 132.885 52.9908C132.997 53.0327 133.104 53.09 133.206 53.1626C133.31 53.234 133.395 53.3259 133.462 53.4381C133.529 53.5504 133.562 53.6882 133.562 53.8515C133.562 54.0397 133.513 54.2098 133.414 54.3618C133.316 54.5137 133.174 54.6345 132.985 54.7241C132.798 54.8137 132.571 54.8585 132.303 54.8585C132.054 54.8585 131.838 54.8182 131.655 54.7377C131.474 54.6572 131.331 54.5449 131.227 54.4009C131.123 54.2569 131.065 54.0896 131.051 53.8991H131.487C131.498 54.0307 131.542 54.1395 131.619 54.2257C131.698 54.3108 131.796 54.3743 131.915 54.4162C132.036 54.457 132.165 54.4775 132.303 54.4775C132.464 54.4775 132.609 54.4514 132.737 54.3992C132.865 54.3459 132.967 54.2722 133.041 54.1781C133.116 54.0828 133.154 53.9717 133.154 53.8447C133.154 53.729 133.121 53.6349 133.057 53.5623C132.992 53.4897 132.907 53.4308 132.802 53.3854C132.696 53.3401 132.582 53.3004 132.46 53.2663L132.031 53.1439C131.759 53.0656 131.543 52.9539 131.385 52.8088C131.226 52.6636 131.147 52.4737 131.147 52.2389C131.147 52.0439 131.199 51.8738 131.305 51.7286C131.411 51.5824 131.554 51.469 131.733 51.3884C131.914 51.3068 132.115 51.266 132.337 51.266C132.562 51.266 132.761 51.3062 132.936 51.3867C133.111 51.4661 133.249 51.575 133.351 51.7133C133.454 51.8517 133.509 52.0087 133.514 52.1845H133.106ZM134.065 51.6878V51.3136H136.678V51.6878H135.582V54.7972H135.16V51.6878H134.065ZM141.438 51.3136V54.7972H141.03L139.132 52.062H139.098V54.7972H138.676V51.3136H139.084L140.989 54.0556H141.023V51.3136H141.438ZM142.425 54.7972H141.983L143.262 51.3136H143.698L144.977 54.7972H144.535L143.494 51.8647H143.466L142.425 54.7972ZM142.589 53.4364H144.371V53.8107H142.589V53.4364ZM145.52 51.3136H146.023L147.207 54.2053H147.248L148.432 51.3136H148.935V54.7972H148.541V52.1505H148.506L147.418 54.7972H147.037L145.948 52.1505H145.914V54.7972H145.52V51.3136ZM149.781 54.7972V51.3136H151.883V51.6878H150.203V52.8649H151.775V53.2391H150.203V54.423H151.911V54.7972H149.781Z" fill="#43426A"/>
<path d="M110.664 160.151H19.2646V177.127H110.664V160.151Z" fill="white"/>
<path d="M28.1238 170.8H27.0488V167.317H28.1715C28.5094 167.317 28.7986 167.386 29.039 167.526C29.2794 167.664 29.4636 167.863 29.5918 168.123C29.7199 168.381 29.784 168.691 29.784 169.052C29.784 169.415 29.7194 169.727 29.5901 169.989C29.4608 170.25 29.2726 170.45 29.0254 170.591C28.7781 170.731 28.4776 170.8 28.1238 170.8ZM27.4706 170.426H28.0966C28.3846 170.426 28.6234 170.371 28.8127 170.259C29.0021 170.148 29.1433 169.99 29.2363 169.785C29.3293 169.58 29.3758 169.335 29.3758 169.052C29.3758 168.77 29.3298 168.528 29.238 168.325C29.1461 168.121 29.0089 167.965 28.8263 167.856C28.6438 167.746 28.4164 167.691 28.1442 167.691H27.4706V170.426ZM30.4708 170.8H30.0285L31.3077 167.317H31.7431L33.0223 170.8H32.58L31.539 167.868H31.5118L30.4708 170.8ZM30.6341 169.439H32.4167V169.814H30.6341V169.439ZM32.9674 167.691V167.317H35.5801V167.691H34.4847V170.8H34.0629V167.691H32.9674ZM36.2312 170.8V167.317H38.3336V167.691H36.653V168.868H38.2248V169.242H36.653V170.426H38.3608V170.8H36.2312ZM41.8836 168.871V169.246H40.3595V168.871H41.8836ZM43.9916 170.8V167.317H46.0804V167.691H44.4134V168.868H45.9239V169.242H44.4134V170.8H43.9916ZM46.8029 170.8V167.317H47.98C48.2521 167.317 48.4755 167.363 48.6502 167.456C48.8248 167.548 48.9541 167.674 49.038 167.835C49.1219 167.996 49.1639 168.18 49.1639 168.385C49.1639 168.59 49.1219 168.772 49.038 168.931C48.9541 169.09 48.8254 169.214 48.6519 169.305C48.4784 169.395 48.2567 169.439 47.9868 169.439H47.0342V169.058H47.9732C48.1591 169.058 48.3088 169.031 48.4222 168.977C48.5368 168.922 48.6195 168.845 48.6706 168.745C48.7227 168.645 48.7488 168.524 48.7488 168.385C48.7488 168.245 48.7227 168.123 48.6706 168.019C48.6184 167.915 48.5351 167.834 48.4205 167.778C48.306 167.72 48.1546 167.691 47.9664 167.691H47.2247V170.8H46.8029ZM48.4426 169.235L49.2999 170.8H48.81L47.9664 169.235H48.4426ZM52.8061 169.058C52.8061 169.426 52.7398 169.743 52.6071 170.011C52.4744 170.279 52.2924 170.485 52.0611 170.63C51.8297 170.775 51.5655 170.848 51.2684 170.848C50.9713 170.848 50.7071 170.775 50.4757 170.63C50.2444 170.485 50.0624 170.279 49.9297 170.011C49.797 169.743 49.7307 169.426 49.7307 169.058C49.7307 168.691 49.797 168.374 49.9297 168.106C50.0624 167.838 50.2444 167.632 50.4757 167.487C50.7071 167.342 50.9713 167.269 51.2684 167.269C51.5655 167.269 51.8297 167.342 52.0611 167.487C52.2924 167.632 52.4744 167.838 52.6071 168.106C52.7398 168.374 52.8061 168.691 52.8061 169.058ZM52.3979 169.058C52.3979 168.757 52.3474 168.502 52.2465 168.295C52.1467 168.087 52.0112 167.93 51.8399 167.824C51.6698 167.717 51.4793 167.664 51.2684 167.664C51.0575 167.664 50.8664 167.717 50.6952 167.824C50.5251 167.93 50.3896 168.087 50.2886 168.295C50.1888 168.502 50.1389 168.757 50.1389 169.058C50.1389 169.36 50.1888 169.615 50.2886 169.822C50.3896 170.03 50.5251 170.187 50.6952 170.293C50.8664 170.4 51.0575 170.453 51.2684 170.453C51.4793 170.453 51.6698 170.4 51.8399 170.293C52.0112 170.187 52.1467 170.03 52.2465 169.822C52.3474 169.615 52.3979 169.36 52.3979 169.058ZM53.5154 167.317H54.0189L55.2028 170.208H55.2436L56.4275 167.317H56.931V170.8H56.5364V168.154H56.5024L55.4137 170.8H55.0327L53.9441 168.154H53.9101V170.8H53.5154V167.317Z" fill="#43426A"/>
<path opacity="0.4" d="M100.863 167.875L103.808 170.61L106.753 167.875H100.863Z" fill="#43426A"/>
<path d="M208.328 160.151H116.929V177.127H208.328V160.151Z" fill="white"/>
<path d="M125.789 170.8H124.714V167.317H125.836C126.174 167.317 126.464 167.386 126.704 167.526C126.944 167.664 127.129 167.863 127.257 168.123C127.385 168.381 127.449 168.691 127.449 169.052C127.449 169.415 127.384 169.727 127.255 169.989C127.126 170.25 126.938 170.45 126.69 170.591C126.443 170.731 126.143 170.8 125.789 170.8ZM125.136 170.426H125.762C126.05 170.426 126.288 170.371 126.478 170.259C126.667 170.148 126.808 169.99 126.901 169.785C126.994 169.58 127.041 169.335 127.041 169.052C127.041 168.77 126.995 168.528 126.903 168.325C126.811 168.121 126.674 167.965 126.491 167.856C126.309 167.746 126.081 167.691 125.809 167.691H125.136V170.426ZM128.136 170.8H127.694L128.973 167.317H129.408L130.687 170.8H130.245L129.204 167.868H129.177L128.136 170.8ZM128.299 169.439H130.082V169.814H128.299V169.439ZM130.632 167.691V167.317H133.245V167.691H132.15V170.8H131.728V167.691H130.632ZM133.896 170.8V167.317H135.999V167.691H134.318V168.868H135.89V169.242H134.318V170.426H136.026V170.8H133.896ZM139.549 168.871V169.246H138.025V168.871H139.549ZM141.657 170.8V167.317H143.759V167.691H142.078V168.868H143.65V169.242H142.078V170.426H143.786V170.8H141.657ZM147.282 167.317V170.8H146.874L144.975 168.065H144.941V170.8H144.519V167.317H144.928L146.833 170.059H146.867V167.317H147.282ZM149.201 170.8H148.126V167.317H149.249C149.586 167.317 149.876 167.386 150.116 167.526C150.356 167.664 150.541 167.863 150.669 168.123C150.797 168.381 150.861 168.691 150.861 169.052C150.861 169.415 150.796 169.727 150.667 169.989C150.538 170.25 150.35 170.45 150.102 170.591C149.855 170.731 149.555 170.8 149.201 170.8ZM148.548 170.426H149.174C149.462 170.426 149.7 170.371 149.89 170.259C150.079 170.148 150.22 169.99 150.313 169.785C150.406 169.58 150.453 169.335 150.453 169.052C150.453 168.77 150.407 168.528 150.315 168.325C150.223 168.121 150.086 167.965 149.903 167.856C149.721 167.746 149.493 167.691 149.221 167.691H148.548V170.426Z" fill="#43426A"/>
<path opacity="0.4" d="M198.518 167.875L201.473 170.61L204.418 167.875H198.518Z" fill="#43426A"/>
</g>
<defs>
<linearGradient id="paint0_linear_6619_24433" x1="0.883529" y1="209.08" x2="210.399" y2="-16.5157" gradientUnits="userSpaceOnUse">
<stop stop-color="#97EBF2"/>
<stop offset="0.44" stop-color="#27A9E0"/>
<stop offset="1" stop-color="#7757E3"/>
</linearGradient>
<clipPath id="clip0_6619_24433">
<rect width="228" height="208" fill="white" transform="translate(0 0.25)"/>
</clipPath>
</defs>
</svg>
