<svg width="250" height="158" viewBox="0 0 250 158" fill="none" xmlns="http://www.w3.org/2000/svg">
<g clip-path="url(#clip0_6619_24470)">
<g clip-path="url(#clip1_6619_24470)">
<rect x="0.75" y="0.5" width="249" height="157" rx="8" fill="#ECEEF2"/>
<rect width="249" height="31" transform="translate(0.75 0.5)" fill="url(#paint0_linear_6619_24470)"/>
<path d="M95.8566 40.5H19.0149C16.5215 40.5 14.5 42.3606 14.5 44.6557V74.1235C14.5 76.4185 16.5215 78.2791 19.0149 78.2791H26.9951C26.5314 81.5235 25.9258 86.1758 26.2591 86.1758C26.6139 86.1758 30.4852 81.2805 32.8268 78.2791H95.8582C98.3516 78.2791 100.373 76.4185 100.373 74.1235V44.6557C100.373 42.3606 98.3516 40.5 95.8582 40.5H95.8566Z" fill="#FFCB83"/>
<path d="M40.6943 59.4936C40.6943 65.2472 35.6266 69.9101 29.3774 69.9101C23.1282 69.9101 18.0605 65.2456 18.0605 59.4936C18.0605 53.7416 23.1282 49.0771 29.3774 49.0771C35.6266 49.0771 40.6943 53.7416 40.6943 59.4936Z" fill="white"/>
<path d="M31.1672 64.7429H27.8438V67.7974H31.1672V64.7429Z" fill="#FFC0BB"/>
<path d="M31.1672 66.5746V64.7444H27.8438V66.3012C28.5599 66.6551 29.6177 66.8571 31.1672 66.5746Z" fill="#F99893"/>
<path d="M36.4069 59.2764C36.0604 59.1184 35.6577 59.1473 35.293 59.3174C35.4184 56.3039 32.7435 53.7689 29.3755 53.8767C26.0075 53.7689 23.3326 56.3039 23.458 59.3174C23.0933 59.1473 22.6907 59.1199 22.3442 59.2764C21.6791 59.5771 21.4729 60.4413 21.8821 61.2053C22.293 61.9693 23.1643 62.3445 23.8293 62.0422C23.9217 61.9997 24.0042 61.9466 24.0785 61.8843C24.4597 64.3752 26.7204 66.2435 29.3739 66.2085C32.0273 66.2435 34.2881 64.3752 34.6693 61.8843C34.7435 61.9466 34.826 61.9997 34.9184 62.0422C35.5835 62.3445 36.4547 61.9693 36.8656 61.2053C37.2765 60.4413 37.0686 59.5771 36.4036 59.2764H36.4069Z" fill="#FFC0BB"/>
<path d="M25.3296 52.6829C25.3296 52.6829 26.998 51.3842 30.7884 51.5939C34.5788 51.8035 35.2999 53.6246 35.5161 56.2249L35.295 59.3189C35.295 59.3189 34.3115 58.3878 33.0293 55.8042C33.0293 55.8042 30.9072 57.9959 29.9831 57.7362C29.059 57.4765 30.3329 55.8984 30.3329 55.8984C30.3329 55.8984 26.0095 59.3234 23.4616 59.3174C23.4616 59.3174 22.1135 55.309 24.0062 53.8388C24.0062 53.8388 22.5805 53.901 22.5062 53.6428C22.4303 53.3846 23.1861 52.9988 24.5557 53.1446C24.5557 53.1446 23.5805 51.3873 24.125 51.205C24.6696 51.0228 25.3329 52.6829 25.3329 52.6829H25.3296Z" fill="#031322"/>
<path d="M31.55 62.8366C31.4032 63.4411 30.6523 63.915 29.7315 63.9408C28.8107 63.9666 28.0286 63.5353 27.8438 62.9399L31.55 62.8351V62.8366Z" fill="white"/>
<path d="M88.65 50.8026H45.5724C45.0295 50.8026 44.5889 50.397 44.5889 49.8973C44.5889 49.3976 45.0295 48.9921 45.5724 48.9921H88.65C89.1929 48.9921 89.6335 49.3976 89.6335 49.8973C89.6335 50.397 89.1929 50.8026 88.65 50.8026Z" fill="white"/>
<path d="M54.244 55.578H45.5724C45.0295 55.578 44.5889 55.1724 44.5889 54.6727C44.5889 54.173 45.0295 53.7675 45.5724 53.7675H54.244C54.7869 53.7675 55.2275 54.173 55.2275 54.6727C55.2275 55.1724 54.7869 55.578 54.244 55.578Z" fill="white"/>
<path d="M88.6498 55.578H60.2257C59.6828 55.578 59.2422 55.1724 59.2422 54.6727C59.2422 54.173 59.6828 53.7675 60.2257 53.7675H88.6498C89.1927 53.7675 89.6333 54.173 89.6333 54.6727C89.6333 55.1724 89.1927 55.578 88.6498 55.578Z" fill="white"/>
<path d="M66.876 60.3548H45.5724C45.0295 60.3548 44.5889 59.9493 44.5889 59.4496C44.5889 58.9499 45.0295 58.5443 45.5724 58.5443H66.876C67.4189 58.5443 67.8595 58.9499 67.8595 59.4496C67.8595 59.9493 67.4189 60.3548 66.876 60.3548Z" fill="white"/>
<path d="M88.6495 60.3548H72.2452C71.7023 60.3548 71.2617 59.9493 71.2617 59.4496C71.2617 58.9499 71.7023 58.5443 72.2452 58.5443H88.6495C89.1924 58.5443 89.633 58.9499 89.633 59.4496C89.633 59.9493 89.1924 60.3548 88.6495 60.3548Z" fill="white"/>
<path d="M88.65 65.1318H45.5724C45.0295 65.1318 44.5889 64.7263 44.5889 64.2265C44.5889 63.7268 45.0295 63.3213 45.5724 63.3213H88.65C89.1929 63.3213 89.6335 63.7268 89.6335 64.2265C89.6335 64.7263 89.1929 65.1318 88.65 65.1318Z" fill="white"/>
<g filter="url(#filter0_d_6619_24470)">
<rect x="192.5" y="102.5" width="47.0078" height="47.0078" rx="23.5039" fill="white" shape-rendering="crispEdges"/>
<path fill-rule="evenodd" clip-rule="evenodd" d="M216.004 134.403H223.838C226.002 134.403 227.755 132.639 227.755 130.462V119.955C227.755 117.779 226.002 116.015 223.838 116.015H208.169C206.006 116.015 204.252 117.779 204.252 119.955V130.462C204.252 132.639 206.006 134.403 208.169 134.403H210.128V138.343L216.004 134.403Z" fill="url(#paint1_linear_6619_24470)"/>
</g>
<path d="M25.8068 125.676H13.8183C11.5121 125.676 9.64258 127.46 9.64258 129.661V141.101C9.64258 143.302 11.5121 145.086 13.8183 145.086H25.8068C28.113 145.086 29.9825 143.302 29.9825 141.101V129.661C29.9825 127.46 28.113 125.676 25.8068 125.676Z" fill="#27A9E0"/>
<path d="M25.8068 125.676H13.8232C11.5188 125.676 9.64746 127.462 9.64746 129.661V131.506H29.9874V129.661C29.9874 127.462 28.116 125.676 25.8116 125.676H25.8068Z" fill="white"/>
<path d="M16.4975 132.447C16.4975 133.315 15.7614 134.022 14.8474 134.022C13.9381 134.022 13.1973 133.32 13.1973 132.447V130.758C13.1973 129.89 13.9381 129.183 14.8474 129.183C15.7566 129.183 16.4975 129.886 16.4975 130.758V132.447Z" fill="#43426A"/>
<path d="M21.8764 132.447C21.8764 133.315 21.1355 134.022 20.2263 134.022C19.317 134.022 18.5762 133.32 18.5762 132.447V130.758C18.5762 129.89 19.3122 129.183 20.2263 129.183C21.1355 129.183 21.8764 129.886 21.8764 130.758V132.447Z" fill="#43426A"/>
<path d="M27.2601 132.447C27.2601 133.315 26.5193 134.022 25.6101 134.022C24.7008 134.022 23.96 133.32 23.96 132.447V130.758C23.96 129.89 24.7008 129.183 25.6101 129.183C26.5193 129.183 27.2601 129.886 27.2601 130.758V132.447Z" fill="#43426A"/>
<path d="M16.4311 135.11H13.3281V138.067H16.4311V135.11Z" fill="white"/>
<path d="M21.5404 135.11H18.4375V138.067H21.5404V135.11Z" fill="white"/>
<path d="M26.644 135.11H23.5459V138.067H26.644V135.11Z" fill="white"/>
<path d="M16.4311 139.669H13.3281V142.625H16.4311V139.669Z" fill="white"/>
<path d="M21.5404 139.669H18.4375V142.625H21.5404V139.669Z" fill="white"/>
<path d="M26.644 139.669H23.5459V142.625H26.644V139.669Z" fill="white"/>
<path d="M32.9178 141.06C32.9178 144.104 30.3296 146.574 27.14 146.574C23.9505 146.574 21.3623 144.104 21.3623 141.06C21.3623 138.016 23.9505 135.546 27.14 135.546C30.3296 135.546 32.9178 138.016 32.9178 141.06Z" fill="white"/>
<path d="M28.333 143.277C28.333 143.879 27.8231 144.37 27.1929 144.37C26.5627 144.37 26.0527 143.883 26.0527 143.277V138.838C26.0527 138.236 26.5627 137.745 27.1929 137.745C27.8231 137.745 28.333 138.232 28.333 138.838V143.277Z" fill="#27A9E0"/>
<path d="M24.8648 142.152C24.2346 142.152 23.7246 141.666 23.7246 141.06C23.7246 140.458 24.2346 139.967 24.8648 139.967H29.5168C30.147 139.967 30.6569 140.454 30.6569 141.06C30.6569 141.661 30.147 142.152 29.5168 142.152H24.8648Z" fill="#27A9E0"/>
<path d="M57.675 126.383H44.6107C43.3069 126.383 42.25 127.391 42.25 128.636V143.13C42.25 144.375 43.3069 145.383 44.6107 145.383H57.675C58.9788 145.383 60.0357 144.375 60.0357 143.13V128.636C60.0357 127.391 58.9788 126.383 57.675 126.383Z" fill="white"/>
<path d="M45.5976 131.997C45.4323 131.997 45.2718 131.943 45.1443 131.844L44.3464 131.213C44.0442 130.974 44.0017 130.551 44.252 130.262C44.5022 129.974 44.946 129.933 45.2482 130.172L45.4937 130.366L46.4002 129.289C46.6458 129.001 47.0896 128.951 47.3965 129.185C47.6986 129.42 47.7506 129.843 47.5051 130.136L46.1453 131.749C46.0272 131.889 45.8525 131.979 45.6637 131.997C45.6401 131.997 45.6165 131.997 45.5929 131.997H45.5976Z" fill="#27A9E0"/>
<path d="M58.0287 130.753C58.0287 131.127 57.7123 131.429 57.3204 131.429H49.3742C48.9824 131.429 48.666 131.127 48.666 130.753C48.666 130.379 48.9824 130.078 49.3742 130.078H57.3204C57.7123 130.078 58.0287 130.379 58.0287 130.753Z" fill="#43426A"/>
<path d="M45.5976 136.165C45.4323 136.165 45.2718 136.111 45.1443 136.011L44.3464 135.381C44.0442 135.142 44.0017 134.718 44.252 134.43C44.5022 134.142 44.946 134.101 45.2482 134.34L45.4937 134.534L46.4002 133.457C46.6458 133.168 47.0896 133.119 47.3965 133.353C47.6986 133.587 47.7506 134.011 47.5051 134.304L46.1453 135.917C46.0272 136.057 45.8525 136.147 45.6637 136.165C45.6401 136.165 45.6165 136.165 45.5929 136.165H45.5976Z" fill="#27A9E0"/>
<path d="M58.0287 134.921C58.0287 135.295 57.7123 135.597 57.3204 135.597H49.3742C48.9824 135.597 48.666 135.295 48.666 134.921C48.666 134.547 48.9824 134.245 49.3742 134.245H57.3204C57.7123 134.245 58.0287 134.547 58.0287 134.921Z" fill="#43426A"/>
<path d="M45.5976 140.332C45.4323 140.332 45.2718 140.278 45.1443 140.179L44.3464 139.548C44.0442 139.31 44.0017 138.886 44.252 138.598C44.5022 138.309 44.946 138.269 45.2482 138.508L45.4937 138.701L46.4002 137.624C46.6458 137.336 47.0896 137.287 47.3965 137.521C47.6986 137.755 47.7506 138.179 47.5051 138.472L46.1453 140.085C46.0272 140.224 45.8525 140.314 45.6637 140.332C45.6401 140.332 45.6165 140.332 45.5929 140.332H45.5976Z" fill="#27A9E0"/>
<path d="M58.0287 139.089C58.0287 139.463 57.7123 139.765 57.3204 139.765H49.3742C48.9824 139.765 48.666 139.463 48.666 139.089C48.666 138.715 48.9824 138.413 49.3742 138.413H57.3204C57.7123 138.413 58.0287 138.715 58.0287 139.089Z" fill="#43426A"/>
<path d="M88.6998 126.383H76.7842C74.492 126.383 72.6338 128.156 72.6338 130.344V141.715C72.6338 143.902 74.492 145.675 76.7842 145.675H88.6998C90.992 145.675 92.8502 143.902 92.8502 141.715V130.344C92.8502 128.156 90.992 126.383 88.6998 126.383Z" fill="#27A9E0"/>
<path d="M90.8608 128.833H74.6035V139.725H90.8608V128.833Z" fill="white"/>
<path d="M86.1518 133.049H87.4667C87.811 133.049 88.0931 133.319 88.0931 133.647V134.902C88.0931 135.231 87.811 135.5 87.4667 135.5H86.1518C85.8075 135.5 85.5254 135.231 85.5254 134.902V133.647C85.5254 133.319 85.8075 133.049 86.1518 133.049Z" fill="#43426A"/>
<path d="M82.1215 133.049H83.4364C83.7807 133.049 84.0628 133.319 84.0628 133.647V134.902C84.0628 135.231 83.7807 135.5 83.4364 135.5H82.1215C81.7772 135.5 81.4951 135.231 81.4951 134.902V133.647C81.4951 133.319 81.7772 133.049 82.1215 133.049Z" fill="#43426A"/>
<path d="M78.0854 133.049H79.4003C79.7446 133.049 80.0267 133.319 80.0267 133.647V134.902C80.0267 135.231 79.7446 135.5 79.4003 135.5H78.0854C77.7411 135.5 77.459 135.231 77.459 134.902V133.647C77.459 133.319 77.7411 133.049 78.0854 133.049Z" fill="#43426A"/>
<path d="M195.775 65.5H120.225C117.616 65.5 115.5 67.5193 115.5 70.0093V99.7618C115.5 102.252 117.616 104.271 120.225 104.271H179.706C182.112 107.477 186.478 113.218 186.863 113.218C187.223 113.218 186.529 107.795 186.04 104.271H195.775C198.384 104.271 200.5 102.252 200.5 99.7618V70.0093C200.5 67.5193 198.384 65.5 195.775 65.5Z" fill="#6577FF"/>
<path d="M143.561 84.8865C143.561 91.1304 138.257 96.19 131.716 96.19C125.175 96.19 119.871 91.1285 119.871 84.8865C119.871 78.6444 125.175 73.5829 131.716 73.5829C138.257 73.5829 143.561 78.6444 143.561 84.8865Z" fill="white"/>
<path d="M125.549 85.1845C125.549 85.1845 124.373 80.5841 127.171 78.8628C129.97 77.1396 132.957 76.7467 134.999 77.7393C137.829 79.1152 138.992 82.8331 138.088 84.8885L130.574 83.0874L125.547 85.1845H125.549Z" fill="#031322"/>
<path d="M133.59 90.582H130.111V93.8957H133.59V90.582Z" fill="#FFC0BB"/>
<path d="M133.59 92.5691V90.582H130.111V92.273C130.861 92.6564 131.969 92.8765 133.59 92.5691Z" fill="#F99893"/>
<path d="M139.073 84.6513C138.711 84.4805 138.289 84.5109 137.907 84.695C138.039 81.425 135.239 78.675 131.715 78.7908C128.189 78.675 125.39 81.425 125.522 84.695C125.14 84.5109 124.718 84.4805 124.356 84.6513C123.66 84.9777 123.443 85.9153 123.873 86.7446C124.303 87.574 125.215 87.9801 125.911 87.6537C126.009 87.6081 126.094 87.5493 126.172 87.4829C126.572 90.1854 128.938 92.2123 131.715 92.1744C134.491 92.2123 136.859 90.1854 137.257 87.4829C137.335 87.5493 137.422 87.6081 137.518 87.6537C138.214 87.9801 139.127 87.574 139.556 86.7446C139.986 85.9153 139.769 84.9777 139.073 84.6513Z" fill="#FFC0BB"/>
<path d="M133.991 88.5134C133.838 89.1682 133.053 89.6844 132.088 89.7129C131.124 89.7413 130.306 89.2726 130.111 88.6273L133.991 88.5134Z" fill="white"/>
<path d="M125.52 84.6948C125.52 84.6948 130.073 83.3777 132.065 81.1819C132.065 81.1819 131.501 83.8293 131.081 84.2507C131.214 84.3361 135.627 82.2864 136.228 80.398C136.826 78.5078 131.715 77.8284 131.715 77.8284C131.715 77.8284 129.963 78.5401 129.876 78.5818C129.788 78.6236 128.144 78.8077 127.957 79.2062C127.712 79.7262 126.551 79.7718 126.551 79.7718L125.819 81.2255L125.306 82.7552L125.522 84.691L125.52 84.6948Z" fill="#031322"/>
<path d="M121.792 78.7109C122.798 79.098 123.96 79.2764 125.163 78.9234C127.82 78.1453 128.872 78.4471 129.224 78.6387C129.437 78.7545 129.689 78.8001 129.92 78.726C130.182 78.6425 130.425 78.4167 130.35 77.8454C130.35 77.8454 130.455 75.4371 128.291 74.0649C125.592 74.8412 123.299 76.5113 121.79 78.7147L121.792 78.7109Z" fill="#031322"/>
<path d="M127.508 78.5534C127.429 78.4528 127.454 78.3123 127.564 78.244C128.007 77.965 129.149 77.3388 130.519 77.2723C130.648 77.2666 130.756 77.3653 130.756 77.4868C130.756 77.6007 130.662 77.6955 130.541 77.7012C129.288 77.7639 128.214 78.3522 127.81 78.6046C127.711 78.6653 127.58 78.6426 127.51 78.5534H127.508Z" fill="#FEB546"/>
<path d="M160.71 77.113H146.9C146.331 77.113 145.87 76.6727 145.87 76.1318C145.87 75.589 146.331 75.1506 146.9 75.1506H160.71C161.279 75.1506 161.738 75.5909 161.738 76.1318C161.738 76.6746 161.277 77.113 160.71 77.113Z" fill="white"/>
<path d="M155.561 82.296H146.9C146.331 82.296 145.87 81.8557 145.87 81.3148C145.87 80.772 146.332 80.3336 146.898 80.3336H155.559C156.128 80.3336 156.589 80.7739 156.589 81.3148C156.589 81.8576 156.128 82.296 155.559 82.296H155.561Z" fill="white"/>
<path d="M170.6 82.2959H159.467C158.898 82.2959 158.437 81.8556 158.437 81.3147C158.437 80.7719 158.898 80.3335 159.465 80.3335H170.598C171.166 80.3335 171.628 80.7738 171.628 81.3147C171.628 81.8575 171.166 82.2959 170.598 82.2959H170.6Z" fill="white"/>
<path d="M190.231 82.2959H174.508C173.939 82.2959 173.478 81.8556 173.478 81.3147C173.478 80.7719 173.939 80.3335 174.508 80.3335H190.231C190.799 80.3335 191.259 80.7738 191.259 81.3147C191.259 81.8575 190.797 82.2959 190.231 82.2959Z" fill="white"/>
<path d="M190.229 77.113H165.398C164.83 77.113 164.37 76.6727 164.37 76.1318C164.37 75.589 164.832 75.1506 165.398 75.1506H190.229C190.798 75.1506 191.258 75.5909 191.258 76.1318C191.258 76.6746 190.796 77.113 190.229 77.113Z" fill="white"/>
<path d="M190.231 92.4551H146.9C146.331 92.4551 145.872 92.0148 145.872 91.4739C145.872 90.9311 146.333 90.4908 146.902 90.4908H190.233C190.801 90.4908 191.263 90.9311 191.263 91.4739C191.263 92.0167 190.801 92.4551 190.235 92.4551H190.231Z" fill="white"/>
<path d="M168.289 87.479H146.9C146.331 87.479 145.87 87.0387 145.87 86.4978C145.87 85.955 146.331 85.5166 146.9 85.5166H168.289C168.858 85.5166 169.317 85.9569 169.317 86.4978C169.317 87.0406 168.856 87.479 168.289 87.479Z" fill="white"/>
<path d="M190.231 87.479H173.778C173.209 87.479 172.748 87.0387 172.748 86.4978C172.748 85.955 173.209 85.5166 173.778 85.5166H190.231C190.8 85.5166 191.259 85.9569 191.259 86.4978C191.259 87.0406 190.798 87.4809 190.231 87.4809V87.479Z" fill="white"/>
</g>
</g>
<defs>
<filter id="filter0_d_6619_24470" x="178.724" y="95.6122" width="74.5589" height="74.5589" filterUnits="userSpaceOnUse" color-interpolation-filters="sRGB">
<feFlood flood-opacity="0" result="BackgroundImageFix"/>
<feColorMatrix in="SourceAlpha" type="matrix" values="0 0 0 0 0 0 0 0 0 0 0 0 0 0 0 0 0 0 127 0" result="hardAlpha"/>
<feOffset dy="6.88776"/>
<feGaussianBlur stdDeviation="6.88776"/>
<feComposite in2="hardAlpha" operator="out"/>
<feColorMatrix type="matrix" values="0 0 0 0 0 0 0 0 0 0 0 0 0 0 0 0 0 0 0.05 0"/>
<feBlend mode="normal" in2="BackgroundImageFix" result="effect1_dropShadow_6619_24470"/>
<feBlend mode="normal" in="SourceGraphic" in2="effect1_dropShadow_6619_24470" result="shape"/>
</filter>
<linearGradient id="paint0_linear_6619_24470" x1="124.5" y1="31.2032" x2="124.5" y2="0.157788" gradientUnits="userSpaceOnUse">
<stop stop-color="#F57C00"/>
<stop offset="1" stop-color="#FAC286"/>
</linearGradient>
<linearGradient id="paint1_linear_6619_24470" x1="216.004" y1="138.489" x2="216.004" y2="116.128" gradientUnits="userSpaceOnUse">
<stop stop-color="#F57C00"/>
<stop offset="1" stop-color="#FAC286"/>
</linearGradient>
<clipPath id="clip0_6619_24470">
<rect width="249.25" height="157" fill="white" transform="translate(0.25 0.5)"/>
</clipPath>
<clipPath id="clip1_6619_24470">
<rect x="0.75" y="0.5" width="249" height="157" rx="8" fill="white"/>
</clipPath>
</defs>
</svg>
