<svg width="390" height="820" viewBox="0 0 390 820" fill="none" xmlns="http://www.w3.org/2000/svg">
<path d="M143 419.017L173 419.017" stroke="url(#paint0_linear_9012_878)" stroke-width="2" stroke-miterlimit="10" stroke-linecap="round"/>
<path d="M173 419.127C173 419.127 170.567 418.88 165.372 419.127C156.672 420.043 157.166 446.451 157.166 446.451C157.166 446.451 157.194 654.525 157.138 659.496C157.273 685.753 147.878 686.182 147.878 686.182L143 686.182" stroke="url(#paint1_linear_9012_878)" stroke-width="2" stroke-miterlimit="10" stroke-linecap="round"/>
<path d="M173 418.908C173 418.908 170.567 419.154 165.372 418.908C156.672 417.992 157.166 391.583 157.166 391.583C157.166 391.583 157.194 183.51 157.138 178.539C157.273 152.282 147.878 151.853 147.878 151.853L143 151.853" stroke="url(#paint2_linear_9012_878)" stroke-width="2" stroke-miterlimit="10" stroke-linecap="round"/>
<path d="M246.691 419.013L217 419.013" stroke="url(#paint3_linear_9012_878)" stroke-width="2" stroke-miterlimit="10" stroke-linecap="round"/>
<path d="M217 418.909C217 418.909 219.408 419.156 224.55 418.909C233.16 417.992 232.671 391.545 232.671 391.545C232.671 391.545 232.644 183.165 232.698 178.186C232.566 151.891 241.863 151.46 241.863 151.46L246.691 151.46" stroke="url(#paint4_linear_9012_878)" stroke-width="2" stroke-miterlimit="10" stroke-linecap="round"/>
<path d="M217 419.129C217 419.129 219.408 418.883 224.55 419.129C233.16 420.046 232.671 446.494 232.671 446.494C232.671 446.494 232.644 654.874 232.698 659.852C232.566 686.148 241.863 686.578 241.863 686.578L246.691 686.578" stroke="url(#paint5_linear_9012_878)" stroke-width="2" stroke-miterlimit="10" stroke-linecap="round"/>
<path d="M239.075 143L247 151.639L239 160.043" stroke="url(#paint6_linear_9012_878)" stroke-width="2" stroke-miterlimit="10" stroke-linecap="round"/>
<path d="M239.075 695L247 686.358L239 677.957" stroke="url(#paint7_linear_9012_878)" stroke-width="2" stroke-miterlimit="10" stroke-linecap="round"/>
<path d="M239.075 410.952L247 419.114L239 427.048" stroke="url(#paint8_linear_9012_878)" stroke-width="2" stroke-miterlimit="10" stroke-linecap="round"/>
<g filter="url(#filter0_d_9012_878)">
<path d="M247 55C247 48.3726 252.373 43 259 43H362C368.627 43 374 48.3726 374 55V251C374 257.627 368.627 263 362 263H259C252.373 263 247 257.627 247 251V55Z" fill="url(#paint9_linear_9012_878)" shape-rendering="crispEdges"/>
<g clip-path="url(#clip0_9012_878)">
<path d="M318.29 77.2009C318.144 77.0713 317.933 77.0273 317.748 77.0887L317.033 77.3251C315.395 75.0768 312.865 73.79 310.071 73.79C307.302 73.79 304.684 75.1321 303.069 77.3803C302.981 77.5027 302.947 77.6579 302.975 77.8059C303.003 77.9542 303.092 78.086 303.218 78.1677L304.565 79.0387C304.654 79.097 304.758 79.1277 304.865 79.1277C305.04 79.1277 305.207 79.0435 305.311 78.9025C306.437 77.3744 308.172 76.498 310.071 76.498C311.649 76.498 313.165 77.1302 314.265 78.2402L313.834 78.3826C313.647 78.4444 313.506 78.6028 313.466 78.7957C313.426 78.9888 313.493 79.19 313.64 79.3211L316.717 82.0631C316.818 82.1536 316.949 82.2033 317.085 82.2033C317.145 82.2033 317.203 82.1938 317.259 82.1756C317.446 82.1138 317.587 81.9555 317.627 81.7623L318.463 77.7262C318.503 77.5334 318.437 77.3321 318.29 77.2009Z" fill="white"/>
<path d="M317.782 85.4723L316.435 84.601C316.345 84.543 316.242 84.5121 316.135 84.5121C315.96 84.5121 315.793 84.5964 315.689 84.7374C314.563 86.2655 312.828 87.142 310.929 87.142C309.35 87.142 307.836 86.5098 306.735 85.3998L307.166 85.2574C307.353 85.1955 307.494 85.0371 307.534 84.844C307.574 84.651 307.507 84.45 307.36 84.3189L304.283 81.5769C304.137 81.4471 303.923 81.4039 303.741 81.4644C303.554 81.5261 303.413 81.6844 303.373 81.8777L302.536 85.9136C302.496 86.1066 302.563 86.3077 302.71 86.4389C302.856 86.5685 303.066 86.6125 303.252 86.5512L303.967 86.3149C305.604 88.5632 308.135 89.85 310.929 89.85C313.698 89.85 316.316 88.5078 317.931 86.2597C318.019 86.1374 318.053 85.9821 318.025 85.834C317.997 85.6858 317.908 85.554 317.782 85.4723Z" fill="white"/>
<path d="M328.096 60.8311H292.904C291.578 60.8311 290.5 61.9094 290.5 63.2349V94.7652C290.5 96.0907 291.578 97.1689 292.904 97.1689H328.096C329.422 97.1689 330.5 96.0907 330.5 94.7652V63.235C330.5 61.9095 329.422 60.8311 328.096 60.8311ZM320.849 64.8676C320.849 64.3774 321.246 63.98 321.736 63.98H322.624C323.114 63.98 323.511 64.3774 323.511 64.8676V65.8735C323.511 66.3637 323.114 66.7611 322.624 66.7611H321.736C321.246 66.7611 320.849 66.3637 320.849 65.8735V64.8676ZM316.721 64.8676C316.721 64.3774 317.119 63.98 317.609 63.98H318.497C318.987 63.98 319.384 64.3774 319.384 64.8676V65.8735C319.384 66.3637 318.987 66.7611 318.497 66.7611H317.609C317.119 66.7611 316.721 66.3637 316.721 65.8735V64.8676ZM327.615 94.2843H293.385V69.4273H327.615V94.2843H327.615ZM327.639 65.8735C327.639 66.3637 327.241 66.7611 326.751 66.7611H325.863C325.373 66.7611 324.976 66.3637 324.976 65.8735V64.8676C324.976 64.3774 325.373 63.98 325.863 63.98H326.751C327.241 63.98 327.639 64.3774 327.639 64.8676V65.8735Z" fill="#C2D7FF"/>
</g>
</g>
<g filter="url(#filter1_d_9012_878)">
<path d="M247 311C247 304.373 252.373 299 259 299H362C368.627 299 374 304.373 374 311L374 527C374 533.627 368.627 539 362 539H259C252.373 539 247 533.627 247 527L247 311Z" fill="url(#paint10_linear_9012_878)" shape-rendering="crispEdges"/>
<g clip-path="url(#clip1_9012_878)">
<path d="M328.722 339H325.167V335.667C325.167 335.298 324.869 335 324.5 335H311.167V332.333H318.067C320.975 332.333 323.167 330.081 323.167 327.095C323.167 324.643 321.681 322.533 319.565 321.877C319.252 318.041 316.059 315 312.22 315C309.914 315 307.681 316.103 306.257 317.912C305.671 317.701 305.031 317.667 304.5 317.667C302.26 317.667 300.57 319.341 300.57 321.561V321.581C298.872 322.569 297.833 324.424 297.833 326.523C297.833 329.727 300.275 332.333 303.277 332.333H309.833V335H296.5C296.131 335 295.833 335.298 295.833 335.667V339H292.278C291.297 339 290.5 339.797 290.5 340.778V353.222C290.5 354.203 291.297 355 292.278 355H300.722C301.703 355 302.5 354.203 302.5 353.222V340.778C302.5 339.797 301.703 339 300.722 339H297.167V336.333H309.833V339H306.278C305.297 339 304.5 339.797 304.5 340.778V353.222C304.5 354.203 305.297 355 306.278 355H314.722C315.703 355 316.5 354.203 316.5 353.222V340.778C316.5 339.797 315.703 339 314.722 339H311.167V336.333H323.833V339H320.278C319.297 339 318.5 339.797 318.5 340.778V353.222C318.5 354.203 319.297 355 320.278 355H328.722C329.703 355 330.5 354.203 330.5 353.222V340.778C330.5 339.797 329.703 339 328.722 339ZM299.167 351.667H293.833C293.465 351.667 293.167 351.369 293.167 351C293.167 350.631 293.465 350.333 293.833 350.333H299.167C299.535 350.333 299.833 350.631 299.833 351C299.833 351.369 299.535 351.667 299.167 351.667ZM293.167 347C293.167 346.632 293.465 346.333 293.833 346.333C294.201 346.333 294.5 346.632 294.5 347C294.5 347.368 294.201 347.667 293.833 347.667C293.465 347.667 293.167 347.368 293.167 347ZM295.833 347C295.833 346.632 296.132 346.333 296.5 346.333C296.868 346.333 297.167 346.632 297.167 347C297.167 347.368 296.868 347.667 296.5 347.667C296.132 347.667 295.833 347.368 295.833 347ZM299.167 347.667C298.799 347.667 298.5 347.368 298.5 347C298.5 346.632 298.799 346.333 299.167 346.333C299.535 346.333 299.833 346.632 299.833 347C299.833 347.368 299.535 347.667 299.167 347.667ZM299.167 342.333C299.535 342.333 299.833 342.631 299.833 343C299.833 343.369 299.535 343.667 299.167 343.667H293.833C293.465 343.667 293.167 343.369 293.167 343C293.167 342.631 293.465 342.333 293.833 342.333H299.167ZM310.5 344.333C310.868 344.333 311.167 344.632 311.167 345C311.167 345.368 310.868 345.667 310.5 345.667C310.132 345.667 309.833 345.368 309.833 345C309.833 344.632 310.132 344.333 310.5 344.333ZM309.167 342.333C309.535 342.333 309.833 342.632 309.833 343C309.833 343.368 309.535 343.667 309.167 343.667C308.799 343.667 308.5 343.368 308.5 343C308.5 342.632 308.799 342.333 309.167 342.333ZM307.833 344.333C308.201 344.333 308.5 344.632 308.5 345C308.5 345.368 308.201 345.667 307.833 345.667C307.465 345.667 307.167 345.368 307.167 345C307.167 344.632 307.465 344.333 307.833 344.333ZM308.5 351.667H307.833C307.465 351.667 307.167 351.369 307.167 351C307.167 350.631 307.465 350.333 307.833 350.333H308.5C308.869 350.333 309.167 350.631 309.167 351C309.167 351.369 308.869 351.667 308.5 351.667ZM313.167 351.667H311.167C310.798 351.667 310.5 351.369 310.5 351C310.5 350.631 310.798 350.333 311.167 350.333H313.167C313.535 350.333 313.833 350.631 313.833 351C313.833 351.369 313.535 351.667 313.167 351.667ZM313.167 349H307.833C307.465 349 307.167 348.702 307.167 348.333C307.167 347.965 307.465 347.667 307.833 347.667H313.167C313.535 347.667 313.833 347.965 313.833 348.333C313.833 348.702 313.535 349 313.167 349ZM313.167 344.333C313.535 344.333 313.833 344.632 313.833 345C313.833 345.368 313.535 345.667 313.167 345.667C312.799 345.667 312.5 345.368 312.5 345C312.5 344.632 312.799 344.333 313.167 344.333ZM311.833 342.333C312.201 342.333 312.5 342.632 312.5 343C312.5 343.368 312.201 343.667 311.833 343.667C311.465 343.667 311.167 343.368 311.167 343C311.167 342.632 311.465 342.333 311.833 342.333ZM303.277 331C301.011 331 299.167 328.991 299.167 326.523C299.167 324.791 300.07 323.281 301.525 322.583L301.903 322.403V321.983C301.903 321.929 301.907 321.873 301.912 321.792L301.909 321.659C301.906 321.626 301.903 321.594 301.903 321.561C301.903 320.077 302.995 319 304.5 319C305.995 319 307.167 320.171 307.167 321.667C307.167 322.035 307.465 322.333 307.833 322.333C308.202 322.333 308.5 322.035 308.5 321.667C308.5 320.519 308.038 319.501 307.289 318.778C308.453 317.285 310.336 316.333 312.22 316.333C315.268 316.333 317.815 318.683 318.202 321.701C317.651 321.631 316.971 321.587 316.4 321.675C316.036 321.73 315.786 322.069 315.841 322.433C315.896 322.797 316.236 323.047 316.6 322.992C317.346 322.877 318.531 323.085 318.924 323.175C318.973 323.185 319.022 323.191 319.071 323.191C319.11 323.191 319.146 323.178 319.184 323.171C320.737 323.664 321.833 325.24 321.833 327.095C321.833 329.321 320.214 331 318.067 331H303.277ZM327.167 351.667H321.833C321.465 351.667 321.167 351.369 321.167 351C321.167 350.631 321.465 350.333 321.833 350.333H327.167C327.535 350.333 327.833 350.631 327.833 351C327.833 351.369 327.535 351.667 327.167 351.667ZM321.167 347C321.167 346.632 321.465 346.333 321.833 346.333C322.201 346.333 322.5 346.632 322.5 347C322.5 347.368 322.201 347.667 321.833 347.667C321.465 347.667 321.167 347.368 321.167 347ZM323.833 347C323.833 346.632 324.132 346.333 324.5 346.333C324.868 346.333 325.167 346.632 325.167 347C325.167 347.368 324.868 347.667 324.5 347.667C324.132 347.667 323.833 347.368 323.833 347ZM327.167 347.667C326.799 347.667 326.5 347.368 326.5 347C326.5 346.632 326.799 346.333 327.167 346.333C327.535 346.333 327.833 346.632 327.833 347C327.833 347.368 327.535 347.667 327.167 347.667ZM327.167 343.667H321.833C321.465 343.667 321.167 343.369 321.167 343C321.167 342.631 321.465 342.333 321.833 342.333H327.167C327.535 342.333 327.833 342.631 327.833 343C327.833 343.369 327.535 343.667 327.167 343.667Z" fill="white"/>
</g>
</g>
<g filter="url(#filter2_d_9012_878)">
<path d="M247 588C247 581.373 252.373 576 259 576H362C368.627 576 374 581.373 374 588V784C374 790.627 368.627 796 362 796H259C252.373 796 247 790.627 247 784L247 588Z" fill="url(#paint11_linear_9012_878)" shape-rendering="crispEdges"/>
<g clip-path="url(#clip2_9012_878)">
<path d="M329.833 622.333H315.833C315.465 622.333 315.167 622.631 315.167 623V623.667H305.833V623C305.833 622.631 305.535 622.333 305.167 622.333H291.167C290.798 622.333 290.5 622.631 290.5 623V625C290.5 626.103 291.397 627 292.5 627H328.5C329.603 627 330.5 626.103 330.5 625V623C330.5 622.631 330.202 622.333 329.833 622.333Z" fill="#C2D7FF"/>
<path d="M308.567 609.957C308.523 609.866 308.5 609.767 308.5 609.667V603.703C305.504 604.036 303.167 606.583 303.167 609.667C303.167 612.975 305.858 615.667 309.167 615.667C309.859 615.667 310.53 615.552 311.169 615.325L308.567 609.957Z" fill="white"/>
<path d="M305.833 621.667V622.333H315.167V621.667C315.167 621.298 315.465 621 315.833 621H329.167V599C329.167 597.897 328.27 597 327.167 597H293.833C292.731 597 291.833 597.897 291.833 599V621H305.167C305.535 621 305.833 621.298 305.833 621.667ZM321.833 619H319.167C318.798 619 318.5 618.702 318.5 618.333C318.5 617.965 318.798 617.667 319.167 617.667H321.833C322.202 617.667 322.5 617.965 322.5 618.333C322.5 618.702 322.202 619 321.833 619ZM325.833 619H324.5C324.131 619 323.833 618.702 323.833 618.333C323.833 617.965 324.131 617.667 324.5 617.667H325.833C326.202 617.667 326.5 617.965 326.5 618.333C326.5 618.702 326.202 619 325.833 619ZM325.833 616.333H322.5C322.131 616.333 321.833 616.035 321.833 615.667C321.833 615.298 322.131 615 322.5 615H325.833C326.202 615 326.5 615.298 326.5 615.667C326.5 616.035 326.202 616.333 325.833 616.333ZM321.833 602.333H323.167V601C323.167 600.631 323.465 600.333 323.833 600.333C324.202 600.333 324.5 600.631 324.5 601V602.333H325.833C326.202 602.333 326.5 602.631 326.5 603C326.5 603.369 326.202 603.667 325.833 603.667H324.5V605C324.5 605.369 324.202 605.667 323.833 605.667C323.465 605.667 323.167 605.369 323.167 605V603.667H321.833C321.465 603.667 321.167 603.369 321.167 603C321.167 602.631 321.465 602.333 321.833 602.333ZM320.5 615.667C320.5 616.035 320.202 616.333 319.833 616.333H319.167C318.798 616.333 318.5 616.035 318.5 615.667C318.5 615.298 318.798 615 319.167 615H319.833C320.202 615 320.5 615.298 320.5 615.667ZM311.167 601.667C311.167 601.298 311.465 601 311.833 601C315.877 601 319.167 604.29 319.167 608.333C319.167 611.168 317.575 613.697 315.014 614.933C314.924 614.977 314.825 615 314.725 615H314.5C314.247 615 314.017 614.857 313.903 614.631L311.237 609.298C311.191 609.206 311.167 609.103 311.167 609V601.667H311.167ZM298.5 600.333H301.833C302.202 600.333 302.5 600.631 302.5 601C302.5 601.369 302.202 601.667 301.833 601.667H298.5C298.131 601.667 297.833 601.369 297.833 601C297.833 600.631 298.131 600.333 298.5 600.333ZM295.167 600.333H295.833C296.202 600.333 296.5 600.631 296.5 601C296.5 601.369 296.202 601.667 295.833 601.667H295.167C294.798 601.667 294.5 601.369 294.5 601C294.5 600.631 294.798 600.333 295.167 600.333ZM295.167 603H297.833C298.202 603 298.5 603.298 298.5 603.667C298.5 604.035 298.202 604.333 297.833 604.333H295.167C294.798 604.333 294.5 604.035 294.5 603.667C294.5 603.298 294.798 603 295.167 603ZM299.638 617.862C299.899 618.123 299.899 618.544 299.638 618.805C299.508 618.935 299.337 619 299.167 619C298.996 619 298.825 618.935 298.695 618.805L297.167 617.276L295.638 618.805C295.508 618.935 295.337 619 295.167 619C294.996 619 294.825 618.935 294.695 618.805C294.435 618.544 294.435 618.123 294.695 617.862L296.224 616.333L294.695 614.805C294.435 614.544 294.435 614.123 294.695 613.862C294.956 613.601 295.377 613.601 295.638 613.862L297.167 615.391L298.695 613.862C298.956 613.601 299.377 613.601 299.638 613.862C299.899 614.123 299.899 614.544 299.638 614.805L298.109 616.333L299.638 617.862ZM299.833 603.667C299.833 603.298 300.131 603 300.5 603H301.833C302.202 603 302.5 603.298 302.5 603.667C302.5 604.035 302.202 604.333 301.833 604.333H300.5C300.131 604.333 299.833 604.035 299.833 603.667ZM301.833 609.667C301.833 605.623 305.123 602.333 309.167 602.333C309.536 602.333 309.833 602.631 309.833 603V609.514L312.676 615.375C312.836 615.707 312.698 616.105 312.368 616.266C311.366 616.753 310.289 617 309.167 617C305.123 617 301.833 613.71 301.833 609.667Z" fill="#C2D7FF"/>
</g>
</g>
<g filter="url(#filter3_d_9012_878)">
<rect x="171.5" y="482.5" width="127" height="47" rx="23.5" transform="rotate(-90 171.5 482.5)" fill="url(#paint12_linear_9012_878)"/>
<rect x="171.5" y="482.5" width="127" height="47" rx="23.5" transform="rotate(-90 171.5 482.5)" stroke="url(#paint13_linear_9012_878)" stroke-width="3"/>
</g>
<g filter="url(#filter4_d_9012_878)">
<mask id="path-21-inside-1_9012_878" fill="white">
<path d="M16 20C16 13.3726 21.3726 8 28 8L131 8C137.627 8 143 13.3726 143 20L143 286C143 292.627 137.627 298 131 298L28 298C21.3726 298 16 292.627 16 286L16 20Z"/>
</mask>
<path d="M16 20C16 13.3726 21.3726 8 28 8L131 8C137.627 8 143 13.3726 143 20L143 286C143 292.627 137.627 298 131 298L28 298C21.3726 298 16 292.627 16 286L16 20Z" fill="white"/>
<path d="M15 20C15 12.8203 20.8203 7 28 7L133 7C140.18 7 146 12.8203 146 20H140C140 13.9249 135.971 9 131 9L28 9C21.9249 9 17 13.9249 17 20H15ZM146 286C146 293.18 140.18 299 133 299L28 299C20.8203 299 15 293.18 15 286H17C17 292.075 21.9249 297 28 297L131 297C135.971 297 140 292.075 140 286H146ZM28 299C20.8203 299 15 293.18 15 286L15 20C15 12.8203 20.8203 7 28 7V9C21.9249 9 17 13.9249 17 20L17 286C17 292.075 21.9249 297 28 297V299ZM133 7C140.18 7 146 12.8203 146 20L146 286C146 293.18 140.18 299 133 299L131 297C135.971 297 140 292.075 140 286L140 20C140 13.9249 135.971 9 131 9L133 7Z" fill="url(#paint14_linear_9012_878)" mask="url(#path-21-inside-1_9012_878)"/>
</g>
<g filter="url(#filter5_d_9012_878)">
<mask id="path-23-inside-2_9012_878" fill="white">
<path d="M16 323C16 316.373 21.3726 311 28 311L131 311C137.627 311 143 316.373 143 323V515C143 521.627 137.627 527 131 527H28C21.3726 527 16 521.627 16 515L16 323Z"/>
</mask>
<path d="M16 323C16 316.373 21.3726 311 28 311L131 311C137.627 311 143 316.373 143 323V515C143 521.627 137.627 527 131 527H28C21.3726 527 16 521.627 16 515L16 323Z" fill="white"/>
<path d="M15 323C15 315.82 20.8203 310 28 310L133 310C140.18 310 146 315.82 146 323H140C140 316.925 135.971 312 131 312L28 312C21.9249 312 17 316.925 17 323H15ZM146 515C146 522.18 140.18 528 133 528H28C20.8203 528 15 522.18 15 515H17C17 521.075 21.9249 526 28 526H131C135.971 526 140 521.075 140 515H146ZM28 528C20.8203 528 15 522.18 15 515L15 323C15 315.82 20.8203 310 28 310V312C21.9249 312 17 316.925 17 323L17 515C17 521.075 21.9249 526 28 526V528ZM133 310C140.18 310 146 315.82 146 323L146 515C146 522.18 140.18 528 133 528L131 526C135.971 526 140 521.075 140 515V323C140 316.925 135.971 312 131 312L133 310Z" fill="url(#paint15_linear_9012_878)" mask="url(#path-23-inside-2_9012_878)"/>
</g>
<g filter="url(#filter6_d_9012_878)">
<mask id="path-25-inside-3_9012_878" fill="white">
<path d="M16 599C16 592.373 21.3726 587 28 587H131C137.627 587 143 592.373 143 599V773C143 779.627 137.627 785 131 785H28C21.3726 785 16 779.627 16 773L16 599Z"/>
</mask>
<path d="M16 599C16 592.373 21.3726 587 28 587H131C137.627 587 143 592.373 143 599V773C143 779.627 137.627 785 131 785H28C21.3726 785 16 779.627 16 773L16 599Z" fill="white"/>
<path d="M15 599C15 591.82 20.8203 586 28 586H134C141.18 586 147 591.82 147 599H139C139 592.925 135.418 588 131 588H28C21.9249 588 17 592.925 17 599H15ZM147 773C147 780.18 141.18 786 134 786H28C20.8203 786 15 780.18 15 773H17C17 779.075 21.9249 784 28 784H131C135.418 784 139 779.075 139 773H147ZM28 786C20.8203 786 15 780.18 15 773L15 599C15 591.82 20.8203 586 28 586V588C21.9249 588 17 592.925 17 599L17 773C17 779.075 21.9249 784 28 784V786ZM134 586C141.18 586 147 591.82 147 599L147 773C147 780.18 141.18 786 134 786L131 784C135.418 784 139 779.075 139 773V599C139 592.925 135.418 588 131 588L134 586Z" fill="url(#paint16_linear_9012_878)" mask="url(#path-25-inside-3_9012_878)"/>
</g>
<defs>
<filter id="filter0_d_9012_878" x="231" y="35" width="159" height="252" filterUnits="userSpaceOnUse" color-interpolation-filters="sRGB">
<feFlood flood-opacity="0" result="BackgroundImageFix"/>
<feColorMatrix in="SourceAlpha" type="matrix" values="0 0 0 0 0 0 0 0 0 0 0 0 0 0 0 0 0 0 127 0" result="hardAlpha"/>
<feOffset dy="8"/>
<feGaussianBlur stdDeviation="8"/>
<feComposite in2="hardAlpha" operator="out"/>
<feColorMatrix type="matrix" values="0 0 0 0 0 0 0 0 0 0 0 0 0 0 0 0 0 0 0.05 0"/>
<feBlend mode="normal" in2="BackgroundImageFix" result="effect1_dropShadow_9012_878"/>
<feBlend mode="normal" in="SourceGraphic" in2="effect1_dropShadow_9012_878" result="shape"/>
</filter>
<filter id="filter1_d_9012_878" x="231" y="291" width="159" height="272" filterUnits="userSpaceOnUse" color-interpolation-filters="sRGB">
<feFlood flood-opacity="0" result="BackgroundImageFix"/>
<feColorMatrix in="SourceAlpha" type="matrix" values="0 0 0 0 0 0 0 0 0 0 0 0 0 0 0 0 0 0 127 0" result="hardAlpha"/>
<feOffset dy="8"/>
<feGaussianBlur stdDeviation="8"/>
<feComposite in2="hardAlpha" operator="out"/>
<feColorMatrix type="matrix" values="0 0 0 0 0 0 0 0 0 0 0 0 0 0 0 0 0 0 0.05 0"/>
<feBlend mode="normal" in2="BackgroundImageFix" result="effect1_dropShadow_9012_878"/>
<feBlend mode="normal" in="SourceGraphic" in2="effect1_dropShadow_9012_878" result="shape"/>
</filter>
<filter id="filter2_d_9012_878" x="231" y="568" width="159" height="252" filterUnits="userSpaceOnUse" color-interpolation-filters="sRGB">
<feFlood flood-opacity="0" result="BackgroundImageFix"/>
<feColorMatrix in="SourceAlpha" type="matrix" values="0 0 0 0 0 0 0 0 0 0 0 0 0 0 0 0 0 0 127 0" result="hardAlpha"/>
<feOffset dy="8"/>
<feGaussianBlur stdDeviation="8"/>
<feComposite in2="hardAlpha" operator="out"/>
<feColorMatrix type="matrix" values="0 0 0 0 0 0 0 0 0 0 0 0 0 0 0 0 0 0 0.05 0"/>
<feBlend mode="normal" in2="BackgroundImageFix" result="effect1_dropShadow_9012_878"/>
<feBlend mode="normal" in="SourceGraphic" in2="effect1_dropShadow_9012_878" result="shape"/>
</filter>
<filter id="filter3_d_9012_878" x="154" y="346" width="82" height="162" filterUnits="userSpaceOnUse" color-interpolation-filters="sRGB">
<feFlood flood-opacity="0" result="BackgroundImageFix"/>
<feColorMatrix in="SourceAlpha" type="matrix" values="0 0 0 0 0 0 0 0 0 0 0 0 0 0 0 0 0 0 127 0" result="hardAlpha"/>
<feOffset dy="8"/>
<feGaussianBlur stdDeviation="8"/>
<feComposite in2="hardAlpha" operator="out"/>
<feColorMatrix type="matrix" values="0 0 0 0 0 0 0 0 0 0 0 0 0 0 0 0 0 0 0.05 0"/>
<feBlend mode="normal" in2="BackgroundImageFix" result="effect1_dropShadow_9012_878"/>
<feBlend mode="normal" in="SourceGraphic" in2="effect1_dropShadow_9012_878" result="shape"/>
</filter>
<filter id="filter4_d_9012_878" x="0" y="0" width="159" height="322" filterUnits="userSpaceOnUse" color-interpolation-filters="sRGB">
<feFlood flood-opacity="0" result="BackgroundImageFix"/>
<feColorMatrix in="SourceAlpha" type="matrix" values="0 0 0 0 0 0 0 0 0 0 0 0 0 0 0 0 0 0 127 0" result="hardAlpha"/>
<feOffset dy="8"/>
<feGaussianBlur stdDeviation="8"/>
<feComposite in2="hardAlpha" operator="out"/>
<feColorMatrix type="matrix" values="0 0 0 0 0 0 0 0 0 0 0 0 0 0 0 0 0 0 0.05 0"/>
<feBlend mode="normal" in2="BackgroundImageFix" result="effect1_dropShadow_9012_878"/>
<feBlend mode="normal" in="SourceGraphic" in2="effect1_dropShadow_9012_878" result="shape"/>
</filter>
<filter id="filter5_d_9012_878" x="0" y="303" width="159" height="248" filterUnits="userSpaceOnUse" color-interpolation-filters="sRGB">
<feFlood flood-opacity="0" result="BackgroundImageFix"/>
<feColorMatrix in="SourceAlpha" type="matrix" values="0 0 0 0 0 0 0 0 0 0 0 0 0 0 0 0 0 0 127 0" result="hardAlpha"/>
<feOffset dy="8"/>
<feGaussianBlur stdDeviation="8"/>
<feComposite in2="hardAlpha" operator="out"/>
<feColorMatrix type="matrix" values="0 0 0 0 0 0 0 0 0 0 0 0 0 0 0 0 0 0 0.05 0"/>
<feBlend mode="normal" in2="BackgroundImageFix" result="effect1_dropShadow_9012_878"/>
<feBlend mode="normal" in="SourceGraphic" in2="effect1_dropShadow_9012_878" result="shape"/>
</filter>
<filter id="filter6_d_9012_878" x="0" y="579" width="159" height="230" filterUnits="userSpaceOnUse" color-interpolation-filters="sRGB">
<feFlood flood-opacity="0" result="BackgroundImageFix"/>
<feColorMatrix in="SourceAlpha" type="matrix" values="0 0 0 0 0 0 0 0 0 0 0 0 0 0 0 0 0 0 127 0" result="hardAlpha"/>
<feOffset dy="8"/>
<feGaussianBlur stdDeviation="8"/>
<feComposite in2="hardAlpha" operator="out"/>
<feColorMatrix type="matrix" values="0 0 0 0 0 0 0 0 0 0 0 0 0 0 0 0 0 0 0.05 0"/>
<feBlend mode="normal" in2="BackgroundImageFix" result="effect1_dropShadow_9012_878"/>
<feBlend mode="normal" in="SourceGraphic" in2="effect1_dropShadow_9012_878" result="shape"/>
</filter>
<linearGradient id="paint0_linear_9012_878" x1="149.805" y1="418.77" x2="149.805" y2="418.238" gradientUnits="userSpaceOnUse">
<stop stop-color="#B1D1F6"/>
<stop offset="1" stop-color="#C5C8FD"/>
</linearGradient>
<linearGradient id="paint1_linear_9012_878" x1="149.805" y1="620.216" x2="163.768" y2="479.48" gradientUnits="userSpaceOnUse">
<stop stop-color="#B1D1F6"/>
<stop offset="1" stop-color="#C5C8FD"/>
</linearGradient>
<linearGradient id="paint2_linear_9012_878" x1="149.805" y1="217.819" x2="163.768" y2="358.555" gradientUnits="userSpaceOnUse">
<stop stop-color="#B1D1F6"/>
<stop offset="1" stop-color="#C5C8FD"/>
</linearGradient>
<linearGradient id="paint3_linear_9012_878" x1="246.691" y1="419.513" x2="217" y2="419.513" gradientUnits="userSpaceOnUse">
<stop offset="0.130208" stop-color="#5E79FF"/>
<stop offset="1" stop-color="#1D39C4"/>
</linearGradient>
<linearGradient id="paint4_linear_9012_878" x1="246.691" y1="285.24" x2="217" y2="285.24" gradientUnits="userSpaceOnUse">
<stop offset="0.130208" stop-color="#5E79FF"/>
<stop offset="1" stop-color="#1D39C4"/>
</linearGradient>
<linearGradient id="paint5_linear_9012_878" x1="246.691" y1="552.799" x2="217" y2="552.799" gradientUnits="userSpaceOnUse">
<stop offset="0.130208" stop-color="#5E79FF"/>
<stop offset="1" stop-color="#1D39C4"/>
</linearGradient>
<linearGradient id="paint6_linear_9012_878" x1="247" y1="151.521" x2="239" y2="151.521" gradientUnits="userSpaceOnUse">
<stop offset="0.130208" stop-color="#5E79FF"/>
<stop offset="1" stop-color="#1D39C4"/>
</linearGradient>
<linearGradient id="paint7_linear_9012_878" x1="247" y1="686.479" x2="239" y2="686.479" gradientUnits="userSpaceOnUse">
<stop offset="0.130208" stop-color="#5E79FF"/>
<stop offset="1" stop-color="#1D39C4"/>
</linearGradient>
<linearGradient id="paint8_linear_9012_878" x1="247" y1="419" x2="239" y2="419" gradientUnits="userSpaceOnUse">
<stop offset="0.130208" stop-color="#5E79FF"/>
<stop offset="1" stop-color="#1D39C4"/>
</linearGradient>
<linearGradient id="paint9_linear_9012_878" x1="247" y1="43" x2="384.472" y2="49.751" gradientUnits="userSpaceOnUse">
<stop stop-color="#85A5FF"/>
<stop offset="1" stop-color="#4E7BFA"/>
</linearGradient>
<linearGradient id="paint10_linear_9012_878" x1="247" y1="299" x2="384.525" y2="305.191" gradientUnits="userSpaceOnUse">
<stop stop-color="#85A5FF"/>
<stop offset="1" stop-color="#4E7BFA"/>
</linearGradient>
<linearGradient id="paint11_linear_9012_878" x1="247" y1="576" x2="384.472" y2="582.751" gradientUnits="userSpaceOnUse">
<stop stop-color="#85A5FF"/>
<stop offset="1" stop-color="#4E7BFA"/>
</linearGradient>
<linearGradient id="paint12_linear_9012_878" x1="181.071" y1="481" x2="295.496" y2="507.903" gradientUnits="userSpaceOnUse">
<stop stop-color="#7B91FF"/>
<stop offset="1" stop-color="#4160FC"/>
</linearGradient>
<linearGradient id="paint13_linear_9012_878" x1="203.617" y1="490.981" x2="269.515" y2="493.05" gradientUnits="userSpaceOnUse">
<stop stop-color="#B1D1F6"/>
<stop offset="1" stop-color="#C5C8FD"/>
</linearGradient>
<linearGradient id="paint14_linear_9012_878" x1="47.358" y1="73.7806" x2="114.915" y2="74.1102" gradientUnits="userSpaceOnUse">
<stop stop-color="#B1D1F6"/>
<stop offset="1" stop-color="#C5C8FD"/>
</linearGradient>
<linearGradient id="paint15_linear_9012_878" x1="47.358" y1="359.995" x2="114.914" y2="360.438" gradientUnits="userSpaceOnUse">
<stop stop-color="#B1D1F6"/>
<stop offset="1" stop-color="#C5C8FD"/>
</linearGradient>
<linearGradient id="paint16_linear_9012_878" x1="47.358" y1="631.912" x2="114.914" y2="632.395" gradientUnits="userSpaceOnUse">
<stop stop-color="#B1D1F6"/>
<stop offset="1" stop-color="#C5C8FD"/>
</linearGradient>
<clipPath id="clip0_9012_878">
<rect width="40" height="40" fill="white" transform="translate(290.5 59)"/>
</clipPath>
<clipPath id="clip1_9012_878">
<rect width="40" height="40" fill="white" transform="translate(290.5 315)"/>
</clipPath>
<clipPath id="clip2_9012_878">
<rect width="40" height="40" fill="white" transform="translate(290.5 592)"/>
</clipPath>
</defs>
</svg>
