<svg width="1232" height="555" viewBox="0 0 1232 555" fill="none" xmlns="http://www.w3.org/2000/svg">
<path d="M616 120L616 216" stroke="url(#paint0_linear_9012_818)" stroke-width="4" stroke-miterlimit="10" stroke-linecap="round"/>
<path d="M615.831 216C615.831 216 616.212 208.215 615.831 191.589C614.415 163.75 573.591 165.331 573.591 165.331C573.591 165.331 251.938 165.42 244.254 165.243C203.664 165.672 203 135.61 203 135.61V120" stroke="url(#paint1_linear_9012_818)" stroke-width="4" stroke-miterlimit="10" stroke-linecap="round"/>
<path d="M616.169 216C616.169 216 615.788 208.215 616.169 191.589C617.585 163.75 658.409 165.331 658.409 165.331C658.409 165.331 980.062 165.42 987.746 165.243C1028.34 165.672 1029 135.61 1029 135.61V120" stroke="url(#paint2_linear_9012_818)" stroke-width="4" stroke-miterlimit="10" stroke-linecap="round"/>
<path d="M615.95 361L615.95 265" stroke="url(#paint3_linear_9012_818)" stroke-width="4" stroke-miterlimit="10" stroke-linecap="round"/>
<path d="M616.11 265C616.11 265 615.729 272.785 616.11 289.411C617.526 317.25 658.35 315.669 658.35 315.669C658.35 315.669 980.002 315.58 987.687 315.757C1028.28 315.328 1028.94 345.39 1028.94 345.39L1028.94 361" stroke="url(#paint4_linear_9012_818)" stroke-width="4" stroke-miterlimit="10" stroke-linecap="round"/>
<path d="M615.771 265C615.771 265 616.151 272.785 615.771 289.411C614.355 317.25 573.531 315.669 573.531 315.669C573.531 315.669 251.878 315.58 244.194 315.757C203.604 315.328 202.94 345.39 202.94 345.39L202.94 361" stroke="url(#paint5_linear_9012_818)" stroke-width="4" stroke-miterlimit="10" stroke-linecap="round"/>
<path d="M1042 349.27L1028.79 362L1015.94 349.15" stroke="url(#paint6_linear_9012_818)" stroke-width="4" stroke-miterlimit="10" stroke-linecap="round"/>
<path d="M189.94 349.27L203.15 362L215.99 349.15" stroke="url(#paint7_linear_9012_818)" stroke-width="4" stroke-miterlimit="10" stroke-linecap="round"/>
<path d="M628.97 349.27L615.76 362L602.92 349.15" stroke="url(#paint8_linear_9012_818)" stroke-width="4" stroke-miterlimit="10" stroke-linecap="round"/>
<g filter="url(#filter0_d_9012_818)">
<mask id="path-10-inside-1_9012_818" fill="white">
<path d="M16 20C16 13.3726 21.3726 8 28 8H388C394.627 8 400 13.3726 400 20V108C400 114.627 394.627 120 388 120H28C21.3726 120 16 114.627 16 108V20Z"/>
</mask>
<path d="M16 20C16 13.3726 21.3726 8 28 8H388C394.627 8 400 13.3726 400 20V108C400 114.627 394.627 120 388 120H28C21.3726 120 16 114.627 16 108V20Z" fill="white"/>
<path d="M15 20C15 12.8203 20.8203 7 28 7H388C395.18 7 401 12.8203 401 20H399C399 13.9249 394.075 9 388 9H28C21.9249 9 17 13.9249 17 20H15ZM401 111C401 118.18 395.18 124 388 124H28C20.8203 124 15 118.18 15 111L17 108C17 112.418 21.9249 116 28 116H388C394.075 116 399 112.418 399 108L401 111ZM28 124C20.8203 124 15 118.18 15 111V20C15 12.8203 20.8203 7 28 7V9C21.9249 9 17 13.9249 17 20V108C17 112.418 21.9249 116 28 116V124ZM388 7C395.18 7 401 12.8203 401 20V111C401 118.18 395.18 124 388 124V116C394.075 116 399 112.418 399 108V20C399 13.9249 394.075 9 388 9V7Z" fill="url(#paint9_linear_9012_818)" mask="url(#path-10-inside-1_9012_818)"/>
</g>
<g filter="url(#filter1_d_9012_818)">
<mask id="path-12-inside-2_9012_818" fill="white">
<path d="M424 20C424 13.3726 429.373 8 436 8H796C802.627 8 808 13.3726 808 20V108C808 114.627 802.627 120 796 120H436C429.373 120 424 114.627 424 108V20Z"/>
</mask>
<path d="M424 20C424 13.3726 429.373 8 436 8H796C802.627 8 808 13.3726 808 20V108C808 114.627 802.627 120 796 120H436C429.373 120 424 114.627 424 108V20Z" fill="white"/>
<path d="M423 20C423 12.8203 428.82 7 436 7H796C803.18 7 809 12.8203 809 20H807C807 13.9249 802.075 9 796 9H436C429.925 9 425 13.9249 425 20H423ZM809 111C809 118.18 803.18 124 796 124H436C428.82 124 423 118.18 423 111L425 108C425 112.418 429.925 116 436 116H796C802.075 116 807 112.418 807 108L809 111ZM436 124C428.82 124 423 118.18 423 111V20C423 12.8203 428.82 7 436 7V9C429.925 9 425 13.9249 425 20V108C425 112.418 429.925 116 436 116V124ZM796 7C803.18 7 809 12.8203 809 20V111C809 118.18 803.18 124 796 124V116C802.075 116 807 112.418 807 108V20C807 13.9249 802.075 9 796 9V7Z" fill="url(#paint10_linear_9012_818)" mask="url(#path-12-inside-2_9012_818)"/>
</g>
<g filter="url(#filter2_d_9012_818)">
<mask id="path-14-inside-3_9012_818" fill="white">
<path d="M832 20C832 13.3726 837.373 8 844 8H1204C1210.63 8 1216 13.3726 1216 20V108C1216 114.627 1210.63 120 1204 120H844C837.373 120 832 114.627 832 108V20Z"/>
</mask>
<path d="M832 20C832 13.3726 837.373 8 844 8H1204C1210.63 8 1216 13.3726 1216 20V108C1216 114.627 1210.63 120 1204 120H844C837.373 120 832 114.627 832 108V20Z" fill="white" shape-rendering="crispEdges"/>
<path d="M831 20C831 12.8203 836.82 7 844 7H1204C1211.18 7 1217 12.8203 1217 20H1215C1215 13.9249 1210.08 9 1204 9H844C837.925 9 833 13.9249 833 20H831ZM1217 111C1217 118.18 1211.18 124 1204 124H844C836.82 124 831 118.18 831 111L833 108C833 112.418 837.925 116 844 116H1204C1210.08 116 1215 112.418 1215 108L1217 111ZM844 124C836.82 124 831 118.18 831 111V20C831 12.8203 836.82 7 844 7V9C837.925 9 833 13.9249 833 20V108C833 112.418 837.925 116 844 116V124ZM1204 7C1211.18 7 1217 12.8203 1217 20V111C1217 118.18 1211.18 124 1204 124V116C1210.08 116 1215 112.418 1215 108V20C1215 13.9249 1210.08 9 1204 9V7Z" fill="url(#paint11_linear_9012_818)" mask="url(#path-14-inside-3_9012_818)"/>
</g>
<g filter="url(#filter3_d_9012_818)">
<path d="M16 377C16 370.373 21.3726 365 28 365H388C394.627 365 400 370.373 400 377V519C400 525.627 394.627 531 388 531H28C21.3726 531 16 525.627 16 519V377Z" fill="url(#paint12_linear_9012_818)" shape-rendering="crispEdges"/>
<g clip-path="url(#clip0_9012_818)">
<path d="M216.958 405.931C216.791 405.782 216.548 405.731 216.335 405.802L215.512 406.074C213.63 403.488 210.719 402.009 207.506 402.009C204.322 402.009 201.312 403.552 199.454 406.137C199.353 406.278 199.314 406.457 199.346 406.627C199.378 406.797 199.48 406.949 199.626 407.043L201.174 408.045C201.277 408.112 201.397 408.147 201.52 408.147C201.721 408.147 201.913 408.05 202.032 407.888C203.327 406.131 205.322 405.123 207.506 405.123C209.322 405.123 211.064 405.85 212.33 407.126L211.834 407.29C211.619 407.361 211.457 407.543 211.411 407.765C211.365 407.987 211.442 408.218 211.611 408.369L215.149 411.523C215.266 411.627 215.416 411.684 215.573 411.684C215.641 411.684 215.708 411.673 215.772 411.652C215.988 411.581 216.15 411.399 216.196 411.177L217.157 406.535C217.204 406.313 217.127 406.082 216.958 405.931Z" fill="white"/>
<path d="M216.374 415.443L214.825 414.441C214.722 414.375 214.603 414.339 214.48 414.339C214.279 414.339 214.087 414.436 213.968 414.598C212.673 416.355 210.677 417.363 208.494 417.363C206.678 417.363 204.936 416.636 203.67 415.36L204.165 415.196C204.381 415.125 204.543 414.943 204.589 414.721C204.635 414.499 204.558 414.268 204.389 414.117L200.85 410.964C200.683 410.814 200.436 410.765 200.227 410.834C200.012 410.905 199.85 411.087 199.804 411.309L198.842 415.951C198.796 416.173 198.872 416.404 199.041 416.555C199.209 416.704 199.451 416.755 199.665 416.684L200.487 416.412C202.37 418.998 205.281 420.478 208.494 420.478C211.678 420.478 214.688 418.934 216.545 416.349C216.646 416.208 216.686 416.03 216.654 415.859C216.622 415.689 216.519 415.537 216.374 415.443Z" fill="white"/>
<path d="M228.236 387.106H187.764C186.24 387.106 185 388.346 185 389.87V426.13C185 427.654 186.24 428.894 187.764 428.894H228.236C229.76 428.894 231 427.654 231 426.13V389.87C231 388.346 229.76 387.106 228.236 387.106ZM219.901 391.748C219.901 391.184 220.358 390.727 220.922 390.727H221.942C222.506 390.727 222.963 391.184 222.963 391.748V392.905C222.963 393.468 222.506 393.925 221.942 393.925H220.922C220.358 393.925 219.901 393.468 219.901 392.905V391.748ZM215.155 391.748C215.155 391.184 215.612 390.727 216.175 390.727H217.196C217.76 390.727 218.217 391.184 218.217 391.748V392.905C218.217 393.468 217.76 393.925 217.196 393.925H216.175C215.612 393.925 215.155 393.468 215.155 392.905V391.748ZM227.683 425.577H188.317V396.991H227.682V425.577H227.683ZM227.709 392.905C227.709 393.468 227.252 393.925 226.689 393.925H225.668C225.104 393.925 224.647 393.468 224.647 392.905V391.748C224.647 391.184 225.104 390.727 225.668 390.727H226.689C227.252 390.727 227.709 391.184 227.709 391.748V392.905Z" fill="#C2D7FF"/>
</g>
</g>
<g filter="url(#filter4_d_9012_818)">
<path d="M424 377C424 370.373 429.373 365 436 365H796C802.627 365 808 370.373 808 377V519C808 525.627 802.627 531 796 531H436C429.373 531 424 525.627 424 519V377Z" fill="url(#paint13_linear_9012_818)" shape-rendering="crispEdges"/>
<g clip-path="url(#clip1_9012_818)">
<path d="M636.955 412.6H632.867V408.767C632.867 408.343 632.524 408 632.1 408H616.767V404.933H624.702C628.046 404.933 630.567 402.344 630.567 398.91C630.567 396.09 628.858 393.663 626.424 392.909C626.065 388.497 622.392 385 617.978 385C615.326 385 612.758 386.268 611.12 388.349C610.446 388.106 609.711 388.067 609.1 388.067C606.524 388.067 604.58 389.993 604.58 392.546V392.569C602.628 393.705 601.433 395.838 601.433 398.252C601.433 401.937 604.242 404.933 607.693 404.933H615.233V408H599.9C599.476 408 599.133 408.343 599.133 408.767V412.6H595.045C593.917 412.6 593 413.517 593 414.645V428.955C593 430.083 593.917 431 595.045 431H604.755C605.883 431 606.8 430.083 606.8 428.955V414.645C606.8 413.517 605.883 412.6 604.755 412.6H600.667V409.533H615.233V412.6H611.145C610.017 412.6 609.1 413.517 609.1 414.645V428.955C609.1 430.083 610.017 431 611.145 431H620.855C621.983 431 622.9 430.083 622.9 428.955V414.645C622.9 413.517 621.983 412.6 620.855 412.6H616.767V409.533H631.333V412.6H627.245C626.117 412.6 625.2 413.517 625.2 414.645V428.955C625.2 430.083 626.117 431 627.245 431H636.955C638.083 431 639 430.083 639 428.955V414.645C639 413.517 638.083 412.6 636.955 412.6ZM602.967 427.167H596.833C596.409 427.167 596.067 426.824 596.067 426.4C596.067 425.976 596.409 425.633 596.833 425.633H602.967C603.391 425.633 603.733 425.976 603.733 426.4C603.733 426.824 603.391 427.167 602.967 427.167ZM596.067 421.8C596.067 421.377 596.41 421.033 596.833 421.033C597.256 421.033 597.6 421.377 597.6 421.8C597.6 422.223 597.256 422.567 596.833 422.567C596.41 422.567 596.067 422.223 596.067 421.8ZM599.133 421.8C599.133 421.377 599.477 421.033 599.9 421.033C600.323 421.033 600.667 421.377 600.667 421.8C600.667 422.223 600.323 422.567 599.9 422.567C599.477 422.567 599.133 422.223 599.133 421.8ZM602.967 422.567C602.543 422.567 602.2 422.223 602.2 421.8C602.2 421.377 602.543 421.033 602.967 421.033C603.39 421.033 603.733 421.377 603.733 421.8C603.733 422.223 603.39 422.567 602.967 422.567ZM602.967 416.433C603.391 416.433 603.733 416.776 603.733 417.2C603.733 417.624 603.391 417.967 602.967 417.967H596.833C596.409 417.967 596.067 417.624 596.067 417.2C596.067 416.776 596.409 416.433 596.833 416.433H602.967ZM616 418.733C616.423 418.733 616.767 419.077 616.767 419.5C616.767 419.923 616.423 420.267 616 420.267C615.577 420.267 615.233 419.923 615.233 419.5C615.233 419.077 615.577 418.733 616 418.733ZM614.467 416.433C614.89 416.433 615.233 416.777 615.233 417.2C615.233 417.623 614.89 417.967 614.467 417.967C614.043 417.967 613.7 417.623 613.7 417.2C613.7 416.777 614.043 416.433 614.467 416.433ZM612.933 418.733C613.357 418.733 613.7 419.077 613.7 419.5C613.7 419.923 613.357 420.267 612.933 420.267C612.51 420.267 612.167 419.923 612.167 419.5C612.167 419.077 612.51 418.733 612.933 418.733ZM613.7 427.167H612.933C612.509 427.167 612.167 426.824 612.167 426.4C612.167 425.976 612.509 425.633 612.933 425.633H613.7C614.124 425.633 614.467 425.976 614.467 426.4C614.467 426.824 614.124 427.167 613.7 427.167ZM619.067 427.167H616.767C616.343 427.167 616 426.824 616 426.4C616 425.976 616.343 425.633 616.767 425.633H619.067C619.491 425.633 619.833 425.976 619.833 426.4C619.833 426.824 619.491 427.167 619.067 427.167ZM619.067 424.1H612.933C612.509 424.1 612.167 423.757 612.167 423.333C612.167 422.909 612.509 422.567 612.933 422.567H619.067C619.491 422.567 619.833 422.909 619.833 423.333C619.833 423.757 619.491 424.1 619.067 424.1ZM619.067 418.733C619.49 418.733 619.833 419.077 619.833 419.5C619.833 419.923 619.49 420.267 619.067 420.267C618.643 420.267 618.3 419.923 618.3 419.5C618.3 419.077 618.643 418.733 619.067 418.733ZM617.533 416.433C617.957 416.433 618.3 416.777 618.3 417.2C618.3 417.623 617.957 417.967 617.533 417.967C617.11 417.967 616.767 417.623 616.767 417.2C616.767 416.777 617.11 416.433 617.533 416.433ZM607.693 403.4C605.087 403.4 602.967 401.09 602.967 398.252C602.967 396.259 604.006 394.523 605.678 393.721L606.114 393.513V393.03C606.114 392.968 606.118 392.904 606.124 392.811L606.12 392.657C606.117 392.62 606.114 392.583 606.114 392.546C606.114 390.838 607.37 389.6 609.1 389.6C610.82 389.6 612.167 390.947 612.167 392.667C612.167 393.091 612.509 393.433 612.933 393.433C613.357 393.433 613.7 393.091 613.7 392.667C613.7 391.347 613.168 390.176 612.307 389.345C613.645 387.628 615.811 386.533 617.978 386.533C621.483 386.533 624.412 389.236 624.857 392.706C624.224 392.626 623.441 392.575 622.785 392.676C622.366 392.739 622.079 393.13 622.142 393.548C622.206 393.967 622.596 394.254 623.015 394.191C623.873 394.059 625.235 394.297 625.687 394.401C625.744 394.413 625.801 394.419 625.857 394.419C625.902 394.419 625.943 394.405 625.986 394.397C627.773 394.964 629.033 396.776 629.033 398.91C629.033 401.469 627.171 403.4 624.702 403.4H607.693ZM635.167 427.167H629.033C628.609 427.167 628.267 426.824 628.267 426.4C628.267 425.976 628.609 425.633 629.033 425.633H635.167C635.591 425.633 635.933 425.976 635.933 426.4C635.933 426.824 635.591 427.167 635.167 427.167ZM628.267 421.8C628.267 421.377 628.61 421.033 629.033 421.033C629.456 421.033 629.8 421.377 629.8 421.8C629.8 422.223 629.456 422.567 629.033 422.567C628.61 422.567 628.267 422.223 628.267 421.8ZM631.333 421.8C631.333 421.377 631.677 421.033 632.1 421.033C632.523 421.033 632.867 421.377 632.867 421.8C632.867 422.223 632.523 422.567 632.1 422.567C631.677 422.567 631.333 422.223 631.333 421.8ZM635.167 422.567C634.743 422.567 634.4 422.223 634.4 421.8C634.4 421.377 634.743 421.033 635.167 421.033C635.59 421.033 635.933 421.377 635.933 421.8C635.933 422.223 635.59 422.567 635.167 422.567ZM635.167 417.967H629.033C628.609 417.967 628.267 417.624 628.267 417.2C628.267 416.776 628.609 416.433 629.033 416.433H635.167C635.591 416.433 635.933 416.776 635.933 417.2C635.933 417.624 635.591 417.967 635.167 417.967Z" fill="white"/>
</g>
</g>
<g filter="url(#filter5_d_9012_818)">
<path d="M832 377C832 370.373 837.373 365 844 365H1204C1210.63 365 1216 370.373 1216 377V519C1216 525.627 1210.63 531 1204 531H844C837.373 531 832 525.627 832 519V377Z" fill="url(#paint14_linear_9012_818)" shape-rendering="crispEdges"/>
<path d="M1046.23 419.883H1030.13C1029.71 419.883 1029.37 420.226 1029.37 420.65V421.417H1018.63V420.65C1018.63 420.226 1018.29 419.883 1017.87 419.883H1001.77C1001.34 419.883 1001 420.226 1001 420.65V422.95C1001 424.218 1002.03 425.25 1003.3 425.25H1044.7C1045.97 425.25 1047 424.218 1047 422.95V420.65C1047 420.226 1046.66 419.883 1046.23 419.883Z" fill="#C2D7FF"/>
<path d="M1021.78 405.651C1021.73 405.546 1021.7 405.433 1021.7 405.317V398.459C1018.25 398.842 1015.57 401.771 1015.57 405.317C1015.57 409.122 1018.66 412.217 1022.47 412.217C1023.26 412.217 1024.03 412.085 1024.77 411.824L1021.78 405.651Z" fill="white"/>
<path d="M1018.63 419.117V419.883H1029.37V419.117C1029.37 418.693 1029.71 418.35 1030.13 418.35H1045.47V393.05C1045.47 391.782 1044.43 390.75 1043.17 390.75H1004.83C1003.57 390.75 1002.53 391.782 1002.53 393.05V418.35H1017.87C1018.29 418.35 1018.63 418.693 1018.63 419.117ZM1037.03 416.05H1033.97C1033.54 416.05 1033.2 415.707 1033.2 415.283C1033.2 414.859 1033.54 414.517 1033.97 414.517H1037.03C1037.46 414.517 1037.8 414.859 1037.8 415.283C1037.8 415.707 1037.46 416.05 1037.03 416.05ZM1041.63 416.05H1040.1C1039.68 416.05 1039.33 415.707 1039.33 415.283C1039.33 414.859 1039.68 414.517 1040.1 414.517H1041.63C1042.06 414.517 1042.4 414.859 1042.4 415.283C1042.4 415.707 1042.06 416.05 1041.63 416.05ZM1041.63 412.983H1037.8C1037.38 412.983 1037.03 412.641 1037.03 412.217C1037.03 411.793 1037.38 411.45 1037.8 411.45H1041.63C1042.06 411.45 1042.4 411.793 1042.4 412.217C1042.4 412.641 1042.06 412.983 1041.63 412.983ZM1037.03 396.883H1038.57V395.35C1038.57 394.926 1038.91 394.583 1039.33 394.583C1039.76 394.583 1040.1 394.926 1040.1 395.35V396.883H1041.63C1042.06 396.883 1042.4 397.226 1042.4 397.65C1042.4 398.074 1042.06 398.417 1041.63 398.417H1040.1V399.95C1040.1 400.374 1039.76 400.717 1039.33 400.717C1038.91 400.717 1038.57 400.374 1038.57 399.95V398.417H1037.03C1036.61 398.417 1036.27 398.074 1036.27 397.65C1036.27 397.226 1036.61 396.883 1037.03 396.883ZM1035.5 412.217C1035.5 412.641 1035.16 412.983 1034.73 412.983H1033.97C1033.54 412.983 1033.2 412.641 1033.2 412.217C1033.2 411.793 1033.54 411.45 1033.97 411.45H1034.73C1035.16 411.45 1035.5 411.793 1035.5 412.217ZM1024.77 396.117C1024.77 395.693 1025.11 395.35 1025.53 395.35C1030.18 395.35 1033.97 399.134 1033.97 403.783C1033.97 407.043 1032.14 409.952 1029.19 411.373C1029.09 411.424 1028.97 411.45 1028.86 411.45H1028.6C1028.31 411.45 1028.04 411.286 1027.91 411.026L1024.85 404.893C1024.79 404.787 1024.77 404.669 1024.77 404.55V396.117H1024.77ZM1010.2 394.583H1014.03C1014.46 394.583 1014.8 394.926 1014.8 395.35C1014.8 395.774 1014.46 396.117 1014.03 396.117H1010.2C1009.78 396.117 1009.43 395.774 1009.43 395.35C1009.43 394.926 1009.78 394.583 1010.2 394.583ZM1006.37 394.583H1007.13C1007.56 394.583 1007.9 394.926 1007.9 395.35C1007.9 395.774 1007.56 396.117 1007.13 396.117H1006.37C1005.94 396.117 1005.6 395.774 1005.6 395.35C1005.6 394.926 1005.94 394.583 1006.37 394.583ZM1006.37 397.65H1009.43C1009.86 397.65 1010.2 397.993 1010.2 398.417C1010.2 398.841 1009.86 399.183 1009.43 399.183H1006.37C1005.94 399.183 1005.6 398.841 1005.6 398.417C1005.6 397.993 1005.94 397.65 1006.37 397.65ZM1011.51 414.741C1011.81 415.041 1011.81 415.526 1011.51 415.825C1011.36 415.975 1011.16 416.05 1010.97 416.05C1010.77 416.05 1010.57 415.975 1010.42 415.825L1008.67 414.067L1006.91 415.825C1006.76 415.975 1006.56 416.05 1006.37 416.05C1006.17 416.05 1005.97 415.975 1005.82 415.825C1005.52 415.526 1005.52 415.041 1005.82 414.741L1007.58 412.983L1005.82 411.225C1005.52 410.926 1005.52 410.441 1005.82 410.141C1006.12 409.842 1006.61 409.842 1006.91 410.141L1008.67 411.899L1010.42 410.141C1010.72 409.842 1011.21 409.842 1011.51 410.141C1011.81 410.441 1011.81 410.926 1011.51 411.225L1009.75 412.983L1011.51 414.741ZM1011.73 398.417C1011.73 397.993 1012.08 397.65 1012.5 397.65H1014.03C1014.46 397.65 1014.8 397.993 1014.8 398.417C1014.8 398.841 1014.46 399.183 1014.03 399.183H1012.5C1012.08 399.183 1011.73 398.841 1011.73 398.417ZM1014.03 405.317C1014.03 400.667 1017.82 396.883 1022.47 396.883C1022.89 396.883 1023.23 397.226 1023.23 397.65V405.141L1026.5 411.882C1026.69 412.263 1026.53 412.721 1026.15 412.906C1025 413.466 1023.76 413.75 1022.47 413.75C1017.82 413.75 1014.03 409.966 1014.03 405.317Z" fill="#C2D7FF"/>
</g>
<g filter="url(#filter6_d_9012_818)">
<rect x="540.5" y="213.5" width="151" height="53" rx="26.5" fill="url(#paint15_linear_9012_818)"/>
<rect x="540.5" y="213.5" width="151" height="53" rx="26.5" stroke="url(#paint16_linear_9012_818)" stroke-width="5"/>
</g>
<defs>
<filter id="filter0_d_9012_818" x="0" y="0" width="416" height="144" filterUnits="userSpaceOnUse" color-interpolation-filters="sRGB">
<feFlood flood-opacity="0" result="BackgroundImageFix"/>
<feColorMatrix in="SourceAlpha" type="matrix" values="0 0 0 0 0 0 0 0 0 0 0 0 0 0 0 0 0 0 127 0" result="hardAlpha"/>
<feOffset dy="8"/>
<feGaussianBlur stdDeviation="8"/>
<feComposite in2="hardAlpha" operator="out"/>
<feColorMatrix type="matrix" values="0 0 0 0 0 0 0 0 0 0 0 0 0 0 0 0 0 0 0.05 0"/>
<feBlend mode="normal" in2="BackgroundImageFix" result="effect1_dropShadow_9012_818"/>
<feBlend mode="normal" in="SourceGraphic" in2="effect1_dropShadow_9012_818" result="shape"/>
</filter>
<filter id="filter1_d_9012_818" x="408" y="0" width="416" height="144" filterUnits="userSpaceOnUse" color-interpolation-filters="sRGB">
<feFlood flood-opacity="0" result="BackgroundImageFix"/>
<feColorMatrix in="SourceAlpha" type="matrix" values="0 0 0 0 0 0 0 0 0 0 0 0 0 0 0 0 0 0 127 0" result="hardAlpha"/>
<feOffset dy="8"/>
<feGaussianBlur stdDeviation="8"/>
<feComposite in2="hardAlpha" operator="out"/>
<feColorMatrix type="matrix" values="0 0 0 0 0 0 0 0 0 0 0 0 0 0 0 0 0 0 0.05 0"/>
<feBlend mode="normal" in2="BackgroundImageFix" result="effect1_dropShadow_9012_818"/>
<feBlend mode="normal" in="SourceGraphic" in2="effect1_dropShadow_9012_818" result="shape"/>
</filter>
<filter id="filter2_d_9012_818" x="816" y="0" width="416" height="154" filterUnits="userSpaceOnUse" color-interpolation-filters="sRGB">
<feFlood flood-opacity="0" result="BackgroundImageFix"/>
<feColorMatrix in="SourceAlpha" type="matrix" values="0 0 0 0 0 0 0 0 0 0 0 0 0 0 0 0 0 0 127 0" result="hardAlpha"/>
<feOffset dy="8"/>
<feGaussianBlur stdDeviation="8"/>
<feComposite in2="hardAlpha" operator="out"/>
<feColorMatrix type="matrix" values="0 0 0 0 0 0 0 0 0 0 0 0 0 0 0 0 0 0 0.05 0"/>
<feBlend mode="normal" in2="BackgroundImageFix" result="effect1_dropShadow_9012_818"/>
<feBlend mode="normal" in="SourceGraphic" in2="effect1_dropShadow_9012_818" result="shape"/>
</filter>
<filter id="filter3_d_9012_818" x="0" y="357" width="416" height="198" filterUnits="userSpaceOnUse" color-interpolation-filters="sRGB">
<feFlood flood-opacity="0" result="BackgroundImageFix"/>
<feColorMatrix in="SourceAlpha" type="matrix" values="0 0 0 0 0 0 0 0 0 0 0 0 0 0 0 0 0 0 127 0" result="hardAlpha"/>
<feOffset dy="8"/>
<feGaussianBlur stdDeviation="8"/>
<feComposite in2="hardAlpha" operator="out"/>
<feColorMatrix type="matrix" values="0 0 0 0 0 0 0 0 0 0 0 0 0 0 0 0 0 0 0.05 0"/>
<feBlend mode="normal" in2="BackgroundImageFix" result="effect1_dropShadow_9012_818"/>
<feBlend mode="normal" in="SourceGraphic" in2="effect1_dropShadow_9012_818" result="shape"/>
</filter>
<filter id="filter4_d_9012_818" x="408" y="357" width="416" height="198" filterUnits="userSpaceOnUse" color-interpolation-filters="sRGB">
<feFlood flood-opacity="0" result="BackgroundImageFix"/>
<feColorMatrix in="SourceAlpha" type="matrix" values="0 0 0 0 0 0 0 0 0 0 0 0 0 0 0 0 0 0 127 0" result="hardAlpha"/>
<feOffset dy="8"/>
<feGaussianBlur stdDeviation="8"/>
<feComposite in2="hardAlpha" operator="out"/>
<feColorMatrix type="matrix" values="0 0 0 0 0 0 0 0 0 0 0 0 0 0 0 0 0 0 0.05 0"/>
<feBlend mode="normal" in2="BackgroundImageFix" result="effect1_dropShadow_9012_818"/>
<feBlend mode="normal" in="SourceGraphic" in2="effect1_dropShadow_9012_818" result="shape"/>
</filter>
<filter id="filter5_d_9012_818" x="816" y="357" width="416" height="198" filterUnits="userSpaceOnUse" color-interpolation-filters="sRGB">
<feFlood flood-opacity="0" result="BackgroundImageFix"/>
<feColorMatrix in="SourceAlpha" type="matrix" values="0 0 0 0 0 0 0 0 0 0 0 0 0 0 0 0 0 0 127 0" result="hardAlpha"/>
<feOffset dy="8"/>
<feGaussianBlur stdDeviation="8"/>
<feComposite in2="hardAlpha" operator="out"/>
<feColorMatrix type="matrix" values="0 0 0 0 0 0 0 0 0 0 0 0 0 0 0 0 0 0 0.05 0"/>
<feBlend mode="normal" in2="BackgroundImageFix" result="effect1_dropShadow_9012_818"/>
<feBlend mode="normal" in="SourceGraphic" in2="effect1_dropShadow_9012_818" result="shape"/>
</filter>
<filter id="filter6_d_9012_818" x="522" y="203" width="188" height="90" filterUnits="userSpaceOnUse" color-interpolation-filters="sRGB">
<feFlood flood-opacity="0" result="BackgroundImageFix"/>
<feColorMatrix in="SourceAlpha" type="matrix" values="0 0 0 0 0 0 0 0 0 0 0 0 0 0 0 0 0 0 127 0" result="hardAlpha"/>
<feOffset dy="8"/>
<feGaussianBlur stdDeviation="8"/>
<feComposite in2="hardAlpha" operator="out"/>
<feColorMatrix type="matrix" values="0 0 0 0 0 0 0 0 0 0 0 0 0 0 0 0 0 0 0.05 0"/>
<feBlend mode="normal" in2="BackgroundImageFix" result="effect1_dropShadow_9012_818"/>
<feBlend mode="normal" in="SourceGraphic" in2="effect1_dropShadow_9012_818" result="shape"/>
</filter>
<linearGradient id="paint0_linear_9012_818" x1="616.247" y1="141.776" x2="616.779" y2="141.776" gradientUnits="userSpaceOnUse">
<stop stop-color="#B1D1F6"/>
<stop offset="1" stop-color="#C5C8FD"/>
</linearGradient>
<linearGradient id="paint1_linear_9012_818" x1="304.975" y1="141.776" x2="524.172" y2="152.282" gradientUnits="userSpaceOnUse">
<stop stop-color="#B1D1F6"/>
<stop offset="1" stop-color="#C5C8FD"/>
</linearGradient>
<linearGradient id="paint2_linear_9012_818" x1="927.025" y1="141.776" x2="707.828" y2="152.282" gradientUnits="userSpaceOnUse">
<stop stop-color="#B1D1F6"/>
<stop offset="1" stop-color="#C5C8FD"/>
</linearGradient>
<linearGradient id="paint3_linear_9012_818" x1="615.45" y1="361" x2="615.45" y2="265" gradientUnits="userSpaceOnUse">
<stop offset="0.130208" stop-color="#5E79FF"/>
<stop offset="1" stop-color="#1D39C4"/>
</linearGradient>
<linearGradient id="paint4_linear_9012_818" x1="822.44" y1="361" x2="822.44" y2="265" gradientUnits="userSpaceOnUse">
<stop offset="0.130208" stop-color="#5E79FF"/>
<stop offset="1" stop-color="#1D39C4"/>
</linearGradient>
<linearGradient id="paint5_linear_9012_818" x1="409.44" y1="361" x2="409.44" y2="265" gradientUnits="userSpaceOnUse">
<stop offset="0.130208" stop-color="#5E79FF"/>
<stop offset="1" stop-color="#1D39C4"/>
</linearGradient>
<linearGradient id="paint6_linear_9012_818" x1="1028.97" y1="362" x2="1028.97" y2="349.15" gradientUnits="userSpaceOnUse">
<stop offset="0.130208" stop-color="#5E79FF"/>
<stop offset="1" stop-color="#1D39C4"/>
</linearGradient>
<linearGradient id="paint7_linear_9012_818" x1="202.965" y1="362" x2="202.965" y2="349.15" gradientUnits="userSpaceOnUse">
<stop offset="0.130208" stop-color="#5E79FF"/>
<stop offset="1" stop-color="#1D39C4"/>
</linearGradient>
<linearGradient id="paint8_linear_9012_818" x1="615.945" y1="362" x2="615.945" y2="349.15" gradientUnits="userSpaceOnUse">
<stop offset="0.130208" stop-color="#5E79FF"/>
<stop offset="1" stop-color="#1D39C4"/>
</linearGradient>
<linearGradient id="paint9_linear_9012_818" x1="110.815" y1="33.4049" x2="314.79" y2="41.1965" gradientUnits="userSpaceOnUse">
<stop stop-color="#B1D1F6"/>
<stop offset="1" stop-color="#C5C8FD"/>
</linearGradient>
<linearGradient id="paint10_linear_9012_818" x1="518.815" y1="33.4049" x2="722.79" y2="41.1965" gradientUnits="userSpaceOnUse">
<stop stop-color="#B1D1F6"/>
<stop offset="1" stop-color="#C5C8FD"/>
</linearGradient>
<linearGradient id="paint11_linear_9012_818" x1="926.815" y1="33.4049" x2="1130.79" y2="41.1965" gradientUnits="userSpaceOnUse">
<stop stop-color="#B1D1F6"/>
<stop offset="1" stop-color="#C5C8FD"/>
</linearGradient>
<linearGradient id="paint12_linear_9012_818" x1="16" y1="365" x2="417.133" y2="443.938" gradientUnits="userSpaceOnUse">
<stop stop-color="#85A5FF"/>
<stop offset="1" stop-color="#4E7BFA"/>
</linearGradient>
<linearGradient id="paint13_linear_9012_818" x1="424" y1="365" x2="825.133" y2="443.938" gradientUnits="userSpaceOnUse">
<stop stop-color="#85A5FF"/>
<stop offset="1" stop-color="#4E7BFA"/>
</linearGradient>
<linearGradient id="paint14_linear_9012_818" x1="832" y1="365" x2="1233.13" y2="443.938" gradientUnits="userSpaceOnUse">
<stop stop-color="#85A5FF"/>
<stop offset="1" stop-color="#4E7BFA"/>
</linearGradient>
<linearGradient id="paint15_linear_9012_818" x1="552.503" y1="216" x2="686.076" y2="249.895" gradientUnits="userSpaceOnUse">
<stop stop-color="#7B91FF"/>
<stop offset="1" stop-color="#4160FC"/>
</linearGradient>
<linearGradient id="paint16_linear_9012_818" x1="579.049" y1="226.888" x2="656.627" y2="229.517" gradientUnits="userSpaceOnUse">
<stop stop-color="#B1D1F6"/>
<stop offset="1" stop-color="#C5C8FD"/>
</linearGradient>
<clipPath id="clip0_9012_818">
<rect width="46" height="46" fill="white" transform="translate(185 385)"/>
</clipPath>
<clipPath id="clip1_9012_818">
<rect width="46" height="46" fill="white" transform="translate(593 385)"/>
</clipPath>
</defs>
</svg>
