<svg width="40" height="41" viewBox="0 0 40 41" fill="none" xmlns="http://www.w3.org/2000/svg">
<path fill-rule="evenodd" clip-rule="evenodd" d="M13.345 18.0301C11.7366 18.022 10.425 19.3167 10.4119 20.9248C10.4083 21.7024 10.7141 22.4495 11.2618 23.0014C11.8096 23.5533 12.5544 23.8647 13.332 23.8669C14.9401 23.8661 16.2446 22.5642 16.2487 20.9558L17.4987 20.959L16.2487 20.9558C16.2527 19.347 14.9539 18.0383 13.345 18.0301M9.16192 20.9168L7.91196 20.9073C7.93473 17.9203 10.3706 15.5151 13.3576 15.5301L13.3577 15.5301C16.3447 15.5453 18.7562 17.975 18.7487 20.9621V20.9621C18.7411 23.9492 16.3176 26.3669 13.3304 26.3669L13.3274 26.3669C11.8851 26.3635 10.5034 25.7862 9.48736 24.7624C8.47133 23.7387 7.90452 22.3527 7.91194 20.9104L9.16192 20.9168Z" fill="#333333"/>
<path fill-rule="evenodd" clip-rule="evenodd" d="M23.3374 15.4984C22.6644 15.4968 22.0562 15.9002 21.796 16.5212C21.5352 17.1438 21.6756 17.8622 22.1516 18.3407C22.6276 18.8193 23.3452 18.9636 23.9692 18.7061C24.5917 18.4492 24.9983 17.8431 25.0002 17.17C25.0002 17.1716 25.0002 17.1732 25.0002 17.1749L24.5124 17.1711C24.5131 17.1692 24.5137 17.1672 24.5144 17.1653M23.3374 15.4984C23.7798 15.4986 24.204 15.6751 24.5161 15.9889C24.8282 16.3026 25.0023 16.7277 25.0002 17.17" fill="#333333"/>
<path fill-rule="evenodd" clip-rule="evenodd" d="M28.5246 15.4984C27.8516 15.4968 27.2434 15.9002 26.9833 16.5212C26.7225 17.1438 26.8628 17.8622 27.3389 18.3407C27.8149 18.8193 28.5325 18.9636 29.1564 18.7061C29.7789 18.4492 30.1856 17.8431 30.1875 17.17C30.1875 17.1716 30.1875 17.1732 30.1875 17.1749L29.6996 17.1711C29.7003 17.1692 29.701 17.1672 29.7017 17.1653M28.5246 15.4984C28.9671 15.4986 29.3913 15.6751 29.7034 15.9889C30.0154 16.3026 30.1896 16.7277 30.1875 17.17" fill="#333333"/>
<path fill-rule="evenodd" clip-rule="evenodd" d="M9.1584 28.0036L9.16206 28.0036L17.5025 28.0036C20.4894 28.0124 22.9085 30.4315 22.9173 33.4184L22.9173 33.422L22.9173 34.4641L22.9173 34.4678C22.9136 35.7301 21.8912 36.7525 20.6288 36.7562L20.6252 36.7562H6.03575L6.03209 36.7562C4.76976 36.7525 3.74736 35.7301 3.74366 34.4678L4.99365 34.4641H3.74365V33.4184C3.7524 30.4315 6.17155 28.0124 9.1584 28.0036ZM6.24365 34.2562H20.4173V33.4242C20.4117 31.8136 19.1075 30.5093 17.4969 30.5036H9.16404C7.55351 30.5093 6.24927 31.8135 6.24365 33.424V34.2562Z" fill="#333333"/>
<path fill-rule="evenodd" clip-rule="evenodd" d="M26.5258 7.26158C22.1788 5.8679 17.431 7.46959 14.8165 11.2117C14.4212 11.7776 13.6419 11.9159 13.076 11.5205C12.51 11.1251 12.3718 10.3459 12.7672 9.77994C16.0096 5.13891 21.8979 3.15249 27.289 4.88094C32.6802 6.60939 36.3158 11.6492 36.2553 17.3104C36.1948 22.9716 32.4522 27.9325 27.0253 29.5453C26.3636 29.742 25.6677 29.3649 25.471 28.7032C25.2744 28.0414 25.6514 27.3456 26.3131 27.1489C30.689 25.8485 33.7066 21.8484 33.7554 17.2837C33.8043 12.719 30.8728 8.65526 26.5258 7.26158Z" fill="#333333"/>
</svg>
