<svg width="440" height="237" viewBox="0 0 440 237" fill="none" xmlns="http://www.w3.org/2000/svg">
<g opacity="0.2">
<path d="M236.82 -97.6138C248.517 -103.649 267.483 -103.649 279.18 -97.6138L493.931 13.1857C505.629 19.2209 505.629 29.0059 493.931 35.041L279.18 145.841C267.483 151.876 248.517 151.876 236.82 145.841L22.0686 35.041C10.3713 29.0059 10.3713 19.2209 22.0687 13.1857L236.82 -97.6138Z" fill="#F7F7F7" stroke="white"/>
<path opacity="0.4" d="M236.82 -54.1658C248.517 -60.201 267.483 -60.201 279.18 -54.1658L493.931 56.6337C505.629 62.6689 505.629 72.4539 493.931 78.489L279.18 189.289C267.483 195.324 248.517 195.324 236.82 189.289L22.0686 78.489C10.3713 72.4539 10.3713 62.6689 22.0687 56.6337L236.82 -54.1658Z" fill="white" stroke="white"/>
<path opacity="0.4" d="M236.82 -17.8406C248.517 -23.8758 267.483 -23.8758 279.18 -17.8406L493.931 92.9589C505.629 98.9941 505.629 108.779 493.931 114.814L279.18 225.614C267.483 231.649 248.517 231.649 236.82 225.614L22.0686 114.814C10.3713 108.779 10.3713 98.9941 22.0687 92.9589L236.82 -17.8406Z" fill="white" stroke="white"/>
</g>
</svg>
