<svg width="145" height="145" viewBox="0 0 145 145" fill="none" xmlns="http://www.w3.org/2000/svg">
<g id="automatic-setting 1">
<path id="Vector" d="M109.798 77.8653C110.062 76.089 110.196 74.2958 110.2 72.5C110.198 70.695 110.058 68.8928 109.781 67.1092L114.989 61.9124C115.894 61.0097 116.476 59.8337 116.644 58.5666C116.813 57.2995 116.559 56.0123 115.921 54.9045L109.449 43.7009C108.81 42.5938 107.823 41.7284 106.642 41.2389C105.461 40.7495 104.151 40.6632 102.916 40.9935L95.7907 42.8869C92.9655 40.6599 89.8279 38.8607 86.4788 37.5471L84.5759 30.4018C84.2446 29.1683 83.5159 28.0784 82.5027 27.3007C81.4895 26.5231 80.2483 26.1011 78.971 26.1H66.0275C64.7498 26.1018 63.5083 26.5246 62.4951 27.303C61.4819 28.0815 60.7535 29.1721 60.4226 30.4062L58.4956 37.53C55.1542 38.8607 52.0259 40.6741 49.2107 42.9124L42.0825 40.9935C40.8483 40.6632 39.5397 40.749 38.3592 41.2374C37.1786 41.7258 36.192 42.5897 35.552 43.6954L29.0806 54.9045C28.4429 56.0118 28.1882 57.2984 28.3559 58.5651C28.5236 59.8318 29.1044 61.0078 30.0083 61.9109L35.2022 67.1347C34.9382 68.911 34.8038 70.7042 34.8 72.5C34.8021 74.305 34.9422 76.1072 35.219 77.8908L30.0083 83.089C29.1044 83.9922 28.5236 85.1682 28.3559 86.4349C28.1882 87.7015 28.4429 88.9882 29.0806 90.0954L35.552 101.305C36.192 102.41 37.1786 103.274 38.3591 103.763C39.5397 104.251 40.8483 104.337 42.0825 104.006L49.2081 102.113C52.0334 104.34 55.1708 106.139 58.5197 107.453L60.4241 114.598C60.7555 115.831 61.4839 116.921 62.4968 117.699C63.5097 118.476 64.7505 118.898 66.0275 118.9H78.971C80.2489 118.899 81.4907 118.476 82.504 117.698C83.5173 116.919 84.2455 115.828 84.5759 114.594L86.5015 107.47C89.8436 106.14 92.9725 104.326 95.7878 102.088L102.916 104.006C104.15 104.339 105.459 104.254 106.64 103.765C107.821 103.277 108.808 102.412 109.447 101.305L115.921 90.0954C116.558 88.9881 116.813 87.7013 116.645 86.4346C116.477 85.1679 115.896 83.9919 114.992 83.089L109.798 77.8653ZM104.423 98.4045L97.3002 96.4888C96.4266 96.2564 95.5107 96.2319 94.6259 96.4172C93.7411 96.6026 92.912 96.9927 92.2052 97.5563C89.8153 99.4336 87.1689 100.959 84.3465 102.086C83.508 102.42 82.7583 102.943 82.1563 103.615C81.5543 104.288 81.1165 105.09 80.8772 105.96L78.971 113.1L66.0275 113.101L64.1227 105.956C63.8831 105.086 63.4447 104.284 62.8423 103.613C62.2398 102.941 61.4896 102.418 60.6509 102.086C57.8293 100.958 55.1837 99.4326 52.7948 97.5548C51.7718 96.7392 50.5036 96.2926 49.1953 96.2875C48.6917 96.2877 48.1903 96.3544 47.7041 96.4859L40.5759 98.4045L34.1034 87.1954L39.317 81.9943C39.9551 81.3477 40.4339 80.5615 40.7156 79.6979C40.9973 78.8342 41.0741 77.9169 40.9399 77.0185C40.4867 74.0222 40.4867 70.9748 40.9399 67.9786C41.0738 67.0799 40.9966 66.1624 40.7144 65.2987C40.4322 64.4351 39.9528 63.649 39.3141 63.0028L34.1049 57.8045L40.5759 46.5954L47.6998 48.5126C48.5734 48.7486 49.4904 48.7748 50.3761 48.589C51.2618 48.4033 52.091 48.0108 52.7962 47.4437C55.1843 45.5669 57.8289 44.0419 60.6494 42.915C61.4891 42.5821 62.24 42.0588 62.843 41.3863C63.4459 40.7137 63.8845 39.9104 64.1242 39.0395L66.0275 31.9L78.9739 31.8985L80.8772 39.0438C81.1174 39.9134 81.5559 40.7154 82.1583 41.3869C82.7607 42.0584 83.5106 42.5811 84.3491 42.9139C87.1694 44.041 89.814 45.5659 92.2023 47.4422C92.9096 48.0038 93.738 48.3931 94.6218 48.5791C95.5057 48.7652 96.4207 48.7429 97.2944 48.5141L104.423 46.5954L110.897 57.8045L105.683 63.0057C105.041 63.6493 104.559 64.4352 104.277 65.2997C103.995 66.1642 103.921 67.0829 104.06 67.9815C104.513 70.9791 104.513 74.0278 104.06 77.0254C103.921 77.9236 103.996 78.8418 104.279 79.7056C104.561 80.5694 105.043 81.3545 105.686 81.9972L110.897 87.1954L104.423 98.4045Z" fill="black"/>
<path id="Vector_2" d="M72.5002 52.2C68.4852 52.2 64.5604 53.3905 61.2221 55.6211C57.8838 57.8517 55.2819 61.0221 53.7454 64.7315C52.209 68.4408 51.807 72.5225 52.5903 76.4603C53.3735 80.3981 55.3069 84.0152 58.1459 86.8542C60.9849 89.6932 64.6021 91.6266 68.5399 92.4099C72.4777 93.1932 76.5593 92.7912 80.2687 91.2547C83.978 89.7182 87.1484 87.1163 89.379 83.778C91.6096 80.4397 92.8002 76.5149 92.8002 72.5C92.7942 67.1179 90.6535 61.958 86.8478 58.1523C83.0422 54.3466 77.8823 52.206 72.5002 52.2ZM72.5002 87C69.6324 87 66.8289 86.1495 64.4444 84.5563C62.0599 82.963 60.2014 80.6984 59.104 78.0489C58.0065 75.3993 57.7193 72.4839 58.2788 69.6711C58.8383 66.8584 60.2193 64.2748 62.2472 62.2469C64.275 60.219 66.8587 58.838 69.6714 58.2786C72.4841 57.7191 75.3996 58.0062 78.0491 59.1037C80.6986 60.2012 82.9632 62.0597 84.5565 64.4442C86.1498 66.8287 87.0002 69.6321 87.0002 72.5C86.9957 76.3442 85.4665 80.0297 82.7482 82.748C80.0299 85.4663 76.3444 86.9954 72.5002 87Z" fill="black"/>
<path id="Vector_3" d="M136.942 75.7426C137.715 75.7426 138.456 75.4356 139.003 74.8891C139.549 74.3425 139.856 73.6013 139.856 72.8284C139.856 72.0554 139.549 71.3142 139.003 70.7676C138.456 70.2211 137.715 69.9141 136.942 69.9141H131.114V28.7004C133.102 28.1905 134.92 27.1637 136.383 25.7241C137.846 24.2845 138.902 22.4834 139.444 20.5037C139.986 18.5239 139.994 16.4361 139.468 14.4521C138.942 12.468 137.901 10.6585 136.449 9.20713C134.998 7.75576 133.188 6.71426 131.204 6.18836C129.22 5.66246 127.133 5.67088 125.153 6.21277C123.173 6.75466 121.372 7.81073 119.932 9.27376C118.493 10.7368 117.466 12.5547 116.956 14.5429H75.7424V8.71432C75.7424 7.94141 75.4353 7.20015 74.8888 6.65362C74.3423 6.10709 73.601 5.80005 72.8281 5.80005C72.0552 5.80005 71.3139 6.10709 70.7674 6.65362C70.2209 7.20015 69.9138 7.94141 69.9138 8.71432V14.5429H28.7002C28.1903 12.5547 27.1634 10.7368 25.7238 9.27379C24.2842 7.81078 22.4831 6.75472 20.5034 6.21283C18.5237 5.67095 16.4359 5.66253 14.4519 6.18843C12.4678 6.71434 10.6583 7.75583 9.20695 9.20719C7.75559 10.6585 6.71409 12.4681 6.18819 14.4521C5.66229 16.4361 5.6707 18.524 6.21259 20.5037C6.75447 22.4834 7.81053 24.2844 9.27355 25.7241C10.7366 27.1637 12.5544 28.1905 14.5426 28.7004V69.9141H8.71408C7.94117 69.9141 7.19991 70.2211 6.65338 70.7676C6.10684 71.3142 5.79981 72.0554 5.79981 72.8284C5.79981 73.6013 6.10684 74.3425 6.65338 74.8891C7.19991 75.4356 7.94117 75.7426 8.71408 75.7426H14.5426V116.956C12.5544 117.466 10.7365 118.493 9.27351 119.933C7.81049 121.372 6.75442 123.173 6.21253 125.153C5.67064 127.133 5.66221 129.221 6.18812 131.205C6.71402 133.189 7.75552 134.998 9.20689 136.45C10.6582 137.901 12.4678 138.942 14.4518 139.468C16.4358 139.994 18.5237 139.986 20.5034 139.444C22.4831 138.902 24.2842 137.846 25.7238 136.383C27.1634 134.92 28.1903 133.102 28.7002 131.114H69.9138V136.942C69.9138 137.715 70.2209 138.457 70.7674 139.003C71.3139 139.55 72.0552 139.857 72.8281 139.857C73.601 139.857 74.3423 139.55 74.8888 139.003C75.4353 138.457 75.7424 137.715 75.7424 136.942V131.114H116.956C117.466 133.102 118.493 134.92 119.932 136.383C121.372 137.846 123.173 138.902 125.153 139.444C127.133 139.986 129.22 139.994 131.204 139.468C133.188 138.942 134.998 137.901 136.449 136.45C137.901 134.998 138.942 133.189 139.468 131.205C139.994 129.221 139.986 127.133 139.444 125.153C138.902 123.173 137.846 121.372 136.383 119.933C134.92 118.493 133.102 117.466 131.114 116.956V75.7426H136.942ZM116.956 125.285H28.7002C28.178 123.282 27.1309 121.454 25.6668 119.99C24.2028 118.526 22.3747 117.479 20.3712 116.956V28.7004C22.3747 28.1782 24.2028 27.1311 25.6668 25.6671C27.1309 24.203 28.178 22.375 28.7002 20.3714H116.956C117.478 22.3751 118.525 24.2033 119.989 25.6673C121.453 27.1314 123.281 28.1785 125.285 28.7004V116.956C123.281 117.478 121.453 118.525 119.989 119.989C118.525 121.453 117.478 123.282 116.956 125.285ZM128.199 11.6286C129.352 11.6286 130.479 11.9704 131.437 12.6109C132.396 13.2513 133.143 14.1616 133.584 15.2267C134.025 16.2917 134.141 17.4636 133.916 18.5942C133.691 19.7249 133.136 20.7634 132.321 21.5786C131.506 22.3937 130.467 22.9488 129.336 23.1737C128.206 23.3986 127.034 23.2832 125.969 22.842C124.904 22.4009 123.994 21.6538 123.353 20.6953C122.713 19.7368 122.371 18.6099 122.371 17.4571C122.373 15.9119 122.987 14.4304 124.08 13.3377C125.173 12.2451 126.654 11.6304 128.199 11.6286ZM11.6284 17.4571C11.6284 16.3044 11.9702 15.1775 12.6106 14.219C13.2511 13.2605 14.1614 12.5134 15.2264 12.0723C16.2914 11.6311 17.4634 11.5157 18.594 11.7406C19.7246 11.9655 20.7632 12.5206 21.5783 13.3357C22.3934 14.1509 22.9486 15.1894 23.1735 16.3201C23.3984 17.4507 23.2829 18.6226 22.8418 19.6876C22.4006 20.7527 21.6536 21.663 20.6951 22.3034C19.7366 22.9439 18.6097 23.2857 17.4569 23.2857C15.9115 23.2842 14.4299 22.6696 13.3372 21.5768C12.2445 20.4841 11.6299 19.0025 11.6284 17.4571ZM17.4569 134.028C16.3041 134.028 15.1772 133.686 14.2187 133.046C13.2602 132.405 12.5132 131.495 12.072 130.43C11.6309 129.365 11.5155 128.193 11.7403 127.062C11.9652 125.932 12.5204 124.893 13.3355 124.078C14.1506 123.263 15.1892 122.708 16.3198 122.483C17.4504 122.258 18.6224 122.374 19.6874 122.815C20.7524 123.256 21.6627 124.003 22.3032 124.961C22.9436 125.92 23.2855 127.047 23.2855 128.2C23.2839 129.745 22.6693 131.227 21.5766 132.319C20.4839 133.412 19.0023 134.027 17.4569 134.028ZM134.028 128.2C134.028 129.352 133.686 130.479 133.046 131.438C132.405 132.396 131.495 133.143 130.43 133.584C129.365 134.026 128.193 134.141 127.062 133.916C125.932 133.691 124.893 133.136 124.078 132.321C123.263 131.506 122.708 130.467 122.483 129.337C122.258 128.206 122.373 127.034 122.814 125.969C123.256 124.904 124.003 123.994 124.961 123.353C125.92 122.713 127.047 122.371 128.199 122.371C129.745 122.373 131.226 122.987 132.319 124.08C133.411 125.173 134.026 126.654 134.028 128.2Z" fill="black"/>
</g>
</svg>
