<svg width="40" height="41" viewBox="0 0 40 41" fill="none" xmlns="http://www.w3.org/2000/svg">
<path fill-rule="evenodd" clip-rule="evenodd" d="M20.805 30.5H29.96C32.7214 30.5 34.96 28.2614 34.96 25.5V10.5C34.96 7.73858 32.7214 5.5 29.96 5.5H9.96C7.19858 5.5 4.96 7.73858 4.96 10.5V25.5C4.96 28.2614 7.19858 30.5 9.96 30.5H13.305V34.5715C13.305 34.9278 13.5092 35.2525 13.8303 35.4069C14.1515 35.5612 14.5326 35.5178 14.8108 35.2952L20.805 30.5Z" stroke="#333333" stroke-width="2.5" stroke-linecap="round" stroke-linejoin="round"/>
<path d="M12.5 11.3333H13.9815L16.0219 19.495C16.0961 19.7918 16.3627 20 16.6687 20H24.1644C24.3193 20 24.4543 19.8946 24.4918 19.7443L25.8231 14.4193C25.8483 14.3185 25.8256 14.2117 25.7617 14.1298C25.6977 14.0479 25.5996 14 25.4957 14H14.6779" stroke="#333333" stroke-width="2.5" stroke-linecap="round" stroke-linejoin="round"/>
<path d="M16.7778 24.5C16.7778 24.4079 16.8524 24.3333 16.9444 24.3333C17.0365 24.3333 17.1111 24.4079 17.1111 24.5" stroke="#333333" stroke-width="2.5" stroke-linecap="round" stroke-linejoin="round"/>
<path d="M17.1111 24.5C17.1111 24.592 17.0365 24.6667 16.9444 24.6667C16.8524 24.6667 16.7778 24.592 16.7778 24.5" stroke="#333333" stroke-width="2.5" stroke-linecap="round" stroke-linejoin="round"/>
<path d="M23.4445 24.5C23.4445 24.4079 23.5191 24.3333 23.6111 24.3333C23.7032 24.3333 23.7778 24.4079 23.7778 24.5" stroke="#333333" stroke-width="2.5" stroke-linecap="round" stroke-linejoin="round"/>
<path d="M23.7778 24.5C23.7778 24.592 23.7032 24.6667 23.6111 24.6667C23.5191 24.6667 23.4445 24.592 23.4445 24.5" stroke="#333333" stroke-width="2.5" stroke-linecap="round" stroke-linejoin="round"/>
</svg>
