<svg width="32" height="32" viewBox="0 0 32 32" fill="none" xmlns="http://www.w3.org/2000/svg">
<g id="categories 1">
<path id="Vector" d="M12 2H5C3.34315 2 2 3.34315 2 5V12C2 13.6569 3.34315 15 5 15H12C13.6569 15 15 13.6569 15 12V5C15 3.34315 13.6569 2 12 2Z" fill="#F57C00"/>
<path id="Vector_2" d="M23.6333 15C27.2232 15 30.1333 12.0899 30.1333 8.5C30.1333 4.91015 27.2232 2 23.6333 2C20.0434 2 17.1333 4.91015 17.1333 8.5C17.1333 12.0899 20.0434 15 23.6333 15Z" fill="#F57C00"/>
<path id="Vector_3" d="M27.1333 17.1333H20.1333C18.4764 17.1333 17.1333 18.4764 17.1333 20.1333V27.1333C17.1333 28.7902 18.4764 30.1333 20.1333 30.1333H27.1333C28.7902 30.1333 30.1333 28.7902 30.1333 27.1333V20.1333C30.1333 18.4764 28.7902 17.1333 27.1333 17.1333Z" fill="#F57C00"/>
<path id="Vector_4" d="M12 17.1333H5C3.34315 17.1333 2 18.4764 2 20.1333V27.1333C2 28.7902 3.34315 30.1333 5 30.1333H12C13.6569 30.1333 15 28.7902 15 27.1333V20.1333C15 18.4764 13.6569 17.1333 12 17.1333Z" fill="#F57C00"/>
</g>
</svg>
