<svg width="406" height="322" viewBox="0 0 406 322" fill="none" xmlns="http://www.w3.org/2000/svg">
<path d="M405.603 289.676L9.58545 286.26V296.365C9.58545 299.107 11.3121 301.44 13.6524 301.855L125.634 321.753C126.964 321.989 128.31 322.051 129.652 321.94L401.299 299.253C403.725 299.051 405.603 296.711 405.603 293.894V289.676Z" fill="#7B8CB1"/>
<path d="M259.868 273.482L8.16549 291.967C3.66106 292.298 0 288.782 0 284.116V97.1212C0 92.4535 3.66243 88.6696 8.16549 88.6696H259.866C263.577 88.6696 266.577 92.0906 266.577 96.3088V265.349C266.577 269.568 263.577 273.209 259.866 273.482H259.868Z" fill="#99B0D8"/>
<path d="M263.881 274.004L12.1801 291.967C7.6757 292.288 4.01465 288.873 4.01465 284.337V102.622C4.01465 98.086 7.67708 94.4093 12.1801 94.4093H263.881C267.591 94.4093 270.592 97.7328 270.592 101.833V266.101C270.592 270.201 267.591 273.739 263.881 274.004Z" fill="white"/>
<path d="M250.948 261.565L21.4669 277.621C17.8787 277.873 14.9634 274.988 14.9634 271.177V107.463C14.9634 103.653 17.8787 100.55 21.4669 100.535L250.948 99.5264C253.945 99.5127 256.369 102.317 256.369 105.787V254.902C256.369 258.372 253.945 261.355 250.948 261.565Z" fill="#EEF3F7"/>
<path d="M146.92 93.7839C146.92 95.5212 145.624 96.9342 144.025 96.9397C142.424 96.9452 141.124 95.5377 141.124 93.7963C141.124 92.0548 142.424 90.6419 144.025 90.6405C145.625 90.6405 146.92 92.0466 146.92 93.7839Z" fill="white"/>
<path d="M275.741 272.456L9.58545 291.913L125.634 312.533C126.964 312.769 128.31 312.831 129.652 312.72L405.603 289.674L279.974 272.588C278.569 272.397 277.152 272.353 275.741 272.456Z" fill="#5580C1"/>
<path style="mix-blend-mode:multiply" opacity="0.25" d="M48.4209 292.081L270.004 275.641L338.581 284.892L118.908 302.468L48.4209 292.081Z" fill="url(#paint0_linear_1010_5478)"/>
<path d="M91.3735 206.129H43.3271V291.211H91.3735V206.129Z" fill="#0F62FE"/>
<path d="M91.3733 206.129H48.5151V291.211H91.3733V206.129Z" fill="#9AB0D7"/>
<path d="M159.146 188.533H111.1V291.211H159.146V188.533Z" fill="#324175"/>
<path d="M159.148 188.533H115.448V291.211H159.148V188.533Z" fill="#0F62FE"/>
<path d="M222.097 169.249H174.051V291.209H222.097V169.249Z" fill="#0F62FE"/>
<path d="M222.097 169.249H178.697V291.209H222.097V169.249Z" fill="#9AB0D7"/>
<path d="M285.048 184.143H237.001V291.211H285.048V184.143Z" fill="#324175"/>
<path d="M285.048 184.143H242.069V291.211H285.048V184.143Z" fill="#0F62FE"/>
<path d="M349.681 104.392H301.635V291.211H349.681V104.392Z" fill="#0F62FE"/>
<path d="M349.68 104.392H307.754V291.211H349.68V104.392Z" fill="#9AB0D7"/>
<path d="M259.32 147.077C278.964 147.077 294.889 131.19 294.889 111.593C294.889 91.9951 278.964 76.1082 259.32 76.1082C239.676 76.1082 223.751 91.9951 223.751 111.593C223.751 131.19 239.676 147.077 259.32 147.077Z" fill="#5580C1"/>
<path d="M227.825 128.308L260.861 102.3L256.954 96.8654L276.82 100.149L276.907 120.751L271.94 114.53L237.171 141.902C237.171 141.902 227.936 133.117 227.825 128.309V128.308Z" fill="white"/>
<path d="M204.124 96.5425C213.134 96.5425 220.438 89.2553 220.438 80.2661C220.438 71.2768 213.134 63.9896 204.124 63.9896C195.113 63.9896 187.809 71.2768 187.809 80.2661C187.809 89.2553 195.113 96.5425 204.124 96.5425Z" fill="#9AB0D7"/>
<path d="M189.676 87.9328L204.829 76.0038L203.037 73.5105L212.149 75.0169L212.189 84.4664L209.91 81.613L193.962 94.1687C193.962 94.1687 189.726 90.1388 189.675 87.9341L189.676 87.9328Z" fill="white"/>
<path d="M198.948 132.318C204.966 132.318 209.844 127.451 209.844 121.448C209.844 115.444 204.966 110.577 198.948 110.577C192.93 110.577 188.051 115.444 188.051 121.448C188.051 127.451 192.93 132.318 198.948 132.318Z" fill="#00194F"/>
<path d="M189.298 126.568L199.418 118.6L198.221 116.935L204.308 117.941L204.334 124.253L202.813 122.347L192.161 130.732C192.161 130.732 189.332 128.041 189.298 126.568Z" fill="white"/>
<path d="M93.1075 169.118C93.1075 169.118 73.974 176.601 69.5727 178.51C65.1715 180.419 63.3334 185.164 64.789 187.943C67.3714 192.875 79.8226 190.538 91.0025 185.032L99.1336 184.085L93.1061 169.117L93.1075 169.118Z" fill="#031028"/>
<path d="M91.0025 185.032L88.6113 176.887L83.2539 176.028L93.8491 170.96L99.135 184.085L91.0025 185.032Z" fill="#F5AFA7"/>
<path d="M128.265 241.944C128.265 241.944 131.423 243.245 133.574 248.756C133.574 248.756 120.66 276.316 112.552 273.524C104.444 270.733 115.638 243.531 115.638 243.531L128.266 241.944H128.265Z" fill="#F5AFA7"/>
<path d="M133.576 248.756C131.422 243.245 128.266 241.944 128.266 241.944L125.831 242.251L120.804 253.909L120.159 249.115H113.566C110.777 257.23 106.79 271.541 112.553 273.524C120.661 276.316 133.576 248.756 133.576 248.756Z" fill="#031028"/>
<path d="M81.0111 121.724L58.3087 97.5018L53.1508 90.9594C52.7174 90.4096 52.2001 89.9299 51.6167 89.5409L47.719 86.9336C47.082 86.5075 46.2717 87.1438 46.5372 87.8627C46.9156 88.8853 47.6902 90.1429 49.2682 91.2026L50.201 94.0657H43.0977L33.1188 93.6849C32.5149 93.6616 32.087 94.2677 32.3126 94.8271L35.4302 102.574C35.5582 102.891 35.843 103.117 36.1814 103.17L44.318 104.444C44.318 104.444 48.982 106.091 53.8607 105.805C53.8607 105.805 62.5421 130.573 77.9692 143.887L81.0125 121.724H81.0111Z" fill="#F5AFA7"/>
<path d="M77.9595 119.693C78.1329 122.972 72.88 131.129 71.0103 136.663C73.1483 139.269 75.4679 141.729 77.9678 143.887L80.0329 128.845L77.9595 119.693Z" fill="#F3878E"/>
<path d="M42.9456 94.5647L42.4443 94.6609L44.2146 103.871L44.7159 103.774L42.9456 94.5647Z" fill="#F3878E"/>
<path d="M32.966 96.1742L32.9458 96.6837L43.1079 97.0861L43.1281 96.5766L32.966 96.1742Z" fill="#F3878E"/>
<path d="M33.879 98.4402L33.8589 98.9497L43.5371 99.3313L43.5573 98.8218L33.879 98.4402Z" fill="#F3878E"/>
<path d="M34.7965 100.721L34.7764 101.23L43.9721 101.593L43.9922 101.083L34.7965 100.721Z" fill="#F3878E"/>
<path d="M45.889 101.198L45.6152 100.768C45.768 100.67 49.407 98.4117 54.5292 99.9058L54.3861 100.395C49.4937 98.9684 45.9234 101.176 45.889 101.198Z" fill="#F3878E"/>
<path d="M140.28 95.458L155.631 100.795C165.001 104.053 170.975 113.222 170.155 123.088L166.419 168.037L99.5984 171.873C99.5984 171.873 99.1265 162.757 102.135 157.313C103.108 155.554 103.729 153.631 103.778 151.623C103.859 148.31 104.538 142.744 107.45 135.821L81.9714 154.128C81.9714 154.128 74.7607 150.292 74.7607 141.659C74.7607 133.026 78.9033 123.526 77.7807 118.249L81.0097 121.724L105.177 104.512C109.218 101.633 113.78 99.5663 118.609 98.4227L131.134 95.458H140.279H140.28Z" fill="#F57C00"/>
<path d="M138.486 136.831L132.408 134.515L132.589 134.039L138.256 136.199L152.94 109.905L153.386 110.154L138.486 136.831Z" fill="#F3A351"/>
<path d="M74.7622 141.658C74.7622 150.291 81.9729 154.127 81.9729 154.127L84.5085 152.305C72.0849 143.957 82.1297 127.135 81.0112 121.723L77.7821 118.248C78.9034 123.523 74.7622 133.025 74.7622 141.658Z" fill="#F3A351"/>
<path d="M112.231 108.838L107.638 133.619L108.14 133.712L112.733 108.931L112.231 108.838Z" fill="#F3A351"/>
<path d="M139.925 114.632L146.872 97.7478L140.282 95.4565H131.136L125.483 96.7953L121.888 110.809C121.419 112.64 123.022 114.335 124.881 113.972L129.689 113.035L134.364 116.271C136.318 117.624 139.023 116.825 139.925 114.632Z" fill="#F3A351"/>
<path d="M129.073 115.868L121.559 159.783L122.062 159.869L129.576 115.954L129.073 115.868Z" fill="#F3A351"/>
<path d="M131.742 122.303C130.951 122.303 130.307 121.659 130.307 120.871C130.307 120.082 130.951 119.438 131.742 119.438C132.533 119.438 133.177 120.08 133.177 120.871C133.177 121.661 132.533 122.303 131.742 122.303ZM131.742 119.947C131.231 119.947 130.816 120.361 130.816 120.871C130.816 121.38 131.231 121.794 131.742 121.794C132.252 121.794 132.668 121.38 132.668 120.871C132.668 120.361 132.252 119.947 131.742 119.947Z" fill="white"/>
<path d="M130.496 129.462C129.704 129.462 129.061 128.819 129.061 128.03C129.061 127.241 129.704 126.598 130.496 126.598C131.287 126.598 131.931 127.241 131.931 128.03C131.931 128.819 131.287 129.462 130.496 129.462ZM130.496 127.106C129.985 127.106 129.57 127.52 129.57 128.03C129.57 128.54 129.985 128.954 130.496 128.954C131.006 128.954 131.421 128.54 131.421 128.03C131.421 127.52 131.006 127.106 130.496 127.106Z" fill="white"/>
<path d="M131.676 133.938L97.0532 117.546L89.3803 113.531C87.6811 112.642 85.7908 112.177 83.8715 112.177H74.3948C73.8211 112.177 73.6161 112.949 74.1211 113.22C75.6606 114.044 77.075 114.195 81.7761 114.397L82.442 119.878C82.7818 122.674 85.1606 124.777 87.9824 124.777H92.6038L134.619 167.583L131.674 133.939L131.676 133.938Z" fill="#F5AFA7"/>
<path d="M131.676 133.938L129.952 133.121C129.952 133.121 125.685 144.117 126.721 159.533L134.62 167.58L131.676 133.936V133.938Z" fill="#F3878E"/>
<path d="M129.987 132.602L135.679 134.702C135.679 134.702 133.574 148.183 139.552 169.579H133.574C133.574 169.579 128.411 154.267 129.986 132.602H129.987Z" fill="#F3A351"/>
<path d="M161.422 190.453C165.123 190.453 168.348 187.942 169.242 184.358C170.548 179.123 172.396 171.774 173.51 167.582C175.376 160.566 168.175 140.524 145.342 148.182C137.018 150.974 91.6724 167.582 91.6724 167.582L102.783 199.651L127.836 190.453H161.422Z" fill="#324175"/>
<path d="M122.953 192.245L127.836 190.453H152.876L159.459 180.245C162.41 175.668 158.257 169.84 152.956 171.118L124.434 177.995L122.953 192.244V192.245Z" fill="#1E2B44"/>
<path d="M163.727 169.955L129.184 189.084L129.431 189.53L163.975 170.401L163.727 169.955Z" fill="#152139"/>
<path d="M155.433 179.68C153.475 179.68 150.956 179.582 147.803 179.292L147.85 178.785C157.055 179.633 160.89 178.799 160.927 178.79L161.039 179.287C160.936 179.31 159.251 179.68 155.432 179.68H155.433Z" fill="#152139"/>
<path d="M97.2816 165.53L108.493 197.553L102.783 199.651L91.6724 167.582L97.2816 165.53Z" fill="#152139"/>
<path d="M114.824 169.579C128.801 168.78 129.437 187.804 129.689 204.202C129.941 220.6 129.689 245.273 129.689 245.273H96.2646C96.2646 245.273 97.9872 216.221 98.9434 203.774C99.8996 191.327 96.3954 170.63 114.824 169.577V169.579Z" fill="#324175"/>
<path d="M96.665 238.614C96.4215 242.633 96.2646 245.275 96.2646 245.275H129.689C129.689 245.275 129.715 242.674 129.742 238.614H96.6664H96.665Z" fill="#152139"/>
<path d="M128.679 188.66C127.989 182.517 126.719 178.039 124.797 174.969C122.474 171.264 119.218 169.583 114.838 169.833C108.529 170.193 104.327 172.897 101.994 178.098L101.529 177.889C103.947 172.497 108.292 169.696 114.811 169.323C125.688 168.703 128.224 180.029 129.187 188.601L128.681 188.658L128.679 188.66Z" fill="#152139"/>
<path d="M378.377 268.528L380.918 270.357L360.925 291.319L359.539 289.16L378.377 268.528Z" fill="#EE7B59"/>
<path d="M378.38 268.53C378.38 268.53 372.814 275.281 367.48 281.195C364.381 284.626 361.692 287.515 359.873 288.896C361.08 286.402 361.941 283.874 362.832 281.169C365.124 274.205 365.165 270.92 360.757 267.697C357.338 265.198 351.851 261.803 351.851 261.803L357.652 253.934C357.652 253.934 362.9 257.971 366.984 261.169C369.735 263.324 377.135 268.051 378.38 268.53Z" fill="#F39C70"/>
<path d="M366.981 261.168L360.755 267.695C357.336 265.196 351.85 261.801 351.85 261.801L357.65 253.932C357.65 253.932 362.899 257.969 366.982 261.168H366.981Z" fill="#F5AFA7"/>
<path d="M364.124 263.58C363.655 263.433 363.152 263.603 362.832 263.97C362.479 264.374 362.378 264.906 362.395 265.428C362.414 266.01 362.513 266.595 362.622 267.166C362.824 268.23 363.141 269.263 363.563 270.256C363.492 270.224 363.42 270.19 363.346 270.165C363.075 270.073 362.799 270.003 362.52 269.942C361.986 269.827 361.446 269.753 360.901 269.713C360.352 269.673 359.795 269.665 359.246 269.703C358.745 269.737 358.214 269.831 357.8 270.135C357.124 270.629 356.916 271.695 357.672 272.216C358.091 272.504 358.646 272.519 359.137 272.493C359.663 272.464 360.19 272.402 360.707 272.302C361.769 272.096 362.797 271.722 363.765 271.238C363.772 271.245 363.78 271.249 363.787 271.256C363.794 271.274 363.797 271.295 363.807 271.311C363.896 271.455 364.06 271.469 364.2 271.403C364.959 271.05 365.753 270.77 366.562 270.557C366.776 270.5 367.095 270.437 367.089 270.155C367.081 269.814 366.671 269.876 366.455 269.937C366.052 270.048 365.653 270.18 365.261 270.327C365.019 270.418 364.778 270.517 364.541 270.621C364.777 270.251 364.932 269.802 365.067 269.403C365.236 268.899 365.359 268.379 365.427 267.852C365.562 266.802 365.581 265.574 365.158 264.585C364.961 264.124 364.616 263.735 364.127 263.581L364.124 263.58ZM361.311 271.548C360.463 271.787 359.537 272.001 358.653 271.989C358.244 271.983 357.697 271.865 357.64 271.377C357.597 271.005 357.845 270.646 358.148 270.454C358.54 270.205 359.017 270.151 359.47 270.125C359.921 270.1 360.371 270.109 360.821 270.143C361.34 270.183 361.857 270.26 362.366 270.37C362.63 270.426 362.892 270.495 363.154 270.559C363.291 270.592 363.428 270.618 363.566 270.646C362.846 271.023 362.094 271.328 361.311 271.548ZM364.779 264.888C365.072 265.768 365.071 266.818 364.932 267.728C364.856 268.226 364.732 268.718 364.559 269.19C364.419 269.572 364.21 269.923 364.038 270.287C363.725 269.527 363.458 268.745 363.259 267.948C363.131 267.438 363.028 266.921 362.954 266.4C362.885 265.919 362.801 265.406 362.878 264.92C362.949 264.465 363.263 263.917 363.793 263.951C364.302 263.984 364.632 264.446 364.779 264.888Z" fill="#DEDEE3"/>
<path d="M367.385 271.816C367.232 271.846 367.082 271.894 366.932 271.935C366.641 272.015 366.349 272.093 366.057 272.173C365.464 272.334 364.876 272.51 364.285 272.682C364.009 272.761 364.135 273.172 364.413 273.106C365.004 272.967 365.594 272.835 366.181 272.687C366.465 272.616 366.749 272.544 367.033 272.473C367.293 272.407 367.725 272.382 367.839 272.1C367.865 272.034 367.871 271.946 367.808 271.895C367.671 271.784 367.554 271.783 367.385 271.816Z" fill="#DEDEE3"/>
<path d="M368.588 274.042C367.924 274.119 367.263 274.216 366.601 274.308C365.868 274.409 365.114 274.504 364.4 274.705C364.23 274.753 364.281 274.993 364.446 274.999C365.109 275.02 365.777 274.94 366.436 274.879C367.086 274.82 367.74 274.752 368.388 274.668C368.64 274.635 369.117 274.651 369.205 274.343C369.302 274.009 368.777 274.02 368.586 274.042H368.588Z" fill="#DEDEE3"/>
<path d="M367.262 276.962C366.763 276.977 366.265 276.992 365.766 277.007C365.207 277.024 364.65 277.051 364.091 277.083C363.857 277.096 363.87 277.429 364.099 277.443C365.09 277.5 366.081 277.531 367.073 277.564C367.312 277.572 367.646 277.631 367.77 277.36C367.82 277.252 367.774 277.142 367.692 277.063C367.572 276.949 367.415 276.958 367.262 276.963V276.962Z" fill="#DEDEE3"/>
<path d="M367.48 281.195C365.202 284.924 361.757 288.201 359.541 289.159C360.747 286.664 361.941 283.874 362.833 281.169C364.016 280.869 365.25 280.798 366.447 280.978C366.794 281.03 367.141 281.106 367.48 281.195Z" fill="white"/>
<path d="M371.569 269.509C372.27 269.212 372.763 268.488 372.807 267.729C372.919 265.784 370.415 264.607 369.267 266.345C368.235 267.908 369.597 270.344 371.57 269.509H371.569Z" fill="white"/>
<path d="M362.823 290.994L363.086 294.11L334.121 292.613L334.862 290.158L362.823 290.994Z" fill="#EE7B59"/>
<path d="M362.823 290.996C362.823 290.996 354.063 291.176 346.09 290.987C341.462 290.873 337.513 290.717 335.279 290.24C337.963 289.53 340.446 288.537 343.085 287.45C349.878 284.652 352.402 282.546 351.985 277.109C351.662 272.893 350.671 266.527 350.671 266.527L360.434 265.797C360.434 265.797 360.78 272.4 361.004 277.573C361.155 281.06 362.376 289.74 362.821 290.995L362.823 290.996Z" fill="#F39C70"/>
<path d="M361.004 277.572L351.984 277.106C351.661 272.891 350.67 266.524 350.67 266.524L360.433 265.794C360.433 265.794 360.779 272.397 361.003 277.571L361.004 277.572Z" fill="#F5AFA7"/>
<path d="M357.31 276.98C357.116 276.527 356.659 276.259 356.172 276.255C355.634 276.251 355.164 276.521 354.779 276.874C354.348 277.267 353.967 277.723 353.604 278.177C352.925 279.022 352.346 279.935 351.866 280.901C351.844 280.825 351.823 280.75 351.793 280.677C351.687 280.412 351.561 280.157 351.424 279.906C351.164 279.428 350.87 278.968 350.545 278.53C350.218 278.089 349.861 277.661 349.475 277.27C349.123 276.912 348.706 276.571 348.205 276.456C347.389 276.268 346.444 276.802 346.539 277.714C346.591 278.219 346.941 278.65 347.282 279.004C347.645 279.384 348.036 279.742 348.448 280.069C349.297 280.74 350.251 281.273 351.25 281.693C351.25 281.702 351.251 281.712 351.251 281.722C351.241 281.738 351.228 281.753 351.222 281.771C351.171 281.932 351.268 282.065 351.408 282.13C352.17 282.475 352.901 282.893 353.59 283.368C353.772 283.493 354.029 283.694 354.238 283.506C354.492 283.277 354.177 283.007 353.992 282.883C353.644 282.651 353.284 282.434 352.917 282.233C352.69 282.108 352.459 281.991 352.225 281.88C352.66 281.816 353.103 281.643 353.494 281.485C353.988 281.286 354.464 281.04 354.908 280.747C355.794 280.166 356.742 279.381 357.218 278.416C357.439 277.967 357.511 277.452 357.31 276.982V276.98ZM349.416 280.035C348.681 279.549 347.916 278.986 347.349 278.309C347.086 277.995 346.821 277.505 347.155 277.145C347.411 276.87 347.844 276.823 348.188 276.927C348.633 277.062 348.985 277.389 349.299 277.715C349.611 278.039 349.899 278.387 350.165 278.75C350.474 279.169 350.75 279.61 350.998 280.067C351.127 280.303 351.246 280.546 351.367 280.787C351.43 280.912 351.5 281.033 351.569 281.155C350.814 280.856 350.093 280.485 349.414 280.035H349.416ZM356.741 278.327C356.262 279.121 355.462 279.803 354.68 280.291C354.252 280.557 353.798 280.784 353.324 280.96C352.943 281.103 352.54 281.172 352.151 281.279C352.525 280.546 352.947 279.836 353.423 279.166C353.729 278.738 354.054 278.322 354.402 277.928C354.724 277.562 355.059 277.165 355.479 276.907C355.871 276.665 356.493 276.545 356.812 276.969C357.119 277.375 356.981 277.925 356.741 278.325V278.327Z" fill="#DEDEE3"/>
<path d="M353.166 284.81C353.044 284.714 352.909 284.631 352.781 284.545C352.53 284.376 352.28 284.205 352.03 284.036C351.521 283.693 351.003 283.361 350.489 283.026C350.247 282.868 350.018 283.232 350.248 283.4C350.736 283.756 351.223 284.117 351.717 284.466C351.957 284.635 352.196 284.803 352.436 284.972C352.654 285.126 352.956 285.438 353.243 285.341C353.311 285.317 353.381 285.265 353.378 285.184C353.374 285.008 353.3 284.919 353.163 284.811L353.166 284.81Z" fill="#DEDEE3"/>
<path d="M352.254 287.17C351.764 286.718 351.261 286.279 350.76 285.838C350.205 285.349 349.641 284.839 349.025 284.431C348.879 284.333 348.728 284.53 348.831 284.657C349.246 285.173 349.742 285.626 350.216 286.087C350.685 286.54 351.161 286.991 351.647 287.428C351.836 287.597 352.134 287.97 352.426 287.836C352.744 287.692 352.393 287.302 352.253 287.171L352.254 287.17Z" fill="#DEDEE3"/>
<path d="M349.172 288.067C348.835 287.699 348.5 287.332 348.164 286.964C347.787 286.551 347.404 286.147 347.016 285.746C346.854 285.577 346.609 285.804 346.748 285.986C347.348 286.774 347.97 287.544 348.592 288.316C348.742 288.503 348.915 288.794 349.2 288.712C349.314 288.679 349.369 288.573 349.376 288.459C349.384 288.294 349.275 288.181 349.172 288.069V288.067Z" fill="#DEDEE3"/>
<path d="M346.091 290.987C341.771 291.689 337.034 291.212 334.863 290.158C337.548 289.447 340.448 288.536 343.085 287.449C344.083 288.15 344.94 289.038 345.584 290.062C345.769 290.359 345.939 290.669 346.091 290.985V290.987Z" fill="white"/>
<path d="M357.645 286.477C358.327 286.815 359.199 286.716 359.805 286.256C361.356 285.074 360.625 282.411 358.553 282.674C356.691 282.91 355.725 285.527 357.645 286.477Z" fill="white"/>
<path d="M324.385 82.1422C324.385 82.1422 320.519 83.5827 320.082 91.2934C319.643 99.0028 318.912 116.445 318.912 116.445C318.912 116.445 316.427 119.352 316.134 121.753C315.841 124.154 311.164 138.183 311.164 138.183L321.689 141.217L324.385 136.92L326.659 94.3269L324.385 82.1422Z" fill="#5F91FF"/>
<path d="M314.731 125.432C314.731 125.432 312.828 123.556 311.385 123.556C310.088 123.556 309.079 124.206 309.079 125.069V126.339L314.731 125.432Z" fill="#F9B7A8"/>
<path d="M323.526 91.7827C323.511 91.7827 323.486 91.9545 323.451 92.2844C323.42 92.6541 323.378 93.1338 323.328 93.7276C323.216 94.9811 323.14 96.7981 323.09 99.0454C322.993 103.54 323.235 109.75 323.755 116.586C324.273 123.426 324.721 129.614 324.82 134.1C324.878 136.342 324.897 138.159 324.88 139.412C324.88 140.007 324.88 140.487 324.881 140.858C324.886 141.189 324.896 141.362 324.913 141.364C324.928 141.364 324.948 141.191 324.973 140.861C324.995 140.49 325.023 140.011 325.057 139.416C325.13 138.161 325.159 136.343 325.142 134.096C325.124 129.6 324.727 123.4 324.208 116.563C323.688 109.728 323.396 103.534 323.41 99.0481C323.42 96.805 323.447 94.9893 323.504 93.7358C323.52 93.1407 323.533 92.661 323.542 92.2899C323.546 91.9586 323.541 91.7855 323.524 91.7841L323.526 91.7827Z" fill="#1A2E35"/>
<path d="M324.137 123.556C324.249 123.537 323.885 121.915 322.769 120.143C321.664 118.365 320.293 117.214 320.213 117.286C320.11 117.363 321.297 118.6 322.37 120.33C323.457 122.054 324.006 123.589 324.137 123.558V123.556Z" fill="#5F91FF"/>
<path d="M367.045 262.2C367.543 261.911 368.285 262.037 368.624 262.476C368.962 262.918 368.828 263.601 368.335 263.898C367.842 264.194 366.948 264.068 366.666 263.597C366.384 263.125 366.59 262.328 367.147 262.148" fill="white"/>
<path d="M361.44 269.343C361.55 269.428 362.081 268.983 362.901 268.788C363.714 268.573 364.422 268.708 364.468 268.584C364.537 268.479 363.754 268.098 362.768 268.349C361.779 268.593 361.322 269.283 361.44 269.343Z" fill="white"/>
<path d="M360.312 272.205C360.393 272.312 360.993 272.041 361.773 272.084C362.555 272.104 363.126 272.423 363.217 272.323C363.324 272.246 362.816 271.67 361.845 271.634C360.875 271.592 360.212 272.119 360.312 272.205Z" fill="white"/>
<path d="M361.878 275.642C362.013 275.557 361.698 275.029 360.756 274.768C359.925 274.53 359.239 274.798 359.287 274.913C359.32 275.039 359.927 275.003 360.608 275.203C361.293 275.388 361.77 275.73 361.878 275.642Z" fill="white"/>
<path d="M359.038 267.052C359.176 267.092 359.472 266.525 360.059 266.011C360.636 265.486 361.263 265.227 361.222 265.102C361.201 264.982 360.391 265.074 359.708 265.687C359.02 266.296 358.908 267.03 359.038 267.052Z" fill="white"/>
<path d="M356.915 264.447C356.958 264.484 357.406 264.156 357.9 263.449C358.147 263.098 358.394 262.648 358.586 262.12C358.68 261.856 358.762 261.573 358.821 261.275C358.847 261.131 358.89 260.968 358.862 260.764C358.858 260.564 358.635 260.272 358.338 260.252C358.068 260.215 357.816 260.336 357.671 260.476C357.519 260.618 357.434 260.764 357.356 260.896C357.195 261.165 357.068 261.439 356.973 261.705C356.785 262.24 356.719 262.746 356.721 263.166C356.732 264.013 356.974 264.497 357.028 264.482C357.108 264.466 356.996 263.968 357.076 263.181C357.116 262.79 357.215 262.326 357.411 261.843C357.51 261.601 357.633 261.355 357.786 261.113C357.935 260.853 358.112 260.673 358.268 260.703C358.327 260.716 358.345 260.727 358.368 260.826C358.386 260.922 358.361 261.058 358.336 261.201C358.287 261.48 358.221 261.746 358.144 261.998C357.988 262.5 357.786 262.937 357.591 263.293C357.199 264.005 356.855 264.403 356.914 264.449L356.915 264.447Z" fill="white"/>
<path d="M357.195 264.447C357.246 264.427 357.054 263.92 356.398 263.316C356.072 263.018 355.623 262.709 355.063 262.467C354.783 262.347 354.476 262.245 354.146 262.174C353.814 262.113 353.384 262.017 352.961 262.354C352.758 262.544 352.763 262.846 352.853 263.021C352.935 263.208 353.049 263.326 353.152 263.452C353.371 263.698 353.626 263.9 353.89 264.058C354.417 264.379 354.977 264.523 355.445 264.563C356.398 264.641 356.929 264.341 356.9 264.303C356.878 264.226 356.336 264.395 355.495 264.244C355.081 264.17 354.597 264.009 354.153 263.713C353.931 263.566 353.719 263.388 353.538 263.175C353.337 262.952 353.228 262.72 353.33 262.661C353.426 262.56 353.769 262.537 354.036 262.608C354.333 262.667 354.615 262.751 354.875 262.85C355.394 263.051 355.826 263.307 356.16 263.555C356.829 264.056 357.124 264.487 357.195 264.447Z" fill="white"/>
<path d="M362.841 141.567C362.841 141.567 366.973 145.583 369.003 149.432C371.033 153.28 374.153 161.479 374.153 161.479C374.153 161.479 378.037 174.002 377.17 179.905C376.303 185.808 370.49 226.179 370.49 226.179C370.49 226.179 371.634 258.184 366.662 272.423L365.743 276.2L349.118 273.521L345.435 194.296L335.292 141.915L362.841 141.566V141.567Z" fill="#233454"/>
<path d="M341.608 144.943C341.678 144.965 341.655 144.449 342.248 144.074C342.531 143.898 342.973 143.814 343.387 143.97C343.798 144.114 344.14 144.519 344.127 144.983C344.123 145.447 343.765 145.842 343.35 145.972C342.93 146.114 342.491 146.016 342.215 145.832C341.637 145.438 341.68 144.924 341.608 144.944C341.585 144.944 341.543 145.054 341.568 145.263C341.594 145.467 341.711 145.779 342.037 146.036C342.352 146.291 342.907 146.459 343.468 146.291C344.024 146.141 344.523 145.616 344.528 144.99C344.547 144.363 344.068 143.824 343.518 143.656C342.963 143.472 342.402 143.621 342.077 143.868C341.742 144.114 341.612 144.423 341.578 144.625C341.545 144.833 341.582 144.946 341.605 144.944L341.608 144.943Z" fill="#375A64"/>
<path d="M322.311 152.457C322.311 152.457 316.213 202.681 315.337 211.306C314.46 219.931 348.951 265.929 348.951 265.929L363.504 250.322L341.3 212.858L348.776 175.541L338.932 141.872L323.626 142.039L322.309 152.46L322.311 152.457Z" fill="#233454"/>
<path d="M369.207 260.332C369.207 260.332 369.199 260.711 369.089 261.43C368.987 262.151 368.792 263.209 368.516 264.575C367.963 267.309 367.066 271.273 365.863 276.224L365.838 276.327L365.722 276.309C361.024 275.561 355.383 274.664 349.091 273.663L348.965 273.644L348.959 273.527C348.497 263.17 347.944 250.791 347.352 237.516C346.739 223.232 346.169 209.987 345.703 199.122V199.134C344.458 190.405 343.427 183.186 342.706 178.135C342.358 175.626 342.086 173.656 341.897 172.298C341.81 171.636 341.743 171.124 341.696 170.764C341.654 170.417 341.643 170.236 341.643 170.236C341.643 170.236 341.684 170.412 341.743 170.757C341.801 171.116 341.883 171.625 341.989 172.285C342.197 173.64 342.498 175.607 342.882 178.113C343.635 183.16 344.711 190.373 346.012 199.095V199.102V199.109C346.498 209.974 347.089 223.219 347.728 237.501C348.299 250.777 348.831 263.157 349.277 273.513L349.146 273.377C355.432 274.402 361.069 275.323 365.763 276.089L365.623 276.173C366.859 271.23 367.791 267.275 368.384 264.55C368.68 263.188 368.896 262.134 369.019 261.419C369.087 261.062 369.125 260.79 369.152 260.606C369.181 260.423 369.204 260.329 369.204 260.329L369.207 260.332Z" fill="#375A64"/>
<path d="M344.028 161.992C344.024 161.964 343.699 162.001 343.119 162.033C342.555 162.044 341.649 162.124 340.78 161.67C340.353 161.443 340.011 161.039 339.84 160.528C339.659 160.018 339.612 159.427 339.554 158.799C339.436 157.545 339.317 156.168 339.211 154.719C338.998 151.823 338.881 149.197 338.808 147.296C338.773 146.403 338.742 145.649 338.719 145.043C338.694 144.511 338.668 144.217 338.642 144.217C338.614 144.217 338.59 144.511 338.566 145.045C338.545 145.578 338.529 146.349 338.53 147.301C338.53 149.208 338.605 151.841 338.819 154.744C338.925 156.196 339.055 157.576 339.193 158.829C339.262 159.452 339.319 160.066 339.531 160.621C339.73 161.178 340.146 161.648 340.638 161.887C341.125 162.137 341.629 162.205 342.051 162.223C342.478 162.239 342.841 162.206 343.134 162.17C343.72 162.096 344.034 162.012 344.03 161.992H344.028Z" fill="#375A64"/>
<path d="M322.98 152.493C323.002 152.53 323.635 152.281 324.567 151.73C325.5 151.18 326.711 150.298 327.836 149.138C328.959 147.974 329.767 146.77 330.247 145.858C330.728 144.947 330.918 144.345 330.875 144.33C330.759 144.276 329.768 146.625 327.542 148.901C325.343 151.198 322.905 152.395 322.98 152.493Z" fill="#375A64"/>
<path d="M365.002 93.0954L359.279 139.269L327.581 141.283L325.055 139.416L326.659 108.386L337.649 80.9712L338.009 79.8675C339.084 81.5636 340.726 92.9717 342.572 93.1091C343.748 93.1971 352.379 81.4578 355.433 78.3776L355.53 77.2917L365.002 93.0967V93.0954Z" fill="#F5F5F5"/>
<path d="M353.843 74.1332L360.535 79.7176L377.532 84.674L366.916 129.054L375 146.231C375.851 148.038 376.558 149.894 377.118 151.785L382.098 168.633C382.098 168.633 364.949 172.67 360.535 170.468C356.123 168.266 350.73 146.838 349.095 141.751C347.461 136.664 345.009 121.545 346.154 113.491C347.297 105.437 349.259 93.5667 350.24 89.4695C351.221 85.3722 353.845 74.1345 353.845 74.1345L353.843 74.1332Z" fill="#5F91FF"/>
<path d="M377.533 84.674C377.533 84.674 381.989 89.7127 383.253 94.555C385.389 102.734 393.635 125.057 393.146 130.286C392.656 135.514 360.7 145.001 360.7 145.001L359.393 130.446L374.258 123.672L370.179 109.957" fill="#5F91FF"/>
<path d="M370.178 109.957C370.178 109.957 370.189 110.04 370.23 110.197C370.277 110.368 370.339 110.599 370.419 110.896C370.598 111.527 370.855 112.433 371.187 113.598C371.877 115.969 372.875 119.399 374.128 123.701L374.194 123.57C370.031 125.455 364.98 127.743 359.308 130.311L359.205 130.357L359.213 130.458C359.602 134.878 360.037 139.794 360.498 145.013L360.517 145.237L360.761 145.163C367.022 143.258 373.766 141.036 380.56 138.31C382.793 137.401 384.982 136.464 387.062 135.411C389.114 134.338 391.202 133.271 392.685 131.622C392.882 131.425 393.003 131.175 393.145 130.94C393.229 130.829 393.233 130.68 393.28 130.552C393.315 130.419 393.359 130.284 393.344 130.159C393.33 129.652 393.369 129.14 393.281 128.649C393.185 127.655 392.977 126.692 392.794 125.735C392.362 123.834 391.889 121.983 391.371 120.19C389.312 113.017 387.125 106.64 385.41 101.257C384.538 98.5673 383.808 96.129 383.195 93.9697C382.504 91.8159 381.486 90.0951 380.616 88.7275C379.737 87.3585 378.948 86.3524 378.406 85.6775C378.133 85.3408 377.914 85.0893 377.767 84.9216C377.619 84.7553 377.531 84.6755 377.531 84.6755C377.531 84.6755 377.595 84.769 377.733 84.9422C377.879 85.1305 378.079 85.3875 378.337 85.7174C378.855 86.4046 379.622 87.4217 380.475 88.7934C381.318 90.1652 382.31 91.8874 382.971 94.0205C383.559 96.173 384.273 98.6319 385.126 101.323C386.806 106.716 388.962 113.102 390.998 120.267C391.51 122.058 391.977 123.904 392.403 125.797C392.582 126.747 392.787 127.705 392.879 128.679C392.966 129.167 392.925 129.649 392.94 130.136C392.912 130.602 392.699 131.027 392.354 131.416C390.968 132.961 388.885 134.046 386.854 135.101C384.791 136.144 382.61 137.077 380.384 137.983C373.614 140.7 366.873 142.928 360.633 144.837L360.897 144.987C360.419 139.77 359.971 134.855 359.566 130.434L359.473 130.581C365.129 127.988 370.167 125.677 374.318 123.774L374.412 123.731L374.385 123.643C373.082 119.352 372.044 115.931 371.326 113.567C370.965 112.407 370.686 111.508 370.49 110.88C370.396 110.587 370.321 110.359 370.266 110.188C370.214 110.033 370.184 109.955 370.178 109.956V109.957Z" fill="#286CFF"/>
<path d="M338.834 75.8582L334.799 79.8661L324.385 82.1422C324.385 82.1422 321.645 94.0025 321.645 97.2531C321.645 100.504 323.195 136.53 323.195 138.226C323.195 139.922 315.678 162.954 316.331 164.367C316.985 165.78 324.83 166.769 324.83 166.769C324.83 166.769 327.771 146.845 327.771 140.064C327.771 133.282 328.099 116.607 329.732 108.411C331.366 100.215 338.999 78.6662 338.999 78.6662L338.834 75.8582Z" fill="#5F91FF"/>
<path d="M327.595 143.849C327.602 143.849 327.608 143.791 327.61 143.68C327.61 143.546 327.61 143.384 327.613 143.185C327.605 142.72 327.595 142.085 327.582 141.283C327.538 139.599 327.474 137.217 327.397 134.287C327.238 128.379 326.961 120.219 326.792 111.207C326.78 110.08 326.762 108.966 326.773 107.872C326.766 106.786 326.905 105.712 327 104.649C327.196 102.53 327.392 100.487 327.62 98.5464C327.849 96.6057 328.104 94.7639 328.441 93.0582C328.773 91.3525 329.35 89.8199 329.966 88.4468C331.212 85.7048 332.499 83.584 333.39 82.1257C333.833 81.4206 334.186 80.8639 334.441 80.4557C334.552 80.2811 334.642 80.1382 334.715 80.0214C334.776 79.9224 334.805 79.8716 334.798 79.8674C334.792 79.8647 334.751 79.91 334.678 80.0021C334.594 80.1135 334.492 80.2509 334.367 80.4186C334.1 80.7883 333.716 81.3381 333.246 82.057C332.309 83.4974 330.979 85.6044 329.689 88.352C329.052 89.7251 328.45 91.2824 328.099 93.0046C327.745 94.7213 327.474 96.5672 327.235 98.5121C326.996 100.457 326.792 102.502 326.59 104.62C326.493 105.677 326.35 106.756 326.356 107.868C326.343 108.969 326.361 110.084 326.372 111.212C326.543 120.23 326.865 128.389 327.1 134.295C327.232 137.224 327.341 139.606 327.417 141.288C327.463 142.089 327.499 142.724 327.527 143.189C327.543 143.388 327.555 143.551 327.566 143.683C327.577 143.794 327.587 143.85 327.594 143.85L327.595 143.849Z" fill="#286CFF"/>
<path d="M346.968 130.286C346.982 130.286 347.016 130.104 347.06 129.756C347.103 129.407 347.155 128.892 347.204 128.228C347.299 126.899 347.393 124.972 347.347 122.589C347.325 121.397 347.269 120.093 347.165 118.695C347.098 117.319 347.393 115.845 347.777 114.321C348.63 111.278 349.986 108.022 351.537 104.656C353.109 101.294 354.74 98.1382 356.249 95.2766C356.982 93.8403 357.782 92.5057 358.261 91.1463C358.745 89.8007 359.058 88.5211 359.327 87.3528C359.851 85.0121 360.136 83.1002 360.321 81.7779C360.411 81.1168 360.471 80.6028 360.506 80.2537C360.54 79.9045 360.548 79.7204 360.535 79.719C360.521 79.719 360.484 79.8991 360.422 80.2454C360.356 80.6261 360.269 81.1292 360.161 81.7601C359.925 83.0741 359.596 84.9777 359.036 87.3019C358.752 88.462 358.421 89.7334 357.93 91.0556C357.452 92.3737 356.644 93.7028 355.898 95.1378C354.368 97.9925 352.726 101.151 351.149 104.521C349.594 107.897 348.243 111.168 347.401 114.246C347.023 115.792 346.734 117.286 346.818 118.715C346.936 120.108 347.012 121.407 347.052 122.594C347.134 124.969 347.086 126.892 347.042 128.221C347.015 128.858 346.993 129.367 346.976 129.751C346.96 130.101 346.954 130.284 346.968 130.286Z" fill="#286CFF"/>
<path d="M300.088 129.172L309.011 139.599C309.382 140.033 310.008 140.245 310.62 140.145L349.216 133.839C350.179 133.681 350.764 132.828 350.461 132.022L346.298 120.939C346.046 120.267 345.257 119.862 344.453 119.991L301.098 126.953C299.916 127.142 299.373 128.337 300.087 129.172H300.088Z" fill="#F39C70"/>
<path d="M383.252 124.584C383.284 124.555 382.852 124.135 381.955 123.679C381.069 123.221 379.677 122.769 378.072 122.749C376.468 122.73 375.061 123.151 374.161 123.586C373.25 124.022 372.806 124.432 372.836 124.462C372.877 124.509 373.382 124.177 374.293 123.815C375.197 123.45 376.545 123.092 378.065 123.11C379.586 123.127 380.922 123.518 381.815 123.903C382.714 124.286 383.208 124.63 383.251 124.584H383.252Z" fill="#286CFF"/>
<g opacity="0.3">
<path d="M374.121 144.362L358.873 149.211L357.284 143.739L350.061 145.001L348.883 141.176L360.051 139.36L360.535 145.001L372.382 141.136L374.121 144.362Z" fill="black"/>
</g>
<path d="M359.19 131.136C359.19 131.136 355.695 129.194 354.817 128.727C353.941 128.261 350.972 126.569 349.624 126.744L348.275 126.918L349.489 130.009C349.489 130.009 338.63 128.61 337.145 130.126C335.66 131.642 338.764 131.934 340.382 132.11C342.002 132.284 347.202 133.043 347.202 133.043C347.202 133.043 333.637 131.76 332.693 133.043C331.749 134.325 334.01 134.618 334.01 134.618L342.995 137.709L344.025 138.06L345.057 139.227C345.057 139.227 348.747 141.442 349.893 141.151C351.039 140.859 360.05 139.361 360.05 139.361L359.188 131.138L359.19 131.136Z" fill="#F9B7A8"/>
<path d="M349.094 136.563C349.106 136.52 348.308 136.293 346.99 136.009C345.672 135.724 343.832 135.394 341.778 135.146C339.724 134.898 337.849 134.777 336.493 134.739C335.135 134.699 334.295 134.729 334.294 134.772C334.293 134.821 335.129 134.875 336.476 134.975C337.824 135.074 339.683 135.231 341.725 135.478C343.766 135.726 345.603 136.017 346.931 136.241C348.258 136.465 349.08 136.612 349.094 136.564V136.563Z" fill="#F3878E"/>
<path d="M347.861 138.821C347.888 138.732 347.018 138.458 345.917 138.211C344.816 137.963 343.903 137.836 343.875 137.926C343.848 138.016 344.719 138.289 345.819 138.537C346.92 138.784 347.833 138.912 347.861 138.821Z" fill="#F3878E"/>
<path d="M302.901 132.479C302.901 132.479 301.539 134.134 302.02 135.448C302.503 136.762 305.943 139.173 305.943 139.173C305.943 139.173 307.27 140.597 307.874 140.597C308.478 140.597 311.356 141.071 311.154 139.519C310.952 137.968 308.418 137.694 308.418 137.694C308.418 137.694 308.357 137.132 307.272 136.427C306.185 135.722 304.988 134.896 304.988 134.896L302.901 132.478V132.479Z" fill="#F9B7A8"/>
<path d="M305.356 138.745C305.322 138.785 305.489 138.985 305.874 139.184C306.245 139.378 306.917 139.559 307.6 139.32C307.935 139.203 308.22 139 308.393 138.755C308.566 138.51 308.625 138.252 308.621 138.04C308.606 137.603 308.361 137.409 308.324 137.441C308.265 137.47 308.376 137.687 308.312 138.022C308.259 138.356 307.98 138.774 307.444 138.95C306.915 139.137 306.37 139.041 306 138.928C305.625 138.813 305.395 138.699 305.356 138.747V138.745Z" fill="#F3878E"/>
<path d="M333.64 60.0174C335.29 61.8743 337.206 63.477 339.365 64.7099L341.456 65.8562C342.214 64.971 342.668 63.58 342.622 61.7506C342.48 56.1799 336.421 49.6045 336.421 49.6045C336.421 49.6045 334.956 47.327 333.655 48.1462C330.078 50.3975 333.318 59.6573 333.639 60.0188L333.64 60.0174Z" fill="#1F1F1F"/>
<path d="M350.542 59.5721L353.788 74.3848C353.788 74.3848 350.227 78.8779 345.783 79.3672C340.43 79.9582 339.141 79.3727 339.141 79.3727L339.054 78.2415L338.57 72.7739L338.164 68.1722L337.728 62.5218L350.542 59.5721Z" fill="#F9B7A8"/>
<path d="M349.004 43.1775L349.446 66.2836C349.462 67.3159 348.86 68.2533 347.914 68.6725L338.446 72.8288C337.643 73.1793 336.71 73.0955 335.979 72.6062L330.788 69.0999C330.098 68.6367 329.674 67.8657 329.657 67.0355L329.645 66.2424L329.47 57.0005L329.364 51.636C329.282 47.1689 332.842 43.484 337.319 43.3947L349.005 43.1775H349.004Z" fill="#F9B7A8"/>
<path opacity="0.4" d="M332.811 61.1155C333.064 63.3971 331.702 65.4822 329.643 66.2423L329.469 57.0004C331.239 57.5776 332.593 59.1445 332.811 61.1155Z" fill="#E47175"/>
<path d="M336.203 63.4605C336.347 63.4605 336.48 63.3684 336.524 63.2254C336.58 63.0481 336.481 62.8598 336.304 62.8035L333.084 61.7891L335.009 53.6138C335.052 53.4337 334.939 53.2523 334.759 53.2097C334.577 53.1671 334.397 53.2798 334.354 53.4598L332.358 61.9389C332.318 62.1107 332.416 62.2839 332.585 62.3361L336.103 63.444C336.137 63.455 336.17 63.4591 336.205 63.4591L336.203 63.4605Z" fill="#BB575F"/>
<path d="M346.525 60.3651C346.574 62.9587 348.722 65.0218 351.322 64.9723C353.923 64.9229 355.99 62.7801 355.941 60.1864C355.891 57.5928 353.744 55.5298 351.143 55.5792C348.543 55.6287 346.477 57.7715 346.525 60.3651Z" fill="#F9B7A8"/>
<path d="M328.806 51.4215C329.215 52.3287 332.504 51.6318 332.301 50.7301C331.962 49.2334 328.158 49.9838 328.806 51.4215Z" fill="#202020"/>
<path d="M343.61 51.2222C343.179 52.1198 339.908 51.3446 340.133 50.4484C340.507 48.9612 344.292 49.7997 343.61 51.2222Z" fill="black"/>
<g opacity="0.4">
<path d="M348.412 60.5878C348.711 63.2776 346.767 65.698 344.072 65.9963C341.376 66.2932 338.948 64.3552 338.651 61.6654C338.352 58.9755 340.296 56.5537 342.992 56.2568C345.687 55.96 348.115 57.8979 348.412 60.5878Z" fill="#E47175"/>
</g>
<path d="M340.845 57.1778C340.861 58.0616 340.457 58.7846 339.942 58.7942C339.426 58.8038 338.994 58.096 338.978 57.2122C338.961 56.3284 339.365 55.6054 339.88 55.5958C340.396 55.5862 340.828 56.294 340.845 57.1778Z" fill="black"/>
<path d="M332.163 57.3427C332.179 58.2265 331.775 58.9494 331.26 58.9604C330.744 58.9701 330.314 58.2622 330.296 57.3784C330.279 56.4947 330.684 55.7717 331.198 55.7621C331.714 55.7524 332.145 56.4603 332.163 57.3441V57.3427Z" fill="black"/>
<path opacity="0.4" d="M351.845 62.2866C351.584 61.4592 351.413 60.6592 351.51 59.873C351.598 59.0855 351.935 58.3446 352.341 57.5722L352.126 57.3962C351.423 57.9653 350.906 58.8353 350.807 59.7974C350.706 60.7582 351.034 61.7176 351.602 62.4199L351.847 62.288L351.845 62.2866Z" fill="#E47175"/>
<path d="M336.239 67.0876C336.319 67.0876 336.4 67.0835 336.481 67.0752C338.064 66.9186 339.139 65.2747 339.185 65.2046C339.285 65.0479 339.24 64.8404 339.083 64.74C338.926 64.6397 338.718 64.6851 338.618 64.8404C338.604 64.8624 337.665 66.2849 336.413 66.4073C335.784 66.4677 335.158 66.1846 334.554 65.562C334.425 65.4286 334.211 65.4245 334.078 65.5537C333.944 65.6829 333.94 65.896 334.07 66.0293C334.752 66.733 335.48 67.0876 336.239 67.0876Z" fill="#BB575F"/>
<path opacity="0.4" d="M347.914 68.6724C347.914 68.6724 344.908 76.9316 339.036 78.9383L338.57 72.7738L347.914 68.671V68.6724Z" fill="#E47175"/>
<path d="M323.831 48.3798C323.486 51.8421 324.472 53.9368 325.712 55.1985C327.356 56.8768 329.443 57.0898 329.443 57.0898C329.443 57.0898 328.177 53.7031 329.497 51.4449C329.58 51.5562 332.49 55.2411 336.454 48.1819C336.454 48.1819 339.281 45.2928 340.884 48.4925C342.389 51.4957 341.296 57.531 348.997 56.863C349.497 56.8204 350.033 56.7489 350.61 56.6472C350.61 56.6472 354.947 54.2873 355.937 60.761C357.548 60.2827 358.839 57.3317 358.956 57.0596L358.961 57.0486C355.871 66.2286 359.759 66.7207 362.603 67.3722C365.448 68.0237 362.951 70.33 365.95 72.8865C368.951 75.4431 373.34 71.5313 373.34 71.5313C373.34 71.5313 373.323 71.5286 373.292 71.5231C371.46 71.2069 369.058 67.7543 371.273 64.5202C373.506 61.2572 372.479 58.1811 371.255 56.5606C371.129 56.3929 370.968 56.2418 370.785 56.0947H370.784C369.196 54.8261 365.964 53.9821 369.192 46.9875C372.791 39.1833 368.782 32.9652 359.667 30.5338C350.553 28.1023 349.654 35.7815 349.654 35.7815C337.892 30.8554 335.201 40.8038 332.345 40.5247C332.328 40.5247 332.309 40.522 332.292 40.5192C329.429 40.2485 324.628 40.3708 323.828 48.3798H323.831Z" fill="black"/>
<path d="M332.295 40.5192C337.326 47.118 342.623 43.8096 346.638 42.2125C350.881 40.5233 354.724 45.4123 354.524 49.5467C354.323 53.6811 359.25 55.4074 359.25 55.4074C359.25 55.4074 361.333 52.8303 361.111 47.5633C360.889 42.2936 353.657 39.3578 353.657 39.3578C362.333 38.1262 363.41 46.4967 362.347 49.8133C361.283 53.1299 361.648 56.0768 363.951 58.2759C366.252 60.475 365.595 61.2874 365.254 65.7956C364.929 70.1004 372.612 71.4158 373.296 71.523C371.465 71.2069 369.062 67.7542 371.277 64.5201C373.51 61.2571 372.483 58.1811 371.26 56.5606C371.133 56.3929 370.972 56.2417 370.789 56.0946H370.788C362.6 55.7483 365.579 49.1879 367.78 43.029C369.983 36.8713 362.976 34.4275 362.976 34.4275C352.273 30.9859 351.712 37.4789 351.712 37.4789C351.311 35.9175 349.656 35.7828 349.656 35.7828C337.895 30.8567 335.203 40.8051 332.347 40.5261C332.331 40.5261 332.311 40.5233 332.295 40.5206V40.5192Z" fill="black"/>
<path d="M343.45 46.5642L343.663 49.0259C344.52 53.464 347.27 55.8006 349 56.8631C349.499 56.8205 350.036 56.749 350.612 56.6473C350.612 56.6473 354.949 54.2873 355.939 60.7611C357.55 60.2827 358.841 57.3318 358.958 57.0596L358.963 57.0486C358.963 57.0486 357.096 55.3017 352.126 54.8261C347.155 54.3519 343.45 46.5656 343.45 46.5656V46.5642Z" fill="black"/>
<path d="M325.711 55.2C327.355 56.8782 329.443 57.0912 329.443 57.0912C329.443 57.0912 328.177 53.7045 329.496 51.4463C329.496 51.4463 325.871 51.647 325.71 55.2H325.711Z" fill="black"/>
<g opacity="0.27">
<path d="M344.543 38.9565C344.543 38.9565 354.905 40.9853 355.251 49.2472C355.251 49.2472 351.321 47.9565 349.045 45.8866C349.045 45.8866 351.936 51.6923 357.849 53.2276C357.849 53.2276 348.95 53.5864 344.927 43.0593L349.821 43.917C349.821 43.917 347.978 40.6994 344.543 38.9565Z" fill="#414141"/>
</g>
<path d="M339.015 78.7212L338.312 80.5932C338.312 80.5932 339.542 91.3855 342.572 93.1091C342.572 93.1091 347.657 89.842 352.837 78.7638L353.609 76.0245L353.788 74.3861L339.015 78.7212Z" fill="#F9B7A8"/>
<path opacity="0.3" d="M305.937 35.2001L260.628 35.0227C257.717 35.0117 255.347 37.3566 255.336 40.2622L255.27 57.0939C255.259 59.9995 257.61 62.3636 260.521 62.3746L296.485 62.5148L302.863 68.3494L302.965 62.5395L305.83 62.5505C308.741 62.5615 311.111 60.2167 311.122 57.3111L311.188 40.4794C311.199 37.5737 308.848 35.2097 305.937 35.1987V35.2001Z" fill="#2C509F"/>
<path d="M310.86 32.6711L261.622 32.4787C259.795 32.4718 258.309 33.9425 258.301 35.765L258.218 56.7847C258.211 58.6073 259.686 60.0903 261.513 60.0972L298.45 60.2415L305.552 66.2136L305.662 60.2704L310.75 60.2896C312.577 60.2965 314.063 58.8258 314.071 57.0033L314.154 35.9835C314.16 34.161 312.686 32.678 310.859 32.6711H310.86Z" fill="#2C509F"/>
<path d="M307.974 43.7067L292.235 43.6448C291.803 43.6434 291.456 43.1005 291.459 42.4312C291.462 41.7632 291.814 41.2216 292.245 41.2244L307.984 41.2862C308.416 41.2876 308.763 41.8305 308.76 42.4999C308.757 43.1679 308.405 43.7094 307.974 43.7067Z" fill="#9AB0D7"/>
<path d="M300.553 47.6073L291.869 47.5729C291.631 47.5729 291.439 47.2719 291.441 46.9036C291.443 46.5352 291.637 46.2369 291.875 46.2369L300.559 46.2713C300.797 46.2713 300.99 46.5723 300.987 46.9407C300.985 47.309 300.792 47.6073 300.553 47.6073Z" fill="#9AB0D7"/>
<path d="M300.542 50.546L291.858 50.5116C291.62 50.5116 291.427 50.2106 291.43 49.8423C291.432 49.4739 291.626 49.1757 291.864 49.1757L300.548 49.21C300.786 49.21 300.978 49.511 300.976 49.8794C300.974 50.2477 300.78 50.546 300.542 50.546Z" fill="#9AB0D7"/>
<path d="M263.384 54.5636L286.483 54.6543C286.666 54.6543 286.816 54.5072 286.816 54.3244L286.882 37.4955C286.882 37.3127 286.735 37.1629 286.552 37.1629L263.453 37.0721C263.27 37.0721 263.12 37.2192 263.12 37.402L263.054 54.231C263.054 54.4138 263.201 54.5636 263.384 54.5636Z" fill="#F1F0F8"/>
<path d="M281.935 50.5651L284.238 50.574L284.258 45.5022L281.955 45.4934L281.935 50.5651Z" fill="#F6D091"/>
<path d="M278.769 50.5526L281.072 50.5614L281.098 43.7537L278.795 43.7449L278.769 50.5526Z" fill="#0F62FE"/>
<path d="M275.381 50.5394L277.684 50.5482L277.716 42.2987L275.413 42.2899L275.381 50.5394Z" fill="#F6D091"/>
<path d="M272.214 50.5282L274.517 50.537L274.543 43.7293L272.24 43.7205L272.214 50.5282Z" fill="#0F62FE"/>
<path d="M268.822 50.5136L271.125 50.5225L271.157 42.273L268.854 42.2641L268.822 50.5136Z" fill="#F6D091"/>
<path d="M265.655 50.5011L267.958 50.5099L267.997 40.5465L265.694 40.5376L265.655 50.5011Z" fill="#0F62FE"/>
<path d="M268.651 52.212L280.614 52.2579C280.649 52.2581 280.678 52.2293 280.678 52.1936L280.68 51.8665C280.68 51.8308 280.651 51.8017 280.615 51.8016L268.653 51.7557C268.617 51.7556 268.588 51.7844 268.588 51.8201L268.586 52.1472C268.586 52.1829 268.615 52.2119 268.651 52.212Z" fill="#EEF3F7"/>
<path d="M284.92 39.1807L280.956 39.1655C280.924 39.1654 280.898 39.1391 280.898 39.1075L280.9 38.8148C280.9 38.7832 280.926 38.7571 280.958 38.7573L284.921 38.7725C284.953 38.7726 284.979 38.7988 284.979 38.8304L284.978 39.1232C284.978 39.1548 284.951 39.1808 284.92 39.1807Z" fill="#EEF3F7"/>
<path d="M284.915 40.2276L278.577 40.2032C278.545 40.2031 278.519 40.1769 278.519 40.1453L278.521 39.8525C278.521 39.8209 278.547 39.7949 278.579 39.795L284.917 39.8193C284.949 39.8195 284.975 39.8457 284.974 39.8773L284.973 40.1701C284.973 40.2017 284.947 40.2277 284.915 40.2276Z" fill="#EEF3F7"/>
<path d="M152.068 78.8531L127.859 79.9403C127.859 79.9403 125.42 76.9522 123.257 70.7493C121.094 64.5463 124.315 62.2825 126.846 62.8708C126.846 62.8708 127.031 54.8838 135.958 53.6798C141.962 52.8688 147.5 54.3532 150.918 58.0602C150.936 58.0794 150.955 58.1014 150.975 58.1248C151.238 58.4134 151.487 58.7144 151.722 59.0278C151.724 59.0306 151.725 59.0319 151.727 59.0333C152.121 59.5597 152.478 60.1232 152.793 60.7225C153.419 61.9142 153.883 63.2515 154.156 64.7318C154.852 68.5089 154.31 73.2233 152.066 78.8545L152.068 78.8531Z" fill="#002B3A"/>
<path d="M152.588 76.3241C152.588 76.3241 154.324 69.9781 151.147 66.99C147.972 64.002 148.755 78.2648 148.755 78.2648L152.588 76.3241Z" fill="#071D2A"/>
<path d="M127.059 78.0627L126.615 77.7466C126.23 76.5811 125.143 70.7025 127.512 68.5995C130.083 66.3165 127.058 78.0627 127.058 78.0627H127.059Z" fill="#071D2A"/>
<path d="M143.551 62.3031C143.551 62.3031 143.549 62.3077 143.546 62.3169C143.546 62.3139 143.546 62.3123 143.544 62.3108C143.546 62.3093 143.549 62.3062 143.552 62.3046L143.551 62.3031Z" fill="#63291E"/>
<path d="M154.159 64.7318C152.879 65.5084 151.064 66.3084 150.32 66.3565C148.938 66.4472 141.622 58.7502 141.622 58.7502C141.622 58.7502 147.144 60.3803 150.504 58.298C150.65 58.2073 150.789 58.1289 150.919 58.0602C150.937 58.0794 150.957 58.1014 150.977 58.1248C151.146 58.3158 151.409 58.6347 151.724 59.0278C151.726 59.0306 151.727 59.0319 151.728 59.0333C152.123 59.5597 152.48 60.1233 152.795 60.7225C153.421 61.9142 153.884 63.2515 154.158 64.7318H154.159Z" fill="#071D2A"/>
<path d="M130.575 65.1331C130.568 65.4409 130.557 65.7406 130.542 66.0333C130.51 65.7351 130.52 65.4354 130.575 65.1331Z" fill="#E3C1A8"/>
<path d="M142.876 82.5888V97.0289C142.876 97.0289 141.227 97.7959 136.347 98.1656C132.241 98.4762 129.817 97.0289 129.817 97.0289V80.8611L142.876 82.5888Z" fill="#F5AFA7"/>
<path d="M142.877 97.1004L133.617 89.1505L142.877 92.9537V97.1004Z" fill="#F3878E"/>
<path d="M152.119 68.2587V87.1713C152.119 88.0015 151.709 88.7863 151.017 89.266L145.794 92.8781C145.065 93.3867 144.114 93.4911 143.293 93.1475L133.578 89.1615C132.613 88.7657 131.974 87.8311 131.974 86.7906V68.2587H152.118H152.119Z" fill="#F5AFA7"/>
<path opacity="0.32" d="M152.119 77.7864V85.2346C150.029 85.2346 148.334 83.5674 148.334 81.5098C148.334 79.4523 150.029 77.785 152.119 77.785V77.7864Z" fill="#EE8171"/>
<path d="M144.41 81.7958H147.327C147.409 81.7958 147.488 81.7614 147.543 81.7009C147.598 81.6405 147.624 81.5607 147.616 81.4796L146.768 73.395C146.752 73.2384 146.608 73.1229 146.449 73.1394C146.289 73.1559 146.174 73.2961 146.19 73.4528L147.005 81.2212H144.41C144.249 81.2212 144.12 81.3491 144.12 81.5071C144.12 81.6652 144.25 81.793 144.41 81.793V81.7958Z" fill="#DE7360"/>
<path d="M128.505 85.5151C131.151 85.5151 133.296 83.405 133.296 80.802C133.296 78.1991 131.151 76.089 128.505 76.089C125.86 76.089 123.715 78.1991 123.715 80.802C123.715 83.405 125.86 85.5151 128.505 85.5151Z" fill="#F5AFA7"/>
<path d="M140.506 71.3099C140.485 72.3944 136.839 73.1022 136.653 72.1126C136.345 70.4688 140.537 69.5932 140.506 71.3099Z" fill="#071D2A"/>
<path d="M153.297 71.9078C152.79 72.7737 149.531 71.7525 149.828 70.8728C150.322 69.4118 154.097 70.5374 153.297 71.9078Z" fill="#071D2A"/>
<path opacity="0.32" d="M137.295 84.9886C139.386 84.9886 141.081 83.3203 141.081 81.2624C141.081 79.2045 139.386 77.5363 137.295 77.5363C135.203 77.5363 133.508 79.2045 133.508 81.2624C133.508 83.3203 135.203 84.9886 137.295 84.9886Z" fill="#EE8171"/>
<path d="M142.044 75.9997C142.026 76.7515 141.652 77.3521 141.206 77.3425C140.762 77.3329 140.415 76.7144 140.433 75.9639C140.451 75.2121 140.825 74.6115 141.271 74.6211C141.715 74.6307 142.062 75.2492 142.044 75.9997Z" fill="#281C1C"/>
<path d="M150.223 75.9997C150.205 76.7515 149.831 77.3521 149.385 77.3425C148.941 77.3329 148.594 76.7144 148.612 75.9639C148.63 75.2121 149.004 74.6115 149.45 74.6211C149.894 74.6307 150.241 75.2492 150.223 75.9997Z" fill="#281C1C"/>
<path d="M129.536 83.6045C129.622 83.6045 129.708 83.5674 129.766 83.4946C130.169 82.9874 130.429 82.3221 130.537 81.5181C130.858 79.1416 128.591 78.196 127.347 78.0283C127.189 78.0063 127.041 78.1163 127.019 78.273C126.997 78.4297 127.109 78.574 127.267 78.5946C127.392 78.6125 130.286 79.0385 129.961 81.4425C129.866 82.1448 129.646 82.7166 129.307 83.1427C129.208 83.2678 129.23 83.4465 129.357 83.544C129.411 83.5853 129.474 83.6045 129.536 83.6045Z" fill="#DE7360"/>
<path d="M130.25 81.7655C130.305 81.7655 130.36 81.7504 130.41 81.7188C130.544 81.6322 130.582 81.4549 130.494 81.3229C129.504 79.8371 128.069 80.1986 127.449 80.5972C127.314 80.6838 127.277 80.8611 127.364 80.993C127.452 81.125 127.631 81.1621 127.765 81.0769C127.902 80.9917 129.108 80.2866 130.008 81.6363C130.064 81.7201 130.157 81.7655 130.251 81.7655H130.25Z" fill="#DE7360"/>
<path d="M157.315 60.6057C157.306 60.6524 157.295 60.7019 157.284 60.7541C153.148 79.818 130.769 65.4328 130.769 65.4328C130.762 65.7407 130.558 65.7421 130.543 66.0334C130.15 73.6796 127.032 75.865 127.032 75.865C123.535 57.7083 138.722 56.5304 145.303 59.3838C151.885 62.2358 154.876 56.9386 154.876 56.9386C156.026 62.1011 151.471 64.0927 151.471 64.0927C156.028 63.4591 157.315 60.6057 157.315 60.6057Z" fill="#002B3A"/>
<path d="M157.283 60.7554C153.148 79.8192 130.119 65.7818 130.119 65.7818C130.119 65.7818 139.505 69.2083 147.743 67.9411C155.725 66.7137 156.924 62.3827 157.285 60.7554H157.283Z" fill="#071D2A"/>
<path d="M131.89 77.4166C131.89 77.4166 135.847 71.78 134.917 68.1637L131.048 67.394L131.89 77.4166Z" fill="#002B3A"/>
<path d="M142.418 86.003C142.508 86.1267 142.612 86.2339 142.724 86.3411C143.466 87.0324 144.642 87.3747 145.713 87.1699C146.185 87.0819 146.626 86.884 146.998 86.6201C147.593 86.1858 148.02 85.57 148.126 84.9061C148.188 84.524 148.093 84.0526 147.684 83.9014C147.592 83.8684 147.485 83.8602 147.387 83.8574C147.207 83.867 147.013 83.9165 146.833 83.9564C145.848 84.1942 144.807 84.2381 143.8 84.0828C143.441 84.0196 143.093 84.0017 142.808 84.0553C142.517 84.1103 142.29 84.2368 142.167 84.4773C141.915 84.968 142.092 85.548 142.419 85.9988L142.418 86.003Z" fill="#383939"/>
<path d="M142.807 84.0582C142.829 84.3138 142.897 84.5681 143.073 84.7399C143.265 84.9337 143.54 85.001 143.807 85.0381C144.769 85.1948 145.771 85.1385 146.709 84.8663C146.932 84.8004 147.168 84.711 147.302 84.5227C147.435 84.333 147.429 84.0911 147.386 83.8602C147.206 83.8699 147.012 83.9193 146.831 83.9592C145.846 84.197 144.806 84.241 143.799 84.0856C143.44 84.0224 143.092 84.0045 142.807 84.0582Z" fill="white"/>
<path d="M142.723 86.341C143.465 87.0324 144.641 87.3746 145.711 87.1698C146.183 87.0819 146.625 86.884 146.996 86.6201C146.6 86.1514 145.943 85.8998 145.311 85.8229C144.42 85.7074 143.476 85.8669 142.725 86.341H142.723Z" fill="#EE8171"/>
<path d="M129.817 97.0289L130.45 108.858L142.878 97.1004L134.242 96.563L129.817 97.0289Z" fill="#F5AFA7"/>
<g opacity="0.6">
<path d="M116.225 48.8566C129.748 48.8566 140.711 37.9197 140.711 24.4283C140.711 10.9368 129.748 -0.00012207 116.225 -0.00012207C102.702 -0.00012207 91.7397 10.9368 91.7397 24.4283C91.7397 37.9197 102.702 48.8566 116.225 48.8566Z" fill="#99BEE0"/>
</g>
<path d="M116.226 43.9704C127.044 43.9704 135.815 35.2211 135.815 24.4283C135.815 13.6354 127.044 4.88611 116.226 4.88611C105.407 4.88611 96.6367 13.6354 96.6367 24.4283C96.6367 35.2211 105.407 43.9704 116.226 43.9704Z" fill="#FAFAFA"/>
<g opacity="0.6">
<path d="M116.226 39.0856C124.339 39.0856 130.917 32.5233 130.917 24.4283C130.917 16.3333 124.339 9.771 116.226 9.771C108.112 9.771 101.535 16.3333 101.535 24.4283C101.535 32.5233 108.112 39.0856 116.226 39.0856Z" fill="#99BEE0"/>
</g>
<path d="M116.225 34.1994C121.634 34.1994 126.02 29.8247 126.02 24.4283C126.02 19.0319 121.634 14.6572 116.225 14.6572C110.816 14.6572 106.431 19.0319 106.431 24.4283C106.431 29.8247 110.816 34.1994 116.225 34.1994Z" fill="#FAFAFA"/>
<path d="M111.49 23.1831C112.179 20.5743 114.86 19.0171 117.474 19.7057C120.089 20.3943 121.649 23.0662 120.96 25.6763C120.271 28.2851 117.591 29.8424 114.976 29.1537C112.361 28.4651 110.801 25.7932 111.49 23.1831Z" fill="#99BEE0"/>
<path d="M116.979 25.1485L110.182 23.3603L111.92 21.5804L97.8579 10.0569L98.6352 9.3009L112.773 20.7543L114.138 18.8906L116.979 25.1485Z" fill="#9AB0D7"/>
<path d="M97.8582 10.0569L97.6449 10.1778C96.591 10.7716 95.2978 10.7551 94.2604 10.1325L88.3691 6.6001L92.3343 5.97747L91.9078 1.81421L97.3312 5.51977C98.5543 6.35544 99.084 7.8921 98.6355 9.3023L97.8582 10.0583V10.0569Z" fill="#9AB0D7"/>
<path d="M377.533 84.674C377.533 84.674 368.094 93.9915 369.013 108.513L371.116 113.138L376.705 104.256L377.535 84.6726L377.533 84.674Z" fill="#5F91FF"/>
<path d="M85.605 34.5155H14.8658C10.0613 34.5155 6.1665 38.4065 6.1665 43.2063V88.374C6.1665 93.1737 10.0613 97.0647 14.8658 97.0647H85.605C90.4095 97.0647 94.3043 93.1737 94.3043 88.374V43.2063C94.3043 38.4065 90.4095 34.5155 85.605 34.5155Z" fill="#0F62FE"/>
<path d="M85.6036 34.5155H14.8658C10.0615 34.5155 6.1665 38.4066 6.1665 43.2063V47.3365H94.3043V43.2063C94.3043 38.4066 90.4093 34.5155 85.605 34.5155H85.6036Z" fill="#233454"/>
<path d="M64.8345 38.7118C63.1752 38.7118 61.8311 40.0533 61.8311 41.7081C61.8311 43.363 63.1752 44.7045 64.8345 44.7045C66.4937 44.7045 67.8379 43.363 67.8379 41.7081C67.8379 40.0533 66.4937 38.7118 64.8345 38.7118Z" fill="white"/>
<path d="M75.519 38.7118C73.8598 38.7118 72.5156 40.0533 72.5156 41.7081C72.5156 43.363 73.8598 44.7045 75.519 44.7045C77.1783 44.7045 78.5225 43.363 78.5225 41.7081C78.5225 40.0533 77.1783 38.7118 75.519 38.7118Z" fill="white"/>
<path d="M86.2051 38.7118C84.5458 38.7118 83.2017 40.0533 83.2017 41.7081C83.2017 43.363 84.5458 44.7045 86.2051 44.7045C87.8643 44.7045 89.2085 43.363 89.2085 41.7081C89.2085 40.0533 87.8643 38.7118 86.2051 38.7118Z" fill="white"/>
<path d="M72.7206 78.9698H66.3354V90.6556H72.7206V78.9698Z" fill="#98B0DB"/>
<path d="M59.7446 77.1322H53.3608V90.6556H59.7446V77.1322Z" fill="#98B0DB"/>
<path d="M46.7714 85.6772H40.3862V90.6569H46.7714V85.6772Z" fill="#98B0DB"/>
<path d="M33.7973 89.1202H27.4121V90.6569H33.7973V89.1202Z" fill="#98B0DB"/>
<path d="M75.7129 63.4879H69.3291V90.657H75.7129V63.4879Z" fill="#324175"/>
<path d="M62.7387 63.4879H56.3535V90.657H62.7387V63.4879Z" fill="#324175"/>
<path d="M49.766 72.5869H43.3809V90.657H49.766V72.5869Z" fill="#324175"/>
<path d="M36.7909 79.1183H30.4058V90.6569H36.7909V79.1183Z" fill="#324175"/>
<path d="M68.6122 61.4001L70.7021 65.4671L69.0016 66.8361L60.6008 58.8092L46.0171 71.666L42.246 66.3028L25.4541 82.7263V92.353L26.7859 91.0404L29.2624 88.6681L29.2885 88.5746L41.4343 76.6154L45.0059 81.6941L60.4453 68.0813L68.8144 76.0752L74.6259 71.0433L77.1299 75.1117L80.597 65.0493L81.9453 59.6449L68.6122 61.4001Z" fill="#B5C9E4"/>
<path d="M79.3323 62.0515L71.4186 63.0796L72.987 65.5963L68.506 69.4764L60.1135 61.4578L45.2863 74.5317L41.5716 69.2469L26.7856 83.7062V87.8791L41.2207 73.663L44.8543 78.8283L60.0475 65.4327L68.4248 73.4362L74.5651 68.1226L76.1349 70.6392L79.3323 62.0515Z" fill="#F57C00"/>
<path d="M40.4312 55.2727L39.1641 55.0253L39.4585 53.3815L40.7256 53.6289L40.4312 55.2727Z" fill="#B5C9E4"/>
<path d="M37.0933 56.4946L35.8784 55.4047L36.719 54.3834L37.9339 55.4734L37.0933 56.4946Z" fill="#B5C9E4"/>
<path d="M35.7673 59.656L35.3408 58.3846L36.8542 57.832L37.2793 59.1034L35.7673 59.656Z" fill="#B5C9E4"/>
<path d="M39.2383 61.8812L37.9712 61.631L38.2684 59.9885L39.5355 60.2373L39.2383 61.8812Z" fill="#B5C9E4"/>
<path d="M41.9776 60.8778L40.7642 59.7878L41.6048 58.7666L42.8183 59.8566L41.9776 60.8778Z" fill="#B5C9E4"/>
<path d="M41.8441 57.4293L41.4189 56.1579L42.931 55.604L43.3561 56.8754L41.8441 57.4293Z" fill="#B5C9E4"/>
<path d="M39.3512 60.8297C38.3373 60.8297 37.3907 60.3088 36.8197 59.4388C35.8677 57.9818 36.2268 55.9861 37.6191 54.991C38.9729 54.0275 40.9596 54.422 41.8786 55.8281C42.8307 57.2836 42.4716 59.2766 41.0779 60.2745C40.5647 60.6387 39.969 60.8311 39.3512 60.8311V60.8297ZM39.3457 55.7786C38.9894 55.7786 38.6427 55.8899 38.3469 56.1016C37.5407 56.6788 37.3329 57.8361 37.8846 58.6801C38.4157 59.4883 39.5672 59.7219 40.3515 59.1611C41.1577 58.5839 41.3668 57.4293 40.8151 56.5881C40.4835 56.0823 39.9346 55.7799 39.3471 55.7799L39.3457 55.7786Z" fill="#B5C9E4"/>
<path d="M22.1413 61.44L19.2383 60.8696L19.7707 57.9159L22.6737 58.4849L22.1413 61.44Z" fill="#B5C9E4"/>
<path d="M23.6822 56.874L22.0161 54.3299L24.3908 52.6324L26.0583 55.1766L23.6822 56.874Z" fill="#B5C9E4"/>
<path d="M30.692 55.3373L27.8633 54.7848L28.4081 51.7527L31.2368 52.3066L30.692 55.3373Z" fill="#B5C9E4"/>
<path d="M33.8617 58.8725L32.2368 56.3916L34.6734 54.6515L36.2982 57.1324L33.8617 58.8725Z" fill="#B5C9E4"/>
<path d="M36.611 64.2783L33.708 63.7106L34.2377 60.7555L37.1421 61.3231L36.611 64.2783Z" fill="#B5C9E4"/>
<path d="M31.9907 69.5644L30.3232 67.0189L32.6979 65.3214L34.3654 67.8669L31.9907 69.5644Z" fill="#B5C9E4"/>
<path d="M27.9718 70.4427L25.1431 69.8874L25.6893 66.8595L28.518 67.4148L27.9718 70.4427Z" fill="#B5C9E4"/>
<path d="M21.7079 67.5439L20.083 65.0658L22.5196 63.3243L24.1444 65.8039L21.7079 67.5439Z" fill="#B5C9E4"/>
<path d="M28.1962 68.7438C25.7733 68.7438 23.5101 67.4986 22.1439 65.4121C19.8669 61.932 20.7255 57.1653 24.0577 54.7875C25.2822 53.9147 26.7089 53.4529 28.1865 53.4529C30.6093 53.4529 32.8712 54.6981 34.2374 56.7846C36.5157 60.2647 35.6558 65.0314 32.3236 67.412C31.1005 68.2847 29.6738 68.7438 28.1975 68.7438H28.1962ZM28.1865 56.4575C27.2909 56.4575 26.4255 56.7379 25.6825 57.2684C23.6601 58.7116 23.1386 61.6035 24.52 63.716C25.3496 64.9833 26.724 65.7379 28.1962 65.7379C29.0904 65.7379 29.9558 65.4588 30.6988 64.9297C32.7212 63.4851 33.244 60.5905 31.8613 58.4793C31.0317 57.2134 29.6573 56.4575 28.1865 56.4575Z" fill="#B5C9E4"/>
<defs>
<linearGradient id="paint0_linear_1010_5478" x1="48.4209" y1="289.054" x2="338.581" y2="289.054" gradientUnits="userSpaceOnUse">
<stop stop-color="#D1C3C9"/>
<stop offset="1" stop-color="#AC9FA5"/>
</linearGradient>
</defs>
</svg>
