<svg width="145" height="145" viewBox="0 0 145 145" fill="none" xmlns="http://www.w3.org/2000/svg">
<g id="data (1) 1" clip-path="url(#clip0_1010_5764)">
<path id="Vector" d="M133.135 122.575H128.619V51.9282C128.619 51.4946 128.447 51.0836 128.138 50.7711C127.831 50.4666 127.417 50.2957 126.984 50.2955H95.5788V45.7795H126.984C128.618 45.7795 130.163 46.4182 131.33 47.5775C131.903 48.1478 132.357 48.8258 132.667 49.5723C132.976 50.3188 133.135 51.1192 133.135 51.9275L133.135 122.575ZM16.3827 122.575H11.8667V51.9282C11.8667 50.2919 12.5069 48.7491 13.6698 47.5847C14.2379 47.0101 14.9149 46.5545 15.6612 46.2445C16.4075 45.9346 17.2081 45.7765 18.0161 45.7795H49.4224V50.2955H18.0161C17.5811 50.2955 17.173 50.4637 16.8692 50.7711C16.7156 50.9222 16.5934 51.1023 16.5098 51.3009C16.4262 51.4995 16.3828 51.7127 16.382 51.9282L16.3827 122.575Z" fill="#181818"/>
<path id="Vector_2" d="M136.925 137.463H8.07293C7.01366 137.465 5.96435 137.258 4.9853 136.854C4.00624 136.45 3.11674 135.856 2.3679 135.107C1.61416 134.359 1.01666 133.469 0.610152 132.488C0.203645 131.507 -0.00374421 130.455 5.11661e-05 129.394V120.317H52.9715L57.9885 124.331H87.0109L92.0279 120.317H145V129.394C145 131.553 144.161 133.582 142.637 135.105C141.887 135.855 140.996 136.45 140.016 136.854C139.036 137.259 137.985 137.466 136.925 137.463ZM4.51608 124.833V129.394C4.51608 130.348 4.88438 131.24 5.55355 131.906C5.88439 132.237 6.27732 132.5 6.70979 132.678C7.14225 132.857 7.60574 132.948 8.07365 132.948H136.926C137.395 132.949 137.859 132.858 138.292 132.68C138.724 132.501 139.117 132.238 139.448 131.906C139.779 131.577 140.041 131.186 140.219 130.754C140.397 130.323 140.488 129.86 140.486 129.394V124.833H93.6121L88.5943 128.847H56.4058L51.3888 124.833H4.51608ZM25.0865 110.283H29.6025V114.799H25.0865V110.283ZM34.1178 110.283H38.6339V114.799H34.1178V110.283ZM43.1492 110.283H47.6652V114.799H43.1492V110.283ZM52.1798 110.283H56.6958V114.799H52.1798V110.283ZM61.2111 110.283H65.7264V114.799H61.2111V110.283ZM70.2424 110.283H74.7584V114.799H70.2424V110.283ZM79.2737 110.283H83.7897V114.799H79.2737V110.283ZM88.3043 110.283H92.8204V114.799H88.3043V110.283ZM97.3357 110.283H101.852V114.799H97.3357V110.283ZM106.367 110.283H110.883V114.799H106.367V110.283ZM115.398 110.283H119.914V114.799H115.398V110.283Z" fill="#181818"/>
<g id="Group">
<path id="Vector_3" d="M43.1493 48.0371H38.6333C38.6333 29.3633 53.8257 14.1702 72.5002 14.1702H79.7952V18.6862H72.5002C56.3168 18.6862 43.1493 31.8529 43.1493 48.0371Z" fill="#181818"/>
<path id="Vector_4" d="M74.0967 25.3192L70.9038 22.127L76.6009 16.4285L70.9038 10.73L74.0967 7.53711L82.9889 16.4285L74.0967 25.3192ZM72.5003 81.904H65.2075V77.388H72.5003C88.6837 77.388 101.851 64.222 101.851 48.0371H106.367C106.367 66.7109 91.1748 81.904 72.5003 81.904Z" fill="#181818"/>
<path id="Vector_5" d="M70.9058 88.5378L62.0137 79.6456L70.9058 70.7557L74.098 73.9486L68.4009 79.6456L74.098 85.3456L70.9058 88.5378ZM72.4993 55.3125C68.4872 55.3125 65.224 52.0492 65.224 48.0371C65.224 44.0249 68.4872 40.7617 72.4993 40.7617C76.5115 40.7617 79.7747 44.0249 79.7747 48.0371C79.7747 52.0492 76.5108 55.3125 72.4993 55.3125ZM72.4993 45.2777C70.9776 45.2777 69.74 46.5153 69.74 48.0371C69.74 49.5589 70.9776 50.7964 72.4993 50.7964C74.0211 50.7964 75.2587 49.5589 75.2587 48.0371C75.2587 46.5153 74.0211 45.2777 72.4993 45.2777Z" fill="#181818"/>
<path id="Vector_6" d="M72.4993 66.3505C62.4022 66.3505 54.1865 58.1355 54.1865 48.037C54.1865 37.9385 62.4022 29.7242 72.4993 29.7242C82.5964 29.7242 90.8121 37.9392 90.8121 48.037C90.8121 58.1348 82.5964 66.3505 72.4993 66.3505ZM72.4993 34.2395C64.8911 34.2395 58.7018 40.4289 58.7018 48.037C58.7018 55.6452 64.8904 61.8352 72.4993 61.8352C80.1082 61.8352 86.2968 55.6459 86.2968 48.0377C86.2968 40.4296 80.1074 34.2395 72.4993 34.2395Z" fill="#181818"/>
</g>
</g>
<defs>
<clipPath id="clip0_1010_5764">
<rect width="145" height="145" fill="white"/>
</clipPath>
</defs>
</svg>
