<svg width="498" height="313" viewBox="0 0 498 313" fill="none" xmlns="http://www.w3.org/2000/svg">
<path d="M51.9937 238.367C80.709 238.367 103.987 215.145 103.987 186.5C103.987 157.855 80.709 134.634 51.9937 134.634C23.2784 134.634 0 157.855 0 186.5C0 215.145 23.2784 238.367 51.9937 238.367Z" fill="#D5E5FF"/>
<path d="M370.381 195.901C423.285 195.901 466.172 153.119 466.172 100.344C466.172 47.5698 423.285 4.78764 370.381 4.78764C317.478 4.78764 274.591 47.5698 274.591 100.344C274.591 153.119 317.478 195.901 370.381 195.901Z" fill="#D5E5FF"/>
<path d="M270.686 22.9659C277.044 22.9659 282.198 17.8248 282.198 11.483C282.198 5.1411 277.044 0 270.686 0C264.329 0 259.175 5.1411 259.175 11.483C259.175 17.8248 264.329 22.9659 270.686 22.9659Z" fill="#D5E5FF"/>
<path d="M17.1149 246C17.7211 243.455 16.1448 240.902 13.5941 240.298C11.0434 239.693 8.48424 241.265 7.87799 243.81C7.27174 246.354 8.84802 248.907 11.3987 249.512C13.9494 250.117 16.5086 248.544 17.1149 246Z" fill="#D5E5FF"/>
<path d="M415.651 72.0231V226.96H125.721V72.0231C125.721 65.9964 130.622 61.1076 136.667 61.1076H404.709C410.75 61.1076 415.651 65.9964 415.651 72.0231Z" fill="#F57C00"/>
<path d="M320.353 308.853H221.02L239.32 239.094H302.053L320.353 308.853Z" fill="#E6EDFF"/>
<path d="M125.721 226.96V249.804C125.721 257.027 131.591 262.875 138.825 262.875H402.544C409.779 262.875 415.648 257.024 415.648 249.804V226.96H125.721Z" fill="#284080"/>
<path d="M332.066 304.707H209.306V313H332.066V304.707Z" fill="#284080"/>
<g style="mix-blend-mode:multiply" opacity="0.6">
<path d="M233.081 262.875L232.061 266.764L311.833 276.38L308.291 262.875H233.081Z" fill="#9DAFD5"/>
</g>
<path d="M154.253 249.791C157.028 249.791 159.277 247.548 159.277 244.78C159.277 242.012 157.028 239.768 154.253 239.768C151.479 239.768 149.229 242.012 149.229 244.78C149.229 247.548 151.479 249.791 154.253 249.791Z" fill="#E6EDFF"/>
<path d="M363.827 66.2541H177.543V195.953H363.827V66.2541Z" fill="white"/>
<path d="M363.827 45.9104H177.543V66.2541H363.827V45.9104Z" fill="#435E6D"/>
<path d="M308.472 111.462C308.423 111.462 308.371 111.462 308.322 111.462C305.924 98.0469 294.17 87.8644 280.03 87.8644C267.698 87.8644 257.183 95.6117 253.106 106.494C250.311 105.113 247.163 104.334 243.833 104.334C232.276 104.334 222.908 113.68 222.908 125.209C222.908 127.8 223.384 130.281 224.248 132.573C217.038 132.885 211.289 138.811 211.289 146.08C211.289 153.349 217.358 159.602 224.845 159.602C225.583 159.602 226.302 159.541 227.009 159.427V159.602H308.472C321.798 159.602 332.602 148.825 332.602 135.532C332.602 122.24 321.798 111.462 308.472 111.462Z" fill="#D8E6FF"/>
<g style="mix-blend-mode:multiply" opacity="0.15">
<path d="M272.387 167.712H268.344L271.326 145.893H259.91L256.928 167.712H252.885C252.199 167.712 251.717 168.457 252.07 168.963L260.23 180.615C260.504 181.007 261.137 181.007 261.518 180.615L272.863 168.963C273.355 168.457 273.075 167.712 272.39 167.712H272.387Z" fill="#284080"/>
</g>
<g style="mix-blend-mode:multiply" opacity="0.15">
<path d="M276.098 144.19H280.141L277.158 166.009H288.574L291.557 144.19H295.6C296.285 144.19 296.768 143.448 296.414 142.939L288.254 131.287C287.981 130.895 287.347 130.895 286.966 131.287L275.621 142.939C275.129 143.445 275.409 144.19 276.095 144.19H276.098Z" fill="#284080"/>
</g>
<path d="M271.126 167.92H267.083V144.81H255.667V167.92H251.624C250.939 167.92 250.558 168.708 250.982 169.245L260.734 181.587C261.063 182.001 261.694 182.001 262.023 181.587L271.775 169.245C272.199 168.708 271.815 167.92 271.132 167.92H271.126Z" fill="#435E6D"/>
<path d="M272.768 143.007H276.811V166.117H288.227V143.007H292.27C292.955 143.007 293.336 142.218 292.912 141.682L283.16 129.34C282.831 128.926 282.2 128.926 281.871 129.34L272.119 141.682C271.695 142.218 272.079 143.007 272.762 143.007H272.768Z" fill="white"/>
<path d="M353.451 56.9159C353.916 54.9508 352.696 52.9818 350.726 52.518C348.756 52.0542 346.782 53.2712 346.317 55.2363C345.853 57.2014 347.073 59.1704 349.042 59.6342C351.012 60.098 352.986 58.881 353.451 56.9159Z" fill="#E6EDFF"/>
<path d="M341.661 56.9173C342.126 54.9522 340.906 52.9831 338.936 52.5193C336.966 52.0555 334.992 53.2726 334.527 55.2377C334.062 57.2028 335.282 59.1718 337.252 59.6356C339.222 60.0994 341.196 58.8824 341.661 56.9173Z" fill="#E6EDFF"/>
<path d="M329.87 56.9156C330.335 54.9505 329.115 52.9814 327.145 52.5176C325.175 52.0538 323.201 53.2709 322.736 55.236C322.271 57.2011 323.491 59.1701 325.461 59.6339C327.431 60.0977 329.405 58.8807 329.87 56.9156Z" fill="#F57C00"/>
<g style="mix-blend-mode:multiply" opacity="0.4">
<path d="M236.479 180.357L246.37 262.765H236.479V180.357Z" fill="#284080"/>
</g>
<g style="mix-blend-mode:multiply" opacity="0.4">
<path d="M363.83 195.953C363.83 194.668 375.946 61.1076 375.946 61.1076H363.83V195.953Z" fill="#284080"/>
</g>
<path d="M37.9092 289.482V297.984C37.9092 301.045 40.2151 303.529 43.059 303.529H231.344C234.188 303.529 236.479 301.045 236.479 297.984V289.482H37.9092Z" fill="#284080"/>
<path d="M236.479 180.357V289.482H37.9058V180.357C37.9058 177.296 40.2147 174.833 43.0618 174.833H231.344C234.188 174.833 236.479 177.296 236.479 180.357Z" fill="#F57C00"/>
<path d="M28.8022 308.265V310.117C28.8022 311.709 30.0013 313 31.4802 313H242.951C244.43 313 245.629 311.709 245.629 310.117V308.265H28.8022Z" fill="#B6CDFF"/>
<path d="M245.629 306.412C245.629 304.82 244.43 303.529 242.951 303.529H31.4802C30.0013 303.529 28.8022 304.82 28.8022 306.412V308.264H245.629V306.412Z" fill="#E6EDFF"/>
<path d="M137.214 299.131C138.667 299.131 139.846 297.955 139.846 296.506C139.846 295.056 138.667 293.88 137.214 293.88C135.76 293.88 134.582 295.056 134.582 296.506C134.582 297.955 135.76 299.131 137.214 299.131Z" fill="#E6EDFF"/>
<path d="M489.84 145.249H358.059C356.947 145.249 356.045 146.148 356.045 147.257V158.36C356.045 159.47 356.947 160.369 358.059 160.369H489.84C490.952 160.369 491.854 159.47 491.854 158.36V147.257C491.854 146.148 490.952 145.249 489.84 145.249Z" fill="#2D4351"/>
<path d="M494.295 108.509H353.604C351.558 108.509 349.899 110.163 349.899 112.204V151.766C349.899 153.807 351.558 155.462 353.604 155.462H494.295C496.341 155.462 498 153.807 498 151.766V112.204C498 110.163 496.341 108.509 494.295 108.509Z" fill="#435E6D"/>
<path d="M367.605 117.207H366.794C365.259 117.207 364.014 118.448 364.014 119.979V143.994C364.014 145.525 365.259 146.767 366.794 146.767H367.605C369.14 146.767 370.385 145.525 370.385 143.994V119.979C370.385 118.448 369.14 117.207 367.605 117.207Z" fill="#2D4351"/>
<path d="M381.053 117.207H380.242C378.707 117.207 377.462 118.448 377.462 119.979V143.994C377.462 145.525 378.707 146.767 380.242 146.767H381.053C382.589 146.767 383.833 145.525 383.833 143.994V119.979C383.833 118.448 382.589 117.207 381.053 117.207Z" fill="#2D4351"/>
<path d="M394.498 117.207H393.687C392.152 117.207 390.907 118.448 390.907 119.979V143.994C390.907 145.525 392.152 146.767 393.687 146.767H394.498C396.033 146.767 397.278 145.525 397.278 143.994V119.979C397.278 118.448 396.033 117.207 394.498 117.207Z" fill="#2D4351"/>
<path d="M407.947 117.207H407.135C405.6 117.207 404.355 118.448 404.355 119.979V143.994C404.355 145.525 405.6 146.767 407.135 146.767H407.947C409.482 146.767 410.726 145.525 410.726 143.994V119.979C410.726 118.448 409.482 117.207 407.947 117.207Z" fill="#2D4351"/>
<path d="M489.84 195.901H358.059C356.947 195.901 356.045 196.8 356.045 197.91V209.012C356.045 210.122 356.947 211.021 358.059 211.021H489.84C490.952 211.021 491.854 210.122 491.854 209.012V197.91C491.854 196.8 490.952 195.901 489.84 195.901Z" fill="#2D4351"/>
<path d="M353.604 159.161H494.295C496.34 159.161 498 160.817 498 162.856V202.418C498 204.458 496.34 206.114 494.295 206.114H353.604C351.559 206.114 349.899 204.458 349.899 202.418V162.856C349.899 160.817 351.559 159.161 353.604 159.161Z" fill="#435E6D"/>
<path d="M367.605 167.859H366.794C365.259 167.859 364.014 169.1 364.014 170.631V194.646C364.014 196.177 365.259 197.419 366.794 197.419H367.605C369.14 197.419 370.385 196.177 370.385 194.646V170.631C370.385 169.1 369.14 167.859 367.605 167.859Z" fill="#2D4351"/>
<path d="M381.053 167.859H380.242C378.707 167.859 377.462 169.1 377.462 170.631V194.646C377.462 196.177 378.707 197.419 380.242 197.419H381.053C382.589 197.419 383.833 196.177 383.833 194.646V170.631C383.833 169.1 382.589 167.859 381.053 167.859Z" fill="#2D4351"/>
<path d="M394.498 167.859H393.687C392.152 167.859 390.907 169.1 390.907 170.631V194.646C390.907 196.177 392.152 197.419 393.687 197.419H394.498C396.033 197.419 397.278 196.177 397.278 194.646V170.631C397.278 169.1 396.033 167.859 394.498 167.859Z" fill="#2D4351"/>
<path d="M407.947 167.859H407.135C405.6 167.859 404.355 169.1 404.355 170.631V194.646C404.355 196.177 405.6 197.419 407.135 197.419H407.947C409.482 197.419 410.726 196.177 410.726 194.646V170.631C410.726 169.1 409.482 167.859 407.947 167.859Z" fill="#2D4351"/>
<path d="M491.857 248.641V260.259C491.857 260.581 491.74 260.882 491.543 261.14C491.143 261.661 490.403 262.011 489.551 262.011H358.357C357.505 262.011 356.761 261.661 356.365 261.14C356.165 260.882 356.048 260.581 356.048 260.259V248.641C356.048 247.672 357.081 246.89 358.357 246.89H489.551C490.821 246.89 491.86 247.675 491.86 248.641H491.857Z" fill="#2D4351"/>
<path d="M498 213.377V253.88C498 255.662 496.103 257.106 493.757 257.106H354.151C351.805 257.106 349.902 255.662 349.902 253.88V213.377C349.902 211.595 351.802 210.15 354.151 210.15H493.757C496.103 210.15 498 211.595 498 213.377Z" fill="#435E6D"/>
<path d="M367.605 218.848H366.794C365.259 218.848 364.014 220.09 364.014 221.621V245.636C364.014 247.167 365.259 248.408 366.794 248.408H367.605C369.14 248.408 370.385 247.167 370.385 245.636V221.621C370.385 220.09 369.14 218.848 367.605 218.848Z" fill="#2D4351"/>
<path d="M381.053 218.848H380.242C378.707 218.848 377.462 220.09 377.462 221.621V245.636C377.462 247.167 378.707 248.408 380.242 248.408H381.053C382.589 248.408 383.833 247.167 383.833 245.636V221.621C383.833 220.09 382.589 218.848 381.053 218.848Z" fill="#2D4351"/>
<path d="M489.84 297.876H358.059C356.947 297.876 356.045 298.776 356.045 299.885V310.988C356.045 312.097 356.947 312.997 358.059 312.997H489.84C490.952 312.997 491.854 312.097 491.854 310.988V299.885C491.854 298.776 490.952 297.876 489.84 297.876Z" fill="#2D4351"/>
<path d="M498 264.363V304.869C498 306.648 496.103 308.093 493.757 308.093H354.151C351.805 308.093 349.902 306.648 349.902 304.869V264.363C349.902 262.584 351.802 261.14 354.151 261.14H493.757C496.103 261.14 498 262.584 498 264.363Z" fill="#435E6D"/>
<path d="M367.605 269.835H366.794C365.259 269.835 364.014 271.076 364.014 272.607V296.622C364.014 298.153 365.259 299.395 366.794 299.395H367.605C369.14 299.395 370.385 298.153 370.385 296.622V272.607C370.385 271.076 369.14 269.835 367.605 269.835Z" fill="#2D4351"/>
<path d="M381.053 269.835H380.242C378.707 269.835 377.462 271.076 377.462 272.607V296.622C377.462 298.153 378.707 299.395 380.242 299.395H381.053C382.589 299.395 383.833 298.153 383.833 296.622V272.607C383.833 271.076 382.589 269.835 381.053 269.835Z" fill="#2D4351"/>
<path d="M394.498 269.835H393.687C392.152 269.835 390.907 271.076 390.907 272.607V296.622C390.907 298.153 392.152 299.395 393.687 299.395H394.498C396.033 299.395 397.278 298.153 397.278 296.622V272.607C397.278 271.076 396.033 269.835 394.498 269.835Z" fill="#2D4351"/>
<path d="M407.947 269.835H407.135C405.6 269.835 404.355 271.076 404.355 272.607V296.622C404.355 298.153 405.6 299.395 407.135 299.395H407.947C409.482 299.395 410.726 298.153 410.726 296.622V272.607C410.726 271.076 409.482 269.835 407.947 269.835Z" fill="#2D4351"/>
<path d="M409.431 221.004H392.202C391.487 221.004 390.907 221.582 390.907 222.296V230.448C390.907 231.161 391.487 231.739 392.202 231.739H409.431C410.146 231.739 410.726 231.161 410.726 230.448V222.296C410.726 221.582 410.146 221.004 409.431 221.004Z" fill="#2D4351"/>
<path d="M409.431 234.683H392.202C391.487 234.683 390.907 235.261 390.907 235.975V244.127C390.907 244.84 391.487 245.418 392.202 245.418H409.431C410.146 245.418 410.726 244.84 410.726 244.127V235.975C410.726 235.261 410.146 234.683 409.431 234.683Z" fill="#2D4351"/>
<path d="M445.121 135.67C447.16 135.67 448.813 134.021 448.813 131.987C448.813 129.952 447.16 128.303 445.121 128.303C443.081 128.303 441.428 129.952 441.428 131.987C441.428 134.021 443.081 135.67 445.121 135.67Z" fill="#0F62FE"/>
<path d="M457.493 135.67C459.532 135.67 461.185 134.021 461.185 131.987C461.185 129.952 459.532 128.303 457.493 128.303C455.453 128.303 453.8 129.952 453.8 131.987C453.8 134.021 455.453 135.67 457.493 135.67Z" fill="#2D4351"/>
<path d="M469.861 135.67C471.901 135.67 473.554 134.021 473.554 131.987C473.554 129.952 471.901 128.303 469.861 128.303C467.822 128.303 466.169 129.952 466.169 131.987C466.169 134.021 467.822 135.67 469.861 135.67Z" fill="#E6EDFF"/>
<path d="M446.534 186.041C448.418 185.263 449.313 183.108 448.532 181.228C447.752 179.349 445.592 178.456 443.708 179.235C441.824 180.013 440.929 182.168 441.709 184.048C442.49 185.927 444.65 186.82 446.534 186.041Z" fill="#2D4351"/>
<path d="M460.104 185.243C461.546 183.805 461.546 181.473 460.104 180.034C458.662 178.596 456.324 178.596 454.882 180.034C453.44 181.473 453.44 183.805 454.882 185.243C456.324 186.682 458.662 186.682 460.104 185.243Z" fill="#E6EDFF"/>
<path d="M472.472 185.244C473.914 183.806 473.914 181.474 472.472 180.035C471.03 178.597 468.692 178.597 467.25 180.035C465.808 181.474 465.808 183.806 467.25 185.244C468.692 186.683 471.03 186.683 472.472 185.244Z" fill="#2D4351"/>
<path d="M445.121 237.312C447.16 237.312 448.813 235.663 448.813 233.628C448.813 231.594 447.16 229.945 445.121 229.945C443.081 229.945 441.428 231.594 441.428 233.628C441.428 235.663 443.081 237.312 445.121 237.312Z" fill="#E6EDFF"/>
<path d="M457.493 237.312C459.532 237.312 461.185 235.663 461.185 233.628C461.185 231.594 459.532 229.945 457.493 229.945C455.453 229.945 453.8 231.594 453.8 233.628C453.8 235.663 455.453 237.312 457.493 237.312Z" fill="#2D4351"/>
<path d="M469.861 237.312C471.901 237.312 473.554 235.663 473.554 233.628C473.554 231.594 471.901 229.945 469.861 229.945C467.822 229.945 466.169 231.594 466.169 233.628C466.169 235.663 467.822 237.312 469.861 237.312Z" fill="#2D4351"/>
<path d="M445.121 288.298C447.16 288.298 448.813 286.649 448.813 284.615C448.813 282.58 447.16 280.931 445.121 280.931C443.081 280.931 441.428 282.58 441.428 284.615C441.428 286.649 443.081 288.298 445.121 288.298Z" fill="#2D4351"/>
<path d="M457.493 288.298C459.532 288.298 461.185 286.649 461.185 284.615C461.185 282.58 459.532 280.931 457.493 280.931C455.453 280.931 453.8 282.58 453.8 284.615C453.8 286.649 455.453 288.298 457.493 288.298Z" fill="#2D4351"/>
<path d="M469.861 288.298C471.901 288.298 473.554 286.649 473.554 284.615C473.554 282.58 471.901 280.931 469.861 280.931C467.822 280.931 466.169 282.58 466.169 284.615C466.169 286.649 467.822 288.298 469.861 288.298Z" fill="#0F62FE"/>
<g style="mix-blend-mode:multiply" opacity="0.4">
<path d="M114.595 214.432L107.422 207.884C106.853 207.365 106.124 207.062 105.442 207.062H82.3517C81.1158 207.062 80.3779 208.034 80.7099 209.233L82.3671 215.254L95.6061 263.32C95.9351 264.519 97.208 265.492 98.4439 265.492H164.993C166.232 265.492 166.966 264.519 166.634 263.32L153.995 217.425C153.666 216.226 152.393 215.254 151.157 215.254H116.578C115.895 215.254 115.166 214.95 114.598 214.432H114.595Z" fill="#284080"/>
</g>
<path d="M121.654 209.843L114.89 202.55C114.355 201.973 113.644 201.636 112.962 201.636H89.8721C88.6361 201.636 87.8398 202.719 88.095 204.056L89.3771 210.76L99.6122 264.295C99.8674 265.633 101.079 266.715 102.315 266.715H168.863C170.099 266.715 170.896 265.633 170.64 264.295L160.87 213.18C160.614 211.843 159.403 210.76 158.167 210.76H123.588C122.905 210.76 122.195 210.423 121.66 209.846L121.654 209.843Z" fill="#E6EDFF"/>
<g style="mix-blend-mode:multiply" opacity="0.6">
<path d="M174.739 259.738H110.785C109.737 259.738 108.971 259.06 109.073 258.226L113.552 221.811C113.654 220.977 114.588 220.299 115.637 220.299H179.59C180.639 220.299 181.404 220.977 181.303 221.811L176.823 258.226C176.722 259.06 175.787 259.738 174.739 259.738Z" fill="#9DAFD5"/>
</g>
<path d="M176.196 261.342H109.143C108.046 261.342 107.431 260.554 107.772 259.581L122.677 217.158C123.019 216.186 124.187 215.398 125.285 215.398H192.337C193.435 215.398 194.05 216.186 193.709 217.158L178.803 259.581C178.462 260.554 177.294 261.342 176.196 261.342Z" fill="white"/>
</svg>
