<svg width="307" height="307" viewBox="0 0 307 307" fill="none" xmlns="http://www.w3.org/2000/svg">
<g clip-path="url(#clip0_1010_4717)">
<path d="M180.192 4.38661C109.159 -8.71444 55.0514 40.2668 51.0407 44.0188C44.6826 49.965 -1.3346 89.6374 0.0302393 159.739C1.88971 255.276 32.783 283.009 61.0439 294.46C66.3977 296.629 86.8937 295.746 94.2025 296.956C105.928 298.897 120.515 306.658 139.452 306.961C204.664 308.011 296.755 289.235 306.355 180.928C313.756 97.4118 256.555 18.4714 180.192 4.38829V4.38661Z" fill="#CADDFF"/>
<path d="M299.284 220.138L118.288 195.139C113.745 194.563 110.339 190.722 110.339 186.173L107.856 60.7897C107.856 60.7897 111.982 57.8351 114.32 56.7036C115.51 56.1278 116.88 55.8743 118.305 56.0556L298.762 78.9119C303.306 79.4877 306.712 83.3287 306.712 87.8782V211.027C306.712 213.23 305.697 215.174 304.13 216.454C302.686 217.633 299.284 220.138 299.284 220.138Z" fill="#5479F7"/>
<path d="M293.761 221.803L113.304 198.947C108.76 198.371 105.354 194.53 105.354 189.98V66.8315C105.354 62.5994 109.095 59.3292 113.322 59.8647L293.779 82.721C298.323 83.2968 301.729 87.1378 301.729 91.6873V214.836C301.729 219.068 297.988 222.338 293.761 221.803Z" fill="#99B9FF"/>
<path d="M289.925 216.728L117.616 194.904C114.311 194.486 111.835 191.693 111.835 188.384V69.5948C111.835 66.7677 114.333 64.5837 117.155 64.9413L289.464 86.7651C292.768 87.1832 295.245 89.9766 295.245 93.2854V212.075C295.245 214.902 292.747 217.086 289.925 216.728Z" fill="white"/>
<path d="M301.727 174.012C301.42 174.012 301.17 173.762 301.17 173.455V91.6871C301.17 87.6296 298.407 84.1579 294.599 83.4327C294.086 83.3353 292.493 83.1188 292.478 83.1171L113.252 60.4169C111.384 60.1802 109.504 60.7577 108.098 61.9999C106.709 63.2254 105.911 64.9881 105.911 66.8331V74.8039C105.911 75.1111 105.661 75.3612 105.355 75.3612C105.048 75.3612 104.798 75.1111 104.798 74.8039V66.8331C104.798 64.6675 105.732 62.6026 107.36 61.1656C109.006 59.7118 111.203 59.0369 113.389 59.3139L292.621 82.0141C292.693 82.0242 294.264 82.2374 294.806 82.3398C299.138 83.1641 302.282 87.0957 302.282 91.6871V173.455C302.282 173.762 302.032 174.012 301.725 174.012H301.727Z" fill="black"/>
<path d="M188.482 294.331L2.88905 270.559C1.43702 270.375 0.617115 269.166 0.635559 267.959C0.648972 267.126 0.71604 261.259 0.71604 261.259L98.8487 205.543C103.765 202.754 110.126 201.676 115.743 202.39L298.992 225.867C300.095 226.008 301.041 226.718 301.479 227.736L301.774 228.421C301.774 228.421 301.616 233.314 301.68 234.457C301.73 235.351 301.324 236.274 300.382 236.809L204.713 291.136C199.796 293.924 194.097 295.047 188.482 294.332V294.331Z" fill="#99B9FF"/>
<path d="M188.482 287.8L3.553 264.074C1.0983 263.762 0.452765 260.529 2.6023 259.31L97.7588 205.334C102.675 202.546 108.374 201.423 113.989 202.138L298.918 225.864C301.373 226.176 302.019 229.409 299.869 230.628L204.713 284.604C199.796 287.392 194.097 288.515 188.482 287.8Z" fill="white"/>
<path d="M224.689 257.839L64.3321 237.115C62.1155 236.833 61.532 233.912 63.4719 232.812L101.176 211.641C105.618 209.123 110.763 208.109 115.836 208.754L276.192 229.478C278.409 229.76 278.993 232.681 277.053 233.783L239.348 254.953C234.907 257.472 229.761 258.486 224.689 257.841V257.839Z" fill="#CADDFF"/>
<path d="M192.27 288.624C191.079 288.624 189.82 288.532 188.412 288.354L82.8262 274.63C82.521 274.59 82.3064 274.311 82.3466 274.006C82.3852 273.7 82.6652 273.485 82.9704 273.526L188.554 287.249C192.198 287.713 194.802 287.568 197.838 286.732C198.133 286.652 198.44 286.825 198.522 287.122C198.604 287.419 198.43 287.725 198.133 287.807C196.123 288.361 194.297 288.626 192.27 288.626V288.624Z" fill="black"/>
<path d="M226.497 272.804C226.302 272.804 226.114 272.701 226.012 272.522C225.861 272.255 225.955 271.914 226.222 271.763L255.073 255.398C255.339 255.247 255.68 255.341 255.831 255.608C255.981 255.875 255.888 256.216 255.621 256.367L226.77 272.731C226.683 272.78 226.589 272.804 226.497 272.804Z" fill="black"/>
<path d="M286.995 238.488C286.801 238.488 286.613 238.386 286.511 238.206C286.36 237.939 286.454 237.599 286.72 237.447L299.594 230.145C300.521 229.619 300.709 228.703 300.575 228.021C300.439 227.335 299.914 226.552 298.846 226.416L294.01 225.795C293.705 225.757 293.491 225.478 293.529 225.172C293.569 224.867 293.849 224.652 294.151 224.691L298.985 225.31C300.348 225.483 301.4 226.463 301.663 227.805C301.926 229.139 301.328 230.439 300.139 231.112L287.265 238.414C287.178 238.463 287.084 238.487 286.992 238.487L286.995 238.488Z" fill="black"/>
<path d="M243.942 219.58C243.917 219.58 243.894 219.58 243.869 219.575L203.467 214.178C203.161 214.138 202.949 213.857 202.989 213.552C203.029 213.246 203.309 213.033 203.614 213.073L244.016 218.471C244.321 218.511 244.534 218.791 244.494 219.097C244.457 219.377 244.217 219.58 243.944 219.58H243.942Z" fill="black"/>
<path d="M18.1856 266.508C18.1622 266.508 18.1387 266.508 18.1135 266.503L3.48092 264.626C2.11776 264.454 1.06646 263.475 0.801544 262.132C0.538301 260.797 1.13689 259.498 2.32567 258.825L20.6722 248.418C20.9388 248.267 21.2792 248.361 21.4301 248.628C21.5826 248.895 21.4871 249.236 21.2205 249.387L2.87395 259.793C1.94673 260.319 1.75894 261.235 1.89308 261.917C2.02889 262.604 2.5537 263.386 3.62176 263.522L18.2544 265.399C18.5595 265.437 18.7742 265.716 18.7356 266.022C18.6987 266.302 18.4606 266.508 18.184 266.508H18.1856Z" fill="black"/>
<path d="M169.56 139.953L115.262 133.408V79.4072L169.56 85.9527V139.953Z" fill="#CADDFF"/>
<path d="M169.44 197.832L115.141 191.287V137.286L169.44 143.831V197.832Z" fill="#CADDFF"/>
<path d="M231.218 147.627L176.921 141.082V87.0808L231.218 93.6263V147.627Z" fill="#CADDFF"/>
<path d="M231.097 205.145L176.8 198.599V144.599L231.097 151.144V205.145Z" fill="#CADDFF"/>
<path d="M290.342 154.513L236.045 147.968V93.967L290.342 100.513V154.513Z" fill="#CADDFF"/>
<path d="M290.223 212.033L235.924 205.487V151.487L290.223 158.032V212.033Z" fill="#CADDFF"/>
<path d="M162.027 106.445L159.58 100.677C158.392 97.8751 155.677 95.8891 152.676 95.6273L130.78 93.7118C127.777 93.4482 125.064 94.9591 123.875 97.5528L121.429 102.893L129.321 106.83L129.47 127.233L153.761 129.624L154.138 109.002L162.03 106.447L162.027 106.445Z" fill="white"/>
<path d="M153.757 130.18C153.739 130.18 153.72 130.18 153.704 130.176L129.413 127.786C129.13 127.757 128.914 127.52 128.912 127.235L128.764 107.174L121.179 103.39C120.911 103.256 120.797 102.933 120.921 102.66L123.367 97.3195C124.656 94.5059 127.579 92.8708 130.827 93.1561L152.723 95.0716C155.93 95.352 158.823 97.4672 160.092 100.459L162.538 106.227C162.599 106.371 162.597 106.534 162.532 106.675C162.466 106.818 162.345 106.925 162.196 106.974L154.681 109.407L154.312 129.631C154.309 129.787 154.242 129.933 154.126 130.037C154.024 130.127 153.891 130.178 153.757 130.178V130.18ZM130.02 126.728L153.212 129.009L153.578 108.99C153.583 108.752 153.737 108.544 153.964 108.47L161.277 106.101L159.067 100.892C157.957 98.2747 155.429 96.4247 152.626 96.1796L130.729 94.2641C127.968 94.0207 125.468 95.4023 124.378 97.7828L122.155 102.633L129.564 106.329C129.752 106.423 129.871 106.615 129.873 106.823L130.019 126.725L130.02 126.728Z" fill="black"/>
<path d="M143.1 99.6429C142.636 99.6429 142.16 99.6227 141.677 99.5808C136.975 99.1695 133.292 96.9048 133.292 94.427C133.292 94.1198 133.541 93.8696 133.848 93.8696C134.155 93.8696 134.405 94.1198 134.405 94.427C134.405 96.0688 137.366 98.085 141.774 98.4711C144.599 98.7196 147.208 98.1622 148.417 97.0526C148.835 96.6698 149.048 96.2501 149.048 95.8052C149.048 95.498 149.297 95.2479 149.604 95.2479C149.911 95.2479 150.161 95.498 150.161 95.8052C150.161 96.564 149.819 97.2792 149.17 97.8735C147.941 99.0016 145.691 99.6429 143.1 99.6429Z" fill="black"/>
<path d="M152.61 149.203L133.057 146.972V145.261L152.61 147.491V149.203Z" fill="#5479F7"/>
<path d="M132.941 186.819C132.614 171.267 131.775 152.641 133.056 146.95L152.612 149.181C153.252 156.064 152.431 173.021 151.807 188.676L145.135 188.035L142.951 161.555L140.65 187.699L132.942 186.819H132.941Z" fill="#5479F7"/>
<path d="M152.421 149.878C152.399 149.878 152.379 149.878 152.357 149.875L133.063 147.674C132.758 147.639 132.538 147.363 132.574 147.058C132.609 146.752 132.882 146.534 133.189 146.568L152.483 148.768C152.788 148.804 153.008 149.079 152.972 149.385C152.94 149.668 152.699 149.878 152.421 149.878Z" fill="black"/>
<path d="M132.709 152.964C132.58 152.964 132.451 152.918 132.346 152.828C132.113 152.626 132.087 152.275 132.289 152.042L135.969 147.786C136.17 147.555 136.521 147.528 136.754 147.729C136.987 147.931 137.012 148.281 136.811 148.515L133.13 152.77C133.02 152.898 132.865 152.964 132.709 152.964Z" fill="black"/>
<path d="M152.612 154.891C152.431 154.891 152.251 154.802 152.146 154.637L149.27 150.204C149.102 149.945 149.176 149.601 149.433 149.433C149.691 149.265 150.035 149.339 150.202 149.598L153.078 154.031C153.246 154.29 153.172 154.634 152.915 154.802C152.821 154.862 152.716 154.893 152.612 154.893V154.891Z" fill="black"/>
<path d="M194.758 96.7318L197.104 96.0066C197.104 96.0066 197.109 96.6949 197.248 97.5024C198.215 103.101 206.17 104.224 207.763 98.9914C207.927 98.4509 208.063 97.7324 208.158 97.1163L210.088 97.9355C210.088 97.9355 209.723 106.833 210.14 108.606C210.558 110.377 215.719 135.426 215.719 135.426C215.719 135.426 209.931 136.807 205.917 135.639C205.917 135.639 204.718 135.177 204.978 133.923C205.237 132.671 202.996 133.443 202.996 134.056C202.996 134.668 203.209 136.612 197.888 135.528C197.419 135.432 197.053 135.029 197.015 134.564L196.923 133.423L195.124 133.418C195.124 133.418 195.593 136.112 191.683 135.311C187.773 134.511 189.233 130.658 189.233 130.658C189.233 130.658 194.552 109.692 194.916 107.835C195.281 105.978 194.76 96.7335 194.76 96.7335L194.758 96.7318Z" fill="#5479F7"/>
<path d="M210.697 111.201C210.41 109.84 210.209 108.9 210.14 108.604C209.749 106.942 210.046 99.005 210.085 98.033C209.731 99.2098 208.958 102.173 208.928 105.68C208.891 109.994 209.803 110.917 210.697 111.203V111.201Z" fill="#5479F7"/>
<path d="M203.023 134.69C202.739 134.69 202.496 134.474 202.469 134.187L202.447 133.963C202.338 132.805 202.156 130.864 201.777 129.223C200.601 124.133 200.965 110.907 200.98 110.347C200.989 110.039 201.239 109.796 201.552 109.806C201.859 109.814 202.1 110.071 202.092 110.378C202.089 110.514 201.716 124.022 202.86 128.972C203.256 130.686 203.443 132.672 203.554 133.859L203.576 134.083C203.604 134.388 203.381 134.66 203.075 134.69C203.056 134.692 203.039 134.694 203.021 134.694L203.023 134.69Z" fill="black"/>
<path d="M196.923 133.979H196.916C196.609 133.975 196.363 133.722 196.368 133.415C196.368 133.374 196.426 129.255 196.998 125.007C197.33 122.534 196.919 115.762 196.916 115.694C196.898 115.386 197.131 115.123 197.437 115.104C197.746 115.086 198.008 115.319 198.026 115.626C198.043 115.908 198.447 122.576 198.1 125.157C197.538 129.337 197.479 133.389 197.479 133.43C197.476 133.735 197.226 133.979 196.923 133.979Z" fill="black"/>
<path d="M204.978 134.479C204.924 134.479 204.869 134.47 204.815 134.454C204.522 134.363 204.356 134.052 204.446 133.759C205.502 130.307 205.207 117.901 205.204 117.777C205.196 117.47 205.439 117.214 205.746 117.206C206.057 117.199 206.307 117.441 206.316 117.748C206.329 118.265 206.617 130.461 205.509 134.084C205.435 134.324 205.216 134.479 204.978 134.479Z" fill="black"/>
<path d="M203.103 102.925C202.97 102.925 202.836 102.921 202.7 102.911C200.226 102.757 197.293 101.028 196.7 97.5964C196.648 97.2925 196.85 97.0055 197.152 96.9534C197.456 96.9014 197.742 97.1045 197.796 97.4067C198.286 100.242 200.717 101.672 202.769 101.8C204.459 101.906 206.515 101.179 207.231 98.8286C207.32 98.5332 207.63 98.3686 207.925 98.4576C208.219 98.5466 208.385 98.8588 208.294 99.1526C207.586 101.476 205.573 102.925 203.101 102.925H203.103Z" fill="black"/>
<path d="M209.761 136.659C208.406 136.659 207.003 136.534 205.761 136.171C205.746 136.166 205.73 136.161 205.715 136.156C205.149 135.938 204.149 135.165 204.433 133.807C204.433 133.807 204.433 133.804 204.433 133.802C204.206 133.792 203.707 133.97 203.552 134.135C203.556 134.475 203.549 135.222 202.882 135.775C202.01 136.497 200.34 136.592 197.778 136.07C197.06 135.924 196.519 135.321 196.462 134.606L196.41 133.975H195.679C195.633 134.378 195.479 134.897 195.046 135.32C194.344 136.003 193.174 136.183 191.572 135.854C189.227 135.374 188.574 133.898 188.44 132.745C188.405 132.439 188.623 132.162 188.928 132.127C189.237 132.092 189.51 132.31 189.545 132.615C189.681 133.777 190.417 134.479 191.795 134.762C192.993 135.008 193.846 134.925 194.267 134.526C194.671 134.14 194.579 133.512 194.577 133.505C194.552 133.344 194.599 133.178 194.704 133.053C194.81 132.931 194.964 132.857 195.125 132.857L196.924 132.862C197.213 132.862 197.454 133.085 197.478 133.374L197.57 134.516C197.588 134.734 197.773 134.932 197.999 134.979C200.861 135.562 201.842 135.191 202.174 134.917C202.427 134.707 202.446 134.433 202.441 134.125V134.052C202.441 133.631 202.754 133.245 203.328 132.964C203.866 132.701 204.676 132.531 205.18 132.926C205.365 133.069 205.653 133.403 205.523 134.034C205.372 134.757 205.984 135.058 206.099 135.108C209.349 136.042 213.873 135.238 215.185 134.967C215.486 134.905 215.781 135.1 215.843 135.4C215.905 135.701 215.71 135.996 215.41 136.058C214.521 136.241 212.223 136.658 209.763 136.658L209.761 136.659Z" fill="black"/>
<path d="M249.64 169.503C249.377 171.309 248.954 174.665 248.919 177.704C248.897 179.612 250.354 181.351 252.279 181.763C257.722 182.926 270.068 184.759 280.582 184.739C281.301 184.739 282.576 184.333 282.93 182.595C284.12 176.758 273.619 174.383 262.108 169.066C261.657 168.858 261.147 168.914 260.8 169.214L259.56 170.288C258.317 171.365 256.474 171.539 254.885 170.732L251.109 168.816C250.467 168.49 249.739 168.831 249.642 169.504L249.64 169.503Z" fill="#99B9FF"/>
<path d="M280.419 185.297C269.948 185.297 257.801 183.512 252.163 182.307C249.972 181.838 248.339 179.856 248.364 177.697C248.399 174.606 248.835 171.187 249.092 169.422C249.162 168.937 249.449 168.531 249.88 168.307C250.331 168.072 250.886 168.077 251.36 168.318L255.136 170.233C256.528 170.94 258.122 170.795 259.196 169.865L260.436 168.791C260.944 168.351 261.692 168.26 262.341 168.559C265.027 169.8 267.609 170.859 270.106 171.885C278.451 175.31 284.479 177.784 283.476 182.706C283.087 184.615 281.675 185.295 280.585 185.297C280.53 185.297 280.476 185.297 280.421 185.297H280.419ZM250.599 169.248C250.525 169.248 250.455 169.264 250.391 169.296C250.312 169.337 250.215 169.419 250.192 169.583C249.938 171.319 249.511 174.683 249.476 177.71C249.457 179.35 250.711 180.858 252.397 181.219C258.017 182.421 270.176 184.194 280.582 184.183C280.825 184.183 282.056 184.1 282.386 182.485C283.206 178.467 277.534 176.139 269.683 172.917C267.175 171.888 264.583 170.824 261.875 169.573C261.622 169.456 261.343 169.481 261.164 169.635L259.923 170.71C258.506 171.937 256.429 172.14 254.633 171.228L250.857 169.313C250.772 169.269 250.683 169.248 250.599 169.248Z" fill="black"/>
<path d="M248.928 177.247C248.928 177.247 248.921 177.554 248.919 177.703C248.897 179.612 250.354 181.351 252.279 181.763C257.722 182.926 270.068 184.759 280.582 184.739C281.301 184.739 282.576 184.333 282.93 182.595C283.039 182.063 282.971 181.079 282.971 181.079L282.225 181.051C271.6 180.636 260.95 179.454 250.359 177.512L248.926 177.249L248.928 177.247Z" fill="white"/>
<path d="M280.419 185.296C269.948 185.296 257.801 183.512 252.163 182.307C249.972 181.838 248.339 179.856 248.364 177.697C248.364 177.547 248.372 177.235 248.372 177.235C248.376 177.072 248.451 176.918 248.577 176.815C248.703 176.711 248.869 176.669 249.03 176.7L250.463 176.963C260.991 178.894 271.685 180.082 282.25 180.494L282.996 180.522C283.28 180.534 283.51 180.757 283.53 181.041C283.538 181.15 283.598 182.117 283.478 182.706C283.089 184.615 281.677 185.295 280.587 185.296C280.532 185.296 280.478 185.296 280.423 185.296H280.419ZM249.479 177.915C249.561 179.475 250.782 180.873 252.395 181.219C258.015 182.421 270.175 184.194 280.58 184.183C280.823 184.183 282.054 184.099 282.384 182.485C282.43 182.263 282.438 181.915 282.435 181.617L282.203 181.608C271.586 181.195 260.839 180.002 250.26 178.061L249.479 177.918V177.915Z" fill="black"/>
<path d="M264.749 176.27C264.596 176.27 264.444 176.208 264.335 176.085C264.13 175.857 264.149 175.504 264.378 175.3L268.418 171.675C268.646 171.469 268.998 171.49 269.202 171.719C269.407 171.947 269.388 172.3 269.159 172.504L265.119 176.129C265.014 176.225 264.88 176.272 264.749 176.272V176.27Z" fill="black"/>
<path d="M268.716 177.03C268.567 177.03 268.419 176.972 268.308 176.854C268.099 176.629 268.111 176.277 268.335 176.067L271.563 173.048C271.786 172.839 272.14 172.85 272.349 173.075C272.559 173.3 272.547 173.653 272.322 173.863L269.095 176.881C268.988 176.982 268.852 177.03 268.716 177.03Z" fill="black"/>
<path d="M206.842 183.205C206.842 184.373 205.903 185.214 204.745 185.082C203.586 184.951 202.647 183.896 202.647 182.728V158.883C202.647 157.714 203.586 156.873 204.745 157.006C205.903 157.137 206.842 158.191 206.842 159.36V183.205Z" fill="white"/>
<path d="M204.986 185.652C204.885 185.652 204.785 185.647 204.682 185.636C203.254 185.474 202.092 184.17 202.092 182.73V158.885C202.092 158.158 202.377 157.505 202.892 157.043C203.408 156.581 204.085 156.373 204.806 156.454C206.235 156.615 207.397 157.919 207.397 159.36V183.205C207.397 183.932 207.112 184.585 206.595 185.046C206.153 185.443 205.589 185.652 204.982 185.652H204.986ZM204.51 157.55C204.176 157.55 203.871 157.662 203.634 157.872C203.358 158.119 203.205 158.478 203.205 158.883V182.728C203.205 183.619 203.924 184.427 204.81 184.528C205.21 184.573 205.583 184.462 205.859 184.215C206.136 183.969 206.289 183.609 206.289 183.205V159.36C206.289 158.468 205.569 157.661 204.686 157.56C204.627 157.553 204.568 157.55 204.511 157.55H204.51Z" fill="black"/>
<path d="M208.326 160.59L200.612 159.716C199.044 159.538 197.773 160.676 197.773 162.257V162.991C197.773 164.572 199.044 165.998 200.612 166.175L208.326 167.05C209.894 167.228 211.165 166.09 211.165 164.508V163.775C211.165 162.193 209.894 160.768 208.326 160.59Z" fill="#5479F7"/>
<path d="M214.178 174.779L194.237 172.518C192.669 172.34 191.398 173.478 191.398 175.059V175.793C191.398 177.374 192.669 178.8 194.237 178.978L214.178 181.239C215.745 181.417 217.016 180.279 217.016 178.697V177.964C217.016 176.382 215.745 174.957 214.178 174.779Z" fill="#5479F7"/>
<path d="M217.672 182.198L190.744 179.146C189.176 178.968 187.905 180.106 187.905 181.687V182.421C187.905 184.002 189.176 185.428 190.744 185.606L217.672 188.658C219.24 188.836 220.511 187.697 220.511 186.116V185.382C220.511 183.801 219.24 182.376 217.672 182.198Z" fill="white"/>
<path d="M217.995 189.233C217.868 189.233 217.739 189.227 217.608 189.211L190.68 186.16C188.843 185.951 187.349 184.274 187.349 182.423V181.689C187.349 180.762 187.711 179.93 188.366 179.342C189.022 178.756 189.885 178.489 190.806 178.593L217.734 181.645C219.572 181.853 221.066 183.531 221.066 185.384V186.118C221.066 187.044 220.703 187.877 220.048 188.464C219.484 188.968 218.767 189.235 217.995 189.235V189.233ZM190.422 179.685C189.922 179.685 189.463 179.852 189.107 180.171C188.69 180.544 188.46 181.083 188.46 181.687V182.421C188.46 183.725 189.512 184.905 190.804 185.052L217.732 188.104C218.331 188.171 218.889 188.003 219.305 187.632C219.722 187.259 219.952 186.72 219.952 186.116V185.382C219.952 184.078 218.901 182.898 217.608 182.752L190.68 179.7C190.593 179.69 190.508 179.685 190.422 179.685Z" fill="black"/>
<path d="M210.977 167.46L197.441 165.925C195.873 165.747 194.602 166.886 194.602 168.467V169.201C194.602 170.782 195.873 172.207 197.441 172.385L210.977 173.92C212.544 174.098 213.815 172.959 213.815 171.378V170.644C213.815 169.063 212.544 167.638 210.977 167.46Z" fill="white"/>
<path d="M211.3 174.494C211.173 174.494 211.044 174.487 210.913 174.472L197.377 172.938C195.539 172.729 194.045 171.052 194.045 169.199V168.465C194.045 167.539 194.408 166.706 195.063 166.118C195.719 165.533 196.586 165.266 197.503 165.37L211.039 166.904C212.877 167.112 214.37 168.789 214.37 170.643V171.376C214.37 172.303 214.008 173.136 213.353 173.723C212.789 174.227 212.072 174.494 211.3 174.494ZM197.119 166.463C196.619 166.463 196.16 166.632 195.804 166.949C195.387 167.322 195.157 167.861 195.157 168.465V169.199C195.157 170.503 196.208 171.684 197.501 171.83L211.037 173.364C211.634 173.431 212.194 173.265 212.61 172.892C213.027 172.52 213.257 171.981 213.257 171.376V170.643C213.257 169.338 212.206 168.158 210.911 168.012L197.375 166.478C197.288 166.468 197.203 166.463 197.117 166.463H197.119Z" fill="black"/>
<path d="M279.621 124.316C279.621 124.316 280.082 140.987 273.136 140.005C267.574 139.22 269.472 132.278 266.347 130.287C263.223 128.296 257.814 130.275 258.674 127.174C259.536 124.074 276.923 119.029 279.621 124.316Z" fill="#99B9FF"/>
<path d="M273.717 140.604C273.501 140.604 273.281 140.589 273.058 140.557C269.415 140.042 268.654 137.16 267.983 134.618C267.554 132.993 267.148 131.459 266.05 130.759C264.833 129.983 263.176 129.865 261.714 129.761C260.203 129.654 258.9 129.562 258.312 128.727C258.005 128.292 257.948 127.722 258.139 127.028C258.79 124.688 265.944 122.133 271.435 121.577C274.651 121.252 278.768 121.42 280.117 124.065C280.154 124.139 280.176 124.22 280.178 124.304C280.191 124.779 280.454 135.979 276.501 139.515C275.688 140.242 274.754 140.608 273.717 140.608V140.604ZM273.665 122.57C273.006 122.57 272.297 122.606 271.546 122.684C265.383 123.306 259.584 125.977 259.211 127.325C259.112 127.68 259.115 127.935 259.221 128.084C259.504 128.487 260.668 128.569 261.793 128.65C263.307 128.757 265.191 128.892 266.647 129.818C268.112 130.753 268.593 132.573 269.058 134.333C269.697 136.755 270.302 139.043 273.214 139.454C274.19 139.592 275.024 139.34 275.76 138.681C279.12 135.676 279.086 125.724 279.068 124.461C278.354 123.229 276.437 122.57 273.665 122.57Z" fill="black"/>
<path d="M248.181 128.764C249.083 134.227 253.137 141.249 258.272 140.381C263.406 139.518 260.52 125.123 260.52 125.123C260.52 125.123 266.378 125.643 279.621 123.911C279.708 113.974 268.001 112.207 268.001 112.207C267.115 112.129 266.266 112.087 265.456 112.082C263.246 112.055 261.29 112.301 259.559 112.749C249.771 115.292 247.453 124.366 248.183 128.766L248.181 128.764Z" fill="#5479F7"/>
<path d="M259.558 112.747C261.602 113.215 266.578 115.082 269.979 122.434C272.502 123.043 273.134 122.173 273.134 122.173C273.134 122.173 272.772 115.119 265.453 112.081C263.243 112.054 261.287 112.299 259.556 112.747H259.558Z" fill="white"/>
<path d="M257.396 141.012C256.107 141.012 254.841 140.573 253.619 139.7C250.353 137.366 248.227 132.442 247.635 128.855C246.763 123.602 249.907 114.679 259.42 112.207C261.273 111.728 263.312 111.498 265.463 111.523C266.281 111.528 267.153 111.57 268.05 111.651C268.183 111.669 278.684 113.244 280.173 123.834C280.193 123.981 280.154 124.131 280.064 124.248C279.973 124.366 279.841 124.445 279.693 124.463C268.988 125.863 263.133 125.803 261.198 125.721C261.623 128.17 262.799 136.201 260.544 139.48C259.984 140.294 259.251 140.782 258.366 140.93C258.042 140.986 257.718 141.012 257.398 141.012H257.396ZM265.141 112.636C263.195 112.636 261.367 112.855 259.697 113.286C250.001 115.806 248.106 124.908 248.73 128.674C249.286 132.041 251.255 136.644 254.263 138.793C255.54 139.706 256.858 140.056 258.178 139.832C258.765 139.733 259.238 139.413 259.625 138.849C261.979 135.426 259.994 125.335 259.974 125.234C259.938 125.063 259.987 124.883 260.104 124.752C260.222 124.621 260.391 124.552 260.567 124.569C260.624 124.574 266.369 125.047 278.979 123.432C277.324 114.166 268.018 112.771 267.923 112.757C267.083 112.683 266.241 112.643 265.45 112.638C265.346 112.638 265.242 112.636 265.14 112.636H265.141Z" fill="black"/>
<path d="M253.894 135.263C254.855 135.263 255.634 134.149 255.634 132.775C255.634 131.401 254.855 130.287 253.894 130.287C252.933 130.287 252.153 131.401 252.153 132.775C252.153 134.149 252.933 135.263 253.894 135.263Z" fill="white"/>
<path d="M125.839 25.3997C124.251 25.3997 122.869 24.2196 122.666 22.613C122.561 21.7736 122.79 20.9426 123.31 20.2728C123.835 19.5979 124.594 19.1665 125.446 19.0624C127.197 18.8459 128.796 20.0848 129.014 21.8257C129.12 22.665 128.892 23.496 128.37 24.1642C127.846 24.839 127.086 25.2705 126.234 25.3746C126.102 25.3913 125.969 25.3997 125.837 25.3997H125.839ZM125.842 20.1503C125.756 20.1503 125.669 20.1553 125.582 20.167C125.025 20.2359 124.531 20.5162 124.189 20.9561C123.852 21.3909 123.702 21.9281 123.771 22.472C123.914 23.6035 124.953 24.4093 126.1 24.2683C126.657 24.1994 127.151 23.9191 127.493 23.4792C127.831 23.0444 127.98 22.5072 127.911 21.9633C127.78 20.9174 126.878 20.1503 125.842 20.1503Z" fill="black"/>
<path d="M113.912 28.3293H113.909L111.858 28.3142C111.551 28.3125 111.303 28.0607 111.307 27.7535C111.308 27.448 111.558 27.2012 111.863 27.2012H111.867L113.917 27.2163C114.224 27.218 114.472 27.4698 114.469 27.777C114.467 28.0825 114.217 28.3293 113.912 28.3293Z" fill="black"/>
<path d="M106.734 28.2771H106.731L104.68 28.262C104.373 28.2603 104.125 28.0085 104.128 27.7013C104.13 27.3941 104.373 27.144 104.688 27.149L106.739 27.1641C107.046 27.1658 107.294 27.4176 107.291 27.7248C107.289 28.0303 107.039 28.2771 106.734 28.2771Z" fill="black"/>
<path d="M109.301 25.749C108.994 25.749 108.746 25.4988 108.746 25.1916L108.749 23.1553C108.749 22.8481 108.999 22.5996 109.306 22.5996C109.613 22.5996 109.863 22.8497 109.861 23.157L109.858 25.1933C109.858 25.5005 109.608 25.749 109.301 25.749Z" fill="black"/>
<path d="M109.291 32.8769C108.984 32.8769 108.734 32.6268 108.736 32.3195L108.739 30.2832C108.739 29.976 108.989 29.7275 109.296 29.7275C109.603 29.7275 109.853 29.9777 109.851 30.2849L109.848 32.3212C109.848 32.6284 109.598 32.8769 109.291 32.8769Z" fill="black"/>
<path d="M46.1884 93.8413C46.0442 93.8413 45.9 93.7859 45.791 93.6734C45.5764 93.4535 45.5797 93.1009 45.7994 92.8861L47.2598 91.4558C47.4795 91.2409 47.8316 91.2442 48.0462 91.4642C48.2608 91.6841 48.2574 92.0366 48.0378 92.2515L46.5774 93.6818C46.4684 93.7875 46.3292 93.8396 46.1884 93.8396V93.8413Z" fill="black"/>
<path d="M41.0761 98.8457C40.9319 98.8457 40.7877 98.7903 40.6787 98.6778C40.4641 98.4579 40.4674 98.1053 40.6871 97.8905L42.1475 96.4602C42.3672 96.2453 42.7193 96.2486 42.9339 96.4685C43.1485 96.6885 43.1451 97.041 42.9255 97.2559L41.4651 98.6862C41.3561 98.7919 41.2169 98.844 41.0761 98.844V98.8457Z" fill="black"/>
<path d="M42.5533 93.8261C42.4108 93.8261 42.27 93.7724 42.161 93.6633L40.714 92.2212C40.496 92.0047 40.496 91.6521 40.7123 91.4339C40.9286 91.2157 41.2807 91.2157 41.4987 91.4322L42.9457 92.8743C43.1637 93.0908 43.1637 93.4434 42.9474 93.6616C42.8384 93.7707 42.6958 93.8261 42.5533 93.8261Z" fill="black"/>
<path d="M47.6202 98.8742C47.4777 98.8742 47.3369 98.8205 47.2279 98.7114L45.7809 97.2693C45.5629 97.0528 45.5629 96.7002 45.7792 96.482C45.9955 96.2638 46.3476 96.2638 46.5656 96.4803L48.0126 97.9224C48.2305 98.1389 48.2305 98.4915 48.0142 98.7097C47.9053 98.8188 47.7627 98.8742 47.6202 98.8742Z" fill="black"/>
<path d="M117.013 98.3317C116.878 98.3317 116.744 98.2847 116.639 98.1873C115.529 97.1767 114.41 96.1913 113.314 95.2596C113.079 95.0598 113.05 94.7089 113.25 94.4739C113.448 94.2389 113.798 94.2103 114.035 94.4101C115.141 95.3502 116.27 96.3424 117.39 97.3631C117.616 97.5695 117.633 97.9221 117.427 98.1504C117.318 98.2713 117.167 98.3334 117.016 98.3334L117.013 98.3317ZM110.227 92.5769C110.106 92.5769 109.985 92.5383 109.883 92.4577C108.715 91.5411 107.524 90.6463 106.345 89.7986C106.096 89.6189 106.038 89.2714 106.218 89.0213C106.397 88.7712 106.744 88.7141 106.994 88.8937C108.186 89.7499 109.389 90.6547 110.569 91.5814C110.81 91.7711 110.852 92.122 110.663 92.3637C110.554 92.503 110.39 92.5769 110.225 92.5769H110.227ZM103 87.3895C102.896 87.3895 102.791 87.361 102.697 87.2989C101.468 86.4964 100.204 85.7125 98.9393 84.9671C98.6744 84.811 98.5855 84.4702 98.7415 84.2049C98.8974 83.9397 99.2394 83.8524 99.5027 84.0068C100.782 84.7606 102.061 85.5547 103.304 86.3655C103.56 86.5334 103.634 86.8792 103.466 87.136C103.359 87.3006 103.181 87.3895 103 87.3895ZM95.3394 82.872C95.2522 82.872 95.1617 82.8519 95.0795 82.8065C93.8136 82.1333 92.484 81.4618 91.1292 80.8088C90.8526 80.6762 90.7352 80.3421 90.8693 80.0651C91.0018 79.7881 91.3338 79.6706 91.6121 79.8049C92.9786 80.463 94.3217 81.1429 95.601 81.8228C95.8726 81.9671 95.9749 82.3046 95.8324 82.5765C95.7318 82.7646 95.5406 82.872 95.3411 82.872H95.3394ZM87.3315 79.0041C87.256 79.0041 87.1806 78.989 87.1068 78.9571C85.8258 78.3914 84.4895 77.8223 83.0257 77.2179C82.7407 77.1004 82.6065 76.7747 82.7239 76.491C82.8413 76.2073 83.1665 76.0713 83.4499 76.1889C84.9237 76.7966 86.2668 77.369 87.5562 77.9398C87.8378 78.064 87.9653 78.3931 87.8412 78.6734C87.749 78.8816 87.5461 79.0058 87.3315 79.0058V79.0041ZM79.1123 75.5962C79.0435 75.5962 78.9748 75.5828 78.9077 75.5576C77.5496 75.0221 76.1713 74.4849 74.7662 73.9427C74.4795 73.8319 74.337 73.5096 74.4477 73.2225C74.5583 72.9354 74.8802 72.7927 75.167 72.9035C76.5737 73.4474 77.9537 73.9846 79.3151 74.5218C79.6019 74.6343 79.741 74.9583 79.6287 75.2437C79.5432 75.4636 79.3336 75.5962 79.1106 75.5962H79.1123Z" fill="white"/>
<path d="M201.936 96.2903C201.661 96.2903 201.422 96.0855 201.386 95.8051C201.155 94.0022 200.969 92.6457 200.788 91.4085C200.742 91.1046 200.954 90.8209 201.257 90.7773C201.559 90.7319 201.844 90.9418 201.889 91.2473C202.072 92.4929 202.258 93.8544 202.49 95.6641C202.53 95.9697 202.314 96.2483 202.008 96.287C201.985 96.2903 201.96 96.292 201.936 96.292V96.2903ZM200.603 87.497C200.342 87.497 200.109 87.3123 200.058 87.0454C199.765 85.516 199.448 84.1092 199.088 82.7477C199.009 82.4506 199.186 82.1451 199.483 82.0662C199.782 81.9873 200.085 82.1652 200.164 82.4624C200.531 83.849 200.855 85.2793 201.152 86.8355C201.21 87.1377 201.012 87.4298 200.711 87.4869C200.675 87.4936 200.64 87.497 200.605 87.497H200.603ZM198.318 78.9151C198.088 78.9151 197.874 78.7724 197.793 78.5424C197.324 77.2062 196.799 75.8631 196.187 74.4379C196.066 74.1558 196.195 73.8285 196.479 73.7059C196.76 73.5851 197.087 73.716 197.21 73.998C197.832 75.4451 198.365 76.8116 198.843 78.1714C198.945 78.4619 198.792 78.7792 198.502 78.8816C198.442 78.9034 198.378 78.9135 198.318 78.9135V78.9151ZM194.84 70.7362C194.634 70.7362 194.436 70.6221 194.341 70.424C193.741 69.1918 193.063 67.8639 192.329 66.4772C192.185 66.2052 192.288 65.8678 192.56 65.7251C192.832 65.5807 193.169 65.6848 193.311 65.9568C194.061 67.3737 194.725 68.6747 195.34 69.9354C195.474 70.2124 195.36 70.5448 195.085 70.6808C195.006 70.7194 194.923 70.7379 194.842 70.7379L194.84 70.7362ZM190.694 62.8662C190.499 62.8662 190.31 62.7638 190.208 62.5808C189.534 61.3721 188.796 60.0727 188.015 58.7196C187.86 58.4527 187.953 58.1119 188.217 57.9592C188.482 57.8064 188.823 57.8954 188.977 58.1623C189.76 59.5204 190.501 60.8248 191.177 62.0386C191.326 62.3072 191.231 62.6463 190.962 62.7957C190.877 62.8444 190.783 62.8662 190.691 62.8662H190.694ZM186.254 55.1556C186.065 55.1556 185.878 55.0583 185.774 54.882C185.054 53.6615 184.297 52.3907 183.501 51.0628C183.343 50.7993 183.429 50.4568 183.692 50.299C183.955 50.1412 184.297 50.2251 184.455 50.4904C185.253 51.8199 186.011 53.0941 186.734 54.3163C186.89 54.5815 186.802 54.9223 186.537 55.0784C186.449 55.1305 186.351 55.1556 186.254 55.1556Z" fill="white"/>
<path d="M261.946 105.174C261.909 105.174 261.872 105.171 261.835 105.163C261.535 105.102 261.339 104.808 261.399 104.506C261.686 103.084 261.907 101.62 262.058 100.157C262.09 99.8511 262.363 99.6278 262.668 99.6597C262.973 99.6916 263.196 99.9652 263.165 100.271C263.01 101.77 262.782 103.269 262.489 104.726C262.435 104.991 262.204 105.173 261.944 105.173L261.946 105.174ZM262.866 96.3257C262.866 96.3257 262.861 96.3257 262.859 96.3257C262.553 96.3223 262.306 96.0688 262.311 95.7616C262.314 95.54 262.316 95.3201 262.314 95.0985C262.314 93.8797 262.271 92.6207 262.185 91.3582C262.164 91.051 262.397 90.7858 262.702 90.7656C263.007 90.7455 263.274 90.9771 263.294 91.2844C263.381 92.5736 263.426 93.8562 263.426 95.1002C263.426 95.3268 263.426 95.5534 263.423 95.7801C263.419 96.0856 263.17 96.329 262.866 96.329V96.3257ZM262.279 87.4467C262.006 87.4467 261.768 87.2453 261.729 86.9666C261.533 85.5547 261.285 84.0892 260.99 82.6085C260.93 82.3063 261.126 82.0142 261.426 81.9538C261.728 81.8934 262.019 82.0898 262.08 82.3903C262.38 83.8928 262.631 85.3818 262.829 86.8138C262.871 87.1177 262.66 87.3997 262.355 87.4417C262.328 87.445 262.303 87.4467 262.278 87.4467H262.279ZM260.552 78.7104C260.302 78.7104 260.076 78.5426 260.012 78.2891C259.667 76.9108 259.273 75.4738 258.844 74.0149C258.757 73.7195 258.926 73.4106 259.219 73.3233C259.513 73.236 259.823 73.4056 259.91 73.6993C260.344 75.1733 260.742 76.6254 261.092 78.0171C261.168 78.3159 260.987 78.6181 260.688 78.6937C260.643 78.7054 260.598 78.7104 260.552 78.7104ZM258.044 70.1639C257.811 70.1639 257.593 70.0161 257.516 69.7811L257.403 69.4403C257.306 69.1482 257.462 68.8326 257.754 68.7352C258.046 68.6379 258.361 68.794 258.458 69.0861L258.574 69.4319C258.669 69.724 258.512 70.0396 258.22 70.1353C258.161 70.1538 258.103 70.1639 258.046 70.1639H258.044Z" fill="white"/>
<path d="M60.7208 72.724C77.5133 72.724 91.1262 59.2041 91.1262 42.5264C91.1262 25.8488 77.5133 12.3289 60.7208 12.3289C43.9284 12.3289 30.3154 25.8488 30.3154 42.5264C30.3154 59.2041 43.9284 72.724 60.7208 72.724Z" fill="white"/>
<path d="M60.7223 73.2813C43.6501 73.2813 29.7603 59.4852 29.7603 42.5264C29.7603 25.5675 43.6501 11.7715 60.7223 11.7715C77.7945 11.7715 91.6844 25.5675 91.6844 42.5264C91.6844 59.4852 77.7945 73.2813 60.7223 73.2813ZM60.7223 12.8862C44.2638 12.8862 30.8736 26.1836 30.8736 42.5264C30.8736 58.8691 44.2638 72.1666 60.7223 72.1666C77.1809 72.1666 90.5711 58.8691 90.5711 42.5264C90.5711 26.1836 77.1809 12.8862 60.7223 12.8862Z" fill="black"/>
<path d="M77.4392 31.4399H44.3628V56.9252H77.4392V31.4399Z" fill="#99B9FF"/>
<path d="M77.9957 57.4825H43.8076V30.8826H77.9957V57.4825ZM44.9193 56.3695H76.884V31.9973H44.9193V56.3695Z" fill="#5479F7"/>
<path d="M73.0581 39.5786H48.9772C48.4558 39.5786 48.0332 40.0018 48.0332 40.5238V51.3283C48.0332 51.8502 48.4558 52.2734 48.9772 52.2734H73.0581C73.5794 52.2734 74.002 51.8502 74.002 51.3283V40.5238C74.002 40.0018 73.5794 39.5786 73.0581 39.5786Z" fill="#CADDFF"/>
<path d="M46.3782 27.7786L40.7612 34.2955L48.3148 34.2905L51.6464 27.7954L46.3782 27.7786Z" fill="#5479F7"/>
<path d="M51.6466 27.7954L48.3149 34.2905L56.011 34.2838L57.5335 27.8172L51.6466 27.7954Z" fill="#CADDFF"/>
<path d="M57.5332 27.8171L56.0107 34.2837L64.6408 34.277L64.2367 27.844L57.5332 27.8171Z" fill="#5479F7"/>
<path d="M70.3333 27.8658L64.2368 27.844L64.6409 34.277L73.0194 34.2703L70.3333 27.8658Z" fill="#CADDFF"/>
<path d="M48.1687 34.2904C48.157 34.3576 48.1503 34.4247 48.1436 34.4919C48.1436 34.4885 48.1469 34.4868 48.1469 34.4835C48.1452 34.4935 48.1436 34.5053 48.1402 34.5154C48.1301 34.6077 48.1184 34.7 48.0933 34.7873C48.0933 38.6283 55.2427 39.2461 55.8916 34.7437C55.8832 34.5926 55.8749 34.4381 55.8665 34.2837L48.1687 34.2904Z" fill="#CADDFF"/>
<path d="M55.8435 34.2838C55.8519 34.4383 55.8602 34.5927 55.8686 34.7438C55.9374 34.6951 55.9022 34.6464 55.9105 34.5961C56.0195 39.305 65.4577 39.0129 64.5573 34.5205C64.5707 34.6145 64.5925 34.7052 64.6126 34.7958C64.6026 34.6196 64.5791 34.4433 64.5406 34.2771L55.8418 34.2838H55.8435Z" fill="#5479F7"/>
<path d="M64.5537 34.277C64.5923 34.4449 64.6057 34.6194 64.6157 34.7957C65.2898 38.7895 73.115 38.9221 73.1301 34.465C73.1636 34.564 72.6053 34.423 72.5583 34.2703L64.5537 34.277Z" fill="#CADDFF"/>
<path d="M40.7612 34.2956C40.8317 38.3162 46.8896 39.4762 48.1438 34.492C48.1505 34.4248 48.1589 34.3577 48.1689 34.2905L40.7612 34.2972V34.2956Z" fill="#5479F7"/>
<path d="M75.6871 27.854L81.4834 34.371L73.0194 34.3659L70.2998 27.8708L75.6871 27.854Z" fill="#5479F7"/>
<path d="M81.4833 34.371C81.4045 38.3916 74.5534 39.5517 73.1349 34.5674C73.1266 34.5003 73.1182 34.4331 73.1064 34.366L81.4833 34.3727V34.371Z" fill="#5479F7"/>
<path d="M40.7613 34.8529C40.4544 34.8529 40.2046 34.6045 40.2046 34.2973C40.2046 33.99 40.4527 33.7399 40.7613 33.7399L81.6796 33.708C81.9865 33.708 82.2363 33.9565 82.2363 34.2637C82.2363 34.5709 81.9881 34.821 81.6796 34.821L40.7613 34.8529Z" fill="white"/>
<path d="M173.578 47.5089C186.633 47.5089 197.216 36.9985 197.216 24.0332C197.216 11.0678 186.633 0.557373 173.578 0.557373C160.523 0.557373 149.94 11.0678 149.94 24.0332C149.94 36.9985 160.523 47.5089 173.578 47.5089Z" fill="white"/>
<path d="M173.578 48.0663C160.238 48.0663 149.385 37.2853 149.385 24.0331C149.385 10.781 160.238 0 173.578 0C186.918 0 197.773 10.781 197.773 24.0331C197.773 37.2853 186.92 48.0663 173.578 48.0663ZM173.578 1.1147C160.852 1.1147 150.496 11.3954 150.496 24.0348C150.496 36.6742 160.85 46.9549 173.578 46.9549C186.306 46.9549 196.66 36.6725 196.66 24.0348C196.66 11.3971 186.306 1.11302 173.578 1.11302V1.1147Z" fill="black"/>
<path d="M186.574 15.4126H160.86V35.2253H186.574V15.4126Z" fill="#99B9FF"/>
<path d="M187.131 35.7827H160.303V14.8552H187.131V35.7827ZM161.417 34.6696H186.019V15.9699H161.417V34.6696Z" fill="#5479F7"/>
<path d="M183.169 21.7415H164.448C164.043 21.7415 163.714 22.0707 163.714 22.4768V30.8756C163.714 31.2817 164.043 31.6109 164.448 31.6109H183.169C183.574 31.6109 183.903 31.2817 183.903 30.8756V22.4768C183.903 22.0707 183.574 21.7415 183.169 21.7415Z" fill="#CADDFF"/>
<path d="M162.428 12.5671L158.06 17.6336L163.934 17.6303L166.522 12.5806L162.428 12.5671Z" fill="#5479F7"/>
<path d="M166.522 12.5806L163.934 17.6303L169.916 17.6252L171.1 12.5974L166.522 12.5806Z" fill="#CADDFF"/>
<path d="M171.1 12.5974L169.916 17.6253L176.625 17.6186L176.311 12.6176L171.1 12.5974Z" fill="#5479F7"/>
<path d="M181.049 12.6359L176.311 12.6174L176.625 17.6185L183.14 17.6134L181.049 12.6359Z" fill="#CADDFF"/>
<path d="M163.819 17.6303C163.811 17.6824 163.806 17.7344 163.799 17.7881C163.799 17.7864 163.801 17.7831 163.803 17.7814C163.801 17.7898 163.799 17.7982 163.798 17.8066C163.789 17.8788 163.781 17.9493 163.761 18.0181C163.761 21.0046 169.319 21.4847 169.824 17.9845C169.817 17.867 169.81 17.7461 169.805 17.627L163.821 17.632L163.819 17.6303Z" fill="#CADDFF"/>
<path d="M169.785 17.6252C169.792 17.7443 169.799 17.8652 169.804 17.9827C169.857 17.9441 169.829 17.9072 169.837 17.8686C169.921 21.53 177.26 21.3033 176.559 17.8098C176.569 17.882 176.586 17.9542 176.603 18.023C176.594 17.8854 176.576 17.7494 176.547 17.6201L169.785 17.6252Z" fill="#5479F7"/>
<path d="M176.557 17.6186C176.587 17.7478 176.597 17.8855 176.606 18.0215C177.129 21.1272 183.214 21.2296 183.225 17.7646C183.251 17.8418 182.816 17.7327 182.781 17.6135L176.559 17.6186H176.557Z" fill="#CADDFF"/>
<path d="M158.06 17.6337C158.115 20.7596 162.824 21.661 163.799 17.7865C163.804 17.7344 163.811 17.6807 163.82 17.6287L158.062 17.6337H158.06Z" fill="#5479F7"/>
<path d="M185.212 12.626L189.719 17.6925L183.14 17.6874L181.024 12.6394L185.212 12.626Z" fill="#5479F7"/>
<path d="M189.719 17.6923C189.657 20.8181 184.332 21.7196 183.229 17.8451C183.222 17.793 183.215 17.7393 183.207 17.6873L189.719 17.6923Z" fill="#5479F7"/>
<path d="M158.062 18.1909C157.755 18.1909 157.505 17.9425 157.505 17.6353C157.505 17.3281 157.753 17.0779 158.062 17.0779L189.872 17.0527C190.179 17.0527 190.429 17.3012 190.429 17.6084C190.429 17.9156 190.181 18.1658 189.872 18.1658L158.062 18.1909Z" fill="white"/>
<path d="M251.463 66.766C267.115 66.766 279.804 54.1638 279.804 38.6182C279.804 23.0726 267.115 10.4705 251.463 10.4705C235.81 10.4705 223.122 23.0726 223.122 38.6182C223.122 54.1638 235.81 66.766 251.463 66.766Z" fill="white"/>
<path d="M251.464 67.3233C235.531 67.3233 222.566 54.4472 222.566 38.6182C222.566 22.7892 235.531 9.91309 251.464 9.91309C267.398 9.91309 280.362 22.7892 280.362 38.6182C280.362 54.4472 267.398 67.3233 251.464 67.3233ZM251.464 11.0278C236.143 11.0278 223.678 23.4053 223.678 38.6182C223.678 53.8311 236.143 66.2086 251.464 66.2086C266.786 66.2086 279.249 53.8311 279.249 38.6182C279.249 23.4053 266.785 11.0278 251.464 11.0278Z" fill="black"/>
<path d="M267.046 28.2837H236.215V52.0398H267.046V28.2837Z" fill="#99B9FF"/>
<path d="M267.603 52.5955H235.658V27.7263H267.603V52.5955ZM236.772 51.4825H266.491V28.841H236.772V51.4825Z" fill="#5479F7"/>
<path d="M262.963 35.8701H240.517C240.031 35.8701 239.637 36.2647 239.637 36.7515V46.8224C239.637 47.3091 240.031 47.7037 240.517 47.7037H262.963C263.449 47.7037 263.843 47.3091 263.843 46.8224V36.7515C263.843 36.2647 263.449 35.8701 262.963 35.8701Z" fill="#CADDFF"/>
<path d="M238.094 24.8708L232.858 30.9463L239.898 30.9412L243.004 24.8876L238.094 24.8708Z" fill="#5479F7"/>
<path d="M243.004 24.8877L239.898 30.9413L247.071 30.9346L248.492 24.9078L243.004 24.8877Z" fill="#CADDFF"/>
<path d="M248.491 24.9077L247.071 30.9345L255.116 30.9278L254.741 24.9312L248.491 24.9077Z" fill="#5479F7"/>
<path d="M260.423 24.9532L254.741 24.9314L255.116 30.9279L262.928 30.9229L260.423 24.9532Z" fill="#CADDFF"/>
<path d="M239.763 30.9413C239.753 31.0034 239.746 31.0672 239.739 31.1293C239.739 31.126 239.741 31.1243 239.742 31.1209C239.741 31.131 239.739 31.1411 239.737 31.1512C239.727 31.2385 239.717 31.3224 239.694 31.4047C239.694 34.9838 246.357 35.5613 246.962 31.3644C246.956 31.2233 246.947 31.079 246.939 30.9363L239.763 30.9413Z" fill="#CADDFF"/>
<path d="M246.916 30.9344C246.924 31.0771 246.931 31.2215 246.939 31.3625C247.003 31.3172 246.971 31.2718 246.979 31.2248C247.08 35.6131 255.878 35.3428 255.039 31.1543C255.051 31.2416 255.071 31.3273 255.091 31.4095C255.083 31.245 255.059 31.0822 255.024 30.926L246.917 30.9327L246.916 30.9344Z" fill="#5479F7"/>
<path d="M255.036 30.9279C255.073 31.084 255.084 31.2469 255.094 31.4114C255.721 35.1349 263.017 35.2591 263.03 31.1042C263.06 31.1965 262.541 31.0655 262.497 30.9229L255.036 30.9296V30.9279Z" fill="#CADDFF"/>
<path d="M232.858 30.9462C232.923 34.6932 238.57 35.776 239.739 31.1292C239.746 31.0671 239.753 31.0033 239.763 30.9412L232.858 30.9462Z" fill="#5479F7"/>
<path d="M265.413 24.9414L270.817 31.0168L262.928 31.0118L260.391 24.9565L265.413 24.9414Z" fill="#5479F7"/>
<path d="M270.817 31.0168C270.743 34.7637 264.356 35.8466 263.035 31.1997C263.027 31.1376 263.02 31.0738 263.008 31.0117L270.817 31.0168Z" fill="#5479F7"/>
<path d="M232.858 31.5036C232.551 31.5036 232.301 31.2551 232.301 30.9479C232.301 30.6407 232.549 30.3906 232.858 30.3906L270.998 30.3604C271.305 30.3604 271.555 30.6088 271.555 30.916C271.555 31.2232 271.307 31.4734 270.998 31.4734L232.858 31.5036Z" fill="white"/>
<path d="M144.086 230.361C130.027 229.01 117.091 221.977 108.508 211.144C107.05 209.304 107.343 206.848 109.162 205.656C110.985 204.463 113.654 204.985 115.123 206.827C122.108 215.59 132.606 221.244 143.984 222.291C161.244 223.879 176.256 214.458 180.236 199.336C180.801 197.19 183.241 196.042 185.694 196.771C188.152 197.503 189.688 199.845 189.119 202C186.759 210.956 180.971 218.734 172.869 223.878C164.576 229.144 154.608 231.372 144.085 230.359L144.086 230.361Z" fill="#F57C00"/>
<path d="M199.512 208.126L185.766 191.464L168.799 202.104L199.512 208.126Z" fill="#F57C00"/>
<path d="M199.512 208.126L185.766 191.464L168.8 202.104L199.512 208.126Z" fill="#F57C00"/>
<path d="M147.856 223.028C146.555 223.028 145.245 222.968 143.932 222.847C132.444 221.789 121.785 216.077 114.687 207.174C113.396 205.554 111.055 205.082 109.466 206.123C108.765 206.582 108.306 207.283 108.175 208.099C108.027 209.012 108.307 209.996 108.943 210.799C111.039 213.444 113.426 215.894 116.039 218.078C116.275 218.274 116.305 218.627 116.109 218.862C115.913 219.097 115.562 219.129 115.326 218.932C112.655 216.699 110.215 214.195 108.073 211.49C107.243 210.443 106.88 209.142 107.078 207.921C107.261 206.793 107.893 205.824 108.859 205.192C110.915 203.845 113.919 204.424 115.559 206.481C122.467 215.147 132.846 220.708 144.036 221.739C147.132 222.024 150.212 221.964 153.188 221.559C153.491 221.519 153.773 221.732 153.813 222.036C153.855 222.342 153.64 222.622 153.337 222.662C151.541 222.906 149.707 223.028 147.858 223.028H147.856Z" fill="black"/>
<path d="M148.999 231.157C147.361 231.157 145.705 231.076 144.033 230.917C142.705 230.789 141.362 230.608 140.046 230.378C139.742 230.326 139.541 230.037 139.593 229.733C139.645 229.43 139.935 229.228 140.237 229.28C141.526 229.505 142.839 229.681 144.14 229.807C154.571 230.811 164.402 228.597 172.574 223.41C179.438 219.051 184.562 212.875 187.389 205.553C187.5 205.265 187.822 205.123 188.109 205.234C188.395 205.344 188.538 205.667 188.427 205.954C185.513 213.501 180.238 219.862 173.171 224.35C166.1 228.839 157.826 231.157 149.003 231.157H148.999Z" fill="black"/>
<path d="M199.512 208.683C199.475 208.683 199.438 208.68 199.401 208.672L187.795 206.298C187.493 206.236 187.3 205.942 187.361 205.642C187.423 205.339 187.718 205.146 188.016 205.207L198.078 207.265L185.647 192.196L170.285 201.829L178.68 203.476C178.982 203.535 179.178 203.827 179.12 204.129C179.061 204.431 178.769 204.628 178.467 204.569L168.69 202.652C168.466 202.608 168.291 202.432 168.251 202.207C168.209 201.982 168.31 201.755 168.503 201.633L185.469 190.993C185.706 190.845 186.016 190.895 186.194 191.11L199.939 207.772C200.09 207.953 200.109 208.212 199.988 208.413C199.886 208.583 199.703 208.683 199.512 208.683Z" fill="black"/>
<path d="M99.5598 107.233C99.253 107.217 98.9411 107.169 98.6292 107.08C96.5534 106.489 95.2842 104.407 95.7889 102.428C97.8898 94.1919 102.898 86.8406 109.925 81.7086C117.221 76.3819 126.095 73.6909 135.624 73.9595C149.521 74.3506 162.778 81.2302 170.994 92.4493C172.32 94.2607 171.868 96.6597 169.981 97.8029C168.099 98.9428 165.506 98.3972 164.188 96.5875C157.586 87.5138 146.9 81.9151 135.669 81.5525C120.118 81.0522 106.9 90.5188 103.317 104.553C102.886 106.244 101.302 107.313 99.5581 107.233H99.5598Z" fill="#F57C00"/>
<path d="M87.1875 97.2808L98.507 111.936L113.267 101.595L87.1875 97.2808Z" fill="#99B9FF"/>
<path d="M87.1875 97.2808L98.507 111.936L113.267 101.595L87.1875 97.2808Z" fill="#F57C00"/>
<path d="M87.1875 97.2808L98.507 111.936L113.267 101.595L87.1875 97.2808Z" fill="#F57C00"/>
<path d="M167.815 98.9511C166.259 98.9511 164.698 98.2309 163.741 96.9148C157.254 88.0006 146.754 82.4657 135.653 82.1098C129.522 81.9134 123.558 83.2967 118.418 86.1136C118.149 86.2614 117.811 86.1623 117.663 85.892C117.516 85.6218 117.615 85.2843 117.884 85.1366C123.2 82.2239 129.357 80.7936 135.689 80.9968C147.131 81.3644 157.954 87.0705 164.641 96.2601C165.791 97.8398 168.058 98.3199 169.696 97.3278C170.461 96.8644 170.976 96.1459 171.143 95.3032C171.316 94.4352 171.105 93.5388 170.548 92.78C169.522 91.3782 168.394 90.0184 167.198 88.7426C166.989 88.5176 166.999 88.1651 167.223 87.9552C167.448 87.7454 167.8 87.7555 168.01 87.9804C169.235 89.2898 170.392 90.6832 171.445 92.1219C172.188 93.1376 172.468 94.3446 172.233 95.5231C172.004 96.6747 171.308 97.6551 170.272 98.2813C169.522 98.7362 168.669 98.9528 167.815 98.9528V98.9511Z" fill="black"/>
<path d="M96.882 99.4649C96.8183 99.4649 96.7529 99.4532 96.6892 99.4297C96.4008 99.3239 96.2532 99.0033 96.3589 98.7145C98.9209 91.7477 103.497 85.7108 109.596 81.2571C117.004 75.8464 126.006 73.1319 135.639 73.4022C139.485 73.5113 143.327 74.1123 147.057 75.1901C147.353 75.2757 147.524 75.5846 147.438 75.88C147.353 76.1755 147.046 76.345 146.749 76.2611C143.107 75.2102 139.36 74.6226 135.607 74.5169C126.221 74.2516 117.459 76.8957 110.25 82.1586C104.33 86.4831 99.8866 92.3403 97.4018 99.1006C97.3196 99.3256 97.1067 99.4649 96.8803 99.4649H96.882Z" fill="black"/>
<path d="M98.5069 112.492C98.3409 112.492 98.1766 112.417 98.0659 112.276L86.7465 97.6217C86.6073 97.4404 86.5922 97.192 86.7096 96.9956C86.827 96.7992 87.0533 96.6934 87.278 96.732L96.8688 98.3184C97.1722 98.3688 97.3768 98.6559 97.3265 98.958C97.2762 99.2619 96.9895 99.4667 96.6877 99.4163L88.4936 98.0616L98.6226 111.174L104.283 107.209C104.535 107.033 104.882 107.095 105.058 107.347C105.234 107.599 105.172 107.946 104.92 108.122L98.8255 112.391C98.7282 112.459 98.6176 112.492 98.5069 112.492Z" fill="black"/>
<path d="M96.7931 155.586C107.309 155.586 115.834 147.119 115.834 136.675C115.834 126.23 107.309 117.763 96.7931 117.763C86.2773 117.763 77.7524 126.23 77.7524 136.675C77.7524 147.119 86.2773 155.586 96.7931 155.586Z" fill="black"/>
<path d="M97.6065 154.461C107.81 154.461 116.082 146.246 116.082 136.112C116.082 125.978 107.81 117.763 97.6065 117.763C87.4027 117.763 79.1309 125.978 79.1309 136.112C79.1309 146.246 87.4027 154.461 97.6065 154.461Z" fill="#99B9FF"/>
<path d="M97.6065 155.018C87.112 155.018 78.5742 146.537 78.5742 136.112C78.5742 125.687 87.112 117.206 97.6065 117.206C108.101 117.206 116.639 125.687 116.639 136.112C116.639 146.537 108.101 155.018 97.6065 155.018ZM97.6065 118.319C87.7257 118.319 79.6876 126.302 79.6876 136.112C79.6876 145.923 87.7257 153.905 97.6065 153.905C107.487 153.905 115.525 145.923 115.525 136.112C115.525 126.302 107.487 118.319 97.6065 118.319Z" fill="black"/>
<path d="M97.6066 151.511C106.169 151.511 113.111 144.617 113.111 136.112C113.111 127.607 106.169 120.713 97.6066 120.713C89.0437 120.713 82.1021 127.607 82.1021 136.112C82.1021 144.617 89.0437 151.511 97.6066 151.511Z" fill="white"/>
<path d="M110.641 145.011C110.537 145.011 110.431 144.983 110.337 144.921C110.079 144.753 110.007 144.409 110.175 144.15C110.949 142.958 111.546 141.666 111.949 140.308C112.036 140.012 112.348 139.844 112.64 139.932C112.935 140.019 113.102 140.329 113.015 140.623C112.583 142.084 111.94 143.474 111.107 144.756C111 144.921 110.822 145.01 110.641 145.01V145.011Z" fill="black"/>
<path d="M111.563 129.953C111.357 129.953 111.159 129.839 111.063 129.641C108.54 124.478 103.384 121.27 97.6079 121.27C92.8628 121.27 88.3525 123.542 85.5423 127.347C85.3596 127.594 85.0125 127.648 84.7643 127.465C84.5179 127.282 84.4659 126.933 84.647 126.686C87.665 122.598 92.509 120.157 97.6062 120.157C103.81 120.157 109.35 123.604 112.063 129.152C112.199 129.429 112.083 129.761 111.808 129.897C111.729 129.936 111.645 129.954 111.563 129.954V129.953Z" fill="black"/>
<path d="M97.6061 152.069C88.7497 152.069 81.5449 144.911 81.5449 136.114C81.5449 133.381 82.2525 130.683 83.5922 128.313C83.7448 128.044 84.0835 127.952 84.3501 128.103C84.6183 128.254 84.7122 128.595 84.5596 128.862C83.3155 131.064 82.6566 133.572 82.6566 136.114C82.6566 144.298 89.3617 150.956 97.6061 150.956C97.9129 150.956 98.1628 151.206 98.1628 151.513C98.1628 151.821 97.9129 152.071 97.6061 152.071V152.069Z" fill="black"/>
<path d="M96.1847 146.986V144.454C94.3872 144.374 92.6435 143.895 91.624 143.308L92.4288 140.19C93.5556 140.803 95.1384 141.362 96.8822 141.362C98.4113 141.362 99.4576 140.776 99.4576 139.71C99.4576 138.644 98.5991 138.058 96.6139 137.392C93.7434 136.433 91.785 135.1 91.785 132.515C91.785 130.17 93.4483 128.331 96.3188 127.772V125.241H98.9479V127.586C100.745 127.667 101.953 128.039 102.838 128.466L102.06 131.477C101.362 131.184 100.128 130.571 98.1967 130.571C96.4529 130.571 95.8896 131.316 95.8896 132.063C95.8896 132.943 96.8285 133.502 99.1088 134.355C102.301 135.474 103.589 136.94 103.589 139.337C103.589 141.735 101.899 143.734 98.8137 144.268V146.986H96.1847Z" fill="#5479F7"/>
<path d="M200.238 249.817C204.792 246.008 205.312 239.119 201.4 234.429C197.487 229.738 190.623 229.024 186.069 232.832C181.515 236.641 180.995 243.531 184.907 248.221C188.82 252.911 195.683 253.625 200.238 249.817Z" fill="white"/>
<path d="M193.427 252.825C191.143 252.825 188.9 252.133 186.936 250.802C185.798 250.03 184.812 249.078 184.006 247.973C183.824 247.725 183.878 247.377 184.126 247.194C184.374 247.013 184.722 247.067 184.904 247.315C185.635 248.316 186.529 249.179 187.562 249.879C189.916 251.477 192.718 252.056 195.451 251.509C198.088 250.98 200.348 249.455 201.817 247.213C204.907 242.494 203.531 236.014 198.747 232.769C196.391 231.17 193.59 230.593 190.858 231.139C188.221 231.667 185.961 233.192 184.492 235.435C183.097 237.565 182.559 240.148 182.976 242.71C183.026 243.014 182.82 243.299 182.517 243.35C182.211 243.399 181.926 243.194 181.878 242.89C181.415 240.053 182.012 237.189 183.561 234.825C185.194 232.33 187.708 230.635 190.64 230.047C193.668 229.441 196.769 230.081 199.373 231.847C204.656 235.433 206.17 242.599 202.749 247.824C201.116 250.318 198.603 252.014 195.67 252.601C194.926 252.751 194.175 252.825 193.429 252.825H193.427Z" fill="black"/>
<path d="M194.403 247.681L193.95 246.225C192.93 246.514 191.869 246.561 191.195 246.413L191.086 244.471C191.825 244.614 192.811 244.642 193.786 244.317C194.641 244.033 195.12 243.501 194.929 242.888C194.748 242.306 194.153 242.097 192.924 242.084C191.146 242.066 189.813 241.664 189.351 240.179C188.93 238.831 189.532 237.464 191.036 236.61L190.581 235.154L192.052 234.666L192.473 236.014C193.492 235.725 194.233 235.715 194.805 235.795L194.909 237.671C194.466 237.632 193.667 237.509 192.587 237.867C191.613 238.191 191.43 238.725 191.564 239.153C191.722 239.658 192.347 239.806 193.774 239.871C195.759 239.922 196.742 240.524 197.171 241.903C197.595 243.266 197.013 244.745 195.385 245.624L195.871 247.187L194.401 247.676L194.403 247.681Z" fill="#5479F7"/>
<path d="M219.979 286.047C224.384 280.863 223.874 273.185 218.841 268.898C213.808 264.611 206.157 265.338 201.752 270.522C197.347 275.706 197.856 283.384 202.89 287.671C207.923 291.958 215.574 291.231 219.979 286.047Z" fill="white"/>
<path d="M204.349 268.207C206.799 266.565 209.815 265.785 212.903 266.228C219.496 267.175 223.929 273.342 222.803 280.002C221.676 286.663 215.419 291.295 208.826 290.347C202.233 289.4 197.8 283.232 198.926 276.572C199.175 275.107 199.671 273.739 200.365 272.506L204.349 268.205V268.207Z" fill="white"/>
<path d="M210.534 291.027C209.944 291.027 209.347 290.985 208.749 290.899C205.439 290.424 202.538 288.681 200.58 285.994C198.586 283.259 197.806 279.88 198.38 276.48C198.633 274.983 199.138 273.554 199.882 272.233C200.033 271.964 200.373 271.87 200.64 272.021C200.908 272.172 201.002 272.512 200.851 272.78C200.171 273.989 199.708 275.295 199.476 276.665C198.952 279.765 199.663 282.846 201.478 285.336C203.259 287.778 205.897 289.363 208.908 289.794C215.194 290.698 221.183 286.262 222.258 279.908C222.783 276.807 222.072 273.727 220.256 271.237C218.475 268.795 215.838 267.21 212.828 266.779C209.988 266.371 207.089 267.042 204.661 268.669C204.406 268.84 204.061 268.771 203.89 268.516C203.719 268.261 203.787 267.915 204.042 267.744C206.698 265.964 209.875 265.229 212.986 265.676C216.296 266.151 219.196 267.893 221.155 270.581C223.148 273.316 223.928 276.695 223.354 280.094C222.283 286.435 216.73 291.027 210.536 291.027H210.534Z" fill="black"/>
<path d="M210.559 285.628L210.464 283.934C209.283 283.972 208.125 283.741 207.436 283.4L207.845 281.273C208.606 281.625 209.662 281.919 210.804 281.83C211.805 281.751 212.467 281.306 212.427 280.593C212.389 279.915 211.803 279.532 210.479 279.188C208.564 278.693 207.231 277.902 207.134 276.171C207.045 274.601 208.064 273.287 209.924 272.765L209.828 271.071L211.549 270.937L211.637 272.506C212.818 272.468 213.621 272.656 214.216 272.896L213.82 274.951C213.353 274.79 212.523 274.444 211.257 274.543C210.115 274.632 209.775 275.161 209.803 275.659C209.837 276.248 210.472 276.574 211.996 277.027C214.129 277.613 215.026 278.528 215.117 280.133C215.205 281.719 214.176 283.162 212.176 283.677L212.278 285.495L210.558 285.629L210.559 285.628Z" fill="#5479F7"/>
<path d="M166.245 278.065C172.511 275.918 175.811 268.969 173.614 262.543C171.418 256.117 164.558 252.649 158.292 254.795C152.026 256.942 148.727 263.892 150.923 270.317C153.119 276.743 159.979 280.212 166.245 278.065Z" fill="white"/>
<path d="M162.478 279.24C161.985 279.24 161.489 279.212 160.991 279.151C157.604 278.746 154.571 277.014 152.447 274.271C151.514 273.067 150.805 271.726 150.339 270.287C150.243 269.995 150.404 269.681 150.696 269.585C150.988 269.49 151.301 269.651 151.397 269.943C151.824 271.259 152.473 272.486 153.325 273.589C155.263 276.094 158.033 277.677 161.122 278.045C164.126 278.404 167.077 277.561 169.437 275.674C174.38 271.719 175.186 264.346 171.234 259.239C169.296 256.735 166.526 255.152 163.437 254.784C160.433 254.426 157.482 255.267 155.123 257.154C152.891 258.94 151.412 261.506 150.959 264.376C150.911 264.68 150.624 264.887 150.324 264.84C150.02 264.791 149.812 264.507 149.861 264.203C150.357 261.057 151.979 258.245 154.428 256.285C157.022 254.21 160.268 253.283 163.57 253.678C166.957 254.082 169.99 255.815 172.114 258.558C176.437 264.143 175.548 272.211 170.132 276.544C167.931 278.307 165.257 279.24 162.478 279.24Z" fill="black"/>
<path d="M158.344 272.444L159.098 270.922C158.052 270.379 157.157 269.612 156.724 268.979L158.133 267.326C158.62 268.004 159.397 268.774 160.435 269.255C161.345 269.674 162.143 269.61 162.462 268.969C162.764 268.36 162.443 267.74 161.459 266.794C160.036 265.429 159.268 264.089 160.037 262.535C160.736 261.124 162.276 260.476 164.152 260.93L164.906 259.407L166.472 260.129L165.773 261.539C166.82 262.081 167.428 262.637 167.827 263.137L166.466 264.734C166.137 264.366 165.586 263.658 164.435 263.127C163.397 262.649 162.839 262.941 162.616 263.391C162.354 263.919 162.747 264.514 163.85 265.654C165.418 267.203 165.746 268.439 165.032 269.881C164.325 271.306 162.715 272.06 160.718 271.533L159.908 273.166L158.342 272.444H158.344Z" fill="#5479F7"/>
</g>
<defs>
<clipPath id="clip0_1010_4717">
<rect width="307" height="307" fill="white"/>
</clipPath>
</defs>
</svg>
