<svg width="488" height="457" viewBox="0 0 488 457" fill="none" xmlns="http://www.w3.org/2000/svg">
<g clip-path="url(#clip0_1010_5772)">
<g opacity="0.36">
<path d="M26.2156 256.586C5.74588 220.476 -7.91721 177.392 5.10066 138.872C17.4567 102.319 53.2953 83.6255 88.533 74.8342C125.377 65.6403 164.059 64.5906 201.299 56.774C240.367 48.5742 278.77 37.1422 315.901 22.453C332.741 15.7915 349.397 8.4386 366.943 3.96799C398.575 -4.09578 437.39 0.994055 458.054 28.8646C479.631 57.968 480.609 100.089 465.03 132.139C447.229 168.753 415.301 197.462 403.576 237.229C396.47 261.334 398.146 287.524 389.755 311.174C381.539 334.335 369.114 356.203 352.072 373.988C332.622 394.289 306.971 409.039 279.221 413.29C240.907 419.16 202.316 405.052 167.936 387.105C121.968 363.111 79.1151 331.053 47.7376 289.304C40.2996 279.408 32.8948 268.367 26.2156 256.583V256.586Z" fill="#E9E9F2"/>
</g>
<path d="M362.091 161.108C349.791 165.331 334.369 169.474 316.594 171.604C310.989 172.276 300.818 172.587 280.711 173.178C230.462 174.656 221.769 173.673 214.522 172.392C206.86 171.037 196.063 168.505 183.563 163.307C185.183 161.932 187.243 161.085 189.384 161.085H361.468C361.679 161.085 361.887 161.094 362.089 161.108H362.091Z" fill="#C8C7DC"/>
<path d="M179.321 177.21L167.455 274.106C166.909 278.568 170.102 282.217 174.552 282.217H346.637C351.087 282.217 355.174 278.565 355.72 274.106L367.586 177.21H179.321Z" fill="#E9E9F2"/>
<path d="M368.566 169.196L367.572 177.307H179.307L180.301 169.196C180.583 166.883 181.818 164.787 183.563 163.307C196.063 168.508 206.86 171.037 214.522 172.393C221.769 173.673 230.462 174.658 280.711 173.178C300.821 172.587 310.989 172.276 316.594 171.604C334.366 169.474 349.791 165.331 362.091 161.108C366.212 161.43 369.086 164.945 368.566 169.196Z" fill="#B8B8D2"/>
<path d="M357.159 172.784H294.371C293.463 172.784 292.812 172.04 292.923 171.129L293.313 167.95C293.424 167.039 294.258 166.295 295.166 166.295H357.954C358.862 166.295 359.513 167.039 359.402 167.95L359.012 171.129C358.901 172.04 358.068 172.784 357.159 172.784Z" fill="#E9E9F2"/>
<path d="M202.432 206.411H188.869C187.96 206.411 187.31 205.667 187.42 204.756L189.16 190.564C189.27 189.653 190.104 188.909 191.012 188.909H204.576C205.484 188.909 206.135 189.653 206.024 190.564L204.285 204.756C204.174 205.667 203.34 206.411 202.432 206.411Z" fill="#D9DAE8"/>
<path d="M225.475 206.411H211.911C211.003 206.411 210.352 205.667 210.463 204.756L212.202 190.564C212.313 189.653 213.146 188.909 214.055 188.909H227.618C228.526 188.909 229.177 189.653 229.066 190.564L227.327 204.756C227.216 205.667 226.383 206.411 225.475 206.411Z" fill="#D9DAE8"/>
<path d="M248.517 206.411H234.953C234.045 206.411 233.394 205.667 233.505 204.756L235.244 190.564C235.355 189.653 236.188 188.909 237.097 188.909H250.66C251.568 188.909 252.219 189.653 252.108 190.564L250.369 204.756C250.258 205.667 249.425 206.411 248.517 206.411Z" fill="#D9DAE8"/>
<path d="M271.559 206.411H257.996C257.087 206.411 256.437 205.667 256.547 204.756L258.286 190.564C258.397 189.653 259.231 188.909 260.139 188.909H273.702C274.611 188.909 275.262 189.653 275.151 190.564L273.412 204.756C273.301 205.667 272.467 206.411 271.559 206.411Z" fill="#D9DAE8"/>
<path d="M294.604 206.411H281.041C280.132 206.411 279.482 205.667 279.592 204.756L281.331 190.564C281.442 189.653 282.276 188.909 283.184 188.909H296.747C297.656 188.909 298.306 189.653 298.196 190.564L296.457 204.756C296.346 205.667 295.512 206.411 294.604 206.411Z" fill="#FDCC5E"/>
<path d="M199.807 227.848H186.244C185.335 227.848 184.685 227.103 184.795 226.193L186.535 212C186.645 211.09 187.479 210.346 188.387 210.346H201.951C202.859 210.346 203.51 211.09 203.399 212L201.66 226.193C201.549 227.103 200.715 227.848 199.807 227.848Z" fill="#D9DAE8"/>
<path d="M222.849 227.848H209.286C208.377 227.848 207.727 227.103 207.837 226.193L209.577 212C209.687 211.09 210.521 210.346 211.429 210.346H224.993C225.901 210.346 226.552 211.09 226.441 212L224.702 226.193C224.591 227.103 223.757 227.848 222.849 227.848Z" fill="#D9DAE8"/>
<path d="M245.892 227.848H232.328C231.42 227.848 230.769 227.103 230.88 226.193L232.619 212C232.73 211.09 233.563 210.346 234.472 210.346H248.035C248.943 210.346 249.594 211.09 249.483 212L247.744 226.193C247.633 227.103 246.8 227.848 245.892 227.848Z" fill="#D9DAE8"/>
<path d="M268.937 227.848H255.373C254.465 227.848 253.814 227.103 253.925 226.193L255.664 212C255.775 211.09 256.608 210.346 257.517 210.346H271.08C271.988 210.346 272.639 211.09 272.528 212L270.789 226.193C270.678 227.103 269.845 227.848 268.937 227.848Z" fill="#D9DAE8"/>
<path d="M291.979 227.848H278.416C277.507 227.848 276.857 227.103 276.967 226.193L278.706 212C278.817 211.09 279.651 210.346 280.559 210.346H294.122C295.031 210.346 295.681 211.09 295.571 212L293.832 226.193C293.721 227.103 292.887 227.848 291.979 227.848Z" fill="#D9DAE8"/>
<path d="M197.11 249.87H183.546C182.638 249.87 181.987 249.126 182.098 248.215L183.837 234.023C183.948 233.112 184.782 232.368 185.69 232.368H199.253C200.162 232.368 200.812 233.112 200.702 234.023L198.962 248.215C198.852 249.126 198.018 249.87 197.11 249.87Z" fill="#D9DAE8"/>
<path d="M220.152 249.87H206.589C205.68 249.87 205.029 249.126 205.14 248.215L206.879 234.023C206.99 233.112 207.824 232.368 208.732 232.368H222.295C223.204 232.368 223.854 233.112 223.744 234.023L222.004 248.215C221.894 249.126 221.06 249.87 220.152 249.87Z" fill="#FDCC5E"/>
<path d="M243.194 249.87H229.631C228.723 249.87 228.072 249.126 228.183 248.215L229.922 234.023C230.032 233.112 230.866 232.368 231.774 232.368H245.338C246.246 232.368 246.897 233.112 246.786 234.023L245.047 248.215C244.936 249.126 244.103 249.87 243.194 249.87Z" fill="#D9DAE8"/>
<path d="M266.239 249.87H252.676C251.768 249.87 251.117 249.126 251.228 248.215L252.967 234.023C253.077 233.112 253.911 232.368 254.819 232.368H268.383C269.291 232.368 269.942 233.112 269.831 234.023L268.092 248.215C267.981 249.126 267.148 249.87 266.239 249.87Z" fill="#D9DAE8"/>
<path d="M289.282 249.87H275.718C274.81 249.87 274.159 249.126 274.27 248.215L276.009 234.023C276.12 233.112 276.953 232.368 277.862 232.368H291.425C292.333 232.368 292.984 233.112 292.873 234.023L291.134 248.215C291.024 249.126 290.19 249.87 289.282 249.87Z" fill="#D9DAE8"/>
<path d="M194.413 271.896H180.849C179.941 271.896 179.29 271.151 179.401 270.241L181.14 256.049C181.251 255.138 182.084 254.394 182.993 254.394H196.556C197.464 254.394 198.115 255.138 198.004 256.049L196.265 270.241C196.154 271.151 195.321 271.896 194.413 271.896Z" fill="#D9DAE8"/>
<path d="M217.455 271.896H203.892C202.983 271.896 202.333 271.151 202.443 270.241L204.182 256.049C204.293 255.138 205.127 254.394 206.035 254.394H219.598C220.507 254.394 221.157 255.138 221.047 256.049L219.308 270.241C219.197 271.151 218.363 271.896 217.455 271.896Z" fill="#D9DAE8"/>
<path d="M240.5 271.896H226.937C226.028 271.896 225.378 271.151 225.488 270.241L227.227 256.049C227.338 255.138 228.172 254.394 229.08 254.394H242.643C243.552 254.394 244.202 255.138 244.092 256.049L242.353 270.241C242.242 271.151 241.408 271.896 240.5 271.896Z" fill="#D9DAE8"/>
<path d="M263.542 271.896H249.979C249.07 271.896 248.42 271.151 248.53 270.241L250.269 256.049C250.38 255.138 251.214 254.394 252.122 254.394H265.685C266.594 254.394 267.244 255.138 267.134 256.049L265.395 270.241C265.284 271.151 264.45 271.896 263.542 271.896Z" fill="#D9DAE8"/>
<path d="M286.585 271.896H273.021C272.113 271.896 271.462 271.151 271.573 270.241L273.312 256.049C273.423 255.138 274.256 254.394 275.164 254.394H288.728C289.636 254.394 290.287 255.138 290.176 256.049L288.437 270.241C288.326 271.151 287.493 271.896 286.585 271.896Z" fill="#D9DAE8"/>
<path d="M346.894 272.484H295.521C294.601 272.484 293.942 271.732 294.056 270.81L303.831 190.978C303.944 190.056 304.789 189.303 305.706 189.303H357.079C357.999 189.303 358.658 190.056 358.544 190.978L348.769 270.81C348.655 271.732 347.811 272.484 346.894 272.484Z" fill="#D9DAE8"/>
<path d="M349.846 211.312H308.956C308.552 211.312 308.261 210.981 308.311 210.573C308.361 210.168 308.732 209.835 309.136 209.835H350.026C350.43 209.835 350.721 210.168 350.671 210.573C350.621 210.979 350.25 211.312 349.846 211.312Z" fill="#E9E9F2"/>
<path d="M329.612 214.655H308.547C308.142 214.655 307.852 214.322 307.902 213.916C307.951 213.511 308.322 213.178 308.727 213.178H329.792C330.196 213.178 330.487 213.511 330.437 213.916C330.387 214.322 330.016 214.655 329.612 214.655Z" fill="#E9E9F2"/>
<path d="M349.566 214.655H331.835C331.431 214.655 331.14 214.322 331.19 213.916C331.24 213.511 331.611 213.178 332.015 213.178H349.746C350.151 213.178 350.441 213.511 350.392 213.916C350.342 214.322 349.971 214.655 349.566 214.655Z" fill="#E9E9F2"/>
<path d="M329.18 218.196H308.115C307.71 218.196 307.42 217.862 307.469 217.457C307.519 217.051 307.89 216.718 308.295 216.718H329.36C329.764 216.718 330.055 217.051 330.005 217.457C329.955 217.862 329.584 218.196 329.18 218.196Z" fill="#E9E9F2"/>
<path d="M349.132 218.196H331.401C330.996 218.196 330.706 217.862 330.756 217.457C330.805 217.051 331.176 216.718 331.581 216.718H349.312C349.716 216.718 350.007 217.051 349.957 217.457C349.907 217.862 349.536 218.196 349.132 218.196Z" fill="#E9E9F2"/>
<path d="M348.204 224.715H307.314C306.91 224.715 306.619 224.382 306.669 223.977C306.719 223.571 307.09 223.238 307.494 223.238H348.384C348.788 223.238 349.079 223.569 349.029 223.977C348.979 224.382 348.608 224.715 348.204 224.715Z" fill="#E9E9F2"/>
<path d="M345.728 244.922H304.839C304.434 244.922 304.144 244.589 304.194 244.183C304.243 243.778 304.614 243.445 305.019 243.445H345.908C346.313 243.445 346.603 243.775 346.554 244.183C346.504 244.589 346.133 244.922 345.728 244.922Z" fill="#E9E9F2"/>
<path d="M344.917 251.558H304.027C303.623 251.558 303.332 251.225 303.382 250.82C303.432 250.414 303.803 250.081 304.207 250.081H345.097C345.501 250.081 345.792 250.414 345.742 250.82C345.692 251.225 345.321 251.558 344.917 251.558Z" fill="#E9E9F2"/>
<path d="M344.067 258.492H303.177C302.773 258.492 302.482 258.162 302.532 257.754C302.582 257.348 302.953 257.015 303.357 257.015H344.247C344.651 257.015 344.942 257.348 344.892 257.754C344.842 258.159 344.471 258.492 344.067 258.492Z" fill="#E9E9F2"/>
<path d="M343.076 266.603H302.186C301.782 266.603 301.491 266.27 301.541 265.864C301.591 265.459 301.962 265.126 302.366 265.126H343.256C343.66 265.126 343.951 265.459 343.901 265.864C343.851 266.27 343.48 266.603 343.076 266.603Z" fill="#E9E9F2"/>
<path d="M327.97 228.059H306.905C306.5 228.059 306.21 227.728 306.259 227.32C306.309 226.915 306.68 226.581 307.085 226.581H328.15C328.554 226.581 328.845 226.915 328.795 227.32C328.745 227.725 328.374 228.059 327.97 228.059Z" fill="#E9E9F2"/>
<path d="M347.924 228.059H330.193C329.789 228.059 329.498 227.728 329.548 227.32C329.598 226.915 329.969 226.581 330.373 226.581H348.104C348.509 226.581 348.799 226.915 348.749 227.32C348.7 227.725 348.329 228.059 347.924 228.059Z" fill="#E9E9F2"/>
<path d="M327.538 231.599H306.473C306.068 231.599 305.777 231.269 305.827 230.86C305.877 230.455 306.248 230.122 306.653 230.122H327.718C328.122 230.122 328.413 230.455 328.363 230.86C328.313 231.266 327.942 231.599 327.538 231.599Z" fill="#E9E9F2"/>
<path d="M347.493 231.599H329.762C329.357 231.599 329.067 231.269 329.116 230.86C329.166 230.455 329.537 230.122 329.942 230.122H347.673C348.077 230.122 348.368 230.455 348.318 230.86C348.268 231.266 347.897 231.599 347.493 231.599Z" fill="#E9E9F2"/>
<path d="M190.55 188.812C195.556 188.762 200.563 188.714 205.57 188.664C204.958 192.388 203.512 197.547 199.882 202.676C199.198 203.64 198.497 204.525 197.791 205.331H182.788C184.128 203.581 185.618 201.365 186.983 198.694C188.932 194.882 189.968 191.433 190.547 188.812H190.55Z" fill="#FDCC5E"/>
<path d="M193.892 198.472H188.816C188.559 198.472 188.467 198.261 188.614 198C188.761 197.742 189.093 197.528 189.351 197.528H194.427C194.684 197.528 194.775 197.739 194.629 198C194.482 198.258 194.15 198.472 193.892 198.472Z" fill="#F57C00"/>
<path d="M200.846 198.472H195.77C195.512 198.472 195.421 198.261 195.568 198C195.714 197.742 196.047 197.528 196.304 197.528H201.38C201.638 197.528 201.729 197.739 201.582 198C201.436 198.258 201.103 198.472 200.846 198.472Z" fill="#F57C00"/>
<path d="M191.611 200.119H187.825C187.598 200.119 187.518 199.933 187.648 199.705L187.714 199.588C187.842 199.361 188.132 199.175 188.36 199.175H192.145C192.372 199.175 192.452 199.361 192.322 199.588L192.256 199.705C192.128 199.933 191.838 200.119 191.611 200.119Z" fill="#F57C00"/>
<path d="M199.912 200.119H193.252C192.995 200.119 192.903 199.908 193.05 199.647C193.197 199.388 193.529 199.175 193.787 199.175H200.447C200.704 199.175 200.795 199.386 200.649 199.647C200.502 199.905 200.17 200.119 199.912 200.119Z" fill="#F57C00"/>
<path d="M194.759 201.815H186.922C186.665 201.815 186.573 201.604 186.72 201.343C186.867 201.085 187.199 200.871 187.457 200.871H195.293C195.551 200.871 195.642 201.082 195.495 201.343C195.349 201.602 195.016 201.815 194.759 201.815Z" fill="#F57C00"/>
<path d="M190.694 203.659H185.787C185.579 203.659 185.507 203.49 185.623 203.281L185.729 203.095C185.848 202.887 186.114 202.718 186.321 202.718H191.228C191.436 202.718 191.508 202.887 191.392 203.095L191.286 203.281C191.167 203.49 190.901 203.659 190.694 203.659Z" fill="#F57C00"/>
<path d="M199.134 201.815H196.866C196.708 201.815 196.653 201.685 196.741 201.527L196.949 201.16C197.038 201.002 197.243 200.871 197.4 200.871H199.668C199.826 200.871 199.882 201.002 199.793 201.16L199.585 201.527C199.497 201.685 199.292 201.815 199.134 201.815Z" fill="#F57C00"/>
<path d="M198.159 190.114C198.104 190.575 197.683 190.95 197.224 190.95C196.764 190.95 196.437 190.575 196.492 190.114C196.548 189.653 196.969 189.278 197.428 189.278C197.888 189.278 198.215 189.653 198.159 190.114Z" fill="#F57C00"/>
<path d="M256.957 210.673C261.964 210.623 266.971 210.576 271.977 210.526C271.365 214.25 269.92 219.409 266.289 224.538C265.605 225.501 264.905 226.387 264.199 227.192H249.195C250.536 225.443 252.025 223.227 253.391 220.556C255.34 216.743 256.376 213.294 256.955 210.673H256.957Z" fill="#1C488F"/>
<path d="M260.3 220.334H255.224C254.966 220.334 254.875 220.123 255.022 219.862C255.169 219.603 255.501 219.389 255.758 219.389H260.834C261.092 219.389 261.183 219.601 261.036 219.862C260.89 220.12 260.557 220.334 260.3 220.334Z" fill="#132C51"/>
<path d="M267.253 220.334H262.178C261.92 220.334 261.829 220.123 261.975 219.862C262.122 219.603 262.454 219.389 262.712 219.389H267.788C268.045 219.389 268.137 219.601 267.99 219.862C267.843 220.12 267.511 220.334 267.253 220.334Z" fill="#132C51"/>
<path d="M258.018 221.98H254.233C254.006 221.98 253.925 221.794 254.056 221.566L254.122 221.45C254.249 221.222 254.54 221.036 254.767 221.036H258.553C258.78 221.036 258.86 221.222 258.73 221.45L258.663 221.566C258.536 221.794 258.245 221.98 258.018 221.98Z" fill="#132C51"/>
<path d="M266.32 221.98H259.66C259.402 221.98 259.311 221.769 259.458 221.508C259.605 221.25 259.937 221.036 260.194 221.036H266.854C267.112 221.036 267.203 221.247 267.056 221.508C266.91 221.766 266.577 221.98 266.32 221.98Z" fill="#132C51"/>
<path d="M261.167 223.677H253.33C253.072 223.677 252.981 223.466 253.128 223.205C253.274 222.947 253.607 222.733 253.864 222.733H261.701C261.959 222.733 262.05 222.944 261.903 223.205C261.756 223.463 261.424 223.677 261.167 223.677Z" fill="#132C51"/>
<path d="M257.101 225.521H252.194C251.987 225.521 251.915 225.351 252.031 225.143L252.136 224.957C252.255 224.749 252.521 224.579 252.729 224.579H257.636C257.844 224.579 257.916 224.749 257.799 224.957L257.694 225.143C257.575 225.351 257.309 225.521 257.101 225.521Z" fill="#132C51"/>
<path d="M265.542 223.677H263.274C263.116 223.677 263.061 223.546 263.149 223.388L263.357 223.022C263.445 222.863 263.65 222.733 263.808 222.733H266.076C266.234 222.733 266.289 222.863 266.201 223.022L265.993 223.388C265.904 223.546 265.7 223.677 265.542 223.677Z" fill="#132C51"/>
<path d="M264.567 211.975C264.512 212.436 264.091 212.811 263.631 212.811C263.172 212.811 262.845 212.436 262.9 211.975C262.956 211.515 263.376 211.14 263.836 211.14C264.296 211.14 264.623 211.515 264.567 211.975Z" fill="#132C51"/>
<path d="M207.996 240.923L211.263 244.661L224.971 232.418" stroke="#F57C00" stroke-width="9.44" stroke-miterlimit="10" stroke-linecap="round"/>
<path d="M284.012 196.678L287.279 200.413L300.987 188.173" stroke="#F57C00" stroke-width="9.44" stroke-miterlimit="10" stroke-linecap="round"/>
<path d="M475.406 440.198H8.9165V456.5H475.406V440.198Z" fill="#141921"/>
<path d="M301.744 134.692L378.497 134.786L378.561 82.094L301.808 82L301.744 134.692Z" fill="#FBCD7C"/>
<path d="M353.475 134.759L378.497 134.789L378.561 82.0973L353.539 82.0666L353.475 134.759Z" fill="#E9A95F"/>
<path d="M363.006 96.5896L369.062 96.597L369.08 82.0856L363.024 82.0782L363.006 96.5896Z" fill="#E8C0A6"/>
<path d="M324.922 96.5419L330.978 96.5493L330.996 82.0379L324.94 82.0305L324.922 96.5419Z" fill="#F4805E"/>
<path d="M55.8379 398.357C55.8379 396.974 65.7764 370.4 82.6158 364.308C75.9919 392.542 63.2925 403.191 58.0477 405.341C56.3917 402.786 55.8379 398.357 55.8379 398.357Z" fill="#F57C00"/>
<path d="M55.8379 374.552C55.8379 374.552 64.3946 358.774 82.6158 360.987C72.1262 367.632 55.8379 377.501 55.8379 377.501V374.552Z" fill="#F57C00"/>
<path d="M57.4219 341.003C57.4219 341.003 61.0827 315.315 84.5459 311.438C70.1905 331.092 57.4219 341.003 57.4219 341.003Z" fill="#F57C00"/>
<path d="M56.6129 353.148C56.6129 353.148 86.9326 336.074 86.9326 327.216C84.9997 341.055 76.994 352.959 56.0148 358.219C55.4637 357.666 56.6129 353.148 56.6129 353.148Z" fill="#F57C00"/>
<path d="M71.8489 290.679C71.8489 290.679 63.2922 269.642 71.8489 259.124C75.9888 265.491 75.4377 281.269 71.8489 290.679Z" fill="#F57C00"/>
<path d="M74.751 282.651C74.751 282.651 81.5105 268.534 93.382 265.488C87.8602 279.605 74.751 282.651 74.751 282.651Z" fill="#F57C00"/>
<path d="M51.1468 306.734C51.1468 306.734 40.3802 295.938 39.5522 282.651C48.937 289.571 51.1468 306.734 51.1468 306.734Z" fill="#F57C00"/>
<path d="M34.5818 316.975C34.5818 316.975 13.8767 300.642 12.2207 282.651C25.1943 288.741 34.5818 316.975 34.5818 316.975Z" fill="#F57C00"/>
<path d="M38.1704 324.864C38.1704 324.864 25.1968 324.725 15.5352 310.33C26.0248 312.546 38.1704 324.864 38.1704 324.864Z" fill="#F57C00"/>
<path d="M47.832 357.114C47.832 357.114 18.0191 338.567 0.625977 339.675C13.5995 331.37 39.8264 339.675 47.832 357.114Z" fill="#F57C00"/>
<path d="M54.1819 405.343C54.1819 405.343 40.3803 397.805 36.7915 378.706C47.2811 379.258 56.3917 398.488 54.1819 405.343Z" fill="#F57C00"/>
<path d="M55.8375 363.203C55.8375 363.203 48.1088 348.533 51.1438 339.95C55.5606 346.281 57.2166 357.666 55.8375 363.203Z" fill="#F57C00"/>
<path d="M42.0361 336.432C42.0361 336.432 48.6628 319.466 60.2545 316.975C56.9426 324.725 42.0361 336.432 42.0361 336.432Z" fill="#F57C00"/>
<path d="M33.6621 314.415C33.6621 314.415 52.3679 360.435 56.3112 402.786C47.832 335.244 74.7511 282.649 74.7511 282.649" stroke="#109490" stroke-width="2.48" stroke-miterlimit="10"/>
<path d="M50.709 304.219C50.709 304.219 52.041 320.732 58.9417 332.325L50.709 304.219Z" fill="#F57C00"/>
<path d="M42.6869 400.851H67.9334C70.4312 400.851 72.342 403.08 71.9681 405.554L66.607 440.986H43.1438L37.719 406.687C37.2344 403.622 39.5965 400.848 42.6924 400.848L42.6869 400.851Z" fill="#1C488F"/>
<path d="M69.9907 135.139H407.951C429.321 135.139 446.642 152.511 446.642 173.936V176.311C446.642 197.739 429.318 215.108 407.951 215.108H132.372C111.002 215.108 93.681 232.479 93.681 253.905C93.681 275.333 111.005 292.702 132.372 292.702H372.024C403.643 292.702 429.271 318.404 429.271 350.106C429.271 381.812 403.64 407.511 372.024 407.511H96.0486" stroke="#939598" stroke-width="2" stroke-miterlimit="10"/>
<path d="M426.336 197.911C438.208 186.006 438.208 166.705 426.336 154.801C414.464 142.896 395.216 142.896 383.344 154.801C371.472 166.705 371.472 186.006 383.344 197.911C395.216 209.815 414.464 209.815 426.336 197.911Z" fill="#1C488F"/>
<path d="M421.421 174.461C421.41 174.353 421.396 174.245 421.382 174.134C421.374 174.07 421.363 174.006 421.354 173.942C421.346 173.878 421.335 173.814 421.327 173.75C421.31 173.642 421.291 173.534 421.271 173.425C421.268 173.406 421.266 173.387 421.26 173.367C421.255 173.337 421.249 173.309 421.246 173.278C421.196 173.009 421.138 172.74 421.077 172.476C421.055 172.379 421.03 172.281 421.005 172.184L425.273 169.41L423.916 166.247L418.973 167.447C418.76 167.106 418.532 166.772 418.294 166.447C418.283 166.431 418.272 166.417 418.261 166.4C418.195 166.311 418.131 166.225 418.064 166.136C418.026 166.086 417.984 166.036 417.945 165.984C417.907 165.934 417.865 165.881 417.824 165.831C417.754 165.745 417.685 165.662 417.613 165.576C417.602 165.562 417.588 165.545 417.577 165.531C417.317 165.223 417.045 164.923 416.763 164.637L419.075 160.094L416.323 158.034L412.64 161.552C412.285 161.363 411.922 161.188 411.554 161.027C411.538 161.019 411.518 161.013 411.502 161.005C411.402 160.96 411.299 160.919 411.2 160.877C411.142 160.852 411.081 160.83 411.02 160.805C410.959 160.78 410.901 160.758 410.84 160.733C410.737 160.694 410.635 160.655 410.532 160.619C410.513 160.613 410.496 160.605 410.477 160.6C410.098 160.463 409.713 160.341 409.328 160.233L409.065 155.14L405.653 154.738L404.219 159.63C403.817 159.644 403.416 159.675 403.014 159.719C402.995 159.719 402.975 159.725 402.959 159.725C402.87 159.736 402.784 159.744 402.696 159.755C402.673 159.755 402.654 159.761 402.632 159.764C402.568 159.772 402.505 159.783 402.441 159.791C402.377 159.8 402.313 159.811 402.25 159.819C402.142 159.836 402.034 159.855 401.926 159.875C401.909 159.875 401.895 159.88 401.879 159.883C401.876 159.883 401.87 159.883 401.868 159.883C401.469 159.955 401.078 160.041 400.688 160.141L397.922 155.862L394.767 157.223L395.964 162.18C395.881 162.232 395.795 162.285 395.712 162.341C395.485 162.491 395.26 162.646 395.039 162.807C395.014 162.824 394.992 162.843 394.967 162.86C394.964 162.86 394.961 162.865 394.959 162.865C394.945 162.874 394.934 162.885 394.923 162.893C394.834 162.96 394.748 163.024 394.659 163.09C394.61 163.129 394.56 163.171 394.507 163.21C394.457 163.249 394.405 163.29 394.355 163.332C394.338 163.346 394.322 163.36 394.305 163.371C394.236 163.426 394.169 163.485 394.103 163.54C394.089 163.551 394.072 163.565 394.059 163.576C393.751 163.837 393.452 164.109 393.167 164.39L388.636 162.071L386.582 164.831L390.09 168.524C389.902 168.88 389.728 169.244 389.567 169.613C389.559 169.632 389.55 169.649 389.542 169.668C389.498 169.768 389.456 169.868 389.415 169.971C389.39 170.032 389.365 170.093 389.343 170.152C389.32 170.21 389.296 170.271 389.273 170.329C389.235 170.432 389.196 170.538 389.157 170.64C389.152 170.657 389.143 170.676 389.138 170.693C389.002 171.074 388.88 171.46 388.772 171.845L383.694 172.109L383.292 175.53L388.171 176.969C388.185 177.371 388.216 177.774 388.26 178.177C388.26 178.196 388.265 178.215 388.265 178.232C388.276 178.34 388.29 178.451 388.304 178.56C388.312 178.624 388.324 178.687 388.332 178.751C388.34 178.815 388.351 178.879 388.36 178.943C388.376 179.051 388.396 179.16 388.415 179.268C388.418 179.287 388.421 179.307 388.426 179.326C388.498 179.726 388.584 180.117 388.684 180.509L384.416 183.283L385.773 186.446L390.716 185.246C390.929 185.588 391.156 185.921 391.395 186.246C391.406 186.263 391.417 186.276 391.428 186.293C391.494 186.382 391.558 186.468 391.624 186.557C391.663 186.607 391.705 186.657 391.744 186.71C391.782 186.76 391.824 186.812 391.865 186.862C391.935 186.948 392.004 187.032 392.076 187.115C392.087 187.129 392.101 187.146 392.112 187.159C392.372 187.468 392.643 187.768 392.926 188.054L390.614 192.596L393.366 194.657L397.049 191.139C397.404 191.327 397.766 191.502 398.135 191.666C398.151 191.674 398.168 191.68 398.185 191.688C398.284 191.733 398.387 191.777 398.489 191.819C398.547 191.844 398.608 191.866 398.666 191.891C398.727 191.916 398.786 191.938 398.846 191.963C398.949 192.002 399.051 192.041 399.154 192.077C399.173 192.083 399.19 192.091 399.209 192.097C399.589 192.233 399.973 192.355 400.358 192.463L400.621 197.556L404.033 197.958L405.468 193.066C405.869 193.052 406.271 193.021 406.672 192.977C406.691 192.977 406.711 192.971 406.73 192.971C406.819 192.96 406.905 192.952 406.993 192.941C407.015 192.938 407.035 192.935 407.057 192.932C407.121 192.924 407.184 192.913 407.248 192.905C407.312 192.896 407.375 192.885 407.439 192.877C407.547 192.86 407.655 192.841 407.763 192.821C407.78 192.821 407.794 192.816 407.81 192.813C407.813 192.813 407.819 192.813 407.821 192.813C408.22 192.741 408.611 192.655 409.001 192.555L411.767 196.834L414.921 195.473L413.725 190.517C414.066 190.303 414.398 190.075 414.722 189.836C414.725 189.836 414.728 189.833 414.73 189.831C414.741 189.822 414.753 189.814 414.766 189.803C414.855 189.736 414.944 189.67 415.032 189.603C415.082 189.564 415.132 189.525 415.182 189.486C415.234 189.445 415.284 189.406 415.337 189.364C415.353 189.35 415.37 189.339 415.387 189.325C415.456 189.27 415.522 189.214 415.589 189.156C415.605 189.142 415.619 189.131 415.636 189.117C415.943 188.856 416.242 188.584 416.528 188.303L421.058 190.622L423.113 187.862L419.604 184.169C419.792 183.813 419.967 183.45 420.128 183.08C420.136 183.064 420.141 183.044 420.15 183.028C420.194 182.928 420.235 182.825 420.277 182.725C420.277 182.719 420.283 182.714 420.285 182.705C420.285 182.7 420.291 182.694 420.294 182.689C420.313 182.642 420.332 182.592 420.352 182.544C420.377 182.483 420.399 182.425 420.424 182.364C420.463 182.261 420.501 182.158 420.537 182.056C420.543 182.036 420.551 182.02 420.557 182C420.692 181.62 420.814 181.234 420.922 180.848L426.001 180.584L426.402 177.163L421.523 175.725C421.509 175.322 421.479 174.919 421.435 174.52C421.435 174.5 421.429 174.481 421.429 174.461H421.421ZM410.477 188.792C410.391 188.831 410.302 188.867 410.214 188.906C410.134 188.939 410.053 188.975 409.973 189.009C409.954 189.017 409.931 189.025 409.909 189.034C407.904 189.836 405.733 190.153 403.584 189.958C403.562 189.958 403.54 189.956 403.518 189.953C403.424 189.945 403.327 189.931 403.233 189.92C403.147 189.908 403.061 189.9 402.975 189.889C402.953 189.886 402.931 189.883 402.909 189.881C400.774 189.57 398.733 188.756 396.969 187.509C396.95 187.495 396.933 187.484 396.914 187.47C396.836 187.415 396.761 187.357 396.684 187.301C396.614 187.248 396.542 187.198 396.473 187.143C396.457 187.129 396.437 187.115 396.421 187.101C394.726 185.763 393.366 184.033 392.458 182.07C392.45 182.05 392.439 182.031 392.43 182.008C392.391 181.92 392.353 181.831 392.314 181.742C392.281 181.664 392.245 181.584 392.211 181.506C392.203 181.486 392.195 181.464 392.187 181.445C391.386 179.434 391.071 177.255 391.264 175.097C391.264 175.078 391.267 175.055 391.27 175.036C391.278 174.939 391.292 174.844 391.303 174.747C391.314 174.661 391.323 174.572 391.334 174.486C391.336 174.467 391.339 174.445 391.342 174.425C391.652 172.281 392.463 170.235 393.71 168.463C393.721 168.447 393.735 168.427 393.746 168.411C393.795 168.338 393.851 168.269 393.901 168.2C393.959 168.122 394.014 168.044 394.072 167.969C394.086 167.952 394.1 167.936 394.111 167.919C395.449 166.22 397.171 164.854 399.132 163.946C399.151 163.937 399.17 163.926 399.19 163.918C399.27 163.882 399.353 163.846 399.436 163.812C399.522 163.776 399.608 163.737 399.697 163.701C399.716 163.693 399.735 163.685 399.757 163.676C401.762 162.874 403.936 162.557 406.085 162.752C406.107 162.752 406.129 162.754 406.151 162.757C406.24 162.765 406.332 162.777 406.42 162.788C406.512 162.799 406.603 162.807 406.697 162.821C406.719 162.824 406.741 162.826 406.761 162.829C408.899 163.14 410.937 163.954 412.701 165.201C412.717 165.215 412.737 165.226 412.753 165.24C412.825 165.292 412.897 165.345 412.969 165.401C413.044 165.456 413.119 165.512 413.194 165.57C413.21 165.584 413.227 165.598 413.246 165.612C414.941 166.953 416.303 168.68 417.209 170.646C417.217 170.665 417.228 170.685 417.236 170.704C417.272 170.785 417.306 170.862 417.339 170.943C417.378 171.032 417.416 171.121 417.452 171.21C417.461 171.229 417.469 171.251 417.477 171.271C418.278 173.281 418.593 175.458 418.4 177.613C418.4 177.635 418.394 177.66 418.394 177.682C418.386 177.768 418.375 177.857 418.364 177.943C418.352 178.038 418.344 178.132 418.33 178.224C418.328 178.246 418.325 178.271 418.319 178.293C418.009 180.434 417.198 182.478 415.954 184.247C415.941 184.266 415.929 184.283 415.916 184.302C415.86 184.38 415.799 184.458 415.744 184.535C415.691 184.605 415.641 184.674 415.589 184.744C415.575 184.76 415.561 184.78 415.547 184.796C414.213 186.496 412.487 187.859 410.53 188.77C410.51 188.778 410.488 188.789 410.469 188.798L410.477 188.792Z" fill="white"/>
<path d="M155.493 276.297C167.365 264.393 167.365 245.091 155.493 233.187C143.621 221.282 124.373 221.282 112.501 233.187C100.629 245.091 100.629 264.393 112.501 276.297C124.373 288.202 143.621 288.202 155.493 276.297Z" fill="#FAA41C"/>
<path d="M150.579 252.847C150.568 252.739 150.554 252.63 150.54 252.519C150.532 252.455 150.521 252.391 150.513 252.328C150.504 252.264 150.493 252.2 150.485 252.136C150.468 252.028 150.449 251.919 150.43 251.811C150.427 251.792 150.424 251.772 150.419 251.753C150.413 251.722 150.408 251.695 150.405 251.664C150.355 251.395 150.297 251.125 150.236 250.861C150.214 250.764 150.189 250.667 150.164 250.57L154.431 247.796L153.074 244.633L148.131 245.833C147.918 245.491 147.691 245.158 147.453 244.833C147.442 244.816 147.431 244.803 147.417 244.786C147.35 244.697 147.287 244.611 147.22 244.522C147.181 244.472 147.14 244.422 147.101 244.369C147.062 244.319 147.021 244.267 146.979 244.217C146.91 244.131 146.841 244.047 146.769 243.961C146.758 243.947 146.744 243.931 146.733 243.917C146.473 243.609 146.201 243.309 145.919 243.023L148.231 238.48L145.478 236.419L141.795 239.938C141.441 239.749 141.078 239.574 140.71 239.413C140.693 239.404 140.674 239.399 140.657 239.391C140.558 239.346 140.455 239.305 140.355 239.263C140.297 239.238 140.236 239.216 140.175 239.191C140.115 239.166 140.056 239.143 139.995 239.118C139.893 239.08 139.791 239.041 139.688 239.005C139.669 238.999 139.652 238.991 139.633 238.985C139.253 238.849 138.868 238.727 138.483 238.619L138.22 233.526L134.809 233.123L133.374 238.016C132.973 238.03 132.571 238.061 132.17 238.105C132.15 238.105 132.131 238.111 132.114 238.111C132.026 238.122 131.94 238.13 131.851 238.141C131.829 238.141 131.81 238.147 131.788 238.149C131.724 238.158 131.66 238.169 131.597 238.177C131.533 238.185 131.469 238.197 131.405 238.205C131.298 238.222 131.189 238.241 131.082 238.26C131.065 238.263 131.051 238.266 131.034 238.269C131.032 238.269 131.026 238.269 131.023 238.269C130.627 238.341 130.234 238.427 129.844 238.527L127.077 234.248L123.923 235.609L125.119 240.565C125.036 240.618 124.951 240.671 124.867 240.726C124.64 240.876 124.416 241.032 124.195 241.193C124.17 241.209 124.148 241.229 124.123 241.245C124.12 241.245 124.117 241.251 124.114 241.251C124.1 241.259 124.089 241.271 124.078 241.279C123.99 241.345 123.904 241.409 123.815 241.476C123.765 241.515 123.716 241.556 123.663 241.595C123.613 241.634 123.56 241.676 123.511 241.718C123.494 241.731 123.477 241.745 123.461 241.756C123.392 241.812 123.325 241.87 123.259 241.926C123.245 241.937 123.228 241.951 123.214 241.962C122.907 242.223 122.608 242.495 122.323 242.776L117.792 240.457L115.738 243.217L119.246 246.91C119.058 247.266 118.883 247.629 118.723 247.999C118.714 248.018 118.706 248.035 118.698 248.054C118.653 248.154 118.612 248.254 118.57 248.357C118.545 248.418 118.521 248.479 118.498 248.537C118.476 248.596 118.451 248.657 118.429 248.715C118.39 248.818 118.352 248.923 118.313 249.026C118.307 249.043 118.299 249.062 118.293 249.079C118.158 249.459 118.036 249.845 117.928 250.231L112.849 250.495L112.448 253.916L117.327 255.354C117.341 255.757 117.371 256.16 117.416 256.562C117.416 256.582 117.421 256.601 117.421 256.618C117.432 256.726 117.446 256.837 117.46 256.945C117.468 257.009 117.479 257.073 117.488 257.137C117.496 257.201 117.507 257.265 117.515 257.329C117.532 257.437 117.551 257.545 117.571 257.653C117.573 257.673 117.576 257.692 117.582 257.712C117.654 258.112 117.74 258.503 117.839 258.895L113.572 261.669L114.929 264.831L119.872 263.632C120.085 263.973 120.312 264.307 120.55 264.632C120.561 264.648 120.573 264.662 120.584 264.679C120.65 264.768 120.714 264.854 120.78 264.943C120.819 264.993 120.86 265.043 120.899 265.095C120.938 265.145 120.98 265.198 121.021 265.248C121.09 265.334 121.16 265.417 121.232 265.501C121.243 265.515 121.256 265.531 121.268 265.545C121.528 265.853 121.799 266.153 122.082 266.439L119.769 270.982L122.522 273.042L126.205 269.524C126.559 269.713 126.922 269.888 127.291 270.052C127.307 270.06 127.324 270.066 127.34 270.074C127.44 270.118 127.543 270.163 127.645 270.205C127.703 270.23 127.764 270.252 127.822 270.277C127.883 270.302 127.941 270.324 128.002 270.349C128.105 270.388 128.207 270.427 128.31 270.463C128.329 270.468 128.346 270.477 128.365 270.482C128.744 270.618 129.129 270.74 129.514 270.849L129.777 275.941L133.189 276.344L134.623 271.451C135.025 271.437 135.426 271.407 135.828 271.362C135.847 271.362 135.867 271.357 135.886 271.357C135.975 271.346 136.06 271.337 136.149 271.326C136.171 271.326 136.191 271.321 136.213 271.318C136.276 271.31 136.34 271.299 136.404 271.29C136.468 271.282 136.531 271.271 136.595 271.262C136.703 271.246 136.811 271.226 136.919 271.207C136.936 271.207 136.949 271.201 136.966 271.199C136.969 271.199 136.974 271.199 136.977 271.199C137.373 271.126 137.766 271.04 138.157 270.94L140.923 275.219L144.077 273.859L142.881 268.902C143.222 268.688 143.554 268.461 143.878 268.222C143.881 268.222 143.883 268.219 143.886 268.216C143.897 268.208 143.908 268.2 143.922 268.189C144.011 268.122 144.099 268.055 144.188 267.989C144.238 267.95 144.288 267.911 144.338 267.872C144.39 267.83 144.44 267.792 144.493 267.75C144.509 267.736 144.526 267.725 144.542 267.711C144.612 267.655 144.678 267.6 144.745 267.542C144.758 267.528 144.775 267.517 144.792 267.503C145.099 267.242 145.398 266.97 145.683 266.689L150.214 269.008L152.268 266.248L148.76 262.555C148.948 262.199 149.123 261.835 149.283 261.466C149.292 261.449 149.297 261.43 149.305 261.413C149.35 261.313 149.391 261.211 149.433 261.111C149.433 261.105 149.438 261.099 149.441 261.091C149.441 261.086 149.447 261.08 149.449 261.074C149.469 261.027 149.488 260.977 149.508 260.93C149.533 260.869 149.555 260.811 149.58 260.75C149.618 260.647 149.657 260.544 149.693 260.441C149.699 260.422 149.707 260.405 149.712 260.386C149.848 260.005 149.97 259.619 150.078 259.233L155.157 258.97L155.558 255.549L150.679 254.11C150.665 253.708 150.635 253.305 150.59 252.905C150.59 252.886 150.585 252.866 150.585 252.847H150.579ZM139.635 267.178C139.55 267.217 139.461 267.253 139.372 267.292C139.292 267.325 139.212 267.361 139.131 267.394C139.112 267.403 139.09 267.411 139.068 267.419C137.063 268.222 134.892 268.538 132.743 268.344C132.721 268.344 132.699 268.341 132.677 268.339C132.582 268.33 132.485 268.316 132.391 268.305C132.305 268.294 132.22 268.286 132.134 268.275C132.112 268.272 132.089 268.269 132.067 268.266C129.932 267.955 127.891 267.142 126.127 265.895C126.108 265.881 126.091 265.87 126.072 265.856C125.995 265.801 125.92 265.742 125.842 265.687C125.773 265.634 125.701 265.584 125.632 265.528C125.615 265.515 125.596 265.501 125.579 265.487C123.884 264.148 122.525 262.418 121.616 260.455C121.608 260.436 121.597 260.416 121.589 260.394C121.55 260.305 121.511 260.216 121.472 260.128C121.439 260.05 121.403 259.969 121.37 259.892C121.362 259.872 121.353 259.85 121.345 259.83C120.545 257.82 120.229 255.64 120.423 253.483C120.423 253.463 120.426 253.441 120.429 253.422C120.437 253.324 120.451 253.23 120.462 253.133C120.473 253.047 120.481 252.958 120.492 252.872C120.495 252.852 120.498 252.83 120.501 252.811C120.811 250.667 121.622 248.621 122.868 246.849C122.879 246.832 122.893 246.813 122.904 246.796C122.954 246.724 123.009 246.655 123.059 246.585C123.117 246.508 123.173 246.43 123.231 246.355C123.245 246.338 123.259 246.321 123.27 246.305C124.607 244.605 126.33 243.239 128.29 242.331C128.31 242.323 128.329 242.312 128.348 242.303C128.429 242.267 128.512 242.231 128.595 242.198C128.681 242.162 128.766 242.123 128.852 242.087C128.872 242.079 128.891 242.07 128.913 242.062C130.918 241.259 133.092 240.943 135.241 241.137C135.263 241.137 135.285 241.14 135.307 241.143C135.396 241.151 135.487 241.162 135.576 241.173C135.667 241.184 135.759 241.193 135.853 241.207C135.875 241.209 135.897 241.212 135.916 241.215C138.054 241.526 140.092 242.34 141.856 243.586C141.873 243.6 141.892 243.611 141.909 243.625C141.981 243.678 142.053 243.731 142.125 243.786C142.2 243.842 142.274 243.897 142.349 243.956C142.366 243.97 142.382 243.983 142.402 243.997C144.097 245.338 145.459 247.066 146.365 249.032C146.373 249.051 146.384 249.07 146.392 249.09C146.428 249.17 146.461 249.248 146.495 249.329C146.533 249.418 146.572 249.506 146.608 249.595C146.617 249.615 146.625 249.637 146.633 249.656C147.433 251.667 147.749 253.844 147.555 255.999C147.555 256.021 147.55 256.046 147.55 256.068C147.541 256.154 147.53 256.243 147.519 256.329C147.508 256.423 147.5 256.518 147.486 256.609C147.483 256.632 147.481 256.657 147.475 256.679C147.165 258.82 146.353 260.863 145.11 262.632C145.096 262.652 145.085 262.668 145.071 262.688C145.016 262.766 144.955 262.843 144.9 262.921C144.847 262.99 144.797 263.06 144.745 263.127C144.731 263.143 144.717 263.163 144.703 263.179C143.368 264.879 141.643 266.242 139.685 267.153C139.666 267.161 139.644 267.172 139.624 267.181L139.635 267.178Z" fill="white"/>
<path d="M369.54 397.217C394.809 397.217 415.293 376.677 415.293 351.339C415.293 326.002 394.809 305.461 369.54 305.461C344.272 305.461 323.788 326.002 323.788 351.339C323.788 376.677 344.272 397.217 369.54 397.217Z" fill="#353842"/>
<path d="M394.496 348.49C394.477 348.326 394.458 348.163 394.435 347.999C394.422 347.902 394.408 347.804 394.394 347.707C394.38 347.613 394.366 347.516 394.352 347.421C394.327 347.257 394.3 347.094 394.269 346.933C394.264 346.905 394.261 346.874 394.255 346.846C394.247 346.802 394.242 346.758 394.233 346.713C394.159 346.308 394.073 345.905 393.979 345.505C393.943 345.358 393.907 345.214 393.868 345.067L400.29 340.89L398.246 336.128L390.808 337.933C390.487 337.422 390.146 336.919 389.786 336.428C389.769 336.403 389.75 336.381 389.733 336.359C389.637 336.225 389.537 336.095 389.437 335.961C389.379 335.884 389.318 335.809 389.257 335.734C389.196 335.656 389.138 335.581 389.074 335.503C388.969 335.376 388.864 335.248 388.759 335.12C388.739 335.098 388.723 335.076 388.703 335.053C388.31 334.587 387.903 334.14 387.479 333.707L390.957 326.87L386.812 323.771L381.271 329.064C380.736 328.781 380.194 328.517 379.637 328.273C379.609 328.261 379.584 328.25 379.557 328.239C379.404 328.173 379.255 328.109 379.1 328.045C379.011 328.009 378.92 327.973 378.831 327.937C378.743 327.901 378.651 327.864 378.563 327.828C378.408 327.77 378.252 327.712 378.1 327.656C378.072 327.645 378.045 327.637 378.017 327.626C377.444 327.42 376.868 327.237 376.286 327.073L375.89 319.409L370.756 318.804L368.596 326.168C367.993 326.19 367.389 326.234 366.785 326.301C366.758 326.304 366.73 326.307 366.699 326.312C366.567 326.326 366.436 326.343 366.303 326.359C366.273 326.362 366.24 326.368 366.207 326.373C366.11 326.387 366.013 326.401 365.919 326.415C365.824 326.429 365.727 326.443 365.633 326.457C365.47 326.482 365.307 326.509 365.146 326.54C365.124 326.543 365.099 326.548 365.077 326.551C365.071 326.551 365.066 326.551 365.06 326.554C364.462 326.662 363.869 326.793 363.288 326.942L359.123 320.503L354.374 322.552L356.174 330.011C356.046 330.091 355.919 330.172 355.794 330.252C355.451 330.477 355.113 330.711 354.781 330.955C354.745 330.98 354.709 331.008 354.673 331.035C354.667 331.038 354.665 331.041 354.659 331.047C354.64 331.06 354.623 331.074 354.604 331.088C354.471 331.185 354.341 331.285 354.208 331.388C354.13 331.446 354.055 331.508 353.981 331.566C353.903 331.627 353.828 331.685 353.751 331.749C353.726 331.769 353.701 331.788 353.676 331.81C353.574 331.894 353.471 331.98 353.371 332.066C353.349 332.085 353.327 332.102 353.305 332.121C352.84 332.516 352.394 332.924 351.962 333.349L345.144 329.861L342.054 334.018L347.332 339.574C347.049 340.107 346.786 340.654 346.543 341.212C346.532 341.24 346.518 341.268 346.507 341.296C346.44 341.446 346.376 341.598 346.316 341.748C346.28 341.84 346.244 341.932 346.208 342.02C346.172 342.109 346.136 342.198 346.102 342.287C346.041 342.442 345.986 342.598 345.928 342.756C345.92 342.784 345.909 342.809 345.9 342.834C345.695 343.409 345.513 343.986 345.349 344.569L337.706 344.967L337.103 350.115L344.446 352.281C344.469 352.886 344.513 353.491 344.579 354.097C344.582 354.124 344.585 354.152 344.59 354.183C344.61 354.347 344.629 354.51 344.651 354.677C344.665 354.774 344.679 354.871 344.693 354.966C344.707 355.06 344.721 355.157 344.734 355.252C344.759 355.416 344.787 355.579 344.817 355.741C344.823 355.768 344.826 355.799 344.831 355.827C344.939 356.426 345.069 357.021 345.219 357.604L338.797 361.78L340.841 366.542L348.279 364.737C348.6 365.248 348.941 365.751 349.301 366.242C349.317 366.264 349.337 366.289 349.353 366.312C349.45 366.445 349.55 366.575 349.65 366.709C349.708 366.787 349.769 366.861 349.83 366.936C349.891 367.014 349.949 367.089 350.012 367.167C350.115 367.295 350.223 367.422 350.328 367.55C350.347 367.572 350.364 367.595 350.384 367.617C350.777 368.083 351.184 368.53 351.607 368.964L348.129 375.8L352.275 378.899L357.816 373.606C358.35 373.89 358.896 374.153 359.453 374.398C359.477 374.409 359.505 374.42 359.53 374.431C359.682 374.498 359.835 374.562 359.99 374.625C360.078 374.661 360.167 374.698 360.258 374.734C360.35 374.77 360.438 374.806 360.53 374.842C360.685 374.9 360.837 374.959 360.992 375.014C361.02 375.025 361.048 375.034 361.075 375.045C361.648 375.25 362.224 375.433 362.806 375.597L363.202 383.261L368.336 383.866L370.496 376.502C371.1 376.48 371.703 376.436 372.307 376.369C372.335 376.366 372.365 376.361 372.393 376.358C372.526 376.344 372.656 376.328 372.789 376.311C372.819 376.308 372.853 376.303 372.886 376.297C372.983 376.283 373.08 376.269 373.177 376.255C373.271 376.241 373.368 376.228 373.462 376.214C373.625 376.189 373.789 376.161 373.949 376.13C373.971 376.128 373.996 376.122 374.018 376.119C374.024 376.119 374.029 376.119 374.035 376.117C374.633 376.008 375.226 375.878 375.807 375.728L379.972 382.167L384.721 380.118L382.921 372.659C383.431 372.337 383.932 371.996 384.422 371.635C384.428 371.632 384.43 371.629 384.436 371.626C384.453 371.613 384.472 371.599 384.489 371.588C384.622 371.488 384.754 371.388 384.887 371.288C384.962 371.229 385.037 371.171 385.112 371.11C385.189 371.049 385.267 370.988 385.344 370.927C385.369 370.907 385.394 370.888 385.419 370.866C385.521 370.782 385.621 370.696 385.724 370.613C385.746 370.593 385.771 370.574 385.793 370.555C386.255 370.16 386.704 369.752 387.133 369.327L393.951 372.815L397.041 368.658L391.763 363.102C392.046 362.566 392.309 362.022 392.552 361.463C392.563 361.436 392.575 361.411 392.586 361.383C392.652 361.23 392.716 361.08 392.78 360.925C392.782 360.916 392.788 360.905 392.791 360.897C392.793 360.889 392.799 360.88 392.802 360.872C392.832 360.8 392.86 360.728 392.888 360.655C392.924 360.567 392.96 360.475 392.996 360.386C393.054 360.231 393.112 360.075 393.167 359.92C393.178 359.892 393.187 359.864 393.198 359.839C393.403 359.264 393.585 358.687 393.749 358.104L401.392 357.706L401.995 352.558L394.651 350.392C394.629 349.787 394.585 349.182 394.519 348.576C394.516 348.549 394.51 348.518 394.507 348.49H394.496ZM378.028 370.06C377.898 370.119 377.765 370.174 377.635 370.233C377.513 370.285 377.394 370.338 377.272 370.388C377.242 370.402 377.208 370.413 377.178 370.427C374.162 371.635 370.892 372.112 367.658 371.818C367.624 371.815 367.591 371.813 367.558 371.81C367.414 371.796 367.273 371.776 367.129 371.76C366.999 371.746 366.868 371.732 366.741 371.713C366.708 371.707 366.675 371.704 366.641 371.699C363.426 371.232 360.358 370.008 357.702 368.13C357.675 368.111 357.647 368.092 357.619 368.072C357.503 367.989 357.389 367.9 357.276 367.814C357.171 367.736 357.066 367.658 356.96 367.578C356.933 367.558 356.908 367.536 356.88 367.514C354.33 365.498 352.28 362.899 350.918 359.942C350.904 359.911 350.89 359.881 350.876 359.85C350.815 359.717 350.76 359.581 350.702 359.447C350.652 359.328 350.599 359.211 350.55 359.092C350.536 359.062 350.525 359.031 350.514 358.998C349.309 355.971 348.833 352.692 349.126 349.446C349.129 349.415 349.132 349.384 349.135 349.351C349.148 349.207 349.168 349.062 349.184 348.918C349.201 348.787 349.212 348.657 349.232 348.524C349.237 348.493 349.24 348.463 349.245 348.432C349.711 345.205 350.935 342.126 352.807 339.46C352.826 339.432 352.843 339.407 352.862 339.38C352.939 339.271 353.017 339.169 353.097 339.063C353.183 338.947 353.269 338.83 353.358 338.716C353.377 338.691 353.396 338.666 353.419 338.638C355.429 336.078 358.024 334.026 360.973 332.66C361.003 332.646 361.031 332.632 361.061 332.618C361.183 332.563 361.308 332.51 361.432 332.457C361.563 332.402 361.69 332.343 361.823 332.291C361.853 332.279 361.884 332.266 361.912 332.254C364.93 331.047 368.2 330.569 371.435 330.863C371.468 330.866 371.501 330.869 371.534 330.872C371.67 330.886 371.803 330.902 371.939 330.919C372.077 330.936 372.216 330.949 372.354 330.969C372.387 330.974 372.418 330.977 372.451 330.983C375.666 331.449 378.737 332.677 381.393 334.554C381.42 334.573 381.445 334.593 381.473 334.609C381.581 334.687 381.689 334.77 381.797 334.851C381.911 334.934 382.024 335.017 382.135 335.103C382.16 335.123 382.187 335.145 382.212 335.165C384.766 337.18 386.812 339.782 388.174 342.74C388.188 342.77 388.202 342.798 388.216 342.828C388.269 342.948 388.318 343.067 388.371 343.189C388.429 343.323 388.487 343.456 388.543 343.589C388.554 343.62 388.568 343.65 388.579 343.681C389.783 346.705 390.26 349.984 389.966 353.228C389.963 353.264 389.96 353.297 389.958 353.333C389.944 353.464 389.927 353.594 389.913 353.725C389.897 353.866 389.883 354.008 389.864 354.149C389.858 354.185 389.852 354.219 389.85 354.255C389.384 357.476 388.163 360.553 386.291 363.213C386.272 363.241 386.253 363.268 386.233 363.296C386.147 363.416 386.059 363.529 385.973 363.646C385.895 363.749 385.821 363.854 385.74 363.957C385.721 363.985 385.699 364.01 385.679 364.038C383.669 366.595 381.077 368.65 378.128 370.016C378.097 370.03 378.067 370.044 378.036 370.058L378.028 370.06Z" fill="white"/>
<path d="M484.738 183.243H413.681C411.879 183.243 410.419 184.707 410.419 186.514V286.864C410.419 288.67 411.879 290.135 413.681 290.135H484.738C486.54 290.135 488 288.67 488 286.864V186.514C488 184.707 486.54 183.243 484.738 183.243Z" fill="#E9E9F2"/>
<path d="M475.101 192.548H422.229C420.394 192.548 418.906 194.04 418.906 195.88V251.274C418.906 253.114 420.394 254.606 422.229 254.606H475.101C476.936 254.606 478.424 253.114 478.424 251.274V195.88C478.424 194.04 476.936 192.548 475.101 192.548Z" fill="#1C488F"/>
<path d="M472.208 267.668H425.026C423.67 267.668 422.559 266.554 422.559 265.194C422.559 263.833 423.67 262.72 425.026 262.72H472.208C473.564 262.72 474.675 263.833 474.675 265.194C474.675 266.554 473.564 267.668 472.208 267.668Z" fill="#FAA41C"/>
<path d="M474.032 272.716H423.202C422.85 272.716 422.559 272.427 422.559 272.072C422.559 271.719 422.847 271.428 423.202 271.428H474.032C474.384 271.428 474.675 271.716 474.675 272.072C474.675 272.425 474.387 272.716 474.032 272.716Z" fill="white"/>
<path d="M438.224 219.785C437.388 208.539 444.228 200.725 449.29 200.695C454.341 200.664 461.244 208.353 460.602 219.56L459.381 219.671C459.768 209.281 453.978 202.141 449.661 202.072C445.294 202.003 439.16 209.12 439.457 219.766L438.221 219.788L438.224 219.785Z" fill="white"/>
<path d="M463.485 222.323C463.485 222.323 461.275 232.206 462.787 237.981C462.801 238.037 462.823 238.081 462.853 238.12H435.497C434.168 238.12 433.09 237.04 433.09 235.707V221.39C433.088 219.724 434.428 218.375 436.089 218.369H462.718C463.296 218.369 463.836 218.533 464.296 218.819C463.956 220.238 463.684 221.435 463.485 222.323Z" fill="white"/>
<path d="M465.722 221.382V235.707C465.722 236.882 464.886 237.859 463.778 238.076C463.629 238.104 463.474 238.12 463.316 238.12H462.853C462.823 238.081 462.801 238.037 462.787 237.981C461.275 232.206 463.485 222.323 463.485 222.323C463.684 221.435 463.955 220.238 464.296 218.819C464.338 218.844 464.379 218.872 464.421 218.899C465.207 219.444 465.722 220.352 465.722 221.382Z" fill="#76797F"/>
<path d="M463.316 238.12C463.474 238.12 463.629 238.104 463.778 238.076V238.126C463.778 238.126 463.144 238.398 462.898 238.173C462.881 238.156 462.865 238.14 462.854 238.12H463.316Z" fill="#76797F"/>
<path d="M449.262 226.133H447.008V231.209H449.262V226.133Z" fill="#76797F"/>
<path d="M154.68 26H54.5941C52.0568 26 50 28.0625 50 30.6067V171.953C50 174.497 52.0568 176.56 54.5941 176.56H154.68C157.217 176.56 159.274 174.497 159.274 171.953V30.6067C159.274 28.0625 157.217 26 154.68 26Z" fill="#E9E9F2"/>
<path d="M142.36 41.1973H67.886C65.3013 41.1973 63.2061 43.2983 63.2061 45.8901V123.912C63.2061 126.504 65.3013 128.605 67.886 128.605H142.36C144.945 128.605 147.04 126.504 147.04 123.912V45.8901C147.04 43.2983 144.945 41.1973 142.36 41.1973Z" fill="#1C488F"/>
<path d="M136.891 147.007H70.4362C68.5255 147.007 66.9609 145.438 66.9609 143.522C66.9609 141.606 68.5255 140.037 70.4362 140.037H136.891C138.802 140.037 140.366 141.606 140.366 143.522C140.366 145.438 138.802 147.007 136.891 147.007Z" fill="#FAA41C"/>
<path d="M139.463 154.118H67.8637C67.368 154.118 66.9609 153.71 66.9609 153.213C66.9609 152.716 67.368 152.307 67.8637 152.307H139.461C139.956 152.307 140.363 152.716 140.363 153.213C140.363 153.71 139.956 154.118 139.461 154.118H139.463Z" fill="white"/>
<path d="M90.2497 59.513C89.1088 59.1575 83.504 63.2033 82.3382 68.3792C81.1724 73.5551 81.8536 74.3215 81.8536 74.3215C81.8536 74.3215 91.194 81.1163 93.6281 84.3152C96.0594 87.5112 99.3354 96.2914 100.235 100.856C101.138 105.421 103.916 107.621 110.863 108.018C117.811 108.415 135.224 106.063 135.98 105.524C136.736 104.986 136.963 103.542 132.158 101.229C127.354 98.9155 120.121 95.8804 118.528 95.7888C116.936 95.6972 112.503 97.0467 108.939 93.348C105.375 89.6494 101.044 76.443 97.9729 71.753C94.8991 67.063 90.2469 59.5157 90.2469 59.5157L90.2497 59.513Z" fill="white"/>
<path d="M107.524 95.3029C111.01 97.8325 120.145 98.063 120.483 97.2105C120.613 96.8801 119.755 96.3386 118.653 95.7999C118.611 95.7943 118.567 95.7888 118.531 95.7888C116.939 95.6972 112.505 97.0467 108.941 93.3452C105.377 89.6466 101.047 76.4402 97.9755 71.7502C94.9017 67.0602 90.2495 59.5129 90.2495 59.5129C90.2495 59.5129 95.6632 68.9956 97.8509 73.9272C100.039 78.8588 104.037 92.7732 107.524 95.3029Z" fill="#BCBEC0"/>
<path d="M81.7871 74.1133C81.668 79.0448 81.6902 84.2791 81.9062 89.7799C82.1194 95.2251 82.5015 100.39 82.9972 105.255C83.6231 105.291 84.2517 105.327 84.8775 105.363C84.5978 103.789 81.9366 88.4442 84.8138 83.5182C85.2402 82.7907 86.0793 81.2913 87.6854 80.9553C88.7737 80.7276 90.0891 80.9553 91.4986 82.0216C91.4986 82.0216 86.2233 75.2407 81.7871 74.1133Z" fill="#76797F"/>
<path d="M82.9971 105.255L82.9141 106.707L84.8636 106.804L84.8774 105.363L82.9971 105.255Z" fill="white"/>
<path d="M98.9999 439.367L296.185 439.609L296.349 304.242L99.1648 304L98.9999 439.367Z" fill="#FBCD7C"/>
<path d="M231.904 439.533L296.185 439.612L296.349 304.245L232.069 304.166L231.904 439.533Z" fill="#E9A95F"/>
<path d="M256.383 341.478L271.945 341.497L271.991 304.215L256.429 304.196L256.383 341.478Z" fill="#E8C0A6"/>
<path d="M158.545 341.351L174.107 341.37L174.152 304.088L158.59 304.069L158.545 341.351Z" fill="#F4805E"/>
<path d="M378.023 439.248L444.333 439.329L444.389 393.807L378.078 393.726L378.023 439.248Z" fill="#FBCD7C"/>
<path d="M422.717 439.304L444.333 439.33L444.389 393.808L422.773 393.781L422.717 439.304Z" fill="#E9A95F"/>
<path d="M430.947 406.328L436.181 406.335L436.196 393.797L430.963 393.791L430.947 406.328Z" fill="#E8C0A6"/>
<path d="M398.049 406.288L403.283 406.294L403.298 393.757L398.065 393.751L398.049 406.288Z" fill="#F4805E"/>
</g>
<defs>
<clipPath id="clip0_1010_5772">
<rect width="488" height="456" fill="white" transform="translate(0 0.5)"/>
</clipPath>
</defs>
</svg>
