<svg width="32" height="32" viewBox="0 0 32 32" fill="none" xmlns="http://www.w3.org/2000/svg">
<path d="M14.659 14.2014C15.3996 13.7714 16.6004 13.7714 17.341 14.2014L30.659 21.9329C31.3996 22.3629 31.3996 23.06 30.659 23.49L17.341 31.2215C16.6004 31.6515 15.3996 31.6515 14.659 31.2215L1.34104 23.49C0.600404 23.06 0.600405 22.3629 1.34104 21.9329L14.659 14.2014Z" fill="#F57C00" fill-opacity="0.6"/>
<path d="M14.659 7.48995C15.3996 7.05998 16.6004 7.05998 17.341 7.48995L30.659 15.2215C31.3996 15.6515 31.3996 16.3486 30.659 16.7785L17.341 24.5101C16.6004 24.94 15.3996 24.94 14.659 24.5101L1.34104 16.7785C0.600404 16.3486 0.600405 15.6515 1.34104 15.2215L14.659 7.48995Z" fill="#F57C00" fill-opacity="0.8"/>
<path d="M14.659 0.778524C15.3996 0.348557 16.6004 0.348557 17.341 0.778523L30.659 8.51007C31.3996 8.94003 31.3996 9.63715 30.659 10.0671L17.341 17.7987C16.6004 18.2286 15.3996 18.2286 14.659 17.7987L1.34104 10.0671C0.600404 9.63715 0.600405 8.94003 1.34104 8.51007L14.659 0.778524Z" fill="#F57C00"/>
</svg>
