<svg width="498" height="310" viewBox="0 0 498 310" fill="none" xmlns="http://www.w3.org/2000/svg">
<path d="M460.447 0H46.4835C43.1244 0 40.4014 2.72457 40.4014 6.08551V277.089C40.4014 280.45 43.1244 283.174 46.4835 283.174H460.447C463.806 283.174 466.529 280.45 466.529 277.089V6.08551C466.529 2.72457 463.806 0 460.447 0Z" fill="#F4F9FF"/>
<path d="M363.811 182.219H80.9497V25.8596H363.811V182.219ZM82.3973 180.771H362.364V27.3063H82.3973V180.769V180.771Z" fill="#D7E3F4"/>
<path d="M363.088 154.952H81.6738V156.4H363.088V154.952Z" fill="#D7E3F4"/>
<path d="M363.088 129.133H81.6738V130.581H363.088V129.133Z" fill="#D7E3F4"/>
<path d="M363.088 103.315H81.6738V104.764H363.088V103.315Z" fill="#D7E3F4"/>
<path d="M363.088 77.4961H81.6738V78.9445H363.088V77.4961Z" fill="#D7E3F4"/>
<path d="M363.088 51.677H81.6738V53.1254H363.088V51.677Z" fill="#D7E3F4"/>
<path d="M316.909 26.5838H315.462V181.495H316.909V26.5838Z" fill="#D7E3F4"/>
<path d="M270.008 26.5838H268.56V181.495H270.008V26.5838Z" fill="#D7E3F4"/>
<path d="M223.105 26.5838H221.658V181.495H223.105V26.5838Z" fill="#D7E3F4"/>
<path d="M176.201 26.5838H174.754V181.495H176.201V26.5838Z" fill="#D7E3F4"/>
<path d="M129.3 26.5838H127.852V181.495H129.3V26.5838Z" fill="#D7E3F4"/>
<path d="M194.179 114.656L204.898 97.3985C198.15 88.9322 191.395 80.4553 184.63 71.9676L165.426 78.5815C156.481 73.6338 151.961 71.1354 143.012 66.1894L138.396 46.4001C127.643 45.188 116.875 43.9737 106.095 42.7572L97.1884 61.0205L72.5816 68.1138L55.3308 57.3894C46.8716 64.1395 38.4005 70.8985 29.9176 77.6666L36.5278 96.8819C31.5828 105.832 29.0859 110.354 24.1409 119.305L4.36445 123.927C3.15309 134.686 1.93949 145.46 0.723633 156.248L18.9749 165.156L26.0642 189.777L15.3459 207.037C22.0933 215.503 28.8491 223.98 35.6134 232.468L54.8179 225.854C63.7631 230.802 68.2829 233.3 77.228 238.248L81.8473 258.036C92.6011 259.248 103.368 260.462 114.147 261.678L123.054 243.415L147.66 236.322L164.911 247.046C173.373 240.295 181.845 233.535 190.328 226.767L183.716 207.554C188.664 198.602 191.161 194.081 196.106 185.129L215.883 180.507C217.094 169.748 218.308 158.974 219.523 148.186L201.27 139.275L194.181 114.654L194.179 114.656ZM125.284 204.885C96.2132 213.264 65.8551 196.478 57.4802 167.388C49.1053 138.301 65.8872 107.929 94.958 99.5491C124.029 91.1695 154.387 107.956 162.762 137.043C171.137 166.133 154.357 196.507 125.286 204.885H125.284Z" fill="white"/>
<path d="M101.383 230.324C101.356 230.324 101.329 230.324 101.3 230.319C86.0586 228.591 71.7417 222.476 59.8964 212.638C47.7626 202.56 39.0334 189.188 34.6502 173.966C31.7163 163.774 30.8643 153.309 32.1196 142.867C33.3326 132.781 36.4487 123.137 41.3836 114.205C46.3184 105.273 52.8223 97.5031 60.7129 91.1104C68.8837 84.4915 78.1916 79.6467 88.3801 76.7094C98.567 73.7739 109.025 72.9214 119.464 74.1773C129.546 75.3894 139.183 78.5072 148.111 83.4449C157.038 88.3808 164.805 94.8883 171.194 102.783C177.81 110.959 182.653 120.272 185.587 130.464C185.699 130.849 185.476 131.249 185.093 131.361C184.708 131.472 184.308 131.249 184.197 130.866C178.498 111.07 165.433 94.679 147.411 84.7143C129.389 74.7496 108.568 72.4015 88.7816 78.1055C68.995 83.8078 52.6131 96.8786 42.6523 114.909C32.6898 132.941 30.343 153.773 36.0421 173.569C44.7021 203.646 70.3802 225.358 101.464 228.884C101.86 228.93 102.147 229.288 102.101 229.686C102.059 230.056 101.747 230.329 101.383 230.329V230.324Z" fill="#2D4351"/>
<path d="M433.805 89.9743H296.775V261.862H433.805V89.9743Z" fill="#2D4351"/>
<path d="M385.954 89.9743H379.475L356.741 261.862H433.806V89.9743H385.954Z" fill="#23363F"/>
<path d="M107.721 144.977H96.2859C94.7826 144.977 93.8379 146.197 94.1753 147.701L129.698 305.582C130.037 307.086 131.53 308.306 133.033 308.306H144.468L107.72 144.977H107.721Z" fill="#2D4351"/>
<path d="M385.377 308.306H140.252C138.749 308.306 137.254 307.086 136.917 305.582L101.395 147.701C101.056 146.197 102 144.977 103.505 144.977H348.629C350.133 144.977 351.627 146.197 351.965 147.701L387.487 305.582C387.826 307.086 386.881 308.306 385.377 308.306Z" fill="#3B82F4"/>
<path d="M142.604 298.691L110.183 154.59C109.887 153.279 110.711 152.217 112.022 152.217H343.372C344.683 152.217 345.984 153.28 346.279 154.59L378.7 298.691C378.996 300.003 378.172 301.065 376.861 301.065H145.511C144.2 301.065 142.899 300.001 142.604 298.691Z" fill="white"/>
<path d="M345.174 271.076H304.354L284.358 182.206H325.18L345.174 271.076Z" fill="#ECF3FE"/>
<g opacity="0.4">
<path d="M281.522 283.174H219.794C217.594 283.174 215.411 281.39 214.915 279.189L191.268 174.091C190.773 171.89 192.154 170.106 194.354 170.106H256.082C258.282 170.106 260.465 171.89 260.961 174.091L284.608 279.189C285.102 281.39 283.722 283.174 281.522 283.174Z" fill="#3B82F4"/>
<path d="M247.368 203.573L218.341 188.733C216.318 187.699 214.007 189.493 214.506 191.711L221.184 221.389C221.597 223.222 223.716 224.075 225.282 223.035L247.631 208.195C249.34 207.061 249.195 204.505 247.368 203.572V203.573Z" fill="white"/>
<path d="M265.797 233.364H212.779C212.379 233.364 212.055 233.04 212.055 232.64C212.055 232.24 212.379 231.916 212.779 231.916H265.797C266.197 231.916 266.521 232.24 266.521 232.64C266.521 233.04 266.197 233.364 265.797 233.364Z" fill="#2D4351"/>
<path d="M270.502 254.285H217.485C217.086 254.285 216.762 253.961 216.762 253.561C216.762 253.16 217.086 252.836 217.485 252.836H270.502C270.902 252.836 271.225 253.16 271.225 253.561C271.225 253.961 270.902 254.285 270.502 254.285Z" fill="white"/>
<path d="M234.873 247.429H215.942C215.542 247.429 215.218 247.105 215.218 246.705C215.218 246.305 215.542 245.981 215.942 245.981H234.873C235.273 245.981 235.597 246.305 235.597 246.705C235.597 247.105 235.273 247.429 234.873 247.429Z" fill="white"/>
<path d="M272.371 262.587H219.355C218.955 262.587 218.631 262.263 218.631 261.862C218.631 261.462 218.955 261.138 219.355 261.138H272.371C272.771 261.138 273.095 261.462 273.095 261.862C273.095 262.263 272.771 262.587 272.371 262.587Z" fill="white"/>
<path d="M274.239 270.887H221.223C220.823 270.887 220.499 270.563 220.499 270.163C220.499 269.763 220.823 269.439 221.223 269.439H274.239C274.639 269.439 274.963 269.763 274.963 270.163C274.963 270.563 274.639 270.887 274.239 270.887Z" fill="white"/>
</g>
<g style="mix-blend-mode:multiply" opacity="0.2">
<path d="M239.096 283.174H177.367C175.167 283.174 172.984 281.39 172.488 279.189L148.842 174.091C148.347 171.89 149.727 170.106 151.927 170.106H213.656C215.856 170.106 218.039 171.89 218.535 174.091L242.182 279.189C242.676 281.39 241.296 283.174 239.096 283.174Z" fill="#1D59B2"/>
</g>
<path d="M233.401 283.174H171.672C169.472 283.174 167.289 281.39 166.793 279.189L143.146 174.091C142.652 171.89 144.032 170.106 146.232 170.106H207.961C210.161 170.106 212.344 171.89 212.84 174.091L236.486 279.189C236.981 281.39 235.601 283.174 233.401 283.174Z" fill="#3B82F4"/>
<path d="M199.247 203.573L170.22 188.733C168.197 187.699 165.885 189.493 166.385 191.711L173.062 221.389C173.476 223.222 175.595 224.075 177.16 223.035L199.51 208.195C201.219 207.061 201.074 204.505 199.247 203.572V203.573Z" fill="white"/>
<path d="M217.675 233.364H164.657C164.258 233.364 163.934 233.04 163.934 232.64C163.934 232.24 164.258 231.916 164.657 231.916H217.675C218.075 231.916 218.399 232.24 218.399 232.64C218.399 233.04 218.075 233.364 217.675 233.364Z" fill="#2D4351"/>
<path d="M222.38 254.285H169.362C168.962 254.285 168.638 253.961 168.638 253.561C168.638 253.16 168.962 252.836 169.362 252.836H222.38C222.78 252.836 223.104 253.16 223.104 253.561C223.104 253.961 222.78 254.285 222.38 254.285Z" fill="white"/>
<path d="M186.751 247.429H167.82C167.42 247.429 167.096 247.105 167.096 246.705C167.096 246.305 167.42 245.981 167.82 245.981H186.751C187.151 245.981 187.475 246.305 187.475 246.705C187.475 247.105 187.151 247.429 186.751 247.429Z" fill="white"/>
<path d="M224.25 262.587H171.234C170.834 262.587 170.51 262.263 170.51 261.862C170.51 261.462 170.834 261.138 171.234 261.138H224.25C224.65 261.138 224.974 261.462 224.974 261.862C224.974 262.263 224.65 262.587 224.25 262.587Z" fill="white"/>
<path d="M226.117 270.887H173.101C172.701 270.887 172.377 270.563 172.377 270.163C172.377 269.763 172.701 269.439 173.101 269.439H226.117C226.517 269.439 226.841 269.763 226.841 270.163C226.841 270.563 226.517 270.887 226.117 270.887Z" fill="white"/>
<path d="M310.965 193.993H281.76C281.361 193.993 281.037 193.669 281.037 193.269C281.037 192.869 281.361 192.545 281.76 192.545H310.965C311.364 192.545 311.688 192.869 311.688 193.269C311.688 193.669 311.364 193.993 310.965 193.993Z" fill="#2D4351"/>
<path d="M337.744 216.158H286.745C286.345 216.158 286.021 215.834 286.021 215.434C286.021 215.034 286.345 214.709 286.745 214.709H337.744C338.144 214.709 338.467 215.034 338.467 215.434C338.467 215.834 338.144 216.158 337.744 216.158Z" fill="#2D4351"/>
<path d="M341.088 231.018H290.09C289.69 231.018 289.366 230.694 289.366 230.294C289.366 229.894 289.69 229.57 290.09 229.57H341.088C341.488 229.57 341.812 229.894 341.812 230.294C341.812 230.694 341.488 231.018 341.088 231.018Z" fill="#2D4351"/>
<path d="M344.43 245.878H293.432C293.032 245.878 292.708 245.554 292.708 245.154C292.708 244.754 293.032 244.43 293.432 244.43H344.43C344.83 244.43 345.154 244.754 345.154 245.154C345.154 245.554 344.83 245.878 344.43 245.878Z" fill="#2D4351"/>
<path d="M347.774 260.736H296.776C296.376 260.736 296.052 260.412 296.052 260.012C296.052 259.612 296.376 259.288 296.776 259.288H347.774C348.174 259.288 348.498 259.612 348.498 260.012C348.498 260.412 348.174 260.736 347.774 260.736Z" fill="#2D4351"/>
<path d="M441.708 301.065H247.729V308.305H441.708V301.065Z" fill="#3B82F4"/>
<path d="M247.729 301.065H133.811V308.305H247.729V301.065Z" fill="#2D4351"/>
<path d="M497.464 65.8517H385.954V225.191H497.464V65.8517Z" fill="#F57C00"/>
<path d="M481.195 87.1029H402.223V120.972H481.195V87.1029Z" fill="white"/>
<path d="M470.209 150.504H413.209C412.809 150.504 412.485 150.179 412.485 149.779C412.485 149.379 412.809 149.055 413.209 149.055H470.209C470.609 149.055 470.932 149.379 470.932 149.779C470.932 150.179 470.609 150.504 470.209 150.504Z" fill="#2D4351"/>
<path d="M413.209 242.426L406.631 237.195L400.051 242.426V225.191H413.209V242.426Z" fill="white"/>
<path d="M470.209 165.696H413.209C412.809 165.696 412.485 165.372 412.485 164.972C412.485 164.572 412.809 164.248 413.209 164.248H470.209C470.609 164.248 470.932 164.572 470.932 164.972C470.932 165.372 470.609 165.696 470.209 165.696Z" fill="#2D4351"/>
<path d="M199.217 132.88C198.904 132.88 198.613 132.674 198.522 132.357L193.483 114.855C193.426 114.657 193.456 114.446 193.564 114.272L204.012 97.4492L184.064 72.4184C183.814 72.1061 183.866 71.6503 184.178 71.4005C184.491 71.1506 184.946 71.203 185.196 71.5153L205.463 96.9461C205.654 97.1858 205.674 97.52 205.512 97.78L194.963 114.764L199.913 131.955C200.024 132.34 199.801 132.74 199.418 132.851C199.351 132.87 199.283 132.88 199.217 132.88Z" fill="#2D4351"/>
<path d="M98.599 260.647C98.572 260.647 98.545 260.647 98.5163 260.642L81.7649 258.753C81.4612 258.719 81.2115 258.496 81.1406 258.198L76.5938 238.722L54.7456 226.639L35.8464 233.148C35.5562 233.248 35.2357 233.155 35.045 232.915L14.7776 207.485C14.5279 207.172 14.5802 206.716 14.8923 206.467C15.2044 206.217 15.66 206.269 15.9096 206.581L35.8582 231.612L54.5785 225.165C54.7726 225.098 54.9851 225.116 55.164 225.216L77.5741 237.61C77.7529 237.709 77.8828 237.88 77.9284 238.079L82.4313 257.369L98.6749 259.2C99.0714 259.246 99.3582 259.604 99.3127 260.001C99.2705 260.37 98.9584 260.644 98.594 260.644L98.599 260.647Z" fill="#2D4351"/>
<path d="M18.9749 165.879C18.8686 165.879 18.7606 165.855 18.6577 165.806L0.406368 156.896C0.131367 156.761 -0.0305975 156.469 0.00483217 156.164L3.64565 123.844C3.67939 123.54 3.90209 123.29 4.20071 123.219L23.6651 118.67L35.7398 96.8093L29.236 77.8995C29.1364 77.6092 29.2292 77.2885 29.4688 77.0977C41.3259 67.6377 42.134 66.9929 52.5368 58.6909L54.8819 56.8206C55.1215 56.6298 55.4556 56.6095 55.7154 56.7716L72.9662 67.4959C73.3053 67.7069 73.4099 68.1526 73.1991 68.4936C72.9882 68.8329 72.5411 68.9376 72.202 68.7265L55.3847 58.2723L53.4394 59.8253C43.1547 68.0327 42.2487 68.7552 30.7712 77.913L37.2144 96.6439C37.2802 96.838 37.2633 97.0507 37.1638 97.2297L24.7769 119.652C24.6773 119.831 24.5069 119.961 24.3079 120.007L5.0274 124.512L1.50131 155.818L19.2937 164.501C19.6531 164.677 19.8016 165.111 19.6261 165.47C19.5012 165.727 19.2431 165.877 18.9749 165.877V165.879Z" fill="#2D4351"/>
<path d="M486.749 309.031H93.4293C93.0295 309.031 92.7056 308.707 92.7056 308.306C92.7056 307.906 93.0295 307.582 93.4293 307.582H486.749C487.149 307.582 487.473 307.906 487.473 308.306C487.473 308.707 487.149 309.031 486.749 309.031Z" fill="#2D4351"/>
<path d="M265.796 87.8271C259.851 87.8271 255.012 82.9874 255.012 77.0386C255.012 71.0898 259.849 66.2501 265.796 66.2501C266.196 66.2501 266.52 66.5742 266.52 66.9743C266.52 67.3744 266.196 67.6985 265.796 67.6985C260.649 67.6985 256.46 71.8883 256.46 77.0403C256.46 82.1923 260.647 86.3821 265.796 86.3821C270.945 86.3821 275.133 82.1923 275.133 77.0403C275.133 76.6402 275.457 76.3161 275.857 76.3161C276.256 76.3161 276.58 76.6402 276.58 77.0403C276.58 82.9891 271.743 87.8288 265.796 87.8288V87.8271Z" fill="#2D4351"/>
<path d="M198.195 34.013C194.101 34.013 190.769 30.679 190.769 26.5821C190.769 26.182 191.092 25.8579 191.492 25.8579C191.892 25.8579 192.216 26.182 192.216 26.5821C192.216 29.8806 194.899 32.5646 198.195 32.5646C201.492 32.5646 204.174 29.8806 204.174 26.5821C204.174 24.5277 203.14 22.6404 201.406 21.5347C201.068 21.3203 200.971 20.8713 201.185 20.5354C201.399 20.1978 201.848 20.0999 202.184 20.3143C204.336 21.6883 205.62 24.0314 205.62 26.5821C205.62 30.679 202.288 34.013 198.194 34.013H198.195Z" fill="#2D4351"/>
</svg>
