<svg width="32" height="32" viewBox="0 0 32 32" fill="none" xmlns="http://www.w3.org/2000/svg">
<g id="search-file 1">
<path id="Vector" d="M27.5 23.555V6.5H22.15C21.79 6.5 21.5 6.225 21.5 5.89V1H8C7.725 1 7.5 1.225 7.5 1.5V27.5C7.5 27.775 7.725 28 8 28H27C27.275 28 27.5 27.775 27.5 27.5V27.195C27.18 27.39 26.815 27.5 26.44 27.5C26.16 27.5 25.88 27.445 25.615 27.325C25.335 27.2 25.095 27.02 24.9 26.795L20.025 21.225C19.1 21.635 18.08 21.865 17 21.865C12.865 21.865 9.5 18.5 9.5 14.365C9.5 10.23 12.865 6.865 17 6.865C21.135 6.865 24.5 10.23 24.5 14.365C24.5 16.01 23.96 17.53 23.06 18.77L27.5 23.555ZM21 25C21.275 25 21.5 25.225 21.5 25.5C21.5 25.775 21.275 26 21 26H12C11.725 26 11.5 25.775 11.5 25.5C11.5 25.225 11.725 25 12 25H21ZM10 23H18C18.275 23 18.5 23.225 18.5 23.5C18.5 23.775 18.275 24 18 24H10C9.725 24 9.5 23.775 9.5 23.5C9.5 23.225 9.725 23 10 23ZM20 6H12C11.725 6 11.5 5.775 11.5 5.5C11.5 5.225 11.725 5 12 5H20C20.275 5 20.5 5.225 20.5 5.5C20.5 5.775 20.275 6 20 6Z" fill="#F57C00"/>
<path id="Vector_2" d="M17 8.37C13.69 8.37 11 11.06 11 14.37C11 17.68 13.69 20.37 17 20.37C20.31 20.37 23 17.68 23 14.37C23 11.06 20.31 8.37 17 8.37ZM15 11.87H19C19.275 11.87 19.5 12.095 19.5 12.37C19.5 12.645 19.275 12.87 19 12.87H15C14.725 12.87 14.5 12.645 14.5 12.37C14.5 12.095 14.725 11.87 15 11.87ZM19.5 16.87H14.5C14.225 16.87 14 16.645 14 16.37C14 16.095 14.225 15.87 14.5 15.87H19.5C19.775 15.87 20 16.095 20 16.37C20 16.645 19.775 16.87 19.5 16.87ZM21.5 14.37C21.5 14.645 21.275 14.87 21 14.87H13C12.725 14.87 12.5 14.645 12.5 14.37C12.5 14.095 12.725 13.87 13 13.87H21C21.275 13.87 21.5 14.095 21.5 14.37ZM27.5 5.5V6H22.6C22.27 6 22 5.725 22 5.39V1H22.5C22.625 1 22.74 1.045 22.83 1.125L27.33 5.125C27.44 5.22 27.5 5.355 27.5 5.5Z" fill="#F57C00"/>
<path id="Vector_3" d="M7.31 28.5C7.015 28.5 6.77 28.26 6.77 27.96V4H5C4.725 4 4.5 4.225 4.5 4.5V30.5C4.5 30.775 4.725 31 5 31H24.5C24.775 31 25 30.775 25 30.5V28.5H7.31Z" fill="#F57C00"/>
</g>
</svg>
