<svg width="32" height="32" viewBox="0 0 32 32" fill="none" xmlns="http://www.w3.org/2000/svg">
<path d="M11.8089 28H5.14225C3.66949 28 2.47559 26.8061 2.47559 25.3333V6.66667C2.47559 5.19391 3.66949 4 5.14225 4H11.8089" stroke="#323232" stroke-width="2" stroke-linecap="round" stroke-linejoin="round"/>
<rect x="16" y="4" width="13.3333" height="24" rx="2" stroke="#323232" stroke-width="2" stroke-linecap="round" stroke-linejoin="round"/>
<path d="M9.33208 22.5C9.28839 22.4998 9.24642 22.517 9.21541 22.5478C9.1844 22.5786 9.1669 22.6205 9.16675 22.6642V22.6667C9.16675 22.7587 9.24137 22.8333 9.33341 22.8333C9.42546 22.8333 9.50008 22.7587 9.50008 22.6667C9.50008 22.5746 9.42546 22.5 9.33341 22.5H9.33208" stroke="#323232" stroke-width="2" stroke-linecap="round" stroke-linejoin="round"/>
<path d="M22.6653 22.5C22.6216 22.4998 22.5797 22.517 22.5487 22.5478C22.5177 22.5786 22.5002 22.6205 22.5 22.6642V22.6667C22.5 22.7587 22.5746 22.8333 22.6667 22.8333C22.7587 22.8333 22.8333 22.7587 22.8333 22.6667C22.8333 22.5746 22.7587 22.5 22.6667 22.5H22.6653" stroke="#323232" stroke-width="2" stroke-linecap="round" stroke-linejoin="round"/>
<path d="M21.6667 9.33329H23.6667" stroke="#323232" stroke-width="2" stroke-linecap="round" stroke-linejoin="round"/>
<path d="M21.6667 17.3333H23.6667" stroke="#323232" stroke-width="2" stroke-linecap="round" stroke-linejoin="round"/>
<path d="M21.6667 13.3333H23.6667" stroke="#323232" stroke-width="2" stroke-linecap="round" stroke-linejoin="round"/>
<path d="M10.1423 9.33329H8.14233" stroke="#323232" stroke-width="2" stroke-linecap="round" stroke-linejoin="round"/>
<path d="M10.1423 17.3333H8.14233" stroke="#323232" stroke-width="2" stroke-linecap="round" stroke-linejoin="round"/>
<path d="M10.1423 13.3333H8.14233" stroke="#323232" stroke-width="2" stroke-linecap="round" stroke-linejoin="round"/>
</svg>
