<svg width="235" height="224" viewBox="0 0 235 224" fill="none" xmlns="http://www.w3.org/2000/svg">
<g opacity="0.3">
<rect width="4.65347" height="4" rx="2" fill="#0A1A3D"/>
<rect x="10.4702" width="4.65347" height="4" rx="2" fill="#0A1A3D"/>
<rect x="20.9404" width="4.65347" height="4" rx="2" fill="#0A1A3D"/>
<rect x="31.4111" width="4.65347" height="4" rx="2" fill="#0A1A3D"/>
<rect x="41.8813" width="4.65347" height="4" rx="2" fill="#0A1A3D"/>
<rect x="52.3516" width="4.65347" height="4" rx="2" fill="#0A1A3D"/>
<rect x="62.8218" width="4.65347" height="4" rx="2" fill="#0A1A3D"/>
<rect x="73.292" width="4.65347" height="4" rx="2" fill="#0A1A3D"/>
<rect x="83.7622" width="4.65347" height="4" rx="2" fill="#0A1A3D"/>
<rect x="94.2329" width="4.65347" height="4" rx="2" fill="#0A1A3D"/>
<rect x="104.703" width="4.65347" height="4" rx="2" fill="#0A1A3D"/>
<rect x="115.173" width="4.65347" height="4" rx="2" fill="#0A1A3D"/>
<rect x="125.644" width="4.65347" height="4" rx="2" fill="#0A1A3D"/>
<rect x="136.114" width="4.65347" height="4" rx="2" fill="#0A1A3D"/>
<rect x="146.584" width="4.65347" height="4" rx="2" fill="#0A1A3D"/>
<rect x="157.055" width="4.65347" height="4" rx="2" fill="#0A1A3D"/>
<rect x="167.525" width="4.65347" height="4" rx="2" fill="#0A1A3D"/>
<rect x="177.995" width="4.65347" height="4" rx="2" fill="#0A1A3D"/>
<rect x="188.465" width="4.65347" height="4" rx="2" fill="#0A1A3D"/>
<rect x="198.936" width="4.65347" height="4" rx="2" fill="#0A1A3D"/>
<rect x="209.406" width="4.65347" height="4" rx="2" fill="#0A1A3D"/>
<rect x="219.876" width="4.65347" height="4" rx="2" fill="#0A1A3D"/>
<rect x="230.347" width="4.65347" height="4" rx="2" fill="#0A1A3D"/>
<rect y="14" width="4.65347" height="4" rx="2" fill="#0A1A3D"/>
<rect x="10.4702" y="14" width="4.65347" height="4" rx="2" fill="#0A1A3D"/>
<rect x="20.9404" y="14" width="4.65347" height="4" rx="2" fill="#0A1A3D"/>
<rect x="31.4111" y="14" width="4.65347" height="4" rx="2" fill="#0A1A3D"/>
<rect x="41.8813" y="14" width="4.65347" height="4" rx="2" fill="#0A1A3D"/>
<rect x="52.3516" y="14" width="4.65347" height="4" rx="2" fill="#0A1A3D"/>
<rect x="62.8218" y="14" width="4.65347" height="4" rx="2" fill="#0A1A3D"/>
<rect x="73.292" y="14" width="4.65347" height="4" rx="2" fill="#0A1A3D"/>
<rect x="83.7622" y="14" width="4.65347" height="4" rx="2" fill="#0A1A3D"/>
<rect x="94.2329" y="14" width="4.65347" height="4" rx="2" fill="#0A1A3D"/>
<rect x="104.703" y="14" width="4.65347" height="4" rx="2" fill="#0A1A3D"/>
<rect x="115.173" y="14" width="4.65347" height="4" rx="2" fill="#0A1A3D"/>
<rect x="125.644" y="14" width="4.65347" height="4" rx="2" fill="#0A1A3D"/>
<rect x="136.114" y="14" width="4.65347" height="4" rx="2" fill="#0A1A3D"/>
<rect x="146.584" y="14" width="4.65347" height="4" rx="2" fill="#0A1A3D"/>
<rect x="157.055" y="14" width="4.65347" height="4" rx="2" fill="#0A1A3D"/>
<rect x="167.525" y="14" width="4.65347" height="4" rx="2" fill="#0A1A3D"/>
<rect x="177.995" y="14" width="4.65347" height="4" rx="2" fill="#0A1A3D"/>
<rect x="188.465" y="14" width="4.65347" height="4" rx="2" fill="#0A1A3D"/>
<rect x="198.936" y="14" width="4.65347" height="4" rx="2" fill="#0A1A3D"/>
<rect x="209.406" y="14" width="4.65347" height="4" rx="2" fill="#0A1A3D"/>
<rect x="219.876" y="14" width="4.65347" height="4" rx="2" fill="#0A1A3D"/>
<rect x="230.347" y="14" width="4.65347" height="4" rx="2" fill="#0A1A3D"/>
<rect y="28" width="4.65347" height="4" rx="2" fill="#0A1A3D"/>
<rect x="10.4702" y="28" width="4.65347" height="4" rx="2" fill="#0A1A3D"/>
<rect x="20.9404" y="28" width="4.65347" height="4" rx="2" fill="#0A1A3D"/>
<rect x="31.4111" y="28" width="4.65347" height="4" rx="2" fill="#0A1A3D"/>
<rect x="41.8813" y="28" width="4.65347" height="4" rx="2" fill="#0A1A3D"/>
<rect x="52.3516" y="28" width="4.65347" height="4" rx="2" fill="#0A1A3D"/>
<rect x="62.8218" y="28" width="4.65347" height="4" rx="2" fill="#0A1A3D"/>
<rect x="73.292" y="28" width="4.65347" height="4" rx="2" fill="#0A1A3D"/>
<rect x="83.7622" y="28" width="4.65347" height="4" rx="2" fill="#0A1A3D"/>
<rect x="94.2329" y="28" width="4.65347" height="4" rx="2" fill="#0A1A3D"/>
<rect x="104.703" y="28" width="4.65347" height="4" rx="2" fill="#0A1A3D"/>
<rect x="115.173" y="28" width="4.65347" height="4" rx="2" fill="#0A1A3D"/>
<rect x="125.644" y="28" width="4.65347" height="4" rx="2" fill="#0A1A3D"/>
<rect x="136.114" y="28" width="4.65347" height="4" rx="2" fill="#0A1A3D"/>
<rect x="146.584" y="28" width="4.65347" height="4" rx="2" fill="#0A1A3D"/>
<rect x="157.055" y="28" width="4.65347" height="4" rx="2" fill="#0A1A3D"/>
<rect x="167.525" y="28" width="4.65347" height="4" rx="2" fill="#0A1A3D"/>
<rect x="177.995" y="28" width="4.65347" height="4" rx="2" fill="#0A1A3D"/>
<rect x="188.465" y="28" width="4.65347" height="4" rx="2" fill="#0A1A3D"/>
<rect x="198.936" y="28" width="4.65347" height="4" rx="2" fill="#0A1A3D"/>
<rect x="209.406" y="28" width="4.65347" height="4" rx="2" fill="#0A1A3D"/>
<rect x="219.876" y="28" width="4.65347" height="4" rx="2" fill="#0A1A3D"/>
<rect x="230.347" y="28" width="4.65347" height="4" rx="2" fill="#0A1A3D"/>
<rect y="42" width="4.65347" height="4" rx="2" fill="#0A1A3D"/>
<rect x="10.4702" y="42" width="4.65347" height="4" rx="2" fill="#0A1A3D"/>
<rect x="20.9404" y="42" width="4.65347" height="4" rx="2" fill="#0A1A3D"/>
<rect x="31.4111" y="42" width="4.65347" height="4" rx="2" fill="#0A1A3D"/>
<rect x="41.8813" y="42" width="4.65347" height="4" rx="2" fill="#0A1A3D"/>
<rect x="52.3516" y="42" width="4.65347" height="4" rx="2" fill="#0A1A3D"/>
<rect x="62.8218" y="42" width="4.65347" height="4" rx="2" fill="#0A1A3D"/>
<rect x="73.292" y="42" width="4.65347" height="4" rx="2" fill="#0A1A3D"/>
<rect x="83.7622" y="42" width="4.65347" height="4" rx="2" fill="#0A1A3D"/>
<rect x="94.2329" y="42" width="4.65347" height="4" rx="2" fill="#0A1A3D"/>
<rect x="104.703" y="42" width="4.65347" height="4" rx="2" fill="#0A1A3D"/>
<rect x="115.173" y="42" width="4.65347" height="4" rx="2" fill="#0A1A3D"/>
<rect x="125.644" y="42" width="4.65347" height="4" rx="2" fill="#0A1A3D"/>
<rect x="136.114" y="42" width="4.65347" height="4" rx="2" fill="#0A1A3D"/>
<rect x="146.584" y="42" width="4.65347" height="4" rx="2" fill="#0A1A3D"/>
<rect x="157.055" y="42" width="4.65347" height="4" rx="2" fill="#0A1A3D"/>
<rect x="167.525" y="42" width="4.65347" height="4" rx="2" fill="#0A1A3D"/>
<rect x="177.995" y="42" width="4.65347" height="4" rx="2" fill="#0A1A3D"/>
<rect x="188.465" y="42" width="4.65347" height="4" rx="2" fill="#0A1A3D"/>
<rect x="198.936" y="42" width="4.65347" height="4" rx="2" fill="#0A1A3D"/>
<rect x="209.406" y="42" width="4.65347" height="4" rx="2" fill="#0A1A3D"/>
<rect x="219.876" y="42" width="4.65347" height="4" rx="2" fill="#0A1A3D"/>
<rect x="230.347" y="42" width="4.65347" height="4" rx="2" fill="#0A1A3D"/>
<rect y="56" width="4.65347" height="4" rx="2" fill="#0A1A3D"/>
<rect x="10.4702" y="56" width="4.65347" height="4" rx="2" fill="#0A1A3D"/>
<rect x="20.9404" y="56" width="4.65347" height="4" rx="2" fill="#0A1A3D"/>
<rect x="31.4111" y="56" width="4.65347" height="4" rx="2" fill="#0A1A3D"/>
<rect x="41.8813" y="56" width="4.65347" height="4" rx="2" fill="#0A1A3D"/>
<rect x="52.3516" y="56" width="4.65347" height="4" rx="2" fill="#0A1A3D"/>
<rect x="62.8218" y="56" width="4.65347" height="4" rx="2" fill="#0A1A3D"/>
<rect x="73.292" y="56" width="4.65347" height="4" rx="2" fill="#0A1A3D"/>
<rect x="83.7622" y="56" width="4.65347" height="4" rx="2" fill="#0A1A3D"/>
<rect x="94.2329" y="56" width="4.65347" height="4" rx="2" fill="#0A1A3D"/>
<rect x="104.703" y="56" width="4.65347" height="4" rx="2" fill="#0A1A3D"/>
<rect x="115.173" y="56" width="4.65347" height="4" rx="2" fill="#0A1A3D"/>
<rect x="125.644" y="56" width="4.65347" height="4" rx="2" fill="#0A1A3D"/>
<rect x="136.114" y="56" width="4.65347" height="4" rx="2" fill="#0A1A3D"/>
<rect x="146.584" y="56" width="4.65347" height="4" rx="2" fill="#0A1A3D"/>
<rect x="157.055" y="56" width="4.65347" height="4" rx="2" fill="#0A1A3D"/>
<rect x="167.525" y="56" width="4.65347" height="4" rx="2" fill="#0A1A3D"/>
<rect x="177.995" y="56" width="4.65347" height="4" rx="2" fill="#0A1A3D"/>
<rect x="188.465" y="56" width="4.65347" height="4" rx="2" fill="#0A1A3D"/>
<rect x="198.936" y="56" width="4.65347" height="4" rx="2" fill="#0A1A3D"/>
<rect x="209.406" y="56" width="4.65347" height="4" rx="2" fill="#0A1A3D"/>
<rect x="219.876" y="56" width="4.65347" height="4" rx="2" fill="#0A1A3D"/>
<rect x="230.347" y="56" width="4.65347" height="4" rx="2" fill="#0A1A3D"/>
<rect y="70" width="4.65347" height="4" rx="2" fill="#0A1A3D"/>
<rect x="10.4702" y="70" width="4.65347" height="4" rx="2" fill="#0A1A3D"/>
<rect x="20.9404" y="70" width="4.65347" height="4" rx="2" fill="#0A1A3D"/>
<rect x="31.4111" y="70" width="4.65347" height="4" rx="2" fill="#0A1A3D"/>
<rect x="41.8813" y="70" width="4.65347" height="4" rx="2" fill="#0A1A3D"/>
<rect x="52.3516" y="70" width="4.65347" height="4" rx="2" fill="#0A1A3D"/>
<rect x="62.8218" y="70" width="4.65347" height="4" rx="2" fill="#0A1A3D"/>
<rect x="73.292" y="70" width="4.65347" height="4" rx="2" fill="#0A1A3D"/>
<rect x="83.7622" y="70" width="4.65347" height="4" rx="2" fill="#0A1A3D"/>
<rect x="94.2329" y="70" width="4.65347" height="4" rx="2" fill="#0A1A3D"/>
<rect x="104.703" y="70" width="4.65347" height="4" rx="2" fill="#0A1A3D"/>
<rect x="115.173" y="70" width="4.65347" height="4" rx="2" fill="#0A1A3D"/>
<rect x="125.644" y="70" width="4.65347" height="4" rx="2" fill="#0A1A3D"/>
<rect x="136.114" y="70" width="4.65347" height="4" rx="2" fill="#0A1A3D"/>
<rect x="146.584" y="70" width="4.65347" height="4" rx="2" fill="#0A1A3D"/>
<rect x="157.055" y="70" width="4.65347" height="4" rx="2" fill="#0A1A3D"/>
<rect x="167.525" y="70" width="4.65347" height="4" rx="2" fill="#0A1A3D"/>
<rect x="177.995" y="70" width="4.65347" height="4" rx="2" fill="#0A1A3D"/>
<rect x="188.465" y="70" width="4.65347" height="4" rx="2" fill="#0A1A3D"/>
<rect x="198.936" y="70" width="4.65347" height="4" rx="2" fill="#0A1A3D"/>
<rect x="209.406" y="70" width="4.65347" height="4" rx="2" fill="#0A1A3D"/>
<rect x="219.876" y="70" width="4.65347" height="4" rx="2" fill="#0A1A3D"/>
<rect x="230.347" y="70" width="4.65347" height="4" rx="2" fill="#0A1A3D"/>
<rect y="84" width="4.65347" height="4" rx="2" fill="#0A1A3D"/>
<rect x="10.4702" y="84" width="4.65347" height="4" rx="2" fill="#0A1A3D"/>
<rect x="20.9404" y="84" width="4.65347" height="4" rx="2" fill="#0A1A3D"/>
<rect x="31.4111" y="84" width="4.65347" height="4" rx="2" fill="#0A1A3D"/>
<rect x="41.8813" y="84" width="4.65347" height="4" rx="2" fill="#0A1A3D"/>
<rect x="52.3516" y="84" width="4.65347" height="4" rx="2" fill="#0A1A3D"/>
<rect x="62.8218" y="84" width="4.65347" height="4" rx="2" fill="#0A1A3D"/>
<rect x="73.292" y="84" width="4.65347" height="4" rx="2" fill="#0A1A3D"/>
<rect x="83.7622" y="84" width="4.65347" height="4" rx="2" fill="#0A1A3D"/>
<rect x="94.2329" y="84" width="4.65347" height="4" rx="2" fill="#0A1A3D"/>
<rect x="104.703" y="84" width="4.65347" height="4" rx="2" fill="#0A1A3D"/>
<rect x="115.173" y="84" width="4.65347" height="4" rx="2" fill="#0A1A3D"/>
<rect x="125.644" y="84" width="4.65347" height="4" rx="2" fill="#0A1A3D"/>
<rect x="136.114" y="84" width="4.65347" height="4" rx="2" fill="#0A1A3D"/>
<rect x="146.584" y="84" width="4.65347" height="4" rx="2" fill="#0A1A3D"/>
<rect x="157.055" y="84" width="4.65347" height="4" rx="2" fill="#0A1A3D"/>
<rect x="167.525" y="84" width="4.65347" height="4" rx="2" fill="#0A1A3D"/>
<rect x="177.995" y="84" width="4.65347" height="4" rx="2" fill="#0A1A3D"/>
<rect x="188.465" y="84" width="4.65347" height="4" rx="2" fill="#0A1A3D"/>
<rect x="198.936" y="84" width="4.65347" height="4" rx="2" fill="#0A1A3D"/>
<rect x="209.406" y="84" width="4.65347" height="4" rx="2" fill="#0A1A3D"/>
<rect x="219.876" y="84" width="4.65347" height="4" rx="2" fill="#0A1A3D"/>
<rect x="230.347" y="84" width="4.65347" height="4" rx="2" fill="#0A1A3D"/>
<rect y="98" width="4.65347" height="4" rx="2" fill="#0A1A3D"/>
<rect x="10.4702" y="98" width="4.65347" height="4" rx="2" fill="#0A1A3D"/>
<rect x="20.9404" y="98" width="4.65347" height="4" rx="2" fill="#0A1A3D"/>
<rect x="31.4111" y="98" width="4.65347" height="4" rx="2" fill="#0A1A3D"/>
<rect x="41.8813" y="98" width="4.65347" height="4" rx="2" fill="#0A1A3D"/>
<rect x="52.3516" y="98" width="4.65347" height="4" rx="2" fill="#0A1A3D"/>
<rect x="62.8218" y="98" width="4.65347" height="4" rx="2" fill="#0A1A3D"/>
<rect x="73.292" y="98" width="4.65347" height="4" rx="2" fill="#0A1A3D"/>
<rect x="83.7622" y="98" width="4.65347" height="4" rx="2" fill="#0A1A3D"/>
<rect x="94.2329" y="98" width="4.65347" height="4" rx="2" fill="#0A1A3D"/>
<rect x="104.703" y="98" width="4.65347" height="4" rx="2" fill="#0A1A3D"/>
<rect x="115.173" y="98" width="4.65347" height="4" rx="2" fill="#0A1A3D"/>
<rect x="125.644" y="98" width="4.65347" height="4" rx="2" fill="#0A1A3D"/>
<rect x="136.114" y="98" width="4.65347" height="4" rx="2" fill="#0A1A3D"/>
<rect x="146.584" y="98" width="4.65347" height="4" rx="2" fill="#0A1A3D"/>
<rect x="157.055" y="98" width="4.65347" height="4" rx="2" fill="#0A1A3D"/>
<rect x="167.525" y="98" width="4.65347" height="4" rx="2" fill="#0A1A3D"/>
<rect x="177.995" y="98" width="4.65347" height="4" rx="2" fill="#0A1A3D"/>
<rect x="188.465" y="98" width="4.65347" height="4" rx="2" fill="#0A1A3D"/>
<rect x="198.936" y="98" width="4.65347" height="4" rx="2" fill="#0A1A3D"/>
<rect x="209.406" y="98" width="4.65347" height="4" rx="2" fill="#0A1A3D"/>
<rect x="219.876" y="98" width="4.65347" height="4" rx="2" fill="#0A1A3D"/>
<rect x="230.347" y="98" width="4.65347" height="4" rx="2" fill="#0A1A3D"/>
<rect y="112" width="4.65347" height="4" rx="2" fill="#0A1A3D"/>
<rect x="10.4702" y="112" width="4.65347" height="4" rx="2" fill="#0A1A3D"/>
<rect x="20.9404" y="112" width="4.65347" height="4" rx="2" fill="#0A1A3D"/>
<rect x="31.4111" y="112" width="4.65347" height="4" rx="2" fill="#0A1A3D"/>
<rect x="41.8813" y="112" width="4.65347" height="4" rx="2" fill="#0A1A3D"/>
<rect x="52.3516" y="112" width="4.65347" height="4" rx="2" fill="#0A1A3D"/>
<rect x="62.8218" y="112" width="4.65347" height="4" rx="2" fill="#0A1A3D"/>
<rect x="73.292" y="112" width="4.65347" height="4" rx="2" fill="#0A1A3D"/>
<rect x="83.7622" y="112" width="4.65347" height="4" rx="2" fill="#0A1A3D"/>
<rect x="94.2329" y="112" width="4.65347" height="4" rx="2" fill="#0A1A3D"/>
<rect x="104.703" y="112" width="4.65347" height="4" rx="2" fill="#0A1A3D"/>
<rect x="115.173" y="112" width="4.65347" height="4" rx="2" fill="#0A1A3D"/>
<rect x="125.644" y="112" width="4.65347" height="4" rx="2" fill="#0A1A3D"/>
<rect x="136.114" y="112" width="4.65347" height="4" rx="2" fill="#0A1A3D"/>
<rect x="146.584" y="112" width="4.65347" height="4" rx="2" fill="#0A1A3D"/>
<rect x="157.055" y="112" width="4.65347" height="4" rx="2" fill="#0A1A3D"/>
<rect x="167.525" y="112" width="4.65347" height="4" rx="2" fill="#0A1A3D"/>
<rect x="177.995" y="112" width="4.65347" height="4" rx="2" fill="#0A1A3D"/>
<rect x="188.465" y="112" width="4.65347" height="4" rx="2" fill="#0A1A3D"/>
<rect x="198.936" y="112" width="4.65347" height="4" rx="2" fill="#0A1A3D"/>
<rect x="209.406" y="112" width="4.65347" height="4" rx="2" fill="#0A1A3D"/>
<rect x="219.876" y="112" width="4.65347" height="4" rx="2" fill="#0A1A3D"/>
<rect x="230.347" y="112" width="4.65347" height="4" rx="2" fill="#0A1A3D"/>
<rect y="126" width="4.65347" height="4" rx="2" fill="#0A1A3D"/>
<rect x="10.4702" y="126" width="4.65347" height="4" rx="2" fill="#0A1A3D"/>
<rect x="20.9404" y="126" width="4.65347" height="4" rx="2" fill="#0A1A3D"/>
<rect x="31.4111" y="126" width="4.65347" height="4" rx="2" fill="#0A1A3D"/>
<rect x="41.8813" y="126" width="4.65347" height="4" rx="2" fill="#0A1A3D"/>
<rect x="52.3516" y="126" width="4.65347" height="4" rx="2" fill="#0A1A3D"/>
<rect x="62.8218" y="126" width="4.65347" height="4" rx="2" fill="#0A1A3D"/>
<rect x="73.292" y="126" width="4.65347" height="4" rx="2" fill="#0A1A3D"/>
<rect x="83.7622" y="126" width="4.65347" height="4" rx="2" fill="#0A1A3D"/>
<rect x="94.2329" y="126" width="4.65347" height="4" rx="2" fill="#0A1A3D"/>
<rect x="104.703" y="126" width="4.65347" height="4" rx="2" fill="#0A1A3D"/>
<rect x="115.173" y="126" width="4.65347" height="4" rx="2" fill="#0A1A3D"/>
<rect x="125.644" y="126" width="4.65347" height="4" rx="2" fill="#0A1A3D"/>
<rect x="136.114" y="126" width="4.65347" height="4" rx="2" fill="#0A1A3D"/>
<rect x="146.584" y="126" width="4.65347" height="4" rx="2" fill="#0A1A3D"/>
<rect x="157.055" y="126" width="4.65347" height="4" rx="2" fill="#0A1A3D"/>
<rect x="167.525" y="126" width="4.65347" height="4" rx="2" fill="#0A1A3D"/>
<rect x="177.995" y="126" width="4.65347" height="4" rx="2" fill="#0A1A3D"/>
<rect x="188.465" y="126" width="4.65347" height="4" rx="2" fill="#0A1A3D"/>
<rect x="198.936" y="126" width="4.65347" height="4" rx="2" fill="#0A1A3D"/>
<rect x="209.406" y="126" width="4.65347" height="4" rx="2" fill="#0A1A3D"/>
<rect x="219.876" y="126" width="4.65347" height="4" rx="2" fill="#0A1A3D"/>
<rect x="230.347" y="126" width="4.65347" height="4" rx="2" fill="#0A1A3D"/>
<rect y="140" width="4.65347" height="4" rx="2" fill="#0A1A3D"/>
<rect x="10.4702" y="140" width="4.65347" height="4" rx="2" fill="#0A1A3D"/>
<rect x="20.9404" y="140" width="4.65347" height="4" rx="2" fill="#0A1A3D"/>
<rect x="31.4111" y="140" width="4.65347" height="4" rx="2" fill="#0A1A3D"/>
<rect x="41.8813" y="140" width="4.65347" height="4" rx="2" fill="#0A1A3D"/>
<rect x="52.3516" y="140" width="4.65347" height="4" rx="2" fill="#0A1A3D"/>
<rect x="62.8218" y="140" width="4.65347" height="4" rx="2" fill="#0A1A3D"/>
<rect x="73.292" y="140" width="4.65347" height="4" rx="2" fill="#0A1A3D"/>
<rect x="83.7622" y="140" width="4.65347" height="4" rx="2" fill="#0A1A3D"/>
<rect x="94.2329" y="140" width="4.65347" height="4" rx="2" fill="#0A1A3D"/>
<rect x="104.703" y="140" width="4.65347" height="4" rx="2" fill="#0A1A3D"/>
<rect x="115.173" y="140" width="4.65347" height="4" rx="2" fill="#0A1A3D"/>
<rect x="125.644" y="140" width="4.65347" height="4" rx="2" fill="#0A1A3D"/>
<rect x="136.114" y="140" width="4.65347" height="4" rx="2" fill="#0A1A3D"/>
<rect x="146.584" y="140" width="4.65347" height="4" rx="2" fill="#0A1A3D"/>
<rect x="157.055" y="140" width="4.65347" height="4" rx="2" fill="#0A1A3D"/>
<rect x="167.525" y="140" width="4.65347" height="4" rx="2" fill="#0A1A3D"/>
<rect x="177.995" y="140" width="4.65347" height="4" rx="2" fill="#0A1A3D"/>
<rect x="188.465" y="140" width="4.65347" height="4" rx="2" fill="#0A1A3D"/>
<rect x="198.936" y="140" width="4.65347" height="4" rx="2" fill="#0A1A3D"/>
<rect x="209.406" y="140" width="4.65347" height="4" rx="2" fill="#0A1A3D"/>
<rect x="219.876" y="140" width="4.65347" height="4" rx="2" fill="#0A1A3D"/>
<rect x="230.347" y="140" width="4.65347" height="4" rx="2" fill="#0A1A3D"/>
<rect y="140" width="4.65347" height="4" rx="2" fill="#0A1A3D"/>
<rect x="10.4702" y="140" width="4.65347" height="4" rx="2" fill="#0A1A3D"/>
<rect x="20.9404" y="140" width="4.65347" height="4" rx="2" fill="#0A1A3D"/>
<rect x="31.4111" y="140" width="4.65347" height="4" rx="2" fill="#0A1A3D"/>
<rect x="41.8813" y="140" width="4.65347" height="4" rx="2" fill="#0A1A3D"/>
<rect x="52.3516" y="140" width="4.65347" height="4" rx="2" fill="#0A1A3D"/>
<rect x="62.8218" y="140" width="4.65347" height="4" rx="2" fill="#0A1A3D"/>
<rect x="73.292" y="140" width="4.65347" height="4" rx="2" fill="#0A1A3D"/>
<rect x="83.7622" y="140" width="4.65347" height="4" rx="2" fill="#0A1A3D"/>
<rect x="94.2329" y="140" width="4.65347" height="4" rx="2" fill="#0A1A3D"/>
<rect x="104.703" y="140" width="4.65347" height="4" rx="2" fill="#0A1A3D"/>
<rect x="115.173" y="140" width="4.65347" height="4" rx="2" fill="#0A1A3D"/>
<rect x="125.644" y="140" width="4.65347" height="4" rx="2" fill="#0A1A3D"/>
<rect x="136.114" y="140" width="4.65347" height="4" rx="2" fill="#0A1A3D"/>
<rect x="146.584" y="140" width="4.65347" height="4" rx="2" fill="#0A1A3D"/>
<rect x="157.055" y="140" width="4.65347" height="4" rx="2" fill="#0A1A3D"/>
<rect x="167.525" y="140" width="4.65347" height="4" rx="2" fill="#0A1A3D"/>
<rect x="177.995" y="140" width="4.65347" height="4" rx="2" fill="#0A1A3D"/>
<rect x="188.465" y="140" width="4.65347" height="4" rx="2" fill="#0A1A3D"/>
<rect x="198.936" y="140" width="4.65347" height="4" rx="2" fill="#0A1A3D"/>
<rect x="209.406" y="140" width="4.65347" height="4" rx="2" fill="#0A1A3D"/>
<rect x="219.876" y="140" width="4.65347" height="4" rx="2" fill="#0A1A3D"/>
<rect x="230.347" y="140" width="4.65347" height="4" rx="2" fill="#0A1A3D"/>
<rect y="140" width="4.65347" height="4" rx="2" fill="#0A1A3D"/>
<rect x="10.4702" y="140" width="4.65347" height="4" rx="2" fill="#0A1A3D"/>
<rect x="20.9404" y="140" width="4.65347" height="4" rx="2" fill="#0A1A3D"/>
<rect x="31.4111" y="140" width="4.65347" height="4" rx="2" fill="#0A1A3D"/>
<rect x="41.8813" y="140" width="4.65347" height="4" rx="2" fill="#0A1A3D"/>
<rect x="52.3516" y="140" width="4.65347" height="4" rx="2" fill="#0A1A3D"/>
<rect x="62.8218" y="140" width="4.65347" height="4" rx="2" fill="#0A1A3D"/>
<rect x="73.292" y="140" width="4.65347" height="4" rx="2" fill="#0A1A3D"/>
<rect x="83.7622" y="140" width="4.65347" height="4" rx="2" fill="#0A1A3D"/>
<rect x="94.2329" y="140" width="4.65347" height="4" rx="2" fill="#0A1A3D"/>
<rect x="104.703" y="140" width="4.65347" height="4" rx="2" fill="#0A1A3D"/>
<rect x="115.173" y="140" width="4.65347" height="4" rx="2" fill="#0A1A3D"/>
<rect x="125.644" y="140" width="4.65347" height="4" rx="2" fill="#0A1A3D"/>
<rect x="136.114" y="140" width="4.65347" height="4" rx="2" fill="#0A1A3D"/>
<rect x="146.584" y="140" width="4.65347" height="4" rx="2" fill="#0A1A3D"/>
<rect x="157.055" y="140" width="4.65347" height="4" rx="2" fill="#0A1A3D"/>
<rect x="167.525" y="140" width="4.65347" height="4" rx="2" fill="#0A1A3D"/>
<rect x="177.995" y="140" width="4.65347" height="4" rx="2" fill="#0A1A3D"/>
<rect x="188.465" y="140" width="4.65347" height="4" rx="2" fill="#0A1A3D"/>
<rect x="198.936" y="140" width="4.65347" height="4" rx="2" fill="#0A1A3D"/>
<rect x="209.406" y="140" width="4.65347" height="4" rx="2" fill="#0A1A3D"/>
<rect x="219.876" y="140" width="4.65347" height="4" rx="2" fill="#0A1A3D"/>
<rect x="230.347" y="140" width="4.65347" height="4" rx="2" fill="#0A1A3D"/>
<rect y="154" width="4.65347" height="4" rx="2" fill="#0A1A3D"/>
<rect x="10.4702" y="154" width="4.65347" height="4" rx="2" fill="#0A1A3D"/>
<rect x="20.9404" y="154" width="4.65347" height="4" rx="2" fill="#0A1A3D"/>
<rect x="31.4111" y="154" width="4.65347" height="4" rx="2" fill="#0A1A3D"/>
<rect x="41.8813" y="154" width="4.65347" height="4" rx="2" fill="#0A1A3D"/>
<rect x="52.3516" y="154" width="4.65347" height="4" rx="2" fill="#0A1A3D"/>
<rect x="62.8218" y="154" width="4.65347" height="4" rx="2" fill="#0A1A3D"/>
<rect x="73.292" y="154" width="4.65347" height="4" rx="2" fill="#0A1A3D"/>
<rect x="83.7622" y="154" width="4.65347" height="4" rx="2" fill="#0A1A3D"/>
<rect x="94.2329" y="154" width="4.65347" height="4" rx="2" fill="#0A1A3D"/>
<rect x="104.703" y="154" width="4.65347" height="4" rx="2" fill="#0A1A3D"/>
<rect x="115.173" y="154" width="4.65347" height="4" rx="2" fill="#0A1A3D"/>
<rect x="125.644" y="154" width="4.65347" height="4" rx="2" fill="#0A1A3D"/>
<rect x="136.114" y="154" width="4.65347" height="4" rx="2" fill="#0A1A3D"/>
<rect x="146.584" y="154" width="4.65347" height="4" rx="2" fill="#0A1A3D"/>
<rect x="157.055" y="154" width="4.65347" height="4" rx="2" fill="#0A1A3D"/>
<rect x="167.525" y="154" width="4.65347" height="4" rx="2" fill="#0A1A3D"/>
<rect x="177.995" y="154" width="4.65347" height="4" rx="2" fill="#0A1A3D"/>
<rect x="188.465" y="154" width="4.65347" height="4" rx="2" fill="#0A1A3D"/>
<rect x="198.936" y="154" width="4.65347" height="4" rx="2" fill="#0A1A3D"/>
<rect x="209.406" y="154" width="4.65347" height="4" rx="2" fill="#0A1A3D"/>
<rect x="219.876" y="154" width="4.65347" height="4" rx="2" fill="#0A1A3D"/>
<rect x="230.347" y="154" width="4.65347" height="4" rx="2" fill="#0A1A3D"/>
<rect y="168" width="4.65347" height="4" rx="2" fill="#0A1A3D"/>
<rect x="10.4702" y="168" width="4.65347" height="4" rx="2" fill="#0A1A3D"/>
<rect x="20.9404" y="168" width="4.65347" height="4" rx="2" fill="#0A1A3D"/>
<rect x="31.4111" y="168" width="4.65347" height="4" rx="2" fill="#0A1A3D"/>
<rect x="41.8813" y="168" width="4.65347" height="4" rx="2" fill="#0A1A3D"/>
<rect x="52.3516" y="168" width="4.65347" height="4" rx="2" fill="#0A1A3D"/>
<rect x="62.8218" y="168" width="4.65347" height="4" rx="2" fill="#0A1A3D"/>
<rect x="73.292" y="168" width="4.65347" height="4" rx="2" fill="#0A1A3D"/>
<rect x="83.7622" y="168" width="4.65347" height="4" rx="2" fill="#0A1A3D"/>
<rect x="94.2329" y="168" width="4.65347" height="4" rx="2" fill="#0A1A3D"/>
<rect x="104.703" y="168" width="4.65347" height="4" rx="2" fill="#0A1A3D"/>
<rect x="115.173" y="168" width="4.65347" height="4" rx="2" fill="#0A1A3D"/>
<rect x="125.644" y="168" width="4.65347" height="4" rx="2" fill="#0A1A3D"/>
<rect x="136.114" y="168" width="4.65347" height="4" rx="2" fill="#0A1A3D"/>
<rect x="146.584" y="168" width="4.65347" height="4" rx="2" fill="#0A1A3D"/>
<rect x="157.055" y="168" width="4.65347" height="4" rx="2" fill="#0A1A3D"/>
<rect x="167.525" y="168" width="4.65347" height="4" rx="2" fill="#0A1A3D"/>
<rect x="177.995" y="168" width="4.65347" height="4" rx="2" fill="#0A1A3D"/>
<rect x="188.465" y="168" width="4.65347" height="4" rx="2" fill="#0A1A3D"/>
<rect x="198.936" y="168" width="4.65347" height="4" rx="2" fill="#0A1A3D"/>
<rect x="209.406" y="168" width="4.65347" height="4" rx="2" fill="#0A1A3D"/>
<rect x="219.876" y="168" width="4.65347" height="4" rx="2" fill="#0A1A3D"/>
<rect x="230.347" y="168" width="4.65347" height="4" rx="2" fill="#0A1A3D"/>
<rect y="182" width="4.65347" height="4" rx="2" fill="#0A1A3D"/>
<rect x="10.4702" y="182" width="4.65347" height="4" rx="2" fill="#0A1A3D"/>
<rect x="20.9404" y="182" width="4.65347" height="4" rx="2" fill="#0A1A3D"/>
<rect x="31.4111" y="182" width="4.65347" height="4" rx="2" fill="#0A1A3D"/>
<rect x="41.8813" y="182" width="4.65347" height="4" rx="2" fill="#0A1A3D"/>
<rect x="52.3516" y="182" width="4.65347" height="4" rx="2" fill="#0A1A3D"/>
<rect x="62.8218" y="182" width="4.65347" height="4" rx="2" fill="#0A1A3D"/>
<rect x="73.292" y="182" width="4.65347" height="4" rx="2" fill="#0A1A3D"/>
<rect x="83.7622" y="182" width="4.65347" height="4" rx="2" fill="#0A1A3D"/>
<rect x="94.2329" y="182" width="4.65347" height="4" rx="2" fill="#0A1A3D"/>
<rect x="104.703" y="182" width="4.65347" height="4" rx="2" fill="#0A1A3D"/>
<rect x="115.173" y="182" width="4.65347" height="4" rx="2" fill="#0A1A3D"/>
<rect x="125.644" y="182" width="4.65347" height="4" rx="2" fill="#0A1A3D"/>
<rect x="136.114" y="182" width="4.65347" height="4" rx="2" fill="#0A1A3D"/>
<rect x="146.584" y="182" width="4.65347" height="4" rx="2" fill="#0A1A3D"/>
<rect x="157.055" y="182" width="4.65347" height="4" rx="2" fill="#0A1A3D"/>
<rect x="167.525" y="182" width="4.65347" height="4" rx="2" fill="#0A1A3D"/>
<rect x="177.995" y="182" width="4.65347" height="4" rx="2" fill="#0A1A3D"/>
<rect x="188.465" y="182" width="4.65347" height="4" rx="2" fill="#0A1A3D"/>
<rect x="198.936" y="182" width="4.65347" height="4" rx="2" fill="#0A1A3D"/>
<rect x="209.406" y="182" width="4.65347" height="4" rx="2" fill="#0A1A3D"/>
<rect x="219.876" y="182" width="4.65347" height="4" rx="2" fill="#0A1A3D"/>
<rect x="230.347" y="182" width="4.65347" height="4" rx="2" fill="#0A1A3D"/>
<rect y="196" width="4.65347" height="4" rx="2" fill="#0A1A3D"/>
<rect x="10.4702" y="196" width="4.65347" height="4" rx="2" fill="#0A1A3D"/>
<rect x="20.9404" y="196" width="4.65347" height="4" rx="2" fill="#0A1A3D"/>
<rect x="31.4111" y="196" width="4.65347" height="4" rx="2" fill="#0A1A3D"/>
<rect x="41.8813" y="196" width="4.65347" height="4" rx="2" fill="#0A1A3D"/>
<rect x="52.3516" y="196" width="4.65347" height="4" rx="2" fill="#0A1A3D"/>
<rect x="62.8218" y="196" width="4.65347" height="4" rx="2" fill="#0A1A3D"/>
<rect x="73.292" y="196" width="4.65347" height="4" rx="2" fill="#0A1A3D"/>
<rect x="83.7622" y="196" width="4.65347" height="4" rx="2" fill="#0A1A3D"/>
<rect x="94.2329" y="196" width="4.65347" height="4" rx="2" fill="#0A1A3D"/>
<rect x="104.703" y="196" width="4.65347" height="4" rx="2" fill="#0A1A3D"/>
<rect x="115.173" y="196" width="4.65347" height="4" rx="2" fill="#0A1A3D"/>
<rect x="125.644" y="196" width="4.65347" height="4" rx="2" fill="#0A1A3D"/>
<rect x="136.114" y="196" width="4.65347" height="4" rx="2" fill="#0A1A3D"/>
<rect x="146.584" y="196" width="4.65347" height="4" rx="2" fill="#0A1A3D"/>
<rect x="157.055" y="196" width="4.65347" height="4" rx="2" fill="#0A1A3D"/>
<rect x="167.525" y="196" width="4.65347" height="4" rx="2" fill="#0A1A3D"/>
<rect x="177.995" y="196" width="4.65347" height="4" rx="2" fill="#0A1A3D"/>
<rect x="188.465" y="196" width="4.65347" height="4" rx="2" fill="#0A1A3D"/>
<rect x="198.936" y="196" width="4.65347" height="4" rx="2" fill="#0A1A3D"/>
<rect x="209.406" y="196" width="4.65347" height="4" rx="2" fill="#0A1A3D"/>
<rect x="219.876" y="196" width="4.65347" height="4" rx="2" fill="#0A1A3D"/>
<rect x="230.347" y="196" width="4.65347" height="4" rx="2" fill="#0A1A3D"/>
<rect y="210" width="4.65347" height="4" rx="2" fill="#0A1A3D"/>
<rect x="10.4702" y="210" width="4.65347" height="4" rx="2" fill="#0A1A3D"/>
<rect x="20.9404" y="210" width="4.65347" height="4" rx="2" fill="#0A1A3D"/>
<rect x="31.4111" y="210" width="4.65347" height="4" rx="2" fill="#0A1A3D"/>
<rect x="41.8813" y="210" width="4.65347" height="4" rx="2" fill="#0A1A3D"/>
<rect x="52.3516" y="210" width="4.65347" height="4" rx="2" fill="#0A1A3D"/>
<rect x="62.8218" y="210" width="4.65347" height="4" rx="2" fill="#0A1A3D"/>
<rect x="73.292" y="210" width="4.65347" height="4" rx="2" fill="#0A1A3D"/>
<rect x="83.7622" y="210" width="4.65347" height="4" rx="2" fill="#0A1A3D"/>
<rect x="94.2329" y="210" width="4.65347" height="4" rx="2" fill="#0A1A3D"/>
<rect x="104.703" y="210" width="4.65347" height="4" rx="2" fill="#0A1A3D"/>
<rect x="115.173" y="210" width="4.65347" height="4" rx="2" fill="#0A1A3D"/>
<rect x="125.644" y="210" width="4.65347" height="4" rx="2" fill="#0A1A3D"/>
<rect x="136.114" y="210" width="4.65347" height="4" rx="2" fill="#0A1A3D"/>
<rect x="146.584" y="210" width="4.65347" height="4" rx="2" fill="#0A1A3D"/>
<rect x="157.055" y="210" width="4.65347" height="4" rx="2" fill="#0A1A3D"/>
<rect x="167.525" y="210" width="4.65347" height="4" rx="2" fill="#0A1A3D"/>
<rect x="177.995" y="210" width="4.65347" height="4" rx="2" fill="#0A1A3D"/>
<rect x="188.465" y="210" width="4.65347" height="4" rx="2" fill="#0A1A3D"/>
<rect x="198.936" y="210" width="4.65347" height="4" rx="2" fill="#0A1A3D"/>
<rect x="209.406" y="210" width="4.65347" height="4" rx="2" fill="#0A1A3D"/>
<rect x="219.876" y="210" width="4.65347" height="4" rx="2" fill="#0A1A3D"/>
<rect x="230.347" y="210" width="4.65347" height="4" rx="2" fill="#0A1A3D"/>
</g>
</svg>
