<svg xmlns="http://www.w3.org/2000/svg" width="24" height="25" viewBox="0 0 24 25" fill="none">
  <path d="M5.5 17H18.5L23 23.5H1L5.5 17Z" fill="#140097"/>
  <path fill-rule="evenodd" clip-rule="evenodd" d="M4.65 17.3C4.79164 17.1111 5.01394 17 5.25 17H9C9.41422 17 9.75 17.3358 9.75 17.75C9.75 18.1642 9.41422 18.5 9 18.5H5.625L2.25 23H21.75L18.375 18.5H15C14.5858 18.5 14.25 18.1642 14.25 17.75C14.25 17.3358 14.5858 17 15 17H18.75C18.9861 17 19.2084 17.1111 19.35 17.3L23.85 23.3C24.0205 23.5273 24.0479 23.8313 23.9208 24.0854C23.7938 24.3395 23.5341 24.5 23.25 24.5H12H0.750004C0.465925 24.5 0.206228 24.3395 0.0791839 24.0854C-0.0478601 23.8313 -0.0204431 23.5273 0.150004 23.3L2.4 20.3L4.65 17.3Z" fill="#140097"/>
  <path fill-rule="evenodd" clip-rule="evenodd" d="M6 6.5C6 3.18629 8.68629 0.5 12 0.5C15.3137 0.5 18 3.18629 18 6.5C18 9.55971 15.7097 12.0845 12.75 12.4536V20.75C12.75 21.1642 12.4142 21.5 12 21.5C11.5858 21.5 11.25 21.1642 11.25 20.75V12.4536C8.29027 12.0845 6 9.55971 6 6.5Z" fill="#2F78F1"/>
</svg>