<svg xmlns="http://www.w3.org/2000/svg" width="25" height="24" viewBox="0 0 25 24" fill="none">
    <rect y="5.56262" width="25" height="12.5" fill="#2F78F1" />
    <path fill-rule="evenodd" clip-rule="evenodd"
        d="M12.5 16.8126C13.8261 16.8126 15.0979 16.2858 16.0355 15.3482C16.9732 14.4105 17.5 13.1387 17.5 11.8126C17.5 10.4865 16.9732 9.21477 16.0355 8.27709C15.0979 7.33941 13.8261 6.81262 12.5 6.81262C11.1739 6.81262 9.90215 7.33941 8.96447 8.27709C8.02678 9.21477 7.5 10.4865 7.5 11.8126C7.5 13.1387 8.02678 14.4105 8.96447 15.3482C9.90215 16.2858 11.1739 16.8126 12.5 16.8126ZM18.75 11.8126C18.75 13.4702 18.0915 15.0599 16.9194 16.232C15.7473 17.4041 14.1576 18.0626 12.5 18.0626C10.8424 18.0626 9.25269 17.4041 8.08058 16.232C6.90848 15.0599 6.25 13.4702 6.25 11.8126C6.25 10.155 6.90848 8.56531 8.08058 7.3932C9.25269 6.2211 10.8424 5.56262 12.5 5.56262C14.1576 5.56262 15.7473 6.2211 16.9194 7.3932C18.0915 8.56531 18.75 10.155 18.75 11.8126Z"
        fill="#140097" />
    <path
        d="M10.9385 12.9925C10.9855 13.7375 11.4565 14.3175 12.3015 14.3875V14.9375H12.6765V14.3837C13.5515 14.3075 14.0625 13.7225 14.0625 12.875C14.0625 12.1025 13.6725 11.705 12.9725 11.5L12.6765 11.4125V9.9125C13.0525 9.96625 13.2905 10.2225 13.3475 10.5775H14.0055C13.9585 9.85875 13.4655 9.2975 12.6765 9.23625V8.6875H12.3015V9.25C11.5545 9.34125 11.0465 9.9025 11.0465 10.6975C11.0465 11.4 11.4245 11.8475 12.0535 12.03L12.3015 12.1062V13.6962C11.9175 13.6237 11.6625 13.3588 11.6055 12.9925H10.9375H10.9385ZM12.2985 11.3C11.9295 11.1938 11.7295 10.975 11.7295 10.6475C11.7295 10.28 11.9455 10.005 12.3015 9.925V11.3H12.2985ZM12.7305 12.2325C13.1795 12.3625 13.3855 12.5725 13.3855 12.9437C13.3855 13.3675 13.1285 13.6575 12.6765 13.7113V12.2175L12.7305 12.2325Z"
        fill="#140097" />
    <path
        d="M0 5.5625C0 5.1481 0.16462 4.75067 0.457646 4.45765C0.750671 4.16462 1.1481 4 1.5625 4H23.4375C23.8519 4 24.2493 4.16462 24.5424 4.45765C24.8354 4.75067 25 5.1481 25 5.5625V18.0625C25 18.4769 24.8354 18.8743 24.5424 19.1674C24.2493 19.4604 23.8519 19.625 23.4375 19.625H1.5625C1.1481 19.625 0.750671 19.4604 0.457646 19.1674C0.16462 18.8743 0 18.4769 0 18.0625V5.5625ZM4.6875 5.5625C4.6875 6.3913 4.35826 7.18616 3.77221 7.77221C3.18616 8.35826 2.3913 8.6875 1.5625 8.6875V14.9375C2.3913 14.9375 3.18616 15.2667 3.77221 15.8528C4.35826 16.4388 4.6875 17.2337 4.6875 18.0625H20.3125C20.3125 17.2337 20.6417 16.4388 21.2278 15.8528C21.8138 15.2667 22.6087 14.9375 23.4375 14.9375V8.6875C22.6087 8.6875 21.8138 8.35826 21.2278 7.77221C20.6417 7.18616 20.3125 6.3913 20.3125 5.5625H4.6875Z"
        fill="#140097" />
</svg>