<svg xmlns="http://www.w3.org/2000/svg" width="24" height="25" viewBox="0 0 24 25" fill="none">
    <path
        d="M0 5.02002C0 3.91545 0.895431 3.02002 2 3.02002H8C9.10457 3.02002 10 3.91545 10 5.02002V11.02C10 12.1246 9.10457 13.02 8 13.02H2C0.895431 13.02 0 12.1246 0 11.02V5.02002Z"
        fill="#140097" />
    <path
        d="M15.8303 1.09602C16.6116 0.314674 17.8784 0.314674 18.6597 1.09602L22.904 5.34026C23.6853 6.12161 23.6853 7.38841 22.904 8.16976L18.6597 12.414C17.8784 13.1953 16.6116 13.1953 15.8303 12.414L11.586 8.16976C10.8047 7.38841 10.8047 6.1216 11.586 5.34026L15.8303 1.09602Z"
        fill="#2F78F1" />
    <path
        d="M0 16.02C0 14.9155 0.895431 14.02 2 14.02H8C9.10457 14.02 10 14.9155 10 16.02V22.02C10 23.1246 9.10457 24.02 8 24.02H2C0.895431 24.02 0 23.1246 0 22.02V16.02Z"
        fill="#140097" />
    <path
        d="M11 16.02C11 14.9155 11.8954 14.02 13 14.02H19C20.1046 14.02 21 14.9155 21 16.02V22.02C21 23.1246 20.1046 24.02 19 24.02H13C11.8954 24.02 11 23.1246 11 22.02V16.02Z"
        fill="#140097" />
</svg>