<svg xmlns="http://www.w3.org/2000/svg" width="24" height="20" viewBox="0 0 24 20" fill="none">
  <g clip-path="url(#clip0_953_1537)">
    <path d="M23.3611 19.8901L0.645489 20.0011C0.151978 20.0036 -0.15951 19.4972 0.0853221 19.0885L11.3425 0.307384C11.5873 -0.100132 12.2039 -0.103792 12.4526 0.302503L23.911 18.9726C24.1597 19.3777 23.8546 19.8877 23.3611 19.8901Z" fill="#140097"/>
    <path d="M10.6938 16.336C10.7399 15.7943 11.1001 15.3868 11.6064 15.2721C12.6524 15.0366 13.2946 15.7272 13.0934 16.7313C13.0011 17.1913 12.6755 17.5427 12.1948 17.6427C11.3731 17.8136 10.6258 17.134 10.6938 16.336ZM11.1834 12.9844L10.9373 4.94143C10.9258 4.55465 11.2514 4.23499 11.659 4.23499H12.1525C12.5588 4.23499 12.8857 4.55465 12.8742 4.94143L12.6281 12.9844C12.6165 13.3553 12.2973 13.6506 11.9064 13.6506C11.5167 13.6506 11.1962 13.3553 11.1847 12.9844H11.1834Z" fill="#2F78F1"/>
  </g>
  <defs>
    <clipPath id="clip0_953_1537">
      <rect width="24" height="20" fill="white"/>
    </clipPath>
  </defs>
</svg>