<svg xmlns="http://www.w3.org/2000/svg" width="26" height="26" viewBox="0 0 26 26" fill="none">
    <path
        d="M5.03794 4.76493C5.21982 4.03737 5.31077 3.67359 5.58203 3.46179C5.85329 3.25 6.22827 3.25 6.97822 3.25H19.0218C19.7717 3.25 20.1467 3.25 20.418 3.46179C20.6892 3.67359 20.7802 4.03737 20.9621 4.76493L22.2975 10.1068C22.4261 10.621 22.4904 10.8781 22.4549 11.0854C22.3982 11.4163 22.1793 11.6968 21.872 11.832C21.6795 11.9167 21.4095 11.9167 20.8694 11.9167C20.1578 11.9167 19.802 11.9167 19.5074 11.8234C18.997 11.6619 18.5726 11.3024 18.3293 10.8254C18.1889 10.5502 18.1315 10.2057 18.0167 9.51662C17.9845 9.32373 17.9684 9.22728 17.9462 9.20474C17.9071 9.16501 17.8429 9.16501 17.8038 9.20474C17.7816 9.22728 17.7655 9.32373 17.7333 9.51662L17.645 10.0466C17.6137 10.2342 17.5981 10.328 17.5775 10.4091C17.3675 11.2359 16.6562 11.8384 15.8061 11.9097C15.7227 11.9167 15.6277 11.9167 15.4375 11.9167C15.2473 11.9167 15.1523 11.9167 15.0689 11.9097C14.2188 11.8384 13.5075 11.2359 13.2975 10.4091C13.2769 10.328 13.2613 10.2342 13.23 10.0466L13.1417 9.51662C13.1095 9.32373 13.0934 9.22728 13.0712 9.20474C13.0321 9.16501 12.9679 9.16501 12.9288 9.20474C12.9066 9.22728 12.8905 9.32373 12.8583 9.51662L12.77 10.0466C12.7387 10.2342 12.7231 10.328 12.7025 10.4091C12.4925 11.2359 11.7812 11.8384 10.9311 11.9097C10.8477 11.9167 10.7527 11.9167 10.5625 11.9167C10.3723 11.9167 10.2773 11.9167 10.1939 11.9097C9.34382 11.8384 8.63252 11.2359 8.42249 10.4091C8.40189 10.328 8.38626 10.2342 8.35499 10.0466L8.26666 9.51662C8.23451 9.32373 8.21844 9.22728 8.19622 9.20474C8.15705 9.16501 8.09295 9.16501 8.05378 9.20474C8.03156 9.22728 8.01549 9.32373 7.98334 9.51662C7.8685 10.2057 7.81108 10.5502 7.6707 10.8254C7.42742 11.3024 7.00304 11.6619 6.49256 11.8234C6.19802 11.9167 5.8422 11.9167 5.13057 11.9167C4.59052 11.9167 4.3205 11.9167 4.12803 11.832C3.82071 11.6968 3.60176 11.4163 3.54511 11.0854C3.50963 10.8781 3.57391 10.621 3.70246 10.1068L5.03794 4.76493Z"
        fill="#2F78F1" />
    <path fill-rule="evenodd" clip-rule="evenodd"
        d="M5.43028 13.4171C5.41602 13.8195 5.41602 14.2868 5.41602 14.8333V21.8333C5.41602 22.7761 5.41602 23.2476 5.70891 23.5404C6.0018 23.8333 6.47321 23.8333 7.41602 23.8333H10.8327V19.4167C10.8327 18.8644 11.2804 18.4167 11.8327 18.4167H14.166C14.7183 18.4167 15.166 18.8644 15.166 19.4167V23.8333H18.5827C19.5255 23.8333 19.9969 23.8333 20.2898 23.5404C20.5827 23.2476 20.5827 22.7761 20.5827 21.8333V14.8333C20.5827 14.2868 20.5827 13.8195 20.5684 13.4171C20.0576 13.417 19.5306 13.4043 19.0542 13.2535C18.6187 13.1157 18.219 12.8955 17.8744 12.6094C17.3356 13.0568 16.6626 13.3431 15.9308 13.4044C15.7823 13.4169 15.6255 13.4168 15.4758 13.4167H15.4757L15.4368 13.4167L15.398 13.4167H15.3979C15.2481 13.4168 15.0914 13.4169 14.9429 13.4044C14.2111 13.3431 13.5381 13.0568 12.9994 12.6094C12.4606 13.0568 11.7876 13.3431 11.0558 13.4044C10.9073 13.4169 10.7505 13.4168 10.6008 13.4167H10.6007L10.5618 13.4167L10.523 13.4167H10.5229C10.3731 13.4168 10.2164 13.4169 10.0679 13.4044C9.33614 13.3431 8.6631 13.0568 8.12435 12.6094C7.77972 12.8955 7.38002 13.1157 6.94452 13.2535C6.46814 13.4043 5.94106 13.417 5.43028 13.4171ZM12.8327 23.8333H13.166V20.4167H12.8327V23.8333Z"
        fill="#140097" />
</svg>