<svg width="24" height="24" viewBox="0 0 24 24" fill="none" xmlns="http://www.w3.org/2000/svg">
<g clip-path="url(#clip0_953_1526)">
<path fill-rule="evenodd" clip-rule="evenodd" d="M8.25018 4.49967C8.25018 2.42915 9.92858 0.749512 12.0005 0.749512C14.0723 0.749512 15.7507 2.42786 15.7507 4.49967V11.3743C15.7507 11.7678 15.9417 12.1316 16.2306 12.3973C17.473 13.539 18.2509 15.1787 18.2509 16.9989C18.2509 20.4511 15.4527 23.2492 12.0005 23.2492C8.54819 23.2492 5.75 20.4511 5.75 17.0002C5.75 15.18 6.52792 13.5416 7.77027 12.3986C8.05925 12.1329 8.25018 11.7678 8.25018 11.3756V4.49967ZM12.0005 19.499C13.3809 19.499 14.5006 18.3793 14.5006 16.9989C14.5006 15.6186 13.3809 14.4988 12.0005 14.4988C10.6201 14.4988 9.50028 15.6186 9.50028 16.9989C9.50028 18.3793 10.6201 19.499 12.0005 19.499Z" fill="#140097"/>
<path d="M12 0C9.5153 0 7.50018 2.01505 7.50018 4.49968H9.00055C9.00055 2.84326 10.3435 1.50032 12 1.50032V0ZM16.4998 4.49968C16.4998 2.01505 14.486 0 12 0V1.50032C13.6565 1.50032 14.9994 2.84326 14.9994 4.49968H16.4998ZM16.4998 11.3743V4.49968H14.9994V11.3743H16.4998ZM16.7372 11.8465C16.5721 11.6943 16.4998 11.5201 16.4998 11.3743H14.9994C14.9994 12.0155 15.3078 12.5702 15.7219 12.9495L16.7372 11.8452V11.8465ZM19 17.0002C19 14.9619 18.1279 13.1249 16.7372 11.8465L15.7219 12.9508C16.8159 13.957 17.4996 15.398 17.4996 17.0002H19ZM12 24C15.8664 24 19 20.8665 19 17.0002H17.4996C17.4996 20.0383 15.0369 22.4997 12 22.4997V24ZM5 17.0002C5 20.8665 8.13362 24 12 24V22.4997C8.96185 22.4997 6.50037 20.037 6.50037 17.0002H5ZM7.26281 11.8465C5.8721 13.1249 5 14.9607 5 17.0002H6.50037C6.50037 15.398 7.18411 13.957 8.27811 12.9508L7.26281 11.8465ZM7.50018 11.3743C7.50018 11.5201 7.42794 11.6943 7.26281 11.8465L8.27811 12.9508C8.69093 12.5702 9.00055 12.0155 9.00055 11.3756H7.50018V11.3743ZM7.50018 4.49968V11.3743H9.00055V4.49968H7.50018ZM13.7506 17.0002C13.7506 17.9665 12.9676 18.7508 12 18.7508V20.2511C13.7945 20.2511 15.2497 18.796 15.2497 17.0015H13.7494L13.7506 17.0002ZM12 15.2496C12.9663 15.2496 13.7506 16.0327 13.7506 17.0002H15.251C15.251 15.2058 13.7958 13.7506 12.0013 13.7506V15.2509L12 15.2496ZM10.2494 17.0002C10.2494 16.034 11.0324 15.2496 12 15.2496V13.7493C10.2055 13.7493 8.75028 15.2045 8.75028 16.9989H10.2506L10.2494 17.0002ZM12 18.7508C11.0337 18.7508 10.2494 17.9678 10.2494 17.0002H8.74899C8.74899 18.7947 10.2042 20.2498 11.9987 20.2498V18.7495L12 18.7508Z" fill="#2F78F1"/>
<path d="M12.0006 19.8074C13.551 19.8074 14.8078 18.5506 14.8078 17.0003C14.8078 15.4499 13.551 14.1931 12.0006 14.1931C10.4502 14.1931 9.19336 15.4499 9.19336 17.0003C9.19336 18.5506 10.4502 19.8074 12.0006 19.8074Z" fill="#2F78F1"/>
</g>
<defs>
<clipPath id="clip0_953_1526">
<rect width="14" height="24" fill="white" transform="translate(5)"/>
</clipPath>
</defs>
</svg>
