<svg xmlns="http://www.w3.org/2000/svg" width="20" height="20" viewBox="0 0 20 20" fill="none">
    <path
        d="M12.8571 4.28571C12.8571 6.65265 10.9384 8.57143 8.57143 8.57143C6.20449 8.57143 4.28571 6.65265 4.28571 4.28571C4.28571 1.91878 6.20449 0 8.57143 0C10.9384 0 12.8571 1.91878 12.8571 4.28571Z"
        fill="#140097" />
    <path
        d="M0 15.7143C0 17.1429 1.42857 17.1429 1.42857 17.1429H8.93723C8.70033 16.4726 8.57143 15.7514 8.57143 15C8.57143 13.0662 9.42528 11.3318 10.7765 10.1533C10.1101 10.0545 9.37712 10 8.57143 10C1.42857 10 0 14.2857 0 15.7143Z"
        fill="#140097" />
    <path
        d="M20 15C20 17.7614 17.7614 20 15 20C12.2386 20 10 17.7614 10 15C10 12.2386 12.2386 10 15 10C17.7614 10 20 12.2386 20 15ZM15 12.1429C14.6055 12.1429 14.2857 12.4627 14.2857 12.8571V15C14.2857 15.3945 14.6055 15.7143 15 15.7143C15.3945 15.7143 15.7143 15.3945 15.7143 15V12.8571C15.7143 12.4627 15.3945 12.1429 15 12.1429ZM15 17.8571C15.3945 17.8571 15.7143 17.5373 15.7143 17.1429C15.7143 16.7484 15.3945 16.4286 15 16.4286C14.6055 16.4286 14.2857 16.7484 14.2857 17.1429C14.2857 17.5373 14.6055 17.8571 15 17.8571Z"
        fill="#2F78F1" />
</svg>