<svg width="180" height="80" viewBox="0 0 180 80" fill="none" xmlns="http://www.w3.org/2000/svg">
<rect width="180" height="80" rx="8" fill="white"/>
<g clip-path="url(#clip0_34552_294009)">
<path d="M113.735 52.1348V56.8856H115.934C116.314 56.8856 116.613 56.8313 116.884 56.7499C117.156 56.6684 117.373 56.5599 117.509 56.397C117.672 56.2612 117.78 56.0712 117.889 55.8269C117.97 55.5826 118.025 55.3654 118.052 55.121C118.079 54.8767 118.079 54.6052 118.079 54.2795C118.079 53.8723 118.052 53.5194 117.998 53.2479C117.943 52.9764 117.862 52.7049 117.699 52.4606C117.563 52.2163 117.346 52.0263 117.047 51.9177C116.749 51.8091 116.369 51.7276 115.907 51.7276H114.17C113.871 51.7276 113.735 51.8634 113.735 52.1348ZM113.735 57.7815V60.0076H112.459V51.9448C112.459 51.2118 112.894 50.8589 113.763 50.8589H116.152C117.373 50.8589 118.215 51.1575 118.703 51.7276C119.192 52.2977 119.436 53.1664 119.436 54.3066C119.436 55.474 119.192 56.3427 118.703 56.9128C118.215 57.4829 117.373 57.7815 116.152 57.7815H113.735Z" fill="black"/>
<path d="M121.746 54.2754C121.746 55.2527 121.963 55.9586 122.37 56.3658C122.778 56.773 123.511 56.963 124.515 56.963C125.519 56.963 126.252 56.773 126.66 56.3658C127.067 55.9586 127.284 55.2799 127.284 54.2754C127.284 53.2981 127.067 52.6194 126.66 52.2394C126.252 51.8593 125.547 51.6693 124.515 51.6693C123.483 51.6693 122.778 51.8593 122.37 52.2394C121.936 52.6194 121.746 53.3253 121.746 54.2754ZM128.587 54.2754C128.587 55.5785 128.261 56.5015 127.637 57.0445C127.013 57.5874 125.954 57.8589 124.515 57.8589C123.076 57.8589 122.017 57.5874 121.393 57.0445C120.769 56.5015 120.443 55.5785 120.443 54.2754C120.443 52.9995 120.769 52.0765 121.393 51.5607C122.017 51.0449 123.076 50.7734 124.515 50.7734C125.981 50.7734 127.013 51.0449 127.637 51.5607C128.261 52.1037 128.587 52.9995 128.587 54.2754Z" fill="black"/>
<path d="M129.67 57.7866V56.8908H134.204C134.856 56.8908 135.154 56.5921 135.154 56.022C135.154 55.8863 135.127 55.8049 135.1 55.6963C135.073 55.6148 134.991 55.5334 134.91 55.452C134.801 55.3705 134.72 55.3162 134.666 55.2891C134.611 55.2348 134.475 55.2076 134.258 55.1262C134.041 55.0719 133.905 55.0176 133.797 55.0176C133.688 54.9904 133.498 54.9633 133.2 54.8819L131.734 54.5561C130.946 54.3932 130.403 54.1489 130.05 53.8503C129.698 53.5516 129.535 53.1173 129.535 52.5472C129.535 51.407 130.241 50.8098 131.679 50.8098H135.996V51.7056H131.815C131.435 51.7056 131.191 51.7599 131.028 51.8957C130.865 52.0314 130.783 52.2486 130.783 52.5472C130.783 52.9001 130.892 53.1444 131.136 53.3073C131.381 53.4702 131.761 53.6059 132.277 53.7145L133.851 54.0674C134.34 54.176 134.72 54.2575 134.964 54.3389C135.208 54.4204 135.48 54.5289 135.724 54.6647C135.996 54.8004 136.186 54.9904 136.294 55.2076C136.403 55.4248 136.457 55.6963 136.457 56.022C136.457 56.5921 136.322 57.0265 136.023 57.3251C135.724 57.6237 135.208 57.7595 134.503 57.7595H129.67V57.7866Z" fill="black"/>
<path d="M141.633 57.7866H140.683C139.732 57.7866 139.081 57.5966 138.701 57.2437C138.321 56.8908 138.131 56.3207 138.131 55.5605V51.7328H136.963V50.8369H138.131V48.6108H139.379V50.8369H141.606V51.7328H139.407V55.4791C139.407 55.9949 139.542 56.375 139.787 56.565C140.031 56.7822 140.493 56.8636 141.09 56.8636H141.606V57.7866H141.633Z" fill="black"/>
<path d="M62.234 24.2437H60.5237C59.845 24.2437 59.2749 24.7867 59.2749 25.4925V38.2246C59.2749 38.9033 59.8178 39.4734 60.5237 39.4734H62.234C62.9126 39.4734 63.4827 38.9304 63.4827 38.2246V25.4925C63.4827 24.8138 62.9126 24.2437 62.234 24.2437Z" fill="#EC1B2E"/>
<path d="M56.0619 24.2437C54.976 24.2437 54.0801 24.8952 53.6186 25.8182L49.0579 35.5369C48.9493 35.7541 48.7321 36.1342 48.5421 36.1342C48.352 36.1342 48.1349 35.7541 48.0263 35.5369L43.4655 25.8453C43.0312 24.9223 42.1081 24.2708 41.0223 24.2708H38.3618L45.6102 38.2788C46.316 39.6633 47.8091 39.6362 48.5421 39.6362C49.5737 39.6362 50.7953 39.5819 51.4468 38.2788L58.6952 24.2437H56.0619Z" fill="#EC1B2E"/>
<path d="M136.134 21.9279C136.134 21.2492 135.591 20.6791 134.885 20.6791H133.175C132.496 20.6791 131.926 21.2221 131.926 21.9279V34.4971C131.926 36.4246 132.605 37.5376 133.827 38.352C135.021 39.1393 136.378 39.4651 138.93 39.4651H140.315C140.993 39.4651 141.564 38.9221 141.564 38.2163V36.8589H140.532C139.772 36.8589 138.197 36.8318 137.274 36.2074C136.053 35.393 136.161 33.9813 136.161 32.9226V21.9279H136.134Z" fill="#EC1B2E"/>
<path d="M109.253 36.8971C108.493 36.8971 106.918 36.8699 105.995 36.2455C104.773 35.4311 104.882 34.0195 104.882 32.9607V26.8526H108.954C109.633 26.8526 110.203 26.3096 110.203 25.6038V24.2736H104.882V21.9389C104.882 21.2602 104.339 20.6901 103.633 20.6901H101.923C101.244 20.6901 100.674 21.2331 100.674 21.9389V24.2464H91.9326V21.9117C91.9326 21.2331 91.3897 20.663 90.6839 20.663H88.9736C88.2949 20.663 87.7248 21.2059 87.7248 21.9117V24.2464H85.1187V25.6038C85.1187 26.2825 85.6616 26.8526 86.3674 26.8526H87.7519V34.5081C87.7519 36.4356 88.4306 37.5486 89.6523 38.363C90.8467 39.1503 92.2041 39.4761 94.756 39.4761H96.1405C96.8192 39.4761 97.3892 38.9331 97.3892 38.2273V36.8699H96.3576C95.5975 36.8699 94.023 36.8428 93.1 36.2184C91.8783 35.404 91.9869 33.9923 91.9869 32.9336V26.8254H100.728V34.481C100.728 36.4084 101.407 37.5215 102.629 38.3359C103.823 39.1232 105.181 39.4489 107.732 39.4489H109.117C109.796 39.4489 110.366 38.906 110.366 38.2001V36.8428H109.253V36.8971Z" fill="#EC1B2E"/>
<path d="M83.5763 38.24V36.8826H74.2648C72.7174 36.8826 70.9528 36.7197 70.437 35.0638C70.3013 34.6022 70.1927 33.6249 70.1927 32.9734H81.2417C82.0018 32.9734 82.7076 32.8648 83.2777 32.4033C84.065 31.7789 84.1736 30.8831 84.1736 30.0958C84.1736 28.1683 83.7121 26.268 81.486 25.155C79.7214 24.2863 77.441 24.2048 75.215 24.2048C73.4232 24.2048 70.1927 24.2048 68.1023 25.6436C66.012 27.0824 65.8491 29.1728 65.8491 32.0233C65.8491 34.0322 65.9577 36.1225 67.2065 37.5613C68.781 39.353 71.0886 39.4888 73.016 39.4888H82.3276C83.0062 39.4616 83.5763 38.9187 83.5763 38.24ZM79.83 29.4986C79.83 29.9058 79.7214 30.3944 78.907 30.3944H72.9346C71.4143 30.3944 70.1927 31.1002 70.1927 31.9418V30.3944C70.2198 29.39 70.1927 28.5484 71.0614 27.7883C72.2016 26.7567 73.939 26.7838 75.0521 26.7838C76.2466 26.7838 77.6039 26.8381 78.6355 27.4625C79.2328 27.8426 79.83 28.5484 79.83 29.4986Z" fill="#EC1B2E"/>
<path d="M128.96 38.24V36.8827H119.676C118.129 36.8827 116.364 36.7198 115.848 35.0638C115.712 34.6023 115.604 33.625 115.604 32.9735H126.653C127.413 32.9735 128.119 32.8649 128.689 32.4034C129.476 31.779 129.585 30.8831 129.585 30.0958C129.585 28.1684 129.123 26.2681 126.897 25.155C125.133 24.2592 122.852 24.1777 120.626 24.1777C118.834 24.1777 115.604 24.1777 113.513 25.6165C111.423 27.0553 111.26 29.1457 111.26 31.9962C111.26 34.0051 111.369 36.0954 112.618 37.5342C114.192 39.3259 116.5 39.4617 118.427 39.4617H127.739C128.39 39.4617 128.96 38.9187 128.96 38.24ZM125.214 29.4986C125.214 29.9058 125.105 30.3945 124.291 30.3945H118.319C116.798 30.3945 115.577 31.1003 115.577 31.9419V30.3945C115.604 29.39 115.577 28.5484 116.445 27.7883C117.586 26.7567 119.323 26.7839 120.436 26.7839C121.631 26.7839 122.988 26.8382 124.02 27.4625C124.617 27.8426 125.214 28.5484 125.214 29.4986Z" fill="#EC1B2E"/>
<path d="M62.234 20H60.5237C59.845 20 59.2749 20.543 59.2749 21.2488V21.6017V24.2893H59.302C59.4106 23.5835 60.2251 22.8505 61.3924 22.8505H62.2611C62.9398 22.8505 63.5099 22.3076 63.5099 21.6017V21.2488C63.4827 20.543 62.9126 20 62.234 20Z" fill="#EC1B2E"/>
</g>
<defs>
<clipPath id="clip0_34552_294009">
<rect width="103.27" height="40" fill="white" transform="translate(38.3647 20)"/>
</clipPath>
</defs>
</svg>
