<svg width="180" height="80" viewBox="0 0 180 80" fill="none" xmlns="http://www.w3.org/2000/svg">
<rect width="180" height="80" rx="8" fill="white"/>
<path d="M118.268 29.1636L121.963 33.0333L125.521 29.1636H133.117L125.693 37.0964L133.219 45.094H125.316L121.656 41.1936L118.029 45.094H110.397L117.857 37.1294L110.397 29.1636H118.268Z" fill="#FF5900"/>
<path d="M110.398 29.1637V34.5462H101.949V39.4853H110.398V45.0942H95.7402V20H110.398V25.5935H101.949V29.1637H110.398Z" fill="#FF5900"/>
<path d="M89.5568 20V30.2697H89.4885C88.1186 28.7747 86.4087 28.2547 84.4246 28.2547C80.3596 28.2547 77.2972 30.8817 76.2226 34.3528C74.9954 30.5279 71.8337 28.1828 67.1458 28.1828C63.3389 28.1828 60.3323 29.8063 58.7639 32.4522V29.1637H50.8944V25.5935H59.4823V20H43.8799V45.0942H50.8944V34.5462H57.8866C57.6781 35.3209 57.5664 36.1509 57.5664 37.027C57.5664 42.2609 61.7754 45.9349 67.1458 45.9349C71.6625 45.9349 74.6393 43.9198 76.2127 40.247H70.2008C69.388 41.3518 68.7713 41.6784 67.1458 41.6784C65.261 41.6784 63.6354 40.1161 63.6354 38.2638H75.8764C76.4075 42.4212 79.8161 46.0068 84.4929 46.0068C86.5105 46.0068 88.3581 45.0635 89.4873 43.4718H89.5555V45.0965H95.7387V20H89.5568ZM63.8315 34.6205C64.2211 33.0264 65.5228 31.9853 67.147 31.9853C68.9351 31.9853 70.1697 32.9945 70.4949 34.6205C70.6313 34.6205 63.8315 34.6205 63.8315 34.6205ZM85.8032 41.274C83.5238 41.274 82.1067 39.2554 82.1067 37.1484C82.1067 34.8964 83.3389 32.7304 85.8032 32.7304C88.3581 32.7304 89.3756 34.8964 89.3756 37.1484C89.3756 39.2837 88.2973 41.274 85.8032 41.274Z" fill="#2A007C"/>
<path d="M95.7412 57.6417V48.6489H100.97V49.3198H96.6036V52.6354H100.785V53.3063H96.6036V56.9685H101.165V57.6405L95.7412 57.6417Z" fill="#2A007C"/>
<path d="M101.79 57.6419L104.339 54.4124L101.921 51.3574H102.901L104.876 53.8535L106.81 51.3574H107.79L105.333 54.4124L107.895 57.6419H106.902L104.784 54.9701L102.771 57.6419H101.79Z" fill="#2A007C"/>
<path d="M109.553 60.0001H108.755V53.2335C108.755 52.6121 108.755 51.9801 108.715 51.3575H109.501L109.527 52.302C110.022 51.5556 110.676 51.209 111.657 51.209C113.696 51.209 114.571 52.8102 114.571 54.4986C114.571 56.1894 113.696 57.7906 111.657 57.7906C110.742 57.7906 110.023 57.4557 109.553 56.7341V60.0001ZM113.722 54.4986C113.722 53.158 113.133 51.841 111.566 51.841C110.089 51.841 109.553 52.9965 109.553 54.4986C109.553 56.0019 110.089 57.1562 111.566 57.1562C113.134 57.1562 113.722 55.8404 113.722 54.4986Z" fill="#2A007C"/>
<path d="M118.671 51.94C117.351 51.94 116.892 52.9965 116.892 54.0883V57.642H116.094V53.2063C116.094 52.5979 116.081 51.9789 116.055 51.3575H116.842L116.893 52.2643C117.285 51.545 117.94 51.209 118.815 51.209C118.933 51.209 119.063 51.2208 119.181 51.2337V51.9919C118.997 51.9648 118.853 51.94 118.671 51.94Z" fill="#2A007C"/>
<path d="M120.157 54.6354C120.157 56.0503 120.862 57.2175 122.313 57.2175C123.435 57.2175 123.959 56.5101 124.155 55.8026H124.913C124.56 57.1185 123.71 57.7906 122.207 57.7906C120.194 57.7906 119.305 56.3745 119.305 54.6118C119.305 52.8113 120.233 51.209 122.311 51.209C124.416 51.209 124.978 52.9587 124.978 54.6354H120.157ZM120.182 54.0647H124.129C124.129 52.8349 123.516 51.7797 122.26 51.7797C121.124 51.7785 120.338 52.5979 120.182 54.0647Z" fill="#2A007C"/>
<path d="M128.091 57.7906C126.733 57.7906 125.714 57.181 125.714 55.8026H126.512C126.512 56.7459 127.164 57.2175 128.132 57.2175C129.034 57.2175 129.739 56.8072 129.739 55.9654C129.739 55.2072 128.916 55.008 128.054 54.7721C127.009 54.4868 125.871 54.1755 125.871 52.9587C125.871 51.6063 127.06 51.209 128.172 51.209C129.451 51.209 130.407 51.6794 130.445 52.9835H129.647C129.609 52.2395 129.047 51.8174 128.197 51.8174C127.53 51.8174 126.72 52.065 126.72 52.8844C126.72 53.6308 127.53 53.8419 128.393 54.0647C129.44 54.3371 130.589 54.6354 130.589 55.8533C130.588 57.2682 129.439 57.7906 128.091 57.7906Z" fill="#2A007C"/>
<path d="M133.621 57.7906C132.261 57.7906 131.242 57.181 131.242 55.8026H132.04C132.04 56.7459 132.693 57.2175 133.662 57.2175C134.564 57.2175 135.269 56.8072 135.269 55.9654C135.269 55.2072 134.445 55.008 133.582 54.7721C132.538 54.4868 131.401 54.1755 131.401 52.9587C131.401 51.6063 132.59 51.209 133.702 51.209C134.981 51.209 135.936 51.6794 135.975 52.9835H135.177C135.138 52.2395 134.576 51.8174 133.726 51.8174C133.06 51.8174 132.25 52.065 132.25 52.8844C132.25 53.6308 133.06 53.8419 133.924 54.0647C134.97 54.3371 136.12 54.6354 136.12 55.8533C136.117 57.2682 134.967 57.7906 133.621 57.7906Z" fill="#2A007C"/>
</svg>
