<svg width="180" height="80" viewBox="0 0 180 80" fill="none" xmlns="http://www.w3.org/2000/svg">
<rect width="180" height="80" rx="8" fill="white"/>
<g clip-path="url(#clip0_34552_293872)">
<path d="M30 53.2415V26.7585H150V53.2415H30Z" fill="#FECC00"/>
<path d="M68.6906 37.8239C68.1662 38.534 67.2888 39.7685 66.7549 40.4895C66.4838 40.8562 65.9943 41.5219 67.6173 41.5219C69.3345 41.5219 76.1625 41.5219 76.1625 41.5219C76.1625 41.5219 77.5397 39.6483 78.6943 38.0813C80.2647 35.9496 78.8301 31.5142 73.2155 31.5142C68.1901 31.5142 51.1039 31.5142 51.1039 31.5142L47.27 36.7232C47.27 36.7232 67.1455 36.7232 68.1656 36.7232C69.2205 36.7232 69.2061 37.1247 68.6906 37.8239ZM62.413 42.8069C60.79 42.8069 61.2796 42.1398 61.5506 41.7732C62.0846 41.0521 62.9763 39.8306 63.5007 39.1205C64.0169 38.4213 64.0305 38.0198 62.9743 38.0198C61.9548 38.0198 53.4178 38.0198 53.4178 38.0198L45.718 48.4844C45.718 48.4844 59.4701 48.4844 64.4955 48.4844C70.6974 48.4844 74.1503 44.2661 75.2147 42.8076C75.2147 42.8069 64.1296 42.8069 62.413 42.8069ZM74.6282 48.4844H85.6438L89.8197 42.8062L78.8056 42.8076C78.8021 42.8069 74.6282 48.4844 74.6282 48.4844ZM103.05 31.5142L98.8244 37.2531H93.9083L98.1314 31.5142H87.1193L79.7519 41.5219H106.695L114.06 31.5142H103.05ZM90.5599 48.4844H101.571L105.749 42.8076H94.7379C94.7338 42.8069 90.5599 48.4844 90.5599 48.4844ZM30 45.0465V46.2523H45.3411L46.2273 45.0465H30ZM47.8763 42.8069H30V44.0114H46.988L47.8763 42.8069ZM30 48.4844H43.6976L44.5797 47.2854H30V48.4844ZM133.834 46.2516H150V45.0458H134.722L133.834 46.2516ZM132.192 48.4844H150V47.2854H133.073L132.192 48.4844ZM136.368 42.8069L135.482 44.0127H150V42.8069H136.368ZM121.945 41.5219L129.311 31.5142H117.648C117.644 31.5142 110.276 41.5219 110.276 41.5219H121.945ZM109.332 42.8069C109.332 42.8069 108.527 43.9069 108.136 44.4368C106.753 46.3049 107.976 48.4844 112.489 48.4844C117.703 48.4844 130.174 48.4844 130.174 48.4844L134.352 42.8076L109.332 42.8069Z" fill="#D50029"/>
</g>
<defs>
<clipPath id="clip0_34552_293872">
<rect x="30" y="26.7585" width="120" height="26.4829" rx="4" fill="white"/>
</clipPath>
</defs>
</svg>
