<svg width="180" height="80" viewBox="0 0 180 80" fill="none" xmlns="http://www.w3.org/2000/svg">
<rect width="180" height="80" rx="8" fill="white"/>
<g clip-path="url(#clip0_34552_293889)">
<path fill-rule="evenodd" clip-rule="evenodd" d="M74.2915 32.0909L74.4346 48.3335L78.0838 52.8414L89.0319 58.6372L102.484 52.0543L105.275 45.3998L104.988 23.8618L94.8277 23.5756L84.2379 25.2929L74.5781 30.874L74.2915 32.0909Z" fill="#301506"/>
<path d="M89.9661 20.3531C83.5891 20.3531 78.0266 21.5877 73.4321 24.0224V43.4871C73.4321 47.5828 74.971 51.0077 77.8817 53.3937C80.5842 55.6105 88.9422 59.2638 89.9664 59.7075C90.9377 59.2848 99.3948 55.575 102.054 53.3937C104.963 51.009 106.503 47.583 106.503 43.4871V24.0224C101.908 21.5874 96.3451 20.3528 89.9655 20.3528L89.9661 20.3531ZM99.4087 24.122C101.31 24.1469 103.178 24.2643 104.983 24.4321V43.4869C104.983 47.1487 103.654 50.1066 101.09 52.2183C98.7999 54.1044 91.8935 57.1987 89.9664 58.0481C88.0135 57.1872 81.0899 54.0539 78.8407 52.219C76.2922 50.1435 74.9507 47.1154 74.9507 43.4877V32.3536C82.2745 25.6371 91.1678 24.0146 99.408 24.1224L99.4087 24.122ZM90.3972 32.9947C88.8282 32.9947 87.5622 33.3454 86.5199 34.0182V52.7658H89.3977V46.7091C89.6849 46.7938 90.1017 46.8729 90.6922 46.8729C93.8844 46.8729 95.7192 43.9953 95.7192 39.7938C95.7192 35.6004 93.8299 32.9947 90.3972 32.9947ZM100.23 32.9947C98.3377 33.0495 96.3585 34.4205 96.3705 36.7447C96.3754 38.275 96.7996 39.4194 99.1714 40.8111C100.437 41.554 100.947 42.0436 100.969 42.9464C100.993 43.9499 100.3 44.555 99.2445 44.551C98.3264 44.5437 97.229 44.0342 96.4941 43.3799V46.0283C97.3951 46.5655 98.5195 46.9207 99.6554 46.9207C102.498 46.9207 103.768 44.9125 103.823 43.0723C103.877 41.3951 103.413 40.1261 101.009 38.7135C99.9362 38.0843 99.0889 37.6707 99.1172 36.6236C99.1454 35.6014 99.994 35.2423 100.809 35.2496C101.814 35.2585 102.786 35.8152 103.386 36.4307V33.9299C102.881 33.5402 101.81 32.9463 100.23 32.9947ZM76.4202 33.2859V42.3289C76.4202 45.3776 77.8623 46.9209 80.7085 46.9209C82.4696 46.9209 83.9446 46.5133 85.0434 45.7663V33.2859H82.1719V44.1289C81.8589 44.3435 81.3946 44.4806 80.8106 44.4806C79.4924 44.4806 79.2954 43.2718 79.2954 42.4563V33.2861L76.4202 33.2859ZM90.4166 35.3115C92.0857 35.3115 92.7775 36.6441 92.7775 39.867C92.7775 43.0116 91.9863 44.5309 90.3309 44.5309C89.9412 44.5309 89.6026 44.4344 89.3968 44.3569V35.5198C89.63 35.4036 90.0261 35.3115 90.4166 35.3115Z" fill="#FAB80A"/>
</g>
<defs>
<clipPath id="clip0_34552_293889">
<rect width="33.7159" height="40" fill="white" transform="translate(73.1421 20)"/>
</clipPath>
</defs>
</svg>
