<svg width="180" height="80" viewBox="0 0 180 80" fill="none" xmlns="http://www.w3.org/2000/svg">
<rect width="180" height="80" rx="8" fill="white"/>
<path d="M68.8595 44.9216L71.4148 42.9106C72.1303 44.1705 73.288 44.886 74.6167 44.886C76.0477 44.886 76.8309 43.9661 76.8309 42.944C76.8309 41.7174 75.3666 41.3441 73.7646 40.8664C71.7892 40.2531 69.5761 39.5043 69.5761 36.6424C69.5761 34.2582 71.6537 32.385 74.4812 32.385C76.8998 32.385 78.2619 33.3049 79.454 34.5315L77.1376 36.3024C76.5243 35.3825 75.6733 34.9059 74.5156 34.9059C73.1869 34.9059 72.5047 35.6214 72.5047 36.5413C72.5047 37.6656 73.9357 38.0745 75.5022 38.5855C77.5131 39.2332 79.7596 40.1187 79.7596 42.9451C79.7596 45.296 77.8864 47.5446 74.6489 47.5446C71.9936 47.578 70.1872 46.4559 68.8584 44.9227L68.8595 44.9216ZM91.5128 37.2579H94.2715V38.3822C94.9192 37.5645 95.9069 37.0534 97.0645 37.0534C99.4487 37.0534 100.88 38.5866 100.88 41.2086V47.3747H98.0522V41.5841C98.0522 40.222 97.4389 39.4377 96.1791 39.4377C95.1236 39.4377 94.2715 40.1531 94.2715 41.8563V47.3747H91.5095L91.5128 37.2579ZM101.527 42.3329C101.527 38.7555 104.149 37.0534 106.432 37.0534C107.761 37.0534 108.783 37.5312 109.466 38.2455V32.5905H112.224V47.3735H109.463V46.2492C108.782 47.0325 107.726 47.578 106.397 47.578C104.25 47.578 101.526 45.8748 101.526 42.3318L101.527 42.3329ZM109.532 42.2996C109.532 40.7997 108.443 39.5743 106.944 39.5743C106.583 39.5663 106.225 39.6313 105.891 39.7654C105.557 39.8995 105.253 40.0999 104.999 40.3546C104.744 40.6093 104.543 40.9129 104.409 41.2472C104.275 41.5815 104.21 41.9395 104.218 42.2996C104.207 42.6605 104.27 43.0199 104.403 43.3557C104.536 43.6914 104.736 43.9964 104.991 44.2517C105.247 44.507 105.552 44.7074 105.887 44.8404C106.223 44.9733 106.583 45.0361 106.944 45.0249C108.443 45.0249 109.532 43.7983 109.532 42.2996ZM112.871 39.9832C112.871 35.7591 116.037 32.3872 120.432 32.3872C122.612 32.3872 124.452 33.1705 125.781 34.4315C126.325 34.9425 126.769 35.5203 127.143 36.1691L124.691 37.6689C123.771 36.0002 122.374 35.1136 120.467 35.1136C117.776 35.1136 115.698 37.3279 115.698 39.9843C115.698 42.7096 117.742 44.8549 120.569 44.8549C122.715 44.8549 124.246 43.6284 124.757 41.7441H120.124V39.0532H127.788V40.1776C127.788 44.1283 124.961 47.5691 120.567 47.5691C115.934 47.5691 112.867 44.0605 112.867 39.9732L112.871 39.9832ZM128.471 37.2579H131.217V38.9266C131.728 37.8711 132.648 37.2579 134.01 37.2579H135.134L134.112 39.9487H133.362C131.898 39.9487 131.251 40.732 131.251 42.604V47.3724H128.458L128.471 37.2579ZM135.863 37.2579H138.622V47.3747H135.863V39.9487H134.841L135.863 37.2579ZM137.259 35.7247C138.179 35.7247 138.928 34.9748 138.928 34.056C138.928 33.1372 138.178 32.3872 137.259 32.3872C136.341 32.3872 135.591 33.1372 135.591 34.056C135.591 34.9748 136.341 35.7247 137.259 35.7247ZM139.304 42.3329C139.304 38.7555 141.926 37.0534 144.209 37.0534C145.538 37.0534 146.559 37.5312 147.242 38.2455V32.5905H150V47.3735H147.242V46.2492C146.561 47.0325 145.504 47.578 144.175 47.578C142.029 47.578 139.305 45.8748 139.305 42.3318L139.304 42.3329ZM147.308 42.2996C147.308 40.7997 146.22 39.5743 144.72 39.5743C144.36 39.5663 144.002 39.6313 143.667 39.7654C143.333 39.8995 143.03 40.0999 142.775 40.3546C142.52 40.6093 142.32 40.9129 142.186 41.2472C142.052 41.5815 141.987 41.9395 141.995 42.2996C141.983 42.6605 142.046 43.0199 142.179 43.3557C142.312 43.6914 142.512 43.9964 142.768 44.2517C143.023 44.507 143.328 44.7074 143.664 44.8404C143.999 44.9733 144.359 45.0361 144.72 45.0249C146.22 45.0249 147.308 43.7983 147.308 42.2996ZM90.8662 42.2996C90.8662 39.3699 88.7553 37.0534 85.6556 37.0534C82.7259 37.0534 80.3762 39.4043 80.3762 42.3329C80.3762 45.2615 82.5559 47.6124 85.7245 47.6124C87.9043 47.6124 89.4719 46.557 90.3574 45.0571L88.1432 43.7283C87.6654 44.6138 86.7811 45.1926 85.7245 45.1926C84.2602 45.1926 83.3403 44.4772 83.0337 43.3528H90.8329V42.2974L90.8662 42.2996ZM83.167 41.073C83.5758 40.1198 84.4958 39.4732 85.6534 39.4732C86.8111 39.4732 87.6977 40.0176 88.0721 41.073H83.167Z" fill="#263746"/>
<path d="M30 34.4004H41.1322V45.5326H30V34.4004Z" fill="white"/>
<path d="M30 34.4004H41.1322V45.5326H30V34.4004Z" fill="#99E1F4"/>
<path d="M41.1318 45.5327H52.2008V56.6016H41.1318V45.5327Z" fill="white"/>
<path d="M41.1318 45.5327H52.2008V56.6016H41.1318V45.5327Z" fill="#99E1F4"/>
<path d="M30 56.6027H41.1322V56.6672H30V56.6027ZM30 45.5327H41.1322V56.6027H30V45.5327Z" fill="#1A82E2"/>
<path d="M41.1318 23.3328H52.2008V34.4017H41.1318V23.3328ZM52.2019 34.4672H63.3341V45.5361H52.2019V34.4672Z" fill="#00B3E3"/>
<path d="M52.2017 45.5326V34.4004H41.1328V45.5326H52.2017Z" fill="#009DD9"/>
<path d="M52.2031 23.3328H63.3354V34.4017H52.2031V23.3328Z" fill="#1A82E2"/>
<path d="M52.2031 34.4006H63.3354V34.4651H52.2031V34.4006Z" fill="#1A82E2"/>
</svg>
