<svg width="180" height="80" viewBox="0 0 180 80" fill="none" xmlns="http://www.w3.org/2000/svg">
<rect width="180" height="80" rx="8" fill="white"/>
<g clip-path="url(#clip0_34552_293809)">
<path d="M47.28 35.56C47.28 37.6 45.6 39.28 43.56 39.28C41.52 39.28 39.84 37.6 39.84 35.56C39.84 33.52 41.52 31.84 43.56 31.84C45.6 31.84 47.28 33.52 47.28 35.56ZM43.56 40.72C41.52 40.72 39.84 42.4 39.84 44.44C39.84 46.48 41.52 48.16 43.56 48.16C45.6 48.16 47.28 46.48 47.28 44.44C47.28 42.4 45.6 40.72 43.56 40.72ZM66 40C66 49.96 57.96 58 48 58C38.04 58 30 49.96 30 40C30 30.04 38.04 22 48 22C57.96 22 66 30.04 66 40ZM61.2 40C61.2 32.68 55.32 26.8 48 26.8C40.68 26.8 34.8 32.68 34.8 40C34.8 47.32 40.68 53.2 48 53.2C55.32 53.2 61.2 47.32 61.2 40ZM52.44 40.72C50.4 40.72 48.72 42.4 48.72 44.44C48.72 46.48 50.4 48.16 52.44 48.16C54.48 48.16 56.16 46.48 56.16 44.44C56.16 42.4 54.48 40.72 52.44 40.72ZM52.44 31.84C50.4 31.84 48.72 33.52 48.72 35.56C48.72 37.6 50.4 39.28 52.44 39.28C54.48 39.28 56.16 37.6 56.16 35.56C56.16 33.52 54.48 31.84 52.44 31.84ZM114.36 29.08C114.48 29.08 114.6 29.2 114.72 29.32V33.16C114.72 33.4 114.48 33.52 114.36 33.52H108C107.76 33.52 107.64 33.28 107.64 33.16V29.44C107.64 29.2 107.88 29.08 108 29.08H114.36ZM114.24 34.48H102C101.88 34.48 101.64 34.6 101.64 34.84L100.08 40.84L99.96 41.2L98.04 34.84C98.04 34.72 97.8 34.48 97.68 34.48H92.88C92.76 34.48 92.52 34.6 92.52 34.84L90.72 40.84L90.6 41.2L90.48 40.84L89.76 37.84L89.04 34.84C89.04 34.72 88.8 34.48 88.68 34.48H79.08V29.32C79.08 29.2 78.84 28.96 78.6 29.08L72.6 31C72.36 31 72.24 31.12 72.24 31.36V34.6H70.68C70.56 34.6 70.32 34.72 70.32 34.96V39.52C70.32 39.64 70.44 39.88 70.68 39.88H72.24V45.52C72.24 49.48 74.4 51.28 78.36 51.28C80.04 51.28 81.6 50.92 82.68 50.32V45.52C82.68 45.28 82.44 45.16 82.32 45.28C81.72 45.52 81.12 45.64 80.64 45.64C79.56 45.64 78.96 45.16 78.96 43.96V39.88H82.44C82.56 39.88 82.8 39.76 82.8 39.52V35.68L87.36 50.8C87.36 50.92 87.6 51.16 87.72 51.16H92.76C92.88 51.16 93.12 51.04 93.12 50.8L95.28 44.08L96.36 47.56L97.32 50.8C97.32 50.92 97.56 51.16 97.68 51.16H102.72C102.84 51.16 103.08 51.04 103.08 50.8L107.64 35.68V50.8C107.64 50.92 107.76 51.16 108 51.16H114.12C114.24 51.16 114.48 51.04 114.48 50.8V34.84C114.48 34.72 114.36 34.48 114.24 34.48ZM122.28 29.08H116.16C116.04 29.08 115.8 29.2 115.8 29.44V50.68C115.8 50.8 115.92 51.04 116.16 51.04H122.28C122.4 51.04 122.64 50.92 122.64 50.68V29.32C122.64 29.2 122.52 29.08 122.28 29.08ZM130.44 29.08H124.08C123.96 29.08 123.72 29.2 123.72 29.44V33.16C123.72 33.28 123.84 33.52 124.08 33.52H130.44C130.56 33.52 130.8 33.4 130.8 33.16V29.32C130.8 29.2 130.68 29.08 130.44 29.08ZM130.32 34.48H124.2C124.08 34.48 123.84 34.6 123.84 34.84V50.56C123.84 50.68 123.96 50.92 124.2 50.92H130.32C130.44 50.92 130.68 50.8 130.68 50.56V34.84C130.68 34.72 130.56 34.48 130.32 34.48ZM149.64 42.64C149.64 47.2 145.8 51.16 140.4 51.16C135.12 51.16 131.28 47.2 131.28 42.64C131.28 38.08 135.12 34.12 140.52 34.12C145.8 34.12 149.64 38.08 149.64 42.64ZM143.16 42.76C143.16 41.08 141.96 39.76 140.52 39.88C138.96 39.88 137.88 41.2 137.88 42.76C137.88 44.32 139.08 45.64 140.52 45.64C142.08 45.64 143.16 44.32 143.16 42.76Z" fill="#F22F46"/>
</g>
<defs>
<clipPath id="clip0_34552_293809">
<rect width="120" height="36" fill="white" transform="translate(30 22)"/>
</clipPath>
</defs>
</svg>
