<svg width="180" height="80" viewBox="0 0 180 80" fill="none" xmlns="http://www.w3.org/2000/svg">
<rect width="180" height="80" rx="8" fill="white"/>
<g clip-path="url(#clip0_34552_293897)">
<path d="M54.9457 28.326L48.2283 24.8043C46.8261 24.0543 45.2609 23.6956 43.6957 23.6956C42.1304 23.6956 40.5652 24.0543 39.163 24.8043L32.4457 28.326C30.9457 29.1086 30 30.6738 30 32.3695V48.4782C30 48.5108 30 48.5434 30 48.576C30.0326 50.0434 30.7826 51.3803 31.9565 52.2282C32.1196 52.326 32.2826 52.4238 32.4457 52.5216L36.1304 54.4456C38.5109 55.6847 41.087 56.3043 43.6957 56.3043C46.3043 56.3043 48.8804 55.6847 51.2609 54.4456L54.9457 52.5216C55.1087 52.4238 55.2717 52.326 55.4348 52.2282C56.6087 51.4129 57.3587 50.0434 57.3913 48.576V32.3695C57.3913 30.6738 56.4457 29.1086 54.9457 28.326ZM49.1413 51.4456C48.5543 51.6412 47.9674 51.8369 47.3478 51.9673C47.25 51.9999 47.1196 52.0325 47.0217 52.0325C46.8913 52.0651 46.7283 52.0977 46.5978 52.1303C46.5 52.1629 46.4022 52.1629 46.2717 52.1956C46.1413 52.2282 46.0109 52.2282 45.913 52.2608C45.7826 52.2608 45.6522 52.2934 45.5543 52.2934C45.4565 52.2934 45.3261 52.326 45.2283 52.326C44.7065 52.3586 44.2174 52.3912 43.6957 52.3912C43.1739 52.3912 42.6848 52.3586 42.163 52.326C42.0652 52.326 41.9348 52.2934 41.837 52.2934C41.7065 52.2934 41.5761 52.2608 41.4783 52.2608C41.25 52.2282 40.9891 52.1956 40.7609 52.1303C40.6304 52.0977 40.5 52.0977 40.3696 52.0651C40.2391 52.0325 40.1087 51.9999 40.0109 51.9673C39.913 51.9347 39.7826 51.9021 39.6522 51.8695C39.5217 51.8369 39.4239 51.8043 39.2935 51.7716C39.163 51.739 39.0652 51.7064 38.9348 51.6738C38.8043 51.6412 38.7065 51.6086 38.5761 51.5434C38.4783 51.5108 38.3804 51.4782 38.2826 51.4456C38.0217 51.3477 37.8587 51.1195 37.8587 50.826C37.8587 50.4673 38.1522 50.1738 38.5109 50.1738C38.5761 50.1738 38.6413 50.1738 38.7391 50.2064C40.3043 50.7934 42 51.0869 43.6957 51.0869C45.3913 51.0869 47.087 50.7934 48.6848 50.239C49.1087 50.076 49.5652 50.4021 49.5652 50.8586C49.5652 51.1195 49.4022 51.3477 49.1413 51.4456ZM55.4348 44.9238C55.2717 44.826 55.1087 44.7282 54.9457 44.6303L48.2283 41.1086C46.8261 40.3586 45.2609 39.9999 43.6957 39.9999C42.1304 39.9999 40.5652 40.3586 39.163 41.1086L32.4457 44.6303C32.2826 44.7282 32.1196 44.826 31.9565 44.9238V32.3695C31.9565 31.3912 32.4783 30.5108 33.3587 30.0543L40.0761 26.5325C41.1848 25.9782 42.4239 25.6521 43.6957 25.6521C44.9674 25.6521 46.2065 25.9782 47.3152 26.5325L54.0326 30.0543C54.8804 30.5108 55.4348 31.3912 55.4348 32.3695V44.9238Z" fill="#F57C00"/>
<path d="M135 39.9999V37.3912C135 34.5217 132.652 32.1738 129.783 32.1738H127.174C124.304 32.1738 121.957 34.5217 121.957 37.3912V39.9999C121.957 42.8695 124.304 45.2173 127.174 45.2173H129.783C132.652 45.2173 135 42.8695 135 39.9999ZM132.391 39.9999C132.391 41.4347 131.217 42.6086 129.783 42.6086H127.174C125.739 42.6086 124.565 41.4347 124.565 39.9999V37.3912C124.565 35.9564 125.739 34.7825 127.174 34.7825H129.783C131.217 34.7825 132.391 35.9564 132.391 37.3912V39.9999Z" fill="black"/>
<path d="M84.4565 45.2173C85.5326 45.2173 86.5435 44.9238 87.3913 44.3695V44.8912C87.3913 45.0869 87.5218 45.2173 87.7174 45.2173H89.6739C89.8696 45.2173 90 45.0869 90 44.8912V39.6738V37.7173V33.1521C90 32.9564 89.8696 32.826 89.6739 32.826H87.7174C87.587 32.826 87.4565 32.9238 87.4239 33.0217C86.5761 32.4673 85.5652 32.1738 84.4565 32.1738H82.5C79.4348 32.1738 76.9565 34.6521 76.9565 37.7173V39.6738C76.9565 42.739 79.4348 45.2173 82.5 45.2173H84.4565ZM79.5652 39.6738V37.7173C79.5652 36.0869 80.8696 34.7825 82.5 34.7825H84.4565C86.087 34.7825 87.3913 36.0869 87.3913 37.7173V39.6738C87.3913 41.3043 86.087 42.6086 84.4565 42.6086H82.5C80.8696 42.6086 79.5652 41.3043 79.5652 39.6738Z" fill="black"/>
<path d="M102.424 33.0217C101.576 32.4673 100.565 32.1738 99.4565 32.1738H97.5C96.4239 32.1738 95.4131 32.4999 94.5326 33.0217C94.5 32.8912 94.3696 32.826 94.2392 32.826H92.2826C92.087 32.826 91.9565 32.9564 91.9565 33.1521V37.7173V38.6956V44.8912C91.9565 45.0869 92.087 45.2173 92.2826 45.2173H94.2392C94.4348 45.2173 94.5652 45.0869 94.5652 44.8912V38.6956V37.7173C94.5652 36.0869 95.8696 34.7825 97.5 34.7825H99.4565C101.087 34.7825 102.391 36.0869 102.391 37.7173V38.6956V44.8912C102.391 45.0869 102.522 45.2173 102.717 45.2173H104.674C104.87 45.2173 105 45.0869 105 44.8912V38.6956V37.7173C105 35.7282 103.957 33.9999 102.424 33.0217Z" fill="black"/>
<path d="M114.457 45.2173C117.522 45.2173 120 42.739 120 39.6738V37.7173C120 34.652 117.522 32.1738 114.457 32.1738H112.5C111.424 32.1738 110.413 32.4673 109.565 33.0216V28.5868C109.565 28.3912 109.435 28.2607 109.239 28.2607H107.283C107.087 28.2607 106.957 28.3912 106.957 28.5868V37.7173V39.6738V44.8912C106.957 45.0868 107.087 45.2173 107.283 45.2173H109.239C109.435 45.2173 109.565 45.0868 109.565 44.8912V44.3694C110.413 44.8912 111.424 45.2173 112.5 45.2173H114.457ZM109.565 39.6738V37.7173C109.565 36.0868 110.87 34.7825 112.5 34.7825H114.457C116.087 34.7825 117.391 36.0868 117.391 37.7173V39.6738C117.391 41.3042 116.087 42.6086 114.457 42.6086H112.5C110.87 42.6086 109.565 41.3042 109.565 39.6738Z" fill="black"/>
<path d="M147.717 36.0869C148.696 35.2391 149.315 34.913 149.739 34.8152C149.902 34.7825 150 34.6521 150 34.4891V32.4999C150 32.3043 149.837 32.1412 149.641 32.1739C147.554 32.3695 145.565 34.3586 143.478 36.7065C141.391 34.3912 139.402 32.3695 137.315 32.1739C137.12 32.1412 136.957 32.3043 136.957 32.4999V34.4891C136.957 34.6521 137.054 34.7825 137.217 34.8152C137.609 34.913 138.261 35.2065 139.239 36.0869C140.054 36.8043 140.902 37.7499 141.75 38.6956C140.902 39.6739 140.054 40.5869 139.239 41.3043C138.261 42.1521 137.641 42.4782 137.217 42.576C137.054 42.6086 136.957 42.7391 136.957 42.9021V44.8912C136.957 45.0869 137.12 45.2499 137.315 45.2173C139.402 45.0217 141.391 43.0325 143.478 40.6847C145.565 42.9999 147.554 45.0217 149.641 45.2173C149.837 45.2499 150 45.0869 150 44.8912V42.9021C150 42.7391 149.902 42.6086 149.739 42.576C149.348 42.4782 148.696 42.1847 147.717 41.3043C146.902 40.5869 146.054 39.6412 145.207 38.6956C146.054 37.7173 146.935 36.8043 147.717 36.0869Z" fill="black"/>
<path d="M74.6738 32.1738H72.7173C72.5217 32.1738 72.3912 32.3043 72.3912 32.4999V40.6847C72.3912 43.3586 71.2825 45.9673 69.3586 47.7608C68.3477 48.7064 67.7282 48.9999 67.4021 49.0977C67.2717 49.1304 67.1738 49.2608 67.1738 49.4238V51.413C67.1738 51.6086 67.3369 51.7717 67.5325 51.739C68.6086 51.6086 69.8151 50.9238 71.1521 49.6847C73.5977 47.3695 74.9999 44.1086 74.9999 40.6847V32.4999C74.9999 32.3043 74.8695 32.1738 74.6738 32.1738Z" fill="black"/>
<path d="M76.9565 48.9345H77.5109V51.0215H78.0326V48.9345H78.587V48.478H76.9565V48.9345Z" fill="black"/>
<path d="M79.8258 49.065C79.6954 49.065 79.5976 49.0976 79.4997 49.1302C79.4019 49.1628 79.3367 49.2606 79.2715 49.3585V49.0976V48.478H78.8149V51.0215H79.2715V49.978C79.2715 49.8476 79.3041 49.7498 79.3367 49.6845C79.4019 49.5867 79.5323 49.5215 79.6954 49.5215C79.8584 49.5215 79.9562 49.5867 80.0215 49.6845C80.0867 49.7824 80.1193 49.8802 80.1193 50.0432V51.0541H80.5758V50.0106C80.5758 49.7172 80.5106 49.5215 80.4128 49.3585C80.3149 49.1628 80.1193 49.065 79.8258 49.065Z" fill="black"/>
<path d="M81.8805 49.0652C81.587 49.0652 81.3588 49.163 81.1631 49.3587C80.9675 49.5543 80.8696 49.7826 80.8696 50.0761C80.8696 50.3369 80.9675 50.5978 81.1631 50.7934C81.3588 50.9891 81.587 51.0869 81.8805 51.0869C82.0762 51.0869 82.2718 51.0217 82.4348 50.9239C82.5979 50.8261 82.7283 50.663 82.8262 50.4347H82.3696C82.2718 50.5978 82.1088 50.6956 81.9131 50.6956C81.7827 50.6956 81.6522 50.663 81.5544 50.5652C81.4566 50.4674 81.3914 50.3695 81.3914 50.2065H82.924C82.9566 49.8478 82.8588 49.5869 82.6305 49.3261C82.4022 49.163 82.174 49.0652 81.8805 49.0652ZM81.3588 49.8804C81.3588 49.7826 81.424 49.6848 81.5218 49.5869C81.6196 49.4891 81.7501 49.4565 81.9131 49.4565C82.0761 49.4565 82.174 49.4891 82.3044 49.5869C82.4022 49.6848 82.4675 49.7826 82.4675 49.8804H81.3588Z" fill="black"/>
<path d="M85.1412 49.0652C84.8478 49.0652 84.6195 49.163 84.4238 49.3587C84.2282 49.5543 84.1304 49.7826 84.1304 50.0761C84.1304 50.3369 84.2282 50.5978 84.4238 50.7934C84.6195 50.9891 84.8478 51.0869 85.1412 51.0869C85.3369 51.0869 85.5325 51.0217 85.6956 50.9239C85.8586 50.8261 85.9891 50.663 86.0869 50.4347H85.6304C85.5325 50.5978 85.3695 50.6956 85.1738 50.6956C85.0434 50.6956 84.913 50.663 84.8152 50.5652C84.7173 50.4674 84.6521 50.3695 84.6521 50.2065H86.1847C86.2173 49.8478 86.1195 49.5869 85.8912 49.3261C85.663 49.163 85.4021 49.0652 85.1412 49.0652ZM84.5869 49.8804C84.5869 49.7826 84.6521 49.6848 84.7499 49.5869C84.8478 49.4891 84.9782 49.4565 85.1412 49.4565C85.3043 49.4565 85.4021 49.4891 85.5325 49.5869C85.6304 49.6848 85.6956 49.7826 85.6956 49.8804H84.5869Z" fill="black"/>
<path d="M87.9455 49.4237C87.9129 49.3259 87.815 49.2607 87.7172 49.1955C87.6194 49.1303 87.489 49.0977 87.3259 49.0977C87.065 49.0977 86.8368 49.1955 86.6411 49.3911C86.4455 49.5868 86.3477 49.815 86.3477 50.1085C86.3477 50.402 86.4455 50.6303 86.6085 50.8259C86.7716 51.0216 87.0324 51.1194 87.2933 51.1194C87.4237 51.1194 87.5542 51.0868 87.6846 51.0216C87.815 50.9564 87.8803 50.8911 87.9455 50.7607V51.0216H88.402V49.1303H87.9455V49.4237ZM87.8803 50.3694C87.7824 50.565 87.6194 50.6629 87.3911 50.6629C87.2607 50.6629 87.1629 50.6303 87.065 50.565C86.9672 50.4998 86.902 50.4346 86.8694 50.3368C86.8368 50.239 86.8042 50.1737 86.8042 50.0759C86.8042 49.9129 86.8694 49.7824 86.9672 49.652C87.065 49.5216 87.1955 49.489 87.3911 49.489C87.5216 49.489 87.6194 49.5216 87.7172 49.5868C87.815 49.652 87.8803 49.7172 87.9129 49.815C87.9455 49.9129 87.9781 49.9781 87.9781 50.0759C87.9455 50.2064 87.9455 50.3042 87.8803 50.3694Z" fill="black"/>
<path d="M90.0328 50.1087C90.0002 50.0761 89.9349 50.0434 89.8697 50.0108C89.8045 49.9782 89.7393 49.9456 89.7067 49.9456C89.6741 49.9456 89.6088 49.913 89.511 49.8804C89.3154 49.8152 89.1849 49.75 89.1849 49.6521C89.1849 49.5869 89.2175 49.5543 89.2501 49.5217C89.2828 49.4891 89.348 49.4565 89.4132 49.4565C89.5762 49.4565 89.6415 49.5217 89.6415 49.6521H90.098C90.098 49.5543 90.0654 49.4565 90.0001 49.3587C89.9675 49.2934 89.9023 49.2282 89.8371 49.1956C89.7719 49.163 89.7067 49.1304 89.6415 49.0978C89.5762 49.0652 89.511 49.0652 89.4458 49.0652C89.2501 49.0652 89.0871 49.1304 88.9567 49.2282C88.8262 49.3261 88.761 49.4891 88.761 49.6521C88.761 49.8804 88.9241 50.0434 89.2175 50.1413C89.4132 50.2065 89.5436 50.2717 89.6088 50.3043C89.6741 50.3369 89.7067 50.4021 89.7067 50.4674C89.7067 50.5326 89.6741 50.5978 89.6415 50.6304C89.5762 50.663 89.5436 50.6956 89.4458 50.6956C89.3806 50.6956 89.3154 50.663 89.2501 50.6304C89.1849 50.5978 89.1523 50.5326 89.1523 50.4347H88.6958C88.6958 50.5326 88.7284 50.6304 88.7936 50.7282C88.8588 50.8261 88.8915 50.8587 88.9893 50.9239C89.0545 50.9565 89.1523 50.9891 89.2175 51.0217C89.2828 51.0543 89.3806 51.0543 89.4458 51.0543C89.6415 51.0543 89.8371 50.9891 89.9675 50.8913C90.098 50.7608 90.1632 50.6304 90.1632 50.4347C90.1632 50.3695 90.1632 50.2717 90.1306 50.2391C90.098 50.1739 90.0654 50.1413 90.0328 50.1087Z" fill="black"/>
<path d="M90.978 49.1304H90.5215V51.0217H90.978V49.1304Z" fill="black"/>
<path d="M90.978 48.478H90.5215V48.8693H90.978V48.478Z" fill="black"/>
<path d="M92.2824 49.0652C91.9889 49.0652 91.7606 49.163 91.565 49.3587C91.3693 49.5543 91.2715 49.7826 91.2715 50.0761C91.2715 50.3369 91.3693 50.5978 91.565 50.7934C91.7606 50.9891 91.9889 51.0869 92.2824 51.0869C92.478 51.0869 92.6737 51.0217 92.8367 50.9239C92.9997 50.8261 93.1302 50.663 93.228 50.4347H92.7715C92.6737 50.5978 92.5106 50.6956 92.315 50.6956C92.1845 50.6956 92.0541 50.663 91.9563 50.5652C91.8584 50.4674 91.7932 50.3695 91.7932 50.2065H93.3258C93.3584 49.8478 93.2606 49.5869 93.0324 49.3261C92.8041 49.163 92.5758 49.0652 92.2824 49.0652ZM91.7606 49.8804C91.7606 49.7826 91.8258 49.6848 91.9237 49.5869C92.0215 49.4891 92.1519 49.4565 92.315 49.4565C92.478 49.4565 92.5758 49.4891 92.7063 49.5869C92.8041 49.6848 92.8693 49.7826 92.8693 49.8804H91.7606Z" fill="black"/>
<path d="M94.7935 50.1087C94.7609 50.0761 94.6957 50.0434 94.6305 50.0108C94.5652 49.9782 94.5 49.9456 94.4674 49.9456C94.4348 49.9456 94.3696 49.913 94.2718 49.8804C94.0761 49.8152 93.9457 49.75 93.9457 49.6521C93.9457 49.5869 93.9783 49.5543 94.0109 49.5217C94.0435 49.4891 94.1087 49.4565 94.1739 49.4565C94.337 49.4565 94.4022 49.5217 94.4022 49.6521H94.8587C94.8587 49.5543 94.8261 49.4565 94.7609 49.3587C94.7283 49.2934 94.6631 49.2282 94.5978 49.1956C94.5326 49.163 94.4674 49.1304 94.4022 49.0978C94.337 49.0652 94.2718 49.0652 94.2065 49.0652C94.0109 49.0652 93.8478 49.1304 93.7174 49.2282C93.587 49.3261 93.5218 49.4891 93.5218 49.6521C93.5218 49.8804 93.6848 50.0434 93.9783 50.1413C94.1739 50.2065 94.3044 50.2717 94.3696 50.3043C94.4348 50.3369 94.4674 50.4021 94.4674 50.4674C94.4674 50.5326 94.4348 50.5978 94.4022 50.6304C94.337 50.663 94.3044 50.6956 94.2065 50.6956C94.1413 50.6956 94.0761 50.663 94.0109 50.6304C93.9457 50.5978 93.9131 50.5326 93.9131 50.4347H93.4565C93.4565 50.5326 93.4891 50.6304 93.5544 50.7282C93.587 50.8261 93.6522 50.8587 93.75 50.9239C93.8152 50.9565 93.9131 50.9891 93.9783 51.0217C94.0435 51.0543 94.1413 51.0543 94.2065 51.0543C94.4022 51.0543 94.5978 50.9891 94.7283 50.8913C94.8587 50.7608 94.9239 50.6304 94.9239 50.4347C94.9239 50.3695 94.9239 50.2717 94.8913 50.2391C94.8587 50.1739 94.8261 50.1413 94.7935 50.1087Z" fill="black"/>
<path d="M95.8695 48.478H95.413V49.1302H95.0869V49.4889H95.413V51.0215H95.8695V49.4889H96.163V49.1302H95.8695V48.478Z" fill="black"/>
<path d="M99.228 50.4673L98.8693 49.1956H98.478L98.1193 50.4673L97.7606 49.1304H97.2715L97.891 51.0217H98.315L98.6737 49.7499L99.065 51.0217H99.4889L100.076 49.1304H99.6193L99.228 50.4673Z" fill="black"/>
<path d="M101.739 49.4237C101.706 49.3259 101.609 49.2607 101.511 49.1955C101.413 49.1303 101.282 49.0977 101.119 49.0977C100.859 49.0977 100.63 49.1955 100.435 49.3911C100.239 49.5868 100.141 49.815 100.141 50.1085C100.141 50.402 100.239 50.6303 100.402 50.8259C100.565 51.0216 100.826 51.1194 101.087 51.1194C101.217 51.1194 101.348 51.0868 101.478 51.0216C101.609 50.9564 101.674 50.8911 101.739 50.7607V51.0216H102.195V49.1303H101.739V49.4237ZM101.674 50.3694C101.576 50.565 101.413 50.6629 101.185 50.6629C101.054 50.6629 100.956 50.6303 100.859 50.565C100.761 50.4998 100.695 50.4346 100.663 50.3368C100.63 50.239 100.598 50.1737 100.598 50.0759C100.598 49.9129 100.663 49.7824 100.761 49.652C100.859 49.5216 100.989 49.489 101.185 49.489C101.315 49.489 101.413 49.5216 101.511 49.5868C101.609 49.652 101.674 49.7172 101.706 49.815C101.739 49.9129 101.772 49.9781 101.772 50.0759C101.739 50.2064 101.706 50.3042 101.674 50.3694Z" fill="black"/>
<path d="M103.337 50.4021L102.88 49.1304H102.391L103.109 50.9565L102.782 51.7065H103.272L104.25 49.1304H103.793L103.337 50.4021Z" fill="black"/>
<path d="M106.109 48.478H105.652V49.1302H105.326V49.4889H105.652V51.0215H106.109V49.4889H106.435V49.1302H106.109V48.478Z" fill="black"/>
<path d="M107.511 49.0652C107.185 49.0652 106.957 49.163 106.761 49.3587C106.565 49.5543 106.5 49.7826 106.5 50.0434C106.5 50.3043 106.598 50.5326 106.761 50.7282C106.957 50.9239 107.185 51.0217 107.511 51.0217C107.837 51.0217 108.065 50.9239 108.261 50.7282C108.457 50.5326 108.522 50.3043 108.522 50.0434C108.522 49.7826 108.424 49.5543 108.261 49.3587C108.098 49.1956 107.837 49.0652 107.511 49.0652ZM107.935 50.5C107.837 50.5978 107.707 50.663 107.543 50.663C107.38 50.663 107.25 50.5978 107.152 50.5C107.054 50.4021 106.989 50.2391 106.989 50.0761C106.989 49.913 107.054 49.7826 107.152 49.6521C107.25 49.5543 107.38 49.4891 107.543 49.4891C107.707 49.4891 107.837 49.5543 107.935 49.6521C108.033 49.75 108.098 49.913 108.098 50.0761C108.098 50.2391 108.033 50.3695 107.935 50.5Z" fill="black"/>
<path d="M111.652 49.3259C111.554 49.2606 111.457 49.1954 111.359 49.1302C111.261 49.0976 111.13 49.065 111.033 49.065C110.935 49.065 110.804 49.0976 110.707 49.1302C110.576 49.1628 110.478 49.2606 110.413 49.3585V49.1302V48.478H109.957V51.0215H110.38V50.7606C110.446 50.8585 110.511 50.9237 110.641 50.9889C110.739 51.0541 110.87 51.0867 111.033 51.0867C111.294 51.0867 111.522 50.9889 111.717 50.8259C111.913 50.6302 112.011 50.4019 112.011 50.0759C112.011 49.9128 111.978 49.7824 111.913 49.6519C111.815 49.5215 111.75 49.3911 111.652 49.3259ZM111.489 50.0759C111.489 50.2389 111.424 50.3693 111.326 50.4998C111.228 50.6302 111.065 50.6628 110.902 50.6628C110.739 50.6628 110.609 50.5976 110.511 50.4998C110.413 50.4019 110.348 50.2389 110.348 50.0759C110.348 49.9128 110.413 49.7824 110.511 49.6519C110.609 49.5215 110.739 49.4889 110.935 49.4889C111.098 49.4889 111.228 49.5541 111.326 49.6519C111.457 49.7824 111.489 49.9128 111.489 50.0759Z" fill="black"/>
<path d="M113.609 50.1738C113.609 50.4999 113.478 50.663 113.185 50.663C113.022 50.663 112.924 50.6304 112.859 50.5325C112.793 50.4347 112.761 50.3369 112.761 50.1738V49.1304H112.304V50.2717C112.304 50.3369 112.304 50.4021 112.304 50.4999C112.304 50.5652 112.337 50.6304 112.369 50.7282C112.402 50.7934 112.435 50.8586 112.5 50.9238C112.565 50.9891 112.63 51.0217 112.728 51.0543C112.826 51.0869 112.924 51.1195 113.054 51.1195C113.348 51.1195 113.543 51.0217 113.641 50.7934V51.0543H114.065V49.1304H113.609V50.1738Z" fill="black"/>
<path d="M115.239 50.4021L114.75 49.1304H114.293L115.011 50.9565L114.685 51.7065H115.174L116.152 49.1304H115.696L115.239 50.4021Z" fill="black"/>
<path d="M117.522 51.0217C117.522 51.0869 117.522 51.1195 117.522 51.1521C117.522 51.1847 117.522 51.2173 117.489 51.2499C117.489 51.2825 117.456 51.3152 117.424 51.3478C117.391 51.3804 117.358 51.3804 117.293 51.3804H117.228V51.7391H117.358C117.489 51.7391 117.619 51.7065 117.685 51.6739C117.782 51.6412 117.848 51.576 117.88 51.5108C117.913 51.4456 117.945 51.3478 117.945 51.2825C117.945 51.2173 117.978 51.1195 117.978 50.9891V49.1304H117.522V51.0217Z" fill="black"/>
<path d="M117.978 48.478H117.521V48.8693H117.978V48.478Z" fill="black"/>
<path d="M119.935 49.4237C119.902 49.3259 119.804 49.2607 119.706 49.1955C119.609 49.1303 119.478 49.0977 119.315 49.0977C119.054 49.0977 118.826 49.1955 118.63 49.3911C118.435 49.5868 118.337 49.815 118.337 50.1085C118.337 50.402 118.435 50.6303 118.598 50.8259C118.761 51.0216 119.022 51.1194 119.283 51.1194C119.413 51.1194 119.543 51.0868 119.674 51.0216C119.804 50.9564 119.87 50.8911 119.935 50.7607V51.0216H120.391V49.1303H119.935V49.4237ZM119.87 50.3694C119.772 50.565 119.609 50.6629 119.38 50.6629C119.25 50.6629 119.152 50.6303 119.054 50.565C118.956 50.4998 118.891 50.4346 118.859 50.3368C118.826 50.239 118.793 50.1737 118.793 50.0759C118.793 49.9129 118.859 49.7824 118.956 49.652C119.054 49.5216 119.185 49.489 119.38 49.489C119.511 49.489 119.609 49.5216 119.706 49.5868C119.804 49.652 119.87 49.7172 119.902 49.815C119.935 49.9129 119.967 49.9781 119.967 50.0759C119.935 50.2064 119.935 50.3042 119.87 50.3694Z" fill="black"/>
<path d="M122.674 49.4239C122.609 49.3261 122.511 49.2282 122.38 49.163C122.25 49.0978 122.119 49.0652 121.956 49.0652C121.663 49.0652 121.435 49.163 121.272 49.3913V49.1304H120.848V51.6739H121.304V51.0217V50.7608C121.369 50.8261 121.435 50.9239 121.532 50.9891C121.63 51.0543 121.761 51.0869 121.956 51.0869C122.217 51.0869 122.445 50.9891 122.641 50.7934C122.804 50.5978 122.902 50.3695 122.902 50.1087C122.902 49.9782 122.869 49.8804 122.837 49.75C122.804 49.6195 122.739 49.5217 122.674 49.4239ZM122.445 50.0761C122.445 50.2391 122.38 50.3695 122.282 50.5C122.185 50.6304 122.022 50.663 121.859 50.663C121.695 50.663 121.565 50.5978 121.435 50.5C121.337 50.4021 121.272 50.2391 121.272 50.0761C121.272 49.913 121.337 49.7826 121.435 49.6521C121.532 49.5217 121.695 49.4891 121.859 49.4891C122.022 49.4891 122.185 49.5543 122.282 49.6521C122.38 49.75 122.445 49.9456 122.445 50.0761Z" fill="black"/>
<path d="M124.728 49.4237C124.696 49.3259 124.598 49.2607 124.5 49.1955C124.402 49.1303 124.272 49.0977 124.109 49.0977C123.848 49.0977 123.619 49.1955 123.424 49.3911C123.228 49.5868 123.13 49.815 123.13 50.1085C123.13 50.402 123.228 50.6303 123.391 50.8259C123.554 51.0216 123.815 51.1194 124.076 51.1194C124.206 51.1194 124.337 51.0868 124.467 51.0216C124.598 50.9564 124.663 50.8911 124.728 50.7607V51.0216H125.185V49.1303H124.728V49.4237ZM124.663 50.3694C124.565 50.565 124.402 50.6629 124.174 50.6629C124.043 50.6629 123.946 50.6303 123.848 50.565C123.75 50.4998 123.685 50.4346 123.652 50.3368C123.62 50.239 123.587 50.1737 123.587 50.0759C123.587 49.9129 123.652 49.7824 123.75 49.652C123.848 49.5216 123.978 49.489 124.174 49.489C124.304 49.489 124.402 49.5216 124.5 49.5868C124.598 49.652 124.663 49.7172 124.696 49.815C124.728 49.9129 124.761 49.9781 124.761 50.0759C124.728 50.2064 124.696 50.3042 124.663 50.3694Z" fill="black"/>
<path d="M127.304 49.4565C127.271 49.3913 127.239 49.3261 127.174 49.2608C127.108 49.1956 127.043 49.163 126.945 49.1304C126.848 49.0978 126.75 49.0652 126.619 49.0652C126.358 49.0652 126.163 49.163 126.032 49.3913C126.032 49.3261 126.032 49.2608 126.032 49.1304H125.608V51.0217H126.065V49.9782C126.065 49.8478 126.098 49.7174 126.163 49.6195C126.228 49.5217 126.326 49.4891 126.489 49.4891C126.75 49.4891 126.913 49.6521 126.913 49.9782V51.0217H127.369V49.8804C127.369 49.8152 127.369 49.75 127.369 49.6521C127.369 49.6195 127.337 49.5217 127.304 49.4565Z" fill="black"/>
<path d="M128.707 49.0652C128.413 49.0652 128.185 49.163 127.989 49.3587C127.794 49.5543 127.696 49.7826 127.696 50.0761C127.696 50.3369 127.794 50.5978 127.989 50.7934C128.185 50.9891 128.413 51.0869 128.707 51.0869C128.902 51.0869 129.098 51.0217 129.261 50.9239C129.424 50.8261 129.554 50.663 129.652 50.4347H129.196C129.098 50.5978 128.935 50.6956 128.739 50.6956C128.609 50.6956 128.478 50.663 128.381 50.5652C128.283 50.4674 128.218 50.3695 128.218 50.2065H129.75C129.783 49.8478 129.685 49.5869 129.457 49.3261C129.228 49.163 129 49.0652 128.707 49.0652ZM128.152 49.8804C128.152 49.7826 128.218 49.6848 128.315 49.5869C128.413 49.4891 128.544 49.4565 128.707 49.4565C128.87 49.4565 128.968 49.4891 129.098 49.5869C129.196 49.6848 129.261 49.7826 129.261 49.8804H128.152Z" fill="black"/>
<path d="M131.217 50.1087C131.185 50.0761 131.12 50.0434 131.054 50.0108C130.989 49.9782 130.924 49.9456 130.891 49.9456C130.859 49.9456 130.793 49.913 130.696 49.8804C130.5 49.8152 130.37 49.75 130.37 49.6521C130.37 49.5869 130.402 49.5543 130.435 49.5217C130.467 49.4891 130.533 49.4565 130.598 49.4565C130.761 49.4565 130.826 49.5217 130.826 49.6521H131.283C131.283 49.5543 131.25 49.4565 131.185 49.3587C131.152 49.2934 131.087 49.2282 131.022 49.1956C130.956 49.163 130.891 49.1304 130.826 49.0978C130.761 49.0652 130.696 49.0652 130.63 49.0652C130.435 49.0652 130.272 49.1304 130.141 49.2282C130.011 49.3261 129.946 49.4891 129.946 49.6521C129.946 49.8804 130.109 50.0434 130.402 50.1413C130.598 50.2065 130.728 50.2717 130.793 50.3043C130.859 50.3369 130.891 50.4021 130.891 50.4674C130.891 50.5326 130.859 50.5978 130.826 50.6304C130.761 50.663 130.728 50.6956 130.63 50.6956C130.565 50.6956 130.5 50.663 130.435 50.6304C130.37 50.5978 130.337 50.5326 130.337 50.4347H129.88C129.88 50.5326 129.913 50.6304 129.978 50.7282C130.011 50.8261 130.076 50.8587 130.174 50.9239C130.239 50.9565 130.337 50.9891 130.402 51.0217C130.467 51.0543 130.565 51.0543 130.63 51.0543C130.826 51.0543 131.022 50.9891 131.152 50.8913C131.283 50.7608 131.348 50.6304 131.348 50.4347C131.348 50.3695 131.348 50.2717 131.315 50.2391C131.283 50.1739 131.25 50.1413 131.217 50.1087Z" fill="black"/>
<path d="M132.554 49.0652C132.261 49.0652 132.033 49.163 131.837 49.3587C131.641 49.5543 131.543 49.7826 131.543 50.0761C131.543 50.3369 131.641 50.5978 131.837 50.7934C132.033 50.9891 132.261 51.0869 132.554 51.0869C132.75 51.0869 132.946 51.0217 133.109 50.9239C133.272 50.8261 133.402 50.663 133.5 50.4347H133.043C132.946 50.5978 132.783 50.6956 132.587 50.6956C132.457 50.6956 132.326 50.663 132.228 50.5652C132.13 50.4674 132.065 50.3695 132.065 50.2065H133.598C133.63 49.8478 133.533 49.5869 133.304 49.3261C133.076 49.163 132.848 49.0652 132.554 49.0652ZM132.033 49.8804C132.033 49.7826 132.098 49.6848 132.196 49.5869C132.293 49.4891 132.424 49.4565 132.587 49.4565C132.75 49.4565 132.848 49.4891 132.978 49.5869C133.076 49.6848 133.141 49.7826 133.141 49.8804H132.033Z" fill="black"/>
<path d="M136.761 49.4239C136.695 49.3261 136.598 49.2282 136.467 49.163C136.337 49.0978 136.206 49.0652 136.043 49.0652C135.75 49.0652 135.522 49.163 135.358 49.3913V49.1304H134.935V51.6739H135.391V51.0217V50.7608C135.456 50.8261 135.522 50.9239 135.619 50.9891C135.717 51.0543 135.848 51.0869 136.043 51.0869C136.304 51.0869 136.532 50.9891 136.728 50.7934C136.891 50.5978 136.989 50.3695 136.989 50.1087C136.989 49.9782 136.956 49.8804 136.924 49.75C136.891 49.6195 136.826 49.5217 136.761 49.4239ZM136.5 50.0761C136.5 50.2391 136.435 50.3695 136.337 50.5C136.239 50.6304 136.076 50.663 135.913 50.663C135.75 50.663 135.619 50.5978 135.489 50.5C135.391 50.4021 135.326 50.2391 135.326 50.0761C135.326 49.913 135.391 49.7826 135.489 49.6521C135.587 49.5217 135.75 49.4891 135.913 49.4891C136.108 49.4891 136.239 49.5543 136.337 49.6521C136.467 49.7826 136.5 49.9456 136.5 50.0761Z" fill="black"/>
<path d="M137.739 49.3913V49.1304H137.315V51.0217H137.771V50.0108C137.771 49.6847 137.935 49.5217 138.261 49.5217H138.293V49.0652C138.032 49.0652 137.837 49.1956 137.739 49.3913Z" fill="black"/>
<path d="M139.337 49.0652C139.011 49.0652 138.783 49.163 138.587 49.3587C138.391 49.5543 138.326 49.7826 138.326 50.0434C138.326 50.3043 138.424 50.5326 138.587 50.7282C138.783 50.9239 139.011 51.0217 139.337 51.0217C139.663 51.0217 139.891 50.9239 140.087 50.7282C140.283 50.5326 140.348 50.3043 140.348 50.0434C140.348 49.7826 140.25 49.5543 140.087 49.3587C139.891 49.1956 139.663 49.0652 139.337 49.0652ZM139.761 50.5C139.663 50.5978 139.533 50.663 139.37 50.663C139.207 50.663 139.076 50.5978 138.978 50.5C138.881 50.4021 138.815 50.2391 138.815 50.0761C138.815 49.913 138.881 49.7826 138.978 49.6521C139.076 49.5543 139.207 49.4891 139.37 49.4891C139.533 49.4891 139.663 49.5543 139.761 49.6521C139.859 49.75 139.924 49.913 139.924 50.0761C139.924 50.2391 139.859 50.3695 139.761 50.5Z" fill="black"/>
<path d="M142.206 49.0976V49.3585C142.174 49.2932 142.076 49.228 141.978 49.1628C141.88 49.0976 141.75 49.065 141.587 49.065C141.326 49.065 141.098 49.1628 140.902 49.3585C140.706 49.5541 140.608 49.7824 140.608 50.0759C140.608 50.3693 140.706 50.5976 140.869 50.7932C141.032 50.9889 141.293 51.0867 141.554 51.0867C141.848 51.0867 142.076 50.9889 142.206 50.7606V51.0215H142.63V48.478H142.174V49.0976H142.206ZM142.076 50.4998C141.945 50.6302 141.815 50.6628 141.652 50.6628C141.489 50.6628 141.358 50.5976 141.228 50.4998C141.13 50.4019 141.065 50.2389 141.065 50.0759C141.065 49.9128 141.13 49.7824 141.228 49.6845C141.326 49.5541 141.489 49.5215 141.652 49.5215C141.815 49.5215 141.945 49.5867 142.076 49.6845C142.174 49.7824 142.239 49.9128 142.239 50.0759C142.239 50.2389 142.174 50.3693 142.076 50.4998Z" fill="black"/>
<path d="M144.391 50.1738C144.391 50.4999 144.261 50.663 143.967 50.663C143.804 50.663 143.706 50.6304 143.641 50.5325C143.576 50.4347 143.543 50.3369 143.543 50.1738V49.1304H143.087V50.2717C143.087 50.3369 143.087 50.4021 143.087 50.4999C143.087 50.5652 143.12 50.6304 143.152 50.7282C143.185 50.7934 143.217 50.8586 143.283 50.9238C143.348 50.9891 143.413 51.0217 143.511 51.0543C143.609 51.0869 143.706 51.1195 143.837 51.1195C144.13 51.1195 144.326 51.0217 144.424 50.7934V51.0543H144.848V49.1304H144.391V50.1738Z" fill="black"/>
<path d="M146.217 49.489C146.348 49.489 146.446 49.5216 146.544 49.5868C146.641 49.652 146.707 49.7172 146.739 49.8477H147.196C147.13 49.6194 147.033 49.4237 146.837 49.2933C146.641 49.1629 146.446 49.0977 146.217 49.0977C145.924 49.0977 145.696 49.1955 145.5 49.3911C145.304 49.5868 145.207 49.815 145.207 50.1085C145.207 50.402 145.304 50.6303 145.5 50.8259C145.696 51.0216 145.924 51.1194 146.217 51.1194C146.446 51.1194 146.674 51.0542 146.837 50.8911C147 50.7607 147.13 50.565 147.196 50.3694H146.739C146.707 50.4672 146.641 50.5324 146.544 50.5977C146.446 50.6629 146.348 50.6955 146.217 50.6955C146.054 50.6955 145.924 50.6303 145.826 50.5324C145.728 50.4346 145.663 50.2716 145.663 50.1085C145.663 49.9455 145.728 49.7824 145.826 49.6846C145.924 49.5542 146.054 49.489 146.217 49.489Z" fill="black"/>
<path d="M148.109 48.478H147.652V49.1302H147.326V49.4889H147.652V51.0215H148.109V49.4889H148.402V49.1302H148.109V48.478Z" fill="black"/>
<path d="M149.87 50.1087C149.837 50.0761 149.772 50.0434 149.707 50.0108C149.641 49.9782 149.576 49.9456 149.544 49.9456C149.511 49.9456 149.446 49.913 149.348 49.8804C149.152 49.8152 149.022 49.75 149.022 49.6521C149.022 49.5869 149.054 49.5543 149.087 49.5217C149.12 49.4891 149.185 49.4565 149.25 49.4565C149.413 49.4565 149.478 49.5217 149.478 49.6521H149.935C149.935 49.5543 149.902 49.4565 149.837 49.3587C149.804 49.2934 149.739 49.2282 149.674 49.1956C149.609 49.163 149.544 49.1304 149.478 49.0978C149.413 49.0652 149.348 49.0652 149.283 49.0652C149.087 49.0652 148.924 49.1304 148.794 49.2282C148.663 49.3261 148.598 49.4891 148.598 49.6521C148.598 49.8804 148.761 50.0434 149.054 50.1413C149.25 50.2065 149.381 50.2717 149.446 50.3043C149.511 50.3369 149.544 50.4021 149.544 50.4674C149.544 50.5326 149.511 50.5978 149.478 50.6304C149.413 50.663 149.381 50.6956 149.283 50.6956C149.217 50.6956 149.152 50.663 149.087 50.6304C149.022 50.5978 148.989 50.5326 148.989 50.4347H148.533C148.533 50.5326 148.565 50.6304 148.631 50.7282C148.663 50.8261 148.728 50.8587 148.826 50.9239C148.891 50.9565 148.989 50.9891 149.054 51.0217C149.12 51.0543 149.217 51.0543 149.283 51.0543C149.478 51.0543 149.674 50.9891 149.804 50.8913C149.935 50.7608 150 50.6304 150 50.4347C150 50.3695 150 50.2717 149.967 50.2391C149.935 50.1739 149.902 50.1413 149.87 50.1087Z" fill="black"/>
</g>
<defs>
<clipPath id="clip0_34552_293897">
<rect width="120" height="32.6087" fill="white" transform="translate(30 23.6956)"/>
</clipPath>
</defs>
</svg>
