<svg width="180" height="80" viewBox="0 0 180 80" fill="none" xmlns="http://www.w3.org/2000/svg">
<rect width="180" height="80" rx="8" fill="white"/>
<g clip-path="url(#clip0_34552_293899)">
<path d="M150 24.0413V55.9588H125.703C137.728 50.2186 144.557 43.6866 144.26 37.0062C144.062 32.2062 140.202 27.8516 133.522 24.0413H150Z" fill="#374694"/>
<path d="M120.112 55.9588H109.077C122.092 50.0701 129.613 43.2413 129.267 36.2145C129.069 31.7608 125.704 27.6536 119.815 24.0413H127.881C134.562 27.8516 138.421 32.2062 138.619 37.0062C138.966 43.6866 132.137 50.2186 120.112 55.9588Z" fill="#999999"/>
<path d="M105.415 55.9588H100.565C112.491 48.4371 118.875 40.7175 117.638 33.8887C116.895 29.9794 113.778 26.6639 108.631 24.0413H114.471C120.805 27.7526 124.466 32.0083 124.664 36.6598C124.961 43.4887 117.836 50.1691 105.415 55.9588Z" fill="#374694"/>
<path d="M34.4536 35.0269C34.4536 34.5815 34.8495 34.2846 35.8392 34.2846C36.2845 34.2846 36.6309 34.3836 36.9773 34.532C37.2742 34.73 37.5216 34.9774 37.6206 35.4227H41.7278C41.4309 33.097 39.7485 31.2166 36.0866 31.2166C32.7711 31.2166 30.3464 32.6516 30.3464 35.4227C30.2969 40.4702 37.9175 39.1341 37.9175 41.1135C37.9175 41.7568 37.1753 42.1032 36.1361 42.1032C35.6907 42.1032 35.2454 42.0042 34.899 41.7568C34.5031 41.5588 34.2557 41.2124 34.1567 40.7176H30C30.099 43.0928 32.3753 45.1217 35.8392 45.1217C39.4515 45.1217 42.0247 43.6372 42.0247 40.5691C42.0247 35.7691 34.4536 37.0062 34.4536 35.0269Z" fill="#3B499F"/>
<path d="M61.6704 40.2722H63.1054C62.957 41.3114 61.8188 41.8557 61.0271 41.8557C58.8003 41.8557 58.4539 39.7774 58.4539 38.5403C58.4539 37.6495 58.256 34.5815 61.0271 34.5815C62.0168 34.5815 63.0065 35.3238 63.1054 36.066H66.9652C66.4209 33.0475 64.2436 31.2166 60.8786 31.2166C57.7116 31.2166 54.3467 33.3939 54.3467 38.3918C54.3467 41.9052 57.0683 45.1217 60.6807 45.1217C62.0663 45.1217 63.3034 44.6763 64.2931 43.6867V44.8248H67.2127V37.3526H61.6704V40.2722Z" fill="#3B499F"/>
<path d="M94.1816 31.563L92.6475 39.7774L91.0145 31.563H87.0558L85.4723 39.7774L83.8888 31.563H79.9795L83.0475 44.8248H87.7486L89.0352 37.8475L90.3218 44.8248H95.0228L98.0908 31.563H94.1816Z" fill="#3B499F"/>
<path d="M71.5669 31.563L67.4102 44.8248H71.27L72.0617 42.4001H76.3669L77.1586 44.8248H81.0184L76.8617 31.6125H71.5669V31.563ZM72.9524 39.431L74.239 34.829L75.5256 39.431H72.9524Z" fill="#3B499F"/>
<path d="M45.6375 31.5627L41.5303 44.8246H45.3901L46.1323 42.3999H50.4375L51.2292 44.8246H55.089L50.9323 31.6122H45.6375V31.5627ZM47.0231 39.4308L48.3097 34.8287L49.5963 39.4308H47.0231Z" fill="#3B499F"/>
<path d="M106.503 31.563H101.208L97.002 44.8248H100.862L101.654 42.4001H106.008L106.75 44.8248H110.61L106.503 31.563ZM102.544 39.431L103.831 34.829L105.117 39.431H102.544Z" fill="#3B499F"/>
</g>
<defs>
<clipPath id="clip0_34552_293899">
<rect width="120" height="31.9175" fill="white" transform="translate(30 24.0413)"/>
</clipPath>
</defs>
</svg>
