<svg xmlns="http://www.w3.org/2000/svg" width="24" height="24" viewBox="0 0 24 24" fill="none">
  <rect x="1" y="5.24976" width="23" height="11.5" fill="#2F78F1"/>
  <path fill-rule="evenodd" clip-rule="evenodd" d="M12.5 15.5998C13.72 15.5998 14.89 15.1151 15.7527 14.2524C16.6154 13.3898 17.1 12.2198 17.1 10.9998C17.1 9.77976 16.6154 8.60973 15.7527 7.74706C14.89 6.8844 13.72 6.39976 12.5 6.39976C11.28 6.39976 10.11 6.8844 9.24731 7.74706C8.38464 8.60973 7.9 9.77976 7.9 10.9998C7.9 12.2198 8.38464 13.3898 9.24731 14.2524C10.11 15.1151 11.28 15.5998 12.5 15.5998ZM18.25 10.9998C18.25 12.5248 17.6442 13.9873 16.5659 15.0656C15.4875 16.144 14.025 16.7498 12.5 16.7498C10.975 16.7498 9.51247 16.144 8.43414 15.0656C7.3558 13.9873 6.75 12.5248 6.75 10.9998C6.75 9.47476 7.3558 8.01223 8.43414 6.93389C9.51247 5.85556 10.975 5.24976 12.5 5.24976C14.025 5.24976 15.4875 5.85556 16.5659 6.93389C17.6442 8.01223 18.25 9.47476 18.25 10.9998Z" fill="#140097"/>
  <path d="M11.0654 12.0856C11.1086 12.771 11.5419 13.3046 12.3193 13.369V13.875H12.6643V13.3656C13.4693 13.2954 13.9395 12.7572 13.9395 11.9775C13.9395 11.2668 13.5807 10.9011 12.9367 10.7125L12.6643 10.632V9.252C13.0103 9.30145 13.2292 9.5372 13.2817 9.8638H13.887C13.8438 9.20255 13.3902 8.6862 12.6643 8.62985V8.125H12.3193V8.6425C11.6321 8.72645 11.1647 9.2428 11.1647 9.9742C11.1647 10.6205 11.5125 11.0322 12.0912 11.2001L12.3193 11.2702V12.733C11.9661 12.6663 11.7315 12.4226 11.679 12.0856H11.0645H11.0654ZM12.3166 10.5285C11.9771 10.4308 11.7931 10.2295 11.7931 9.9282C11.7931 9.5901 11.9918 9.3371 12.3193 9.2635V10.5285H12.3166ZM12.714 11.3864C13.1271 11.506 13.3166 11.6992 13.3166 12.0407C13.3166 12.4306 13.0802 12.6974 12.6643 12.7469V11.3726L12.714 11.3864Z" fill="#140097"/>
  <path d="M1 5.25C1 4.86875 1.15145 4.50312 1.42103 4.23353C1.69062 3.96395 2.05625 3.8125 2.4375 3.8125H22.5625C22.9437 3.8125 23.3094 3.96395 23.579 4.23353C23.8485 4.50312 24 4.86875 24 5.25V16.75C24 17.1312 23.8485 17.4969 23.579 17.7665C23.3094 18.036 22.9437 18.1875 22.5625 18.1875H2.4375C2.05625 18.1875 1.69062 18.036 1.42103 17.7665C1.15145 17.4969 1 17.1312 1 16.75V5.25ZM5.3125 5.25C5.3125 6.0125 5.0096 6.74377 4.47043 7.28293C3.93127 7.8221 3.2 8.125 2.4375 8.125V13.875C3.2 13.875 3.93127 14.1779 4.47043 14.7171C5.0096 15.2562 5.3125 15.9875 5.3125 16.75H19.6875C19.6875 15.9875 19.9904 15.2562 20.5296 14.7171C21.0687 14.1779 21.8 13.875 22.5625 13.875V8.125C21.8 8.125 21.0687 7.8221 20.5296 7.28293C19.9904 6.74377 19.6875 6.0125 19.6875 5.25H5.3125Z" fill="#140097"/>
</svg>