<svg xmlns="http://www.w3.org/2000/svg" width="22" height="22" viewBox="0 0 22 22" fill="none">
  <path d="M1.375 4.125H20.625V17.875H1.375V4.125Z" fill="#2F78F1"/>
  <path fill-rule="evenodd" clip-rule="evenodd" d="M0 5.5C0 4.77065 0.289731 4.07118 0.805456 3.55546C1.32118 3.03973 2.02065 2.75 2.75 2.75H19.25C19.9793 2.75 20.6788 3.03973 21.1945 3.55546C21.7103 4.07118 22 4.77065 22 5.5V16.5C22 17.2293 21.7103 17.9288 21.1945 18.4445C20.6788 18.9603 19.9793 19.25 19.25 19.25H2.75C2.02065 19.25 1.32118 18.9603 0.805456 18.4445C0.289731 17.9288 0 17.2293 0 16.5V5.5ZM12.375 7.5625C12.375 7.38016 12.4474 7.2053 12.5764 7.07636C12.7053 6.94743 12.8802 6.875 13.0625 6.875H18.5625C18.7448 6.875 18.9197 6.94743 19.0486 7.07636C19.1776 7.2053 19.25 7.38016 19.25 7.5625C19.25 7.74484 19.1776 7.9197 19.0486 8.04864C18.9197 8.17757 18.7448 8.25 18.5625 8.25H13.0625C12.8802 8.25 12.7053 8.17757 12.5764 8.04864C12.4474 7.9197 12.375 7.74484 12.375 7.5625ZM12.375 11C12.375 10.8177 12.4474 10.6428 12.5764 10.5139C12.7053 10.3849 12.8802 10.3125 13.0625 10.3125H18.5625C18.7448 10.3125 18.9197 10.3849 19.0486 10.5139C19.1776 10.6428 19.25 10.8177 19.25 11C19.25 11.1823 19.1776 11.3572 19.0486 11.4861C18.9197 11.6151 18.7448 11.6875 18.5625 11.6875H13.0625C12.8802 11.6875 12.7053 11.6151 12.5764 11.4861C12.4474 11.3572 12.375 11.1823 12.375 11ZM13.75 14.4375C13.75 14.2552 13.8224 14.0803 13.9514 13.9514C14.0803 13.8224 14.2552 13.75 14.4375 13.75H18.5625C18.7448 13.75 18.9197 13.8224 19.0486 13.9514C19.1776 14.0803 19.25 14.2552 19.25 14.4375C19.25 14.6198 19.1776 14.7947 19.0486 14.9236C18.9197 15.0526 18.7448 15.125 18.5625 15.125H14.4375C14.2552 15.125 14.0803 15.0526 13.9514 14.9236C13.8224 14.7947 13.75 14.6198 13.75 14.4375ZM12.375 17.1875C12.375 17.4213 12.3558 17.6509 12.32 17.875H2.75C2.42838 17.8752 2.11687 17.7626 1.86967 17.5568C1.62247 17.3511 1.45521 17.0652 1.397 16.7489C1.65 14.2972 4.00675 12.375 6.875 12.375C9.91375 12.375 12.375 14.5296 12.375 17.1875ZM9.625 8.25C9.625 8.97935 9.33527 9.67882 8.81954 10.1945C8.30382 10.7103 7.60435 11 6.875 11C6.14565 11 5.44618 10.7103 4.93046 10.1945C4.41473 9.67882 4.125 8.97935 4.125 8.25C4.125 7.52065 4.41473 6.82118 4.93046 6.30546C5.44618 5.78973 6.14565 5.5 6.875 5.5C7.60435 5.5 8.30382 5.78973 8.81954 6.30546C9.33527 6.82118 9.625 7.52065 9.625 8.25Z" fill="#140097"/>
</svg>