<svg xmlns="http://www.w3.org/2000/svg" width="38" height="37" viewBox="0 0 38 37" fill="none">
  <g clip-path="url(#clip0_931_1216)">
    <path d="M14.5988 0.200871C15.0998 -0.064353 15.6989 -0.064353 16.1999 0.200871L29.6167 7.33326C29.9163 7.49335 30.1032 7.80397 30.1032 8.14088C30.1032 8.47778 29.9163 8.7908 29.6167 8.9485L15.8332 16.2768C15.5623 16.4202 15.2388 16.4202 14.9679 16.2768L1.22275 8.97C0.985475 8.84336 0.796134 8.63549 0.726629 8.37743C0.61638 7.9545 0.815308 7.52919 1.18201 7.33326L14.5988 0.200871Z" fill="#2F78F1"/>
    <path d="M30.6277 11.6173V28.2237C30.6277 28.5893 30.3928 28.9118 30.0453 29.0289L15.3126 33.9272L0.582403 29.0313C0.234879 28.9166 0 28.5917 0 28.2261V11.6197C0 10.9722 0.697446 10.5636 1.26547 10.879L15.315 18.6613L29.3646 10.879C29.9302 10.5636 30.6301 10.9722 30.6301 11.6197L30.6277 11.6173Z" fill="#140097"/>
    <path d="M29.9846 20.1355C30.2338 20.0017 30.5358 20.0017 30.7851 20.1355L37.4935 23.7029C37.6421 23.7817 37.7356 23.9371 37.7356 24.1067C37.7356 24.2764 37.6421 24.4317 37.4935 24.5105L30.6005 28.1759C30.4663 28.2476 30.3033 28.2476 30.1691 28.1759L23.2953 24.5225C23.1779 24.4603 23.082 24.3552 23.0485 24.2262C22.9934 24.0135 23.0916 23.8009 23.2762 23.7053L29.9846 20.1379V20.1355Z" fill="#2F78F1"/>
    <path d="M37.9997 25.8462V34.1494C37.9997 34.331 37.8823 34.4935 37.7097 34.5508L30.3446 37L22.9795 34.5532C22.8069 34.4959 22.6895 34.3334 22.6895 34.1518V25.8486C22.6895 25.526 23.037 25.3205 23.3222 25.4782L30.347 29.3682L37.3718 25.4758C37.6546 25.3181 38.0045 25.5236 38.0045 25.8462H37.9997Z" fill="#140097"/>
  </g>
  <defs>
    <clipPath id="clip0_931_1216">
      <rect width="38" height="37" fill="white"/>
    </clipPath>
  </defs>
</svg>