<svg xmlns="http://www.w3.org/2000/svg" width="14" height="19" viewBox="0 0 14 19" fill="none">
  <g clip-path="url(#clip0_949_1273)">
    <path d="M9.33417 0.593814C9.33417 0.265627 9.0732 0 8.75076 0H5.25025C4.92781 0 4.66683 0.265627 4.66683 0.593814C4.66683 0.922002 4.40586 1.18763 4.08342 1.18763C3.76098 1.18763 3.5 1.45325 3.5 1.78144V2.37526C3.5 2.70344 3.76098 2.96907 4.08342 2.96907H9.91658C10.239 2.96907 10.5 2.70344 10.5 2.37526V1.78144C10.5 1.45325 10.239 1.18763 9.91658 1.18763C9.59414 1.18763 9.33317 0.922002 9.33317 0.593814H9.33417Z" fill="#2F78F1"/>
    <path d="M2.43342 1.18774H1.75025C0.783936 1.18774 0 1.98462 0 2.96919V17.2187C0 18.2022 0.783936 19.0001 1.75025 19.0001H12.2508C13.2171 19.0001 14.001 18.2022 14.001 17.2187V2.96919C14.001 1.98565 13.2171 1.18774 12.2508 1.18774H11.5676C11.6321 1.37338 11.6673 1.57336 11.6673 1.78156V2.37537C11.6673 3.35891 10.8834 4.15681 9.91709 4.15681H4.08392C3.1176 4.15681 2.33367 3.35891 2.33367 2.37537V1.78156C2.33367 1.57336 2.36894 1.37338 2.43342 1.18774ZM10.3292 9.32577L6.8287 12.8886C6.71887 12.9994 6.57075 13.063 6.41658 13.063C6.26242 13.063 6.11329 13.0004 6.00446 12.8886L4.25421 11.1072C4.02649 10.8754 4.02649 10.499 4.25421 10.2673C4.48193 10.0355 4.85173 10.0355 5.07946 10.2673L6.41658 11.6282L9.50396 8.48581C9.73168 8.25403 10.1015 8.25403 10.3292 8.48581C10.5569 8.71759 10.5569 9.09398 10.3292 9.32577Z" fill="#140097"/>
  </g>
  <defs>
    <clipPath id="clip0_949_1273">
      <rect width="14" height="19" fill="white"/>
    </clipPath>
  </defs>
</svg>