<svg xmlns="http://www.w3.org/2000/svg" width="28" height="28" viewBox="0 0 28 28" fill="none">
  <path d="M10.9375 23C10.9375 23 9.375 23 9.375 21.4167C9.375 19.8333 10.9375 15.0833 17.1875 15.0833C23.4375 15.0833 25 19.8333 25 21.4167C25 23 23.4375 23 23.4375 23H10.9375Z" fill="#140097"/>
  <path d="M17.1875 13.5C19.7763 13.5 21.875 11.3734 21.875 8.75C21.875 6.12665 19.7763 4 17.1875 4C14.5987 4 12.5 6.12665 12.5 8.75C12.5 11.3734 14.5987 13.5 17.1875 13.5Z" fill="#2F78F1"/>
  <path d="M8.15056 23C7.93057 22.5502 7.8125 22.017 7.8125 21.4167C7.8125 19.2705 8.87352 17.0634 10.8374 15.5266C9.97827 15.2481 8.97671 15.0833 7.8125 15.0833C1.5625 15.0833 0 19.8333 0 21.4167C0 23 1.5625 23 1.5625 23H8.15056Z" fill="#140097"/>
  <path d="M7.03125 13.5C9.18861 13.5 10.9375 11.7278 10.9375 9.54167C10.9375 7.35554 9.18861 5.58333 7.03125 5.58333C4.87389 5.58333 3.125 7.35554 3.125 9.54167C3.125 11.7278 4.87389 13.5 7.03125 13.5Z" fill="#2F78F1"/>
  <path d="M28 21.5C28 25.0899 24.866 28 21 28C17.134 28 14 25.0899 14 21.5C14 17.9101 17.134 15 21 15C24.866 15 28 17.9101 28 21.5Z" fill="#2F78F1"/>
  <path fill-rule="evenodd" clip-rule="evenodd" d="M21 26.7C22.4852 26.7 23.9096 26.1521 24.9598 25.177C26.01 24.2018 26.6 22.8791 26.6 21.5C26.6 20.1209 26.01 18.7982 24.9598 17.823C23.9096 16.8479 22.4852 16.3 21 16.3C19.5148 16.3 18.0904 16.8479 17.0402 17.823C15.99 18.7982 15.4 20.1209 15.4 21.5C15.4 22.8791 15.99 24.2018 17.0402 25.177C18.0904 26.1521 19.5148 26.7 21 26.7ZM28 21.5C28 23.2239 27.2625 24.8772 25.9497 26.0962C24.637 27.3152 22.8565 28 21 28C19.1435 28 17.363 27.3152 16.0503 26.0962C14.7375 24.8772 14 23.2239 14 21.5C14 19.7761 14.7375 18.1228 16.0503 16.9038C17.363 15.6848 19.1435 15 21 15C22.8565 15 24.637 15.6848 25.9497 16.9038C27.2625 18.1228 28 19.7761 28 21.5Z" fill="#140097"/>
  <path d="M19.0013 22.1328C19.0614 22.848 19.6643 23.4048 20.7459 23.472V24H21.2259V23.4684C22.3459 23.3952 23 22.8336 23 22.02C23 21.2784 22.5008 20.8968 21.6048 20.7L21.2259 20.616V19.176C21.7072 19.2276 22.0118 19.4736 22.0848 19.8144H22.927C22.8669 19.1244 22.2358 18.5856 21.2259 18.5268V18H20.7459V18.54C19.7898 18.6276 19.1395 19.1664 19.1395 19.9296C19.1395 20.604 19.6234 21.0336 20.4285 21.2088L20.7459 21.282V22.8084C20.2544 22.7388 19.928 22.4844 19.855 22.1328H19H19.0013ZM20.7421 20.508C20.2698 20.406 20.0138 20.196 20.0138 19.8816C20.0138 19.5288 20.2902 19.2648 20.7459 19.188V20.508H20.7421ZM21.295 21.4032C21.8698 21.528 22.1334 21.7296 22.1334 22.086C22.1334 22.4928 21.8045 22.7712 21.2259 22.8228V21.3888L21.295 21.4032Z" fill="#140097"/>
</svg>