<svg xmlns="http://www.w3.org/2000/svg" width="17" height="22" viewBox="0 0 17 22" fill="none">
  <rect x="1.25" y="4" width="12" height="14" fill="#2F78F1"/>
  <path d="M13.75 0H2.75C2.02065 0 1.32118 0.289731 0.805456 0.805456C0.289731 1.32118 0 2.02065 0 2.75V19.25C0 19.9793 0.289731 20.6788 0.805456 21.1945C1.32118 21.7103 2.02065 22 2.75 22H13.75C14.4793 22 15.1788 21.7103 15.6945 21.1945C16.2103 20.6788 16.5 19.9793 16.5 19.25V2.75C16.5 2.02065 16.2103 1.32118 15.6945 0.805456C15.1788 0.289731 14.4793 0 13.75 0ZM4.125 5.5H12.375C12.5573 5.5 12.7322 5.57243 12.8611 5.70136C12.9901 5.8303 13.0625 6.00516 13.0625 6.1875C13.0625 6.36984 12.9901 6.5447 12.8611 6.67364C12.7322 6.80257 12.5573 6.875 12.375 6.875H4.125C3.94266 6.875 3.7678 6.80257 3.63886 6.67364C3.50993 6.5447 3.4375 6.36984 3.4375 6.1875C3.4375 6.00516 3.50993 5.8303 3.63886 5.70136C3.7678 5.57243 3.94266 5.5 4.125 5.5ZM3.4375 8.9375C3.4375 8.75516 3.50993 8.5803 3.63886 8.45136C3.7678 8.32243 3.94266 8.25 4.125 8.25H12.375C12.5573 8.25 12.7322 8.32243 12.8611 8.45136C12.9901 8.5803 13.0625 8.75516 13.0625 8.9375C13.0625 9.11984 12.9901 9.2947 12.8611 9.42364C12.7322 9.55257 12.5573 9.625 12.375 9.625H4.125C3.94266 9.625 3.7678 9.55257 3.63886 9.42364C3.50993 9.2947 3.4375 9.11984 3.4375 8.9375ZM4.125 11H12.375C12.5573 11 12.7322 11.0724 12.8611 11.2014C12.9901 11.3303 13.0625 11.5052 13.0625 11.6875C13.0625 11.8698 12.9901 12.0447 12.8611 12.1736C12.7322 12.3026 12.5573 12.375 12.375 12.375H4.125C3.94266 12.375 3.7678 12.3026 3.63886 12.1736C3.50993 12.0447 3.4375 11.8698 3.4375 11.6875C3.4375 11.5052 3.50993 11.3303 3.63886 11.2014C3.7678 11.0724 3.94266 11 4.125 11ZM4.125 13.75H8.25C8.43234 13.75 8.60721 13.8224 8.73614 13.9514C8.86507 14.0803 8.9375 14.2552 8.9375 14.4375C8.9375 14.6198 8.86507 14.7947 8.73614 14.9236C8.60721 15.0526 8.43234 15.125 8.25 15.125H4.125C3.94266 15.125 3.7678 15.0526 3.63886 14.9236C3.50993 14.7947 3.4375 14.6198 3.4375 14.4375C3.4375 14.2552 3.50993 14.0803 3.63886 13.9514C3.7678 13.8224 3.94266 13.75 4.125 13.75Z" fill="#140097"/>
</svg>