<svg width="24" height="21" viewBox="0 0 24 21" fill="none" xmlns="http://www.w3.org/2000/svg">
<path d="M9.35156 0C9.62339 0 9.84375 0.22036 9.84375 0.492188C9.84375 0.764015 10.0641 0.984375 10.3359 0.984375C10.6078 0.984375 10.8281 1.20473 10.8281 1.47656V1.96875C10.8281 2.24058 10.6078 2.46094 10.3359 2.46094H5.41406C5.14223 2.46094 4.92188 2.24058 4.92188 1.96875V1.47656C4.92188 1.20473 5.14223 0.984375 5.41406 0.984375C5.68589 0.984375 5.90625 0.764015 5.90625 0.492188C5.90625 0.22036 6.12661 0 6.39844 0H9.35156Z" fill="#140097"/>
<path d="M3.44531 0.984375H4.02152C3.96711 1.13832 3.9375 1.30398 3.9375 1.47656V1.96875C3.9375 2.78423 4.59858 3.44531 5.41406 3.44531H10.3359C11.1514 3.44531 11.8125 2.78423 11.8125 1.96875V1.47656C11.8125 1.30398 11.7829 1.13832 11.7285 0.984375H12.3047C13.1202 0.984375 13.7812 1.64545 13.7812 2.46094V14.2734C13.7812 15.0889 13.1202 15.75 12.3047 15.75H3.44531C2.62983 15.75 1.96875 15.0889 1.96875 14.2734V2.46094C1.96875 1.64546 2.62983 0.984375 3.44531 0.984375Z" fill="#140097"/>
<path d="M16.1875 21C20.2955 21 23.625 17.6705 23.625 13.5625C23.625 9.45454 20.2955 6.125 16.1875 6.125C12.0795 6.125 8.75 9.45454 8.75 13.5625C8.75 17.6705 12.0795 21 16.1875 21Z" fill="#2F78F1"/>
<path d="M14.0633 9.01918C14.1871 8.95454 14.3359 8.95454 14.4597 9.01918L17.7815 10.7504C17.8556 10.7891 17.902 10.8644 17.902 10.9467C17.902 11.0291 17.8556 11.1044 17.7815 11.1431L14.3683 12.9216C14.3013 12.9566 14.2213 12.9566 14.1543 12.9216L10.7512 11.1476C10.6927 11.1172 10.6455 11.0665 10.6286 11.0035C10.6013 10.9006 10.6506 10.7977 10.7416 10.7504L14.0633 9.01918Z" fill="#140097"/>
<path d="M18.033 11.7899V15.8204C18.033 15.9089 17.9749 15.9875 17.889 16.0155L14.2411 17.2045L10.5933 16.0163C10.5074 15.9883 10.4492 15.9097 10.4492 15.8212V11.7907C10.4492 11.6338 10.622 11.5346 10.7623 11.6108L14.2411 13.4992L17.72 11.6104C17.8603 11.5338 18.033 11.633 18.033 11.7899Z" fill="#140097"/>
<path d="M20.0262 12.2932C20.1006 12.2545 20.1898 12.2545 20.2641 12.2932L22.2572 13.3319C22.3016 13.3552 22.3295 13.4004 22.3295 13.4498C22.3295 13.4992 22.3016 13.5444 22.2572 13.5676L20.2093 14.6347C20.1691 14.6557 20.121 14.6557 20.0808 14.6347L18.039 13.5703C18.0039 13.552 17.9756 13.5217 17.9655 13.4839C17.949 13.4221 17.9786 13.3604 18.0332 13.3319L20.0262 12.2932Z" fill="#140097"/>
<path d="M22.4097 13.9556V16.3739C22.4097 16.427 22.3748 16.4741 22.3232 16.4909L20.1345 17.2043L17.9458 16.4914C17.8943 16.4746 17.8594 16.4275 17.8594 16.3744V13.9561C17.8594 13.8619 17.963 13.8024 18.0472 13.8481L20.1345 14.9812L22.2218 13.8479C22.306 13.8019 22.4097 13.8615 22.4097 13.9556Z" fill="#140097"/>
</svg>
