<svg xmlns="http://www.w3.org/2000/svg" width="24" height="19" viewBox="0 0 24 19" fill="none">
  <path d="M1.44629 2.37524H15.9106V13.9467H1.44629V2.37524Z" fill="#2F78F1"/>
  <path d="M15.1874 5.2681L18.8034 5.99132L22.4195 9.60739V13.9467H15.1874V5.2681Z" fill="#2F78F1"/>
  <ellipse cx="4.33915" cy="14.6699" rx="2.89286" ry="2.16964" fill="#2F78F1"/>
  <ellipse cx="17.3572" cy="14.6699" rx="2.89286" ry="2.16964" fill="#2F78F1"/>
  <path d="M3.15886e-09 3.09848C3.15886e-09 2.52305 0.228587 1.97119 0.635474 1.56431C1.04236 1.15742 1.59422 0.928833 2.16964 0.928833H15.1875C15.7629 0.928833 16.3148 1.15742 16.7217 1.56431C17.1286 1.97119 17.3571 2.52305 17.3571 3.09848V5.26812H18.8325C19.1576 5.26841 19.4784 5.34174 19.7713 5.48269C20.0643 5.62364 20.3218 5.82861 20.5248 6.08246L22.667 8.75835C22.9752 9.14337 23.143 9.62191 23.1429 10.1151V13.2235C23.1429 13.7989 22.9143 14.3508 22.5074 14.7576C22.1005 15.1645 21.5486 15.3931 20.9732 15.3931H20.25C20.25 16.1604 19.9452 16.8962 19.4027 17.4387C18.8602 17.9812 18.1244 18.286 17.3571 18.286C16.5899 18.286 15.8541 17.9812 15.3116 17.4387C14.7691 16.8962 14.4643 16.1604 14.4643 15.3931H7.23214C7.23298 15.7787 7.15671 16.1606 7.00783 16.5163C6.85896 16.872 6.64047 17.1943 6.36522 17.4644C6.08997 17.7344 5.76352 17.9467 5.40504 18.0887C5.04657 18.2308 4.66331 18.2998 4.2778 18.2916C3.89229 18.2834 3.51231 18.1982 3.1602 18.041C2.80809 17.8839 2.49095 17.6579 2.22742 17.3764C1.9639 17.0949 1.75932 16.7636 1.62569 16.4019C1.49207 16.0401 1.4321 15.6554 1.44932 15.2702C1.02559 15.121 0.658592 14.844 0.398989 14.4774C0.139386 14.1108 -2.42305e-05 13.6727 3.15886e-09 13.2235L3.15886e-09 3.09848ZM1.87168 13.883C2.13319 13.4549 2.50162 13.1022 2.94073 12.8595C3.37985 12.6168 3.87455 12.4926 4.37621 12.499C4.87787 12.5055 5.36923 12.6423 5.80199 12.8961C6.23475 13.1499 6.59403 13.512 6.8445 13.9467H14.8519C15.1064 13.5074 15.4714 13.1423 15.9107 12.8879V3.09848C15.9107 2.90667 15.8345 2.72272 15.6989 2.58709C15.5633 2.45146 15.3793 2.37526 15.1875 2.37526H2.16964C1.97783 2.37526 1.79388 2.45146 1.65825 2.58709C1.52262 2.72272 1.44643 2.90667 1.44643 3.09848V13.2235C1.44631 13.3627 1.48638 13.499 1.56181 13.616C1.63724 13.733 1.74484 13.8257 1.87168 13.883ZM17.3571 12.5003C17.8649 12.5003 18.3638 12.6339 18.8035 12.8878C19.2433 13.1417 19.6085 13.5069 19.8624 13.9467H20.9732C21.165 13.9467 21.349 13.8705 21.4846 13.7349C21.6202 13.5992 21.6964 13.4153 21.6964 13.2235V10.1137C21.6961 9.94953 21.64 9.79039 21.5373 9.66237L19.3966 6.98648C19.329 6.90177 19.2432 6.83336 19.1455 6.78629C19.0479 6.73922 18.9409 6.7147 18.8325 6.71455H17.3571V12.5003ZM4.33929 13.9467C3.95567 13.9467 3.58776 14.0991 3.31651 14.3703C3.04525 14.6416 2.89286 15.0095 2.89286 15.3931C2.89286 15.7767 3.04525 16.1446 3.31651 16.4159C3.58776 16.6872 3.95567 16.8395 4.33929 16.8395C4.7229 16.8395 5.09081 16.6872 5.36207 16.4159C5.63332 16.1446 5.78571 15.7767 5.78571 15.3931C5.78571 15.0095 5.63332 14.6416 5.36207 14.3703C5.09081 14.0991 4.7229 13.9467 4.33929 13.9467ZM17.3571 13.9467C16.9735 13.9467 16.6056 14.0991 16.3344 14.3703C16.0631 14.6416 15.9107 15.0095 15.9107 15.3931C15.9107 15.7767 16.0631 16.1446 16.3344 16.4159C16.6056 16.6872 16.9735 16.8395 17.3571 16.8395C17.7408 16.8395 18.1087 16.6872 18.3799 16.4159C18.6512 16.1446 18.8036 15.7767 18.8036 15.3931C18.8036 15.0095 18.6512 14.6416 18.3799 14.3703C18.1087 14.0991 17.7408 13.9467 17.3571 13.9467Z" fill="#140097"/>
  <path d="M6.96151 5.30336C7.05139 5.25646 7.1593 5.25646 7.24918 5.30336L9.65942 6.5595C9.71322 6.58758 9.74685 6.64225 9.74685 6.70199C9.74685 6.76174 9.71322 6.8164 9.65942 6.84448L7.18284 8.13497C7.13424 8.16036 7.07615 8.16036 7.02754 8.13497L4.55831 6.84777C4.51581 6.82566 4.48157 6.78892 4.46934 6.74322C4.44947 6.66853 4.48524 6.59385 4.55127 6.5595L6.96151 5.30336Z" fill="#140097"/>
  <path d="M9.84217 7.31358V10.2381C9.84217 10.3023 9.79999 10.3594 9.73762 10.3797L7.09076 11.2424L4.44391 10.3803C4.38154 10.36 4.33936 10.3029 4.33936 10.2387V7.31418C4.33936 7.20036 4.4647 7.12837 4.5665 7.18364L7.09076 8.55388L9.61503 7.18334C9.71683 7.12777 9.84217 7.19977 9.84217 7.31358Z" fill="#140097"/>
  <path d="M11.2896 7.67906C11.3435 7.65092 11.4083 7.65092 11.4622 7.67906L12.9083 8.43275C12.9406 8.44959 12.9608 8.48239 12.9608 8.51824C12.9608 8.55409 12.9406 8.58689 12.9083 8.60374L11.4224 9.37803C11.3932 9.39326 11.3584 9.39326 11.3292 9.37803L9.84768 8.60571C9.82218 8.59244 9.80164 8.5704 9.7943 8.54298C9.78238 8.49817 9.80384 8.45336 9.84346 8.43275L11.2896 7.67906Z" fill="#140097"/>
  <path d="M13.0185 8.88529V10.64C13.0185 10.6785 12.9932 10.7128 12.9558 10.725L11.3676 11.2426L9.77953 10.7253C9.74211 10.7131 9.7168 10.6789 9.7168 10.6404V8.88565C9.7168 8.81736 9.792 8.77417 9.85308 8.80732L11.3676 9.62947L12.8822 8.80715C12.9433 8.77381 13.0185 8.817 13.0185 8.88529Z" fill="#140097"/>
</svg>