<svg width="32" height="32" viewBox="0 0 32 32" fill="none" xmlns="http://www.w3.org/2000/svg">
<path d="M18.357 14.6431C19.6587 15.9448 19.6587 18.0554 18.357 19.3571C17.0552 20.6588 14.9447 20.6588 13.6429 19.3571C12.3412 18.0554 12.3412 15.9448 13.6429 14.6431C14.9447 13.3413 17.0552 13.3413 18.357 14.6431" stroke="#F57C00" stroke-width="2" stroke-linecap="round" stroke-linejoin="round"/>
<path d="M25.6717 6.64306C26.9734 7.94481 26.9734 10.0554 25.6717 11.3571C24.3699 12.6588 22.2594 12.6588 20.9576 11.3571C19.6559 10.0554 19.6559 7.94481 20.9576 6.64306C22.2594 5.34131 24.3699 5.34131 25.6717 6.64306" stroke="#F57C00" stroke-width="2" stroke-linecap="round" stroke-linejoin="round"/>
<path d="M24 16.3335C26.044 16.3335 28 17.0442 29.3333 18.1108" stroke="#F57C00" stroke-width="2" stroke-linecap="round" stroke-linejoin="round"/>
<path d="M11.0423 6.64306C12.344 7.94481 12.344 10.0554 11.0423 11.3571C9.74053 12.6588 7.62999 12.6588 6.32824 11.3571C5.02649 10.0554 5.02649 7.94481 6.32824 6.64306C7.62999 5.34131 9.74053 5.34131 11.0423 6.64306" stroke="#F57C00" stroke-width="2" stroke-linecap="round" stroke-linejoin="round"/>
<path d="M2.66663 18.1108C3.99996 17.0442 5.95596 16.3335 7.99996 16.3335" stroke="#F57C00" stroke-width="2" stroke-linecap="round" stroke-linejoin="round"/>
<path d="M22.1213 26.3335C20.568 25.1322 18.336 24.3335 16 24.3335C13.664 24.3335 11.432 25.1322 9.87866 26.3335" stroke="#F57C00" stroke-width="2" stroke-linecap="round" stroke-linejoin="round"/>
</svg>
