<svg xmlns="http://www.w3.org/2000/svg" width="187" height="177" viewBox="0 0 187 177" fill="none">
  <path fill-rule="evenodd" clip-rule="evenodd" d="M172.627 163.826C176.133 169.145 172.318 176.229 165.947 176.229H119.517C116.891 176.229 114.433 174.94 112.939 172.781L101.157 155.758C99.1942 152.923 99.2698 149.148 101.345 146.393L126.405 113.117C129.732 108.699 136.431 108.909 139.475 113.527L172.627 163.826Z" fill="#00194F"/>
  <path fill-rule="evenodd" clip-rule="evenodd" d="M161.202 36.4463C164.364 36.4463 166.276 39.9429 164.569 42.6052L138.759 82.8643C135.645 87.7204 128.572 87.7856 125.37 82.9877L105.95 53.8905C104.176 51.2324 106.081 47.67 109.277 47.67H134.839C137.568 47.67 140.11 46.2782 141.58 43.9781L144.034 40.1381C145.504 37.8381 148.045 36.4463 150.775 36.4463H161.202Z" fill="white"/>
  <path fill-rule="evenodd" clip-rule="evenodd" d="M107.446 38.4853C106.502 39.8245 107.471 41.6712 109.109 41.6447C117.209 41.5132 135.038 41.2752 135.758 41.7131C136.466 42.1437 144.726 30.0381 148.666 24.1798C149.556 22.8564 148.601 21.0903 147.007 21.0903H120.75C120.1 21.0903 119.49 21.4064 119.115 21.9377L107.446 38.4853Z" fill="white"/>
  <path fill-rule="evenodd" clip-rule="evenodd" d="M136.013 12.6591C135.035 14.0229 136.066 15.9196 137.742 15.8447C144.991 15.5209 159.179 15.0184 159.179 16.0459C159.179 17.0512 165.001 7.97185 168.114 3.04419C168.953 1.71742 167.994 0 166.425 0H146.115C145.471 0 144.865 0.310761 144.49 0.834712L136.013 12.6591Z" fill="white"/>
  <path fill-rule="evenodd" clip-rule="evenodd" d="M155.498 22.6874C155.868 22.1254 156.496 21.7871 157.168 21.7871H172.348C173.947 21.7871 174.9 23.5705 174.01 24.8993L169.914 31.0211C169.535 31.5872 168.895 31.9216 168.214 31.9085L153.288 31.6231C151.713 31.593 150.79 29.8393 151.656 28.5238L155.498 22.6874Z" fill="white"/>
  <path fill-rule="evenodd" clip-rule="evenodd" d="M172.74 4.99009C173.113 4.44378 173.732 4.11694 174.393 4.11694H182.614C184.212 4.11694 185.165 5.89918 184.276 7.22815L177.401 17.5177C177.029 18.0731 176.406 18.4065 175.738 18.4065H167.376C165.769 18.4065 164.818 16.6073 165.723 15.2797L172.74 4.99009Z" fill="white"/>
  <path fill-rule="evenodd" clip-rule="evenodd" d="M10.1563 33.378C6.30619 28.0907 10.0829 20.6687 16.6234 20.6687H66.6031C69.204 20.6687 71.6426 21.9331 73.1414 24.0588L122.416 93.9455C124.396 96.753 124.362 100.511 122.332 103.282L71.3452 172.902C69.8384 174.959 67.4411 176.175 64.891 176.175H15.9233C9.34508 176.175 5.5782 168.677 9.50481 163.4L54.1678 103.368C56.2584 100.558 56.2781 96.7152 54.2164 93.8839L10.1563 33.378Z" fill="url(#paint0_linear_1723_24218)"/>
  <defs>
    <linearGradient id="paint0_linear_1723_24218" x1="-4.71319e-07" y1="176.175" x2="128.727" y2="174.327" gradientUnits="userSpaceOnUse">
      <stop stop-color="#959DB9"/>
      <stop offset="1" stop-color="#AF0000"/>
    </linearGradient>
  </defs>
</svg>