<svg width="227" height="40" viewBox="0 0 227 40" fill="none" xmlns="http://www.w3.org/2000/svg">
<g id="Group">
<g id="Group_2">
<g id="Logo Efex">
<path id="Vector" fill-rule="evenodd" clip-rule="evenodd" d="M112.348 36.5702H98.0582L94.3164 31.6146L101.531 21.8799L112.348 36.5702Z" fill="white"/>
<path id="Vector_2" fill-rule="evenodd" clip-rule="evenodd" d="M109.667 7.56299L101.525 18.8106L95.1611 9.89207H103.273L104.839 7.56299H109.667Z" fill="white"/>
<path id="Vector_3" fill-rule="evenodd" clip-rule="evenodd" d="M95.8418 8.65598C95.8418 8.65598 102.314 8.53826 102.517 8.65598C102.721 8.77371 105.785 4.37646 105.785 4.37646H99.0156L95.8418 8.65598Z" fill="white"/>
<path id="Vector_4" fill-rule="evenodd" clip-rule="evenodd" d="M102.044 3.32975C102.044 3.32975 107.63 3.04339 107.63 3.32975C107.63 3.61452 109.997 0 109.997 0H104.554L102.044 3.32975Z" fill="white"/>
<path id="Vector_5" fill-rule="evenodd" clip-rule="evenodd" d="M107.583 4.44678H110.873L109.287 6.49108H106.116L107.583 4.44678Z" fill="white"/>
<path id="Vector_6" fill-rule="evenodd" clip-rule="evenodd" d="M110.718 0.854492H113.56L112.413 2.83993H109.275L110.718 0.854492Z" fill="white"/>
<g id="Group_3">
<path id="Vector_7" fill-rule="evenodd" clip-rule="evenodd" d="M73.0799 4.28906H87.748L99.2932 20.4701L87.3694 36.5589H72.8906L85.0037 20.4701L73.0799 4.28906Z" fill="#AF0000"/>
</g>
<g id="Group_4">
<path id="Vector_8" d="M10.1181 12.3531V16.3192H20.1456V23.9301H10.1181V28.488H21.5121V36.5555H0V4.28564H21.5121V12.3531H10.1181Z" fill="white"/>
<path id="Vector_9" d="M48.1308 4.28564V12.307H35.4609V16.7742H44.5767V24.3851H35.4609V36.5539H25.3428V4.28564H48.1308Z" fill="white"/>
<path id="Vector_10" d="M61.666 12.3531V16.3192H71.6934V23.9301H61.666V28.488H73.06V36.5555H51.5479V4.28564H73.06V12.3531H61.666Z" fill="white"/>
</g>
</g>
</g>
<g id="eCommerce Fulfillment">
<path d="M123.65 22.4782C124.286 22.4782 124.798 22.8842 124.815 23.5286H122.494C122.591 22.8577 123.059 22.4782 123.65 22.4782ZM125.972 24.8968H124.639C124.48 25.2234 124.189 25.4882 123.659 25.4882C123.041 25.4882 122.547 25.0822 122.485 24.3584H126.06C126.086 24.1995 126.095 24.0406 126.095 23.8817C126.095 22.4252 125.098 21.463 123.685 21.463C122.238 21.463 121.231 22.4428 121.231 23.9876C121.231 25.5236 122.264 26.5122 123.685 26.5122C124.895 26.5122 125.707 25.7972 125.972 24.8968Z" fill="white"/>
<path d="M126.697 23.3432C126.697 25.1881 128.048 26.4857 129.822 26.4857C131.19 26.4857 132.302 25.7619 132.717 24.4908H131.296C131.005 25.091 130.475 25.3823 129.813 25.3823C128.736 25.3823 127.968 24.5879 127.968 23.3432C127.968 22.0898 128.736 21.3041 129.813 21.3041C130.475 21.3041 131.005 21.5954 131.296 22.1869H132.717C132.302 20.9246 131.19 20.1919 129.822 20.1919C128.048 20.1919 126.697 21.4983 126.697 23.3432Z" fill="white"/>
<path d="M138.495 23.9876C138.495 22.4428 137.392 21.463 135.98 21.463C134.567 21.463 133.464 22.4428 133.464 23.9876C133.464 25.5236 134.532 26.5122 135.944 26.5122C137.366 26.5122 138.495 25.5236 138.495 23.9876ZM134.717 23.9876C134.717 23.0078 135.309 22.5399 135.962 22.5399C136.615 22.5399 137.224 23.0078 137.224 23.9876C137.224 24.9586 136.598 25.4353 135.944 25.4353C135.282 25.4353 134.717 24.9586 134.717 23.9876Z" fill="white"/>
<path d="M146.243 26.4328H147.479V23.5639C147.479 22.2133 146.649 21.4719 145.475 21.4719C144.76 21.4719 144.116 21.8514 143.798 22.4075C143.462 21.7985 142.836 21.4719 142.077 21.4719C141.468 21.4719 140.947 21.7278 140.638 22.1339V21.5425H139.402V26.4328H140.638V23.7316C140.638 22.9548 141.07 22.5488 141.741 22.5488C142.394 22.5488 142.827 22.9548 142.827 23.7316V26.4328H144.063V23.7316C144.063 22.9548 144.495 22.5488 145.157 22.5488C145.811 22.5488 146.243 22.9548 146.243 23.7316V26.4328Z" fill="white"/>
<path d="M155.493 26.4328H156.729V23.5639C156.729 22.2133 155.899 21.4719 154.725 21.4719C154.01 21.4719 153.365 21.8514 153.048 22.4075C152.712 21.7985 152.085 21.4719 151.326 21.4719C150.717 21.4719 150.196 21.7278 149.887 22.1339V21.5425H148.652V26.4328H149.887V23.7316C149.887 22.9548 150.32 22.5488 150.991 22.5488C151.644 22.5488 152.077 22.9548 152.077 23.7316V26.4328H153.312V23.7316C153.312 22.9548 153.745 22.5488 154.407 22.5488C155.06 22.5488 155.493 22.9548 155.493 23.7316V26.4328Z" fill="white"/>
<path d="M160.002 22.4782C160.638 22.4782 161.15 22.8842 161.167 23.5286H158.846C158.943 22.8577 159.411 22.4782 160.002 22.4782ZM162.324 24.8968H160.991C160.832 25.2234 160.541 25.4882 160.011 25.4882C159.393 25.4882 158.899 25.0822 158.837 24.3584H162.412C162.438 24.1995 162.447 24.0406 162.447 23.8817C162.447 22.4252 161.45 21.463 160.037 21.463C158.59 21.463 157.583 22.4428 157.583 23.9876C157.583 25.5236 158.616 26.5122 160.037 26.5122C161.247 26.5122 162.059 25.7972 162.324 24.8968Z" fill="white"/>
<path d="M164.585 23.9964C164.585 23.0519 165.026 22.7695 165.759 22.7695H166.086V21.4719C165.406 21.4719 164.894 21.7985 164.585 22.3016V21.5425H163.349V26.4328H164.585V23.9964Z" fill="white"/>
<path d="M166.6 23.9876C166.6 25.5236 167.607 26.5122 169.019 26.5122C170.237 26.5122 171.058 25.8237 171.323 24.7821H169.99C169.84 25.2234 169.522 25.4529 169.01 25.4529C168.322 25.4529 167.863 24.941 167.863 23.9876C167.863 23.0343 168.322 22.5135 169.01 22.5135C169.522 22.5135 169.849 22.7783 169.99 23.1932H171.323C171.058 22.0986 170.237 21.463 169.019 21.463C167.607 21.463 166.6 22.4517 166.6 23.9876Z" fill="white"/>
<path d="M174.329 22.4782C174.965 22.4782 175.477 22.8842 175.494 23.5286H173.173C173.27 22.8577 173.738 22.4782 174.329 22.4782ZM176.651 24.8968H175.318C175.159 25.2234 174.868 25.4882 174.338 25.4882C173.72 25.4882 173.226 25.0822 173.164 24.3584H176.739C176.765 24.1995 176.774 24.0406 176.774 23.8817C176.774 22.4252 175.777 21.463 174.364 21.463C172.917 21.463 171.91 22.4428 171.91 23.9876C171.91 25.5236 172.943 26.5122 174.364 26.5122C175.574 26.5122 176.386 25.7972 176.651 24.8968Z" fill="white"/>
<path d="M179.78 26.4328H181.015V23.8287H182.984V22.8489H181.015V21.2688H183.584V20.2713H179.78V26.4328Z" fill="white"/>
<path d="M189.077 21.5425H187.833V24.2348C187.833 25.0204 187.409 25.4441 186.738 25.4441C186.085 25.4441 185.652 25.0204 185.652 24.2348V21.5425H184.416V24.4113C184.416 25.7531 185.237 26.4946 186.376 26.4946C186.985 26.4946 187.524 26.2297 187.833 25.8149V26.4328H189.077V21.5425Z" fill="white"/>
<path d="M190.297 26.4328H191.532V19.9006H190.297V26.4328Z" fill="white"/>
<path d="M192.886 26.4328H194.139V22.5576H194.995V21.5425H194.139V21.3394C194.139 20.7922 194.342 20.598 194.942 20.6156V19.574C193.565 19.5387 192.886 20.0948 192.886 21.2953V21.5425H192.33V22.5576H192.886V26.4328Z" fill="white"/>
<path d="M195.796 26.4328H197.032V21.5425H195.796V26.4328ZM196.423 20.9599C196.856 20.9599 197.182 20.6421 197.182 20.236C197.182 19.83 196.856 19.5122 196.423 19.5122C195.982 19.5122 195.664 19.83 195.664 20.236C195.664 20.6421 195.982 20.9599 196.423 20.9599Z" fill="white"/>
<path d="M198.253 26.4328H199.489V19.9006H198.253V26.4328Z" fill="white"/>
<path d="M200.71 26.4328H201.946V19.9006H200.71V26.4328Z" fill="white"/>
<path d="M210.008 26.4328H211.244V23.5639C211.244 22.2133 210.414 21.4719 209.24 21.4719C208.525 21.4719 207.88 21.8514 207.563 22.4075C207.227 21.7985 206.6 21.4719 205.841 21.4719C205.232 21.4719 204.711 21.7278 204.402 22.1339V21.5425H203.167V26.4328H204.402V23.7316C204.402 22.9548 204.835 22.5488 205.506 22.5488C206.159 22.5488 206.592 22.9548 206.592 23.7316V26.4328H207.827V23.7316C207.827 22.9548 208.26 22.5488 208.922 22.5488C209.575 22.5488 210.008 22.9548 210.008 23.7316V26.4328Z" fill="white"/>
<path d="M214.517 22.4782C215.153 22.4782 215.665 22.8842 215.682 23.5286H213.361C213.458 22.8577 213.926 22.4782 214.517 22.4782ZM216.839 24.8968H215.506C215.347 25.2234 215.056 25.4882 214.526 25.4882C213.908 25.4882 213.414 25.0822 213.352 24.3584H216.927C216.954 24.1995 216.962 24.0406 216.962 23.8817C216.962 22.4252 215.965 21.463 214.553 21.463C213.105 21.463 212.099 22.4428 212.099 23.9876C212.099 25.5236 213.131 26.5122 214.553 26.5122C215.762 26.5122 216.574 25.7972 216.839 24.8968Z" fill="white"/>
<path d="M221.289 26.4328H222.525V23.5639C222.525 22.2133 221.713 21.4719 220.574 21.4719C219.948 21.4719 219.418 21.7367 219.1 22.1516V21.5425H217.864V26.4328H219.1V23.7316C219.1 22.946 219.533 22.5223 220.204 22.5223C220.857 22.5223 221.289 22.946 221.289 23.7316V26.4328Z" fill="white"/>
<path d="M223.895 24.9145C223.895 26.0355 224.521 26.4328 225.457 26.4328H226.234V25.3911H225.66C225.272 25.3911 225.139 25.2499 225.139 24.9233V22.5576H226.234V21.5425H225.139V20.3331H223.895V21.5425H223.312V22.5576H223.895V24.9145Z" fill="white"/>
</g>
<g id="&#38; Express">
<path d="M125.356 32.4581C125.397 31.672 124.84 31.0088 123.767 31.0088C122.719 31.0088 122.089 31.6147 122.089 32.3926C122.089 32.7693 122.203 33.0804 122.506 33.4489C121.663 33.8256 121.245 34.4561 121.245 35.193C121.245 36.2575 122.08 36.9453 123.358 36.9453C124.136 36.9453 124.766 36.7079 125.298 36.2329L125.921 36.8471H127.329L125.945 35.4796C126.068 35.2913 126.183 35.0948 126.297 34.8737L126.871 33.8665H125.675L125.208 34.6444C125.192 34.669 125.184 34.6935 125.167 34.7099L123.726 33.2851C123.366 32.9085 123.202 32.6628 123.202 32.3844C123.202 32.106 123.423 31.9013 123.734 31.9013C124.037 31.9013 124.258 32.0896 124.242 32.4581H125.356ZM123.39 35.9955C122.768 35.9955 122.375 35.6106 122.375 35.1275C122.375 34.7099 122.629 34.366 123.169 34.1285L124.578 35.5206C124.242 35.8317 123.857 35.9955 123.39 35.9955Z" fill="white"/>
<path d="M133.164 31.1234H129.848V36.8471H133.164V35.9136H130.994V34.3988H132.918V33.4899H130.994V32.0569H133.164V31.1234Z" fill="white"/>
<path d="M136.711 36.8471H138.005L136.499 34.5707L137.989 32.3107H136.761L135.925 33.7109L135 32.3107H133.706L135.205 34.5707L133.723 36.8471H134.951L135.778 35.4387L136.711 36.8471Z" fill="white"/>
<path d="M139.774 32.9658V32.3107H138.628V39.0088H139.774V36.2002C140.053 36.5687 140.56 36.9208 141.273 36.9208C142.435 36.9208 143.344 35.9791 143.344 34.5625C143.344 33.1459 142.435 32.237 141.273 32.237C140.568 32.237 140.044 32.5809 139.774 32.9658ZM142.173 34.5625C142.173 35.4223 141.592 35.9136 140.97 35.9136C140.356 35.9136 139.774 35.4387 139.774 34.5789C139.774 33.7191 140.356 33.2442 140.97 33.2442C141.592 33.2442 142.173 33.7028 142.173 34.5625Z" fill="white"/>
<path d="M145.324 34.5871C145.324 33.7109 145.733 33.4489 146.413 33.4489H146.716V32.2452C146.085 32.2452 145.61 32.5482 145.324 33.0149V32.3107H144.177V36.8471H145.324V34.5871Z" fill="white"/>
<path d="M149.437 33.1787C150.026 33.1787 150.501 33.5554 150.518 34.1531H148.364C148.454 33.5308 148.888 33.1787 149.437 33.1787ZM151.59 35.4223H150.354C150.206 35.7253 149.936 35.9709 149.445 35.9709C148.872 35.9709 148.413 35.5943 148.356 34.9228H151.672C151.697 34.7754 151.705 34.628 151.705 34.4806C151.705 33.1296 150.78 32.237 149.469 32.237C148.127 32.237 147.193 33.1459 147.193 34.5789C147.193 36.0037 148.151 36.9208 149.469 36.9208C150.591 36.9208 151.345 36.2575 151.59 35.4223Z" fill="white"/>
<path d="M156.063 35.5533C156.03 33.8911 153.516 34.4069 153.516 33.5799C153.516 33.3179 153.737 33.1459 154.163 33.1459C154.613 33.1459 154.892 33.3834 154.924 33.7355H156.022C155.956 32.8348 155.293 32.237 154.196 32.237C153.074 32.237 152.402 32.843 152.402 33.5963C152.402 35.2585 154.965 34.7427 154.965 35.5533C154.965 35.8153 154.72 36.02 154.269 36.02C153.811 36.02 153.491 35.758 153.451 35.4141H152.296C152.345 36.2575 153.139 36.9208 154.278 36.9208C155.383 36.9208 156.063 36.3312 156.063 35.5533Z" fill="white"/>
<path d="M160.525 35.5533C160.492 33.8911 157.978 34.4069 157.978 33.5799C157.978 33.3179 158.199 33.1459 158.625 33.1459C159.075 33.1459 159.354 33.3834 159.386 33.7355H160.484C160.418 32.8348 159.755 32.237 158.658 32.237C157.536 32.237 156.864 32.843 156.864 33.5963C156.864 35.2585 159.427 34.7427 159.427 35.5533C159.427 35.8153 159.182 36.02 158.731 36.02C158.273 36.02 157.953 35.758 157.913 35.4141H156.758C156.807 36.2575 157.601 36.9208 158.74 36.9208C159.845 36.9208 160.525 36.3312 160.525 35.5533Z" fill="white"/>
</g>
<g id="Group_5">
<path id="Vector_11" opacity="0.6" d="M168.837 34.8378L167.756 36.1892L167.215 36.8649C167.215 37 167.08 37 166.945 37H165.323C165.053 37 164.918 36.7297 165.053 36.4595L166.404 34.7027C166.54 34.5676 166.54 34.4324 166.404 34.2973L165.053 32.5405C164.918 32.4054 165.053 32 165.323 32H166.945C167.08 32 167.08 32 167.215 32.1351L167.756 32.8108L168.837 34.1622C168.972 34.5676 168.972 34.7027 168.837 34.8378Z" fill="#AF0000"/>
<path id="Vector_12" opacity="0.8" d="M172.756 34.8378L171.675 36.1892L171.134 36.8649C171.134 37 170.999 37 170.864 37H169.242C168.972 37 168.837 36.7297 168.972 36.4595L170.323 34.7027C170.458 34.5676 170.458 34.4324 170.323 34.2973L168.972 32.5405C168.837 32.4054 168.972 32 169.242 32H170.864C170.999 32 170.999 32 171.134 32.1351L171.675 32.8108L172.756 34.1622C172.756 34.5676 172.756 34.7027 172.756 34.8378Z" fill="#AF0000"/>
<path id="Vector_13" d="M176.54 34.8378L175.459 36.1892L174.918 36.8649C174.918 37 174.783 37 174.648 37H173.026C172.756 37 172.621 36.7297 172.756 36.4595L174.107 34.7027C174.243 34.5676 174.243 34.4324 174.107 34.2973L172.756 32.5405C172.621 32.4054 172.756 32 173.026 32H174.648C174.783 32 174.783 32 174.918 32.1351L175.459 32.8108L176.54 34.1622C176.54 34.5676 176.54 34.7027 176.54 34.8378Z" fill="#AF0000"/>
</g>
</g>
</svg>
