<svg width="40" height="40" viewBox="0 0 40 40" fill="none" xmlns="http://www.w3.org/2000/svg">
<rect x="0.5" y="0.5" width="39" height="39" rx="19.5" fill="white" fill-opacity="0.9"/>
<rect x="0.5" y="0.5" width="39" height="39" rx="19.5" stroke="white"/>
<path fill-rule="evenodd" clip-rule="evenodd" d="M15.496 11H24.505C26.987 11 29 13.012 29 15.496V24.505C29 26.987 26.988 29 24.504 29H15.496C13.013 29 11 26.988 11 24.504V15.496C11 13.013 13.012 11 15.496 11V11Z" stroke="#AF0000" stroke-width="1.5" stroke-linecap="round" stroke-linejoin="round"/>
<path d="M24.949 14.7128C24.763 14.7138 24.612 14.8648 24.612 15.0508C24.612 15.2368 24.764 15.3878 24.95 15.3878C25.136 15.3878 25.287 15.2368 25.287 15.0508C25.288 14.8638 25.136 14.7128 24.949 14.7128" stroke="#AF0000" stroke-width="1.5" stroke-linecap="round" stroke-linejoin="round"/>
<path d="M22.5456 17.4543C23.9515 18.8602 23.9515 21.1396 22.5456 22.5455C21.1397 23.9514 18.8603 23.9514 17.4544 22.5455C16.0486 21.1396 16.0486 18.8602 17.4544 17.4543C18.8603 16.0484 21.1397 16.0484 22.5456 17.4543" stroke="#AF0000" stroke-width="1.5" stroke-linecap="round" stroke-linejoin="round"/>
</svg>
