<svg width="227" height="40" viewBox="0 0 227 40" fill="none" xmlns="http://www.w3.org/2000/svg">
<g id="Group">
<g id="Group_2">
<g id="Logo Efex">
<path id="Vector" fill-rule="evenodd" clip-rule="evenodd" d="M112.348 36.57H98.0582L94.3164 31.6144L101.531 21.8796L112.348 36.57Z" fill="#00194F"/>
<path id="Vector_2" fill-rule="evenodd" clip-rule="evenodd" d="M109.667 7.56323L101.525 18.8109L95.1611 9.89231H103.273L104.839 7.56323H109.667Z" fill="#00194F"/>
<path id="Vector_3" fill-rule="evenodd" clip-rule="evenodd" d="M95.842 8.65598C95.842 8.65598 102.314 8.53826 102.517 8.65598C102.721 8.77371 105.785 4.37646 105.785 4.37646H99.0159L95.842 8.65598Z" fill="#00194F"/>
<path id="Vector_4" fill-rule="evenodd" clip-rule="evenodd" d="M102.043 3.32975C102.043 3.32975 107.629 3.04339 107.629 3.32975C107.629 3.61452 109.996 0 109.996 0H104.554L102.043 3.32975Z" fill="#00194F"/>
<path id="Vector_5" fill-rule="evenodd" clip-rule="evenodd" d="M107.583 4.44653H110.873L109.287 6.49084H106.116L107.583 4.44653Z" fill="#00194F"/>
<path id="Vector_6" fill-rule="evenodd" clip-rule="evenodd" d="M110.719 0.854248H113.56L112.413 2.83969H109.276L110.719 0.854248Z" fill="#00194F"/>
<g id="Group_3">
<path id="Vector_7" fill-rule="evenodd" clip-rule="evenodd" d="M73.0794 4.28906H87.7475L99.2927 20.4701L87.3689 36.5589H72.8901L85.0032 20.4701L73.0794 4.28906Z" fill="#AF0000"/>
</g>
<g id="Group_4">
<path id="Vector_8" d="M10.1181 12.3533V16.3195H20.1456V23.9303H10.1181V28.4882H21.5121V36.5557H0V4.28589H21.5121V12.3533H10.1181Z" fill="#00194F"/>
<path id="Vector_9" d="M48.1311 4.28589V12.3072H35.4611V16.7745H44.577V24.3853H35.4611V36.5541H25.343V4.28589H48.1311Z" fill="#00194F"/>
<path id="Vector_10" d="M61.6665 12.3533V16.3195H71.6939V23.9303H61.6665V28.4882H73.0605V36.5557H51.5483V4.28589H73.0605V12.3533H61.6665Z" fill="#00194F"/>
</g>
</g>
</g>
<g id="eCommerce Fulfillment">
<path d="M123.65 22.4779C124.286 22.4779 124.798 22.884 124.815 23.5284H122.494C122.591 22.8575 123.059 22.4779 123.65 22.4779ZM125.972 24.8966H124.639C124.48 25.2232 124.189 25.488 123.659 25.488C123.041 25.488 122.547 25.082 122.485 24.3581H126.06C126.086 24.1992 126.095 24.0403 126.095 23.8814C126.095 22.425 125.098 21.4628 123.685 21.4628C122.238 21.4628 121.231 22.4426 121.231 23.9874C121.231 25.5233 122.264 26.512 123.685 26.512C124.895 26.512 125.707 25.797 125.972 24.8966Z" fill="#00194F"/>
<path d="M126.697 23.343C126.697 25.1879 128.048 26.4855 129.822 26.4855C131.19 26.4855 132.302 25.7616 132.717 24.4905H131.296C131.005 25.0908 130.475 25.3821 129.813 25.3821C128.736 25.3821 127.968 24.5876 127.968 23.343C127.968 22.0895 128.736 21.3039 129.813 21.3039C130.475 21.3039 131.005 21.5952 131.296 22.1866H132.717C132.302 20.9243 131.19 20.1917 129.822 20.1917C128.048 20.1917 126.697 21.4981 126.697 23.343Z" fill="#00194F"/>
<path d="M138.495 23.9874C138.495 22.4426 137.392 21.4628 135.98 21.4628C134.567 21.4628 133.464 22.4426 133.464 23.9874C133.464 25.5233 134.532 26.512 135.944 26.512C137.366 26.512 138.495 25.5233 138.495 23.9874ZM134.717 23.9874C134.717 23.0075 135.309 22.5397 135.962 22.5397C136.615 22.5397 137.224 23.0075 137.224 23.9874C137.224 24.9584 136.598 25.435 135.944 25.435C135.282 25.435 134.717 24.9584 134.717 23.9874Z" fill="#00194F"/>
<path d="M146.243 26.4325H147.479V23.5637C147.479 22.2131 146.649 21.4716 145.475 21.4716C144.76 21.4716 144.116 21.8512 143.798 22.4073C143.462 21.7982 142.836 21.4716 142.077 21.4716C141.468 21.4716 140.947 21.7276 140.638 22.1337V21.5422H139.402V26.4325H140.638V23.7314C140.638 22.9546 141.07 22.5485 141.741 22.5485C142.394 22.5485 142.827 22.9546 142.827 23.7314V26.4325H144.063V23.7314C144.063 22.9546 144.495 22.5485 145.157 22.5485C145.811 22.5485 146.243 22.9546 146.243 23.7314V26.4325Z" fill="#00194F"/>
<path d="M155.493 26.4325H156.729V23.5637C156.729 22.2131 155.899 21.4716 154.725 21.4716C154.01 21.4716 153.365 21.8512 153.048 22.4073C152.712 21.7982 152.085 21.4716 151.326 21.4716C150.717 21.4716 150.196 21.7276 149.887 22.1337V21.5422H148.652V26.4325H149.887V23.7314C149.887 22.9546 150.32 22.5485 150.991 22.5485C151.644 22.5485 152.077 22.9546 152.077 23.7314V26.4325H153.312V23.7314C153.312 22.9546 153.745 22.5485 154.407 22.5485C155.06 22.5485 155.493 22.9546 155.493 23.7314V26.4325Z" fill="#00194F"/>
<path d="M160.002 22.4779C160.638 22.4779 161.15 22.884 161.167 23.5284H158.846C158.943 22.8575 159.411 22.4779 160.002 22.4779ZM162.324 24.8966H160.991C160.832 25.2232 160.541 25.488 160.011 25.488C159.393 25.488 158.899 25.082 158.837 24.3581H162.412C162.438 24.1992 162.447 24.0403 162.447 23.8814C162.447 22.425 161.45 21.4628 160.037 21.4628C158.59 21.4628 157.583 22.4426 157.583 23.9874C157.583 25.5233 158.616 26.512 160.037 26.512C161.247 26.512 162.059 25.797 162.324 24.8966Z" fill="#00194F"/>
<path d="M164.585 23.9962C164.585 23.0517 165.026 22.7692 165.759 22.7692H166.086V21.4716C165.406 21.4716 164.894 21.7982 164.585 22.3014V21.5422H163.349V26.4325H164.585V23.9962Z" fill="#00194F"/>
<path d="M166.6 23.9874C166.6 25.5233 167.607 26.512 169.019 26.512C170.237 26.512 171.058 25.8234 171.323 24.7818H169.99C169.84 25.2232 169.522 25.4527 169.01 25.4527C168.322 25.4527 167.863 24.9407 167.863 23.9874C167.863 23.034 168.322 22.5132 169.01 22.5132C169.522 22.5132 169.849 22.778 169.99 23.1929H171.323C171.058 22.0983 170.237 21.4628 169.019 21.4628C167.607 21.4628 166.6 22.4514 166.6 23.9874Z" fill="#00194F"/>
<path d="M174.329 22.4779C174.965 22.4779 175.477 22.884 175.494 23.5284H173.173C173.27 22.8575 173.738 22.4779 174.329 22.4779ZM176.651 24.8966H175.318C175.159 25.2232 174.868 25.488 174.338 25.488C173.72 25.488 173.226 25.082 173.164 24.3581H176.739C176.765 24.1992 176.774 24.0403 176.774 23.8814C176.774 22.425 175.777 21.4628 174.364 21.4628C172.917 21.4628 171.91 22.4426 171.91 23.9874C171.91 25.5233 172.943 26.512 174.364 26.512C175.574 26.512 176.386 25.797 176.651 24.8966Z" fill="#00194F"/>
<path d="M179.78 26.4325H181.015V23.8285H182.984V22.8487H181.015V21.2686H183.584V20.2711H179.78V26.4325Z" fill="#00194F"/>
<path d="M189.077 21.5422H187.833V24.2345C187.833 25.0202 187.409 25.4439 186.738 25.4439C186.085 25.4439 185.652 25.0202 185.652 24.2345V21.5422H184.416V24.4111C184.416 25.7528 185.237 26.4943 186.376 26.4943C186.985 26.4943 187.524 26.2295 187.833 25.8146V26.4325H189.077V21.5422Z" fill="#00194F"/>
<path d="M190.297 26.4325H191.532V19.9004H190.297V26.4325Z" fill="#00194F"/>
<path d="M192.886 26.4325H194.139V22.5574H194.995V21.5422H194.139V21.3392C194.139 20.7919 194.342 20.5977 194.942 20.6154V19.5738C193.565 19.5384 192.886 20.0946 192.886 21.2951V21.5422H192.33V22.5574H192.886V26.4325Z" fill="#00194F"/>
<path d="M195.796 26.4325H197.032V21.5422H195.796V26.4325ZM196.423 20.9596C196.856 20.9596 197.182 20.6418 197.182 20.2358C197.182 19.8297 196.856 19.512 196.423 19.512C195.982 19.512 195.664 19.8297 195.664 20.2358C195.664 20.6418 195.982 20.9596 196.423 20.9596Z" fill="#00194F"/>
<path d="M198.253 26.4325H199.489V19.9004H198.253V26.4325Z" fill="#00194F"/>
<path d="M200.71 26.4325H201.946V19.9004H200.71V26.4325Z" fill="#00194F"/>
<path d="M210.008 26.4325H211.244V23.5637C211.244 22.2131 210.414 21.4716 209.24 21.4716C208.525 21.4716 207.88 21.8512 207.563 22.4073C207.227 21.7982 206.6 21.4716 205.841 21.4716C205.232 21.4716 204.711 21.7276 204.402 22.1337V21.5422H203.167V26.4325H204.402V23.7314C204.402 22.9546 204.835 22.5485 205.506 22.5485C206.159 22.5485 206.592 22.9546 206.592 23.7314V26.4325H207.827V23.7314C207.827 22.9546 208.26 22.5485 208.922 22.5485C209.575 22.5485 210.008 22.9546 210.008 23.7314V26.4325Z" fill="#00194F"/>
<path d="M214.517 22.4779C215.153 22.4779 215.665 22.884 215.682 23.5284H213.361C213.458 22.8575 213.926 22.4779 214.517 22.4779ZM216.839 24.8966H215.506C215.347 25.2232 215.056 25.488 214.526 25.488C213.908 25.488 213.414 25.082 213.352 24.3581H216.927C216.954 24.1992 216.962 24.0403 216.962 23.8814C216.962 22.425 215.965 21.4628 214.553 21.4628C213.105 21.4628 212.099 22.4426 212.099 23.9874C212.099 25.5233 213.131 26.512 214.553 26.512C215.762 26.512 216.574 25.797 216.839 24.8966Z" fill="#00194F"/>
<path d="M221.289 26.4325H222.525V23.5637C222.525 22.2131 221.713 21.4716 220.574 21.4716C219.948 21.4716 219.418 21.7364 219.1 22.1513V21.5422H217.864V26.4325H219.1V23.7314C219.1 22.9458 219.533 22.5221 220.204 22.5221C220.857 22.5221 221.289 22.9458 221.289 23.7314V26.4325Z" fill="#00194F"/>
<path d="M223.895 24.9142C223.895 26.0353 224.521 26.4325 225.457 26.4325H226.234V25.3909H225.66C225.272 25.3909 225.139 25.2497 225.139 24.9231V22.5574H226.234V21.5422H225.139V20.3329H223.895V21.5422H223.312V22.5574H223.895V24.9142Z" fill="#00194F"/>
</g>
<g id="&#38; Express">
<path d="M125.356 32.4584C125.397 31.6723 124.84 31.009 123.767 31.009C122.719 31.009 122.089 31.615 122.089 32.3929C122.089 32.7695 122.203 33.0807 122.506 33.4492C121.663 33.8258 121.245 34.4563 121.245 35.1933C121.245 36.2578 122.08 36.9456 123.358 36.9456C124.136 36.9456 124.766 36.7081 125.298 36.2332L125.921 36.8473H127.329L125.945 35.4799C126.068 35.2915 126.183 35.095 126.297 34.8739L126.871 33.8668H125.675L125.208 34.6447C125.192 34.6692 125.184 34.6938 125.167 34.7102L123.726 33.2854C123.366 32.9087 123.202 32.6631 123.202 32.3847C123.202 32.1063 123.423 31.9016 123.734 31.9016C124.037 31.9016 124.258 32.0899 124.242 32.4584H125.356ZM123.39 35.9957C122.768 35.9957 122.375 35.6109 122.375 35.1278C122.375 34.7102 122.629 34.3662 123.169 34.1288L124.578 35.5208C124.242 35.832 123.857 35.9957 123.39 35.9957Z" fill="#00194F"/>
<path d="M133.164 31.1237H129.848V36.8473H133.164V35.9138H130.994V34.399H132.918V33.4901H130.994V32.0571H133.164V31.1237Z" fill="#00194F"/>
<path d="M136.711 36.8473H138.005L136.499 34.571L137.989 32.311H136.761L135.925 33.7112L135 32.311H133.706L135.205 34.571L133.723 36.8473H134.951L135.778 35.4389L136.711 36.8473Z" fill="#00194F"/>
<path d="M139.774 32.966V32.311H138.628V39.009H139.774V36.2004C140.053 36.5689 140.56 36.921 141.273 36.921C142.435 36.921 143.344 35.9794 143.344 34.5628C143.344 33.1462 142.435 32.2373 141.273 32.2373C140.568 32.2373 140.044 32.5812 139.774 32.966ZM142.173 34.5628C142.173 35.4225 141.592 35.9138 140.97 35.9138C140.356 35.9138 139.774 35.4389 139.774 34.5791C139.774 33.7194 140.356 33.2444 140.97 33.2444C141.592 33.2444 142.173 33.703 142.173 34.5628Z" fill="#00194F"/>
<path d="M145.324 34.5873C145.324 33.7112 145.733 33.4492 146.413 33.4492H146.716V32.2455C146.085 32.2455 145.61 32.5484 145.324 33.0152V32.311H144.177V36.8473H145.324V34.5873Z" fill="#00194F"/>
<path d="M149.437 33.1789C150.026 33.1789 150.501 33.5556 150.518 34.1534H148.364C148.454 33.531 148.888 33.1789 149.437 33.1789ZM151.59 35.4225H150.354C150.206 35.7255 149.936 35.9712 149.445 35.9712C148.872 35.9712 148.413 35.5945 148.356 34.9231H151.672C151.697 34.7757 151.705 34.6283 151.705 34.4809C151.705 33.1298 150.78 32.2373 149.469 32.2373C148.127 32.2373 147.193 33.1462 147.193 34.5791C147.193 36.0039 148.151 36.921 149.469 36.921C150.591 36.921 151.345 36.2578 151.59 35.4225Z" fill="#00194F"/>
<path d="M156.063 35.5536C156.03 33.8913 153.516 34.4072 153.516 33.5802C153.516 33.3181 153.737 33.1462 154.163 33.1462C154.613 33.1462 154.892 33.3836 154.924 33.7357H156.022C155.956 32.835 155.293 32.2373 154.196 32.2373C153.074 32.2373 152.402 32.8432 152.402 33.5965C152.402 35.2588 154.965 34.7429 154.965 35.5536C154.965 35.8156 154.72 36.0203 154.269 36.0203C153.811 36.0203 153.491 35.7583 153.451 35.4144H152.296C152.345 36.2578 153.139 36.921 154.278 36.921C155.383 36.921 156.063 36.3314 156.063 35.5536Z" fill="#00194F"/>
<path d="M160.525 35.5536C160.492 33.8913 157.978 34.4072 157.978 33.5802C157.978 33.3181 158.199 33.1462 158.625 33.1462C159.075 33.1462 159.354 33.3836 159.386 33.7357H160.484C160.418 32.835 159.755 32.2373 158.658 32.2373C157.536 32.2373 156.864 32.8432 156.864 33.5965C156.864 35.2588 159.427 34.7429 159.427 35.5536C159.427 35.8156 159.182 36.0203 158.731 36.0203C158.273 36.0203 157.953 35.7583 157.913 35.4144H156.758C156.807 36.2578 157.601 36.921 158.74 36.921C159.845 36.921 160.525 36.3314 160.525 35.5536Z" fill="#00194F"/>
</g>
<g id="Group_5">
<path id="Vector_11" opacity="0.6" d="M168.837 34.8378L167.756 36.1892L167.215 36.8649C167.215 37 167.08 37 166.945 37H165.323C165.053 37 164.918 36.7297 165.053 36.4595L166.404 34.7027C166.54 34.5676 166.54 34.4324 166.404 34.2973L165.053 32.5405C164.918 32.4054 165.053 32 165.323 32H166.945C167.08 32 167.08 32 167.215 32.1351L167.756 32.8108L168.837 34.1622C168.972 34.5676 168.972 34.7027 168.837 34.8378Z" fill="#AF0000"/>
<path id="Vector_12" opacity="0.8" d="M172.756 34.8378L171.675 36.1892L171.134 36.8649C171.134 37 170.999 37 170.864 37H169.242C168.972 37 168.837 36.7297 168.972 36.4595L170.324 34.7027C170.459 34.5676 170.459 34.4324 170.324 34.2973L168.972 32.5405C168.837 32.4054 168.972 32 169.242 32H170.864C170.999 32 170.999 32 171.134 32.1351L171.675 32.8108L172.756 34.1622C172.756 34.5676 172.756 34.7027 172.756 34.8378Z" fill="#AF0000"/>
<path id="Vector_13" d="M176.539 34.8378L175.458 36.1892L174.918 36.8649C174.918 37 174.783 37 174.648 37H173.026C172.756 37 172.621 36.7297 172.756 36.4595L174.107 34.7027C174.242 34.5676 174.242 34.4324 174.107 34.2973L172.756 32.5405C172.621 32.4054 172.756 32 173.026 32H174.648C174.783 32 174.783 32 174.918 32.1351L175.458 32.8108L176.539 34.1622C176.539 34.5676 176.539 34.7027 176.539 34.8378Z" fill="#AF0000"/>
</g>
</g>
</svg>
