<svg width="114" height="37" viewBox="0 0 114 37" fill="none" xmlns="http://www.w3.org/2000/svg">
<g id="Group">
<g id="Group_2">
<g id="Logo Efex">
<path id="Vector" fill-rule="evenodd" clip-rule="evenodd" d="M112.348 36.57H98.0583L94.3165 31.6144L101.531 21.8796L112.348 36.57Z" fill="#00194F"/>
<path id="Vector_2" fill-rule="evenodd" clip-rule="evenodd" d="M109.667 7.56323L101.525 18.8109L95.1613 9.89231H103.273L104.839 7.56323H109.667Z" fill="#00194F"/>
<path id="Vector_3" fill-rule="evenodd" clip-rule="evenodd" d="M95.8422 8.65598C95.8422 8.65598 102.314 8.53826 102.518 8.65598C102.721 8.77371 105.785 4.37646 105.785 4.37646H99.016L95.8422 8.65598Z" fill="#00194F"/>
<path id="Vector_4" fill-rule="evenodd" clip-rule="evenodd" d="M102.043 3.32975C102.043 3.32975 107.629 3.04339 107.629 3.32975C107.629 3.61452 109.996 0 109.996 0H104.554L102.043 3.32975Z" fill="#00194F"/>
<path id="Vector_5" fill-rule="evenodd" clip-rule="evenodd" d="M107.583 4.44653H110.873L109.287 6.49084H106.116L107.583 4.44653Z" fill="#00194F"/>
<path id="Vector_6" fill-rule="evenodd" clip-rule="evenodd" d="M110.719 0.854248H113.56L112.413 2.83969H109.276L110.719 0.854248Z" fill="#00194F"/>
<g id="Group_3">
<path id="Vector_7" fill-rule="evenodd" clip-rule="evenodd" d="M73.0796 4.28906H87.7477L99.2928 20.4701L87.369 36.5589H72.8903L85.0034 20.4701L73.0796 4.28906Z" fill="#AF0000"/>
</g>
<g id="Group_4">
<path id="Vector_8" d="M10.1181 12.3533V16.3195H20.1456V23.9303H10.1181V28.4882H21.5121V36.5557H0V4.28589H21.5121V12.3533H10.1181Z" fill="#00194F"/>
<path id="Vector_9" d="M48.1311 4.28589V12.3072H35.4611V16.7745H44.577V24.3853H35.4611V36.5541H25.343V4.28589H48.1311Z" fill="#00194F"/>
<path id="Vector_10" d="M61.6665 12.3533V16.3195H71.6939V23.9303H61.6665V28.4882H73.0605V36.5557H51.5483V4.28589H73.0605V12.3533H61.6665Z" fill="#00194F"/>
</g>
</g>
</g>
</g>
</svg>
