<svg xmlns="http://www.w3.org/2000/svg" width="97" height="31" viewBox="0 0 97 31" fill="none">
  <path fill-rule="evenodd" clip-rule="evenodd" d="M95.0678 30.0523H83.0928L79.957 25.9798L86.0032 17.98L95.0678 30.0523Z" fill="#00194F"/>
  <path fill-rule="evenodd" clip-rule="evenodd" d="M92.8214 6.21582L85.9979 15.459L80.665 8.12982H87.4631L88.775 6.21582H92.8214Z" fill="#00194F"/>
  <path fill-rule="evenodd" clip-rule="evenodd" d="M81.2354 7.11352C81.2354 7.11352 86.6589 7.01677 86.8296 7.11352C87.0002 7.21026 89.568 3.59668 89.568 3.59668H83.8951L81.2354 7.11352Z" fill="#00194F"/>
  <path fill-rule="evenodd" clip-rule="evenodd" d="M86.4326 2.73634C86.4326 2.73634 91.1136 2.50101 91.1136 2.73634C91.1136 2.97036 93.0974 0 93.0974 0H88.5364L86.4326 2.73634Z" fill="#00194F"/>
  <path fill-rule="evenodd" clip-rule="evenodd" d="M91.0749 3.65381H93.832L92.5028 5.33379H89.8457L91.0749 3.65381Z" fill="#00194F"/>
  <path fill-rule="evenodd" clip-rule="evenodd" d="M93.7024 0.702148H96.0835L95.1223 2.33375H92.4932L93.7024 0.702148Z" fill="#00194F"/>
  <path fill-rule="evenodd" clip-rule="evenodd" d="M62.1596 3.52441H74.4519L84.1271 16.8217L74.1346 30.0432H62.001L72.1521 16.8217L62.1596 3.52441Z" fill="#AF0000"/>
  <path d="M9.39628 10.1522V13.4114H17.7996V19.6659H9.39628V23.4116H18.9448V30.0413H0.916992V3.52246H18.9448V10.1522H9.39628Z" fill="#00194F"/>
  <path d="M41.2523 3.52246V10.1142H30.6346V13.7854H38.2739V20.0398H30.6346V30.04H22.1553V3.52246H41.2523Z" fill="#00194F"/>
  <path d="M52.5955 10.1522V13.4114H60.9988V19.6659H52.5955V23.4116H62.144V30.0413H44.1162V3.52246H62.144V10.1522H52.5955Z" fill="#00194F"/>
</svg>