<svg width="320" height="155" viewBox="0 0 320 155" fill="none" xmlns="http://www.w3.org/2000/svg">
<path d="M48.9839 18.6231C48.9839 9.17754 57.1206 1.79622 66.5367 2.54193C96.3309 4.90151 128.83 6.20178 162.855 6.20178C194.754 6.20178 225.312 5.059 253.557 2.97145C262.94 2.27798 271.015 9.64684 271.015 19.0552V72.5901C271.015 81.9984 262.94 89.3673 253.557 88.6738C225.312 86.5862 194.754 85.4432 162.855 85.4432C128.83 85.4432 96.3309 86.7437 66.5367 89.1033C57.1206 89.8491 48.9839 82.4678 48.9839 73.0222V18.6231Z" fill="#96BEFF"/>
<path d="M104.491 4.91797V86.7276" stroke="white" stroke-width="0.75" stroke-miterlimit="10"/>
<path d="M160 6.20215V85.4435" stroke="white" stroke-width="0.75" stroke-miterlimit="10"/>
<path d="M215.508 4.91797V86.7276" stroke="white" stroke-width="0.75" stroke-miterlimit="10"/>
<path d="M48.9839 30.8818C83.3847 31.9914 122.021 32.616 162.855 32.616C201.444 32.616 238.071 32.0584 271.015 31.0603" stroke="white" stroke-width="0.75" stroke-miterlimit="10"/>
<path d="M48.9839 60.7636C83.3847 59.654 122.021 59.0298 162.855 59.0298C201.444 59.0298 238.071 59.5874 271.015 60.5855" stroke="white" stroke-width="0.75" stroke-miterlimit="10"/>
<path d="M66.5369 2.54209C57.1207 1.79631 48.9839 9.17765 48.9839 18.6233V73.0222C48.9839 82.4677 57.1206 89.8491 66.5367 89.1034C96.3309 86.7438 128.83 85.4435 162.855 85.4435C194.754 85.4435 225.312 86.5863 253.557 88.6738C262.94 89.3673 271.015 81.9985 271.015 72.5901V19.0552C271.015 9.64686 262.94 2.27798 253.557 2.97145C225.312 5.059 194.754 6.20178 162.855 6.20178C128.829 6.20207 96.3309 4.90186 66.5369 2.54209Z" stroke="white" stroke-width="4" stroke-miterlimit="10" stroke-linejoin="round"/>
<path d="M270.764 124.032C271.669 123.31 272.961 120.704 272.328 119.735C272.144 119.454 271.994 119.183 271.873 118.939C271.567 118.324 271.834 117.612 272.461 117.331C274.995 116.194 279.278 115.483 282.727 115.732C283.157 115.763 283.537 114.6 283.427 114.184C283.362 113.938 283.624 114.027 283.878 114.045C284.011 114.054 284.165 114.068 284.332 114.088C285.004 114.167 285.803 113.475 285.725 112.802C285.629 111.981 285.572 111.114 285.538 110.407C285.496 109.538 286.092 108.783 286.952 108.65C288.342 108.435 290.564 108.185 292.922 108.299C295.128 108.405 297.808 106.018 298.068 103.824C298.14 103.213 298.234 102.69 298.32 102.304C298.406 101.914 298.777 101.743 299.09 101.992C299.638 102.428 300.559 102.119 300.736 101.442C301.016 100.371 301.439 99.4506 301.818 98.7655C302.248 97.9869 302.494 97.3272 303.226 97.8323C304.478 98.6963 307.371 98.7074 307.959 97.3042C308.529 95.9423 309.184 94.7653 309.793 93.8645C310.246 93.193 311.622 93.2717 312.261 93.7713C313.439 94.6935 315.093 94.0515 315.828 92.7488C316.026 92.3986 316.241 92.0333 316.472 91.6609C317.627 89.7966 320 90.7361 320 92.9293V113.314C320 119.829 314.719 125.11 308.205 125.11H272.349C271.277 125.11 269.927 124.7 270.764 124.032Z" fill="#4D8A50"/>
<path opacity="0.3" d="M270.764 124.032C271.669 123.31 272.961 120.704 272.328 119.735C272.144 119.454 271.994 119.183 271.873 118.939C271.567 118.324 271.834 117.612 272.461 117.331C274.995 116.194 279.278 115.483 282.727 115.732C283.157 115.763 283.537 114.6 283.427 114.184C283.362 113.938 283.624 114.027 283.878 114.045C284.011 114.054 284.165 114.068 284.332 114.088C285.004 114.167 285.803 113.475 285.725 112.802C285.629 111.981 285.572 111.114 285.538 110.407C285.496 109.538 286.092 108.783 286.952 108.65C288.342 108.435 290.564 108.185 292.922 108.299C295.128 108.405 297.808 106.018 298.068 103.824C298.14 103.213 298.234 102.69 298.32 102.304C298.406 101.914 298.777 101.743 299.09 101.992C299.638 102.428 300.559 102.119 300.736 101.442C301.016 100.371 301.439 99.4506 301.818 98.7655C302.248 97.9869 302.494 97.3272 303.226 97.8323C304.478 98.6963 307.371 98.7074 307.959 97.3042C308.529 95.9423 309.184 94.7653 309.793 93.8645C310.246 93.193 311.622 93.2717 312.261 93.7713C313.439 94.6935 315.093 94.0515 315.828 92.7488C316.026 92.3986 316.241 92.0333 316.472 91.6609C317.627 89.7966 320 90.7361 320 92.9293V113.314C320 119.829 314.719 125.11 308.205 125.11H272.349C271.277 125.11 269.927 124.7 270.764 124.032Z" fill="#58694B"/>
<path d="M309.28 90.8275C308.714 90.1927 308.26 89.4754 307.834 88.7395C306.281 86.0601 302.155 79.2453 298.874 76.572C294.747 73.2109 291.105 72.1532 287.826 71.828C284.547 71.5028 280.199 72.3161 280.061 72.587C279.922 72.8585 284.197 75.813 288.062 78.0088C291.926 80.205 298.42 83.4575 300.486 84.8136C302.552 86.1689 308.193 89.8351 309.308 91.296C310.227 92.4992 316.886 102.352 319.206 105.788C319.447 106.145 320 105.968 320 105.538C320 105.446 319.977 105.365 319.924 105.291C319.001 104.013 310.039 91.6076 309.595 91.1641C309.496 91.0651 309.389 90.9491 309.28 90.8275Z" fill="#7EB85E"/>
<path d="M319.324 94.1019C318.903 92.8411 318.7 91.5158 318.579 90.1919C318.444 88.7099 318.194 87.3394 317.848 86.0717C315.202 76.3603 304.675 82.9449 312.632 89.1098C315.529 91.355 319.223 94.4616 319.839 98.075C319.905 98.4633 319.961 98.8504 320 99.2284V98.2584C320 96.8455 319.772 95.4419 319.324 94.1019Z" fill="#7EB85E"/>
<path opacity="0.3" d="M284.943 73.5467C284.972 73.5428 285 73.55 285.029 73.5554C285.148 73.5779 285.51 73.6497 286.048 73.7873C286.382 73.8726 286.786 73.9816 287.243 74.1185C287.703 74.2511 288.214 74.4179 288.765 74.6119C289.316 74.8062 289.906 75.0291 290.524 75.2774C291.14 75.5278 291.783 75.8039 292.431 76.115C293.084 76.4194 293.741 76.759 294.4 77.1152C295.052 77.4782 295.711 77.8538 296.344 78.2579C296.662 78.4593 296.979 78.6604 297.284 78.8716C297.438 78.9757 297.592 79.0801 297.746 79.1838C297.895 79.2906 298.045 79.3978 298.194 79.504C298.494 79.7152 298.779 79.935 299.061 80.1529C299.347 80.3674 299.617 80.5885 299.882 80.8079C300.015 80.9172 300.147 81.0255 300.278 81.1323C300.403 81.2438 300.527 81.3542 300.651 81.4625C300.897 81.679 301.138 81.8934 301.36 82.1089C301.819 82.5311 302.225 82.9504 302.603 83.3335C302.789 83.5281 302.96 83.7179 303.123 83.8988C303.287 84.0798 303.443 84.2497 303.578 84.4169C303.852 84.7491 304.103 85.0313 304.286 85.2761C304.594 85.6795 304.793 85.9397 304.852 86.0173C304.864 86.0337 304.879 86.0494 304.884 86.0693C304.893 86.1043 304.876 86.1421 304.838 86.1624C304.791 86.1867 304.728 86.1765 304.696 86.1402C304.694 86.1383 304.692 86.1364 304.691 86.1345C304.665 86.105 304.437 85.8442 304.056 85.4083C303.859 85.1734 303.592 84.904 303.302 84.5873C303.158 84.4275 302.993 84.2653 302.821 84.0939C302.65 83.9217 302.47 83.7405 302.282 83.5514C301.893 83.1822 301.477 82.7794 301.008 82.3742C300.781 82.1668 300.537 81.9622 300.284 81.7548C300.035 81.5446 299.777 81.3334 299.508 81.1246C299.242 80.9123 298.971 80.6978 298.686 80.4905C298.545 80.3854 298.403 80.2795 298.26 80.1737C298.113 80.0704 297.966 79.9667 297.82 79.8627C297.672 79.7586 297.525 79.6539 297.377 79.5491C297.225 79.4479 297.072 79.346 296.92 79.2444C296.618 79.0377 296.304 78.8413 295.99 78.6448C295.361 78.2523 294.72 77.8746 294.077 77.5166C293.428 77.1653 292.788 76.8218 292.15 76.5136C291.516 76.2007 290.89 75.9168 290.294 75.6516C289.694 75.3906 289.121 75.1554 288.583 74.9494C288.045 74.7466 287.55 74.5642 287.106 74.4108C286.663 74.256 286.272 74.1319 285.948 74.0335C285.449 73.881 285.113 73.7907 284.984 73.7572C284.945 73.747 284.902 73.7413 284.872 73.7142C284.844 73.6889 284.832 73.6525 284.845 73.6173C284.859 73.5786 284.898 73.5526 284.943 73.5467Z" fill="#58694B"/>
<path opacity="0.3" d="M306.184 74.2361C306.212 74.2479 306.233 74.272 306.254 74.2936C306.282 74.3215 306.327 74.3671 306.39 74.429C306.497 74.5387 306.658 74.6988 306.853 74.9069C307.048 75.116 307.286 75.3696 307.557 75.6606C307.825 75.9533 308.128 76.2841 308.444 76.6527C308.763 77.0206 309.11 77.418 309.465 77.8458C309.642 78.0589 309.83 78.2758 310.013 78.5022C310.195 78.729 310.379 78.961 310.568 79.1973C310.948 79.6675 311.32 80.1651 311.703 80.6666C312.074 81.1756 312.459 81.6887 312.824 82.2125C313.179 82.7394 313.554 83.2578 313.888 83.784C314.222 84.3106 314.565 84.822 314.861 85.333C315.164 85.8416 315.46 86.3304 315.709 86.8076C315.838 87.0446 315.962 87.2749 316.083 87.4982C316.204 87.7207 316.321 87.9355 316.42 88.1475C316.628 88.5665 316.808 88.9544 316.971 89.2969C317.13 89.6408 317.246 89.9479 317.353 90.1966C317.513 90.5896 317.619 90.8501 317.657 90.9441C317.667 90.9701 317.682 90.9968 317.677 91.0244C317.671 91.0557 317.645 91.0832 317.606 91.0938C317.553 91.1086 317.496 91.0864 317.475 91.0448C317.473 91.042 317.472 91.0393 317.47 91.0363C317.452 90.9997 317.316 90.7282 317.09 90.2777C316.968 90.0358 316.833 89.7374 316.653 89.4037C316.469 89.0708 316.259 88.697 316.041 88.2854C315.934 88.0784 315.808 87.8681 315.679 87.6509C315.55 87.4333 315.417 87.2083 315.28 86.9766C315.017 86.51 314.692 86.0363 314.385 85.5351C314.081 85.0329 313.727 84.53 313.386 84.0119C313.05 83.4913 312.673 82.9785 312.316 82.4569C311.944 81.9416 311.573 81.4263 311.207 80.9195C310.825 80.4205 310.467 79.9203 310.099 79.4467C309.733 78.9723 309.378 78.5142 309.042 78.0793C308.706 77.6448 308.379 77.2389 308.077 76.8643C307.773 76.4901 307.495 76.1473 307.248 75.8433C306.998 75.5417 306.78 75.2779 306.599 75.0614C306.246 74.6405 306.04 74.3956 306.03 74.3839C306.029 74.3836 306.029 74.3833 306.029 74.3828C306.029 74.3823 306.029 74.3819 306.029 74.3815C305.991 74.3364 306.004 74.2748 306.059 74.2431C306.098 74.2211 306.145 74.2199 306.184 74.2361Z" fill="#58694B"/>
<path d="M319.232 117.861C318.754 116.431 318.524 114.927 318.387 113.425C318.234 111.743 317.95 110.187 317.558 108.749C314.556 97.7299 302.611 105.201 311.638 112.196C314.926 114.744 319.117 118.27 319.817 122.37C319.892 122.81 319.954 123.25 320 123.678V122.577C320 120.974 319.74 119.382 319.232 117.861Z" fill="#7EB85E"/>
<path opacity="0.3" d="M304.277 95.3074C304.344 95.314 304.391 95.3719 304.438 95.4197C304.468 95.4499 304.508 95.4895 304.556 95.5377C304.679 95.6622 304.861 95.8438 305.083 96.0808C305.304 96.3178 305.573 96.6049 305.881 96.9357C306.186 97.2676 306.529 97.6432 306.888 98.0615C307.25 98.4788 307.643 98.9305 308.045 99.4151C308.248 99.6571 308.46 99.9033 308.668 100.16C308.874 100.417 309.084 100.681 309.298 100.948C309.73 101.482 310.151 102.046 310.586 102.616C311.007 103.193 311.444 103.775 311.857 104.369C312.261 104.967 312.686 105.555 313.066 106.153C313.445 106.751 313.834 107.331 314.17 107.911C314.513 108.487 314.85 109.042 315.132 109.583C315.278 109.853 315.419 110.114 315.556 110.367C315.693 110.62 315.827 110.863 315.939 111.104C316.175 111.58 316.379 112.02 316.564 112.408C316.745 112.798 316.876 113.147 316.997 113.429C317.218 113.973 317.348 114.294 317.359 114.32C317.359 114.321 317.36 114.322 317.36 114.323C317.38 114.374 317.346 114.43 317.284 114.447C317.224 114.463 317.159 114.439 317.135 114.391C317.134 114.388 317.132 114.385 317.131 114.382C317.111 114.342 316.956 114.034 316.699 113.521C316.56 113.246 316.406 112.908 316.202 112.528C315.994 112.151 315.755 111.727 315.508 111.259C315.387 111.025 315.244 110.787 315.097 110.54C314.951 110.293 314.8 110.037 314.645 109.774C314.346 109.245 313.978 108.708 313.629 108.139C313.283 107.569 312.883 106.999 312.496 106.411C312.115 105.82 311.687 105.238 311.28 104.646C310.86 104.061 310.438 103.477 310.023 102.902C309.59 102.335 309.183 101.768 308.766 101.231C308.35 100.693 307.948 100.172 307.567 99.6793C307.186 99.1859 306.815 98.7256 306.472 98.3003C306.127 97.876 305.811 97.4867 305.532 97.1421C305.248 96.7993 305 96.5009 304.796 96.2547C304.394 95.7765 304.16 95.4986 304.15 95.4856C304.149 95.4852 304.149 95.4849 304.149 95.4845C304.148 95.484 304.148 95.4835 304.148 95.4831C304.105 95.432 304.12 95.3616 304.182 95.3264C304.211 95.3103 304.245 95.3043 304.277 95.3074Z" fill="#58694B"/>
<path d="M33.0348 125.171C32.4278 124.686 31.561 122.938 31.9857 122.288C32.1089 122.099 32.2096 121.918 32.2907 121.754C32.4959 121.341 32.3168 120.863 31.8959 120.675C30.1959 119.912 27.3226 119.435 25.0087 119.602C24.7202 119.623 24.4651 118.843 24.5391 118.563C24.5826 118.398 24.4065 118.458 24.2366 118.47C24.147 118.476 24.0435 118.485 23.9319 118.499C23.4805 118.552 22.9444 118.088 22.9971 117.636C23.0613 117.085 23.0997 116.503 23.1225 116.029C23.1507 115.446 22.7507 114.94 22.1739 114.85C21.2416 114.706 19.7504 114.538 18.1679 114.615C16.6878 114.686 14.8895 113.085 14.7158 111.613C14.6673 111.203 14.6039 110.852 14.5465 110.592C14.4886 110.33 14.2396 110.216 14.0298 110.383C13.6621 110.675 13.0443 110.468 12.9254 110.014C12.7374 109.295 12.4536 108.678 12.1997 108.218C11.9112 107.696 11.746 107.253 11.2547 107.592C10.4145 108.172 8.47368 108.179 8.07914 107.238C7.69613 106.324 7.2567 105.534 6.84838 104.929C6.54407 104.479 5.62089 104.532 5.19282 104.867C4.4023 105.486 3.29196 105.055 2.79847 104.181C2.66588 103.946 2.52183 103.701 2.36705 103.451C1.59216 102.2 0 102.83 0 104.302V117.98C0 122.351 3.54324 125.894 7.91404 125.894H31.9718C32.691 125.894 33.5971 125.619 33.0348 125.171Z" fill="#4D8A50"/>
<path d="M2.82893 112.493C3.70793 111.53 4.39256 110.406 4.93351 109.22C6.1959 106.451 7.66577 104.075 9.27317 102.035C16.9868 92.2455 25.3848 104.078 13.8811 108.874C11.1837 109.998 8.22167 110.887 4.97516 111.484C4.60999 111.551 4.272 111.729 4.02965 112.011C3.44057 112.695 2.25104 114.157 1.08725 116.078C0.797923 116.556 0 116.356 0 115.798C0 115.666 0.0492616 115.539 0.138117 115.442L2.82893 112.493Z" fill="#7EB85E"/>
<path opacity="0.3" d="M28.6354 92.3209C28.6114 92.3278 28.5898 92.3408 28.5678 92.3527C28.5238 92.3765 28.436 92.424 28.308 92.4929C28.1173 92.5962 27.837 92.7479 27.4888 92.9486C27.1415 93.1496 26.7179 93.394 26.2332 93.6747C25.7519 93.9587 25.2092 94.2796 24.6298 94.6446C24.0491 95.0072 23.418 95.3994 22.7618 95.8254C22.4337 96.0385 22.0915 96.2518 21.7506 96.4793C21.4106 96.7082 21.0641 96.942 20.7108 97.1801C20.003 97.6527 19.2917 98.163 18.5634 98.6751C17.8479 99.1996 17.1136 99.7254 16.3998 100.271C15.6945 100.823 14.9696 101.359 14.2929 101.918C13.6158 102.477 12.9348 103.015 12.3132 103.568C11.6856 104.114 11.0733 104.638 10.528 105.162C10.2511 105.421 9.98273 105.673 9.72289 105.917C9.46177 106.161 9.20961 106.395 8.98177 106.631C8.51713 107.096 8.10198 107.529 7.73036 107.911C7.36428 108.295 7.06945 108.648 6.81431 108.928C6.36527 109.442 6.08979 109.756 6.03966 109.814C6.03406 109.82 6.02838 109.826 6.02352 109.833C5.98812 109.884 6.00418 109.95 6.06295 109.985C6.12311 110.021 6.20588 110.012 6.25239 109.966C6.2558 109.963 6.25895 109.96 6.26221 109.956C6.30289 109.916 6.60593 109.616 7.10913 109.117C7.38135 108.85 7.69622 108.515 8.08449 108.151C8.47702 107.788 8.92417 107.382 9.39862 106.93C9.63286 106.703 9.89356 106.477 10.1624 106.243C10.4303 106.009 10.7068 105.766 10.9918 105.517C11.5503 105.01 12.1894 104.515 12.8205 103.98C13.4481 103.442 14.1389 102.919 14.8203 102.372C15.497 101.821 16.221 101.292 16.9271 100.748C17.6457 100.214 18.3646 99.6821 19.0724 99.1576C19.7965 98.6487 20.4919 98.1306 21.187 97.6502C21.8795 97.1678 22.5493 96.7015 23.1851 96.2599C23.8195 95.8173 24.4314 95.4096 24.9941 95.0322C25.5595 94.657 26.0779 94.3124 26.5369 94.0073C26.9995 93.7061 27.4027 93.4427 27.7355 93.2265C28.3758 92.8148 28.7529 92.5725 28.7827 92.5534C28.7841 92.5525 28.7853 92.5517 28.7868 92.5507C28.8563 92.5059 28.8691 92.4227 28.8145 92.3649C28.7718 92.3183 28.6987 92.3027 28.6354 92.3209Z" fill="#58694B"/>
<path d="M0.0632745 86.7914C0.0197676 87.0232 0 87.2605 0 87.4964C0 90.6512 3.3647 92.5144 5.59902 90.2871C7.5729 88.3194 9.19446 86.1179 10.5274 83.8587C14.3176 77.435 6.76995 72.398 3.02147 78.8461C1.65376 81.1989 0.61804 83.8357 0.0632745 86.7914Z" fill="#7EB85E"/>
<path opacity="0.3" d="M14.6172 69.5825C14.577 69.5568 14.5221 69.5578 14.4835 69.5816C14.4683 69.5909 14.4568 69.6046 14.4446 69.6176C14.3733 69.6933 14.0944 69.9893 13.6538 70.4564C13.3982 70.7308 13.0876 71.0641 12.7313 71.4468C12.3951 71.8407 12.0171 72.2865 11.6118 72.7771C11.4121 73.024 11.1889 73.2733 10.985 73.5459C10.7793 73.8172 10.5669 74.0975 10.3484 74.386C10.1291 74.6745 9.90468 74.9712 9.67513 75.2741C9.45284 75.581 9.2378 75.8994 9.01508 76.2225C8.79364 76.5455 8.56836 76.8739 8.34009 77.2065C8.11908 77.5422 7.90617 77.8865 7.68772 78.2321C7.47182 78.5788 7.25337 78.9283 7.03535 79.2789C6.82927 79.6344 6.62191 79.992 6.41455 80.3489C5.98873 81.0589 5.61796 81.7893 5.23439 82.5014C4.85039 83.2138 4.52015 83.9312 4.17796 84.6171C3.86308 85.3123 3.54436 85.9796 3.28026 86.6243C3.14586 86.9459 3.01444 87.2584 2.88772 87.5603C2.76228 87.8633 2.65092 88.1581 2.53871 88.4406C2.31002 89.0028 2.12698 89.5262 1.96186 89.9889C1.95972 89.9953 1.95759 90.0016 1.95503 90.0083C1.26941 91.5414 2.87459 92.7314 4.14646 91.6347C6.72744 89.4093 8.77579 86.7849 10.4027 84.0688C11.9854 81.4266 9.24814 79.5174 7.25166 81.8627C6.01519 83.3154 4.9818 84.7085 4.11652 86.0491C4.15578 85.9683 4.1946 85.8875 4.23428 85.8061C4.39172 85.4752 4.55258 85.1384 4.71641 84.7953C4.88921 84.4549 5.06457 84.1096 5.24292 83.7591C5.42127 83.4096 5.59407 83.053 5.78948 82.701C6.17092 81.9935 6.55023 81.2719 6.96623 80.5641C7.16932 80.2086 7.37284 79.8531 7.57508 79.499C7.79012 79.1494 8.00388 78.8017 8.21636 78.4568C8.43012 78.1122 8.63406 77.7673 8.84782 77.4315C9.06884 77.0993 9.28644 76.7706 9.50062 76.4472C9.71481 76.1237 9.92515 75.8056 10.1317 75.4942C10.3497 75.1888 10.563 74.8897 10.7708 74.5984C10.9782 74.3074 11.1804 74.0242 11.3758 73.7502C11.5691 73.4751 11.7824 73.2232 11.9727 72.9739C12.358 72.4766 12.7113 72.0209 13.0245 71.6171C13.3581 71.2246 13.6491 70.8825 13.8885 70.6007C14.3339 70.0706 14.6009 69.7527 14.6331 69.7144C14.6353 69.7118 14.6375 69.7092 14.6398 69.7066C14.6722 69.6664 14.6629 69.6121 14.6172 69.5825Z" fill="#58694B"/>
<path d="M3.87012 104.303C3.93406 104.203 4.01289 104.119 4.10349 104.042C11.6362 97.6843 17.3244 89.4412 21.2923 80.9241C25.2847 72.3556 29.2224 67.1749 29.0965 66.6343C28.9702 66.0939 20.733 67.4479 11.4411 78.3636C3.71326 87.4425 3.89962 94.1998 3.76908 100.274C3.71783 102.659 2.94011 104.956 2.03406 107.163C1.05832 109.539 0.168246 112.139 0.0212208 112.572C0.00666218 112.615 0 112.658 0 112.703C0 113.207 0.806986 113.299 0.929119 112.81C1.67336 109.832 2.77129 106.018 3.87012 104.303Z" fill="#7EB85E"/>
<path opacity="0.3" d="M5.06297 100.801C5.06397 100.796 5.06557 100.791 5.06706 100.785C5.07618 100.753 5.11327 100.623 5.17535 100.404C5.25002 100.151 5.35925 99.7804 5.51327 99.3123C5.66474 98.8433 5.8593 98.2761 6.08842 97.6276C6.31967 96.979 6.58762 96.2493 6.90719 95.4599C7.21908 94.6692 7.57663 93.8175 7.96575 92.9195C8.35828 92.023 8.7841 91.0806 9.26324 90.1188C9.73215 89.1532 10.2454 88.165 10.7796 87.1651C11.3257 86.1702 11.8804 85.1583 12.4897 84.1687L12.9428 83.4249C13.0985 83.1797 13.2547 82.9343 13.4104 82.6895C13.7176 82.1982 14.0406 81.7157 14.361 81.2378C15.001 80.281 15.662 79.3538 16.3216 78.4668C16.9821 77.5794 17.6579 76.7414 18.3145 75.9567C18.6354 75.5596 18.9746 75.1885 19.2903 74.8239C19.4508 74.6422 19.6044 74.462 19.7618 74.2885C19.9214 74.1167 20.0784 73.9478 20.232 73.7827C20.834 73.1144 21.436 72.5346 21.9561 72.0119C22.4895 71.4987 22.9665 71.0596 23.3556 70.6964C24.1361 70.0196 24.5943 69.622 24.6273 69.5934C24.6287 69.5922 24.6299 69.5911 24.6313 69.5899C24.6738 69.555 24.7417 69.5546 24.7849 69.5889C24.8276 69.6224 24.8302 69.6778 24.7918 69.7141C24.7898 69.716 24.7881 69.7176 24.7861 69.7195C24.7483 69.7549 24.3123 70.1637 23.5741 70.8561C23.2003 71.2279 22.7433 71.6765 22.2318 72.1999C21.7338 72.7321 21.163 73.326 20.5763 73.9972C20.4278 74.1636 20.2763 74.3336 20.1215 74.5068C19.9691 74.681 19.8202 74.863 19.6654 75.0454C19.3599 75.4132 19.0326 75.7863 18.7229 76.1859C18.0846 76.9735 17.4463 77.8231 16.7935 78.7055C16.1454 79.5904 15.4968 80.5152 14.8688 81.4696C14.5548 81.9467 14.2369 82.4267 13.9361 82.917C13.7833 83.1607 13.6302 83.4054 13.4779 83.6506L13.0337 84.3923C12.4415 85.3819 11.868 86.3786 11.3228 87.3672C10.7839 88.3586 10.2663 89.3391 9.79316 90.2973C9.55295 90.7759 9.3234 91.2478 9.10452 91.7123C8.87711 92.1736 8.6689 92.63 8.4594 93.0719C8.05108 93.9593 7.67562 94.8011 7.34623 95.5837C7.01386 96.3656 6.7233 97.0862 6.46389 97.7245C6.2113 98.3643 5.99455 98.9237 5.82645 99.3868C5.48728 100.303 5.3116 100.833 5.3081 100.843C5.30799 100.844 5.30805 100.844 5.30805 100.844C5.30805 100.844 5.30799 100.845 5.30788 100.845C5.28928 100.9 5.22038 100.932 5.15402 100.917C5.09197 100.903 5.05343 100.853 5.06297 100.801Z" fill="#58694B"/>
<path d="M320 139.467C320 131.18 313.437 124.379 305.153 124.144C268.46 123.106 217.967 122.464 162.225 122.464C104.14 122.464 51.7538 123.161 14.7432 124.277C6.50985 124.526 0 131.292 0 139.529C0 147.992 6.8605 154.853 15.3233 154.853H304.614C313.111 154.853 320 147.964 320 139.467Z" fill="#D7E5FF"/>
<path opacity="0.5" d="M314.157 132.381C314.157 135.183 246.134 137.454 162.226 137.454C78.317 137.454 10.2944 135.183 10.2944 132.381C10.2944 129.581 78.317 127.31 162.226 127.31C246.134 127.31 314.157 129.581 314.157 132.381Z" fill="#D7E5FF"/>
<path d="M302.424 131.903C302.424 134.115 239.655 135.908 162.226 135.908C84.7958 135.908 22.0269 134.115 22.0269 131.903C22.0269 127.155 25.8762 123.305 30.6247 123.305H293.826C298.575 123.305 302.424 127.155 302.424 131.903Z" fill="#D7E5FF"/>
<path opacity="0.5" d="M22.0269 123.804C22.0269 126.015 84.7958 127.809 162.226 127.809C239.655 127.809 302.424 126.015 302.424 123.804C302.424 123.528 302.201 123.305 301.926 123.305H22.5252C22.25 123.305 22.0269 123.528 22.0269 123.804Z" fill="white"/>
<path d="M302.424 123.305C302.424 125.517 239.655 127.31 162.226 127.31C84.7958 127.31 22.0269 125.517 22.0269 123.305C22.0269 121.093 84.7958 119.3 162.226 119.3C239.654 119.3 302.424 121.093 302.424 123.305Z" fill="#A5C3F3"/>
<path d="M124.716 121.795C124.442 122.368 123.863 122.734 123.228 122.734C122.185 122.734 121.404 121.778 121.612 120.757L123.516 111.375C123.784 110.058 124.942 109.111 126.286 109.111C128.365 109.111 129.732 111.278 128.837 113.154L124.716 121.795Z" fill="#C97E5E"/>
<path d="M51.2573 121.795C50.9837 122.368 50.4047 122.734 49.7691 122.734C48.7267 122.734 47.9459 121.778 48.1533 120.757L50.058 111.375C50.3254 110.058 51.4837 109.111 52.8279 109.111C54.9061 109.111 56.2737 111.278 55.3789 113.154L51.2573 121.795Z" fill="#C97E5E"/>
<path opacity="0.6" d="M50.2121 110.616C49.9436 111.938 51.1163 113.104 52.4374 112.828L55.1046 112.27C55.5923 112.168 56.0044 111.844 56.2188 111.394C56.7239 110.335 55.9515 109.111 54.7778 109.111H52.0529C51.1595 109.111 50.3898 109.74 50.2121 110.616Z" fill="#C97E5E"/>
<path opacity="0.6" d="M123.671 110.615C123.403 111.938 124.575 113.104 125.896 112.828L128.564 112.27C129.051 112.168 129.464 111.844 129.678 111.394C130.183 110.335 129.411 109.111 128.237 109.111H125.512C124.619 109.111 123.849 109.74 123.671 110.615Z" fill="#C97E5E"/>
<path d="M150.632 108.215C150.632 108.964 149.895 109.572 148.99 109.572H50.3524C49.4457 109.572 48.7114 108.964 48.7114 108.215V100.284C48.7114 99.5343 49.4457 98.9263 50.3524 98.9263H148.991C149.896 98.9263 150.633 99.5343 150.633 100.284L150.632 108.215Z" fill="#C97E5E"/>
<path d="M142.925 108.758C133.538 108.758 131.405 105.364 130.018 102.454C128.632 99.5443 125.752 91.7411 124.898 88.1399C124.045 84.5386 126.818 83.1885 129.752 83.1885C129.752 83.1885 129.752 83.1885 129.752 83.1885C129.752 83.1885 131.778 83.1885 137.432 83.1885C143.085 83.1885 145.912 87.2444 146.872 89.0078C147.832 90.7712 148.962 94.9679 150.712 98.9271C152.756 103.557 154.392 108.758 148.276 108.758H142.925Z" fill="#172793"/>
<path d="M135.752 108.758C126.366 108.758 124.232 105.364 122.846 102.454C121.459 99.5443 118.579 91.7411 117.726 88.1399C116.872 84.5386 119.646 83.1885 122.579 83.1885C122.579 83.1885 122.579 83.1885 122.579 83.1885C122.579 83.1885 124.606 83.1885 130.259 83.1885C135.912 83.1885 138.739 87.2444 139.699 89.0078C140.659 90.7712 141.79 94.9679 143.539 98.9271C145.584 103.557 147.22 108.758 141.104 108.758H135.752Z" fill="#00194F"/>
<path d="M60.6059 98.4733C49.3841 98.4733 46.8335 94.4149 45.1759 90.9364C43.5174 87.4578 40.0751 78.1289 39.0541 73.8233C38.0339 69.5177 41.35 67.9038 44.8568 67.9038C44.8568 67.9038 44.8568 67.9038 44.8568 67.9038C44.8568 67.9038 101.305 67.9038 108.064 67.9038C114.824 67.9038 118.203 72.7526 119.35 74.8613C120.497 76.9696 121.85 81.9866 123.941 86.7204C126.385 92.2544 128.341 98.4737 121.029 98.4737L60.6059 98.4733Z" fill="#172793"/>
<path opacity="0.7" d="M49.0423 71.8509C48.5823 71.0058 47.488 69.3898 45.5348 68.5126C44.3286 67.9709 42.9263 67.9578 41.6923 68.4326C39.6751 69.2086 38.3596 70.8917 39.054 73.8231C40.075 78.1287 43.5174 87.4576 45.1758 90.9362C48.7657 98.4678 56.394 89.8874 53.2725 82.1499C51.0308 76.5932 49.2708 72.2699 49.0423 71.8509Z" fill="#00194F"/>
<path d="M121.029 98.4735C125.251 98.4735 122.753 94.2539 118.531 94.2539C105.868 94.2539 81.2319 94.2539 61.6719 94.2539C56.0724 94.2539 55.0066 98.4735 60.6061 98.4735H121.029Z" fill="#00194F"/>
<path d="M67.6177 100.58C67.6177 97.8654 69.7888 95.6646 72.5037 95.6646C87.6387 95.6646 132.884 95.6646 135.458 95.6646C138.818 95.6646 141.384 96.4292 142.263 98.5083C143.141 100.587 144.224 103.512 144.294 104.085C144.364 104.658 144.044 105.496 141.324 105.496C139.04 105.496 88.6245 105.496 72.5176 105.496C69.8027 105.496 67.6177 103.295 67.6177 100.58Z" fill="#172793"/>
<path d="M72.2328 98.9271C70.8461 94.8712 69.3528 90.7712 68.3928 89.0078C67.4328 87.2444 64.6061 83.1885 58.9528 83.1885C53.2995 83.1885 51.2728 83.1885 51.2728 83.1885C51.2728 83.1885 51.2728 83.1885 51.2728 83.1885C48.3395 83.1885 45.5661 84.5386 46.4195 88.1399C47.2728 91.7411 50.1528 99.5443 51.5395 102.454C52.9116 105.333 55.0149 108.687 64.1541 108.757C64.3449 108.759 64.5395 108.734 64.7241 108.685L70.3572 107.206C72.0292 106.767 72.792 100.563 72.2328 98.9271Z" fill="#00194F"/>
<path d="M146.43 102.249C145.645 102.249 145.217 103.154 144.755 103.789C144.526 104.104 144.104 104.305 143.431 104.305C143.431 104.305 77.299 104.305 73.3524 104.305C69.4057 104.305 65.5657 102.983 64.1791 98.9266C62.7924 94.8707 61.2991 90.7708 60.3391 89.0073C59.3791 87.2439 56.5524 83.188 50.8991 83.188C45.2457 83.188 43.2191 83.188 43.2191 83.188C43.2191 83.188 43.2191 83.188 43.2191 83.188C40.2858 83.188 37.5124 84.5381 38.3658 88.1394C39.2191 91.7406 42.0991 99.5438 43.4857 102.454C44.8724 105.363 47.0057 108.758 56.3924 108.758C65.7791 108.758 143.431 108.758 143.431 108.758H144.32C146.118 108.758 147.575 107.301 147.575 105.503V103.394C147.575 102.761 147.062 102.249 146.43 102.249Z" fill="#172793"/>
<path d="M73.6679 121.795C73.9415 122.368 74.5205 122.734 75.1561 122.734C76.1986 122.734 76.9794 121.778 76.7721 120.757L74.8681 111.375C74.6007 110.058 73.4423 109.111 72.0978 109.111C70.0194 109.111 68.6517 111.279 69.5465 113.155L73.6679 121.795Z" fill="#C97E5E"/>
<path d="M147.127 121.795C147.401 122.368 147.98 122.734 148.616 122.734C149.658 122.734 150.439 121.778 150.231 120.757L148.327 111.375C148.06 110.058 146.901 109.111 145.557 109.111C143.478 109.111 142.111 111.279 143.006 113.155L147.127 121.795Z" fill="#C97E5E"/>
<path d="M243.039 86.0738C250.133 86.0738 251.137 83.4597 251.663 81.219C252.189 78.9784 254.959 55.8855 254.959 53.1127C254.957 50.3395 252.619 49.2998 250.402 49.2998C250.402 49.2998 225.112 49.2998 220.839 49.2998C216.566 49.2998 215.158 52.4228 214.749 53.7807C214.34 55.1392 212.244 75.4544 211.632 78.5034C210.918 82.068 210.615 86.0738 215.237 86.0738H243.039Z" fill="#172793"/>
<path opacity="0.7" d="M248.348 51.8427C248.472 51.4322 248.758 50.7391 249.364 50.1808C250.361 49.2637 251.943 49.2818 253.131 49.9315C254.197 50.5138 254.958 51.5312 254.958 53.1131C254.958 55.8859 252.189 78.9792 251.662 81.2194C250.42 86.5071 244.274 81.135 245.026 75.7556C246.463 65.4732 248.239 52.2048 248.348 51.8427Z" fill="#00194F"/>
<path d="M198.512 59.8835C199.038 59.4587 199.157 58.7035 198.786 58.1377C198.721 58.0385 198.669 57.9313 198.636 57.8172C198.386 56.9266 198.318 55.8066 198.283 55.5635C198.245 55.305 197.97 54.4653 197.869 53.9789C197.769 53.4915 197.731 53.2739 197.706 53.191C197.681 53.1085 196.979 53.0665 196.716 53.5952C196.453 54.1235 196.503 54.5898 196.628 54.9629C196.699 55.1733 196.518 55.2459 196.374 55.0764L196.042 54.6835C195.928 54.548 195.754 54.4811 195.586 54.5375C195.215 54.6618 194.46 55.0007 193.29 55.9141C191.839 57.0462 191.719 57.9576 191.719 58.0719C191.719 58.1854 193.094 59.7499 193.47 60.2056C193.7 60.4847 194.067 60.9218 194.652 61.2949C195.46 61.8102 196.483 61.5198 197.229 60.9182L198.512 59.8835Z" fill="#FFC8AD"/>
<path d="M196.21 55.8731C196.464 55.7755 196.567 55.4708 196.423 55.2393C195.759 54.2761 194.957 53.3538 194.869 53.2188C194.781 53.0844 193.578 51.7685 193.315 51.3746C193.052 50.981 192.714 50.9189 192.525 51.3746C192.338 51.8306 192.688 52.5659 193.039 53.0735C193.39 53.581 193.578 53.7884 193.754 54.0888C193.871 54.2901 194.512 55.1844 194.922 55.7529C195.127 56.0372 195.498 56.1465 195.826 56.0207L196.21 55.8731Z" fill="#FFC8AD"/>
<path d="M194.577 56.1685C194.815 56.0205 194.853 55.6907 194.657 55.4918C193.763 54.6648 192.744 53.903 192.624 53.7869C192.504 53.6702 190.993 52.5927 190.636 52.2531C190.278 51.9142 189.932 51.912 189.864 52.3906C189.795 52.8685 190.326 53.5274 190.798 53.9626C191.269 54.3978 191.506 54.5678 191.755 54.8312C191.925 55.0131 192.826 55.817 193.368 56.2978C193.614 56.5158 193.973 56.5453 194.252 56.3715L194.577 56.1685Z" fill="#FFC8AD"/>
<path d="M193.646 57.2098C193.845 57.0184 193.815 56.6919 193.585 56.5401C192.553 55.9218 191.422 55.384 191.281 55.2962C191.141 55.208 189.476 54.4596 189.061 54.2039C188.647 53.9489 188.324 54.005 188.378 54.4603C188.432 54.9156 189.084 55.4383 189.629 55.7638C190.174 56.0894 190.434 56.2079 190.729 56.411C190.936 56.5537 192.004 57.1703 192.62 57.5237C192.88 57.6731 193.207 57.6319 193.424 57.4237L193.646 57.2098Z" fill="#FFC8AD"/>
<path d="M193.315 58.1954C193.43 57.9749 193.318 57.7041 193.082 57.6281C192.062 57.3446 190.985 57.1467 190.846 57.1055C190.706 57.0631 189.135 56.8067 188.723 56.6861C188.311 56.5676 188.068 56.6794 188.251 57.0356C188.433 57.3918 189.118 57.6768 189.657 57.8257C190.195 57.9752 190.441 58.0161 190.741 58.1187C190.953 58.1914 192.014 58.4687 192.616 58.6247C192.861 58.6883 193.118 58.5735 193.235 58.3484L193.315 58.1954Z" fill="#FFC8AD"/>
<path d="M199.747 60.0557C200.073 59.817 200.077 59.3314 199.755 59.0873C199.539 58.9237 199.241 58.9238 199.025 59.0876L195.802 61.5356C195.524 61.7472 195.501 62.1581 195.754 62.3993C195.953 62.5887 196.259 62.6084 196.481 62.4461L199.747 60.0557Z" fill="white"/>
<path d="M214.072 54.1541C214.072 54.154 214.072 54.154 214.072 54.1541L210.199 63.4716C209.693 64.6885 208.175 65.1008 207.125 64.3056C204.579 62.3785 200.584 59.3571 200.493 59.3009C200.359 59.218 200.208 59.1902 200.007 59.2734C199.807 59.3559 195.946 62.2709 195.746 62.4092C195.546 62.5474 195.362 62.7128 195.513 62.9202C195.663 63.1276 205.941 72.867 207.428 73.9307C208.915 74.9944 212.275 75.5192 213.06 75.1186C213.518 74.8852 214.527 74.0752 215.658 72.9205C217.4 71.1419 218.118 68.6561 218.118 66.1664V56.1772C218.118 55.0599 217.212 54.1542 216.095 54.1542H214.072C214.072 54.1542 214.072 54.1541 214.072 54.1541Z" fill="#332D2D"/>
<path opacity="0.5" d="M216.067 56.665C214.961 56.665 214.056 57.5399 213.991 58.6436C213.691 63.7819 212.912 70.3497 212.383 74.4619C212.33 74.8773 212.687 75.308 213.061 75.1187C213.574 74.8567 214.782 73.8685 216.078 72.4819C217.508 70.9511 218.118 68.8681 218.118 66.7731V58.716C218.118 57.5833 217.2 56.665 216.067 56.665Z" fill="#332D2D"/>
<path d="M196.582 55.7067C196.631 55.7465 196.578 55.8168 196.543 55.8684C196.53 55.8867 196.516 55.908 196.499 55.932C196.468 55.9758 196.43 56.0294 196.385 56.0907C196.349 56.1542 196.322 56.2258 196.283 56.3002C196.249 56.3775 196.199 56.4512 196.174 56.5475C196.144 56.6406 196.11 56.7372 196.072 56.8363C196.043 56.9379 196.03 57.0465 196.003 57.153C195.979 57.2615 195.963 57.3716 195.955 57.4824C195.948 57.5935 195.931 57.705 195.932 57.814C195.94 57.9236 195.947 58.0305 195.953 58.1349C195.953 58.2407 195.972 58.3398 195.997 58.434C196.017 58.5292 196.038 58.6184 196.056 58.7013C196.071 58.786 196.114 58.8544 196.136 58.9214C196.163 58.9866 196.186 59.0438 196.204 59.0914C196.231 59.1631 196.249 59.2125 196.257 59.2331C196.259 59.2402 196.262 59.2473 196.265 59.2543C196.276 59.285 196.256 59.3185 196.218 59.328C196.201 59.332 196.184 59.3307 196.169 59.3254C196.144 59.3162 196.128 59.291 196.112 59.269C196.095 59.245 196.068 59.2085 196.034 59.1616C196.003 59.1154 195.964 59.0593 195.921 58.9955C195.881 58.9292 195.814 58.8611 195.788 58.7726C195.755 58.6855 195.72 58.5916 195.682 58.4918C195.642 58.392 195.6 58.2859 195.593 58.1716C195.578 58.0577 195.561 57.9402 195.544 57.821C195.54 57.7007 195.554 57.5791 195.559 57.4577C195.567 57.3364 195.585 57.2156 195.614 57.0973C195.643 56.9799 195.668 56.8631 195.709 56.7538C195.755 56.6459 195.802 56.5418 195.849 56.4452C195.888 56.3468 195.96 56.2579 196.016 56.1768C196.075 56.0967 196.126 56.0202 196.18 55.9631C196.238 55.9102 196.29 55.864 196.331 55.8259C196.367 55.794 196.397 55.7679 196.42 55.7485C196.451 55.722 196.481 55.6895 196.522 55.688C196.543 55.6873 196.565 55.6935 196.582 55.7067Z" fill="#F2846F"/>
<path d="M231.179 45.698C231.533 45.698 231.868 45.5451 232.08 45.2619C232.299 44.9705 232.605 44.5367 232.952 43.9721C233.578 42.9535 232.792 41.7158 231.597 41.7158C230.69 41.7158 229.956 42.4504 229.956 43.3566V44.4748C229.956 45.1504 230.503 45.698 231.179 45.698Z" fill="#332D2D"/>
<path d="M223.413 48.1393C223.413 48.3927 223.233 49.2416 223.112 49.7862C223.041 50.1034 223.003 50.4269 223.003 50.7519C223.003 53.0796 224.89 54.9666 227.218 54.9666H229.126C231.328 54.9666 233.114 53.1809 233.114 50.9782C233.114 49.8137 232.483 48.7789 231.924 47.7573C231.81 47.549 231.736 47.3414 231.736 47.1539C231.736 47.1001 231.736 47.0342 231.736 46.958C231.736 44.6552 229.869 42.7876 227.566 42.7876C225.229 42.7876 223.349 44.71 223.394 47.0469C223.405 47.6144 223.412 48.0378 223.413 48.1393Z" fill="#FFD1BB"/>
<path d="M221.55 51.8065C222.387 50.6944 223.993 50.5145 225.066 51.4013C225.823 52.0274 226.887 52.1484 227.762 51.7011L228.018 51.5702C229.947 50.5839 232.236 51.9849 232.236 54.1513V66.0585C232.236 69.145 229.734 71.6472 226.648 71.6472C223.561 71.6472 221.059 69.145 221.059 66.0585V53.2747C221.059 52.745 221.231 52.2297 221.55 51.8065Z" fill="white"/>
<path d="M226.246 49.5853C227.015 49.4465 229.46 47.6859 231.084 46.2841C231.507 45.9182 231.736 45.0504 231.736 44.4907C231.736 43.3676 230.825 42.7876 229.702 42.7876H227.566C225.229 42.7876 223.349 44.71 223.394 47.0469C223.405 47.6144 223.412 48.0378 223.413 48.1393C223.414 48.6666 223.607 49.1929 224.099 49.3838C225.036 49.7476 225.479 49.7242 226.246 49.5853Z" fill="#FAA08E"/>
<path d="M223.575 54.7305C223.372 52.2608 220.751 50.7657 218.517 51.8384C216.702 52.7101 214.98 53.5289 214.689 53.64C214.037 53.8886 213.811 54.3651 213.862 54.9664C213.879 55.1792 214.042 57.7698 214.244 61.0276C214.736 68.9493 221.302 75.1282 229.239 75.1282C236.724 75.1282 243.071 69.6149 244.101 62.2016C244.462 59.6064 244.746 57.5337 244.795 57.1006C244.946 55.7745 244.244 54.4067 243.041 53.7437C242.391 53.3851 239.459 51.992 236.902 50.7877C234.717 49.7582 232.124 50.8401 231.309 53.1144L230.407 55.6313C229.127 59.2012 223.885 58.51 223.575 54.7305Z" fill="#332D2D"/>
<path opacity="0.5" d="M244.052 62.5603C244.091 62.2777 244.098 61.9917 244.072 61.7076C243.887 59.7073 242.144 58.217 240.139 58.345L238.932 58.422C237.489 58.5141 236.159 59.2315 235.289 60.3863L230.869 66.255C230.396 66.8826 229.612 67.1981 228.847 67.0179C228.424 66.9181 227.945 66.7921 227.498 66.6445C227.004 66.4812 226.434 66.7132 226.259 67.2031C225.945 68.0795 224.658 67.9099 224.581 66.982L224.486 65.8158C224.454 65.428 224.224 65.085 223.876 64.9095C222.472 64.1999 220.916 63.4141 219.455 62.6764C217.116 61.4954 214.384 63.27 214.545 65.8853C214.61 66.9314 215.155 67.9168 216.021 68.5067C219.915 71.1581 224.316 74.1063 225.229 74.5522C225.824 74.8425 226.864 75.0238 228.002 75.1278H232.946C233.003 75.1278 233.06 75.1246 233.115 75.1109C234.102 74.8753 237.32 72.9213 240.108 70.7617C242.307 69.0575 243.509 66.4521 243.893 63.6964C243.947 63.3105 244 62.9308 244.052 62.5603Z" fill="#332D2D"/>
<path opacity="0.5" d="M230.406 55.6342C229.126 59.2035 223.885 58.5124 223.575 54.7334L223.241 50.673C223.199 50.1565 222.804 49.7693 222.337 49.9953C222.193 50.0652 221.922 50.2529 221.85 50.3962C221.106 51.8745 219.285 55.6577 219.175 55.8848C219.042 56.161 219.009 56.465 219.343 56.8657C219.47 57.0185 219.912 57.5454 220.409 58.1386C221.419 59.3439 221.347 61.0686 220.363 62.2949C220.129 62.5845 220.062 62.861 220.245 63.3029C222.043 67.6199 228.126 68.0715 231.323 64.6595C231.93 64.0121 232.342 63.5591 232.395 63.4687C232.63 63.068 232.68 62.8194 232.479 62.5295C231.733 61.4492 232.075 59.9604 233.175 59.2433C234.004 58.7033 234.82 58.1733 235.019 58.0532C235.454 57.7908 235.838 57.5562 235.721 56.9344C235.61 56.3401 233.568 49.9824 233.23 49.1298C233.208 49.0733 233.104 49.0058 233.049 48.98C232.898 48.9094 232.779 49.0124 232.723 49.1695L230.406 55.6342Z" fill="#332D2D"/>
<path d="M233.194 49.0481C232.796 48.3136 231.672 48.6922 231.426 49.4909L230.353 52.9859C229.205 56.7218 223.745 56.1343 223.418 52.2398L223.188 49.494C223.186 49.4677 223.188 49.4413 223.193 49.4155C223.242 49.1734 222.983 49.0045 222.793 49.1629C222.572 49.3473 222.328 49.5781 222.155 49.8173C221.98 50.0589 219.978 55.6088 219.845 55.885C219.711 56.1611 219.678 56.4651 220.013 56.8658C220.14 57.0186 220.581 57.5454 221.078 58.1387C222.088 59.344 222.018 61.0696 221.032 62.2951C220.799 62.5846 220.732 62.8611 220.915 63.303C222.535 67.2018 227.93 67.7059 230.566 64.408C230.975 63.8963 231.247 63.5469 231.293 63.4688C231.527 63.0681 231.577 62.8195 231.376 62.5296C230.631 61.4486 230.973 59.9605 232.073 59.2435C232.901 58.7035 233.718 58.1734 233.917 58.0533C234.352 57.7909 234.736 57.5563 234.619 56.9346C234.501 56.3128 233.375 49.3811 233.194 49.0481Z" fill="#332D2D"/>
<path d="M218.671 35.2524C218.461 35.806 218.403 36.4021 218.352 36.9922C218.277 37.8543 218.168 39.0658 218.126 39.284C217.933 40.2723 218.32 41.2919 218.261 42.297C218.249 42.5154 218.249 42.6914 218.272 42.7651C218.994 44.8787 220.716 47.4202 220.867 47.6829C221.017 47.9457 223.022 48.3873 224.693 47.9732C226.365 47.5584 229.64 45.8733 230.158 45.4448C231.047 44.7107 232.01 43.9979 232.948 43.3288C233.18 43.1639 233.396 42.9604 233.567 42.7097C234.303 41.6322 235.088 40.0018 234.837 37.861C234.586 35.7198 232.414 31.7549 228.386 31.7549C227.293 31.7549 226.322 31.7549 225.486 31.7549C223.179 31.7549 220.677 32.1181 219.343 34.0011C219.082 34.3704 218.848 34.7871 218.671 35.2524Z" fill="#FFD1BB"/>
<path d="M218.004 36.7011C218.243 36.7793 218.496 36.7976 218.747 36.7976H227.391C228.18 36.7976 228.912 37.2123 229.317 37.8898L229.53 38.2469C229.635 38.4224 229.793 38.5601 229.981 38.6401C230.337 38.7917 230.569 39.1415 230.569 39.5288V40.6168C230.569 40.8533 230.76 41.045 230.997 41.045C231.211 41.045 231.392 40.8864 231.436 40.6765C231.495 40.3975 231.591 40.0463 231.722 39.9492C231.948 39.781 233.076 39.035 233.452 39.2424C234.124 39.6123 235.053 40.0485 235.278 39.3151C235.644 38.1263 235.851 36.7801 235.661 35.7433C235.621 35.5198 235.512 35.3161 235.368 35.1403C235.18 34.9099 235.003 34.7095 234.84 34.5359C234.123 33.7723 233.339 33.0308 232.69 32.2085C232.529 32.0047 232.359 31.7994 232.189 31.6116C231.654 31.0198 230.868 30.8144 230.072 30.7653C227.866 30.6294 225.979 30.6233 224.714 30.646C223.662 30.665 222.783 29.4582 221.746 29.6275C221.695 29.6358 221.451 29.7722 221.154 30.0161C220.419 30.62 218.887 30.1413 218.119 30.7046C218.054 30.7529 217.5 32.1526 217.403 33.4172C217.371 33.8342 216.614 34.3053 216.208 34.4048C215.974 34.4621 216.061 34.6289 216.143 34.8556C216.337 35.391 216.832 36.3174 218.004 36.7011Z" fill="#332D2D"/>
<path d="M226.382 40.6261C226.334 40.9996 225.964 41.2722 225.553 41.2363C225.143 41.2006 224.85 40.8691 224.898 40.4967C224.944 40.1242 225.315 39.8502 225.725 39.8865C226.136 39.9222 226.43 40.254 226.382 40.6261Z" fill="#332D2D"/>
<path d="M224.555 40.3657C224.558 40.3624 224.56 40.3589 224.562 40.3551C224.563 40.3538 224.564 40.3523 224.565 40.3506C224.571 40.3389 224.577 40.3273 224.583 40.3156C224.591 40.298 224.602 40.276 224.625 40.2535C224.653 40.2231 224.698 40.1759 224.74 40.1374C224.783 40.0944 224.837 40.051 224.902 40.0129C225.027 39.9283 225.19 39.851 225.379 39.8017C225.472 39.7738 225.573 39.7526 225.675 39.7428C225.778 39.7339 225.886 39.722 225.993 39.7304C226.1 39.7371 226.208 39.7484 226.312 39.7696C226.416 39.7886 226.514 39.8299 226.609 39.8609C226.792 39.9389 226.942 40.0422 227.047 40.1455C227.15 40.252 227.212 40.3522 227.249 40.4238C227.274 40.4733 227.288 40.5093 227.295 40.5268C227.297 40.5348 227.3 40.5429 227.301 40.5511C227.312 40.5815 227.291 40.6136 227.255 40.621C227.217 40.6316 227.182 40.601 227.149 40.5794C227.135 40.5705 227.119 40.5599 227.101 40.5476C227.045 40.5014 226.945 40.4584 226.84 40.3995C226.784 40.3716 226.721 40.3487 226.658 40.3201C226.59 40.3 226.519 40.2799 226.446 40.2577C226.298 40.2217 226.133 40.1956 225.967 40.1988C225.802 40.1963 225.632 40.1988 225.478 40.2288C225.397 40.2386 225.323 40.2584 225.249 40.2679C225.18 40.2841 225.11 40.2972 225.049 40.3169C224.926 40.3536 224.825 40.3836 224.762 40.4108C224.759 40.4122 224.755 40.4136 224.752 40.4151C224.684 40.4469 224.586 40.502 224.548 40.4365C224.54 40.4224 224.538 40.4067 224.541 40.3919C224.543 40.3821 224.549 40.3736 224.555 40.3657Z" fill="#332D2D"/>
<path d="M219.892 40.0299C220.15 40.0063 220.385 40.2517 220.417 40.578C220.452 40.9046 220.27 41.1888 220.012 41.2114C219.755 41.2357 219.52 40.9899 219.486 40.6626C219.453 40.3364 219.634 40.0521 219.892 40.0299Z" fill="#332D2D"/>
<path d="M220.829 40.5162C220.828 40.5142 220.827 40.5123 220.826 40.5102C220.826 40.5093 220.825 40.5083 220.825 40.5071C220.822 40.4965 220.819 40.4859 220.816 40.4752C220.812 40.4616 220.808 40.4453 220.797 40.4276C220.784 40.4018 220.761 40.3623 220.741 40.3306C220.719 40.2946 220.691 40.2576 220.657 40.2226C220.592 40.1482 220.504 40.0756 220.398 40.0216C220.347 39.992 220.29 39.9669 220.232 39.9497C220.172 39.9327 220.111 39.914 220.048 39.9102C219.986 39.9049 219.922 39.9031 219.86 39.9088C219.798 39.9126 219.738 39.9334 219.68 39.9475C219.567 39.9878 219.472 40.0495 219.403 40.1165C219.334 40.1849 219.289 40.254 219.262 40.3034C219.24 40.3437 219.228 40.3721 219.225 40.3811C219.224 40.3831 219.223 40.3852 219.223 40.3873L219.221 40.3926C219.212 40.4138 219.222 40.4399 219.242 40.4487C219.263 40.4597 219.286 40.4408 219.306 40.4283C219.315 40.4228 219.325 40.4163 219.337 40.4089C219.374 40.3806 219.436 40.3577 219.501 40.3249C219.574 40.2919 219.653 40.2755 219.731 40.2597C219.735 40.259 219.738 40.2583 219.742 40.2576C219.831 40.2449 219.928 40.241 220.025 40.259C220.121 40.2734 220.219 40.2911 220.306 40.3285C220.351 40.3433 220.393 40.3648 220.435 40.3789C220.473 40.3979 220.513 40.4142 220.547 40.4346C220.615 40.4734 220.671 40.5051 220.706 40.5309C220.708 40.5325 220.709 40.534 220.711 40.5355C220.748 40.5648 220.802 40.6093 220.827 40.57C220.833 40.5608 220.836 40.5495 220.835 40.5381C220.835 40.5304 220.832 40.5231 220.829 40.5162Z" fill="#332D2D"/>
<path d="M224.185 38.8444C224.05 38.9615 224.695 39.0405 224.97 38.9883C225.243 38.9368 226.167 38.7421 226.738 38.7245C227.309 38.7076 227.903 38.7774 227.866 38.7309C227.829 38.6839 227.311 38.4424 226.542 38.3976C225.95 38.3641 224.762 38.3485 224.185 38.8444Z" fill="#332D2D"/>
<path d="M219.837 38.5079C220.187 38.4744 220.888 38.4589 221.228 38.9548C221.308 39.0726 220.927 39.1516 220.765 39.0994C220.603 39.0479 220.059 38.8528 219.721 38.8356C219.384 38.8186 219.034 38.8881 219.055 38.8419C219.077 38.795 219.383 38.5527 219.837 38.5079Z" fill="#332D2D"/>
<path d="M221.494 43.1654C221.58 42.2267 221.383 42.2323 221.09 43.1284C221.067 43.1991 221.056 43.2484 221.059 43.2691C221.066 43.3107 221.121 43.4029 221.227 43.497C221.402 43.6528 221.472 43.3987 221.494 43.1654Z" fill="#FAA08E"/>
<path d="M222.789 43.6944C222.644 43.7184 222.452 43.5588 222.589 43.5044C222.629 43.4886 222.676 43.4823 222.731 43.4902C222.735 43.4908 222.739 43.4915 222.744 43.4921C222.896 43.518 222.942 43.6692 222.789 43.6944Z" fill="#FAA08E"/>
<path d="M222.521 44.5272C221.388 44.6922 221.099 45.0957 221.186 45.4085C221.273 45.7203 222.049 46.499 223.401 46.3287C224.754 46.1583 225.336 45.0389 225.07 44.7091C224.803 44.3797 224.107 44.2954 222.521 44.5272Z" fill="#5C1010"/>
<path d="M223.039 45.0174C221.985 45.242 222.246 46.4438 223.319 46.3379C223.346 46.3352 223.374 46.3321 223.401 46.3286C223.501 46.3161 223.596 46.2985 223.687 46.2765C224.731 46.0237 224.09 44.7935 223.039 45.0174Z" fill="#D93130"/>
<path d="M222.505 45.0785C223.321 44.9981 223.411 44.4003 222.599 44.5154C222.573 44.5191 222.547 44.5229 222.521 44.5268C221.857 44.623 221.838 45.1443 222.505 45.0785Z" fill="white"/>
<path d="M213.495 60.3215C213.739 59.9698 213.736 59.5021 213.486 59.1541C213.399 59.0327 213.34 58.8934 213.314 58.7462C213.039 57.1752 212.925 55.7723 212.823 55.4143C212.716 55.0394 212.17 54.1467 211.93 53.8162C211.689 53.4858 211.583 52.9895 211.49 52.8354C211.396 52.6809 210.623 52.8686 210.583 53.618C210.543 54.3675 210.676 54.632 210.81 54.8306C211.024 55.1508 210.479 55.3945 210.21 55.1187C210.023 54.9276 209.845 54.7437 209.735 54.6266C209.658 54.5452 209.583 54.4585 209.506 54.3778C208.626 53.4558 207.366 52.0577 207.29 51.91C206.916 51.3478 206.609 50.6756 206.143 50.411C205.676 50.1465 205.049 50.1575 204.969 50.2456C204.89 50.3338 205.596 51.8437 205.85 52.3508C206.103 52.858 206.156 52.9536 206.316 53.1426C206.553 53.4221 206.491 53.8302 206.299 54.1421C206.206 54.2937 206.118 54.4416 206.077 54.522C205.893 54.8825 205.897 55.3226 205.699 55.6754C205.651 55.7612 205.606 55.8464 205.57 55.9218C205.293 56.504 205.429 57.2244 205.386 57.8677C205.385 57.8849 205.384 57.9012 205.383 57.9166C205.37 58.1261 205.45 58.5546 205.797 58.8967C206.144 59.2388 209.017 61.4322 209.433 61.7298C209.509 61.784 209.599 61.848 209.702 61.9191C210.748 62.6452 212.131 62.2835 212.858 61.2381L213.495 60.3215Z" fill="#FFC8AD"/>
<path d="M205.464 57.2676C205.455 57.3131 205.47 57.3557 205.502 57.3896C205.708 57.6096 205.894 57.8016 205.921 57.8016C205.952 57.8016 205.825 57.4977 205.713 57.2409C205.659 57.1173 205.489 57.1351 205.464 57.2676Z" fill="#F2846F"/>
<path d="M206.498 53.823C206.444 53.908 206.418 54.0863 206.492 54.1539C206.978 54.5954 207.781 55.3615 207.85 55.3405C207.931 55.3165 207.17 54.3482 206.79 53.8713C206.702 53.7603 206.573 53.7029 206.498 53.823Z" fill="#F2846F"/>
<path d="M206.552 56.1929C206.6 56.1878 206.332 55.6907 206.16 55.381C206.098 55.2702 205.977 55.2103 205.91 55.3182C205.87 55.3832 205.846 55.5235 205.899 55.5782C206.175 55.8615 206.511 56.197 206.552 56.1929Z" fill="#F2846F"/>
<path d="M214.009 60.1024C214.296 59.8016 214.214 59.3103 213.846 59.1182C213.595 58.9874 213.288 59.0415 213.097 59.25L210.508 62.0753C210.264 62.3418 210.315 62.7633 210.616 62.9629C210.854 63.1205 211.171 63.0847 211.367 62.8781L214.009 60.1024Z" fill="white"/>
<path d="M238.725 57.8496C237.352 57.9271 236.073 58.5757 235.199 59.6382L234.036 61.0517C231.33 64.3419 226.704 65.3146 222.901 63.3937C218.968 61.4068 214.693 59.2492 214.613 59.2162C214.463 59.1541 214.309 59.1492 214.129 59.2606C213.95 59.3714 210.781 62.8093 210.614 62.9744C210.446 63.1402 210.301 63.3303 210.495 63.5119C210.687 63.6939 224.382 73.1293 226.075 73.956C227.768 74.7831 231.35 74.7263 232.237 74.5147C233.801 74.1418 240.965 69.4565 243.144 66.4728C243.505 65.9797 243.652 65.3782 243.724 64.7718L243.894 63.348C244.255 60.3071 241.783 57.6772 238.725 57.8496Z" fill="#332D2D"/>
<path opacity="0.5" d="M229.691 67.0527C229.646 66.9946 229.705 66.9282 229.766 66.9689C229.941 67.0854 230.186 67.2655 230.452 67.5105C230.589 67.6223 230.718 67.7556 230.851 67.9009C230.983 68.0448 231.133 68.1926 231.264 68.3584C231.504 68.7005 231.799 69.0525 231.989 69.4475C232.086 69.6443 232.182 69.8407 232.277 70.0347C232.387 70.223 232.424 70.4304 232.485 70.6223C232.544 70.8159 232.59 71.0042 232.635 71.182C232.656 71.2709 232.682 71.3566 232.697 71.4409C232.701 71.5266 232.705 71.6098 232.708 71.6895C232.723 71.9698 232.429 72.0138 232.349 71.7449C232.31 71.5961 232.253 71.4384 232.172 71.2758C232.098 71.1115 232.019 70.9404 231.948 70.7602C231.875 70.581 231.808 70.3948 231.701 70.2156C231.605 70.0336 231.507 69.8492 231.408 69.6651C231.326 69.4746 231.216 69.2948 231.098 69.1212C230.984 68.9467 230.887 68.7675 230.784 68.5975C230.551 68.2713 230.355 67.9517 230.161 67.6907C229.968 67.428 229.811 67.2044 229.691 67.0527Z" fill="#332D2D"/>
<path opacity="0.5" d="M230.458 66.8127C230.404 66.789 230.422 66.72 230.48 66.7279C230.662 66.7524 230.922 66.7978 231.228 66.8811C231.381 66.9146 231.539 66.9658 231.705 67.0247C231.872 67.0832 232.052 67.1379 232.228 67.2109C232.568 67.3731 232.952 67.5251 233.284 67.742C233.45 67.8503 233.616 67.9575 233.78 68.0637C233.952 68.161 234.081 68.2968 234.22 68.4132C234.358 68.5306 234.484 68.6499 234.604 68.7609C234.663 68.8177 234.723 68.8699 234.775 68.9246C234.821 68.9849 234.866 69.0424 234.907 69.0978C235.04 69.2711 234.873 69.4269 234.707 69.2846C234.698 69.2763 234.688 69.2678 234.678 69.2593C234.577 69.1662 234.459 69.0727 234.32 68.9845C234.186 68.8921 234.044 68.7973 233.904 68.6925C233.763 68.5902 233.624 68.4795 233.459 68.3885C233.3 68.2912 233.139 68.1928 232.977 68.0947C232.825 67.9864 232.656 67.8962 232.487 67.8112C232.319 67.7262 232.161 67.6309 232.003 67.5445C231.676 67.3908 231.377 67.2289 231.11 67.1083C230.841 66.9855 230.62 66.8797 230.458 66.8127Z" fill="#332D2D"/>
<path d="M264.368 76.3994H183.041C174.205 76.3994 167.041 83.5629 167.041 92.3994V104.177C167.041 113.014 174.205 120.177 183.041 120.177H264.368C273.205 120.177 280.368 113.014 280.368 104.177V92.3994C280.368 83.5629 273.205 76.3994 264.368 76.3994Z" fill="#172793"/>
<path opacity="0.7" d="M277.524 76.3994H258.68H169.657C168.212 76.3994 167.041 77.5705 167.041 79.0151C167.041 80.4597 168.212 81.6308 169.657 81.6308H242.68C251.516 81.6308 258.68 88.7943 258.68 97.6308V109.333C258.68 115.322 263.535 120.177 269.524 120.177C275.513 120.177 280.368 115.322 280.368 109.333V79.2436C280.368 77.6728 279.095 76.3994 277.524 76.3994Z" fill="#00194F"/>
<path d="M279.234 74.6357H166.257C164.845 74.6357 163.7 75.7805 163.7 77.1927C163.7 78.6049 164.845 79.7497 166.257 79.7497H279.234C280.646 79.7497 281.791 78.6049 281.791 77.1927C281.791 75.7805 280.646 74.6357 279.234 74.6357Z" fill="white"/>
<path d="M279.234 117.62H166.257C164.845 117.62 163.7 118.764 163.7 120.177C163.7 121.589 164.845 122.734 166.257 122.734H279.234C280.646 122.734 281.791 121.589 281.791 120.177C281.791 118.764 280.646 117.62 279.234 117.62Z" fill="#363636"/>
<path opacity="0.3" d="M279.234 74.6357H262.161C260.749 74.6357 259.604 75.7805 259.604 77.1927C259.604 78.6049 260.749 79.7497 262.161 79.7497H279.234C280.646 79.7497 281.791 78.6049 281.791 77.1927C281.791 75.7805 280.646 74.6357 279.234 74.6357Z" fill="#93B85E"/>
<path opacity="0.9" d="M279.234 117.62H262.161C260.749 117.62 259.604 118.764 259.604 120.177C259.604 121.589 260.749 122.734 262.161 122.734H279.234C280.646 122.734 281.791 121.589 281.791 120.177C281.791 118.764 280.646 117.62 279.234 117.62Z" fill="#332D2D"/>
<path d="M96.8785 46.6982C93.3295 46.6982 89.2102 49.5 87.2481 52.4573C85.8614 54.5473 84.5819 59.8376 91.4439 59.8376C98.306 59.8376 100.301 59.8376 103.241 59.8376C106.022 59.8376 109.162 56.7429 105.617 51.7499C105.202 51.1659 104.937 50.4776 104.937 49.7613C104.937 48.0696 103.566 46.6982 101.874 46.6982H96.8785Z" fill="#8A5243"/>
<path d="M121.601 66.5032C122.003 66.097 122.516 65.826 123.025 65.567C123.948 65.0975 124.436 64.4274 124.712 64.0416C125.059 63.556 126.336 61.8835 126.327 61.7668C126.318 61.6507 126.122 60.7274 124.549 59.651C123.284 58.7849 122.487 58.4802 122.097 58.3734C121.919 58.3249 121.744 58.4051 121.635 58.5532L121.336 58.9618C121.201 59.146 121.008 59.0852 121.064 58.8638C121.162 58.4766 121.176 57.998 120.865 57.4732C120.554 56.9484 119.84 57.0284 119.821 57.1145C119.802 57.2005 119.782 57.4248 119.719 57.9274C119.656 58.43 119.442 59.3022 119.424 59.5685C119.407 59.8348 119.431 61.1192 119.206 62.0651L119.039 63.0318C118.977 63.3871 118.841 63.7266 118.604 63.999C118.46 64.1652 118.298 64.3406 118.127 64.5171C117.257 65.4165 117.355 66.9084 118.403 67.5922C119.153 68.0819 120.145 67.9761 120.775 67.339L121.601 66.5032Z" fill="#FFD1BB"/>
<path d="M121.556 59.7672C121.292 59.6827 121.168 59.3809 121.297 59.1353C121.897 58.115 122.642 57.1307 122.72 56.9878C122.799 56.8453 123.921 55.4364 124.159 55.0191C124.396 54.6026 124.736 54.5208 124.965 54.9757C125.193 55.4311 124.894 56.201 124.576 56.7385C124.26 57.2763 124.085 57.4975 123.929 57.8145C123.827 58.0238 123.257 58.9529 122.883 59.5564C122.69 59.8689 122.309 60.0084 121.959 59.8962L121.556 59.7672Z" fill="#FFD1BB"/>
<path d="M123.245 59.9759C122.996 59.8408 122.935 59.5103 123.12 59.2956C123.966 58.4029 124.945 57.5684 125.059 57.4432C125.172 57.3173 126.627 56.1341 126.964 55.7683C127.302 55.4022 127.656 55.3814 127.764 55.8664C127.872 56.3503 127.383 57.0511 126.936 57.5215C126.49 57.9924 126.262 58.1786 126.029 58.4615C125.871 58.6546 125.029 59.5121 124.514 60.0342C124.273 60.2777 123.901 60.3321 123.6 60.1689L123.245 59.9759Z" fill="#FFD1BB"/>
<path d="M124.281 60.985C124.068 60.8052 124.077 60.474 124.3 60.3065C125.303 59.6187 126.415 59.0072 126.551 58.9095C126.687 58.8125 128.326 57.9565 128.729 57.6726C129.132 57.3894 129.465 57.4285 129.447 57.8962C129.43 58.3639 128.806 58.9335 128.275 59.296C127.745 59.6589 127.489 59.7937 127.205 60.0176C127.006 60.174 125.973 60.8567 125.371 61.252C125.113 61.4221 124.774 61.4009 124.537 61.2011L124.281 60.985Z" fill="#FFD1BB"/>
<path d="M124.704 61.9738C124.572 61.7606 124.667 61.4802 124.901 61.3904C125.919 61.0448 127.003 60.7835 127.141 60.7334C127.28 60.6829 128.864 60.3345 129.274 60.1888C129.686 60.0446 129.942 60.1462 129.785 60.5189C129.628 60.8924 128.951 61.2211 128.413 61.4031C127.876 61.5851 127.628 61.6405 127.33 61.7618C127.12 61.8477 126.058 62.1898 125.456 62.3821C125.21 62.4607 124.943 62.3612 124.808 62.1416L124.704 61.9738Z" fill="#FFD1BB"/>
<path d="M121.173 59.6218C121.125 59.6641 121.185 59.7326 121.224 59.7824C121.239 59.8009 121.256 59.8226 121.275 59.8472C121.311 59.8898 121.354 59.9424 121.405 60.0027C121.445 60.0655 121.479 60.1367 121.525 60.2108C121.566 60.2873 121.623 60.3607 121.656 60.4573C121.695 60.5508 121.737 60.6474 121.783 60.7472C121.822 60.8477 121.844 60.9595 121.88 61.0661C121.913 61.1753 121.939 61.2871 121.955 61.4C121.972 61.5122 121.998 61.6254 122.006 61.7362C122.008 61.8487 122.01 61.9591 122.01 62.0656C122.019 62.1738 122.009 62.2758 121.99 62.3735C121.977 62.4712 121.963 62.5643 121.952 62.6503C121.943 62.7364 121.905 62.8087 121.888 62.8782C121.865 62.9462 121.847 63.0058 121.831 63.0559C121.81 63.13 121.795 63.1805 121.789 63.2019C121.787 63.2097 121.785 63.2174 121.783 63.2252C121.773 63.2566 121.797 63.2901 121.836 63.2979C121.897 63.3094 121.934 63.2399 121.967 63.1877C121.98 63.1677 121.994 63.1442 122.011 63.1173C122.039 63.0683 122.074 63.0094 122.113 62.9413C122.149 62.8725 122.212 62.7984 122.231 62.7078C122.258 62.6158 122.287 62.5191 122.316 62.4144C122.348 62.31 122.383 62.2006 122.382 62.0828C122.388 61.9658 122.395 61.8441 122.402 61.722C122.397 61.599 122.373 61.4766 122.359 61.3524C122.341 61.2292 122.312 61.1063 122.274 60.9878C122.234 60.8689 122.2 60.7515 122.149 60.6421C122.093 60.5342 122.036 60.4316 121.981 60.3353C121.934 60.2369 121.852 60.1501 121.788 60.0708C121.722 59.9918 121.664 59.9163 121.604 59.8606C121.541 59.8094 121.485 59.766 121.439 59.729C121.403 59.7011 121.372 59.6781 121.349 59.6603C121.311 59.6317 121.272 59.5949 121.225 59.5996C121.205 59.6016 121.187 59.609 121.173 59.6218Z" fill="#F2846F"/>
<path d="M116.35 65.1556C116.63 64.9421 116.973 65.1588 117.258 65.3672C118.197 66.055 120.391 67.6573 120.774 67.9037C121.263 68.2187 120.981 68.352 120.863 68.5125C120.745 68.6722 113.052 76.4137 111.302 77.9282C109.026 79.8972 108.546 80.306 106.182 79.1329C104.196 78.1475 97.3951 72.574 94.7284 70.3706C94.0646 69.8221 93.5662 69.1025 93.2834 68.2892L92.9941 67.4572C92.2194 65.2291 93.5788 62.8275 95.8879 62.345C96.9335 62.1265 98.0229 62.3446 98.8694 62.9961C99.7951 63.7087 101.126 64.7842 102.63 66.1551C106.097 69.3153 111.3 68.9287 115.058 66.1216C115.79 65.5747 116.3 65.1938 116.35 65.1556Z" fill="#CF1322"/>
<path d="M102.63 66.1551C101.126 64.7844 99.7952 63.709 98.8694 62.9963C98.0229 62.3447 96.9335 62.1265 95.8877 62.345C93.5788 62.8275 92.2193 65.229 92.994 67.457L93.2834 68.2892C93.5662 69.1025 94.0646 69.8221 94.7284 70.3706C97.3951 72.574 104.196 78.1475 106.182 79.1329C106.834 79.4566 107.343 79.6596 107.786 79.7428C108.997 79.97 109.776 78.6462 109.994 77.4337C110.418 75.0817 110.594 72.6057 110.44 70.8255C110.39 70.2432 109.444 70.2523 108.998 70.6301C108.741 70.8474 108.657 70.6416 108.372 70.4627C107.346 69.8176 104.843 68.1722 102.63 66.1551Z" fill="#AF0000"/>
<path d="M104.378 60.5385C103.096 58.9562 101.168 58.0371 99.1311 58.0371C95.4011 58.0371 92.3774 61.0608 92.3774 64.7907V79.1147C92.3774 83.1662 95.6618 86.4506 99.7133 86.4506C103.765 86.4506 107.049 83.1662 107.049 79.1147V67.0162C107.049 64.9578 106.342 62.9619 105.046 61.3628L104.378 60.5385Z" fill="#332D2D"/>
<path d="M97.5871 50.3174C95.6862 50.3174 94.1452 51.859 94.1452 53.76C94.1452 54.1197 94.1452 54.4422 94.1452 54.6861C94.1452 56.528 93.2621 58.9754 94.6512 60.1849C95.7047 61.1021 96.9101 61.9073 98.2835 62.3399C99.4044 62.6929 100.675 62.3928 101.415 61.4802C102.03 60.7225 102.247 59.9548 102.285 59.3028C102.351 58.1583 101.029 57.3315 101.029 56.185C101.029 55.8068 101.029 54.8191 101.029 53.7596C101.029 51.8587 99.488 50.3174 97.5871 50.3174Z" fill="#FFD1BB"/>
<path d="M106.039 59.2936C104.357 58.3998 102.358 60.198 102.794 62.0526C103.292 64.1743 103.773 66.7961 103.959 69.5508C104.288 74.4414 104.413 80.5699 104.455 83.4304C104.469 84.3509 105.164 85.1171 106.079 85.22C107.57 85.3876 108.69 83.7301 108.188 82.316C107.634 80.7578 107.207 78.8975 107.497 77.3099C108.137 73.8126 109.808 70.1387 109.453 68.4634C109.097 66.7882 107.532 60.8803 107.355 60.4983C107.177 60.1164 106.537 59.5581 106.039 59.2936Z" fill="#CF1322"/>
<path d="M95.7423 50.3174C95.1398 50.3174 94.6514 50.8058 94.6514 51.4083C94.6514 51.5425 94.6757 51.676 94.7261 51.8004C96.193 55.4182 99.326 58.0755 100.244 57.7721C100.42 57.7139 100.591 57.5969 100.753 57.4454C101.079 57.1395 101.029 56.6328 101.029 56.185C101.029 55.7768 101.029 54.6585 101.029 53.5062C101.029 51.7452 99.6011 50.3174 97.8401 50.3174H95.7423Z" fill="#FAA08E"/>
<path d="M107.019 45.7828C106.942 46.6267 106.775 47.4621 106.694 48.3055C106.626 49.0007 106.536 49.8409 106.444 50.4433C106.255 51.6611 105.723 52.3143 105.11 53.0335C104.498 53.7522 103.134 55.1764 102.384 55.3143C101.635 55.4522 98.3084 55.048 96.42 53.3533C94.8889 51.9791 92.9544 50.6048 92.14 48.7154C91.7876 47.8978 91.533 46.8148 91.533 45.3918C91.533 41.6004 94.2299 39.0529 100.051 39.2494C105.255 39.4253 107.333 42.3163 107.019 45.7828Z" fill="#FFD1BB"/>
<path d="M99.2618 48.091C99.3126 48.4884 99.7056 48.7783 100.143 48.7406C100.579 48.7029 100.891 48.3502 100.84 47.9538C100.791 47.5577 100.396 47.2667 99.9603 47.3052C99.5225 47.3426 99.2106 47.6952 99.2618 48.091Z" fill="#733330"/>
<path d="M101.204 47.8139C101.201 47.8105 101.199 47.8069 101.197 47.8031C101.196 47.8017 101.195 47.8 101.194 47.7981C101.188 47.7856 101.181 47.7733 101.175 47.7607C101.165 47.742 101.155 47.7187 101.13 47.6948C101.1 47.6624 101.052 47.6123 101.008 47.571C100.962 47.5252 100.904 47.4793 100.836 47.4388C100.702 47.3488 100.529 47.2666 100.328 47.2141C100.229 47.1841 100.122 47.1623 100.013 47.1517C99.9026 47.1418 99.7887 47.1295 99.6747 47.1383C99.5608 47.1453 99.446 47.1573 99.3351 47.1799C99.2242 47.2 99.1201 47.2441 99.0194 47.2769C98.8244 47.3594 98.6648 47.4694 98.553 47.5795C98.4434 47.6923 98.3772 47.7992 98.3384 47.8754C98.3067 47.937 98.2914 47.9792 98.2867 47.9931C98.2856 47.9964 98.2847 47.9999 98.2841 48.0033C98.283 48.0085 98.2814 48.0137 98.2804 48.0189C98.2748 48.0486 98.297 48.0781 98.3316 48.0856C98.3723 48.0962 98.4096 48.0642 98.4448 48.0412C98.4592 48.0318 98.4761 48.0205 98.4954 48.0076C98.5556 47.9583 98.6618 47.9124 98.7728 47.85C98.8325 47.8204 98.8995 47.7964 98.9665 47.7661C99.0381 47.7445 99.1145 47.723 99.1922 47.6998C99.3496 47.6613 99.5237 47.6334 99.7012 47.6366C99.8761 47.6342 100.058 47.6366 100.222 47.6684C100.307 47.6793 100.386 47.7001 100.465 47.7103C100.539 47.728 100.613 47.7414 100.678 47.7622C100.809 47.801 100.916 47.8334 100.983 47.8616C100.986 47.8631 100.99 47.8646 100.993 47.866C101.066 47.9003 101.17 47.9587 101.21 47.8888C101.219 47.8736 101.221 47.8565 101.218 47.8403C101.215 47.8305 101.21 47.822 101.204 47.8139Z" fill="#733330"/>
<path d="M105.88 47.4568C105.606 47.4314 105.356 47.6924 105.322 48.0394C105.285 48.3865 105.478 48.6891 105.753 48.7131C106.027 48.7388 106.276 48.4775 106.313 48.1294C106.348 47.7827 106.156 47.4804 105.88 47.4568Z" fill="#733330"/>
<path d="M104.737 47.9803C104.739 47.9736 104.739 47.9723 104.741 47.9657C104.744 47.9573 104.748 47.9431 104.751 47.9345C104.755 47.9192 104.759 47.9002 104.772 47.8796C104.786 47.8524 104.81 47.8108 104.832 47.7766C104.855 47.7385 104.885 47.699 104.921 47.662C104.99 47.5826 105.084 47.5057 105.196 47.4479C105.251 47.4165 105.312 47.3897 105.374 47.3717C105.437 47.3537 105.502 47.334 105.569 47.3294C105.635 47.3237 105.703 47.322 105.769 47.328C105.835 47.3322 105.899 47.3544 105.96 47.3696C106.08 47.4119 106.182 47.4782 106.256 47.5491C106.329 47.6221 106.376 47.6955 106.406 47.748C106.425 47.7837 106.437 47.8107 106.443 47.8241C106.445 47.8302 106.447 47.8365 106.449 47.8429C106.458 47.8651 106.448 47.893 106.427 47.9025C106.405 47.9143 106.38 47.8941 106.359 47.8808C106.349 47.875 106.338 47.8681 106.326 47.8602C106.287 47.8298 106.221 47.8058 106.152 47.7702C106.074 47.736 105.99 47.7179 105.907 47.7009C105.904 47.7002 105.9 47.6994 105.896 47.6986C105.801 47.6852 105.699 47.681 105.595 47.7004C105.494 47.7156 105.389 47.7346 105.296 47.7741C105.248 47.79 105.204 47.8126 105.16 47.8277C105.118 47.8478 105.076 47.8647 105.04 47.8866C104.968 47.9282 104.908 47.9621 104.871 47.9892C104.869 47.9909 104.867 47.9924 104.865 47.994C104.827 48.0254 104.769 48.0731 104.742 48.0309C104.734 48.0178 104.732 48.0005 104.736 47.9847L104.737 47.9803Z" fill="#733330"/>
<path d="M101.597 46.1955C101.741 46.3207 101.055 46.4043 100.763 46.3492C100.472 46.2946 99.49 46.0872 98.8816 46.0685C98.2748 46.0505 97.643 46.1246 97.6814 46.0752C97.721 46.0251 98.2719 45.768 99.0898 45.7204C99.7208 45.6844 100.985 45.6682 101.597 46.1955Z" fill="#733330"/>
<path d="M105.793 45.838C105.42 45.8021 104.674 45.7862 104.313 46.3134C104.228 46.4383 104.632 46.5222 104.805 46.4672C104.976 46.4126 105.557 46.2052 105.916 46.1865C106.274 46.1685 106.647 46.2426 106.624 46.1932C106.601 46.1431 106.275 45.8856 105.793 45.838Z" fill="#733330"/>
<path d="M104.708 50.1297C104.616 49.8678 104.345 50.0162 104.372 50.2924C104.381 50.3788 104.566 50.6558 104.629 50.5955C104.73 50.4983 104.775 50.3731 104.731 50.2042C104.724 50.18 104.717 50.1551 104.708 50.1297Z" fill="#FAA08E"/>
<path d="M103.008 50.8316C103.103 50.8535 103.253 50.7956 103.236 50.7002C103.223 50.6303 103.186 50.5676 103.09 50.5778C103.08 50.5788 103.07 50.58 103.06 50.5814C102.893 50.6053 102.843 50.7935 103.008 50.8316Z" fill="#FAA08E"/>
<path d="M102.792 52.8252C103.823 52.9511 103.689 52.1583 102.656 52.0462C101.812 51.9547 101.048 51.9618 101.03 52.062C100.999 52.2278 101.703 52.6926 102.792 52.8252Z" fill="#631212"/>
<path d="M102.413 52.7632C101.787 52.634 101.918 52.0728 102.549 52.1757C102.658 52.1935 102.764 52.2151 102.866 52.2403C103.33 52.3548 103.267 52.883 102.792 52.8252C102.66 52.809 102.533 52.7879 102.413 52.7632Z" fill="#D93130"/>
<path d="M104.171 52.3353C104.203 52.3454 104.234 52.3567 104.222 52.3883C104.208 52.4294 104.152 52.4555 104.108 52.4563C104.063 52.4571 104.017 52.4572 103.97 52.4567C103.423 52.4502 103.474 52.141 104.001 52.2852C104.06 52.3012 104.117 52.3179 104.171 52.3353Z" fill="white"/>
<path d="M105.67 44.1914C106.583 45.4459 108.538 46.5537 108.936 45.0538C109.245 43.8843 108.927 42.6497 108.235 41.6961C107.315 40.4272 105.756 39.2188 104.333 38.561C103.254 38.0623 101.702 37.6621 99.6489 37.6621C94.2699 37.6621 90.9108 40.5132 90.3595 43.1291C90.2176 43.8024 90.1659 44.4788 90.1673 45.1122C90.1716 47.094 91.9724 48.4081 93.9542 48.4081C98.561 48.7095 101.326 46.8807 102.89 44.7857C103.642 43.7788 104.93 43.1754 105.67 44.1914Z" fill="#8A5243"/>
<path d="M94.0095 48.9656C93.9727 48.598 93.8711 48.2294 93.6252 47.9536C92.3924 46.5709 90.2505 47.0935 90.6478 48.869C90.8535 49.789 91.492 50.3802 92.1887 50.7225C93.2838 51.2604 94.131 50.1796 94.0095 48.9656Z" fill="#FFD1BB"/>
<path d="M120.61 85.5573C120.61 85.5572 120.61 85.5571 120.61 85.5571C120.614 85.5571 124.026 85.5571 125.888 85.5571C127.751 85.5571 130.092 86.9788 130.474 89.7037C130.856 92.4285 119.887 114.711 119.553 115.541C119.219 116.37 119.482 117.239 119.959 117.752C120.372 118.196 122 120.19 123.36 121.283C123.724 121.577 123.972 122.007 123.972 122.475C123.972 123.214 123.373 123.814 122.633 123.814H120.331C119.503 123.814 118.701 123.533 118.055 123.013C116.625 121.862 114.136 119.852 113.916 119.628C113.606 119.312 113.533 118.582 113.797 118.069C114.059 117.555 114.872 116.351 114.944 115.64C115.015 114.929 118.961 97.6508 119.033 97.0353C119.114 96.34 118.633 95.657 117.933 95.657H115.644C114.152 95.657 112.942 94.447 112.942 92.9544V89.3915C112.942 87.274 114.658 85.5575 116.776 85.5575H120.61C120.61 85.5575 120.61 85.5574 120.61 85.5573Z" fill="#FFD1BB"/>
<g opacity="0.6">
<path d="M124.507 89.7037C124.649 90.7229 123.565 94.0888 121.921 98.0572C121.028 100.214 118.76 99.353 119.033 97.035C119.113 96.3396 118.633 95.6567 117.933 95.6567H113.381C113.138 95.6567 112.942 95.4599 112.942 95.2172V87.257C112.942 86.3182 113.703 85.5571 114.641 85.5571H119.92C121.784 85.5571 124.124 86.9792 124.507 89.7037Z" fill="#F2846F"/>
</g>
<path d="M113.128 118.996C113.564 118.317 114.518 118.249 115.031 118.873C115.773 119.776 116.542 120.811 116.981 121.412C117.226 121.747 117.526 122.034 117.915 122.179C118.902 122.548 120.726 123.04 120.851 123.05C121.01 123.064 121.329 122.945 121.503 122.813C122.704 121.913 124.277 121.625 125.581 122.366C125.686 122.425 125.792 122.486 125.899 122.55C127.22 123.34 127.746 123.669 127.953 124.025C128.159 124.38 128.526 125.236 127.73 125.236C126.935 125.236 121.503 125.236 120.325 125.236C119.147 125.236 118.351 124.801 117.841 124.315C117.73 124.208 117.538 124.05 117.307 123.87C116.326 123.105 114.862 123.677 114.673 124.907C114.657 125.012 114.577 125.236 114.258 125.236C113.94 125.236 113.78 125.236 113.637 125.236C113.494 125.236 113.255 125.091 113.224 124.841C113.192 124.591 113.049 121.3 112.968 120.655C112.889 120.01 113 119.194 113.128 118.996Z" fill="#CF1322"/>
<path d="M113.224 124.84C113.192 124.59 113.049 121.299 112.968 120.654C112.889 120.01 113 119.193 113.128 118.996C113.351 118.652 113.843 118.626 114.116 118.932C114.761 119.656 115.59 120.544 116.351 121.178C116.464 121.273 116.594 121.345 116.73 121.401C116.759 121.413 116.791 121.427 116.825 121.441C116.996 121.513 117.2 121.712 117.308 121.863C117.373 121.953 117.393 121.953 117.493 122.002C117.791 122.15 118.378 122.349 118.98 122.534C118.994 122.538 119.006 122.543 119.018 122.55C120.34 123.34 120.866 123.669 121.072 124.024C121.279 124.38 121.645 125.235 120.849 125.235C120.633 125.235 120.453 125.235 120.325 125.235C119.147 125.235 118.351 124.801 117.841 124.314C117.73 124.207 117.538 124.05 117.307 123.87C116.326 123.104 114.862 123.677 114.673 124.906C114.657 125.012 114.577 125.235 114.258 125.235C113.94 125.235 113.78 125.235 113.637 125.235C113.494 125.235 113.255 125.09 113.224 124.84Z" fill="#AF0000"/>
<path d="M111.626 85.5573C111.626 85.5572 111.626 85.5571 111.626 85.5571C111.63 85.5571 115.043 85.5571 116.905 85.5571C118.768 85.5571 121.109 86.9788 121.491 89.7037C121.873 92.4285 110.904 114.711 110.57 115.541C110.236 116.37 110.498 117.239 110.976 117.752C111.389 118.196 113.017 120.19 114.376 121.283C114.741 121.577 114.989 122.007 114.989 122.475C114.989 123.214 114.39 123.814 113.65 123.814H111.348C110.52 123.814 109.718 123.533 109.073 123.013C107.642 121.862 105.153 119.852 104.933 119.628C104.622 119.312 104.551 118.582 104.814 118.069C105.076 117.555 105.888 116.351 105.96 115.64C106.032 114.929 109.977 97.6508 110.05 97.0353C110.13 96.34 109.649 95.657 108.949 95.657H106.661C105.168 95.657 103.958 94.447 103.958 92.9544V89.3917C103.958 87.2741 105.675 85.5575 107.792 85.5575H111.626C111.626 85.5575 111.626 85.5574 111.626 85.5573Z" fill="#FFD1BB"/>
<path d="M104.144 118.996C104.582 118.318 105.535 118.249 106.048 118.873C106.79 119.776 107.559 120.811 107.998 121.412C108.243 121.747 108.543 122.034 108.931 122.179C109.919 122.548 111.743 123.04 111.868 123.05C112.027 123.064 112.345 122.945 112.52 122.813C113.72 121.912 115.294 121.625 116.598 122.365C116.703 122.425 116.809 122.486 116.916 122.55C118.237 123.34 118.763 123.669 118.97 124.025C119.176 124.38 119.543 125.236 118.747 125.236C117.951 125.236 112.52 125.236 111.342 125.236C110.164 125.236 109.367 124.801 108.858 124.315C108.746 124.208 108.554 124.05 108.323 123.87C107.343 123.105 105.874 123.677 105.689 124.907C105.673 125.012 105.593 125.236 105.275 125.236C104.956 125.236 104.797 125.236 104.654 125.236C104.511 125.236 104.272 125.091 104.24 124.841C104.208 124.591 104.065 121.3 103.985 120.655C103.905 120.01 104.017 119.194 104.144 118.996Z" fill="#CF1322"/>
<path opacity="0.6" d="M113.847 91.0089C113.844 91.0101 113.842 91.0112 113.839 91.0124C113.821 91.0209 113.739 91.0603 113.615 91.1359C113.469 91.2184 113.271 91.3468 113.049 91.5118C112.933 91.5908 112.818 91.6854 112.701 91.7876C112.579 91.8878 112.454 91.9961 112.329 92.1111C112.21 92.2306 112.087 92.3537 111.967 92.4835C111.848 92.6126 111.718 92.7395 111.618 92.8834C111.512 93.0235 111.406 93.1638 111.301 93.3017C111.194 93.4379 111.111 93.5839 111.032 93.7249C110.949 93.8646 110.879 94.0032 110.808 94.1319C110.733 94.26 110.676 94.3859 110.638 94.5072C110.553 94.746 110.496 94.9481 110.45 95.0867C110.436 95.1369 110.424 95.1794 110.414 95.2133C110.398 95.2754 110.382 95.3629 110.445 95.3731C110.474 95.3776 110.502 95.3664 110.517 95.3473C110.519 95.3431 110.522 95.339 110.525 95.3349C110.54 95.3154 110.588 95.2496 110.657 95.1473C110.737 95.0214 110.859 94.8468 110.988 94.6335C111.046 94.5245 111.131 94.4159 111.219 94.2995C111.304 94.182 111.398 94.0611 111.487 93.9316C111.574 93.8025 111.667 93.6706 111.78 93.5444C111.885 93.4149 111.991 93.2834 112.097 93.1515C112.199 93.0182 112.313 92.8905 112.426 92.7653C112.54 92.6408 112.646 92.5145 112.748 92.3918C112.976 92.1611 113.167 91.9294 113.349 91.7435C113.694 91.3758 113.929 91.1265 113.946 91.108C113.947 91.1072 113.948 91.1065 113.949 91.1057C113.974 91.0772 113.967 91.0368 113.933 91.0149C113.908 90.9987 113.873 90.9966 113.847 91.0089Z" fill="#F2846F"/>
<path d="M87.8754 86.679C86.8891 87.6808 86.5203 89.0934 86.195 90.461C85.4341 93.6596 84.8212 95.6569 87.9233 95.6569C91.1354 95.6569 103.533 95.6569 106.89 95.6569C107.401 95.6569 107.989 94.9606 108.191 94.4916C108.772 93.1368 105.221 84.5231 103.752 84.3948L93.8576 83.5304C93.6014 83.5081 93.3445 83.5322 93.1011 83.6151C92.1571 83.9366 89.6062 84.9211 87.8754 86.679Z" fill="white"/>
<path d="M96.573 62.9163C95.2997 58.811 90.4955 57.2731 86.3063 58.235C84.3863 58.6759 82.2525 60.1455 83.1417 65.2302C83.7461 68.6868 85.287 74.6696 86.2118 78.1465C86.6848 79.925 86.6484 81.7987 86.114 83.5597C85.3599 86.0449 84.5162 88.9192 83.8407 91.2431C83.197 93.4578 84.861 95.6639 87.1673 95.6639C87.6748 95.6639 88.1734 95.5555 88.6156 95.3066C90.3298 94.3418 94.8687 91.3967 97.2258 86.1473C97.9389 84.5591 98.0561 82.7926 97.9469 81.0551C97.6305 76.02 96.9486 65.3391 96.7596 63.731C96.7317 63.4935 96.6665 63.2181 96.573 62.9163Z" fill="#CF1322"/>
<path d="M105.942 81.9787C106.427 81.5668 107.103 81.463 107.689 81.7102L110.2 82.7688C110.894 83.0613 111.635 83.2232 112.387 83.246C113.661 83.2845 115.573 83.3414 115.762 83.3414C116.048 83.3414 117.462 84.4979 117.604 84.6041C117.747 84.7106 117.904 85.0058 117.933 85.2537C117.946 85.3717 117.882 85.733 117.811 86.0792C117.712 86.5632 117.73 87.0852 118.004 87.4964C118.161 87.7327 117.875 87.9451 117.318 87.8153C116.761 87.6851 116.433 87.1187 116.276 86.8944C116.178 86.7545 116.011 86.8513 116.055 87.0162C116.132 87.3043 116.238 87.6623 116.348 87.9214C116.562 88.4286 116.604 88.6078 116.248 88.6131C115.891 88.618 115.401 88.4758 115.189 88.004C114.977 87.5317 114.948 87.2619 114.848 87.1843C114.767 87.1218 114.653 87.2525 114.692 87.3466C114.703 87.3746 114.712 87.4012 114.716 87.4256C114.748 87.6142 114.948 88.2875 115.005 88.5235C115.062 88.7594 114.976 89.031 115.005 89.208C115.034 89.3851 114.42 89.5032 114.205 89.0899C113.991 88.6765 113.991 88.5355 113.941 88.3817C113.891 88.2283 113.663 87.7204 113.577 87.6848C112.753 87.3424 111.929 87.0134 111.052 86.8442C111.017 86.8374 110.982 86.8303 110.946 86.8228C110.491 86.7261 110.143 86.6008 109.881 86.4756C109.352 86.2233 108.869 85.8358 108.326 85.6142L106.396 84.8252C105.225 84.3467 104.978 82.7974 105.942 81.9787Z" fill="#FFC8AD"/>
<path d="M116.762 85.1239C116.605 84.9761 115.941 84.3272 115.99 84.3152C116.034 84.3047 117.005 84.6661 117.757 85.2576C117.867 85.3434 117.919 85.4899 117.896 85.627C117.83 86.029 117.312 86.0703 117.127 85.7073C117.113 85.6796 117.101 85.6561 117.09 85.6374C116.99 85.4603 116.919 85.2717 116.762 85.1239Z" fill="#F2846F"/>
<path d="M115.905 86.4945C115.93 86.4587 115.89 86.4165 115.862 86.3833C115.828 86.3433 115.775 86.2824 115.704 86.2113C115.578 86.084 115.396 85.9253 115.201 85.7778C115.01 85.6279 114.798 85.4953 114.637 85.3976C114.484 85.3076 114.37 85.2536 114.356 85.2473C114.355 85.2469 114.354 85.2464 114.354 85.246C114.323 85.2319 114.285 85.2407 114.268 85.2657C114.263 85.2725 114.261 85.2796 114.26 85.2866C114.257 85.3101 114.277 85.3289 114.292 85.3471C114.323 85.3839 114.384 85.4548 114.47 85.5412C114.598 85.6671 114.772 85.8321 114.965 85.9806C115.156 86.1312 115.36 86.2709 115.523 86.3668C115.675 86.4556 115.789 86.5091 115.805 86.5162C115.806 86.5168 115.807 86.5174 115.808 86.5181C115.843 86.534 115.887 86.5234 115.905 86.4945Z" fill="#F2846F"/>
<path d="M114.362 86.8706C114.381 86.8367 114.348 86.7996 114.324 86.7693C114.3 86.7383 114.263 86.6941 114.215 86.6438C114.121 86.5468 113.983 86.4297 113.833 86.3236C113.686 86.2146 113.519 86.1246 113.392 86.058C113.341 86.0322 113.295 86.0114 113.258 85.9957C113.199 85.9704 113.114 85.93 113.083 85.9864C113.079 85.9941 113.077 86.0026 113.077 86.0108C113.079 86.0281 113.091 86.0421 113.102 86.0559C113.124 86.0846 113.168 86.14 113.232 86.2061C113.327 86.3013 113.456 86.4262 113.606 86.5331C113.752 86.6424 113.911 86.7404 114.04 86.805C114.113 86.8415 114.175 86.8678 114.216 86.8838C114.249 86.8967 114.283 86.9133 114.317 86.9043C114.337 86.8991 114.354 86.8874 114.362 86.8706Z" fill="#F2846F"/>
<path d="M93.2855 71.7072C92.3349 68.6731 89.1026 67.029 86.4677 68.8085C85.1382 69.7064 84.5133 71.5226 84.9023 73.079C85.208 74.3018 85.5141 75.4913 85.793 76.5578C85.928 77.0743 86.1289 77.5701 86.3258 78.0664C86.886 79.4771 87.7125 80.4029 90.6014 81.3287C91.9866 81.7726 95.1446 82.7789 98.0578 83.7058C98.0791 83.7126 98.102 83.7006 98.1081 83.6791C98.1093 83.6749 98.1098 83.6713 98.1095 83.667C98.1029 83.5597 98.0038 81.9599 97.8613 79.7046C97.7861 78.5146 96.4294 77.1375 95.3587 76.613C94.5397 76.2117 94.5707 75.8097 94.2981 74.9395L93.2855 71.7072Z" fill="#AF0000"/>
<path d="M107.711 81.3071C108.05 81.5493 107.789 81.9641 107.457 82.2174C106.824 82.7017 106.277 83.4016 105.967 84.0556C105.823 84.3596 105.558 84.6043 105.226 84.6559C105.095 84.6763 104.967 84.6681 104.841 84.6279C103.417 84.1751 94.1965 81.2418 91.5332 80.3883C88.6442 79.4625 87.8173 78.5367 87.2575 77.126C86.7982 75.9683 85.0994 72.3201 84.5046 71.0483C84.3664 70.7529 84.263 70.4447 84.1951 70.1257C83.6313 67.4762 85.6517 64.9805 88.3606 64.9805H88.9344C90.9989 64.9805 92.8241 66.3213 93.4415 68.2913L94.4565 71.5304C95.2231 73.9769 96.9594 75.9997 99.2612 77.1291C102.768 78.8497 107.588 81.2196 107.711 81.3071Z" fill="#CF1322"/>
<path opacity="0.5" d="M95.156 75.4697C95.1851 75.5802 95.2626 75.6715 95.3668 75.7183L95.3936 75.7304L101.559 78.5067L107.71 81.3071L107.076 80.9815C106.059 80.472 103.957 79.4361 101.83 78.391C97.8905 76.4545 94.9134 72.99 93.6007 68.8008L92.4036 64.9805L95.156 75.4697Z" fill="white"/>
</svg>
