<svg width="80" height="56" viewBox="0 0 80 56" fill="none" xmlns="http://www.w3.org/2000/svg">
<g id="katalon-testops-actionable-insights 1">
<path id="Vector" d="M21.6777 27.9736H58.5209V33.6208H21.6777V27.9736Z" fill="#41C4FF"/>
<path id="Vector_2" d="M43.5003 38.7489C48.3651 36.9852 50.9045 31.5401 49.1723 26.5868C47.4401 21.6336 42.0922 19.048 37.2274 20.8117C32.3626 22.5754 29.8232 28.0205 31.5554 32.9737C33.2876 37.927 38.6355 40.5126 43.5003 38.7489Z" fill="#00194F"/>
<path id="Vector_3" d="M51.5878 21.5198C54.3228 21.5198 56.5399 19.2623 56.5399 16.4777C56.5399 13.693 54.3228 11.4355 51.5878 11.4355C48.8529 11.4355 46.6357 13.693 46.6357 16.4777C46.6357 19.2623 48.8529 21.5198 51.5878 21.5198Z" fill="#00194F"/>
<path id="Vector_4" d="M36.8264 13.2635C38.6862 13.2635 40.1938 11.7285 40.1938 9.83489C40.1938 7.9413 38.6862 6.40625 36.8264 6.40625C34.9666 6.40625 33.459 7.9413 33.459 9.83489C33.459 11.7285 34.9666 13.2635 36.8264 13.2635Z" fill="#00194F"/>
<path id="Vector_5" d="M56.8659 54.5959H23.3329C22.4188 54.5959 21.6777 54.1433 21.6777 53.5853V33.6207H58.5209V53.5853C58.5209 54.1433 57.7799 54.5959 56.8659 54.5959Z" fill="#AF0000"/>
<path id="Vector_6" d="M45.1294 33.6207V39.2618C45.1294 39.7104 44.649 40.0746 44.0548 40.0746H37.0921C36.4979 40.0746 36.0176 39.7104 36.0176 39.2618V33.6207H45.1294Z" fill="white"/>
<path id="Vector_7" d="M13.4828 20.6137L21.6773 27.9736V33.6208L9.32784 23.7183C8.82454 23.2227 8.90734 22.5776 9.53074 22.1388L11.817 20.5296C12.2792 20.2041 13.1094 20.2461 13.4828 20.6137Z" fill="#AF0000"/>
<path id="Vector_8" d="M66.5175 20.6137L58.5215 28.1128V33.8224L70.6725 23.7183C71.176 23.2227 71.093 22.5776 70.4695 22.1388L68.1835 20.5296C67.7215 20.2041 66.891 20.2461 66.5175 20.6137Z" fill="#AF0000"/>
<path id="Vector_9" d="M46.4205 2.68639C46.5185 2.62062 46.5185 2.4746 46.4205 2.40884C46.1674 2.2391 45.9273 2.04162 45.7042 1.81625C45.4812 1.59088 45.2857 1.34817 45.1177 1.09249C45.0527 0.993422 44.9081 0.993422 44.8431 1.09249C44.6751 1.34817 44.4796 1.59088 44.2566 1.81625C44.0335 2.04162 43.7933 2.2391 43.5403 2.40884C43.4423 2.4746 43.4423 2.62062 43.5403 2.68639C43.7934 2.85612 44.0335 3.0536 44.2566 3.27898C44.4796 3.50435 44.6751 3.74705 44.8431 4.00274C44.9081 4.1018 45.0527 4.1018 45.1177 4.00274C45.2857 3.74705 45.4812 3.50435 45.7042 3.27898C45.9272 3.05357 46.1674 2.85608 46.4205 2.68639Z" fill="#19D89F"/>
<path id="Vector_10" d="M33.8286 20.6824C34.0017 20.5663 34.0017 20.3086 33.8286 20.1926C33.3821 19.8931 32.9582 19.5446 32.5646 19.1469C32.171 18.7491 31.8261 18.3208 31.5297 17.8696C31.4149 17.6948 31.1597 17.6948 31.045 17.8696C30.7485 18.3208 30.4037 18.7491 30.01 19.1469C29.6163 19.5446 29.1925 19.8931 28.746 20.1926C28.5729 20.3086 28.5729 20.5663 28.746 20.6824C29.1925 20.9819 29.6164 21.3303 30.01 21.728C30.4036 22.1258 30.7485 22.5541 31.045 23.0054C31.1597 23.1802 31.4149 23.1802 31.5297 23.0054C31.8261 22.5541 32.1709 22.1258 32.5646 21.728C32.9582 21.3303 33.3821 20.9819 33.8286 20.6824Z" fill="#19D89F"/>
<path id="Vector_11" d="M26.1519 6.28075C26.2479 6.21646 26.2479 6.07355 26.1519 6.00921C25.9043 5.84314 25.6693 5.64989 25.451 5.42935C25.2328 5.20886 25.0415 4.97134 24.8772 4.72114C24.8135 4.6242 24.6721 4.6242 24.6084 4.72114C24.444 4.97134 24.2528 5.20886 24.0345 5.42935C23.8162 5.64989 23.5813 5.84314 23.3336 6.00921C23.2377 6.07355 23.2377 6.21646 23.3336 6.28075C23.5813 6.44687 23.8163 6.64007 24.0345 6.86061C24.2528 7.08115 24.444 7.31864 24.6084 7.56886C24.6721 7.66579 24.8135 7.66579 24.8772 7.56886C25.0415 7.31864 25.2327 7.08115 25.451 6.86061C25.6693 6.64007 25.9044 6.44687 26.1519 6.28075Z" fill="#19D89F"/>
<path id="Vector_12" d="M39.3545 32.2784C39.1407 32.2784 38.9329 32.2068 38.7685 32.0747L37.1811 30.799C36.7997 30.4923 36.7528 29.9509 37.0764 29.5895C37.4001 29.2282 37.9716 29.1838 38.3531 29.4903L39.2362 30.2001L42.3846 26.5437C42.7007 26.1765 43.2711 26.1214 43.659 26.4211C44.0467 26.7207 44.1046 27.2612 43.7884 27.6283L40.0564 31.9627C39.9026 32.1413 39.6794 32.2538 39.4372 32.2748C39.4096 32.2772 39.382 32.2784 39.3545 32.2784Z" fill="white"/>
</g>
</svg>
