<svg width="390" height="669" viewBox="0 0 390 669" fill="none" xmlns="http://www.w3.org/2000/svg">
<g clip-path="url(#clip0_1353_8289)">
<rect width="390" height="669" fill="url(#paint0_linear_1353_8289)"/>
<path fill-rule="evenodd" clip-rule="evenodd" d="M406.331 659.591C408.484 662.732 406.235 667 402.427 667H359.726C358.204 667 356.774 666.268 355.885 665.033L344.954 649.85C343.724 648.14 343.771 645.824 345.069 644.166L368.119 614.742C370.091 612.225 373.94 612.347 375.748 614.985L406.331 659.591Z" fill="#00194F"/>
<path fill-rule="evenodd" clip-rule="evenodd" d="M396.836 555.954C398.727 555.954 399.854 558.061 398.805 559.633L375.071 595.222C373.219 597.999 369.15 598.037 367.246 595.295L348.703 568.586C347.613 567.017 348.736 564.87 350.647 564.87H374.511C376.096 564.87 377.575 564.077 378.452 562.758L381.571 558.066C382.448 556.747 383.928 555.954 385.512 555.954H396.836Z" fill="#00194F"/>
<path fill-rule="evenodd" clip-rule="evenodd" d="M350.324 558.211C349.744 559.001 350.314 560.113 351.293 560.097C357.471 559.998 373.565 559.774 374.187 560.138C374.8 560.496 382.242 549.954 385.281 545.598C385.826 544.816 385.262 543.755 384.308 543.755H361.528C361.151 543.755 360.797 543.934 360.574 544.238L350.324 558.211Z" fill="#00194F"/>
<path fill-rule="evenodd" clip-rule="evenodd" d="M373.896 537.728C373.298 538.531 373.902 539.673 374.903 539.628C380.507 539.377 393.541 538.887 393.541 539.747C393.541 540.589 398.882 532.535 401.319 528.818C401.833 528.034 401.267 527 400.329 527H382.49C382.117 527 381.765 527.176 381.542 527.476L373.896 537.728Z" fill="#00194F"/>
<path fill-rule="evenodd" clip-rule="evenodd" d="M390.636 544.823C390.857 544.501 391.222 544.308 391.613 544.308H405.253C406.209 544.308 406.77 545.383 406.224 546.167L402.271 551.847C402.046 552.171 401.673 552.361 401.278 552.354L387.87 552.108C386.929 552.09 386.384 551.033 386.916 550.256L390.636 544.823Z" fill="#00194F"/>
<path fill-rule="evenodd" clip-rule="evenodd" d="M268.495 551.01C266.133 547.893 268.357 543.42 272.267 543.42H318.069C319.576 543.42 320.994 544.138 321.885 545.354L363.807 602.513C365.048 604.204 365.027 606.511 363.756 608.18L320.398 665.093C319.502 666.268 318.11 666.958 316.633 666.958H271.647C267.714 666.958 265.497 662.439 267.904 659.328L307.45 608.231C308.759 606.54 308.771 604.181 307.48 602.477L268.495 551.01Z" fill="url(#paint1_linear_1353_8289)"/>
</g>
<defs>
<linearGradient id="paint0_linear_1353_8289" x1="208.711" y1="1011.31" x2="220.95" y2="0.143259" gradientUnits="userSpaceOnUse">
<stop offset="0.467052" stop-color="#D5DBEB" stop-opacity="0"/>
<stop offset="1" stop-color="#F2F3F7"/>
</linearGradient>
<linearGradient id="paint1_linear_1353_8289" x1="262" y1="666.958" x2="368.375" y2="665.369" gradientUnits="userSpaceOnUse">
<stop stop-color="#959DB9"/>
<stop offset="1" stop-color="#AF0000"/>
</linearGradient>
<clipPath id="clip0_1353_8289">
<rect width="390" height="669" fill="white"/>
</clipPath>
</defs>
</svg>
