<svg xmlns="http://www.w3.org/2000/svg" width="32" height="32" viewBox="0 0 32 32" fill="none">
    <path
        d="M25.3333 30.3339C24.2645 30.3328 23.2134 30.0608 22.2784 29.5431C21.3433 29.0254 20.5548 28.2791 19.9866 27.3739C19.3733 26.4272 19.0266 25.2939 18.9999 24.1339C18.9599 22.1872 19.7866 20.3739 21.2666 19.1472C22.3712 18.2298 23.7513 17.7088 25.1866 17.6672C26.9199 17.6539 28.4799 18.2539 29.7066 19.4272C30.9333 20.6005 31.6266 22.1739 31.6533 23.8672C31.6799 25.0272 31.3866 26.1605 30.7999 27.1605C30.4799 27.7205 30.0666 28.2405 29.5733 28.6805C28.4799 29.7072 27.0133 30.3072 25.4533 30.3339H25.3333ZM25.3333 19.6672H25.2399C24.2533 19.6939 23.3199 20.0405 22.5466 20.6805C21.5333 21.5205 20.9733 22.7605 20.9999 24.0939C21.0133 24.8805 21.2533 25.6539 21.6666 26.3072C22.4799 27.6139 23.8933 28.4139 25.4133 28.3339C26.4579 28.3122 27.4586 27.9091 28.2266 27.2005C28.5733 26.8939 28.8533 26.5472 29.0666 26.1739C29.4666 25.4805 29.6666 24.7072 29.6533 23.9205C29.6266 22.7605 29.1599 21.6805 28.3199 20.8805C27.5199 20.0939 26.4533 19.6672 25.3333 19.6672Z"
        fill="#1D39C4" />
    <path
        d="M24.5999 26.3338C24.3413 26.3336 24.0928 26.2333 23.9066 26.0538L22.5599 24.7738C22.1599 24.3871 22.1466 23.7605 22.5333 23.3605C22.9199 22.9605 23.5466 22.9471 23.9466 23.3338L24.5999 23.9605L26.6933 21.9338C27.0933 21.5471 27.7199 21.5605 28.1066 21.9605C28.4933 22.3605 28.4799 22.9871 28.0799 23.3738L25.2933 26.0671C25.0933 26.2405 24.8399 26.3338 24.5999 26.3338ZM15.9999 17.7338C15.8266 17.7338 15.6533 17.6938 15.4933 17.6005L3.71995 10.7871C3.23995 10.5071 3.07995 9.89379 3.35995 9.41379C3.63995 8.93379 4.25328 8.77379 4.71995 9.05379L15.9866 15.5738L27.1866 9.09379C27.6666 8.81379 28.2799 8.98713 28.5466 9.45379C28.8266 9.93379 28.6533 10.5471 28.1866 10.8271L16.4933 17.6005C16.3466 17.6805 16.1733 17.7338 15.9999 17.7338Z"
        fill="#1D39C4" />
    <path
        d="M16 29.8138C15.4533 29.8138 15 29.3605 15 28.8138V16.7205C15 16.1738 15.4533 15.7205 16 15.7205C16.5467 15.7205 17 16.1738 17 16.7205V28.8138C17 29.3605 16.5467 29.8138 16 29.8138Z"
        fill="#1D39C4" />
    <path
        d="M16 30.3338C14.8267 30.3338 13.6533 30.0805 12.7467 29.5605L5.62667 25.6138C3.69334 24.5471 2.17334 21.9738 2.17334 19.7605V12.2138C2.17334 10.0005 3.69334 7.44047 5.62667 6.36047L12.7467 2.4138C14.56 1.38713 17.4133 1.38713 19.24 2.4138L26.36 6.36047C28.2933 7.42713 29.8133 10.0005 29.8133 12.2138V19.7605C29.8133 19.8938 29.8133 20.0005 29.7867 20.1338C29.72 20.4805 29.4667 20.7738 29.1333 20.8805C28.8 21.0005 28.4267 20.9205 28.1467 20.6938C26.6133 19.3605 24.24 19.3071 22.6267 20.6005C21.8063 21.2518 21.252 22.1802 21.0679 23.2114C20.8837 24.2426 21.0825 25.3055 21.6267 26.2005C21.7333 26.3871 21.84 26.5338 21.96 26.6805C22.0582 26.7922 22.1298 26.9248 22.1694 27.0682C22.209 27.2116 22.2156 27.3621 22.1887 27.5084C22.1617 27.6547 22.1019 27.793 22.0138 27.9128C21.9257 28.0327 21.8116 28.1311 21.68 28.2005L19.24 29.5471C18.3333 30.0805 17.1733 30.3338 16 30.3338ZM16 3.66713C15.1733 3.66713 14.3333 3.84047 13.7333 4.1738L6.61334 8.12047C5.32001 8.82713 4.20001 10.7471 4.20001 12.2138V19.7605C4.20001 21.2271 5.33334 23.1471 6.61334 23.8538L13.7333 27.8005C14.9467 28.4805 17.0667 28.4805 18.28 27.8005L19.7733 26.9738C19.2716 26.0537 19.0102 25.0218 19.0133 23.9738C19.0133 22.0271 19.88 20.2271 21.3867 19.0271C23.2 17.5738 25.7867 17.2671 27.8267 18.1338V12.1871C27.8267 10.7205 26.6933 8.80047 25.4133 8.0938L18.2933 4.14713C17.6667 3.84047 16.8267 3.66713 16 3.66713Z"
        fill="#1D39C4" />
</svg>