<svg width="32" height="32" viewBox="0 0 32 32" fill="none" xmlns="http://www.w3.org/2000/svg">
    <g clip-path="url(#clip0_331_11437)">
        <path
            d="M31.4832 17.8672C30.6998 16.5459 29.5843 15.439 28.2571 14.6662C27.8893 14.4525 27.5067 14.2653 27.1121 14.1062C27.1789 14.0463 27.244 13.9846 27.3075 13.9212C29.2796 11.9492 29.2796 8.74048 27.3075 6.76855C25.3356 4.79636 22.1268 4.79636 20.1549 6.76855C19.2381 7.68505 18.7481 8.86917 18.6839 10.0718C17.887 9.5708 16.9645 9.3013 16.0001 9.3013C15.0367 9.3013 14.1153 9.5703 13.319 10.07C13.2525 8.82255 12.7357 7.65867 11.8453 6.76855C10.89 5.81323 9.61996 5.28711 8.26889 5.28711C6.91808 5.28711 5.64777 5.81323 4.69271 6.76855C3.73739 7.72386 3.21127 8.99398 3.21127 10.345C3.21127 11.6958 3.73739 12.966 4.69271 13.9212C4.75613 13.9846 4.82126 14.0463 4.88802 14.1062C4.49348 14.2653 4.11083 14.4525 3.74302 14.6662C2.41583 15.439 1.30039 16.5459 0.516957 17.8672C-0.162543 19.0134 -0.172793 20.3921 0.489832 21.5549C1.15902 22.7297 2.36433 23.4312 3.71371 23.4312H7.74546C7.68146 24.1582 7.83946 24.8994 8.22108 25.5691C8.89021 26.7439 10.0955 27.4454 11.4449 27.4454H20.5555C21.9049 27.4454 23.1099 26.7439 23.7794 25.5691C24.1607 24.8994 24.3187 24.1582 24.2547 23.4312H28.2865C29.6358 23.4312 30.8411 22.7297 31.5103 21.5549C32.173 20.3921 32.1627 19.0134 31.4832 17.8672ZM29.8118 20.5872C29.4947 21.144 28.9244 21.4763 28.2865 21.4763H23.4957C22.7332 20.3338 21.715 19.3728 20.526 18.6804C20.1582 18.4667 19.7756 18.2796 19.3812 18.1204C19.4479 18.0604 19.513 17.9988 19.5765 17.9355C20.1146 17.3974 20.5165 16.7593 20.765 16.063C21.6825 15.636 22.6932 15.4026 23.7313 15.4026C26.2098 15.4026 28.536 16.729 29.8016 18.864C30.1185 19.3982 30.1222 20.0425 29.8118 20.5872ZM22.0704 22.8782C22.3873 23.4125 22.3912 24.0569 22.0806 24.6015C21.7635 25.1582 21.1935 25.4907 20.5553 25.4907H11.4449C10.8068 25.4907 10.2364 25.1582 9.91927 24.6015C9.60896 24.0569 9.6129 23.4126 9.92952 22.8782C11.1954 20.7432 13.5213 19.4167 16.0001 19.4167C18.4788 19.4167 20.8048 20.7432 22.0704 22.8782ZM2.18833 20.5874C1.87777 20.0424 1.88164 19.3982 2.19858 18.864C3.46421 16.729 5.79014 15.4026 8.26889 15.4026C9.30671 15.4026 10.3175 15.636 11.2351 16.063C11.4837 16.759 11.8856 17.3972 12.4236 17.9355C12.4874 17.999 12.5526 18.0605 12.619 18.1204C12.2245 18.2796 11.8418 18.4668 11.474 18.6804C10.2852 19.3728 9.26696 20.3337 8.50421 21.4763H3.71371C3.07577 21.4763 2.50546 21.144 2.18833 20.5874ZM6.07477 12.539C5.48883 11.9528 5.16608 11.1735 5.16608 10.3449C5.16608 9.51605 5.48883 8.7368 6.07483 8.15055C6.66096 7.56461 7.44002 7.24186 8.26889 7.24186C9.09777 7.24186 9.87702 7.56461 10.4633 8.15061C11.0491 8.73673 11.3719 9.51605 11.3719 10.3449C11.3719 11.1735 11.0491 11.9528 10.4632 12.539C9.87702 13.1249 9.09777 13.4479 8.26883 13.4479C7.43989 13.4479 6.66096 13.1249 6.07477 12.539ZM23.731 7.24336C24.5257 7.24336 25.3204 7.54561 25.9254 8.15055C27.1351 9.36055 27.1351 11.329 25.9254 12.539C24.7154 13.749 22.7469 13.7487 21.537 12.539C20.3272 11.329 20.3272 9.36055 21.537 8.15055C22.142 7.54586 22.9366 7.24336 23.731 7.24336ZM18.1941 12.165C18.7804 12.7509 19.1031 13.5302 19.1031 14.359C19.1031 15.1879 18.7803 15.967 18.1941 16.5532C17.6082 17.1394 16.829 17.4621 16.0001 17.4621C15.1712 17.4621 14.392 17.1394 13.806 16.5532C13.2198 15.9669 12.8971 15.1879 12.8971 14.359C12.8971 13.5302 13.2198 12.7509 13.806 12.165C14.392 11.5788 15.1712 11.256 16.0001 11.256C16.829 11.256 17.6082 11.5788 18.1941 12.165Z"
            fill="#1D39C4" />
    </g>
    <defs>
        <clipPath id="clip0_331_11437">
            <rect width="32" height="32" fill="white" transform="translate(0 0.000488281)" />
        </clipPath>
    </defs>
</svg>