<svg width="250" height="274" viewBox="0 0 250 274" fill="none" xmlns="http://www.w3.org/2000/svg">
<g opacity="0.46">
<path d="M243.396 195.577C243.37 195.698 243.338 195.818 243.301 195.935C243.037 196.769 242.475 197.526 241.614 198.022L112.297 272.645C110.06 273.934 107.304 273.934 105.07 272.641L2.27421 213.136C1.34618 212.599 0.714836 211.81 0.378357 210.932C0.31685 210.778 0.267996 210.623 0.231816 210.469C-0.253003 208.65 0.439863 206.572 2.29954 205.515L35.3866 186.663L81.3991 160.445L131.187 132.076C133.412 130.807 136.147 130.816 138.369 132.096L241.612 191.581C243.115 192.442 243.705 194.093 243.396 195.577Z" fill="#7DC5E6"/>
</g>
<path d="M243.553 174.822V166.276L234.052 167.323L138.452 112.243C136.23 110.962 133.499 110.957 131.272 112.226L9.51549 181.602L0 181.287V190.84L0.309358 190.608C0.587948 191.679 1.26813 192.659 2.35716 193.29L105.151 252.793C107.386 254.086 110.142 254.09 112.378 252.799L241.697 178.174C242.983 177.431 243.596 176.116 243.553 174.822Z" fill="#7DC5E6"/>
<path d="M131.272 104.315L2.38421 177.754C-0.564496 179.434 -0.57897 183.677 2.35889 185.377L105.153 244.88C107.387 246.173 110.144 246.175 112.38 244.886L241.698 170.261C244.18 168.829 244.178 165.249 241.696 163.819L138.452 104.333C136.232 103.053 133.499 103.046 131.272 104.315Z" fill="white"/>
<path d="M243.396 165.945C243.37 166.067 243.338 166.186 243.301 166.303C243.037 167.137 242.475 167.895 241.614 168.39L112.297 243.013C110.06 244.302 107.304 244.302 105.07 243.009L2.27421 183.504C1.34618 182.967 0.714836 182.179 0.378357 181.3C0.31685 181.146 0.267996 180.991 0.231816 180.837C-0.253003 179.018 0.439863 176.941 2.29954 175.883L35.3866 157.031L81.3991 130.814L131.187 102.444C133.412 101.175 136.147 101.184 138.369 102.464L241.612 161.949C243.115 162.808 243.705 164.459 243.396 165.945Z" fill="#EAF4FE"/>
<path d="M71.9737 153.871C71.9882 153.945 72.0081 154.015 72.0298 154.086C72.189 154.589 72.5273 155.044 73.0483 155.344L150.988 200.321C152.338 201.099 153.999 201.099 155.344 200.32L217.302 164.456C217.861 164.132 218.241 163.656 218.445 163.127C218.481 163.033 218.512 162.94 218.534 162.846C218.825 161.751 218.409 160.498 217.287 159.861L197.345 148.499L169.612 132.698L139.604 115.598C138.262 114.834 136.614 114.839 135.275 115.611L73.0483 151.462C72.1438 151.981 71.7874 152.976 71.9737 153.871Z" fill="#D9E4ED"/>
<path d="M209.898 175.759L201.535 174.961L197.952 177.35L186.803 173.37L184.415 169.39L181.627 165.808L182.821 161.829L187.647 160.632L210.043 171.229L209.898 175.759Z" fill="#D9E4ED"/>
<path d="M190.229 171.171L186.641 173.18L190.549 175.413L194.152 173.395C195.397 173.822 196.752 174.102 198.143 174.24L198.138 177.388L202.255 177.315L202.26 174.224C203.594 174.083 204.894 173.811 206.096 173.405L209.78 175.529L213.715 173.343L210.043 171.226C210.513 170.806 210.897 170.36 211.188 169.897L216.116 170.007L215.868 166.197L211.465 166.098C211.188 165.507 210.763 164.935 210.193 164.404L213.78 162.393L209.873 160.16L206.269 162.178C205.025 161.751 202.282 158.186 202.282 158.186L198.165 158.258C198.165 158.258 195.527 161.762 194.324 162.169L190.639 160.044L186.705 162.23L190.377 164.348C189.934 164.744 189.565 165.165 189.281 165.601L184.561 165.561L184.418 169.296L188.919 169.398C189.199 170.025 189.641 170.622 190.229 171.171Z" fill="#339BBF"/>
<path d="M184.578 164.073L184.426 169.266L189.263 169.515L190.87 166.024L190.274 163.445L184.578 164.073Z" fill="#339BBF"/>
<path d="M208.836 165.828C208.877 165.756 208.95 165.689 209.046 165.633C209.393 165.432 209.956 165.431 210.301 165.629C210.529 165.76 210.607 165.95 210.507 166.123C210.466 166.195 210.393 166.262 210.298 166.318C209.95 166.519 209.388 166.521 209.042 166.322C208.926 166.255 208.848 166.174 208.812 166.083C208.78 166 208.789 165.912 208.836 165.828Z" fill="#FE4A59"/>
<path d="M198.293 172.18L198.141 177.374L202.207 177.28L202.397 172.107L198.293 172.18Z" fill="#71B9CC"/>
<path d="M190.678 170.229L190.526 175.424L186.637 173.182L186.827 168.009L190.678 170.229Z" fill="#71B9CC"/>
<path d="M216.261 164.812L216.111 170.006L212.093 169.925L210.023 165.938L211.36 164.678L216.261 164.812Z" fill="#339BBF"/>
<path d="M209.892 170.239L209.736 175.576L213.761 173.303L213.827 168.123L209.892 170.239Z" fill="#71B9CC"/>
<path d="M186.871 157.014L186.878 160.523L189.793 160.934L191.339 159.133L186.871 157.014Z" fill="#339BBF"/>
<path d="M213.877 157.142L213.74 161.785L210.883 161.713L208.926 158.503L213.877 157.142Z" fill="#339BBF"/>
<path d="M211.341 164.693L216.268 164.803L216.021 160.993L211.617 160.894C211.341 160.303 210.914 159.731 210.346 159.2L213.933 157.189L210.026 154.956L206.422 156.974C205.177 156.547 203.822 156.267 202.431 156.129L202.437 152.981L198.319 153.054L198.314 156.146C196.981 156.287 195.682 156.558 194.479 156.965L190.794 154.84L186.859 157.026L190.531 159.144C190.088 159.539 189.719 159.961 189.435 160.397L184.502 160.286L184.573 164.094L189.073 164.195C189.35 164.819 189.792 165.416 190.379 165.966L186.792 167.974L190.7 170.207L194.303 168.19C195.548 168.616 196.903 168.897 198.294 169.034L198.289 172.182L202.406 172.111L202.411 169.019C203.745 168.878 205.043 168.607 206.246 168.2L209.931 170.325L213.866 168.139L210.194 166.022C210.666 165.602 211.049 165.156 211.341 164.693ZM204.079 163.201C203.898 163.516 203.582 163.81 203.16 164.053C202.413 164.487 201.416 164.722 200.351 164.727C199.289 164.731 198.292 164.494 197.552 164.067C196.57 163.501 196.228 162.696 196.651 161.962C196.832 161.648 197.149 161.353 197.57 161.111C198.316 160.68 199.314 160.442 200.374 160.438C201.44 160.436 202.435 160.668 203.178 161.096C204.157 161.66 204.503 162.467 204.079 163.201Z" fill="#85CEE8"/>
<path d="M194.14 188.517L188.14 187.946L185.569 189.66L177.569 186.805L175.856 183.948L173.855 181.379L174.713 178.524L178.175 177.665L194.245 185.268L194.14 188.517Z" fill="#D9E4ED"/>
<path d="M180.028 185.226L177.453 186.667L180.257 188.269L182.842 186.821C183.736 187.126 184.707 187.329 185.706 187.426L185.702 189.685L188.657 189.634L188.66 187.416C189.617 187.314 190.549 187.119 191.412 186.828L194.057 188.352L196.879 186.784L194.245 185.266C194.581 184.966 194.858 184.645 195.066 184.313L198.603 184.392L198.425 181.66L195.267 181.59C195.068 181.165 194.762 180.756 194.355 180.375L196.929 178.932L194.125 177.33L191.54 178.778C190.646 178.473 188.68 175.914 188.68 175.914L185.726 175.965C185.726 175.965 183.834 178.48 182.971 178.771L180.326 177.247L177.502 178.814L180.136 180.333C179.818 180.617 179.554 180.919 179.349 181.232L175.963 181.203L175.861 183.884L179.09 183.957C179.289 184.405 179.604 184.832 180.028 185.226Z" fill="#339BBF"/>
<path d="M175.972 180.133L175.863 183.859L179.335 184.038L180.487 181.532L180.06 179.683L175.972 180.133Z" fill="#339BBF"/>
<path d="M193.378 181.392C193.409 181.34 193.46 181.291 193.528 181.253C193.778 181.109 194.181 181.109 194.429 181.251C194.592 181.345 194.65 181.481 194.578 181.606C194.547 181.658 194.496 181.707 194.428 181.745C194.178 181.89 193.774 181.89 193.527 181.747C193.443 181.7 193.387 181.64 193.362 181.577C193.338 181.515 193.344 181.452 193.378 181.392Z" fill="#FE4A59"/>
<path d="M185.814 185.949L185.705 189.677L188.623 189.611L188.761 185.898L185.814 185.949Z" fill="#71B9CC"/>
<path d="M180.349 184.55L180.241 188.278L177.451 186.669L177.587 182.959L180.349 184.55Z" fill="#71B9CC"/>
<path d="M198.706 180.664L198.597 184.391L195.714 184.333L194.229 181.472L195.189 180.568L198.706 180.664Z" fill="#339BBF"/>
<path d="M194.136 184.557L194.023 188.387L196.912 186.756L196.958 183.04L194.136 184.557Z" fill="#71B9CC"/>
<path d="M177.617 175.07L177.623 177.587L179.714 177.882L180.823 176.589L177.617 175.07Z" fill="#339BBF"/>
<path d="M196.996 175.16L196.897 178.493L194.849 178.44L193.443 176.137L196.996 175.16Z" fill="#339BBF"/>
<path d="M195.175 180.577L198.712 180.657L198.535 177.925L195.376 177.854C195.177 177.429 194.871 177.021 194.464 176.639L197.038 175.196L194.234 173.594L191.649 175.043C190.756 174.737 189.784 174.535 188.786 174.437L188.789 172.179L185.835 172.229L185.832 174.448C184.875 174.549 183.943 174.744 183.08 175.036L180.435 173.511L177.611 175.079L180.245 176.598C179.927 176.882 179.663 177.184 179.458 177.496L175.92 177.417L175.971 180.149L179.2 180.221C179.399 180.67 179.715 181.096 180.137 181.491L177.563 182.932L180.367 184.534L182.952 183.085C183.845 183.391 184.817 183.593 185.815 183.691L185.812 185.949L188.766 185.899L188.769 183.68C189.726 183.579 190.658 183.384 191.521 183.093L194.166 184.617L196.988 183.049L194.354 181.53C194.69 181.23 194.967 180.91 195.175 180.577ZM189.965 179.509C189.835 179.735 189.607 179.946 189.305 180.12C188.769 180.431 188.055 180.601 187.29 180.603C186.528 180.605 185.813 180.436 185.282 180.129C184.578 179.722 184.332 179.145 184.636 178.619C184.766 178.393 184.994 178.182 185.296 178.008C185.832 177.699 186.546 177.527 187.308 177.525C188.071 177.524 188.786 177.69 189.319 177.997C190.021 178.402 190.269 178.981 189.965 179.509Z" fill="#85CEE8"/>
<path d="M100.795 153.471L92.4336 152.674L88.8499 155.063L77.7009 151.083L75.3111 147.103L72.5234 143.521L73.7192 139.542L78.5457 138.345L100.941 148.942L100.795 153.471Z" fill="#D9E4ED"/>
<path d="M81.1251 148.884L77.5378 150.893L81.4453 153.126L85.0488 151.108C86.2934 151.535 87.6484 151.815 89.0395 151.953L89.0341 155.101L93.1515 155.028L93.1569 151.936C94.4901 151.795 95.7908 151.524 96.992 151.117L100.677 153.242L104.612 151.056L100.939 148.939C101.408 148.519 101.793 148.073 102.084 147.61L107.012 147.72L106.764 143.91L102.361 143.811C102.084 143.22 101.659 142.648 101.089 142.117L104.677 140.106L100.769 137.873L97.1657 139.891C95.9211 139.464 93.1786 135.898 93.1786 135.898L89.0612 135.971C89.0612 135.971 86.4237 139.475 85.2207 139.882L81.5357 137.757L77.6011 139.943L81.2734 142.061C80.8302 142.456 80.4612 142.878 80.1771 143.314L75.4574 143.274L75.3145 147.009L79.8153 147.111C80.0957 147.738 80.5371 148.335 81.1251 148.884Z" fill="#339BBF"/>
<path d="M75.4744 141.786L75.3242 146.979L80.1597 147.228L81.768 143.737L81.171 141.158L75.4744 141.786Z" fill="#339BBF"/>
<path d="M99.7348 143.541C99.7764 143.469 99.8488 143.402 99.9446 143.346C100.292 143.145 100.855 143.143 101.2 143.342C101.428 143.474 101.506 143.662 101.406 143.836C101.365 143.908 101.292 143.975 101.196 144.031C100.849 144.232 100.287 144.234 99.941 144.035C99.8252 143.968 99.7475 143.887 99.7113 143.796C99.6787 143.713 99.6859 143.624 99.7348 143.541Z" fill="#FE4A59"/>
<path d="M89.1891 149.893L89.0371 155.086L93.1056 154.993L93.2956 149.82L89.1891 149.893Z" fill="#71B9CC"/>
<path d="M81.5746 147.942L81.4226 153.137L77.5332 150.895L77.7232 145.722L81.5746 147.942Z" fill="#71B9CC"/>
<path d="M107.159 142.524L107.007 147.719L102.989 147.638L100.92 143.651L102.257 142.391L107.159 142.524Z" fill="#339BBF"/>
<path d="M100.788 147.951L100.633 153.289L104.658 151.016L104.723 145.836L100.788 147.951Z" fill="#71B9CC"/>
<path d="M77.7676 134.727L77.7748 138.236L80.6892 138.645L82.2359 136.846L77.7676 134.727Z" fill="#339BBF"/>
<path d="M104.774 134.854L104.636 139.498L101.781 139.425L99.8223 136.216L104.774 134.854Z" fill="#339BBF"/>
<path d="M102.237 142.406L107.165 142.516L106.917 138.706L102.514 138.607C102.237 138.015 101.81 137.444 101.242 136.912L104.829 134.902L100.922 132.669L97.3184 134.687C96.0738 134.26 94.7188 133.98 93.3277 133.842L93.3331 130.694L89.2157 130.767L89.2103 133.859C87.8771 134 86.5782 134.271 85.3752 134.678L81.6902 132.553L77.7556 134.739L81.4279 136.856C80.9847 137.252 80.6156 137.674 80.3316 138.109L75.3984 137.999L75.469 141.807L79.9698 141.908C80.2466 142.532 80.688 143.129 81.276 143.678L77.6886 145.687L81.5961 147.92L85.1997 145.902C86.4443 146.329 87.7993 146.609 89.1904 146.747L89.185 149.895L93.3024 149.822L93.3078 146.731C94.641 146.59 95.9399 146.318 97.1429 145.911L100.828 148.036L104.762 145.85L101.09 143.733C101.562 143.315 101.948 142.868 102.237 142.406ZM94.9757 140.914C94.7948 141.228 94.4782 141.523 94.0567 141.765C93.3096 142.199 92.3128 142.434 91.2473 142.44C90.1854 142.444 89.1886 142.207 88.4487 141.78C87.4664 141.214 87.1245 140.409 87.5478 139.675C87.7287 139.361 88.0453 139.066 88.4668 138.824C89.2121 138.393 90.2107 138.155 91.2708 138.151C92.3345 138.149 93.3313 138.381 94.073 138.809C95.0535 139.373 95.399 140.18 94.9757 140.914Z" fill="#85CEE8"/>
<path d="M110.124 168.619L104.126 168.047L101.553 169.762L93.5538 166.905L91.8406 164.05L89.8398 161.48L90.6973 158.625L94.1598 157.765L110.229 165.37L110.124 168.619Z" fill="#D9E4ED"/>
<path d="M96.012 165.327L93.4378 166.769L96.2418 168.371L98.8268 166.922C99.7205 167.228 100.692 167.43 101.691 167.528L101.687 169.786L104.641 169.736L104.645 167.517C105.602 167.416 106.533 167.221 107.396 166.929L110.041 168.454L112.865 166.886L110.231 165.367C110.567 165.067 110.844 164.747 111.052 164.414L114.589 164.494L114.412 161.762L111.253 161.691C111.054 161.266 110.748 160.858 110.341 160.476L112.916 159.033L110.112 157.431L107.526 158.88C106.633 158.574 104.666 156.016 104.666 156.016L101.712 156.066C101.712 156.066 99.82 158.581 98.9571 158.872L96.3123 157.348L93.4885 158.916L96.1224 160.435C95.804 160.719 95.5399 161.021 95.3355 161.333L91.949 161.304L91.8477 163.986L95.0767 164.058C95.2739 164.505 95.5905 164.933 96.012 165.327Z" fill="#339BBF"/>
<path d="M91.9581 160.234L91.8496 163.961L95.3193 164.138L96.4717 161.634L96.0447 159.784L91.9581 160.234Z" fill="#339BBF"/>
<path d="M109.363 161.494C109.393 161.442 109.444 161.393 109.513 161.355C109.762 161.21 110.166 161.21 110.414 161.353C110.576 161.447 110.634 161.583 110.562 161.707C110.531 161.76 110.481 161.809 110.412 161.847C110.162 161.991 109.759 161.991 109.511 161.848C109.428 161.801 109.372 161.742 109.346 161.678C109.323 161.617 109.328 161.554 109.363 161.494Z" fill="#FE4A59"/>
<path d="M101.798 166.051L101.689 169.777L104.609 169.71L104.745 166L101.798 166.051Z" fill="#71B9CC"/>
<path d="M96.3354 164.652L96.2269 168.378L93.4355 166.771L93.5712 163.059L96.3354 164.652Z" fill="#71B9CC"/>
<path d="M114.69 160.766L114.582 164.492L111.698 164.432L110.213 161.574L111.173 160.668L114.69 160.766Z" fill="#339BBF"/>
<path d="M110.12 164.658L110.008 168.486L112.897 166.857L112.944 163.14L110.12 164.658Z" fill="#71B9CC"/>
<path d="M93.6016 155.17L93.607 157.689L95.6982 157.982L96.8071 156.691L93.6016 155.17Z" fill="#339BBF"/>
<path d="M112.981 155.262L112.881 158.592L110.833 158.542L109.428 156.238L112.981 155.262Z" fill="#339BBF"/>
<path d="M111.16 160.679L114.696 160.759L114.519 158.026L111.36 157.956C111.161 157.531 110.856 157.122 110.449 156.741L113.023 155.298L110.219 153.696L107.634 155.144C106.74 154.839 105.769 154.636 104.77 154.539L104.774 152.28L101.82 152.331L101.816 154.549C100.859 154.651 99.9274 154.846 99.0645 155.137L96.4198 153.613L93.5977 155.18L96.2316 156.699C95.9132 156.983 95.6491 157.285 95.4447 157.598L91.9062 157.518L91.9569 160.25L95.186 160.323C95.385 160.771 95.7016 161.198 96.1231 161.592L93.5488 163.033L96.3528 164.635L98.9379 163.187C99.8316 163.492 100.803 163.695 101.802 163.793L101.798 166.051L104.752 166L104.756 163.782C105.713 163.68 106.644 163.485 107.507 163.194L110.152 164.718L112.974 163.151L110.34 161.632C110.675 161.332 110.952 161.012 111.16 160.679ZM105.95 159.609C105.819 159.835 105.592 160.046 105.289 160.22C104.754 160.531 104.039 160.701 103.274 160.703C102.513 160.704 101.798 160.536 101.266 160.229C100.562 159.822 100.316 159.245 100.62 158.719C100.751 158.493 100.978 158.281 101.279 158.108C101.814 157.799 102.529 157.627 103.29 157.625C104.054 157.623 104.768 157.79 105.302 158.097C106.006 158.504 106.254 159.082 105.95 159.609Z" fill="#85CEE8"/>
<path d="M71.8803 137.73V132.579L77.6059 133.21L135.225 100.013C136.564 99.2425 138.21 99.2371 139.552 100.002L212.937 141.815L218.672 141.625V147.382L218.486 147.243C218.317 147.888 217.907 148.479 217.25 148.859L155.294 184.723C153.947 185.502 152.286 185.504 150.938 184.727L72.9965 139.75C72.224 139.303 71.8532 138.511 71.8803 137.73Z" fill="#7DC5E6"/>
<path d="M139.552 95.2357L217.235 139.499C219.012 140.511 219.021 143.068 217.252 144.093L155.296 179.957C153.948 180.736 152.288 180.738 150.94 179.961L72.9981 134.984C71.502 134.121 71.5038 131.962 72.9999 131.102L135.227 95.2484C136.564 94.4745 138.21 94.4709 139.552 95.2357Z" fill="white"/>
<path d="M71.9737 132.38C71.9882 132.454 72.0081 132.524 72.0298 132.595C72.189 133.097 72.5273 133.553 73.0483 133.853L150.988 178.83C152.338 179.608 153.999 179.608 155.344 178.828L217.302 142.964C217.861 142.641 218.241 142.165 218.445 141.635C218.481 141.541 218.512 141.449 218.534 141.355C218.825 140.259 218.409 139.006 217.287 138.37L197.345 127.008L169.612 111.207L139.604 94.1071C138.262 93.3423 136.614 93.3477 135.275 94.1198L73.0483 129.971C72.1438 130.49 71.7874 131.486 71.9737 132.38Z" fill="#A8E6FF"/>
<path d="M64.884 134.052L90.7477 89.6445L77.8167 82.0215L51.9531 126.431L64.884 134.052Z" fill="#01AAE3"/>
<path d="M39.0215 104.226L51.9524 126.431L64.5522 133.721L51.9524 111.849L39.0215 104.226Z" fill="#EAF4FE"/>
<path d="M26.0911 156.256L51.9529 111.849L39.022 104.226L13.1602 148.635L26.0911 156.256Z" fill="#01AAE3"/>
<path d="M72.5098 79.0384L96.0506 92.6264L94.0625 67.1084L72.5098 79.0384Z" fill="#01AAE3"/>
<path d="M75.8717 131.942L86.1506 125.937C86.3605 125.814 86.6191 125.814 86.829 125.935L97.2544 131.947C97.7012 132.204 97.7048 132.846 97.2634 133.11L86.9845 139.247C86.7729 139.373 86.5088 139.373 86.2953 139.249L75.8699 133.103C75.6709 132.985 75.5624 132.794 75.5407 132.591C75.5153 132.345 75.6257 132.085 75.8717 131.942Z" fill="#D9E4ED"/>
<path d="M97.6096 129.825H95.0824L86.8297 125.066C86.6199 124.945 86.3612 124.945 86.1513 125.068L78.0071 129.825H75.5215V131.773H75.5504C75.583 131.955 75.6879 132.127 75.8706 132.235L86.296 138.381C86.5095 138.506 86.7736 138.506 86.9853 138.379L97.2641 132.243C97.4469 132.134 97.5518 131.959 97.5825 131.774H97.6115V129.825H97.6096Z" fill="#7DC5E6"/>
<path d="M75.8717 129.368L86.1506 123.363C86.3605 123.24 86.6191 123.24 86.829 123.361L97.2544 129.373C97.7012 129.63 97.7048 130.272 97.2634 130.536L86.9845 136.673C86.7729 136.799 86.5088 136.799 86.2953 136.674L75.8699 130.529C75.6709 130.411 75.5624 130.219 75.5407 130.017C75.5153 129.773 75.6257 129.512 75.8717 129.368Z" fill="#EAF4FE"/>
<g opacity="0.42">
<path d="M78.0449 107.305V129.982L86.475 135.02L95.0154 130.091V107.305H78.0449Z" fill="url(#paint0_linear_52789_6908)"/>
</g>
<path d="M193.733 141.493L204.012 135.488C204.222 135.365 204.48 135.365 204.69 135.486L215.116 141.498C215.563 141.755 215.566 142.397 215.125 142.661L204.846 148.798C204.634 148.924 204.37 148.924 204.157 148.799L193.731 142.654C193.532 142.536 193.424 142.344 193.402 142.142C193.377 141.898 193.487 141.637 193.733 141.493Z" fill="#D9E4ED"/>
<path d="M215.471 139.378H212.944L204.691 134.619C204.481 134.498 204.222 134.498 204.013 134.621L195.868 139.378H193.383V141.325H193.412C193.444 141.508 193.549 141.68 193.732 141.788L204.157 147.934C204.371 148.059 204.635 148.059 204.847 147.932L215.124 141.794C215.306 141.685 215.411 141.51 215.442 141.325H215.471V139.378Z" fill="#7DC5E6"/>
<path d="M193.733 138.92L204.012 132.916C204.222 132.793 204.48 132.793 204.69 132.914L215.116 138.926C215.563 139.183 215.566 139.825 215.125 140.089L204.846 146.225C204.634 146.352 204.37 146.352 204.157 146.227L193.731 140.081C193.532 139.964 193.424 139.772 193.402 139.57C193.377 139.324 193.487 139.063 193.733 138.92Z" fill="#EAF4FE"/>
<g opacity="0.42">
<path d="M195.906 116.857V139.533L204.336 144.572L212.877 139.643V116.857H195.906Z" fill="url(#paint1_linear_52789_6908)"/>
</g>
<path d="M142.368 170.545L152.647 164.541C152.857 164.418 153.115 164.418 153.325 164.539L163.75 170.551C164.197 170.808 164.201 171.45 163.76 171.713L153.481 177.85C153.269 177.977 153.005 177.977 152.791 177.852L142.366 171.706C142.167 171.589 142.058 171.397 142.037 171.195C142.011 170.95 142.122 170.69 142.368 170.545Z" fill="#D9E4ED"/>
<path d="M164.106 168.431H161.579L153.326 163.672C153.116 163.551 152.857 163.551 152.647 163.673L144.503 168.431H142.018V170.378H142.047C142.079 170.561 142.184 170.732 142.367 170.841L152.792 176.987C153.006 177.111 153.27 177.111 153.481 176.985L163.76 170.848C163.943 170.74 164.048 170.564 164.079 170.38H164.108V168.431H164.106Z" fill="#7DC5E6"/>
<path d="M142.368 167.973L152.647 161.968C152.857 161.845 153.115 161.845 153.325 161.967L163.75 167.979C164.197 168.235 164.201 168.877 163.76 169.141L153.481 175.278C153.269 175.405 153.005 175.405 152.791 175.28L142.366 169.134C142.167 169.016 142.058 168.825 142.037 168.622C142.011 168.376 142.122 168.116 142.368 167.973Z" fill="#EAF4FE"/>
<g opacity="0.42">
<path d="M144.541 145.91V168.586L152.971 173.623L161.511 168.696V145.91H144.541Z" fill="url(#paint2_linear_52789_6908)"/>
</g>
<path d="M126.839 104.48L137.117 98.4753C137.327 98.3523 137.586 98.3523 137.796 98.4734L148.221 104.485C148.668 104.742 148.672 105.384 148.23 105.648L137.951 111.785C137.74 111.911 137.476 111.911 137.262 111.787L126.837 105.641C126.638 105.523 126.529 105.332 126.507 105.129C126.482 104.885 126.592 104.625 126.839 104.48Z" fill="#D9E4ED"/>
<path d="M148.576 102.365H146.049L137.796 97.6063C137.587 97.4851 137.328 97.4851 137.118 97.6081L128.974 102.365H126.488V104.313H126.517C126.55 104.495 126.655 104.667 126.837 104.775L137.263 110.921C137.476 111.046 137.74 111.046 137.952 110.919L148.231 104.783C148.414 104.674 148.519 104.499 148.549 104.314H148.578V102.365H148.576Z" fill="#7DC5E6"/>
<path d="M126.839 101.908L137.117 95.903C137.327 95.78 137.586 95.78 137.796 95.9012L148.221 101.913C148.668 102.17 148.672 102.812 148.23 103.076L137.951 109.213C137.74 109.339 137.476 109.339 137.262 109.214L126.837 103.069C126.638 102.951 126.529 102.759 126.507 102.557C126.482 102.311 126.592 102.051 126.839 101.908Z" fill="#EAF4FE"/>
<g opacity="0.42">
<path d="M129.01 79.8447V102.52L137.442 107.558L145.982 102.631V79.8447H129.01Z" fill="url(#paint3_linear_52789_6908)"/>
</g>
<path d="M160.274 127.288C162.399 125.164 162.399 121.719 160.274 119.594C158.148 117.47 154.701 117.47 152.576 119.594C150.45 121.719 150.45 125.164 152.576 127.288C154.701 129.413 158.148 129.413 160.274 127.288Z" fill="#F2F0F1"/>
<path d="M138.955 126.687C140.944 124.699 140.944 121.477 138.955 119.489C136.966 117.501 133.742 117.501 131.753 119.489C129.765 121.477 129.764 124.699 131.753 126.687C133.742 128.675 136.966 128.675 138.955 126.687Z" fill="#F2F0F1"/>
<path d="M153.794 87.8037H136.939V129.58H153.794V87.8037Z" fill="#FEFCFD"/>
<path d="M123.949 140.107C126.47 140.107 128.513 138.065 128.513 135.545C128.513 133.026 126.47 130.983 123.949 130.983C121.428 130.983 119.385 133.026 119.385 135.545C119.385 138.065 121.428 140.107 123.949 140.107Z" fill="#F2F0F1"/>
<path d="M164.329 134.143C167.626 134.143 170.299 131.471 170.299 128.176C170.299 124.88 167.626 122.209 164.329 122.209C161.032 122.209 158.359 124.88 158.359 128.176C158.359 131.471 161.032 134.143 164.329 134.143Z" fill="#FEFCFD"/>
<path d="M156.956 143.969C161.999 143.969 166.086 139.883 166.086 134.843C166.086 129.803 161.999 125.718 156.956 125.718C151.914 125.718 147.826 129.803 147.826 134.843C147.826 139.883 151.914 143.969 156.956 143.969Z" fill="#FEFCFD"/>
<path d="M151.532 139.377C152.681 132.298 147.871 125.628 140.788 124.479C133.705 123.33 127.032 128.137 125.882 135.217C124.733 142.296 129.543 148.967 136.626 150.116C143.709 151.264 150.382 146.457 151.532 139.377Z" fill="#FEFCFD"/>
<path d="M131.759 131.779C134.913 128.627 134.913 123.516 131.759 120.364C128.606 117.212 123.493 117.212 120.339 120.364C117.185 123.516 117.185 128.627 120.339 131.779C123.493 134.931 128.606 134.931 131.759 131.779Z" fill="#FEFCFD"/>
<path d="M171.635 144.025C172.036 142.327 170.985 140.626 169.286 140.225C167.587 139.824 165.885 140.876 165.484 142.573C165.083 144.271 166.135 145.972 167.833 146.373C169.532 146.774 171.234 145.723 171.635 144.025Z" fill="#FEFCFD"/>
<path d="M170.299 118.874C170.299 119.746 169.592 120.453 168.72 120.453C167.848 120.453 167.139 119.746 167.139 118.874C167.139 118.003 167.846 117.296 168.72 117.296C169.594 117.296 170.299 118.003 170.299 118.874Z" fill="#FEFCFD"/>
<path d="M128.864 117.12C128.864 117.992 128.156 118.699 127.284 118.699C126.412 118.699 125.705 117.992 125.705 117.12C125.705 116.249 126.412 115.542 127.284 115.542C128.156 115.54 128.864 116.247 128.864 117.12Z" fill="#FEFCFD"/>
<path opacity="0.68" d="M157.001 146.828C159.743 144.087 159.743 139.643 157.001 136.902C154.258 134.161 149.812 134.161 147.069 136.902C144.327 139.643 144.327 144.087 147.069 146.828C149.812 149.57 154.258 149.57 157.001 146.828Z" fill="#FEFCFD"/>
<path opacity="0.68" d="M131.213 149.748C134.796 148.264 136.498 144.158 135.014 140.576C133.529 136.995 129.421 135.294 125.838 136.778C122.254 138.261 120.553 142.367 122.037 145.949C123.521 149.53 127.63 151.231 131.213 149.748Z" fill="#FEFCFD"/>
<path d="M172.405 136.424C172.405 137.296 171.697 138.003 170.825 138.003C169.953 138.003 169.246 137.296 169.246 136.424C169.246 135.553 169.953 134.846 170.825 134.846C171.697 134.844 172.405 135.551 172.405 136.424Z" fill="#FEFCFD"/>
<path d="M164.33 115.364C164.33 116.042 163.78 116.592 163.101 116.592C162.423 116.592 161.873 116.042 161.873 115.364C161.873 114.686 162.423 114.137 163.101 114.137C163.78 114.137 164.33 114.686 164.33 115.364Z" fill="#F2F0F1"/>
<path d="M132.023 111.68C132.023 112.067 131.708 112.382 131.321 112.382C130.934 112.382 130.619 112.067 130.619 111.68C130.619 111.293 130.934 110.979 131.321 110.979C131.708 110.979 132.023 111.293 132.023 111.68Z" fill="#F2F0F1"/>
<path d="M157.569 78.7803C157.585 83.7345 157.565 88.7141 157.496 89.5657C157.435 90.3107 157.363 91.0104 157.276 91.6686C157.133 92.7715 156.952 93.7515 156.737 94.623C156.415 95.9538 156.011 97.0369 155.541 97.9138C152.408 99.1741 148.929 99.881 145.258 99.8937C142.738 99.9027 140.304 99.5791 138.013 98.9734C136.966 98.7021 135.949 98.3676 134.963 97.9807C134.171 96.5179 133.558 94.4874 133.18 91.6704C133.089 91.0339 133.017 90.3613 132.953 89.6453C132.879 88.7936 132.827 83.8159 132.811 78.8598L157.569 78.7803Z" fill="#31393A"/>
<path d="M157.569 78.7803C157.585 83.7345 157.565 88.7141 157.496 89.5657C157.435 90.3107 157.362 91.0104 157.276 91.6686C157.133 92.7715 156.952 93.7515 156.737 94.623C150.336 94.1656 142.087 94.5959 138.011 98.9734C136.964 98.7021 135.947 98.3676 134.961 97.9807C134.169 96.5179 133.556 94.4874 133.178 91.6704C133.087 91.0339 133.015 90.3613 132.952 89.6453C132.877 88.7936 132.825 83.8159 132.809 78.8598L157.569 78.7803Z" fill="#262C2D"/>
<path d="M167.319 61.7185C167.328 64.6242 167.198 67.2749 166.939 69.743C166.21 76.782 164.448 82.3347 161.947 88.1261C157.223 90.5381 151.507 91.9521 145.34 91.9738C139.173 91.9937 133.445 90.6159 128.704 88.2346C125.278 80.4326 123.199 73.0609 123.163 61.8632C123.159 60.7801 123.148 51.1573 123.181 50.0905C123.489 40.6611 127.195 30.561 131.466 21.9109C135.953 12.8306 141.06 5.36303 143.511 1.96919C144.426 0.699888 144.969 0.00195312 144.969 0.00195312C144.969 0.00195312 152.422 9.39875 158.71 21.835C163.063 30.4525 166.854 40.5255 167.223 49.9495C167.265 51.0126 167.316 60.6355 167.319 61.7185Z" fill="#FEA342"/>
<path d="M145.332 89.5852C138.779 89.6069 132.69 88.1604 127.623 85.6634C127.967 86.5187 128.325 87.3739 128.703 88.2346C133.444 90.6159 139.172 91.9937 145.339 91.9738C151.506 91.9539 157.224 90.5381 161.946 88.1261C162.318 87.2636 162.673 86.4048 163.011 85.5459C157.966 88.0791 151.886 89.5635 145.332 89.5852Z" fill="#FCDD3D"/>
<path d="M160.091 24.4364C155.5 25.6967 150.442 26.4018 145.129 26.4199C139.794 26.438 134.712 25.7582 130.098 24.5214C136.883 10.7887 144.962 0.397461 144.962 0.397461C144.962 0.397461 153.17 10.7417 160.091 24.4364Z" fill="#FCDD3D"/>
<path d="M158.707 21.8331C154.537 22.9776 149.944 23.6177 145.118 23.6339C140.271 23.6502 135.656 23.0318 131.465 21.9108C137.63 9.43839 144.967 0 144.967 0C144.967 0 152.422 9.39499 158.707 21.8331Z" fill="#31393A"/>
<g opacity="0.38">
<path d="M166.939 69.7425C166.21 76.7815 164.448 82.3343 161.947 88.1257C157.223 90.5377 151.507 91.9517 145.34 91.9734C139.173 91.9933 133.445 90.6155 128.704 88.2342C125.278 80.4321 123.199 73.0604 123.163 61.8627C123.159 60.7797 123.148 51.1569 123.181 50.0901C123.489 40.6607 127.195 30.5606 131.466 21.9105C135.953 12.8301 141.06 5.36259 143.511 1.96875C130.108 46.5443 149.151 63.4051 166.939 69.7425Z" fill="#FEA342"/>
</g>
<path d="M166.62 64.333C177.77 76.8253 176.991 99.6094 176.991 99.6094L175.569 100.184L162.703 85.9889L165.198 64.9098L166.62 64.333Z" fill="#FCDD3D"/>
<path d="M165.196 64.9062C176.347 77.3986 175.567 100.183 175.567 100.183L161.277 86.5603L165.196 64.9062Z" fill="#31393A"/>
<path d="M124.762 64.4688C113.693 77.0334 114.621 99.8121 114.621 99.8121L116.046 100.376L128.82 86.0975L126.188 65.0347L124.762 64.4688Z" fill="#FCDD3D"/>
<path d="M126.188 65.0332C115.118 77.5978 116.046 100.377 116.046 100.377L130.247 86.6619L126.188 65.0332Z" fill="#31393A"/>
<path d="M144.744 63.854C151.259 63.833 156.523 58.431 156.501 51.7883C156.48 45.1456 151.181 39.7777 144.666 39.7988C138.151 39.8198 132.887 45.2219 132.908 51.8645C132.93 58.5072 138.228 63.8751 144.744 63.854Z" fill="#FCDD3D"/>
<path d="M154.936 51.7939C154.942 53.1952 154.674 54.5332 154.184 55.7555C152.668 59.558 149.013 62.243 144.737 62.2575C139.087 62.2756 134.489 57.6233 134.469 51.859C134.454 47.6479 136.893 44.0118 140.411 42.3555C141.707 41.7426 143.149 41.399 144.668 41.3936C150.318 41.3773 154.916 46.0314 154.936 51.7939Z" fill="#01AAE3"/>
<path opacity="0.28" d="M154.183 55.7554C153.33 57.8908 151.803 59.6755 149.867 60.8326C148.36 61.7331 146.607 62.252 144.735 62.2574C139.085 62.2755 134.487 57.6232 134.467 51.8589C134.461 50.2389 134.82 48.7056 135.46 47.3386C136.488 45.1472 138.242 43.3734 140.41 42.3555C140.547 52.3381 146.936 55.4481 154.183 55.7554Z" fill="#01AAE3"/>
<path opacity="0.28" d="M149.867 60.8329C148.36 61.7333 146.607 62.2522 144.735 62.2577C139.085 62.2758 134.487 57.6235 134.467 51.8592C134.461 50.2391 134.82 48.7058 135.46 47.3389C135.844 57.3396 142.421 60.502 149.867 60.8329Z" fill="#01AAE3"/>
<path d="M149.993 47.6167C149.358 48.3761 147.954 48.2478 146.858 47.3311C145.762 46.4143 145.387 45.0564 146.022 44.297C146.657 43.5376 148.061 43.666 149.157 44.5827C150.253 45.4994 150.628 46.8591 149.993 47.6167Z" fill="#01AAE3"/>
<path d="M42.5417 154.806V171.047L31.6641 164.774V148.395L42.5417 154.806Z" fill="#FEA342"/>
<path d="M53.2776 148.395V164.635L42.541 171.047V154.667L53.2776 148.395Z" fill="#FCDD3D"/>
<path d="M53.2783 148.394L42.5417 142.122L31.6641 148.394L42.4024 154.806L53.2783 148.394Z" fill="#FFE783"/>
<path d="M32.8326 179.894L19.9125 172.349L6.82422 179.894L19.7443 187.609L32.8326 179.894Z" fill="#D9E4ED"/>
<path d="M19.8974 144.892V185.511L9.02148 179.239V138.48L19.8974 144.892Z" fill="#FEA342"/>
<path d="M30.6368 138.48V179.1L19.8984 185.511V144.753L30.6368 138.48Z" fill="#FCDD3D"/>
<path d="M30.6357 138.481L19.8974 132.21L9.02148 138.481L19.7581 144.892L30.6357 138.481Z" fill="#FFE783"/>
<path d="M66.5959 177.419L53.5022 169.771L40.2402 177.419L53.3321 185.237L66.5959 177.419Z" fill="#D9E4ED"/>
<path d="M53.5085 173.902V183.047L42.6309 176.777V167.49L53.5085 173.902Z" fill="#FEA342"/>
<path d="M64.2462 167.49V176.636L53.5078 183.047V173.763L64.2462 167.49Z" fill="#FCDD3D"/>
<path d="M64.2469 167.49L53.5085 161.218L42.6309 167.49L53.3693 173.902L64.2469 167.49Z" fill="#FFE783"/>
<path d="M48.174 189.201L35.0803 181.553L21.8184 189.201L34.9103 197.019L48.174 189.201Z" fill="#D9E4ED"/>
<path d="M35.0651 169.41V194.434L24.1875 188.162V162.998L35.0651 169.41Z" fill="#FEA342"/>
<path d="M45.8048 162.998V188.022L35.0664 194.434V169.27L45.8048 162.998Z" fill="#FCDD3D"/>
<path d="M45.8035 162.998L35.0651 156.726L24.1875 162.998L34.9258 169.41L45.8035 162.998Z" fill="#FFE783"/>
<path d="M133.446 215.555C133.446 215.555 110.993 212.071 115.13 207.198C119.267 202.323 138.622 194.063 138.622 194.063L133.446 215.555Z" fill="#D9E4ED"/>
<path d="M124.754 210.7C125.195 204.576 129.49 197.492 134.723 194.473C137.162 193.066 139.396 192.776 141.133 193.438L141.145 193.418L141.294 193.503C141.625 193.644 141.938 193.82 142.229 194.03C142.233 194.033 142.238 194.037 142.242 194.039L150.672 198.803L140.138 207.234L133.651 215.955L124.754 210.7Z" fill="#FCDD3D"/>
<path d="M143.625 199.54C145.834 198.265 147.876 197.907 149.531 198.345C151.851 198.954 153.41 201.121 153.609 204.496L152.003 205.418L149.575 206.809L137.68 213.625L136.085 214.54L133.645 215.94C134.017 209.776 138.343 202.587 143.625 199.54Z" fill="#FEA342"/>
<path d="M144.319 197.416C141.238 198.43 138.499 200.85 136.383 203.777C135.889 204.455 135.431 205.16 135.011 205.882C133.725 208.079 132.781 210.426 132.273 212.608L127.113 209.561C127.488 207.234 128.443 204.743 129.865 202.421C129.912 202.343 129.959 202.265 130.013 202.188C130.462 201.466 130.95 200.781 131.464 200.139C132.817 198.445 134.349 197.071 135.929 196.17C137.967 195.008 139.617 194.689 139.617 194.689L144.319 197.416Z" fill="#31393A"/>
<path d="M136.383 203.777C135.89 204.455 135.432 205.161 135.012 205.882L130.016 202.186L125.591 198.912L114.241 190.52L113.588 190.037L115.08 188.02L119.317 191.153L127.098 196.908L131.468 200.139L136.383 203.777Z" fill="#85CEE8"/>
<path d="M115.912 184.211L122.647 190.249L127.212 194.34C128.738 195.709 124.994 200.768 123.237 199.709L110.239 191.872C110.143 191.814 110.053 191.755 109.964 191.69C108.993 190.972 108.457 189.795 108.564 188.576C108.586 188.346 108.618 188.113 108.667 187.889C108.832 187.095 109.156 186.354 109.606 185.703C110.243 184.786 111.131 184.05 112.199 183.602L112.269 183.571C113.508 183.074 114.921 183.322 115.912 184.211Z" fill="#01AAE3"/>
<path d="M122.647 190.25L127.212 194.342C128.738 195.711 124.994 200.77 123.237 199.71L110.239 191.874C110.143 191.816 110.053 191.756 109.964 191.691C108.993 190.973 108.457 189.796 108.564 188.578C108.586 188.348 108.618 188.115 108.667 187.891C115.466 192.098 119.986 191.55 122.647 190.25Z" fill="#339BBF"/>
<path d="M96.017 207.595C68.9413 215.555 48.6332 201.746 85.8629 201.09C94.0252 201.229 96.017 207.595 96.017 207.595Z" fill="#D9E4ED"/>
<path d="M250 92.0927L195.064 59.9443L193.07 60.7978L195.064 98.0686L248.007 130.785L250 129.931V92.0927Z" fill="#7DC5E6"/>
<path d="M248.007 92.9462V130.785L193.07 98.9221V60.7979L248.007 92.9462Z" fill="#EAF4FE"/>
<path d="M248.007 116.242V130.787L193.07 98.9223V88.003C199.154 79.0673 202.689 79.268 204.74 85.8351C207.586 94.939 214.133 82.9909 219.542 84.6978C224.951 86.4047 225.235 106.605 228.65 111.156C232.066 115.709 240.036 101.483 243.452 105.182C245.161 107.03 246.798 111.867 248.007 116.242Z" fill="#FCDD3D"/>
<path d="M81.4863 204.753V204.786C81.4863 204.786 81.4863 204.802 81.4918 204.824C81.4972 204.84 81.5026 204.851 81.5026 204.872C81.5623 205.082 81.8047 205.626 82.7255 205.787C82.7798 205.798 82.8395 205.804 82.8974 205.809C82.9191 205.814 82.9462 205.82 82.9679 205.82C83.1723 205.836 83.3985 205.842 83.6572 205.831C83.7331 205.825 83.8073 205.82 83.8833 205.809C84.8855 205.605 85.8171 204.834 86.0595 204.625C86.103 204.587 86.1246 204.565 86.1246 204.565V204.377C86.1246 204.377 86.7868 203.936 87.0292 203.789C87.7672 203.354 88.8291 202.981 89.8404 202.482C90.1534 202.327 90.3849 202.158 90.5513 202.003C90.5839 201.97 90.6165 201.932 90.649 201.905C90.6707 201.889 90.687 201.867 90.7087 201.846C90.7304 201.819 90.7467 201.786 90.7684 201.759C90.8119 201.699 90.8498 201.645 90.8824 201.598C90.8987 201.565 90.915 201.538 90.9258 201.517C90.9421 201.484 90.9529 201.462 90.9638 201.441C90.9746 201.414 90.9855 201.386 90.991 201.359C90.991 201.354 90.991 201.354 90.991 201.354C91.0289 201.231 91.0506 201.101 91.0506 200.972V200.311L84.8837 202.835L81.5116 204.095L81.4863 204.753Z" fill="#190B05"/>
<path d="M85.1588 200.153C85.1588 200.153 86.1917 200.106 87.8759 199.819C89.5583 199.532 90.7197 199.448 90.9386 199.973C91.1502 200.483 91.1972 201.027 89.6939 202.056C88.1906 203.084 87.0275 203.191 85.8227 204.16C84.9308 204.878 84.1276 205.048 83.2303 205.111C82.333 205.173 81.727 204.829 81.5317 204.464C81.0776 203.614 81.5479 202.007 81.5479 202.007" fill="#442312"/>
<path d="M87.5543 205.733L87.5488 206.568C87.547 206.868 87.7008 207.163 87.9739 207.29C88.0807 207.34 88.2037 207.376 88.3376 207.393C89.3814 207.51 90.9878 207.264 90.9878 207.264V206.955C90.9878 206.955 91.5595 206.892 93.2455 206.682C94.9876 206.465 96.1616 205.95 96.7351 205.642C96.9829 205.509 97.1385 205.254 97.1385 204.973L97.1349 204.362L90.5102 205.53L87.5543 205.733Z" fill="#190B05"/>
<path d="M92.2029 202.799C92.2029 202.799 92.941 203.493 93.8075 203.493C94.6758 203.493 96.3673 203.471 96.8014 203.775C97.0185 203.927 97.1271 204.112 97.1397 204.318C97.1524 204.524 97.0728 204.752 96.91 204.99C96.5844 205.468 94.3936 206.182 92.7456 206.312C91.0976 206.442 91.0108 206.42 90.2293 206.551C89.4478 206.681 88.6373 206.742 88.1453 206.498C87.295 206.077 87.2371 204.795 87.7581 203.949C88.2773 203.103 92.2029 202.799 92.2029 202.799Z" fill="#442312"/>
<path d="M88.3789 146.226L99.9494 153.188L103.978 143.408C104.13 143.039 103.989 142.616 103.649 142.409L93.2976 136.182C92.9684 135.985 92.5397 136.126 92.3949 136.481L88.3789 146.226Z" fill="#063444"/>
<path d="M88.9023 146.038L99.6606 152.533L103.38 143.505C103.548 143.057 103.543 142.856 103.076 142.583L93.1427 136.585C92.9962 136.497 92.8062 136.56 92.7411 136.717L88.9023 146.038Z" fill="#C2C5CD"/>
<path opacity="0.5" d="M99.1144 144.158L101.37 145.516C101.43 145.552 101.51 145.527 101.537 145.462L102.358 143.466C102.38 143.413 102.36 143.352 102.311 143.323L100.055 141.965C99.9954 141.929 99.9158 141.954 99.8886 142.019L99.0673 144.015C99.0456 144.069 99.0655 144.129 99.1144 144.158Z" fill="#DEFFFE"/>
<path opacity="0.75" d="M95.8065 142.169L98.0623 143.527C98.122 143.563 98.2017 143.538 98.2288 143.472L99.0501 141.476C99.0718 141.424 99.0519 141.362 99.0031 141.333L96.7472 139.976C96.6875 139.939 96.6079 139.965 96.5808 140.03L95.7576 142.026C95.7377 142.078 95.7576 142.14 95.8065 142.169Z" fill="#DEFFFE"/>
<path d="M94.3094 147.007L97.9709 149.21C98.0686 149.269 98.197 149.226 98.2404 149.121L99.5755 145.883C99.6099 145.798 99.5773 145.698 99.4995 145.651L95.8381 143.449C95.7404 143.389 95.612 143.433 95.5685 143.537L94.2335 146.776C94.1973 146.861 94.2298 146.958 94.3094 147.007Z" fill="#DEFFFE"/>
<path d="M93.6321 143.261L94.8532 143.995C94.8858 144.015 94.9292 144 94.9437 143.966L94.9708 143.89C94.9835 143.861 94.9708 143.829 94.9455 143.812L93.7244 143.078C93.6918 143.058 93.6484 143.073 93.6339 143.107L93.6068 143.183C93.5942 143.212 93.605 143.245 93.6321 143.261Z" fill="#DEFFFE"/>
<path d="M94.5984 144.378C94.6563 144.413 94.7323 144.388 94.7576 144.326L94.8047 144.19C94.8246 144.14 94.8065 144.082 94.7594 144.053L92.5958 142.751C92.538 142.717 92.462 142.74 92.4367 142.804L92.3896 142.939C92.3679 142.99 92.3878 143.048 92.4349 143.077" fill="#DEFFFE"/>
<path d="M92.2727 143.467L94.4364 144.769C94.4943 144.803 94.5702 144.78 94.5955 144.717L94.6426 144.581C94.6643 144.53 94.6444 144.473 94.5974 144.444L92.4338 143.142C92.3759 143.107 92.2999 143.131 92.2746 143.194L92.2275 143.33C92.2058 143.382 92.2257 143.44 92.2727 143.467Z" fill="#DEFFFE"/>
<path d="M92.1096 143.858L94.2732 145.16C94.331 145.194 94.407 145.171 94.4324 145.107L94.4794 144.972C94.5011 144.921 94.4812 144.863 94.4342 144.834L92.2706 143.532C92.2127 143.498 92.1367 143.522 92.1114 143.585L92.0643 143.72C92.0444 143.773 92.0643 143.831 92.1096 143.858Z" fill="#DEFFFE"/>
<path opacity="0.75" d="M91.9497 144.249L94.1133 145.55C94.1712 145.585 94.2471 145.561 94.2725 145.498L94.3195 145.362C94.3394 145.312 94.3213 145.254 94.2743 145.225L92.1107 143.923C92.0528 143.889 91.9768 143.912 91.9515 143.975L91.9045 144.111C91.8846 144.164 91.9027 144.221 91.9497 144.249Z" fill="#DEFFFE"/>
<path opacity="0.5" d="M91.7884 144.639L93.952 145.941C94.0098 145.975 94.0858 145.952 94.1112 145.889L94.1582 145.753C94.1781 145.702 94.16 145.644 94.113 145.616L91.9494 144.314C91.8915 144.279 91.8155 144.303 91.7902 144.366L91.7431 144.502C91.7214 144.554 91.7413 144.612 91.7884 144.639Z" fill="#DEFFFE"/>
<path d="M92.4972 140.179L94.7531 141.536C94.8128 141.573 94.8923 141.547 94.9195 141.482L95.7408 139.486C95.7625 139.434 95.7426 139.372 95.6938 139.343L93.4379 137.985C93.3782 137.949 93.2986 137.974 93.2714 138.04L92.4501 140.036C92.4284 140.09 92.4483 140.15 92.4972 140.179Z" fill="#DEFFFE"/>
<path d="M88.5391 142.825C88.7869 143.107 89.25 143.377 89.3802 143.451L89.5268 143.263C89.619 143.145 89.7511 143.068 89.8976 143.049C90.1835 143.011 90.6737 142.907 90.927 142.623C91.1205 142.406 91.3485 142.001 91.5221 141.67C91.5221 141.67 91.5258 141.666 91.5294 141.654C91.533 141.637 91.5457 141.619 91.5601 141.592C91.618 141.456 91.7374 141.183 91.7446 141.144C91.7519 141.109 91.7248 141.079 91.7103 141.062C91.7031 141.059 91.6994 141.055 91.6994 141.055C91.5981 141.001 91.448 140.939 91.3593 140.994C91.2635 141.048 91.0934 141.272 90.9197 141.491C90.7804 141.668 90.5923 141.796 90.3824 141.881C90.3589 141.892 90.3354 141.901 90.3173 141.912C90.3173 141.912 90.1853 141.838 90.2866 141.596L91.021 139.806C90.2757 139.833 89.6462 140.782 89.3368 141.569C89.2717 141.637 88.7598 142.342 88.5391 142.825Z" fill="#F4D0AE"/>
<path d="M98.9297 151.701L100.057 152.639L100.268 152.817C100.268 152.817 100.527 151.735 100.983 151.327C101.142 151.187 101.596 151.003 101.855 150.933C102.005 150.891 102.137 150.806 102.229 150.681C102.45 150.381 102.774 149.719 102.604 148.575C102.573 148.354 102.519 148.204 102.457 148.099C102.454 148.096 102.454 148.092 102.454 148.092C102.314 147.853 102.141 147.861 102.141 147.861C102.141 147.861 101.379 148.401 101.16 148.562C100.979 148.698 100.748 148.96 100.569 148.763C100.473 148.663 101.028 147.96 101.182 147.64C101.332 147.32 101.039 146.973 100.909 147.096C100.782 147.222 100.001 148.204 99.6841 149.032C99.3693 149.86 98.9297 151.701 98.9297 151.701Z" fill="#FFE1BD"/>
<path opacity="0.5" d="M99.7988 151.836L100.058 152.639L100.269 152.816C100.269 152.816 100.528 151.735 100.984 151.327C101.143 151.187 101.597 151.003 101.856 150.932C102.006 150.891 102.138 150.806 102.23 150.681C102.451 150.381 102.775 149.719 102.605 148.575C102.574 148.354 102.52 148.204 102.458 148.099C102.454 148.095 102.454 148.092 102.454 148.092C102.454 148.092 102.447 148.289 102.134 148.567C101.821 148.842 101.362 149.095 101.141 149.235C100.924 149.374 100.586 149.878 100.376 150.384C100.166 150.894 99.7988 151.836 99.7988 151.836Z" fill="#E9C69E"/>
<path d="M83.2049 141.476L83.071 141.789L83.2754 142.823L86.5715 144.481L86.7651 144.454L87.2933 144.389L88.1236 144.281V143.14C88.1236 142.552 88.442 141.982 88.9793 141.751C89.001 141.74 89.0173 141.735 89.0173 141.735C89.2 141.664 89.3882 141.547 89.5781 141.359L89.6269 141.31C90.2619 140.637 90.8281 139.124 90.6671 135.813C90.6346 135.236 90.5061 134.236 90.242 133.725C89.7626 132.804 88.7441 132.195 86.6439 132.772C83.1434 133.741 81.613 135.329 81.4357 136.703C81.2548 138.068 83.2049 141.476 83.2049 141.476Z" fill="#FFE1BD"/>
<path d="M89.4063 143.729L89.5727 143.326C89.5727 143.326 88.7821 142.838 88.6193 142.621C88.6193 142.621 88.4982 142.769 88.377 142.974C88.3788 142.974 88.6139 143.397 89.4063 143.729Z" fill="white"/>
<path d="M89.4251 143.68C89.4251 143.68 88.6183 143.149 88.3415 142.836C88.3415 142.836 88.0557 143.304 87.8188 143.722C87.5818 144.14 87.6288 145.02 87.6288 145.02L88.7215 145.391L89.4251 143.68Z" fill="#232323"/>
<path d="M88.1233 144.281V143.14C88.1233 142.552 88.4417 141.982 88.979 141.751C88.8071 141.827 88.2753 142.082 87.5679 142.46C87.2839 142.612 87.293 143.523 87.293 144.389L88.1233 144.281Z" fill="#E9C69E"/>
<path d="M100.481 152.791L100.679 152.162C100.717 152.043 100.707 151.912 100.653 151.798C100.545 151.572 100.344 151.191 100.138 151.003C99.8338 150.724 99.4357 150.679 99.1951 150.851C99.0975 150.92 99.0179 151.164 98.951 151.327C98.8931 151.464 98.8858 151.845 98.9021 151.889C98.9184 151.93 99.32 152.505 99.367 152.556C99.4123 152.607 100.481 152.791 100.481 152.791Z" fill="#EFEFEF"/>
<path d="M79.8269 172.788C80.6084 177.052 81.1674 182.338 81.1674 182.338C81.1674 182.338 79.8631 192.929 81.3284 202.15C81.3935 202.586 81.5437 203.506 82.1045 203.868C82.4229 204.061 83.2622 204.202 83.9135 203.857C83.9406 203.841 83.9678 203.83 83.9949 203.813C86.182 202.618 85.9505 201.067 86.2688 200.051C86.2634 195.948 85.8329 185.853 86.7048 183.637L87.4863 174.688L87.2005 168.293H79.3692V168.315L79.3313 168.293C79.3313 168.293 78.6637 170.009 79.8269 172.788Z" fill="#3A3A3A"/>
<path d="M82.2193 172.96C82.9574 175.383 83.9053 181.707 84.1043 183.253C84.1043 183.253 83.3771 195.436 83.9958 203.813C86.1829 202.618 85.9513 201.067 86.2697 200.051C86.2643 195.948 85.8338 185.853 86.7057 183.637L87.4872 174.688L87.2014 168.293H81.8159C81.8159 168.293 81.4813 170.537 82.2193 172.96Z" fill="#2D2D2D"/>
<path d="M82.7188 170.402C82.9666 171.5 83.4514 173.035 84.4102 174.494C84.5603 174.72 84.696 174.952 84.8244 175.183C84.8516 175.292 85.2333 176.724 85.7073 178.646C86.1867 180.568 86.7583 182.98 87.1671 185.03C86.941 187.603 86.3061 196.616 87.5181 204.422C87.6049 204.977 88.0029 205.435 88.5474 205.585C88.8007 205.655 89.0919 205.699 89.4085 205.677C89.6401 205.661 89.8825 205.612 90.1303 205.505C91.4129 204.966 92.3391 202.916 92.3391 202.916C92.3391 202.916 92.3717 189.952 93.0446 186.549C93.1731 185.898 93.2382 185.242 93.2816 184.583C93.4064 182.5 93.6326 178.7 93.7013 177.11C93.8352 174.02 93.8569 171.426 93.7502 170.269L87.3354 170.35L82.7188 170.402Z" fill="#3A3A3A"/>
<path d="M87.3359 170.348C87.3685 170.729 87.3902 170.983 87.3902 170.983C87.3902 170.983 87.4553 172.597 88.2676 175.02C89.0871 177.443 89.8975 183.187 89.9843 185.341C90.0712 187.323 89.0165 196.765 89.4091 205.675C89.6406 205.659 89.883 205.61 90.1309 205.503C91.4135 204.964 92.3397 202.914 92.3397 202.914C92.3397 202.914 92.3722 189.95 93.0452 186.547C93.1736 185.896 93.2388 185.24 93.2822 184.581C93.407 182.499 93.6331 178.698 93.7019 177.109C93.8358 174.018 93.8575 171.424 93.7507 170.267L87.3359 170.348Z" fill="#2D2D2D"/>
<path d="M78.5733 152.318C79.6081 155.456 80.1888 160.613 79.5647 162.767C78.9351 164.92 78.5733 167.972 78.5733 167.972C79.1612 169.587 84.6336 173.087 87.6872 173.355C88.0581 173.388 88.4361 173.371 88.807 173.312C91.4952 172.914 94.0152 170.529 94.0152 170.529C94.0152 170.529 93.4327 161.689 93.0727 156.037C92.8303 152.28 92.2749 149.936 91.9257 148.79C91.7539 148.213 91.6345 147.94 91.6345 147.94C91.3107 147.515 90.3465 146.794 89.1199 145.986C89.1145 145.986 89.1037 145.98 89.0928 145.975C88.2679 145.425 87.3308 144.845 86.3883 144.29H86.3829C85.1274 143.546 83.8611 142.852 82.8499 142.346C82.7305 142.286 82.6183 142.232 82.5097 142.185C81.7934 141.834 81.238 141.603 80.9522 141.55C79.514 141.281 77.5856 142.04 77.0049 144.646C76.4188 147.248 77.544 149.175 78.5733 152.318Z" fill="#353535"/>
<path d="M89.1282 162.731C89.311 165.143 88.9455 171.163 88.8044 173.316C91.4926 172.918 94.0126 170.533 94.0126 170.533C94.0126 170.533 93.4301 161.693 93.0701 156.041C92.8277 152.284 92.2723 149.941 91.9232 148.794C91.6319 148.46 91.4438 148.25 91.4438 148.25H87.8999C87.8999 148.25 86.0583 148.626 86.7259 152.821C87.406 157.014 88.9075 159.77 89.1282 162.731Z" fill="#232323"/>
<path d="M82.4875 143.511C83.0266 144.249 84.9586 145.315 85.8468 145.503C86.7405 145.686 87.4515 145.596 87.8748 145.588C88.4663 145.579 88.9258 145.907 89.0923 145.975C89.1031 145.981 89.114 145.986 89.1194 145.986C89.1248 145.992 89.1302 145.992 89.1302 145.992L88.602 145.189L87.9887 144.796C87.9887 144.796 87.0896 144.467 86.8906 144.377C86.8255 144.344 86.632 144.317 86.3895 144.29H86.3842C85.8505 144.225 85.0853 144.171 84.9677 144.156C84.8012 144.135 83.4119 143.182 83.3522 143.144C83.3197 143.122 83.0447 142.67 82.8511 142.346C82.7317 142.287 82.6195 142.233 82.511 142.186C82.3156 142.43 82.0624 142.925 82.4875 143.511Z" fill="#232323"/>
<path d="M80.5117 136.824C80.8139 138.621 82.3371 141.449 83.1077 141.708C83.5762 141.869 84.0122 141.934 84.3795 141.95C84.9819 141.983 85.5209 141.552 85.6295 140.959C85.7272 140.453 85.8828 139.824 86.1523 139.334C86.6914 138.337 87.3969 137.815 87.7515 138.005C88.106 138.187 88.0699 138.829 88.0699 138.829L88.3014 138.824C88.3014 138.824 88.3231 138.62 88.3557 138.345C88.3828 138.075 88.4099 137.732 88.4262 137.468C88.4262 136.795 88.6361 136.139 89.0449 135.605C89.2928 135.276 89.5895 134.775 89.906 134.018C90.1159 133.512 90.1647 133.032 90.1213 132.597V132.591C89.9766 131.208 89.4122 130.64 88.8767 130.25C87.1346 128.975 83.4912 131.342 82.1435 132.474C81.4054 133.092 80.8935 133.803 80.6348 134.616V134.622C80.4213 135.285 80.3779 136.018 80.5117 136.824Z" fill="#713E23"/>
<path d="M82.7373 142.1L83.0701 141.791C85.2464 144.192 88.1191 144.281 88.1191 144.281C88.1191 144.281 88.9061 145.075 89.1304 145.995L88.6709 145.698C88.4303 145.543 88.1608 145.434 87.8767 145.389C87.6958 145.36 87.2978 145.34 87.2978 145.34C85.4996 145.315 83.7087 144.06 82.7734 143.285C82.4062 142.983 82.3881 142.426 82.7373 142.1Z" fill="white"/>
<path d="M90.8796 201.769C90.8506 201.828 90.8072 201.879 90.7656 201.931C90.8109 201.872 90.8488 201.817 90.8796 201.769Z" fill="#474747"/>
<path d="M90.7083 202.016C90.7318 201.99 90.7463 201.958 90.768 201.931C90.7336 201.976 90.6974 202.023 90.6504 202.075C90.6703 202.059 90.6866 202.037 90.7083 202.016Z" fill="#474747"/>
<path d="M87.5133 151.182C87.8534 153.164 91.6343 158.93 91.7899 159.161C92.4682 160.243 93.1303 161.187 93.6803 161.859H93.6857C94.1868 162.483 94.6011 162.888 94.8598 162.962C94.9086 162.978 94.9575 162.989 95.0099 163C96.184 163.28 97.0722 162.521 97.396 161.671C97.7036 160.998 98.619 159.409 99.3679 157.364C99.869 156.003 100.171 154.339 100.493 152.981C100.569 152.652 100.531 152.309 100.359 152.012C100.343 151.99 100.332 151.963 100.316 151.942C100.106 151.591 99.8147 151.198 99.556 151.155C99.082 151.085 98.9898 151.209 98.9898 151.209C98.9898 151.209 98.1232 152.603 97.434 153.681C96.9003 154.515 96.3034 155.974 96.061 156.588C95.9959 156.771 95.9524 156.88 95.9524 156.88C94.7024 153.978 93.0706 150.414 92.4085 148.922C91.6053 147.119 89.1668 146.731 87.9005 148.249C87.8842 148.271 87.8679 148.293 87.8462 148.314C87.7648 148.412 87.7123 148.541 87.6689 148.676L87.6635 148.671C87.6635 148.671 87.6581 148.676 87.6526 148.682C87.5893 148.759 87.195 149.331 87.5133 151.182Z" fill="#3A3A3A"/>
<path d="M80.5116 136.824C80.8138 138.621 82.337 141.449 83.1076 141.708C83.5761 141.869 84.0121 141.934 84.3794 141.95C84.9818 141.983 85.5208 141.552 85.6294 140.959C85.7271 140.453 85.8827 139.824 86.1522 139.334C86.6913 138.337 87.3968 137.815 87.7514 138.005C88.1059 138.187 88.0698 138.829 88.0698 138.829L88.3013 138.824C88.3013 138.824 88.323 138.62 88.3556 138.345C88.3827 138.075 88.4098 137.732 88.4261 137.468C88.4261 136.795 88.636 136.139 89.0448 135.605C89.2927 135.276 89.5894 134.775 89.9059 134.018C90.1158 133.512 90.1646 133.032 90.1212 132.597C89.9493 133.032 88.5003 136.414 84.4445 137.263C80.2114 138.151 80.6094 134.792 80.6365 134.62C80.4212 135.285 80.3778 136.018 80.5116 136.824Z" fill="#442312"/>
<path d="M96.2932 158.628C96.2932 158.628 96.5248 157.158 96.0617 156.589C95.9966 156.771 95.9531 156.88 95.9531 156.88C95.9531 156.88 96.3584 157.719 96.2932 158.628Z" fill="#141414"/>
<path d="M87.655 148.68L87.6713 148.675C87.6713 148.675 87.5428 150.327 89.1094 153.085C90.6815 155.846 94.0155 162.44 95.6653 162.259C96.5337 162.163 96.8431 160.784 97.1904 160.536C97.9429 159.999 98.4513 158.086 99.1676 156.18C99.7393 154.656 100.17 152.676 100.32 151.944C100.336 151.966 100.347 151.993 100.363 152.014C100.535 152.311 100.573 152.654 100.497 152.984C100.173 154.34 99.8731 156.003 99.372 157.366C98.6231 159.411 97.7078 161.001 97.4002 161.673C97.0746 162.525 96.1882 163.27 95.0141 162.995V163.002C94.9599 162.991 94.911 162.981 94.864 162.964C94.6053 162.888 94.191 162.485 93.6899 161.861H93.6845C93.1345 161.189 92.4724 160.247 91.7941 159.164C91.6385 158.932 87.8558 153.166 87.5175 151.184C87.1955 149.331 87.5899 148.76 87.655 148.68Z" fill="#2D2D2D"/>
<defs>
<linearGradient id="paint0_linear_52789_6908" x1="86.5296" y1="107.305" x2="86.5296" y2="135.019" gradientUnits="userSpaceOnUse">
<stop stop-color="#F2F2F2"/>
<stop offset="1" stop-color="#CEE2F5"/>
</linearGradient>
<linearGradient id="paint1_linear_52789_6908" x1="204.391" y1="116.857" x2="204.391" y2="144.572" gradientUnits="userSpaceOnUse">
<stop stop-color="#F2F2F2"/>
<stop offset="1" stop-color="#CEE2F5"/>
</linearGradient>
<linearGradient id="paint2_linear_52789_6908" x1="153.026" y1="145.909" x2="153.026" y2="173.624" gradientUnits="userSpaceOnUse">
<stop stop-color="#F2F2F2"/>
<stop offset="1" stop-color="#CEE2F5"/>
</linearGradient>
<linearGradient id="paint3_linear_52789_6908" x1="137.496" y1="79.844" x2="137.496" y2="107.559" gradientUnits="userSpaceOnUse">
<stop stop-color="#F2F2F2"/>
<stop offset="1" stop-color="#CEE2F5"/>
</linearGradient>
</defs>
</svg>
