<svg xmlns="http://www.w3.org/2000/svg" width="86" height="17" viewBox="0 0 86 17" fill="none">
  <path d="M9.31718 5.15921e-05H76.7015C77.813 -0.00383265 78.9143 0.211646 79.9426 0.634162C80.9708 1.05668 81.9057 1.67795 82.6938 2.46243C83.4819 3.2469 84.1078 4.17921 84.5357 5.20601C84.9635 6.23281 85.1849 7.33396 85.1873 8.44649C85.1873 9.55802 84.9685 10.6587 84.5436 11.6856C84.1186 12.7125 83.4957 13.6456 82.7105 14.4316C81.9252 15.2175 80.993 15.841 79.9671 16.2663C78.9411 16.6917 77.8415 16.9106 76.731 16.9106H9.50012C7.23234 16.9106 5.05745 16.0089 3.45389 14.4039C1.85033 12.7988 0.949463 10.6219 0.949463 8.35198C0.954153 6.13426 1.83801 4.00906 3.40692 2.44311C4.97584 0.877159 7.10153 -0.00151846 9.31718 5.15921e-05Z" fill="#B2D4FF"/>
  <g opacity="0.4">
    <mask id="mask0_52089_545909" style="mask-type:luminance" maskUnits="userSpaceOnUse" x="0" y="0" width="86" height="17">
      <path d="M9.3169 5.15921e-05H76.7012C77.8127 -0.00383265 78.9141 0.211646 79.9423 0.634162C80.9705 1.05668 81.9054 1.67795 82.6935 2.46243C83.4817 3.2469 84.1075 4.17921 84.5354 5.20601C84.9632 6.23281 85.1847 7.33396 85.187 8.44649C85.187 9.55802 84.9683 10.6587 84.5433 11.6856C84.1183 12.7125 83.4954 13.6456 82.7102 14.4316C81.925 15.2175 80.9928 15.841 79.9668 16.2663C78.9408 16.6917 77.8412 16.9106 76.7307 16.9106H9.49983C7.23362 16.9106 5.06023 16.0096 3.45778 14.4056C1.85533 12.8017 0.955078 10.6262 0.955078 8.35789C0.959764 6.14065 1.84262 4.01574 3.41009 2.44901C4.97756 0.882293 7.10173 0.00161027 9.3169 5.15921e-05Z" fill="white"/>
    </mask>
    <g mask="url(#mask0_52089_545909)">
      <path d="M77.8165 0H8.29601C4.24173 0 0.955078 3.28973 0.955078 7.34781V9.5805C0.955078 13.6386 4.24173 16.9283 8.29601 16.9283H77.8165C81.8708 16.9283 85.1575 13.6386 85.1575 9.5805V7.34781C85.1575 3.28973 81.8708 0 77.8165 0Z" stroke="#4C9AFF" stroke-width="12.69" stroke-miterlimit="10" stroke-dasharray="1.15 11.74"/>
      <path d="M81.0327 0.75L79.4099 4.13448" stroke="#4C9AFF" stroke-width="1.17" stroke-miterlimit="10"/>
      <path d="M85.1277 6.74512L81.3923 7.00501" stroke="#4C9AFF" stroke-width="1.17" stroke-miterlimit="10"/>
      <path d="M83.6465 14.0283L80.6074 11.8311" stroke="#4C9AFF" stroke-width="1.17" stroke-miterlimit="10"/>
      <path d="M5.198 0.702637L6.81489 4.08711" stroke="#4C9AFF" stroke-width="1.17" stroke-miterlimit="10"/>
      <path d="M1.09692 6.69775L4.8382 6.95765" stroke="#4C9AFF" stroke-width="1.17" stroke-miterlimit="10"/>
      <path d="M2.5835 13.9809L5.61665 11.7837" stroke="#4C9AFF" stroke-width="1.17" stroke-miterlimit="10"/>
    </g>
  </g>
  <path d="M76.4186 2.51025H9.69515C6.40674 2.51025 3.74097 5.17721 3.74097 8.46706C3.74097 11.7569 6.40674 14.4239 9.69515 14.4239H76.4186C79.707 14.4239 82.3727 11.7569 82.3727 8.46706C82.3727 5.17721 79.707 2.51025 76.4186 2.51025Z" fill="#2684FF"/>
  <path d="M20.3167 8.46436H65.7962" stroke="#F9A236" stroke-width="2.31" stroke-miterlimit="10"/>
  <path d="M68.4991 11.1697C69.9917 11.1697 71.2018 9.95855 71.2018 8.4645C71.2018 6.97045 69.9917 5.75928 68.4991 5.75928C67.0064 5.75928 65.7964 6.97045 65.7964 8.4645C65.7964 9.95855 67.0064 11.1697 68.4991 11.1697Z" fill="#DEEBFF"/>
  <path d="M17.6141 11.1697C19.1067 11.1697 20.3168 9.95855 20.3168 8.4645C20.3168 6.97045 19.1067 5.75928 17.6141 5.75928C16.1214 5.75928 14.9114 6.97045 14.9114 8.4645C14.9114 9.95855 16.1214 11.1697 17.6141 11.1697Z" fill="#DEEBFF"/>
  <path d="M43.2657 11.1697C44.7583 11.1697 45.9684 9.95855 45.9684 8.4645C45.9684 6.97045 44.7583 5.75928 43.2657 5.75928C41.773 5.75928 40.563 6.97045 40.563 8.4645C40.563 9.95855 41.773 11.1697 43.2657 11.1697Z" fill="#DEEBFF"/>
</svg>