<svg width="56" height="56" viewBox="0 0 56 56" fill="none" xmlns="http://www.w3.org/2000/svg">
<rect width="56" height="56" rx="28" fill="url(#paint0_linear_55382_1430)"/>
<path fill-rule="evenodd" clip-rule="evenodd" d="M19.3296 28.3335C19.3437 26.4951 20.8428 25.0148 22.6812 25.0241C24.5196 25.0334 26.0036 26.5288 25.999 28.3672C25.9944 30.2056 24.5028 31.6935 22.6644 31.6935C21.7762 31.6914 20.9254 31.3359 20.2998 30.7055C19.6741 30.0751 19.3251 29.2216 19.3296 28.3335V28.3335Z" stroke="white" stroke-width="2" stroke-linecap="round" stroke-linejoin="round"/>
<path d="M30.6685 24.9988C30.5335 24.998 30.4113 25.0788 30.3591 25.2034C30.3069 25.3279 30.335 25.4716 30.4303 25.5674C30.5255 25.6631 30.6691 25.692 30.7939 25.6405C30.9187 25.589 31.0002 25.4673 31.0002 25.3322C31.0008 25.2439 30.9662 25.1589 30.9039 25.0963C30.8416 25.0337 30.7568 24.9986 30.6685 24.9988" stroke="white" stroke-width="2" stroke-linecap="round" stroke-linejoin="round"/>
<path d="M34.8184 24.9988C34.6834 24.998 34.5612 25.0788 34.509 25.2034C34.4569 25.3279 34.4849 25.4716 34.5802 25.5674C34.6754 25.6631 34.819 25.692 34.9438 25.6405C35.0686 25.589 35.1501 25.4673 35.1501 25.3322C35.1508 25.2439 35.1161 25.1589 35.0538 25.0963C34.9915 25.0337 34.9067 24.9986 34.8184 24.9988" stroke="white" stroke-width="2" stroke-linecap="round" stroke-linejoin="round"/>
<path fill-rule="evenodd" clip-rule="evenodd" d="M15.995 39.1713V38.3377C16.0004 36.4982 17.4902 35.0083 19.3297 35.0029H25.9992C27.8386 35.0083 29.3285 36.4982 29.3339 38.3377V39.1713C29.3325 39.6312 28.9601 40.0037 28.5002 40.005H16.8287C16.3688 40.0037 15.9963 39.6312 15.995 39.1713V39.1713Z" stroke="white" stroke-width="2" stroke-linecap="round" stroke-linejoin="round"/>
<path d="M23.0336 19.9966C25.3763 16.6433 29.6307 15.2081 33.526 16.4569C37.4213 17.7058 40.0481 21.3472 40.0044 25.4376C39.9606 29.5279 37.2566 33.1123 33.3355 34.2776" stroke="white" stroke-width="2" stroke-linecap="round" stroke-linejoin="round"/>
<defs>
<linearGradient id="paint0_linear_55382_1430" x1="28" y1="56.367" x2="28" y2="0.285036" gradientUnits="userSpaceOnUse">
<stop stop-color="#00AB82"/>
<stop offset="1" stop-color="#6AFCB6"/>
</linearGradient>
</defs>
</svg>
