<svg width="40" height="41" viewBox="0 0 40 41" fill="none" xmlns="http://www.w3.org/2000/svg">
<rect x="0.5" y="0.606445" width="39" height="39" rx="19.5" stroke="#333333"/>
<path d="M28.1562 16.0127C28.5312 17.3252 28.5312 20.1377 28.5312 20.1377C28.5312 20.1377 28.5312 22.9189 28.1562 24.2627C27.9688 25.0127 27.375 25.5752 26.6562 25.7627C25.3125 26.1064 20 26.1064 20 26.1064C20 26.1064 14.6562 26.1064 13.3125 25.7627C12.5938 25.5752 12 25.0127 11.8125 24.2627C11.4375 22.9189 11.4375 20.1377 11.4375 20.1377C11.4375 20.1377 11.4375 17.3252 11.8125 16.0127C12 15.2627 12.5938 14.6689 13.3125 14.4814C14.6562 14.1064 20 14.1064 20 14.1064C20 14.1064 25.3125 14.1064 26.6562 14.4814C27.375 14.6689 27.9688 15.2627 28.1562 16.0127ZM18.25 22.6689L22.6875 20.1377L18.25 17.6064V22.6689Z" fill="#333333"/>
</svg>
