<svg width="94" height="94" viewBox="0 0 94 94" fill="none" xmlns="http://www.w3.org/2000/svg">
<path d="M47 74C61.9117 74 74 61.9117 74 47C74 32.0883 61.9117 20 47 20C32.0883 20 20 32.0883 20 47C20 61.9117 32.0883 74 47 74Z" fill="#F57C00"/>
<path d="M81.956 19.2635C83.2143 18.2846 84.2327 17.0314 84.9335 15.5994C85.6343 14.1673 85.9991 12.5943 86 11C86 5.21 81.29 0.5 75.5 0.5C69.71 0.5 65 5.21 65 11C65.001 12.5993 65.3682 14.1772 66.0733 15.6126C66.7785 17.0481 67.8028 18.3031 69.068 19.2815C68.1665 19.5635 67.295 19.931 66.452 20.366C60.9935 16.3685 54.269 14 47 14C39.731 14 33.0065 16.3685 27.5465 20.366C26.7076 19.9293 25.8323 19.5664 24.9305 19.2815C26.1962 18.3035 27.221 17.0486 27.9265 15.6131C28.6319 14.1775 28.9991 12.5995 29 11C29 5.21 24.29 0.5 18.5 0.5C12.71 0.5 8 5.21 8 11C8.00095 12.5943 8.36571 14.1673 9.0665 15.5994C9.7673 17.0314 10.7857 18.2846 12.044 19.2635C5.36 21.3725 0.5 27.629 0.5 35V50C0.5 54.1355 3.8645 57.5 8 57.5V87.5C8 90.809 10.691 93.5 14 93.5C15.8 93.5 17.399 92.687 18.5 91.427C19.601 92.687 21.2 93.5 23 93.5C26.309 93.5 29 90.809 29 87.5V74.6375C34.181 78.023 40.3625 80 47 80C53.6375 80 59.819 78.023 65 74.6375V87.5C65 90.809 67.691 93.5 71 93.5C72.8 93.5 74.399 92.687 75.5 91.427C76.601 92.687 78.2 93.5 80 93.5C83.309 93.5 86 90.809 86 87.5V57.5C90.1355 57.5 93.5 54.1355 93.5 50V35C93.5 27.629 88.64 21.3725 81.956 19.2635ZM68 11C68 6.8645 71.3645 3.5 75.5 3.5C79.6355 3.5 83 6.8645 83 11C83 15.1355 79.6355 18.5 75.5 18.5C71.3645 18.5 68 15.1355 68 11ZM72.941 62H62.33C63.7925 58.196 64.8005 53.7125 64.967 48.5H76.925C76.6956 53.2538 75.3294 57.8833 72.941 62ZM41.756 17.489C38.0981 20.7086 35.1142 24.6209 32.9765 29H23.057C27.5345 23.0615 34.145 18.839 41.756 17.489ZM47 76.748C45.131 75.5525 40.085 71.867 36.356 65H57.644C53.915 71.867 48.869 75.5525 47 76.748ZM34.907 62C33.3335 58.2815 32.2145 53.804 32.0345 48.5H61.9685C61.787 53.804 60.6695 58.2815 59.096 62H34.907ZM32.033 45.5C32.2145 40.196 33.332 35.7185 34.9055 32H59.093C60.6665 35.7185 61.7855 40.196 61.9655 45.5H32.033ZM36.356 29C40.085 22.133 45.131 18.4475 47 17.252C48.869 18.4475 53.915 22.133 57.644 29H36.356ZM21.059 32H31.67C30.2075 35.804 29.1995 40.2875 29.033 45.5H17.075C17.3044 40.7462 18.6706 36.1167 21.059 32ZM17.0765 48.5H29.0345C29.1995 53.7125 30.2075 58.196 31.6715 62H21.0605C18.6708 57.8839 17.3045 53.2541 17.0765 48.5ZM32.9765 65C35.1137 69.3794 38.0977 73.2918 41.756 76.511C34.145 75.161 27.533 70.9385 23.057 65H32.9765ZM61.0235 65H70.943C66.467 70.9385 59.855 75.161 52.244 76.511C55.9019 73.2914 58.8858 69.3791 61.0235 65ZM64.967 45.5C64.802 40.2875 63.794 35.804 62.33 32H72.941C75.3294 36.1167 76.6956 40.7462 76.925 45.5H64.967ZM61.0235 29C58.8863 24.6206 55.9023 20.7082 52.244 17.489C59.855 18.839 66.467 23.0615 70.943 29H61.0235ZM11 11C11 6.8645 14.3645 3.5 18.5 3.5C22.6355 3.5 26 6.8645 26 11C26 15.1355 22.6355 18.5 18.5 18.5C14.3645 18.5 11 15.1355 11 11ZM14 90.5C12.3455 90.5 11 89.1545 11 87.5V32H8V54.5C5.519 54.5 3.5 52.481 3.5 50V35C3.5 27.557 9.557 21.5 17 21.5H20C21.71 21.5 23.39 21.842 24.962 22.463C18.2375 28.508 14 37.268 14 47C14 51.8945 15.08 56.54 17 60.722V87.5C17 89.1545 15.6545 90.5 14 90.5ZM26 87.5C26 89.1545 24.6545 90.5 23 90.5C21.3455 90.5 20 89.1545 20 87.5V65.939C21.7019 68.3624 23.7197 70.5477 26 72.437V87.5ZM71 90.5C69.3455 90.5 68 89.1545 68 87.5V72.437C70.28 70.5473 72.2977 68.3621 74 65.939V87.5C74 89.1545 72.6545 90.5 71 90.5ZM90.5 50C90.5 52.481 88.481 54.5 86 54.5V32H83V87.5C83 89.1545 81.6545 90.5 80 90.5C78.3455 90.5 77 89.1545 77 87.5V60.722C78.92 56.54 80 51.8945 80 47C80 37.268 75.7625 28.508 69.038 22.463C70.6165 21.832 72.3001 21.5053 74 21.5H77C84.443 21.5 90.5 27.557 90.5 35V50Z" fill="black"/>
<path d="M41.5578 11.1064L37.0368 9.29736C40.2881 8.43786 43.6368 8.00176 46.9998 7.99986C51.9708 7.99986 56.8113 8.92086 61.3878 10.7389L62.4948 7.95186C57.5641 5.99282 52.3054 4.99097 46.9998 4.99986C43.3863 4.99986 39.8238 5.46636 36.3678 6.36936L37.8933 2.55786L35.1078 1.44336L31.5498 10.3354L40.4418 13.8934L41.5578 11.1064ZM52.4418 82.8933L56.9463 84.6949C48.9723 86.7829 40.3548 86.3194 32.6778 83.2878L31.5768 86.0779C36.4873 88.0165 41.7205 89.008 46.9998 88.9998C50.6133 88.9998 54.1758 88.5334 57.6318 87.6304L56.1063 91.4418L58.8918 92.5564L62.4483 83.6628L53.5563 80.1049L52.4418 82.8933ZM34.9998 51.4999H37.9998V54.4999H34.9998V51.4999ZM40.9998 51.4999H43.9998V54.4999H40.9998V51.4999ZM46.9998 51.4999H49.9998V54.4999H46.9998V51.4999ZM55.9998 39.4999H58.9998V42.4999H55.9998V39.4999ZM49.9998 39.4999H52.9998V42.4999H49.9998V39.4999ZM43.9998 39.4999H46.9998V42.4999H43.9998V39.4999Z" fill="black"/>
</svg>
