<svg width="96" height="96" viewBox="0 0 96 96" fill="none" xmlns="http://www.w3.org/2000/svg">
<path d="M48.0001 83.7951L37.1614 78.3758V67.1717L48.0001 61.7523L58.8388 67.1717V78.3758L48.0001 83.7951ZM23.2259 40.4403L12.3872 35.0209V23.8168L23.2259 18.3975L34.0646 23.8168V35.0209L23.2259 40.4403ZM75.8711 36.9781L62.6587 43.5835C63.1836 44.9569 63.484 46.4418 63.484 47.9995V54.1931L66.7031 60.6297L75.8711 65.2145L89.8066 58.2467V43.9458L75.8711 36.9781Z" fill="#F57C00"/>
<path d="M47.9999 68.1292C45.4389 68.1292 43.3548 70.2134 43.3548 72.7744C43.3548 75.3354 45.4389 77.4196 47.9999 77.4196C50.561 77.4196 52.6451 75.3354 52.6451 72.7744C52.6451 70.2134 50.561 68.1292 47.9999 68.1292ZM47.9999 74.3228C47.6012 74.305 47.2248 74.134 46.949 73.8456C46.6732 73.5572 46.5192 73.1735 46.5192 72.7744C46.5192 72.3753 46.6732 71.9916 46.949 71.7032C47.2248 71.4148 47.6012 71.2439 47.9999 71.226C48.3986 71.2439 48.775 71.4148 49.0508 71.7032C49.3267 71.9916 49.4806 72.3753 49.4806 72.7744C49.4806 73.1735 49.3267 73.5572 49.0508 73.8456C48.775 74.134 48.3986 74.305 47.9999 74.3228ZM75.8709 43.3551C71.602 43.3551 68.129 46.8281 68.129 51.097C68.129 55.3659 71.602 58.8389 75.8709 58.8389C80.1398 58.8389 83.6128 55.3659 83.6128 51.097C83.6128 46.8281 80.1398 43.3551 75.8709 43.3551ZM75.8709 55.7422C73.3099 55.7422 71.2257 53.658 71.2257 51.097C71.2257 48.536 73.3099 46.4518 75.8709 46.4518C78.4319 46.4518 80.516 48.536 80.516 51.097C80.516 53.658 78.4319 55.7422 75.8709 55.7422ZM23.2257 24.7744C20.6647 24.7744 18.5806 26.8585 18.5806 29.4196C18.5806 31.9806 20.6647 34.0647 23.2257 34.0647C25.7868 34.0647 27.8709 31.9806 27.8709 29.4196C27.8709 26.8585 25.7868 24.7744 23.2257 24.7744ZM23.2257 30.968C22.827 30.9501 22.4506 30.7792 22.1748 30.4908C21.899 30.2024 21.7451 29.8187 21.7451 29.4196C21.7451 29.0205 21.899 28.6368 22.1748 28.3484C22.4506 28.0599 22.827 27.889 23.2257 27.8712C23.6244 27.889 24.0008 28.0599 24.2767 28.3484C24.5525 28.6368 24.7064 29.0205 24.7064 29.4196C24.7064 29.8187 24.5525 30.2024 24.2767 30.4908C24.0008 30.7792 23.6244 30.9501 23.2257 30.968Z" fill="black"/>
<path d="M75.8711 21.6778C76.7263 21.6778 77.4195 20.9846 77.4195 20.1294C77.4195 19.2743 76.7263 18.5811 75.8711 18.5811C75.016 18.5811 74.3228 19.2743 74.3228 20.1294C74.3228 20.9846 75.016 21.6778 75.8711 21.6778Z" fill="black"/>
<path d="M92.9032 31.2526V7.74194C92.9032 3.47303 89.4302 0 85.1613 0H66.5806C62.3117 0 58.8387 3.47303 58.8387 7.74194V31.2526C58.0522 31.5321 57.3558 32.0189 56.8232 32.6616C56.2906 33.3043 55.9416 34.079 55.8132 34.9037C54.3017 34.3523 52.7057 34.0683 51.0968 34.0645H44.9032C44.5378 34.0645 44.1801 34.0924 43.8209 34.1187L46.4516 7.74194V0H0L0.00774194 7.89677L6.19355 69.7564V88.2581C6.19355 90.8191 8.27768 92.9032 10.8387 92.9032H30.3747C33.3677 94.8542 36.9321 96 40.7644 96H55.2387C59.071 96 62.6353 94.8542 65.6284 92.9032H91.3548C93.9159 92.9032 96 90.8191 96 88.2581V35.6129C95.9969 34.6554 95.6976 33.7223 95.1432 32.9416C94.5887 32.1609 93.8063 31.571 92.9032 31.2526ZM66.5806 3.09677H85.1613C87.7223 3.09677 89.8064 5.1809 89.8064 7.74194V30.9677H86.7097V27.871C86.7097 26.1631 85.3208 24.7742 83.6129 24.7742V15.4839C83.6129 13.776 82.224 12.3871 80.5161 12.3871H71.2258C69.5179 12.3871 68.129 13.776 68.129 15.4839V24.7742C66.4212 24.7742 65.0323 26.1631 65.0323 27.871V30.9677H61.9355V7.74194C61.9355 5.1809 64.0196 3.09677 66.5806 3.09677ZM80.5161 24.7742H71.2258V15.4839H80.5161V24.7742ZM83.6129 27.871V30.9677H68.129V27.871H83.6129ZM51.0968 37.1613C56.5455 37.1613 61.056 41.2088 61.8116 46.4516H55.5855C54.8655 42.9228 51.7394 40.2581 48 40.2581C44.2606 40.2581 41.1344 42.9228 40.4145 46.4516H34.1884C34.944 41.2088 39.4544 37.1613 44.9032 37.1613H51.0968ZM61.9355 52.6452H34.0645V49.5484H61.9355V52.6452ZM43.6397 46.4516C44.2808 44.6539 45.984 43.3548 48 43.3548C50.016 43.3548 51.7192 44.6539 52.3603 46.4516H43.6397ZM30.9677 48V53.8281L23.8173 68.129H9.14323L3.25161 9.29032H43.1923L40.6483 34.735C35.04 36.5388 30.9677 41.8003 30.9677 48ZM21.7037 77.4193C21.7316 78.4738 21.8369 79.5097 22.0305 80.5161H20.129C18.4212 80.5161 17.0323 79.1272 17.0323 77.4193H21.7037ZM21.8756 74.3226H9.29032V71.2258H22.5786C22.2588 72.2368 22.0236 73.2726 21.8756 74.3226ZM34.0645 6.19355V3.09677H37.1613V6.19355H34.0645ZM30.9677 6.19355H27.871V3.09677H30.9677V6.19355ZM24.7742 6.19355H21.6774V3.09677H24.7742V6.19355ZM18.5806 6.19355H15.4839V3.09677H18.5806V6.19355ZM12.3871 6.19355H9.29032V3.09677H12.3871V6.19355ZM43.361 6.19355H40.2581V3.09677H43.3564L43.361 6.19355ZM6.19355 3.09677V6.19355H3.09677V3.09677H6.19355ZM9.29032 88.2581V77.4193H13.9355C13.9355 80.8351 16.7133 83.6129 20.129 83.6129H22.9146C23.7778 85.9031 25.0736 88.0058 26.7314 89.8064H10.8387C9.98555 89.8064 9.29032 89.1128 9.29032 88.2581ZM40.7628 92.9032C31.9463 92.9032 24.7742 85.7311 24.7742 76.9146C24.7742 74.4449 25.3579 71.9737 26.4619 69.7641L33.473 55.7419H62.527L69.5381 69.7641C70.6451 71.9854 71.2227 74.4328 71.2258 76.9146C71.2258 85.7311 64.0537 92.9032 55.2372 92.9032H40.7628ZM92.9032 88.2581C92.9032 89.1128 92.208 89.8064 91.3548 89.8064H69.2686C72.3948 86.4062 74.3226 81.8865 74.3226 76.9146C74.3226 73.968 73.6258 71.0152 72.3081 68.3783L65.0323 53.8281V48C65.0316 45.7095 64.466 43.4546 63.3857 41.4349C62.3054 39.4152 60.7436 37.6931 58.8387 36.4212V35.6129C58.8387 34.7582 59.5339 34.0645 60.3871 34.0645H91.3548C92.208 34.0645 92.9032 34.7582 92.9032 35.6129V88.2581Z" fill="black"/>
</svg>
