<svg width="96" height="96" viewBox="0 0 96 96" fill="none" xmlns="http://www.w3.org/2000/svg">
<path d="M47.6819 64.9195C55.3272 64.9195 61.525 58.7218 61.525 51.0764C61.525 43.4311 55.3272 37.2334 47.6819 37.2334C40.0366 37.2334 33.8389 43.4311 33.8389 51.0764C33.8389 58.7218 40.0366 64.9195 47.6819 64.9195Z" fill="#F57C00"/>
<path d="M84.3796 0.318359H81.7356C75.68 0.318359 70.7534 5.24495 70.7534 11.302C70.7514 13.4707 71.3932 15.5911 72.5976 17.3945L74.5449 20.3139H75.5231C75.4197 19.8077 75.3676 19.2924 75.3678 18.7758V15.9026C75.3677 15.3713 75.5053 14.8492 75.767 14.3869C76.0288 13.9246 76.4057 13.538 76.8613 13.2647L83.0583 9.54706L89.2554 13.2647C90.1814 13.8215 90.7489 14.8228 90.7489 15.9026V18.7758C90.7489 19.3033 90.6951 19.8171 90.5936 20.3139H91.5718L93.5191 17.3945C94.7233 15.591 95.3651 13.4707 95.3633 11.302C95.36 8.38999 94.2018 5.59814 92.1426 3.539C90.0835 1.47987 87.2916 0.321616 84.3796 0.318359ZM15.3812 55.6906C6.90003 55.6906 4.39062e-05 62.5905 4.39062e-05 71.0717V79.1807C-0.00963328 83.2224 1.58072 87.1038 4.42367 89.9767L4.87587 90.4351H5.23272L5.39422 89.466C5.60614 88.1942 6.26237 87.0389 7.24617 86.2055C8.22996 85.3721 9.47752 84.9147 10.7669 84.9148L12.045 81.0787H12.1019C9.50099 79.8451 7.69063 77.218 7.69063 74.1479V71.2747C7.69062 70.7435 7.82818 70.2214 8.08991 69.7591C8.35164 69.2968 8.72862 68.9102 9.18414 68.6369L15.3812 64.9193L21.5783 68.6369C22.5042 69.1937 23.0718 70.195 23.0718 71.2747V74.1479C23.0718 77.218 21.2614 79.8451 18.6605 81.0787H18.7174L19.9956 84.9148C21.2849 84.9147 22.5325 85.3721 23.5163 86.2055C24.5 87.0389 25.1563 88.1942 25.3682 89.466L25.5297 90.4351H25.8865L26.3372 89.9767C29.1814 87.1045 30.7725 83.2228 30.7624 79.1807V71.0717C30.7624 62.5905 23.8624 55.6906 15.3812 55.6906Z" fill="#F57C00"/>
<path d="M96 80.3004L86.1345 70.4349V40.3094H95.6416L94.5634 33.8416C94.3282 32.4022 93.6466 31.0731 92.6149 30.0422C91.5831 29.0113 90.2535 28.3308 88.8139 28.0967L88.2479 26.4032C89.4918 25.5573 90.5101 24.4202 91.2141 23.0908C91.9181 21.7614 92.2864 20.28 92.287 18.7757V15.9025C92.285 15.1063 92.0779 14.324 91.6856 13.6311C91.2934 12.9381 90.7292 12.358 90.0475 11.9465L83.0583 7.75358L76.0691 11.9465C75.3875 12.3581 74.8234 12.9383 74.4312 13.6312C74.0389 14.3241 73.8317 15.1063 73.8296 15.9025V18.7757C73.8296 19.8555 74.0265 20.8876 74.3679 21.852H61.4339C61.4908 21.3459 61.5247 20.8337 61.5247 20.3138C61.5247 12.6817 55.3153 6.47079 47.6816 6.47079C40.0479 6.47079 33.8386 12.6817 33.8386 20.3138C33.8386 20.8337 33.8724 21.3459 33.9293 21.852H27.6861V18.7757C27.6861 17.0792 26.3064 15.6995 24.6099 15.6995H18.1744C18.0396 15.3091 17.8528 14.9387 17.6191 14.5982L22.7857 7.36444L20.2831 5.57715L15.1089 12.8217C14.7029 12.7048 14.2845 12.6233 13.8431 12.6233C13.4016 12.6233 12.9832 12.7048 12.5787 12.8217L7.40449 5.57715L4.90198 7.36444L10.0685 14.5982C9.83318 14.9351 9.65168 15.3057 9.51171 15.6995H3.07623C1.37969 15.6995 0 17.0792 0 18.7757V26.2771C0 26.534 0.0323005 26.7893 0.0938251 27.0231L2.83167 37.9791C2.9968 38.6453 3.3805 39.2369 3.92143 39.6593C4.46236 40.0817 5.12929 40.3106 5.81562 40.3094H12.3049V56.0012C13.3173 55.7944 14.3479 55.6903 15.3812 55.6905V40.3094H21.8705C23.2855 40.3094 24.513 39.3511 24.8544 37.9791L27.5907 27.0339C27.6538 26.7893 27.6861 26.534 27.6861 26.2771V24.9282H34.6461C35.7574 28.0488 37.9463 30.6701 40.8185 32.3204C33.1695 35.129 27.6861 42.4643 27.6861 51.0762C27.6861 58.856 32.162 65.596 38.6667 68.8999C38.1245 69.3053 37.684 69.8312 37.3799 70.4361C37.0759 71.0409 36.9166 71.7082 36.9148 72.3852C36.9148 73.0128 37.0825 73.5988 37.3255 74.1479H36.9148C35.2183 74.1479 33.8386 75.5276 33.8386 77.2242V80.3004C33.8386 81.9969 35.2183 83.3766 36.9148 83.3766H30.1748C29.8749 84.4439 29.4598 85.4754 28.9366 86.4529H36.9148V92.6053C36.9148 94.3019 38.2945 95.6815 39.991 95.6815H55.3722C57.0687 95.6815 58.4484 94.3019 58.4484 92.6053V86.4529H67.6771V92.6053C67.6771 94.3019 69.0568 95.6815 70.7534 95.6815H89.2108C90.9073 95.6815 92.287 94.3019 92.287 92.6053V80.3004H96ZM15.3812 17.2376C15.3635 17.6336 15.1937 18.0076 14.9071 18.2816C14.6206 18.5555 14.2395 18.7085 13.8431 18.7085C13.4466 18.7085 13.0655 18.5555 12.779 18.2816C12.4924 18.0076 12.3226 17.6336 12.3049 17.2376C12.3226 16.8416 12.4924 16.4676 12.779 16.1937C13.0655 15.9197 13.4466 15.7668 13.8431 15.7668C14.2395 15.7668 14.6206 15.9197 14.9071 16.1937C15.1937 16.4676 15.3635 16.8416 15.3812 17.2376ZM9.51171 18.7757C10.1485 20.5615 11.8404 21.852 13.8431 21.852C15.8457 21.852 17.5376 20.5615 18.1744 18.7757H24.6099V24.9282H3.07623V18.7757H9.51171ZM5.81408 37.2331L3.50691 28.0044H6.15247V37.2331H5.81408ZM9.2287 37.2331V28.0044H12.3049V37.2331H9.2287ZM15.3812 28.0044H18.4574V37.2331H15.3812V28.0044ZM21.8705 37.2331H21.5336V28.0044H24.1777L21.8705 37.2331ZM88.574 77.2242H71.3902L79.9821 68.6322L88.574 77.2242ZM91.5287 34.3476L92.0086 37.2331H74.108L74.5894 34.3461C74.7238 33.5329 75.1131 32.7835 75.7012 32.2059C76.2892 31.6284 77.0455 31.2527 77.861 31.133L83.0598 36.3318L88.2587 31.133C89.0741 31.253 89.8302 31.6291 90.418 32.2069C91.0058 32.7848 91.3947 33.5344 91.5287 34.3476ZM85.913 29.1272L83.0583 31.982L80.2036 29.1272L80.685 27.6845C81.4433 27.886 82.2369 28.0044 83.0583 28.0044C83.8797 28.0044 84.6733 27.886 85.4332 27.683L85.913 29.1272ZM76.9058 15.9025C76.9058 15.3657 77.1919 14.8597 77.6518 14.5844L83.0583 11.3405L88.4648 14.5844C88.9247 14.8612 89.2108 15.3657 89.2108 15.9025V18.7757C89.2108 22.1688 86.4514 24.9282 83.0583 24.9282C79.6652 24.9282 76.9058 22.1688 76.9058 18.7757V15.9025ZM58.4484 20.3138C58.4484 25.7265 54.4278 30.207 49.2197 30.9576V28.0044H52.296V23.3901C52.296 20.846 50.2257 18.7757 47.6816 18.7757C46.8326 18.7757 46.1435 18.0851 46.1435 17.2376V15.6995H47.6816C48.5307 15.6995 49.2197 16.3901 49.2197 17.2376V18.7757H52.296V17.2376C52.2929 16.2864 51.9956 15.3595 51.4448 14.584C50.8941 13.8085 50.1168 13.2225 49.2197 12.9063V9.67008C54.4278 10.4207 58.4484 14.9012 58.4484 20.3138ZM49.2197 80.3004V77.2242H58.4484L58.45 80.3004H49.2197ZM54.6447 73.5604L53.4711 74.1479H50.7579L52.6697 71.5977C52.7926 71.4348 52.9516 71.3026 53.1341 71.2113C53.3166 71.1201 53.5177 71.0723 53.7218 71.0717H54.0587C54.3538 71.0733 54.6397 71.1742 54.8706 71.3581C55.1014 71.5419 55.2637 71.7981 55.3314 72.0853C55.399 72.3726 55.3681 72.6742 55.2435 72.9418C55.119 73.2093 54.908 73.4272 54.6447 73.5604ZM30.7623 51.0762C30.7623 49.475 31.0007 47.9307 31.4176 46.4618H40.3863C40.1279 47.9861 39.991 49.5304 39.991 51.0762C39.991 52.622 40.1279 54.1662 40.3863 55.6905H31.4176C30.9867 54.1901 30.7662 52.6372 30.7623 51.0762ZM43.0673 51.0762C43.0673 49.5273 43.2549 47.9846 43.5472 46.4618H51.8161C52.1083 47.9846 52.296 49.5273 52.296 51.0762C52.296 52.6251 52.1083 54.1678 51.8161 55.6905H43.5472C43.2549 54.1678 43.0673 52.6251 43.0673 51.0762ZM47.6816 36.0595L49.7058 40.1094C50.2334 41.163 50.6548 42.2658 51.0239 43.3856H44.3378C44.7069 42.2658 45.1283 41.163 45.6559 40.1094L47.6816 36.0595ZM51.0239 58.7668C50.6548 59.8865 50.2334 60.9893 49.7058 62.0429L47.6816 66.0928L45.6575 62.0429C45.139 60.9844 44.6985 59.8894 44.3393 58.7668H51.0239ZM50.281 67.774L52.459 63.4196C53.2035 61.9291 53.8064 60.3695 54.2709 58.7668H62.7336C61.5151 61.1435 59.7518 63.1985 57.5876 64.7639C55.4235 66.3292 52.9198 67.3607 50.281 67.774ZM64.6009 51.0762C64.6009 52.6773 64.3625 54.2216 63.9457 55.6905H54.9769C55.2353 54.1662 55.3722 52.622 55.3722 51.0762C55.3722 49.5304 55.2353 47.9861 54.9769 46.4618H63.9457C64.3625 47.9307 64.6009 49.475 64.6009 51.0762ZM54.2709 43.3856C53.8084 41.7832 53.202 40.2259 52.459 38.7328L50.281 34.3784C52.9197 34.7919 55.4233 35.8234 57.5874 37.3888C59.7515 38.9541 61.5149 41.009 62.7336 43.3856H54.2709ZM36.9148 20.3138C36.9148 14.9012 40.9354 10.4207 46.1435 9.67008V12.6233H43.0673V17.2376C43.0673 19.7817 45.1376 21.852 47.6816 21.852C48.5307 21.852 49.2197 22.5426 49.2197 23.3901V24.9282H47.6816C46.8326 24.9282 46.1435 24.2376 46.1435 23.3901V21.852H43.0673V23.3901C43.0673 25.3927 44.3577 27.0846 46.1435 27.7214V30.9576C40.9354 30.207 36.9148 25.7265 36.9148 20.3138ZM45.0822 34.3784L42.9042 38.7328C42.161 40.2258 41.5545 41.7831 41.0923 43.3856H32.6296C33.8482 41.0088 35.6115 38.9538 37.7756 37.3885C39.9398 35.8231 42.4434 34.7917 45.0822 34.3784ZM32.6296 58.7668H41.0923C41.5548 60.3691 42.1612 61.9264 42.9042 63.4196L45.0822 67.774C42.4434 67.3607 39.9398 66.3292 37.7756 64.7639C35.6115 63.1985 33.8482 61.1435 32.6296 58.7668ZM47.6816 71.0717C48.2215 71.0717 48.7506 71.0332 49.2797 70.9902L47.6816 73.122L46.0835 70.9902C46.6126 71.0332 47.1417 71.0717 47.6816 71.0717ZM40.7186 73.5604C40.4552 73.4272 40.2443 73.2093 40.1197 72.9418C39.9952 72.6742 39.9642 72.3726 40.0319 72.0853C40.0995 71.7981 40.2618 71.5419 40.4927 71.3581C40.7235 71.1742 41.0095 71.0733 41.3046 71.0717H41.6414C42.0536 71.0717 42.4443 71.2686 42.6935 71.5977L44.6054 74.1479H41.8921L40.7186 73.5604ZM36.9148 77.2242H46.1435V80.3004H36.9148V77.2242ZM39.991 83.3766H46.1435V92.6053H39.991V83.3766ZM49.2197 92.6053V83.3766H55.3722V92.6053H49.2197ZM58.4484 83.3766C60.145 83.3766 61.5247 81.9969 61.5247 80.3004V77.2242C61.5247 75.5276 60.145 74.1479 58.4484 74.1479H58.0378C58.2971 73.5958 58.437 72.9951 58.4484 72.3852C58.4484 70.9594 57.7547 69.7012 56.6965 68.8999C63.2012 65.596 67.6771 58.856 67.6771 51.0762C67.6771 42.4643 62.1938 35.129 54.5447 32.3204C57.4179 30.6713 59.6071 28.0495 60.7172 24.9282H76.1983C76.6951 25.4819 77.2519 25.9818 77.8687 26.4017L77.3027 28.0952C75.8632 28.3294 74.5337 29.0101 73.502 30.0409C72.4703 31.0718 71.7886 32.4007 71.5532 33.84L70.475 40.3094H83.0583V67.3587L79.9821 64.2824L63.9641 80.3004H67.6771V83.3766H58.4484ZM83.0583 92.6053H76.9058V86.4529H83.0583V92.6053ZM89.2108 92.6053H86.1345V86.4529C86.1345 84.7563 84.7548 83.3766 83.0583 83.3766H76.9058C75.2093 83.3766 73.8296 84.7563 73.8296 86.4529V92.6053H70.7534V80.3004H89.2108V92.6053Z" fill="black"/>
<path d="M87.2217 19.8649L85.0468 17.6885C84.7027 18.0342 84.2935 18.3083 83.8429 18.495C83.3922 18.6816 82.909 18.7771 82.4213 18.7759H79.9818V21.8522H82.4213C83.313 21.8546 84.1965 21.6802 85.0204 21.3391C85.8444 20.998 86.5926 20.4969 87.2217 19.8649ZM19.5446 75.2371L17.3697 73.0607C17.0256 73.4064 16.6164 73.6805 16.1658 73.8672C15.7151 74.0538 15.2319 74.1493 14.7441 74.1481H12.3047V77.2244H14.7441C15.6359 77.2268 16.5193 77.0524 17.3433 76.7113C18.1673 76.3702 18.9155 75.8691 19.5446 75.2371Z" fill="black"/>
<path d="M21.1337 83.4691L20.5692 81.7756C21.8134 80.9299 22.832 79.7928 23.5363 78.4634C24.2405 77.134 24.6091 75.6526 24.6099 74.1481V71.2749C24.6079 70.4787 24.4008 69.6964 24.0085 69.0034C23.6163 68.3105 23.0521 67.7304 22.3704 67.3189L15.3812 63.126L8.39198 67.3189C7.71039 67.7305 7.14629 68.3107 6.75404 69.0036C6.36179 69.6965 6.15462 70.4787 6.15248 71.2749V74.1481C6.15299 75.6524 6.52145 77.1337 7.22573 78.4629C7.93002 79.7921 8.94875 80.9289 10.1931 81.7741L9.62863 83.4691C8.18885 83.7031 6.85901 84.3836 5.82703 85.4145C4.79505 86.4453 4.11312 87.7744 3.87761 89.214L2.79785 95.6818H27.963L26.8848 89.214C26.6499 87.7742 25.9682 86.4447 24.9361 85.4137C23.904 84.3827 22.5738 83.7024 21.1337 83.4691ZM9.22872 71.2749C9.22872 70.7381 9.51481 70.2321 9.9747 69.9568L15.3812 66.7129L20.7877 69.9568C21.2491 70.2336 21.5336 70.7381 21.5336 71.2749V74.1481C21.5336 77.5412 18.7743 80.3006 15.3812 80.3006C11.9881 80.3006 9.22872 77.5412 9.22872 74.1481V71.2749ZM15.3812 83.3768C16.2025 83.3768 16.9962 83.2584 17.7545 83.0554L18.2359 84.4981L15.3812 87.3544L12.5264 84.4996L13.0079 83.0569C13.7817 83.2662 14.5795 83.3738 15.3812 83.3768ZM6.43088 92.6055L6.91231 89.7185C7.0467 88.9053 7.43601 88.1559 8.02404 87.5783C8.61208 87.0008 9.36842 86.6251 10.1839 86.5053L15.3827 91.7042L20.5816 86.5053C21.3972 86.6251 22.1537 87.0011 22.7418 87.5789C23.3299 88.1568 23.719 88.9066 23.8531 89.72L24.3315 92.6055H6.43088Z" fill="black"/>
</svg>
