<svg width="96" height="96" viewBox="0 0 96 96" fill="none" xmlns="http://www.w3.org/2000/svg">
<path d="M76.9565 86.7098H68.5922L67.8505 84.6644L65.8794 85.5873L59.9645 79.6724L60.8874 77.7013L58.8389 76.9565V68.5922L60.8843 67.8505L59.9614 65.8794L65.8763 59.9645L67.8474 60.8874L68.5922 58.8389H76.9565L77.6982 60.8843L79.6693 59.9614L85.5842 65.8763L84.6613 67.8474L86.7098 68.5922V76.9565L84.6644 77.6982L85.5873 79.6693L79.6724 85.5842L77.7013 84.6613L76.9565 86.7098Z" fill="#F57C00"/>
<path d="M72.7742 80.5161C68.5053 80.5161 65.0322 77.0431 65.0322 72.7742C65.0322 68.5053 68.5053 65.0322 72.7742 65.0322C77.0431 65.0322 80.5161 68.5053 80.5161 72.7742C80.5161 77.0431 77.0431 80.5161 72.7742 80.5161ZM72.7742 68.129C70.2131 68.129 68.129 70.2131 68.129 72.7742C68.129 75.3352 70.2131 77.4193 72.7742 77.4193C75.3352 77.4193 77.4193 75.3352 77.4193 72.7742C77.4193 70.2131 75.3352 68.129 72.7742 68.129Z" fill="black"/>
<path d="M15.4837 74.3225H6.19336V65.0322H15.4837V74.3225ZM27.8708 74.3225H18.5805V65.0322H27.8708V74.3225ZM40.2579 74.3225H30.9676V65.0322H40.2579V74.3225Z" fill="#F57C00"/>
<path d="M95.9024 87.5365L90.5822 55.6227C90.3081 53.9594 89.4617 52.4441 88.1892 51.3385C86.9168 50.2328 85.2981 49.6062 83.6129 49.567V4.64516C83.6129 2.08413 81.5288 0 78.9677 0H4.64516C2.08413 0 0 2.08413 0 4.64516V75.871C0 78.432 2.08413 80.5161 4.64516 80.5161H50.8165L49.6459 87.5381C49.4736 88.5791 49.5299 89.6452 49.8109 90.6624C50.0918 91.6796 50.5907 92.6234 51.2729 93.4285C51.9551 94.2335 52.8043 94.8805 53.7616 95.3246C54.7189 95.7686 55.7613 95.9991 56.8165 96H88.7303C89.7858 95.9991 90.8284 95.7686 91.7858 95.3245C92.7433 94.8803 93.5926 94.2332 94.275 93.428C94.9573 92.6228 95.4563 91.6788 95.7374 90.6614C96.0184 89.6441 96.0747 88.5778 95.9024 87.5365ZM80.5161 49.5484H65.0322V41.8064C65.0322 37.5375 68.5053 34.0645 72.7742 34.0645C77.0431 34.0645 80.5161 37.5375 80.5161 41.8064V44.8862V49.5484ZM4.64516 3.09677H78.9677C79.3784 3.09677 79.7722 3.25991 80.0626 3.55029C80.353 3.84067 80.5161 4.2345 80.5161 4.64516V18.5806H3.09677V4.64516C3.09677 4.2345 3.25991 3.84067 3.55029 3.55029C3.84066 3.25991 4.2345 3.09677 4.64516 3.09677ZM4.64516 77.4193C4.2345 77.4193 3.84066 77.2562 3.55029 76.9658C3.25991 76.6755 3.09677 76.2816 3.09677 75.871V21.6774H80.5161V34.2364C79.5097 33.2017 78.306 32.3793 76.9762 31.8179C75.6465 31.2565 74.2176 30.9674 72.7742 30.9677C66.799 30.9677 61.9355 35.8312 61.9355 41.8064V49.567C60.2503 49.6065 58.6318 50.2332 57.3594 51.3388C56.087 52.4444 55.2406 53.9596 54.9662 55.6227L51.3337 77.4193H4.64516ZM88.7319 92.9032H56.8165C56.2109 92.9023 55.6128 92.7698 55.0635 92.5147C54.5142 92.2597 54.027 91.8883 53.6355 91.4263C53.244 90.9642 52.9577 90.4226 52.7963 89.8389C52.6349 89.2552 52.6024 88.6434 52.7009 88.0459L58.0212 56.1321C58.1809 55.1566 58.6828 54.2699 59.437 53.6309C60.1912 52.992 61.1483 52.6425 62.1368 52.6452H83.4116C85.4601 52.6452 87.1897 54.1115 87.5272 56.1306L92.8475 88.0428C92.9465 88.6406 92.9143 89.2527 92.7532 89.8368C92.592 90.4209 92.3058 90.9629 91.9142 91.4253C91.5227 91.8877 91.0353 92.2594 90.4857 92.5146C89.9362 92.7698 89.3378 92.9024 88.7319 92.9032Z" fill="black"/>
<path d="M10.8385 15.4837C13.3996 15.4837 15.4837 13.3996 15.4837 10.8385C15.4837 8.27749 13.3996 6.19336 10.8385 6.19336C8.27749 6.19336 6.19336 8.27749 6.19336 10.8385C6.19336 13.3996 8.27749 15.4837 10.8385 15.4837ZM10.8385 9.29013C11.2492 9.29013 11.643 9.45327 11.9334 9.74365C12.2238 10.034 12.3869 10.4279 12.3869 10.8385C12.3869 11.2492 12.2238 11.643 11.9334 11.9334C11.643 12.2238 11.2492 12.3869 10.8385 12.3869C10.4279 12.3869 10.034 12.2238 9.74365 11.9334C9.45327 11.643 9.29013 11.2492 9.29013 10.8385C9.29013 10.4279 9.45327 10.034 9.74365 9.74365C10.034 9.45327 10.4279 9.29013 10.8385 9.29013ZM23.2256 15.4837C25.7866 15.4837 27.8708 13.3996 27.8708 10.8385C27.8708 8.27749 25.7866 6.19336 23.2256 6.19336C20.6646 6.19336 18.5805 8.27749 18.5805 10.8385C18.5805 13.3996 20.6646 15.4837 23.2256 15.4837ZM23.2256 9.29013C23.6363 9.29013 24.0301 9.45327 24.3205 9.74365C24.6109 10.034 24.774 10.4279 24.774 10.8385C24.774 11.2492 24.6109 11.643 24.3205 11.9334C24.0301 12.2238 23.6363 12.3869 23.2256 12.3869C22.815 12.3869 22.4211 12.2238 22.1307 11.9334C21.8404 11.643 21.6772 11.2492 21.6772 10.8385C21.6772 10.4279 21.8404 10.034 22.1307 9.74365C22.4211 9.45327 22.815 9.29013 23.2256 9.29013ZM35.6127 15.4837C38.1737 15.4837 40.2579 13.3996 40.2579 10.8385C40.2579 8.27749 38.1737 6.19336 35.6127 6.19336C33.0517 6.19336 30.9676 8.27749 30.9676 10.8385C30.9676 13.3996 33.0517 15.4837 35.6127 15.4837ZM35.6127 9.29013C36.0234 9.29013 36.4172 9.45327 36.7076 9.74365C36.998 10.034 37.1611 10.4279 37.1611 10.8385C37.1611 11.2492 36.998 11.643 36.7076 11.9334C36.4172 12.2238 36.0234 12.3869 35.6127 12.3869C35.2021 12.3869 34.8082 12.2238 34.5178 11.9334C34.2275 11.643 34.0643 11.2492 34.0643 10.8385C34.0643 10.4279 34.2275 10.034 34.5178 9.74365C34.8082 9.45327 35.2021 9.29013 35.6127 9.29013ZM6.19336 61.9353H49.5482V24.774H6.19336V61.9353ZM9.29013 27.8708H46.4514V58.8385H9.29013V27.8708Z" fill="black"/>
<path d="M40.2577 37.1615H33.0902L36.8714 31.8676C37.1059 31.5333 37.199 31.12 37.1302 30.7175C37.0615 30.315 36.8365 29.9559 36.5043 29.7185C36.1722 29.481 35.7596 29.3844 35.3565 29.4496C34.9535 29.5149 34.5925 29.7367 34.3521 30.0668L29.2858 37.1615H26.4538L21.3875 30.0684C21.27 29.901 21.1206 29.7585 20.9478 29.6492C20.775 29.5399 20.5823 29.4659 20.3807 29.4315C20.1792 29.3971 19.9728 29.4029 19.7735 29.4487C19.5742 29.4944 19.386 29.5792 19.2196 29.6981C19.0533 29.817 18.9121 29.9677 18.8043 30.1414C18.6965 30.3152 18.6242 30.5086 18.5916 30.7104C18.5589 30.9123 18.5665 31.1186 18.614 31.3174C18.6615 31.5163 18.7479 31.7038 18.8683 31.8691L22.651 37.1615H15.4835C13.7756 37.1615 12.3867 38.5504 12.3867 40.2583V43.3551C12.3867 45.0629 13.7756 46.4518 15.4835 46.4518H15.7204L16.6216 51.8603C16.7993 52.9463 17.3581 53.9335 18.1977 54.6448C19.0373 55.3562 20.1028 55.7452 21.2032 55.7422H34.5364C35.6368 55.7452 36.7023 55.3562 37.5419 54.6448C38.3815 53.9335 38.9403 52.9463 39.1181 51.8603L40.0208 46.4518H40.2577C41.9656 46.4518 43.3545 45.0629 43.3545 43.3551V40.2583C43.3545 38.5504 41.9656 37.1615 40.2577 37.1615ZM36.0647 51.3525C36.0054 51.7143 35.8192 52.0431 35.5394 52.2801C35.2596 52.517 34.9046 52.6465 34.5379 52.6454H21.2048C20.8382 52.6465 20.4831 52.517 20.2033 52.2801C19.9236 52.0431 19.7373 51.7143 19.6781 51.3525L18.859 46.4518H36.8822L36.0647 51.3525ZM15.4835 43.3551V40.2583H40.2577L40.2608 43.3551H15.4835ZM74.3222 24.7744H77.419V27.8712H74.3222V24.7744ZM55.7416 24.7744H58.8383V27.8712H55.7416V24.7744ZM68.1287 24.7744H71.2254V27.8712H68.1287V24.7744ZM61.9351 24.7744H65.0319V27.8712H61.9351V24.7744Z" fill="black"/>
</svg>
