<svg width="96" height="96" viewBox="0 0 96 96" fill="none" xmlns="http://www.w3.org/2000/svg">
<path d="M38.7099 63.4839H29.4195C27.7086 63.4839 26.3228 62.0981 26.3228 60.3871V48H41.8066V60.3871C41.8066 62.0981 40.4208 63.4839 38.7099 63.4839Z" fill="#F57C00"/>
<path d="M38.7097 72.7739L38.7902 72.8141C41.472 74.155 44.5076 74.6181 47.4672 74.1379C50.4268 73.6577 53.1603 72.2585 55.2805 70.1385C58.6715 66.7475 61.634 62.9535 64.1017 58.8415L83.6129 26.3223C85.0417 26.3225 86.4484 26.6753 87.7082 27.3495C88.9679 28.0237 90.0418 28.9983 90.8346 30.187C93.1929 33.7247 94.4514 37.8812 94.4516 42.1328V42.9163C94.4513 46.2595 93.6732 49.5568 92.1786 52.5473C89.5773 57.7507 87.6808 63.2775 86.5394 68.9819L86.4325 69.5161C85.587 73.7425 85.1612 78.0421 85.1613 82.3522V94.4513H78.9678V64.874C78.9678 63.2513 77.6516 61.9352 76.0289 61.9352C74.9745 61.9352 74.0005 62.5003 73.4772 63.417L70.2751 69.0206C68.8477 71.5195 67.6227 74.1286 66.6116 76.8229L65.6594 79.3623C64.2144 83.2159 62.3322 86.891 60.0496 90.3156C59.2004 91.5876 58.0506 92.6305 56.7021 93.3519C55.3535 94.0733 53.8479 94.4509 52.3185 94.4513H26.5069C24.5264 94.4512 22.5731 93.9901 20.8017 93.1042C19.0304 92.2184 17.4896 90.9323 16.3014 89.3478C15.7704 88.6398 15.4835 87.7786 15.4839 86.8936C15.4839 84.9767 16.8155 83.3168 18.6875 82.9003C25.7401 81.333 32.3157 78.102 37.8658 73.4768L38.7097 72.7739Z" fill="#F57C00"/>
<path d="M92.1228 29.328C91.1899 27.9261 89.9246 26.7767 88.4399 25.9822C86.9551 25.1876 85.2969 24.7727 83.6129 24.7742H82.7365L68.129 49.1195V34.0645C68.129 15.281 52.848 0 34.0645 0C15.281 0 0 15.281 0 34.0645V72.7742C0 75.3352 2.08413 77.4193 4.64516 77.4193H29.1406C25.7342 79.2015 22.1048 80.5548 18.3515 81.3879C15.7517 81.9654 13.9355 84.2292 13.9355 86.8939C13.938 88.1137 14.3339 89.3002 15.0643 90.2772C17.7492 93.8601 22.0289 96 26.5068 96H52.3185C55.9494 96 59.3203 94.1961 61.3363 91.1737C63.6838 87.651 65.62 83.871 67.1071 79.9076L68.0594 77.3652C69.0413 74.7488 70.2312 72.2153 71.6175 69.7889L74.8181 64.1837C74.941 63.9713 75.1175 63.7949 75.33 63.6721C75.5425 63.5492 75.7835 63.4843 76.0289 63.4839C76.7954 63.4839 77.4193 64.1079 77.4193 64.8743V96H86.7097V82.351C86.7104 78.1417 87.1263 73.9428 87.9515 69.8152L88.0568 69.2841C89.1709 63.7146 91.0226 58.3184 93.5628 53.2382C95.1577 50.0516 96 46.481 96 42.9166V42.1332C96 37.5608 94.6591 33.1324 92.1228 29.328ZM40.2581 52.6452H27.871V49.5484H40.2581V52.6452ZM27.871 55.7419H40.2581V60.3871C40.2581 61.2418 39.5644 61.9355 38.7097 61.9355H29.4194C28.5646 61.9355 27.871 61.2418 27.871 60.3871V55.7419ZM24.7742 46.4516V53.76L3.09677 48.3406V37.1613H65.0323V48.3406L43.3548 53.76V46.4516H24.7742ZM9.29032 34.0645C9.29032 20.4046 20.4046 9.29032 34.0645 9.29032C47.7244 9.29032 58.8387 20.4046 58.8387 34.0645H9.29032ZM34.0645 3.09677C51.1401 3.09677 65.0323 16.9889 65.0323 34.0645H61.9355C61.9355 18.6968 49.4323 6.19355 34.0645 6.19355C18.6968 6.19355 6.19355 18.6968 6.19355 34.0645H3.09677C3.09677 16.9889 16.9889 3.09677 34.0645 3.09677ZM4.64516 74.3226C3.79045 74.3226 3.09677 73.6289 3.09677 72.7742V51.5303L24.7742 56.9497V60.3871C24.7742 62.9481 26.8583 65.0323 29.4194 65.0323H38.7097C41.2707 65.0323 43.3548 62.9481 43.3548 60.3871V56.9497L65.0323 51.5303V54.1935H65.0849L62.7747 58.0428C60.3725 62.0469 57.4879 65.7411 54.1858 69.0426C51.7796 71.4488 48.5806 72.7742 45.1788 72.7742C43.2139 72.7742 41.2444 72.3097 39.4932 71.4364L38.5037 70.9316L36.8717 72.288C35.969 73.0405 35.0245 73.7419 34.0645 74.4186V74.3226H4.64516ZM72.1316 62.6477L68.9311 68.2529C67.4617 70.8228 66.2009 73.5065 65.1608 76.2782L64.2085 78.8206C63.7626 80.0098 63.2578 81.1757 62.7267 82.3293L62.7097 82.2999C58.9434 84.6649 54.7991 86.366 50.4573 87.329C47.682 87.9459 44.8476 88.2575 42.0046 88.2581H27.871V91.3548H42.0046C45.0689 91.3548 48.1378 91.0173 51.1293 90.353C54.2725 89.6547 57.2934 88.5739 60.1796 87.1897C59.7244 87.9561 59.2552 88.7133 58.7613 89.455C57.3197 91.615 54.912 92.9032 52.3185 92.9032H26.5068C24.5063 92.9032 22.5662 92.3427 20.8692 91.3548H24.7742V88.2581H17.455C17.1948 87.8508 17.0323 87.3786 17.0323 86.8939C17.0323 85.6939 17.8514 84.672 19.0235 84.4134C26.2839 82.8 33.1417 79.4292 38.8552 74.6679L38.945 74.592C40.9099 75.4312 43.0467 75.871 45.1788 75.871C49.409 75.871 53.3853 74.2235 56.3768 71.2336C59.8572 67.7525 62.8982 63.8582 65.4317 59.6377L84.4614 27.9221C85.4851 28.0436 86.4701 28.3861 87.3484 28.9259C88.2266 29.4657 88.9771 30.1898 89.5479 31.0483C91.1024 33.3817 92.1259 35.9861 92.5997 38.7112C86.5874 45.4266 81.1742 52.721 76.5213 60.4382C76.3556 60.4181 76.1961 60.3871 76.0289 60.3871C74.4232 60.3871 72.929 61.2542 72.1316 62.6477ZM85.0204 68.6803L84.9151 69.2114C84.0503 73.5378 83.6142 77.9389 83.6129 82.351V92.9032H80.5161V64.8743C80.5161 63.6944 80.0501 62.6292 79.3037 61.8271C83.2955 55.231 87.8679 48.9631 92.8924 43.1009C92.863 46.1264 92.1445 49.1489 90.7928 51.8539C88.1301 57.1815 86.1889 62.8401 85.0204 68.6803Z" fill="#333333"/>
</svg>
