<svg width="96" height="96" viewBox="0 0 96 96" fill="none" xmlns="http://www.w3.org/2000/svg">
<path d="M65.0987 77.3559L82.0946 83.5362L85.1847 77.3559H65.0987ZM41.9227 71.1756C41.9227 69.0789 43.324 67.3283 45.2353 66.7551L45.2817 66.5404H41.9227V63.4502C41.9227 58.1522 43.8339 53.3053 46.9951 49.5446H38.0214C35.4519 45.7112 31.1056 43.3643 26.4719 43.3643C21.8383 43.3643 17.492 45.7112 14.9225 49.5446H4.06838C4.00349 49.5446 3.94478 49.577 3.87988 49.5847L6.96539 74.2657H43.1263C42.3862 73.4437 41.9227 72.3684 41.9227 71.1756Z" fill="#F57C00"/>
<path d="M96 63.4505C96 50.6712 85.6032 40.2744 72.8239 40.2744H63.5535C59.1392 40.2744 55.0247 41.5368 51.5096 43.6875L52.9187 31.004H46.5577V6.28283H37.2872V12.4631H34.1971V0.102539H24.9267V7.8279H21.8365V4.73776H15.6562V0.102539H6.38579V31.004H0L6.56656 83.5365H40.3774V88.1717C40.3774 92.4315 43.843 95.897 48.1027 95.897H88.2746C92.5344 95.897 96 92.4315 96 88.1717V83.5365H95.1409C95.6724 82.6233 96 81.5773 96 80.4463C96 78.5922 95.1626 76.9452 93.8647 75.8111C95.1626 74.677 96 73.03 96 71.1759C96 70.0449 95.6724 68.9989 95.1409 68.0857H96V63.4505ZM72.8239 43.3646C83.899 43.3646 92.9099 52.3754 92.9099 63.4505V64.9956H66.6436C64.0881 64.9956 62.0084 67.0753 62.0084 69.6308V75.8111C62.0084 76.6624 61.3162 77.3562 60.4633 77.3562H58.9183V64.9956H55.8281V85.0815C55.8281 85.9329 55.1359 86.6266 54.283 86.6266C53.4302 86.6266 52.738 85.9329 52.738 85.0815V69.6308C52.738 67.0753 50.6583 64.9956 48.1027 64.9956H43.4675V63.4505C43.4675 52.3754 52.4784 43.3646 63.5535 43.3646H72.8239ZM49.6478 83.5365H46.5577C44.8535 83.5365 43.4675 82.1505 43.4675 80.4463C43.4675 78.7421 44.8535 77.3562 46.5577 77.3562H49.6478V83.5365ZM43.4675 71.1759C43.4675 69.4717 44.8535 68.0857 46.5577 68.0857H48.1027C48.9556 68.0857 49.6478 68.7795 49.6478 69.6308V74.266H46.5577C44.8535 74.266 43.4675 72.8801 43.4675 71.1759ZM40.3774 9.37298H43.4675V31.004H40.3774V9.37298ZM37.2872 15.5533V31.004H34.1971V15.5533H37.2872ZM28.0168 3.19268H31.1069V32.5491C31.1069 34.5608 29.8106 36.2603 28.0168 36.9V3.19268ZM24.9267 10.918V36.9C23.1328 36.2603 21.8365 34.5608 21.8365 32.5491V10.918H24.9267ZM18.7464 7.8279V31.004H15.6562V7.8279H18.7464ZM9.47593 3.19268H12.5661V31.004H9.47593V3.19268ZM9.29516 80.4463L3.50113 34.0941H18.9024C19.6209 37.6154 22.7404 40.2744 26.4717 40.2744C30.2031 40.2744 33.3241 37.6154 34.041 34.0941H49.4655L48.1182 46.2091C43.381 50.4565 40.3774 56.6012 40.3774 63.4505V68.0857H41.2364C40.7049 68.9989 40.3774 70.0449 40.3774 71.1759C40.3774 73.03 41.2148 74.677 42.5127 75.8111C41.2148 76.9452 40.3774 78.5922 40.3774 80.4463H9.29516ZM92.9099 88.1717C92.9099 90.7272 90.8302 92.8069 88.2746 92.8069H48.1027C45.5472 92.8069 43.4675 90.7272 43.4675 88.1717V86.6266H49.9321C50.5718 88.4204 52.2714 89.7168 54.283 89.7168C56.2947 89.7168 57.9943 88.4204 58.634 86.6266H92.9099V88.1717ZM92.9099 80.4463C92.9099 82.1505 91.5239 83.5365 89.8197 83.5365H58.9183V80.4463H60.4633C62.475 80.4463 64.1746 79.15 64.8143 77.3562H89.8197C91.5239 77.3562 92.9099 78.7421 92.9099 80.4463ZM92.9099 71.1759C92.9099 72.8801 91.5239 74.266 89.8197 74.266H65.0985V69.6308C65.0985 68.7795 65.7907 68.0857 66.6436 68.0857H89.8197C91.5239 68.0857 92.9099 69.4717 92.9099 71.1759Z" fill="black"/>
<path d="M60.4635 52.6354H63.5536V55.7255H60.4635V52.6354ZM74.3691 58.8157H77.4593V61.9058H74.3691V58.8157ZM79.0043 49.5452H82.0945V52.6354H79.0043V49.5452ZM49.6479 58.8157H52.7381V61.9058H49.6479V58.8157ZM65.0987 46.4551H68.1888V49.5452H65.0987V46.4551ZM85.1846 58.8157H88.2748V61.9058H85.1846V58.8157ZM55.8282 48.0002H58.9184V51.0903H55.8282V48.0002ZM71.279 52.6354H74.3691V55.7255H71.279V52.6354ZM63.5536 58.8157H66.6437V61.9058H63.5536V58.8157Z" fill="black"/>
</svg>
