<svg width="94" height="94" viewBox="0 0 94 94" fill="none" xmlns="http://www.w3.org/2000/svg">
<path d="M75.5 35L72.5 38L68.3375 29.6735C67.883 29.8835 67.4315 30.101 66.971 30.299C66.5137 30.495 66.0081 30.5495 65.5195 30.4555C65.0309 30.3615 64.5817 30.1232 64.2298 29.7715C63.8779 29.4197 63.6395 28.9706 63.5452 28.4821C63.4509 27.9935 63.5052 27.4879 63.701 27.0305C63.899 26.57 64.1165 26.1185 64.3265 25.664L56 21.5L59 18.5L61.8065 19.202C57.2514 16.7669 52.1651 15.4953 47 15.5C39.521 15.5 32.66 18.119 27.257 22.4735C27.0845 22.784 26.9315 23.1035 26.7335 23.4005L17.8325 36.752C17.5985 37.0958 17.2904 37.3828 16.931 37.592C15.9802 40.6374 15.4977 43.8096 15.5 47C15.5 52.445 16.919 57.539 19.358 62H35C35.7957 62 36.5587 62.3161 37.1213 62.8787C37.6839 63.4413 38 64.2044 38 65C38 65.7957 37.6839 66.5587 37.1213 67.1213C36.5587 67.6839 35.7957 68 35 68L39.824 77.6465C42.1752 78.206 44.5831 78.4924 47 78.5C52.43 78.5 57.5405 77.1245 62 74.705V68C62 67.2044 62.3161 66.4413 62.8787 65.8787C63.4413 65.3161 64.2044 65 65 65H72.83C76.5251 59.7254 78.5049 53.4402 78.5 47C78.5 41.645 77.1545 36.608 74.798 32.1935L75.5 35Z" fill="#F57C00"/>
<path d="M84.5 72.5H69.5V65H84.5V72.5Z" fill="#F57C00"/>
<path d="M24.5 15.5C24.5 10.5365 20.4635 6.5 15.5 6.5C10.5365 6.5 6.5 10.5365 6.5 15.5C6.5 20.4635 10.5365 24.5 15.5 24.5C20.4635 24.5 24.5 20.4635 24.5 15.5ZM9.5 15.5C9.5 12.191 12.191 9.5 15.5 9.5C18.809 9.5 21.5 12.191 21.5 15.5C21.5 18.809 18.809 21.5 15.5 21.5C12.191 21.5 9.5 18.809 9.5 15.5ZM77.0645 14.81L79.1855 12.689L81.3065 14.81L79.1855 16.931L77.0645 14.81ZM72.9305 18.9455L74.945 16.9325L77.066 19.0535L75.05 21.065L72.9305 18.9455ZM81.308 10.5695L83.429 8.4485L85.55 10.5695L83.429 12.6905L81.308 10.5695ZM84.5 84.5H87.5V87.5H84.5V84.5ZM78.5 84.5H81.5V87.5H78.5V84.5ZM18.5 72.5H21.5V75.5H18.5V72.5ZM24.5 72.5H27.5V75.5H24.5V72.5ZM30.5 72.5H33.5V75.5H30.5V72.5Z" fill="black"/>
<path d="M89 63.5002H80.6795C83.1934 58.363 84.5001 52.7194 84.5 47.0002C84.5 39.3802 82.226 32.1217 77.9585 25.8862C79.0924 25.0955 80.1976 24.2645 81.272 23.3947L90.5 32.6212L93.716 29.4052L89.216 15.9037L89.696 15.4237C90.4292 14.6956 91.0104 13.8292 91.406 12.8746C91.8015 11.9201 92.0034 10.8964 92 9.86318C91.9972 7.77838 91.1677 5.77978 89.6934 4.30574C88.2191 2.8317 86.2203 2.00256 84.1355 2.00018C83.1027 1.99763 82.0795 2.19965 81.1251 2.59458C80.1708 2.98951 79.3041 3.56954 78.575 4.30118L78.092 4.78418L64.5935 0.28418L61.379 3.50018L70.607 12.7282C69.7367 13.8017 68.9057 14.9064 68.1155 16.0402C61.9033 11.7689 54.5389 9.48802 47 9.50018C41.2025 9.50018 35.489 10.8457 30.3365 13.4017C29.3105 6.12368 23.057 0.50018 15.5 0.50018C7.22901 0.50018 0.500005 7.22918 0.500005 15.5002V15.9127C0.49753 18.8745 1.3746 21.7704 3.02001 24.2332L11.0705 36.3082C10.0328 39.7775 9.50375 43.379 9.50001 47.0002C9.50001 51.6742 10.3475 56.2042 12.0095 60.5002H11C8.51901 60.5002 6.50001 62.5192 6.50001 65.0002C6.50001 66.9532 7.75851 68.6032 9.50001 69.2242V72.5002H0.500005V77.5237C0.500005 86.3332 7.66701 93.5002 16.4765 93.5002H33.08C39.2435 93.5002 44.8145 89.9032 47.4515 84.4882C51.9161 84.4455 56.3366 83.5995 60.5015 81.9907V89.0002C60.5015 91.4812 62.5205 93.5002 65.0015 93.5002H89.0015C91.4825 93.5002 93.5015 91.4812 93.5015 89.0002V68.0002C93.4995 66.8071 93.0246 65.6634 92.1808 64.8199C91.337 63.9763 90.1931 63.5018 89 63.5002ZM65 63.5002H60.521C61.3895 58.9642 61.904 53.8942 61.985 48.5002H81.4505C81.2249 53.7525 79.8 58.8836 77.285 63.5002H65ZM48.4535 81.1972L48.5 78.5002H41.927L37.1435 68.9317C38.1119 68.4039 38.8523 67.5385 39.224 66.5002H56.7905C54.7625 74.5792 51.605 79.9192 48.4535 81.1972ZM39.224 63.5002C38.9734 62.7946 38.5506 62.1628 37.994 61.662C37.4373 61.1612 36.7645 60.8072 36.0365 60.6322C35.418 56.6167 35.0816 52.5627 35.03 48.5002H58.985C58.8995 54.0457 58.343 59.1007 57.464 63.5002H39.224ZM12.557 45.5002C12.6515 43.2922 12.9335 41.1067 13.442 38.9722C14.3852 39.4876 15.4872 39.6311 16.5309 39.3743C17.5746 39.1174 18.4842 38.479 19.0805 37.5847L23.8025 30.5002H33.479C32.6105 35.0362 32.096 40.1062 32.015 45.5002H12.557ZM36.545 30.5002H57.4745C58.3835 35.0872 58.8905 40.1932 58.973 45.5002H35.0285C35.1155 39.9562 35.6645 34.8967 36.545 30.5002ZM47 12.5002C49.6655 12.5002 52.4075 15.5182 54.608 20.7712L53.468 21.9112L55.424 22.8892C55.934 24.3367 56.3975 25.8712 56.804 27.5002H37.2185C39.563 18.1837 43.409 12.5002 47 12.5002ZM63.62 23.6332L58.532 21.0892L59.4605 20.1622L64.7315 21.4792C64.3445 22.1872 63.9785 22.9072 63.62 23.6332ZM62.36 26.3572L62.3225 26.4382C62.1755 26.7787 62.0975 27.1372 62.051 27.5002H59.882C59.6642 26.5811 59.4247 25.6674 59.1635 24.7597L62.36 26.3572ZM81.4415 45.5002H61.973C61.8935 40.2232 61.4 35.1307 60.521 30.5002H62.897C63.4377 31.1807 64.187 31.6645 65.0297 31.8773C65.8724 32.0901 66.7616 32.0199 67.5605 31.6777L67.643 31.6402L72.089 40.5322L77.1605 35.4592L75.2195 27.6937C75.3005 27.6442 75.3785 27.5902 75.4595 27.5392C79.1069 32.8425 81.1807 39.069 81.4415 45.5002ZM72.521 29.2687L73.838 34.5397L72.9095 35.4667L70.3655 30.3787C71.093 30.0217 71.813 29.6557 72.521 29.2687ZM90.068 27.9472L83.561 21.4402C84.3155 20.7607 85.0565 20.0647 85.7765 19.3432L86.843 18.2767L90.068 27.9472ZM84.1355 5.00018C85.425 5.00137 86.6614 5.51406 87.5734 6.42574C88.4854 7.33743 88.9984 8.57366 89 9.86318C89 11.1637 88.4945 12.3847 87.575 13.3027L83.6555 17.2222C78.6973 22.1885 72.8336 26.159 66.3815 28.9192C65.747 29.1862 65 28.6912 65 28.0117C65 27.8772 65.0271 27.744 65.0795 27.6202C67.8398 21.1673 71.8103 15.3026 76.7765 10.3432L80.6945 6.42368C81.1456 5.97071 81.6819 5.61307 82.2725 5.36849C82.8631 5.1239 83.4963 4.99873 84.1355 5.00018ZM66.0545 3.93218L75.7235 7.15568L74.657 8.22368C73.9355 8.94518 73.2395 9.68618 72.56 10.4392L66.0545 3.93218ZM66.305 18.7807L58.541 16.8382L56.894 18.4852C55.9085 16.3447 54.818 14.5567 53.6435 13.1602C58.2403 14.0532 62.6036 15.8843 66.461 18.5392C66.4085 18.6217 66.3545 18.6997 66.305 18.7807ZM30.4385 16.7467C33.5685 15.0289 36.947 13.8093 40.4525 13.1317C37.8065 16.2667 35.612 21.2692 34.1225 27.5002H25.802L27.98 24.2332C29.4725 21.9937 30.29 19.4182 30.4385 16.7467ZM3.50001 15.9127V15.5002C3.50001 8.88368 8.88351 3.50018 15.5 3.50018C22.1165 3.50018 27.5 8.88368 27.5 15.5002V15.9127C27.502 18.2824 26.8004 20.5993 25.484 22.5697L16.583 35.9197C16.0985 36.6457 14.9 36.6457 14.4155 35.9197L5.51451 22.5697C4.19901 20.5989 3.49791 18.2821 3.50001 15.9127ZM12.539 48.5002H32.03C32.093 52.6492 32.4125 56.6692 32.9855 60.5002H15.254C13.6303 56.6974 12.7104 52.6315 12.539 48.5002ZM11 63.5002H35C35.3862 63.5175 35.7509 63.683 36.0181 63.9625C36.2853 64.2419 36.4344 64.6136 36.4344 65.0002C36.4344 65.3868 36.2853 65.7585 36.0181 66.0379C35.7509 66.3173 35.3862 66.4829 35 66.5002H11C10.6138 66.4829 10.2491 66.3173 9.98192 66.0379C9.71473 65.7585 9.56561 65.3868 9.56561 65.0002C9.56561 64.6136 9.71473 64.2419 9.98192 63.9625C10.2491 63.683 10.6138 63.5175 11 63.5002ZM12.5 69.5002H34.073L38.573 78.5002H17.927L14.927 72.5002H12.5V69.5002ZM33.08 90.5002H16.4765C9.32151 90.5002 3.50001 84.6787 3.50001 77.5237V75.5002H13.073L16.073 81.5002H45.4325C43.718 86.8207 38.699 90.5002 33.08 90.5002ZM53.546 80.8702C56.192 77.7352 58.388 72.7312 59.8775 66.5002H60.776C60.5984 66.9806 60.505 67.488 60.5 68.0002V78.7447C58.25 79.7047 55.928 80.4142 53.546 80.8702ZM90.5 89.0002C90.5 89.8282 89.8265 90.5002 89 90.5002H65C64.1735 90.5002 63.5 89.8282 63.5 89.0002V68.0002C63.5 67.1722 64.1735 66.5002 65 66.5002H89C89.8265 66.5002 90.5 67.1722 90.5 68.0002V89.0002Z" fill="black"/>
<path d="M39.5 51.5H42.5V54.5H39.5V51.5ZM45.5 51.5H48.5V54.5H45.5V51.5ZM51.5 51.5H54.5V54.5H51.5V51.5ZM51.5 39.5H54.5V42.5H51.5V39.5ZM45.5 39.5H48.5V42.5H45.5V39.5ZM39.5 39.5H42.5V42.5H39.5V39.5Z" fill="black"/>
</svg>
