<svg width="94" height="94" viewBox="0 0 94 94" fill="none" xmlns="http://www.w3.org/2000/svg">
<path d="M86 48.5V45.5H75.4235C75.0709 38.6279 72.2333 32.118 67.439 27.182L75.3185 19.3025L73.1975 17.1815L65.2475 25.1315C60.525 21.1865 54.6471 18.8852 48.5015 18.575V11H45.5015V18.5765C38.9957 18.9133 32.8044 21.4808 27.9695 25.847L15.866 13.7435L13.745 15.8645L25.8485 27.968C21.296 33.02 18.5 39.6815 18.5 47C18.5 51.29 19.481 55.3475 21.185 59H12.5V62H22.8125C25.0235 65.5597 27.9881 68.5914 31.4975 70.8815L22.5605 79.8185L24.6815 81.9395L34.1945 72.4265C38.1618 74.4441 42.5491 75.4972 47 75.5C50.147 75.5 53.1665 74.9675 56 74.021V86H59V72.815C61.8872 71.4709 64.5296 69.6539 66.818 67.439L76.1975 76.8185L78.3185 74.6975L68.8685 65.2475C72.8135 60.525 75.1148 54.6471 75.425 48.5015L86 48.5ZM47 72.5C32.939 72.5 21.5 61.061 21.5 47C21.5 32.939 32.939 21.5 47 21.5C61.061 21.5 72.5 32.939 72.5 47C72.5 61.061 61.061 72.5 47 72.5Z" fill="black"/>
<path d="M59.963 30.5H48.5C46.019 30.5 44 32.519 44 35C44 37.481 46.019 39.5 48.5 39.5H53C53.8265 39.5 54.5 40.1735 54.5 41C54.5 41.8265 53.8265 42.5 53 42.5H51.5C49.019 42.5 47 44.519 47 47C47 49.481 49.019 51.5 51.5 51.5H67.505C67.8215 50.0495 68 48.5465 68 47C68 40.2995 64.85 34.3445 59.963 30.5ZM44 54.5H39.5C38.6735 54.5 38 53.8265 38 53C38 52.1735 38.6735 51.5 39.5 51.5C41.981 51.5 44 49.481 44 47C44 44.519 41.981 42.5 39.5 42.5H26.495C26.1785 43.9505 26 45.4535 26 47C26 53.7005 29.15 59.6555 34.037 63.5H44C46.481 63.5 48.5 61.481 48.5 59C48.5 56.519 46.481 54.5 44 54.5Z" fill="#F57C00"/>
<path d="M47 69.5C34.5935 69.5 24.5 59.4065 24.5 47C24.5 34.5935 34.5935 24.5 47 24.5C59.4065 24.5 69.5 34.5935 69.5 47C69.5 59.4065 59.4065 69.5 47 69.5ZM47 27.5C36.248 27.5 27.5 36.248 27.5 47C27.5 57.752 36.248 66.5 47 66.5C57.752 66.5 66.5 57.752 66.5 47C66.5 36.248 57.752 27.5 47 27.5ZM80 27.5H83V30.5H80V27.5ZM80 33.5H83V36.5H80V33.5ZM83 30.5H86V33.5H83V30.5ZM77 30.5H80V33.5H77V30.5ZM12.5 24.5H15.5V27.5H12.5V24.5ZM12.5 30.5H15.5V33.5H12.5V30.5ZM15.5 27.5H18.5V30.5H15.5V27.5ZM9.5 27.5H12.5V30.5H9.5V27.5ZM3.5 36.5H6.5V39.5H3.5V36.5ZM3.5 42.5H6.5V45.5H3.5V42.5ZM6.5 39.5H9.5V42.5H6.5V39.5ZM0.5 39.5H3.5V42.5H0.5V39.5ZM87.5 59H90.5V62H87.5V59ZM87.5 65H90.5V68H87.5V65ZM90.5 62H93.5V65H90.5V62ZM84.5 62H87.5V65H84.5V62ZM39.5 78.5H42.5V81.5H39.5V78.5ZM39.5 84.5H42.5V87.5H39.5V84.5ZM42.5 81.5H45.5V84.5H42.5V81.5ZM36.5 81.5H39.5V84.5H36.5V81.5ZM60.5 3.5H63.5V6.5H60.5V3.5ZM60.5 9.5H63.5V12.5H60.5V9.5ZM63.5 6.5H66.5V9.5H63.5V6.5ZM57.5 6.5H60.5V9.5H57.5V6.5Z" fill="black"/>
<path d="M9.5 18.5C4.5365 18.5 0.5 14.4635 0.5 9.5C0.5 4.5365 4.5365 0.5 9.5 0.5C14.4635 0.5 18.5 4.5365 18.5 9.5C18.5 14.4635 14.4635 18.5 9.5 18.5ZM47 12.5C44.519 12.5 42.5 10.481 42.5 8C42.5 5.519 44.519 3.5 47 3.5C49.481 3.5 51.5 5.519 51.5 8C51.5 10.481 49.481 12.5 47 12.5ZM78.5 21.5C74.3645 21.5 71 18.1355 71 14C71 9.8645 74.3645 6.5 78.5 6.5C82.6355 6.5 86 9.8645 86 14C86 18.1355 82.6355 21.5 78.5 21.5ZM81.5 87.5C77.3645 87.5 74 84.1355 74 80C74 75.8645 77.3645 72.5 81.5 72.5C85.6355 72.5 89 75.8645 89 80C89 84.1355 85.6355 87.5 81.5 87.5ZM89 51.5C86.519 51.5 84.5 49.481 84.5 47C84.5 44.519 86.519 42.5 89 42.5C91.481 42.5 93.5 44.519 93.5 47C93.5 49.481 91.481 51.5 89 51.5ZM21.5 87.5C19.019 87.5 17 85.481 17 83C17 80.519 19.019 78.5 21.5 78.5C23.981 78.5 26 80.519 26 83C26 85.481 23.981 87.5 21.5 87.5ZM8 66.5C4.691 66.5 2 63.809 2 60.5C2 57.191 4.691 54.5 8 54.5C11.309 54.5 14 57.191 14 60.5C14 63.809 11.309 66.5 8 66.5ZM57.5 93.5C55.019 93.5 53 91.481 53 89C53 86.519 55.019 84.5 57.5 84.5C59.981 84.5 62 86.519 62 89C62 91.481 59.981 93.5 57.5 93.5Z" fill="#F57C00"/>
</svg>
