<svg width="96" height="96" viewBox="0 0 96 96" fill="none" xmlns="http://www.w3.org/2000/svg">
<path d="M74.3226 80.5161C74.3226 83.9319 77.1004 86.7097 80.5162 86.7097C83.9319 86.7097 86.7097 83.9319 86.7097 80.5161C86.707 79.6337 86.5145 78.7622 86.1453 77.9607C85.776 77.1592 85.2388 76.4465 84.5699 75.871H76.4625C75.7936 76.4465 75.2563 77.1592 74.8871 77.9607C74.5179 78.7622 74.3254 79.6337 74.3226 80.5161ZM60.3871 68.129C56.1182 68.129 52.6452 71.6021 52.6452 75.871H68.1291C68.1291 71.6021 64.656 68.129 60.3871 68.129ZM57.2904 89.8064C54.7293 89.8064 52.6452 87.7223 52.6452 85.1613C52.6452 82.6003 54.7293 80.5161 57.2904 80.5161C59.8514 80.5161 61.9355 82.6003 61.9355 85.1613C61.9355 87.7223 59.8514 89.8064 57.2904 89.8064ZM82.0646 30.9677C79.5035 30.9677 77.4194 28.8836 77.4194 26.3226C77.4194 23.7615 79.5035 21.6774 82.0646 21.6774C84.6256 21.6774 86.7097 23.7615 86.7097 26.3226C86.7097 28.8836 84.6256 30.9677 82.0646 30.9677ZM51.0968 30.9677C48.5358 30.9677 46.4517 28.8836 46.4517 26.3226C46.4517 23.7615 48.5358 21.6774 51.0968 21.6774C53.6579 21.6774 55.742 23.7615 55.742 26.3226C55.742 28.8836 53.6579 30.9677 51.0968 30.9677ZM68.1291 24.7742C61.2991 24.7742 55.742 19.217 55.742 12.3871C55.742 5.55716 61.2991 0 68.1291 0C74.959 0 80.5162 5.55716 80.5162 12.3871C80.5162 19.217 74.959 24.7742 68.1291 24.7742Z" fill="#F57C00"/>
<path d="M86.1523 62.2465L80.5161 59.43V46.4514C82.224 46.4514 83.6129 45.0625 83.6129 43.3546V37.1611C83.6129 35.4532 82.224 34.0643 80.5161 34.0643H58.8387C57.1308 34.0643 55.7419 35.4532 55.7419 37.1611V43.3546C55.7419 45.0625 57.1308 46.4514 58.8387 46.4514V59.43L53.2026 62.2465C50.2363 63.7176 47.7414 65.9903 46.0009 68.8069C44.2603 71.6236 43.3437 74.8715 43.3548 78.1825C43.3548 88.007 51.3476 95.9998 61.1721 95.9998H78.1827C88.0072 95.9998 96 88.007 96 78.1825C96 71.3913 92.225 65.2845 86.1523 62.2465ZM58.8387 37.1611H80.5161L80.5177 43.3546H58.8387V37.1611ZM54.5884 65.0166L61.9355 61.3438V46.4514H77.4193V61.3438L84.7664 65.0166C86.623 65.9391 88.262 67.246 89.5749 68.8504C90.8878 70.4548 91.8445 72.32 92.3814 74.3224H46.9719C47.5094 72.3201 48.4664 70.4549 49.7795 68.8505C51.0926 67.2461 52.7318 65.9393 54.5884 65.0166ZM78.1827 92.903H61.1721C53.0555 92.903 46.4516 86.2992 46.4516 78.1825C46.4516 77.9239 46.4919 77.6746 46.5043 77.4192H92.8506C92.863 77.6746 92.9032 77.9239 92.9032 78.1825C92.9032 86.2992 86.2994 92.903 78.1827 92.903ZM71.2258 12.3869H74.3226C74.3226 8.97117 71.5448 6.19336 68.129 6.19336V9.29013C69.8369 9.29013 71.2258 10.679 71.2258 12.3869ZM40.2581 83.6127H29.8436C31.1685 82.4543 32.2305 81.0261 32.9584 79.4239C33.6864 77.8216 34.0635 76.0823 34.0645 74.3224V58.8385C34.0645 52.0086 28.5074 46.4514 21.6774 46.4514C14.8475 46.4514 9.29032 52.0086 9.29032 58.8385V74.3224C9.29132 76.0823 9.66843 77.8216 10.3964 79.4239C11.1244 81.0261 12.1863 82.4543 13.5112 83.6127H3.09677C1.3889 83.6127 0 85.0016 0 86.7095V92.903C0 94.6109 1.3889 95.9998 3.09677 95.9998H40.2581C41.9659 95.9998 43.3548 94.6109 43.3548 92.903V86.7095C43.3548 85.0016 41.9659 83.6127 40.2581 83.6127ZM21.6774 49.5482C26.801 49.5482 30.9677 53.7149 30.9677 58.8385V65.0321H12.3871V58.8385C12.3871 53.7149 16.5538 49.5482 21.6774 49.5482ZM12.3871 74.3224V68.1288H30.9677V74.3224C30.9677 79.446 26.801 83.6127 21.6774 83.6127C16.5538 83.6127 12.3871 79.446 12.3871 74.3224ZM3.09677 92.903V86.7095H40.2581L40.2612 92.903H3.09677ZM37.1613 52.645H40.2581V55.7417H37.1613V52.645ZM43.3548 52.645H46.4516V55.7417H43.3548V52.645Z" fill="black"/>
<path d="M49.5484 52.6448H52.6452V55.7416H49.5484V52.6448ZM18.5807 24.7738C18.5807 26.4817 19.9696 27.8706 21.6774 27.8706H24.7742C26.4821 27.8706 27.871 26.4817 27.871 24.7738C29.5789 24.7738 30.9678 23.3849 30.9678 21.677V18.5803C30.9678 16.8724 29.5789 15.4835 27.871 15.4835C27.871 13.7756 26.4821 12.3867 24.7742 12.3867H21.6774C19.9696 12.3867 18.5807 13.7756 18.5807 15.4835C16.8728 15.4835 15.4839 16.8724 15.4839 18.5803V21.677C15.4839 23.3849 16.8728 24.7738 18.5807 24.7738ZM18.5807 18.5803H21.6774V15.4835H24.7742V18.5803H27.871V21.677H24.7742V24.7738H21.6774V21.677H18.5807V18.5803Z" fill="black"/>
<path d="M9.29023 34.0643H18.9212L19.8007 37.5823C20.194 39.1585 21.603 40.2579 23.2257 40.2579C24.8484 40.2579 26.2575 39.1585 26.6507 37.5823L27.5302 34.0643H37.1612C40.5769 34.0643 43.3547 31.2865 43.3547 27.8708V12.3869C43.3547 8.97117 40.5769 6.19336 37.1612 6.19336H9.29023C5.87449 6.19336 3.09668 8.97117 3.09668 12.3869V27.8708C3.09668 31.2865 5.87449 34.0643 9.29023 34.0643ZM6.19345 12.3869C6.19345 10.679 7.58236 9.29013 9.29023 9.29013H37.1612C38.8691 9.29013 40.258 10.679 40.258 12.3869V27.8708C40.258 29.5786 38.8691 30.9676 37.1612 30.9676H25.1147L23.6484 36.8313C23.5509 37.2199 22.9021 37.2199 22.8046 36.8313L21.3367 30.9676H9.29023C7.58236 30.9676 6.19345 29.5786 6.19345 27.8708V12.3869Z" fill="black"/>
</svg>
