<svg width="473" height="224" viewBox="0 0 473 224" fill="none" xmlns="http://www.w3.org/2000/svg">
<path d="M3.60281 6.21087C5.31644 6.21087 6.70562 4.82052 6.70562 3.10543C6.70562 1.39035 5.31644 0 3.60281 0C1.88917 0 0.5 1.39035 0.5 3.10543C0.5 4.82052 1.88917 6.21087 3.60281 6.21087Z" fill="#E2E3E7"/>
<path d="M34.6315 6.21087C36.3451 6.21087 37.7343 4.82052 37.7343 3.10543C37.7343 1.39035 36.3451 0 34.6315 0C32.9179 0 31.5287 1.39035 31.5287 3.10543C31.5287 4.82052 32.9179 6.21087 34.6315 6.21087Z" fill="#E2E3E7"/>
<path d="M65.6601 6.21087C67.3738 6.21087 68.7629 4.82052 68.7629 3.10543C68.7629 1.39035 67.3738 0 65.6601 0C63.9465 0 62.5573 1.39035 62.5573 3.10543C62.5573 4.82052 63.9465 6.21087 65.6601 6.21087Z" fill="#E2E3E7"/>
<path d="M96.6859 6.21087C98.3996 6.21087 99.7887 4.82052 99.7887 3.10543C99.7887 1.39035 98.3996 0 96.6859 0C94.9723 0 93.5831 1.39035 93.5831 3.10543C93.5831 4.82052 94.9723 6.21087 96.6859 6.21087Z" fill="#E2E3E7"/>
<path d="M3.60281 37.2653C5.31644 37.2653 6.70562 35.875 6.70562 34.1599C6.70562 32.4448 5.31644 31.0544 3.60281 31.0544C1.88917 31.0544 0.5 32.4448 0.5 34.1599C0.5 35.875 1.88917 37.2653 3.60281 37.2653Z" fill="#E2E3E7"/>
<path d="M34.6315 37.2653C36.3451 37.2653 37.7343 35.875 37.7343 34.1599C37.7343 32.4448 36.3451 31.0544 34.6315 31.0544C32.9179 31.0544 31.5287 32.4448 31.5287 34.1599C31.5287 35.875 32.9179 37.2653 34.6315 37.2653Z" fill="#E2E3E7"/>
<path d="M65.6601 37.2653C67.3738 37.2653 68.7629 35.875 68.7629 34.1599C68.7629 32.4448 67.3738 31.0544 65.6601 31.0544C63.9465 31.0544 62.5573 32.4448 62.5573 34.1599C62.5573 35.875 63.9465 37.2653 65.6601 37.2653Z" fill="#E2E3E7"/>
<path d="M96.6859 37.2653C98.3996 37.2653 99.7887 35.875 99.7887 34.1599C99.7887 32.4448 98.3996 31.0544 96.6859 31.0544C94.9723 31.0544 93.5831 32.4448 93.5831 34.1599C93.5831 35.875 94.9723 37.2653 96.6859 37.2653Z" fill="#E2E3E7"/>
<path d="M3.60281 68.3198C5.31644 68.3198 6.70562 66.9294 6.70562 65.2143C6.70562 63.4992 5.31644 62.1089 3.60281 62.1089C1.88917 62.1089 0.5 63.4992 0.5 65.2143C0.5 66.9294 1.88917 68.3198 3.60281 68.3198Z" fill="#E2E3E7"/>
<path d="M34.6315 68.3198C36.3451 68.3198 37.7343 66.9294 37.7343 65.2143C37.7343 63.4992 36.3451 62.1089 34.6315 62.1089C32.9179 62.1089 31.5287 63.4992 31.5287 65.2143C31.5287 66.9294 32.9179 68.3198 34.6315 68.3198Z" fill="#E2E3E7"/>
<path d="M65.6601 68.3198C67.3738 68.3198 68.7629 66.9294 68.7629 65.2143C68.7629 63.4992 67.3738 62.1089 65.6601 62.1089C63.9465 62.1089 62.5573 63.4992 62.5573 65.2143C62.5573 66.9294 63.9465 68.3198 65.6601 68.3198Z" fill="#E2E3E7"/>
<path d="M96.6859 68.3198C98.3996 68.3198 99.7887 66.9294 99.7887 65.2143C99.7887 63.4992 98.3996 62.1089 96.6859 62.1089C94.9723 62.1089 93.5831 63.4992 93.5831 65.2143C93.5831 66.9294 94.9723 68.3198 96.6859 68.3198Z" fill="#E2E3E7"/>
<path d="M3.60281 99.374C5.31644 99.374 6.70562 97.9836 6.70562 96.2685C6.70562 94.5534 5.31644 93.1631 3.60281 93.1631C1.88917 93.1631 0.5 94.5534 0.5 96.2685C0.5 97.9836 1.88917 99.374 3.60281 99.374Z" fill="#E2E3E7"/>
<path d="M34.6315 99.374C36.3451 99.374 37.7343 97.9836 37.7343 96.2685C37.7343 94.5534 36.3451 93.1631 34.6315 93.1631C32.9179 93.1631 31.5287 94.5534 31.5287 96.2685C31.5287 97.9836 32.9179 99.374 34.6315 99.374Z" fill="#E2E3E7"/>
<path d="M65.6601 99.374C67.3738 99.374 68.7629 97.9836 68.7629 96.2685C68.7629 94.5534 67.3738 93.1631 65.6601 93.1631C63.9465 93.1631 62.5573 94.5534 62.5573 96.2685C62.5573 97.9836 63.9465 99.374 65.6601 99.374Z" fill="#E2E3E7"/>
<path d="M96.6859 99.374C98.3996 99.374 99.7887 97.9836 99.7887 96.2685C99.7887 94.5534 98.3996 93.1631 96.6859 93.1631C94.9723 93.1631 93.5831 94.5534 93.5831 96.2685C93.5831 97.9836 94.9723 99.374 96.6859 99.374Z" fill="#E2E3E7"/>
<path d="M127.715 6.21087C129.428 6.21087 130.817 4.82052 130.817 3.10543C130.817 1.39035 129.428 0 127.715 0C126.001 0 124.612 1.39035 124.612 3.10543C124.612 4.82052 126.001 6.21087 127.715 6.21087Z" fill="#E2E3E7"/>
<path d="M158.743 6.21087C160.457 6.21087 161.846 4.82052 161.846 3.10543C161.846 1.39035 160.457 0 158.743 0C157.03 0 155.64 1.39035 155.64 3.10543C155.64 4.82052 157.03 6.21087 158.743 6.21087Z" fill="#E2E3E7"/>
<path d="M189.772 6.21087C191.486 6.21087 192.875 4.82052 192.875 3.10543C192.875 1.39035 191.486 0 189.772 0C188.058 0 186.669 1.39035 186.669 3.10543C186.669 4.82052 188.058 6.21087 189.772 6.21087Z" fill="#E2E3E7"/>
<path d="M220.801 6.21087C222.514 6.21087 223.903 4.82052 223.903 3.10543C223.903 1.39035 222.514 0 220.801 0C219.087 0 217.698 1.39035 217.698 3.10543C217.698 4.82052 219.087 6.21087 220.801 6.21087Z" fill="#E2E3E7"/>
<path d="M127.715 37.2653C129.428 37.2653 130.817 35.875 130.817 34.1599C130.817 32.4448 129.428 31.0544 127.715 31.0544C126.001 31.0544 124.612 32.4448 124.612 34.1599C124.612 35.875 126.001 37.2653 127.715 37.2653Z" fill="#E2E3E7"/>
<path d="M158.743 37.2653C160.457 37.2653 161.846 35.875 161.846 34.1599C161.846 32.4448 160.457 31.0544 158.743 31.0544C157.03 31.0544 155.64 32.4448 155.64 34.1599C155.64 35.875 157.03 37.2653 158.743 37.2653Z" fill="#E2E3E7"/>
<path d="M189.772 37.2653C191.486 37.2653 192.875 35.875 192.875 34.1599C192.875 32.4448 191.486 31.0544 189.772 31.0544C188.058 31.0544 186.669 32.4448 186.669 34.1599C186.669 35.875 188.058 37.2653 189.772 37.2653Z" fill="#E2E3E7"/>
<path d="M220.801 37.2653C222.514 37.2653 223.903 35.875 223.903 34.1599C223.903 32.4448 222.514 31.0544 220.801 31.0544C219.087 31.0544 217.698 32.4448 217.698 34.1599C217.698 35.875 219.087 37.2653 220.801 37.2653Z" fill="#E2E3E7"/>
<path d="M127.715 68.3198C129.428 68.3198 130.817 66.9294 130.817 65.2143C130.817 63.4992 129.428 62.1089 127.715 62.1089C126.001 62.1089 124.612 63.4992 124.612 65.2143C124.612 66.9294 126.001 68.3198 127.715 68.3198Z" fill="#E2E3E7"/>
<path d="M158.743 68.3198C160.457 68.3198 161.846 66.9294 161.846 65.2143C161.846 63.4992 160.457 62.1089 158.743 62.1089C157.03 62.1089 155.64 63.4992 155.64 65.2143C155.64 66.9294 157.03 68.3198 158.743 68.3198Z" fill="#E2E3E7"/>
<path d="M189.772 68.3198C191.486 68.3198 192.875 66.9294 192.875 65.2143C192.875 63.4992 191.486 62.1089 189.772 62.1089C188.058 62.1089 186.669 63.4992 186.669 65.2143C186.669 66.9294 188.058 68.3198 189.772 68.3198Z" fill="#E2E3E7"/>
<path d="M220.801 68.3198C222.514 68.3198 223.903 66.9294 223.903 65.2143C223.903 63.4992 222.514 62.1089 220.801 62.1089C219.087 62.1089 217.698 63.4992 217.698 65.2143C217.698 66.9294 219.087 68.3198 220.801 68.3198Z" fill="#E2E3E7"/>
<path d="M127.715 99.374C129.428 99.374 130.817 97.9836 130.817 96.2685C130.817 94.5534 129.428 93.1631 127.715 93.1631C126.001 93.1631 124.612 94.5534 124.612 96.2685C124.612 97.9836 126.001 99.374 127.715 99.374Z" fill="#E2E3E7"/>
<path d="M158.743 99.374C160.457 99.374 161.846 97.9836 161.846 96.2685C161.846 94.5534 160.457 93.1631 158.743 93.1631C157.03 93.1631 155.64 94.5534 155.64 96.2685C155.64 97.9836 157.03 99.374 158.743 99.374Z" fill="#E2E3E7"/>
<path d="M189.772 99.374C191.486 99.374 192.875 97.9836 192.875 96.2685C192.875 94.5534 191.486 93.1631 189.772 93.1631C188.058 93.1631 186.669 94.5534 186.669 96.2685C186.669 97.9836 188.058 99.374 189.772 99.374Z" fill="#E2E3E7"/>
<path d="M220.801 99.374C222.514 99.374 223.903 97.9836 223.903 96.2685C223.903 94.5534 222.514 93.1631 220.801 93.1631C219.087 93.1631 217.698 94.5534 217.698 96.2685C217.698 97.9836 219.087 99.374 220.801 99.374Z" fill="#E2E3E7"/>
<path d="M3.60281 130.428C5.31644 130.428 6.70562 129.038 6.70562 127.323C6.70562 125.608 5.31644 124.217 3.60281 124.217C1.88917 124.217 0.5 125.608 0.5 127.323C0.5 129.038 1.88917 130.428 3.60281 130.428Z" fill="#E2E3E7"/>
<path d="M34.6315 130.428C36.3451 130.428 37.7343 129.038 37.7343 127.323C37.7343 125.608 36.3451 124.218 34.6315 124.218C32.9179 124.218 31.5287 125.608 31.5287 127.323C31.5287 129.038 32.9179 130.428 34.6315 130.428Z" fill="#E2E3E7"/>
<path d="M65.6601 130.428C67.3738 130.428 68.7629 129.038 68.7629 127.323C68.7629 125.608 67.3738 124.217 65.6601 124.217C63.9465 124.217 62.5573 125.608 62.5573 127.323C62.5573 129.038 63.9465 130.428 65.6601 130.428Z" fill="#E2E3E7"/>
<path d="M96.6859 130.428C98.3996 130.428 99.7887 129.038 99.7887 127.323C99.7887 125.608 98.3996 124.217 96.6859 124.217C94.9723 124.217 93.5831 125.608 93.5831 127.323C93.5831 129.038 94.9723 130.428 96.6859 130.428Z" fill="#E2E3E7"/>
<path d="M3.60281 161.483C5.31644 161.483 6.70562 160.092 6.70562 158.377C6.70562 156.662 5.31644 155.272 3.60281 155.272C1.88917 155.272 0.5 156.662 0.5 158.377C0.5 160.092 1.88917 161.483 3.60281 161.483Z" fill="#E2E3E7"/>
<path d="M34.6315 161.483C36.3451 161.483 37.7343 160.092 37.7343 158.377C37.7343 156.662 36.3451 155.272 34.6315 155.272C32.9179 155.272 31.5287 156.662 31.5287 158.377C31.5287 160.092 32.9179 161.483 34.6315 161.483Z" fill="#E2E3E7"/>
<path d="M65.6601 161.483C67.3738 161.483 68.7629 160.092 68.7629 158.377C68.7629 156.662 67.3738 155.272 65.6601 155.272C63.9465 155.272 62.5573 156.662 62.5573 158.377C62.5573 160.092 63.9465 161.483 65.6601 161.483Z" fill="#E2E3E7"/>
<path d="M96.6859 161.483C98.3996 161.483 99.7887 160.092 99.7887 158.377C99.7887 156.662 98.3996 155.272 96.6859 155.272C94.9723 155.272 93.5831 156.662 93.5831 158.377C93.5831 160.092 94.9723 161.483 96.6859 161.483Z" fill="#E2E3E7"/>
<path d="M3.60281 192.537C5.31644 192.537 6.70562 191.147 6.70562 189.432C6.70562 187.717 5.31644 186.326 3.60281 186.326C1.88917 186.326 0.5 187.717 0.5 189.432C0.5 191.147 1.88917 192.537 3.60281 192.537Z" fill="#E2E3E7"/>
<path d="M34.6315 192.537C36.3451 192.537 37.7343 191.147 37.7343 189.432C37.7343 187.717 36.3451 186.326 34.6315 186.326C32.9179 186.326 31.5287 187.717 31.5287 189.432C31.5287 191.147 32.9179 192.537 34.6315 192.537Z" fill="#E2E3E7"/>
<path d="M65.6601 192.537C67.3738 192.537 68.7629 191.147 68.7629 189.432C68.7629 187.717 67.3738 186.326 65.6601 186.326C63.9465 186.326 62.5573 187.717 62.5573 189.432C62.5573 191.147 63.9465 192.537 65.6601 192.537Z" fill="#E2E3E7"/>
<path d="M96.6859 192.537C98.3996 192.537 99.7887 191.147 99.7887 189.432C99.7887 187.717 98.3996 186.326 96.6859 186.326C94.9723 186.326 93.5831 187.717 93.5831 189.432C93.5831 191.147 94.9723 192.537 96.6859 192.537Z" fill="#E2E3E7"/>
<path d="M3.60281 223.591C5.31644 223.591 6.70562 222.201 6.70562 220.486C6.70562 218.771 5.31644 217.38 3.60281 217.38C1.88917 217.38 0.5 218.771 0.5 220.486C0.5 222.201 1.88917 223.591 3.60281 223.591Z" fill="#E2E3E7"/>
<path d="M34.6315 223.591C36.3451 223.591 37.7343 222.201 37.7343 220.486C37.7343 218.771 36.3451 217.38 34.6315 217.38C32.9179 217.38 31.5287 218.771 31.5287 220.486C31.5287 222.201 32.9179 223.591 34.6315 223.591Z" fill="#E2E3E7"/>
<path d="M65.6601 223.591C67.3738 223.591 68.7629 222.201 68.7629 220.486C68.7629 218.771 67.3738 217.38 65.6601 217.38C63.9465 217.38 62.5573 218.771 62.5573 220.486C62.5573 222.201 63.9465 223.591 65.6601 223.591Z" fill="#E2E3E7"/>
<path d="M96.6859 223.591C98.3996 223.591 99.7887 222.201 99.7887 220.486C99.7887 218.771 98.3996 217.38 96.6859 217.38C94.9723 217.38 93.5831 218.771 93.5831 220.486C93.5831 222.201 94.9723 223.591 96.6859 223.591Z" fill="#E2E3E7"/>
<path d="M127.715 130.428C129.428 130.428 130.817 129.038 130.817 127.323C130.817 125.608 129.428 124.218 127.715 124.218C126.001 124.218 124.612 125.608 124.612 127.323C124.612 129.038 126.001 130.428 127.715 130.428Z" fill="#E2E3E7"/>
<path d="M158.743 130.428C160.457 130.428 161.846 129.038 161.846 127.323C161.846 125.608 160.457 124.217 158.743 124.217C157.03 124.217 155.64 125.608 155.64 127.323C155.64 129.038 157.03 130.428 158.743 130.428Z" fill="#E2E3E7"/>
<path d="M189.772 130.428C191.486 130.428 192.875 129.038 192.875 127.323C192.875 125.608 191.486 124.218 189.772 124.218C188.058 124.218 186.669 125.608 186.669 127.323C186.669 129.038 188.058 130.428 189.772 130.428Z" fill="#E2E3E7"/>
<path d="M220.801 130.428C222.514 130.428 223.903 129.038 223.903 127.323C223.903 125.608 222.514 124.217 220.801 124.217C219.087 124.217 217.698 125.608 217.698 127.323C217.698 129.038 219.087 130.428 220.801 130.428Z" fill="#E2E3E7"/>
<path d="M127.715 161.483C129.428 161.483 130.817 160.092 130.817 158.377C130.817 156.662 129.428 155.272 127.715 155.272C126.001 155.272 124.612 156.662 124.612 158.377C124.612 160.092 126.001 161.483 127.715 161.483Z" fill="#E2E3E7"/>
<path d="M158.743 161.483C160.457 161.483 161.846 160.092 161.846 158.377C161.846 156.662 160.457 155.272 158.743 155.272C157.03 155.272 155.64 156.662 155.64 158.377C155.64 160.092 157.03 161.483 158.743 161.483Z" fill="#E2E3E7"/>
<path d="M189.772 161.483C191.486 161.483 192.875 160.092 192.875 158.377C192.875 156.662 191.486 155.272 189.772 155.272C188.058 155.272 186.669 156.662 186.669 158.377C186.669 160.092 188.058 161.483 189.772 161.483Z" fill="#E2E3E7"/>
<path d="M220.801 161.483C222.514 161.483 223.903 160.092 223.903 158.377C223.903 156.662 222.514 155.272 220.801 155.272C219.087 155.272 217.698 156.662 217.698 158.377C217.698 160.092 219.087 161.483 220.801 161.483Z" fill="#E2E3E7"/>
<path d="M127.715 192.537C129.428 192.537 130.817 191.147 130.817 189.432C130.817 187.717 129.428 186.326 127.715 186.326C126.001 186.326 124.612 187.717 124.612 189.432C124.612 191.147 126.001 192.537 127.715 192.537Z" fill="#E2E3E7"/>
<path d="M158.743 192.537C160.457 192.537 161.846 191.147 161.846 189.432C161.846 187.717 160.457 186.326 158.743 186.326C157.03 186.326 155.64 187.717 155.64 189.432C155.64 191.147 157.03 192.537 158.743 192.537Z" fill="#E2E3E7"/>
<path d="M189.772 192.537C191.486 192.537 192.875 191.147 192.875 189.432C192.875 187.717 191.486 186.326 189.772 186.326C188.058 186.326 186.669 187.717 186.669 189.432C186.669 191.147 188.058 192.537 189.772 192.537Z" fill="#E2E3E7"/>
<path d="M220.801 192.537C222.514 192.537 223.903 191.147 223.903 189.432C223.903 187.717 222.514 186.326 220.801 186.326C219.087 186.326 217.698 187.717 217.698 189.432C217.698 191.147 219.087 192.537 220.801 192.537Z" fill="#E2E3E7"/>
<path d="M127.715 223.591C129.428 223.591 130.817 222.201 130.817 220.486C130.817 218.771 129.428 217.38 127.715 217.38C126.001 217.38 124.612 218.771 124.612 220.486C124.612 222.201 126.001 223.591 127.715 223.591Z" fill="#E2E3E7"/>
<path d="M158.743 223.591C160.457 223.591 161.846 222.201 161.846 220.486C161.846 218.771 160.457 217.38 158.743 217.38C157.03 217.38 155.64 218.771 155.64 220.486C155.64 222.201 157.03 223.591 158.743 223.591Z" fill="#E2E3E7"/>
<path d="M189.772 223.591C191.486 223.591 192.875 222.201 192.875 220.486C192.875 218.771 191.486 217.38 189.772 217.38C188.058 217.38 186.669 218.771 186.669 220.486C186.669 222.201 188.058 223.591 189.772 223.591Z" fill="#E2E3E7"/>
<path d="M220.801 223.591C222.514 223.591 223.903 222.201 223.903 220.486C223.903 218.771 222.514 217.38 220.801 217.38C219.087 217.38 217.698 218.771 217.698 220.486C217.698 222.201 219.087 223.591 220.801 223.591Z" fill="#E2E3E7"/>
<path d="M251.826 6.21087C253.54 6.21087 254.929 4.82052 254.929 3.10543C254.929 1.39035 253.54 0 251.826 0C250.113 0 248.724 1.39035 248.724 3.10543C248.724 4.82052 250.113 6.21087 251.826 6.21087Z" fill="#E2E3E7"/>
<path d="M282.855 6.21087C284.569 6.21087 285.958 4.82052 285.958 3.10543C285.958 1.39035 284.569 0 282.855 0C281.141 0 279.752 1.39035 279.752 3.10543C279.752 4.82052 281.141 6.21087 282.855 6.21087Z" fill="#E2E3E7"/>
<path d="M313.884 6.21087C315.597 6.21087 316.987 4.82052 316.987 3.10543C316.987 1.39035 315.597 0 313.884 0C312.17 0 310.781 1.39035 310.781 3.10543C310.781 4.82052 312.17 6.21087 313.884 6.21087Z" fill="#E2E3E7"/>
<path d="M344.912 6.21087C346.626 6.21087 348.015 4.82052 348.015 3.10543C348.015 1.39035 346.626 0 344.912 0C343.199 0 341.81 1.39035 341.81 3.10543C341.81 4.82052 343.199 6.21087 344.912 6.21087Z" fill="#E2E3E7"/>
<path d="M251.826 37.2653C253.54 37.2653 254.929 35.875 254.929 34.1599C254.929 32.4448 253.54 31.0544 251.826 31.0544C250.113 31.0544 248.724 32.4448 248.724 34.1599C248.724 35.875 250.113 37.2653 251.826 37.2653Z" fill="#E2E3E7"/>
<path d="M282.855 37.2653C284.569 37.2653 285.958 35.875 285.958 34.1599C285.958 32.4448 284.569 31.0544 282.855 31.0544C281.141 31.0544 279.752 32.4448 279.752 34.1599C279.752 35.875 281.141 37.2653 282.855 37.2653Z" fill="#E2E3E7"/>
<path d="M313.884 37.2653C315.597 37.2653 316.987 35.875 316.987 34.1599C316.987 32.4448 315.597 31.0544 313.884 31.0544C312.17 31.0544 310.781 32.4448 310.781 34.1599C310.781 35.875 312.17 37.2653 313.884 37.2653Z" fill="#E2E3E7"/>
<path d="M344.912 37.2653C346.626 37.2653 348.015 35.875 348.015 34.1599C348.015 32.4448 346.626 31.0544 344.912 31.0544C343.199 31.0544 341.81 32.4448 341.81 34.1599C341.81 35.875 343.199 37.2653 344.912 37.2653Z" fill="#E2E3E7"/>
<path d="M251.826 68.3198C253.54 68.3198 254.929 66.9294 254.929 65.2143C254.929 63.4992 253.54 62.1089 251.826 62.1089C250.113 62.1089 248.724 63.4992 248.724 65.2143C248.724 66.9294 250.113 68.3198 251.826 68.3198Z" fill="#E2E3E7"/>
<path d="M282.855 68.3198C284.569 68.3198 285.958 66.9294 285.958 65.2143C285.958 63.4992 284.569 62.1089 282.855 62.1089C281.141 62.1089 279.752 63.4992 279.752 65.2143C279.752 66.9294 281.141 68.3198 282.855 68.3198Z" fill="#E2E3E7"/>
<path d="M313.884 68.3198C315.597 68.3198 316.987 66.9294 316.987 65.2143C316.987 63.4992 315.597 62.1089 313.884 62.1089C312.17 62.1089 310.781 63.4992 310.781 65.2143C310.781 66.9294 312.17 68.3198 313.884 68.3198Z" fill="#E2E3E7"/>
<path d="M344.912 68.3198C346.626 68.3198 348.015 66.9294 348.015 65.2143C348.015 63.4992 346.626 62.1089 344.912 62.1089C343.199 62.1089 341.81 63.4992 341.81 65.2143C341.81 66.9294 343.199 68.3198 344.912 68.3198Z" fill="#E2E3E7"/>
<path d="M251.826 99.374C253.54 99.374 254.929 97.9836 254.929 96.2685C254.929 94.5534 253.54 93.1631 251.826 93.1631C250.113 93.1631 248.724 94.5534 248.724 96.2685C248.724 97.9836 250.113 99.374 251.826 99.374Z" fill="#E2E3E7"/>
<path d="M282.855 99.374C284.569 99.374 285.958 97.9836 285.958 96.2685C285.958 94.5534 284.569 93.1631 282.855 93.1631C281.141 93.1631 279.752 94.5534 279.752 96.2685C279.752 97.9836 281.141 99.374 282.855 99.374Z" fill="#E2E3E7"/>
<path d="M313.884 99.374C315.597 99.374 316.987 97.9836 316.987 96.2685C316.987 94.5534 315.597 93.1631 313.884 93.1631C312.17 93.1631 310.781 94.5534 310.781 96.2685C310.781 97.9836 312.17 99.374 313.884 99.374Z" fill="#E2E3E7"/>
<path d="M344.912 99.374C346.626 99.374 348.015 97.9836 348.015 96.2685C348.015 94.5534 346.626 93.1631 344.912 93.1631C343.199 93.1631 341.81 94.5534 341.81 96.2685C341.81 97.9836 343.199 99.374 344.912 99.374Z" fill="#E2E3E7"/>
<path d="M375.941 6.21087C377.655 6.21087 379.044 4.82052 379.044 3.10543C379.044 1.39035 377.655 0 375.941 0C374.227 0 372.838 1.39035 372.838 3.10543C372.838 4.82052 374.227 6.21087 375.941 6.21087Z" fill="#E2E3E7"/>
<path d="M406.967 6.21087C408.68 6.21087 410.07 4.82052 410.07 3.10543C410.07 1.39035 408.68 0 406.967 0C405.253 0 403.864 1.39035 403.864 3.10543C403.864 4.82052 405.253 6.21087 406.967 6.21087Z" fill="#E2E3E7"/>
<path d="M437.996 6.21087C439.709 6.21087 441.098 4.82052 441.098 3.10543C441.098 1.39035 439.709 0 437.996 0C436.282 0 434.893 1.39035 434.893 3.10543C434.893 4.82052 436.282 6.21087 437.996 6.21087Z" fill="#E2E3E7"/>
<path d="M469.024 6.21087C470.738 6.21087 472.127 4.82052 472.127 3.10543C472.127 1.39035 470.738 0 469.024 0C467.311 0 465.921 1.39035 465.921 3.10543C465.921 4.82052 467.311 6.21087 469.024 6.21087Z" fill="#E2E3E7"/>
<path d="M375.941 37.2653C377.655 37.2653 379.044 35.875 379.044 34.1599C379.044 32.4448 377.655 31.0544 375.941 31.0544C374.227 31.0544 372.838 32.4448 372.838 34.1599C372.838 35.875 374.227 37.2653 375.941 37.2653Z" fill="#E2E3E7"/>
<path d="M406.967 37.2653C408.68 37.2653 410.07 35.875 410.07 34.1599C410.07 32.4448 408.68 31.0544 406.967 31.0544C405.253 31.0544 403.864 32.4448 403.864 34.1599C403.864 35.875 405.253 37.2653 406.967 37.2653Z" fill="#E2E3E7"/>
<path d="M437.996 37.2653C439.709 37.2653 441.098 35.875 441.098 34.1599C441.098 32.4448 439.709 31.0544 437.996 31.0544C436.282 31.0544 434.893 32.4448 434.893 34.1599C434.893 35.875 436.282 37.2653 437.996 37.2653Z" fill="#E2E3E7"/>
<path d="M469.024 37.2653C470.738 37.2653 472.127 35.875 472.127 34.1599C472.127 32.4448 470.738 31.0544 469.024 31.0544C467.311 31.0544 465.921 32.4448 465.921 34.1599C465.921 35.875 467.311 37.2653 469.024 37.2653Z" fill="#E2E3E7"/>
<path d="M375.941 68.3198C377.655 68.3198 379.044 66.9294 379.044 65.2143C379.044 63.4992 377.655 62.1089 375.941 62.1089C374.227 62.1089 372.838 63.4992 372.838 65.2143C372.838 66.9294 374.227 68.3198 375.941 68.3198Z" fill="#E2E3E7"/>
<path d="M406.967 68.3198C408.68 68.3198 410.07 66.9294 410.07 65.2143C410.07 63.4992 408.68 62.1089 406.967 62.1089C405.253 62.1089 403.864 63.4992 403.864 65.2143C403.864 66.9294 405.253 68.3198 406.967 68.3198Z" fill="#E2E3E7"/>
<path d="M437.996 68.3198C439.709 68.3198 441.098 66.9294 441.098 65.2143C441.098 63.4992 439.709 62.1089 437.996 62.1089C436.282 62.1089 434.893 63.4992 434.893 65.2143C434.893 66.9294 436.282 68.3198 437.996 68.3198Z" fill="#E2E3E7"/>
<path d="M469.024 68.3198C470.738 68.3198 472.127 66.9294 472.127 65.2143C472.127 63.4992 470.738 62.1089 469.024 62.1089C467.311 62.1089 465.921 63.4992 465.921 65.2143C465.921 66.9294 467.311 68.3198 469.024 68.3198Z" fill="#E2E3E7"/>
<path d="M375.941 99.374C377.655 99.374 379.044 97.9836 379.044 96.2685C379.044 94.5534 377.655 93.1631 375.941 93.1631C374.227 93.1631 372.838 94.5534 372.838 96.2685C372.838 97.9836 374.227 99.374 375.941 99.374Z" fill="#E2E3E7"/>
<path d="M406.967 99.374C408.68 99.374 410.07 97.9836 410.07 96.2685C410.07 94.5534 408.68 93.1631 406.967 93.1631C405.253 93.1631 403.864 94.5534 403.864 96.2685C403.864 97.9836 405.253 99.374 406.967 99.374Z" fill="#E2E3E7"/>
<path d="M437.996 99.374C439.709 99.374 441.098 97.9836 441.098 96.2685C441.098 94.5534 439.709 93.1631 437.996 93.1631C436.282 93.1631 434.893 94.5534 434.893 96.2685C434.893 97.9836 436.282 99.374 437.996 99.374Z" fill="#E2E3E7"/>
<path d="M469.024 99.374C470.738 99.374 472.127 97.9836 472.127 96.2685C472.127 94.5534 470.738 93.1631 469.024 93.1631C467.311 93.1631 465.921 94.5534 465.921 96.2685C465.921 97.9836 467.311 99.374 469.024 99.374Z" fill="#E2E3E7"/>
<path d="M251.826 130.428C253.54 130.428 254.929 129.038 254.929 127.323C254.929 125.608 253.54 124.217 251.826 124.217C250.113 124.217 248.724 125.608 248.724 127.323C248.724 129.038 250.113 130.428 251.826 130.428Z" fill="#E2E3E7"/>
<path d="M282.855 130.428C284.569 130.428 285.958 129.038 285.958 127.323C285.958 125.608 284.569 124.218 282.855 124.218C281.141 124.218 279.752 125.608 279.752 127.323C279.752 129.038 281.141 130.428 282.855 130.428Z" fill="#E2E3E7"/>
<path d="M313.884 130.428C315.597 130.428 316.987 129.038 316.987 127.323C316.987 125.608 315.597 124.217 313.884 124.217C312.17 124.217 310.781 125.608 310.781 127.323C310.781 129.038 312.17 130.428 313.884 130.428Z" fill="#E2E3E7"/>
<path d="M344.912 130.428C346.626 130.428 348.015 129.038 348.015 127.323C348.015 125.608 346.626 124.218 344.912 124.218C343.199 124.218 341.81 125.608 341.81 127.323C341.81 129.038 343.199 130.428 344.912 130.428Z" fill="#E2E3E7"/>
<path d="M251.826 161.483C253.54 161.483 254.929 160.092 254.929 158.377C254.929 156.662 253.54 155.272 251.826 155.272C250.113 155.272 248.724 156.662 248.724 158.377C248.724 160.092 250.113 161.483 251.826 161.483Z" fill="#E2E3E7"/>
<path d="M282.855 161.483C284.569 161.483 285.958 160.092 285.958 158.377C285.958 156.662 284.569 155.272 282.855 155.272C281.141 155.272 279.752 156.662 279.752 158.377C279.752 160.092 281.141 161.483 282.855 161.483Z" fill="#E2E3E7"/>
<path d="M313.884 161.483C315.597 161.483 316.987 160.092 316.987 158.377C316.987 156.662 315.597 155.272 313.884 155.272C312.17 155.272 310.781 156.662 310.781 158.377C310.781 160.092 312.17 161.483 313.884 161.483Z" fill="#E2E3E7"/>
<path d="M344.912 161.483C346.626 161.483 348.015 160.092 348.015 158.377C348.015 156.662 346.626 155.272 344.912 155.272C343.199 155.272 341.81 156.662 341.81 158.377C341.81 160.092 343.199 161.483 344.912 161.483Z" fill="#E2E3E7"/>
<path d="M251.826 192.537C253.54 192.537 254.929 191.147 254.929 189.432C254.929 187.717 253.54 186.326 251.826 186.326C250.113 186.326 248.724 187.717 248.724 189.432C248.724 191.147 250.113 192.537 251.826 192.537Z" fill="#E2E3E7"/>
<path d="M282.855 192.537C284.569 192.537 285.958 191.147 285.958 189.432C285.958 187.717 284.569 186.326 282.855 186.326C281.141 186.326 279.752 187.717 279.752 189.432C279.752 191.147 281.141 192.537 282.855 192.537Z" fill="#E2E3E7"/>
<path d="M313.884 192.537C315.597 192.537 316.987 191.147 316.987 189.432C316.987 187.717 315.597 186.326 313.884 186.326C312.17 186.326 310.781 187.717 310.781 189.432C310.781 191.147 312.17 192.537 313.884 192.537Z" fill="#E2E3E7"/>
<path d="M344.912 192.537C346.626 192.537 348.015 191.147 348.015 189.432C348.015 187.717 346.626 186.326 344.912 186.326C343.199 186.326 341.81 187.717 341.81 189.432C341.81 191.147 343.199 192.537 344.912 192.537Z" fill="#E2E3E7"/>
<path d="M251.826 223.591C253.54 223.591 254.929 222.201 254.929 220.486C254.929 218.771 253.54 217.38 251.826 217.38C250.113 217.38 248.724 218.771 248.724 220.486C248.724 222.201 250.113 223.591 251.826 223.591Z" fill="#E2E3E7"/>
<path d="M283.938 223.017C285.652 223.017 287.041 221.626 287.041 219.911C287.041 218.196 285.652 216.806 283.938 216.806C282.225 216.806 280.836 218.196 280.836 219.911C280.836 221.626 282.225 223.017 283.938 223.017Z" fill="#E2E3E7"/>
<path d="M314.746 223.017C316.46 223.017 317.849 221.626 317.849 219.911C317.849 218.196 316.46 216.806 314.746 216.806C313.033 216.806 311.644 218.196 311.644 219.911C311.644 221.626 313.033 223.017 314.746 223.017Z" fill="#E2E3E7"/>
<path d="M344.912 223.591C346.626 223.591 348.015 222.201 348.015 220.486C348.015 218.771 346.626 217.38 344.912 217.38C343.199 217.38 341.81 218.771 341.81 220.486C341.81 222.201 343.199 223.591 344.912 223.591Z" fill="#E2E3E7"/>
<path d="M375.941 130.428C377.655 130.428 379.044 129.038 379.044 127.323C379.044 125.608 377.655 124.217 375.941 124.217C374.227 124.217 372.838 125.608 372.838 127.323C372.838 129.038 374.227 130.428 375.941 130.428Z" fill="#E2E3E7"/>
<path d="M406.967 130.428C408.68 130.428 410.07 129.038 410.07 127.323C410.07 125.608 408.68 124.217 406.967 124.217C405.253 124.217 403.864 125.608 403.864 127.323C403.864 129.038 405.253 130.428 406.967 130.428Z" fill="#E2E3E7"/>
<path d="M437.996 130.428C439.709 130.428 441.098 129.038 441.098 127.323C441.098 125.608 439.709 124.218 437.996 124.218C436.282 124.218 434.893 125.608 434.893 127.323C434.893 129.038 436.282 130.428 437.996 130.428Z" fill="#E2E3E7"/>
<path d="M469.024 130.428C470.738 130.428 472.127 129.038 472.127 127.323C472.127 125.608 470.738 124.217 469.024 124.217C467.311 124.217 465.921 125.608 465.921 127.323C465.921 129.038 467.311 130.428 469.024 130.428Z" fill="#E2E3E7"/>
<path d="M375.941 161.483C377.655 161.483 379.044 160.092 379.044 158.377C379.044 156.662 377.655 155.272 375.941 155.272C374.227 155.272 372.838 156.662 372.838 158.377C372.838 160.092 374.227 161.483 375.941 161.483Z" fill="#E2E3E7"/>
<path d="M406.967 161.483C408.68 161.483 410.07 160.092 410.07 158.377C410.07 156.662 408.68 155.272 406.967 155.272C405.253 155.272 403.864 156.662 403.864 158.377C403.864 160.092 405.253 161.483 406.967 161.483Z" fill="#E2E3E7"/>
<path d="M437.996 161.483C439.709 161.483 441.098 160.092 441.098 158.377C441.098 156.662 439.709 155.272 437.996 155.272C436.282 155.272 434.893 156.662 434.893 158.377C434.893 160.092 436.282 161.483 437.996 161.483Z" fill="#E2E3E7"/>
<path d="M469.024 161.483C470.738 161.483 472.127 160.092 472.127 158.377C472.127 156.662 470.738 155.272 469.024 155.272C467.311 155.272 465.921 156.662 465.921 158.377C465.921 160.092 467.311 161.483 469.024 161.483Z" fill="#E2E3E7"/>
<path d="M375.941 192.537C377.655 192.537 379.044 191.147 379.044 189.432C379.044 187.717 377.655 186.326 375.941 186.326C374.227 186.326 372.838 187.717 372.838 189.432C372.838 191.147 374.227 192.537 375.941 192.537Z" fill="#E2E3E7"/>
<path d="M406.967 192.537C408.68 192.537 410.07 191.147 410.07 189.432C410.07 187.717 408.68 186.326 406.967 186.326C405.253 186.326 403.864 187.717 403.864 189.432C403.864 191.147 405.253 192.537 406.967 192.537Z" fill="#E2E3E7"/>
<path d="M437.996 192.537C439.709 192.537 441.098 191.147 441.098 189.432C441.098 187.717 439.709 186.326 437.996 186.326C436.282 186.326 434.893 187.717 434.893 189.432C434.893 191.147 436.282 192.537 437.996 192.537Z" fill="#E2E3E7"/>
<path d="M469.024 192.537C470.738 192.537 472.127 191.147 472.127 189.432C472.127 187.717 470.738 186.326 469.024 186.326C467.311 186.326 465.921 187.717 465.921 189.432C465.921 191.147 467.311 192.537 469.024 192.537Z" fill="#E2E3E7"/>
<path d="M375.941 223.591C377.655 223.591 379.044 222.201 379.044 220.486C379.044 218.771 377.655 217.38 375.941 217.38C374.227 217.38 372.838 218.771 372.838 220.486C372.838 222.201 374.227 223.591 375.941 223.591Z" fill="#E2E3E7"/>
<path d="M406.967 223.591C408.68 223.591 410.07 222.201 410.07 220.486C410.07 218.771 408.68 217.38 406.967 217.38C405.253 217.38 403.864 218.771 403.864 220.486C403.864 222.201 405.253 223.591 406.967 223.591Z" fill="#E2E3E7"/>
<path d="M437.996 223.591C439.709 223.591 441.098 222.201 441.098 220.486C441.098 218.771 439.709 217.38 437.996 217.38C436.282 217.38 434.893 218.771 434.893 220.486C434.893 222.201 436.282 223.591 437.996 223.591Z" fill="#E2E3E7"/>
<path d="M469.024 223.591C470.738 223.591 472.127 222.201 472.127 220.486C472.127 218.771 470.738 217.38 469.024 217.38C467.311 217.38 465.921 218.771 465.921 220.486C465.921 222.201 467.311 223.591 469.024 223.591Z" fill="#E2E3E7"/>
</svg>
