<svg xmlns="http://www.w3.org/2000/svg" width="32" height="32" viewBox="0 0 32 32" fill="none">
  <path d="M22.4235 2.3999H4.77724C3.48078 2.3999 2.40039 3.48377 2.40039 4.78442V22.4154C2.40039 23.716 3.48078 24.7999 4.77724 24.7999H11.7637C11.6917 24.5831 11.6197 24.2941 11.5477 24.0773C11.2596 23.138 11.1155 22.1986 11.1155 21.187C11.1155 15.6231 15.6531 11.0709 21.1991 11.0709C22.2075 11.0709 23.1438 11.2154 24.0801 11.5044C24.2962 11.5767 24.5843 11.6489 24.8004 11.7212V4.78442C24.8004 3.48377 23.72 2.3999 22.4235 2.3999ZM18.03 6.8799C17.8139 7.09668 17.5258 7.24119 17.1657 7.24119H9.96309C9.31486 7.24119 8.81068 6.66313 8.81068 6.01281C8.81068 5.65152 8.95473 5.36248 9.17081 5.14571C9.38689 4.92893 9.67499 4.78442 10.0351 4.78442H17.2377C17.8859 4.78442 18.4621 5.29022 18.4621 6.01281C18.3901 6.3741 18.246 6.66313 18.03 6.8799Z" fill="white"/>
  <path d="M30.0644 27.7321L27.3856 25.1796C28.3656 23.9967 28.8883 22.4403 28.8883 20.8216C28.8883 17.9578 27.1242 15.4053 24.5108 14.2847C24.1841 14.0979 23.7921 13.9734 23.4001 13.9111C22.6814 13.7244 21.9627 13.5999 21.244 13.5999C17.0624 13.5999 13.5996 16.8372 13.5996 20.8839C13.5996 21.631 13.7303 22.3158 13.9263 22.9384C14.057 23.3119 14.1876 23.6232 14.3183 23.9967C15.5597 26.4248 18.1731 28.1679 21.1786 28.1679C22.8774 28.1679 24.4454 27.6076 25.7522 26.736L28.4309 29.2886C28.627 29.4753 28.9536 29.5999 29.215 29.5999C29.4763 29.5999 29.803 29.4753 29.999 29.2886C30.5217 28.7905 30.5217 28.1057 30.0644 27.7321ZM21.3093 25.989C19.5452 25.989 17.9771 25.1796 16.9318 23.9345C16.6704 23.6232 16.4744 23.2497 16.2784 22.8761C16.0171 22.2535 15.821 21.5687 15.821 20.8216C15.821 17.9578 18.2385 15.6543 21.244 15.6543C22.028 15.6543 22.7467 15.7788 23.4001 16.0901C23.7921 16.2769 24.1841 16.4637 24.5108 16.7127C25.8175 17.6465 26.6669 19.1407 26.6669 20.8839C26.6669 21.9423 26.3402 22.9384 25.7522 23.7477C25.5562 24.059 25.2948 24.308 25.0335 24.5571C24.7721 24.8061 24.5108 25.0551 24.1841 25.2419C23.4654 25.6777 22.42 25.989 21.3093 25.989Z" fill="white"/>
</svg>