<svg xmlns="http://www.w3.org/2000/svg" width="33" height="32" viewBox="0 0 33 32" fill="none">
  <path d="M12.5339 24.7259C12.4616 22.0392 11.0103 20.3175 8.7781 20.2333C7.54934 20.1867 6.50869 20.6137 5.66901 21.5156C4.83454 22.4109 4.58663 23.5065 4.62522 24.6831C2.91699 24.9714 1.34993 23.7009 1.31307 22.0034C1.28978 20.9381 1.30681 19.8717 1.30647 18.8057C1.30612 15.4087 1.30577 12.0117 1.30647 8.61471C1.30751 6.7827 2.48585 5.60123 4.31369 5.60088C9.05939 5.59984 13.8051 5.59984 18.5508 5.60088C20.3824 5.60123 21.5629 6.77957 21.5632 8.60914C21.5643 13.7164 21.5639 18.8238 21.5636 23.9307C21.5636 24.5548 21.3946 24.7252 20.7757 24.7252C18.1509 24.7255 15.5262 24.7255 12.9014 24.7255C12.7856 24.7259 12.6702 24.7259 12.5339 24.7259ZM11.9981 15.7258C13.7915 15.7258 15.5849 15.7258 17.3784 15.7254C17.4837 15.7254 17.5918 15.7359 17.6941 15.7164C17.9962 15.659 18.1801 15.4734 18.1798 15.1622C18.1794 14.8517 17.9962 14.665 17.6934 14.6093C17.5911 14.5906 17.483 14.601 17.3777 14.601C13.7908 14.6006 10.2037 14.6006 6.61682 14.601C6.51147 14.601 6.40334 14.5906 6.30112 14.6097C5.99827 14.666 5.81539 14.852 5.81573 15.1632C5.81608 15.4744 6.00001 15.6597 6.30216 15.7164C6.40438 15.7355 6.51252 15.7251 6.61787 15.7251C8.41093 15.7258 10.2043 15.7258 11.9981 15.7258ZM14.2408 11.2249C15.3544 11.2249 16.4677 11.2294 17.5814 11.2224C17.942 11.2203 18.1801 10.9877 18.1847 10.6703C18.1892 10.3511 17.9534 10.1049 17.5967 10.1042C15.3697 10.0983 13.1424 10.1011 10.9154 10.1011C10.623 10.1011 10.4192 10.2374 10.333 10.5166C10.2165 10.8939 10.51 11.2217 10.9703 11.2235C12.0604 11.2287 13.1504 11.2256 14.2408 11.2249Z" fill="#F0F5FF"/>
  <path d="M26.101 12.0002C24.9324 11.9498 23.9105 12 22.7109 12C22.7109 16.1404 22.7113 18.3556 22.7109 22.4463C23.002 22.5485 23.1205 22.4021 23.2446 22.1838C24.0301 20.8013 25.6524 20.0079 27.1639 20.2492C28.8523 20.519 30.1402 21.7085 30.4781 23.32C30.5317 23.5752 30.5546 23.8367 30.5977 24.1361C31.3147 23.544 31.678 22.8239 31.687 21.9453C31.7017 20.5041 31.7103 19.0625 31.685 17.6217C31.6655 16.5233 31.1273 15.7118 30.1707 15.178C29.9868 15.0755 29.7782 15.0118 29.6096 14.8905C29.2406 14.6433 29.067 14.4337 28.901 14.0001C28.5814 12.9066 27.2282 12.0489 26.101 12.0002Z" fill="#F0F5FF"/>
  <path d="M8.64886 21.3515C10.202 21.3668 11.4457 22.639 11.4342 24.2001C11.4228 25.7456 10.1373 26.9928 8.57584 26.9737C7.02825 26.9546 5.78697 25.6695 5.80888 24.1087C5.83044 22.5771 7.10857 21.3362 8.64886 21.3515Z" fill="#F0F5FF"/>
  <path d="M26.6256 26.9743C25.0696 26.9715 23.8103 25.7076 23.8145 24.1527C23.8183 22.6149 25.0766 21.3541 26.6106 21.3513C28.1843 21.3482 29.4478 22.6169 29.4402 24.1913C29.4325 25.7222 28.1638 26.977 26.6256 26.9743Z" fill="#F0F5FF"/>
</svg>