<svg xmlns="http://www.w3.org/2000/svg" width="32" height="32" viewBox="0 0 32 32" fill="none">
  <path d="M30.16 12.56C29.28 5.52 23.28 0 16 0C8.72 0 2.72 5.52 1.84 12.56C0.8 12.88 0 13.92 0 15.12V18.64C0 20.08 1.2 21.28 2.64 21.28C4.08 21.28 5.28 20.08 5.28 18.64V15.12C5.28 14 4.56 13.04 3.6 12.64C4.48 6.56 9.68 1.76 16 1.76C22.32 1.76 27.52 6.48 28.32 12.64C27.36 13.04 26.64 14 26.64 15.12V18.64C26.64 19.52 27.04 20.32 27.76 20.8C26.4 24.64 23.2 27.6 19.2 28.56C18.8 27.92 18.08 27.52 17.36 27.52H14.72C13.52 27.52 12.48 28.48 12.48 29.76C12.48 31.04 13.44 32 14.72 32H17.36C18.4 32 19.28 31.28 19.52 30.32C24.24 29.28 28 25.84 29.52 21.36C30.96 21.28 32 20.16 32 18.72V15.2C32 13.92 31.2 12.88 30.16 12.56Z" fill="white"/>
  <path d="M16.0011 24C20.4011 24 24.0011 20.4 24.0011 16C24.0011 11.6 20.4011 8 16.0011 8C11.6011 8 8.00109 11.6 8.00109 16C8.00109 17.52 9.04109 19.68 9.60109 20.64L7.12109 24H8.88109C9.76109 24 11.1211 24 12.4811 24C13.7611 24 15.1211 24 16.0011 24ZM10.6411 22.24L11.7611 20.72L11.4411 20.24C10.9611 19.52 9.84109 17.28 9.84109 16C9.84109 12.56 12.6411 9.76 16.0811 9.76C19.5211 9.76 22.3211 12.56 22.3211 16C22.3211 19.44 19.5211 22.24 16.0811 22.24C15.2011 22.24 13.8411 22.24 12.5611 22.24C11.8411 22.24 11.2011 22.24 10.6411 22.24Z" fill="white"/>
  <path d="M10.6411 22.24L11.7611 20.72L11.4411 20.24C10.9611 19.52 9.84109 17.28 9.84109 16C9.84109 12.56 12.6411 9.76 16.0811 9.76C19.5211 9.76 22.3211 12.56 22.3211 16C22.3211 19.44 19.5211 22.24 16.0811 22.24H12.5611H10.6411Z" fill="white"/>
  <path d="M12.4796 16.8799C12.9656 16.8799 13.3596 16.4859 13.3596 15.9999C13.3596 15.5139 12.9656 15.1199 12.4796 15.1199C11.9936 15.1199 11.5996 15.5139 11.5996 15.9999C11.5996 16.4859 11.9936 16.8799 12.4796 16.8799Z" fill="#152037"/>
  <path d="M16.0011 16.8799C16.4871 16.8799 16.8811 16.4859 16.8811 15.9999C16.8811 15.5139 16.4871 15.1199 16.0011 15.1199C15.5151 15.1199 15.1211 15.5139 15.1211 15.9999C15.1211 16.4859 15.5151 16.8799 16.0011 16.8799Z" fill="#152037"/>
  <path d="M19.5206 16.8799C20.0066 16.8799 20.4006 16.4859 20.4006 15.9999C20.4006 15.5139 20.0066 15.1199 19.5206 15.1199C19.0346 15.1199 18.6406 15.5139 18.6406 15.9999C18.6406 16.4859 19.0346 16.8799 19.5206 16.8799Z" fill="#152037"/>
</svg>