<svg xmlns="http://www.w3.org/2000/svg" width="40" height="40" viewBox="0 0 40 40" fill="none">
    <path
        d="M39.0334 3.43378C39.0334 14.841 39.0334 26.2488 39.0334 37.656C39.0184 37.674 38.9974 37.69 38.9894 37.7104C38.6728 38.5579 38.0072 38.9948 37.2466 38.8525C36.4496 38.7032 35.9757 38.0745 35.9732 37.1571C35.9712 36.3337 35.9727 35.5107 35.9727 34.6872C35.9727 34.5624 35.9727 34.437 35.9727 34.3107C25.7685 34.3107 15.6201 34.3107 5.43737 34.3107C5.43737 34.4575 5.43737 34.5863 5.43737 34.7147C5.43687 35.5856 5.44985 36.457 5.43187 37.3274C5.41589 38.1044 4.931 38.6822 4.20541 38.842C3.54823 38.9868 2.81315 38.6463 2.54398 38.015C2.42713 37.7404 2.38318 37.4153 2.38268 37.1132C2.37569 26.1129 2.38268 15.1122 2.3667 4.11143C2.36521 3.16911 2.6868 2.52641 3.59417 2.2168C3.8089 2.2168 4.02363 2.2168 4.23836 2.2168C5.15422 2.54938 5.45684 3.22154 5.44835 4.16686C5.42039 7.44726 5.43737 10.7277 5.43836 14.0081C5.43836 14.1449 5.45185 14.2817 5.45884 14.418C15.6471 14.418 25.7929 14.418 35.9727 14.418C35.9727 14.2538 35.9727 14.1124 35.9727 13.9716C35.9727 10.7032 35.9897 7.43428 35.9617 4.16636C35.9537 3.22154 36.2543 2.54788 37.1722 2.2168C37.3869 2.2168 37.6017 2.2168 37.8164 2.2168C38.4296 2.41505 38.8341 2.82204 39.0334 3.43378ZM5.45584 31.2081C15.6456 31.2081 25.7914 31.2081 35.9407 31.2081C35.9407 26.6268 35.9407 22.0685 35.9407 17.5082C25.763 17.5082 15.6176 17.5082 5.45584 17.5082C5.45584 22.0835 5.45584 26.6348 5.45584 31.2081Z"
        fill="url(#paint0_linear_922_8628)" />
    <path
        d="M14.9776 5.29581C14.9776 5.69332 14.9706 6.05037 14.9791 6.40692C14.9941 7.05212 15.4865 7.55349 16.1057 7.56498C16.7364 7.57646 17.2503 7.0676 17.2662 6.40543C17.2747 6.04887 17.2677 5.69232 17.2677 5.3048C17.3871 5.29481 17.4885 5.27883 17.5898 5.27883C18.8308 5.27734 20.0717 5.27534 21.3127 5.27883C21.9634 5.28083 22.224 5.54051 22.225 6.19069C22.228 8.12378 22.228 10.0564 22.225 11.9894C22.224 12.6386 21.9619 12.9008 21.3122 12.9013C17.852 12.9033 14.3918 12.9033 10.9317 12.9013C10.2825 12.9008 10.0218 12.6386 10.0208 11.9874C10.0178 10.0544 10.0178 8.12178 10.0208 6.1887C10.0218 5.53851 10.2815 5.28033 10.9347 5.27883C12.1756 5.27534 13.4166 5.27734 14.6575 5.27833C14.7504 5.27833 14.8433 5.28782 14.9776 5.29581Z"
        fill="url(#paint1_linear_922_8628)" />
    <path
        d="M24.9117 20.5674C24.9117 20.9365 24.9062 21.291 24.9127 21.6456C24.9262 22.3277 25.4001 22.8266 26.0348 22.8346C26.6705 22.8426 27.1674 22.3567 27.1973 21.6775C27.2133 21.312 27.2003 20.9454 27.2003 20.5444C28.0483 20.5444 28.8563 20.5444 29.6643 20.5444C29.9384 20.5444 30.2131 20.5429 30.4872 20.5449C31.1105 20.5494 31.3871 20.8166 31.3891 21.4363C31.3936 23.0223 31.3906 24.6084 31.3906 26.1944C31.3906 27.0648 31.3941 27.9357 31.3891 28.8061C31.3856 29.4293 31.1115 29.7075 30.4972 29.7075C27.5279 29.7095 24.5581 29.7095 21.5889 29.7075C21.0011 29.707 20.707 29.4139 20.7065 28.8281C20.704 26.3597 20.704 23.8908 20.7065 21.4223C20.707 20.8496 20.9971 20.5494 21.5554 20.5464C22.5931 20.5409 23.6303 20.5444 24.668 20.5459C24.7364 20.5459 24.8053 20.5574 24.9117 20.5674Z"
        fill="url(#paint2_linear_922_8628)" />
    <path
        d="M11.9192 22.066C11.9192 22.4825 11.9032 22.861 11.9227 23.2376C11.9532 23.8258 12.3677 24.2802 12.903 24.3442C13.4653 24.4116 13.9697 24.1155 14.1395 23.5926C14.1934 23.4268 14.1989 23.242 14.2044 23.0653C14.2144 22.7472 14.2074 22.4281 14.2074 22.0835C15.1647 22.0835 16.0795 22.059 16.9919 22.0945C17.4179 22.111 17.6396 22.4435 17.6421 22.9304C17.6471 24.075 17.6441 25.2201 17.6441 26.3646C17.6441 27.1876 17.6486 28.0101 17.6421 28.8331C17.6376 29.4298 17.3574 29.7065 16.7592 29.707C14.3027 29.7095 11.8463 29.7095 9.38939 29.707C8.78115 29.7065 8.48352 29.4188 8.48202 28.8121C8.47653 26.8685 8.47703 24.9244 8.48152 22.9809C8.48302 22.3696 8.77466 22.073 9.3764 22.0675C10.2084 22.0605 11.0403 22.066 11.9192 22.066Z"
        fill="url(#paint3_linear_922_8628)" />
    <defs>
        <linearGradient id="paint0_linear_922_8628" x1="2.3667" y1="38.8791" x2="39.9035" y2="38.2126"
            gradientUnits="userSpaceOnUse">
            <stop stop-color="#00194F" />
            <stop offset="0.838542" stop-color="#AF0000" />
        </linearGradient>
        <linearGradient id="paint1_linear_922_8628" x1="10.0186" y1="12.9028" x2="22.5109" y2="12.5478"
            gradientUnits="userSpaceOnUse">
            <stop stop-color="#00194F" />
            <stop offset="0.838542" stop-color="#AF0000" />
        </linearGradient>
        <linearGradient id="paint2_linear_922_8628" x1="20.7046" y1="29.709" x2="31.6442" y2="29.4826"
            gradientUnits="userSpaceOnUse">
            <stop stop-color="#00194F" />
            <stop offset="0.838542" stop-color="#AF0000" />
        </linearGradient>
        <linearGradient id="paint3_linear_922_8628" x1="8.47803" y1="29.7088" x2="17.8619" y2="29.5091"
            gradientUnits="userSpaceOnUse">
            <stop stop-color="#00194F" />
            <stop offset="0.838542" stop-color="#AF0000" />
        </linearGradient>
    </defs>
</svg>