<svg xmlns="http://www.w3.org/2000/svg" width="40" height="40" viewBox="0 0 40 40" fill="none">
  <path d="M37.7272 38.9991C36.5649 38.9991 35.4026 38.9991 34.2397 38.9991C34.2397 32.7547 34.226 26.5104 34.2535 20.2666C34.2581 19.2512 33.628 18.409 32.4005 18.4125C24.1294 18.4385 15.8578 18.4385 7.58673 18.4125C6.3684 18.409 5.72969 19.2425 5.73427 20.2666C5.76229 26.5109 5.74853 32.7553 5.74853 38.9991C4.58623 38.9991 3.42393 38.9991 2.26111 38.9991C1.62699 38.7922 1.20577 38.3724 1 37.7376C1 29.872 1 22.0065 1 14.1404C1.29338 13.8378 1.54652 13.4766 1.88624 13.2412C7.61627 9.27582 13.3565 5.32623 19.0952 1.37309C19.8205 0.873274 20.1795 0.875311 20.914 1.38124C26.6924 5.36241 32.4688 9.34715 38.2538 13.3191C38.7749 13.6768 38.998 14.1114 38.9969 14.7437C38.9847 22.1741 38.9801 29.6046 39 37.0345C39.002 38.0122 38.6638 38.6755 37.7272 38.9991Z" fill="url(#paint0_linear_922_8648)"/>
  <path d="M21.3298 38.9992C20.9055 38.7633 20.7792 38.4011 20.7838 37.9237C20.8027 35.9835 20.7909 34.0429 20.792 32.1022C20.7925 31.339 21.0532 31.0802 21.8193 31.0786C22.6449 31.0766 23.4706 31.0781 24.3532 31.0781C24.3532 31.4653 24.3497 31.8184 24.3537 32.1715C24.3624 32.9398 24.8402 33.4529 25.5395 33.4498C26.2306 33.4473 26.7135 32.9255 26.7257 32.1613C26.7313 31.8169 26.7267 31.4725 26.7267 31.0781C26.9906 31.0781 27.2213 31.0781 27.452 31.0781C28.107 31.0781 28.762 31.0684 29.417 31.0817C29.9625 31.0929 30.2804 31.395 30.2834 31.9366C30.2941 34.0006 30.287 36.065 30.289 38.129C30.2895 38.5493 30.0664 38.8153 29.714 38.9997C26.9193 38.9992 24.1245 38.9992 21.3298 38.9992Z" fill="url(#paint1_linear_922_8648)"/>
  <path d="M10.2745 38.9991C9.83345 38.7831 9.69084 38.4214 9.6939 37.9435C9.70714 36.0028 9.69848 34.0627 9.70001 32.122C9.70052 31.3532 9.97861 31.0796 10.7559 31.0786C11.5698 31.077 12.3832 31.078 13.2628 31.078C13.2628 31.4943 13.2496 31.8841 13.2659 32.2723C13.2893 32.8389 13.6514 33.2938 14.1531 33.4212C14.6609 33.5501 15.2085 33.3422 15.4586 32.8776C15.5645 32.6804 15.6098 32.4358 15.6277 32.2091C15.6546 31.8545 15.6348 31.4963 15.6348 31.1219C15.7443 31.1045 15.8258 31.0811 15.9073 31.0806C16.6983 31.0775 17.4893 31.073 18.2803 31.0806C18.8991 31.0867 19.1935 31.3781 19.195 31.9916C19.1996 34.0188 19.1884 36.0456 19.2032 38.0729C19.2062 38.5136 19.0045 38.7872 18.6592 39.0001C15.864 38.9991 13.0693 38.9991 10.2745 38.9991Z" fill="url(#paint2_linear_922_8648)"/>
  <path d="M18.8089 22.7347C18.8028 22.3658 18.8079 21.9969 18.8079 21.5807C17.8967 21.5807 17.0451 21.5761 16.193 21.5817C15.5415 21.5863 15.2472 21.8869 15.2466 22.5416C15.2446 24.5449 15.2446 26.5482 15.2466 28.5515C15.2477 29.2083 15.5405 29.4997 16.2001 29.5002C18.7351 29.5022 21.27 29.5022 23.805 29.5002C24.4412 29.4997 24.7412 29.2032 24.7422 28.5724C24.7447 26.5569 24.7442 24.5408 24.7422 22.5253C24.7417 21.894 24.4437 21.5878 23.8167 21.5822C23.0257 21.5751 22.2342 21.5796 21.4427 21.5822C21.3612 21.5827 21.2797 21.6051 21.1819 21.6194C21.1819 22.0102 21.188 22.3806 21.1804 22.751C21.1656 23.449 20.6578 23.9554 19.9865 23.9518C19.3198 23.9483 18.8207 23.4352 18.8089 22.7347Z" fill="url(#paint3_linear_922_8648)"/>
  <defs>
    <linearGradient id="paint0_linear_922_8648" x1="1" y1="38.9991" x2="39.9018" y2="38.3085" gradientUnits="userSpaceOnUse">
      <stop stop-color="#00194F"/>
      <stop offset="0.838542" stop-color="#AF0000"/>
    </linearGradient>
    <linearGradient id="paint1_linear_922_8648" x1="20.7837" y1="38.9997" x2="30.5137" y2="38.7925" gradientUnits="userSpaceOnUse">
      <stop stop-color="#00194F"/>
      <stop offset="0.838542" stop-color="#AF0000"/>
    </linearGradient>
    <linearGradient id="paint2_linear_922_8648" x1="9.69385" y1="39.0001" x2="19.4275" y2="38.7928" gradientUnits="userSpaceOnUse">
      <stop stop-color="#00194F"/>
      <stop offset="0.838542" stop-color="#AF0000"/>
    </linearGradient>
    <linearGradient id="paint3_linear_922_8648" x1="15.2451" y1="29.5017" x2="24.968" y2="29.2948" gradientUnits="userSpaceOnUse">
      <stop stop-color="#00194F"/>
      <stop offset="0.838542" stop-color="#AF0000"/>
    </linearGradient>
  </defs>
</svg>