<svg width="374" height="808" viewBox="0 0 374 808" fill="none" xmlns="http://www.w3.org/2000/svg">
<g filter="url(#filter0_d_9003_1087)">
<rect x="162.909" y="648" width="195.091" height="136" rx="8" fill="white" shape-rendering="crispEdges"/>
<path d="M269.789 672.852L260.372 667.785C259.372 667.252 258.189 667.252 257.189 667.785L247.789 672.852C247.105 673.235 246.672 673.969 246.672 674.769C246.672 675.585 247.089 676.319 247.789 676.685L257.205 681.752C257.705 682.019 258.255 682.152 258.789 682.152C259.322 682.152 259.889 682.019 260.372 681.752L269.789 676.685C270.472 676.319 270.905 675.585 270.905 674.769C270.905 673.969 270.472 673.235 269.789 672.852Z" fill="#FF4D4F"/>
<path d="M255.655 683.518L246.905 679.151C246.221 678.801 245.455 678.851 244.805 679.234C244.171 679.634 243.788 680.318 243.788 681.068V689.334C243.788 690.768 244.588 692.051 245.871 692.701L254.621 697.068C254.921 697.218 255.255 697.301 255.588 697.301C255.971 697.301 256.371 697.184 256.721 696.984C257.355 696.584 257.738 695.901 257.738 695.151V686.884C257.721 685.451 256.921 684.168 255.655 683.518Z" fill="#FFBAB7"/>
<path d="M273.789 681.068V685.168C272.989 684.934 272.139 684.834 271.289 684.834C269.022 684.834 266.805 685.618 265.055 687.018C262.655 688.901 261.289 691.751 261.289 694.834C261.289 695.651 261.389 696.468 261.605 697.251C261.355 697.218 261.105 697.118 260.872 696.968C260.239 696.584 259.855 695.901 259.855 695.151V686.884C259.855 685.451 260.655 684.168 261.922 683.518L270.672 679.151C271.355 678.801 272.122 678.851 272.772 679.234C273.405 679.634 273.789 680.318 273.789 681.068Z" fill="#FFBAB7"/>
<path d="M276.59 689.534C275.107 688.051 273.14 687.301 271.19 687.334C269.307 687.351 267.424 688.101 265.99 689.534C264.99 690.518 264.34 691.751 264.024 693.034C263.84 693.734 263.774 694.451 263.824 695.168V695.251C263.824 695.368 263.84 695.468 263.857 695.601C263.857 695.601 263.857 695.601 263.874 695.618V695.668C264.024 697.301 264.724 698.884 265.99 700.134C267.924 702.068 270.64 702.718 273.09 702.101C273.824 701.918 274.54 701.618 275.207 701.218C275.707 700.934 276.174 700.568 276.59 700.134C277.84 698.884 278.557 697.301 278.707 695.651C278.724 695.651 278.724 695.618 278.724 695.601C278.757 695.484 278.757 695.351 278.757 695.234C278.757 695.218 278.774 695.184 278.774 695.151C278.874 693.134 278.14 691.068 276.59 689.534ZM274.174 697.684C273.69 698.168 272.907 698.168 272.407 697.684L271.307 696.584L270.174 697.718C269.674 698.218 268.89 698.218 268.407 697.718C267.907 697.234 267.907 696.451 268.407 695.951L269.54 694.818L268.44 693.718C267.957 693.218 267.957 692.434 268.44 691.951C268.94 691.451 269.724 691.451 270.224 691.951L271.307 693.051L272.357 691.984C272.857 691.501 273.64 691.501 274.14 691.984C274.624 692.484 274.624 693.268 274.14 693.768L273.074 694.818L274.174 695.901C274.674 696.401 274.674 697.184 274.174 697.684Z" fill="#FF4D4F"/>
</g>
<g filter="url(#filter1_d_9003_1087)">
<rect x="162.909" y="488" width="195.091" height="136" rx="8" fill="white" shape-rendering="crispEdges"/>
<g clip-path="url(#clip0_9003_1087)">
<path d="M254.423 536.76L252.159 539.024V534.497L254.423 536.76Z" fill="white"/>
<path d="M258.079 540.416H253.552L255.815 538.153L258.079 540.416Z" fill="white"/>
<path d="M259.47 534.497V539.024L257.208 536.76L259.47 534.497Z" fill="white"/>
<path d="M258.079 533.104L255.815 535.368L253.552 533.104H258.079Z" fill="white"/>
<path d="M263.703 536.76L261.439 539.024V534.497L263.703 536.76Z" fill="white"/>
<path d="M267.359 540.416H262.832L265.095 538.153L267.359 540.416Z" fill="white"/>
<path d="M268.751 534.497V539.024L266.488 536.76L268.751 534.497Z" fill="white"/>
<path d="M267.359 533.104L265.095 535.368L262.832 533.104H267.359Z" fill="white"/>
<path d="M263.703 527.48L261.439 529.744V525.217L263.703 527.48Z" fill="white"/>
<path d="M267.359 531.136H262.832L265.095 528.873L267.359 531.136Z" fill="white"/>
<path d="M268.751 525.217V529.744L266.488 527.48L268.751 525.217Z" fill="white"/>
<path d="M267.359 523.824L265.095 526.088L262.832 523.824H267.359Z" fill="white"/>
<path d="M277.61 516.749V539.995H275.781V518.2C275.781 517.424 275.152 516.794 274.375 516.794H246.535C245.759 516.794 245.128 517.424 245.128 518.2V539.995H243.301V516.749L260.455 508.172L277.61 516.749Z" fill="#FFBAB7"/>
<path d="M280.421 515.881V541.4C280.421 542.177 279.792 542.806 279.016 542.806H274.375C273.599 542.806 272.97 542.177 272.97 541.4V519.606H247.941V541.4C247.941 542.177 247.312 542.806 246.535 542.806H241.895C241.119 542.806 240.488 542.177 240.488 541.4V515.881C240.488 515.348 240.789 514.86 241.265 514.622L259.827 505.342C260.222 505.144 260.689 505.144 261.084 505.342L279.644 514.622C280.121 514.86 280.421 515.348 280.421 515.881ZM277.61 539.995V516.749L260.455 508.172L243.301 516.749V539.995H245.128V518.2C245.128 517.424 245.759 516.794 246.535 516.794H274.375C275.152 516.794 275.781 517.424 275.781 518.2V539.995H277.61Z" fill="#FFBAB7"/>
<path d="M270.719 522.84V541.4C270.719 541.944 270.279 542.385 269.735 542.385H251.175C250.631 542.385 250.19 541.944 250.19 541.4V532.12C250.19 531.577 250.631 531.136 251.175 531.136H259.47V522.84C259.47 522.297 259.911 521.856 260.455 521.856H269.735C270.279 521.856 270.719 522.297 270.719 522.84ZM268.75 539.024V534.497L266.488 536.76L268.75 539.024ZM268.75 529.744V525.217L266.488 527.48L268.75 529.744ZM265.095 526.088L267.359 523.824H262.832L265.095 526.088ZM265.095 535.368L267.359 533.104H262.832L265.095 535.368ZM262.832 531.136H267.359L265.095 528.873L262.832 531.136ZM262.832 540.416H267.359L265.095 538.153L262.832 540.416ZM261.439 529.744L263.703 527.48L261.439 525.217V529.744ZM261.439 539.024L263.703 536.76L261.439 534.497V539.024ZM259.47 539.024V534.497L257.208 536.76L259.47 539.024ZM255.815 535.368L258.079 533.104H253.552L255.815 535.368ZM253.552 540.416H258.079L255.815 538.153L253.552 540.416ZM252.159 539.024L254.423 536.76L252.159 534.497V539.024Z" fill="#FF4D4F"/>
</g>
</g>
<g filter="url(#filter2_d_9003_1087)">
<rect x="162.909" y="328" width="195.091" height="136" rx="8" fill="white" shape-rendering="crispEdges"/>
<path d="M268.788 350.667H252.121C247.121 350.667 243.788 353.167 243.788 359V364.933C243.788 365.55 244.421 365.933 244.971 365.683C246.605 364.933 248.488 364.65 250.471 365C254.855 365.783 258.071 369.85 257.955 374.3C257.938 375 257.838 375.683 257.655 376.35C257.521 376.867 257.938 377.35 258.471 377.35H268.788C273.788 377.35 277.121 374.85 277.121 369.017V359C277.121 353.167 273.788 350.667 268.788 350.667ZM260.455 368.167C258.155 368.167 256.288 366.3 256.288 364C256.288 361.7 258.155 359.833 260.455 359.833C262.755 359.833 264.621 361.7 264.621 364C264.621 366.3 262.755 368.167 260.455 368.167ZM272.538 367.333C272.538 368.017 271.971 368.583 271.288 368.583C270.605 368.583 270.038 368.017 270.038 367.333V360.667C270.038 359.983 270.605 359.417 271.288 359.417C271.971 359.417 272.538 359.983 272.538 360.667V367.333Z" fill="#FFBAB7"/>
<path d="M248.788 367.333C246.788 367.333 245.004 368.217 243.788 369.6C242.754 370.783 242.121 372.317 242.121 374C242.121 375.25 242.471 376.433 243.088 377.433C244.238 379.367 246.354 380.667 248.788 380.667C250.471 380.667 252.004 380.05 253.171 379C253.688 378.567 254.138 378.033 254.488 377.433C255.104 376.433 255.454 375.25 255.454 374C255.454 370.317 252.471 367.333 248.788 367.333ZM251.454 376.633C251.204 376.883 250.888 377 250.571 377C250.254 377 249.938 376.883 249.688 376.633L248.804 375.75L247.888 376.667C247.638 376.917 247.321 377.033 247.004 377.033C246.688 377.033 246.371 376.917 246.121 376.667C245.638 376.183 245.638 375.383 246.121 374.9L247.038 373.983L246.154 373.1C245.671 372.617 245.671 371.817 246.154 371.333C246.638 370.85 247.438 370.85 247.921 371.333L248.804 372.217L249.638 371.383C250.121 370.9 250.921 370.9 251.404 371.383C251.888 371.867 251.888 372.667 251.404 373.15L250.571 373.983L251.454 374.867C251.938 375.35 251.938 376.133 251.454 376.633Z" fill="#FF4D4F"/>
</g>
<g filter="url(#filter3_d_9003_1087)">
<rect x="162.909" y="168" width="195.091" height="136" rx="8" fill="white" shape-rendering="crispEdges"/>
<g clip-path="url(#clip1_9003_1087)">
<path d="M245.234 196.585C248.125 197.583 251.958 198.132 256.027 198.132C260.095 198.132 263.928 197.583 266.82 196.585C269.901 195.523 271.599 194.032 271.599 192.387C271.599 190.742 269.901 189.251 266.82 188.189C263.928 187.192 260.095 186.642 256.027 186.642C251.958 186.642 248.125 187.192 245.234 188.189C242.152 189.251 240.455 190.742 240.455 192.387C240.455 194.032 242.152 195.523 245.234 196.585Z" fill="#FF4D4F"/>
<path d="M273.15 205.481H268.8C268.169 205.481 267.656 205.994 267.656 206.625V206.854C267.656 207.485 268.169 207.999 268.8 207.999H273.15C273.781 207.999 274.294 207.485 274.294 206.854V206.625C274.294 205.994 273.781 205.481 273.15 205.481Z" fill="#FF4D4F"/>
<path d="M280.455 206.556C280.455 201.383 276.246 197.174 271.072 197.174C268.132 197.174 265.505 198.533 263.784 200.656C261.389 201.093 258.749 201.322 256.027 201.322C251.567 201.322 247.329 200.707 244.094 199.592C243.131 199.26 242.906 199.167 242.586 199.003C242.243 198.824 241.923 198.733 241.635 198.733C241.012 198.733 240.63 199.149 240.527 199.562C240.479 199.755 240.455 199.951 240.455 200.146C240.455 201.791 242.152 203.282 245.234 204.345C248.125 205.342 251.958 205.891 256.027 205.891C257.996 205.891 259.94 205.758 261.75 205.505C261.711 205.85 261.689 206.201 261.689 206.556C261.689 207.269 261.772 207.963 261.923 208.63C260.039 208.879 258.063 209.006 256.027 209.006C251.567 209.006 247.33 208.391 244.094 207.276C243.131 206.944 242.906 206.852 242.586 206.688C242.242 206.508 241.922 206.417 241.635 206.417C241.012 206.417 240.629 206.833 240.527 207.247C240.479 207.439 240.455 207.635 240.455 207.83C240.455 209.475 242.152 210.966 245.234 212.029C248.125 213.026 251.958 213.575 256.027 213.575C258.868 213.575 261.658 213.297 264.061 212.783C264.994 213.832 266.157 214.671 267.471 215.219C264.302 216.232 260.265 216.789 256.027 216.789C251.567 216.789 247.33 216.174 244.094 215.058C243.131 214.726 242.906 214.634 242.586 214.47C242.242 214.291 241.922 214.199 241.635 214.199C241.012 214.199 240.63 214.616 240.527 215.029C240.479 215.222 240.455 215.418 240.455 215.613C240.455 217.258 242.152 218.749 245.234 219.811C248.125 220.809 251.958 221.358 256.027 221.358C260.095 221.358 263.928 220.809 266.82 219.811C269.705 218.816 271.377 217.446 271.578 215.925C276.517 215.661 280.455 211.56 280.455 206.556ZM271.072 212.505C267.792 212.505 265.123 209.837 265.123 206.556C265.123 203.276 267.792 200.607 271.072 200.607C274.352 200.607 277.021 203.276 277.021 206.556C277.021 209.837 274.352 212.505 271.072 212.505Z" fill="#FFBAB7"/>
</g>
</g>
<g filter="url(#filter4_d_9003_1087)">
<rect x="162.909" y="8" width="195.091" height="136" rx="8" fill="white" shape-rendering="crispEdges"/>
<path d="M250.404 25.6667H245.504C243.388 25.6667 242.121 26.9334 242.121 29.0501V33.9501C242.121 36.0667 243.388 37.3334 245.504 37.3334H250.404C252.521 37.3334 253.788 36.0667 253.788 33.9501V29.0501C253.788 26.9334 252.521 25.6667 250.404 25.6667ZM251.238 33.2667C251.654 33.6834 251.654 34.3667 251.238 34.7834C251.021 34.9834 250.738 35.0834 250.471 35.0834C250.204 35.0834 249.938 34.9834 249.721 34.7834L247.938 33.0167L246.204 34.7834C245.988 34.9834 245.721 35.0834 245.421 35.0834C245.154 35.0834 244.888 34.9834 244.671 34.7834C244.254 34.3667 244.254 33.6834 244.671 33.2667L246.454 31.5001L244.688 29.7501C244.271 29.3334 244.271 28.6501 244.688 28.2334C245.104 27.8167 245.788 27.8167 246.204 28.2334L247.938 30.0001L249.704 28.2334C250.121 27.8167 250.804 27.8167 251.221 28.2334C251.638 28.6501 251.638 29.3334 251.221 29.7501L249.471 31.5001L251.238 33.2667Z" fill="#FF4D4F"/>
<path d="M276.287 50.3662C276.287 50.6162 276.204 50.8662 275.987 51.0829C273.57 53.5162 269.27 57.8496 266.804 60.3329C266.587 60.5662 266.304 60.6662 266.02 60.6662C265.47 60.6662 264.937 60.2329 264.937 59.5996V53.7662C264.937 51.3329 267.004 49.3162 269.537 49.3162C271.12 49.2996 273.32 49.2996 275.204 49.2996C275.854 49.2996 276.287 49.8162 276.287 50.3662Z" fill="#292D32"/>
<path d="M276.287 50.3662C276.287 50.6162 276.204 50.8662 275.987 51.0829C273.57 53.5162 269.27 57.8496 266.804 60.3329C266.587 60.5662 266.304 60.6662 266.02 60.6662C265.47 60.6662 264.937 60.2329 264.937 59.5996V53.7662C264.937 51.3329 267.004 49.3162 269.537 49.3162C271.12 49.2996 273.32 49.2996 275.204 49.2996C275.854 49.2996 276.287 49.8162 276.287 50.3662Z" fill="#FF4D4F"/>
<path d="M268.171 27.3333H257.954C257.038 27.3333 256.288 28.0833 256.288 28.9999V34.8333C256.288 37.5999 254.054 39.8333 251.288 39.8333H246.288C245.371 39.8333 244.621 40.5833 244.621 41.4999V52.5499C244.621 57.0332 248.254 60.6666 252.738 60.6666H260.771C261.688 60.6666 262.438 59.9166 262.438 58.9999V53.7666C262.438 49.9333 265.621 46.8166 269.538 46.8166C270.421 46.7999 272.571 46.7999 274.621 46.7999C275.538 46.7999 276.288 46.0666 276.288 45.1333V35.4499C276.288 30.9666 272.654 27.3333 268.171 27.3333ZM254.988 52.3499H250.588C249.904 52.3499 249.338 51.7833 249.338 51.0999C249.338 50.3999 249.904 49.8333 250.588 49.8333H254.988C255.704 49.8333 256.238 50.3999 256.238 51.0999C256.238 51.7833 255.704 52.3499 254.988 52.3499ZM259.638 46.1666H250.588C249.904 46.1666 249.338 45.5999 249.338 44.9166C249.338 44.2166 249.904 43.6499 250.588 43.6499H259.638C260.321 43.6499 260.904 44.2166 260.904 44.9166C260.904 45.5999 260.321 46.1666 259.638 46.1666Z" fill="#FFBAB7"/>
</g>
<path d="M65.1449 397.292C64.9516 397.293 64.794 397.156 64.7925 396.985C64.7903 396.815 64.9458 396.675 65.1391 396.674L65.1449 397.292ZM65.8323 396.669C66.0256 396.668 66.184 396.805 66.1855 396.976C66.1869 397.147 66.0321 397.286 65.8389 397.287L65.8323 396.669ZM67.226 397.278C67.0334 397.28 66.875 397.142 66.8736 396.971C66.8721 396.801 67.0269 396.661 67.2202 396.66L67.226 397.278ZM68.6073 396.651C68.8006 396.65 68.9583 396.787 68.9605 396.957C68.9619 397.128 68.8064 397.268 68.6139 397.269L68.6073 396.651ZM70.001 397.26C69.8077 397.261 69.6501 397.124 69.6486 396.953C69.6464 396.783 69.8019 396.643 69.9952 396.642L70.001 397.26ZM71.3824 396.632C71.5757 396.631 71.7333 396.769 71.7348 396.939C71.737 397.11 71.5815 397.25 71.3882 397.251L71.3824 396.632ZM72.7761 397.241C72.5828 397.243 72.4251 397.106 72.4229 396.935C72.4215 396.764 72.577 396.625 72.7695 396.623L72.7761 397.241ZM74.1574 396.614C74.3499 396.613 74.5084 396.751 74.5098 396.921C74.5113 397.092 74.3565 397.231 74.1632 397.232L74.1574 396.614ZM75.5511 397.223C75.3578 397.225 75.1994 397.087 75.1979 396.916C75.1965 396.745 75.3512 396.606 75.5445 396.605L75.5511 397.223ZM76.9317 396.596C77.125 396.594 77.2834 396.732 77.2848 396.903C77.2863 397.073 77.1315 397.213 76.9382 397.214L76.9317 396.596ZM78.3254 397.205C78.1328 397.206 77.9744 397.068 77.973 396.898C77.9715 396.727 78.1263 396.588 78.3196 396.587L78.3254 397.205ZM79.7067 396.578C79.9 396.577 80.0577 396.713 80.0599 396.884C80.0613 397.055 79.9058 397.194 79.7132 397.196L79.7067 396.578ZM81.1004 397.187C80.9071 397.188 80.7494 397.05 80.748 396.88C80.7458 396.709 80.9013 396.569 81.0946 396.568L81.1004 397.187ZM82.4817 396.559C82.675 396.558 82.8327 396.695 82.8342 396.866C82.8363 397.036 82.6808 397.176 82.4875 397.177L82.4817 396.559ZM83.8754 397.168C83.6821 397.169 83.5245 397.032 83.5223 396.862C83.5208 396.691 83.6763 396.551 83.8689 396.55L83.8754 397.168ZM85.2568 396.541C85.45 396.539 85.6077 396.677 85.6092 396.848C85.6114 397.018 85.4559 397.158 85.2626 397.159L85.2568 396.541ZM86.6504 397.15C86.4572 397.151 86.2995 397.014 86.2973 396.843C86.2958 396.672 86.4506 396.533 86.6439 396.532L86.6504 397.15ZM88.0318 396.523C88.2243 396.521 88.3827 396.659 88.3842 396.829C88.3857 397 88.2309 397.139 88.0376 397.14L88.0318 396.523ZM89.4247 397.131C89.2322 397.133 89.0738 396.995 89.0723 396.824C89.0709 396.654 89.2256 396.515 89.4189 396.514L89.4247 397.131ZM90.8061 396.504C90.9994 396.503 91.157 396.64 91.1592 396.811C91.1607 396.982 91.0052 397.121 90.8126 397.122L90.8061 396.504ZM92.1998 397.113C92.0065 397.114 91.8488 396.977 91.8473 396.806C91.8452 396.636 92.0007 396.496 92.194 396.495L92.1998 397.113ZM93.5811 396.486C93.7744 396.485 93.9321 396.622 93.9335 396.792C93.9357 396.963 93.7802 397.103 93.5869 397.104L93.5811 396.486ZM94.9748 397.095C94.7815 397.096 94.6238 396.959 94.6216 396.788C94.6202 396.617 94.7757 396.478 94.9682 396.476L94.9748 397.095ZM96.3561 396.467C96.5494 396.466 96.7071 396.603 96.7085 396.774C96.7107 396.945 96.5552 397.085 96.3619 397.086L96.3561 396.467ZM97.7498 397.076C97.5565 397.077 97.3988 396.94 97.3967 396.77C97.3952 396.599 97.55 396.46 97.7433 396.458L97.7498 397.076ZM99.1311 396.449C99.3237 396.448 99.4821 396.585 99.4836 396.756C99.485 396.927 99.3302 397.066 99.137 397.067L99.1311 396.449ZM100.524 397.058C100.332 397.059 100.173 396.922 100.172 396.751C100.17 396.58 100.325 396.441 100.518 396.44L100.524 397.058ZM101.905 396.431C102.099 396.429 102.256 396.567 102.259 396.738C102.26 396.908 102.105 397.047 101.912 397.049L101.905 396.431ZM103.299 397.04C103.106 397.041 102.948 396.903 102.947 396.733C102.945 396.562 103.1 396.423 103.293 396.422L103.299 397.04ZM104.68 396.412C104.874 396.411 105.031 396.548 105.033 396.719C105.035 396.89 104.88 397.029 104.687 397.031L104.68 396.412ZM106.074 397.022C105.881 397.023 105.723 396.885 105.721 396.715C105.72 396.544 105.875 396.404 106.068 396.403L106.074 397.022ZM107.455 396.394C107.649 396.393 107.806 396.53 107.808 396.7C107.81 396.871 107.655 397.011 107.461 397.012L107.455 396.394ZM108.849 397.003C108.656 397.004 108.498 396.867 108.496 396.696C108.495 396.526 108.649 396.386 108.843 396.385L108.849 397.003ZM110.231 396.375C110.423 396.374 110.581 396.512 110.583 396.682C110.584 396.853 110.43 396.993 110.236 396.994L110.231 396.375ZM111.623 396.984C111.431 396.986 111.273 396.849 111.271 396.678C111.27 396.507 111.424 396.368 111.618 396.366L111.623 396.984ZM113.005 396.357C113.198 396.356 113.356 396.494 113.358 396.664C113.359 396.835 113.205 396.974 113.011 396.975L113.005 396.357ZM114.398 396.966C114.205 396.968 114.048 396.83 114.046 396.659C114.044 396.489 114.199 396.349 114.393 396.348L114.398 396.966ZM115.78 396.339C115.973 396.338 116.131 396.475 116.133 396.646C116.134 396.816 115.979 396.956 115.786 396.957L115.78 396.339ZM117.174 396.948C116.98 396.949 116.823 396.812 116.821 396.641C116.819 396.471 116.974 396.331 117.167 396.33L117.174 396.948ZM118.555 396.321C118.748 396.32 118.906 396.456 118.907 396.627C118.909 396.798 118.754 396.937 118.561 396.939L118.555 396.321ZM119.949 396.93C119.755 396.931 119.598 396.794 119.595 396.623C119.594 396.452 119.749 396.313 119.942 396.311L119.949 396.93ZM121.33 396.302C121.522 396.301 121.681 396.438 121.682 396.609C121.684 396.779 121.529 396.919 121.336 396.92L121.33 396.302ZM122.723 396.911C122.53 396.912 122.372 396.775 122.37 396.605C122.369 396.434 122.524 396.295 122.717 396.293L122.723 396.911ZM124.104 396.284C124.297 396.282 124.455 396.42 124.457 396.591C124.459 396.761 124.304 396.901 124.111 396.902L124.104 396.284ZM125.498 396.893C125.305 396.894 125.147 396.757 125.145 396.586C125.143 396.415 125.299 396.276 125.492 396.275L125.498 396.893ZM126.879 396.266C127.072 396.264 127.23 396.402 127.232 396.572C127.234 396.743 127.078 396.882 126.886 396.883L126.879 396.266ZM128.273 396.875C128.08 396.876 127.922 396.738 127.92 396.568C127.918 396.397 128.074 396.258 128.267 396.257L128.273 396.875ZM129.654 396.247C129.847 396.246 130.005 396.383 130.007 396.554C130.009 396.725 129.853 396.864 129.66 396.866L129.654 396.247ZM131.048 396.856C130.855 396.857 130.697 396.72 130.695 396.55C130.693 396.379 130.849 396.239 131.041 396.238L131.048 396.856ZM132.429 396.229C132.622 396.228 132.78 396.365 132.782 396.535C132.783 396.706 132.628 396.846 132.435 396.847L132.429 396.229ZM133.823 396.838C133.63 396.839 133.471 396.702 133.47 396.531C133.468 396.36 133.623 396.221 133.816 396.219L133.823 396.838ZM135.204 396.21C135.397 396.209 135.555 396.347 135.557 396.517C135.558 396.688 135.403 396.828 135.21 396.829L135.204 396.21ZM136.597 396.819C136.405 396.821 136.246 396.683 136.245 396.513C136.243 396.342 136.398 396.203 136.591 396.201L136.597 396.819ZM137.979 396.192C138.172 396.191 138.33 396.328 138.332 396.499C138.333 396.67 138.178 396.809 137.985 396.81L137.979 396.192ZM139.372 396.801C139.179 396.803 139.021 396.665 139.02 396.494C139.018 396.323 139.173 396.184 139.366 396.183L139.372 396.801ZM140.754 396.174C140.947 396.173 141.105 396.31 141.106 396.481C141.108 396.651 140.953 396.79 140.759 396.792L140.754 396.174ZM142.147 396.783C141.954 396.784 141.796 396.646 141.794 396.476C141.793 396.305 141.948 396.166 142.141 396.165L142.147 396.783ZM143.529 396.155C143.721 396.154 143.88 396.291 143.881 396.462C143.882 396.633 143.728 396.772 143.534 396.774L143.529 396.155ZM144.922 396.765C144.729 396.766 144.571 396.629 144.569 396.458C144.568 396.287 144.722 396.147 144.916 396.146L144.922 396.765ZM146.304 396.137C146.496 396.136 146.655 396.273 146.656 396.444C146.658 396.614 146.503 396.754 146.309 396.755L146.304 396.137ZM147.697 396.746C147.504 396.747 147.346 396.61 147.344 396.439C147.343 396.269 147.497 396.129 147.691 396.128L147.697 396.746ZM149.078 396.119C149.271 396.117 149.429 396.255 149.431 396.426C149.433 396.596 149.277 396.736 149.084 396.737L149.078 396.119ZM150.472 396.727C150.278 396.729 150.121 396.592 150.119 396.421C150.117 396.25 150.273 396.111 150.466 396.11L150.472 396.727ZM151.853 396.101C152.046 396.099 152.204 396.237 152.205 396.407C152.208 396.578 152.052 396.717 151.859 396.718L151.853 396.101ZM153.247 396.709C153.053 396.711 152.896 396.573 152.893 396.402C152.892 396.232 153.048 396.092 153.24 396.091L153.247 396.709ZM154.628 396.082C154.821 396.081 154.979 396.218 154.98 396.389C154.983 396.559 154.827 396.699 154.634 396.7L154.628 396.082ZM156.022 396.691C155.828 396.692 155.671 396.555 155.669 396.384C155.667 396.214 155.822 396.074 156.015 396.073L156.022 396.691ZM157.403 396.064C157.596 396.063 157.754 396.199 157.755 396.37C157.757 396.541 157.602 396.681 157.409 396.682L157.403 396.064ZM158.796 396.673C158.603 396.674 158.445 396.537 158.444 396.366C158.442 396.195 158.597 396.056 158.79 396.054L158.796 396.673ZM160.177 396.045C160.371 396.044 160.528 396.182 160.53 396.352C160.532 396.523 160.377 396.662 160.184 396.663L160.177 396.045ZM161.571 396.654C161.378 396.655 161.22 396.518 161.219 396.348C161.216 396.177 161.372 396.038 161.565 396.036L161.571 396.654ZM65.1391 396.674L65.8323 396.669L65.8389 397.287L65.1449 397.292L65.1391 396.674ZM67.2202 396.66L68.6073 396.651L68.6139 397.269L67.226 397.278L67.2202 396.66ZM69.9952 396.642L71.3824 396.632L71.3882 397.251L70.001 397.26L69.9952 396.642ZM72.7695 396.623L74.1574 396.614L74.1632 397.232L72.7761 397.241L72.7695 396.623ZM75.5445 396.605L76.9317 396.596L76.9382 397.214L75.5511 397.223L75.5445 396.605ZM78.3196 396.587L79.7067 396.578L79.7132 397.196L78.3254 397.205L78.3196 396.587ZM81.0946 396.568L82.4817 396.559L82.4875 397.177L81.1004 397.187L81.0946 396.568ZM83.8689 396.55L85.2568 396.541L85.2626 397.159L83.8754 397.168L83.8689 396.55ZM86.6439 396.532L88.0318 396.523L88.0376 397.14L86.6504 397.15L86.6439 396.532ZM89.4189 396.514L90.8061 396.504L90.8126 397.122L89.4247 397.131L89.4189 396.514ZM92.194 396.495L93.5811 396.486L93.5869 397.104L92.1998 397.113L92.194 396.495ZM94.9682 396.476L96.3561 396.467L96.3619 397.086L94.9748 397.095L94.9682 396.476ZM97.7433 396.458L99.1311 396.449L99.137 397.067L97.7498 397.076L97.7433 396.458ZM100.518 396.44L101.905 396.431L101.912 397.049L100.524 397.058L100.518 396.44ZM103.293 396.422L104.68 396.412L104.687 397.031L103.299 397.04L103.293 396.422ZM106.068 396.403L107.455 396.394L107.461 397.012L106.074 397.022L106.068 396.403ZM108.843 396.385L110.231 396.375L110.236 396.994L108.849 397.003L108.843 396.385ZM111.618 396.366L113.005 396.357L113.011 396.975L111.623 396.984L111.618 396.366ZM114.393 396.348L115.78 396.339L115.786 396.957L114.398 396.966L114.393 396.348ZM117.167 396.33L118.555 396.321L118.561 396.939L117.174 396.948L117.167 396.33ZM119.942 396.311L121.33 396.302L121.336 396.92L119.949 396.93L119.942 396.311ZM122.717 396.293L124.104 396.284L124.111 396.902L122.723 396.911L122.717 396.293ZM125.492 396.275L126.879 396.266L126.886 396.883L125.498 396.893L125.492 396.275ZM128.267 396.257L129.654 396.247L129.66 396.866L128.273 396.875L128.267 396.257ZM131.041 396.238L132.429 396.229L132.435 396.847L131.048 396.856L131.041 396.238ZM133.816 396.219L135.204 396.21L135.21 396.829L133.823 396.838L133.816 396.219ZM136.591 396.201L137.979 396.192L137.985 396.81L136.597 396.819L136.591 396.201ZM139.366 396.183L140.754 396.174L140.759 396.792L139.372 396.801L139.366 396.183ZM142.141 396.165L143.529 396.155L143.534 396.774L142.147 396.783L142.141 396.165ZM144.916 396.146L146.304 396.137L146.309 396.755L144.922 396.765L144.916 396.146ZM147.691 396.128L149.078 396.119L149.084 396.737L147.697 396.746L147.691 396.128ZM150.466 396.11L151.853 396.101L151.859 396.718L150.472 396.727L150.466 396.11ZM153.24 396.091L154.628 396.082L154.634 396.7L153.247 396.709L153.24 396.091ZM156.015 396.073L157.403 396.064L157.409 396.682L156.022 396.691L156.015 396.073ZM158.79 396.054L160.177 396.045L160.184 396.663L158.796 396.673L158.79 396.054ZM161.565 396.036L162.258 396.032L162.265 396.65L161.571 396.654L161.565 396.036Z" fill="#F5222D"/>
<path d="M54.9692 412C57.1279 547.297 89.9402 657.204 162.909 716" stroke="#F5222D" stroke-width="0.962406" stroke-linecap="round" stroke-dasharray="1.92 1.92"/>
<path d="M162.908 236C159.02 236 84.0239 246.063 66.2461 386" stroke="#F5222D" stroke-width="0.962406" stroke-linecap="round" stroke-dasharray="1.92 1.92"/>
<path d="M54.9692 382C57.1606 245.439 88.8299 135.347 162.909 76" stroke="#F5222D" stroke-width="0.962406" stroke-linecap="round" stroke-dasharray="1.92 1.92"/>
<path d="M162.908 556C159.02 556 84.0239 546.14 66.2461 409" stroke="#F5222D" stroke-width="0.962406" stroke-linecap="round" stroke-dasharray="1.92 1.92"/>
<rect y="371" width="112.937" height="51" rx="25.5" fill="white"/>
<defs>
<filter id="filter0_d_9003_1087" x="146.909" y="640" width="227.091" height="168" filterUnits="userSpaceOnUse" color-interpolation-filters="sRGB">
<feFlood flood-opacity="0" result="BackgroundImageFix"/>
<feColorMatrix in="SourceAlpha" type="matrix" values="0 0 0 0 0 0 0 0 0 0 0 0 0 0 0 0 0 0 127 0" result="hardAlpha"/>
<feOffset dy="8"/>
<feGaussianBlur stdDeviation="8"/>
<feComposite in2="hardAlpha" operator="out"/>
<feColorMatrix type="matrix" values="0 0 0 0 0 0 0 0 0 0 0 0 0 0 0 0 0 0 0.05 0"/>
<feBlend mode="normal" in2="BackgroundImageFix" result="effect1_dropShadow_9003_1087"/>
<feBlend mode="normal" in="SourceGraphic" in2="effect1_dropShadow_9003_1087" result="shape"/>
</filter>
<filter id="filter1_d_9003_1087" x="146.909" y="480" width="227.091" height="168" filterUnits="userSpaceOnUse" color-interpolation-filters="sRGB">
<feFlood flood-opacity="0" result="BackgroundImageFix"/>
<feColorMatrix in="SourceAlpha" type="matrix" values="0 0 0 0 0 0 0 0 0 0 0 0 0 0 0 0 0 0 127 0" result="hardAlpha"/>
<feOffset dy="8"/>
<feGaussianBlur stdDeviation="8"/>
<feComposite in2="hardAlpha" operator="out"/>
<feColorMatrix type="matrix" values="0 0 0 0 0 0 0 0 0 0 0 0 0 0 0 0 0 0 0.05 0"/>
<feBlend mode="normal" in2="BackgroundImageFix" result="effect1_dropShadow_9003_1087"/>
<feBlend mode="normal" in="SourceGraphic" in2="effect1_dropShadow_9003_1087" result="shape"/>
</filter>
<filter id="filter2_d_9003_1087" x="146.909" y="320" width="227.091" height="168" filterUnits="userSpaceOnUse" color-interpolation-filters="sRGB">
<feFlood flood-opacity="0" result="BackgroundImageFix"/>
<feColorMatrix in="SourceAlpha" type="matrix" values="0 0 0 0 0 0 0 0 0 0 0 0 0 0 0 0 0 0 127 0" result="hardAlpha"/>
<feOffset dy="8"/>
<feGaussianBlur stdDeviation="8"/>
<feComposite in2="hardAlpha" operator="out"/>
<feColorMatrix type="matrix" values="0 0 0 0 0 0 0 0 0 0 0 0 0 0 0 0 0 0 0.05 0"/>
<feBlend mode="normal" in2="BackgroundImageFix" result="effect1_dropShadow_9003_1087"/>
<feBlend mode="normal" in="SourceGraphic" in2="effect1_dropShadow_9003_1087" result="shape"/>
</filter>
<filter id="filter3_d_9003_1087" x="146.909" y="160" width="227.091" height="168" filterUnits="userSpaceOnUse" color-interpolation-filters="sRGB">
<feFlood flood-opacity="0" result="BackgroundImageFix"/>
<feColorMatrix in="SourceAlpha" type="matrix" values="0 0 0 0 0 0 0 0 0 0 0 0 0 0 0 0 0 0 127 0" result="hardAlpha"/>
<feOffset dy="8"/>
<feGaussianBlur stdDeviation="8"/>
<feComposite in2="hardAlpha" operator="out"/>
<feColorMatrix type="matrix" values="0 0 0 0 0 0 0 0 0 0 0 0 0 0 0 0 0 0 0.05 0"/>
<feBlend mode="normal" in2="BackgroundImageFix" result="effect1_dropShadow_9003_1087"/>
<feBlend mode="normal" in="SourceGraphic" in2="effect1_dropShadow_9003_1087" result="shape"/>
</filter>
<filter id="filter4_d_9003_1087" x="146.909" y="0" width="227.091" height="168" filterUnits="userSpaceOnUse" color-interpolation-filters="sRGB">
<feFlood flood-opacity="0" result="BackgroundImageFix"/>
<feColorMatrix in="SourceAlpha" type="matrix" values="0 0 0 0 0 0 0 0 0 0 0 0 0 0 0 0 0 0 127 0" result="hardAlpha"/>
<feOffset dy="8"/>
<feGaussianBlur stdDeviation="8"/>
<feComposite in2="hardAlpha" operator="out"/>
<feColorMatrix type="matrix" values="0 0 0 0 0 0 0 0 0 0 0 0 0 0 0 0 0 0 0.05 0"/>
<feBlend mode="normal" in2="BackgroundImageFix" result="effect1_dropShadow_9003_1087"/>
<feBlend mode="normal" in="SourceGraphic" in2="effect1_dropShadow_9003_1087" result="shape"/>
</filter>
<clipPath id="clip0_9003_1087">
<rect width="40" height="40" fill="white" transform="translate(240.455 504)"/>
</clipPath>
<clipPath id="clip1_9003_1087">
<rect width="40" height="40" fill="white" transform="translate(240.455 184)"/>
</clipPath>
</defs>
</svg>
