<svg width="1200" height="266" viewBox="0 0 1200 266" fill="none" xmlns="http://www.w3.org/2000/svg">
<g filter="url(#filter0_d_9010_1213)">
<rect x="64" y="111" width="195.2" height="116" rx="8" fill="white" shape-rendering="crispEdges"/>
<path d="M151.55 128.667H146.65C144.533 128.667 143.267 129.933 143.267 132.05V136.95C143.267 139.067 144.533 140.333 146.65 140.333H151.55C153.667 140.333 154.933 139.067 154.933 136.95V132.05C154.933 129.933 153.667 128.667 151.55 128.667ZM152.383 136.267C152.8 136.683 152.8 137.367 152.383 137.783C152.167 137.983 151.883 138.083 151.617 138.083C151.35 138.083 151.083 137.983 150.867 137.783L149.083 136.017L147.35 137.783C147.133 137.983 146.867 138.083 146.567 138.083C146.3 138.083 146.033 137.983 145.817 137.783C145.4 137.367 145.4 136.683 145.817 136.267L147.6 134.5L145.833 132.75C145.417 132.333 145.417 131.65 145.833 131.233C146.25 130.817 146.933 130.817 147.35 131.233L149.083 133L150.85 131.233C151.267 130.817 151.95 130.817 152.367 131.233C152.783 131.65 152.783 132.333 152.367 132.75L150.617 134.5L152.383 136.267Z" fill="#FF4D4F"/>
<path d="M177.433 153.366C177.433 153.616 177.349 153.866 177.133 154.083C174.716 156.516 170.416 160.85 167.949 163.333C167.733 163.566 167.449 163.666 167.166 163.666C166.616 163.666 166.083 163.233 166.083 162.6V156.766C166.083 154.333 168.149 152.316 170.683 152.316C172.266 152.3 174.466 152.3 176.349 152.3C176.999 152.3 177.433 152.816 177.433 153.366Z" fill="#292D32"/>
<path d="M177.433 153.366C177.433 153.616 177.349 153.866 177.133 154.083C174.716 156.516 170.416 160.85 167.949 163.333C167.733 163.566 167.449 163.666 167.166 163.666C166.616 163.666 166.083 163.233 166.083 162.6V156.766C166.083 154.333 168.149 152.316 170.683 152.316C172.266 152.3 174.466 152.3 176.349 152.3C176.999 152.3 177.433 152.816 177.433 153.366Z" fill="#FF4D4F"/>
<path d="M169.317 130.333H159.1C158.183 130.333 157.433 131.083 157.433 132V137.833C157.433 140.6 155.2 142.833 152.433 142.833H147.433C146.517 142.833 145.767 143.583 145.767 144.5V155.55C145.767 160.033 149.4 163.667 153.883 163.667H161.917C162.833 163.667 163.583 162.917 163.583 162V156.767C163.583 152.933 166.767 149.817 170.683 149.817C171.567 149.8 173.717 149.8 175.767 149.8C176.683 149.8 177.433 149.067 177.433 148.133V138.45C177.433 133.967 173.8 130.333 169.317 130.333ZM156.133 155.35H151.733C151.05 155.35 150.483 154.783 150.483 154.1C150.483 153.4 151.05 152.833 151.733 152.833H156.133C156.85 152.833 157.383 153.4 157.383 154.1C157.383 154.783 156.85 155.35 156.133 155.35ZM160.783 149.167H151.733C151.05 149.167 150.483 148.6 150.483 147.917C150.483 147.217 151.05 146.65 151.733 146.65H160.783C161.467 146.65 162.05 147.217 162.05 147.917C162.05 148.6 161.467 149.167 160.783 149.167Z" fill="#FFBAB7"/>
</g>
<g filter="url(#filter1_d_9010_1213)">
<rect x="283.2" y="111" width="195.2" height="116" rx="8" fill="white" shape-rendering="crispEdges"/>
<g clip-path="url(#clip0_9010_1213)">
<path d="M365.579 139.585C368.471 140.583 372.304 141.132 376.372 141.132C380.441 141.132 384.274 140.583 387.165 139.585C390.247 138.523 391.944 137.032 391.944 135.387C391.944 133.742 390.247 132.251 387.165 131.189C384.274 130.192 380.441 129.642 376.372 129.642C372.304 129.642 368.471 130.192 365.579 131.189C362.497 132.251 360.8 133.742 360.8 135.387C360.8 137.032 362.497 138.523 365.579 139.585Z" fill="#FF4D4F"/>
<path d="M393.495 148.481H389.146C388.515 148.481 388.001 148.994 388.001 149.625V149.854C388.001 150.485 388.515 150.999 389.146 150.999H393.495C394.127 150.999 394.64 150.485 394.64 149.854V149.625C394.64 148.994 394.127 148.481 393.495 148.481Z" fill="#FF4D4F"/>
<path d="M400.8 149.556C400.8 144.383 396.591 140.174 391.418 140.174C388.478 140.174 385.851 141.533 384.129 143.656C381.735 144.093 379.094 144.322 376.372 144.322C371.913 144.322 367.675 143.707 364.44 142.592C363.477 142.26 363.252 142.167 362.932 142.003C362.588 141.824 362.268 141.733 361.981 141.733C361.358 141.733 360.975 142.149 360.873 142.562C360.825 142.755 360.8 142.951 360.8 143.146C360.8 144.791 362.498 146.282 365.579 147.345C368.471 148.342 372.304 148.891 376.372 148.891C378.342 148.891 380.286 148.758 382.095 148.505C382.057 148.85 382.035 149.201 382.035 149.556C382.035 150.269 382.117 150.963 382.269 151.63C380.384 151.879 378.409 152.006 376.372 152.006C371.913 152.006 367.675 151.391 364.439 150.276C363.477 149.944 363.252 149.852 362.932 149.688C362.588 149.508 362.268 149.417 361.981 149.417C361.358 149.417 360.975 149.833 360.872 150.247C360.825 150.439 360.8 150.635 360.8 150.83C360.8 152.475 362.498 153.966 365.579 155.029C368.471 156.026 372.304 156.575 376.372 156.575C379.214 156.575 382.004 156.297 384.407 155.783C385.34 156.832 386.502 157.671 387.816 158.219C384.648 159.232 380.611 159.789 376.372 159.789C371.913 159.789 367.675 159.174 364.439 158.058C363.477 157.726 363.252 157.634 362.932 157.47C362.588 157.291 362.268 157.199 361.981 157.199C361.358 157.199 360.975 157.616 360.872 158.029C360.825 158.222 360.8 158.418 360.8 158.613C360.8 160.258 362.497 161.749 365.579 162.811C368.471 163.809 372.304 164.358 376.372 164.358C380.441 164.358 384.274 163.809 387.165 162.811C390.051 161.816 391.723 160.446 391.924 158.925C396.863 158.661 400.8 154.56 400.8 149.556ZM391.418 155.505C388.137 155.505 385.469 152.837 385.469 149.556C385.469 146.276 388.137 143.607 391.418 143.607C394.698 143.607 397.367 146.276 397.367 149.556C397.367 152.837 394.698 155.505 391.418 155.505Z" fill="#FFBAB7"/>
</g>
</g>
<g filter="url(#filter2_d_9010_1213)">
<rect x="502.4" y="111" width="195.2" height="116" rx="8" fill="white" shape-rendering="crispEdges"/>
<path d="M608.333 133.667H591.667C586.667 133.667 583.333 136.167 583.333 142V147.933C583.333 148.55 583.967 148.933 584.517 148.683C586.15 147.933 588.033 147.65 590.017 148C594.4 148.783 597.617 152.85 597.5 157.3C597.483 158 597.383 158.683 597.2 159.35C597.067 159.867 597.483 160.35 598.017 160.35H608.333C613.333 160.35 616.667 157.85 616.667 152.017V142C616.667 136.167 613.333 133.667 608.333 133.667ZM600 151.167C597.7 151.167 595.833 149.3 595.833 147C595.833 144.7 597.7 142.833 600 142.833C602.3 142.833 604.167 144.7 604.167 147C604.167 149.3 602.3 151.167 600 151.167ZM612.083 150.333C612.083 151.017 611.517 151.583 610.833 151.583C610.15 151.583 609.583 151.017 609.583 150.333V143.667C609.583 142.983 610.15 142.417 610.833 142.417C611.517 142.417 612.083 142.983 612.083 143.667V150.333Z" fill="#FFBAB7"/>
<path d="M588.333 150.333C586.333 150.333 584.55 151.217 583.333 152.6C582.3 153.783 581.667 155.317 581.667 157C581.667 158.25 582.017 159.433 582.633 160.433C583.783 162.367 585.9 163.667 588.333 163.667C590.017 163.667 591.55 163.05 592.717 162C593.233 161.567 593.683 161.033 594.033 160.433C594.65 159.433 595 158.25 595 157C595 153.317 592.017 150.333 588.333 150.333ZM591 159.633C590.75 159.883 590.433 160 590.117 160C589.8 160 589.483 159.883 589.233 159.633L588.35 158.75L587.433 159.667C587.183 159.917 586.867 160.033 586.55 160.033C586.233 160.033 585.917 159.917 585.667 159.667C585.183 159.183 585.183 158.383 585.667 157.9L586.583 156.983L585.7 156.1C585.217 155.617 585.217 154.817 585.7 154.333C586.183 153.85 586.983 153.85 587.467 154.333L588.35 155.217L589.183 154.383C589.667 153.9 590.467 153.9 590.95 154.383C591.433 154.867 591.433 155.667 590.95 156.15L590.117 156.983L591 157.867C591.483 158.35 591.483 159.133 591 159.633Z" fill="#FF4D4F"/>
</g>
<g filter="url(#filter3_d_9010_1213)">
<rect x="721.6" y="111" width="195.2" height="116" rx="8" fill="white" shape-rendering="crispEdges"/>
<g clip-path="url(#clip1_9010_1213)">
<path d="M813.168 159.76L810.904 162.024V157.497L813.168 159.76Z" fill="white"/>
<path d="M816.824 163.416H812.297L814.56 161.153L816.824 163.416Z" fill="white"/>
<path d="M818.216 157.497V162.024L815.953 159.76L818.216 157.497Z" fill="white"/>
<path d="M816.824 156.104L814.56 158.368L812.297 156.104H816.824Z" fill="white"/>
<path d="M822.449 159.76L820.185 162.024V157.497L822.449 159.76Z" fill="white"/>
<path d="M826.105 163.416H821.578L823.84 161.153L826.105 163.416Z" fill="white"/>
<path d="M827.496 157.497V162.024L825.233 159.76L827.496 157.497Z" fill="white"/>
<path d="M826.105 156.104L823.84 158.368L821.578 156.104H826.105Z" fill="white"/>
<path d="M822.449 150.48L820.185 152.744V148.217L822.449 150.48Z" fill="white"/>
<path d="M826.105 154.136H821.578L823.84 151.873L826.105 154.136Z" fill="white"/>
<path d="M827.496 148.217V152.744L825.233 150.48L827.496 148.217Z" fill="white"/>
<path d="M826.105 146.824L823.84 149.088L821.578 146.824H826.105Z" fill="white"/>
<path d="M836.355 139.749V162.995H834.527V141.2C834.527 140.424 833.898 139.794 833.12 139.794H805.28C804.505 139.794 803.874 140.424 803.874 141.2V162.995H802.047V139.749L819.2 131.172L836.355 139.749Z" fill="#FFBAB7"/>
<path d="M839.167 138.881V164.4C839.167 165.177 838.537 165.806 837.762 165.806H833.12C832.344 165.806 831.715 165.177 831.715 164.4V142.606H806.687V164.4C806.687 165.177 806.057 165.806 805.28 165.806H800.64C799.864 165.806 799.234 165.177 799.234 164.4V138.881C799.234 138.348 799.535 137.86 800.011 137.622L818.572 128.342C818.968 128.144 819.434 128.144 819.83 128.342L838.39 137.622C838.867 137.86 839.167 138.348 839.167 138.881ZM836.355 162.995V139.749L819.2 131.172L802.047 139.749V162.995H803.874V141.2C803.874 140.424 804.504 139.794 805.28 139.794H833.12C833.897 139.794 834.527 140.424 834.527 141.2V162.995H836.355Z" fill="#FFBAB7"/>
<path d="M829.464 145.84V164.4C829.464 164.944 829.025 165.385 828.48 165.385H809.92C809.377 165.385 808.936 164.944 808.936 164.4V155.12C808.936 154.577 809.377 154.136 809.92 154.136H818.216V145.84C818.216 145.297 818.657 144.856 819.2 144.856H828.48C829.025 144.856 829.464 145.297 829.464 145.84ZM827.496 162.024V157.497L825.233 159.76L827.496 162.024ZM827.496 152.744V148.217L825.233 150.48L827.496 152.744ZM823.84 149.088L826.104 146.824H821.577L823.84 149.088ZM823.84 158.368L826.104 156.104H821.577L823.84 158.368ZM821.577 154.136H826.104L823.84 151.873L821.577 154.136ZM821.577 163.416H826.104L823.84 161.153L821.577 163.416ZM820.184 152.744L822.449 150.48L820.184 148.217V152.744ZM820.184 162.024L822.449 159.76L820.184 157.497V162.024ZM818.216 162.024V157.497L815.953 159.76L818.216 162.024ZM814.56 158.368L816.824 156.104H812.297L814.56 158.368ZM812.297 163.416H816.824L814.56 161.153L812.297 163.416ZM810.904 162.024L813.169 159.76L810.904 157.497V162.024Z" fill="#FF4D4F"/>
</g>
</g>
<g filter="url(#filter4_d_9010_1213)">
<rect x="940.8" y="111" width="195.2" height="116" rx="8" fill="white" shape-rendering="crispEdges"/>
<path d="M1047.73 135.852L1038.32 130.785C1037.32 130.252 1036.13 130.252 1035.13 130.785L1025.73 135.852C1025.05 136.235 1024.62 136.969 1024.62 137.769C1024.62 138.585 1025.03 139.319 1025.73 139.685L1035.15 144.752C1035.65 145.019 1036.2 145.152 1036.73 145.152C1037.27 145.152 1037.83 145.019 1038.32 144.752L1047.73 139.685C1048.42 139.319 1048.85 138.585 1048.85 137.769C1048.85 136.969 1048.42 136.235 1047.73 135.852Z" fill="#FF4D4F"/>
<path d="M1033.6 146.518L1024.85 142.151C1024.17 141.801 1023.4 141.851 1022.75 142.234C1022.12 142.634 1021.73 143.318 1021.73 144.068V152.334C1021.73 153.768 1022.53 155.051 1023.82 155.701L1032.57 160.068C1032.87 160.218 1033.2 160.301 1033.53 160.301C1033.92 160.301 1034.32 160.184 1034.67 159.984C1035.3 159.584 1035.68 158.901 1035.68 158.151V149.884C1035.67 148.451 1034.87 147.168 1033.6 146.518Z" fill="#FFBAB7"/>
<path d="M1051.73 144.068V148.168C1050.93 147.934 1050.08 147.834 1049.23 147.834C1046.97 147.834 1044.75 148.618 1043 150.018C1040.6 151.901 1039.23 154.751 1039.23 157.834C1039.23 158.651 1039.33 159.468 1039.55 160.251C1039.3 160.218 1039.05 160.118 1038.82 159.968C1038.18 159.584 1037.8 158.901 1037.8 158.151V149.884C1037.8 148.451 1038.6 147.168 1039.87 146.518L1048.62 142.151C1049.3 141.801 1050.07 141.851 1050.72 142.234C1051.35 142.634 1051.73 143.318 1051.73 144.068Z" fill="#FFBAB7"/>
<path d="M1054.54 152.534C1053.05 151.051 1051.09 150.301 1049.14 150.334C1047.25 150.351 1045.37 151.101 1043.94 152.534C1042.94 153.518 1042.29 154.751 1041.97 156.034C1041.79 156.734 1041.72 157.451 1041.77 158.168V158.251C1041.77 158.368 1041.79 158.468 1041.8 158.601C1041.8 158.601 1041.8 158.601 1041.82 158.618V158.668C1041.97 160.301 1042.67 161.884 1043.94 163.134C1045.87 165.068 1048.59 165.718 1051.04 165.101C1051.77 164.918 1052.49 164.618 1053.15 164.218C1053.65 163.934 1054.12 163.568 1054.54 163.134C1055.79 161.884 1056.5 160.301 1056.65 158.651C1056.67 158.651 1056.67 158.618 1056.67 158.601C1056.7 158.484 1056.7 158.351 1056.7 158.234C1056.7 158.218 1056.72 158.184 1056.72 158.151C1056.82 156.134 1056.09 154.068 1054.54 152.534ZM1052.12 160.684C1051.64 161.168 1050.85 161.168 1050.35 160.684L1049.25 159.584L1048.12 160.718C1047.62 161.218 1046.84 161.218 1046.35 160.718C1045.85 160.234 1045.85 159.451 1046.35 158.951L1047.49 157.818L1046.39 156.718C1045.9 156.218 1045.9 155.434 1046.39 154.951C1046.89 154.451 1047.67 154.451 1048.17 154.951L1049.25 156.051L1050.3 154.984C1050.8 154.501 1051.59 154.501 1052.09 154.984C1052.57 155.484 1052.57 156.268 1052.09 156.768L1051.02 157.818L1052.12 158.901C1052.62 159.401 1052.62 160.184 1052.12 160.684Z" fill="#FF4D4F"/>
</g>
<path d="M598 15.9577C597.998 15.7685 598.216 15.6142 598.487 15.6128C598.757 15.6107 598.979 15.7629 598.981 15.952L598 15.9577ZM598.989 16.6304C598.991 16.8195 598.773 16.9746 598.502 16.976C598.23 16.9774 598.009 16.8259 598.007 16.6368L598.989 16.6304ZM598.021 17.9943C598.019 17.8058 598.238 17.6508 598.509 17.6494C598.78 17.648 599.001 17.7994 599.003 17.9886L598.021 17.9943ZM599.017 19.346C599.019 19.5352 598.801 19.6895 598.531 19.6916C598.26 19.6931 598.039 19.5409 598.037 19.3524L599.017 19.346ZM598.051 20.7099C598.049 20.5208 598.267 20.3665 598.538 20.365C598.808 20.3629 599.03 20.5151 599.032 20.7042L598.051 20.7099ZM599.047 22.0617C599.049 22.2509 598.831 22.4052 598.56 22.4066C598.289 22.4087 598.067 22.2565 598.065 22.0674L599.047 22.0617ZM598.081 23.4256C598.079 23.2364 598.296 23.0821 598.567 23.08C598.838 23.0786 599.059 23.2307 599.061 23.4192L598.081 23.4256ZM599.075 24.7774C599.077 24.9658 598.859 25.1208 598.589 25.1222C598.318 25.1237 598.097 24.9722 598.095 24.7831L599.075 24.7774ZM598.109 26.1412C598.107 25.9521 598.325 25.7971 598.596 25.7957C598.867 25.7942 599.089 25.9457 599.091 26.1348L598.109 26.1412ZM599.105 27.4923C599.107 27.6815 598.889 27.8365 598.618 27.8379C598.348 27.8393 598.125 27.6879 598.123 27.4987L599.105 27.4923ZM598.139 28.8562C598.137 28.6678 598.355 28.5127 598.625 28.5113C598.896 28.5099 599.117 28.6614 599.119 28.8505L598.139 28.8562ZM599.134 30.208C599.136 30.3971 598.918 30.5514 598.647 30.5536C598.376 30.555 598.155 30.4028 598.153 30.2144L599.134 30.208ZM598.167 31.5719C598.165 31.3827 598.383 31.2284 598.654 31.227C598.926 31.2248 599.147 31.377 599.149 31.5662L598.167 31.5719ZM599.163 32.9236C599.165 33.1128 598.947 33.2671 598.676 33.2685C598.406 33.2707 598.185 33.1185 598.182 32.9293L599.163 32.9236ZM598.197 34.2875C598.195 34.0984 598.413 33.9441 598.683 33.9419C598.954 33.9405 599.175 34.0927 599.177 34.2811L598.197 34.2875ZM599.193 35.6393C599.195 35.8285 598.977 35.9828 598.705 35.9842C598.434 35.9863 598.213 35.8341 598.211 35.645L599.193 35.6393ZM598.225 37.0032C598.223 36.814 598.441 36.6597 598.713 36.6576C598.984 36.6562 599.205 36.8076 599.207 36.9968L598.225 37.0032ZM599.221 38.355C599.223 38.5434 599.005 38.6984 598.735 38.6998C598.464 38.7013 598.243 38.5498 598.241 38.3607L599.221 38.355ZM598.255 39.7181C598.253 39.5297 598.471 39.3747 598.742 39.3732C599.012 39.3718 599.233 39.5233 599.235 39.7124L598.255 39.7181ZM599.251 41.0699C599.253 41.2591 599.035 41.4134 598.764 41.4155C598.492 41.4169 598.271 41.2648 598.269 41.0763L599.251 41.0699ZM598.284 42.4338C598.282 42.2446 598.5 42.0903 598.771 42.0889C599.042 42.0868 599.263 42.2389 599.265 42.4281L598.284 42.4338ZM599.279 43.7856C599.281 43.9747 599.063 44.129 598.793 44.1305C598.522 44.1326 598.301 43.9804 598.299 43.7913L599.279 43.7856ZM598.313 45.1494C598.311 44.9603 598.529 44.806 598.8 44.8039C599.071 44.8024 599.293 44.9546 599.295 45.143L598.313 45.1494ZM599.309 46.5012C599.311 46.6904 599.093 46.8447 598.822 46.8461C598.551 46.8482 598.329 46.6961 598.327 46.5069L599.309 46.5012ZM598.343 47.8651C598.34 47.676 598.559 47.5217 598.829 47.5195C599.1 47.5181 599.321 47.6696 599.323 47.8587L598.343 47.8651ZM599.337 49.2169C599.339 49.4053 599.122 49.5603 598.851 49.5618C598.58 49.5632 598.359 49.4117 598.357 49.2226L599.337 49.2169ZM598.371 50.58C598.369 50.3916 598.587 50.2366 598.858 50.2352C599.129 50.2338 599.351 50.3852 599.353 50.5744L598.371 50.58ZM599.367 51.9318C599.369 52.121 599.151 52.2753 598.88 52.2774C598.61 52.2789 598.388 52.1274 598.386 51.9382L599.367 51.9318ZM598.401 53.2957C598.399 53.1066 598.617 52.9523 598.887 52.9508C599.158 52.9487 599.379 53.1009 599.381 53.29L598.401 53.2957ZM599.397 54.6475C599.399 54.8366 599.18 54.991 598.909 54.9924C598.638 54.9945 598.417 54.8423 598.415 54.6539L599.397 54.6475ZM598.429 56.0114C598.427 55.8222 598.645 55.6679 598.916 55.6658C599.188 55.6644 599.409 55.8165 599.411 56.005L598.429 56.0114ZM599.425 57.3632C599.427 57.5523 599.209 57.7066 598.939 57.708C598.668 57.7102 598.446 57.558 598.444 57.3689L599.425 57.3632ZM598.459 58.727C598.457 58.5379 598.675 58.3836 598.946 58.3814C599.216 58.38 599.437 58.5315 599.439 58.7206L598.459 58.727ZM599.455 60.0788C599.457 60.2673 599.239 60.4223 598.967 60.4237C598.696 60.4251 598.475 60.2737 598.473 60.0845L599.455 60.0788ZM598.488 61.442C598.486 61.2535 598.703 61.0985 598.975 61.0971C599.246 61.0957 599.467 61.2472 599.469 61.4363L598.488 61.442ZM599.483 62.7938C599.485 62.9829 599.267 63.1372 598.997 63.1394C598.726 63.1408 598.505 62.9893 598.503 62.8002L599.483 62.7938ZM598.517 64.1576C598.515 63.9685 598.733 63.8142 599.004 63.8128C599.275 63.8106 599.496 63.9628 599.498 64.152L598.517 64.1576ZM599.513 65.5094C599.515 65.6986 599.297 65.8529 599.026 65.855C598.755 65.8564 598.533 65.7043 598.531 65.5158L599.513 65.5094ZM598.546 66.8733C598.544 66.6842 598.762 66.5298 599.033 66.5284C599.304 66.5263 599.525 66.6785 599.527 66.8669L598.546 66.8733ZM599.541 68.2251C599.543 68.4142 599.326 68.5686 599.055 68.57C598.784 68.5721 598.563 68.4199 598.561 68.2308L599.541 68.2251ZM598.575 69.589C598.573 69.3998 598.791 69.2455 599.062 69.2434C599.333 69.2419 599.555 69.3934 599.557 69.5826L598.575 69.589ZM599.571 70.9408C599.573 71.1292 599.355 71.2842 599.084 71.2856C598.813 71.2871 598.592 71.1356 598.59 70.9464L599.571 70.9408ZM598.605 72.3039C598.602 72.1155 598.821 71.9605 599.091 71.959C599.362 71.9576 599.583 72.1091 599.585 72.2982L598.605 72.3039ZM599.6 73.6557C599.602 73.8448 599.384 73.9992 599.113 74.0013C598.842 74.0027 598.621 73.8513 598.619 73.6621L599.6 73.6557ZM598.633 75.0196C598.631 74.8304 598.849 74.6761 599.12 74.6747C599.391 74.6726 599.613 74.8247 599.615 75.0139L598.633 75.0196ZM599.629 76.3714C599.631 76.5605 599.413 76.7148 599.143 76.717C598.872 76.7184 598.65 76.5662 598.648 76.3778L599.629 76.3714ZM598.663 77.7352C598.661 77.5461 598.879 77.3918 599.15 77.3904C599.42 77.3882 599.641 77.5404 599.643 77.7295L598.663 77.7352ZM599.659 79.087C599.661 79.2762 599.442 79.4305 599.171 79.4319C598.9 79.434 598.679 79.2819 598.677 79.0927L599.659 79.087ZM598.692 80.4509C598.69 80.2617 598.907 80.1074 599.178 80.1053C599.45 80.1039 599.671 80.2561 599.673 80.4445L598.692 80.4509ZM599.687 81.8027C599.689 81.9911 599.471 82.1461 599.201 82.1476C598.93 82.149 598.708 81.9975 598.706 81.8084L599.687 81.8027ZM598.721 83.1666C598.719 82.9774 598.937 82.8224 599.208 82.821C599.479 82.8195 599.7 82.971 599.702 83.1602L598.721 83.1666ZM599.717 84.5176C599.719 84.7068 599.501 84.8618 599.229 84.8632C598.959 84.8647 598.737 84.7132 598.735 84.524L599.717 84.5176ZM598.75 85.8815C598.748 85.6931 598.966 85.5381 599.237 85.5366C599.508 85.5352 599.729 85.6867 599.731 85.8758L598.75 85.8815ZM599.745 87.2333C599.747 87.4224 599.53 87.5768 599.259 87.5789C598.988 87.5803 598.767 87.4281 598.765 87.2397L599.745 87.2333ZM598.779 88.5972C598.777 88.408 598.995 88.2537 599.266 88.2523C599.537 88.2502 599.758 88.4023 599.76 88.5915L598.779 88.5972ZM599.775 89.9489C599.777 90.1381 599.559 90.2924 599.287 90.2938C599.017 90.296 598.796 90.1438 598.794 89.9546L599.775 89.9489ZM598.808 91.3128C598.806 91.1237 599.024 90.9694 599.295 90.9672C599.566 90.9658 599.787 91.118 599.789 91.3064L598.808 91.3128ZM599.804 92.6646C599.806 92.853 599.588 93.0081 599.317 93.0095C599.046 93.0109 598.825 92.8594 598.823 92.6703L599.804 92.6646ZM598.837 94.0285C598.835 93.8393 599.053 93.685 599.324 93.6829C599.595 93.6815 599.817 93.8329 599.819 94.0221L598.837 94.0285ZM599.833 95.3803C599.835 95.5687 599.617 95.7237 599.347 95.7252C599.075 95.7266 598.854 95.5751 598.852 95.386L599.833 95.3803ZM598.866 96.7434C598.864 96.555 599.083 96.4 599.354 96.3986C599.624 96.3971 599.845 96.5486 599.847 96.7377L598.866 96.7434ZM599.862 98.0952C599.864 98.2844 599.646 98.4387 599.375 98.4408C599.104 98.4422 598.883 98.2901 598.881 98.1016L599.862 98.0952ZM598.896 99.4591C598.894 99.27 599.111 99.1156 599.382 99.1142C599.653 99.1121 599.875 99.2642 599.877 99.4534L598.896 99.4591ZM599.891 100.811C599.893 101 599.675 101.154 599.405 101.156C599.134 101.158 598.912 101.006 598.91 100.817L599.891 100.811ZM598.925 102.175C598.923 101.986 599.141 101.831 599.412 101.829C599.683 101.828 599.904 101.98 599.906 102.168L598.925 102.175ZM599.92 103.527C599.923 103.716 599.704 103.87 599.433 103.871C599.163 103.874 598.941 103.721 598.939 103.532L599.92 103.527ZM598.954 104.89C598.952 104.701 599.17 104.547 599.44 104.545C599.712 104.543 599.933 104.695 599.935 104.884L598.954 104.89ZM599.949 106.242C599.951 106.431 599.734 106.586 599.463 106.587C599.192 106.589 598.97 106.437 598.968 106.248L599.949 106.242ZM598.983 107.605C598.981 107.417 599.199 107.262 599.47 107.26C599.741 107.259 599.962 107.411 599.964 107.6L598.983 107.605ZM599.979 108.957C599.981 109.146 599.762 109.301 599.491 109.303C599.221 109.304 599 109.153 598.998 108.964L599.979 108.957ZM599.012 110.321C599.01 110.132 599.228 109.978 599.498 109.976C599.77 109.974 599.991 110.126 599.993 110.315L599.012 110.321ZM598.981 15.952L598.989 16.6304L598.007 16.6368L598 15.9577L598.981 15.952ZM599.003 17.9886L599.017 19.346L598.037 19.3524L598.021 17.9943L599.003 17.9886ZM599.032 20.7042L599.047 22.0617L598.065 22.0674L598.051 20.7099L599.032 20.7042ZM599.061 23.4192L599.075 24.7774L598.095 24.7831L598.081 23.4256L599.061 23.4192ZM599.091 26.1348L599.105 27.4923L598.123 27.4987L598.109 26.1412L599.091 26.1348ZM599.119 28.8505L599.134 30.208L598.153 30.2144L598.139 28.8562L599.119 28.8505ZM599.149 31.5662L599.163 32.9236L598.182 32.9293L598.167 31.5719L599.149 31.5662ZM599.177 34.2811L599.193 35.6393L598.211 35.645L598.197 34.2875L599.177 34.2811ZM599.207 36.9968L599.221 38.355L598.241 38.3607L598.225 37.0032L599.207 36.9968ZM599.235 39.7124L599.251 41.0699L598.269 41.0763L598.255 39.7181L599.235 39.7124ZM599.265 42.4281L599.279 43.7856L598.299 43.7913L598.284 42.4338L599.265 42.4281ZM599.295 45.143L599.309 46.5012L598.327 46.5069L598.313 45.1494L599.295 45.143ZM599.323 47.8587L599.337 49.2169L598.357 49.2226L598.343 47.8651L599.323 47.8587ZM599.353 50.5744L599.367 51.9318L598.386 51.9382L598.371 50.58L599.353 50.5744ZM599.381 53.29L599.397 54.6475L598.415 54.6539L598.401 53.2957L599.381 53.29ZM599.411 56.005L599.425 57.3632L598.444 57.3689L598.429 56.0114L599.411 56.005ZM599.439 58.7206L599.455 60.0788L598.473 60.0845L598.459 58.727L599.439 58.7206ZM599.469 61.4363L599.483 62.7938L598.503 62.8002L598.488 61.442L599.469 61.4363ZM599.498 64.152L599.513 65.5094L598.531 65.5158L598.517 64.1576L599.498 64.152ZM599.527 66.8669L599.541 68.2251L598.561 68.2308L598.546 66.8733L599.527 66.8669ZM599.557 69.5826L599.571 70.9408L598.59 70.9464L598.575 69.589L599.557 69.5826ZM599.585 72.2982L599.6 73.6557L598.619 73.6621L598.605 72.3039L599.585 72.2982ZM599.615 75.0139L599.629 76.3714L598.648 76.3778L598.633 75.0196L599.615 75.0139ZM599.643 77.7295L599.659 79.087L598.677 79.0927L598.663 77.7352L599.643 77.7295ZM599.673 80.4445L599.687 81.8027L598.706 81.8084L598.692 80.4509L599.673 80.4445ZM599.702 83.1602L599.717 84.5176L598.735 84.524L598.721 83.1666L599.702 83.1602ZM599.731 85.8758L599.745 87.2333L598.765 87.2397L598.75 85.8815L599.731 85.8758ZM599.76 88.5915L599.775 89.9489L598.794 89.9546L598.779 88.5972L599.76 88.5915ZM599.789 91.3064L599.804 92.6646L598.823 92.6703L598.808 91.3128L599.789 91.3064ZM599.819 94.0221L599.833 95.3803L598.852 95.386L598.837 94.0285L599.819 94.0221ZM599.847 96.7377L599.862 98.0952L598.881 98.1016L598.866 96.7434L599.847 96.7377ZM599.877 99.4534L599.891 100.811L598.91 100.817L598.896 99.4591L599.877 99.4534ZM599.906 102.168L599.92 103.527L598.939 103.532L598.925 102.175L599.906 102.168ZM599.935 104.884L599.949 106.242L598.968 106.248L598.954 104.89L599.935 104.884ZM599.964 107.6L599.979 108.957L598.998 108.964L598.983 107.605L599.964 107.6ZM599.993 110.315L600 110.994L599.019 111L599.012 110.321L599.993 110.315Z" fill="#F5222D"/>
<path d="M575 6C391.191 8.09991 241.877 40.0186 162 111" stroke="#F5222D" stroke-width="0.962406" stroke-linecap="round" stroke-dasharray="1.92 1.92"/>
<path d="M818 111C818 107.218 804.449 34.2882 616 17" stroke="#F5222D" stroke-width="0.962406" stroke-linecap="round" stroke-dasharray="1.92 1.92"/>
<path d="M622 6C807.205 8.13171 956.514 38.9385 1037 111" stroke="#F5222D" stroke-width="0.962406" stroke-linecap="round" stroke-dasharray="1.92 1.92"/>
<path d="M381 111C381 107.218 394.347 34.2882 580 17" stroke="#F5222D" stroke-width="0.962406" stroke-linecap="round" stroke-dasharray="1.92 1.92"/>
<defs>
<filter id="filter0_d_9010_1213" x="48" y="103" width="227.2" height="148" filterUnits="userSpaceOnUse" color-interpolation-filters="sRGB">
<feFlood flood-opacity="0" result="BackgroundImageFix"/>
<feColorMatrix in="SourceAlpha" type="matrix" values="0 0 0 0 0 0 0 0 0 0 0 0 0 0 0 0 0 0 127 0" result="hardAlpha"/>
<feOffset dy="8"/>
<feGaussianBlur stdDeviation="8"/>
<feComposite in2="hardAlpha" operator="out"/>
<feColorMatrix type="matrix" values="0 0 0 0 0 0 0 0 0 0 0 0 0 0 0 0 0 0 0.05 0"/>
<feBlend mode="normal" in2="BackgroundImageFix" result="effect1_dropShadow_9010_1213"/>
<feBlend mode="normal" in="SourceGraphic" in2="effect1_dropShadow_9010_1213" result="shape"/>
</filter>
<filter id="filter1_d_9010_1213" x="267.2" y="103" width="227.2" height="148" filterUnits="userSpaceOnUse" color-interpolation-filters="sRGB">
<feFlood flood-opacity="0" result="BackgroundImageFix"/>
<feColorMatrix in="SourceAlpha" type="matrix" values="0 0 0 0 0 0 0 0 0 0 0 0 0 0 0 0 0 0 127 0" result="hardAlpha"/>
<feOffset dy="8"/>
<feGaussianBlur stdDeviation="8"/>
<feComposite in2="hardAlpha" operator="out"/>
<feColorMatrix type="matrix" values="0 0 0 0 0 0 0 0 0 0 0 0 0 0 0 0 0 0 0.05 0"/>
<feBlend mode="normal" in2="BackgroundImageFix" result="effect1_dropShadow_9010_1213"/>
<feBlend mode="normal" in="SourceGraphic" in2="effect1_dropShadow_9010_1213" result="shape"/>
</filter>
<filter id="filter2_d_9010_1213" x="486.4" y="103" width="227.2" height="148" filterUnits="userSpaceOnUse" color-interpolation-filters="sRGB">
<feFlood flood-opacity="0" result="BackgroundImageFix"/>
<feColorMatrix in="SourceAlpha" type="matrix" values="0 0 0 0 0 0 0 0 0 0 0 0 0 0 0 0 0 0 127 0" result="hardAlpha"/>
<feOffset dy="8"/>
<feGaussianBlur stdDeviation="8"/>
<feComposite in2="hardAlpha" operator="out"/>
<feColorMatrix type="matrix" values="0 0 0 0 0 0 0 0 0 0 0 0 0 0 0 0 0 0 0.05 0"/>
<feBlend mode="normal" in2="BackgroundImageFix" result="effect1_dropShadow_9010_1213"/>
<feBlend mode="normal" in="SourceGraphic" in2="effect1_dropShadow_9010_1213" result="shape"/>
</filter>
<filter id="filter3_d_9010_1213" x="705.6" y="103" width="227.2" height="148" filterUnits="userSpaceOnUse" color-interpolation-filters="sRGB">
<feFlood flood-opacity="0" result="BackgroundImageFix"/>
<feColorMatrix in="SourceAlpha" type="matrix" values="0 0 0 0 0 0 0 0 0 0 0 0 0 0 0 0 0 0 127 0" result="hardAlpha"/>
<feOffset dy="8"/>
<feGaussianBlur stdDeviation="8"/>
<feComposite in2="hardAlpha" operator="out"/>
<feColorMatrix type="matrix" values="0 0 0 0 0 0 0 0 0 0 0 0 0 0 0 0 0 0 0.05 0"/>
<feBlend mode="normal" in2="BackgroundImageFix" result="effect1_dropShadow_9010_1213"/>
<feBlend mode="normal" in="SourceGraphic" in2="effect1_dropShadow_9010_1213" result="shape"/>
</filter>
<filter id="filter4_d_9010_1213" x="924.8" y="103" width="227.2" height="148" filterUnits="userSpaceOnUse" color-interpolation-filters="sRGB">
<feFlood flood-opacity="0" result="BackgroundImageFix"/>
<feColorMatrix in="SourceAlpha" type="matrix" values="0 0 0 0 0 0 0 0 0 0 0 0 0 0 0 0 0 0 127 0" result="hardAlpha"/>
<feOffset dy="8"/>
<feGaussianBlur stdDeviation="8"/>
<feComposite in2="hardAlpha" operator="out"/>
<feColorMatrix type="matrix" values="0 0 0 0 0 0 0 0 0 0 0 0 0 0 0 0 0 0 0.05 0"/>
<feBlend mode="normal" in2="BackgroundImageFix" result="effect1_dropShadow_9010_1213"/>
<feBlend mode="normal" in="SourceGraphic" in2="effect1_dropShadow_9010_1213" result="shape"/>
</filter>
<clipPath id="clip0_9010_1213">
<rect width="40" height="40" fill="white" transform="translate(360.8 127)"/>
</clipPath>
<clipPath id="clip1_9010_1213">
<rect width="40" height="40" fill="white" transform="translate(799.2 127)"/>
</clipPath>
</defs>
</svg>
