<svg width="1920" height="928" viewBox="0 0 1920 928" fill="none" xmlns="http://www.w3.org/2000/svg">
<g clip-path="url(#clip0_1467_8296)">
<rect width="1920" height="928" fill="#162544"/>
<g filter="url(#filter0_f_1467_8296)">
<rect x="583" y="367" width="655" height="377" fill="url(#paint0_linear_1467_8296)"/>
</g>
<g opacity="0.2">
<path d="M1.38464 839.692L1.37738 839.7L1.37 839.708C-9.78986 852.148 -9.78986 869.886 1.37 882.325L1.37738 882.333L1.38464 882.342L149.849 1055.4L149.85 1055.41L220.923 1138.71C220.927 1138.71 220.931 1138.72 220.934 1138.72C229.114 1147.67 240.345 1153.03 253.642 1153.03H483.656C500.562 1153.03 513.815 1144.52 520.296 1133.16C526.765 1121.83 526.514 1107.65 516.361 1096.09L516.353 1096.08L334.448 883.661C334.445 883.658 334.443 883.655 334.44 883.652C322.609 870.456 322.609 851.578 334.44 838.381C334.443 838.379 334.445 838.376 334.448 838.373L516.353 625.953L516.353 625.953L516.361 625.943C526.514 614.384 526.765 600.202 520.296 588.87C513.815 577.518 500.562 569 483.656 569H253.642C240.346 569 229.114 574.364 220.935 583.313L149.85 666.627L149.849 666.629L1.38464 839.692Z" stroke="url(#paint1_linear_1467_8296)" stroke-width="2"/>
<path d="M-168.615 968.692L-168.623 968.7L-168.63 968.708C-179.79 981.148 -179.79 998.886 -168.63 1011.33L-168.623 1011.33L-168.615 1011.34L-20.1515 1184.4L-20.1497 1184.41L50.9232 1267.71C50.9269 1267.71 50.9306 1267.72 50.9343 1267.72C59.114 1276.67 70.3453 1282.03 83.6415 1282.03H313.656C330.562 1282.03 343.815 1273.52 350.296 1262.16C356.765 1250.83 356.514 1236.65 346.361 1225.09L346.353 1225.08L164.448 1012.66C164.445 1012.66 164.443 1012.65 164.44 1012.65C152.609 999.456 152.609 980.578 164.44 967.381C164.443 967.379 164.445 967.376 164.448 967.373L346.353 754.953L346.353 754.953L346.361 754.943C356.514 743.384 356.765 729.202 350.296 717.87C343.815 706.518 330.562 698 313.656 698H83.6415C70.3456 698 59.1143 703.364 50.9347 712.313L-20.1497 795.627L-20.1515 795.629L-168.615 968.692Z" stroke="url(#paint2_linear_1467_8296)" stroke-width="2"/>
<path d="M26.3846 930.692L26.3774 930.7L26.37 930.708C15.2101 943.148 15.2101 960.886 26.37 973.325L26.3774 973.333L26.3846 973.342L174.849 1146.4L174.85 1146.41L245.923 1229.71C245.927 1229.71 245.931 1229.72 245.934 1229.72C254.114 1238.67 265.345 1244.03 278.642 1244.03H508.656C525.562 1244.03 538.815 1235.52 545.296 1224.16C551.765 1212.83 551.514 1198.65 541.361 1187.09L541.353 1187.08L359.448 974.661C359.445 974.658 359.443 974.655 359.44 974.652C347.609 961.456 347.609 942.578 359.44 929.381C359.443 929.379 359.445 929.376 359.448 929.373L541.353 716.953L541.353 716.953L541.361 716.943C551.514 705.384 551.765 691.202 545.296 679.87C538.815 668.518 525.562 660 508.656 660H278.642C265.346 660 254.114 665.364 245.935 674.313L174.85 757.627L174.849 757.629L26.3846 930.692Z" stroke="#A2A9B0" stroke-width="2"/>
</g>
</g>
<defs>
<filter id="filter0_f_1467_8296" x="183" y="-33" width="1455" height="1177" filterUnits="userSpaceOnUse" color-interpolation-filters="sRGB">
<feFlood flood-opacity="0" result="BackgroundImageFix"/>
<feBlend mode="normal" in="SourceGraphic" in2="BackgroundImageFix" result="shape"/>
<feGaussianBlur stdDeviation="200" result="effect1_foregroundBlur_1467_8296"/>
</filter>
<linearGradient id="paint0_linear_1467_8296" x1="583" y1="744" x2="1253.12" y2="723.333" gradientUnits="userSpaceOnUse">
<stop stop-color="#00194F"/>
<stop offset="0.838542" stop-color="#AF0000"/>
</linearGradient>
<linearGradient id="paint1_linear_1467_8296" x1="525.661" y1="1154.03" x2="-20.6939" y2="1145.2" gradientUnits="userSpaceOnUse">
<stop stop-color="#959DB9"/>
<stop offset="1" stop-color="#AF0000"/>
</linearGradient>
<linearGradient id="paint2_linear_1467_8296" x1="355.661" y1="1283.03" x2="-190.694" y2="1274.2" gradientUnits="userSpaceOnUse">
<stop stop-color="#959DB9"/>
<stop offset="1" stop-color="#AF0000"/>
</linearGradient>
<clipPath id="clip0_1467_8296">
<rect width="1920" height="928" fill="white"/>
</clipPath>
</defs>
</svg>
