<svg width="64" height="64" viewBox="0 0 64 64" fill="none" xmlns="http://www.w3.org/2000/svg">
<rect width="64" height="64" rx="32" fill="url(#paint0_linear_1448_8344)"/>
<path fill-rule="evenodd" clip-rule="evenodd" d="M44.8629 44.3082C45.027 44.5488 44.8547 44.875 44.5634 44.875H35.5348C35.4179 44.875 35.3082 44.8186 35.2401 44.7236L32.8668 41.41C32.7733 41.2794 32.7769 41.1029 32.8756 40.9761L37.7508 34.7208C37.9018 34.527 38.1977 34.5364 38.3361 34.7393L44.8629 44.3082Z" fill="white"/>
<path fill-rule="evenodd" clip-rule="evenodd" d="M42.7169 24.4505C43.0061 24.4505 43.1788 24.7725 43.019 25.0134L38.1905 32.2911C38.0487 32.5048 37.7359 32.5077 37.5902 32.2967L33.6963 26.659C33.5302 26.4185 33.7023 26.0905 33.9945 26.0905H38.7674C38.8891 26.0905 39.0027 26.0294 39.0698 25.928L39.9395 24.613C40.0066 24.5116 40.1201 24.4505 40.2418 24.4505H42.7169Z" fill="white"/>
<path fill-rule="evenodd" clip-rule="evenodd" d="M34.6741 24.0408C34.3208 24.5248 34.6735 25.2053 35.2727 25.1977C36.5952 25.1809 38.3513 25.1686 38.4387 25.22C38.522 25.2689 39.2954 24.2107 39.9155 23.3351C40.2526 22.859 39.91 22.2067 39.3267 22.2067H36.381C36.1495 22.2067 35.9319 22.3172 35.7954 22.5043L34.6741 24.0408Z" fill="white"/>
<path fill-rule="evenodd" clip-rule="evenodd" d="M39.027 20.2335C38.6617 20.726 39.0346 21.4255 39.6474 21.4056C40.7274 21.3707 41.9802 21.3549 41.9802 21.4696C41.9802 21.5772 42.4531 20.8933 42.8911 20.2368C43.2096 19.7593 42.8646 19.125 42.2907 19.125H40.2143C39.9848 19.125 39.7688 19.2337 39.632 19.418L39.027 20.2335Z" fill="white"/>
<path fill-rule="evenodd" clip-rule="evenodd" d="M41.2968 22.6257C41.4319 22.4275 41.6565 22.3084 41.8963 22.3084H43.1537C43.7386 22.3084 44.0827 22.9653 43.7497 23.4461L43.7325 23.4711C43.5943 23.6705 43.3656 23.7877 43.123 23.7832L41.8815 23.7603C41.3054 23.7496 40.9724 23.1019 41.2968 22.6257V22.6257Z" fill="white"/>
<path fill-rule="evenodd" clip-rule="evenodd" d="M43.9045 20.0334C44.0404 19.841 44.2613 19.7265 44.4969 19.7265H44.7071C45.2917 19.7265 45.6359 20.383 45.3034 20.8638L44.8622 21.5018C44.7268 21.6976 44.5039 21.8145 44.2659 21.8145H44.0466C43.4588 21.8145 43.1153 21.1517 43.4543 20.6714L43.9045 20.0334Z" fill="white"/>
<path fill-rule="evenodd" clip-rule="evenodd" d="M18.4843 22.7257C18.3043 22.4869 18.4747 22.1451 18.7738 22.1451H28.4246C28.5404 22.1451 28.6492 22.2004 28.7174 22.2939L36.7633 33.3208C36.8576 33.4501 36.856 33.6259 36.7593 33.7534L28.445 44.7236C28.3764 44.814 28.2695 44.8671 28.1561 44.8671H18.647C18.3462 44.8671 18.1762 44.5219 18.3598 44.2835L26.4643 33.7574C26.5638 33.6281 26.5647 33.4483 26.4665 33.3181L18.4843 22.7257Z" fill="white"/>
<defs>
<linearGradient id="paint0_linear_1448_8344" x1="-2.39916e-07" y1="64" x2="65.5188" y2="62.8369" gradientUnits="userSpaceOnUse">
<stop stop-color="#00194F"/>
<stop offset="0.838542" stop-color="#AF0000"/>
</linearGradient>
</defs>
</svg>
