<svg width="76" height="89" viewBox="0 0 76 89" fill="none" xmlns="http://www.w3.org/2000/svg">
<path d="M74.1105 88.5399H1.89864C1.62405 88.5399 1.3607 88.4308 1.16653 88.2367C0.972363 88.0425 0.863281 87.7792 0.863281 87.5046V1.47925C0.863281 1.35591 0.887575 1.23378 0.934775 1.11983C0.981975 1.00588 1.05116 0.902343 1.13837 0.815129C1.31451 0.638992 1.5534 0.540039 1.8025 0.540039H74.207C74.3304 0.540039 74.4525 0.564332 74.5665 0.611532C74.6804 0.658732 74.784 0.727914 74.8712 0.815129C74.9584 0.902343 75.0276 1.00588 75.0748 1.11983C75.122 1.23378 75.1463 1.35591 75.1463 1.47925V87.5044C75.1463 87.6404 75.1195 87.7751 75.0675 87.9007C75.0154 88.0264 74.9391 88.1406 74.8429 88.2367C74.7468 88.3329 74.6326 88.4092 74.5069 88.4612C74.3812 88.5132 74.2466 88.54 74.1105 88.5399Z" fill="#00194F"/>
<path d="M1.85192 88.5401H74.1377C74.2689 88.5401 74.3987 88.5143 74.5199 88.4642C74.641 88.414 74.7511 88.3405 74.8439 88.2478C74.9366 88.155 75.0102 88.045 75.0603 87.9238C75.1105 87.8027 75.1363 87.6728 75.1363 87.5417V20.0111L61.2449 6.11914H1.85192C1.58713 6.11914 1.33318 6.22433 1.14594 6.41157C0.958705 6.59881 0.853516 6.85276 0.853516 7.11755V87.5417C0.853469 87.6728 0.879261 87.8026 0.929419 87.9238C0.979577 88.045 1.05312 88.155 1.14584 88.2477C1.23856 88.3405 1.34864 88.414 1.46979 88.4642C1.59095 88.5143 1.7208 88.5401 1.85192 88.5401Z" fill="#1D39C4"/>
<path d="M22.6224 24.3371L22.6086 24.3507C19.7772 27.1824 15.1641 27.1824 12.3187 24.3371L12.2634 24.2819C9.48723 21.4368 9.50123 16.8648 12.3187 14.0334C15.1641 11.1881 19.7908 11.1881 22.6224 14.0334C25.4675 16.8786 25.4675 21.492 22.6224 24.3371Z" fill="#4DC1FF"/>
<path d="M22.6069 24.3504C19.7754 27.182 15.1624 27.182 12.317 24.3367L12.2617 24.2815C12.5932 23.0108 13.3114 21.8642 14.3335 20.9944L15.4523 20.0552C14.7755 19.4889 14.3335 18.6462 14.3335 17.6932C14.3335 15.9945 15.7147 14.6133 17.4138 14.6133C19.1265 14.6133 20.5075 15.9945 20.5075 17.6932C20.5075 18.6462 20.0653 19.4889 19.3889 20.0552L20.5075 20.9944C21.5434 21.8782 22.2894 23.0522 22.6069 24.3504Z" fill="white"/>
<path d="M31.2607 15.0439H65.7963V16.7014H31.2607V15.0439ZM31.2607 18.3588H65.7963V20.0159H31.2607V18.3588ZM31.2607 21.6737H65.7963V23.3311H31.2607V21.6737Z" fill="#4DC1FF"/>
<path d="M75.1414 20.0111H62.2443C62.1137 20.0111 61.9844 19.9854 61.8637 19.9354C61.7431 19.8854 61.6335 19.8122 61.5412 19.7198C61.4488 19.6275 61.3756 19.5179 61.3256 19.3972C61.2757 19.2766 61.25 19.1472 61.25 19.0167V6.11914L75.1414 20.0111Z" fill="white"/>
<path d="M38.0044 72.0655C27.8871 72.0655 19.6562 63.8347 19.6562 53.7181C19.6562 43.6017 27.8871 35.3711 38.0044 35.3711C48.1217 35.3711 56.3528 43.6019 56.3528 53.7181C56.3528 57.5566 55.1757 61.2327 52.949 64.3521C52.8843 64.443 52.8023 64.5202 52.7077 64.5793C52.6131 64.6385 52.5077 64.6784 52.3977 64.6967C52.2876 64.7151 52.1751 64.7116 52.0664 64.6863C51.9577 64.6611 51.8551 64.6147 51.7643 64.5498C51.5811 64.4187 51.4574 64.2203 51.4203 63.9981C51.3832 63.776 51.4358 63.5482 51.5665 63.3647C53.5858 60.536 54.6535 57.1999 54.6535 53.7181C54.6535 44.5374 47.1849 37.0688 38.0044 37.0688C28.8237 37.0688 21.3556 44.5374 21.3556 53.7181C21.3556 62.8988 28.8237 70.3678 38.0044 70.3678C39.8335 70.3678 41.6318 70.0718 43.3469 69.4871C43.4525 69.4511 43.5642 69.4363 43.6756 69.4436C43.7869 69.4508 43.8957 69.4799 43.9958 69.5292C44.0959 69.5785 44.1853 69.6471 44.2588 69.731C44.3324 69.8149 44.3887 69.9124 44.4246 70.0181C44.4971 70.2314 44.482 70.4649 44.3825 70.6671C44.2831 70.8693 44.1074 71.0237 43.8941 71.0965C42.0024 71.7393 40.0203 72.0655 38.0044 72.0655Z" fill="#4DC1FF"/>
<path d="M47.0598 69.5343C46.8743 69.5348 46.6938 69.4744 46.5458 69.3626C46.3979 69.2507 46.2907 69.0935 46.2405 68.9149C46.1904 68.7363 46.2002 68.5462 46.2684 68.3737C46.3365 68.2012 46.4593 68.0558 46.618 67.9596C47.5844 67.3723 48.4891 66.689 49.3185 65.9201C49.6636 65.5995 50.2009 65.623 50.5195 65.9645C50.6726 66.1296 50.7538 66.3488 50.7453 66.5738C50.7368 66.7988 50.6393 67.0113 50.4743 67.1644C49.5612 68.0116 48.5648 68.7644 47.5003 69.4113C47.3677 69.4922 47.2152 69.5348 47.0598 69.5343Z" fill="#4DC1FF"/>
<path d="M54.0734 37.6495C62.9347 46.5107 62.9347 60.9286 54.0741 69.7892C45.2137 78.6496 30.7959 78.6495 21.9347 69.7882C13.0735 60.927 13.0732 46.5088 21.9334 37.6485C25.2954 34.2866 29.5461 32.0979 34.2284 31.316C34.3647 31.2931 34.5042 31.2973 34.6388 31.3283C34.7735 31.3594 34.9007 31.4167 35.0132 31.497C35.1256 31.5774 35.2211 31.6791 35.2942 31.7963C35.3673 31.9136 35.4166 32.0441 35.4391 32.1805C35.4848 32.4557 35.4194 32.7378 35.2573 32.9649C35.0952 33.192 34.8497 33.3455 34.5745 33.3917C30.3284 34.1006 26.4713 36.0874 23.4218 39.1369C15.3809 47.1778 15.3809 60.2606 23.4216 68.3013C31.4625 76.3422 44.5448 76.3417 52.5857 68.3008C60.6266 60.26 60.6274 47.1773 52.5865 39.1364C50.9845 37.5344 49.1502 36.2186 47.1359 35.2285C47.0119 35.1675 46.9011 35.0827 46.8099 34.9788C46.7188 34.8749 46.6489 34.7541 46.6045 34.6233C46.56 34.4924 46.5418 34.3541 46.5508 34.2162C46.5598 34.0783 46.5959 33.9435 46.6571 33.8196C46.7804 33.5692 46.9981 33.378 47.2623 33.288C47.5266 33.198 47.8157 33.2166 48.0662 33.3397C50.286 34.4335 52.3078 35.8838 54.0734 37.6495Z" fill="#4DC1FF"/>
<path d="M43.9265 31.9347C44.0894 32.0967 44.1947 32.3077 44.2263 32.5352C44.2579 32.7628 44.2141 32.9944 44.1015 33.1947C43.989 33.3951 43.814 33.553 43.6032 33.6444C43.3924 33.7358 43.1575 33.7556 42.9343 33.7008C41.5735 33.3689 40.1826 33.1749 38.7828 33.1219C38.1997 33.1005 37.7497 32.6093 37.7697 32.0311C37.7803 31.7524 37.9011 31.4893 38.1056 31.2997C38.3101 31.11 38.5816 31.0093 38.8603 31.0198C40.4021 31.0775 41.934 31.2908 43.4329 31.6565C43.62 31.7019 43.7909 31.7981 43.9265 31.9347Z" fill="#4DC1FF"/>
<path d="M38.1155 63.9898C38.364 64.0785 38.6341 64.0785 38.8826 63.9898C42.691 62.6421 45.3974 60.2851 46.6021 56.5471C46.8992 55.6209 47.0343 54.6504 47.0343 53.6743V46.4646C43.4419 46.1152 40.514 44.823 38.4937 42.2441C36.4733 44.823 33.5454 46.1152 29.9639 46.4701V53.6799C29.9639 54.6559 30.0989 55.6265 30.396 56.5527C31.6007 60.2906 34.3071 62.6421 38.1155 63.9898ZM38.4937 49.6313C39.5146 49.6313 40.3358 50.4799 40.3358 51.5225C40.3358 52.3766 39.7793 53.092 39.0231 53.3249V56.1256C39.0231 56.4251 38.7854 56.6691 38.4937 56.6691C38.202 56.6691 37.9643 56.4251 37.9643 56.1256V53.3249C37.208 53.092 36.6516 52.3766 36.6516 51.5225C36.6516 50.4799 37.4781 49.6313 38.4937 49.6313Z" fill="white"/>
<rect x="35.7041" y="49.1328" width="5.74004" height="9.18407" fill="white"/>
<path d="M38.1155 63.9898C38.364 64.0785 38.6341 64.0785 38.8826 63.9898C42.691 62.6421 45.3974 60.2851 46.6021 56.5471C46.8992 55.6209 47.0343 54.6504 47.0343 53.6743V46.4646C43.4419 46.1152 40.514 44.823 38.4937 42.2441C36.4733 44.823 33.5454 46.1152 29.9639 46.4701V53.6799C29.9639 54.6559 30.0989 55.6265 30.396 56.5527C31.6007 60.2906 34.3071 62.6421 38.1155 63.9898ZM38.4937 49.6313C39.5146 49.6313 40.3358 50.4799 40.3358 51.5225C40.3358 52.3766 39.7793 53.092 39.0231 53.3249V56.1256C39.0231 56.4251 38.7854 56.6691 38.4937 56.6691C38.202 56.6691 37.9643 56.4251 37.9643 56.1256V53.3249C37.208 53.092 36.6516 52.3766 36.6516 51.5225C36.6516 50.4799 37.4781 49.6313 38.4937 49.6313Z" fill="white"/>
<path d="M38.2005 62.1044C38.3938 62.1777 38.6039 62.1777 38.7971 62.1044C41.7593 60.9911 43.8642 59.044 44.8012 55.9561C45.0323 55.191 45.1373 54.3893 45.1373 53.5829V47.6271C42.3433 47.3385 40.066 46.271 38.4946 44.1406C36.9232 46.271 34.646 47.3385 31.8604 47.6317V53.5875C31.8604 54.3939 31.9654 55.1956 32.1965 55.9607C33.1334 59.0486 35.2384 60.9911 38.2005 62.1044ZM38.4946 50.2431C39.2887 50.2431 39.9274 50.944 39.9274 51.8053C39.9274 52.5109 39.4946 53.1019 38.9064 53.2943V55.6079C38.9064 55.8553 38.7215 56.0569 38.4946 56.0569C38.2678 56.0569 38.0829 55.8553 38.0829 55.6079V53.2943C37.4947 53.1019 37.0619 52.5109 37.0619 51.8053C37.0619 50.944 37.7047 50.2431 38.4946 50.2431Z" fill="#F57C00"/>
</svg>
