<svg width="180" height="69" viewBox="0 0 180 69" fill="none" xmlns="http://www.w3.org/2000/svg">
<g clip-path="url(#clip0_21088_114988)">
<path d="M42.2 6.54004L21 15.14V32.04C21 32.04 21 44.74 29.7 53.14C38.4 61.54 42.2 62.44 42.2 62.44C42.2 62.44 46.5 61.54 55.2 53.14C63.9 44.74 63.9 32.04 63.9 32.04V15.14L42.2 6.54004Z" fill="#3084FF"/>
<path d="M42.2002 6.54004V62.54C42.2002 62.54 46.5002 61.64 55.2002 53.24C63.9002 44.84 63.9002 32.14 63.9002 32.14V15.24L42.2002 6.54004Z" fill="#0C66FC"/>
<path d="M42.1998 59.54L41.8998 59.34C40.3998 58.54 36.9998 56.44 31.5998 51.14C29.7998 49.44 28.2998 47.34 27.0998 45.04C26.0998 43.14 25.2998 41.04 24.7998 38.74C23.7998 34.94 23.7998 32.04 23.7998 32.04V17.04L42.1998 9.54004L60.9998 17.04V32.04C60.9998 32.14 60.9998 35.14 59.9998 38.94C59.3998 41.14 58.5998 43.24 57.5998 45.14C56.3998 47.44 54.8998 49.44 53.1998 51.14C47.7998 56.44 44.1998 58.54 42.5998 59.34L42.1998 59.54ZM25.2998 18.04V32.04C25.2998 32.04 25.2998 34.84 26.1998 38.34C26.6998 40.44 27.4998 42.54 28.3998 44.34C29.4998 46.54 30.8998 48.44 32.5998 50.04C37.4998 54.74 40.5998 56.84 42.1998 57.74C43.8998 56.84 47.1998 54.84 52.0998 50.04C53.6998 48.44 55.0998 46.54 56.1998 44.44C57.0998 42.64 57.8998 40.64 58.3998 38.54C59.3998 34.94 59.3998 32.04 59.3998 32.04V18.04L42.1998 11.24L25.2998 18.04Z" fill="white"/>
<path d="M37.0996 30.1396H38.3996V38.6396H37.0996V30.1396Z" fill="white"/>
<path d="M41.1996 30.04C42.4996 30.04 43.1996 30.84 43.1996 32.14V32.44H41.8996V32.04C41.8996 31.44 41.6996 31.24 41.1996 31.24C40.7996 31.24 40.4996 31.44 40.4996 32.04C40.4996 32.64 40.7996 33.14 41.5996 33.84C42.6996 34.84 43.0996 35.54 43.0996 36.54C43.0996 37.94 42.3996 38.64 41.0996 38.64C39.7996 38.64 39.0996 37.84 39.0996 36.54V36.04H40.3996V36.64C40.3996 37.24 40.6996 37.44 41.0996 37.44C41.4996 37.44 41.7996 37.24 41.7996 36.64C41.7996 36.04 41.4996 35.54 40.6996 34.84C39.5996 33.84 39.1996 33.14 39.1996 32.14C39.1996 30.84 39.8996 30.04 41.1996 30.04Z" fill="white"/>
<path d="M43.7998 32.2396C43.7998 30.8396 44.4998 30.1396 45.7998 30.1396C47.0998 30.1396 47.7998 30.9396 47.7998 32.2396V36.6396C47.7998 38.0396 47.0998 38.7396 45.7998 38.7396C44.4998 38.7396 43.7998 37.9396 43.7998 36.6396V32.2396ZM45.0998 36.7396C45.0998 37.3396 45.3998 37.5396 45.7998 37.5396C46.1998 37.5396 46.4998 37.3396 46.4998 36.7396V32.1396C46.4998 31.5396 46.1998 31.3396 45.7998 31.3396C45.3998 31.3396 45.0998 31.5396 45.0998 32.1396V36.7396Z" fill="white"/>
<path d="M35.8 44.5404V45.0404C35.8 45.6404 35.5 46.0404 34.9 46.0404C34.3 46.0404 34 45.6404 34 45.0404V42.9404C34 42.3404 34.3 41.9404 34.9 41.9404C35.5 41.9404 35.8 42.3404 35.8 42.9404V43.3404H35.2V42.9404C35.2 42.6404 35.1 42.5404 34.9 42.5404C34.7 42.5404 34.6 42.6404 34.6 42.9404V45.1404C34.6 45.4404 34.7 45.5404 34.9 45.5404C35.1 45.5404 35.2 45.4404 35.2 45.1404V44.5404H35.8Z" fill="white"/>
<path d="M36.8002 43.7406H37.7002V44.3406H36.8002V45.5406H37.9002V46.1406H36.2002V42.1406H37.9002V42.7406H36.8002V43.7406Z" fill="white"/>
<path d="M39.5998 46.04C39.5998 45.94 39.4998 45.84 39.4998 45.54V44.94C39.4998 44.54 39.3998 44.44 39.0998 44.44H38.8998V46.04H38.2998V42.04H39.2998C39.9998 42.04 40.1998 42.34 40.1998 42.94V43.24C40.1998 43.64 40.0998 43.94 39.7998 44.04C40.0998 44.14 40.1998 44.44 40.1998 44.94V45.54C40.1998 45.74 40.1998 45.84 40.2998 46.04H39.5998ZM38.8998 42.64V43.84H39.0998C39.2998 43.84 39.4998 43.74 39.4998 43.44V43.04C39.4998 42.74 39.3998 42.64 39.1998 42.64H38.8998Z" fill="white"/>
<path d="M40.4004 42.041H42.4004V42.641H41.7004V46.141H41.1004V42.641H40.4004V42.041Z" fill="white"/>
<path d="M42.7002 42.04H43.3002V46.04H42.7002V42.04Z" fill="white"/>
<path d="M44.3998 43.8406H45.1998V44.4406H44.3998V46.1406H43.7998V42.1406H45.4998V42.7406H44.4998V43.8406H44.3998Z" fill="white"/>
<path d="M45.7998 42.04H46.3998V46.04H45.7998V42.04Z" fill="white"/>
<path d="M47.5004 43.7406H48.4004V44.3406H47.5004V45.5406H48.6004V46.1406H46.9004V42.1406H48.6004V42.7406H47.5004V43.7406Z" fill="white"/>
<path d="M49 42.04H50C50.6 42.04 50.9 42.44 50.9 43.04V45.04C50.9 45.64 50.6 46.04 50 46.04H49V42.04ZM49.6 42.64V45.54H50C50.2 45.54 50.3 45.44 50.3 45.14V43.04C50.3 42.74 50.2 42.64 50 42.64H49.6Z" fill="white"/>
<path d="M42.2004 17.54C40.4004 17.54 38.9004 19.04 38.9004 20.84C38.9004 22.64 40.4004 24.14 42.2004 24.14C44.0004 24.14 45.5004 22.64 45.5004 20.84C45.5004 19.04 44.0004 17.54 42.2004 17.54ZM43.7004 20.34L42.0004 21.94C41.9004 22.04 41.8004 22.04 41.8004 22.04C41.8004 22.04 41.6004 22.04 41.6004 21.94L40.8004 21.14C40.7004 21.04 40.7004 20.84 40.8004 20.64C40.9004 20.54 41.1004 20.54 41.3004 20.64L41.9004 21.24L43.3004 19.84C43.4004 19.74 43.6004 19.74 43.8004 19.84C43.8004 19.94 43.8004 20.14 43.7004 20.34Z" fill="#F2C94C"/>
<path d="M73.4004 20.4395H74.9004V30.1395H73.4004V20.4395Z" fill="#333333"/>
<path d="M78.1002 20.3398C79.6002 20.3398 80.3002 21.2398 80.3002 22.7398V23.0398H78.9002V22.6398C78.9002 21.9398 78.6002 21.6398 78.1002 21.6398C77.6002 21.6398 77.3002 21.9398 77.3002 22.6398C77.3002 23.3398 77.6002 23.8398 78.6002 24.7398C79.9002 25.8398 80.3002 26.6398 80.3002 27.7398C80.3002 29.3398 79.5002 30.1398 78.0002 30.1398C76.5002 30.1398 75.7002 29.2398 75.7002 27.7398V27.1398H77.1002V27.8398C77.1002 28.5398 77.4002 28.7398 77.9002 28.7398C78.4002 28.7398 78.7002 28.5398 78.7002 27.8398C78.7002 27.1398 78.4002 26.6398 77.4002 25.7398C76.1002 24.6398 75.7002 23.8398 75.7002 22.7398C75.8002 21.2398 76.6002 20.3398 78.1002 20.3398Z" fill="#333333"/>
<path d="M81.1006 22.7398C81.1006 21.1398 81.9006 20.3398 83.4006 20.3398C84.9006 20.3398 85.7006 21.2398 85.7006 22.7398V27.7398C85.7006 29.3398 84.9006 30.1398 83.4006 30.1398C81.9006 30.1398 81.1006 29.2398 81.1006 27.7398V22.7398ZM82.6006 27.9398C82.6006 28.6398 82.9006 28.9398 83.4006 28.9398C83.9006 28.9398 84.2006 28.6398 84.2006 27.9398V22.7398C84.2006 22.0398 83.9006 21.7398 83.4006 21.7398C82.9006 21.7398 82.6006 22.0398 82.6006 22.7398V27.9398Z" fill="#333333"/>
<path d="M90.0002 20.4395H91.3002L87.5002 30.1395H86.2002L90.0002 20.4395Z" fill="#333333"/>
<path d="M91.9004 20.4395H93.4004V30.1395H91.9004V20.4395Z" fill="#333333"/>
<path d="M96.1 24.5395H98.2V25.9395H96.1V28.7395H98.7V30.1395H94.5V20.4395H98.7V21.8395H96.1V24.5395Z" fill="#333333"/>
<path d="M104.1 26.5395V27.8395C104.1 29.4395 103.3 30.2395 101.8 30.2395C100.3 30.2395 99.5 29.3395 99.5 27.8395V22.8395C99.5 21.2395 100.3 20.4395 101.8 20.4395C103.3 20.4395 104.1 21.3395 104.1 22.8395V23.7395H102.7V22.7395C102.7 22.0395 102.4 21.7395 101.9 21.7395C101.4 21.7395 101.1 22.0395 101.1 22.7395V27.9395C101.1 28.6395 101.4 28.8395 101.9 28.8395C102.4 28.8395 102.7 28.6395 102.7 27.9395V26.5395H104.1Z" fill="#333333"/>
<path d="M109.4 21.7395C108.9 21.7395 108.6 22.0395 108.6 22.7395V23.7395H107.2V22.8395C107.2 21.2395 108 20.4395 109.5 20.4395C111 20.4395 111.8 21.3395 111.8 22.8395C111.8 24.1395 111.3 25.1395 109.9 26.6395C109 27.6395 108.8 28.0395 108.8 28.5395C108.8 28.6395 108.8 28.6395 108.8 28.7395H111.7V30.1395H107.3V28.9395C107.3 27.8395 107.7 27.0395 108.8 25.8395C110 24.6395 110.3 23.8395 110.3 22.8395C110.2 21.9395 109.9 21.7395 109.4 21.7395Z" fill="#333333"/>
<path d="M117.101 20.4395V21.7395L114.901 30.1395H113.401L115.601 21.8395H112.601V20.4395H117.101Z" fill="#333333"/>
<path d="M118 22.7398C118 21.1398 118.8 20.3398 120.3 20.3398C121.8 20.3398 122.6 21.2398 122.6 22.7398V27.7398C122.6 29.3398 121.8 30.1398 120.3 30.1398C118.8 30.1398 118 29.2398 118 27.7398V22.7398ZM119.5 27.9398C119.5 28.6398 119.8 28.9398 120.3 28.9398C120.8 28.9398 121.1 28.6398 121.1 27.9398V22.7398C121.1 22.0398 120.8 21.7398 120.3 21.7398C119.8 21.7398 119.5 22.0398 119.5 22.7398V27.9398Z" fill="#333333"/>
<path d="M123.5 22.7398C123.5 21.1398 124.3 20.3398 125.8 20.3398C127.3 20.3398 128.1 21.2398 128.1 22.7398V27.7398C128.1 29.3398 127.3 30.1398 125.8 30.1398C124.3 30.1398 123.5 29.2398 123.5 27.7398V22.7398ZM125 27.9398C125 28.6398 125.3 28.9398 125.8 28.9398C126.3 28.9398 126.6 28.6398 126.6 27.9398V22.7398C126.6 22.0398 126.3 21.7398 125.8 21.7398C125.3 21.7398 125 22.0398 125 22.7398V27.9398Z" fill="#333333"/>
<path d="M130 21.6395C131.2 21.6395 131.4 21.0395 131.7 20.4395H132.7V30.1395H131.2V22.7395H130V21.6395Z" fill="#333333"/>
<path d="M136 23.4395V24.9395H134.5V23.4395H136ZM136 28.6395V30.1395H134.5V28.6395H136Z" fill="#333333"/>
<path d="M139.4 21.7395C138.9 21.7395 138.6 22.0395 138.6 22.7395V23.7395H137.2V22.8395C137.2 21.2395 138 20.4395 139.5 20.4395C141 20.4395 141.8 21.3395 141.8 22.8395C141.8 24.1395 141.3 25.1395 139.9 26.6395C139 27.6395 138.8 28.0395 138.8 28.5395C138.8 28.6395 138.8 28.6395 138.8 28.7395H141.7V30.1395H137.3V28.9395C137.3 27.8395 137.7 27.0395 138.8 25.8395C140 24.6395 140.3 23.8395 140.3 22.8395C140.2 21.9395 139.9 21.7395 139.4 21.7395Z" fill="#333333"/>
<path d="M142.5 22.7398C142.5 21.1398 143.3 20.3398 144.8 20.3398C146.3 20.3398 147.1 21.2398 147.1 22.7398V27.7398C147.1 29.3398 146.3 30.1398 144.8 30.1398C143.3 30.1398 142.5 29.2398 142.5 27.7398V22.7398ZM144 27.9398C144 28.6398 144.3 28.9398 144.8 28.9398C145.3 28.9398 145.6 28.6398 145.6 27.9398V22.7398C145.6 22.0398 145.3 21.7398 144.8 21.7398C144.3 21.7398 144 22.0398 144 22.7398V27.9398Z" fill="#333333"/>
<path d="M149.101 21.6395C150.301 21.6395 150.501 21.0395 150.801 20.4395H151.801V30.1395H150.301V22.7395H149.101V21.6395Z" fill="#333333"/>
<path d="M156.5 22.8395C156.5 21.9395 156.2 21.7395 155.7 21.7395C155.2 21.7395 154.9 22.0395 154.9 22.7395V23.3395H153.5V22.8395C153.5 21.2395 154.3 20.4395 155.8 20.4395C157.3 20.4395 158.1 21.3395 158.1 22.8395V23.0395C158.1 24.0395 157.8 24.7395 157 25.0395C157.8 25.3395 158.1 26.0395 158.1 27.0395V27.8395C158.1 29.4395 157.3 30.2395 155.8 30.2395C154.3 30.2395 153.5 29.3395 153.5 27.8395V27.0395H154.9V27.9395C154.9 28.6395 155.2 28.9395 155.7 28.9395C156.2 28.9395 156.5 28.7395 156.5 27.8395V27.0395C156.5 26.1395 156.2 25.8395 155.5 25.8395H155V24.4395H155.6C156.2 24.4395 156.5 24.2395 156.5 23.4395V22.8395Z" fill="#333333"/>
<path d="M73.4004 38.5391H74.9004V48.2391H73.4004V38.5391Z" fill="#333333"/>
<path d="M78.1002 38.4395C79.6002 38.4395 80.3002 39.3395 80.3002 40.8395V41.1395H78.9002V40.7395C78.9002 40.0395 78.6002 39.7395 78.1002 39.7395C77.6002 39.7395 77.3002 40.0395 77.3002 40.7395C77.3002 41.4395 77.6002 41.9395 78.6002 42.8395C79.9002 43.9395 80.3002 44.7395 80.3002 45.8395C80.3002 47.4395 79.5002 48.2395 78.0002 48.2395C76.5002 48.2395 75.7002 47.3395 75.7002 45.8395V45.2395H77.1002V45.9395C77.1002 46.6395 77.4002 46.8395 77.9002 46.8395C78.4002 46.8395 78.7002 46.6395 78.7002 45.9395C78.7002 45.2395 78.4002 44.7395 77.4002 43.8395C76.1002 42.7395 75.7002 41.9395 75.7002 40.8395C75.8002 39.3395 76.6002 38.4395 78.1002 38.4395Z" fill="#333333"/>
<path d="M81.1006 40.8395C81.1006 39.2395 81.9006 38.4395 83.4006 38.4395C84.9006 38.4395 85.7006 39.3395 85.7006 40.8395V45.8395C85.7006 47.4395 84.9006 48.2395 83.4006 48.2395C81.9006 48.2395 81.1006 47.3395 81.1006 45.8395V40.8395ZM82.6006 46.0395C82.6006 46.7395 82.9006 47.0395 83.4006 47.0395C83.9006 47.0395 84.2006 46.7395 84.2006 46.0395V40.8395C84.2006 40.1395 83.9006 39.8395 83.4006 39.8395C82.9006 39.8395 82.6006 40.1395 82.6006 40.8395V46.0395Z" fill="#333333"/>
<path d="M90.0002 38.5391H91.3002L87.5002 48.2391H86.2002L90.0002 38.5391Z" fill="#333333"/>
<path d="M91.9004 38.5391H93.4004V48.2391H91.9004V38.5391Z" fill="#333333"/>
<path d="M96.1 42.6391H98.2V44.0391H96.1V46.8391H98.7V48.2391H94.5V38.5391H98.7V39.9391H96.1V42.6391Z" fill="#333333"/>
<path d="M104.1 44.6391V45.9391C104.1 47.5391 103.3 48.3391 101.8 48.3391C100.3 48.3391 99.5 47.4391 99.5 45.9391V40.9391C99.5 39.3391 100.3 38.5391 101.8 38.5391C103.3 38.5391 104.1 39.4391 104.1 40.9391V41.8391H102.7V40.8391C102.7 40.1391 102.4 39.8391 101.9 39.8391C101.4 39.8391 101.1 40.1391 101.1 40.8391V46.0391C101.1 46.7391 101.4 46.9391 101.9 46.9391C102.4 46.9391 102.7 46.7391 102.7 46.0391V44.6391H104.1Z" fill="#333333"/>
<path d="M109.4 39.8391C108.9 39.8391 108.6 40.1391 108.6 40.8391V41.8391H107.2V40.9391C107.2 39.3391 108 38.5391 109.5 38.5391C111 38.5391 111.8 39.4391 111.8 40.9391C111.8 42.2391 111.3 43.2391 109.9 44.7391C109 45.7391 108.8 46.1391 108.8 46.6391C108.8 46.7391 108.8 46.7391 108.8 46.8391H111.7V48.2391H107.3V47.0391C107.3 45.9391 107.7 45.1391 108.8 43.9391C110 42.7391 110.3 41.9391 110.3 40.9391C110.2 40.0391 109.9 39.8391 109.4 39.8391Z" fill="#333333"/>
<path d="M117.101 38.5391V39.8391L114.901 48.2391H113.401L115.601 39.9391H112.601V38.5391H117.101Z" fill="#333333"/>
<path d="M118 40.8395C118 39.2395 118.8 38.4395 120.3 38.4395C121.8 38.4395 122.6 39.3395 122.6 40.8395V45.8395C122.6 47.4395 121.8 48.2395 120.3 48.2395C118.8 48.2395 118 47.3395 118 45.8395V40.8395ZM119.5 46.0395C119.5 46.7395 119.8 47.0395 120.3 47.0395C120.8 47.0395 121.1 46.7395 121.1 46.0395V40.8395C121.1 40.1395 120.8 39.8395 120.3 39.8395C119.8 39.8395 119.5 40.1395 119.5 40.8395V46.0395Z" fill="#333333"/>
<path d="M124.601 39.7391C125.801 39.7391 126.001 39.1391 126.301 38.5391H127.301V48.2391H125.801V40.8391H124.601V39.7391Z" fill="#333333"/>
<path d="M133.601 38.5391V39.8391L131.401 48.2391H129.901L132.101 39.9391H129.101V38.5391H133.601Z" fill="#333333"/>
<path d="M136 41.4395V42.9395H134.5V41.4395H136ZM136 46.7395V48.2395H134.5V46.7395H136Z" fill="#333333"/>
<path d="M139.4 39.8391C138.9 39.8391 138.6 40.1391 138.6 40.8391V41.8391H137.2V40.9391C137.2 39.3391 138 38.5391 139.5 38.5391C141 38.5391 141.8 39.4391 141.8 40.9391C141.8 42.2391 141.3 43.2391 139.9 44.7391C139 45.7391 138.8 46.1391 138.8 46.6391C138.8 46.7391 138.8 46.7391 138.8 46.8391H141.7V48.2391H137.3V47.0391C137.3 45.9391 137.7 45.1391 138.8 43.9391C140 42.7391 140.3 41.9391 140.3 40.9391C140.2 40.0391 139.9 39.8391 139.4 39.8391Z" fill="#333333"/>
<path d="M142.5 40.8395C142.5 39.2395 143.3 38.4395 144.8 38.4395C146.3 38.4395 147.1 39.3395 147.1 40.8395V45.8395C147.1 47.4395 146.3 48.2395 144.8 48.2395C143.3 48.2395 142.5 47.3395 142.5 45.8395V40.8395ZM144 46.0395C144 46.7395 144.3 47.0395 144.8 47.0395C145.3 47.0395 145.6 46.7395 145.6 46.0395V40.8395C145.6 40.1395 145.3 39.8395 144.8 39.8395C144.3 39.8395 144 40.1395 144 40.8395V46.0395Z" fill="#333333"/>
<path d="M149.101 39.7391C150.301 39.7391 150.501 39.1391 150.801 38.5391H151.801V48.2391H150.301V40.8391H149.101V39.7391Z" fill="#333333"/>
<path d="M155 45.1396V46.0396C155 46.7396 155.3 46.9397 155.8 46.9397C156.3 46.9397 156.6 46.7396 156.6 46.0396V43.9397C156.6 43.2397 156.3 42.9397 155.8 42.9397C155.3 42.9397 155 43.2397 155 43.9397V44.2397H153.6L153.9 38.6396H157.9V40.0396H155.2L155.1 42.3396C155.4 41.8396 155.8 41.6396 156.4 41.6396C157.5 41.6396 158.1 42.4396 158.1 43.8396V46.0396C158.1 47.6397 157.3 48.4397 155.8 48.4397C154.3 48.4397 153.5 47.5396 153.5 46.0396V45.2397H155V45.1396Z" fill="#333333"/>
</g>
<defs>
<clipPath id="clip0_21088_114988">
<rect width="137.1" height="56" fill="white" transform="translate(21 6.54004)"/>
</clipPath>
</defs>
</svg>
