<svg width="104" height="89" viewBox="0 0 104 89" fill="none" xmlns="http://www.w3.org/2000/svg">
<path d="M0.666992 61.3019V3.51783C0.666992 1.88005 2.11074 0.540039 3.87533 0.540039H100.125C101.89 0.540039 103.334 1.88005 103.334 3.51783V61.2871H0.666992V61.3019Z" fill="#1D39C4"/>
<path d="M6.95215 55.0161V8.9209H97.0474V55.0161H6.95215Z" fill="#59CBEF"/>
<path d="M21.2324 33.7977C21.2324 33.7977 31.5151 49.2298 52.0003 49.2298C72.4855 49.2298 82.7683 33.7977 82.7683 33.7977C82.7683 33.7977 72.4695 18.3496 52.0003 18.3496C31.5312 18.3496 21.2324 33.7977 21.2324 33.7977Z" fill="#EFF3F5"/>
<path d="M64.4521 36.7371C66.0749 29.865 61.8194 22.9786 54.9473 21.3559C48.0752 19.7332 41.1888 23.9886 39.5661 30.8607C37.9434 37.7328 42.1989 44.6192 49.0709 46.2419C55.943 47.8646 62.8294 43.6092 64.4521 36.7371Z" fill="#F57C00"/>
<path d="M59.9573 33.7975C59.9573 35.9077 59.119 37.9315 57.6268 39.4237C56.1347 40.9159 54.1108 41.7542 52.0006 41.7542C49.8904 41.7542 47.8666 40.9159 46.3744 39.4237C44.8822 37.9315 44.0439 35.9077 44.0439 33.7975C44.0439 31.6872 44.8822 29.6634 46.3744 28.1713C47.8666 26.6791 49.8904 25.8408 52.0006 25.8408C54.1108 25.8408 56.1347 26.6791 57.6268 28.1713C59.119 29.6634 59.9573 31.6872 59.9573 33.7975Z" fill="#324A5E"/>
<path d="M57.1339 32.5305C58.6932 32.5305 59.9572 31.2664 59.9572 29.7071C59.9572 28.1478 58.6932 26.8838 57.1339 26.8838C55.5746 26.8838 54.3105 28.1478 54.3105 29.7071C54.3105 31.2664 55.5746 32.5305 57.1339 32.5305Z" fill="#EFF3F5"/>
<path d="M63.5249 73.873H40.4773L39.4297 85.3969H64.5725L63.5249 73.873Z" fill="#AFB9D2"/>
<rect x="36.2861" y="85.3975" width="31.4286" height="3.14286" rx="1.5" fill="#C7CFE2"/>
<path opacity="0.5" d="M40.4766 73.873H63.5242V77.0159H40.4766V73.873Z" fill="#959CB3"/>
<path d="M0.666992 71.1322V61.042H103.334V71.1322C103.334 72.8968 101.89 74.3405 100.125 74.3405H3.87533C3.02442 74.3405 2.20837 74.0025 1.60669 73.4008C1.00501 72.7992 0.666992 71.9831 0.666992 71.1322Z" fill="#C7CFE2"/>
<path d="M55.7536 67.6834C55.7536 69.7528 54.0692 71.4372 51.9998 71.4372C49.9305 71.4372 48.2461 69.7528 48.2461 67.6834C48.2461 65.6141 49.9305 63.9297 51.9998 63.9297C52.9941 63.9339 53.9464 64.3307 54.6495 65.0338C55.3525 65.7368 55.7494 66.6892 55.7536 67.6834Z" fill="#959CB3"/>
</svg>
