<svg width="62" height="89" viewBox="0 0 62 89" fill="none" xmlns="http://www.w3.org/2000/svg">
<path d="M60.8416 0.540039H1.15839C0.618535 0.540039 0.106445 0.981917 0.106445 1.53673V79.0574C0.106445 79.6124 0.618535 80.1143 1.15839 80.1143H60.8416C61.3817 80.1143 61.8936 79.6124 61.8936 79.0574V1.53673C61.8936 0.981917 61.3817 0.540039 60.8416 0.540039Z" fill="#1D39C4"/>
<path d="M21.5757 71.6884H7.66837C7.11164 71.6884 6.66016 71.0598 6.66016 70.2841C6.66016 69.5084 7.11164 68.8799 7.66837 68.8799H21.5757C22.1325 68.8799 22.5839 69.5084 22.5839 70.2841C22.5839 71.0598 22.1325 71.6884 21.5757 71.6884ZM54.3327 71.6884H40.4253C39.8684 71.6884 39.4171 71.0598 39.4171 70.2841C39.4171 69.5084 39.8684 68.8799 40.4253 68.8799H54.3327C54.8896 68.8799 55.3409 69.5084 55.3409 70.2841C55.3409 71.0598 54.8896 71.6884 54.3327 71.6884Z" fill="#4DC1FF"/>
<path d="M19.3828 68.8799L15.119 85.094C15.0082 85.5157 15.1737 85.9635 15.5306 86.2054C15.8875 86.447 16.3556 86.4304 16.6949 86.1635L21.017 82.7552L23.086 87.9071C23.2401 88.2914 23.6066 88.5394 24.0098 88.5394C24.0308 88.5394 24.0519 88.5388 24.0733 88.5374C24.5011 88.5097 24.8638 88.2072 24.9748 87.7855L28.7774 73.3248L19.3828 68.8799ZM46.8807 85.0962L42.6168 68.8846L33.2225 73.3236L37.025 87.7849C37.136 88.2066 37.4987 88.5095 37.9264 88.5372C37.9476 88.5386 37.969 88.5392 37.9899 88.5392C38.3932 88.5392 38.7596 88.2912 38.9138 87.9073L40.9826 82.7554L45.3048 86.1641C45.6441 86.4314 46.1125 86.4485 46.4689 86.2066C46.8258 85.9647 46.9914 85.5179 46.8807 85.0962Z" fill="#FF7F40"/>
<path d="M54.3327 10.9338H7.66837C7.11164 10.9338 6.66016 10.4932 6.66016 9.94981C6.66016 9.40645 7.11164 8.96582 7.66837 8.96582H54.3327C54.8896 8.96582 55.3409 9.40645 55.3409 9.94981C55.3409 10.4932 54.8896 10.9338 54.3327 10.9338ZM54.3327 19.5004H7.66837C7.11164 19.5004 6.66016 19.0598 6.66016 18.5164C6.66016 17.973 7.11164 17.5324 7.66837 17.5324H54.3327C54.8896 17.5324 55.3409 17.973 55.3409 18.5164C55.3409 19.0598 54.8896 19.5004 54.3327 19.5004ZM54.3327 28.065H7.66837C7.11164 28.065 6.66016 27.6244 6.66016 27.081C6.66016 26.5377 7.11164 26.097 7.66837 26.097H54.3327C54.8896 26.097 55.3409 26.5377 55.3409 27.081C55.3409 27.6244 54.8896 28.065 54.3327 28.065ZM54.3327 36.6316H7.66837C7.11164 36.6316 6.66016 36.191 6.66016 35.6476C6.66016 35.1042 7.11164 34.6636 7.66837 34.6636H54.3327C54.8896 34.6636 55.3409 35.1042 55.3409 35.6476C55.3409 36.191 54.8896 36.6316 54.3327 36.6316ZM22.7977 45.196H7.66837C7.11164 45.196 6.66016 44.7556 6.66016 44.212C6.66016 43.6685 7.11164 43.228 7.66837 43.228H22.7977C23.3544 43.228 23.8059 43.6687 23.8059 44.212C23.8059 44.7554 23.3544 45.196 22.7977 45.196ZM54.3327 45.196H39.2034C38.6464 45.196 38.1952 44.7556 38.1952 44.212C38.1952 43.6685 38.6464 43.228 39.2034 43.228H54.3327C54.8896 43.228 55.3409 43.6687 55.3409 44.212C55.3409 44.7554 54.8896 45.196 54.3327 45.196ZM15.8813 53.7608H7.66837C7.11164 53.7608 6.66016 53.3204 6.66016 52.7768C6.66016 52.2333 7.11164 51.7929 7.66837 51.7929H15.8813C16.438 51.7929 16.8895 52.2333 16.8895 52.7768C16.8895 53.3204 16.438 53.7608 15.8813 53.7608ZM54.3327 53.7608H46.1198C45.5628 53.7608 45.1115 53.3204 45.1115 52.7768C45.1115 52.2333 45.5628 51.7929 46.1198 51.7929H54.3325C54.8894 51.7929 55.3407 52.2333 55.3407 52.7768C55.3407 53.3204 54.8896 53.7608 54.3327 53.7608ZM15.6454 62.3274H7.66837C7.11164 62.3274 6.66016 61.887 6.66016 61.3434C6.66016 60.7999 7.11164 60.3594 7.66837 60.3594H15.6454C16.2021 60.3594 16.6536 60.7999 16.6536 61.3434C16.6536 61.887 16.2021 62.3274 15.6454 62.3274ZM54.3327 62.3274H46.3557C45.7987 62.3274 45.3475 61.887 45.3475 61.3434C45.3475 60.7999 45.7987 60.3594 46.3557 60.3594H54.3327C54.8896 60.3594 55.3409 60.7999 55.3409 61.3434C55.3409 61.887 54.8896 62.3274 54.3327 62.3274Z" fill="#4DC1FF"/>
<path d="M30.9995 40.7949C21.7077 40.7949 14.1484 48.3507 14.1484 57.6382C14.1484 62.3122 16.1279 66.8201 19.5788 70.0058C20.0236 70.4167 20.4984 70.8253 20.9898 71.1899C22.9656 72.6552 25.1827 73.5593 27.5795 74.1633C28.6981 74.3647 29.8488 74.497 30.9993 74.497C32.1499 74.497 33.3004 74.3717 34.4192 74.14C36.8158 73.6424 39.033 72.6435 41.0092 71.1781C41.5005 70.8134 41.9753 70.4186 42.4199 70.0078C45.8711 66.822 47.8505 62.313 47.8505 57.639C47.8505 48.3517 40.2912 40.7949 30.9995 40.7949Z" fill="#FFBE40"/>
<path d="M31 67.9443C25.3216 67.9443 20.7021 63.3247 20.7021 57.6465C20.7021 51.9683 25.3218 47.3486 31 47.3486C36.6782 47.3486 41.2979 51.9683 41.2979 57.6465C41.2979 63.3247 36.6782 67.9443 31 67.9443Z" fill="#FF7F40"/>
</svg>
