<svg width="180" height="69" viewBox="0 0 180 69" fill="none" xmlns="http://www.w3.org/2000/svg">
<path d="M116.311 38.4364L117.751 38.8629C117.655 39.2656 117.511 39.5974 117.295 39.858C117.079 40.1186 116.839 40.3318 116.527 40.4503C116.215 40.5925 115.831 40.6636 115.351 40.6636C114.775 40.6636 114.32 40.5925 113.936 40.4266C113.576 40.2608 113.264 39.9764 113 39.55C112.736 39.1472 112.592 38.6022 112.592 37.9625C112.592 37.1095 112.832 36.4461 113.288 35.9723C113.744 35.4984 114.415 35.2852 115.255 35.2852C115.927 35.2852 116.431 35.4273 116.815 35.6879C117.199 35.9486 117.487 36.3514 117.655 36.92L116.215 37.228C116.167 37.0622 116.119 36.9437 116.047 36.8726C115.951 36.7541 115.855 36.6594 115.711 36.5883C115.567 36.5172 115.423 36.4935 115.279 36.4935C114.919 36.4935 114.631 36.6357 114.439 36.9437C114.296 37.1569 114.224 37.5123 114.224 37.9625C114.224 38.5311 114.32 38.9339 114.487 39.1472C114.655 39.3604 114.919 39.4789 115.231 39.4789C115.543 39.4789 115.783 39.3841 115.927 39.2183C116.119 39.005 116.239 38.7681 116.311 38.4364Z" fill="#225E63"/>
<path d="M118.327 37.9628C118.327 37.1098 118.567 36.4464 119.047 35.9725C119.527 35.4987 120.199 35.2617 121.063 35.2617C121.951 35.2617 122.622 35.4987 123.102 35.9488C123.582 36.4227 123.822 37.0624 123.822 37.9154C123.822 38.5314 123.726 39.029 123.51 39.4081C123.294 39.7872 123.006 40.0952 122.598 40.3084C122.214 40.5216 121.711 40.6401 121.135 40.6401C120.535 40.6401 120.055 40.5453 119.647 40.3558C119.263 40.1662 118.951 39.8819 118.687 39.4554C118.423 39.029 118.327 38.5788 118.327 37.9628ZM119.959 37.9628C119.959 38.484 120.055 38.8631 120.247 39.1C120.439 39.337 120.703 39.4554 121.063 39.4554C121.423 39.4554 121.687 39.337 121.879 39.1237C122.071 38.8868 122.167 38.484 122.167 37.9154C122.167 37.4178 122.071 37.0624 121.855 36.8492C121.663 36.6122 121.375 36.5175 121.039 36.5175C120.703 36.5175 120.439 36.6359 120.247 36.8729C120.055 37.0624 119.959 37.4415 119.959 37.9628Z" fill="#225E63"/>
<path d="M124.662 35.3564H126.798L127.614 38.5314L128.43 35.3564H130.565V40.569H129.221V36.5885L128.19 40.569H126.99L125.958 36.5885V40.569H124.614V35.3564H124.662Z" fill="#225E63"/>
<path d="M131.621 35.3564H134.333C134.933 35.3564 135.364 35.4986 135.652 35.7829C135.94 36.0672 136.084 36.4463 136.084 36.9676C136.084 37.4888 135.916 37.9153 135.604 38.1996C135.292 38.5077 134.789 38.6498 134.141 38.6498H133.253V40.5927H131.621V35.3564ZM133.253 37.5836H133.661C133.973 37.5836 134.189 37.5362 134.333 37.4178C134.453 37.2993 134.525 37.1808 134.525 37.015C134.525 36.8491 134.477 36.707 134.357 36.5885C134.237 36.47 134.045 36.4226 133.733 36.4226H133.277L133.253 37.5836Z" fill="#225E63"/>
<path d="M136.947 35.3564H138.579V39.2895H141.123V40.569H136.947V35.3564Z" fill="#225E63"/>
<path d="M141.938 35.3564H143.57V40.569H141.938V35.3564Z" fill="#225E63"/>
<path d="M147.986 39.6916H146.138L145.874 40.5446H144.219L146.21 35.332H147.986L149.978 40.5446H148.274L147.986 39.6916ZM147.65 38.578L147.074 36.7062L146.498 38.578H147.65Z" fill="#225E63"/>
<path d="M150.481 35.3564H151.993L153.985 38.247V35.3564H155.521V40.569H153.985L152.017 37.7021V40.569H150.481V35.3564Z" fill="#225E63"/>
<path d="M156.24 35.3564H161.207V36.6359H159.552V40.569H157.92V36.6359H156.264L156.24 35.3564Z" fill="#225E63"/>
<path d="M96.6829 43.2933L101.41 41.8244L99.8744 38.4599C98.7465 39.8578 97.6187 41.6585 96.6829 43.2933ZM95.0752 27.9163L85.8127 7.54004L18 11.331L36.7889 61.94L72.9508 50.6857C70.6472 47.416 69.8074 43.5303 72.4709 41.6348C75.4464 39.5024 79.9337 41.9665 82.7892 45.4494C85.5487 40.9003 93.2995 30.3094 95.0752 27.9163Z" fill="#225E63"/>
<path d="M83.7006 22.2655C86.5321 22.2655 88.8357 20.1331 88.8357 17.4794C88.8357 14.8258 86.5321 12.6934 83.7006 12.6934C80.869 12.6934 78.5654 14.8258 78.5654 17.4794C78.5654 20.1094 80.869 22.2655 83.7006 22.2655ZM79.5013 24.3268H87.8999V46.0063H79.5013V24.3268Z" fill="#FEFEFE"/>
<path d="M75.3497 30.6531C75.4217 30.6768 75.4697 30.6531 75.4697 30.582V25.0851C75.4697 25.0141 75.4217 24.943 75.3497 24.8956C75.3497 24.8956 74.2459 24.1848 70.8865 23.9952C70.7185 23.9005 67.767 23.8768 66.9751 23.9952C54.7372 24.9667 54.2812 33.7095 54.2812 34.0886V36.221C54.2812 36.4817 54.2812 45.4141 66.9751 46.1959C68.2229 46.2907 70.6465 46.1959 70.8865 46.1959C73.814 46.1959 75.8297 45.3193 75.8297 45.3193C75.9016 45.2956 75.9496 45.2245 75.9496 45.1534V40.012C75.9496 39.9409 75.9016 39.9172 75.8537 39.9646C75.8537 39.9646 74.9418 40.6754 70.9585 41.0782C69.8307 41.1966 69.2788 41.1493 68.8708 41.0782C63.2078 40.1304 62.9438 36.0552 62.9438 36.0552C62.9438 35.9841 62.9198 35.8656 62.9198 35.8182V34.2545C62.9198 34.1834 62.9198 34.0649 62.9438 34.0176C62.9438 34.0176 63.3277 29.6343 68.8708 29.1604H70.9585C73.3821 29.4684 75.3497 30.6531 75.3497 30.6531Z" fill="#FEFEFE"/>
<path d="M30.957 45.9348C30.957 46.0059 31.005 46.0532 31.077 46.0532H39.2596C39.3316 46.0532 39.3796 46.0059 39.3796 45.9348V39.6323C39.3796 39.5613 39.4276 39.5139 39.4996 39.5139C39.4996 39.5139 52.5774 40.4379 52.5774 31.7898C52.5774 24.9424 44.3708 24.2079 41.6832 24.3264C41.6353 24.3264 31.077 24.3264 31.077 24.3264C31.005 24.3264 30.957 24.3738 30.957 24.4449V45.9348ZM39.2357 34.7041V29.0414H41.2513C41.2513 29.0414 44.1548 29.1599 44.3948 31.1264C44.4428 31.2686 44.4428 32.24 44.3948 32.2874C44.0109 34.5856 41.4913 34.7041 41.4913 34.7041H39.2357Z" fill="#FEFEFE"/>
<path d="M83.9414 56.4669C84.6133 56.4669 85.1412 56.4669 86.0051 56.0878C88.9806 54.5478 99.0349 30.3094 109.641 22.846C109.713 22.7986 109.785 22.7276 109.833 22.6565C109.905 22.5617 109.905 22.4669 109.905 22.4669C109.905 22.4669 109.905 21.9694 108.345 21.9694C98.9149 21.7088 89.1006 41.2558 83.9414 48.9798C83.8694 49.0746 83.5335 48.9798 83.5335 48.9798C83.5335 48.9798 80.0781 44.952 77.0786 43.4119C77.0066 43.3882 76.6706 43.2697 76.3107 43.2934C76.0707 43.2934 74.679 43.5777 74.0311 44.2412C73.2632 45.0467 73.2872 45.4969 73.2872 46.4683C73.2872 46.5394 73.3352 46.8711 73.4312 47.037C74.175 48.3164 77.5105 52.8655 80.27 55.377C80.678 55.6851 81.3259 56.4669 83.9414 56.4669Z" fill="#2BBC5D"/>
<path d="M112.424 15.5254H120.271C121.83 15.5254 123.078 15.7386 124.014 16.1414C124.974 16.5679 125.766 17.1602 126.366 17.9184C126.989 18.7003 127.445 19.6007 127.709 20.6195C127.997 21.6383 128.141 22.7282 128.141 23.8892C128.141 25.6899 127.925 27.0878 127.517 28.0829C127.109 29.078 126.533 29.9073 125.79 30.5944C125.046 31.2578 124.254 31.708 123.414 31.9449C122.262 32.2529 121.206 32.3951 120.271 32.3951H112.424V15.5254ZM117.703 19.34V28.5567H118.999C120.103 28.5567 120.894 28.4383 121.35 28.2013C121.806 27.9644 122.19 27.5379 122.454 26.9456C122.718 26.3533 122.862 25.3581 122.862 24.0076C122.862 22.2069 122.574 20.9986 121.974 20.3351C121.374 19.6717 120.414 19.34 119.023 19.34H117.703Z" fill="#225E63"/>
<path d="M129.604 26.8266L134.644 26.5185C134.764 27.3241 134.98 27.9401 135.316 28.3666C135.867 29.0537 136.635 29.3854 137.643 29.3854C138.387 29.3854 138.987 29.2196 139.395 28.8642C139.803 28.5088 140.019 28.106 140.019 27.6558C140.019 27.2293 139.827 26.8266 139.443 26.4712C139.059 26.1158 138.147 25.8077 136.731 25.4997C134.404 24.9785 132.772 24.2914 131.764 23.4384C130.756 22.5854 130.276 21.4955 130.276 20.1687C130.276 19.2921 130.54 18.4865 131.044 17.7046C131.548 16.9227 132.316 16.3304 133.348 15.8802C134.38 15.43 135.771 15.2168 137.547 15.2168C139.731 15.2168 141.411 15.6196 142.538 16.4252C143.69 17.2307 144.362 18.5102 144.578 20.2635L139.587 20.5478C139.443 19.7896 139.179 19.2447 138.747 18.8893C138.315 18.5339 137.739 18.368 136.995 18.368C136.371 18.368 135.915 18.4865 135.603 18.7471C135.292 19.0077 135.148 19.3158 135.148 19.6948C135.148 19.9555 135.268 20.2161 135.532 20.4293C135.771 20.6426 136.371 20.8558 137.307 21.0454C139.611 21.5429 141.267 22.0405 142.274 22.5381C143.282 23.0356 144.002 23.6753 144.458 24.4098C144.914 25.1443 145.13 25.9973 145.13 26.9213C145.13 28.0112 144.818 29.0063 144.218 29.9067C143.618 30.8307 142.754 31.5178 141.674 31.9917C140.595 32.4656 139.203 32.7025 137.547 32.7025C134.644 32.7025 132.628 32.1576 131.5 31.044C130.396 29.9304 129.772 28.5325 129.604 26.8266Z" fill="#225E63"/>
<path d="M146.475 26.8266L151.514 26.5185C151.634 27.3241 151.85 27.9401 152.186 28.3666C152.738 29.0537 153.505 29.3854 154.513 29.3854C155.257 29.3854 155.857 29.2196 156.265 28.8642C156.673 28.5088 156.889 28.106 156.889 27.6558C156.889 27.2293 156.697 26.8266 156.313 26.4712C155.929 26.1158 155.017 25.8077 153.601 25.4997C151.274 24.9785 149.642 24.2914 148.634 23.4384C147.65 22.5854 147.146 21.4955 147.146 20.1687C147.146 19.2921 147.41 18.4865 147.914 17.7046C148.418 16.9227 149.186 16.3304 150.218 15.8802C151.25 15.43 152.642 15.2168 154.417 15.2168C156.601 15.2168 158.281 15.6196 159.408 16.4252C160.56 17.2307 161.232 18.5102 161.448 20.2635L156.457 20.5478C156.313 19.7896 156.049 19.2447 155.617 18.8893C155.185 18.5339 154.609 18.368 153.865 18.368C153.241 18.368 152.786 18.4865 152.474 18.7471C152.162 19.0077 152.018 19.3158 152.018 19.6948C152.018 19.9555 152.138 20.2161 152.402 20.4293C152.642 20.6426 153.241 20.8558 154.177 21.0454C156.481 21.5429 158.137 22.0405 159.144 22.5381C160.152 23.0356 160.872 23.6753 161.328 24.4098C161.784 25.1443 162 25.9973 162 26.9213C162 28.0112 161.688 29.0063 161.088 29.9067C160.488 30.8307 159.624 31.5178 158.545 31.9917C157.465 32.4656 156.073 32.7025 154.417 32.7025C151.514 32.7025 149.498 32.1576 148.37 31.044C147.242 29.9304 146.619 28.5325 146.475 26.8266Z" fill="#225E63"/>
</svg>
