<svg width="180" height="69" viewBox="0 0 180 69" fill="none" xmlns="http://www.w3.org/2000/svg">
<g clip-path="url(#clip0_21088_114955)">
<path d="M138.435 38.8509H62.5225V20.3877H133.552C136.246 20.3877 138.435 22.5773 138.435 25.2705V38.8509Z" fill="url(#paint0_linear_21088_114955)"/>
<path d="M133.552 52.3547H62.5225V38.8506H138.435V47.4718C138.435 50.165 136.253 52.3547 133.552 52.3547Z" fill="#545454"/>
<path d="M95.1082 24.0723C96.9011 24.0723 97.8242 25.148 97.8242 27.0249V27.3911H96.0771V26.9104C96.0771 26.0712 95.7414 25.7507 95.1539 25.7507C94.5665 25.7507 94.2308 26.0712 94.2308 26.9104C94.2308 27.7649 94.597 28.4058 95.8101 29.4586C97.3512 30.8167 97.8395 31.7932 97.8395 33.136C97.8395 35.0129 96.9011 36.0886 95.0853 36.0886C93.2695 36.0886 92.3311 35.0129 92.3311 33.136V32.4112H94.0782V33.2505C94.0782 34.0897 94.4444 34.3949 95.0319 34.3949C95.6193 34.3949 95.9856 34.0897 95.9856 33.2505C95.9856 32.396 95.6193 31.7551 94.4063 30.7022C92.8651 29.3442 92.3768 28.3676 92.3768 27.0249C92.3845 25.148 93.3076 24.0723 95.1082 24.0723Z" fill="white"/>
<path d="M100.747 29.1605H103.28V30.839H100.747V34.2798H103.936V35.9583H98.9004V24.209H103.936V25.8875H100.747V29.1605Z" fill="white"/>
<path d="M110.428 31.572V33.136C110.428 35.0129 109.49 36.0886 107.674 36.0886C105.858 36.0886 104.92 35.0129 104.92 33.136V27.0249C104.92 25.148 105.858 24.0723 107.674 24.0723C109.49 24.0723 110.428 25.148 110.428 27.0249V28.1693H108.681V26.9104C108.681 26.0712 108.315 25.7507 107.728 25.7507C107.14 25.7507 106.774 26.0712 106.774 26.9104V33.2581C106.774 34.0973 107.14 34.4025 107.728 34.4025C108.315 34.4025 108.681 34.0973 108.681 33.2581V31.5796H110.428V31.572Z" fill="white"/>
<path d="M113.312 24.21V33.2737C113.312 34.113 113.678 34.4181 114.266 34.4181C114.853 34.4181 115.219 34.113 115.219 33.2737V24.21H116.966V33.1593C116.966 35.0361 116.028 36.1119 114.212 36.1119C112.396 36.1119 111.458 35.0361 111.458 33.1593V24.21H113.312Z" fill="white"/>
<path d="M122.094 35.9583C121.995 35.6531 121.926 35.47 121.926 34.5163V32.67C121.926 31.579 121.56 31.1747 120.721 31.1747H120.08V35.9583H118.233V24.209H121.018C122.933 24.209 123.757 25.1016 123.757 26.9098V27.833C123.757 29.0384 123.368 29.8166 122.552 30.1981V30.2286C123.475 30.6177 123.78 31.4875 123.78 32.7158V34.5316C123.78 35.1038 123.795 35.5234 123.978 35.9583H122.094ZM120.08 25.8875V29.4962H120.805C121.491 29.4962 121.911 29.191 121.911 28.2526V27.0929C121.911 26.2537 121.628 25.8875 120.972 25.8875H120.08Z" fill="white"/>
<path d="M126.824 29.1615H129.357V30.8399H126.824V34.2808H130.013V35.9593H124.978V24.21H130.013V25.8884H126.824V29.1615Z" fill="white"/>
<path d="M93.3989 42.4824C94.2229 42.4824 94.6502 42.9783 94.6502 43.8405V44.0083H93.8491V43.7871C93.8491 43.4056 93.6965 43.253 93.4218 43.253C93.1548 43.253 92.9946 43.398 92.9946 43.7871C92.9946 44.1838 93.1624 44.4737 93.7194 44.962C94.4289 45.5876 94.6502 46.0301 94.6502 46.6481C94.6502 47.5102 94.2153 48.0061 93.3837 48.0061C92.5521 48.0061 92.1172 47.5102 92.1172 46.6481V46.32H92.9183V46.7015C92.9183 47.083 93.0861 47.2279 93.3608 47.2279C93.6278 47.2279 93.8033 47.0906 93.8033 46.7015C93.8033 46.3048 93.6354 46.0148 93.0785 45.5266C92.369 44.901 92.1477 44.4584 92.1477 43.8405C92.1477 42.9783 92.575 42.4824 93.3989 42.4824Z" fill="white"/>
<path d="M96.2827 42.4824C97.1067 42.4824 97.5339 42.9783 97.5339 43.8405V44.0083H96.7329V43.7871C96.7329 43.4056 96.5803 43.253 96.3056 43.253C96.0386 43.253 95.8784 43.398 95.8784 43.7871C95.8784 44.1838 96.0462 44.4737 96.6032 44.962C97.3127 45.5876 97.5339 46.0301 97.5339 46.6481C97.5339 47.5102 97.0991 48.0061 96.2675 48.0061C95.4359 48.0061 95.001 47.5102 95.001 46.6481V46.32H95.8021V46.7015C95.8021 47.083 95.9699 47.2279 96.2446 47.2279C96.5116 47.2279 96.6871 47.0906 96.6871 46.7015C96.6871 46.3048 96.5192 46.0148 95.9623 45.5266C95.2528 44.901 95.0315 44.4584 95.0315 43.8405C95.0315 42.9783 95.4511 42.4824 96.2827 42.4824Z" fill="white"/>
<path d="M98.0225 42.5508H98.8693V47.1742H100.266V47.9448H98.0225V42.5508Z" fill="white"/>
<path d="M102.676 44.8167H103.843V45.5873H102.676V47.1666H104.141V47.9372H101.829V42.5508H104.141V43.3214H102.676V44.8167Z" fill="white"/>
<path d="M105.431 44.0309H105.415V47.9372H104.652V42.5508H105.713L106.567 45.778H106.583V42.5508H107.338V47.9448H106.468L105.431 44.0309Z" fill="white"/>
<path d="M110.413 45.9309V46.6481C110.413 47.5102 109.978 48.0061 109.146 48.0061C108.315 48.0061 107.88 47.5102 107.88 46.6481V43.8405C107.88 42.9783 108.315 42.4824 109.146 42.4824C109.978 42.4824 110.413 42.9783 110.413 43.8405V44.3669H109.612V43.7871C109.612 43.4056 109.444 43.253 109.169 43.253C108.902 43.253 108.727 43.398 108.727 43.7871V46.7015C108.727 47.083 108.895 47.2279 109.169 47.2279C109.436 47.2279 109.612 47.0906 109.612 46.7015V45.9309H110.413Z" fill="white"/>
<path d="M112.702 47.9448C112.656 47.8075 112.625 47.7235 112.625 47.281V46.4342C112.625 45.9306 112.458 45.7475 112.068 45.7475H111.779V47.9448H110.932V42.5508H112.213C113.091 42.5508 113.472 42.9628 113.472 43.7944V44.2216C113.472 44.7786 113.297 45.1295 112.915 45.305V45.3203C113.343 45.4957 113.48 45.9001 113.48 46.457V47.2887C113.48 47.5481 113.488 47.7464 113.571 47.9448H112.702ZM111.779 43.3214V44.9769H112.107C112.419 44.9769 112.618 44.8396 112.618 44.4047V43.8707C112.618 43.4892 112.488 43.3137 112.183 43.3137H111.779V43.3214Z" fill="white"/>
<path d="M114.738 46.1517L113.67 42.543H114.555L115.196 44.9996H115.211L115.852 42.543H116.661L115.593 46.1517V47.937H114.746V46.1517H114.738Z" fill="white"/>
<path d="M119.515 43.8783V44.5802C119.515 45.4423 119.095 45.9154 118.248 45.9154H117.844V47.9448H116.997V42.5508H118.248C119.095 42.5508 119.515 43.0162 119.515 43.8783ZM117.844 43.3214V45.1448H118.248C118.515 45.1448 118.668 45.0227 118.668 44.6336V43.8249C118.668 43.4434 118.523 43.3137 118.248 43.3137H117.844V43.3214Z" fill="white"/>
<path d="M119.659 42.5508H122.276V43.3214H121.391V47.9448H120.544V43.3214H119.659V42.5508Z" fill="white"/>
<path d="M122.65 42.5508H123.497V47.9448H122.65V42.5508Z" fill="white"/>
<path d="M124.046 43.8405C124.046 42.9783 124.504 42.4824 125.335 42.4824C126.167 42.4824 126.625 42.9783 126.625 43.8405V46.6481C126.625 47.5102 126.167 48.0061 125.335 48.0061C124.504 48.0061 124.046 47.5102 124.046 46.6481V43.8405ZM124.893 46.7015C124.893 47.083 125.061 47.2356 125.335 47.2356C125.602 47.2356 125.778 47.0906 125.778 46.7015V43.7871C125.778 43.4056 125.61 43.253 125.335 43.253C125.068 43.253 124.893 43.398 124.893 43.7871V46.7015Z" fill="white"/>
<path d="M127.937 44.0309H127.922V47.9372H127.159V42.5508H128.22L129.074 45.778H129.089V42.5508H129.845V47.9448H128.975L127.937 44.0309Z" fill="white"/>
<path d="M80.9477 14.8943C76.782 14.6196 69.1221 13.1395 62.515 6.54004C55.9155 13.1395 48.248 14.6196 44.0823 14.8943H41L41.0153 31.9231C41.0153 31.9231 41.0153 44.6795 49.7128 53.1635C58.4104 61.6398 62.2861 62.54 62.2861 62.54C62.2861 62.54 66.6272 61.6398 75.3248 53.1635C84.0223 44.6872 84.0223 31.9231 84.0223 31.9231L84.0376 14.8943H80.9477Z" fill="url(#paint1_linear_21088_114955)"/>
<path d="M62.3391 59.5183L62.0034 59.3428C60.4699 58.5341 57.0824 56.3978 51.6884 51.1335C49.9489 49.4398 48.4611 47.4028 47.2557 45.0834C46.2715 43.1837 45.478 41.0932 44.8906 38.8578C43.8835 35.0049 43.8453 32.0447 43.8377 31.9226L43.8301 17.7548L44.532 17.7014C48.217 17.4267 55.4039 16.1602 62.0415 10.7739L62.5145 10.3848L62.9876 10.7739C69.6252 16.1526 76.8045 17.4191 80.4971 17.7014L81.199 17.7548L81.1838 31.915C81.1838 32.0447 81.1456 35.0126 80.1309 38.8578C79.5434 41.0932 78.75 43.1837 77.7658 45.0834C76.5603 47.4028 75.0726 49.4398 73.3331 51.1335C67.8857 56.4436 64.3151 58.5646 62.6671 59.3504L62.3391 59.5183ZM45.3483 19.151L45.3636 31.915C45.3636 31.9379 45.4017 34.7989 46.363 38.4763C46.92 40.6049 47.6753 42.5886 48.6061 44.3891C49.7353 46.5711 51.1238 48.4709 52.7489 50.0502C57.6393 54.8186 60.7827 56.9319 62.3772 57.8169C64.0633 56.9472 67.3592 54.8567 72.2955 50.0502C73.9129 48.4709 75.3091 46.5635 76.4382 44.3891C77.369 42.5886 78.1244 40.5973 78.6813 38.4763C79.6426 34.8142 79.6808 31.9379 79.6808 31.915L79.696 19.1586C77.8115 18.9755 75.1641 18.5406 72.2268 17.5488C68.6944 16.3586 65.4366 14.6038 62.5298 12.3379C59.623 14.6115 56.3576 16.3586 52.8328 17.5488C49.8802 18.533 47.2328 18.9602 45.3483 19.151Z" fill="white"/>
<path d="M60.73 45.0756L52.3377 36.7214C51.6205 36.0042 51.6205 34.8445 52.33 34.135C53.0472 33.4178 54.1992 33.4178 54.9164 34.1274L60.7148 39.9029L71.6325 28.9851C72.3496 28.268 73.5093 28.268 74.2189 28.9851C74.936 29.7023 74.936 30.862 74.2189 31.5715L60.73 45.0756Z" fill="white"/>
</g>
<defs>
<linearGradient id="paint0_linear_21088_114955" x1="100.48" y1="20.3434" x2="100.48" y2="38.1945" gradientUnits="userSpaceOnUse">
<stop stop-color="#A5DB52"/>
<stop offset="1" stop-color="#0FA307"/>
</linearGradient>
<linearGradient id="paint1_linear_21088_114955" x1="62.5189" y1="6.54004" x2="62.5189" y2="62.5375" gradientUnits="userSpaceOnUse">
<stop stop-color="#A5DB52"/>
<stop offset="1" stop-color="#0FA307"/>
</linearGradient>
<clipPath id="clip0_21088_114955">
<rect width="97.4354" height="56" fill="white" transform="translate(41 6.54004)"/>
</clipPath>
</defs>
</svg>
