<svg xmlns="http://www.w3.org/2000/svg" width="26" height="36" viewBox="0 0 26 36" fill="none">
  <g clip-path="url(#clip0_919_1204)">
    <path d="M17.3339 1.12512C17.3339 0.503293 16.8492 0 16.2504 0H9.74949C9.15067 0 8.666 0.503293 8.666 1.12512C8.666 1.74695 8.18133 2.25024 7.58251 2.25024C6.98369 2.25024 6.49902 2.75354 6.49902 3.37536V4.50049C6.49902 5.12231 6.98369 5.62561 7.58251 5.62561H18.4155C19.0144 5.62561 19.499 5.12231 19.499 4.50049V3.37536C19.499 2.75354 19.0144 2.25024 18.4155 2.25024C17.8167 2.25024 17.332 1.74695 17.332 1.12512H17.3339Z" fill="#2F78F1"/>
    <path d="M4.51922 2.25024H3.25047C1.45588 2.25024 0 3.76012 0 5.62561V32.6246C0 34.4882 1.45588 36 3.25047 36H22.7514C24.546 36 26.0019 34.4882 26.0019 32.6246V5.62561C26.0019 3.76207 24.546 2.25024 22.7514 2.25024H21.4827C21.6024 2.60197 21.6679 2.98089 21.6679 3.37537V4.50049C21.6679 6.36403 20.212 7.87585 18.4174 7.87585H7.58442C5.78984 7.87585 4.33396 6.36403 4.33396 4.50049V3.37537C4.33396 2.98089 4.39945 2.60197 4.51922 2.25024ZM19.1828 17.6697L12.6819 24.4204C12.4779 24.6303 12.2028 24.7507 11.9165 24.7507C11.6302 24.7507 11.3532 24.6322 11.1511 24.4204L7.90068 21.045C7.47776 20.6059 7.47776 19.8927 7.90068 19.4535C8.32359 19.0144 9.01036 19.0144 9.43328 19.4535L11.9165 22.0322L17.6502 16.0782C18.0731 15.639 18.7599 15.639 19.1828 16.0782C19.6057 16.5173 19.6057 17.2305 19.1828 17.6697Z" fill="#140097"/>
  </g>
  <defs>
    <clipPath id="clip0_919_1204">
      <rect width="26" height="36" fill="white"/>
    </clipPath>
  </defs>
</svg>