<svg xmlns="http://www.w3.org/2000/svg" width="40" height="39" viewBox="0 0 40 39" fill="none">
  <g clip-path="url(#clip0_931_1212)">
    <path d="M21.1787 0.771818C20.1713 -0.257273 18.5365 -0.257273 17.5292 0.771818L0.377748 18.2938C-0.125916 18.8083 -0.125916 19.6434 0.377748 20.1579C0.881412 20.6725 1.69883 20.6725 2.2025 20.1579L19.3539 2.63599L36.5053 20.1579C37.009 20.6725 37.8264 20.6725 38.3301 20.1579C38.8337 19.6434 38.8337 18.8083 38.3301 18.2938L32.2572 12.0897V3.40781C32.2572 2.68027 31.6792 2.08981 30.9671 2.08981H28.3868C27.6747 2.08981 27.0967 2.68027 27.0967 3.40781V6.81562L21.1787 0.771818Z" fill="#140097"/>
    <path d="M19.3535 5.49976L31.5137 17.9226C31.3321 17.9142 31.1504 17.91 30.9667 17.91C24.5533 17.91 19.3535 23.222 19.3535 29.7741C19.3535 32.2139 20.0739 34.4809 21.3083 36.364H7.74244C5.60393 36.364 3.87207 34.5948 3.87207 32.4101V21.3178L19.3535 5.49976Z" fill="#140097"/>
    <path d="M30.9675 39.0001C35.9567 39.0001 40.0004 34.869 40.0004 29.772C40.0004 24.6751 35.9567 20.5439 30.9675 20.5439C25.9783 20.5439 21.9346 24.6751 21.9346 29.772C21.9346 34.869 25.9783 39.0001 30.9675 39.0001ZM35.3002 27.155L31.8551 33.0217C31.2069 34.1246 29.7166 34.3122 28.8269 33.4034L26.8308 31.3642C26.3272 30.8496 26.3272 30.0145 26.8308 29.5C27.3345 28.9854 28.1519 28.9854 28.6556 29.5L30.0675 30.9424L33.0874 25.7991C33.4548 25.1749 34.2475 24.9724 34.8564 25.3478C35.4674 25.7231 35.6656 26.5329 35.2982 27.1571L35.3002 27.155Z" fill="#2F78F1"/>
  </g>
  <defs>
    <clipPath id="clip0_931_1212">
      <rect width="40" height="39" fill="white"/>
    </clipPath>
  </defs>
</svg>