<svg xmlns="http://www.w3.org/2000/svg" width="40" height="40" viewBox="0 0 40 40" fill="none">
  <g clip-path="url(#clip0_919_1200)">
    <path d="M30.0003 40C35.5229 40 39.9997 35.5231 39.9997 30.0006C39.9997 24.4781 35.5229 20.0012 30.0003 20.0012C24.4778 20.0012 20.001 24.4781 20.001 30.0006C20.001 35.5231 24.4778 40 30.0003 40ZM34.7964 27.1627L30.9807 33.5222C30.2643 34.7187 28.6128 34.9198 27.6274 33.9345L25.4179 31.725C24.8599 31.1669 24.8599 30.262 25.4179 29.704C25.976 29.1459 26.8809 29.1459 27.4389 29.704L29.0024 31.2675L32.3481 25.6947C32.7528 25.0185 33.6326 24.7998 34.3088 25.2045C34.985 25.6092 35.2036 26.489 34.7989 27.1652L34.7964 27.1627Z" fill="#2F78F1"/>
    <path d="M25.7145 8.57161C25.7145 13.3048 21.8761 17.1432 17.1429 17.1432C12.4097 17.1432 8.57129 13.3048 8.57129 8.57161C8.57129 3.83837 12.4097 0 17.1429 0C21.8761 0 25.7145 3.83837 25.7145 8.57161Z" fill="#140097"/>
    <path d="M0 31.4284C0 34.2864 2.85804 34.2864 2.85804 34.2864H17.8747C17.4021 32.9466 17.1432 31.5038 17.1432 30.0006C17.1432 26.1321 18.85 22.6632 21.5547 20.3079C20.2225 20.1093 18.757 20.0012 17.1432 20.0012C2.85804 20.0012 0 28.5703 0 31.4284Z" fill="#140097"/>
  </g>
  <defs>
    <clipPath id="clip0_919_1200">
      <rect width="40" height="40" fill="white"/>
    </clipPath>
  </defs>
</svg>