<svg xmlns="http://www.w3.org/2000/svg" width="35" height="38" viewBox="0 0 35 38" fill="none">
  <g clip-path="url(#clip0_919_1197)">
    <path d="M16.6818 0.224213C17.2535 -0.0740867 17.9399 -0.0740867 18.5116 0.224213L33.8416 8.21371C34.1838 8.39231 34.3977 8.74001 34.3977 9.12001C34.3977 9.50001 34.1838 9.84771 33.8416 10.0263L18.0896 18.2343C17.7805 18.3958 17.411 18.3958 17.1018 18.2343L1.39657 10.0472C1.12629 9.90661 0.908511 9.67291 0.830733 9.38221C0.704344 8.90721 0.931844 8.43221 1.35184 8.21371L16.6818 0.224213Z" fill="#2F78F1"/>
    <path d="M35 13.0113V31.6123C35 32.0208 34.7317 32.3836 34.335 32.5129L17.5 38L0.665 32.5167C0.268333 32.3875 0 32.0246 0 31.6161V13.0151C0 12.2912 0.797222 11.8333 1.44472 12.1848L17.5 20.9001L33.5553 12.1829C34.2028 11.8295 35 12.2874 35 13.0113Z" fill="#140097"/>
  </g>
  <defs>
    <clipPath id="clip0_919_1197">
      <rect width="35" height="38" fill="white"/>
    </clipPath>
  </defs>
</svg>