<svg xmlns="http://www.w3.org/2000/svg" width="40" height="40" viewBox="0 0 40 40" fill="none">
  <path d="M12.792 27.375H31.2087L37.5837 36.5833H6.41699L12.792 27.375Z" fill="#140097"/>
  <path fill-rule="evenodd" clip-rule="evenodd" d="M11.5875 27.8C11.7882 27.5325 12.1031 27.375 12.4375 27.375H17.75C18.3368 27.375 18.8125 27.8507 18.8125 28.4375C18.8125 29.0243 18.3368 29.5 17.75 29.5H12.9688L8.18751 35.875H35.8125L31.0313 29.5H26.25C25.6632 29.5 25.1875 29.0243 25.1875 28.4375C25.1875 27.8507 25.6632 27.375 26.25 27.375H31.5625C31.8969 27.375 32.2118 27.5325 32.4125 27.8L38.7875 36.3C39.029 36.622 39.0678 37.0527 38.8878 37.4127C38.7079 37.7726 38.34 38 37.9375 38H22H6.06251C5.66006 38 5.29216 37.7726 5.11218 37.4127C4.9322 37.0527 4.97104 36.622 5.21251 36.3L8.40001 32.05L11.5875 27.8Z" fill="#140097"/>
  <path fill-rule="evenodd" clip-rule="evenodd" d="M13.5 12.5C13.5 7.80558 17.3056 4 22 4C26.6944 4 30.5 7.80558 30.5 12.5C30.5 16.8346 27.2555 20.4114 23.0625 20.9342V32.6875C23.0625 33.2743 22.5868 33.75 22 33.75C21.4132 33.75 20.9375 33.2743 20.9375 32.6875V20.9342C16.7445 20.4114 13.5 16.8346 13.5 12.5Z" fill="#2F78F1"/>
</svg>