<svg width="240" height="166" viewBox="0 0 240 166" fill="none" xmlns="http://www.w3.org/2000/svg">
<path d="M225.514 72.4455H181.768C181.768 71.6407 181.825 70.8359 181.825 69.9736C181.825 31.861 150.898 0.934082 112.728 0.934082C74.5581 0.934082 43.6886 31.861 43.6886 69.9736C43.6886 70.7784 43.7461 71.5832 43.7461 72.4455H0L14.4862 105.729L0 139.071H225.514L240 105.787L225.514 72.4455Z" fill="#FFA940"/>
<g filter="url(#filter0_d_38268_522265)">
<path d="M164.464 70.8358C164.005 99.4058 140.436 122.17 111.923 121.71C83.353 121.25 60.589 97.6813 61.0488 69.1687C61.5087 40.5986 85.0776 17.8346 113.59 18.2944C142.16 18.7543 164.924 42.3232 164.464 70.8358Z" fill="url(#paint0_linear_38268_522265)"/>
<path d="M147.712 104.993C167.04 85.6643 167.04 54.3264 147.712 34.9977C128.383 15.6691 97.0451 15.6691 77.7164 34.9977C58.3877 54.3264 58.3877 85.6643 77.7164 104.993C97.045 124.322 128.383 124.322 147.712 104.993Z" fill="#F2F2F2"/>
</g>
<path fill-rule="evenodd" clip-rule="evenodd" d="M123.67 76.9016C119.973 76.9155 116.964 73.9295 116.95 70.2321C116.936 66.5347 119.922 63.5261 123.62 63.512C127.317 63.4981 130.326 66.484 130.34 70.1814C130.349 71.9577 129.651 73.6647 128.4 74.9255C127.148 76.1863 125.447 76.8973 123.67 76.9016V76.9016Z" stroke="#F57C00" stroke-width="4" stroke-linecap="round" stroke-linejoin="round"/>
<path fill-rule="evenodd" clip-rule="evenodd" d="M135.342 93.5247H111.999C111.08 93.522 110.335 92.7771 110.332 91.8573V90.19C110.343 86.511 113.323 83.5313 117.001 83.5205H130.34C134.019 83.5313 136.999 86.511 137.01 90.19V91.8573C137.007 92.7771 136.262 93.522 135.342 93.5247V93.5247Z" stroke="#F57C00" stroke-width="4" stroke-linecap="round" stroke-linejoin="round"/>
<path d="M122.932 53.5079C118.246 46.8013 109.738 43.9308 101.947 46.4285C94.1565 48.9262 88.9029 56.2091 88.9903 64.3898C89.0778 72.5705 94.486 79.7393 102.328 82.0699" stroke="#F57C00" stroke-width="4" stroke-linecap="round" stroke-linejoin="round"/>
<path d="M111.22 62.3997L106.778 66.8468L104.11 64.1791" stroke="#F57C00" stroke-width="4" stroke-linecap="round" stroke-linejoin="round"/>
<defs>
<filter id="filter0_d_38268_522265" x="61.042" y="18.2876" width="143.43" height="147.429" filterUnits="userSpaceOnUse" color-interpolation-filters="sRGB">
<feFlood flood-opacity="0" result="BackgroundImageFix"/>
<feColorMatrix in="SourceAlpha" type="matrix" values="0 0 0 0 0 0 0 0 0 0 0 0 0 0 0 0 0 0 127 0" result="hardAlpha"/>
<feOffset dx="20" dy="24"/>
<feGaussianBlur stdDeviation="10"/>
<feComposite in2="hardAlpha" operator="out"/>
<feColorMatrix type="matrix" values="0 0 0 0 0 0 0 0 0 0 0 0 0 0 0 0 0 0 0.25 0"/>
<feBlend mode="normal" in2="BackgroundImageFix" result="effect1_dropShadow_38268_522265"/>
<feBlend mode="normal" in="SourceGraphic" in2="effect1_dropShadow_38268_522265" result="shape"/>
</filter>
<linearGradient id="paint0_linear_38268_522265" x1="81.0391" y1="29.5964" x2="147.269" y2="113.987" gradientUnits="userSpaceOnUse">
<stop stop-color="white"/>
<stop offset="0.9973" stop-color="#D7D6D6"/>
</linearGradient>
</defs>
</svg>
