<svg width="120" height="120" viewBox="0 0 120 120" fill="none" xmlns="http://www.w3.org/2000/svg">
<g clip-path="url(#clip0_34366_337721)">
<path d="M71.6817 76.2344C71.6817 82.81 71.6817 89.4004 71.6817 96.2876C78.8477 90.8179 85.7626 85.5337 92.7923 80.1679C91.9602 79.5519 91.164 79.0324 90.4467 78.4238C87.3766 75.7891 86.6234 72.2936 88.6749 69.3249C89.5357 68.0781 90.7121 66.9055 91.9961 66.193C93.3231 65.4583 93.5885 64.6122 93.567 63.2095C93.4881 58.7714 93.5383 54.3333 93.5383 49.9026C93.5383 49.4498 93.5383 49.0045 93.5383 48.4553C92.864 48.3885 92.2758 48.3514 91.6948 48.2772C89.4137 48.0026 87.6348 46.1843 87.6061 43.8094C87.5415 38.0428 87.52 32.2837 87.6133 26.5171C87.6635 23.4371 90.2817 20.5872 93.2514 20.1196C94.2341 19.9638 95.2455 19.9638 96.2426 19.9564C101.45 19.9415 106.665 20.0528 111.873 19.9193C116.672 19.8005 119.835 23.541 119.656 27.9865C119.462 32.6622 119.613 37.3526 119.613 42.0431C119.613 45.9839 117.941 47.921 114.176 48.3514C114.061 48.3663 113.946 48.4108 113.731 48.4702C113.702 48.8042 113.652 49.1604 113.652 49.5166C113.645 54.3704 113.666 59.2167 113.63 64.0704C113.623 64.8348 113.874 65.154 114.534 65.5473C115.833 66.334 117.138 67.2246 118.171 68.3378C120.545 70.9057 120.574 73.9857 118.429 76.7539C116.579 79.1437 114.054 80.4573 111.292 81.3331C106.952 82.6986 102.548 82.8768 98.1148 81.8971C97.3545 81.7264 96.8021 81.8526 96.1494 82.3573C89.6289 87.3891 83.0798 92.369 76.5379 97.3638C75.9282 97.8313 75.3185 98.2989 74.7016 98.7738C75.6915 99.568 76.6742 100.266 77.5421 101.089C81.6954 105.053 81.6954 110.233 77.5278 114.196C75.0817 116.519 72.1336 117.922 68.9487 118.731C60.9649 120.757 53.1175 120.527 45.6933 116.541C43.9645 115.613 42.3506 114.203 41.0881 112.66C38.4842 109.498 38.6133 105.49 41.2531 102.336C42.3649 101.008 43.7637 99.939 45.062 98.7293C40.8944 95.5529 36.6407 92.3096 32.3799 89.0738C29.446 86.8399 26.5265 84.5763 23.5497 82.4092C23.0404 82.0381 22.2155 81.8749 21.5986 81.9862C16.2689 82.9361 11.0325 82.7729 6.083 80.346C4.46186 79.5519 2.91246 78.3644 1.68585 77.0063C-0.52349 74.5571 -0.545009 71.2768 1.59977 68.7609C2.84073 67.3062 4.47621 66.2227 6.18343 64.768C6.18343 59.6768 6.18343 54.0958 6.18343 48.4331C5.57371 48.3811 5.02855 48.344 4.47621 48.2846C2.12341 48.0249 0.351637 46.1918 0.322945 43.7575C0.265559 38.0354 0.24404 32.3133 0.330118 26.5913C0.38033 23.4519 2.99136 20.5946 6.02562 20.1122C6.73576 20.0009 7.46025 19.9638 8.17757 19.9638C13.665 19.9489 19.1597 19.9489 24.6472 19.9564C29.4962 19.9638 32.3296 22.9027 32.3296 27.9197C32.3296 32.6473 32.3296 37.3749 32.3296 42.1024C32.3296 45.9543 30.6368 47.921 26.9569 48.3514C26.8063 48.3663 26.6557 48.4182 26.4333 48.4702C26.4333 54.0809 26.4333 59.662 26.4333 65.2579C33.09 68.1671 35.658 74.7872 26.9354 80.153C34.0584 85.5708 41.124 90.9441 48.3258 96.4212C48.3258 89.5414 48.3258 82.8619 48.3258 76.0712C44.9975 77.6742 42.7236 76.1751 40.6864 73.5923C38.2332 70.4753 35.6365 67.4769 33.1187 64.4118C29.8836 60.4784 30.7659 55.7434 35.1846 53.3091C38.9648 51.231 42.7523 49.1604 46.5253 47.0675C48.6916 45.8652 51.0014 45.2789 53.4403 45.2641C57.6509 45.2344 61.8544 45.2344 66.0651 45.2641C68.798 45.2789 71.3517 46.0804 73.7619 47.4015C77.4059 49.3979 81.0498 51.3943 84.6795 53.4056C88.9475 55.773 89.8513 60.6862 86.7166 64.5009C84.0697 67.7218 81.4085 70.928 78.7472 74.1415C76.3729 77.0137 75.0028 77.407 71.6817 76.2344ZM55.9652 49.1084C53.5909 48.6706 50.9584 49.0862 48.7634 50.2736C44.7607 52.4482 40.7725 54.6524 36.7842 56.8566C35.0124 57.8363 34.4959 59.8401 35.7799 61.458C38.7066 65.1391 41.7337 68.7312 44.7392 72.3455C45.1696 72.8576 45.6861 73.1025 46.2958 72.531C46.8768 71.9893 47.1064 71.403 46.6329 70.6756C46.4751 70.4382 46.2815 70.2229 46.1021 70.0077C43.7852 67.1504 41.4611 64.2931 39.1513 61.4357C38.0969 60.137 38.2906 58.8085 39.7108 58.0663C42.8886 56.4113 46.0878 54.786 49.3014 53.2052C50.7145 52.5075 51.9985 53.3462 52.0917 54.9567C52.1133 55.3723 52.0989 55.7879 52.0989 56.2035C52.0989 72.7463 52.0989 89.289 52.0989 105.832C52.0989 106.366 52.0989 106.915 52.1778 107.442C52.3356 108.452 52.9884 108.934 53.9424 108.949C54.9682 108.964 55.6066 108.415 55.8003 107.375C55.8792 106.975 55.8433 106.552 55.8433 106.136C55.8433 97.9649 55.829 89.8011 55.8577 81.6374C55.8648 78.3941 58.4472 76.2493 61.5029 76.8578C63.7266 77.2957 65.1756 79.2773 65.1828 81.9788C65.1971 88.6953 65.1899 95.4119 65.1899 102.128C65.1899 103.954 65.1971 105.78 65.1971 107.598C65.1971 108.466 65.5486 109.045 66.4166 109.157C67.2773 109.268 67.9157 108.904 68.1955 108.036C68.3175 107.658 68.339 107.227 68.339 106.819C68.3246 104.704 68.2744 102.589 68.2601 100.473C68.1525 85.5486 68.0449 70.6237 67.9588 55.6988C67.9444 53.3239 69.1639 52.5669 71.2226 53.6134C74.1994 55.1274 77.1835 56.6414 80.1675 58.1554C81.8389 59.0089 82.1688 60.2928 80.9924 61.7326C78.5177 64.7755 76.0214 67.8109 73.4606 70.7721C72.7935 71.544 72.98 71.9818 73.6041 72.4865C74.4505 73.1693 75.0746 72.724 75.6484 72.0338C78.4818 68.5976 81.3439 65.1836 84.1486 61.7252C85.3322 60.2705 84.9162 57.8956 83.3237 56.9902C79.2852 54.7043 75.2324 52.4556 71.1652 50.2217C68.712 48.8784 66.0794 48.819 63.3106 49.0565C64.0064 51.3869 64.6448 53.6059 65.3478 55.8027C65.7351 56.9976 65.6203 57.9402 64.6233 58.7862C63.6047 59.6545 62.708 60.6713 61.7325 61.599C60.5346 62.7345 59.5447 62.7345 58.3683 61.6064C57.3712 60.649 56.4458 59.5952 55.3914 58.712C54.3656 57.8585 54.1791 56.916 54.5091 55.6469C55.0614 53.4798 55.4846 51.2904 55.9652 49.1084ZM93.5383 44.3957C93.5383 43.8688 93.5383 43.4235 93.5383 42.9708C93.5383 39.0299 93.5312 35.0964 93.5455 31.1556C93.5527 29.6193 94.2413 28.8178 95.4464 28.8549C96.6084 28.892 97.2253 29.6712 97.2325 31.1556C97.2397 36.3804 97.2397 41.6052 97.2397 46.83C97.2397 54.0438 97.2397 61.2576 97.2325 68.4714C97.2325 69.5698 97.4334 70.5495 98.4878 71.0838C99.7646 71.7295 101.744 71.0913 101.723 68.6199C101.666 61.1982 101.694 53.7766 101.709 46.355C101.709 44.6852 102.34 43.8762 103.574 43.8614C104.8 43.8465 105.46 44.6777 105.503 46.3105C105.51 46.6445 105.503 46.971 105.503 47.305C105.503 54.1848 105.503 61.0721 105.503 67.9519C105.503 68.4046 105.489 68.8648 105.532 69.3175C105.647 70.4604 106.385 71.2026 107.483 71.3139C108.523 71.4178 109.499 70.7944 109.786 69.7331C109.922 69.2284 109.929 68.6718 109.929 68.1375C109.936 55.9066 109.936 43.6758 109.936 31.445C109.936 29.6712 110.539 28.84 111.801 28.8549C113.057 28.8623 113.638 29.6787 113.638 31.4821C113.645 35.3414 113.638 39.1932 113.638 43.0524C113.638 43.4977 113.638 43.943 113.638 44.3809C115.259 44.5516 115.897 43.9801 115.904 42.3845C115.919 37.4936 115.919 32.6028 115.904 27.7045C115.897 24.9882 114.785 23.8453 112.174 23.8453C106.443 23.8379 100.719 23.8379 94.9873 23.8453C92.3763 23.8453 91.2644 24.9956 91.2573 27.7045C91.2429 32.6399 91.2501 37.5753 91.2573 42.5032C91.2644 44.2473 91.659 44.5887 93.5383 44.3957ZM26.3544 44.418C28.076 44.4774 28.6211 43.943 28.6283 42.3028C28.6355 37.412 28.6426 32.5211 28.6283 27.6229C28.6211 24.9882 27.4806 23.8453 24.9413 23.8453C19.174 23.8379 13.3996 23.8379 7.63241 23.8453C5.11462 23.8453 3.98126 25.0179 3.97409 27.66C3.95974 32.6325 3.96692 37.6124 3.97409 42.5849C3.97409 44.277 4.46186 44.6629 6.24081 44.3364C6.24081 41.9614 6.24081 39.5643 6.24081 37.1671C6.24081 35.0148 6.24081 32.8551 6.26233 30.7029C6.2695 29.6861 6.81467 29.0553 7.75435 28.892C8.67252 28.7361 9.46157 29.0627 9.78436 30.0275C9.94934 30.5173 9.935 31.0814 9.935 31.6157C9.94217 43.7204 9.94217 55.825 9.94217 67.9371C9.94217 68.3898 9.91348 68.8573 9.97803 69.3026C10.1287 70.3491 10.6954 71.0319 11.7211 71.2619C13.2705 71.6182 14.3752 70.5643 14.3752 68.657C14.3895 61.4432 14.3824 54.2294 14.3824 47.0155C14.3824 46.4812 14.2819 45.8652 14.5043 45.4273C14.7841 44.8633 15.2503 44.2176 15.7811 44.0172C17.1656 43.4977 18.1626 44.418 18.177 46.1472C18.2057 50.8303 18.1913 55.5207 18.1913 60.2038C18.1913 63.0611 18.177 65.9258 18.1985 68.7831C18.2128 70.4233 19.1382 71.403 20.5154 71.3213C21.8783 71.2397 22.6459 70.2749 22.653 68.5605C22.6602 61.3467 22.653 54.1329 22.653 46.9191C22.653 41.5681 22.6459 36.2245 22.6674 30.8735C22.6746 29.6119 23.3847 28.8697 24.4822 28.8549C25.5725 28.84 26.297 29.5748 26.34 30.8216C26.3759 31.9794 26.3544 33.1446 26.3544 34.3023C26.3544 37.6569 26.3544 41.0115 26.3544 44.418ZM71.861 101.713C71.861 103.13 71.8753 104.355 71.8538 105.587C71.8323 106.7 71.8897 107.836 71.696 108.927C71.2943 111.25 68.9487 113.365 67.1339 113.157C62.6435 112.645 61.2949 110.263 61.4025 106.589C61.4742 104.155 61.4169 101.713 61.4169 99.2043C60.7641 99.2043 60.2261 99.2043 59.6307 99.2043C59.602 99.5977 59.5662 99.9168 59.5662 100.243C59.5518 102.73 59.6092 105.216 59.5088 107.702C59.4155 110.107 57.9522 111.977 55.8218 112.704C52.0774 113.988 48.4621 111.331 48.3975 107.234C48.3689 105.401 48.3904 103.568 48.3904 101.728C48.2541 101.639 48.1178 101.55 47.9887 101.453C46.6616 102.596 45.1911 103.613 44.0291 104.912C42.5586 106.559 42.5012 108.541 43.9574 110.203C45.1122 111.517 46.5253 112.793 48.0748 113.506C55.7716 117.046 63.5903 117.009 71.3804 113.766C73.2454 112.986 74.9168 111.821 76.0932 110.055C76.9826 108.726 77.2194 107.301 76.4733 105.839C75.4835 103.895 73.7906 102.767 71.861 101.713ZM26.3903 69.5772C25.6299 74.906 20.1281 76.791 16.2761 73.6072C14.3967 75.1657 12.2735 75.6259 9.99238 74.7427C7.70414 73.8521 6.54926 71.9596 6.1906 69.4956C3.52218 71.0467 3.25677 73.4736 5.55936 75.2919C6.49905 76.034 7.58219 76.6352 8.68686 77.0805C12.2304 78.5203 15.9318 78.7132 19.669 78.1937C22.3159 77.8301 24.848 77.0879 26.9856 75.3438C29.3169 73.4587 29.0945 71.1877 26.3903 69.5772ZM93.5025 69.6366C91.0349 71.1655 90.7838 73.4439 92.9214 75.188C93.8755 75.9673 95.0017 76.6055 96.135 77.0731C99.7216 78.5351 103.459 78.7355 107.239 78.1863C109.965 77.793 112.583 77.036 114.721 75.1286C116.83 73.2584 116.306 70.5421 113.688 69.5105C112.648 74.9282 108.681 76.5536 103.523 73.6666C99.8364 76.7391 94.313 74.9728 93.5025 69.6366ZM61.3523 95.2189C61.3738 94.9443 61.4169 94.6994 61.4169 94.4619C61.424 90.3652 61.4169 86.261 61.4169 82.1643C61.4169 81.9565 61.4814 81.6967 61.381 81.5557C61.1443 81.2143 60.8358 80.6874 60.5417 80.68C60.2405 80.6726 59.8531 81.1327 59.6379 81.4889C59.4873 81.7338 59.5662 82.1346 59.559 82.4612C59.559 86.313 59.5518 90.1648 59.559 94.0166C59.559 94.41 59.602 94.8033 59.6236 95.2189C60.2691 95.2189 60.7784 95.2189 61.3523 95.2189ZM48.3402 58.0292C46.5756 58.9124 45.0046 59.6917 43.3476 60.5229C45.0046 62.549 46.5971 64.486 48.3402 66.6234C48.3402 63.6028 48.3402 60.9311 48.3402 58.0292ZM76.7316 60.5155C75.0459 59.6768 73.4534 58.8827 71.7893 58.0515C71.7893 60.9533 71.7893 63.6177 71.7893 66.5641C73.518 64.4489 75.0817 62.5341 76.7316 60.5155ZM59.8818 50.5334C59.8101 50.5334 59.7383 50.526 59.6594 50.526C59.3366 51.8767 59.0138 53.2274 58.6839 54.5707C58.2104 56.5226 58.3252 56.8047 60.0468 57.8585C61.6392 56.5004 61.6392 56.5004 61.0654 54.5411C60.678 53.2052 60.2763 51.8693 59.8818 50.5334Z" fill="black"/>
<path d="M59.9536 24.8252C65.0178 24.8326 69.1065 29.0852 69.0778 34.3323C69.0491 39.4829 64.9174 43.728 59.932 43.728C54.9036 43.728 50.7791 39.4161 50.8078 34.1913C50.8365 29.0184 54.9323 24.8252 59.9536 24.8252ZM59.9033 39.8317C62.9376 39.8391 65.3263 37.4048 65.3334 34.2877C65.3406 31.2004 62.9161 28.6622 59.9464 28.6622C56.9767 28.6622 54.5593 31.1855 54.5522 34.2877C54.545 37.531 56.7543 39.8243 59.9033 39.8317Z" fill="black"/>
<path d="M95.7696 8.13381C95.7911 3.36171 99.2343 0.0442528 104.134 0.0665176C108.122 0.0813609 111.45 3.8738 111.407 8.35645C111.364 13.1731 107.684 17.4405 103.581 17.4405C99.3419 17.4405 95.7481 13.1657 95.7696 8.13381ZM99.4997 8.21544C99.4997 10.9021 101.508 13.5738 103.553 13.611C105.583 13.6481 107.656 10.9911 107.699 8.3045C107.742 5.88506 106.049 3.97771 103.854 3.95544C101.343 3.92575 99.4997 5.73663 99.4997 8.21544Z" fill="black"/>
<path d="M8.44336 8.42342C8.594 4.88331 9.88517 2.27833 12.8477 0.912751C15.7672 -0.43056 18.7297 -0.445403 21.2833 1.8553C23.9087 4.23021 24.6906 7.27307 23.7724 10.739C22.7825 14.472 19.8989 17.2106 16.836 17.411C13.1561 17.6559 9.75605 14.7541 8.75898 10.494C8.58682 9.74447 8.52226 8.95778 8.44336 8.42342ZM16.4414 3.95561C13.4646 3.97045 11.7143 6.29342 12.3384 9.41049C12.7975 11.726 14.6338 13.6557 16.3482 13.6185C18.0339 13.5814 19.7985 11.6963 20.2647 9.44018C20.8673 6.45669 19.117 3.94077 16.4414 3.95561Z" fill="black"/>
<path d="M71.8611 101.713C73.7907 102.767 75.4764 103.895 76.4735 105.84C77.2195 107.302 76.9828 108.719 76.0933 110.055C74.9097 111.821 73.2456 112.994 71.3805 113.766C63.5905 117.009 55.7717 117.046 48.0749 113.506C46.5255 112.794 45.1124 111.517 43.9575 110.203C42.4942 108.541 42.5587 106.559 44.0292 104.912C45.1913 103.606 46.6546 102.596 47.9888 101.453C48.1251 101.542 48.2614 101.631 48.3905 101.728C48.3905 103.561 48.369 105.394 48.3977 107.235C48.4622 111.332 52.0775 113.981 55.8219 112.704C57.9595 111.97 59.4157 110.1 59.5089 107.702C59.6094 105.224 59.552 102.73 59.5663 100.244C59.5663 99.9245 59.6094 99.5979 59.6309 99.2046C60.2262 99.2046 60.7642 99.2046 61.417 99.2046C61.417 101.713 61.4744 104.155 61.4026 106.589C61.295 110.263 62.6436 112.645 67.134 113.157C68.9488 113.365 71.2945 111.25 71.6961 108.927C71.8827 107.836 71.8324 106.7 71.854 105.587C71.8827 104.355 71.8611 103.123 71.8611 101.713Z" fill="#F4BD68"/>
<path d="M26.3903 69.5772C29.0946 71.1877 29.317 73.4587 26.9929 75.3438C24.8552 77.0879 22.3159 77.8301 19.6762 78.1937C15.939 78.7132 12.2376 78.5203 8.69409 77.0805C7.58942 76.6352 6.50627 76.034 5.56659 75.2919C3.264 73.4736 3.5294 71.0541 6.19782 69.4956C6.54931 71.967 7.70419 73.8521 9.99961 74.7427C12.2807 75.6259 14.4039 75.1657 16.2833 73.6072C20.1281 76.791 25.63 74.906 26.3903 69.5772Z" fill="#F4BD68"/>
<path d="M93.5028 69.6369C94.3133 74.973 99.8367 76.7394 103.524 73.6668C108.681 76.5538 112.648 74.9359 113.688 69.5107C116.306 70.5423 116.83 73.2587 114.721 75.1289C112.576 77.0288 109.965 77.7933 107.239 78.1866C103.459 78.7284 99.7219 78.5354 96.1353 77.0734C94.9948 76.6058 93.8758 75.975 92.9217 75.1883C90.7913 73.4368 91.0424 71.1658 93.5028 69.6369Z" fill="#F4BD68"/>
<path d="M61.352 95.2192C60.7782 95.2192 60.2689 95.2192 59.6305 95.2192C59.6089 94.8036 59.5659 94.4102 59.5659 94.0169C59.5587 90.1651 59.5587 86.3133 59.5659 82.4615C59.5659 82.1349 59.4942 81.7341 59.6448 81.4892C59.8528 81.1404 60.2474 80.6728 60.5486 80.6803C60.8427 80.6877 61.1512 81.2146 61.3879 81.556C61.4883 81.697 61.4237 81.9568 61.4237 82.1646C61.4237 86.2613 61.4237 90.3655 61.4237 94.4622C61.4166 94.6997 61.3735 94.9372 61.352 95.2192Z" fill="white"/>
<path d="M48.3402 58.0293C48.3402 60.9311 48.3402 63.6029 48.3402 66.6235C46.5899 64.4861 45.0047 62.5491 43.3477 60.523C45.0047 59.6917 46.5756 58.9125 48.3402 58.0293Z" fill="white"/>
<path d="M76.7314 60.5156C75.0815 62.5343 73.5178 64.4491 71.7891 66.5717C71.7891 63.6253 71.7891 60.9535 71.7891 58.0591C73.4532 58.8829 75.0385 59.677 76.7314 60.5156Z" fill="white"/>
<path d="M59.8814 50.5338C60.2759 51.8697 60.6776 53.2056 61.0722 54.5415C61.6532 56.5008 61.646 56.5008 60.0536 57.8589C58.332 56.805 58.2172 56.523 58.6907 54.5711C59.0135 53.2204 59.3434 51.8771 59.6662 50.5264C59.7379 50.5264 59.8097 50.5338 59.8814 50.5338Z" fill="#F4BD68"/>
</g>
<defs>
<clipPath id="clip0_34366_337721">
<rect width="120" height="120" fill="white"/>
</clipPath>
</defs>
</svg>
