<svg width="120" height="120" viewBox="0 0 120 120" fill="none" xmlns="http://www.w3.org/2000/svg">
<path d="M-0.000976562 70.3478C0.49785 70.3182 0.67565 69.8691 0.962105 69.5853C3.57477 67.0017 6.16769 64.3959 8.89148 61.6741C9.23473 64.0726 9.51378 66.3009 9.87679 68.5144C11.3165 77.3461 14.9021 85.2277 20.5225 92.1815C26.0763 99.049 32.9907 104.117 41.1745 107.414C47.9827 110.156 55.0848 111.321 62.4265 111.029C64.002 110.968 64.0045 110.992 64.16 112.567C64.3922 114.911 64.3946 114.936 62.103 114.983C46.3677 115.306 32.7512 110.079 21.493 99.1032C13.618 91.4264 8.62478 82.0667 6.35783 71.2855C6.30104 71.019 6.23189 70.7525 6.15781 70.491C6.13064 70.3947 6.07632 70.3059 5.97013 70.0715C5.15275 70.9179 4.32301 71.6458 3.65627 72.5021C2.96235 73.3929 2.51785 73.1782 1.86098 72.47C1.30289 71.8679 0.841103 71.1177 -0.000976562 70.8216C-0.000976562 70.6612 -0.000976562 70.5058 -0.000976562 70.3478Z" fill="#030302"/>
<path d="M60.3272 12.7852C86.6515 13.1232 107.486 33.955 107.419 60.0874C107.353 86.2986 86.4737 107.123 60.2581 107.145C34.0944 107.167 13.0794 86.3554 13.0547 60.0232C13.0275 33.7404 34.0697 13.0072 60.3272 12.7852ZM60.6482 99.2834C82.688 99.002 99.8136 80.897 99.5469 59.5568C99.2703 37.6318 81.2212 20.4941 59.8852 20.7137C37.9072 20.9407 20.6878 38.9915 20.9273 60.3785C21.1767 82.3874 39.2728 99.5202 60.6482 99.2834Z" fill="#F4BD68"/>
<path d="M114.423 49.9849C115.448 48.9312 116.334 48.0503 117.186 47.1348C117.567 46.7251 117.799 46.7498 118.216 47.1397C120.569 49.3359 120.582 49.3211 118.332 51.5716C116.122 53.7851 113.917 55.9985 111.583 58.3403C111.237 55.9196 110.958 53.6888 110.595 51.4704C109.148 42.6387 105.573 34.7522 99.9423 27.8008C94.3539 20.9013 87.4 15.8229 79.1693 12.5311C72.5068 9.86601 65.5578 8.70128 58.3742 8.96532C56.4184 9.03688 56.4184 9.0122 56.2776 7.05783C56.1344 5.07878 56.1344 5.06891 58.147 5.01956C73.9761 4.63708 87.6716 9.86107 98.9965 20.9112C106.842 28.5658 111.813 37.8935 114.102 48.6277C114.184 49.0077 114.28 49.3853 114.423 49.9849Z" fill="#030302"/>
<path d="M22.6759 25.4244C21.7992 24.4818 21.046 23.6428 20.2558 22.8383C19.9644 22.5422 19.9792 22.3596 20.2657 22.0857C20.9423 21.4392 21.6066 20.7778 22.2486 20.0968C22.5524 19.7735 22.7351 19.7735 23.0907 20.077C25.6713 22.2757 25.6787 22.2658 23.3105 24.62C23.1154 24.8124 22.9672 25.0493 22.6759 25.4244Z" fill="#030302"/>
<path d="M100.666 97.6844C100.39 97.8694 100.133 97.9928 99.9328 98.1779C99.2191 98.8392 98.5696 99.9867 97.8115 100.063C97.0287 100.14 96.4607 98.8318 95.7051 98.2371C95.0704 97.7387 95.0285 97.3636 95.6878 96.8256C96.436 96.2161 97.1077 94.9675 97.7942 94.9798C98.5079 94.9922 99.2018 96.1766 99.8982 96.8552C100.113 97.0675 100.308 97.2969 100.666 97.6844Z" fill="#030302"/>
<path d="M52.1904 9.30347C52.2472 9.44165 51.9508 9.55763 51.6866 9.58725C50.5754 9.7131 49.2023 10.6064 48.4665 9.99194C47.7849 9.42191 47.896 7.91419 47.6342 6.82349C47.5602 6.5175 47.6664 6.39412 47.9429 6.33736C48.2096 6.28308 48.4714 6.19424 48.7406 6.16216C49.6197 6.06099 50.884 5.32563 51.2668 5.8315C51.8842 6.65075 51.8743 7.9438 52.1904 9.30347Z" fill="#030302"/>
<path d="M40.7278 8.50382C41.1105 8.47668 41.1204 8.79501 41.234 9.0319C42.6959 12.0251 42.5897 12.2497 39.4066 13.3108C38.9621 13.4588 38.7596 13.412 38.6139 12.9974C38.5621 12.8518 38.4905 12.7112 38.4361 12.5656C38.1077 11.6994 37.2706 10.5347 37.5644 10.0338C38.0929 9.13307 39.5079 9.08125 40.5055 8.57539C40.5747 8.54331 40.6537 8.5285 40.7278 8.50382Z" fill="#030302"/>
<path d="M30.2302 18.5348C30.1068 18.3917 29.9808 18.2535 29.8648 18.1054C27.7361 15.4404 27.7633 15.3737 30.6402 13.5329C31.181 13.1874 31.3785 13.2886 31.7169 13.7648C33.5887 16.4176 33.601 16.4077 30.8575 18.1449C30.6575 18.2707 30.4599 18.3917 30.2302 18.5348Z" fill="#030302"/>
<path d="M10.339 48.6796C10.1662 49.5803 9.99082 50.4982 9.81055 51.4162C9.74141 51.7691 9.59077 51.9443 9.16356 51.8406C8.10911 51.5864 6.60522 51.7246 6.09651 51.0707C5.50385 50.3082 6.35828 48.9658 6.50397 47.8628C6.56571 47.3939 6.76573 47.3273 7.2127 47.4457C8.07948 47.6703 8.96107 47.8455 9.8476 47.9763C10.3168 48.0429 10.4551 48.2354 10.339 48.6796Z" fill="#030302"/>
<path d="M113.352 72.5565C113.255 72.5343 113.179 72.5145 113.102 72.5022C109.838 71.9568 109.845 71.9593 110.613 68.7637C110.734 68.2628 110.892 67.9617 111.462 68.1961C111.497 68.211 111.539 68.2085 111.579 68.2159C114.833 68.707 114.954 68.9019 113.991 72.0679C113.887 72.4084 113.863 72.8156 113.352 72.5565Z" fill="#030302"/>
<path d="M111.761 79.5299C111.328 80.5737 110.918 81.583 110.489 82.5848C110.402 82.7847 110.217 82.8439 110.002 82.7354C109.864 82.6663 109.716 82.612 109.573 82.5552C106.607 81.393 106.622 81.4004 107.926 78.4713C108.163 77.9383 108.335 77.7162 108.938 78.0197C109.699 78.4071 110.511 78.6958 111.309 79.0117C111.573 79.1203 111.837 79.1943 111.761 79.5299Z" fill="#030302"/>
<path d="M107.044 89.0896C106.372 90.0791 105.733 91.0563 105.054 92.0064C104.859 92.2778 104.636 92.0039 104.464 91.8854C103.567 91.2685 102.046 90.7207 101.955 89.9952C101.846 89.1414 102.97 88.1223 103.575 87.1871C103.683 87.0193 103.782 86.7108 104.096 86.9181C105.036 87.5424 105.975 88.1716 106.908 88.8083C106.982 88.8601 107.002 88.9958 107.044 89.0896Z" fill="#030302"/>
<path d="M79.9421 111.449C79.5741 111.533 79.4284 111.431 79.342 111.229C79.2951 111.123 79.2654 111.007 79.2161 110.901C77.7813 107.834 77.7912 107.846 81.0113 106.703C81.5028 106.528 81.7275 106.57 81.8781 107.054C81.9596 107.313 82.0855 107.557 82.1744 107.814C82.4411 108.571 83.2956 109.65 82.9177 109.993C82.1053 110.738 80.8731 111.029 79.9421 111.449Z" fill="#030302"/>
<path d="M69.5289 114.304C69.2103 114.336 68.9881 114.277 68.9511 113.899C68.9288 113.667 68.8597 113.44 68.8251 113.211C68.7016 112.332 68.0151 111.143 68.4843 110.664C69.2252 109.909 70.5908 110.089 71.6847 109.837C71.9983 109.766 72.1885 109.852 72.2453 110.222C72.4157 111.325 73.1244 112.769 72.6725 113.43C72.2033 114.116 70.6229 114.045 69.5289 114.304Z" fill="#030302"/>
<path d="M16.5618 33.1951C15.858 32.7263 15.248 32.2155 14.5541 31.8774C13.4527 31.3419 13.4058 30.8015 14.1219 29.8194C15.5789 27.8231 15.5196 27.7811 17.5446 29.1309C18.7966 29.9675 18.7966 29.9675 17.9595 31.221C17.6137 31.7392 17.2754 32.2624 16.9248 32.7781C16.8235 32.9262 16.6877 33.052 16.5618 33.1951Z" fill="#030302"/>
<path d="M10.3604 37.2149C11.3803 37.6443 12.4224 38.0786 13.4571 38.5277C13.6793 38.6239 13.6694 38.8214 13.5781 39.0212C13.5139 39.1619 13.4546 39.3075 13.3953 39.4506C12.173 42.5203 12.1754 42.5154 9.17752 40.9953C8.87872 40.8424 8.57745 40.7634 8.75525 40.339C9.14295 39.4037 9.52818 38.4685 9.91836 37.5357C9.99491 37.3482 10.0962 37.1853 10.3604 37.2149Z" fill="#030302"/>
<path d="M92.4254 104.601C92.2772 104.737 92.1414 104.87 91.9957 104.989C89.3534 107.158 89.3731 107.143 87.4865 104.317C87.0889 103.72 87.0963 103.431 87.731 103.086C88.3779 102.733 88.9904 102.304 89.5806 101.86C90.0621 101.497 90.3856 101.393 90.7338 102.037C91.1215 102.753 91.6228 103.409 92.0772 104.09C92.1883 104.248 92.2945 104.406 92.4254 104.601Z" fill="#030302"/>
<path d="M60.6488 99.2835C39.2733 99.5204 21.1772 82.3875 20.9303 60.3787C20.6858 38.9916 37.9052 20.9433 59.8857 20.7138C81.2242 20.4917 99.2733 37.6319 99.5474 59.5569C99.8116 80.8971 82.6885 99.0022 60.6488 99.2835ZM58.2831 29.622C58.2831 28.6818 58.2831 27.7416 58.2831 26.8015C58.2831 24.7558 58.2806 24.7237 56.2211 24.9458C49.0029 25.7256 42.6367 28.5264 37.1792 33.2716C29.9364 39.5666 25.9309 47.5568 24.9876 57.1016C24.9061 57.9357 25.158 58.0813 25.9087 58.064C27.8299 58.0196 29.7511 58.0492 31.6724 58.0492C34.7246 58.0492 34.69 58.0492 34.6703 61.0943C34.6653 61.8814 34.3764 61.9703 33.7171 61.9604C31.4822 61.9259 29.2474 61.9481 27.0125 61.9481C24.9827 61.9481 24.9431 61.953 25.1654 64.011C25.9408 71.1795 28.7165 77.5115 33.4207 82.9502C39.7277 90.242 47.7509 94.2668 57.3447 95.2217C58.1892 95.3056 58.3176 95.0391 58.3004 94.3013C58.2584 92.3815 58.2855 90.4616 58.2855 88.5418C58.2855 85.4918 58.2855 85.5264 61.3328 85.5461C62.1058 85.551 62.2194 85.8176 62.2095 86.4912C62.1749 89.1538 62.2119 91.8189 62.1848 94.4839C62.1798 95.0885 62.3132 95.3402 62.9701 95.2316C63.7405 95.1033 64.5308 95.0885 65.3062 94.975C81.5748 92.6233 94.0998 79.2512 95.5 62.7821C95.5593 62.0789 95.3617 61.9209 94.6974 61.9333C92.7367 61.9703 90.776 61.9456 88.8177 61.9456C85.7605 61.9456 85.7926 61.9456 85.8124 58.9104C85.8173 58.138 86.0816 58.0245 86.7582 58.0344C89.4227 58.0689 92.0897 58.0319 94.7567 58.0615C95.3691 58.0689 95.5642 57.9209 95.5049 57.2719C95.0209 51.9393 93.5887 46.8807 90.8105 42.2983C84.5061 31.907 75.2605 26.0686 63.1479 24.7731C62.3206 24.6842 62.165 24.9384 62.1823 25.691C62.2292 27.6084 62.2243 29.5307 62.1873 31.4505C62.17 32.4129 62.6342 33.7257 61.9897 34.2439C61.3847 34.7275 60.1203 34.3475 59.1523 34.4364C58.372 34.5079 58.2485 34.1772 58.2732 33.5011C58.3152 32.2081 58.2831 30.915 58.2831 29.622Z" fill="#030302"/>
<path d="M62.1915 46.3795C62.1915 48.7287 62.2137 51.0779 62.1767 53.4247C62.1668 54.1205 62.2977 54.5622 63.0089 54.8756C64.0732 55.342 64.8956 56.1736 65.3623 57.2347C65.6759 57.9478 66.1179 58.0762 66.8143 58.0638C68.9282 58.0243 71.0445 58.0712 73.1608 58.0367C73.8152 58.0268 74.0201 58.2119 74.0374 58.888C74.1115 61.9479 74.1337 61.9479 71.0371 61.9479C69.5875 61.9479 68.1379 61.9775 66.6884 61.9331C66.0636 61.9133 65.7302 62.091 65.4215 62.6734C64.172 65.0423 61.752 66.244 59.2825 65.8122C56.781 65.373 54.8005 63.3742 54.4054 60.8893C54.0152 58.4414 55.2005 56.0379 57.5119 54.8435C58.1589 54.5104 58.2972 54.1304 58.2923 53.4839C58.2725 48.788 58.3022 44.0896 58.2626 39.3912C58.2552 38.5966 58.4157 38.2684 59.2677 38.3548C60.1937 38.4485 61.4087 38.0759 61.9915 38.5398C62.6064 39.0309 62.1619 40.2894 62.1816 41.2123C62.2162 42.9347 62.1915 44.6571 62.1915 46.3795ZM62.157 59.9984C62.1594 58.9127 61.3272 58.0811 60.2382 58.0786C59.1492 58.0786 58.3145 58.9077 58.3145 59.9935C58.3145 61.0768 59.1516 61.9158 60.2333 61.9158C61.3173 61.9183 62.157 61.0817 62.157 59.9984Z" fill="#030302"/>
<path d="M62.1569 59.9984C62.1544 61.0817 61.3148 61.9183 60.2332 61.9158C59.1516 61.9158 58.312 61.0768 58.3145 59.9935C58.3145 58.9077 59.1491 58.0786 60.2382 58.0786C61.3272 58.0811 62.1594 58.9127 62.1569 59.9984Z" fill="#FDFDFD"/>
</svg>
