<svg width="120" height="120" viewBox="0 0 120 120" fill="none" xmlns="http://www.w3.org/2000/svg">
<g clip-path="url(#clip0_34366_337646)">
<path d="M94.1191 82.9477C91.7454 79.3225 90.9959 75.4399 92.6755 71.3624C94.5633 66.7701 98.1168 64.1747 103.051 63.8894C108.104 63.5972 111.998 65.8516 114.316 70.3535C116.585 74.765 116.065 79.0929 113.157 83.1147C112.921 83.4418 112.65 83.7479 112.352 84.1237C115.801 85.3065 118.168 87.4844 119.23 90.9566C119.521 91.9168 119.646 92.8979 119.646 93.8998C119.639 101.623 119.646 109.347 119.639 117.07C119.639 119.005 118.973 119.652 117.002 119.652C108.139 119.652 99.2758 119.652 90.4129 119.652C88.4765 119.652 87.831 118.984 87.831 117.022C87.831 109.959 87.8172 102.904 87.8449 95.8412C87.8449 95.0966 87.6575 94.6583 87.019 94.2338C81.5985 90.6504 76.1919 87.0461 70.8131 83.407C70.1676 82.9686 69.8067 83.0173 69.2376 83.5113C66.8293 85.6127 64.2058 87.4149 61.5338 89.1683C60.458 89.8711 59.521 89.8641 58.4453 89.1613C55.7385 87.394 53.0942 85.5431 50.6442 83.4278C50.1445 82.9964 49.8114 82.9756 49.27 83.3374C43.8148 87.0182 38.3527 90.6852 32.8628 94.3104C32.2313 94.7279 32.148 95.1871 32.148 95.8412C32.1619 102.862 32.1619 109.876 32.1549 116.896C32.1549 119.026 31.5372 119.645 29.4343 119.645C20.6546 119.645 11.875 119.645 3.09535 119.645C0.964637 119.645 0.339999 119.033 0.339999 116.931C0.339999 109.375 0.333058 101.818 0.339999 94.2547C0.339999 89.391 2.68586 86.0024 7.24572 84.2698C7.34983 84.228 7.447 84.1724 7.63439 84.0819C5.95481 82.1823 4.8721 80.0532 4.45567 77.5691C3.41461 71.3764 7.73156 65.1975 13.9571 64.0564C20.4672 62.8596 26.7067 67.0484 27.9282 73.3664C28.6084 76.8733 27.7686 80.0114 25.86 82.9408C25.6934 83.073 25.3949 83.24 25.5268 83.4209C25.7003 83.6505 25.9294 83.4418 26.0682 83.2469C30.8154 80.074 35.6321 77.0124 40.5251 74.0761C41.3232 73.596 41.0526 73.2829 40.6639 72.768C35.056 65.1836 31.336 56.7643 29.8091 47.4404C29.1011 43.1055 28.7125 38.7149 28.1919 34.3521C28.0392 33.0857 28.6778 32.3621 29.816 31.8959C33.3695 30.4486 36.8883 28.9109 40.4557 27.4844C45.7026 25.3761 50.3735 22.398 54.4337 18.4458C55.6552 17.2629 56.9114 16.1218 58.1538 14.9598C59.5696 13.6377 60.3678 13.6377 61.7836 14.925C64.3793 17.3047 66.8501 19.8235 69.6471 21.9806C73.86 25.237 78.7321 27.1783 83.5904 29.1753C85.8461 30.1007 88.0948 31.0331 90.3365 31.9724C91.3151 32.383 91.912 33.0857 91.7732 34.1851C90.9612 40.7606 90.628 47.4125 88.7264 53.821C86.7067 60.633 83.6321 66.9301 79.3845 72.6219C78.7668 73.4499 78.9126 73.756 79.7246 74.2501C84.5552 77.1307 89.2747 80.1784 93.9664 83.2817L94.0497 83.3583C94.1746 83.4766 94.2579 83.7758 94.4453 83.6575C94.6535 83.5253 94.5147 83.3304 94.3134 83.2261C94.2648 83.1356 94.1954 83.0452 94.1191 82.9477ZM75.9074 70.7084C79.2735 66.1647 81.7304 61.5445 83.639 56.6112C86.2209 49.9453 86.8455 42.9245 87.602 35.9107C87.6645 35.361 87.491 35.0897 86.9704 34.8949C85.7767 34.4426 84.6176 33.879 83.4169 33.4336C75.0329 30.3234 67.2041 26.2946 61.0132 19.6287C60.2359 18.7937 59.7639 18.8494 58.9866 19.6357C54.7807 23.8592 50.1792 27.5679 44.6755 29.9894C41.0109 31.6037 37.3186 33.1692 33.5916 34.6374C32.5089 35.0618 32.2868 35.6115 32.4464 36.6622C32.7379 38.5061 32.9531 40.3639 33.1196 42.2218C33.89 50.7037 36.4649 58.5873 40.8443 65.8794C41.7882 67.452 42.7877 68.9897 44.0925 70.6805C44.0925 69.2472 44.0925 68.1408 44.0925 67.0275C44.0925 64.8705 44.1133 62.7065 44.0855 60.5495C44.03 55.3935 46.5494 52.0467 51.373 50.2028C49.1034 47.6282 47.8889 44.6641 48.0971 41.2268C48.3053 37.7825 49.7558 34.9366 52.3932 32.703C56.7587 29.0083 63.3383 29.0361 67.6899 32.7796C70.0219 34.7835 71.403 37.3093 71.8125 40.357C72.3192 44.1283 71.0907 47.3638 68.6269 50.2167C73.8183 52.1649 76.1156 55.8736 75.9213 61.294C75.8172 64.3069 75.9074 67.3267 75.9074 70.7084ZM18.8085 87.7558C18.9334 88.2985 19.0306 88.7369 19.1347 89.1753C20.1133 93.2388 21.078 97.3093 22.0844 101.373C22.2926 102.208 22.1885 102.918 21.6888 103.599C20.4464 105.304 19.2318 107.037 17.9548 108.721C16.9554 110.043 15.5395 110.029 14.5332 108.693C13.2631 107.002 12.0485 105.276 10.7992 103.572C10.2995 102.883 10.2023 102.173 10.4314 101.345C10.8825 99.6681 11.2642 97.9703 11.6668 96.2795C12.34 93.4754 13.0132 90.6643 13.7073 87.7628C12.569 87.7628 11.5766 87.7558 10.591 87.7628C6.87788 87.7836 4.33769 90.3025 4.33074 94.0042C4.31686 100.851 4.34463 107.705 4.30298 114.552C4.29604 115.498 4.5459 115.7 5.46203 115.7C12.6662 115.658 19.8704 115.658 27.0676 115.7C28.0115 115.707 28.2128 115.456 28.2058 114.538C28.1642 107.9 28.2197 101.255 28.1572 94.6165C28.1434 93.1901 28.6569 92.3203 29.816 91.5619C34.8339 88.2707 39.8033 84.9099 44.7934 81.57C45.4805 81.1108 46.5771 80.7281 46.7159 80.1297C46.8825 79.4339 45.7373 78.9398 45.2307 78.2997C44.9253 77.91 44.5575 77.5621 44.2521 77.1794C43.9745 76.8246 43.7246 76.7759 43.3151 77.0333C38.1306 80.2828 32.8281 83.3583 27.8796 86.9835C27.1717 87.4984 26.4915 87.7976 25.6101 87.7836C23.3892 87.728 21.1613 87.7558 18.8085 87.7558ZM101.198 87.7558C98.8039 87.7558 96.5343 87.7488 94.2648 87.7628C93.6749 87.7628 93.1058 87.721 92.613 87.3522C87.8102 83.727 82.5771 80.7768 77.5384 77.5204C76.5251 76.8663 75.8727 76.7272 75.1578 77.8265C74.8039 78.3762 74.3041 78.8563 73.7975 79.2669C73.0063 79.907 73.1659 80.241 73.9641 80.7629C79.4262 84.3602 84.8397 88.0272 90.3018 91.6315C91.3845 92.3482 91.8426 93.1971 91.8357 94.5052C91.7871 101.192 91.8148 107.879 91.8079 114.565C91.8079 115.22 91.7316 115.7 92.7241 115.693C100.095 115.644 107.472 115.658 114.843 115.679C115.475 115.679 115.69 115.54 115.69 114.865C115.662 107.76 115.697 100.663 115.655 93.5589C115.641 90.8731 113.767 88.6534 111.179 87.9576C109.992 87.6375 108.777 87.895 107.597 87.7419C106.3 87.5749 106.341 88.1385 106.591 89.1126C107.604 93.1692 108.548 97.2537 109.562 101.31C109.77 102.138 109.728 102.855 109.221 103.551C107.951 105.297 106.723 107.065 105.418 108.776C104.46 110.036 103.051 110.001 102.066 108.748C101.427 107.934 100.83 107.085 100.241 106.237C97.1035 101.742 97.4574 103.648 98.7067 98.2626C99.4979 94.7905 100.345 91.3392 101.198 87.7558ZM71.9305 67.278C71.9305 64.8288 71.9513 62.3795 71.9236 59.9302C71.8958 56.9382 69.9803 54.5794 67.093 53.981C65.9479 53.7444 64.7749 53.9671 63.6228 53.8488C62.6165 53.7514 62.5818 54.155 62.79 54.9621C63.8241 58.97 64.7958 62.9988 65.8229 67.0066C66.0242 67.7929 65.934 68.4679 65.4898 69.1289C64.2683 70.9519 63.0745 72.7958 61.8391 74.6049C60.7425 76.2123 59.2573 76.2053 58.1538 74.591C56.9392 72.8167 55.7732 71.0006 54.5656 69.2193C54.0659 68.4818 53.9756 67.7512 54.2047 66.8675C55.2388 62.9013 56.1827 58.9143 57.2029 54.9412C57.4181 54.1063 57.3348 53.7305 56.3562 53.8349C55.6205 53.9114 54.864 53.8419 54.1214 53.8558C50.6512 53.9045 48.0901 56.4512 48.0693 59.9302C48.0416 64.8287 48.0693 69.7273 48.0485 74.6258C48.0485 75.2033 48.1943 75.6347 48.6037 76.0522C51.8172 79.3713 55.329 82.3215 59.174 84.8682C59.7917 85.2787 60.2012 85.2718 60.812 84.8682C64.6153 82.3285 68.1133 79.4269 71.2989 76.1357C71.7709 75.6417 71.9375 75.1546 71.9305 74.4936C71.9097 72.1 71.9305 69.6855 71.9305 67.278ZM60.4927 39.9117C57.3556 39.9047 54.6003 41.1085 52.8305 42.9941C52.3793 43.4742 52.2752 43.8778 52.5043 44.5319C53.6425 47.7326 56.6893 49.9105 60.0971 49.8757C63.4354 49.8409 66.4337 47.6213 67.5164 44.4623C67.7246 43.8569 67.6275 43.4812 67.2041 43.0428C65.233 41.0111 62.8386 39.9812 60.4927 39.9117ZM16.7472 73.8047C13.5962 73.7978 10.8409 75.0085 9.078 76.8942C8.62687 77.3812 8.53664 77.7918 8.76568 78.4319C9.90391 81.6326 12.9577 83.8036 16.3654 83.7618C19.7038 83.727 22.7021 81.4935 23.7778 78.3345C23.986 77.7222 23.875 77.3464 23.4516 76.915C21.4805 74.8972 19.0861 73.8674 16.7472 73.8047ZM103.641 73.7908C100.948 73.8743 98.5471 74.8833 96.5621 76.9011C96.0971 77.3812 96.0207 77.7987 96.2498 78.4389C97.3741 81.5979 100.379 83.7618 103.732 83.7688C107.084 83.7757 110.075 81.6118 111.234 78.4597C111.491 77.75 111.345 77.3186 110.852 76.8315C108.881 74.8693 106.522 73.8604 103.641 73.7908ZM16.3585 94.8949C16.2891 94.8949 16.2197 94.8949 16.1503 94.8949C15.6228 97.038 15.0884 99.1811 14.5748 101.324C14.4915 101.686 15.8241 103.927 16.1434 104.024C16.2128 104.045 16.296 104.045 16.3654 104.024C16.6916 103.927 18.0242 101.693 17.934 101.324C17.4204 99.1811 16.886 97.038 16.3585 94.8949ZM103.85 94.8949C103.78 94.8949 103.704 94.9018 103.634 94.9018C103.107 97.0449 102.573 99.188 102.059 101.338C101.976 101.693 103.329 103.947 103.641 104.031C103.711 104.052 103.794 104.038 103.863 104.017C104.134 103.927 105.508 101.742 105.439 101.442C104.918 99.2576 104.384 97.0797 103.85 94.8949ZM60.104 60.7582C60.0207 60.7722 59.9444 60.7791 59.8611 60.793C59.4655 62.3934 59.2295 64.0634 58.6327 65.5802C57.8553 67.5563 58.9658 68.6975 60.0485 70.0334C60.3886 69.5255 60.7009 69.1289 60.9369 68.6975C61.2492 68.1408 61.8738 67.7233 61.6795 66.9371C61.152 64.8844 60.6315 62.8178 60.104 60.7582Z" fill="#020202" stroke="#020202" stroke-miterlimit="10"/>
<path d="M28.1847 12.1211C28.1847 13.3666 28.2124 14.6121 28.1777 15.8576C28.143 17.1796 27.3934 17.9033 26.0886 17.9798C24.8255 18.0494 23.132 17.444 22.4172 18.2303C21.7925 18.9122 22.2645 20.5891 22.2228 21.8277C22.1742 23.1497 21.4455 23.936 20.1407 23.9499C17.5727 23.9847 15.0117 23.9847 12.4438 23.9499C11.0696 23.936 10.3339 23.1567 10.3061 21.7581C10.2853 20.7631 10.2575 19.7611 10.32 18.773C10.3616 18.0842 10.0979 17.9381 9.47326 17.9659C8.43913 18.0077 7.40501 18.0077 6.37089 17.9659C5.13549 17.9172 4.3651 17.1588 4.35122 15.9133C4.31652 13.297 4.31652 10.6877 4.35122 8.07144C4.3651 6.82593 5.13549 6.07445 6.37783 6.02574C7.41195 5.984 8.44607 5.984 9.4802 6.02574C10.1048 6.05358 10.3616 5.9005 10.32 5.2186C10.2575 4.22359 10.2853 3.22857 10.3061 2.23356C10.3408 0.834976 11.0696 0.0626227 12.4507 0.0487064C15.0187 0.0208739 17.5797 0.0208739 20.1476 0.0487064C21.4524 0.0626227 22.1881 0.841934 22.2298 2.17094C22.2575 3.2077 22.2714 4.24446 22.2228 5.28122C22.1951 5.9005 22.4172 6.05358 23.0002 6.02574C24.0343 5.984 25.0684 5.99095 26.1025 6.01879C27.4073 6.06053 28.1569 6.81201 28.1916 8.13406C28.2124 9.47002 28.1847 10.799 28.1847 12.1211ZM8.32809 11.9332C8.32809 13.965 8.32809 13.965 10.2853 13.965C14.158 13.965 14.2899 14.1041 14.2899 18.0285C14.2899 19.942 14.2899 19.942 16.2402 19.942C18.2043 19.942 18.2043 19.942 18.2043 17.9172C18.2043 14.1181 18.3639 13.965 22.1951 13.965C24.1661 13.965 24.1661 13.965 24.1661 11.9471C24.1661 10.0336 24.1661 10.0336 22.2089 10.0336C18.3362 10.0336 18.1974 9.89447 18.1974 5.97008C18.1974 4.05659 18.1974 4.05659 16.2471 4.05659C14.276 4.05659 14.276 4.05659 14.276 5.95616C14.276 9.9223 14.158 10.0406 10.1604 10.0406C8.32809 10.0336 8.32809 10.0336 8.32809 11.9332Z" fill="#020202"/>
<path d="M107.472 8.01582C106.619 8.15498 105.723 8.13411 105.217 6.79119C104.918 5.99796 103.926 5.81705 103.044 6.17191C102.135 6.54069 101.677 7.25738 101.781 8.23152C101.892 9.20566 102.503 9.79014 103.461 9.97801C104.023 10.0893 104.62 10.0685 105.175 10.2146C107.715 10.8826 109.187 12.5943 109.652 15.1479C110.061 17.4232 108.916 19.8864 106.799 21.0345C105.925 21.5076 105.571 22.0156 105.737 22.9341C105.904 23.8525 105.48 24.103 104.655 23.9778C104.37 23.936 104.078 23.9708 103.787 23.9708C101.934 23.9708 101.892 23.9708 101.781 22.1408C101.747 21.5076 101.33 21.4381 100.955 21.2363C99.2063 20.2761 98.2069 18.787 97.8252 16.8457C97.7072 16.2542 97.7905 15.9063 98.5331 15.9829C99.2271 16.0525 99.942 16.0177 100.643 15.9898C101.288 15.962 101.747 15.9829 101.996 16.8039C102.302 17.792 103.211 18.1677 104.203 17.9172C105.189 17.6667 105.758 16.9501 105.703 15.8994C105.647 14.8626 105.022 14.2294 104.016 14.0346C103.412 13.9163 102.774 13.9372 102.184 13.7702C99.713 13.0605 98.2763 11.3696 97.8321 8.87167C97.4296 6.58244 98.5678 4.13318 100.692 2.99204C101.566 2.51889 101.913 2.00399 101.747 1.08551C101.58 0.16704 102.003 -0.0834523 102.836 0.0417941C103.121 0.0835429 103.412 0.0487522 103.704 0.0487522C105.557 0.0487522 105.592 0.0487521 105.709 1.87874C105.744 2.43539 106.063 2.54672 106.424 2.72763C108.048 3.58348 109.041 4.90553 109.554 6.68681C109.881 7.83491 109.603 8.21064 108.458 8.02973C108.215 7.98103 107.958 8.01582 107.472 8.01582Z" fill="#020202"/>
<path d="M16.3378 27.9507C18.2464 27.9507 18.2464 27.9507 18.2464 29.9059C18.2464 31.9447 18.2464 31.9447 16.1781 31.9447C14.2695 31.9447 14.2695 31.9447 14.2695 29.9894C14.2695 27.9507 14.2695 27.9507 16.3378 27.9507Z" fill="#020202"/>
<path d="M103.739 31.9377C101.754 31.9377 101.754 31.9377 101.754 29.9407C101.754 27.9507 101.754 27.9507 103.746 27.9507C105.731 27.9507 105.731 27.9507 105.731 29.9477C105.731 31.9377 105.731 31.9377 103.739 31.9377Z" fill="#020202"/>
<path d="M16.3378 35.9248C18.2464 35.9248 18.2464 35.9248 18.2464 37.88C18.2464 39.9188 18.2464 39.9188 16.1781 39.9188C14.2695 39.9188 14.2695 39.9188 14.2695 37.9635C14.2695 35.9248 14.2695 35.9248 16.3378 35.9248Z" fill="#020202"/>
<path d="M105.731 38.0262C105.731 39.9118 105.731 39.9118 103.885 39.9118C101.754 39.9118 101.754 39.9118 101.754 37.8105C101.754 35.9248 101.754 35.9248 103.6 35.9248C105.731 35.9248 105.731 35.9248 105.731 38.0262Z" fill="#020202"/>
<path d="M16.199 47.8859C14.2695 47.8859 14.2695 47.8859 14.2695 45.9585C14.2695 43.8989 14.2695 43.8989 16.317 43.8989C18.2464 43.8989 18.2464 43.8989 18.2464 45.8263C18.2464 47.8859 18.2464 47.8859 16.199 47.8859Z" fill="#020202"/>
<path d="M103.683 47.8859C101.754 47.8859 101.754 47.8859 101.754 45.9585C101.754 43.8989 101.754 43.8989 103.801 43.8989C105.731 43.8989 105.731 43.8989 105.731 45.8263C105.731 47.8859 105.731 47.8859 103.683 47.8859Z" fill="#020202"/>
<path d="M18.2464 53.9674C18.2464 55.8601 18.2464 55.8601 16.2823 55.8601C14.2695 55.8601 14.2695 55.8601 14.2695 53.8909C14.2695 51.873 14.2695 51.873 16.2337 51.873C18.2464 51.873 18.2464 51.873 18.2464 53.9674Z" fill="#020202"/>
<path d="M103.843 55.8601C101.754 55.8601 101.754 55.8601 101.754 53.7169C101.754 51.873 101.754 51.873 103.642 51.873C105.731 51.873 105.731 51.873 105.731 54.0161C105.731 55.8601 105.731 55.8601 103.843 55.8601Z" fill="#020202"/>
<path d="M75.9069 70.7088C75.9069 67.3341 75.8167 64.3073 75.9277 61.2944C76.1221 55.874 73.8248 52.1584 68.6333 50.2171C71.0972 47.3643 72.3257 44.1287 71.819 40.3574C71.4095 37.3167 70.0214 34.7839 67.6964 32.78C63.3378 29.0435 56.7652 29.0087 52.3997 32.7035C49.7623 34.937 48.3118 37.7829 48.1036 41.2272C47.8953 44.6645 49.1099 47.6356 51.3794 50.2032C46.5558 52.0471 44.0365 55.387 44.092 60.5499C44.1128 62.7069 44.0989 64.8709 44.0989 67.0279C44.0989 68.1412 44.0989 69.2476 44.0989 70.681C42.7872 68.9901 41.7878 67.4524 40.8508 65.8798C36.4783 58.5877 33.9034 50.7042 33.1261 42.2222C32.9595 40.3644 32.7444 38.5065 32.4529 36.6626C32.2863 35.612 32.5084 35.0623 33.5981 34.6378C37.3251 33.1697 41.0174 31.6041 44.6819 29.9898C50.1857 27.5684 54.7803 23.8597 58.9931 19.6361C59.7774 18.8498 60.2493 18.7942 61.0197 19.6291C67.2175 26.295 75.0394 30.3168 83.4234 33.4341C84.6241 33.8794 85.7831 34.436 86.9769 34.8953C87.4974 35.0901 87.664 35.3615 87.6085 35.9112C86.845 42.918 86.2273 49.9457 83.6455 56.6116C81.723 61.5449 79.273 66.1582 75.9069 70.7088Z" fill="#F4BD68"/>
<path d="M16.3584 94.895C16.8858 97.0381 17.4203 99.1743 17.9339 101.324C18.0241 101.686 16.6915 103.92 16.3653 104.024C16.2959 104.045 16.2126 104.045 16.1432 104.024C15.817 103.927 14.4845 101.686 14.5747 101.324C15.0883 99.1812 15.6227 97.0381 16.1502 94.895C16.2196 94.895 16.289 94.895 16.3584 94.895Z" fill="#F4BD68"/>
<path d="M103.85 94.895C104.384 97.0729 104.919 99.2508 105.439 101.436C105.509 101.735 104.141 103.92 103.864 104.01C103.794 104.031 103.711 104.045 103.642 104.024C103.329 103.941 101.976 101.686 102.059 101.331C102.573 99.1812 103.107 97.0451 103.635 94.895C103.704 94.902 103.781 94.902 103.85 94.895Z" fill="#F4BD68"/>
<path d="M60.1036 60.7583C60.6241 62.8179 61.1446 64.8845 61.679 66.9441C61.8803 67.7234 61.2487 68.1478 60.9364 68.7045C60.6935 69.1359 60.3881 69.5325 60.048 70.0405C58.9653 68.7045 57.8549 67.5634 58.6322 65.5872C59.2291 64.0634 59.465 62.4004 59.8606 60.8C59.9439 60.7792 60.0272 60.7653 60.1036 60.7583Z" fill="#F4BD68"/>
<path d="M8.32813 11.9334C8.32813 10.0338 8.32812 10.0338 10.1743 10.0338C14.172 10.0338 14.29 9.91551 14.29 5.94938C14.29 4.0498 14.29 4.0498 16.261 4.0498C18.2113 4.0498 18.2113 4.0498 18.2113 5.96329C18.2113 9.88768 18.3501 10.0268 22.2229 10.0268C24.1801 10.0268 24.1801 10.0268 24.1801 11.9403C24.1801 13.9582 24.1801 13.9582 22.209 13.9582C18.3779 13.9582 18.2182 14.1182 18.2182 17.9104C18.2182 19.9352 18.2182 19.9352 16.2541 19.9352C14.3038 19.9352 14.3038 19.9352 14.3038 18.0217C14.3038 14.0904 14.165 13.9582 10.2992 13.9582C8.32813 13.9651 8.32813 13.9651 8.32813 11.9334Z" fill="#F4BD68"/>
</g>
<defs>
<clipPath id="clip0_34366_337646">
<rect width="120" height="120" fill="white"/>
</clipPath>
</defs>
</svg>
