<svg width="120" height="120" viewBox="0 0 120 120" fill="none" xmlns="http://www.w3.org/2000/svg">
<g clip-path="url(#clip0_34366_337777)">
<path d="M74.242 50.9282C80.1299 50.9282 84.903 46.1546 84.903 40.2661C84.903 34.3776 80.1299 29.604 74.242 29.604C68.3541 29.604 63.5811 34.3776 63.5811 40.2661C63.5811 46.1546 68.3541 50.9282 74.242 50.9282Z" fill="#F4BD68"/>
<path d="M23.682 0C25.1938 0.760682 25.4943 2.10362 25.3002 3.7502C25.8355 3.7502 26.2518 3.7502 26.6712 3.7502C36.5152 3.7502 46.3561 3.78463 56.2001 3.73454C60.7168 3.71263 64.6982 5.04617 68.2383 7.8416C71.6375 10.5275 75.0806 13.1632 78.5424 15.7677C79.0245 16.1308 79.7287 16.3719 80.3297 16.375C90.0548 16.4126 99.7799 16.4001 109.508 16.4032C113.752 16.4032 116.25 18.9231 116.25 23.193C116.253 34.6345 116.253 46.0792 116.25 57.5207C116.247 61.7092 113.74 64.2135 109.539 64.2197C101.26 64.226 92.9783 64.2385 84.6993 64.1947C83.9731 64.1916 83.1374 63.9443 82.5552 63.5248C81.7758 62.9676 81.6005 62.0316 81.9699 61.0925C82.3705 60.072 83.1561 59.5555 84.2329 59.5461C86.9654 59.5242 89.7011 59.5367 92.4336 59.5367C95.4009 59.5367 98.3651 59.5367 101.401 59.5367C102.706 54.1211 106.04 50.7278 111.499 49.4131C111.499 43.3652 111.499 37.3298 111.499 31.2318C106.121 29.9358 102.738 26.5957 101.411 21.0894C101.041 21.0894 100.659 21.0894 100.278 21.0894C84.7712 21.0894 69.265 21.0894 53.7587 21.0894C53.5239 21.0894 53.2892 21.0831 53.0544 21.0956C51.8306 21.1645 50.9009 21.872 50.6286 22.9394C50.3375 24.0789 50.7038 25.162 51.7648 25.763C55.3926 27.8134 59.0485 29.8137 62.7357 31.8579C64.8641 29.3129 67.4527 27.6068 70.6704 26.9119C78.1261 25.2997 85.2752 29.9077 87.0343 37.4769C88.6713 44.5265 84.1046 51.8579 76.9524 53.6516C71.481 55.0258 65.8125 52.9754 62.4696 48.355C62.0283 47.7446 61.6026 47.6162 60.8576 47.5661C58.532 47.4096 56.2158 47.1028 53.9089 46.7616C47.749 45.8475 41.7424 44.3794 36.077 41.7092C35.98 41.6622 35.8548 41.681 35.6889 41.6654C35.6889 44.2542 35.6889 46.8148 35.6889 49.4037C41.1133 50.7059 44.4718 54.0773 45.7927 59.5367C46.7943 59.5367 47.7678 59.5367 48.7412 59.5367C53.3893 59.5367 58.0375 59.5304 62.6856 59.5398C64.3476 59.543 65.4338 60.5353 65.3931 61.9502C65.3555 63.3307 64.3164 64.2166 62.6762 64.2197C54.2 64.226 45.7238 64.2385 37.2477 64.2135C33.5323 64.201 30.9656 61.5652 30.9562 57.8087C30.9406 51.8735 30.9343 45.9352 30.9719 40C30.9782 39.2299 30.7184 38.8292 30.0892 38.4254C28.665 37.5113 27.3003 36.5315 25.3253 37.1889C25.3253 37.9058 25.3378 38.7134 25.3221 39.521C25.294 41.2271 24.4082 42.1662 22.7367 42.1694C16.0196 42.185 9.2994 42.185 2.5823 42.1694C0.964067 42.1662 0.0219212 41.2334 0.0219212 39.6212C0.00627093 27.2813 0.0187911 14.9413 1.08228e-05 2.59822C-0.00311923 1.33354 0.672972 0.594772 1.65268 0C8.99578 0 16.3389 0 23.682 0ZM71.2494 16.4032C71.2807 16.3249 71.312 16.2467 71.3402 16.1715C69.2462 14.5563 67.1459 12.9504 65.0613 11.3226C62.5354 9.35044 59.687 8.42072 56.4787 8.42698C46.5251 8.45203 36.5684 8.43637 26.6149 8.43637C26.2048 8.43637 25.7917 8.43637 25.416 8.43637C25.416 16.5034 25.416 24.4013 25.416 32.3368C25.7823 32.3368 26.0577 32.365 26.3269 32.3337C28.3207 32.1021 29.9828 32.7125 31.6542 33.8676C40.0929 39.6995 49.8399 41.6341 59.7559 42.9457C61.8217 43.218 63.4243 41.4775 63.3273 39.3958C63.2615 37.9559 62.4477 37.0387 61.2426 36.375C57.3489 34.2338 53.4332 32.124 49.5769 29.9139C46.8507 28.3487 45.5642 25.907 45.921 22.761C46.2559 19.8153 47.9243 17.8087 50.71 16.8383C51.6083 16.5253 52.6193 16.4314 53.5803 16.4251C59.4679 16.3844 65.3587 16.4032 71.2494 16.4032ZM4.75769 4.7394C4.75769 15.7114 4.75769 26.5488 4.75769 37.4174C10.0631 37.4174 15.306 37.4174 20.5519 37.4174C20.5519 26.4799 20.5519 15.6143 20.5519 4.7394C15.2528 4.7394 10.0381 4.7394 4.75769 4.7394ZM65.969 45.1025C67.8158 48.3581 71.9568 50.0673 75.7442 49.1344C79.7256 48.1546 82.5646 44.5985 82.6678 40.4664C82.7649 36.5722 80.1137 32.8909 76.3483 31.692C72.7331 30.5431 68.4731 31.8923 66.5606 34.7879C68.7047 38.9795 68.5701 41.321 65.969 45.1025ZM111.558 26.2326C111.558 24.9742 111.571 23.8065 111.555 22.642C111.543 21.7843 111.101 21.1802 110.247 21.1269C108.985 21.0487 107.715 21.105 106.425 21.105C106.898 23.5185 109.114 25.738 111.558 26.2326ZM35.6357 54.3904C35.6357 55.6519 35.6232 56.8195 35.6388 57.984C35.6513 58.8355 36.077 59.4459 36.944 59.496C38.2086 59.568 39.4762 59.5148 40.7658 59.5148C40.2932 57.1044 38.0896 54.9037 35.6357 54.3904ZM106.419 59.5273C107.715 59.5273 108.92 59.5492 110.125 59.5179C110.938 59.496 111.48 59.0171 111.527 58.2251C111.599 56.9604 111.546 55.6863 111.546 54.3997C109.129 54.885 106.926 57.0762 106.419 59.5273Z" fill="black"/>
<path d="M120 118.332C119.308 119.596 118.257 120.009 116.814 119.997C110.413 119.937 104.009 119.975 97.6046 119.969C95.6233 119.969 94.8815 119.289 94.628 117.158C94.1929 117.158 93.739 117.158 93.2852 117.158C79.5411 117.158 65.8002 117.111 52.0561 117.173C42.2465 117.217 33.9456 113.799 27.0751 106.802C23.1375 102.792 19.0966 98.8793 15.1653 94.8631C10.7519 90.3522 12.4766 83.0928 18.383 81.2553C21.6382 80.241 24.4647 81.105 26.8498 83.481C30.5589 87.1717 34.2492 90.8781 37.9521 94.5751C39.5922 96.2154 41.4483 97.5395 43.5862 98.4098C43.6519 97.1451 43.5643 95.8992 43.8053 94.7222C44.569 90.9845 47.7585 88.38 51.5741 88.3393C55.8278 88.2924 60.0847 88.3049 64.3416 88.3425C65.1241 88.3487 65.6468 88.1202 66.1226 87.5098C68.2979 84.7237 70.7081 82.1819 73.86 80.4664C80.2547 76.9917 86.8341 76.6129 93.5919 79.3051C93.9143 79.4334 94.2304 79.5711 94.6686 79.7558C95.207 77.9308 96.5968 77.768 98.1962 77.7774C104.403 77.8213 110.613 77.8307 116.82 77.7712C118.263 77.7587 119.315 78.1687 120.006 79.4365C120 92.3994 120 105.365 120 118.332ZM94.6186 112.475C94.6499 112.205 94.6843 112.058 94.6843 111.911C94.6874 103.243 94.6999 94.5751 94.653 85.9102C94.6499 85.5001 94.2336 84.9335 93.8517 84.705C87.4226 80.8296 78.9839 81.5527 73.3655 86.5644C71.6878 88.0607 70.2699 89.8607 68.8175 91.5918C67.9662 92.6092 67.0084 93.0443 65.6781 93.0286C61.0706 92.9754 56.4632 92.9942 51.8558 93.0161C49.7023 93.0255 48.1811 94.597 48.275 96.6348C48.3626 98.6164 49.887 99.8936 52.2189 99.8967C60.2631 99.9061 68.3073 99.8967 76.3516 99.9061C76.8931 99.9061 77.4627 99.9155 77.9698 100.072C79.0184 100.398 79.5474 101.196 79.5411 102.285C79.5348 103.328 78.9965 104.091 78.0199 104.426C77.5191 104.599 76.9432 104.58 76.3985 104.58C68.1978 104.589 59.997 104.508 51.7994 104.608C44.7192 104.696 38.7941 102.251 33.8767 97.1701C30.4838 93.661 26.9844 90.2583 23.5382 86.8023C22.5647 85.8256 21.441 85.3029 20.0513 85.6441C17.2405 86.3328 16.4736 89.5289 18.6271 91.7045C22.5929 95.702 26.6056 99.64 30.5526 103.644C36.4215 109.598 43.5048 112.518 51.8683 112.487C64.1287 112.44 76.3891 112.475 88.6496 112.475C90.6027 112.475 92.5527 112.475 94.6186 112.475ZM99.4263 115.201C104.763 115.201 110.009 115.201 115.217 115.201C115.217 104.251 115.217 93.3886 115.217 82.5419C109.909 82.5419 104.691 82.5419 99.4263 82.5419C99.4263 93.445 99.4263 104.282 99.4263 115.201Z" fill="black"/>
<path d="M100.303 40.3506C100.29 41.6528 99.198 42.6921 97.8865 42.6514C96.6282 42.6107 95.6235 41.5683 95.6329 40.3067C95.6423 39.0702 96.694 38.0059 97.9272 37.9871C99.2105 37.9652 100.315 39.0671 100.303 40.3506Z" fill="black"/>
<path d="M75.9317 61.9064C75.9223 63.2086 74.833 64.251 73.5215 64.2103C72.2664 64.1728 71.2522 63.1241 71.2648 61.8688C71.2742 60.6323 72.3259 59.568 73.5591 59.5461C74.8362 59.521 75.9411 60.6198 75.9317 61.9064Z" fill="black"/>
<path d="M4.75781 4.7395C10.0351 4.7395 15.2529 4.7395 20.5521 4.7395C20.5521 15.6176 20.5521 26.48 20.5521 37.4175C15.3092 37.4175 10.0633 37.4175 4.75781 37.4175C4.75781 26.5489 4.75781 15.7115 4.75781 4.7395Z" fill="#F4BD68"/>
<path d="M99.4258 115.201C99.4258 104.279 99.4258 93.4451 99.4258 82.542C104.694 82.542 109.908 82.542 115.217 82.542C115.217 93.3856 115.217 104.251 115.217 115.201C110.008 115.201 104.766 115.201 99.4258 115.201Z" fill="#F4BD68"/>
</g>
<defs>
<clipPath id="clip0_34366_337777">
<rect width="120" height="120" fill="white"/>
</clipPath>
</defs>
</svg>
