<svg width="100" height="100" viewBox="0 0 100 100" fill="none" xmlns="http://www.w3.org/2000/svg">
<g clip-path="url(#clip0_34366_338050)">
<path d="M82.1637 0C86.7507 2.07774 91.3377 4.15639 95.9247 6.23322C96.7047 6.58659 97.4847 6.94087 98.2701 7.28339C99.1355 7.66207 99.6647 8.26939 99.6279 9.23732C99.5912 10.2034 99.0161 10.7692 98.1305 11.0927C93.6409 12.7312 89.1641 14.4032 84.6552 15.9902C83.7696 16.302 83.5371 16.7204 83.5592 17.5962C83.6217 20.1005 83.5812 22.6075 83.5812 25.1146C83.5812 25.4318 83.5812 25.749 83.5812 26.1774C85.7852 26.1774 87.8926 26.1765 89.9992 26.1774C92.2123 26.1783 92.8242 26.7784 92.8242 28.9582C92.8251 50.8301 92.8251 72.702 92.8251 94.5738C92.8251 95.0284 92.8251 95.483 92.8251 96.0912C94.3097 96.0912 95.7502 96.0912 97.1898 96.0912C99.0924 96.0921 100.023 96.7492 99.9991 98.0741C99.9761 99.3656 99.0666 99.9973 97.2274 99.9973C65.7302 99.9973 34.2331 99.9973 2.73679 99.9973C2.63757 99.9973 2.53835 99.9982 2.43913 99.9973C0.904005 99.9846 -0.0045761 99.2535 1.73339e-05 98.0361C0.00461077 96.8215 0.912273 96.0985 2.45383 96.0922C3.96966 96.0867 5.48642 96.0912 7.12811 96.0912C7.12811 95.6457 7.12811 95.2679 7.12811 94.8902C7.12811 87.3718 7.12719 79.8534 7.12903 72.335C7.12995 70.4191 7.80702 69.7512 9.75647 69.7503C15.4799 69.7476 21.2042 69.7476 26.9277 69.7503C28.8679 69.7512 29.5413 70.4218 29.5413 72.3477C29.5432 79.8335 29.5422 87.3194 29.5422 94.8052C29.5422 95.1911 29.5422 95.5779 29.5422 96.0271C32.6263 96.0271 35.6469 96.0271 38.7686 96.0271C38.7686 95.5707 38.7686 95.155 38.7686 94.7401C38.7686 80.1589 38.7686 65.5776 38.7695 50.9964C38.7695 50.606 38.7557 50.2128 38.798 49.826C38.9193 48.7072 39.6129 48.0149 40.7456 48.0113C46.899 47.9914 53.0533 47.9905 59.2066 48.0122C60.4193 48.0167 61.1405 48.7822 61.1451 50.0249C61.1634 54.907 61.1644 59.7891 61.1451 64.6712C61.1405 65.9021 60.3412 66.6884 59.2076 66.7001C58.0794 66.7119 57.2425 65.9455 57.2057 64.7155C57.1515 62.8944 57.1864 61.0706 57.1855 59.2477C57.1846 56.8455 57.1855 54.4424 57.1855 51.9716C52.3606 51.9716 47.6156 51.9716 42.8053 51.9716C42.8053 66.6531 42.8053 81.3157 42.8053 96.0343C47.5825 96.0343 52.3257 96.0343 57.1855 96.0343C57.1855 95.6574 57.1855 95.3113 57.1855 94.9643C57.1855 90.7654 57.1791 86.5674 57.1901 82.3686C57.1938 80.9063 57.8442 80.1128 59.0348 80.0414C60.2925 79.9664 61.1331 80.7364 61.1451 82.074C61.1717 85.0356 61.1552 87.9972 61.1561 90.9597C61.157 92.6163 61.1561 94.2729 61.1561 96.0099C64.2337 96.0099 67.2562 96.0099 70.4275 96.0099C70.4275 95.6294 70.4275 95.2209 70.4275 94.8124C70.4275 72.8755 70.4275 50.9386 70.4275 29.0016C70.4275 26.7133 70.9686 26.1774 73.2782 26.1765C75.3535 26.1756 77.4297 26.1765 79.6107 26.1765C79.6107 25.702 79.6107 25.3215 79.6107 24.941C79.6107 17.5203 79.63 10.0995 79.5905 2.67874C79.5849 1.4903 79.9295 0.603711 80.9731 0C81.37 0 81.7668 0 82.1637 0ZM88.7682 96.0551C88.7682 74.0278 88.7682 52.0818 88.7682 30.1629C83.934 30.1629 79.1881 30.1629 74.4605 30.1629C74.4605 52.1659 74.4605 74.0919 74.4605 96.0551C79.246 96.0551 83.9689 96.0551 88.7682 96.0551ZM25.5083 96.0515C25.5083 88.5422 25.5083 81.1449 25.5083 73.7395C20.6787 73.7395 15.9126 73.7395 11.1611 73.7395C11.1611 81.2199 11.1611 88.6181 11.1611 96.0515C15.9668 96.0515 20.7118 96.0515 25.5083 96.0515ZM83.6327 5.00682C83.6327 7.48222 83.6327 9.77234 83.6327 12.2206C86.5651 11.147 89.3993 10.1085 92.4723 8.98336C89.3974 7.60061 86.5725 6.32902 83.6327 5.00682Z" fill="black"/>
<path d="M60.311 19.9179C59.012 19.7227 57.9353 19.5835 56.8669 19.3947C55.5651 19.1642 54.8338 18.2867 54.9854 17.2003C55.1462 16.0489 56.1411 15.3847 57.4714 15.5663C60.0905 15.9233 62.7097 16.2785 65.3234 16.6644C67.0937 16.9256 67.6917 17.7878 67.407 19.5239C67.0174 21.899 66.65 24.2768 66.265 26.6518C66.2136 26.9718 66.1557 27.2998 66.0344 27.5972C65.6872 28.4476 64.7942 28.904 63.8581 28.7477C62.9385 28.594 62.243 27.8529 62.2844 26.9049C62.3229 26.0319 62.5067 25.1661 62.6215 24.2966C62.6656 23.9614 62.695 23.6243 62.7529 23.0901C62.2559 23.4191 61.9307 23.6224 61.6192 23.843C43.0379 37.0279 24.4565 50.2155 5.87514 63.4014C5.58024 63.6111 5.29177 63.8316 4.98401 64.0205C3.97437 64.6413 2.80029 64.4371 2.1811 63.5442C1.57201 62.6648 1.7337 61.564 2.68546 60.8672C4.75434 59.3535 6.86089 57.8894 8.95274 56.4045C25.7372 44.492 42.5216 32.5787 59.305 20.6653C59.5687 20.4783 59.825 20.2803 60.311 19.9179Z" fill="black"/>
<path d="M61.1387 73.1447C61.124 74.2635 60.2384 75.0859 59.0891 75.0471C58.0464 75.0118 57.1626 74.081 57.1993 73.0552C57.2361 72.0285 58.1722 71.17 59.2287 71.1944C60.3192 71.2197 61.1525 72.0701 61.1387 73.1447Z" fill="black"/>
<path d="M88.7686 96.0552C83.9693 96.0552 79.2464 96.0552 74.4609 96.0552C74.4609 74.0912 74.4609 52.166 74.4609 30.1631C79.1885 30.1631 83.9344 30.1631 88.7686 30.1631C88.7686 52.0819 88.7686 74.0279 88.7686 96.0552Z" fill="#F4BD68"/>
<path d="M25.5083 96.0513C20.7118 96.0513 15.9668 96.0513 11.1611 96.0513C11.1611 88.6178 11.1611 81.2197 11.1611 73.7393C15.9126 73.7393 20.6787 73.7393 25.5083 73.7393C25.5083 81.1447 25.5083 88.5419 25.5083 96.0513Z" fill="#F4BD68"/>
<path d="M83.6328 5.00684C86.5726 6.32903 89.3976 7.60062 92.4724 8.98337C89.3994 10.1086 86.5653 11.147 83.6328 12.2206C83.6328 9.77236 83.6328 7.48223 83.6328 5.00684Z" fill="#F4BD68"/>
</g>
<defs>
<clipPath id="clip0_34366_338050">
<rect width="100" height="100" fill="white"/>
</clipPath>
</defs>
</svg>
