<svg width="120" height="120" viewBox="0 0 120 120" fill="none" xmlns="http://www.w3.org/2000/svg">
<g clip-path="url(#clip0_34366_338010)">
<path d="M120 110.17C119.126 112.655 117.361 113.687 114.757 113.512C113.279 113.412 111.789 113.513 110.305 113.483C109.15 113.458 108.471 112.823 108.435 111.818C108.396 110.778 109.108 110.026 110.287 109.994C111.966 109.948 113.647 109.954 115.326 109.988C116.186 110.006 116.508 109.661 116.495 108.807C116.461 106.464 116.543 104.117 116.461 101.776C116.374 99.3061 115.286 97.2414 113.103 96.0918C111.019 94.994 108.743 94.2574 106.363 93.2854C106.58 94.8156 106.767 96.1181 106.951 97.4215C107.251 99.5551 105.77 101.027 103.719 100.342C101.563 99.6222 99.981 99.9544 98.7646 101.9C98.5412 102.257 98.2286 102.597 97.8812 102.832C95.2624 104.607 95.5231 107.21 95.817 109.979C97.7232 109.979 99.6293 109.905 101.524 110.02C102.179 110.06 103.021 110.4 103.403 110.894C104.275 112.018 103.325 113.465 101.755 113.484C98.9821 113.517 96.2086 113.495 93.4352 113.495C91.3303 113.495 89.2263 113.495 86.9294 113.495C86.9294 114.21 86.9404 114.854 86.9277 115.499C86.875 118.171 85.0836 119.989 82.407 119.991C67.4841 120.004 52.562 120.002 37.6391 119.992C34.8895 119.991 33.1039 118.182 33.0623 115.439C33.0538 114.855 33.0615 114.271 33.0615 113.495C32.5484 113.495 32.0999 113.495 31.6523 113.495C22.785 113.495 13.9169 113.496 5.04958 113.494C1.56094 113.493 -0.025807 111.909 0.000525603 108.398C0.0166649 106.332 -0.0733754 104.24 0.210337 102.205C0.758224 98.2712 2.88946 95.2251 6.47663 93.5674C10.4664 91.7236 14.6338 90.2614 18.8708 88.5739C18.9863 87.443 19.0899 86.2781 17.8786 85.1234C15.5214 82.876 14.4486 79.9599 14.4401 76.6819C14.4359 75.0828 14.4393 73.4846 14.4393 72.137C13.2908 71.4301 12.1008 71.0095 11.3983 70.1777C10.6975 69.3475 10.181 68.1232 10.1156 67.0398C9.94404 64.1985 10.012 61.3385 10.0757 58.4879C10.1734 54.107 13.6765 50.1781 18.0349 49.9402C22.3569 49.704 26.7017 49.8 31.0339 49.8858C33.623 49.9368 35.2929 51.3719 36.0872 53.8614C36.1874 54.1767 36.6648 54.5471 37.0012 54.5836C39.7754 54.8827 41.6977 56.8497 41.7368 59.6103C41.7759 62.3836 41.7453 65.1578 41.747 67.9311C41.7478 69.4818 41.0275 70.5719 39.7228 71.3902C39.3626 71.6162 39.0517 72.1905 39.0211 72.6264C38.864 74.8415 38.9455 77.0804 38.6763 79.2785C38.4036 81.4995 37.3367 83.4912 35.6896 84.9858C34.4613 86.1014 34.3237 87.3037 34.5429 88.5178C38.7493 90.1509 42.8572 91.7169 46.9362 93.3533C47.755 93.6821 48.5764 94.1656 49.2016 94.7774C50.0511 95.6083 50.8878 95.7095 51.9258 95.243C52.1203 93.8495 52.0897 92.6591 50.8699 91.4917C48.6452 89.3624 47.5945 86.5899 47.5384 83.4861C47.5121 82.0408 47.507 80.5946 47.5384 79.1502C47.5512 78.5648 47.4144 78.2606 46.7884 78.0711C44.3522 77.3319 43.1367 75.6606 43.1239 73.1371C43.1112 70.5974 43.1018 68.0586 43.1256 65.5189C43.1791 59.7301 48.1127 55.4835 53.8345 56.2813C54.8173 56.4181 55.513 57.1947 55.4705 58.1047C55.4263 59.0368 54.7221 59.7029 53.6901 59.7777C52.7591 59.8448 51.8018 59.7904 50.9005 59.9884C48.4762 60.5203 46.7187 62.6275 46.6593 65.0932C46.5939 67.7875 46.6406 70.4844 46.638 73.1796C46.6372 74.2502 47.2063 74.754 48.2426 74.754C52.3836 74.7566 56.5246 74.7922 60.6648 74.7294C62.5786 74.7005 64.1093 73.7913 65.1617 72.1719C65.724 71.3069 66.3441 70.5566 67.5061 70.8149C68.6266 71.0647 69.0105 71.8957 69.1362 72.9697C69.2679 74.0972 70.0111 74.63 71.2097 74.7234C71.2513 74.3742 71.3176 74.0785 71.3184 73.782C71.3269 71.3596 71.3371 68.9372 71.3176 66.5156C71.3065 65.1289 70.9039 64.7219 69.5321 64.5885C67.3728 64.3787 66.3874 63.5961 65.8285 61.4838C65.5304 60.3572 64.8313 59.8601 63.7389 59.8049C63.1154 59.7734 62.486 59.8193 61.865 59.7675C60.8805 59.6851 60.2698 59.1489 60.2061 58.137C60.1415 57.1182 60.7022 56.5048 61.6569 56.3068C65.166 55.5786 67.8935 57.1131 69.1821 60.4438C69.2942 60.7336 69.7572 61.0267 70.0901 61.0717C73.0666 61.4728 74.7926 63.3327 74.83 66.3295C74.8623 68.9465 74.8224 71.5643 74.8419 74.1822C74.8546 75.8628 74.181 77.0898 72.692 77.9224C72.3879 78.0924 72.1441 78.6277 72.1254 79.0066C72.037 80.7994 72.1067 82.6016 71.9895 84.3918C71.812 87.0997 70.7901 89.5383 68.8313 91.3846C67.5945 92.5504 67.4034 93.7578 67.6845 95.2719C68.2681 95.4044 68.8602 95.5778 69.465 95.6576C69.7138 95.6908 70.0935 95.6084 70.2362 95.4333C71.5282 93.8495 73.1354 92.728 75.1392 92.0304C73.837 89.8068 73.3341 87.494 73.8209 85.0104C74.1445 83.3569 74.7986 81.9125 76.1908 80.8377C76.5076 80.593 76.6792 79.9854 76.6843 79.5428C76.7251 76.1441 76.669 72.7445 76.7158 69.3467C76.8355 60.7293 82.5879 53.824 90.9829 52.1663C100.74 50.2393 110.576 57.8064 111.092 67.7587C111.291 71.6162 111.179 75.4915 111.176 79.3584C111.175 80.1163 111.391 80.6048 112.003 81.1333C114.115 82.9593 114.398 85.4429 114.002 87.9995C113.797 89.3199 113.227 90.5842 112.788 91.9836C112.851 92.0168 113.039 92.1366 113.241 92.2165C116.839 93.6346 118.949 96.2957 119.788 100.027C119.83 100.212 119.928 100.384 120 100.562C120 103.764 120 106.967 120 110.17ZM107.676 73.9536C107.65 73.9536 107.623 73.9536 107.597 73.9536C107.597 71.8847 107.716 69.8072 107.576 67.7476C107.042 59.9051 98.9914 53.9651 91.3099 55.678C84.7455 57.142 80.3165 62.5944 80.229 69.3866C80.184 72.9009 80.2061 76.416 80.2256 79.9311C80.2333 81.2489 79.8867 82.3909 78.8691 83.2813C76.9791 84.9356 76.5977 87.4753 77.8727 89.6844C78.3017 90.4271 78.734 90.7117 79.6472 90.3132C81.6459 89.4406 83.7075 88.7107 85.7436 87.9231C87.2411 87.3436 87.4509 86.2824 86.2855 85.1718C84.5654 83.5311 83.287 81.5514 83.0746 79.2063C82.8079 76.2613 82.8827 73.2807 82.9175 70.3162C82.9311 69.1827 83.8111 68.7528 84.8678 68.7256C86.0383 68.695 87.2114 68.7069 88.3811 68.6534C90.2074 68.5701 91.4841 67.6873 92.0676 65.9259C92.37 65.0142 92.9069 64.433 93.9016 64.4067C94.9574 64.3787 95.541 64.9785 95.8536 65.9319C96.4346 67.7068 97.7104 68.5692 99.5359 68.6534C100.588 68.7018 101.643 68.706 102.697 68.7205C104.456 68.7443 105.027 69.2957 105.039 71.0222C105.048 72.5457 104.978 74.0717 105.053 75.5909C105.242 79.4204 104.219 82.7503 101.328 85.4148C100.554 86.1294 100.896 87.443 101.871 87.8237C103.651 88.5187 105.436 89.1984 107.216 89.8884C109.321 90.704 109.858 90.4449 110.393 88.1737C110.577 87.3903 110.699 86.5211 110.549 85.7496C110.404 85.0053 110.036 84.1378 109.476 83.6747C108.252 82.6644 107.67 81.4698 107.673 79.9268C107.679 77.9377 107.676 75.9452 107.676 73.9536ZM38.2371 68.2132C38.2371 65.4756 38.2456 62.7898 38.2337 60.1031C38.2269 58.5941 37.8481 58.2228 36.2893 58.1132C34.5302 57.99 33.2993 57.0018 32.8024 55.3135C32.3157 53.6609 31.9886 53.3474 30.2643 53.3304C26.5539 53.2921 22.8427 53.2641 19.1341 53.3329C15.8442 53.3941 13.6017 55.7485 13.5737 59.0368C13.5533 61.4193 13.5669 63.8017 13.5694 66.1842C13.5711 67.9379 13.871 68.2498 15.5911 68.2523C19.2233 68.2574 22.8572 68.1945 26.4877 68.2744C29.0513 68.3305 31.005 67.4791 32.4286 65.2666C32.7625 64.7474 33.7062 64.3948 34.3806 64.3761C35.2632 64.3515 35.8221 65.0567 35.9691 65.976C36.0065 66.2072 36.0141 66.4459 36.0753 66.6702C36.3573 67.6992 37.0199 68.2234 38.2371 68.2132ZM45.4836 116.481C48.0192 116.481 50.5548 116.463 53.0895 116.492C53.7453 116.5 54.057 116.339 54.1691 115.628C54.4359 113.937 54.8037 112.26 55.1315 110.578C55.4356 109.017 54.7578 107.974 53.2662 107.526C52.7259 107.364 52.212 107.022 51.761 106.667C50.5658 105.727 49.4131 104.734 48.2409 103.764C45.2016 101.252 45.1923 101.233 41.6 102.908C38.9081 104.163 37.1507 106.242 36.7659 109.207C36.5161 111.128 36.6529 113.096 36.5663 115.041C36.5187 116.094 36.9205 116.516 37.995 116.495C40.4907 116.448 42.9872 116.481 45.4836 116.481ZM74.4741 116.481C77.0131 116.481 79.5512 116.459 82.0893 116.492C83.0339 116.503 83.4475 116.141 83.4246 115.181C83.3881 113.619 83.4832 112.052 83.3949 110.495C83.1944 106.954 81.4964 104.369 78.249 102.876C77.2942 102.436 76.3114 102.037 75.3048 101.744C74.9107 101.629 74.3 101.709 73.9882 101.954C72.1161 103.424 70.3356 105.013 68.4499 106.465C67.7712 106.988 66.8801 107.232 66.0961 107.624C65.8438 107.751 65.5355 107.895 65.4081 108.121C64.9273 108.969 64.5866 109.812 64.8805 110.88C65.3027 112.417 65.5788 114.002 65.8141 115.582C65.9296 116.356 66.2813 116.503 66.9753 116.493C69.4752 116.461 71.975 116.481 74.4741 116.481ZM12.3573 109.978C14.8963 109.978 17.4361 109.952 19.9742 109.995C20.7132 110.008 20.9935 109.766 21.1099 109.041C21.3749 107.386 21.7402 105.747 22.0511 104.098C22.3509 102.508 21.6773 101.477 20.1653 101.027C19.6591 100.875 19.1698 100.576 18.7502 100.246C17.5524 99.3053 16.3938 98.3163 15.2216 97.3425C12.0421 94.7009 12.0362 94.6873 8.28084 96.5413C5.81747 97.7572 4.14663 99.7038 3.74994 102.425C3.45434 104.456 3.60044 106.55 3.49936 108.613C3.45009 109.625 3.83913 110.01 4.85931 109.992C7.35665 109.947 9.8574 109.978 12.3573 109.978ZM51.0551 78.2733C51.0551 80.1086 51.0118 81.8156 51.0636 83.5201C51.2046 88.1423 54.875 91.6803 59.6531 91.846C64.1186 92.0015 68.0447 88.6495 68.4669 84.1743C68.6529 82.2005 68.5688 80.2004 68.5671 78.2122C68.5671 77.9488 68.393 77.6225 68.1951 77.4356C67.6675 76.9351 67.0831 76.495 66.6414 76.1305C65.4573 76.7193 64.3981 77.433 63.2292 77.7746C62.0171 78.1289 60.7022 78.2215 59.428 78.2521C56.6733 78.3192 53.9143 78.2733 51.0551 78.2733ZM17.9806 71.7572C17.9806 73.6996 17.9084 75.4533 17.995 77.1994C18.2082 81.4826 21.5558 84.9263 25.792 85.3112C30.2405 85.7156 34.1861 83.1326 35.1341 78.9182C35.5376 77.1246 35.242 75.1848 35.518 73.3495C35.8086 71.419 34.7451 70.4691 33.3996 69.5795C30.8173 71.3995 29.6816 71.7572 26.5157 71.7572C23.7177 71.7572 20.9196 71.7572 17.9806 71.7572ZM94.1887 69.9211C92.8517 70.6212 91.7491 71.4004 90.5234 71.7844C89.25 72.1829 87.857 72.199 86.4078 72.397C86.4078 74.1592 86.3186 75.9486 86.4265 77.7253C86.6448 81.316 89.2645 84.0698 92.8177 84.5856C96.3539 85.0988 99.7168 83.1972 100.996 79.9107C101.962 77.4288 101.365 74.8594 101.55 72.2347C98.6338 72.2781 96.0184 71.9849 94.1887 69.9211ZM73.3256 97.1666C75.4136 97.9764 77.2721 98.6723 79.112 99.4149C83.0823 101.017 85.5728 103.923 86.6193 108.066C86.7697 108.663 86.8376 109.281 86.9447 109.892C88.7132 109.892 90.407 109.892 92.0252 109.892C92.6121 106.924 92.3089 104.315 89.6807 102.464C89.4616 102.31 89.2653 102.098 89.1158 101.874C87.9096 100.062 86.4282 99.5712 84.2673 100.316C82.0995 101.062 80.6011 99.5287 80.9638 97.2754C81.166 96.017 81.3392 94.7544 81.5609 93.2565C78.7841 94.6406 75.7975 95.0442 73.3256 97.1666ZM46.7468 97.0859C45.0598 96.39 43.6922 95.7647 42.2762 95.2795C41.8693 95.1402 41.2008 95.2455 40.8636 95.5098C38.9591 96.9993 37.1354 98.5898 35.2479 100.101C34.7451 100.504 34.1488 100.859 33.5372 101.045C32.3386 101.407 31.4679 102.556 31.6947 103.77C32.0659 105.759 32.4822 107.737 32.8856 109.754C32.9748 109.659 33.0521 109.611 33.0725 109.546C33.1311 109.361 33.1778 109.171 33.2084 108.979C33.9687 104.192 36.6937 101.018 41.1643 99.2738C42.9039 98.5949 44.641 97.9118 46.7468 97.0859ZM90.3288 87.9409C91.4747 91.405 92.6504 94.9584 93.8251 98.5117C93.9169 98.5032 94.0086 98.4947 94.1003 98.4853C95.2709 94.9439 96.4414 91.4025 97.5856 87.9409C95.1112 87.9409 92.8831 87.9409 90.3288 87.9409ZM55.6378 94.8156C54.7026 97.3672 56.991 98.1812 58.4214 99.2084C59.1434 99.7267 60.7922 99.6953 61.5907 99.2067C63.0942 98.2865 64.974 97.2049 63.8977 94.8564C62.5531 95.0238 61.1685 95.3365 59.7856 95.3297C58.3993 95.3237 57.0156 95 55.6378 94.8156ZM22.5565 88.1941C22.2847 90.4203 22.7553 91.4484 25.3562 92.7925C26.2176 93.2378 27.7414 93.1146 28.63 92.6353C30.1997 91.7882 31.7542 90.5859 30.7773 88.2561C28.0804 89.0965 25.3511 89.0633 22.5565 88.1941ZM61.3902 111.289C60.4015 111.289 59.524 111.289 58.5896 111.289C58.2532 113.022 57.9304 114.689 57.6017 116.385C59.2564 116.385 60.782 116.385 62.4078 116.385C62.0519 114.603 61.7189 112.935 61.3902 111.289ZM26.8946 101.337C27.4909 101.238 28.2995 101.344 28.6342 100.994C29.1362 100.47 29.4692 99.6511 29.5771 98.9136C29.7138 97.9772 27.9912 96.5294 26.9328 96.5676C26.4571 96.5846 25.809 96.5702 25.5499 96.854C24.991 97.4674 24.3556 98.227 24.2537 98.9934C24.0829 100.272 25.3817 101.245 26.8946 101.337ZM28.3157 104.813C27.3779 104.813 26.4953 104.813 25.5066 104.813C25.1821 106.505 24.8593 108.183 24.5263 109.916C26.221 109.916 27.7211 109.916 29.3197 109.916C28.9774 108.177 28.6503 106.515 28.3157 104.813ZM59.9207 107.799C60.551 107.682 61.3681 107.766 61.7648 107.398C62.2643 106.934 62.5641 106.126 62.6881 105.421C62.8419 104.543 61.0547 103.037 60.032 103.036C58.9328 103.034 57.2297 104.543 57.2823 105.471C57.3554 106.789 58.4223 107.694 59.9207 107.799ZM100.267 91.0711C99.5919 93.1129 98.9438 95.0739 98.2949 97.035C99.8995 95.9584 101.552 96.2133 103.273 96.6713C103.119 95.5778 102.993 94.734 102.884 93.8878C102.599 91.6939 102.602 91.6931 100.267 91.0711ZM84.6096 96.7503C86.4172 96.1105 87.9861 96.0969 89.7054 97.2559C88.9264 94.9397 88.2681 92.982 87.6106 91.0278C85.3596 91.7593 85.3613 91.7593 85.0377 93.9557C84.9137 94.7918 84.7812 95.627 84.6096 96.7503ZM49.194 99.985C50.0477 100.694 50.8207 101.339 51.5987 101.979C52.3641 102.609 53.1345 103.233 53.9457 103.894C54.5191 103.038 55.0092 102.305 55.4883 101.588C52.6325 98.5805 52.331 98.4998 49.194 99.985ZM20.8432 97.4368C21.4318 96.5634 21.9381 95.8131 22.4308 95.0816C19.3388 92.1434 18.5191 91.9488 16.2273 93.6031C17.7291 94.8496 19.2165 96.085 20.8432 97.4368ZM66.0698 103.911C67.6956 102.562 69.2016 101.312 70.8096 99.9782C69.8914 99.6205 69.1829 99.284 68.4371 99.0818C68.077 98.9841 67.5495 99.0062 67.2683 99.2101C66.2983 99.9119 65.4038 100.718 64.4414 101.516C64.9961 102.331 65.493 103.062 66.0698 103.911ZM37.7334 93.4995C36.7472 93.1205 36.0082 92.7823 35.236 92.5674C34.9175 92.479 34.4393 92.5419 34.1802 92.7339C33.2169 93.4485 32.3157 94.2446 31.3592 95.0365C31.9122 95.8488 32.4108 96.5829 32.9867 97.4301C34.5446 96.1394 36.0345 94.9065 37.7334 93.4995Z" fill="black"/>
<path d="M78.0445 0C79.6295 1.23797 79.5539 1.89817 78.2101 3.46326C77.7404 4.0113 77.8967 5.09633 77.7429 6.0947C80.5902 6.0947 83.1938 6.0947 85.7973 6.0947C88.0704 6.09555 88.5265 6.54672 88.5189 8.84423C88.507 12.2013 88.6488 15.5694 88.4144 18.9111C88.1264 23.0142 85.8075 25.8402 82.0649 27.4537C80.2776 28.2235 78.4174 28.8217 76.6021 29.5278C76.2573 29.662 75.8631 29.8651 75.6669 30.1557C73.2494 33.715 69.9018 35.7729 65.5603 36.422C65.6147 36.8358 65.6376 37.2114 65.7157 37.575C66.1099 39.4044 66.5422 41.2252 66.9109 43.0597C67.0638 43.8227 67.2456 44.3401 68.1502 44.6282C68.6412 44.7845 69.0923 45.7098 69.1755 46.3386C69.2808 47.133 68.6718 47.6989 67.8342 47.8399C67.4528 47.9045 67.0562 47.8943 66.6671 47.8943C62.2169 47.8977 57.7667 47.8969 53.3157 47.8951C52.9648 47.8951 52.6098 47.9028 52.2632 47.8586C51.3679 47.7439 50.8506 47.2027 50.7699 46.3224C50.6892 45.4472 51.0706 44.7276 51.943 44.5415C52.7117 44.3775 52.8943 43.9629 53.0302 43.2806C53.477 41.0298 54.0003 38.7952 54.5091 36.4824C53.7302 36.3073 53.0489 36.185 52.3847 35.9997C49.1449 35.0965 46.5686 33.2536 44.5783 30.5406C44.2369 30.075 43.7017 29.6637 43.1674 29.4428C41.5849 28.7869 39.9532 28.2507 38.3486 27.6458C34.1065 26.0475 31.5208 22.3829 31.4783 17.8584C31.4494 14.735 31.4656 11.6116 31.4749 8.48822C31.4809 6.66058 32.0449 6.09894 33.8466 6.09555C36.1884 6.0913 38.5312 6.0964 40.8731 6.09215C41.2519 6.0913 41.6316 6.05901 42.0988 6.03692C42.0513 4.86352 42.4828 3.77254 41.2188 2.87784C40.2751 2.21 40.676 0.990717 41.9476 0C53.9808 0 66.0122 0 78.0445 0ZM74.352 3.60601C64.6896 3.60601 55.2226 3.60601 45.7327 3.60601C45.6971 3.82097 45.6503 3.97052 45.6503 4.11921C45.6554 10.5215 45.579 16.9255 45.7022 23.3252C45.7947 28.1233 49.8066 32.3852 54.6127 32.8092C57.4804 33.0616 60.3821 32.963 63.2694 32.9673C70.002 32.9766 74.3384 28.6484 74.3494 21.9334C74.3588 16.2729 74.3511 10.6124 74.3511 4.95189C74.352 4.52875 74.352 4.10646 74.352 3.60601ZM35.0315 9.67181C35.0315 12.7434 34.9304 15.7045 35.0638 18.6545C35.17 21.0081 36.4875 22.7627 38.5465 23.8537C39.7017 24.4654 40.975 24.8521 42.1574 25.3253C42.1574 20.0591 42.1574 14.8947 42.1574 9.67096C39.7136 9.67181 37.4303 9.67181 35.0315 9.67181ZM77.8296 25.3007C78.7325 24.9702 79.6949 24.6677 80.6157 24.27C83.4282 23.0558 84.9563 20.9334 85.0005 17.8312C85.0268 15.9594 85.0065 14.0867 85.0065 12.2149C85.0065 11.3703 85.0065 10.5266 85.0065 9.67606C82.555 9.67606 80.2708 9.67606 77.8296 9.67606C77.8296 14.9058 77.8296 20.0701 77.8296 25.3007ZM63.587 44.318C63.0417 41.8022 62.538 39.4511 62.0139 37.1052C61.968 36.9004 61.793 36.5673 61.6682 36.5631C60.5461 36.524 59.3942 36.4101 58.3163 36.6336C57.9986 36.699 57.8355 37.7577 57.6937 38.3822C57.2502 40.3297 56.851 42.2873 56.4186 44.3189C58.8684 44.318 61.1458 44.318 63.587 44.318Z" fill="black"/>
<path d="M51.0556 78.2734C53.9148 78.2734 56.6738 78.3192 59.4302 78.253C60.7044 78.2224 62.0193 78.1289 63.2315 77.7755C64.3994 77.4339 65.4595 76.7202 66.6436 76.1313C67.0845 76.4959 67.6689 76.936 68.1973 77.4364C68.3952 77.6234 68.5693 77.9505 68.5693 78.213C68.5702 80.2013 68.6543 82.2014 68.4691 84.1752C68.0469 88.6504 64.1208 92.0015 59.6553 91.8469C54.8772 91.6812 51.2068 88.1432 51.0658 83.5209C51.0123 81.8156 51.0556 80.1078 51.0556 78.2734Z" fill="white"/>
<path d="M17.9804 71.7573C20.9186 71.7573 23.7175 71.7573 26.5155 71.7573C29.6814 71.7573 30.817 71.3996 33.3993 69.5796C34.7457 70.4692 35.8083 71.4191 35.5178 73.3496C35.2418 75.1849 35.5374 77.1255 35.1339 78.9183C34.1859 83.1327 30.2403 85.7157 25.7918 85.3113C21.5556 84.9264 18.208 81.4826 17.9948 77.1994C17.9082 75.4534 17.9804 73.6996 17.9804 71.7573Z" fill="white"/>
<path d="M94.1885 69.9211C96.0191 71.985 98.6336 72.2781 101.55 72.2348C101.365 74.8603 101.962 77.4297 100.996 79.9107C99.7167 83.1973 96.3537 85.0997 92.8175 84.5856C89.2643 84.0699 86.6447 81.3152 86.4264 77.7254C86.3185 75.9487 86.4077 74.1602 86.4077 72.3971C87.8577 72.1991 89.2507 72.183 90.5232 71.7845C91.7489 71.4004 92.8507 70.6213 94.1885 69.9211Z" fill="white"/>
<path d="M90.3291 87.9409C92.8834 87.9409 95.1114 87.9409 97.5858 87.9409C96.4416 91.4033 95.2711 94.9439 94.1006 98.4853C94.0089 98.4938 93.9171 98.5023 93.8254 98.5117C92.6506 94.9584 91.475 91.405 90.3291 87.9409Z" fill="white"/>
<path d="M55.6383 94.8157C57.0161 95.0001 58.4007 95.3238 59.7861 95.3306C61.169 95.3374 62.5536 95.0247 63.8983 94.8573C64.9745 97.2058 63.0947 98.2874 61.5912 99.2076C60.7927 99.6962 59.144 99.7276 58.4219 99.2093C56.9906 98.1812 54.7023 97.3672 55.6383 94.8157Z" fill="white"/>
<path d="M22.5567 88.1943C25.3514 89.0636 28.0806 89.0967 30.7776 88.2564C31.7545 90.5862 30.2 91.7884 28.6302 92.6356C27.7417 93.1148 26.217 93.238 25.3565 92.7928C22.7555 91.4486 22.2858 90.4205 22.5567 88.1943Z" fill="white"/>
<path d="M61.3899 111.289C61.7187 112.935 62.0516 114.604 62.4067 116.385C60.7809 116.385 59.2553 116.385 57.6006 116.385C57.9293 114.689 58.253 113.022 58.5885 111.289C59.5237 111.289 60.4012 111.289 61.3899 111.289Z" fill="#F4BD68"/>
<path d="M26.8943 101.337C25.3815 101.244 24.0827 100.271 24.2534 98.9944C24.3562 98.228 24.9907 97.4684 25.5497 96.855C25.8087 96.5712 26.4569 96.5856 26.9325 96.5686C27.9909 96.5304 29.7136 97.9774 29.5768 98.9146C29.469 99.6521 29.136 100.47 28.634 100.995C28.2984 101.345 27.4906 101.239 26.8943 101.337Z" fill="#F4BD68"/>
<path d="M28.3157 104.813C28.6504 106.514 28.9774 108.176 29.3197 109.916C27.722 109.916 26.221 109.916 24.5264 109.916C24.8593 108.183 25.1813 106.505 25.5066 104.813C26.4954 104.813 27.3779 104.813 28.3157 104.813Z" fill="#F4BD68"/>
<path d="M59.9208 107.799C58.4232 107.694 57.3563 106.789 57.2824 105.472C57.2306 104.543 58.9337 103.035 60.032 103.036C61.0539 103.037 62.842 104.543 62.6882 105.421C62.5651 106.127 62.2644 106.936 61.7649 107.399C61.3682 107.766 60.551 107.682 59.9208 107.799Z" fill="#F4BD68"/>
<path d="M100.267 91.0713C102.602 91.6932 102.599 91.6941 102.884 93.888C102.993 94.7334 103.12 95.578 103.273 96.6715C101.553 96.2144 99.8995 95.9586 98.2949 97.0351C98.9439 95.0741 99.592 93.1131 100.267 91.0713Z" fill="white"/>
<path d="M84.6094 96.7504C84.7818 95.6271 84.9135 94.7919 85.0366 93.9558C85.3611 91.7594 85.3594 91.7594 87.6096 91.0278C88.2671 92.9821 88.9254 94.9397 89.7043 97.2559C87.985 96.0961 86.417 96.1106 84.6094 96.7504Z" fill="white"/>
<path d="M49.1943 99.9851C52.3313 98.4999 52.6329 98.5806 55.4878 101.588C55.0087 102.304 54.5186 103.037 53.9452 103.894C53.1349 103.233 52.3644 102.608 51.5982 101.978C50.821 101.34 50.048 100.694 49.1943 99.9851Z" fill="white"/>
<path d="M20.8434 97.437C19.2167 96.0852 17.7293 94.8506 16.2275 93.6033C18.5193 91.949 19.339 92.1436 22.431 95.0817C21.9383 95.8133 21.432 96.5636 20.8434 97.437Z" fill="white"/>
<path d="M66.0698 103.911C65.4922 103.062 64.9961 102.331 64.4414 101.516C65.403 100.718 66.2983 99.912 67.2683 99.2102C67.5495 99.0062 68.077 98.985 68.4372 99.0819C69.1821 99.2832 69.8905 99.6206 70.8096 99.9783C69.2017 101.312 67.6956 102.562 66.0698 103.911Z" fill="white"/>
<path d="M37.7337 93.4996C36.0348 94.9066 34.5449 96.1404 32.9879 97.4293C32.412 96.5822 31.9125 95.8489 31.3604 95.0358C32.3168 94.2439 33.2181 93.4478 34.1813 92.7332C34.4404 92.5412 34.9178 92.4783 35.2372 92.5666C36.0093 92.7825 36.7475 93.1206 37.7337 93.4996Z" fill="white"/>
<path d="M74.3514 3.60607C74.3514 4.10653 74.3514 4.52882 74.3514 4.9511C74.3514 10.6116 74.3591 16.2721 74.3497 21.9326C74.3387 28.6485 70.0015 32.9758 63.2697 32.9665C60.3833 32.9622 57.4816 33.0608 54.6131 32.8084C49.807 32.3853 45.7951 28.1225 45.7025 23.3244C45.5793 16.9247 45.6558 10.5207 45.6507 4.11843C45.6507 3.96973 45.6974 3.82019 45.7331 3.60522C55.2213 3.60607 64.6882 3.60607 74.3514 3.60607ZM53.2149 21.8757C53.1113 24.627 55.5101 26.2923 57.6158 25.0747C59.3308 24.0832 60.7256 23.9557 62.3684 25.0985C63.3767 25.7995 64.5455 25.5947 65.5436 24.8598C66.5443 24.1231 67.1049 23.0389 66.7243 21.8944C66.0694 19.9266 66.7914 18.6988 68.2066 17.3801C70.027 15.6833 69.1215 12.6627 66.6581 12.3645C64.554 12.1096 63.4311 11.2412 62.5528 9.34646C61.5895 7.26816 58.4738 7.20953 57.5003 9.25979C56.5702 11.2174 55.4175 12.1504 53.2157 12.407C50.9359 12.6729 50.0151 15.5966 51.6358 17.211C53.1181 18.6894 54.2928 20.0489 53.2149 21.8757Z" fill="#F4BD68"/>
<path d="M35.031 9.67188C37.4298 9.67188 39.7131 9.67188 42.1561 9.67188C42.1561 14.8957 42.1561 20.06 42.1561 25.3262C40.9737 24.853 39.6995 24.4664 38.5451 23.8546C36.4861 22.7636 35.1686 21.0082 35.0625 18.6555C34.9299 15.7045 35.031 12.7434 35.031 9.67188Z" fill="#F4BD68"/>
<path d="M77.8291 25.3008C77.8291 20.0702 77.8291 14.9059 77.8291 9.677C80.2704 9.677 82.5545 9.677 85.006 9.677C85.006 10.5267 85.006 11.3712 85.006 12.2158C85.006 14.0876 85.0272 15.9603 85 17.8322C84.9559 20.9343 83.4277 23.0568 80.6153 24.271C79.6945 24.6686 78.7321 24.9702 77.8291 25.3008Z" fill="#F4BD68"/>
<path d="M63.5865 44.3181C61.1452 44.3181 58.8679 44.3181 56.4189 44.3181C56.8522 42.2866 57.2514 40.3289 57.694 38.3815C57.8358 37.757 57.9989 36.6983 58.3166 36.6328C59.3945 36.4094 60.5464 36.5241 61.6685 36.5623C61.7925 36.5666 61.9683 36.9005 62.0142 37.1044C62.5374 39.4512 63.0412 41.8023 63.5865 44.3181Z" fill="#F4BD68"/>
<path d="M53.2153 21.8756C54.2932 20.0496 53.1184 18.6901 51.6353 17.2117C50.0154 15.5973 50.9362 12.6728 53.2153 12.4077C55.4179 12.1511 56.5697 11.2181 57.4998 9.26048C58.4741 7.21022 61.589 7.26885 62.5523 9.34715C63.4306 11.2419 64.5536 12.1103 66.6576 12.3652C69.121 12.6634 70.0273 15.684 68.2061 17.3808C66.791 18.6995 66.069 19.9273 66.7239 21.8951C67.1053 23.0396 66.5438 24.1238 65.5432 24.8605C64.5442 25.5963 63.3762 25.8002 62.368 25.0992C60.7251 23.9573 59.3312 24.0847 57.6154 25.0754C55.5105 26.2913 53.1116 24.6268 53.2153 21.8756ZM59.9895 12.089C59.1953 14.5225 57.5058 15.5676 55.0229 15.6815C57.1771 17.1633 57.606 19.1107 56.8398 21.4813C59.7576 20.3037 59.7576 20.3037 63.1834 21.4244C62.2847 19.0453 62.9303 17.1633 64.9774 15.6033C62.3663 15.6772 60.8611 14.4341 59.9895 12.089Z" fill="black"/>
<path d="M59.9891 12.0891C60.8598 14.4342 62.3658 15.6773 64.977 15.6034C62.9299 17.1634 62.2843 19.0454 63.183 21.4245C59.7564 20.3037 59.7564 20.3037 56.8394 21.4814C57.6048 19.1108 57.1766 17.1634 55.0225 15.6815C57.5054 15.5685 59.1949 14.5226 59.9891 12.0891Z" fill="#F4BD68"/>
</g>
<defs>
<clipPath id="clip0_34366_338010">
<rect width="120" height="120" fill="white"/>
</clipPath>
</defs>
</svg>
