<svg width="240" height="166" viewBox="0 0 240 166" fill="none" xmlns="http://www.w3.org/2000/svg">
<path d="M225.514 72.4455H181.768C181.768 71.6407 181.825 70.8359 181.825 69.9736C181.825 31.861 150.898 0.934082 112.728 0.934082C74.5581 0.934082 43.6886 31.861 43.6886 69.9736C43.6886 70.7784 43.7461 71.5832 43.7461 72.4455H0L14.4862 105.729L0 139.071H225.514L240 105.787L225.514 72.4455Z" fill="#FFD591"/>
<g filter="url(#filter0_d_38268_522243)">
<path d="M164.464 70.8358C164.005 99.4058 140.436 122.17 111.923 121.71C83.353 121.25 60.589 97.6813 61.0488 69.1687C61.5087 40.5986 85.0776 17.8346 113.59 18.2944C142.16 18.7543 164.924 42.3232 164.464 70.8358Z" fill="url(#paint0_linear_38268_522243)"/>
<path d="M147.712 104.993C167.04 85.6643 167.04 54.3264 147.712 34.9977C128.383 15.6691 97.0451 15.6691 77.7164 34.9977C58.3877 54.3264 58.3877 85.6643 77.7164 104.993C97.045 124.322 128.383 124.322 147.712 104.993Z" fill="#F2F2F2"/>
</g>
<path fill-rule="evenodd" clip-rule="evenodd" d="M116.842 93.5643V92.5245C116.85 89.5662 119.246 87.1701 122.205 87.1616H130.687C133.645 87.1701 136.041 89.5662 136.05 92.5245V93.5643C136.05 94.2715 135.476 94.8448 134.769 94.8448H118.122C117.415 94.8448 116.842 94.2715 116.842 93.5643Z" stroke="#F57C00" stroke-width="4" stroke-linecap="round" stroke-linejoin="round"/>
<path fill-rule="evenodd" clip-rule="evenodd" d="M121.516 77.0197C120.895 74.7948 121.84 72.4296 123.824 71.2453C125.807 70.061 128.337 70.3506 130.002 71.9524C131.666 73.5541 132.052 76.0717 130.945 78.0988C129.837 80.1259 127.51 81.1609 125.263 80.6257C123.451 80.1942 122.017 78.8135 121.516 77.0197Z" stroke="#F57C00" stroke-width="4" stroke-linecap="round" stroke-linejoin="round"/>
<path fill-rule="evenodd" clip-rule="evenodd" d="M87.3896 88.442V87.4022C87.3981 84.4438 89.7942 82.0477 92.7525 82.0393H101.235C104.193 82.0477 106.589 84.4438 106.598 87.4022V88.442C106.598 89.1492 106.024 89.7225 105.317 89.7225H88.6702C87.963 89.7225 87.3896 89.1492 87.3896 88.442Z" stroke="#F57C00" stroke-width="4" stroke-linecap="round" stroke-linejoin="round"/>
<path fill-rule="evenodd" clip-rule="evenodd" d="M92.064 71.8974C91.4431 69.6725 92.3882 67.3073 94.3714 66.123C96.3546 64.9387 98.8851 65.2283 100.549 66.8301C102.214 68.4318 102.6 70.9494 101.493 72.9765C100.385 75.0036 98.0578 76.0386 95.8108 75.5034C93.9992 75.0719 92.5645 73.6912 92.064 71.8974Z" stroke="#F57C00" stroke-width="4" stroke-linecap="round" stroke-linejoin="round"/>
<path d="M125.728 53.7781C125.778 53.7298 125.857 53.7303 125.905 53.7793C125.954 53.8282 125.954 53.9072 125.905 53.9561C125.857 54.0051 125.778 54.0056 125.728 53.9573C125.704 53.9341 125.69 53.9016 125.69 53.8677C125.69 53.8337 125.704 53.8013 125.728 53.7781" stroke="#F57C00" stroke-width="4" stroke-linecap="round" stroke-linejoin="round"/>
<path d="M119.058 53.7781C119.107 53.7298 119.186 53.7303 119.234 53.7793C119.283 53.8282 119.283 53.9072 119.234 53.9561C119.186 54.0051 119.107 54.0056 119.058 53.9573C119.033 53.9341 119.019 53.9016 119.019 53.8677C119.019 53.8337 119.033 53.8013 119.058 53.7781" stroke="#F57C00" stroke-width="4" stroke-linecap="round" stroke-linejoin="round"/>
<path d="M112.386 53.7781C112.435 53.7298 112.514 53.7303 112.563 53.7793C112.611 53.8282 112.611 53.9072 112.563 53.9561C112.514 54.0051 112.435 54.0056 112.386 53.9573C112.361 53.9341 112.347 53.9016 112.347 53.8677C112.347 53.8337 112.361 53.8013 112.386 53.7781" stroke="#F57C00" stroke-width="4" stroke-linecap="round" stroke-linejoin="round"/>
<path fill-rule="evenodd" clip-rule="evenodd" d="M113.001 61.5507V65.3923C112.999 65.888 113.284 66.3398 113.732 66.5525C114.179 66.7651 114.71 66.7003 115.093 66.386L120.348 62.1065C120.785 61.7451 121.334 61.5484 121.9 61.5507H128.367C131.196 61.5507 133.489 59.2575 133.489 56.4286V51.3065C133.489 48.4776 131.196 46.1843 128.367 46.1843H110.44C107.611 46.1843 105.317 48.4776 105.317 51.3065V56.4286C105.317 59.2575 107.611 61.5507 110.44 61.5507H113.001Z" stroke="#F57C00" stroke-width="4" stroke-linecap="round" stroke-linejoin="round"/>
<defs>
<filter id="filter0_d_38268_522243" x="61.042" y="18.2876" width="143.43" height="147.429" filterUnits="userSpaceOnUse" color-interpolation-filters="sRGB">
<feFlood flood-opacity="0" result="BackgroundImageFix"/>
<feColorMatrix in="SourceAlpha" type="matrix" values="0 0 0 0 0 0 0 0 0 0 0 0 0 0 0 0 0 0 127 0" result="hardAlpha"/>
<feOffset dx="20" dy="24"/>
<feGaussianBlur stdDeviation="10"/>
<feComposite in2="hardAlpha" operator="out"/>
<feColorMatrix type="matrix" values="0 0 0 0 0 0 0 0 0 0 0 0 0 0 0 0 0 0 0.25 0"/>
<feBlend mode="normal" in2="BackgroundImageFix" result="effect1_dropShadow_38268_522243"/>
<feBlend mode="normal" in="SourceGraphic" in2="effect1_dropShadow_38268_522243" result="shape"/>
</filter>
<linearGradient id="paint0_linear_38268_522243" x1="81.0391" y1="29.5964" x2="147.269" y2="113.987" gradientUnits="userSpaceOnUse">
<stop stop-color="white"/>
<stop offset="0.9973" stop-color="#D7D6D6"/>
</linearGradient>
</defs>
</svg>
