<svg width="32" height="32" viewBox="0 0 32 32" fill="none" xmlns="http://www.w3.org/2000/svg">
<g id="626a364d370e6d69b605cba9_Global" clip-path="url(#clip0_885_10323)">
<g id="Clip path group">
<mask id="mask0_885_10323" style="mask-type:luminance" maskUnits="userSpaceOnUse" x="0" y="0" width="32" height="32">
<g id="clip0_761_4783">
<path id="Vector" d="M32 0H0V32H32V0Z" fill="white"/>
</g>
</mask>
<g mask="url(#mask0_885_10323)">
<g id="Group">
<path id="Vector_2" d="M15.9956 20.3796C14.0708 20.3796 12.1548 20.3796 10.23 20.3887C9.98052 20.3887 9.88249 20.3612 9.84685 20.0586C9.51713 17.3071 9.52605 14.5647 9.85576 11.8224C9.89141 11.5381 10.0429 11.6023 10.1944 11.6023C13.3222 11.6023 16.4589 11.6023 19.5868 11.6023C20.3531 11.6023 21.1195 11.6115 21.8859 11.6023C22.0729 11.6023 22.1175 11.6573 22.1443 11.8408C22.4829 14.5831 22.4829 17.3346 22.1532 20.077C22.1175 20.3704 22.0105 20.3887 21.7879 20.3887C19.8541 20.3796 17.9293 20.3796 15.9956 20.3796Z" fill="#E0E3FD"/>
<path id="Vector_3" d="M10.2568 9.38259C10.8449 6.84203 11.5934 4.39319 13.2064 2.32956C13.6519 1.76092 14.1599 1.28399 14.7925 0.944637C15.6391 0.486053 16.4768 0.513569 17.3055 0.990496C18.1075 1.44908 18.7135 2.13696 19.2303 2.90737C20.4244 4.67752 21.1016 6.66777 21.6007 8.74057C21.6452 8.94235 21.6897 9.14412 21.7343 9.33673C21.7343 9.34591 21.7343 9.35508 21.7255 9.38259C17.9115 9.38259 14.0975 9.38259 10.2568 9.38259Z" fill="url(#paint0_linear_885_10323)"/>
<path id="Vector_4" d="M10.2657 22.5807C14.0975 22.5807 17.9115 22.5807 21.7432 22.5807C21.3244 24.5343 20.7363 26.4146 19.7828 28.1571C19.4976 28.6707 19.1858 29.1752 18.8026 29.6246C18.5887 29.8723 18.3748 30.1199 18.1432 30.3492C16.7352 31.6883 15.2648 31.6883 13.8568 30.3492C12.8856 29.432 12.2261 28.2764 11.6736 27.0658C11.3974 26.4604 11.1657 25.8275 10.9518 25.1947C10.6756 24.3508 10.4439 23.4979 10.2657 22.5807Z" fill="url(#paint1_linear_885_10323)"/>
<path id="Vector_5" d="M27.8563 11.5929C28.9524 11.5929 30.0573 11.6021 31.1535 11.5929C31.3495 11.5929 31.4385 11.6388 31.492 11.8497C32.1783 14.6104 32.1783 17.3618 31.492 20.1134C31.4385 20.3244 31.3673 20.3793 31.1624 20.3793C28.9524 20.3702 26.7424 20.3702 24.5324 20.3793C24.2919 20.3793 24.274 20.2968 24.3008 20.0858C24.6216 17.3528 24.6216 14.6104 24.3008 11.8772C24.274 11.6204 24.3275 11.5745 24.5592 11.5837C25.6552 11.6021 26.7513 11.5929 27.8563 11.5929Z" fill="#E0E3FD"/>
<path id="Vector_6" d="M4.18825 11.5932C5.27542 11.5932 6.36258 11.6023 7.44974 11.584C7.69925 11.584 7.72598 11.6482 7.69925 11.8867C7.44084 14.1612 7.37845 16.4449 7.5745 18.7287C7.61905 19.2056 7.6547 19.6825 7.71708 20.1595C7.7349 20.3245 7.70817 20.3704 7.53885 20.3704C5.28433 20.3613 3.02981 20.3613 0.775279 20.3704C0.623789 20.3704 0.570322 20.3155 0.534678 20.1687C0.0356522 18.1784 -0.124749 16.1699 0.106941 14.1245C0.196053 13.3724 0.329721 12.6387 0.499033 11.905C0.552499 11.6574 0.641611 11.584 0.891125 11.584C1.9872 11.6023 3.09218 11.5932 4.18825 11.5932Z" fill="#E0E3FD"/>
<path id="Vector_7" d="M30.6544 9.40097C30.1376 9.40097 29.6564 9.40097 29.1841 9.40097C27.5355 9.40097 25.8959 9.3918 24.2473 9.41015C24.0067 9.41015 23.9087 9.35512 23.8641 9.09831C23.374 6.67699 22.6255 4.34737 21.3423 2.21955C20.8521 1.41244 20.2907 0.678704 19.6313 0C21.7967 0.476928 23.7572 1.42161 25.5216 2.77901C27.7851 4.51247 29.4871 6.71367 30.6544 9.40097Z" fill="url(#paint2_linear_885_10323)"/>
<path id="Vector_8" d="M19.6403 31.9726C21.6541 29.909 22.7056 27.3318 23.4631 24.5986C23.6235 24.0209 23.7393 23.4246 23.8731 22.8377C23.9087 22.6909 23.9176 22.5717 24.1315 22.5717C26.288 22.5809 28.4444 22.5809 30.6544 22.5809C29.5316 25.1857 27.892 27.3318 25.7265 29.0469C23.9087 30.4777 21.8859 31.4682 19.6403 31.9726Z" fill="url(#paint3_linear_885_10323)"/>
<path id="Vector_9" d="M1.39014 9.38261C2.57532 5.41127 8.49234 0.330163 12.3063 0.00915527C12.342 0.0550136 12.3241 0.0917004 12.2885 0.128387C10.836 1.55917 9.92703 3.33847 9.21414 5.22784C8.74186 6.48436 8.3854 7.77756 8.12698 9.09828C8.09134 9.27255 8.08243 9.40095 7.83291 9.40095C5.72096 9.39177 3.60902 9.39179 1.50599 9.39179C1.47034 9.40095 1.4347 9.39179 1.39014 9.38261Z" fill="url(#paint4_linear_885_10323)"/>
<path id="Vector_10" d="M1.35449 22.5717C1.81787 22.5717 2.23669 22.5717 2.65552 22.5717C4.35756 22.5717 6.05068 22.5808 7.75271 22.5625C8.02005 22.5625 8.09133 22.6542 8.1448 22.911C8.64383 25.3232 9.37455 27.6436 10.6578 29.753C11.1033 30.4868 11.6113 31.1564 12.2083 31.7617C12.2618 31.8166 12.342 31.8534 12.3241 32.0001C10.2389 31.4865 8.34085 30.5877 6.621 29.2945C4.28627 27.5518 2.53968 25.3232 1.35449 22.5717Z" fill="url(#paint5_linear_885_10323)"/>
</g>
</g>
</g>
</g>
<defs>
<linearGradient id="paint0_linear_885_10323" x1="14.292" y1="3.17139" x2="9.93104" y2="14.1756" gradientUnits="userSpaceOnUse">
<stop stop-color="#537CD7"/>
<stop offset="1" stop-color="#537CD7" stop-opacity="0"/>
</linearGradient>
<linearGradient id="paint1_linear_885_10323" x1="14.301" y1="25.1378" x2="9.93452" y2="36.1478" gradientUnits="userSpaceOnUse">
<stop stop-color="#537CD7"/>
<stop offset="1" stop-color="#537CD7" stop-opacity="0"/>
</linearGradient>
<linearGradient id="paint2_linear_885_10323" x1="23.5068" y1="2.74281" x2="18.4459" y2="14.1685" gradientUnits="userSpaceOnUse">
<stop stop-color="#537CD7"/>
<stop offset="1" stop-color="#537CD7" stop-opacity="0"/>
</linearGradient>
<linearGradient id="paint3_linear_885_10323" x1="23.5125" y1="25.3118" x2="18.4571" y2="36.727" gradientUnits="userSpaceOnUse">
<stop stop-color="#537CD7"/>
<stop offset="1" stop-color="#537CD7" stop-opacity="0"/>
</linearGradient>
<linearGradient id="paint4_linear_885_10323" x1="5.23482" y1="2.74661" x2="0.163351" y2="14.1275" gradientUnits="userSpaceOnUse">
<stop stop-color="#537CD7"/>
<stop offset="1" stop-color="#537CD7" stop-opacity="0"/>
</linearGradient>
<linearGradient id="paint5_linear_885_10323" x1="5.21203" y1="25.3133" x2="0.110578" y2="36.744" gradientUnits="userSpaceOnUse">
<stop stop-color="#537CD7"/>
<stop offset="1" stop-color="#537CD7" stop-opacity="0"/>
</linearGradient>
<clipPath id="clip0_885_10323">
<rect width="32" height="32" fill="white"/>
</clipPath>
</defs>
</svg>
