<svg width="40" height="40" viewBox="0 0 40 40" fill="none" xmlns="http://www.w3.org/2000/svg">
<g id="icon">
<g id="Group 18847">
<g id="Group 18846">
<circle id="Ellipse 456" cx="27.25" cy="27.2501" r="6.25" fill="url(#paint0_linear_885_10337)"/>
<g id="Vector">
<path d="M27.25 36C32.0825 36 36 32.0825 36 27.25C36 22.4175 32.0825 18.5 27.25 18.5C22.4175 18.5 18.5 22.4175 18.5 27.25C18.5 32.0825 22.4175 36 27.25 36ZM31.4469 24.7681L28.1087 30.3317C27.4811 31.3777 26.0376 31.5554 25.1751 30.6929L23.2411 28.7589C22.753 28.2707 22.753 27.4793 23.2411 26.9911C23.7293 26.503 24.5207 26.503 25.0089 26.9911L26.3768 28.3591L29.3031 23.4819C29.6583 22.8899 30.4261 22.6979 31.0181 23.0531C31.6101 23.4083 31.8021 24.1761 31.4469 24.7681Z" fill="url(#paint1_linear_885_10337)"/>
<path d="M23.5 8.5C23.5 12.6421 20.1421 16 16 16C11.8579 16 8.5 12.6421 8.5 8.5C8.5 4.35786 11.8579 1 16 1C20.1421 1 23.5 4.35786 23.5 8.5Z" fill="url(#paint2_linear_885_10337)"/>
<path d="M1 28.5C1 31 3.5 31 3.5 31H16.6401C16.2256 29.8271 16 28.5649 16 27.25C16 23.8659 17.4942 20.8307 19.859 18.7683C18.6927 18.5954 17.41 18.5 16 18.5C3.5 18.5 1 26 1 28.5Z" fill="url(#paint3_linear_885_10337)"/>
</g>
</g>
</g>
</g>
<defs>
<linearGradient id="paint0_linear_885_10337" x1="25.3947" y1="24.6435" x2="17.9728" y2="38.9477" gradientUnits="userSpaceOnUse">
<stop stop-color="#537CD7"/>
<stop offset="1" stop-color="#537CD7" stop-opacity="0"/>
</linearGradient>
<linearGradient id="paint1_linear_885_10337" x1="3.23154" y1="0.281519" x2="30.8475" y2="3.66559" gradientUnits="userSpaceOnUse">
<stop stop-color="#F1F5FE"/>
<stop offset="1" stop-color="#D7D9FC"/>
</linearGradient>
<linearGradient id="paint2_linear_885_10337" x1="3.23154" y1="0.281519" x2="30.8475" y2="3.66559" gradientUnits="userSpaceOnUse">
<stop stop-color="#F1F5FE"/>
<stop offset="1" stop-color="#D7D9FC"/>
</linearGradient>
<linearGradient id="paint3_linear_885_10337" x1="13.3052" y1="11.2016" x2="-7.47616" y2="51.2533" gradientUnits="userSpaceOnUse">
<stop stop-color="#537CD7"/>
<stop offset="1" stop-color="#537CD7" stop-opacity="0"/>
</linearGradient>
</defs>
</svg>
