<svg width="40" height="40" viewBox="0 0 40 40" fill="none" xmlns="http://www.w3.org/2000/svg">
<path d="M27.1053 21.8945C31.989 21.8945 35.9474 17.9361 35.9474 13.0524C35.9474 8.1686 31.989 4.21027 27.1053 4.21027C22.2215 4.21027 18.2632 8.1686 18.2632 13.0524C18.2632 17.9361 22.2215 21.8945 27.1053 21.8945Z" fill="url(#paint0_linear_885_9963)"/>
<path d="M16.0526 2H27.7527C28.339 2 28.9012 2.23289 29.3158 2.64745L37.5105 10.8421C37.925 11.2567 38.1579 11.8189 38.1579 12.4052V32.9474C38.1579 35.389 36.1785 37.3684 33.7369 37.3684H16.0526C13.611 37.3684 11.6316 35.389 11.6316 32.9474V6.42105C11.6316 3.97937 13.611 2 16.0526 2ZM28.2105 5.31579V9.73684C28.2105 10.9577 29.2002 11.9474 30.4211 11.9474H34.8421L28.2105 5.31579Z" fill="url(#paint1_linear_885_9963)"/>
<path d="M11.98 12.9794C13.8412 12.4644 15.818 12 17 12C18.182 12 20.1588 12.4644 22.02 12.9794C23.923 13.506 25.8403 14.1256 26.9681 14.5012C27.9093 14.8148 28.6212 15.6638 28.7579 16.7112C29.7807 24.5465 27.4091 30.352 24.5326 34.1935C23.0997 36.107 21.5425 37.5331 20.2176 38.4869C19.5556 38.9634 18.9421 39.3289 18.4211 39.5793C17.9397 39.8107 17.4246 40 17 40C16.5754 40 16.0603 39.8107 15.5789 39.5793C15.0579 39.3289 14.4444 38.9634 13.7824 38.4869C12.4575 37.5331 10.9003 36.107 9.46743 34.1935C6.59093 30.352 4.21933 24.5465 5.24211 16.7112C5.37883 15.6638 6.09072 14.8148 7.0319 14.5012C8.15971 14.1256 10.077 13.506 11.98 12.9794Z" fill="url(#paint2_linear_885_9963)"/>
<path fill-rule="evenodd" clip-rule="evenodd" d="M16.2412 31C15.9844 31.0001 15.738 30.8956 15.5564 30.7095L11 26.0364L12.3689 24.6327L16.2412 28.6036L24.6311 20L26 21.4037L16.9259 30.7095C16.7443 30.8956 16.498 31.0001 16.2412 31Z" fill="#537CD7"/>
<defs>
<linearGradient id="paint0_linear_885_9963" x1="19.3907" y1="3.84724" x2="33.344" y2="5.55709" gradientUnits="userSpaceOnUse">
<stop stop-color="#F1F5FE"/>
<stop offset="1" stop-color="#D7D9FC"/>
</linearGradient>
<linearGradient id="paint1_linear_885_9963" x1="20.9577" y1="12.309" x2="-3.0773" y2="47.0507" gradientUnits="userSpaceOnUse">
<stop stop-color="#537CD7"/>
<stop offset="1" stop-color="#537CD7" stop-opacity="0"/>
</linearGradient>
<linearGradient id="paint2_linear_885_9963" x1="6.5302" y1="11.4252" x2="25.5415" y2="13.4221" gradientUnits="userSpaceOnUse">
<stop stop-color="#F1F5FE"/>
<stop offset="1" stop-color="#D7D9FC"/>
</linearGradient>
</defs>
</svg>
