<svg width="40" height="40" viewBox="0 0 40 40" fill="none" xmlns="http://www.w3.org/2000/svg">
<path d="M27 5.125C27 4.50368 26.4963 4 25.875 4H19.125C18.5037 4 18 4.50368 18 5.125C18 5.74632 17.4963 6.25 16.875 6.25C16.2537 6.25 15.75 6.75368 15.75 7.375V8.5C15.75 9.12132 16.2537 9.625 16.875 9.625H28.125C28.7463 9.625 29.25 9.12132 29.25 8.5V7.375C29.25 6.75368 28.7463 6.25 28.125 6.25C27.5037 6.25 27 5.74632 27 5.125Z" fill="url(#paint0_linear_885_9993)"/>
<path d="M13.692 6.25H12.375C10.511 6.25 9 7.76104 9 9.625V36.625C9 38.489 10.511 40 12.375 40H32.625C34.489 40 36 38.489 36 36.625V9.625C36 7.76104 34.489 6.25 32.625 6.25H31.308C31.4323 6.60188 31.5 6.98054 31.5 7.375V8.5C31.5 10.364 29.989 11.875 28.125 11.875H16.875C15.011 11.875 13.5 10.364 13.5 8.5V7.375C13.5 6.98054 13.5677 6.60188 13.692 6.25Z" fill="url(#paint1_linear_885_9993)"/>
<circle cx="22.5" cy="24.5" r="8.5" fill="#DCDEFC"/>
<path fill-rule="evenodd" clip-rule="evenodd" d="M21.1929 29C20.9875 29.0001 20.7904 28.9241 20.6451 28.7887L17 25.3901L18.0951 24.3692L21.1929 27.2571L27.9049 21L29 22.0209L21.7407 28.7887C21.5954 28.9241 21.3984 29.0001 21.1929 29Z" fill="#517AD3"/>
<defs>
<linearGradient id="paint0_linear_885_9993" x1="18.4926" y1="14.4931" x2="-5.97155" y2="49.8552" gradientUnits="userSpaceOnUse">
<stop stop-color="#537CD7"/>
<stop offset="1" stop-color="#537CD7" stop-opacity="0"/>
</linearGradient>
<linearGradient id="paint1_linear_885_9993" x1="18.4926" y1="14.4931" x2="-5.97155" y2="49.8552" gradientUnits="userSpaceOnUse">
<stop stop-color="#537CD7"/>
<stop offset="1" stop-color="#537CD7" stop-opacity="0"/>
</linearGradient>
</defs>
</svg>
