<svg width="24" height="18" viewBox="0 0 24 18" fill="none" xmlns="http://www.w3.org/2000/svg">
<g id="KR">
<rect id="Mask" x="0.5" y="0.928467" width="23" height="16.1429" rx="3.5" fill="white" stroke="#F5F5F5"/>
<mask id="mask0_1348_7367" style="mask-type:luminance" maskUnits="userSpaceOnUse" x="0" y="0" width="24" height="18">
<rect id="Mask_2" x="0.5" y="0.928467" width="23" height="16.1429" rx="3.5" fill="white" stroke="white"/>
</mask>
<g mask="url(#mask0_1348_7367)">
<g id="Oval 9">
<ellipse id="Mask_3" cx="12" cy="9" rx="4" ry="4" fill="#E01B41"/>
<mask id="mask1_1348_7367" style="mask-type:luminance" maskUnits="userSpaceOnUse" x="8" y="5" width="8" height="8">
<ellipse id="Mask_4" cx="12" cy="9" rx="4" ry="4" fill="white"/>
</mask>
<g mask="url(#mask1_1348_7367)">
<path id="Rectangle 277" fill-rule="evenodd" clip-rule="evenodd" d="M8.00012 9.57136C9.14298 10.6428 10.8573 11.2856 12.0001 9.57136C13.143 7.85707 15.4287 7.85707 16.0001 9.57136C16.5716 11.2856 16.0001 12.9999 16.0001 12.9999H8.00012C8.00012 12.9999 6.85727 8.49993 8.00012 9.57136Z" fill="#0E4B9C"/>
</g>
</g>
<path id="Rectangle 278" opacity="0.75" fill-rule="evenodd" clip-rule="evenodd" d="M5.1492 3.72453C5.30699 3.45122 5.65647 3.35758 5.92978 3.51537C6.20309 3.67317 6.29674 4.02265 6.13894 4.29596L4.99608 6.27545C4.83829 6.54876 4.48881 6.6424 4.2155 6.4846C3.94219 6.32681 3.84854 5.97733 4.00634 5.70402L5.1492 3.72453ZM18.0719 3.51537C17.7986 3.67317 17.7049 4.02265 17.8627 4.29596L19.0056 6.27545C19.1634 6.54876 19.5129 6.6424 19.7862 6.4846C20.0595 6.32681 20.1531 5.97733 19.9953 5.70402L18.8525 3.72453C18.6947 3.45122 18.3452 3.35758 18.0719 3.51537ZM16.5873 4.37252C16.314 4.53031 16.2203 4.87979 16.3781 5.1531L17.521 7.13259C17.6788 7.4059 18.0283 7.49954 18.3016 7.34175C18.5749 7.18395 18.6685 6.83447 18.5107 6.56116L17.3679 4.58167C17.2101 4.30836 16.8606 4.21472 16.5873 4.37252ZM4.00634 12.296C3.84854 12.0226 3.94219 11.6732 4.2155 11.5154C4.48881 11.3576 4.83829 11.4512 4.99608 11.7245L6.13894 13.704C6.29674 13.9773 6.20309 14.3268 5.92978 14.4846C5.65647 14.6424 5.30699 14.5488 5.1492 14.2754L4.00634 12.296ZM5.70011 10.6582C5.4268 10.816 5.33316 11.1655 5.49095 11.4388L6.63381 13.4183C6.79161 13.6916 7.14109 13.7853 7.4144 13.6275C7.68771 13.4697 7.78135 13.1202 7.62356 12.8469L6.4807 10.8674C6.3229 10.5941 5.97342 10.5004 5.70011 10.6582ZM17.521 10.8674C17.6788 10.5941 18.0283 10.5004 18.3016 10.6582C18.5749 10.816 18.6685 11.1655 18.5107 11.4388L17.3679 13.4183C17.2101 13.6916 16.8606 13.7853 16.5873 13.6275C16.314 13.4697 16.2203 13.1202 16.3781 12.8469L17.521 10.8674ZM19.7862 11.5154C19.5129 11.3576 19.1634 11.4512 19.0056 11.7245L17.8627 13.704C17.7049 13.9773 17.7986 14.3268 18.0719 14.4846C18.3452 14.6424 18.6947 14.5488 18.8525 14.2754L19.9953 12.296C20.1531 12.0227 20.0595 11.6732 19.7862 11.5154ZM7.4144 4.37252C7.14109 4.21472 6.79161 4.30836 6.63381 4.58167L5.49095 6.56116C5.33316 6.83447 5.4268 7.18395 5.70011 7.34175C5.97342 7.49954 6.3229 7.4059 6.4807 7.13259L7.62356 5.1531C7.78135 4.87979 7.68771 4.53031 7.4144 4.37252Z" fill="#262626"/>
</g>
</g>
</svg>
