<svg width="40" height="40" viewBox="0 0 40 40" fill="none" xmlns="http://www.w3.org/2000/svg">
<path d="M25.5865 25.2467C26.1024 25.7626 26.1024 26.5984 25.5865 27.1134C25.0707 27.6292 24.2349 27.6292 23.7199 27.1134C23.204 26.5976 23.204 25.7617 23.7199 25.2467C24.2357 24.7309 25.0715 24.7309 25.5865 25.2467" stroke="#333333" stroke-width="1.5" stroke-linecap="round" stroke-linejoin="round"/>
<path d="M16.4197 25.2467C16.9356 25.7625 16.9356 26.5983 16.4197 27.1133C15.9039 27.6292 15.0681 27.6292 14.5531 27.1133C14.0381 26.5975 14.0372 25.7617 14.5531 25.2467C15.0689 24.7317 15.9039 24.7308 16.4197 25.2467" stroke="#333333" stroke-width="1.5" stroke-linecap="round" stroke-linejoin="round"/>
<path d="M18.3332 13.3335H21.6665C22.1265 13.3335 22.4998 13.7068 22.4998 14.1668V22.5002H11.6665" stroke="#333333" stroke-width="1.5" stroke-linecap="round" stroke-linejoin="round"/>
<path d="M14.1665 26.1802H12.4998C12.0398 26.1802 11.6665 25.8068 11.6665 25.3468V20.8335" stroke="#333333" stroke-width="1.5" stroke-linecap="round" stroke-linejoin="round"/>
<path d="M22.5 15.8335H26.1025C26.4433 15.8335 26.75 16.041 26.8758 16.3577L28.2142 19.7027C28.2925 19.8993 28.3333 20.1093 28.3333 20.321V25.2777C28.3333 25.7377 27.96 26.111 27.5 26.111H25.9742" stroke="#333333" stroke-width="1.5" stroke-linecap="round" stroke-linejoin="round"/>
<path d="M23.3331 26.1835H16.8081" stroke="#333333" stroke-width="1.5" stroke-linecap="round" stroke-linejoin="round"/>
<path d="M28.3333 21.6668H25V18.3335H27.6667" stroke="#333333" stroke-width="1.5" stroke-linecap="round" stroke-linejoin="round"/>
<path d="M11.6665 13.3334H15.8332" stroke="#333333" stroke-width="1.5" stroke-linecap="round" stroke-linejoin="round"/>
<path d="M11.6665 15.8334H14.1665" stroke="#333333" stroke-width="1.5" stroke-linecap="round" stroke-linejoin="round"/>
<path d="M12.4998 18.3334H11.6665" stroke="#333333" stroke-width="1.5" stroke-linecap="round" stroke-linejoin="round"/>
<rect x="1" y="1" width="38" height="38" rx="19" stroke="url(#paint0_linear_1291_2910)" stroke-width="2"/>
<defs>
<linearGradient id="paint0_linear_1291_2910" x1="-1.49947e-07" y1="40" x2="40.9493" y2="39.2731" gradientUnits="userSpaceOnUse">
<stop stop-color="#365393"/>
<stop offset="0.838542" stop-color="#FF4F4F"/>
</linearGradient>
</defs>
</svg>
