<svg width="40" height="40" viewBox="0 0 40 40" fill="none" xmlns="http://www.w3.org/2000/svg">
<rect x="10" y="12.5" width="20" height="15" rx="2" fill="#E12A28"/>
<path d="M20.2991 16.7639L21.0732 19.085L23.5199 19.1039C23.6567 19.105 23.7135 19.2796 23.6034 19.3609L21.6351 20.8143L22.3731 23.1472C22.4144 23.2776 22.2659 23.3855 22.1546 23.306L20.164 21.8832L18.1734 23.306C18.0621 23.3856 17.9136 23.2777 17.9548 23.1472L18.6929 20.8144L16.7246 19.3609C16.6145 19.2796 16.6713 19.105 16.8081 19.104L19.2548 19.085L20.0289 16.7639C20.0722 16.6341 20.2558 16.6341 20.2991 16.7639Z" fill="#FDCE0C"/>
<rect x="1" y="1" width="38" height="38" rx="19" stroke="url(#paint0_linear_200_4056)" stroke-width="2"/>
<defs>
<linearGradient id="paint0_linear_200_4056" x1="-1.49947e-07" y1="40" x2="40.9493" y2="39.2731" gradientUnits="userSpaceOnUse">
<stop stop-color="#365393"/>
<stop offset="0.838542" stop-color="#FF4F4F"/>
</linearGradient>
</defs>
</svg>
