<svg width="40" height="40" viewBox="0 0 40 40" fill="none" xmlns="http://www.w3.org/2000/svg">
<path fill-rule="evenodd" clip-rule="evenodd" d="M25.8337 24.1666H25.0003C24.5403 24.1666 24.167 23.7933 24.167 23.3333V19.1666C24.167 18.7066 24.5403 18.3333 25.0003 18.3333H25.8337C26.7545 18.3333 27.5003 19.0791 27.5003 19.9999V22.4999C27.5003 23.4208 26.7545 24.1666 25.8337 24.1666Z" stroke="#333333" stroke-width="1.5" stroke-linecap="round" stroke-linejoin="round"/>
<path fill-rule="evenodd" clip-rule="evenodd" d="M15 24.1666H14.1667C13.2458 24.1666 12.5 23.4208 12.5 22.4999V19.9999C12.5 19.0791 13.2458 18.3333 14.1667 18.3333H15C15.46 18.3333 15.8333 18.7066 15.8333 19.1666V23.3333C15.8333 23.7933 15.46 24.1666 15 24.1666Z" stroke="#333333" stroke-width="1.5" stroke-linecap="round" stroke-linejoin="round"/>
<path d="M25.4163 18.3333V17.9167C25.4163 14.925 22.9913 12.5 19.9997 12.5V12.5C17.008 12.5 14.583 14.925 14.583 17.9167V18.3333" stroke="#333333" stroke-width="1.5" stroke-linecap="round" stroke-linejoin="round"/>
<path fill-rule="evenodd" clip-rule="evenodd" d="M20.5208 27.7083H19.4792C18.9042 27.7083 18.4375 27.2417 18.4375 26.6667V26.6667C18.4375 26.0917 18.9042 25.625 19.4792 25.625H20.5208C21.0958 25.625 21.5625 26.0917 21.5625 26.6667V26.6667C21.5625 27.2417 21.0958 27.7083 20.5208 27.7083Z" stroke="#333333" stroke-width="1.5" stroke-linecap="round" stroke-linejoin="round"/>
<path d="M21.5625 26.6667H23.3333C24.2542 26.6667 25 25.9209 25 25.0001V24.1667" stroke="#333333" stroke-width="1.5" stroke-linecap="round" stroke-linejoin="round"/>
<rect x="1" y="1" width="38" height="38" rx="19" stroke="url(#paint0_linear_1291_5022)" stroke-width="2"/>
<defs>
<linearGradient id="paint0_linear_1291_5022" x1="-1.49947e-07" y1="40" x2="40.9493" y2="39.2731" gradientUnits="userSpaceOnUse">
<stop stop-color="#365393"/>
<stop offset="0.838542" stop-color="#FF4F4F"/>
</linearGradient>
</defs>
</svg>
