<svg width="48" height="48" viewBox="0 0 48 48" fill="none" xmlns="http://www.w3.org/2000/svg">
<rect width="48" height="48" rx="8" fill="url(#paint0_radial_2072_53369)"/>
<path d="M26.7514 39.2855H20.0194C16.8803 39.2855 13.7339 39.2936 10.5949 39.2855C10.137 39.3078 9.67927 39.2377 9.24906 39.0793C8.81886 38.9209 8.42495 38.6775 8.09082 38.3637C7.75669 38.0498 7.48918 37.6718 7.30424 37.2524C7.1193 36.8329 7.02071 36.3805 7.01436 35.9221C6.99823 35.1837 6.99016 34.4453 7.02242 33.7062C7.09454 31.278 7.95767 28.9397 9.48056 27.047C11.0034 25.1544 13.1028 23.8108 15.4593 23.2206C16.1727 23.0326 16.9054 22.9276 17.6429 22.9075C19.5674 22.8335 21.4945 22.868 23.4151 23.0109C25.0599 23.192 26.6358 23.7708 28.0067 24.6974C26.734 25.3916 25.6529 26.3902 24.8602 27.6041C24.0674 28.8179 23.5876 30.2092 23.4635 31.6536C23.3395 33.0981 23.5751 34.5508 24.1493 35.882C24.7236 37.2133 25.6185 38.3816 26.7543 39.2826" fill="#FFEDCC"/>
<path d="M20.0106 6C21.5345 5.99829 23.0248 6.44804 24.2934 7.29249C25.5619 8.13693 26.5519 9.33823 27.1384 10.7448C27.7248 12.1513 27.8815 13.7001 27.5886 15.1956C27.2957 16.6911 26.5664 18.0663 25.4927 19.1477C24.4189 20.2291 23.0489 20.9682 21.5555 21.2717C20.0622 21.5752 18.5123 21.4296 17.1017 20.8531C15.691 20.2767 14.4827 19.2953 13.6292 18.0327C12.7758 16.7702 12.3154 15.2832 12.3063 13.7593C12.2999 11.709 13.1078 9.73996 14.5524 8.28499C15.9971 6.83003 17.9603 6.00816 20.0106 6Z" fill="#FFEDCC"/>
<path d="M32.954 36.4118C32.8687 37.1537 32.5282 37.8428 31.9907 38.3613C31.4532 38.8798 30.7522 39.1953 30.0078 39.2539C29.7592 39.2781 29.5099 39.2861 29.2693 39.2861H26.7506C25.6148 38.3851 24.7199 37.2168 24.1456 35.8856C23.5714 34.5544 23.3358 33.1017 23.4598 31.6572C23.5838 30.2127 24.0637 28.8214 24.8564 27.6076C25.6492 26.3938 26.7302 25.3951 28.003 24.7009C29.3011 25.5464 30.4051 26.6574 31.2423 27.9608C32.0796 29.2642 32.6309 30.7302 32.8601 32.2623C33.0325 33.6389 33.0647 35.0294 32.9562 36.4125" fill="white"/>
<path d="M41.0002 32.4143C41.0002 34.0665 40.5342 35.6851 39.6556 37.0842C38.7771 38.4834 37.5216 39.6063 36.0335 40.324C34.5454 41.0417 32.8851 41.3251 31.2432 41.1415C29.6013 40.958 28.0445 40.315 26.7516 39.2864H29.2725C29.513 39.2864 29.7623 39.2783 30.0109 39.2541C30.7553 39.1953 31.4561 38.8797 31.9936 38.3613C32.531 37.8429 32.8716 37.1538 32.9571 36.412C33.0657 35.029 33.0335 33.6384 32.8611 32.2618C32.632 30.7296 32.0807 29.2634 31.2435 27.9599C30.4062 26.6564 29.3021 25.5453 28.004 24.6998C29.295 23.9897 30.7453 23.6195 32.2187 23.6241C33.3725 23.6245 34.515 23.8523 35.5807 24.2943C36.6465 24.7364 37.6148 25.384 38.4302 26.2003C39.2457 27.0166 39.8924 27.9855 40.3333 29.0517C40.7743 30.1179 41.0009 31.2605 41.0002 32.4143Z" fill="white"/>
<path fill-rule="evenodd" clip-rule="evenodd" d="M31.243 34.0157L36.3076 28.8425L37.6179 30.1243L31.1572 36.7236L27.2922 32.2404L28.681 31.0438L31.243 34.0157Z" fill="url(#paint1_linear_2072_53369)"/>
<defs>
<radialGradient id="paint0_radial_2072_53369" cx="0" cy="0" r="1" gradientTransform="matrix(-41 -49.5 2547.53 187.45 50.4999 55.5)" gradientUnits="userSpaceOnUse">
<stop stop-color="#FF8306"/>
<stop offset="0.838542" stop-color="#FFBC50"/>
</radialGradient>
<linearGradient id="paint1_linear_2072_53369" x1="27.2922" y1="36.7236" x2="37.8606" y2="36.4778" gradientUnits="userSpaceOnUse">
<stop stop-color="#E8790A"/>
<stop offset="0.838542" stop-color="#FFA74F"/>
</linearGradient>
</defs>
</svg>
