<svg width="120" height="120" viewBox="0 0 120 120" fill="none" xmlns="http://www.w3.org/2000/svg">
    <path
      d="M17.786 91.028C21.05 98.993 26.372 100.651 30.1138 98.993C37.3503 95.7864 56.1482 92.2044 75.454 100.625C101.024 111.778 106.464 94.9511 98.3037 77.9304C90.1433 60.9101 87.3773 43.6974 96.7849 34.2144C106.192 24.7314 93.8817 9.89648 72.019 25.3386C57.8907 35.3178 47.5219 33.0958 41.9539 30.2747C36.7063 27.6159 30.8704 24.8363 25.4026 27.0066C18.7681 29.6402 16.1539 35.3499 26.248 48.1057C40.5522 66.1811 10.4693 73.1745 17.786 91.028Z"
      fill="#F0F5FF" />
    <path
      d="M31.0762 52.2275H81.8738V91.2944C81.8738 91.3737 81.8425 91.45 81.7859 91.5061C81.7298 91.5627 81.6535 91.5944 81.5738 91.5944H31.3762C31.2966 91.5944 31.2203 91.5627 31.164 91.5061C31.1078 91.45 31.0762 91.3737 31.0762 91.2944V52.2275Z"
      fill="#ADC6FF" />
    <path d="M69.1306 36.918H45.5103L31.0762 52.2271H81.8738L69.1306 36.918Z" fill="#597EF7" />
    <path d="M35.8872 30.7949L45.51 36.9186L31.0758 52.2277L20.1406 43.9173L35.8872 30.7949Z"
      fill="#85A5FF" />
    <path d="M78.753 30.7949L69.1299 36.9186L81.8735 52.2277L94.4996 43.9173L78.753 30.7949Z"
      fill="#85A5FF" />
    <path
      d="M51.7154 31.1076C51.9872 30.9788 52.1984 30.7501 52.3052 30.4692C52.4119 30.1883 52.4063 29.877 52.2889 29.6003L47.9599 19.3927C47.8986 19.2481 47.8086 19.1174 47.6954 19.0084C47.5823 18.8995 47.4486 18.8146 47.3016 18.7587C47.155 18.7029 46.9982 18.6773 46.8413 18.6835C46.6844 18.6898 46.5302 18.7276 46.3883 18.7949L45.5543 19.1904C45.4124 19.2577 45.2856 19.353 45.1814 19.4705C45.0773 19.5881 44.998 19.7255 44.9483 19.8745C44.8986 20.0234 44.8797 20.1809 44.8926 20.3375C44.9054 20.494 44.9496 20.6463 45.0224 20.7853L50.1854 30.5975C50.3256 30.8635 50.563 31.065 50.848 31.1601C51.133 31.2552 51.4437 31.2364 51.7154 31.1076Z"
      fill="#F57C00" />
    <path
      d="M57.1434 30.1177C57.3397 30.1037 57.5231 30.0143 57.6556 29.8681C57.7876 29.722 57.8583 29.5305 57.8527 29.3335L57.6388 22.0665C57.6358 21.9636 57.6118 21.8624 57.5686 21.7689C57.5257 21.6754 57.464 21.5916 57.3877 21.5225C57.311 21.4534 57.2214 21.4005 57.1241 21.3669C57.0268 21.3333 56.9235 21.3198 56.8211 21.3271L56.2173 21.3702C56.1144 21.3774 56.0145 21.4054 55.9228 21.4524C55.8311 21.4994 55.7501 21.5645 55.6841 21.6436C55.6185 21.7227 55.5693 21.8144 55.5397 21.913C55.5101 22.0116 55.5011 22.1152 55.5127 22.2175L56.33 29.4415C56.3523 29.6374 56.4491 29.8171 56.6008 29.9431C56.7521 30.0691 56.9467 30.1317 57.1434 30.1177Z"
      fill="#F57C00" />
    <path
      d="M61.3333 32.804C61.8742 33.1166 62.6327 32.8298 63.0536 32.1537L70.5275 20.1506C70.974 19.4335 70.8682 18.5595 70.2952 18.228L69.4959 17.766C68.9225 17.4345 68.112 17.7788 67.7135 18.5234L61.0389 30.9885C60.663 31.6906 60.7929 32.4914 61.3333 32.804Z"
      fill="#F57C00" />
  </svg>
    