<svg width="32" height="32" viewBox="0 0 32 32" fill="none" xmlns="http://www.w3.org/2000/svg">
<g clip-path="url(#clip0_331_6127)">
<path d="M16 32C7.16 32 0 24.846 0 16.0133V15.9867C0 7.15404 7.16 0 16 0C24.84 0 32 7.15404 32 15.9867V16.0133C32 24.846 24.84 32 16 32Z" fill="url(#paint0_linear_331_6127)"/>
<path d="M20.7773 12H19.5307C19.4103 12 19.3095 11.9077 19.3019 11.7884C19.192 10.0818 17.7592 8.72705 16.0143 8.72705C14.2695 8.72705 12.8364 10.0818 12.7265 11.7884C12.7189 11.9077 12.6181 12 12.4977 12H11.2514C10.6175 12 10.1036 12.5104 10.1036 13.1402C10.1036 13.1402 10.1039 19.9931 10.1045 22.0653C10.1045 22.3649 10.3904 22.5833 10.6815 22.5058C13.3917 21.782 17.9469 20.0629 21.7643 16.8444C21.8663 16.7582 21.9247 16.6313 21.9247 16.4976V13.1402C21.9247 12.5104 21.4109 12 20.7776 12M13.0618 13.5304C12.8046 13.5304 12.5968 13.3237 12.5968 13.0686C12.5968 12.8135 12.8046 12.6065 13.0618 12.6065C13.319 12.6065 13.5268 12.8135 13.5268 13.0686C13.5268 13.3237 13.3187 13.5304 13.0618 13.5304ZM13.6492 12C13.5145 12 13.4075 11.8856 13.4201 11.7525C13.5461 10.4408 14.6614 9.411 16.0146 9.411C17.3679 9.411 18.4832 10.4406 18.6089 11.7525C18.6214 11.8856 18.5142 12 18.3803 12H13.6495H13.6492ZM18.9336 13.5304C18.677 13.5304 18.4689 13.3237 18.4689 13.0686C18.4689 12.8135 18.6773 12.6065 18.9336 12.6065C19.1899 12.6065 19.3983 12.8135 19.3983 13.0686C19.3983 13.3237 19.1902 13.5304 18.9336 13.5304ZM25.9447 11.4197C25.6366 10.8895 25.0831 10.5323 24.3123 10.357C24.2366 10.3395 24.1732 10.2851 24.1484 10.212C23.9832 9.71876 23.489 9.37489 22.9243 9.43749C22.376 9.49834 21.9429 9.95256 21.9087 10.4999C21.8666 11.1647 22.3971 11.717 23.0573 11.717C23.4753 11.717 23.8412 11.4957 24.0426 11.1644C24.0961 11.0759 24.2004 11.0331 24.3004 11.0607C24.801 11.1993 25.1588 11.4349 25.3487 11.7621C25.8079 12.5524 25.3169 13.9025 24.0005 15.4666C22.5908 17.1414 20.4166 18.8663 17.8776 20.3227C15.3389 21.7788 12.7485 22.7877 10.5836 23.1633C8.56219 23.5132 7.13968 23.2614 6.68052 22.4706C6.3406 21.8853 6.51655 21.0049 7.15751 19.957C7.2072 19.8763 7.30219 19.835 7.39601 19.8516C7.4945 19.8685 7.59768 19.8728 7.70319 19.8632C8.25588 19.8123 8.69985 19.3636 8.74135 18.8136C8.79484 18.1107 8.20824 17.5295 7.50035 17.5848C6.9535 17.6279 6.50603 18.0606 6.44962 18.6031C6.42244 18.8628 6.48323 19.1071 6.60569 19.3103C6.64924 19.3831 6.65012 19.4742 6.6054 19.5464C5.792 20.8555 5.60348 21.9861 6.08369 22.8127C6.53876 23.5956 7.53981 23.9998 8.96874 23.9998C9.49104 23.9998 10.0706 23.9459 10.7014 23.8364C10.8525 23.8102 11.0056 23.7811 11.1605 23.7491C11.1792 23.745 11.1976 23.7438 11.2163 23.7441C11.228 23.7444 11.2394 23.745 11.2511 23.745H20.777C21.4109 23.745 21.9242 23.234 21.9242 22.6048V18.5119C21.9242 18.4438 21.9554 18.3786 22.0086 18.3355C22.991 17.5377 23.8447 16.7169 24.528 15.9051C26.0622 14.0816 26.5655 12.4889 25.9441 11.4197H25.9447ZM23.0529 11.0374C22.796 11.0374 22.5879 10.8304 22.5879 10.5757C22.5879 10.3209 22.796 10.1136 23.0529 10.1136C23.3098 10.1136 23.5176 10.3203 23.5176 10.5757C23.5176 10.831 23.3092 11.0374 23.0529 11.0374ZM7.61229 18.2505C7.86891 18.2505 8.07701 18.4575 8.07701 18.7122C8.07701 18.967 7.86891 19.1743 7.61229 19.1743C7.35567 19.1743 7.14728 18.9673 7.14728 18.7122C7.14728 18.4572 7.35538 18.2505 7.61229 18.2505Z" fill="white"/>
</g>
<defs>
<linearGradient id="paint0_linear_331_6127" x1="16" y1="32.2097" x2="16" y2="0.162878" gradientUnits="userSpaceOnUse">
<stop stop-color="#FF7400"/>
<stop offset="1" stop-color="#FFAB52"/>
</linearGradient>
<clipPath id="clip0_331_6127">
<rect width="32" height="32" fill="white"/>
</clipPath>
</defs>
</svg>
