<svg width="36" height="36" viewBox="0 0 36 36" fill="none" xmlns="http://www.w3.org/2000/svg">
<g id="Group">
<path id="Path" d="M28.9287 21.1071H20.9287C20.1003 21.1071 19.4287 20.4356 19.4287 19.6071V15" stroke="#00194F" stroke-width="2.5" stroke-linecap="round" stroke-linejoin="round"/>
<circle id="Oval" cx="27.75" cy="29.25" r="2.25" stroke="#00194F" stroke-width="2.5" stroke-linecap="round" stroke-linejoin="round"/>
<path id="Path_2" d="M15 15H20.125C22.2496 15 24.2502 16.0003 25.525 17.7L27.1465 19.862C27.4259 20.2346 27.7883 20.537 28.2049 20.7453L31.3416 22.3137C32.358 22.8219 33 23.8606 33 24.997V27.375C33 28.4105 32.1605 29.25 31.125 29.25H30" stroke="#00194F" stroke-width="2.5" stroke-linecap="round" stroke-linejoin="round"/>
<path id="Path_3" d="M25.5 29.25H21" stroke="#00194F" stroke-width="2.5" stroke-linecap="round" stroke-linejoin="round"/>
<path id="Path_4" fill-rule="evenodd" clip-rule="evenodd" d="M14.9974 31.5H11.2473C10.8495 31.5 10.4681 31.3418 10.1871 31.0604C9.90601 30.7789 9.74842 30.3972 9.74903 29.9995V26.2493C9.74902 25.8516 9.90718 25.4702 10.1886 25.1891C10.4701 24.9081 10.8518 24.7505 11.2495 24.7511H14.9997C15.3974 24.7511 15.7788 24.9092 16.0599 25.1907C16.3409 25.4722 16.4985 25.8538 16.4979 26.2516V30.0017C16.4979 30.3995 16.3398 30.7809 16.0583 31.062C15.7768 31.343 15.3952 31.5006 14.9974 31.5Z" stroke="#00194F" stroke-width="2.5" stroke-linecap="round" stroke-linejoin="round"/>
<path id="Path_5" fill-rule="evenodd" clip-rule="evenodd" d="M8.24838 31.5H4.5005C4.10239 31.5005 3.72046 31.3425 3.43896 31.061C3.15746 30.7795 2.99953 30.3976 3 29.9995V26.2493C3 25.8516 3.15815 25.4702 3.43962 25.1891C3.72108 24.9081 4.10275 24.7505 4.5005 24.7511H8.25063C8.64838 24.7511 9.02981 24.9093 9.31085 25.1907C9.59189 25.4722 9.74948 25.8538 9.74888 26.2516V30.0017C9.74888 30.3995 9.59072 30.7809 9.30926 31.062C9.0278 31.343 8.64613 31.5006 8.24838 31.5V31.5Z" stroke="#00194F" stroke-width="2.5" stroke-linecap="round" stroke-linejoin="round"/>
<path id="Path_6" fill-rule="evenodd" clip-rule="evenodd" d="M11.6227 24.7511H7.87257C7.47458 24.7512 7.09287 24.5932 6.81145 24.3117C6.53003 24.0303 6.37197 23.6486 6.37207 23.2506V19.5005C6.37197 19.1025 6.53003 18.7208 6.81145 18.4394C7.09286 18.158 7.47458 17.9999 7.87257 18H11.6227C12.0207 17.9999 12.4024 18.158 12.6838 18.4394C12.9652 18.7208 13.1233 19.1025 13.1232 19.5005V23.2506C13.1237 23.6487 12.9657 24.0307 12.6842 24.3122C12.4027 24.5937 12.0208 24.7516 11.6227 24.7511V24.7511Z" stroke="#00194F" stroke-width="2.5" stroke-linecap="round" stroke-linejoin="round"/>
<path id="Path_7" d="M31.5 15V12.0585C31.5 10.6967 30.7617 9.44185 29.5712 8.78046L20.1863 3.56635C18.8271 2.81122 17.1744 2.81122 15.8153 3.56635L6.42878 8.78134C5.23832 9.44274 4.5 10.6975 4.5 12.0594V13.5" stroke="#00194F" stroke-width="2.5" stroke-linecap="round" stroke-linejoin="round"/>
</g>
</svg>
