<svg width="36" height="36" viewBox="0 0 36 36" fill="none" xmlns="http://www.w3.org/2000/svg">
<g id="Group">
<path id="Path" d="M16.5 30C9.0435 30 3 23.9565 3 16.5C3 9.0435 9.0435 3 16.5 3C23.9565 3 30 9.0435 30 16.5" stroke="#00194F" stroke-width="2.5" stroke-linecap="round" stroke-linejoin="round"/>
<path id="Path_2" d="M33 21H31.113L29.604 28.5465H22.0575L21 23.2635H30.66" stroke="#00194F" stroke-width="2.5" stroke-linecap="round" stroke-linejoin="round"/>
<g id="Group_2">
<path id="Path_3" d="M22.7576 32.268C22.7876 32.238 22.8356 32.238 22.8641 32.268C22.8926 32.298 22.8941 32.346 22.8641 32.3745C22.8341 32.403 22.7861 32.4045 22.7576 32.3745C22.7276 32.3445 22.7276 32.2965 22.7576 32.268" stroke="#00194F" stroke-width="2.5" stroke-linecap="round" stroke-linejoin="round"/>
<path id="Path_4" d="M28.7947 32.268C28.8247 32.238 28.8727 32.238 28.9012 32.268C28.9297 32.298 28.9312 32.346 28.9012 32.3745C28.8712 32.403 28.8232 32.4045 28.7947 32.3745C28.7647 32.3445 28.7647 32.2965 28.7947 32.268" stroke="#00194F" stroke-width="2.5" stroke-linecap="round" stroke-linejoin="round"/>
<path id="Path_5" d="M22.4992 16.5C22.4992 12.354 21.4147 8.20799 19.2487 4.58999C17.9782 2.47049 15.0203 2.47049 13.7513 4.58999C9.41625 11.8275 9.41625 21.174 13.7513 28.4115C14.3858 29.4705 15.4418 30 16.4993 30" stroke="#00194F" stroke-width="2.5" stroke-linecap="round" stroke-linejoin="round"/>
<path id="Path_6" d="M3.76465 12H28.4996" stroke="#00194F" stroke-width="2.5" stroke-linecap="round" stroke-linejoin="round"/>
<path id="Path_7" d="M3.76465 21H16.4996" stroke="#00194F" stroke-width="2.5" stroke-linecap="round" stroke-linejoin="round"/>
</g>
</g>
</svg>
