<svg width="24" height="24" viewBox="0 0 24 24" fill="none" xmlns="http://www.w3.org/2000/svg">
<path fill-rule="evenodd" clip-rule="evenodd" d="M5.49759 12.2501C5.5081 10.8714 6.63246 9.76116 8.01124 9.7681C9.39003 9.7751 10.5031 10.8966 10.4996 12.2754C10.4962 13.6542 9.37747 14.7702 7.99867 14.7702C7.33254 14.7686 6.69443 14.502 6.22519 14.0292C5.75595 13.5564 5.49417 12.9163 5.49759 12.2501V12.2501Z" stroke="white" stroke-width="2" stroke-linecap="round" stroke-linejoin="round"/>
<path d="M14.0015 9.74913C13.9003 9.74858 13.8087 9.80918 13.7695 9.90259C13.7304 9.996 13.7515 10.1038 13.8229 10.1756C13.8943 10.2474 14.002 10.2691 14.0956 10.2304C14.1892 10.1918 14.2503 10.1005 14.2503 9.99923C14.2508 9.93298 14.2248 9.86927 14.1781 9.8223C14.1314 9.77532 14.0678 9.74898 14.0015 9.74913" stroke="white" stroke-width="2" stroke-linecap="round" stroke-linejoin="round"/>
<path d="M17.1139 9.74913C17.0126 9.74858 16.921 9.80918 16.8818 9.90259C16.8427 9.996 16.8638 10.1038 16.9352 10.1756C17.0066 10.2474 17.1143 10.2691 17.2079 10.2304C17.3015 10.1918 17.3626 10.1005 17.3626 9.99923C17.3631 9.93298 17.3371 9.86927 17.2904 9.8223C17.2437 9.77532 17.1801 9.74898 17.1139 9.74913" stroke="white" stroke-width="2" stroke-linecap="round" stroke-linejoin="round"/>
<path fill-rule="evenodd" clip-rule="evenodd" d="M2.99658 20.3787V19.7535C3.00062 18.3739 4.11801 17.2565 5.49762 17.2524H10.4997C11.8793 17.2565 12.9967 18.3739 13.0007 19.7535V20.3787C12.9997 20.7236 12.7204 21.003 12.3755 21.004H3.62184C3.27694 21.003 2.99759 20.7236 2.99658 20.3787V20.3787Z" stroke="white" stroke-width="2" stroke-linecap="round" stroke-linejoin="round"/>
<path d="M8.27539 5.99751C10.0324 3.48256 13.2233 2.40613 16.1447 3.34277C19.0662 4.27941 21.0363 7.01048 21.0035 10.0782C20.9707 13.146 18.9426 15.8343 16.0018 16.7083" stroke="white" stroke-width="2" stroke-linecap="round" stroke-linejoin="round"/>
</svg>
