<svg width="24" height="24" viewBox="0 0 24 24" fill="none" xmlns="http://www.w3.org/2000/svg">
<path d="M8.99867 20.0037H5.89737C5.39318 20.0039 4.90958 19.8037 4.55307 19.4472C4.19655 19.0907 3.99636 18.6071 3.99658 18.1029V4.89737C3.99636 4.39318 4.19655 3.90958 4.55307 3.55307C4.90958 3.19655 5.39318 2.99636 5.89737 2.99658H15.0012C15.5054 2.99636 15.989 3.19655 16.3455 3.55307C16.702 3.90958 16.9022 4.39318 16.902 4.89737V8.99908" stroke="white" stroke-width="2" stroke-linecap="round" stroke-linejoin="round"/>
<path d="M8.96989 13.1794C8.04194 12.2515 8.04194 10.747 8.96989 9.81901C9.89784 8.89106 11.4023 8.89106 12.3303 9.81901" stroke="white" stroke-width="2" stroke-linecap="round" stroke-linejoin="round"/>
<path d="M7.99846 17.0022H6.99805" stroke="white" stroke-width="2" stroke-linecap="round" stroke-linejoin="round"/>
<path d="M14.0009 5.99777H13.0005" stroke="white" stroke-width="2" stroke-linecap="round" stroke-linejoin="round"/>
<path d="M12 13.6006V20.4034C12.0011 21.2872 13.7916 22.0041 16.0017 22.0041C18.2117 22.0041 20.0022 21.2872 20.0033 20.4034V13.6006" stroke="white" stroke-width="2" stroke-linecap="round" stroke-linejoin="round"/>
<path d="M20.0022 13.6007C20.0022 14.4845 18.2106 15.2013 16.0005 15.2013C13.7905 15.2013 12 14.4845 12 13.6007C12 12.7157 13.7927 12 16.0017 12C18.2106 12 20.0022 12.7169 20.0033 13.6007" stroke="white" stroke-width="2" stroke-linecap="round" stroke-linejoin="round"/>
<path d="M12.0005 17.0024C12.0005 17.8862 13.791 18.6031 16.001 18.6031C18.2111 18.6031 20.0027 17.8862 20.0027 17.0024" stroke="white" stroke-width="2" stroke-linecap="round" stroke-linejoin="round"/>
</svg>
