<svg width="24" height="18" viewBox="0 0 24 18" fill="none" xmlns="http://www.w3.org/2000/svg">
<g id="US">
<rect id="Mask" y="0.428467" width="24" height="17.1429" rx="4" fill="white"/>
<mask id="mask0_1348_7329" style="mask-type:luminance" maskUnits="userSpaceOnUse" x="0" y="0" width="24" height="18">
<rect id="Mask_2" y="0.428467" width="24" height="17.1429" rx="4" fill="white"/>
</mask>
<g mask="url(#mask0_1348_7329)">
<path id="Rectangle 511" fill-rule="evenodd" clip-rule="evenodd" d="M24 0.428467H0V1.57132H24V0.428467ZM24 2.71418H0V3.85704H24V2.71418ZM0 4.9999H24V6.14275H0V4.9999ZM24 7.28561H0V8.42847H24V7.28561ZM0 9.57132H24V10.7142H0V9.57132ZM24 11.857H0V12.9999H24V11.857ZM0 14.1428H24V15.2856H0V14.1428ZM24 16.4285H0V17.5713H24V16.4285Z" fill="#D02F44"/>
<rect id="Rectangle 511_2" y="0.428467" width="10.2857" height="8" fill="#46467F"/>
<g id="Oval 43" filter="url(#filter0_d_1348_7329)">
<path fill-rule="evenodd" clip-rule="evenodd" d="M1.90607 1.87792L1.71363 1.28564L1.52119 1.87792H0.898438L1.40225 2.24396L1.20981 2.83623L1.71363 2.47019L2.21744 2.83623L2.025 2.24396L2.52882 1.87792H1.90607ZM1.90607 4.44934L1.71363 3.85707L1.52119 4.44934H0.898438L1.40225 4.81539L1.20981 5.40766L1.71363 5.04162L2.21744 5.40766L2.025 4.81539L2.52882 4.44934H1.90607ZM1.71363 6.4285L1.90607 7.02077H2.52882L2.025 7.38682L2.21744 7.97909L1.71363 7.61304L1.20981 7.97909L1.40225 7.38682L0.898438 7.02077H1.52119L1.71363 6.4285ZM4.04893 1.87792L3.85649 1.28564L3.66405 1.87792H3.04129L3.54511 2.24396L3.35267 2.83623L3.85649 2.47019L4.3603 2.83623L4.16786 2.24396L4.67168 1.87792H4.04893ZM3.85649 3.85707L4.04893 4.44934H4.67168L4.16786 4.81539L4.3603 5.40766L3.85649 5.04162L3.35267 5.40766L3.54511 4.81539L3.04129 4.44934H3.66405L3.85649 3.85707ZM4.04893 7.02077L3.85649 6.4285L3.66405 7.02077H3.04129L3.54511 7.38682L3.35267 7.97909L3.85649 7.61304L4.3603 7.97909L4.16786 7.38682L4.67168 7.02077H4.04893ZM5.99934 1.28564L6.19178 1.87792H6.81453L6.31072 2.24396L6.50316 2.83623L5.99934 2.47019L5.49553 2.83623L5.68797 2.24396L5.18415 1.87792H5.8069L5.99934 1.28564ZM6.19178 4.44934L5.99934 3.85707L5.8069 4.44934H5.18415L5.68797 4.81539L5.49553 5.40766L5.99934 5.04162L6.50316 5.40766L6.31072 4.81539L6.81453 4.44934H6.19178ZM5.99934 6.4285L6.19178 7.02077H6.81453L6.31072 7.38682L6.50316 7.97909L5.99934 7.61304L5.49553 7.97909L5.68797 7.38682L5.18415 7.02077H5.8069L5.99934 6.4285ZM5.33464 3.16363L5.1422 2.57136L4.94976 3.16363H4.32701L4.83082 3.52967L4.63838 4.12194L5.1422 3.7559L5.64602 4.12194L5.45358 3.52967L5.95739 3.16363H5.33464ZM5.1422 5.14279L5.33464 5.73506H5.95739L5.45358 6.1011L5.64602 6.69337L5.1422 6.32733L4.63838 6.69337L4.83082 6.1011L4.32701 5.73506H4.94976L5.1422 5.14279ZM3.19178 3.16363L2.99934 2.57136L2.8069 3.16363H2.18415L2.68797 3.52967L2.49553 4.12194L2.99934 3.7559L3.50316 4.12194L3.31072 3.52967L3.81453 3.16363H3.19178ZM2.99934 5.14279L3.19178 5.73506H3.81453L3.31072 6.1011L3.50316 6.69337L2.99934 6.32733L2.49553 6.69337L2.68797 6.1011L2.18415 5.73506H2.8069L2.99934 5.14279ZM7.4775 3.16363L7.28506 2.57136L7.09262 3.16363H6.46987L6.97368 3.52967L6.78124 4.12194L7.28506 3.7559L7.78887 4.12194L7.59643 3.52967L8.10025 3.16363H7.4775ZM7.28506 5.14279L7.4775 5.73506H8.10025L7.59643 6.1011L7.78887 6.69337L7.28506 6.32733L6.78124 6.69337L6.97368 6.1011L6.46987 5.73506H7.09262L7.28506 5.14279ZM8.33464 1.87792L8.1422 1.28564L7.94976 1.87792H7.32701L7.83082 2.24396L7.63838 2.83623L8.1422 2.47019L8.64602 2.83623L8.45358 2.24396L8.95739 1.87792H8.33464ZM8.1422 3.85707L8.33464 4.44934H8.95739L8.45358 4.81539L8.64602 5.40766L8.1422 5.04162L7.63838 5.40766L7.83082 4.81539L7.32701 4.44934H7.94976L8.1422 3.85707ZM8.33464 7.02077L8.1422 6.4285L7.94976 7.02077H7.32701L7.83082 7.38682L7.63838 7.97909L8.1422 7.61304L8.64602 7.97909L8.45358 7.38682L8.95739 7.02077H8.33464Z" fill="url(#paint0_linear_1348_7329)"/>
</g>
</g>
</g>
<defs>
<filter id="filter0_d_1348_7329" x="0.898438" y="1.28564" width="8.05859" height="8.69336" filterUnits="userSpaceOnUse" color-interpolation-filters="sRGB">
<feFlood flood-opacity="0" result="BackgroundImageFix"/>
<feColorMatrix in="SourceAlpha" type="matrix" values="0 0 0 0 0 0 0 0 0 0 0 0 0 0 0 0 0 0 127 0" result="hardAlpha"/>
<feOffset dy="2"/>
<feColorMatrix type="matrix" values="0 0 0 0 0 0 0 0 0 0 0 0 0 0 0 0 0 0 0.06 0"/>
<feBlend mode="normal" in2="BackgroundImageFix" result="effect1_dropShadow_1348_7329"/>
<feBlend mode="normal" in="SourceGraphic" in2="effect1_dropShadow_1348_7329" result="shape"/>
</filter>
<linearGradient id="paint0_linear_1348_7329" x1="1.13671" y1="1.28564" x2="1.13671" y2="7.28563" gradientUnits="userSpaceOnUse">
<stop stop-color="white"/>
<stop offset="1" stop-color="#F0F0F0"/>
</linearGradient>
</defs>
</svg>
