<svg xmlns="http://www.w3.org/2000/svg" width="40" height="40" viewBox="0 0 40 40" fill="none">
    <path d="M20 40C8.95 40 0 31.0575 0 20.0167V19.9833C0 8.94255 8.95 0 20 0C31.05 0 40 8.94255 40 19.9833V20.0167C40 31.0575 31.05 40 20 40Z" fill="url(#paint0_linear_9974_14247)"/>
    <path d="M11.8867 10.8272C11.6567 10.8348 11.4727 11.0273 11.4727 11.258V31.5661C11.4727 31.8507 11.741 32.0583 12.0172 31.9853L27.2846 27.8813C27.4725 27.8313 27.6067 27.6582 27.6067 27.4621V24.7813L26.6902 23.862L25.6934 25.9659L23.738 20.2312L27.6067 21.5583V15.3619C27.6067 15.1658 27.4725 14.9966 27.2846 14.9466L12.0172 10.8427C11.9749 10.8312 11.9289 10.8233 11.8869 10.8272H11.8867ZM24.1828 17.5198C24.3477 17.5159 24.4856 17.6428 24.4934 17.8083L24.5508 19.1045C24.5584 19.27 24.4242 19.4082 24.2595 19.4122C24.0945 19.4161 23.9528 19.2852 23.9452 19.1199L23.8915 17.8277C23.8839 17.6622 24.0181 17.524 24.1828 17.52V17.5198ZM26.165 18.4582C26.2418 18.4543 26.3222 18.4852 26.3835 18.5389C26.5023 18.6544 26.5138 18.8426 26.3989 18.9657L25.5172 19.9002C25.402 20.0233 25.2144 20.0272 25.0917 19.9118C24.969 19.8002 24.9614 19.6078 25.0724 19.4886L25.958 18.5501C26.0118 18.4925 26.0883 18.458 26.165 18.458V18.4582ZM22.1968 18.5852C22.2736 18.5813 22.354 18.6083 22.4114 18.6661L23.3738 19.5585C23.4965 19.6701 23.5041 19.8623 23.3892 19.9817C23.278 20.1047 23.0862 20.1087 22.9638 19.9932L22.0052 19.1008C21.8826 18.9893 21.875 18.7971 21.9862 18.6777C22.0436 18.6161 22.1204 18.5852 22.1971 18.5852H22.1968ZM22.5495 20.6046C22.7145 20.6007 22.8562 20.7316 22.8638 20.8971C22.8677 21.0626 22.7372 21.2008 22.5725 21.2048L21.2689 21.2357C21.1039 21.2396 20.9622 21.1126 20.9546 20.9471C20.9507 20.7816 21.0812 20.6394 21.2459 20.6355L22.5495 20.6046ZM23.2587 21.547C23.3355 21.5431 23.4159 21.57 23.4772 21.6279C23.596 21.7395 23.6075 21.9316 23.4926 22.051L22.6108 22.9895C22.4957 23.1087 22.308 23.1165 22.1854 23.001C22.0627 22.8895 22.0551 22.6973 22.1663 22.5779L23.052 21.6394C23.1058 21.5779 23.1822 21.547 23.259 21.547H23.2587ZM27.6064 23.0741L27.3574 23.1932L27.6064 23.4433V23.0741Z" fill="#FAE5D0"/>
    <path d="M22.2005 7.93093C21.5411 7.92334 21.012 8.43865 20.64 9.14642C20.4675 9.47714 20.3258 9.86179 20.2106 10.2849L14.4134 8.72721C14.3711 8.71569 14.3252 8.70809 14.2832 8.71176C14.0532 8.71935 13.8689 8.91181 13.8689 9.1425V29.4508C13.8689 29.7355 14.1375 29.9431 14.4134 29.8701L29.6808 25.7661C29.8688 25.7161 30.0029 25.543 30.0029 25.3469V13.2464C30.0029 13.0503 29.8688 12.8812 29.6808 12.8311L24.3707 11.4041C24.3018 10.7078 24.1522 10.0734 23.9335 9.53474C23.5962 8.69264 23.0593 8.02729 22.3346 7.93879C22.2926 7.93486 22.2464 7.93119 22.2005 7.93119V7.93093ZM22.2542 8.65782C22.2733 8.65782 22.2926 8.65782 22.3117 8.66175C22.6184 8.70024 22.9904 9.05399 23.2741 9.76177C23.4352 10.1619 23.5618 10.6581 23.6346 11.204L20.9201 10.4732C21.0198 10.1155 21.1425 9.7924 21.2806 9.52715C21.5912 8.93092 21.9554 8.66175 22.2545 8.65782H22.2542ZM20.5521 11.2271C20.805 11.2271 21.012 11.4193 21.012 11.6578C21.012 11.8963 20.805 12.0846 20.5521 12.0846C20.2991 12.0846 20.0882 11.8922 20.0882 11.6578C20.0882 11.4234 20.2952 11.2271 20.5521 11.2271ZM24.0833 11.9579C24.3365 11.9579 24.5435 12.1501 24.5435 12.3847C24.5435 12.6193 24.3365 12.8115 24.0833 12.8115C23.8301 12.8115 23.6234 12.6193 23.6234 12.3847C23.6234 12.1501 23.8264 11.9579 24.0833 11.9579ZM23.7382 20.2312L29.4548 22.1927L27.3577 23.1927L29.2747 25.1157L28.6075 25.785L26.6905 23.8617L25.6936 25.9657L23.7382 20.2309V20.2312Z" fill="white"/>
    <defs>
      <linearGradient id="paint0_linear_9974_14247" x1="20" y1="40.2621" x2="20" y2="0.203597" gradientUnits="userSpaceOnUse">
        <stop stop-color="#FF7400"/>
        <stop offset="1" stop-color="#FFAB52"/>
      </linearGradient>
    </defs>
  </svg>