<svg xmlns="http://www.w3.org/2000/svg" width="40" height="40" viewBox="0 0 40 40" fill="none">
    <path d="M20 40C8.95 40 0 31.0575 0 20.0167V19.9833C0 8.94255 8.95 0 20 0C31.05 0 40 8.94255 40 19.9833V20.0167C40 31.0575 31.05 40 20 40Z" fill="url(#paint0_linear_9974_14268)"/>
    <path d="M19.2261 18.8952C19.6835 18.6311 20.4251 18.6311 20.8826 18.8952L29.1079 23.6441C29.5653 23.9082 29.5653 24.3364 29.1079 24.6005L20.8826 29.3494C20.4251 29.6135 19.6835 29.6135 19.2261 29.3494L11.0007 24.6005C10.5433 24.3364 10.5433 23.9082 11.0007 23.6441L19.2261 18.8952Z" fill="white" fill-opacity="0.6"/>
    <path d="M19.2261 14.7729C19.6835 14.5088 20.4251 14.5088 20.8826 14.7729L29.1079 19.5218C29.5653 19.7859 29.5653 20.2141 29.1079 20.4782L20.8826 25.2271C20.4251 25.4912 19.6835 25.4912 19.2261 25.2271L11.0007 20.4782C10.5433 20.2141 10.5433 19.7859 11.0007 19.5218L19.2261 14.7729Z" fill="white" fill-opacity="0.8"/>
    <path d="M19.2261 10.6506C19.6835 10.3865 20.4251 10.3865 20.8826 10.6506L29.1079 15.3995C29.5653 15.6636 29.5653 16.0918 29.1079 16.3559L20.8826 21.1048C20.4251 21.3689 19.6835 21.3689 19.2261 21.1048L11.0007 16.3559C10.5433 16.0918 10.5433 15.6636 11.0007 15.3995L19.2261 10.6506Z" fill="white"/>
    <defs>
      <linearGradient id="paint0_linear_9974_14268" x1="20" y1="40.2621" x2="20" y2="0.203597" gradientUnits="userSpaceOnUse">
        <stop stop-color="#FF7400"/>
        <stop offset="1" stop-color="#FFAB52"/>
      </linearGradient>
    </defs>
  </svg>