<svg width="32" height="32" viewBox="0 0 32 32" fill="none" xmlns="http://www.w3.org/2000/svg">
<g id="Group 18738">
<g id="Group 18736">
<g id="Group">
<path id="Vector" d="M16 32C7.16 32 0 24.846 0 16.0133V15.9867C0 7.15404 7.16 0 16 0C24.84 0 32 7.15404 32 15.9867V16.0133C32 24.846 24.84 32 16 32Z" fill="url(#paint0_linear_14688_1649)"/>
</g>
</g>
<g id="Group 18737">
<g id="Group_2">
<path id="Vector_2" d="M19.75 13.6565C17.4237 13.6565 15.5312 15.5489 15.5312 17.8753C15.5312 20.2016 17.4236 22.094 19.75 22.094C22.0763 22.094 24 20.2016 24 17.8753C24 15.5489 22.0764 13.6565 19.75 13.6565ZM20.2311 20.1343C20.227 20.1358 20.2228 20.1351 20.2187 20.1365V20.6878C20.2187 20.9469 20.0091 21.1565 19.75 21.1565C19.4909 21.1565 19.2812 20.9469 19.2812 20.6878V20.1334C18.9725 20.029 18.6767 19.8311 18.4238 19.5296C18.2572 19.3314 18.2828 19.0357 18.4815 18.8695C18.6797 18.7029 18.9763 18.7285 19.1416 18.9272C19.3897 19.2225 19.6703 19.3397 19.9102 19.2536C20.0947 19.1863 20.2187 19.0092 20.2187 18.8128C20.2187 18.5541 20.0086 18.344 19.75 18.344C18.9745 18.344 18.3437 17.7132 18.3437 16.9378C18.3434 16.6613 18.4246 16.3909 18.5773 16.1605C18.73 15.93 18.9473 15.7498 19.202 15.6423C19.2279 15.6314 19.2552 15.632 19.2812 15.6227V15.0628C19.2812 14.8037 19.4909 14.594 19.75 14.594C20.0091 14.594 20.2188 14.8037 20.2188 15.0628V15.6235C20.4615 15.7055 20.6982 15.8359 20.9095 16.0406C21.0954 16.2205 21.1 16.5171 20.9196 16.7034C20.7397 16.8893 20.4426 16.8934 20.2567 16.7135C20.0288 16.4924 19.7765 16.4164 19.5678 16.5057C19.4828 16.5415 19.4102 16.6016 19.3593 16.6785C19.3083 16.7554 19.2811 16.8456 19.2812 16.9378C19.2812 17.1964 19.4913 17.4066 19.75 17.4066C20.5254 17.4066 21.1562 18.0374 21.1562 18.8128C21.1563 19.4019 20.7845 19.9329 20.2311 20.1343ZM8.46876 18.344C8.20966 18.344 8 18.5537 8 18.8128V23.5315C8 23.7906 8.20966 24.0003 8.46876 24.0003H9.875V18.344H8.46876Z" fill="white"/>
<path id="Vector_3" d="M19.1174 10.9258L15.8361 8.11329C15.6612 7.96223 15.4012 7.96223 15.2264 8.11329L11.9451 10.9258C11.8723 10.988 11.8203 11.071 11.7963 11.1637C11.7722 11.2564 11.7772 11.3542 11.8105 11.444C11.8436 11.5339 11.9035 11.6114 11.9821 11.6662C12.0607 11.721 12.1542 11.7503 12.25 11.7503H13.6562V24.0003H16.9375C17.1966 24.0003 17.4063 23.7906 17.4063 23.5315V22.4623C15.7393 21.607 14.5937 19.8742 14.5937 17.8753C14.5937 15.8764 15.7393 14.1435 17.4063 13.2882V11.7503H18.8125C18.9083 11.7503 19.0018 11.721 19.0804 11.6662C19.159 11.6115 19.2189 11.5339 19.252 11.444C19.2853 11.3543 19.2903 11.2564 19.2663 11.1637C19.2422 11.071 19.1902 10.988 19.1174 10.9258Z" fill="white"/>
<path id="Vector_4" d="M11.3125 14.594C11.0534 14.594 10.8438 14.8037 10.8438 15.0628V24.0002H12.7187V14.594H11.3125Z" fill="white"/>
</g>
</g>
</g>
<defs>
<linearGradient id="paint0_linear_14688_1649" x1="16" y1="32.2097" x2="16" y2="0.162878" gradientUnits="userSpaceOnUse">
<stop stop-color="#FF7400"/>
<stop offset="1" stop-color="#FFAB52"/>
</linearGradient>
</defs>
</svg>
