<svg xmlns="http://www.w3.org/2000/svg" width="41" height="40" viewBox="0 0 41 40" fill="none">
    <path
        d="M20.6667 40C9.61675 40 0.666748 31.0575 0.666748 20.0167V19.9833C0.666748 8.94255 9.61675 0 20.6667 0C31.7167 0 40.6667 8.94255 40.6667 19.9833V20.0167C40.6667 31.0575 31.7167 40 20.6667 40Z"
        fill="url(#paint0_linear_10037_30822)" />
    <path fill-rule="evenodd" clip-rule="evenodd"
        d="M20.793 9.01962L12.9399 13.6275C14.0517 14.2489 14.6075 14.5595 14.6075 14.5595C18.0819 12.5595 19.8191 11.5597 19.8191 11.5597V17.9672H21.8056V11.5597C21.8056 11.5597 23.5428 12.5597 27.0172 14.5595C27.0172 14.5595 27.573 14.2489 28.6848 13.6275L20.793 9.01962Z"
        fill="white" />
    <path
        d="M18.5059 21.1105C17.737 20.665 15.8493 19.5714 12.8365 17.8259V24.7467L18.4391 27.9651L18.5059 21.1107V21.1105ZM12.4411 15.7781C17.276 18.5793 19.6864 19.9758 19.6936 19.9798L20.0903 20.2095L20.0858 20.6662C20.0858 20.6746 20.0576 23.5514 20.0015 29.3218L19.9884 30.6663L18.8215 29.996L11.6534 25.8783L11.2549 25.6493V15.0909L12.4411 15.7781Z"
        fill="white" />
    <path
        d="M22.8269 21.1105C23.5959 20.665 25.4836 19.5714 28.4963 17.8259V24.7467L22.8936 27.9651L22.8268 21.1107L22.8269 21.1105ZM28.8919 15.7781C24.0568 18.5793 21.6465 19.9758 21.6394 19.9798L21.2427 20.2095L21.2472 20.6662C21.2472 20.6746 21.2754 23.5514 21.3315 29.3218L21.3446 30.6663L22.5115 29.996L29.6796 25.8783L30.0781 25.6493V15.0909L28.8919 15.7781Z"
        fill="white" />
    <defs>
        <linearGradient id="paint0_linear_10037_30822" x1="20.6667" y1="40.2621" x2="20.6667"
            y2="0.203597" gradientUnits="userSpaceOnUse">
            <stop stop-color="#FF7400" />
            <stop offset="1" stop-color="#FFAB52" />
        </linearGradient>
    </defs>
</svg>