<svg width="40" height="40" viewBox="0 0 40 40" fill="none" xmlns="http://www.w3.org/2000/svg">
<path d="M35.3353 17.3498C35.2754 16.3176 34.9787 15.3138 34.4688 14.4181C33.9589 13.5225 33.2499 12.7598 32.3981 12.1907C31.5464 11.6215 30.5753 11.2617 29.5622 11.1396C28.5491 11.0176 27.5219 11.1368 26.5623 11.4878C25.6116 9.98765 24.2445 8.80591 22.6329 8.09124C21.0213 7.37657 19.2371 7.1609 17.5048 7.47134C15.7726 7.78179 14.1696 8.60449 12.8975 9.83597C11.6254 11.0674 10.741 12.6527 10.3556 14.3923H10.0451C8.84583 14.3675 7.65378 14.5855 6.53872 15.0335C5.42366 15.4816 4.40802 16.1506 3.55126 17.0014C2.69451 17.8522 2.01387 18.8677 1.54921 19.9885C1.08455 21.1093 0.845215 22.3128 0.845215 23.5285C0.845215 24.7441 1.08455 25.9476 1.54921 27.0684C2.01387 28.1892 2.69451 29.2047 3.55126 30.0555C4.40802 30.9063 5.42366 31.5753 6.53872 32.0234C7.65378 32.4714 8.84583 32.6894 10.0451 32.6646H32.0954C33.9035 32.6662 35.6573 32.0389 37.0639 30.8877C38.4706 29.7364 39.4449 28.1308 39.8241 26.3391C40.2033 24.5474 39.9645 22.6781 39.1475 21.0434C38.3305 19.4087 36.9849 18.1076 35.3353 17.3574V17.3498Z" fill="#AF0000"/>
<path d="M34.1228 17.3498C34.0629 16.3176 33.7662 15.3138 33.2563 14.4181C32.7464 13.5225 32.0374 12.7598 31.1856 12.1907C30.3339 11.6215 29.3628 11.2617 28.3497 11.1396C27.3366 11.0176 26.3094 11.1368 25.3498 11.4878C24.3991 9.98765 23.032 8.80591 21.4204 8.09124C19.8087 7.37657 18.0246 7.1609 16.2923 7.47134C14.56 7.78179 12.957 8.60449 11.6849 9.83597C10.4128 11.0674 9.52847 12.6527 9.14306 14.3923H8.83254C6.47359 14.441 4.22747 15.4249 2.57618 17.133C0.924884 18.8411 0 21.1371 0 23.5285C0 25.9198 0.924884 28.2158 2.57618 29.9239C4.22747 31.632 6.47359 32.6159 8.83254 32.6646H30.8829C32.691 32.6662 34.4448 32.0389 35.8514 30.8877C37.258 29.7364 38.2324 28.1308 38.6116 26.3391C38.9908 24.5474 38.752 22.6781 37.935 21.0434C37.118 19.4087 35.7723 18.1076 34.1228 17.3574V17.3498Z" fill="#00194F"/>
<path d="M19.6145 20.6071L16.0978 17.0467C16.0692 17.0172 16.0352 16.9938 15.9976 16.9778C15.96 16.9618 15.9197 16.9536 15.8789 16.9536C15.8382 16.9536 15.7978 16.9618 15.7603 16.9778C15.7227 16.9938 15.6886 17.0172 15.6601 17.0467L12.1434 20.6071C12.0995 20.6511 12.0695 20.7074 12.0574 20.7688C12.0452 20.8301 12.0513 20.8938 12.075 20.9516C12.0987 21.0094 12.1389 21.0587 12.1904 21.0932C12.2419 21.1278 12.3024 21.146 12.3641 21.1455H13.8606C13.9433 21.1465 14.0223 21.1805 14.0804 21.2401C14.1385 21.2998 14.1711 21.3802 14.1711 21.464V26.435C14.1711 26.5184 14.2038 26.5985 14.2621 26.6575C14.3203 26.7165 14.3993 26.7497 14.4816 26.7497H17.2987C17.3811 26.7497 17.46 26.7165 17.5183 26.6575C17.5765 26.5985 17.6092 26.5184 17.6092 26.435V21.464C17.6092 21.3802 17.6418 21.2998 17.6999 21.2401C17.7581 21.1805 17.837 21.1465 17.9197 21.1455H19.4162C19.4761 21.1417 19.5335 21.1204 19.5817 21.0842C19.6299 21.048 19.6667 20.9984 19.6876 20.9415C19.7086 20.8845 19.7128 20.8227 19.6999 20.7633C19.6869 20.704 19.6572 20.6497 19.6145 20.6071Z" fill="white"/>
<path d="M18.9863 23.0943L22.503 26.6585C22.5622 26.7164 22.6414 26.7488 22.7237 26.7488C22.806 26.7488 22.8852 26.7164 22.9444 26.6585L26.4574 23.0943C26.5011 23.0505 26.5309 22.9945 26.5432 22.9335C26.5555 22.8725 26.5497 22.8092 26.5264 22.7515C26.5032 22.6939 26.4636 22.6445 26.4127 22.6097C26.3618 22.5749 26.3018 22.5561 26.2404 22.5558H24.7439C24.6612 22.5558 24.5819 22.5228 24.523 22.4639C24.4642 22.405 24.4307 22.3249 24.4297 22.2411V17.2664C24.4297 17.1829 24.397 17.1029 24.3387 17.0438C24.2805 16.9848 24.2015 16.9517 24.1192 16.9517H21.3058C21.2231 16.9517 21.1437 16.9847 21.0849 17.0436C21.0261 17.1025 20.9925 17.1826 20.9916 17.2664V22.2411C20.9916 22.3246 20.9588 22.4046 20.9006 22.4637C20.8424 22.5227 20.7634 22.5558 20.681 22.5558H19.1846C19.1247 22.5596 19.0672 22.5809 19.0191 22.6172C18.9709 22.6534 18.9341 22.7029 18.9132 22.7599C18.8922 22.8168 18.8879 22.8787 18.9009 22.938C18.9139 22.9974 18.9435 23.0516 18.9863 23.0943Z" fill="white"/>
</svg>
