<svg width="340" height="285" viewBox="0 0 340 285" fill="none" xmlns="http://www.w3.org/2000/svg">
<rect width="340" height="285" rx="16" fill="white" fill-opacity="0.7"/>
<path d="M313.889 201.163H182.561C178.937 201.163 176 198.226 176 194.603V28.5606C176 24.9368 178.937 22 182.561 22H313.887C317.511 22 320.448 24.9368 320.448 28.5606V194.603C320.448 198.226 317.511 201.163 313.889 201.163Z" fill="#506EB8"/>
<path d="M312.469 35.3789H183.98V187.784H312.469V35.3789Z" fill="#DAEBFD"/>
<path d="M257.109 31.1333H239.342C236.831 31.1224 236.822 27.295 239.342 27.2842H257.107C259.62 27.2932 259.629 31.1224 257.109 31.1333Z" fill="#2C4F94"/>
<path d="M304.984 86.6713H194.74C193.588 86.6713 192.654 85.7375 192.654 84.5855V51.496C192.654 50.344 193.588 49.4102 194.74 49.4102H304.984C306.136 49.4102 307.07 50.344 307.07 51.496V84.5855C307.068 85.7375 306.134 86.6713 304.984 86.6713Z" fill="#CBE3FC"/>
<path d="M304.984 130.212H194.74C193.588 130.212 192.654 129.278 192.654 128.126V95.0366C192.654 93.8846 193.588 92.9507 194.74 92.9507H304.984C306.136 92.9507 307.07 93.8846 307.07 95.0366V128.126C307.068 129.278 306.134 130.212 304.984 130.212Z" fill="#CBE3FC"/>
<path d="M304.984 173.752H194.74C193.588 173.752 192.654 172.818 192.654 171.666V138.579C192.654 137.427 193.588 136.493 194.74 136.493H304.984C306.136 136.493 307.07 137.427 307.07 138.579V171.668C307.068 172.818 306.134 173.752 304.984 173.752Z" fill="#CBE3FC"/>
<path d="M301.224 82.9362H191.989C190.657 82.9362 189.575 81.8563 189.575 80.5221V48.4423C189.575 47.11 190.655 46.0283 191.989 46.0283H301.224C302.556 46.0283 303.638 47.1082 303.638 48.4423V80.5221C303.636 81.8545 302.556 82.9362 301.224 82.9362Z" fill="white"/>
<path d="M223.153 54.7402H200.331V75.7542H223.153V54.7402Z" fill="#F3AC4A"/>
<path d="M231.419 54.7402H223.153V75.7542H231.419V54.7402Z" fill="#F08F3C"/>
<path d="M214.63 54.7402H209.395V58.2287H214.63V54.7402Z" fill="#FDF1E6"/>
<path d="M229.011 54.7402H226.089V58.2287H229.011V54.7402Z" fill="#FDF1E6"/>
<path d="M297.438 55.2573H239.986V58.7512H297.438V55.2573Z" fill="#D9E9FD"/>
<path d="M297.438 63.5H239.986V66.9939H297.438V63.5Z" fill="#D9E9FD"/>
<path d="M268.713 71.7427H239.986V75.2366H268.713V71.7427Z" fill="#D9E9FD"/>
<path d="M301.224 126.397H191.989C190.657 126.397 189.575 125.317 189.575 123.983V91.9052C189.575 90.5729 190.655 89.4912 191.989 89.4912H301.224C302.556 89.4912 303.638 90.5711 303.638 91.9052V123.985C303.636 125.317 302.556 126.397 301.224 126.397Z" fill="white"/>
<path d="M223.153 98.2026H200.331V119.217H223.153V98.2026Z" fill="#F3AC4A"/>
<path d="M231.419 98.2026H223.153V119.217H231.419V98.2026Z" fill="#F08F3C"/>
<path d="M214.63 98.2026H209.395V101.691H214.63V98.2026Z" fill="#FDF1E6"/>
<path d="M229.011 98.2026H226.089V101.691H229.011V98.2026Z" fill="#FDF1E6"/>
<path d="M297.438 98.7202H239.986V102.214H297.438V98.7202Z" fill="#D9E9FD"/>
<path d="M297.438 106.963H239.986V110.457H297.438V106.963Z" fill="#D9E9FD"/>
<path d="M268.713 115.206H239.986V118.699H268.713V115.206Z" fill="#D9E9FD"/>
<path d="M301.224 169.86H191.989C190.657 169.86 189.575 168.78 189.575 167.446V135.368C189.575 134.036 190.655 132.954 191.989 132.954H301.224C302.556 132.954 303.638 134.034 303.638 135.368V167.448C303.636 168.78 302.556 169.86 301.224 169.86Z" fill="white"/>
<path d="M223.153 141.665H200.331V162.679H223.153V141.665Z" fill="#F3AC4A"/>
<path d="M231.419 141.665H223.153V162.679H231.419V141.665Z" fill="#F08F3C"/>
<path d="M214.63 141.665H209.395V145.154H214.63V141.665Z" fill="#FDF1E6"/>
<path d="M229.011 141.665H226.089V145.154H229.011V141.665Z" fill="#FDF1E6"/>
<path d="M297.438 142.183H239.986V145.677H297.438V142.183Z" fill="#D9E9FD"/>
<path d="M297.438 150.425H239.986V153.919H297.438V150.425Z" fill="#D9E9FD"/>
<path d="M268.713 158.668H239.986V162.162H268.713V158.668Z" fill="#D9E9FD"/>
<path d="M191.829 29.204C191.753 33.6571 185.129 33.6553 185.054 29.204C185.131 24.751 191.755 24.751 191.829 29.204Z" fill="#2C4F94"/>
<path d="M80.8358 224.141H89.0918V182.463H80.8358V224.141Z" fill="#2A437D"/>
<path d="M50.3687 239.411L238.862 239.411V222.275L50.3687 222.275V239.411Z" fill="#F08F3C"/>
<path d="M84.9632 224.141L238.862 224.141V138.173H84.9632V224.141Z" fill="#FDA913"/>
<path d="M27.989 194.978L39.2001 168.552C39.8342 167.056 41.3014 166.086 42.9261 166.086H80.8346V224.142C68.2765 223.709 53.1881 222.876 52.3012 239.537H24.665C25.1852 228.288 22.7254 205.245 27.989 194.978Z" fill="#FDA913"/>
<path d="M192.109 245.468C192.489 267.621 225.44 267.618 225.815 245.468C225.438 223.313 192.484 223.317 192.109 245.468Z" fill="#2A437D"/>
<path d="M201.646 245.467C201.809 255.085 216.114 255.083 216.278 245.467C216.114 235.85 201.809 235.852 201.646 245.467Z" fill="#152E60"/>
<path d="M206.222 245.468C206.238 249.053 211.688 249.053 211.705 245.468C211.688 241.883 206.238 241.883 206.222 245.468Z" fill="#2A437D"/>
<path d="M208.131 240.366C208.114 241.447 209.814 241.447 209.797 240.366C209.814 239.284 208.114 239.284 208.131 240.366Z" fill="#2A437D"/>
<path d="M208.131 250.57C208.114 251.651 209.814 251.651 209.797 250.57C209.814 249.488 208.114 249.488 208.131 250.57Z" fill="#2A437D"/>
<path d="M204.769 242.448C205.524 243.223 206.723 242.023 205.948 241.269C205.194 240.494 203.992 241.696 204.769 242.448Z" fill="#2A437D"/>
<path d="M211.984 249.664C212.738 250.439 213.938 249.239 213.163 248.484C212.409 247.709 211.207 248.911 211.984 249.664Z" fill="#2A437D"/>
<path d="M203.863 246.301C204.945 246.317 204.945 244.618 203.863 244.634C202.781 244.618 202.781 246.317 203.863 246.301Z" fill="#2A437D"/>
<path d="M214.067 246.301C215.149 246.317 215.149 244.618 214.067 244.634C212.985 244.618 212.985 246.317 214.067 246.301Z" fill="#2A437D"/>
<path d="M205.945 249.664C206.72 248.91 205.521 247.71 204.766 248.485C203.991 249.239 205.193 250.441 205.945 249.664Z" fill="#2A437D"/>
<path d="M213.161 242.448C213.936 241.694 212.736 240.494 211.982 241.269C211.207 242.023 212.409 243.225 213.161 242.448Z" fill="#2A437D"/>
<path d="M55.3857 245.467C55.765 267.62 88.7166 267.618 89.0916 245.467C88.7124 223.312 55.7608 223.316 55.3857 245.467Z" fill="#2A437D"/>
<path d="M64.9229 245.467C65.0866 255.084 79.3916 255.082 79.5553 245.467C79.3916 235.849 65.0845 235.851 64.9229 245.467Z" fill="#152E60"/>
<path d="M69.498 245.467C69.5146 249.052 74.9648 249.052 74.9813 245.467C74.9627 241.882 69.5126 241.882 69.498 245.467Z" fill="#2A437D"/>
<path d="M71.4054 240.365C71.3888 241.446 73.0881 241.446 73.0715 240.365C73.0881 239.283 71.3909 239.283 71.4054 240.365Z" fill="#2A437D"/>
<path d="M71.4054 250.569C71.3888 251.65 73.0881 251.65 73.0715 250.569C73.0881 249.487 71.3909 249.487 71.4054 250.569Z" fill="#2A437D"/>
<path d="M68.0418 242.447C68.7962 243.222 69.996 242.022 69.221 241.268C68.4667 240.493 67.2668 241.695 68.0418 242.447Z" fill="#2A437D"/>
<path d="M75.2567 249.663C76.011 250.438 77.2109 249.238 76.4358 248.483C75.6815 247.708 74.4816 248.91 75.2567 249.663Z" fill="#2A437D"/>
<path d="M67.1375 246.3C68.2192 246.316 68.2192 244.617 67.1375 244.633C66.0557 244.617 66.0557 246.316 67.1375 246.3Z" fill="#2A437D"/>
<path d="M77.3435 246.3C78.4253 246.316 78.4253 244.617 77.3435 244.633C76.2618 244.617 76.2618 246.316 77.3435 246.3Z" fill="#2A437D"/>
<path d="M69.221 249.663C69.996 248.909 68.7962 247.709 68.0418 248.484C67.2668 249.238 68.4667 250.44 69.221 249.663Z" fill="#2A437D"/>
<path d="M76.4358 242.448C77.2109 241.693 76.011 240.493 75.2567 241.268C74.4816 242.023 75.6815 243.225 76.4358 242.448Z" fill="#2A437D"/>
<path d="M38.1894 170.933C39.6981 170.859 41.8968 170.801 41.3 173.02L33.0812 193.055C32.6274 194.595 29.5065 193.813 28.4082 193.994L38.1894 170.933Z" fill="#152E60"/>
<path d="M39.7374 189.495C40.6119 189.172 56.5313 190.311 56.4318 188.709L59.1797 184.121C59.5237 183.547 60.1433 183.195 60.8127 183.195H69.3775C69.8603 183.195 70.2499 182.803 70.2499 182.323V172.361C71.3234 170.537 47.6432 171.978 47.4008 171.542C45.6269 170.452 39.8804 187.934 39.1447 188.602C38.9686 189.026 39.2794 189.495 39.7374 189.495Z" fill="#152E60"/>
<mask id="mask0_508_10544" style="mask-type:luminance" maskUnits="userSpaceOnUse" x="39" y="171" width="32" height="19">
<path d="M39.7374 189.495C40.6119 189.172 56.5313 190.311 56.4318 188.709L59.1797 184.121C59.5237 183.547 60.1433 183.195 60.8127 183.195H69.3775C69.8603 183.195 70.2499 182.803 70.2499 182.323V172.361C71.3234 170.537 47.6432 171.978 47.4008 171.542C45.6269 170.452 39.8804 187.934 39.1447 188.602C38.9686 189.026 39.2794 189.495 39.7374 189.495Z" fill="white"/>
</mask>
<g mask="url(#mask0_508_10544)">
<path d="M52.2708 170.933L43.8262 190.732H52.7516L60.3631 170.933H52.2708Z" fill="#2A437D"/>
</g>
<path d="M70.1094 209.886C70.6399 209.788 72.2687 210.228 72.2397 209.274V203.422C72.2708 202.475 70.6378 202.9 70.1094 202.811C69.7716 202.811 69.498 203.084 69.498 203.422V209.274C69.498 209.61 69.7716 209.886 70.1094 209.886Z" fill="#2A437D"/>
<path d="M23.9396 239.532H54.6738V234.699H23.9396V239.532Z" fill="#152E60"/>
<path d="M23.9403 239.531C25.6106 239.303 30.2028 240.482 30.1613 237.614V223.891C30.209 221.031 25.6044 222.198 23.9403 221.974C22.8814 221.974 22.0234 222.832 22.0234 223.891V237.614C22.0234 238.673 22.8814 239.531 23.9403 239.531Z" fill="#2A437D"/>
<path d="M24.665 211.318C25.2992 211.2 27.357 211.741 27.3197 210.595C27.3611 209.449 25.2929 209.989 24.665 209.871V211.318Z" fill="#F9CE68"/>
<path d="M24.665 213.497C25.2992 213.379 27.357 213.92 27.3197 212.774C27.3611 211.628 25.2929 212.169 24.665 212.051V213.497Z" fill="#F9CE68"/>
<path d="M24.665 215.676C25.2992 215.558 27.357 216.098 27.3197 214.952C27.3611 213.807 25.2929 214.347 24.665 214.229V215.676Z" fill="#F9CE68"/>
<path d="M34.1428 214.954H74.8945V211.319H34.1428V214.954Z" fill="#F9CE68"/>
<path d="M72.7408 221.263H41.2232C40.786 221.263 40.3612 221.138 39.9923 220.902L35.0623 217.744C32.9361 217.852 34.4323 196.953 34.0117 195.838C34.0117 195.535 34.0717 195.243 34.1857 194.963L44.1597 170.916C44.5141 170.061 45.3409 169.509 46.2672 169.509H72.7408C73.9987 169.509 75.0224 170.533 75.0224 171.791V218.981C75.0224 220.239 73.9987 221.263 72.7408 221.263ZM46.2672 169.768C44.0312 168.264 35.34 194.342 34.422 195.065C34.3204 195.311 34.2686 195.573 34.2686 195.84V215.825C34.2686 216.519 34.6168 217.156 35.2011 217.531C35.9617 217.904 40.3715 221.188 41.2232 221.008H72.7387C73.8557 221.008 74.7634 220.1 74.7634 218.983V171.793C74.7634 170.676 73.8557 169.768 72.7387 169.768H46.2672Z" fill="#152E60"/>
<path d="M143.488 246.286H180.725C181.782 246.286 182.638 245.43 182.638 244.373V234.689C182.638 233.632 181.782 232.776 180.725 232.776H143.488C142.431 232.776 141.575 233.632 141.575 234.689V244.373C141.575 245.43 142.433 246.286 143.488 246.286Z" fill="#D3E0FF"/>
<path d="M174.271 246.285H177.611V232.776H174.271V246.285Z" fill="#152E60"/>
<path d="M146.383 246.285H149.724V232.776H146.383V246.285Z" fill="#839EE2"/>
<path d="M98.4957 246.285H135.733C136.79 246.285 137.646 245.429 137.646 244.372V234.689C137.646 233.632 136.79 232.776 135.733 232.776H98.4957C97.4389 232.776 96.583 233.632 96.583 234.689V244.372C96.583 245.429 97.4389 246.285 98.4957 246.285Z" fill="#D3E0FF"/>
<path d="M129.277 246.285H132.617V232.775H129.277V246.285Z" fill="#839EE2"/>
<path d="M101.39 246.285H104.73V232.775H101.39V246.285Z" fill="#839EE2"/>
<path d="M84.9632 200.534L238.862 200.534V170.935L84.9632 170.935V200.534Z" fill="#F9CE68"/>
<path d="M38.2201 191.391C38.7278 191.295 40.2821 191.718 40.2531 190.806V184.071C40.2821 183.166 38.7237 183.572 38.2201 183.487C37.8969 183.487 37.6357 183.748 37.6357 184.071V190.806C37.6357 191.127 37.8969 191.391 38.2201 191.391Z" fill="#2A437D"/>
<path d="M121.712 138.491C112.96 137.927 96.0567 142.167 99.7475 127.11H125.604C126.629 131.735 128.557 137.784 121.712 138.491Z" fill="#2A437D"/>
<path d="M114.563 83.5129C114.443 91.2074 105.067 91.2053 104.947 83.5129C105.067 75.8206 114.445 75.8206 114.563 83.5129Z" fill="#F4D2C6"/>
<mask id="mask1_508_10544" style="mask-type:luminance" maskUnits="userSpaceOnUse" x="104" y="77" width="11" height="13">
<path d="M114.562 83.5129C114.442 91.2074 105.066 91.2053 104.946 83.5129C105.066 75.8206 114.444 75.8206 114.562 83.5129Z" fill="white"/>
</mask>
<g mask="url(#mask1_508_10544)">
<path d="M104.62 83.1276C104.62 83.1276 108.437 82.7359 110.992 80.5621C110.992 80.5621 110.823 81.8138 111.714 82.7297L112.373 78.8877L104.95 79.9736L104.62 83.1276Z" fill="#EDA19D"/>
</g>
<path d="M114.552 83.1279C114.552 83.1279 114.082 92.1569 115.033 94.8323C115.033 94.8323 112.041 95.7399 109.092 94.8323C109.092 94.8323 110.951 87.1233 110.588 85.3536L114.552 83.1279Z" fill="#F4D2C6"/>
<path d="M105.41 81.0078C105.41 81.0078 109.907 81.0016 111.803 79.4018C111.018 83.1692 112.674 85.2167 114.435 87.8734C114.858 86.1223 118.83 76.4322 112.062 77.1679C108.326 73.9185 104.125 78.1957 102.863 80.9312L105.41 81.0078Z" fill="#59445A"/>
<path d="M113.887 83.6478C113.911 85.3077 111.302 85.3077 111.327 83.6478C111.302 81.9879 113.909 81.9879 113.887 83.6478Z" fill="#F4D2C6"/>
<path d="M110.241 89.3324C110.241 89.3324 111.263 89.3179 112.606 88.2217C112.606 88.2217 112.314 90.6587 109.968 90.7996L110.241 89.3324Z" fill="#EDA19D"/>
<path d="M122.62 114.805L112.435 102.174L121.248 96.2559L130.888 109.908L122.62 114.805Z" fill="#4292F3"/>
<path d="M123.14 101.37C122.091 94.3848 116.757 90.8846 110.779 91.6597C106.006 91.4856 101.706 96.3348 101.112 101.379C101.066 101.882 98.7988 127.11 98.7988 127.11H125.604L123.14 101.37Z" fill="#4292F3"/>
<path d="M109.024 91.8462C110.058 95.0251 114.205 95.023 115.239 91.8462C115.239 91.8462 112.58 90.408 109.024 91.8462Z" fill="#F4D2C6"/>
<path d="M109.025 91.8467L111.991 94.2505C109.118 96.4016 108.836 94.7002 108.012 92.1368C108.01 92.1368 108.526 91.9109 109.025 91.8467Z" fill="#F3F5FB"/>
<path d="M112.732 94.1925C115.435 96.1115 115.899 94.8329 116.297 92.1555C116.297 92.1555 115.489 91.8881 115.238 91.8467L112.732 94.1925Z" fill="#F3F5FB"/>
<path d="M109.688 122.814H95.5153C94.9579 122.814 94.4129 122.362 94.303 121.803L90.49 102.738C90.3781 102.18 90.7408 101.727 91.2982 101.727H105.471C106.028 101.727 106.573 102.178 106.683 102.738L110.496 121.803C110.61 122.362 110.247 122.814 109.688 122.814Z" fill="#324D90"/>
<path d="M91.2471 106.52C91.2471 106.52 91.7196 118.902 91.9061 119.652C92.4366 121.774 94.1752 121.171 94.1752 121.171L91.2471 106.52Z" fill="#EDA19D"/>
<path d="M96.2557 170.253L95.7397 172.06L90.1694 174.448C89.5062 174.732 89.0752 175.384 89.0752 176.106H100.576L100.139 170.253H96.2557Z" fill="#152E60"/>
<path d="M115.58 170.253L115.064 172.06L109.494 174.448C108.83 174.732 108.399 175.384 108.399 176.106H119.901L119.463 170.253H115.58Z" fill="#152E60"/>
<path d="M92.7501 133.313L94.8763 171.532H100.708C101.953 162.667 103.228 153.81 104.405 144.932C104.869 141.595 105.441 138.276 105.996 134.954C106.452 132.229 107.503 128.838 105.414 126.505C100.623 121.927 92.0518 126.961 92.7501 133.313Z" fill="#324D90"/>
<mask id="mask2_508_10544" style="mask-type:luminance" maskUnits="userSpaceOnUse" x="92" y="124" width="15" height="48">
<path d="M92.7501 133.313L94.8763 171.532H100.708C101.953 162.667 103.228 153.81 104.405 144.932C104.869 141.595 105.441 138.276 105.996 134.954C106.452 132.229 107.503 128.838 105.414 126.505C100.623 121.927 92.0518 126.961 92.7501 133.313Z" fill="white"/>
</mask>
<g mask="url(#mask2_508_10544)">
<path d="M92.7373 170.253C96.2353 164.001 104.131 141.687 105.996 134.956C105.492 142.271 103.924 166.316 103.119 173.18L92.3643 172.262L92.7373 170.253Z" fill="#2A437D"/>
</g>
<path d="M111.793 133.314L113.919 171.533H119.751C119.616 167.598 129.828 129.463 125.551 127.209C120.374 121.906 111.381 125.915 111.793 133.314Z" fill="#324D90"/>
<mask id="mask3_508_10544" style="mask-type:luminance" maskUnits="userSpaceOnUse" x="111" y="124" width="16" height="48">
<path d="M111.794 133.314L113.92 171.533H119.752C119.617 167.598 129.829 129.463 125.552 127.209C120.375 121.906 111.382 125.915 111.794 133.314Z" fill="white"/>
</mask>
<g mask="url(#mask3_508_10544)">
<path d="M126.937 132.026L115.066 172.061L121.401 172.39C121.401 172.388 129.78 136.84 126.937 132.026Z" fill="#2A437D"/>
</g>
<path d="M121.747 110.347L118.181 100.999C118.181 100.999 118.933 120.949 125.316 124.095L124.522 115.804L121.747 110.347Z" fill="#3C7ED7"/>
<path d="M130.228 111.63C129.612 110.704 128.626 110.088 127.523 109.943L110.064 107.635C109.814 107.421 108.788 106.565 108.348 106.524C107.522 106.594 102.525 106.663 105.333 107.72C105.884 107.805 107.312 107.898 107.312 107.898C107.238 108.059 101.949 109.562 102.453 109.987C102.739 110.625 103.545 112.27 104.222 112.248C104.933 112.223 108.808 111.151 109.981 110.822L125.731 117.41C127.291 117.971 129.034 117.472 130.06 116.17C131.098 114.855 131.164 113.018 130.228 111.63Z" fill="#F4D2C6"/>
<mask id="mask4_508_10544" style="mask-type:luminance" maskUnits="userSpaceOnUse" x="102" y="106" width="29" height="12">
<path d="M130.227 111.63C129.611 110.704 128.625 110.088 127.522 109.943L110.063 107.635C109.813 107.421 108.787 106.565 108.347 106.524C107.521 106.594 102.524 106.663 105.332 107.72C105.883 107.805 107.311 107.898 107.311 107.898C107.237 108.059 101.948 109.562 102.452 109.987C102.738 110.625 103.544 112.27 104.222 112.248C104.932 112.223 108.808 111.151 109.98 110.822L125.73 117.41C127.29 117.971 129.033 117.472 130.059 116.17C131.097 114.855 131.163 113.018 130.227 111.63Z" fill="white"/>
</mask>
<g mask="url(#mask4_508_10544)">
<path d="M121.08 116.081C121.08 116.081 128.093 117.261 131.864 112.958C129.815 120.593 125.95 118.494 121.08 116.081Z" fill="#EDA19D"/>
</g>
<path d="M16 262.255C117.043 261.356 222.599 261.348 323.641 262.255C222.598 263.163 117.042 263.155 16 262.255Z" fill="#152E60"/>
<path d="M145.821 89C154.007 89 160.643 82.5081 160.643 74.5C160.643 66.4919 154.007 60 145.821 60C137.636 60 131 66.4919 131 74.5C131 82.5081 137.636 89 145.821 89Z" fill="#E7EAF9"/>
<path d="M140.998 68.9842L145.287 73.7266L158.359 61.3691L162 64.8923L145.337 80.7461L137.265 72.0708L140.998 68.9842Z" fill="#00194F"/>
</svg>
