<svg width="581" height="232" viewBox="0 0 581 232" fill="none" xmlns="http://www.w3.org/2000/svg">
<g clip-path="url(#clip0_525_19889)">
<rect opacity="0.7" y="1" width="581" height="230" fill="#F2F4F8"/>
<path d="M267.152 98.333C262.599 96.3864 164.615 96.3864 160.077 98.333C154.33 100.783 158.746 206.729 154.116 221.881H274.092C269.463 206.729 272.898 100.783 267.152 98.333Z" fill="#4A4A99"/>
<path d="M283.847 159.501C283.571 158.905 270.203 119.99 257.547 111.715C243.322 102.41 227.704 103.043 227.704 103.043C227.704 103.043 258.718 166.447 262.789 175.188C265.39 180.775 309.558 203.325 309.558 203.325L321.464 185.325L283.847 159.501Z" fill="#A82D35"/>
<path d="M256.774 221.783C255.06 221.852 175.388 221.852 175.388 221.852L184.333 107.265L202.988 103.074H228.24L243.873 107.265C243.873 107.265 256.989 221.768 256.774 221.783Z" fill="#A82D35"/>
<path fill-rule="evenodd" clip-rule="evenodd" d="M245.616 133.422L242.516 133.398L241.711 132.393L243.29 130.443L245.616 133.422Z" fill="white"/>
<path fill-rule="evenodd" clip-rule="evenodd" d="M245.075 127.571L243.292 129.825L241.924 128.016L243.684 128.03L244.027 127.563L245.075 127.571Z" fill="white"/>
<path fill-rule="evenodd" clip-rule="evenodd" d="M242.074 127.769C242.074 127.769 243.478 127.756 243.522 127.78C243.566 127.804 244.237 126.923 244.237 126.923L242.769 126.912L242.074 127.769Z" fill="white"/>
<path fill-rule="evenodd" clip-rule="evenodd" d="M243.427 126.706C243.427 126.706 244.639 126.657 244.639 126.715C244.638 126.773 245.157 126.048 245.157 126.048L243.976 126.039L243.427 126.706Z" fill="white"/>
<path fill-rule="evenodd" clip-rule="evenodd" d="M244.627 126.94L245.341 126.945L244.994 127.355L244.306 127.35L244.627 126.94Z" fill="white"/>
<path fill-rule="evenodd" clip-rule="evenodd" d="M245.313 126.222L245.93 126.226L245.678 126.625L244.997 126.619L245.313 126.222Z" fill="white"/>
<path fill-rule="evenodd" clip-rule="evenodd" d="M237.142 126.85L240.324 126.875L242.806 130.155L240.196 133.378L237.055 133.354L239.706 130.131L237.142 126.85Z" fill="white"/>
<path d="M223.471 128.37L223.465 129.169L225.641 129.186L225.63 130.72L223.454 130.703L223.448 131.622L225.92 131.641L225.908 133.267L221.241 133.231L221.287 126.727L225.954 126.763L225.943 128.389L223.471 128.37Z" fill="white"/>
<path d="M231.729 126.808L231.718 128.425L228.969 128.404L228.963 129.304L230.94 129.319L230.93 130.853L228.952 130.838L228.934 133.291L226.739 133.274L226.785 126.77L231.729 126.808Z" fill="white"/>
<path d="M234.655 128.456L234.65 129.256L236.825 129.273L236.815 130.807L234.639 130.79L234.632 131.709L237.105 131.728L237.093 133.354L232.426 133.318L232.472 126.813L237.139 126.85L237.128 128.476L234.655 128.456Z" fill="white"/>
<path opacity="0.6" d="M256.767 221.783C255.06 221.851 175.388 221.844 175.388 221.844L181.509 143.921L186.101 173.485L198.772 189.157C198.772 189.157 210.579 198.5 214.206 214.065H256.04C256.499 218.905 256.805 221.783 256.767 221.783Z" fill="#9C2C33"/>
<path d="M318.717 186.988C315.87 190.515 312.863 194.087 310.154 197.729C311.156 200.004 312.483 202.123 314.095 204.019C314.474 204.451 314.875 204.864 315.296 205.255C315.591 205.467 315.906 205.649 316.238 205.797C318.885 207.095 326.009 209.889 327.609 210.011L335.551 193.897C334.786 191.813 329.544 188.126 327.899 187.874C325.359 187.492 321.227 187.37 318.717 186.988Z" fill="#F3B18C"/>
<g style="mix-blend-mode:multiply" opacity="0.2">
<path d="M321.77 206.333C323.752 205.18 326.238 201.852 327.47 199.929C327.187 199.409 326.889 198.921 326.575 198.455C326.337 198.171 326.068 197.915 325.772 197.692C325.106 198.455 324.486 199.219 324.157 199.501C321.685 201.89 319.068 204.157 315.908 205.608C317.951 206.631 319.757 207.493 321.77 206.333Z" fill="#D3835B"/>
</g>
<path d="M349.107 177.201L315.108 153.16L282.624 198.878L316.622 222.918L349.107 177.201Z" fill="#002E42"/>
<path d="M309.695 169.508L335.934 188.065" stroke="#99B4B5" stroke-width="0.32" stroke-miterlimit="10"/>
<path d="M308.472 171.233L334.71 189.783" stroke="#99B4B5" stroke-width="0.32" stroke-miterlimit="10"/>
<path d="M307.255 172.951L333.494 191.508" stroke="#99B4B5" stroke-width="0.32" stroke-miterlimit="10"/>
<path d="M306.03 174.668L332.269 193.225" stroke="#99B4B5" stroke-width="0.32" stroke-miterlimit="10"/>
<path d="M304.806 176.393L331.044 194.942" stroke="#99B4B5" stroke-width="0.32" stroke-miterlimit="10"/>
<path d="M303.582 178.112L329.828 196.669" stroke="#99B4B5" stroke-width="0.32" stroke-miterlimit="10"/>
<path d="M302.365 179.828L328.604 198.385" stroke="#99B4B5" stroke-width="0.32" stroke-miterlimit="10"/>
<path d="M301.141 181.554L327.379 200.103" stroke="#99B4B5" stroke-width="0.32" stroke-miterlimit="10"/>
<path d="M299.916 183.271L326.162 201.821" stroke="#99B4B5" stroke-width="0.32" stroke-miterlimit="10"/>
<path d="M298.699 184.989L324.938 203.546" stroke="#99B4B5" stroke-width="0.32" stroke-miterlimit="10"/>
<path d="M297.476 186.713L323.714 205.263" stroke="#99B4B5" stroke-width="0.32" stroke-miterlimit="10"/>
<path d="M314.999 162.188L319.774 165.561" stroke="#99B4B5" stroke-width="0.32" stroke-miterlimit="10"/>
<path d="M293.053 193.859L297.828 197.233" stroke="#99B4B5" stroke-width="0.32" stroke-miterlimit="10"/>
<path d="M340.938 199.462C341.304 200.052 341.502 200.731 341.51 201.425C341.518 202.119 341.336 202.802 340.984 203.401C340.219 204.53 338.291 204.813 337.418 203.729C337.885 204.129 338.183 204.69 338.253 205.3C338.322 205.91 338.158 206.524 337.793 207.019C337.395 207.486 336.85 207.804 336.247 207.922C335.643 208.04 335.018 207.95 334.472 207.668C334.773 208.162 334.884 208.748 334.785 209.318C334.686 209.887 334.385 210.402 333.936 210.767C333.487 211.132 332.92 211.324 332.341 211.305C331.762 211.287 331.209 211.06 330.784 210.668C331.093 211.046 331.284 211.507 331.332 211.993C331.381 212.479 331.287 212.968 331.06 213.4C330.816 213.818 330.453 214.155 330.017 214.367C329.581 214.579 329.091 214.657 328.611 214.591C327.947 214.442 327.321 214.156 326.774 213.752C326.178 213.37 320.186 208.408 319.704 207.645C319.44 207.26 319.316 206.796 319.352 206.331C319.388 205.866 319.582 205.427 319.903 205.088C320.829 204.324 322.696 205.523 325.405 206.935C324.204 206.013 323.14 204.925 322.244 203.706C321.848 203.253 321.598 202.692 321.525 202.095C321.571 201.562 321.803 201.061 322.18 200.68C322.558 200.3 323.057 200.063 323.591 200.011C324.662 199.866 327.004 201.026 328.022 201.393C326.292 200.63 324.418 197.286 325.634 195.866C326.851 194.446 329.537 194.927 331.633 197.08C330.562 195.82 329.384 194.439 329.338 193.408C329.352 192.992 329.514 192.594 329.794 192.286C330.074 191.977 330.455 191.777 330.868 191.721C331.717 191.642 332.568 191.84 333.294 192.286C335.475 193.439 339.737 197.286 340.938 199.462Z" fill="#F3B18C"/>
<path d="M330.784 210.675C330.784 210.675 329.361 209.827 325.428 206.927C326.842 208.634 328.693 209.929 330.784 210.675Z" fill="#EA9C75"/>
<path d="M334.473 207.676C332.554 205.355 330.392 203.247 328.022 201.386C328.022 201.386 332.996 206.821 334.473 207.676Z" fill="#EA9C75"/>
<path d="M337.778 204.12C337.778 204.12 333.508 198.219 331.389 196.807C331.389 196.807 336.194 203.28 337.778 204.12Z" fill="#EA9C75"/>
<g opacity="0.15">
<g style="mix-blend-mode:multiply">
<path d="M323.002 206.913C323.109 206.738 323.216 206.501 323.102 206.325C323.062 206.262 323.007 206.209 322.941 206.173C322.533 205.881 322.091 205.64 321.625 205.455C321.332 205.321 321.014 205.248 320.691 205.241C320.533 205.238 320.375 205.272 320.232 205.339C320.089 205.407 319.963 205.507 319.865 205.631C319.754 205.849 319.702 206.093 319.714 206.338C319.726 206.583 319.801 206.821 319.934 207.028C320.266 207.71 320.76 208.302 321.372 208.753C321.824 209.096 322.849 207.18 323.002 206.913Z" fill="#D3835B"/>
</g>
<g style="mix-blend-mode:multiply">
<path d="M326.247 202.767C326.37 202.561 326.492 202.294 326.362 202.087C326.312 202.02 326.25 201.963 326.178 201.919C325.704 201.584 325.19 201.307 324.648 201.095C324.316 200.946 323.956 200.865 323.592 200.858C323.225 200.858 322.827 200.912 322.345 201.668C322.038 202.126 322.345 202.835 322.612 203.339C322.989 204.043 323.609 204.585 324.357 204.866C324.954 205.148 326.056 203.064 326.247 202.767Z" fill="#D3835B"/>
</g>
<g style="mix-blend-mode:multiply">
<path d="M329.705 197.935C329.828 197.729 329.95 197.469 329.82 197.263C329.77 197.193 329.708 197.134 329.636 197.087C329.159 196.757 328.646 196.483 328.106 196.271C327.774 196.119 327.415 196.036 327.05 196.026C326.683 196.026 326.285 196.087 325.803 196.836C325.496 197.294 325.803 198.003 326.07 198.507C326.449 199.208 327.069 199.75 327.815 200.034C328.42 200.332 329.529 198.248 329.705 197.935Z" fill="#D3835B"/>
</g>
<g style="mix-blend-mode:multiply">
<path d="M333.21 193.912C333.277 193.833 333.322 193.738 333.339 193.636C333.357 193.534 333.347 193.429 333.31 193.332C333.263 193.277 333.209 193.228 333.149 193.187C332.75 192.903 332.319 192.667 331.864 192.485C331.579 192.357 331.272 192.287 330.961 192.279C330.647 192.279 330.326 192.332 329.897 192.973C329.629 193.37 329.897 193.973 330.127 194.409C330.451 195.007 330.981 195.467 331.619 195.706C332.109 195.958 333.057 194.172 333.21 193.912Z" fill="#D3835B"/>
</g>
</g>
<path d="M193.745 189.615C197.288 190.875 199.973 193.722 202.499 196.486C202.915 197.199 203.164 197.998 203.226 198.821C202.843 199.127 201.083 200.295 200.601 200.195C199.545 199.989 199.782 197.592 198.734 197.379C194.051 196.447 189.085 195.363 185.725 192.035C185.251 191.643 184.918 191.107 184.777 190.509C184.772 190.11 184.864 189.717 185.046 189.362C185.227 189.007 185.492 188.701 185.817 188.47C186.582 187.852 187.225 188.272 188.166 188.47C190.052 188.714 191.916 189.097 193.745 189.615Z" fill="#F3B18C"/>
<path d="M187.111 187.63C183.736 190.378 180.698 194.225 177.438 197.103C177.936 199.355 178.135 201.118 180.499 204.042C182.259 206.195 189.529 212.66 191.013 213.057L204.58 198.813C203.05 197.393 199.331 193.05 197.494 192.012C196.086 191.248 195.528 190.584 194.005 190.042L187.111 187.63Z" fill="#F3B18C"/>
<path d="M206.11 201.31C206.403 201.897 206.528 202.553 206.471 203.206C206.415 203.859 206.179 204.484 205.789 205.012C204.924 206.012 203.08 206.126 202.345 205.012C202.751 205.429 202.982 205.985 202.992 206.566C203.002 207.148 202.79 207.711 202.399 208.142C201.972 208.547 201.422 208.801 200.835 208.863C200.249 208.925 199.658 208.792 199.155 208.485C199.383 208.98 199.432 209.539 199.292 210.065C199.152 210.592 198.833 211.053 198.389 211.371C197.921 211.662 197.368 211.785 196.82 211.722C196.273 211.658 195.763 211.41 195.375 211.02C195.634 211.4 195.773 211.849 195.773 212.31C195.773 212.77 195.634 213.219 195.375 213.6C195.1 213.976 194.721 214.265 194.285 214.43C193.849 214.595 193.374 214.63 192.918 214.531C192.302 214.334 191.732 214.015 191.242 213.592C190.714 213.195 185.458 208.081 185.075 207.287C184.86 206.9 184.786 206.45 184.865 206.014C184.945 205.579 185.173 205.184 185.511 204.897C186.46 204.241 188.136 205.531 190.584 207.065C189.528 206.105 188.614 205 187.868 203.783C187.539 203.323 187.355 202.775 187.34 202.211C187.432 201.705 187.699 201.248 188.095 200.92C188.491 200.592 188.991 200.414 189.505 200.417C190.546 200.363 192.666 201.638 193.607 202.065C192.023 201.211 190.546 197.92 191.855 196.684C193.163 195.447 195.681 196.111 197.464 198.295C196.561 197.027 195.566 195.638 195.596 194.661C195.655 194.264 195.851 193.901 196.15 193.633C196.449 193.366 196.832 193.211 197.234 193.195C198.044 193.192 198.835 193.446 199.491 193.921C201.519 195.211 205.184 199.157 206.11 201.31Z" fill="#F3B18C"/>
<path d="M209.684 209.316C209.914 210.568 209.945 212.11 209.057 212.629C207.978 213.263 206.593 213.393 205.231 211.767C204.034 209.52 203.01 207.185 202.17 204.782C200.831 199.523 203.479 198.736 204.221 198.92C204.963 199.103 205.552 200.378 206.149 201.309C207.389 203.217 209.172 206.645 209.684 209.316Z" fill="#F3B18C"/>
<path d="M195.398 211.043C195.398 211.043 194.128 210.127 190.615 207.088C191.819 208.816 193.472 210.184 195.398 211.043Z" fill="#EA9C75"/>
<path d="M199.17 208.508C197.557 206.172 195.691 204.019 193.607 202.088C193.607 202.088 197.847 207.592 199.17 208.508Z" fill="#EA9C75"/>
<path d="M202.667 205.424C202.667 205.424 199.147 199.546 197.257 198.05C197.257 198.05 201.236 204.515 202.667 205.424Z" fill="#EA9C75"/>
<g style="mix-blend-mode:multiply" opacity="0.2">
<path d="M205.651 208.859C205.421 208.989 205.154 209.172 205.161 209.447C205.168 209.54 205.194 209.631 205.238 209.714C205.504 210.294 205.835 210.842 206.225 211.347C206.462 211.681 206.764 211.964 207.113 212.179C207.287 212.285 207.483 212.349 207.686 212.366C207.889 212.383 208.094 212.353 208.283 212.279C208.545 212.108 208.757 211.873 208.901 211.596C209.044 211.319 209.114 211.01 209.102 210.699C209.17 209.736 209.01 208.771 208.635 207.882C208.345 207.225 205.995 208.676 205.651 208.859Z" fill="#D3835B"/>
</g>
<path d="M182.03 142.974L202.997 102.951C202.997 102.951 182.229 102.386 169.167 116.111C158.753 127.058 140.717 166.683 140.679 166.996C140.355 169.084 140.504 171.218 141.115 173.24C147.198 182.546 175.312 202.126 175.312 202.126L189.996 186.286L169.458 164.233C172.19 160.47 182.03 142.974 182.03 142.974Z" fill="#A82D35"/>
<path d="M228.218 103.067L215.714 112.227L202.928 103.128L205.292 83.1129C205.292 83.1129 219.326 79.5709 224.828 78.3267C225.241 80.548 228.218 103.067 228.218 103.067Z" fill="#F3B18C"/>
<g style="mix-blend-mode:multiply" opacity="0.3">
<path d="M227.26 95.8748C201.756 99.5924 205.345 83.6154 205.345 83.6154C205.345 83.6154 219.516 79.9742 225.018 78.73C225.332 81.2032 226.113 86.9131 227.26 95.8748Z" fill="#F3B18C"/>
</g>
<path d="M236.664 49.5166C235.861 46.2724 194.127 46.9059 194.9 48.196C186.773 78.6537 201.06 93.4627 215.376 93.2337C229.288 93.0505 243.222 78.6919 236.664 49.5166Z" fill="#F3B18C"/>
<path d="M219.425 76.6856C219.515 76.6864 219.603 76.71 219.681 76.7542C219.759 76.7983 219.825 76.8616 219.871 76.938C219.918 77.0143 219.944 77.1013 219.948 77.1907C219.952 77.2801 219.933 77.369 219.892 77.4489C219.61 77.9831 219.249 78.472 218.821 78.8993C217.206 80.4947 213.709 80.426 211.789 78.9451C211.239 78.5329 210.802 77.9895 210.519 77.3649C210.48 77.2831 210.462 77.1926 210.468 77.1022C210.474 77.0117 210.502 76.9242 210.551 76.8479C210.6 76.7715 210.668 76.7089 210.748 76.6658C210.828 76.6227 210.917 76.6006 211.008 76.6016L219.425 76.6856Z" fill="#1B2433"/>
<path d="M218.821 78.9057C216.985 80.6538 213.71 80.4324 211.789 78.9515C212.973 78.6567 214.189 78.513 215.408 78.524C216.557 78.5174 217.703 78.6455 218.821 78.9057Z" fill="#FE6259"/>
<path d="M236.06 46.243C232.678 42.3651 199.33 44.8079 196.828 45.8842C192.849 47.5865 192.122 63.0367 192.122 63.0367C192.122 63.0367 194.747 63.6932 194.747 69.9068C194.747 70.319 196.683 68.6397 196.545 62.7619C196.545 62.5176 196.545 62.2733 196.545 61.9985C196.595 58.9526 197.847 56.049 200.028 53.9172C202.21 51.7853 205.145 50.5969 208.199 50.6093H222.738C224.281 50.6042 225.811 50.9052 227.237 51.4949C228.663 52.0846 229.957 52.9512 231.044 54.0444C232.131 55.1375 232.99 56.4354 233.57 57.8625C234.15 59.2896 234.44 60.8175 234.422 62.3573C234.422 62.3955 234.422 62.4336 234.422 62.4718C234.285 68.3496 236.221 70.0366 236.221 69.6168C236.221 63.4336 238.845 62.7466 238.845 62.7466C238.845 62.7466 239.335 49.991 236.06 46.243Z" fill="#3B2C39"/>
<path d="M233.75 68.6014C234.752 64.6778 237.346 62.5633 240.4 62.632C240.837 62.6217 241.273 62.7023 241.677 62.8686C242.053 63.064 242.381 63.3373 242.642 63.6702C243.874 65.1969 244.172 67.2121 244.172 69.1357C244.305 70.8959 243.908 72.6555 243.032 74.1891C242.561 74.8918 241.932 75.4753 241.196 75.8931C240.459 76.311 239.635 76.5517 238.789 76.5962C237.943 76.6406 237.098 76.4876 236.322 76.1493C235.545 75.8109 234.859 75.2966 234.316 74.6471L233.75 68.6014Z" fill="#F3B18C"/>
<g style="mix-blend-mode:multiply">
<path d="M237.262 73.6922C237.565 72.6184 238.086 71.6181 238.792 70.7533C239.522 69.8883 240.512 69.2807 241.616 69.0205" stroke="#E9B0A7" stroke-width="0.92" stroke-linecap="round" stroke-linejoin="round"/>
<path d="M238.594 67.5244C238.393 68.0235 238.321 68.5653 238.387 69.0993C238.453 69.6333 238.653 70.1419 238.969 70.5778" stroke="#E9B0A7" stroke-width="0.92" stroke-linecap="round" stroke-linejoin="round"/>
</g>
<path d="M196.768 68.6014C195.765 64.6778 193.171 62.5633 190.118 62.632C189.68 62.6217 189.245 62.7023 188.84 62.8686C188.465 63.064 188.136 63.3373 187.876 63.6702C186.644 65.1969 186.345 67.2121 186.345 69.1357C186.21 70.8951 186.604 72.6549 187.478 74.1891C187.95 74.8919 188.579 75.4754 189.316 75.8932C190.053 76.311 190.878 76.5517 191.725 76.5962C192.571 76.6406 193.417 76.4876 194.194 76.1493C194.971 75.811 195.658 75.2967 196.201 74.6471L196.768 68.6014Z" fill="#F3B18C"/>
<g style="mix-blend-mode:multiply">
<path d="M193.248 73.6922C192.948 72.617 192.427 71.616 191.717 70.7533C190.985 69.8899 189.996 69.2827 188.894 69.0205" stroke="#E9B0A7" stroke-width="0.92" stroke-linecap="round" stroke-linejoin="round"/>
<path d="M191.924 67.5244C192.125 68.0235 192.196 68.5653 192.131 69.0993C192.065 69.6333 191.865 70.1419 191.549 70.5778" stroke="#E9B0A7" stroke-width="0.92" stroke-linecap="round" stroke-linejoin="round"/>
</g>
<path d="M203.685 61.8522C204.314 61.5405 205.001 61.3613 205.702 61.3259C206.404 61.2904 207.105 61.3994 207.763 61.6461C208.175 61.7693 208.546 62.002 208.836 62.3193C209.126 62.6367 209.324 63.0267 209.408 63.4476C209.427 63.5665 209.415 63.6884 209.372 63.8009C209.329 63.9134 209.257 64.0127 209.163 64.0888C209.031 64.1566 208.884 64.1907 208.735 64.1881C207.572 64.2415 206.401 64.1346 205.238 64.272C204.309 64.3863 203.408 64.6628 202.575 65.0888C202.147 65.3102 200.318 66.0354 201.251 64.2339C201.77 63.1892 202.628 62.35 203.685 61.8522Z" fill="#2C1629"/>
<path d="M227.085 61.8522C226.456 61.5405 225.769 61.3613 225.067 61.3259C224.366 61.2904 223.664 61.3994 223.007 61.6461C222.595 61.7682 222.224 62.0007 221.935 62.3184C221.646 62.636 221.451 63.0266 221.369 63.4476C221.347 63.5659 221.357 63.6881 221.399 63.801C221.44 63.9139 221.512 64.0134 221.606 64.0888C221.739 64.1566 221.886 64.1907 222.035 64.1881C223.198 64.2415 224.369 64.1346 225.532 64.272C226.461 64.3863 227.362 64.6628 228.195 65.0888C228.623 65.3102 230.452 66.0354 229.518 64.2339C228.999 63.1892 228.142 62.35 227.085 61.8522Z" fill="#2C1629"/>
<path d="M204.365 68.6466C204.449 68.8328 204.569 69.0003 204.719 69.1393C204.869 69.2783 205.045 69.3859 205.237 69.4557C205.604 69.6379 206.022 69.6902 206.422 69.6042C206.823 69.5182 207.182 69.299 207.441 68.9824C207.653 68.7248 207.787 68.4128 207.829 68.0823C207.871 67.7519 207.818 67.4163 207.678 67.1142C207.537 66.8121 207.314 66.5557 207.034 66.3744C206.754 66.1931 206.428 66.0943 206.094 66.0893C204.855 65.9367 203.944 67.5244 204.365 68.6466Z" fill="#2C1629"/>
<path d="M222.578 68.6466C222.661 68.8328 222.782 69.0003 222.932 69.1393C223.081 69.2783 223.258 69.3859 223.45 69.4557C223.818 69.6384 224.237 69.6911 224.639 69.6051C225.04 69.5191 225.401 69.2996 225.661 68.9824C225.873 68.7248 226.007 68.4128 226.049 68.0823C226.091 67.7519 226.039 67.4163 225.898 67.1142C225.758 66.8121 225.534 66.5557 225.254 66.3744C224.974 66.1931 224.648 66.0943 224.315 66.0893C223.067 65.9367 222.18 67.5244 222.578 68.6466Z" fill="#2C1629"/>
<g style="mix-blend-mode:multiply" opacity="0.3">
<path d="M230.864 69.8901C231.599 70.1705 232.242 70.6484 232.722 71.2708C233.201 71.8933 233.498 72.6361 233.581 73.4168C233.699 74.2959 233.588 75.1907 233.258 76.0144C232.929 76.8382 232.391 77.5631 231.698 78.119C230.938 78.7047 230.035 79.0795 229.082 79.2055C228.13 79.3315 227.161 79.2042 226.273 78.8365C225.569 78.5121 224.961 78.011 224.509 77.3821C224.057 76.7533 223.776 76.0182 223.694 75.2488C223.658 74.4237 223.79 73.5999 224.082 72.8271C224.374 72.0543 224.82 71.3486 225.393 70.7527C226.648 69.5847 229.242 69.3405 230.864 69.8901Z" fill="#F3B18C"/>
</g>
<g style="mix-blend-mode:multiply" opacity="0.3">
<path d="M203.471 69.8901C204.206 70.1705 204.849 70.6484 205.328 71.2708C205.808 71.8933 206.105 72.6361 206.187 73.4168C206.306 74.2959 206.195 75.1907 205.865 76.0144C205.535 76.8382 204.998 77.5631 204.305 78.119C203.546 78.7047 202.644 79.0796 201.693 79.2056C200.741 79.3317 199.773 79.2043 198.887 78.8365C198.181 78.5137 197.571 78.0132 197.118 77.3842C196.664 76.7552 196.383 76.0193 196.301 75.2488C196.264 74.4237 196.396 73.5999 196.688 72.8271C196.98 72.0543 197.426 71.3486 198 70.7527C199.224 69.5847 201.849 69.3405 203.471 69.8901Z" fill="#F3B18C"/>
</g>
<g style="mix-blend-mode:multiply">
<path d="M216.28 63.3345C215.438 66.3879 213.288 70.6397 213.38 72.0367C213.42 72.3607 213.551 72.6669 213.758 72.9196C213.965 73.1723 214.24 73.3611 214.551 73.4641C215.177 73.6677 215.858 73.6184 216.448 73.3267" stroke="#E9B0A7" stroke-width="0.92" stroke-linecap="round" stroke-linejoin="round"/>
</g>
<path d="M189.843 60.6239C189.2 60.4407 189.307 59.456 189.307 58.7919C189.307 48.1431 191.037 32.6547 215.324 33.0059C223.535 33.128 228.593 36.4104 229.167 39.6088C230.177 45.3874 194.059 61.8376 189.843 60.6239Z" fill="#2C1629"/>
<path d="M226.901 56.9057C227.345 57.1576 227.957 57.3637 228.301 56.9896C228.436 56.8192 228.513 56.6109 228.523 56.3942C228.669 55.3472 228.487 54.281 228.003 53.3408C228.936 55.2797 231.064 57.5316 232.724 57.1576C233.956 56.898 233.329 53.8828 232.724 52.5011C233.382 53.6538 237.369 58.2339 240.009 57.0202C241.08 56.5316 241.333 43.1653 234.499 38.8753C231.508 36.9975 227.131 35.8906 224.361 38.112C222.866 39.3347 221.711 40.919 221.005 42.7137C220.299 44.5084 220.066 46.4536 220.328 48.3638C220.81 51.7912 224.054 55.2721 226.901 56.9057Z" fill="#2C1629"/>
<path d="M197.908 56.2873C196.901 57.0641 195.996 57.9643 195.214 58.9666C194.947 59.269 194.748 59.6258 194.633 60.0124C194.577 60.2072 194.578 60.4137 194.635 60.6082C194.692 60.8026 194.803 60.9771 194.954 61.1116C195.205 61.2325 195.482 61.287 195.759 61.2696C196.037 61.2522 196.305 61.1636 196.538 61.0124C198.884 59.9656 201.084 58.6184 203.081 57.0048L201.29 59.2949C201.092 59.5068 200.962 59.7724 200.915 60.0582C200.933 60.2824 201.031 60.4927 201.191 60.651C201.351 60.8093 201.563 60.905 201.788 60.9208C202.241 60.9375 202.69 60.8236 203.081 60.5926C205.376 59.4399 207.045 57.4704 208.697 55.5468C208.085 56.4552 207.442 57.4628 207.542 58.5468C207.546 58.6805 207.589 58.8103 207.664 58.9208C207.772 59.0438 207.922 59.1226 208.085 59.1422C209.133 59.3407 210.09 58.5773 210.855 57.8369C212.386 56.3865 213.809 54.8522 215.179 53.2568C215.01 53.9667 214.49 54.7835 214.697 55.5086C214.808 55.7789 215.006 56.0051 215.259 56.1526C215.512 56.3002 215.806 56.3609 216.097 56.3254C216.677 56.2311 217.225 55.9922 217.688 55.6308C220.102 53.9601 222.053 51.7069 223.359 49.0812L218.27 44.2568L197.908 56.2873Z" fill="#2C1629"/>
<path d="M240.284 53.7004V68.0055H238.586V55.8683L238.302 55.0057C238.049 54.2652 237.889 53.4958 237.828 52.7156C237.629 50.1697 236.766 47.7199 235.326 45.6088C231.515 39.9219 223.94 36.1051 215.561 36.1051C207.182 36.1051 199.606 39.9219 195.811 45.6165C194.372 47.7253 193.509 50.1723 193.309 52.7156C193.246 53.4956 193.087 54.2648 192.834 55.0057L192.551 55.8606V67.9979H190.845V53.7004C190.845 53.624 190.845 53.5477 190.845 53.4714V53.3416C190.933 49.9257 192.029 46.6117 193.997 43.815C198.237 37.7082 206.302 33.5326 215.553 33.5326C221.822 33.451 227.934 35.4906 232.893 39.3188C234.51 40.6081 235.93 42.1252 237.109 43.8226C239.083 46.6139 240.183 49.9266 240.269 53.3416V53.4256C240.277 53.5172 240.284 53.6088 240.284 53.7004Z" fill="#A82D35"/>
<path d="M189.161 60.0361H191.388C192.336 60.0361 193.245 60.4117 193.915 61.0802C194.585 61.7488 194.961 62.6555 194.961 63.601V75.2955C194.961 76.241 194.585 77.1477 193.915 77.8162C193.245 78.4848 192.336 78.8604 191.388 78.8604H189.161V60.0361Z" fill="#A82D35"/>
<path d="M191.44 75.6011C191.44 75.6011 197.355 83.7689 215.093 83.7689" stroke="#A82D35" stroke-width="2.07" stroke-miterlimit="10"/>
<path d="M214.482 81.8223H210.924C210.273 81.8223 209.745 82.3486 209.745 82.9978V84.2039C209.745 84.8532 210.273 85.3795 210.924 85.3795H214.482C215.133 85.3795 215.66 84.8532 215.66 84.2039V82.9978C215.66 82.3486 215.133 81.8223 214.482 81.8223Z" fill="#002E42"/>
<path d="M189.399 60.0435V78.8524C188.313 78.8528 187.269 78.4303 186.49 77.6747C185.711 76.9191 185.259 75.8901 185.229 74.8067V64.1961C185.227 63.9761 185.244 63.7564 185.282 63.5396C185.44 62.564 185.941 61.6765 186.696 61.0359C187.45 60.3953 188.408 60.0435 189.399 60.0435Z" fill="#002E42"/>
<path d="M241.846 78.8754H239.635C239.165 78.8784 238.699 78.789 238.264 78.6121C237.828 78.4353 237.432 78.1745 237.098 77.8448C236.764 77.5151 236.499 77.1229 236.317 76.6907C236.135 76.2584 236.04 75.7946 236.038 75.3258V63.6313C236.037 63.1606 236.13 62.6943 236.31 62.2594C236.491 61.8245 236.756 61.4296 237.09 61.0975C237.425 60.7654 237.822 60.5026 238.258 60.3243C238.695 60.146 239.163 60.0558 239.635 60.0588H241.861V78.8754H241.846Z" fill="#A82D35"/>
<path d="M241.609 60.0435L241.51 78.9898C242.619 78.9675 243.679 78.5239 244.472 77.7496C245.266 76.9752 245.733 75.9282 245.78 74.8219C245.783 74.7813 245.783 74.7404 245.78 74.6998V64.2114C245.783 63.991 245.762 63.7709 245.718 63.5549C245.565 62.5772 245.067 61.6861 244.314 61.0423C243.56 60.3986 242.601 60.0443 241.609 60.0435Z" fill="#002E42"/>
<path d="M398 217.843H46V230.713H398V217.843Z" fill="#A7A6AE"/>
<path d="M266.064 217.828H162.594L164.239 210.722H264.427L266.064 217.828Z" fill="#B4BFF9"/>
<path d="M192.222 110.966H69.729C66.7073 110.966 64.2578 113.409 64.2578 116.424V195.27C64.2578 198.285 66.7073 200.728 69.729 200.728H192.222C195.244 200.728 197.694 198.285 197.694 195.27V116.424C197.694 113.409 195.244 110.966 192.222 110.966Z" fill="#002E42"/>
<g style="mix-blend-mode:screen" opacity="0.8">
<path d="M139.461 142.607C139.463 144.282 138.967 145.919 138.035 147.313C137.103 148.706 135.779 149.792 134.228 150.434C132.678 151.076 130.971 151.245 129.324 150.919C127.678 150.593 126.165 149.787 124.977 148.604C123.79 147.42 122.981 145.912 122.653 144.269C122.325 142.627 122.492 140.924 123.134 139.377C123.777 137.83 124.864 136.507 126.26 135.577C127.656 134.646 129.297 134.149 130.975 134.149C133.224 134.151 135.38 135.043 136.971 136.628C138.562 138.214 139.457 140.364 139.461 142.607Z" fill="#A7A6AE"/>
</g>
<path d="M144.696 218.003H117.982L121.884 167.656H140.794L144.696 218.003Z" fill="#A7A6AE"/>
<path d="M367.444 38H307.018C301.485 38 297 42.2734 297 47.545V70.0668C297 75.3383 301.485 79.6118 307.018 79.6118H367.444C372.977 79.6118 377.463 75.3383 377.463 70.0668V47.545C377.463 42.2734 372.977 38 367.444 38Z" fill="#FE6259"/>
<path opacity="0.4" d="M366.749 45.4502H307.72C304.951 45.4502 302.707 47.5884 302.707 50.2261V51.9181C302.707 54.5558 304.951 56.694 307.72 56.694H366.749C369.518 56.694 371.762 54.5558 371.762 51.9181V50.2261C371.762 47.5884 369.518 45.4502 366.749 45.4502Z" fill="white"/>
<path d="M309.01 62.9567L310.07 65.0035L312.433 65.331C312.634 65.3579 312.822 65.4379 312.977 65.5619C313.133 65.6858 313.248 65.8488 313.311 66.0322C313.373 66.2157 313.381 66.4122 313.332 66.5994C313.283 66.7867 313.18 66.9571 313.035 67.0913L311.323 68.681L311.731 70.9256C311.765 71.1157 311.742 71.311 311.665 71.4894C311.589 71.6678 311.462 71.8224 311.298 71.9358C311.134 72.0491 310.941 72.1168 310.739 72.1312C310.537 72.1456 310.335 72.1062 310.156 72.0173L308.008 70.9598L305.859 72.0173C305.68 72.1071 305.478 72.1472 305.276 72.133C305.075 72.1189 304.881 72.0512 304.718 71.9375C304.554 71.8237 304.428 71.6686 304.352 71.4898C304.277 71.3109 304.256 71.1155 304.291 70.9256L304.692 68.681L302.98 67.0913C302.835 66.9571 302.732 66.7867 302.683 66.5994C302.634 66.4122 302.642 66.2157 302.704 66.0322C302.767 65.8488 302.883 65.6858 303.038 65.5619C303.193 65.4379 303.382 65.3579 303.582 65.331L305.945 65.0035L307.005 62.9567C307.086 62.7664 307.224 62.6034 307.403 62.4886C307.582 62.3738 307.792 62.3125 308.008 62.3125C308.223 62.3125 308.434 62.3738 308.612 62.4886C308.791 62.6034 308.929 62.7664 309.01 62.9567Z" fill="#FFC55A"/>
<path d="M323.611 62.9574L324.664 65.0042L327.034 65.3317C327.235 65.3586 327.423 65.4386 327.578 65.5626C327.733 65.6865 327.849 65.8495 327.912 66.0329C327.974 66.2164 327.982 66.4129 327.933 66.6001C327.884 66.7874 327.781 66.9578 327.636 67.092L325.895 68.7022L326.297 70.9468C326.332 71.1366 326.311 71.3321 326.235 71.5109C326.16 71.6898 326.033 71.8449 325.87 71.9586C325.706 72.0723 325.513 72.1401 325.311 72.1542C325.109 72.1683 324.907 72.1282 324.728 72.0385L322.58 70.9809L320.432 72.0385C320.252 72.1273 320.05 72.1668 319.848 72.1524C319.647 72.138 319.453 72.0703 319.289 71.9569C319.126 71.8436 318.999 71.689 318.922 71.5106C318.845 71.3321 318.823 71.1369 318.856 70.9468L319.264 68.7022L317.553 67.1124C317.407 66.9782 317.304 66.8078 317.255 66.6206C317.207 66.4334 317.214 66.2369 317.277 66.0534C317.339 65.87 317.455 65.707 317.61 65.583C317.765 65.459 317.954 65.3791 318.154 65.3522L320.517 65.0247L321.577 62.9779C321.651 62.7779 321.787 62.6044 321.968 62.4809C322.148 62.3574 322.364 62.2899 322.587 62.2877C322.809 62.2854 323.027 62.3485 323.21 62.4684C323.393 62.5882 323.533 62.759 323.611 62.9574Z" fill="#FFC55A"/>
<path d="M338.206 62.9569L339.266 65.0037L341.636 65.3312C341.837 65.3581 342.025 65.4381 342.18 65.5621C342.335 65.686 342.451 65.849 342.514 66.0324C342.576 66.2159 342.584 66.4124 342.535 66.5996C342.486 66.7869 342.383 66.9573 342.238 67.0915L340.519 68.6812L340.927 70.9258C340.96 71.1159 340.938 71.3112 340.861 71.4896C340.785 71.668 340.657 71.8226 340.494 71.936C340.33 72.0493 340.137 72.117 339.935 72.1314C339.733 72.1458 339.531 72.1064 339.352 72.0175L337.203 70.96L335.055 72.0175C334.875 72.1064 334.673 72.1458 334.472 72.1314C334.27 72.117 334.076 72.0493 333.913 71.936C333.749 71.8226 333.622 71.668 333.545 71.4896C333.469 71.3112 333.446 71.1159 333.479 70.9258L333.88 68.6812L332.169 67.0915C332.023 66.9573 331.92 66.7869 331.872 66.5996C331.823 66.4124 331.83 66.2159 331.893 66.0324C331.956 65.849 332.071 65.686 332.226 65.5621C332.381 65.4381 332.57 65.3581 332.77 65.3312L335.205 65.0037L336.265 62.9569C336.354 62.7842 336.492 62.6387 336.664 62.537C336.835 62.4353 337.033 62.3813 337.235 62.3813C337.438 62.3813 337.635 62.4353 337.807 62.537C337.978 62.6387 338.117 62.7842 338.206 62.9569Z" fill="#FFC55A"/>
<path d="M352.807 62.9567L353.867 65.0035L356.23 65.331C356.431 65.3579 356.619 65.4379 356.774 65.5619C356.929 65.6858 357.045 65.8488 357.108 66.0322C357.17 66.2157 357.178 66.4122 357.129 66.5994C357.08 66.7867 356.977 66.9571 356.832 67.0913L355.12 68.681L355.528 70.9256C355.562 71.1157 355.539 71.311 355.462 71.4894C355.386 71.6678 355.259 71.8224 355.095 71.9358C354.931 72.0491 354.738 72.1168 354.536 72.1312C354.334 72.1456 354.132 72.1062 353.953 72.0173L351.804 70.9598L349.656 72.0173C349.477 72.1071 349.275 72.1472 349.073 72.133C348.872 72.1189 348.678 72.0512 348.515 71.9375C348.351 71.8237 348.225 71.6686 348.149 71.4898C348.074 71.3109 348.052 71.1155 348.088 70.9256L348.489 68.681L346.777 67.0913C346.632 66.9571 346.529 66.7867 346.48 66.5994C346.431 66.4122 346.439 66.2157 346.501 66.0322C346.564 65.8488 346.68 65.6858 346.835 65.5619C346.99 65.4379 347.178 65.3579 347.379 65.331L349.742 65.0035L350.802 62.9567C350.883 62.7664 351.021 62.6034 351.2 62.4886C351.378 62.3738 351.589 62.3125 351.804 62.3125C352.02 62.3125 352.23 62.3738 352.409 62.4886C352.588 62.6034 352.726 62.7664 352.807 62.9567Z" fill="#FFC55A"/>
<path d="M367.431 62.9567L368.491 65.0035L370.854 65.331C371.055 65.3579 371.243 65.4379 371.398 65.5619C371.553 65.6858 371.669 65.8488 371.732 66.0322C371.794 66.2157 371.802 66.4122 371.753 66.5994C371.704 66.7867 371.601 66.9571 371.456 67.0913L369.744 68.681L370.145 70.9256C370.18 71.1155 370.159 71.3109 370.084 71.4898C370.008 71.6686 369.882 71.8237 369.718 71.9375C369.555 72.0512 369.361 72.1189 369.16 72.133C368.958 72.1472 368.756 72.1071 368.577 72.0173L366.428 70.9598L364.28 72.0173C364.101 72.1062 363.899 72.1456 363.697 72.1312C363.495 72.1168 363.302 72.0491 363.138 71.9358C362.974 71.8224 362.847 71.6678 362.771 71.4894C362.694 71.311 362.671 71.1157 362.705 70.9256L363.113 68.681L361.401 67.0913C361.256 66.9571 361.153 66.7867 361.104 66.5994C361.055 66.4122 361.063 66.2157 361.125 66.0322C361.188 65.8488 361.304 65.6858 361.459 65.5619C361.614 65.4379 361.802 65.3579 362.003 65.331L364.366 65.0035L365.426 62.9567C365.507 62.7664 365.645 62.6034 365.824 62.4886C366.003 62.3738 366.213 62.3125 366.428 62.3125C366.644 62.3125 366.855 62.3738 367.033 62.4886C367.212 62.6034 367.35 62.7664 367.431 62.9567Z" fill="#FFC55A"/>
<path d="M72.8685 65.5664L121.934 65.5664C133.459 65.5664 142.803 55.5916 142.803 43.287V43.2792C142.803 30.9746 133.459 20.9998 121.934 20.9998L72.8685 20.9998C61.3429 20.9998 51.9995 30.9746 51.9995 43.2792V43.287C51.9995 55.5916 61.3429 65.5664 72.8685 65.5664Z" fill="#A82D35"/>
<path d="M125.475 78.2227V60.4189H99.7266L118.927 81.1532C119.463 81.7332 120.147 82.1284 120.891 82.2885C121.636 82.4487 122.407 82.3667 123.109 82.0529C123.81 81.7391 124.409 81.2076 124.83 80.5258C125.252 79.8439 125.476 79.0424 125.475 78.2227Z" fill="#A82D35"/>
<path d="M70.383 53V50.4007L76.4564 44.7772C76.9729 44.2773 77.4061 43.8274 77.756 43.4275C78.1115 43.0276 78.3809 42.6361 78.5641 42.2528C78.7474 41.8641 78.8391 41.4447 78.8391 40.9948C78.8391 40.495 78.7252 40.0645 78.4975 39.7035C78.2698 39.3369 77.9587 39.0565 77.5644 38.8621C77.1701 38.6621 76.723 38.5621 76.2231 38.5621C75.701 38.5621 75.2456 38.6677 74.8568 38.8787C74.468 39.0898 74.1681 39.3925 73.957 39.7868C73.746 40.1812 73.6404 40.6505 73.6404 41.1948H70.2163C70.2163 40.0784 70.4691 39.1092 70.9745 38.2872C71.4799 37.4652 72.188 36.8293 73.0989 36.3794C74.0098 35.9295 75.0595 35.7046 76.2481 35.7046C77.47 35.7046 78.5336 35.9212 79.4389 36.3544C80.3498 36.7821 81.0579 37.3763 81.5633 38.1373C82.0688 38.8982 82.3215 39.7702 82.3215 40.7532C82.3215 41.3975 82.1937 42.0335 81.9382 42.6611C81.6883 43.2887 81.2412 43.9857 80.5969 44.7522C79.9527 45.5131 79.0446 46.4267 77.8727 47.4931L75.3816 49.9341V50.0508H82.5464V53H70.383ZM84.5355 50.0008V47.1599L91.6586 35.9378H94.108V39.8701H92.6583L88.1679 46.9766V47.1099H98.2902V50.0008H84.5355ZM92.725 53V49.1344L92.7916 47.8764V35.9378H96.1741V53H92.725ZM108.158 35.138L102.66 55.566H99.6023L105.101 35.138H108.158ZM110.51 53L117.583 39.0037V38.8871H109.344V35.9378H121.315V38.9287L114.234 53H110.51Z" fill="#F6F6FD"/>
<path d="M473.351 43.2177L473.343 43.2094L473.336 43.2013C468.889 38.4628 468.889 31.7429 473.336 27.0044L473.343 26.9963L473.351 26.988L535.412 -42.1758L535.413 -42.1778L565.121 -75.4662C568.429 -78.9216 572.971 -80.9999 578.372 -80.9999H674.523C681.41 -80.9999 686.752 -77.6851 689.344 -73.3449C691.918 -69.034 691.824 -63.6665 687.772 -59.2559L687.764 -59.2466L611.725 25.6445C606.567 31.1492 606.567 39.0564 611.725 44.5612L687.764 129.452L687.764 129.452L687.772 129.462C691.824 133.872 691.918 139.24 689.344 143.551C686.752 147.891 681.41 151.206 674.523 151.206H578.372C572.971 151.206 568.429 149.127 565.121 145.672L535.413 112.383L535.412 112.381L473.351 43.2177Z" stroke="#AF0000" stroke-width="2"/>
<g style="mix-blend-mode:multiply">
<path d="M464.347 220.452L464.341 220.445L464.335 220.439C459.888 215.7 459.888 208.981 464.335 204.242L464.343 204.233L464.351 204.224L512.421 150.437C512.422 150.436 512.423 150.435 512.424 150.433C515.697 146.839 520.65 145 525.667 145C530.683 145 535.637 146.839 538.91 150.434C538.911 150.435 538.912 150.436 538.913 150.437L597.909 216.301L597.917 216.31C601.969 220.721 602.063 226.089 599.489 230.4C596.897 234.74 591.556 238.055 584.668 238.055H488.517C483.115 238.055 478.572 235.975 475.264 232.518L464.347 220.452Z" stroke="#00194F" stroke-width="2"/>
</g>
</g>
<defs>
<clipPath id="clip0_525_19889">
<rect width="581" height="232" rx="20" fill="white"/>
</clipPath>
</defs>
</svg>
