<svg width="40" height="40" viewBox="0 0 40 40" fill="none" xmlns="http://www.w3.org/2000/svg">
<path d="M36.3319 24.3267C36.3331 26.1075 35.8194 27.8485 34.8557 29.3296C33.892 30.8107 32.5217 31.9653 30.9181 32.6472C29.3146 33.3291 27.5499 33.5077 25.8473 33.1603C24.1448 32.813 22.5809 31.9554 21.3537 30.696C20.1265 29.4366 19.291 27.8321 18.953 26.0855C18.6151 24.3388 18.7898 22.5286 19.4551 20.8838C20.1204 19.2391 21.2464 17.8338 22.6905 16.8457C24.1347 15.8577 25.8321 15.3313 27.568 15.3333C29.8921 15.3358 32.1203 16.2843 33.7633 17.9704C35.4064 19.6566 36.3302 21.9426 36.3319 24.3267Z" fill="#AF0000"/>
<path d="M35.0086 24.3266C35.0086 25.8385 34.5715 27.3164 33.7525 28.5733C32.9335 29.8302 31.7694 30.8097 30.4077 31.3879C29.0459 31.966 27.5475 32.1168 26.1022 31.8211C24.6568 31.5254 23.3294 30.7966 22.288 29.7269C21.2465 28.6572 20.5377 27.2946 20.2514 25.8115C19.965 24.3285 20.1139 22.7916 20.6792 21.3954C21.2445 19.9992 22.2008 18.8063 23.4271 17.9678C24.6534 17.1292 26.0947 16.6827 27.5685 16.6846C29.5426 16.6872 31.435 17.4934 32.83 18.9263C34.2251 20.3592 35.0086 22.3015 35.0086 24.3266Z" fill="white"/>
<path d="M32.1869 24.3268C32.1869 25.2662 31.9152 26.1846 31.4062 26.9656C30.8972 27.7466 30.1738 28.3551 29.3276 28.7142C28.4813 29.0733 27.5502 29.1667 26.6521 28.9827C25.754 28.7988 24.9294 28.3456 24.2824 27.6806C23.6355 27.0156 23.1955 26.1687 23.018 25.2471C22.8404 24.3254 22.9335 23.3705 23.2852 22.5031C23.637 21.6357 24.2317 20.8948 24.9941 20.3743C25.7564 19.8538 26.6522 19.5769 27.568 19.5789C28.7939 19.5814 29.9687 20.0828 30.8346 20.9729C31.7006 21.8631 32.1869 23.0692 32.1869 24.3268Z" fill="white"/>
<path d="M30.7466 24.3267C30.7472 24.974 30.5605 25.6069 30.2102 26.1453C29.8599 26.6837 29.3617 27.1033 28.7787 27.351C28.1957 27.5987 27.5542 27.6634 26.9354 27.5368C26.3165 27.4102 25.7483 27.098 25.3025 26.6399C24.8568 26.1817 24.5536 25.5981 24.4314 24.9631C24.3092 24.328 24.3735 23.67 24.6162 23.0725C24.8588 22.4749 25.2689 21.9647 25.7944 21.6064C26.3199 21.2481 26.9373 21.0579 27.5683 21.0598C28.4118 21.0615 29.2202 21.4065 29.8161 22.0189C30.4119 22.6314 30.7466 23.4614 30.7466 24.3267Z" fill="#AF0000"/>
<path d="M29.4635 24.3269C29.4635 24.7115 29.3523 25.0874 29.1441 25.4072C28.9358 25.727 28.6397 25.9762 28.2933 26.1234C27.947 26.2706 27.5658 26.3091 27.1981 26.234C26.8304 26.159 26.4927 25.9738 26.2276 25.7019C25.9625 25.4299 25.7819 25.0834 25.7088 24.7062C25.6356 24.329 25.6732 23.938 25.8167 23.5827C25.9601 23.2274 26.2031 22.9237 26.5148 22.71C26.8265 22.4964 27.193 22.3823 27.5679 22.3823C28.0707 22.3823 28.5528 22.5872 28.9083 22.9519C29.2638 23.3165 29.4635 23.8111 29.4635 24.3269Z" fill="white"/>
<path d="M38.5662 19.0985L29.5674 23.1931L29.8364 23.8152L38.8352 19.7206L38.5662 19.0985Z" fill="#AF0000"/>
<path fill-rule="evenodd" clip-rule="evenodd" d="M31.5297 24.6865L29.7163 23.5619L30.0796 21.3257L27.5269 24.4953L31.5297 24.6865Z" fill="#00194F"/>
<path fill-rule="evenodd" clip-rule="evenodd" d="M39.9993 20.0487L38.8967 19.3648L39.1179 18.0037L37.652 18.668L37.4087 20.0033L38.5113 20.7228L39.9993 20.0487Z" fill="#AF0000"/>
<path d="M9.49979 20.9692H5.49381V19.7084C5.52914 19.3263 5.4761 18.941 5.339 18.5839C5.28234 18.5004 5.20508 18.434 5.11515 18.3913C5.02522 18.3486 4.92585 18.3311 4.82719 18.3408C4.70949 18.3358 4.59263 18.3633 4.48875 18.4203C4.38487 18.4772 4.29774 18.5617 4.2364 18.6649C4.08436 18.9699 4.01559 19.3115 4.03737 19.6533C4.0116 20.0976 4.08846 20.5417 4.26168 20.9497C4.40701 21.2381 4.8114 21.5979 5.48117 21.99C7.40202 23.1589 8.61203 24.1182 9.1112 24.868C9.61037 25.6177 9.8589 26.8265 9.85679 28.4945C9.85679 29.7034 9.71778 30.5979 9.44293 31.1715C9.08209 31.8251 8.51653 32.3345 7.838 32.6169C6.97103 33.0222 6.02612 33.2216 5.07362 33.2003C4.04739 33.2251 3.03125 32.9879 2.11652 32.51C1.3942 32.1615 0.823498 31.5507 0.514753 30.7956C0.225472 29.8407 0.0972582 28.8422 0.135639 27.8431V26.738H4.14163V28.8089C4.1057 29.2261 4.16297 29.6461 4.30907 30.0372C4.37627 30.1336 4.4673 30.21 4.57279 30.2584C4.67829 30.3068 4.79445 30.3256 4.90933 30.3127C5.03521 30.3178 5.16014 30.2883 5.27122 30.2274C5.38229 30.1664 5.47549 30.0761 5.54119 29.9659C5.70393 29.6523 5.78244 29.3 5.76866 28.945C5.76866 27.9425 5.63597 27.2878 5.37059 26.981C4.74897 26.3987 4.07275 25.8809 3.3518 25.4351C2.60744 24.9548 1.89503 24.4243 1.21928 23.8471C0.83064 23.4585 0.531633 22.9857 0.344154 22.4632C0.095317 21.7484 -0.020425 20.9921 0.00294902 20.2335C0.00294902 18.9371 0.165124 17.9843 0.489478 17.375C0.850078 16.7385 1.40533 16.2418 2.06913 15.962C2.89846 15.6009 3.79391 15.4273 4.69451 15.4531C5.67663 15.4251 6.65305 15.6153 7.55683 16.0106C8.23039 16.2689 8.79101 16.7669 9.13647 17.4139C9.39238 17.9778 9.52191 18.9339 9.52191 20.2886L9.49979 20.9692Z" fill="#AF0000"/>
<path d="M11.2056 15.8193H18.4056V19.2223H15.5275V22.4632H18.2224V25.7041H15.5275V29.4279H18.6868V32.834H11.2056V15.8193Z" fill="#AF0000"/>
<path fill-rule="evenodd" clip-rule="evenodd" d="M36.1919 3.7696e-09H23.7504C22.9297 0.00506579 22.1445 0.321575 21.5665 0.88027C20.9886 1.43896 20.665 2.19437 20.6665 2.98122V7.43251C20.665 8.1924 20.9662 8.92416 21.5087 9.47826C22.0511 10.0324 22.7937 10.367 23.5848 10.4137V13.3457C23.5862 13.4732 23.6257 13.5977 23.6986 13.7044C23.7714 13.8112 23.8747 13.8957 23.996 13.9479C24.0746 13.9772 24.1574 13.9947 24.2416 13.9999C24.4272 13.9916 24.6026 13.9163 24.7327 13.7891L28.3078 10.4137H36.1919C37.0195 10.4138 37.8137 10.1006 38.4019 9.5424C38.9901 8.98416 39.3247 8.22594 39.3329 7.43251V2.98122C39.3247 2.18779 38.9901 1.42957 38.4019 0.871331C37.8137 0.313094 37.0195 -3.96704e-05 36.1919 3.7696e-09Z" fill="#00194F"/>
<path fill-rule="evenodd" clip-rule="evenodd" d="M33.6849 3.95844L29.7814 7.70069C29.6091 7.84844 29.3872 7.93199 29.1561 7.93614C29.0402 7.93969 28.9248 7.92065 28.8168 7.88018C28.7088 7.83971 28.6105 7.77865 28.5279 7.70069L26.3977 5.63383C26.2398 5.48019 26.1514 5.27321 26.1514 5.05758C26.1514 4.84194 26.2398 4.63495 26.3977 4.48131C26.5636 4.33095 26.7833 4.24718 27.0116 4.24718C27.2399 4.24718 27.4596 4.33095 27.6255 4.48131L29.1561 5.92127L32.457 2.7539C32.623 2.60354 32.8426 2.51978 33.071 2.51978C33.2993 2.51978 33.5189 2.60354 33.6849 2.7539C33.843 2.91782 33.9309 3.13289 33.9309 3.35617C33.9309 3.57945 33.843 3.79452 33.6849 3.95844Z" fill="white"/>
</svg>
