<svg width="32" height="32" viewBox="0 0 32 32" fill="none" xmlns="http://www.w3.org/2000/svg">
<g id="Group">
<path id="Path" d="M24.6697 9.26818L21.5153 5.06229C20.6658 3.92959 19.0794 3.65785 17.9013 4.44323L10.5703 9.33055" stroke="#333333" stroke-width="2.5" stroke-linecap="round" stroke-linejoin="round"/>
<path id="Path_2" fill-rule="evenodd" clip-rule="evenodd" d="M24.6697 15.333H28.0044C28.7411 15.333 29.3383 15.9302 29.3383 16.6669V20.6686C29.3383 21.4052 28.7411 22.0025 28.0044 22.0025H24.6697C22.828 22.0025 21.335 20.5094 21.335 18.6677V18.6677C21.335 16.826 22.828 15.333 24.6697 15.333V15.333Z" stroke="#333333" stroke-width="2.5" stroke-linecap="round" stroke-linejoin="round"/>
<path id="Path_3" d="M28.0051 15.3331V12.6653C28.0051 10.8236 26.5121 9.33057 24.6704 9.33057H7.32984C5.48812 9.33057 3.99512 10.8236 3.99512 12.6653V24.6703C3.99512 26.512 5.48812 28.005 7.32984 28.005H24.6704C26.5121 28.005 28.0051 26.512 28.0051 24.6703V22.0025" stroke="#333333" stroke-width="2.5" stroke-linecap="round" stroke-linejoin="round"/>
</g>
</svg>
