<svg width="27" height="24" viewBox="0 0 27 24" fill="none" xmlns="http://www.w3.org/2000/svg">
<path d="M7.875 22.2521C7.875 22.2521 6.75 22.2521 6.75 21.0793C6.75 19.9066 7.875 16.3882 12.375 16.3882C16.875 16.3882 18 19.9066 18 21.0793C18 22.2521 16.875 22.2521 16.875 22.2521H7.875Z" fill="#140097"/>
<path d="M12.375 15.2154C14.239 15.2154 15.75 13.6402 15.75 11.6971C15.75 9.75393 14.239 8.17871 12.375 8.17871C10.511 8.17871 9 9.75393 9 11.6971C9 13.6402 10.511 15.2154 12.375 15.2154Z" fill="#2F78F1"/>
<path d="M5.86841 22.2521C5.71001 21.919 5.625 21.524 5.625 21.0793C5.625 19.4897 6.38894 17.8548 7.80292 16.7165C7.18436 16.5103 6.46323 16.3882 5.625 16.3882C1.125 16.3882 0 19.9066 0 21.0793C0 22.2521 1.125 22.2521 1.125 22.2521H5.86841Z" fill="#140097"/>
<path d="M5.0625 15.2154C6.6158 15.2154 7.875 13.9027 7.875 12.2835C7.875 10.6642 6.6158 9.3515 5.0625 9.3515C3.5092 9.3515 2.25 10.6642 2.25 12.2835C2.25 13.9027 3.5092 15.2154 5.0625 15.2154Z" fill="#2F78F1"/>
<circle cx="17.7614" cy="7.12501" r="5.76136" fill="#2F78F1"/>
<path fill-rule="evenodd" clip-rule="evenodd" d="M17.7614 3.24438C18.3136 3.24438 18.7614 3.6921 18.7614 4.24438V6.76522H20.0019C20.5542 6.76522 21.0019 7.21293 21.0019 7.76522C21.0019 8.3175 20.5542 8.76522 20.0019 8.76522H18.0114C17.321 8.76522 16.7614 8.20557 16.7614 7.51522V4.24438C16.7614 3.6921 17.2091 3.24438 17.7614 3.24438Z" fill="#140097"/>
</svg>
