<svg width="20" height="20" viewBox="0 0 20 20" fill="none" xmlns="http://www.w3.org/2000/svg">
<rect x="3.75" y="1.25" width="12.5" height="17.5" fill="#2F78F1"/>
<path d="M2.5 2.5C2.5 1.11929 3.61929 0 5 0H15C16.3807 0 17.5 1.11929 17.5 2.5V17.5C17.5 18.8807 16.3807 20 15 20H5C3.61929 20 2.5 18.8807 2.5 17.5V2.5ZM5 3.125V5.625C5 5.97018 5.27982 6.25 5.625 6.25H14.375C14.7202 6.25 15 5.97018 15 5.625V3.125C15 2.77982 14.7202 2.5 14.375 2.5H5.625C5.27982 2.5 5 2.77982 5 3.125ZM5 8.125V9.375C5 9.72018 5.27982 10 5.625 10H6.875C7.22018 10 7.5 9.72018 7.5 9.375V8.125C7.5 7.77982 7.22018 7.5 6.875 7.5H5.625C5.27982 7.5 5 7.77982 5 8.125ZM5.625 11.25C5.27982 11.25 5 11.5298 5 11.875V13.125C5 13.4702 5.27982 13.75 5.625 13.75H6.875C7.22018 13.75 7.5 13.4702 7.5 13.125V11.875C7.5 11.5298 7.22018 11.25 6.875 11.25H5.625ZM5 15.625V16.875C5 17.2202 5.27982 17.5 5.625 17.5H6.875C7.22018 17.5 7.5 17.2202 7.5 16.875V15.625C7.5 15.2798 7.22018 15 6.875 15H5.625C5.27982 15 5 15.2798 5 15.625ZM9.375 7.5C9.02982 7.5 8.75 7.77982 8.75 8.125V9.375C8.75 9.72018 9.02982 10 9.375 10H10.625C10.9702 10 11.25 9.72018 11.25 9.375V8.125C11.25 7.77982 10.9702 7.5 10.625 7.5H9.375ZM8.75 11.875V13.125C8.75 13.4702 9.02982 13.75 9.375 13.75H10.625C10.9702 13.75 11.25 13.4702 11.25 13.125V11.875C11.25 11.5298 10.9702 11.25 10.625 11.25H9.375C9.02982 11.25 8.75 11.5298 8.75 11.875ZM9.375 15C9.02982 15 8.75 15.2798 8.75 15.625V16.875C8.75 17.2202 9.02982 17.5 9.375 17.5H10.625C10.9702 17.5 11.25 17.2202 11.25 16.875V15.625C11.25 15.2798 10.9702 15 10.625 15H9.375ZM12.5 8.125V9.375C12.5 9.72018 12.7798 10 13.125 10H14.375C14.7202 10 15 9.72018 15 9.375V8.125C15 7.77982 14.7202 7.5 14.375 7.5H13.125C12.7798 7.5 12.5 7.77982 12.5 8.125ZM13.125 11.25C12.7798 11.25 12.5 11.5298 12.5 11.875V16.875C12.5 17.2202 12.7798 17.5 13.125 17.5H14.375C14.7202 17.5 15 17.2202 15 16.875V11.875C15 11.5298 14.7202 11.25 14.375 11.25H13.125Z" fill="#140097"/>
</svg>
