<svg width="21" height="21" viewBox="0 0 21 21" fill="none" xmlns="http://www.w3.org/2000/svg">
<rect x="7" y="12.8334" width="5.83333" height="4.66667" fill="#2F78F1"/>
<path d="M3.5 2.33333C3.5 1.04467 4.54467 0 5.83333 0H12.8333C14.122 0 15.1667 1.04467 15.1667 2.33333V16.3333C15.1667 17.622 14.122 18.6667 12.8333 18.6667H5.83333C4.54467 18.6667 3.5 17.622 3.5 16.3333V2.33333ZM10.5 15.1667C10.5 14.5223 9.97767 14 9.33333 14C8.689 14 8.16667 14.5223 8.16667 15.1667C8.16667 15.811 8.689 16.3333 9.33333 16.3333C9.97767 16.3333 10.5 15.811 10.5 15.1667Z" fill="#140097"/>
<path d="M7.94864 5.86175C8.02114 5.82392 8.10818 5.82392 8.18068 5.86175L10.1247 6.87493C10.1681 6.89757 10.1953 6.94167 10.1953 6.98986C10.1953 7.03805 10.1681 7.08214 10.1247 7.10479L8.12717 8.14568C8.08796 8.16616 8.04111 8.16616 8.0019 8.14568L6.01026 7.10744C5.97598 7.08961 5.94836 7.05997 5.9385 7.02311C5.92247 6.96287 5.95132 6.90263 6.00458 6.87493L7.94864 5.86175Z" fill="#2F78F1"/>
<path d="M10.2718 7.48317V9.84204C10.2718 9.89384 10.2378 9.93986 10.1875 9.95625L8.05256 10.6521L5.91764 9.95673C5.86734 9.94034 5.83331 9.89432 5.83331 9.84252V7.48365C5.83331 7.39185 5.93441 7.33378 6.01652 7.37836L8.05256 8.48358L10.0886 7.37812C10.1707 7.3333 10.2718 7.39137 10.2718 7.48317Z" fill="#2F78F1"/>
<path d="M11.4393 7.77789C11.4828 7.75519 11.535 7.75519 11.5785 7.77789L12.7449 8.3858C12.771 8.39938 12.7872 8.42584 12.7872 8.45475C12.7872 8.48367 12.771 8.51012 12.7449 8.52371L11.5464 9.14825C11.5229 9.16053 11.4947 9.16053 11.4712 9.14825L10.2762 8.5253C10.2557 8.51461 10.2391 8.49682 10.2332 8.4747C10.2236 8.43856 10.2409 8.40242 10.2728 8.3858L11.4393 7.77789Z" fill="#2F78F1"/>
<path d="M12.8333 8.75089V10.1662C12.8333 10.1973 12.8128 10.2249 12.7827 10.2347L11.5017 10.6522L10.2208 10.235C10.1906 10.2252 10.1702 10.1976 10.1702 10.1665V8.75118C10.1702 8.6961 10.2308 8.66126 10.2801 8.688L11.5017 9.35114L12.7233 8.68786C12.7726 8.66097 12.8333 8.69581 12.8333 8.75089Z" fill="#2F78F1"/>
<path d="M16.3334 21C18.9109 21 21 18.9108 21 16.3333C21 13.7557 18.9109 11.6666 16.3334 11.6666C13.7558 11.6666 11.6667 13.7557 11.6667 16.3333C11.6667 18.9108 13.7558 21 16.3334 21Z" fill="#2F78F1"/>
<path d="M15.3854 18.6667C15.3854 18.6667 15.0208 18.6667 15.0208 18.2778C15.0208 17.8889 15.3854 16.7222 16.8437 16.7222C18.3021 16.7222 18.6666 17.8889 18.6666 18.2778C18.6666 18.6667 18.3021 18.6667 18.3021 18.6667H15.3854Z" fill="#140097"/>
<path d="M16.8437 16.3333C17.4478 16.3333 17.9375 15.811 17.9375 15.1667C17.9375 14.5223 17.4478 14 16.8437 14C16.2397 14 15.75 14.5223 15.75 15.1667C15.75 15.811 16.2397 16.3333 16.8437 16.3333Z" fill="#140097"/>
<path d="M14.7351 18.6667C14.6838 18.5562 14.6562 18.4252 14.6562 18.2778C14.6562 17.7507 14.9038 17.2085 15.362 16.8311C15.1616 16.7627 14.9279 16.7222 14.6562 16.7222C13.1979 16.7222 12.8333 17.8889 12.8333 18.2778C12.8333 18.6667 13.1979 18.6667 13.1979 18.6667H14.7351Z" fill="#140097"/>
<path d="M14.4739 16.3333C14.9773 16.3333 15.3854 15.8981 15.3854 15.3611C15.3854 14.8242 14.9773 14.3889 14.4739 14.3889C13.9706 14.3889 13.5625 14.8242 13.5625 15.3611C13.5625 15.8981 13.9706 16.3333 14.4739 16.3333Z" fill="#140097"/>
</svg>
