<svg width="28" height="30" viewBox="0 0 28 30" fill="none" xmlns="http://www.w3.org/2000/svg">
<rect x="7.63635" y="16" width="6.36364" height="5.09091" fill="#2F78F1"/>
<path d="M3.81818 4.54545C3.81818 3.13964 4.95782 2 6.36363 2H14C15.4058 2 16.5454 3.13964 16.5454 4.54545V19.8182C16.5454 21.224 15.4058 22.3636 14 22.3636H6.36363C4.95782 22.3636 3.81818 21.224 3.81818 19.8182V4.54545ZM11.4545 18.5455C11.4545 17.8425 10.8847 17.2727 10.1818 17.2727C9.4789 17.2727 8.90909 17.8425 8.90909 18.5455C8.90909 19.2484 9.4789 19.8182 10.1818 19.8182C10.8847 19.8182 11.4545 19.2484 11.4545 18.5455Z" fill="#140097"/>
<path d="M8.67127 8.3946C8.75036 8.35333 8.84532 8.35333 8.9244 8.3946L11.0452 9.49989C11.0925 9.52459 11.1221 9.5727 11.1221 9.62527C11.1221 9.67784 11.0925 9.72594 11.0452 9.75064L8.86603 10.8862C8.82326 10.9085 8.77215 10.9085 8.72938 10.8862L6.55667 9.75354C6.51928 9.73409 6.48915 9.70175 6.47839 9.66154C6.46091 9.59583 6.49238 9.53011 6.55048 9.49989L8.67127 8.3946Z" fill="#2F78F1"/>
<path d="M11.2056 10.1634V12.7367C11.2056 12.7933 11.1685 12.8435 11.1136 12.8613L8.78464 13.6204L6.45565 12.8619C6.40077 12.844 6.36365 12.7938 6.36365 12.7373V10.164C6.36365 10.0638 6.47394 10.0005 6.56351 10.0491L8.78464 11.2548L11.0058 10.0488C11.0953 9.99994 11.2056 10.0633 11.2056 10.1634Z" fill="#2F78F1"/>
<path d="M12.4792 10.4851C12.5267 10.4604 12.5836 10.4604 12.6311 10.4851L13.9036 11.1483C13.932 11.1631 13.9497 11.192 13.9497 11.2235C13.9497 11.2551 13.932 11.2839 13.9036 11.2988L12.5961 11.9801C12.5704 11.9935 12.5397 11.9935 12.5141 11.9801L11.2104 11.3005C11.188 11.2888 11.1699 11.2694 11.1635 11.2453C11.153 11.2059 11.1719 11.1664 11.2067 11.1483L12.4792 10.4851Z" fill="#2F78F1"/>
<path d="M13.9999 11.5465V13.0905C13.9999 13.1244 13.9776 13.1545 13.9447 13.1653L12.5473 13.6207L11.1499 13.1656C11.117 13.1549 11.0947 13.1247 11.0947 13.0908V11.5468C11.0947 11.4868 11.1609 11.4487 11.2146 11.4779L12.5473 12.2013L13.88 11.4778C13.9337 11.4484 13.9999 11.4864 13.9999 11.5465Z" fill="#2F78F1"/>
<path d="M12.7272 18.0683C12.7272 17.629 13.2971 17.2728 14 17.2728H21.6363C22.3392 17.2728 22.9091 17.629 22.9091 18.0683H12.7272Z" fill="#2F78F1"/>
<path d="M12.7272 18.466V22.841C12.7272 23.2803 13.2971 23.6365 14 23.6365H21.6363C22.3392 23.6365 22.9091 23.2803 22.9091 22.841V18.466H12.7272Z" fill="#2F78F1"/>
<circle cx="21" cy="20.4546" r="0.636364" fill="#140097"/>
</svg>
