<svg width="26" height="26" viewBox="0 0 26 26" fill="none" xmlns="http://www.w3.org/2000/svg">
<rect x="7.09088" y="13" width="5.90909" height="4.72727" fill="#2F78F1"/>
<path d="M3.54547 2.36364C3.54547 1.05824 4.60371 0 5.90911 0H13C14.3054 0 15.3637 1.05824 15.3637 2.36364V16.5455C15.3637 17.8509 14.3054 18.9091 13 18.9091H5.90911C4.60371 18.9091 3.54547 17.8509 3.54547 16.5455V2.36364ZM10.6364 15.3636C10.6364 14.7109 10.1073 14.1818 9.45456 14.1818C8.80186 14.1818 8.27274 14.7109 8.27274 15.3636C8.27274 16.0163 8.80186 16.5455 9.45456 16.5455C10.1073 16.5455 10.6364 16.0163 10.6364 15.3636Z" fill="#140097"/>
<path d="M8.05189 5.9378C8.12533 5.89948 8.2135 5.89948 8.28694 5.9378L10.2562 6.96414C10.3002 6.98708 10.3277 7.03174 10.3277 7.08056C10.3277 7.12937 10.3002 7.17404 10.2562 7.19698L8.23274 8.25139C8.19302 8.27214 8.14556 8.27214 8.10585 8.25139L6.08833 7.19967C6.05361 7.18161 6.02564 7.15159 6.01564 7.11424C5.99941 7.05322 6.02863 6.9922 6.08259 6.96414L8.05189 5.9378Z" fill="#2F78F1"/>
<path d="M10.4052 7.58032V9.96982C10.4052 10.0223 10.3708 10.0689 10.3198 10.0855L8.15718 10.7904L5.99455 10.086C5.94359 10.0694 5.90912 10.0228 5.90912 9.97031V7.58081C5.90912 7.48781 6.01153 7.42899 6.09471 7.47414L8.15718 8.59372L10.2197 7.4739C10.3028 7.4285 10.4052 7.48732 10.4052 7.58032Z" fill="#2F78F1"/>
<path d="M11.5878 7.87894C11.6319 7.85595 11.6848 7.85595 11.7289 7.87894L12.9104 8.49474C12.9368 8.50851 12.9533 8.53531 12.9533 8.5646C12.9533 8.59388 12.9368 8.62068 12.9104 8.63445L11.6963 9.26709C11.6725 9.27954 11.644 9.27954 11.6202 9.26709L10.4097 8.63606C10.3889 8.62522 10.3721 8.60721 10.3661 8.58481C10.3563 8.54819 10.3739 8.51158 10.4063 8.49474L11.5878 7.87894Z" fill="#2F78F1"/>
<path d="M12.9999 8.8645V10.2982C12.9999 10.3297 12.9792 10.3577 12.9487 10.3676L11.6511 10.7905L10.3535 10.3679C10.3229 10.3579 10.3022 10.33 10.3022 10.2985V8.86479C10.3022 8.809 10.3637 8.7737 10.4136 8.8008L11.6511 9.47254L12.8886 8.80065C12.9385 8.77341 12.9999 8.8087 12.9999 8.8645Z" fill="#2F78F1"/>
<circle cx="16.7614" cy="16.7614" r="5.76136" fill="#2F78F1"/>
<path fill-rule="evenodd" clip-rule="evenodd" d="M16.7614 12.8807C17.3136 12.8807 17.7614 13.3285 17.7614 13.8807V16.4016H19.0019C19.5542 16.4016 20.0019 16.8493 20.0019 17.4016C20.0019 17.9539 19.5542 18.4016 19.0019 18.4016H17.0114C16.321 18.4016 15.7614 17.8419 15.7614 17.1516V13.8807C15.7614 13.3285 16.2091 12.8807 16.7614 12.8807Z" fill="#140097"/>
</svg>
