<svg width="24" height="24" viewBox="0 0 24 24" fill="none" xmlns="http://www.w3.org/2000/svg">
<path d="M3.25 5.75H15.75V15.75H3.25V5.75Z" fill="#2F78F1"/>
<path d="M15.125 8.25L18.25 8.875L21.375 12V15.75H15.125V8.25Z" fill="#2F78F1"/>
<ellipse cx="5.75" cy="16.375" rx="2.5" ry="1.875" fill="#2F78F1"/>
<ellipse cx="17" cy="16.375" rx="2.5" ry="1.875" fill="#2F78F1"/>
<path d="M2 6.375C2 5.87772 2.19754 5.40081 2.54917 5.04917C2.90081 4.69754 3.37772 4.5 3.875 4.5H15.125C15.6223 4.5 16.0992 4.69754 16.4508 5.04917C16.8025 5.40081 17 5.87772 17 6.375V8.25H18.275C18.5559 8.25025 18.8332 8.31362 19.0863 8.43543C19.3395 8.55724 19.562 8.73438 19.7375 8.95375L21.5887 11.2663C21.8551 11.599 22.0002 12.0125 22 12.4387V15.125C22 15.6223 21.8025 16.0992 21.4508 16.4508C21.0992 16.8025 20.6223 17 20.125 17H19.5C19.5 17.663 19.2366 18.2989 18.7678 18.7678C18.2989 19.2366 17.663 19.5 17 19.5C16.337 19.5 15.7011 19.2366 15.2322 18.7678C14.7634 18.2989 14.5 17.663 14.5 17H8.25C8.25072 17.3332 8.18481 17.6632 8.05615 17.9706C7.92749 18.278 7.73868 18.5566 7.50081 18.79C7.26294 19.0233 6.98082 19.2068 6.67102 19.3296C6.36123 19.4523 6.03002 19.5119 5.69687 19.5048C5.36371 19.4977 5.03533 19.4241 4.73104 19.2883C4.42674 19.1525 4.15267 18.9572 3.92494 18.7139C3.6972 18.4707 3.5204 18.1843 3.40492 17.8717C3.28944 17.5592 3.23762 17.2266 3.2525 16.8938C2.88631 16.7649 2.56915 16.5255 2.34481 16.2087C2.12046 15.8919 1.99998 15.5132 2 15.125V6.375ZM3.6175 15.695C3.8435 15.325 4.16189 15.0202 4.54137 14.8105C4.92086 14.6007 5.34837 14.4934 5.78191 14.4989C6.21544 14.5045 6.64007 14.6228 7.01407 14.8421C7.38806 15.0614 7.69854 15.3743 7.915 15.75H14.835C15.0549 15.3703 15.3703 15.0549 15.75 14.835V6.375C15.75 6.20924 15.6842 6.05027 15.5669 5.93306C15.4497 5.81585 15.2908 5.75 15.125 5.75H3.875C3.70924 5.75 3.55027 5.81585 3.43306 5.93306C3.31585 6.05027 3.25 6.20924 3.25 6.375V15.125C3.2499 15.2453 3.28452 15.3631 3.34971 15.4642C3.4149 15.5653 3.50788 15.6454 3.6175 15.695ZM17 14.5C17.4388 14.5 17.8699 14.6155 18.25 14.835C18.63 15.0544 18.9456 15.37 19.165 15.75H20.125C20.2908 15.75 20.4497 15.6842 20.5669 15.5669C20.6842 15.4497 20.75 15.2908 20.75 15.125V12.4375C20.7497 12.2957 20.7013 12.1581 20.6125 12.0475L18.7625 9.735C18.704 9.6618 18.6299 9.60268 18.5455 9.562C18.4611 9.52132 18.3687 9.50013 18.275 9.5H17V14.5ZM5.75 15.75C5.41848 15.75 5.10054 15.8817 4.86612 16.1161C4.6317 16.3505 4.5 16.6685 4.5 17C4.5 17.3315 4.6317 17.6495 4.86612 17.8839C5.10054 18.1183 5.41848 18.25 5.75 18.25C6.08152 18.25 6.39946 18.1183 6.63388 17.8839C6.8683 17.6495 7 17.3315 7 17C7 16.6685 6.8683 16.3505 6.63388 16.1161C6.39946 15.8817 6.08152 15.75 5.75 15.75ZM17 15.75C16.6685 15.75 16.3505 15.8817 16.1161 16.1161C15.8817 16.3505 15.75 16.6685 15.75 17C15.75 17.3315 15.8817 17.6495 16.1161 17.8839C16.3505 18.1183 16.6685 18.25 17 18.25C17.3315 18.25 17.6495 18.1183 17.8839 17.8839C18.1183 17.6495 18.25 17.3315 18.25 17C18.25 16.6685 18.1183 16.3505 17.8839 16.1161C17.6495 15.8817 17.3315 15.75 17 15.75Z" fill="#140097"/>
<path d="M8.01643 8.2804C8.0941 8.23987 8.18736 8.23987 8.26504 8.2804L10.348 9.36595C10.3945 9.39021 10.4235 9.43746 10.4235 9.48909C10.4235 9.54072 10.3945 9.58796 10.348 9.61223L8.20771 10.7275C8.1657 10.7494 8.1155 10.7494 8.07349 10.7275L5.93959 9.61507C5.90286 9.59597 5.87327 9.56421 5.8627 9.52471C5.84553 9.46018 5.87644 9.39564 5.93351 9.36595L8.01643 8.2804Z" fill="#140097"/>
<path d="M10.5055 10.0177V12.545C10.5055 12.6005 10.4691 12.6498 10.4152 12.6674L8.12776 13.4129L5.84035 12.6679C5.78646 12.6503 5.75 12.601 5.75 12.5455V10.0182C5.75 9.91982 5.85832 9.8576 5.9463 9.90536L8.12776 11.0895L10.3092 9.9051C10.3972 9.85708 10.5055 9.9193 10.5055 10.0177Z" fill="#140097"/>
<path d="M11.7564 10.3334C11.803 10.3091 11.8589 10.3091 11.9055 10.3334L13.1553 10.9848C13.1832 10.9993 13.2006 11.0277 13.2006 11.0586C13.2006 11.0896 13.1832 11.118 13.1553 11.1325L11.8711 11.8017C11.8459 11.8148 11.8158 11.8148 11.7906 11.8017L10.5103 11.1342C10.4882 11.1228 10.4705 11.1037 10.4641 11.08C10.4538 11.0413 10.4724 11.0026 10.5066 10.9848L11.7564 10.3334Z" fill="#140097"/>
<path d="M13.2499 11.3759V12.8923C13.2499 12.9256 13.228 12.9552 13.1957 12.9658L11.8233 13.4131L10.4508 12.9661C10.4185 12.9555 10.3966 12.926 10.3966 12.8927V11.3762C10.3966 11.3172 10.4616 11.2799 10.5144 11.3085L11.8233 12.019L13.1321 11.3084C13.1849 11.2796 13.2499 11.3169 13.2499 11.3759Z" fill="#140097"/>
</svg>
