<svg width="24" height="26" viewBox="0 0 24 26" fill="none" xmlns="http://www.w3.org/2000/svg">
<rect x="7.57892" y="13.8948" width="6.31579" height="5.05263" fill="#2F78F1"/>
<path d="M3.78949 2.52632C3.78949 1.13107 4.92056 0 6.31581 0H13.8948C15.29 0 16.4211 1.13107 16.4211 2.52632V17.6842C16.4211 19.0795 15.29 20.2105 13.8948 20.2105H6.3158C4.92056 20.2105 3.78949 19.0795 3.78949 17.6842V2.52632ZM11.3684 16.4211C11.3684 15.7234 10.8029 15.1579 10.1053 15.1579C9.40766 15.1579 8.84212 15.7234 8.84212 16.4211C8.84212 17.1187 9.40766 17.6842 10.1053 17.6842C10.8029 17.6842 11.3684 17.1187 11.3684 16.4211Z" fill="#140097"/>
<path d="M8.60604 6.34651C8.68453 6.30556 8.77878 6.30556 8.85727 6.34651L10.9621 7.44349C11.0091 7.46801 11.0385 7.51575 11.0385 7.56793C11.0385 7.6201 11.0091 7.66784 10.9621 7.69236L8.79933 8.81934C8.75688 8.84152 8.70616 8.84152 8.66371 8.81934L6.50734 7.69523C6.47023 7.67593 6.44033 7.64384 6.42965 7.60393C6.4123 7.53871 6.44353 7.47349 6.5012 7.44349L8.60604 6.34651Z" fill="#2F78F1"/>
<path d="M11.1214 8.10202V10.656C11.1214 10.7121 11.0845 10.7619 11.0301 10.7796L8.71859 11.533L6.4071 10.7802C6.35264 10.7624 6.3158 10.7126 6.3158 10.6565V8.10255C6.3158 8.00315 6.42526 7.94028 6.51416 7.98854L8.71859 9.18517L10.923 7.98828C11.0119 7.93976 11.1214 8.00263 11.1214 8.10202Z" fill="#2F78F1"/>
<path d="M12.3854 8.42126C12.4325 8.39669 12.489 8.39669 12.5361 8.42126L13.799 9.07945C13.8272 9.09416 13.8448 9.12281 13.8448 9.15411C13.8448 9.18542 13.8272 9.21406 13.799 9.22877L12.5013 9.90496C12.4759 9.91826 12.4454 9.91826 12.42 9.90496L11.1261 9.2305C11.1039 9.21891 11.0859 9.19966 11.0795 9.17571C11.0691 9.13658 11.0879 9.09745 11.1225 9.07945L12.3854 8.42126Z" fill="#2F78F1"/>
<path d="M13.8946 9.47464V11.007C13.8946 11.0407 13.8725 11.0706 13.8399 11.0812L12.453 11.5333L11.0661 11.0815C11.0334 11.0709 11.0113 11.041 11.0113 11.0073V9.47496C11.0113 9.41532 11.077 9.3776 11.1303 9.40655L12.453 10.1245L13.7756 9.4064C13.829 9.37728 13.8946 9.41501 13.8946 9.47464Z" fill="#2F78F1"/>
<g clip-path="url(#clip0_1024_8013)">
<path d="M24 18.9474C24 22.4355 21.1723 25.2632 17.6842 25.2632C14.1961 25.2632 11.3684 22.4355 11.3684 18.9474C11.3684 15.4593 14.1961 12.6316 17.6842 12.6316C21.1723 12.6316 24 15.4593 24 18.9474Z" fill="#2F78F1"/>
<path fill-rule="evenodd" clip-rule="evenodd" d="M17.6842 24C19.0242 24 20.3094 23.4677 21.2569 22.5201C22.2045 21.5726 22.7368 20.2874 22.7368 18.9474C22.7368 17.6073 22.2045 16.3222 21.2569 15.3746C20.3094 14.4271 19.0242 13.8947 17.6842 13.8947C16.3442 13.8947 15.059 14.4271 14.1114 15.3746C13.1639 16.3222 12.6316 17.6073 12.6316 18.9474C12.6316 20.2874 13.1639 21.5726 14.1114 22.5201C15.059 23.4677 16.3442 24 17.6842 24ZM24 18.9474C24 20.6224 23.3346 22.2289 22.1501 23.4133C20.9657 24.5978 19.3592 25.2632 17.6842 25.2632C16.0091 25.2632 14.4027 24.5978 13.2183 23.4133C12.0338 22.2289 11.3684 20.6224 11.3684 18.9474C11.3684 17.2723 12.0338 15.6659 13.2183 14.4814C14.4027 13.297 16.0091 12.6316 17.6842 12.6316C19.3592 12.6316 20.9657 13.297 22.1501 14.4814C23.3346 15.6659 24 17.2723 24 18.9474Z" fill="#140097"/>
<path d="M15.7112 20.1397C15.7705 20.8926 16.3655 21.4787 17.4328 21.5494V22.1052H17.9065V21.5456C19.0118 21.4686 19.6573 20.8774 19.6573 20.021C19.6573 19.2404 19.1646 18.8387 18.2804 18.6315L17.9065 18.5431V17.0273C18.3815 17.0816 18.6821 17.3406 18.7541 17.6993H19.5853C19.5259 16.973 18.9032 16.4058 17.9065 16.344V15.7894H17.4328V16.3578C16.4893 16.4501 15.8476 17.0172 15.8476 17.8206C15.8476 18.5305 16.3251 18.9827 17.1196 19.1671L17.4328 19.2442V20.8509C16.9478 20.7776 16.6257 20.5099 16.5537 20.1397H15.7099H15.7112ZM17.4291 18.4294C16.963 18.3221 16.7103 18.101 16.7103 17.7701C16.7103 17.3987 16.9832 17.1208 17.4328 17.04V18.4294H17.4291ZM17.9747 19.3717C18.5419 19.5031 18.8021 19.7153 18.8021 20.0905C18.8021 20.5187 18.4775 20.8117 17.9065 20.8661V19.3566L17.9747 19.3717Z" fill="#140097"/>
<path d="M24 18.9474C24 22.4355 21.1723 25.2632 17.6842 25.2632C14.1961 25.2632 11.3684 22.4355 11.3684 18.9474C11.3684 15.4593 14.1961 12.6316 17.6842 12.6316C21.1723 12.6316 24 15.4593 24 18.9474Z" fill="#2F78F1"/>
<path fill-rule="evenodd" clip-rule="evenodd" d="M17.6842 24C19.0242 24 20.3094 23.4677 21.2569 22.5201C22.2045 21.5726 22.7368 20.2874 22.7368 18.9474C22.7368 17.6073 22.2045 16.3222 21.2569 15.3746C20.3094 14.4271 19.0242 13.8947 17.6842 13.8947C16.3442 13.8947 15.059 14.4271 14.1114 15.3746C13.1639 16.3222 12.6316 17.6073 12.6316 18.9474C12.6316 20.2874 13.1639 21.5726 14.1114 22.5201C15.059 23.4677 16.3442 24 17.6842 24ZM24 18.9474C24 20.6224 23.3346 22.2289 22.1501 23.4133C20.9657 24.5978 19.3592 25.2632 17.6842 25.2632C16.0091 25.2632 14.4027 24.5978 13.2183 23.4133C12.0338 22.2289 11.3684 20.6224 11.3684 18.9474C11.3684 17.2723 12.0338 15.6659 13.2183 14.4814C14.4027 13.297 16.0091 12.6316 17.6842 12.6316C19.3592 12.6316 20.9657 13.297 22.1501 14.4814C23.3346 15.6659 24 17.2723 24 18.9474Z" fill="#140097"/>
<path d="M15.7112 20.1397C15.7705 20.8926 16.3655 21.4787 17.4328 21.5494V22.1052H17.9065V21.5456C19.0118 21.4686 19.6573 20.8774 19.6573 20.021C19.6573 19.2404 19.1646 18.8387 18.2804 18.6315L17.9065 18.5431V17.0273C18.3815 17.0816 18.6821 17.3406 18.7541 17.6993H19.5853C19.5259 16.973 18.9032 16.4058 17.9065 16.344V15.7894H17.4328V16.3578C16.4893 16.4501 15.8476 17.0172 15.8476 17.8206C15.8476 18.5305 16.3251 18.9827 17.1196 19.1671L17.4328 19.2442V20.8509C16.9478 20.7776 16.6257 20.5099 16.5537 20.1397H15.7099H15.7112ZM17.4291 18.4294C16.963 18.3221 16.7103 18.101 16.7103 17.7701C16.7103 17.3987 16.9832 17.1208 17.4328 17.04V18.4294H17.4291ZM17.9747 19.3717C18.5419 19.5031 18.8021 19.7153 18.8021 20.0905C18.8021 20.5187 18.4775 20.8117 17.9065 20.8661V19.3566L17.9747 19.3717Z" fill="#140097"/>
</g>
<defs>
<clipPath id="clip0_1024_8013">
<rect width="20.2105" height="20.2105" fill="white" transform="translate(3.78949 5.05261)"/>
</clipPath>
</defs>
</svg>
