<svg xmlns="http://www.w3.org/2000/svg" width="40" height="40" viewBox="0 0 40 40" fill="none">
  <path d="M0 20.0496C0.304444 19.286 0.866462 19.0197 1.68274 19.0205C13.9459 19.0359 26.2095 19.0309 38.4727 19.0313C39.2081 19.0313 39.6926 19.3212 39.9087 19.8853C40.2471 20.768 39.6059 21.685 38.6274 21.6896C36.7269 21.6987 34.826 21.6925 32.9255 21.6925C32.7845 21.6925 32.6435 21.6925 32.4515 21.6925C32.4515 21.8758 32.4515 22.028 32.4515 22.1807C32.4515 23.7821 32.4133 25.3844 32.4639 26.9842C32.5025 28.1965 31.96 28.4276 30.8334 28.2505C30.8334 26.0887 30.8334 23.9202 30.8334 21.7223C29.9305 21.7223 29.0673 21.7223 28.1528 21.7223C28.1528 23.9011 28.1528 26.0804 28.1528 28.2812C26.8835 28.2812 25.6658 28.2812 24.3982 28.2812C24.3982 26.0903 24.3982 23.9132 24.3982 21.7145C23.4948 21.7145 22.6404 21.7145 21.7412 21.7145C21.7412 23.8895 21.7412 26.0692 21.7412 28.2762C20.4678 28.2762 19.2389 28.2762 17.9792 28.2762C17.9792 26.0941 17.9792 23.9248 17.9792 21.724C17.0858 21.724 16.2226 21.724 15.3114 21.724C15.3114 23.8962 15.3114 26.0737 15.3114 28.2774C14.0351 28.2774 12.807 28.2774 11.5411 28.2774C11.5411 26.0837 11.5411 23.914 11.5411 21.7186C10.641 21.7186 9.77787 21.7186 8.87449 21.7186C8.87449 23.902 8.87449 26.07 8.87449 28.316C8.50286 28.2924 8.16606 28.3081 7.8471 28.2413C7.46634 28.1617 7.26891 27.817 7.26849 27.3338C7.266 25.6154 7.26725 23.897 7.26725 22.1786C7.26725 22.0363 7.26725 21.8941 7.26725 21.6921C7.11254 21.6921 6.97566 21.6921 6.83837 21.6921C5.11996 21.6921 3.40114 21.6663 1.68315 21.7033C0.865632 21.7215 0.305273 21.4362 0 20.6742C0 20.466 0 20.2578 0 20.0496Z" fill="currentColor"/>
  <path d="M7.97068 7.00371C8.85539 7.00371 9.7401 6.99956 10.6244 7.00495C11.451 7.00993 12.0388 7.57568 12.0321 8.34924C12.0259 9.10744 11.4473 9.66116 10.6368 9.66365C8.95867 9.66946 7.28049 9.66448 5.60232 9.66614C5.00961 9.66656 4.83955 9.83786 4.83914 10.4326C4.83789 12.1108 4.84411 13.789 4.83623 15.4672C4.83209 16.3253 4.22154 16.9064 3.40153 16.8587C2.7549 16.821 2.19371 16.3046 2.18791 15.6555C2.1709 13.7305 2.13855 11.8035 2.20284 9.88016C2.25468 8.33057 3.68773 7.04477 5.27755 7.00993C6.17471 6.99002 7.07269 7.0062 7.97026 7.0062C7.97068 7.00537 7.97068 7.00454 7.97068 7.00371Z" fill="currentColor"/>
  <path d="M2.01116 27.9668C2.01116 27.0693 2.00577 26.1717 2.01282 25.2741C2.01946 24.4292 2.56323 23.8585 3.34342 23.8618C4.1178 23.8651 4.67111 24.4454 4.67484 25.2849C4.68148 26.9502 4.67608 28.6151 4.67733 30.2805C4.67774 30.898 4.84033 31.0577 5.46664 31.0582C7.15767 31.0594 8.84912 31.0532 10.5402 31.0623C11.244 31.066 11.7932 31.5716 11.8662 32.2465C11.9388 32.9143 11.4887 33.5389 10.8189 33.6886C10.6936 33.7164 10.5609 33.7189 10.4315 33.7189C8.72718 33.721 7.02287 33.7243 5.31898 33.7189C3.41766 33.7131 2.04227 32.3597 2.01365 30.4642C2.00079 29.6322 2.01158 28.7997 2.01116 27.9668Z" fill="currentColor"/>
  <path d="M37.9856 27.9627C37.9856 28.7823 37.9935 29.6019 37.984 30.4215C37.9616 32.3676 36.5953 33.7156 34.6426 33.7198C32.9125 33.7235 31.1821 33.7268 29.4521 33.7165C28.7706 33.7123 28.2227 33.215 28.1331 32.5626C28.0439 31.9122 28.4591 31.2793 29.1062 31.1084C29.2787 31.0628 29.4662 31.0611 29.6466 31.0607C31.2335 31.0574 32.8209 31.0586 34.4078 31.0586C35.2087 31.0586 35.3195 30.9458 35.3195 30.1287C35.3195 28.5156 35.3157 26.9026 35.3216 25.2891C35.3245 24.4811 35.8413 23.9013 36.57 23.8648C37.3527 23.8258 37.962 24.3654 37.9782 25.1531C37.9973 26.0892 37.9827 27.0262 37.9827 27.9627C37.984 27.9627 37.9848 27.9627 37.9856 27.9627Z" fill="currentColor"/>
  <path d="M38.1538 12.7555C38.1538 13.6402 38.1596 14.525 38.1522 15.4093C38.1451 16.2865 37.6072 16.8651 36.8178 16.8618C36.0318 16.8585 35.4885 16.2703 35.486 15.3989C35.4806 13.7468 35.4852 12.0944 35.4835 10.4423C35.4831 9.82433 35.3201 9.66589 34.6934 9.66547C33.0023 9.66423 31.3109 9.67087 29.6199 9.66091C28.904 9.65676 28.349 9.13 28.2893 8.4365C28.2337 7.78862 28.6879 7.17766 29.3424 7.03498C29.4801 7.0047 29.6265 7.0047 29.7688 7.0047C31.4598 7.00263 33.1512 6.99972 34.8423 7.0047C36.7303 7.01009 38.0958 8.33239 38.1472 10.2192C38.1704 11.0641 38.1509 11.9102 38.1509 12.756C38.1526 12.7555 38.153 12.7555 38.1538 12.7555Z" fill="currentColor"/>
  <path d="M21.6942 16.3465C20.4374 16.3465 19.2213 16.3465 17.9849 16.3465C17.9849 15.0433 17.9849 13.7616 17.9849 12.4497C19.2138 12.4497 20.4399 12.4497 21.6942 12.4497C21.6942 13.7434 21.6942 15.0333 21.6942 16.3465Z" fill="currentColor"/>
  <path d="M11.562 12.4448C12.8258 12.4448 14.0432 12.4448 15.2817 12.4448C15.2817 13.7518 15.2817 15.0338 15.2817 16.3416C14.039 16.3416 12.8117 16.3416 11.562 16.3416C11.562 15.0396 11.562 13.7563 11.562 12.4448Z" fill="currentColor"/>
  <path d="M28.1289 12.4473C28.1289 13.7521 28.1289 15.035 28.1289 16.3432C26.892 16.3432 25.6734 16.3432 24.4204 16.3432C24.4204 15.0574 24.4204 13.7662 24.4204 12.4473C25.6519 12.4473 26.8796 12.4473 28.1289 12.4473Z" fill="currentColor"/>
  <path d="M8.8399 12.4513C8.8399 13.757 8.8399 15.0486 8.8399 16.3465C8.31023 16.3465 7.80877 16.3465 7.27744 16.3465C7.27744 15.2631 7.25712 14.2004 7.28864 13.139C7.29943 12.7765 7.55742 12.509 7.93569 12.4592C8.2252 12.4211 8.52342 12.4513 8.8399 12.4513Z" fill="currentColor"/>
  <path d="M32.4234 16.3477C31.8958 16.3477 31.3944 16.3477 30.8589 16.3477C30.8589 15.0487 30.8589 13.7591 30.8589 12.4111C31.1907 12.4286 31.5146 12.4178 31.8282 12.4692C32.1497 12.5219 32.4035 12.7504 32.4122 13.0685C32.4417 14.1544 32.4234 15.2415 32.4234 16.3477Z" fill="currentColor"/>
</svg>