<svg xmlns="http://www.w3.org/2000/svg" width="40" height="40" viewBox="0 0 40 40" fill="none">
  <path fill-rule="evenodd" clip-rule="evenodd" d="M15.4974 6.52932C15.5001 6.05317 15.5029 5.5637 15.5029 5.05478C14.4089 5.05478 13.3284 5.04915 12.2575 5.04357C9.65174 5.02999 7.10326 5.01671 4.55775 5.08559C3.00633 5.12825 2.01583 6.47456 2.01228 8.24752C1.9969 16.08 1.99453 23.9113 2.01347 31.7439C2.0182 33.8155 3.1649 34.9793 5.24411 34.984C15.0781 35.0053 24.9132 35.0053 34.7472 34.984C36.8276 34.9793 37.979 33.8178 37.9849 31.7474C38.005 23.9149 38.005 16.0836 37.9849 8.25107C37.9802 6.18302 36.8264 5.04885 34.7436 5.01922C32.9769 4.99438 31.2101 4.99904 29.4434 5.00371C28.6812 5.00572 27.9191 5.00773 27.1569 5.00737H24.4955C24.4955 5.53421 24.4984 6.03685 24.5013 6.52305C24.5073 7.54727 24.5128 8.49852 24.4896 9.44923C24.4257 12.0518 22.4056 14.0523 19.9311 14.0049C17.4993 13.9586 15.568 11.989 15.5088 9.45279C15.4863 8.49921 15.4917 7.54454 15.4974 6.52932ZM20.5619 27.7859C20.1813 28.1813 19.5531 28.1961 19.1544 27.819L12.7548 21.7673C12.3104 21.347 12.3006 20.6428 12.7331 20.2103C13.134 19.8094 13.7759 19.7844 14.2069 20.1529L19.1741 24.401C19.5699 24.7394 20.1591 24.7175 20.5286 24.3507L28.6849 16.2531C29.1042 15.8367 29.7814 15.8379 30.1992 16.2558C30.6125 16.6691 30.6189 17.3372 30.2136 17.7583L20.5619 27.7859Z" fill="currentColor"/>
</svg>