<svg xmlns="http://www.w3.org/2000/svg" width="40" height="40" viewBox="0 0 40 40" fill="none">
  <path d="M39 13.6093C39 19.7739 39 25.938 39 32.1026C38.9819 32.1341 38.9542 32.1633 38.9468 32.1972C38.4712 34.4788 36.9011 35.7688 34.5744 35.7697C24.8544 35.7725 15.1341 35.7716 5.41414 35.7683C5.10623 35.7683 4.7923 35.7614 4.49086 35.7067C2.41186 35.3277 1.00564 33.6299 1.00332 31.4831C0.997768 25.7782 1.00055 20.0728 1.00193 14.3679C1.0024 11.7503 2.7846 9.9608 5.39701 9.95431C6.90556 9.9506 8.41458 9.95338 9.92313 9.95338C10.056 9.95338 10.1884 9.95338 10.3653 9.95338C10.3653 9.50856 10.3644 9.10358 10.3653 8.69906C10.3723 6.40541 11.9405 4.82256 14.2302 4.81839C18.0762 4.8119 21.9221 4.81375 25.768 4.82163C26.1236 4.82256 26.4922 4.84294 26.832 4.93608C28.5721 5.41335 29.6218 6.80946 29.6362 8.62121C29.6394 9.05075 29.6366 9.48029 29.6366 9.9506C29.8251 9.9506 29.97 9.95014 30.1154 9.9506C31.7476 9.95431 33.3807 9.93022 35.0119 9.96914C36.7807 10.0113 38.3527 11.2754 38.8324 12.9727C38.8921 13.1835 38.944 13.3966 39 13.6093ZM20.0024 32.1467C25.1031 32.1416 29.2787 27.9592 29.2773 22.8581C29.2759 17.7513 25.1017 13.5764 19.9996 13.5778C14.8965 13.5792 10.7223 17.756 10.7232 22.8608C10.7246 27.9611 14.9123 32.1522 20.0024 32.1467Z" fill="currentColor"/>
  <path d="M26.2239 22.9228C26.2128 26.3183 23.4443 29.0707 20.0553 29.0554C16.6806 29.0401 13.9237 26.2686 13.9395 22.907C13.9558 19.5086 16.7247 16.7539 20.1086 16.7711C23.4801 16.7878 26.2346 19.5588 26.2239 22.9228Z" fill="currentColor"/>
</svg>