<svg xmlns="http://www.w3.org/2000/svg" width="40" height="40" viewBox="0 0 40 40" fill="none">
  <path d="M39.0329 3.43378C39.0329 14.841 39.0329 26.2488 39.0329 37.656C39.0179 37.674 38.9969 37.69 38.9889 37.7104C38.6723 38.5579 38.0067 38.9948 37.2461 38.8525C36.4491 38.7032 35.9752 38.0745 35.9727 37.1571C35.9707 36.3337 35.9722 35.5107 35.9722 34.6872C35.9722 34.5624 35.9722 34.437 35.9722 34.3107C25.768 34.3107 15.6196 34.3107 5.43688 34.3107C5.43688 34.4575 5.43688 34.5863 5.43688 34.7147C5.43638 35.5856 5.44936 36.457 5.43138 37.3274C5.4154 38.1044 4.93051 38.6822 4.20492 38.842C3.54774 38.9868 2.81266 38.6463 2.54349 38.015C2.42664 37.7404 2.3827 37.4153 2.3822 37.1132C2.3752 26.1129 2.3822 15.1122 2.36622 4.11143C2.36472 3.16911 2.68632 2.52641 3.59368 2.2168C3.80841 2.2168 4.02314 2.2168 4.23788 2.2168C5.15373 2.54938 5.45635 3.22154 5.44786 4.16686C5.4199 7.44726 5.43688 10.7277 5.43788 14.0081C5.43788 14.1449 5.45136 14.2817 5.45835 14.418C15.6466 14.418 25.7924 14.418 35.9722 14.418C35.9722 14.2538 35.9722 14.1124 35.9722 13.9716C35.9722 10.7032 35.9892 7.43428 35.9612 4.16636C35.9532 3.22154 36.2539 2.54788 37.1717 2.2168C37.3864 2.2168 37.6012 2.2168 37.8159 2.2168C38.4291 2.41505 38.8336 2.82204 39.0329 3.43378ZM5.45535 31.2081C15.6451 31.2081 25.7909 31.2081 35.9403 31.2081C35.9403 26.6268 35.9403 22.0685 35.9403 17.5082C25.7625 17.5082 15.6172 17.5082 5.45535 17.5082C5.45535 22.0835 5.45535 26.6348 5.45535 31.2081Z" fill="currentColor"/>
  <path d="M14.9776 5.29581C14.9776 5.69332 14.9706 6.05037 14.9791 6.40692C14.9941 7.05212 15.4865 7.55349 16.1057 7.56498C16.7364 7.57646 17.2503 7.0676 17.2662 6.40543C17.2747 6.04887 17.2677 5.69232 17.2677 5.3048C17.3871 5.29481 17.4885 5.27883 17.5898 5.27883C18.8308 5.27734 20.0717 5.27534 21.3127 5.27883C21.9634 5.28083 22.224 5.54051 22.225 6.19069C22.228 8.12378 22.228 10.0564 22.225 11.9894C22.224 12.6386 21.9619 12.9008 21.3122 12.9013C17.852 12.9033 14.3918 12.9033 10.9317 12.9013C10.2825 12.9008 10.0218 12.6386 10.0208 11.9874C10.0178 10.0544 10.0178 8.12178 10.0208 6.1887C10.0218 5.53851 10.2815 5.28033 10.9347 5.27883C12.1756 5.27534 13.4166 5.27734 14.6575 5.27833C14.7504 5.27833 14.8433 5.28782 14.9776 5.29581Z" fill="currentColor"/>
  <path d="M24.9112 20.5674C24.9112 20.9365 24.9057 21.291 24.9122 21.6456C24.9257 22.3277 25.3996 22.8266 26.0343 22.8346C26.67 22.8426 27.1669 22.3567 27.1969 21.6775C27.2128 21.312 27.1999 20.9454 27.1999 20.5444C28.0478 20.5444 28.8558 20.5444 29.6638 20.5444C29.9379 20.5444 30.2126 20.5429 30.4867 20.5449C31.11 20.5494 31.3866 20.8166 31.3886 21.4363C31.3931 23.0223 31.3901 24.6084 31.3901 26.1944C31.3901 27.0648 31.3936 27.9357 31.3886 28.8061C31.3851 29.4293 31.111 29.7075 30.4967 29.7075C27.5274 29.7095 24.5577 29.7095 21.5884 29.7075C21.0006 29.707 20.7065 29.4139 20.706 28.8281C20.7035 26.3597 20.7035 23.8908 20.706 21.4223C20.7065 20.8496 20.9966 20.5494 21.5549 20.5464C22.5926 20.5409 23.6298 20.5444 24.6675 20.5459C24.7359 20.5459 24.8049 20.5574 24.9112 20.5674Z" fill="currentColor"/>
  <path d="M11.9187 22.066C11.9187 22.4825 11.9028 22.861 11.9222 23.2376C11.9527 23.8258 12.3672 24.2802 12.9025 24.3442C13.4648 24.4116 13.9692 24.1155 14.139 23.5926C14.1929 23.4268 14.1984 23.242 14.2039 23.0653C14.2139 22.7472 14.2069 22.4281 14.2069 22.0835C15.1642 22.0835 16.079 22.059 16.9914 22.0945C17.4174 22.111 17.6391 22.4435 17.6416 22.9304C17.6466 24.075 17.6436 25.2201 17.6436 26.3646C17.6436 27.1876 17.6481 28.0101 17.6416 28.8331C17.6371 29.4298 17.3569 29.7065 16.7587 29.707C14.3023 29.7095 11.8458 29.7095 9.3889 29.707C8.78066 29.7065 8.48303 29.4188 8.48153 28.8121C8.47604 26.8685 8.47654 24.9244 8.48103 22.9809C8.48253 22.3696 8.77417 22.073 9.37592 22.0675C10.2079 22.0605 11.0398 22.066 11.9187 22.066Z" fill="currentColor"/>
</svg>