<svg xmlns="http://www.w3.org/2000/svg" width="40" height="40" viewBox="0 0 40 40" fill="none">
  <path d="M1 35C1 34.4478 1.29289 34 1.65414 34H38.3459C38.7071 34 39 34.4478 39 35C39 35.5523 38.7071 36 38.3459 36H1.65414C1.29289 36 1 35.5523 1 35Z" fill="currentColor"/>
  <path d="M20 12C20.5523 12 21 12.2888 21 12.6451V19.3549C21 19.7112 20.5523 20 20 20C19.4477 20 19 19.7112 19 19.3549V12.6451C19 12.2888 19.4477 12 20 12Z" fill="currentColor"/>
  <path d="M6 38C6 38.5523 5.78289 39 5.51505 39H4.48495C4.21711 39 4 38.5523 4 38C4 37.4477 4.21711 37 4.48495 37H5.51505C5.78289 37 6 37.4477 6 38Z" fill="currentColor"/>
  <path d="M34.4973 37H35.5027C35.7773 37 36 37.4477 36 38C36 38.5523 35.7773 39 35.5027 39H34.4973C34.2227 39 34 38.5523 34 38C34 37.4477 34.2227 37 34.4973 37Z" fill="currentColor"/>
  <path d="M19.8268 1.00019C24.316 1.00019 28.8053 0.999768 33.295 1.00019C34.292 1.00019 34.5441 1.20733 34.5441 2.02716C34.5446 4.69085 34.5451 7.35413 34.5441 10.0178C34.5436 10.7763 34.2717 10.9993 33.3478 10.9997C24.2967 11.0001 15.2456 11.0001 6.19447 10.9997C5.27162 10.9997 5.00127 10.7767 5.00076 10.0166C4.99975 7.33826 4.99975 4.65995 5.00076 1.98122C5.00127 1.22153 5.2701 1.0006 6.19599 1.0006C10.7396 0.999768 15.2832 1.00019 19.8268 1.00019ZM19.7719 2.42892C15.8076 2.42892 11.8434 2.42809 7.87907 2.42934C7.02635 2.42976 6.74025 2.66531 6.73923 3.36569C6.7372 5.12144 6.7372 6.87718 6.73923 8.63335C6.74025 9.33331 7.02788 9.57095 7.87907 9.57095C15.8076 9.57178 23.7362 9.57178 31.6653 9.57095C32.516 9.57095 32.8051 9.33289 32.8061 8.63377C32.8087 6.89264 32.8077 5.15192 32.8066 3.41079C32.8061 2.65153 32.5358 2.42934 31.6114 2.42934C27.6639 2.42851 23.7179 2.42892 19.7719 2.42892Z" fill="currentColor"/>
  <path d="M8.50195 7.43092V4.56049C8.50195 4.1842 8.87343 3.87891 9.3313 3.87891H30.1965C30.6544 3.87891 31.0258 4.1842 31.0258 4.56049V7.43092C31.0258 7.80721 30.6544 8.1125 30.1965 8.1125H9.3313C8.87343 8.1125 8.50195 7.80721 8.50195 7.43092ZM24.1472 5.98798V6.00343C24.1472 6.37972 24.5186 6.68501 24.9765 6.68501H24.9852C25.443 6.68501 25.8145 6.37972 25.8145 6.00343V5.98798C25.8145 5.61169 25.443 5.30639 24.9852 5.30639H24.9765C24.5181 5.30639 24.1472 5.61169 24.1472 5.98798ZM27.6272 5.97587V5.99967C27.6272 6.37596 27.9986 6.68126 28.4565 6.68126C28.9144 6.68126 29.2858 6.37596 29.2858 5.99967V5.97587C29.2858 5.59957 28.9144 5.29428 28.4565 5.29428C27.9986 5.29428 27.6272 5.59957 27.6272 5.97587Z" fill="currentColor"/>
  <path d="M10.2511 22.0201C10.2511 22.6046 10.2405 23.1191 10.2534 23.6327C10.2764 24.5626 11.0275 25.2848 11.9732 25.3018C12.9355 25.3192 13.7211 24.5856 13.7459 23.6314C13.7593 23.1173 13.7482 22.6028 13.7482 22.0027C14.1104 22.0027 14.4468 22.0027 14.7832 22.0027C15.7667 22.0031 16.7502 21.994 17.7336 22.007C18.5436 22.0179 18.9923 22.4338 18.9941 23.1921C19.002 26.064 19.002 28.9355 18.9941 31.8074C18.9918 32.5665 18.5441 32.9924 17.735 32.9941C13.9107 33.002 10.0859 33.002 6.2616 32.9941C5.45302 32.9924 5.00708 32.5657 5.00524 31.8061C4.99787 28.9342 4.99879 26.0627 5.00478 23.1908C5.00616 22.5407 5.39135 22.047 5.99468 22.0314C7.39187 21.9957 8.79043 22.0201 10.2511 22.0201Z" fill="currentColor"/>
  <path d="M25.2511 22.0201C25.2511 22.6046 25.2405 23.1191 25.2534 23.6327C25.2764 24.5626 26.0275 25.2848 26.9732 25.3018C27.9355 25.3192 28.7211 24.5856 28.7459 23.6314C28.7593 23.1173 28.7482 22.6028 28.7482 22.0027C29.1104 22.0027 29.4468 22.0027 29.7832 22.0027C30.7667 22.0031 31.7502 21.994 32.7336 22.007C33.5436 22.0179 33.9923 22.4338 33.9941 23.1921C34.002 26.064 34.002 28.9355 33.9941 31.8074C33.9918 32.5665 33.5441 32.9924 32.735 32.9941C28.9107 33.002 25.0859 33.002 21.2616 32.9941C20.453 32.9924 20.0071 32.5657 20.0052 31.8061C19.9979 28.9342 19.9988 26.0627 20.0048 23.1908C20.0062 22.5407 20.3913 22.047 20.9947 22.0314C22.3914 21.9957 23.7904 22.0201 25.2511 22.0201Z" fill="currentColor"/>
</svg>