<svg xmlns="http://www.w3.org/2000/svg" width="40" height="40" viewBox="0 0 40 40" fill="none">
  <path d="M0.000839937 20.6276C0.193548 20.0942 0.316276 19.5213 0.591974 19.035C1.47252 17.4831 2.84855 16.7035 4.62899 16.6673C5.70892 16.6455 6.78992 16.6631 7.8702 16.6631C8.01051 16.6631 8.15118 16.6631 8.34002 16.6631C8.34002 16.4704 8.34002 16.3181 8.34002 16.1658C8.34002 13.4971 8.33931 10.8287 8.34037 8.16002C8.34072 7.11807 8.79682 6.66478 9.84264 6.66408C11.5088 6.66302 13.1753 6.66091 14.8414 6.66443C17.0604 6.669 18.6928 7.82384 19.4341 9.92077C20.673 13.4243 21.9094 16.9289 23.1349 20.437C23.24 20.7381 23.3695 20.8784 23.7077 20.8502C24.1188 20.8161 24.5352 20.8422 24.9987 20.8422C24.9987 20.6561 24.9987 20.5049 24.9987 20.3541C24.9987 15.6939 24.9973 11.0334 24.9997 6.37326C25.0001 5.39741 25.8012 4.77182 26.6553 5.07846C27.1561 5.25816 27.4286 5.63126 27.4919 6.15488C27.5088 6.29625 27.4982 6.44078 27.4982 6.58425C27.4986 13.9391 27.4986 21.294 27.4986 28.6489C27.4986 28.8029 27.4986 28.957 27.4986 29.162C27.6793 29.162 27.8302 29.162 27.9811 29.162C31.5089 29.162 35.0367 29.1637 38.5642 29.1602C39.1447 29.1595 39.6117 29.3441 39.8741 29.8948C40.2433 30.6702 39.7211 31.5793 38.8662 31.6517C38.6981 31.6658 38.5279 31.6612 38.3588 31.6612C33.4641 31.6616 28.5697 31.6647 23.675 31.6545C23.367 31.6538 23.2298 31.7294 23.1356 32.0403C22.5926 33.8327 20.9796 35.0111 19.1313 34.9998C17.2995 34.9889 15.684 33.7683 15.1678 31.9788C15.095 31.7259 14.9934 31.6531 14.7437 31.6566C13.7935 31.6693 12.843 31.6672 11.8928 31.6577C11.6825 31.6556 11.576 31.7055 11.507 31.926C10.9085 33.8373 9.35701 35.0118 7.46967 35.0009C5.59604 34.99 4.05508 33.7856 3.46501 31.8711C3.44637 31.8103 3.42457 31.7502 3.40311 31.6872C3.04407 31.6616 2.68538 31.6791 2.34779 31.6039C1.17959 31.344 0.428454 30.6196 0.0891057 29.4707C0.0641381 29.386 0.0300274 29.3041 0.000488281 29.2207C0.000839937 26.3561 0.000839937 23.4919 0.000839937 20.6276ZM20.6251 20.8425C20.5762 20.6881 20.5481 20.59 20.514 20.494C19.3634 17.2349 18.2135 13.9757 17.0597 10.7176C16.6813 9.64929 15.9889 9.16646 14.846 9.16435C13.6616 9.16189 12.4769 9.16365 11.2925 9.16365C11.1536 9.16365 11.0147 9.16365 10.8399 9.16365C10.8399 9.3437 10.8399 9.47205 10.8399 9.60006C10.8399 12.5941 10.8375 15.5881 10.841 18.5817C10.8428 19.9862 11.698 20.8365 13.1071 20.8415C14.2394 20.8453 15.3721 20.8422 16.5044 20.8422C17.8576 20.8425 19.2108 20.8425 20.6251 20.8425ZM19.1116 32.4996C20.027 32.5263 20.7918 31.8114 20.8344 30.8886C20.8755 29.9944 20.1384 29.2084 19.2192 29.1662C18.3232 29.1254 17.527 29.8734 17.5014 30.7807C17.475 31.6999 18.1994 32.4732 19.1116 32.4996ZM9.15691 30.8503C9.1636 29.9247 8.43637 29.1778 7.51573 29.1652C6.60424 29.1525 5.84959 29.8984 5.84291 30.8183C5.83622 31.7431 6.56732 32.4925 7.48373 32.5003C8.40191 32.5084 9.15058 31.7702 9.15691 30.8503Z" fill="currentColor"/>
  <path d="M33.7489 8.35594C33.7489 8.79797 33.7415 9.18725 33.7507 9.57619C33.7672 10.2798 34.3038 10.8263 34.9793 10.839C35.6668 10.852 36.2281 10.2971 36.246 9.57513C36.2555 9.1862 36.2478 8.79692 36.2478 8.34293C36.5066 8.34293 36.7471 8.34293 36.9873 8.34293C37.6899 8.34328 38.3925 8.33625 39.0951 8.34609C39.674 8.35418 39.9943 8.66926 39.9957 9.24246C40.0013 11.4153 40.0013 13.5882 39.9957 15.7611C39.9943 16.3354 39.6743 16.6578 39.0962 16.6589C36.3638 16.6649 33.6314 16.6649 30.8991 16.6589C30.3213 16.6575 30.0027 16.3347 30.0013 15.7597C29.996 13.5868 29.9967 11.4139 30.0009 9.24106C30.002 8.74909 30.277 8.37563 30.7081 8.36403C31.7061 8.33765 32.7052 8.35594 33.7489 8.35594Z" fill="currentColor"/>
  <path d="M33.7486 18.3462C33.7486 18.7805 33.7423 19.1688 33.75 19.5566C33.7641 20.2811 34.3133 20.8398 35.0001 20.8377C35.6918 20.8356 36.232 20.2828 36.2464 19.5531C36.2541 19.1656 36.2478 18.7777 36.2478 18.3571C37.2908 18.3571 38.3011 18.336 39.31 18.367C39.7447 18.3804 39.9961 18.7696 39.9968 19.3013C39.9993 21.0709 39.9979 22.8404 39.9979 24.6099C39.9979 25.0003 40.0052 25.391 39.9958 25.781C39.9824 26.3285 39.6659 26.6559 39.1142 26.6573C36.3688 26.664 33.6234 26.664 30.878 26.6569C30.3266 26.6555 30.0031 26.3267 30.0017 25.7767C29.9954 23.5908 29.9957 21.4049 30.0017 19.2191C30.0031 18.7021 30.3133 18.3596 30.8066 18.3512C31.7684 18.3346 32.7305 18.3462 33.7486 18.3462Z" fill="currentColor"/>
</svg>