<svg xmlns="http://www.w3.org/2000/svg" width="40" height="40" viewBox="0 0 40 40" fill="none">
  <path d="M0.145508 33.6675C1.10377 32.3307 2.11385 31.0274 3.00102 29.6447C3.53915 28.8055 4.1616 28.5573 5.14596 28.5611C15.3934 28.6021 25.6413 28.5876 35.8887 28.5797C36.2041 28.5793 36.4027 28.6609 36.5944 28.9254C37.5935 30.3039 38.621 31.6619 39.6288 33.034C40.221 33.8401 40.0969 34.8182 39.3123 35.3226C39.0536 35.4889 38.7144 35.5587 38.4024 35.6031C38.0719 35.6502 37.7293 35.6149 37.3919 35.6149C25.6398 35.6149 13.8872 35.6092 2.13503 35.6251C1.16504 35.6263 0.477157 35.3192 0.145508 34.3707C0.145508 34.1362 0.145508 33.9016 0.145508 33.6675Z" fill="currentColor"/>
  <path fill-rule="evenodd" clip-rule="evenodd" d="M3.81269 25.9029V26.2092H36.3219C36.3237 26.1702 36.3258 26.1353 36.3278 26.1032C36.3313 26.0439 36.3344 25.9937 36.3344 25.9435C36.3345 24.4072 36.3349 22.8709 36.3353 21.3346C36.3365 16.9605 36.3378 12.5862 36.3313 8.21199C36.3287 6.32907 34.9673 5.00333 33.053 5.00257C24.401 4.99839 15.749 4.99915 7.09704 5.00598C6.76387 5.00636 6.41974 5.04508 6.09944 5.13351C4.69456 5.52065 3.81533 6.7219 3.8142 8.24918C3.81145 12.5291 3.8119 16.8088 3.81235 21.0884C3.81252 22.6932 3.81269 24.2981 3.81269 25.9029ZM21.0058 10.4698C20.6954 10.4695 20.3849 10.4691 20.0745 10.4691C19.7543 10.4691 19.4342 10.4695 19.1141 10.4699C18.4099 10.4707 17.7058 10.4715 17.0015 10.4684C16.2422 10.4646 15.7188 9.98294 15.718 9.3009C15.7173 8.62493 16.252 8.12811 17 8.12697C19.0485 8.12356 21.097 8.12356 23.1455 8.12697C23.8954 8.12811 24.429 8.62228 24.4294 9.299C24.4298 9.98104 23.906 10.4642 23.1474 10.468C22.4334 10.4714 21.7196 10.4706 21.0058 10.4698ZM30.5002 16.5C30.5002 15.9477 30.0525 15.5 29.5002 15.5H11.0002C10.448 15.5 10.0002 15.9477 10.0002 16.5V20.3346C10.0002 20.8869 10.448 21.3346 11.0002 21.3346H29.5002C30.0525 21.3346 30.5002 20.8869 30.5002 20.3346V16.5Z" fill="currentColor"/>
</svg>