<svg xmlns="http://www.w3.org/2000/svg" width="40" height="40" viewBox="0 0 40 40" fill="none">
  <path d="M15.0414 30.9072C14.951 27.5489 13.1369 25.3967 10.3466 25.2915C8.8107 25.2333 7.50989 25.767 6.46028 26.8944C5.41719 28.0135 5.10731 29.383 5.15555 30.8538C3.02027 31.2141 1.06143 29.626 1.01537 27.5042C0.986246 26.1725 1.00754 24.8395 1.00711 23.507C1.00667 19.2607 1.00624 15.0145 1.00711 10.7683C1.00841 8.47825 2.48134 7.00141 4.76613 7.00098C10.6983 6.99967 16.6304 6.99967 22.5625 7.00098C24.8521 7.00141 26.3276 8.47434 26.3281 10.7613C26.3294 17.1454 26.3289 23.5296 26.3285 29.9133C26.3285 30.6934 26.1173 30.9064 25.3436 30.9064C22.0627 30.9068 18.7817 30.9068 15.5008 30.9068C15.3561 30.9072 15.2118 30.9072 15.0414 30.9072ZM14.3717 19.6571C16.6134 19.6571 18.8552 19.6571 21.097 19.6567C21.2287 19.6567 21.3638 19.6697 21.4916 19.6454C21.8693 19.5737 22.0992 19.3416 22.0988 18.9526C22.0983 18.5645 21.8693 18.3311 21.4907 18.2615C21.363 18.2381 21.2278 18.2511 21.0961 18.2511C16.6126 18.2507 12.1286 18.2507 7.64505 18.2511C7.51336 18.2511 7.3782 18.2381 7.25042 18.262C6.87186 18.3324 6.64326 18.5649 6.64369 18.9539C6.64412 19.3429 6.87404 19.5745 7.25172 19.6454C7.3795 19.6693 7.51467 19.6562 7.64636 19.6562C9.88769 19.6571 12.1295 19.6571 14.3717 19.6571ZM17.175 14.031C18.567 14.031 19.9587 14.0366 21.3508 14.0279C21.8015 14.0253 22.0992 13.7345 22.1049 13.3377C22.1105 12.9388 21.8158 12.631 21.3699 12.6302C18.5862 12.6228 15.802 12.6263 13.0183 12.6263C12.6527 12.6263 12.3981 12.7966 12.2903 13.1456C12.1447 13.6172 12.5115 14.027 13.0869 14.0292C14.4495 14.0357 15.812 14.0318 17.175 14.031Z" fill="currentColor"/>
  <path d="M32.0002 15.0002C30.5395 14.9372 29.2621 15 27.7627 15C27.7627 20.1755 27.7631 22.9445 27.7627 28.0578C28.1265 28.1856 28.2747 28.0026 28.4298 27.7297C29.4116 26.0016 31.4396 25.0098 33.3289 25.3114C35.4394 25.6487 37.0492 27.1355 37.4717 29.15C37.5386 29.469 37.5673 29.7958 37.6212 30.17C38.5174 29.4299 38.9715 28.5298 38.9828 27.4315C39.0011 25.63 39.012 23.8281 38.9802 22.027C38.9559 20.654 38.2831 19.6396 37.0875 18.9725C36.8575 18.8443 36.5968 18.7648 36.386 18.6131C35.9247 18.304 35.7078 18.0421 35.5002 17.5C35.1008 16.1331 33.4093 15.0611 32.0002 15.0002Z" fill="currentColor"/>
  <path d="M10.1851 26.6896C12.1265 26.7088 13.6812 28.299 13.6668 30.2505C13.6525 32.1824 12.0457 33.7413 10.0938 33.7174C8.15933 33.6935 6.60774 32.0872 6.63512 30.1362C6.66207 28.2217 8.25973 26.6705 10.1851 26.6896Z" fill="currentColor"/>
  <path d="M32.6565 33.7181C30.7116 33.7147 29.1374 32.1348 29.1426 30.1912C29.1474 28.2689 30.7203 26.6929 32.6378 26.6895C34.6049 26.6855 36.1843 28.2715 36.1747 30.2394C36.1652 32.1531 34.5792 33.7216 32.6565 33.7181Z" fill="currentColor"/>
</svg>