<svg xmlns="http://www.w3.org/2000/svg" width="40" height="40" viewBox="0 0 40 40" fill="none">
  <path d="M38.6602 39.999C37.4367 39.999 36.2132 39.999 34.9892 39.999C34.9892 33.426 34.9747 26.8531 35.0037 20.2806C35.0085 19.2118 34.3453 18.3252 33.0532 18.329C24.3468 18.3563 15.6398 18.3563 6.9334 18.329C5.65094 18.3252 4.97862 19.2026 4.98345 20.2806C5.01293 26.8536 4.99846 33.4266 4.99846 39.999C3.77498 39.999 2.5515 39.999 1.32749 39.999C0.659992 39.7813 0.216602 39.3394 0 38.6711C0 30.3916 0 22.1121 0 13.8321C0.308818 13.5135 0.575281 13.1332 0.932888 12.8855C6.96449 8.71139 13.0068 4.55393 19.0475 0.392721C19.811 -0.133396 20.189 -0.131251 20.9621 0.401302C27.0446 4.59201 33.125 8.78647 39.2145 12.9675C39.763 13.344 39.9978 13.8015 39.9968 14.467C39.9839 22.2885 39.9791 30.1101 40 37.931C40.0021 38.9602 39.6461 39.6585 38.6602 39.999Z" fill="currentColor"/>
  <path d="M21.3996 39.9988C20.953 39.7505 20.82 39.3692 20.8248 38.8666C20.8447 36.8244 20.8323 34.7816 20.8334 32.7388C20.8339 31.9354 21.1085 31.663 21.9148 31.6614C22.7839 31.6592 23.653 31.6608 24.5821 31.6608C24.5821 32.0684 24.5784 32.4401 24.5827 32.8117C24.5918 33.6205 25.0947 34.1606 25.8308 34.1573C26.5583 34.1547 27.0666 33.6055 27.0795 32.801C27.0854 32.4385 27.0805 32.0759 27.0805 31.6608C27.3583 31.6608 27.6011 31.6608 27.844 31.6608C28.5335 31.6608 29.223 31.6506 29.9124 31.6646C30.4867 31.6764 30.8212 31.9944 30.8244 32.5645C30.8357 34.7371 30.8282 36.9102 30.8303 39.0828C30.8309 39.5252 30.596 39.8052 30.225 39.9993C27.2832 39.9988 24.3414 39.9988 21.3996 39.9988Z" fill="currentColor"/>
  <path d="M9.76262 39.9989C9.29832 39.7715 9.1482 39.3907 9.15142 38.8876C9.16536 36.8448 9.15624 34.8026 9.15785 32.7598C9.15839 31.9505 9.45112 31.6625 10.2693 31.6614C11.126 31.6598 11.9822 31.6609 12.9082 31.6609C12.9082 32.0991 12.8942 32.5093 12.9114 32.918C12.936 33.5144 13.3172 33.9933 13.8453 34.1274C14.3799 34.2631 14.9562 34.0442 15.2195 33.5551C15.331 33.3476 15.3787 33.0902 15.3975 32.8515C15.4259 32.4782 15.405 32.1012 15.405 31.707C15.5203 31.6888 15.606 31.6641 15.6918 31.6636C16.5244 31.6604 17.3571 31.6555 18.1897 31.6636C18.8411 31.67 19.151 31.9768 19.1526 32.6225C19.1574 34.7565 19.1457 36.8899 19.1612 39.0239C19.1644 39.4878 18.9521 39.7758 18.5886 39.9999C15.6462 39.9989 12.7044 39.9989 9.76262 39.9989Z" fill="currentColor"/>
  <path d="M18.746 22.8788C18.7396 22.4905 18.7449 22.1022 18.7449 21.664C17.7858 21.664 16.8894 21.6592 15.9924 21.6651C15.3067 21.6699 14.9968 21.9863 14.9962 22.6755C14.9941 24.7843 14.9941 26.893 14.9962 29.0018C14.9973 29.6931 15.3056 29.9999 15.9999 30.0004C18.6683 30.0025 21.3367 30.0025 24.005 30.0004C24.6747 29.9999 24.9905 29.6877 24.9915 29.0238C24.9942 26.9021 24.9937 24.78 24.9915 22.6583C24.991 21.9939 24.6774 21.6715 24.0174 21.6656C23.1847 21.6581 22.3516 21.663 21.5184 21.6656C21.4326 21.6662 21.3468 21.6898 21.2439 21.7048C21.2439 22.1161 21.2503 22.506 21.2423 22.8959C21.2267 23.6307 20.6922 24.1638 19.9856 24.16C19.2838 24.1562 18.7583 23.6162 18.746 22.8788Z" fill="currentColor"/>
</svg>