<svg width="33" height="32" viewBox="0 0 33 32" fill="none" xmlns="http://www.w3.org/2000/svg">
<path d="M12.5555 28.0002H8.55552C7.08276 28.0002 5.88885 26.8063 5.88885 25.3335V12.0002C5.88885 10.5274 7.08276 9.3335 8.55552 9.3335H24.5555C26.0283 9.3335 27.2222 10.5274 27.2222 12.0002V13.3335" stroke="#F57C00" stroke-width="2" stroke-linecap="round" stroke-linejoin="round"/>
<path d="M21.2222 9.3335V8.00016C21.2222 5.42283 19.1329 3.3335 16.5555 3.3335V3.3335C13.9782 3.3335 11.8889 5.42283 11.8889 8.00016V8.00016V9.3335" stroke="#F57C00" stroke-width="2" stroke-linecap="round" stroke-linejoin="round"/>
<path d="M19.2222 20C19.2222 21.4728 20.4161 22.6667 21.8889 22.6667C23.3617 22.6667 24.5556 21.4728 24.5556 20" stroke="#F57C00" stroke-width="2" stroke-linecap="round" stroke-linejoin="round"/>
<rect x="15.2222" y="16" width="13.3333" height="12" rx="2.5" stroke="#F57C00" stroke-width="2" stroke-linecap="round" stroke-linejoin="round"/>
</svg>
