<svg width="32" height="32" viewBox="0 0 32 32" fill="none" xmlns="http://www.w3.org/2000/svg">
<path d="M4.00002 9.33317H2.66669" stroke="#F57C00" stroke-width="2" stroke-linecap="round" stroke-linejoin="round"/>
<path d="M5.33335 5.33317H2.66669" stroke="#F57C00" stroke-width="2" stroke-linecap="round" stroke-linejoin="round"/>
<path d="M22.6667 26.6667H4" stroke="#F57C00" stroke-width="2" stroke-linecap="round" stroke-linejoin="round"/>
<path d="M23.0334 5.33301L21.7187 9.71567C21.5494 10.2797 21.0294 10.6663 20.4414 10.6663H16.292C15.3987 10.6663 14.7587 9.80501 15.0147 8.95034L16.1 5.33301" stroke="#F57C00" stroke-width="2" stroke-linecap="round" stroke-linejoin="round"/>
<path d="M10.6667 17.3332H13.5067" stroke="#F57C00" stroke-width="2" stroke-linecap="round" stroke-linejoin="round"/>
<path fill-rule="evenodd" clip-rule="evenodd" d="M23.2507 21.333H9.13338C6.98938 21.333 5.45205 19.2663 6.06805 17.213L8.94805 7.61301C9.35471 6.25967 10.6 5.33301 12.0134 5.33301H26.132C28.276 5.33301 29.8134 7.39967 29.1974 9.45301L26.3174 19.053C25.9107 20.4063 24.664 21.333 23.2507 21.333Z" stroke="#F57C00" stroke-width="2" stroke-linecap="round" stroke-linejoin="round"/>
</svg>
