<svg width="32" height="32" viewBox="0 0 32 32" fill="none" xmlns="http://www.w3.org/2000/svg">
<g id="Group">
<path id="Path" fill-rule="evenodd" clip-rule="evenodd" d="M21.3333 18.6667H10.6666C9.56206 18.6667 8.66663 17.7712 8.66663 16.6667V8.49532C8.66663 8.04506 8.75785 7.59947 8.93479 7.18544L9.77729 5.21408C10.092 4.47771 10.8155 4.00003 11.6163 4H20.382C21.1825 3.99999 21.9059 4.47733 22.2208 5.21333L23.0646 7.18587C23.2419 7.60024 23.3333 8.04626 23.3333 8.49696V16.6667C23.3333 17.7712 22.4379 18.6667 21.3333 18.6667Z" stroke="#F57C00" stroke-width="2" stroke-linecap="round" stroke-linejoin="round"/>
<path id="Path_2" d="M14.2227 28L16 26.2226L14.2227 24.4453" stroke="#F57C00" stroke-width="2" stroke-linecap="round" stroke-linejoin="round"/>
<path id="Path_3" d="M4.02435 18.6667C3.2421 19.1991 2.74293 20.057 2.66669 21.0001C2.66669 23.9309 8.57831 26.3077 15.8915 26.3311" stroke="#F57C00" stroke-width="2" stroke-linecap="round" stroke-linejoin="round"/>
<path id="Path_4" d="M27.9757 18.6667C28.7579 19.1991 29.2571 20.057 29.3333 21.0001C29.3333 23.3881 25.4091 25.4088 20 26.0886" stroke="#F57C00" stroke-width="2" stroke-linecap="round" stroke-linejoin="round"/>
<path id="Path_5" d="M23.3333 16.6667V11.1855C23.3333 10.081 22.4379 9.18555 21.3333 9.18555H10.6666C9.56206 9.18555 8.66663 10.081 8.66663 11.1855V16.6667" stroke="#F57C00" stroke-width="2" stroke-linecap="round" stroke-linejoin="round"/>
<path id="Path_6" d="M16 4V9.18549" stroke="#F57C00" stroke-width="2" stroke-linecap="round" stroke-linejoin="round"/>
</g>
</svg>
