<svg xmlns="http://www.w3.org/2000/svg" width="24" height="24" viewBox="0 0 24 24" fill="none">
  <g clip-path="url(#clip0_241_2447)">
    <path d="M12 24C10.3803 24 8.80877 23.6825 7.32884 23.0568C5.89989 22.4525 4.61648 21.5872 3.51479 20.4855C2.4131 19.3838 1.54781 18.1004 0.943476 16.6714C0.317485 15.1912 0 13.6197 0 12C0 10.3803 0.317485 8.80877 0.943212 7.32884C1.54754 5.89989 2.41284 4.61648 3.51453 3.51479C4.61622 2.4131 5.89963 1.54781 7.32858 0.943476C8.80877 0.317485 10.3803 0 12 0C13.6197 0 15.1912 0.317485 16.6712 0.943212C18.1001 1.54754 19.3835 2.41284 20.4852 3.51453C21.5869 4.61622 22.4522 5.89963 23.0565 7.32858C23.6825 8.8085 23.9997 10.3801 23.9997 11.9997C23.9997 13.6194 23.6823 15.191 23.0565 16.6709C22.4522 18.0998 21.5869 19.3833 20.4852 20.4849C19.3835 21.5866 18.1001 22.4519 16.6712 23.0563C15.1912 23.6822 13.6197 23.9995 12 23.9995V24Z" fill="#44AA55"/>
    <path d="M5.71846 13.5618C6.36584 14.6139 7.48417 16.2731 8.3492 17.3629C8.75729 17.8772 9.4818 17.925 9.95803 17.4728C12.0842 14.4349 14.5493 11.0975 18.2834 7.05232C18.4599 6.78898 18.3711 6.43082 18.0919 6.28079C17.8785 6.16643 17.6149 6.20922 17.4485 6.38513C13.4916 9.65185 11.7744 11.3673 8.97942 14.4559C8.97942 14.4559 7.91999 13.7829 6.6408 12.7502C6.36637 12.5285 5.96278 12.5785 5.75095 12.8606C5.59696 13.0655 5.58428 13.3434 5.71846 13.5618Z" fill="white"/>
  </g>
  <defs>
    <clipPath id="clip0_241_2447">
      <rect width="24" height="24" fill="white"/>
    </clipPath>
  </defs>
</svg>