<svg xmlns="http://www.w3.org/2000/svg" width="64" height="64" viewBox="0 0 64 64" fill="none">
  <g clip-path="url(#clip0_241_1392)">
    <g opacity="0.7">
      <path d="M46.4424 8H31.04V25.8971H46.4424V8Z" fill="#CBD1DE"/>
      <path d="M63.6562 8H48.2539V25.8971H63.6562V8Z" fill="#CBD1DE"/>
      <path d="M46.4424 27.2228H31.04V45.12H46.4424V27.2228Z" fill="#CBD1DE"/>
      <path d="M63.6562 27.2229H48.2539V45.12H63.6562V27.2229Z" fill="#CBD1DE"/>
    </g>
    <path d="M60.7701 62.6328L1.78711 65.6132V62.6328H60.7701Z" fill="#1F160F"/>
    <path d="M22.7332 23.3929L15.3271 23.5487V15.9998H22.7332V23.3929Z" fill="#F0BEA8"/>
    <path d="M22.7334 21.1787V15.9998H16.1582C16.1582 15.9998 15.9237 21.7568 22.7334 21.1787Z" fill="#1F160F"/>
    <path d="M26.2593 4.17404H26.7006C26.7006 4.17404 25.7226 1.1971 23.0512 1.84088C22.3476 0.2704 20.0856 0.471323 20.0856 0.471323L20.6422 1.09869C13.6615 -0.315967 12.0078 6.11356 12.0078 6.11356L12.8148 5.85113C12.139 8.09819 12.3537 10.9439 13.8285 14.0111L25.1621 14.2407C26.0566 12.6333 26.0844 10.5257 26.4143 9.17661C26.951 7.39701 26.8636 5.5641 26.2553 4.17404H26.2593Z" fill="#1F160F"/>
    <path d="M25.8854 12.4652C25.79 18.1443 24.8916 20.2479 21.0435 20.1782C17.1993 20.1084 14.3729 17.9352 14.4723 12.2602C14.5677 6.58921 18.1494 4.7399 20.308 4.78091C22.4706 4.81781 25.9808 6.79424 25.8854 12.4652Z" fill="#F0BEA8"/>
    <path d="M12.1161 11.8747C12.3546 10.0295 13.6028 9.55386 14.8869 10.9767L14.8153 15.0977C13.1854 16.4426 11.8736 13.7199 12.1121 11.8747H12.1161Z" fill="#F0BEA8"/>
    <path d="M12.7278 12.0387C12.7278 12.0387 12.7079 12.0387 12.6999 12.0346C12.6443 12.0182 12.6165 11.9567 12.6324 11.9034C12.7596 11.4606 13.018 11.1858 13.3559 11.1325C13.7256 11.071 14.143 11.2925 14.4133 11.6984C14.4451 11.7476 14.4332 11.8132 14.3855 11.846C14.3378 11.8788 14.2742 11.8665 14.2424 11.8173C14.0158 11.4811 13.6779 11.2925 13.3877 11.3417C13.1293 11.3827 12.9345 11.6 12.8272 11.9649C12.8152 12.01 12.7715 12.0387 12.7278 12.0387Z" fill="#1F160F"/>
    <path d="M17.7083 7.4257C21.3974 9.1315 23.0948 6.25707 25.3846 7.22888C26.5096 7.70453 25.6231 3.60407 20.7931 3.51796C14.7507 3.40725 14.5718 9.67276 14.6075 10.6979C14.6473 11.8419 15.2436 13.642 15.4583 12.867C16.4759 9.11509 17.3585 10.3739 17.7123 7.4257H17.7083Z" fill="#1F160F"/>
    <path d="M18.302 12.5595H20.8144C21.0339 12.5595 21.2119 12.3759 21.2119 12.1494V11.0956C21.2119 10.8692 21.0339 10.6856 20.8144 10.6856H18.302C18.0824 10.6856 17.9045 10.8692 17.9045 11.0956V12.1494C17.9045 12.3759 18.0824 12.5595 18.302 12.5595Z" fill="white"/>
    <path d="M22.6031 12.5595H24.8134C25.033 12.5595 25.2109 12.3759 25.2109 12.1494V11.0956C25.2109 10.8692 25.033 10.6856 24.8134 10.6856H22.6031C22.3836 10.6856 22.2056 10.8692 22.2056 11.0956V12.1494C22.2056 12.3759 22.3836 12.5595 22.6031 12.5595Z" fill="white"/>
    <path d="M22.3491 11.4524H20.91C20.8543 11.4524 20.8066 11.4032 20.8066 11.3457C20.8066 11.2883 20.8543 11.2391 20.91 11.2391H22.3491C22.4047 11.2391 22.4524 11.2883 22.4524 11.3457C22.4524 11.4032 22.4047 11.4524 22.3491 11.4524Z" fill="white"/>
    <path d="M18.1228 11.4524C18.1228 11.4524 18.1029 11.4524 18.091 11.4483L14.6921 10.3083L14.3661 10.4354C14.3145 10.4559 14.2548 10.4272 14.235 10.3739C14.2151 10.3206 14.2429 10.2591 14.2946 10.2386L14.6524 10.0992C14.6762 10.091 14.7001 10.091 14.72 10.0992L18.1546 11.2473C18.2103 11.2637 18.2381 11.3252 18.2222 11.3826C18.2063 11.4277 18.1665 11.4565 18.1228 11.4565V11.4524Z" fill="white"/>
    <path d="M25.1073 11.4524C25.0556 11.4524 25.0119 11.4154 25.0039 11.3621C24.996 11.3047 25.0357 11.2514 25.0914 11.2432L25.9501 11.1202C26.0057 11.1161 26.0574 11.153 26.0654 11.2104C26.0733 11.2678 26.0335 11.3211 25.9779 11.3293L25.1192 11.4524C25.1192 11.4524 25.1113 11.4524 25.1033 11.4524H25.1073Z" fill="white"/>
    <path d="M21.4585 15.0895C21.3591 15.0895 21.2637 15.069 21.1723 15.028C21.1206 15.0034 21.0968 14.9419 21.1206 14.8886C21.1445 14.8352 21.2041 14.8106 21.2558 14.8352C21.5102 14.9542 21.7845 14.7983 21.8878 14.7245C22.0787 14.5933 22.1741 14.4334 22.1741 14.3719C22.1741 14.3063 22.1105 14.1423 22.0469 13.9659C21.8878 13.5313 21.6454 12.8711 21.6573 12.1945C21.6573 12.1371 21.6931 12.0879 21.7606 12.092C21.8163 12.092 21.864 12.1412 21.86 12.1986C21.8481 12.8342 22.0826 13.4698 22.2377 13.8921C22.3212 14.1177 22.3728 14.2653 22.3768 14.3637C22.3848 14.5523 22.19 14.7696 21.9992 14.9009C21.8163 15.0239 21.6295 15.0895 21.4506 15.0895H21.4585Z" fill="#1F160F"/>
    <path d="M23.9187 11.7271C23.9147 12.0797 23.7239 12.3586 23.4973 12.3545C23.2707 12.3504 23.0918 12.0633 23.0958 11.7107C23.0997 11.3581 23.2906 11.0792 23.5172 11.0833C23.7437 11.0833 23.9226 11.3745 23.9187 11.7271Z" fill="#1F160F"/>
    <path d="M24.55 10.6528C24.5023 10.6528 24.4546 10.6405 24.4069 10.6158C23.9974 10.3944 23.6237 10.296 22.94 10.4436C22.773 10.4764 22.61 10.3698 22.5743 10.1976C22.5385 10.0254 22.6458 9.85726 22.8128 9.82036C23.5562 9.66454 24.0809 9.72605 24.6891 10.0541C24.8402 10.1361 24.8998 10.3288 24.8203 10.4846C24.7647 10.5953 24.6573 10.6569 24.546 10.6569L24.55 10.6528Z" fill="#1F160F"/>
    <path d="M19.2354 11.6246C19.2314 11.9772 19.4103 12.2642 19.6369 12.2684C19.8635 12.2725 20.0543 11.9895 20.0583 11.641C20.0623 11.2883 19.8834 11.0013 19.6568 10.9972C19.4302 10.9931 19.2394 11.276 19.2354 11.6246Z" fill="#1F160F"/>
    <path d="M18.6041 10.5133C18.5007 10.5133 18.3973 10.46 18.3417 10.3616C18.2542 10.2099 18.298 10.0172 18.4451 9.92288C19.0573 9.53744 19.6257 9.45953 20.544 9.62355C20.711 9.65225 20.8223 9.82037 20.7945 9.99259C20.7666 10.1648 20.6036 10.2796 20.4367 10.2509C19.574 10.0951 19.1845 10.2058 18.7671 10.4682C18.7154 10.501 18.6597 10.5133 18.608 10.5133H18.6041Z" fill="#1F160F"/>
    <path d="M22.7195 16.8743C21.3571 16.9172 20.2098 16.4456 19.5424 15.68C19.5424 15.68 19.3328 16.954 20.1823 17.4194C21.302 18.0381 22.7195 16.8682 22.7195 16.8682V16.8743Z" fill="white"/>
    <path d="M37.5489 43.4934C35.0644 43.9691 32.226 40.7912 29.2922 34.8332C29.2922 34.8332 29.7692 42.8989 30.298 62.4991H4.89173L5.42044 47.0034C5.42044 47.0034 3.48049 43.641 3.56 41.4883C3.94958 31.2617 5.32503 27.4811 6.74025 25.7917C9.3083 22.7287 16.5632 22.3104 19.6441 22.4129C24.005 22.5523 27.2886 22.9419 29.0696 23.4668C31.1646 24.0818 35.3387 28.9122 38.5507 35.5344C38.5507 35.5344 41.7906 42.6651 37.5489 43.4893V43.4934Z" fill="#1E88E5"/>
    <path d="M22.7332 22.5564C22.7332 24.3565 22.0017 26.5093 19.8709 26.5093C17.7402 26.5093 15.3271 24.6682 15.3271 22.4416C15.3271 22.4416 17.6885 22.2817 19.3382 22.2817C20.988 22.2817 22.7332 22.5605 22.7332 22.5605V22.5564Z" fill="#F0BEA8"/>
    <path d="M29.2931 34.9398C29.2375 34.9398 29.1937 34.8947 29.1898 34.8373C29.1222 32.5124 28.7962 28.1085 28.7922 28.0675C28.7883 28.0101 28.832 27.9568 28.8876 27.9527C28.9433 27.9486 28.995 27.9937 28.999 28.0511C28.999 28.0962 29.3289 32.5042 29.3965 34.8332C29.3965 34.8906 29.3528 34.9398 29.2971 34.9439L29.2931 34.9398Z" fill="#1F160F"/>
    <path d="M16.4732 28.1331C19.4666 26.0254 21.1362 26.8865 23.1676 27.969C23.1676 27.969 23.8991 24.9511 23.8474 22.6507L22.7303 21.7117C22.7303 23.0198 21.5497 26.2468 19.9556 26.2468C16.028 26.2468 15.3243 21.7117 15.3243 21.7117L13.9131 22.7615C14.092 25.0413 16.4732 28.129 16.4732 28.129V28.1331Z" fill="white"/>
    <path d="M11.4482 42.169C11.4482 42.169 11.4363 42.169 11.4323 42.169C11.3766 42.1608 11.3369 42.1075 11.3488 42.0459C12.2711 36.047 12.9548 32.1638 12.9628 32.1269C12.9707 32.0695 13.0264 32.0326 13.082 32.0408C13.1377 32.0531 13.1735 32.1064 13.1655 32.1638C13.1576 32.2007 12.4778 36.0839 11.5515 42.0787C11.5436 42.1321 11.4999 42.169 11.4522 42.169H11.4482Z" fill="#1F160F"/>
    <path d="M19.9588 32.496C19.9031 32.496 19.8594 32.4467 19.8594 32.3852C19.8594 32.3565 19.9588 29.4001 19.8594 27.0505C19.8594 26.9931 19.8991 26.9439 19.9588 26.9398C20.0184 26.9275 20.0621 26.9849 20.0661 27.0423C20.1655 29.4001 20.0661 32.3647 20.0661 32.3934C20.0661 32.4508 20.0184 32.496 19.9627 32.496H19.9588Z" fill="#1F160F"/>
    <path d="M37.9797 38.0644H20.4844V63.68H37.9797V38.0644Z" fill="#E59E47"/>
    <path d="M59.8398 38.0644H37.9756V63.68H59.8398V38.0644Z" fill="#FABC5F"/>
    <path d="M48.8129 58.7389H40.8623V61.1992H48.8129V58.7389Z" fill="#F5E5C9"/>
    <path d="M44.0426 55.4586H40.8623V57.9188H44.0426V55.4586Z" fill="#F5E5C9"/>
    <path d="M48.8131 55.4586H45.6328V57.9188H48.8131V55.4586Z" fill="#F5E5C9"/>
    <path d="M31.2175 38.0644V43.805L30.5576 42.985L29.8937 43.805L29.2338 42.985L28.5699 43.805L27.9061 42.985L27.2422 43.805V38.0644H31.2175Z" fill="#F5E5C9"/>
    <path d="M20.1299 56.7625C22.7178 57.5293 24.0257 57.8778 26.0173 58.1362C27.4524 58.3207 30.5611 58.6774 30.6645 57.9721C30.7519 57.394 27.52 57.07 27.52 57.07C27.52 57.07 30.9149 56.8076 31.6543 56.6272C32.3699 56.455 32.3142 55.5447 31.6344 55.6472C31.1018 55.7292 27.52 55.803 27.52 55.803C27.52 55.803 31.8451 55.2658 32.2307 55.2084C32.8668 55.11 32.7237 54.1013 32.1115 54.1587C30.2868 54.3227 27.1344 54.458 27.1344 54.458C27.1344 54.458 31.4476 53.8102 31.6344 53.7774C32.2228 53.6667 32.2228 52.7564 31.4317 52.8384C28.9153 53.0967 25.4449 53.1377 25.4449 53.1377C25.4449 53.1377 25.4807 52.7481 25.592 52.5759C25.7033 52.4037 26.1525 51.7968 26.9794 51.9035C29.5037 52.2315 29.0028 51.1162 29.0028 51.1162C29.0028 51.1162 27.4087 50.5626 26.721 50.3822C26.0929 50.2182 24.3835 50.3822 23.5924 50.7143C23.0279 50.948 20.7779 52.0757 20.599 51.965C14.9183 48.4304 11.098 44.3955 11.098 44.3955L11.09 42.0705C7.18627 42.3945 3.56475 41.5047 3.56475 41.5047C3.56475 41.5047 3.38587 45.4985 3.73967 46.3801C4.09347 47.2658 14.1232 54.9911 20.1378 56.7748L20.1299 56.7625Z" fill="#F0BEA8"/>
    <path d="M21.0714 28.7235C21.2909 28.7235 21.4689 28.54 21.4689 28.3135C21.4689 28.087 21.2909 27.9034 21.0714 27.9034C20.8518 27.9034 20.6738 28.087 20.6738 28.3135C20.6738 28.54 20.8518 28.7235 21.0714 28.7235Z" fill="#1F160F"/>
    <path d="M21.0714 30.9788C21.2909 30.9788 21.4689 30.7952 21.4689 30.5687C21.4689 30.3423 21.2909 30.1587 21.0714 30.1587C20.8518 30.1587 20.6738 30.3423 20.6738 30.5687C20.6738 30.7952 20.8518 30.9788 21.0714 30.9788Z" fill="#1F160F"/>
  </g>
  <defs>
    <clipPath id="clip0_241_1392">
      <rect width="64" height="64" fill="white"/>
    </clipPath>
  </defs>
</svg>