<svg width="90" height="56" viewBox="0 0 90 56" fill="none" xmlns="http://www.w3.org/2000/svg">
<g id="easy-to-use 1" clip-path="url(#clip0_1130_32382)">
<path id="Vector" d="M45.8801 21.0332C36.6915 21.0332 29.2427 27.7748 29.2427 36.0909C29.2427 44.4071 36.6915 51.1487 45.8801 51.1487C55.0687 51.1487 62.5176 44.4071 62.5176 36.0909C62.5176 27.7748 55.0687 21.0332 45.8801 21.0332Z" fill="white"/>
<path id="Vector_2" d="M22.376 25.8132L41.1306 32.2621V54.8331L22.376 48.3842V25.8132Z" fill="black"/>
<path id="Vector_3" d="M66.7433 22.0896L45.352 29.6374L23.9609 22.0896L45.352 15.2966L66.7433 22.0896Z" fill="black"/>
<path id="Vector_4" d="M68.5955 25.6956L49.8408 32.1444V54.7155L68.5955 48.2666V25.6956Z" fill="black"/>
<path id="Vector_5" d="M31.7767 40.479L17.667 48.6034" stroke="white" stroke-width="12" stroke-linecap="round" stroke-linejoin="round"/>
<path id="Vector_6" d="M58.292 40.6321L72.4017 48.7565" stroke="white" stroke-width="12" stroke-linecap="round" stroke-linejoin="round"/>
<path id="Vector_7" d="M45.2719 22.3898L45.2559 7.25439" stroke="white" stroke-width="12" stroke-linecap="round" stroke-linejoin="round"/>
<path id="Vector_8" d="M17.2573 43.9379C14.2501 43.9379 11.8124 46.1442 11.8124 48.8658C11.8124 51.5874 14.2501 53.7937 17.2573 53.7937C20.2644 53.7937 22.7021 51.5874 22.7021 48.8658C22.7021 46.1442 20.2644 43.9379 17.2573 43.9379Z" fill="#BF3DC2"/>
<path id="Vector_9" d="M72.8121 44.091C75.8192 44.091 78.257 46.2973 78.257 49.0189C78.257 51.7405 75.8192 53.9468 72.8121 53.9468C69.8049 53.9468 67.3672 51.7405 67.3672 49.0189C67.3672 46.2973 69.8049 44.091 72.8121 44.091Z" fill="#218EFF"/>
<path id="Vector_10" d="M49.8277 9.44271C51.4394 7.14504 50.688 4.09989 48.1492 2.64117C45.6105 1.18246 42.2459 1.86258 40.6341 4.16025C39.0224 6.45792 39.7739 9.50307 42.3126 10.9618C44.8513 12.4205 48.2159 11.7404 49.8277 9.44271Z" fill="#AF0000"/>
</g>
<defs>
<clipPath id="clip0_1130_32382">
<rect width="90" height="56" fill="white"/>
</clipPath>
</defs>
</svg>
