<svg width="60" height="60" viewBox="0 0 60 60" fill="none" xmlns="http://www.w3.org/2000/svg">
<g id="PART-Handling_v2 1">
<g id="04-Icons/72px/Handling-Copy">
<g id="Group">
<g id="Path">
<path id="Vector" d="M17.3889 24.1079L20.0944 26.4269L22.7999 24.1079C23.1864 23.7214 23.8628 23.7214 24.2493 24.1079L26.9548 26.4269L29.6604 24.1079C30.0469 23.7214 30.7233 23.7214 31.1098 24.1079L32.6558 25.4606V11.4499V10.2904V9.13086H14.2969V10.2904V11.4499V25.4606L15.8429 24.1079C16.326 23.818 17.0024 23.818 17.3889 24.1079Z" fill="#175CFF"/>
<path id="Vector_2" d="M44.158 9.13086H35.1718V10.2904V11.4499V27.9729C35.1718 28.456 34.8819 28.8425 34.4954 29.0358C34.3021 29.1324 34.2055 29.1324 34.0123 29.1324C33.7224 29.1324 33.4325 29.0358 33.2393 28.8425L30.5337 26.5235L27.8282 28.8425C27.4417 29.229 26.7653 29.229 26.3788 28.8425L23.5767 26.5235L20.8712 28.8425C20.4847 29.229 19.8083 29.229 19.4218 28.8425L16.6196 26.5235L13.9141 28.8425C13.5276 29.1324 13.0445 29.229 12.658 29.0358C12.2715 28.8425 11.9816 28.456 11.9816 27.9729V11.4499V10.2904V9.13086H3.09202C1.35276 9.13086 0 10.4836 0 12.2229V43.5296C0 45.2689 1.35276 46.6217 3.09202 46.6217H44.158C45.8972 46.6217 47.25 45.2689 47.25 43.5296V12.2229C47.25 10.4836 45.8972 9.13086 44.158 9.13086Z" fill="#175CFF"/>
</g>
<path id="Path_2" d="M53.3333 46.5H0V48.5H53.3333C55.9167 48.5 58 50.5833 58 53.1667C58 55.75 55.9167 57.8333 53.3333 57.8333H0V59.8333H53.3333C57 59.8333 60 56.8333 60 53.1667C60 49.5 57 46.5 53.3333 46.5Z" fill="#FF8030"/>
<path id="Oval" d="M53.3333 56.5846C55.1743 56.5846 56.6667 55.0923 56.6667 53.2513C56.6667 51.4104 55.1743 49.918 53.3333 49.918C51.4924 49.918 50 51.4104 50 53.2513C50 55.0923 51.4924 56.5846 53.3333 56.5846Z" fill="#FF8030"/>
<path id="Oval_2" d="M37.4974 56.5846C39.3383 56.5846 40.8307 55.0923 40.8307 53.2513C40.8307 51.4104 39.3383 49.918 37.4974 49.918C35.6564 49.918 34.1641 51.4104 34.1641 53.2513C34.1641 55.0923 35.6564 56.5846 37.4974 56.5846Z" fill="#FF8030"/>
<path id="Oval_3" d="M21.6693 56.5846C23.5102 56.5846 25.0026 55.0923 25.0026 53.2513C25.0026 51.4104 23.5102 49.918 21.6693 49.918C19.8283 49.918 18.3359 51.4104 18.3359 53.2513C18.3359 55.0923 19.8283 56.5846 21.6693 56.5846Z" fill="#FF8030"/>
<path id="Oval_4" d="M5.83333 56.5846C7.67428 56.5846 9.16667 55.0923 9.16667 53.2513C9.16667 51.4104 7.67428 49.918 5.83333 49.918C3.99238 49.918 2.5 51.4104 2.5 53.2513C2.5 55.0923 3.99238 56.5846 5.83333 56.5846Z" fill="#FF8030"/>
</g>
</g>
</g>
</svg>
