<svg width="60" height="60" viewBox="0 0 60 60" fill="none" xmlns="http://www.w3.org/2000/svg">
<g id="PART-Automation" clip-path="url(#clip0_5546_35120)">
<g id="04-Icons/72px/Automation">
<g id="l-settings">
<g id="Group">
<path id="Path" d="M33.2067 51.6836L36.2417 48.5186H22.7625V44.6914H0.948512C0.69479 44.6934 0.452272 44.7971 0.274377 44.9796C0.0964813 45.1621 -0.00219777 45.4085 3.71519e-05 45.6645C0.0141745 50.4117 3.83019 54.2541 8.536 54.2593H34.6806L33.2067 51.6836Z" fill="#175CFF"/>
<path id="Path_2" d="M53.1093 14.0747V34.7213L53.9079 37.5381C54.0027 37.5945 54.1052 37.6529 54.2019 37.7103L55.0062 37.5075V13.1179C55.0062 10.4758 52.883 8.33398 50.264 8.33398H10.4297C7.81065 8.33398 5.6875 10.4758 5.6875 13.1179V42.7784H7.58437V14.0747C7.58437 13.5463 8.009 13.1179 8.53281 13.1179H52.1609C52.6847 13.1179 53.1093 13.5463 53.1093 14.0747Z" fill="#175CFF"/>
<path id="Shape" d="M56.9078 47.5633C56.9056 47.1491 56.8739 46.7357 56.813 46.3261L60.0016 43.0013L58.1048 39.687L53.6604 40.8093C53.0138 40.2928 52.2962 39.8738 51.5302 39.5655L50.2688 35.125H46.475L45.2174 39.5674C44.4514 39.8757 43.7338 40.2947 43.0872 40.8112L38.6429 39.6889L36.746 43.0032L39.9308 46.3261C39.8694 46.7356 39.8377 47.1491 39.836 47.5633C39.8382 47.9774 39.8699 48.3908 39.9308 48.8004L36.7422 52.1252L38.6391 55.4396L43.0834 54.3173C43.73 54.8338 44.4476 55.2528 45.2136 55.5611L46.475 60.0015H50.2688L51.5264 55.5592C52.2925 55.2509 53.01 54.8319 53.6566 54.3153L58.101 55.4377L59.9978 52.1233L56.813 48.8004C56.8744 48.3909 56.9061 47.9774 56.9078 47.5633ZM48.3719 50.4336C46.8005 50.4336 45.5266 49.1485 45.5266 47.5633C45.5266 45.978 46.8005 44.6929 48.3719 44.6929C49.9433 44.6929 51.2172 45.978 51.2172 47.5633C51.2172 49.1485 49.9433 50.4336 48.3719 50.4336Z" fill="#175CFF"/>
</g>
</g>
<g id="04-Icons/24px/Check">
<path id="Path_3" fill-rule="evenodd" clip-rule="evenodd" d="M27.4876 36.6673C27.2022 36.6675 26.9286 36.5408 26.7267 36.3152L21.6641 30.6508L23.185 28.9494L27.4876 33.7626L36.8098 23.334L38.3307 25.0354L28.2484 36.3152C28.0466 36.5408 27.7729 36.6675 27.4876 36.6673Z" fill="#F57C00"/>
</g>
</g>
</g>
<defs>
<clipPath id="clip0_5546_35120">
<rect width="60" height="60" fill="white"/>
</clipPath>
</defs>
</svg>
