<svg width="48" height="48" viewBox="0 0 48 48" fill="none" xmlns="http://www.w3.org/2000/svg">
<g clip-path="url(#clip0_84_773)">
<path fill-rule="evenodd" clip-rule="evenodd" d="M5.53846 15.6757C5.53846 15.2279 5.88286 14.8649 6.30769 14.8649H41.6923C42.1171 14.8649 42.4615 15.2279 42.4615 15.6757V40H44V14.0541C44 11.8151 42.278 10 40.1538 10H7.84615C5.72198 10 4 11.8151 4 14.0541V40H5.53846V15.6757Z" fill="#199FD8"/>
<path d="M6.30769 14.8649C5.88286 14.8649 5.53846 15.2279 5.53846 15.6757V40H42.4615V15.6757C42.4615 15.2279 42.1171 14.8649 41.6923 14.8649H6.30769Z" fill="#D1F5FF"/>
<path fill-rule="evenodd" clip-rule="evenodd" d="M48.0001 40.2641L30.7863 40.264L30.2661 41.4126C30.1041 41.7702 29.7478 42 29.3551 42H18.6701C18.2647 42 17.8994 41.7552 17.7452 41.3802L17.2864 40.264H0.143555C0.148101 45.7181 3.39618 47.174 7.5364 47.18H40.5362C44.6765 47.174 47.9956 45.7181 48.0001 40.2641Z" fill="#1A6B8E"/>
<path fill-rule="evenodd" clip-rule="evenodd" d="M18.165 26.6212V34.5379V26.6212Z" fill="#199FD8"/>
<path fill-rule="evenodd" clip-rule="evenodd" d="M29.835 26.6212V34.5379V26.6212Z" fill="#199FD8"/>
<path fill-rule="evenodd" clip-rule="evenodd" d="M18.165 26.6212V34.5379H29.835V26.6212V24H18.165V26.6212ZM25.6665 31.019V34.5371H22.3335V31.019C22.3335 30.0476 23.0798 29.2599 24 29.2599C24.9203 29.2599 25.6665 30.0476 25.6665 31.019Z" fill="#199FD8"/>
<path fill-rule="evenodd" clip-rule="evenodd" d="M18.2254 26.6204C16.9519 26.6109 16.1217 25.2802 16.6737 24.133L17.9599 21.4596C18.2532 20.85 18.8697 20.4629 19.5462 20.4629H28.4532C29.1297 20.4629 29.7462 20.85 30.0394 21.4596L31.3264 24.133C31.8784 25.2802 31.0482 26.6109 29.7747 26.6204C28.7119 26.6204 27.8502 25.8541 27.8502 24.9081V24.8701C27.8502 25.8367 26.9884 26.6204 25.9257 26.6204C24.8629 26.6204 24.0012 25.8367 24.0012 24.8701C24.0012 25.8367 23.1394 26.6204 22.0767 26.6204C21.0139 26.6204 20.1522 25.8367 20.1522 24.8701V24.9081C20.1499 25.8541 19.2882 26.6204 18.2254 26.6204Z" fill="black"/>
</g>
<defs>
<clipPath id="clip0_84_773">
<rect width="48" height="48" fill="white"/>
</clipPath>
</defs>
</svg>
