<svg xmlns="http://www.w3.org/2000/svg" width="60" height="60" viewBox="0 0 60 60" fill="none">
  <path d="M33.2067 51.6834L36.2417 48.5183H22.7625V44.6912H0.948451C0.694729 44.6932 0.452211 44.7969 0.274316 44.9794C0.0964203 45.1619 -0.00225881 45.4083 -2.38833e-05 45.6642C0.0141135 50.4115 3.83012 54.2538 8.53594 54.2591H34.6805L33.2067 51.6834Z" fill="#175CFF"/>
  <path d="M53.1125 14.074V34.7206L53.9111 37.5374C54.0059 37.5938 54.1083 37.6522 54.2051 37.7096L55.0093 37.5067V13.1172C55.0093 10.4751 52.8862 8.33325 50.2672 8.33325H10.4329C7.81382 8.33325 5.69067 10.4751 5.69067 13.1172V42.7777H7.58755V14.074C7.58755 13.5456 8.01218 13.1172 8.53598 13.1172H52.164C52.6878 13.1172 53.1125 13.5456 53.1125 14.074Z" fill="#175CFF"/>
  <path d="M56.9059 47.5616C56.9037 47.1474 56.872 46.734 56.811 46.3244L59.9997 42.9996L58.1028 39.6853L53.6584 40.8076C53.0119 40.2911 52.2943 39.8721 51.5282 39.5638L50.2668 35.1233H46.4731L45.2155 39.5657C44.4494 39.874 43.7319 40.293 43.0853 40.8095L38.6409 39.6872L36.744 43.0015L39.9289 46.3244C39.8675 46.7339 39.8358 47.1474 39.834 47.5616C39.8362 47.9757 39.8679 48.3891 39.9289 48.7987L36.7402 52.1235L38.6371 55.4379L43.0815 54.3155C43.7281 54.8321 44.4456 55.2511 45.2117 55.5594L46.4731 59.9998H50.2668L51.5245 55.5575C52.2905 55.2491 53.0081 54.8302 53.6546 54.3136L58.099 55.4359L59.9959 52.1216L56.811 48.7987C56.8725 48.3892 56.9042 47.9757 56.9059 47.5616ZM48.37 50.4319C46.7985 50.4319 45.5246 49.1468 45.5246 47.5616C45.5246 45.9763 46.7985 44.6912 48.37 44.6912C49.9414 44.6912 51.2153 45.9763 51.2153 47.5616C51.2153 49.1468 49.9414 50.4319 48.37 50.4319Z" fill="#175CFF"/>
  <path fill-rule="evenodd" clip-rule="evenodd" d="M27.4905 36.6666C27.2052 36.6667 26.9315 36.54 26.7297 36.3144L21.667 30.6501L23.1879 28.9486L27.4905 33.7618L36.8127 23.3333L38.3337 25.0347L28.2513 36.3144C28.0495 36.54 27.7758 36.6667 27.4905 36.6666Z" fill="#F57C00"/>
</svg>