<svg xmlns="http://www.w3.org/2000/svg" width="60" height="60" viewBox="0 0 60 60" fill="none">
  <g clip-path="url(#clip0_820_18897)">
    <path d="M17.3926 24.1074L20.0981 26.4264L22.8037 24.1074C23.1902 23.7209 23.8665 23.7209 24.2531 24.1074L26.9586 26.4264L29.6641 24.1074C30.0506 23.7209 30.727 23.7209 31.1135 24.1074L32.6595 25.4601V11.4494V10.2899V9.13037H14.3006V10.2899V11.4494V25.4601L15.8466 24.1074C16.3297 23.8175 17.0061 23.8175 17.3926 24.1074Z" fill="#175CFF"/>
    <path d="M44.158 9.13037H35.1718V10.2899V11.4494V27.9724C35.1718 28.4555 34.8819 28.842 34.4954 29.0353C34.3021 29.1319 34.2055 29.1319 34.0123 29.1319C33.7224 29.1319 33.4325 29.0353 33.2393 28.842L30.5337 26.523L27.8282 28.842C27.4417 29.2285 26.7653 29.2285 26.3788 28.842L23.5767 26.523L20.8712 28.842C20.4847 29.2285 19.8083 29.2285 19.4218 28.842L16.6196 26.523L13.9141 28.842C13.5276 29.1319 13.0445 29.2285 12.658 29.0353C12.2715 28.842 11.9816 28.4555 11.9816 27.9724V11.4494V10.2899V9.13037H3.09202C1.35276 9.13037 0 10.4831 0 12.2224V43.5291C0 45.2684 1.35276 46.6212 3.09202 46.6212H44.158C45.8972 46.6212 47.25 45.2684 47.25 43.5291V12.2224C47.25 10.4831 45.8972 9.13037 44.158 9.13037Z" fill="#175CFF"/>
    <path d="M53.3333 46.5H0V48.5H53.3333C55.9167 48.5 58 50.5833 58 53.1667C58 55.75 55.9167 57.8333 53.3333 57.8333H0V59.8333H53.3333C57 59.8333 60 56.8333 60 53.1667C60 49.5 57 46.5 53.3333 46.5Z" fill="#F57C00"/>
    <path d="M53.3333 56.5834C55.1743 56.5834 56.6667 55.091 56.6667 53.2501C56.6667 51.4091 55.1743 49.9167 53.3333 49.9167C51.4924 49.9167 50 51.4091 50 53.2501C50 55.091 51.4924 56.5834 53.3333 56.5834Z" fill="#F57C00"/>
    <path d="M37.5003 56.5834C39.3413 56.5834 40.8337 55.091 40.8337 53.2501C40.8337 51.4091 39.3413 49.9167 37.5003 49.9167C35.6594 49.9167 34.167 51.4091 34.167 53.2501C34.167 55.091 35.6594 56.5834 37.5003 56.5834Z" fill="#F57C00"/>
    <path d="M21.6663 56.5834C23.5073 56.5834 24.9997 55.091 24.9997 53.2501C24.9997 51.4091 23.5073 49.9167 21.6663 49.9167C19.8254 49.9167 18.333 51.4091 18.333 53.2501C18.333 55.091 19.8254 56.5834 21.6663 56.5834Z" fill="#F57C00"/>
    <path d="M5.83333 56.5834C7.67428 56.5834 9.16667 55.091 9.16667 53.2501C9.16667 51.4091 7.67428 49.9167 5.83333 49.9167C3.99238 49.9167 2.5 51.4091 2.5 53.2501C2.5 55.091 3.99238 56.5834 5.83333 56.5834Z" fill="#F57C00"/>
  </g>
  <defs>
    <clipPath id="clip0_820_18897">
      <rect width="60" height="60" fill="white"/>
    </clipPath>
  </defs>
</svg>