<svg xmlns="http://www.w3.org/2000/svg" width="61" height="60" viewBox="0 0 61 60" fill="none">
  <g clip-path="url(#clip0_885_6705)">
    <path d="M3.99903 19.9821H35.9648C37.6217 19.9821 38.9648 21.3252 38.9648 22.9821V49.8174C38.9648 51.4742 37.6217 52.8174 35.9648 52.8174H3.99903C2.34218 52.8174 0.999031 51.4742 0.999031 49.8174V22.9821C0.999031 21.3252 2.34218 19.9821 3.99903 19.9821Z" fill="url(#paint0_linear_885_6705)"/>
    <path d="M39.4808 34.5219C39.4808 33.2976 40.4752 32.2953 41.6899 32.2953H49.9984C51.2131 32.2953 52.7554 33.131 53.4251 34.1508L58.7824 42.3036C59.4521 43.3234 60 45.1614 60 46.3858V50.5907C60 51.8151 59.0056 52.8173 57.791 52.8173H41.687C40.4723 52.8173 39.4779 51.8151 39.4779 50.5907V34.519L39.4808 34.5219Z" fill="#3C5485"/>
    <path d="M55.0595 42.0506C55.8571 42.0506 56.3337 41.1625 55.8928 40.4978L52.3128 35.1011C52.1275 34.8218 51.8146 34.6539 51.4794 34.6539H44.1951C43.6428 34.6539 43.1951 35.1016 43.1951 35.6539V41.0506C43.1951 41.6029 43.6428 42.0506 44.1951 42.0506H55.0595Z" fill="#F9F9F9"/>
    <path d="M49.4569 60.5C46.2768 60.5 43.6735 57.9947 43.6735 54.8696C43.6735 51.7444 46.2768 49.2391 49.4569 49.2391C52.637 49.2391 55.2404 51.7444 55.2404 54.8696C55.2404 57.9947 52.637 60.5 49.4569 60.5Z" fill="#2F3E54" stroke="white"/>
    <path d="M46.8083 54.8722C46.8083 56.2937 47.9938 57.4427 49.4569 57.4427C50.9201 57.4427 52.1056 56.2911 52.1056 54.8722C52.1056 53.4533 50.9201 52.3016 49.4569 52.3016C47.9938 52.3016 46.8083 53.4533 46.8083 54.8722Z" fill="#F9F9F9"/>
    <path d="M12.9518 60.4998C9.77172 60.4998 7.16832 57.9945 7.16832 54.8694C7.16832 51.7443 9.77172 49.2389 12.9518 49.2389C16.1319 49.2389 18.7352 51.7443 18.7352 54.8694C18.7352 57.9945 16.1319 60.4998 12.9518 60.4998Z" fill="#2F3E54" stroke="white"/>
    <path d="M10.3024 54.8721C10.3024 56.2937 11.4879 57.4427 12.9511 57.4427C14.4142 57.4427 15.5997 56.291 15.5997 54.8721C15.5997 53.4532 14.4142 52.3015 12.9511 52.3015C11.4879 52.3015 10.3024 53.4532 10.3024 54.8721Z" fill="#F9F9F9"/>
    <path d="M49 0C43.5922 0 38 3.85612 38 10.309C38 16.4548 47.9998 25.4061 48.4255 25.7839C48.5879 25.9285 48.7935 26 49 26C49.2065 26 49.4121 25.9285 49.5745 25.7839C50.0002 25.4061 60 16.4548 60 10.309C60 3.85612 54.4078 0 49 0ZM49 13.8125C47.1308 13.8125 45.6154 12.3573 45.6154 10.5625C45.6154 8.76769 47.1308 7.3125 49 7.3125C50.8692 7.3125 52.3846 8.76769 52.3846 10.5625C52.3846 12.3573 50.8692 13.8125 49 13.8125Z" fill="#AF0000"/>
  </g>
  <defs>
    <linearGradient id="paint0_linear_885_6705" x1="25.6169" y1="29.5527" x2="43.4306" y2="69.2493" gradientUnits="userSpaceOnUse">
      <stop stop-color="#6082CB"/>
      <stop offset="1" stop-color="#0E398D" stop-opacity="0.57"/>
    </linearGradient>
    <clipPath id="clip0_885_6705">
      <rect width="60" height="60" fill="white" transform="translate(0.5)"/>
    </clipPath>
  </defs>
</svg>