<svg xmlns="http://www.w3.org/2000/svg" width="61" height="60" viewBox="0 0 61 60" fill="none">
  <g clip-path="url(#clip0_885_6692)">
    <path d="M33.7067 51.6836V48.5185H23.2625V44.6913H1.44851C1.19479 44.6934 0.952272 44.7971 0.774377 44.9796C0.596481 45.1621 0.497802 45.4084 0.500037 45.6644C0.514174 50.4116 4.33019 54.254 9.036 54.2592H33.7067V51.6836Z" fill="#3C5485"/>
    <path d="M53.6125 14.0741V34.7206L54 35C54 35 54.3201 35.2905 54.5 35.5C55.0715 36.1656 55.5093 37.5068 55.5093 37.5068V13.1173C55.5093 10.4752 53.3862 8.33331 50.7672 8.33331H10.9329C8.31382 8.33331 6.19067 10.4752 6.19067 13.1173V42.7778H8.08755V14.0741C8.08755 13.5456 8.51217 13.1173 9.03598 13.1173H52.664C53.1878 13.1173 53.6125 13.5456 53.6125 14.0741Z" fill="url(#paint0_linear_885_6692)"/>
    <path fill-rule="evenodd" clip-rule="evenodd" d="M27.9905 36.6666C27.7052 36.6668 27.4315 36.5401 27.2297 36.3145L22.167 30.6502L23.6879 28.9487L27.9905 33.7619L37.3127 23.3333L38.8337 25.0348L28.7513 36.3145C28.5495 36.5401 28.2758 36.6668 27.9905 36.6666Z" fill="#AF0000"/>
    <path d="M44.7864 57V32H46.5074V57H44.7864ZM49.3512 40.252C49.2673 39.4642 48.907 38.8522 48.2704 38.416C47.6337 37.9798 46.7698 37.7617 45.6784 37.7617C44.9368 37.7617 44.3107 37.8594 43.8 38.0547C43.2893 38.2435 42.8975 38.5072 42.6247 38.8457C42.3588 39.1842 42.2259 39.5684 42.2259 39.998C42.2119 40.3561 42.2924 40.6686 42.4673 40.9355C42.6492 41.2025 42.8975 41.4336 43.2123 41.6289C43.5272 41.8177 43.8909 41.9837 44.3037 42.127C44.7165 42.2637 45.1572 42.3809 45.6259 42.4785L47.5568 42.9082C48.4942 43.1035 49.3547 43.3639 50.1383 43.6895C50.9218 44.015 51.6004 44.4154 52.1741 44.8906C52.7477 45.3659 53.192 45.9258 53.5068 46.5703C53.8286 47.2148 53.993 47.9538 54 48.7871C53.993 50.0111 53.6572 51.0723 52.9926 51.9707C52.335 52.8626 51.3835 53.556 50.1383 54.0508C48.9 54.5391 47.4064 54.7832 45.6574 54.7832C43.9224 54.7832 42.4113 54.5358 41.1241 54.041C39.8438 53.5462 38.8434 52.8138 38.1228 51.8438C37.4093 50.8672 37.035 49.6595 37 48.2207H41.3969C41.4459 48.8913 41.6523 49.4512 42.016 49.9004C42.3868 50.3431 42.88 50.6784 43.4957 50.9062C44.1183 51.1276 44.8214 51.2383 45.6049 51.2383C46.3745 51.2383 47.0426 51.1341 47.6093 50.9258C48.1829 50.7174 48.6272 50.4277 48.942 50.0566C49.2568 49.6855 49.4142 49.2591 49.4142 48.7773C49.4142 48.3281 49.2708 47.9505 48.984 47.6445C48.7041 47.3385 48.2914 47.0781 47.7457 46.8633C47.207 46.6484 46.5459 46.4531 45.7623 46.2773L43.4222 45.7305C41.6103 45.3203 40.1796 44.679 39.1302 43.8066C38.0809 42.9342 37.5597 41.7591 37.5667 40.2812C37.5597 39.0703 37.906 38.0124 38.6056 37.1074C39.3121 36.2025 40.2811 35.4961 41.5123 34.9883C42.7436 34.4805 44.1428 34.2266 45.7099 34.2266C47.3049 34.2266 48.6971 34.4805 49.8864 34.9883C51.0827 35.4961 52.0132 36.2025 52.6778 37.1074C53.3424 38.0124 53.6852 39.0605 53.7062 40.252H49.3512Z" fill="#AF0000"/>
  </g>
  <defs>
    <linearGradient id="paint0_linear_885_6692" x1="23.53" y1="18.373" x2="7.50548" y2="62.5936" gradientUnits="userSpaceOnUse">
      <stop stop-color="#6082CB"/>
      <stop offset="1" stop-color="#0E398D" stop-opacity="0.57"/>
    </linearGradient>
    <clipPath id="clip0_885_6692">
      <rect width="60" height="60" fill="white" transform="translate(0.5)"/>
    </clipPath>
  </defs>
</svg>