<svg xmlns="http://www.w3.org/2000/svg" width="61" height="60" viewBox="0 0 61 60" fill="none">
  <g clip-path="url(#clip0_885_6660)">
    <path d="M17.8926 24.1072L20.5981 26.4263L23.3036 24.1072C23.6901 23.7207 24.3665 23.7207 24.753 24.1072L27.4585 26.4263L30.164 24.1072C30.5505 23.7207 31.2269 23.7207 31.6134 24.1072L33.1594 25.46V11.4493V10.2898V9.13025H14.8005V10.2898V11.4493V25.46L16.3465 24.1072C16.8297 23.8174 17.5061 23.8174 17.8926 24.1072Z" fill="#3C5485"/>
    <path d="M44.658 9.13025H35.6718V10.2898V11.4493V27.9723C35.6718 28.4554 35.3819 28.8419 34.9954 29.0352C34.8021 29.1318 34.7055 29.1318 34.5123 29.1318C34.2224 29.1318 33.9325 29.0352 33.7393 28.8419L31.0337 26.5229L28.3282 28.8419C27.9417 29.2284 27.2653 29.2284 26.8788 28.8419L24.0767 26.5229L21.3712 28.8419C20.9847 29.2284 20.3083 29.2284 19.9218 28.8419L17.1196 26.5229L14.4141 28.8419C14.0276 29.1318 13.5445 29.2284 13.158 29.0352C12.7715 28.8419 12.4816 28.4554 12.4816 27.9723V11.4493V10.2898V9.13025H3.59202C1.85276 9.13025 0.5 10.483 0.5 12.2223V43.529C0.5 45.2683 1.85276 46.621 3.59202 46.621H44.658C46.3972 46.621 47.75 45.2683 47.75 43.529V12.2223C47.75 10.483 46.3972 9.13025 44.658 9.13025Z" fill="url(#paint0_linear_885_6660)"/>
    <path d="M53.8333 46.5H0.5V48.5H53.8333C56.4167 48.5 58.5 50.5833 58.5 53.1667C58.5 55.75 56.4167 57.8333 53.8333 57.8333H0.5V59.8333H53.8333C57.5 59.8333 60.5 56.8333 60.5 53.1667C60.5 49.5 57.5 46.5 53.8333 46.5Z" fill="#AF0000"/>
    <path d="M53.8333 56.5833C55.6743 56.5833 57.1667 55.0909 57.1667 53.25C57.1667 51.409 55.6743 49.9166 53.8333 49.9166C51.9924 49.9166 50.5 51.409 50.5 53.25C50.5 55.0909 51.9924 56.5833 53.8333 56.5833Z" fill="#AF0000"/>
    <path d="M38.0003 56.5833C39.8413 56.5833 41.3337 55.0909 41.3337 53.25C41.3337 51.409 39.8413 49.9166 38.0003 49.9166C36.1594 49.9166 34.667 51.409 34.667 53.25C34.667 55.0909 36.1594 56.5833 38.0003 56.5833Z" fill="#AF0000"/>
    <path d="M22.1663 56.5833C24.0073 56.5833 25.4997 55.0909 25.4997 53.25C25.4997 51.409 24.0073 49.9166 22.1663 49.9166C20.3254 49.9166 18.833 51.409 18.833 53.25C18.833 55.0909 20.3254 56.5833 22.1663 56.5833Z" fill="#AF0000"/>
    <path d="M6.33333 56.5833C8.17428 56.5833 9.66667 55.0909 9.66667 53.25C9.66667 51.409 8.17428 49.9166 6.33333 49.9166C4.49238 49.9166 3 51.409 3 53.25C3 55.0909 4.49238 56.5833 6.33333 56.5833Z" fill="#AF0000"/>
  </g>
  <defs>
    <linearGradient id="paint0_linear_885_6660" x1="17.1121" y1="20.0578" x2="-2.05666" y2="66.6183" gradientUnits="userSpaceOnUse">
      <stop stop-color="#6082CB"/>
      <stop offset="1" stop-color="#0E398D" stop-opacity="0.57"/>
    </linearGradient>
    <clipPath id="clip0_885_6660">
      <rect width="60" height="60" fill="white" transform="translate(0.5)"/>
    </clipPath>
  </defs>
</svg>