<svg width="95" height="94" viewBox="0 0 95 94" fill="none" xmlns="http://www.w3.org/2000/svg">
<path opacity="0.2" d="M47.5 0C29.4969 0 13.8344 9.91047 5.77744 24.5176H17.0205C18.9203 24.5176 20.4246 26.0061 20.4246 27.8859V44.6495C20.4246 59.5328 32.5372 71.5179 47.5 71.5179C62.5417 71.5179 74.6543 59.5328 74.6543 44.7276C74.6543 42.8478 76.1586 41.3594 78.0584 41.3594C79.9583 41.3594 81.4625 42.8478 81.3836 44.6495C81.3836 63.2144 66.2625 78.2544 47.5 78.2544C28.8164 78.2544 13.6164 63.2144 13.6164 44.6495V31.2546H3.4041C3.18178 31.2546 2.96571 31.2327 2.75638 31.1937C0.973493 36.1337 0 41.4541 0 47.0002C0 67.2097 12.8917 84.4381 30.9814 91.0779C30.9795 91.0769 30.9761 91.0755 30.9761 91.0755C31.3803 91.2617 31.8038 91.4117 32.2441 91.5231C37.0322 93.1291 42.1633 94 47.5 94C52.8174 94 57.9308 93.1353 62.7039 91.5402C62.701 91.5407 62.6986 91.5412 62.6957 91.5417C63.2559 91.4122 63.79 91.2193 64.2934 90.9727C64.29 90.9746 64.2871 90.9765 64.2837 90.9779C82.2334 84.2671 95 67.1102 95 46.9998C95.0005 21.0427 73.7338 0 47.5 0ZM40.6124 48.0182C40.6124 49.8981 39.1081 51.3865 37.2083 51.3865C35.3085 51.3865 33.8042 49.8981 33.8042 48.0182V41.2817C33.8042 39.4019 35.3085 37.9135 37.2083 37.9135C39.1081 37.9135 40.6124 39.4019 40.6124 41.2817V48.0182ZM61.1963 48.0182C61.1963 49.8981 59.692 51.3865 57.7922 51.3865C55.9713 51.3865 54.3881 49.8981 54.3881 48.0182V41.2817C54.3881 39.4019 55.8923 37.9135 57.7922 37.9135C59.692 37.9135 61.1963 39.4019 61.1963 41.2817V48.0182ZM33.8956 91.7274C33.3297 91.7283 32.7836 91.6531 32.2576 91.525C31.8226 91.3783 31.3904 91.225 30.9607 91.0669C28.6697 89.9856 27.0802 87.682 27.0754 85.0023C27.0687 81.2817 30.1114 78.2601 33.8716 78.2539C37.6318 78.2472 40.6855 81.2579 40.6918 84.9785C40.6985 88.6996 37.6558 91.7212 33.8956 91.7274ZM64.3294 90.9536C63.7751 91.1608 63.2178 91.3617 62.6543 91.5502C62.1852 91.6507 61.7001 91.7088 61.2006 91.7083C57.4404 91.7016 54.3977 88.68 54.4044 84.9594C54.4112 81.2388 57.4649 78.2282 61.2251 78.2348C64.9853 78.2415 68.028 81.2631 68.0213 84.9837C68.017 87.5868 66.5161 89.8356 64.3294 90.9536Z" fill="#F0F5FF"/>
</svg>
