<svg width="0" height="0" class="hidden" version="1.1" xmlns="http://www.w3.org/2000/svg">
  <symbol width="40" height="40" viewBox="0 0 40 40" fill="none" xmlns="http://www.w3.org/2000/svg"
    id="package-box-1">
    <path d="M20 35C11.7157 35 5 28.2843 5 20C5 11.7157 11.7157 5 20 5C28.2843 5 35 11.7157 35 20"
      stroke="currentColor" stroke-width="2.5" stroke-linecap="round" stroke-linejoin="round" />
    <path d="M20 12.5V17.5" stroke="currentColor" stroke-width="2.5" stroke-linecap="round"
      stroke-linejoin="round" />
    <path
      d="M20 27.5H14.375C13.3395 27.5 12.5 26.6605 12.5 25.625V17.0817C12.5003 16.6314 12.5916 16.1858 12.7683 15.7717L13.68 13.6383C13.9755 12.9479 14.654 12.5001 15.405 12.5H24.595C25.3455 12.5004 26.0235 12.9482 26.3183 13.6383L27.2317 15.7733C27.4084 16.1875 27.4997 16.6331 27.5 17.0833V20"
      stroke="currentColor" stroke-width="2.5" stroke-linecap="round" stroke-linejoin="round" />
    <path fill-rule="evenodd" clip-rule="evenodd"
      d="M33.979 28.99L31.0361 30.2268C30.6731 30.3794 30.3843 30.6681 30.2317 31.031L28.9913 33.9795C28.718 34.6293 28.0655 35.0369 27.3617 34.9975C26.6579 34.9581 26.0551 34.4802 25.8561 33.804L23.4033 25.4728C23.2311 24.8876 23.3923 24.255 23.8236 23.8237C24.255 23.3923 24.8875 23.2311 25.4727 23.4033L33.8037 25.8546C34.4799 26.0536 34.9579 26.6566 34.9972 27.3605C35.0366 28.0643 34.6289 28.7168 33.979 28.99Z"
      stroke="currentColor" stroke-width="2.5" stroke-linecap="round" stroke-linejoin="round" />
    <path
      d="M27.5 20V19.1667C27.5 18.2462 26.7538 17.5 25.8333 17.5H14.1667C13.2462 17.5 12.5 18.2462 12.5 19.1667V20"
      stroke="currentColor" stroke-width="2.5" stroke-linecap="round" stroke-linejoin="round" />
  </symbol>

  <symbol width="40" height="40" viewBox="0 0 40 40" fill="none" xmlns="http://www.w3.org/2000/svg"
    id="box-delivery-conveyor-belts">
    <rect x="10" y="5" width="20" height="16.6667" rx="2.5" stroke="currentColor" stroke-width="2.5"
      stroke-linecap="round" stroke-linejoin="round" />
    <path d="M5 26.6666H35" stroke="currentColor" stroke-width="2.5" stroke-linecap="round"
      stroke-linejoin="round" />
    <path d="M35 35.0001H5" stroke="currentColor" stroke-width="2.5" stroke-linecap="round"
      stroke-linejoin="round" />
    <path d="M9.99999 35.0001V26.6667" stroke="currentColor" stroke-width="2.5"
      stroke-linecap="round" stroke-linejoin="round" />
    <path d="M30 35.0001V26.6667" stroke="currentColor" stroke-width="2.5" stroke-linecap="round"
      stroke-linejoin="round" />
    <path d="M20 35.0001V26.6667" stroke="currentColor" stroke-width="2.5" stroke-linecap="round"
      stroke-linejoin="round" />
    <path fill-rule="evenodd" clip-rule="evenodd"
      d="M17.0833 5H22.9167V10C22.9167 10.4602 22.5436 10.8333 22.0833 10.8333H17.9167C17.4564 10.8333 17.0833 10.4602 17.0833 10V5Z"
      stroke="currentColor" stroke-width="2.5" stroke-linecap="round" stroke-linejoin="round" />
  </symbol>

  <symbol width="40" height="40" viewBox="0 0 40 40" fill="none" xmlns="http://www.w3.org/2000/svg"
    id="courier-hands-package-box">
    <path fill-rule="evenodd" clip-rule="evenodd"
      d="M17.3582 18.9586C17.9333 19.3406 18.0899 20.1164 17.7079 20.6915L11.2844 30.363C10.9025 30.9381 10.1266 31.0946 9.55157 30.7127C8.9765 30.3307 8.81994 29.5549 9.20188 28.9799L15.6254 19.3083C16.0073 18.7332 16.7832 18.5767 17.3582 18.9586Z"
      fill="currentColor" />
    <path fill-rule="evenodd" clip-rule="evenodd"
      d="M13.75 5C13.75 4.30964 14.3096 3.75 15 3.75H25C25.6904 3.75 26.25 4.30964 26.25 5V8.33333C26.25 9.94416 24.9442 11.25 23.3333 11.25H16.6667C15.0558 11.25 13.75 9.94416 13.75 8.33333V5ZM16.25 6.25V8.33333C16.25 8.56345 16.4365 8.75 16.6667 8.75H23.3333C23.5635 8.75 23.75 8.56345 23.75 8.33333V6.25H16.25Z"
      fill="currentColor" />
    <path fill-rule="evenodd" clip-rule="evenodd"
      d="M5 23.9299C5.69036 23.9299 6.25 24.4896 6.25 25.1799V32.1262C6.24999 32.5568 6.42105 32.9699 6.72555 33.2744C7.03005 33.5789 7.44305 33.7499 7.87368 33.7499H16.4567C17.147 33.7499 17.7067 34.3096 17.7067 34.9999C17.7067 35.6903 17.147 36.2499 16.4567 36.2499H7.87369C6.78 36.2499 5.73111 35.8155 4.95777 35.0421C4.18443 34.2688 3.74998 33.2199 3.75 32.1262C3.75 32.1262 3.75 32.1262 3.75 32.1262V25.1799C3.75 24.4896 4.30964 23.9299 5 23.9299Z"
      fill="currentColor" />
    <path fill-rule="evenodd" clip-rule="evenodd"
      d="M8.33333 6.25C7.18274 6.25 6.25 7.18274 6.25 8.33333V10C6.25 10.6904 5.69036 11.25 5 11.25C4.30964 11.25 3.75 10.6904 3.75 10V8.33333C3.75 5.80203 5.80203 3.75 8.33333 3.75H31.6667C34.198 3.75 36.25 5.80203 36.25 8.33333V31.6667C36.25 34.198 34.198 36.25 31.6667 36.25H27.6522C26.9619 36.25 26.4022 35.6904 26.4022 35C26.4022 34.3096 26.9619 33.75 27.6522 33.75H31.6667C32.8173 33.75 33.75 32.8173 33.75 31.6667V8.33333C33.75 7.18274 32.8173 6.25 31.6667 6.25H8.33333Z"
      fill="currentColor" />
    <path fill-rule="evenodd" clip-rule="evenodd"
      d="M4.05092 9.18653C4.5002 8.66238 5.28932 8.60167 5.81348 9.05095L17.2609 18.863L27.6895 21.577L27.6895 21.577C29.2957 21.995 30.4167 23.4452 30.4167 25.1048C30.4167 27.118 28.7846 28.75 26.7714 28.75H24.6354L28.0986 32.6462L28.0986 32.6463C28.9271 33.5783 29.1314 34.9097 28.6205 36.0473C28.1097 37.1848 26.9788 37.9167 25.7318 37.9167H20.2507C18.7587 37.9167 17.316 37.3829 16.1832 36.412L4.1865 26.1291C3.66235 25.6798 3.60164 24.8907 4.05092 24.3665C4.5002 23.8424 5.28932 23.7817 5.81348 24.2309L17.8102 34.5138L17.8102 34.5139C18.4899 35.0964 19.3555 35.4167 20.2507 35.4167H25.7318C25.9943 35.4167 26.2324 35.2626 26.3399 35.0231C26.4475 34.7836 26.4045 34.5033 26.2301 34.3071C26.2301 34.3071 26.2301 34.3071 26.2301 34.3071L22.3991 29.9971C22.1957 29.7683 22.0833 29.4728 22.0833 29.1667V27.5C22.0833 26.8097 22.643 26.25 23.3333 26.25H26.7714C27.4039 26.25 27.9167 25.7373 27.9167 25.1048C27.9167 25.1048 27.9167 25.1048 27.9167 25.1048C27.9167 24.5833 27.5645 24.1277 27.0599 23.9964C27.0599 23.9964 27.0599 23.9964 27.0599 23.9964L16.3518 21.2097C16.168 21.1619 15.9974 21.0727 15.8532 20.9491L4.1865 10.9491C3.66235 10.4998 3.60164 9.71069 4.05092 9.18653Z"
      fill="currentColor" />
  </symbol>

  <symbol width="40" height="40" viewBox="0 0 40 40" fill="none" xmlns="http://www.w3.org/2000/svg"
    id="warehouse-delivery-packages">
    <path fill-rule="evenodd" clip-rule="evenodd"
      d="M10.4167 35C10.4167 34.3096 10.9763 33.75 11.6667 33.75H20C20.6903 33.75 21.25 34.3096 21.25 35C21.25 35.6904 20.6903 36.25 20 36.25H11.6667C10.9763 36.25 10.4167 35.6904 10.4167 35Z"
      fill="currentColor" />
    <path fill-rule="evenodd" clip-rule="evenodd"
      d="M15.4167 13.3333C15.4167 12.6429 15.9763 12.0833 16.6667 12.0833H23.3333C24.0237 12.0833 24.5833 12.6429 24.5833 13.3333C24.5833 14.0236 24.0237 14.5833 23.3333 14.5833H16.6667C15.9763 14.5833 15.4167 14.0236 15.4167 13.3333Z"
      fill="currentColor" />
    <path fill-rule="evenodd" clip-rule="evenodd"
      d="M10.4167 25C10.4167 24.3096 10.9763 23.75 11.6667 23.75H20C20.6903 23.75 21.25 24.3096 21.25 25C21.25 25.6904 20.6903 26.25 20 26.25H11.6667C10.9763 26.25 10.4167 25.6904 10.4167 25Z"
      fill="currentColor" />
    <path fill-rule="evenodd" clip-rule="evenodd"
      d="M10.4167 30C10.4167 29.3096 10.9763 28.75 11.6667 28.75H20C20.6903 28.75 21.25 29.3096 21.25 30C21.25 30.6904 20.6903 31.25 20 31.25H11.6667C10.9763 31.25 10.4167 30.6904 10.4167 30Z"
      fill="currentColor" />
    <path fill-rule="evenodd" clip-rule="evenodd"
      d="M10.4167 20C10.4167 19.3096 10.9763 18.75 11.6667 18.75H28.3333C29.0237 18.75 29.5833 19.3096 29.5833 20C29.5833 20.6904 29.0237 21.25 28.3333 21.25H12.9167V35C12.9167 35.6904 12.357 36.25 11.6667 36.25C10.9763 36.25 10.4167 35.6904 10.4167 35V20Z"
      fill="currentColor" />
    <path fill-rule="evenodd" clip-rule="evenodd"
      d="M21.0123 4.84568C20.3835 4.49588 19.6182 4.49588 18.9893 4.84568L7.32207 11.3277C6.6618 11.6937 6.25 12.3919 6.25 13.1483V33.75H20C20.6904 33.75 21.25 34.3096 21.25 35C21.25 35.6903 20.6904 36.25 20 36.25H5C4.30964 36.25 3.75 35.6903 3.75 35V13.1483C3.75 11.4851 4.65214 9.94979 6.10793 9.14231L17.774 2.66097C19.1582 1.89123 20.8429 1.89089 22.2271 2.66064L33.8934 9.14214C33.8933 9.14208 33.8935 9.14219 33.8934 9.14214C35.3475 9.94961 36.25 11.4851 36.25 13.1483V20C36.25 20.6904 35.6904 21.25 35 21.25C34.3096 21.25 33.75 20.6904 33.75 20V13.1483C33.75 12.3917 33.339 11.6938 32.6799 11.3279L21.0123 4.84568Z"
      fill="currentColor" />
    <path fill-rule="evenodd" clip-rule="evenodd"
      d="M26.6667 26.25C26.437 26.25 26.25 26.437 26.25 26.6667V35C26.25 35.2296 26.437 35.4167 26.6667 35.4167H35C35.2296 35.4167 35.4167 35.2296 35.4167 35V26.6667C35.4167 26.437 35.2296 26.25 35 26.25H26.6667ZM23.75 26.6667C23.75 25.0563 25.0563 23.75 26.6667 23.75H35C36.6104 23.75 37.9167 25.0563 37.9167 26.6667V35C37.9167 36.6104 36.6104 37.9167 35 37.9167H26.6667C25.0563 37.9167 23.75 36.6104 23.75 35V26.6667Z"
      fill="currentColor" />
    <path fill-rule="evenodd" clip-rule="evenodd"
      d="M28.6167 30C28.6167 29.3096 29.1763 28.75 29.8667 28.75H31.8C32.4904 28.75 33.05 29.3096 33.05 30C33.05 30.6904 32.4904 31.25 31.8 31.25H29.8667C29.1763 31.25 28.6167 30.6904 28.6167 30Z"
      fill="currentColor" />
  </symbol>

  <symbol width="40" height="40" viewBox="0 0 40 40" fill="none" xmlns="http://www.w3.org/2000/svg"
    id="box-delivery-rotate">
    <path d="M17.7784 35L20 32.7783L17.7784 30.5566" stroke="currentColor" stroke-width="2.5"
      stroke-linecap="round" stroke-linejoin="round" />
    <path d="M36.8076 21.8779L33.6728 21.6665L33.4613 24.8013" stroke="currentColor"
      stroke-width="2.5" stroke-linecap="round" stroke-linejoin="round" />
    <path
      d="M5.03041 23.3333C4.05259 23.9987 3.42864 25.071 3.33334 26.2499C3.33334 29.9135 10.7229 32.8844 19.8644 32.9137"
      stroke="currentColor" stroke-width="2.5" stroke-linecap="round" stroke-linejoin="round" />
    <path
      d="M34.9696 23.3333C35.9474 23.9987 36.5714 25.071 36.6667 26.2499C36.6667 29.2349 31.7614 31.7608 25 32.6106"
      stroke="currentColor" stroke-width="2.5" stroke-linecap="round" stroke-linejoin="round" />
    <path
      d="M22.75 5V9.16667C22.75 9.6269 22.3769 10 21.9167 10H18.0833C17.6231 10 17.25 9.6269 17.25 9.16667V5"
      stroke="currentColor" stroke-width="2.5" stroke-linecap="round" stroke-linejoin="round" />
    <rect x="10.8333" y="5" width="18.3333" height="16.6667" rx="2.5" stroke="currentColor"
      stroke-width="2.5" stroke-linecap="round" stroke-linejoin="round" />
  </symbol>

  <symbol width="40" height="40" viewBox="0 0 40 40" fill="none" xmlns="http://www.w3.org/2000/svg"
    id="fast-delivery">
    <path fill-rule="evenodd" clip-rule="evenodd"
      d="M2.08331 11.6665C2.08331 10.9761 2.64296 10.4165 3.33331 10.4165H4.99998C5.69034 10.4165 6.24998 10.9761 6.24998 11.6665C6.24998 12.3569 5.69034 12.9165 4.99998 12.9165H3.33331C2.64296 12.9165 2.08331 12.3569 2.08331 11.6665Z"
      fill="currentColor" />
    <path fill-rule="evenodd" clip-rule="evenodd"
      d="M2.08331 6.6665C2.08331 5.97615 2.64296 5.4165 3.33331 5.4165H6.66665C7.357 5.4165 7.91665 5.97615 7.91665 6.6665C7.91665 7.35686 7.357 7.9165 6.66665 7.9165H3.33331C2.64296 7.9165 2.08331 7.35686 2.08331 6.6665Z"
      fill="currentColor" />
    <path fill-rule="evenodd" clip-rule="evenodd"
      d="M3.75 33.3333C3.75 32.6429 4.30964 32.0833 5 32.0833H28.3333C29.0237 32.0833 29.5833 32.6429 29.5833 33.3333C29.5833 34.0236 29.0237 34.5833 28.3333 34.5833H5C4.30964 34.5833 3.75 34.0236 3.75 33.3333Z"
      fill="currentColor" />
    <path fill-rule="evenodd" clip-rule="evenodd"
      d="M20.4842 5.46932C21.1454 5.66771 21.5206 6.36458 21.3223 7.02581L19.9658 11.5469C19.9657 11.547 19.9658 11.5469 19.9658 11.5469C19.8859 11.8141 20.0863 12.0833 20.365 12.0833H25.5516C25.7344 12.0833 25.8979 11.9623 25.951 11.7858M25.951 11.7858L27.5944 6.30744C27.7927 5.64619 28.4896 5.27094 29.1508 5.4693C29.812 5.66765 30.1873 6.36449 29.9889 7.02574L28.3456 12.5041C27.9753 13.7374 26.8388 14.5833 25.5516 14.5833H20.365C18.4104 14.5833 17.0109 12.6991 17.5709 10.8296L18.9277 6.30736C19.1261 5.64613 19.823 5.27092 20.4842 5.46932"
      fill="currentColor" />
    <path fill-rule="evenodd" clip-rule="evenodd"
      d="M12.0833 21.6665C12.0833 20.9761 12.643 20.4165 13.3333 20.4165H16.8833C17.5737 20.4165 18.1333 20.9761 18.1333 21.6665C18.1333 22.3569 17.5737 22.9165 16.8833 22.9165H13.3333C12.643 22.9165 12.0833 22.3569 12.0833 21.6665Z"
      fill="currentColor" />
    <path fill-rule="evenodd" clip-rule="evenodd"
      d="M12.3821 9.87623L8.78229 21.8757C8.25286 23.6405 9.57412 25.4165 11.4167 25.4165H29.0633C30.2785 25.4165 31.3501 24.6197 31.6996 23.4568L35.2994 11.4573C35.8288 9.69256 34.5076 7.9165 32.665 7.9165H15.0167C13.8023 7.9165 12.7319 8.71304 12.3821 9.87623ZM9.98789 9.15678C10.6549 6.93692 12.6979 5.4165 15.0167 5.4165H32.665C36.1825 5.4165 38.7045 8.80712 37.694 12.1757L34.094 24.1757C33.4267 26.3961 31.3815 27.9165 29.0633 27.9165H11.4167C7.89923 27.9165 5.37715 24.5259 6.38772 21.1573L9.98789 9.15678Z"
      fill="currentColor" />
  </symbol>

  <symbol width="40" height="40" viewBox="0 0 40 40" fill="none" xmlns="http://www.w3.org/2000/svg"
    id="24-support-circle-checkmark">
    <path
      d="M34.3093 15.5866C34.7644 17.0139 34.9994 18.5021 35.0062 20.0001C35.0062 28.2879 28.2877 35.0064 20 35.0064C11.7122 35.0064 4.99371 28.2879 4.99371 20.0001C4.99371 11.7124 11.7122 4.9939 20 4.9939C21.498 5.00067 22.9862 5.23568 24.4135 5.69085"
      stroke="currentColor" stroke-width="2.5" stroke-linecap="round" stroke-linejoin="round" />
    <path d="M35.0062 7.11792L31.6915 10.4326L29.5656 8.30675" stroke="currentColor"
      stroke-width="2.5" stroke-linecap="round" stroke-linejoin="round" />
    <path
      d="M12.7186 17.8759C12.7186 16.5186 13.819 15.4182 15.1763 15.4182C16.5337 15.4182 17.634 16.5186 17.634 17.8759C17.634 20.9472 12.7186 20.9472 12.7186 24.5854H17.634"
      stroke="currentColor" stroke-width="2.5" stroke-linecap="round" stroke-linejoin="round" />
    <path
      d="M25.8891 24.5852V16.2684C25.8908 15.8893 25.6408 15.5551 25.2767 15.4498C24.9125 15.3444 24.5227 15.4934 24.3217 15.8149C23.2763 17.5056 22.1358 19.4247 21.1504 21.1204C20.9864 21.4042 20.9868 21.754 21.1514 22.0374C21.316 22.3208 21.6197 22.4945 21.9474 22.4927H27.2813"
      stroke="currentColor" stroke-width="2.5" stroke-linecap="round" stroke-linejoin="round" />
  </symbol>

  <symbol width="40" height="40" viewBox="0 0 40 40" fill="none" xmlns="http://www.w3.org/2000/svg"
    id="document-checkmark">
    <path
      d="M20 35H8.33333C6.49238 35 5 33.5076 5 31.6667V8.33333C5 6.49238 6.49238 5 8.33333 5H31.6667C33.5076 5 35 6.49238 35 8.33333V22.4167"
      stroke="currentColor" stroke-width="2.5" stroke-linecap="round" stroke-linejoin="round" />
    <path d="M20 26.6666H11.6667" stroke="currentColor" stroke-width="2.5" stroke-linecap="round"
      stroke-linejoin="round" />
    <path d="M26.6667 31.5834L29.1667 34.0834L33.3333 29.9167" stroke="currentColor"
      stroke-width="2.5" stroke-linecap="round" stroke-linejoin="round" />
    <path d="M28.3333 20.0001H11.6667" stroke="currentColor" stroke-width="2.5"
      stroke-linecap="round" stroke-linejoin="round" />
    <path d="M28.3333 13.3333H11.6667" stroke="currentColor" stroke-width="2.5"
      stroke-linecap="round" stroke-linejoin="round" />
  </symbol>

  <symbol width="24" height="24" viewBox="0 0 24 24" fill="none" xmlns="http://www.w3.org/2000/svg"
    id="arrow">
    <path d="M19 12H5" stroke="currentColor" stroke-width="1.5" stroke-linecap="round"
      stroke-linejoin="round" />
    <path d="M14 17L19 12" stroke="currentColor" stroke-width="1.5" stroke-linecap="round"
      stroke-linejoin="round" />
    <path d="M14 7L19 12" stroke="currentColor" stroke-width="1.5" stroke-linecap="round"
      stroke-linejoin="round" />
  </symbol>

  <symbol width="25" height="25" viewBox="0 0 25 25" fill="none" xmlns="http://www.w3.org/2000/svg"
    id="phone-call">
    <path fill-rule="evenodd" clip-rule="evenodd"
      d="M19.2984 17.0236L18.1254 15.8506C17.5394 15.2646 16.5894 15.2646 16.0044 15.8506L15.0824 16.7726C14.8764 16.9786 14.5644 17.0476 14.2984 16.9306C12.9624 16.3456 11.6424 15.4586 10.4654 14.2816C9.2934 13.1096 8.4094 11.7956 7.8234 10.4646C7.7014 10.1896 7.7724 9.86657 7.9854 9.65357L8.8114 8.82757C9.4824 8.15657 9.4824 7.20757 8.8964 6.62157L7.7234 5.44857C6.9424 4.66757 5.6764 4.66757 4.8954 5.44857L4.2434 6.09957C3.5024 6.84057 3.1934 7.90957 3.3934 8.96957C3.8874 11.5826 5.4054 14.4436 7.8544 16.8926C10.3034 19.3416 13.1644 20.8596 15.7774 21.3536C16.8374 21.5536 17.9064 21.2446 18.6474 20.5036L19.2984 19.8526C20.0794 19.0716 20.0794 17.8056 19.2984 17.0236V17.0236Z"
      stroke="currentColor" stroke-width="2" stroke-linecap="round" stroke-linejoin="round" />
    <path d="M13.3334 7.40457C14.3644 7.39057 15.4004 7.77257 16.1874 8.55957" stroke="currentColor"
      stroke-width="2" stroke-linecap="round" stroke-linejoin="round" />
    <path d="M19.0154 5.73157C17.4464 4.16257 15.3894 3.37757 13.3334 3.37757" stroke="currentColor"
      stroke-width="2" stroke-linecap="round" stroke-linejoin="round" />
    <path d="M17.3424 11.4136C17.3564 10.3826 16.9744 9.34657 16.1874 8.55957" stroke="currentColor"
      stroke-width="2" stroke-linecap="round" stroke-linejoin="round" />
    <path d="M19.0154 5.73157C20.5844 7.30057 21.3694 9.35757 21.3694 11.4136" stroke="currentColor"
      stroke-width="2" stroke-linecap="round" stroke-linejoin="round" />
  </symbol>

  <symbol width="24" height="24" viewBox="0 0 24 24" fill="none" xmlns="http://www.w3.org/2000/svg"
    id="message-chat-like-heart">
    <path fill-rule="evenodd" clip-rule="evenodd"
      d="M8.25407 9.16814L8.25363 9.16857C7.74787 9.67614 7.47556 10.3709 7.50173 11.087C7.52789 11.803 7.85018 12.4761 8.39163 12.9454L10.6645 14.9154C11.4309 15.5797 12.569 15.5797 13.3355 14.9154L15.6085 12.9453C16.1499 12.476 16.4721 11.803 16.4983 11.087C16.5245 10.371 16.2522 9.67627 15.7465 9.16874V9.16874C14.7936 8.21531 13.266 8.16014 12.2468 9.04235L12 9.25602L11.7512 9.04034C10.7329 8.15772 9.20522 8.21355 8.25407 9.16814Z"
      stroke="currentColor" stroke-width="2" stroke-linecap="round" stroke-linejoin="round" />
    <path fill-rule="evenodd" clip-rule="evenodd"
      d="M21 16.4136C21 18.0704 19.6569 19.4136 18 19.4136H14.5L12.6906 21.1415C12.3017 21.5043 11.6983 21.5043 11.3094 21.1415L9.5 19.4136H6C4.34315 19.4136 3 18.0704 3 16.4136V6.41357C3 4.75672 4.34315 3.41357 6 3.41357H18C19.6569 3.41357 21 4.75672 21 6.41357V16.4136Z"
      stroke="currentColor" stroke-width="2" stroke-linecap="round" stroke-linejoin="round" />
  </symbol>

  <symbol width="25" height="25" viewBox="0 0 25 25" fill="none" xmlns="http://www.w3.org/2000/svg"
    id="time-clock">
    <path d="M16.733 12.5327H12.0811" stroke="currentColor" stroke-width="2" stroke-linecap="round"
      stroke-linejoin="round" />
    <circle cx="12.6836" cy="11.9302" r="9.00375" stroke="currentColor" stroke-width="2"
      stroke-linecap="round" stroke-linejoin="round" />
    <path d="M12.0811 12.5327V6.92813" stroke="currentColor" stroke-width="2" stroke-linecap="round"
      stroke-linejoin="round" />
  </symbol>

  <symbol fill="none" viewBox="0 0 24 24" id="profile" xmlns="http://www.w3.org/2000/svg">
    <path d="M10.091 8.159a2.25 2.25 0 1 1-3.182 3.182 2.25 2.25 0 0 1 3.182-3.182" stroke="#323232"
      stroke-width="1.5" stroke-linecap="round" stroke-linejoin="round" />
    <path clip-rule="evenodd"
      d="M2 18.5V5.541C2 4.414 2.914 3.5 4.041 3.5H20a2 2 0 0 1 2 2v13a2 2 0 0 1-2 2H4a2 2 0 0 1-2-2Z"
      stroke="#666" stroke-width="1.5" stroke-linecap="round" stroke-linejoin="round" />
    <path
      d="M15 9.5h4M17.4 13.5H15M12.096 16.5a3.17 3.17 0 0 0-.792-1.154v0a3.173 3.173 0 0 0-2.157-.846H7.855c-.8 0-1.57.302-2.157.846v0a3.17 3.17 0 0 0-.792 1.154"
      stroke="#666" stroke-width="1.5" stroke-linecap="round" stroke-linejoin="round" />
  </symbol>

  <symbol fill="none" viewBox="0 0 24 24" id="social-login" xmlns="http://www.w3.org/2000/svg">
    <path
      d="M18.05 7.164c.332-1.695.146-2.982-.641-3.493a1.566 1.566 0 0 0-.931-.231c-1.912.072-4.998 2.705-7.518 6.587-2.988 4.6-4.05 9.21-2.37 10.301.797.518 2.068.151 3.503-.872"
      stroke="#666" stroke-width="1.5" stroke-linecap="round" stroke-linejoin="round" />
    <path d="M12.191 8.38c5.478.288 9.83 2.14 9.726 4.14-.046.864-.918 1.617-2.336 2.167"
      stroke="#666" stroke-width="1.5" stroke-linecap="round" stroke-linejoin="round" />
    <path
      d="M10.152 8.352c.176-.004.35-.01.53-.01a27.2 27.2 0 0 1 1.512.04M6.865 8.665c-2.808.496-4.714 1.527-4.781 2.815-.045.863.74 1.7 2.089 2.394"
      stroke="#666" stroke-width="1.5" stroke-linecap="round" stroke-linejoin="round" />
    <path
      d="M18.05 7.164c.332-1.695.146-2.982-.641-3.493a1.566 1.566 0 0 0-.931-.231c-1.912.072-4.998 2.705-7.518 6.587-2.988 4.6-4.05 9.21-2.37 10.301.797.518 2.068.151 3.503-.872"
      stroke="#666" stroke-width="1.5" stroke-linecap="round" stroke-linejoin="round" />
    <path
      d="M10.645 4.183a4.045 4.045 0 0 0-2.61-1.182 1.41 1.41 0 0 0-.543.148c-1.784.909-1.214 5.611 1.276 10.499 2.49 4.887 5.956 8.112 7.74 7.202 1.716-.874 1.253-5.255-1-9.937"
      stroke="#666" stroke-width="1.5" stroke-linecap="round" stroke-linejoin="round" />
    <path
      d="M10.645 4.183a4.045 4.045 0 0 0-2.61-1.182 1.41 1.41 0 0 0-.543.148c-1.784.909-1.214 5.611 1.276 10.499 2.49 4.887 5.956 8.112 7.74 7.202 1.716-.874 1.253-5.255-1-9.937"
      stroke="#666" stroke-width="1.5" stroke-linecap="round" stroke-linejoin="round" />
    <path d="M12.317 12.14a.25.25 0 1 1-.5 0 .25.25 0 0 1 .5 0" stroke="#666" stroke-width="1.5"
      stroke-linecap="round" stroke-linejoin="round" />
  </symbol>

  <symbol fill="none" viewBox="0 0 24 24" id="address-book" xmlns="http://www.w3.org/2000/svg">
    <path
      d="M10 7H7M3 18.69V5.5A2.5 2.5 0 0 1 5.5 3H6a1 1 0 0 1 1 1v11a1 1 0 0 1-1 1h-.5a2.5 2.5 0 0 0 0 5H18a2 2 0 0 0 2-2v-5M17.499 6.25a.25.25 0 1 0 .002.5.25.25 0 0 0-.002-.5"
      stroke="#666" stroke-width="1.5" stroke-linecap="round" stroke-linejoin="round" />
    <path clip-rule="evenodd"
      d="M14 6.5v0A3.5 3.5 0 0 1 17.5 3v0A3.5 3.5 0 0 1 21 6.5v0c0 1.639-1.788 3.389-2.808 4.254-.403.328-.98.328-1.383 0C15.788 9.89 14 8.14 14 6.5Z"
      stroke="#666" stroke-width="1.5" stroke-linecap="round" stroke-linejoin="round" />
  </symbol>

  <symbol fill="none" viewBox="0 0 24 24" id="security" xmlns="http://www.w3.org/2000/svg">
    <path clip-rule="evenodd"
      d="M17 21H7a2 2 0 0 1-2-2v-8a2 2 0 0 1 2-2h10a2 2 0 0 1 2 2v8a2 2 0 0 1-2 2Z" stroke="#323232"
      stroke-width="1.5" stroke-linecap="round" stroke-linejoin="round" />
    <path
      d="M12 17.09V14.5M12.53 13.22a.75.75 0 1 1-1.06 1.06.75.75 0 0 1 1.06-1.06M8 9V7v0a4 4 0 0 1 4-4v0a4 4 0 0 1 4 4v2"
      stroke="#666" stroke-width="1.5" stroke-linecap="round" stroke-linejoin="round" />
  </symbol>

  <symbol fill="none" viewBox="0 0 24 24" id="log-out" xmlns="http://www.w3.org/2000/svg">
    <path clip-rule="evenodd"
      d="M11 19.392V7.503c0-.69-.355-1.331-.94-1.696l-4-2.5C4.728 2.475 3 3.432 3 5.003v11.888c0 .69.355 1.331.94 1.696l4 2.5c1.332.833 3.06-.125 3.06-1.695Z"
      stroke="#666" stroke-width="1.5" stroke-linecap="round" stroke-linejoin="round" />
    <path d="M15 11h6M19 13l2-2-2-2M11 19h4a2 2 0 0 0 2-2v-1M17 6V5a2 2 0 0 0-2-2H5" stroke="#666"
      stroke-width="1.5" stroke-linecap="round" stroke-linejoin="round" />
  </symbol>

  <symbol width="31" height="31" viewBox="0 0 31 25" fill="none" xmlns="http://www.w3.org/2000/svg"
    id="laptop-mobile">
    <path
      d="M28.7847 6.5C29.6753 6.5 30.4722 7.29688 30.4722 8.1875V22.8125C30.4722 23.75 29.6753 24.5 28.7847 24.5H20.1597C19.2222 24.5 18.4722 23.75 18.4722 22.8125V8.1875C18.4722 7.29688 19.2222 6.5 20.1597 6.5H28.7847ZM27.4722 21.5V9.5H21.4722V21.5H27.4722ZM6.47217 3.5V14H16.9722V18.5H3.42529C1.78467 18.5 0.472168 17.1875 0.472168 15.5V14.75C0.472168 14.375 0.800293 14 1.22217 14H3.47217V2.75C3.47217 1.53125 4.45654 0.546875 5.67529 0.5H22.2222C23.4409 0.546875 24.4253 1.53125 24.4722 2.75V5H21.4722V3.5H6.47217Z"
      fill="currentColor" />
  </symbol>

  <symbol width="50" height="50" viewBox="0 0 50 40" xmlns="http://www.w3.org/2000/svg" id="truck">
    <path
      d="M48.75 27.5C49.375 27.5 50 28.125 50 28.75V31.25C50 31.9531 49.375 32.5 48.75 32.5H45C45 36.6406 41.6406 40 37.5 40C33.3594 40 30 36.6406 30 32.5H20C20 36.6406 16.6406 40 12.5 40C8.35938 40 5 36.6406 5 32.5V22.5H16.875C17.1875 22.5 17.5 22.2656 17.5 21.875V20.625C17.5 20.3125 17.1875 20 16.875 20H0.625C0.234375 20 0 19.7656 0 19.375V18.125C0 17.8125 0.234375 17.5 0.625 17.5H19.375C19.6875 17.5 20 17.2656 20 16.875V15.625C20 15.3125 19.6875 15 19.375 15H3.125C2.73438 15 2.5 14.7656 2.5 14.375V13.125C2.5 12.8125 2.73438 12.5 3.125 12.5H21.875C22.1875 12.5 22.5 12.2656 22.5 11.875V10.625C22.5 10.3125 22.1875 10 21.875 10H0.625C0.234375 10 0 9.76562 0 9.375V8.125C0 7.8125 0.234375 7.5 0.625 7.5H5V3.75C5 1.71875 6.64062 0 8.75 0H28.75C30.7812 0 32.5 1.71875 32.5 3.75V7.5H35.9375C36.875 7.5 37.8906 7.96875 38.5938 8.67188L46.3281 16.4062C47.0312 17.1094 47.5 18.125 47.5 19.0625V27.5H48.75ZM12.5 36.25C14.5312 36.25 16.25 34.6094 16.25 32.5C16.25 30.4688 14.5312 28.75 12.5 28.75C10.3906 28.75 8.75 30.4688 8.75 32.5C8.75 34.6094 10.3906 36.25 12.5 36.25ZM37.5 36.25C39.5312 36.25 41.25 34.6094 41.25 32.5C41.25 30.4688 39.5312 28.75 37.5 28.75C35.3906 28.75 33.75 30.4688 33.75 32.5C33.75 34.6094 35.3906 36.25 37.5 36.25ZM43.75 20V19.0625L35.9375 11.25H32.5V20H43.75Z"
      fill="currentColor" />
  </symbol>

  <symbol width="31" height="31" viewBox="0 0 31 21" fill="none" xmlns="http://www.w3.org/2000/svg"
    id="cloud">
    <path
      d="M25.7466 9.14062C27.1216 9.42188 28.2622 10.1094 29.1685 11.2031C30.0747 12.2969 30.5278 13.5625 30.5278 15C30.5278 16.6562 29.9341 18.0781 28.7466 19.2656C27.5903 20.4219 26.1841 21 24.5278 21H7.27783C5.40283 21 3.80908 20.3438 2.49658 19.0312C1.18408 17.7188 0.527832 16.125 0.527832 14.25C0.527832 12.7812 0.949707 11.4688 1.79346 10.3125C2.63721 9.15625 3.71533 8.34375 5.02783 7.875C5.02783 7.71875 5.02783 7.59375 5.02783 7.5C5.02783 5.4375 5.76221 3.67187 7.23096 2.20312C8.69971 0.734375 10.4653 0 12.5278 0C13.9028 0 15.1685 0.34375 16.3247 1.03125C17.481 1.71875 18.3872 2.625 19.0435 3.75C19.7935 3.25 20.6216 3 21.5278 3C22.7778 3 23.8403 3.4375 24.7153 4.3125C25.5903 5.1875 26.0278 6.25 26.0278 7.5C26.0278 8.0625 25.9341 8.60938 25.7466 9.14062Z"
      fill="currentColor" />
  </symbol>

  <symbol width="31" height="31" viewBox="0 0 31 26" fill="none" xmlns="http://www.w3.org/2000/svg"
    id="camera">
    <path
      d="M30.3015 22.5156C30.6296 22.75 30.7234 23.2188 30.4421 23.5469L29.5515 24.7188C29.2703 25.0469 28.8015 25.0938 28.4734 24.8594L20.1296 18.3906L2.59839 4.84375L0.910889 3.53125C0.582764 3.29688 0.535889 2.82812 0.770264 2.5L1.70776 1.32812C1.94214 1 2.41089 0.90625 2.73901 1.1875L6.39526 4H17.8796C19.0984 4 20.1296 5.03125 20.1296 6.25V14.5938L21.6296 15.7656V9.34375L26.739 5.78125C27.7234 5.125 29.1296 5.78125 29.1296 7V19.0469C29.1296 19.8438 28.4734 20.4531 27.7234 20.5L30.3015 22.5156ZM2.12964 19.7969V8.26562L19.239 21.5312C18.864 21.8125 18.3953 22 17.8796 22H4.33276C3.11401 22 2.12964 21.0156 2.12964 19.7969Z"
      fill="currentColor" />
  </symbol>

  <symbol width="24" height="24" viewBox="0 0 24 24" fill="none" xmlns="http://www.w3.org/2000/svg"
    id="clock">
    <path
      d="M12 0.375C18.4219 0.375 23.625 5.57812 23.625 12C23.625 18.4219 18.4219 23.625 12 23.625C5.57812 23.625 0.375 18.4219 0.375 12C0.375 5.57812 5.57812 0.375 12 0.375ZM16.3125 15.0469C16.4062 14.9531 16.5 14.7656 16.5 14.5781C16.5 14.3438 16.3594 14.1562 16.2188 14.0156L13.5 12V5.25C13.5 4.875 13.125 4.5 12.75 4.5H11.25C10.8281 4.5 10.5 4.875 10.5 5.25V12.5625C10.5 13.1719 10.7344 13.6875 11.2031 14.0156L14.3438 16.3594C14.4375 16.4531 14.625 16.5469 14.7656 16.5469C15.0469 16.5469 15.2344 16.4062 15.375 16.2188L16.3125 15.0469Z"
      fill="currentColor" />
  </symbol>

  <symbol width="30" height="30" viewBox="0 0 30 24" fill="none" xmlns="http://www.w3.org/2000/svg"
    id="home">
    <path
      d="M6.04224 18H16.6829L24.0422 24H4.63599C3.83911 24 3.18286 23.3438 3.18286 22.5V13.3125C3.41724 13.3594 3.69849 13.4062 3.93286 13.4531C4.21411 13.5 4.44849 13.5 4.72974 13.5C5.19849 13.5 5.62036 13.4531 6.04224 13.3594V18ZM4.72974 12C4.54224 12 4.30786 12 4.12036 12C1.35474 11.5781 0.0422363 8.15625 1.49536 5.67188L7.72974 10.7344C6.93286 11.5312 5.90161 12 4.72974 12ZM28.5891 21.5156C28.7297 21.6562 28.8235 21.8438 28.8235 22.0781C28.8235 22.2656 28.7766 22.4062 28.6829 22.5469L27.8391 23.7188C27.6985 23.9062 27.511 24 27.2766 24C27.0891 24 26.9485 23.9531 26.8079 23.8594L0.604736 2.53125C0.464111 2.39062 0.370361 2.20312 0.370361 1.96875C0.370361 1.78125 0.417236 1.64062 0.510986 1.5L1.35474 0.328125C1.49536 0.140625 1.68286 0.046875 1.91724 0.046875C2.10474 0.046875 2.24536 0.09375 2.38599 0.1875L3.93286 1.45312L4.40161 0.703125C4.63599 0.328125 5.10474 0.046875 5.62036 0H23.5735C24.0891 0.046875 24.5579 0.328125 24.7922 0.703125L27.6985 5.57812C29.1985 8.10938 27.8391 11.5781 25.0735 11.9531C24.8391 12 24.6516 12 24.4641 12C23.1516 12 21.9797 11.3906 21.1829 10.4531C20.3391 11.3906 19.2141 12 17.8547 12C17.4797 12 17.0579 11.9531 16.6829 11.8125L23.1516 17.0625V13.3594C23.5735 13.4531 23.9954 13.5 24.4641 13.5C24.7454 13.5 24.9797 13.5 25.261 13.4531C25.4954 13.4531 25.7766 13.3594 26.011 13.3125V19.4062L28.5891 21.5156Z"
      fill="currentColor" />
  </symbol>

  <symbol width="24" height="24" viewBox="0 0 24 24" fill="none" xmlns="http://www.w3.org/2000/svg"
    id="arrow-1">
    <path d="M6 9.96606L12 15.9661L18 9.96606" stroke="currentColor" stroke-width="1.5"
      stroke-linecap="round" stroke-linejoin="round" />
  </symbol>

  <symbol fill="none" viewBox="0 0 60 60" id="svg-icon-project" xmlns="http://www.w3.org/2000/svg">
    <g clip-path="url(#aa)">
      <path d="M22.5 0H60v37.5C60 49.919 49.919 60 37.5 60H0V22.5C0 10.081 10.081 0 22.5 0Z"
        fill="#C1E0FE" />
      <mask id="ab" style="mask-type:alpha" maskUnits="userSpaceOnUse" x="8" y="10" width="43"
        height="43">
        <path d="M50.625 10h-42.5v42.5h42.5V10Z" fill="#D9D9D9" />
      </mask>
      <g mask="url(#ab)">
        <path
          d="M20.698 40.237h2.656V28.062h-2.656v12.175Zm7.349 0h2.656V22.263h-2.656v17.974Zm7.349 0h2.656v-6.552h-2.656v6.552Zm-19.302 6.95c-.709 0-1.328-.265-1.86-.796-.53-.532-.796-1.151-.796-1.86V17.97c0-.709.265-1.328.796-1.86.532-.53 1.151-.797 1.86-.797h26.562c.709 0 1.328.266 1.86.797.53.532.797 1.151.797 1.86V44.53c0 .709-.266 1.328-.797 1.86-.532.53-1.151.797-1.86.797H16.094Zm0-2.656h26.562V17.97H16.094V44.53Z"
          fill="#0D1F91" />
      </g>
    </g>
    <defs>
      <clipPath id="aa">
        <path fill="#fff" d="M0 0h60v60H0z" />
      </clipPath>
    </defs>
  </symbol>

  <symbol fill="none" viewBox="0 0 60 60" id="svg-icoon-expert" xmlns="http://www.w3.org/2000/svg">
    <g clip-path="url(#aa)">
      <path d="M22.5 0H60v37.5C60 49.919 49.919 60 37.5 60H0V22.5C0 10.081 10.081 0 22.5 0Z"
        fill="#C9C2F5" />
      <mask id="ab" style="mask-type:alpha" maskUnits="userSpaceOnUse" x="10" y="10" width="40"
        height="40">
        <path d="M50 10H10v40h40V10Z" fill="#D9D9D9" />
      </mask>
      <g mask="url(#ab)">
        <path
          d="M30 46.667c-.944 0-1.743-.327-2.396-.98-.653-.652-.979-1.45-.979-2.395h6.75c0 .944-.326 1.743-.98 2.395-.652.653-1.45.98-2.395.98Zm-6.75-5.959v-2.5h13.5v2.5h-13.5Zm.208-5.041c-1.833-1.195-3.284-2.688-4.354-4.48-1.07-1.791-1.604-3.812-1.604-6.062 0-3.389 1.236-6.32 3.708-8.792 2.473-2.472 5.403-3.708 8.792-3.708 3.389 0 6.32 1.236 8.792 3.708 2.472 2.473 3.708 5.403 3.708 8.792 0 2.25-.528 4.27-1.583 6.063-1.056 1.791-2.514 3.284-4.375 4.479H23.458Zm.917-2.5h11.292a9.708 9.708 0 0 0 3.166-3.459A9.373 9.373 0 0 0 40 25.125c0-2.75-.98-5.104-2.938-7.063-1.958-1.958-4.312-2.937-7.062-2.937s-5.104.98-7.063 2.938C20.98 20.02 20 22.375 20 25.125c0 1.639.389 3.167 1.167 4.583a9.576 9.576 0 0 0 3.208 3.459Z"
          fill="#2F1761" />
      </g>
    </g>
    <defs>
      <clipPath id="aa">
        <path fill="#fff" d="M0 0h60v60H0z" />
      </clipPath>
    </defs>
  </symbol>

  <symbol fill="none" viewBox="0 0 60 60" id="svg-icon-partner" xmlns="http://www.w3.org/2000/svg">
    <g clip-path="url(#aa)">
      <path d="M22.5 0H60v37.5C60 49.919 49.919 60 37.5 60H0V22.5C0 10.081 10.081 0 22.5 0Z"
        fill="#91D9E3" />
      <mask id="ab" style="mask-type:alpha" maskUnits="userSpaceOnUse" x="10" y="10" width="40"
        height="40">
        <path d="M50 10H10v40h40V10Z" fill="#D9D9D9" />
      </mask>
      <g mask="url(#ab)">
        <path
          d="M30 46.667c-.944 0-1.743-.327-2.396-.98-.653-.652-.979-1.45-.979-2.395h6.75c0 .944-.326 1.743-.98 2.395-.652.653-1.45.98-2.395.98Zm-6.75-5.959v-2.5h13.5v2.5h-13.5Zm.208-5.041c-1.833-1.195-3.284-2.688-4.354-4.48-1.07-1.791-1.604-3.812-1.604-6.062 0-3.389 1.236-6.32 3.708-8.792 2.473-2.472 5.403-3.708 8.792-3.708 3.389 0 6.32 1.236 8.792 3.708 2.472 2.473 3.708 5.403 3.708 8.792 0 2.25-.528 4.27-1.583 6.063-1.056 1.791-2.514 3.284-4.375 4.479H23.458Zm.917-2.5h11.292a9.708 9.708 0 0 0 3.166-3.459A9.373 9.373 0 0 0 40 25.125c0-2.75-.98-5.104-2.938-7.063-1.958-1.958-4.312-2.937-7.062-2.937s-5.104.98-7.063 2.938C20.98 20.02 20 22.375 20 25.125c0 1.639.389 3.167 1.167 4.583a9.576 9.576 0 0 0 3.208 3.459Z"
          fill="#2F1761" />
      </g>
    </g>
    <defs>
      <clipPath id="aa">
        <path fill="#fff" d="M0 0h60v60H0z" />
      </clipPath>
    </defs>
  </symbol>

  <symbol fill="none" viewBox="0 0 60 60" id="svg-icon-customer" xmlns="http://www.w3.org/2000/svg">
    <g clip-path="url(#aa)">
      <path d="M22.5 0H60v37.5C60 49.919 49.919 60 37.5 60H0V22.5C0 10.081 10.081 0 22.5 0Z"
        fill="#FBCC81" />
      <mask id="ab" style="mask-type:alpha" maskUnits="userSpaceOnUse" x="10" y="10" width="40"
        height="40">
        <path d="M50 10H10v40h40V10Z" fill="#D9D9D9" />
      </mask>
      <g mask="url(#ab)">
        <path
          d="M30 46.667c-.944 0-1.743-.327-2.396-.98-.653-.652-.979-1.45-.979-2.395h6.75c0 .944-.326 1.743-.98 2.395-.652.653-1.45.98-2.395.98Zm-6.75-5.959v-2.5h13.5v2.5h-13.5Zm.208-5.041c-1.833-1.195-3.284-2.688-4.354-4.48-1.07-1.791-1.604-3.812-1.604-6.062 0-3.389 1.236-6.32 3.708-8.792 2.473-2.472 5.403-3.708 8.792-3.708 3.389 0 6.32 1.236 8.792 3.708 2.472 2.473 3.708 5.403 3.708 8.792 0 2.25-.528 4.27-1.583 6.063-1.056 1.791-2.514 3.284-4.375 4.479H23.458Zm.917-2.5h11.292a9.708 9.708 0 0 0 3.166-3.459A9.373 9.373 0 0 0 40 25.125c0-2.75-.98-5.104-2.938-7.063-1.958-1.958-4.312-2.937-7.062-2.937s-5.104.98-7.063 2.938C20.98 20.02 20 22.375 20 25.125c0 1.639.389 3.167 1.167 4.583a9.576 9.576 0 0 0 3.208 3.459Z"
          fill="#2F1761" />
      </g>
    </g>
    <defs>
      <clipPath id="aa">
        <path fill="#fff" d="M0 0h60v60H0z" />
      </clipPath>
    </defs>
  </symbol>

  <symbol fill="none" viewBox="0 0 26 28" id="svg-icon-build" xmlns="http://www.w3.org/2000/svg">
    <g clip-path="url(#aa)" fill="#003FFF">
      <path
        d="M12.325 20.55c.395.32.955.32 1.35-.001l9.956-8.087 1.299-1.05a1.12 1.12 0 0 0 .002-1.73L13.674.546a1.066 1.066 0 0 0-1.348 0L1.066 9.684a1.12 1.12 0 0 0-.001 1.73l1.29 1.048 9.97 8.087Z" />
      <path opacity=".3" fill-rule="evenodd" clip-rule="evenodd"
        d="M13.661 24.377c-.395.32-.954.32-1.348 0L3.2 16.987a1.07 1.07 0 0 0-1.53.188l-.28.367a1.12 1.12 0 0 0 .2 1.554l10.751 8.39c.389.303.928.303 1.316 0l10.755-8.39a1.12 1.12 0 0 0 .198-1.555l-.291-.383a1.07 1.07 0 0 0-1.53-.187l-9.128 7.406Z" />
    </g>
    <defs>
      <clipPath id="aa">
        <path fill="#fff" d="M0 0h26v28H0z" />
      </clipPath>
    </defs>
  </symbol>

  <symbol fill="none" viewBox="0 0 48 48" id="svg-automation" xmlns="http://www.w3.org/2000/svg">
    <g clip-path="url(#aa)">
      <path
        d="m26.565 41.348 2.428-2.532H18.21v-3.062H.759a.762.762 0 0 0-.54.23.775.775 0 0 0-.219.548c.011 3.798 3.064 6.872 6.829 6.876h20.915l-1.179-2.06ZM42.484 11.26v16.518l.64 2.253.234.138.644-.162V10.495c0-2.114-1.699-3.827-3.794-3.827H8.341c-2.096 0-3.794 1.713-3.794 3.827v23.729h1.517V11.26c0-.423.34-.766.76-.766h34.902c.419 0 .758.343.758.766Z"
        fill="#175CFF" />
      <path
        d="M45.523 38.052a6.975 6.975 0 0 0-.076-.99l2.551-2.66-1.517-2.65-3.556.897a6.798 6.798 0 0 0-1.704-.995l-1.01-3.552h-3.034l-1.006 3.553a6.794 6.794 0 0 0-1.704.995l-3.556-.897-1.517 2.651 2.548 2.658a6.86 6.86 0 0 0-.076.99c.001.331.027.662.076.99l-2.551 2.66 1.517 2.651 3.556-.898a6.794 6.794 0 0 0 1.704.995l1.009 3.553h3.035l1.006-3.554a6.796 6.796 0 0 0 1.704-.995l3.556.898 1.517-2.652-2.548-2.658a6.86 6.86 0 0 0 .076-.99Zm-6.829 2.297a2.286 2.286 0 0 1-2.276-2.297 2.286 2.286 0 0 1 2.276-2.296 2.286 2.286 0 0 1 2.277 2.296 2.286 2.286 0 0 1-2.277 2.297Z"
        fill="#175CFF" />
      <path fill-rule="evenodd" clip-rule="evenodd"
        d="M21.987 29.335a.816.816 0 0 1-.609-.282l-4.05-4.532 1.217-1.36 3.442 3.85 7.458-8.343 1.216 1.361-8.065 9.024a.817.817 0 0 1-.61.282Z"
        fill="#F57C00" />
    </g>
    <defs>
      <clipPath id="aa">
        <path fill="#fff" d="M0 0h48v48H0z" />
      </clipPath>
    </defs>
  </symbol>

  <symbol fill="none" viewBox="0 0 30 28" id="svg-higher-roas" xmlns="http://www.w3.org/2000/svg">
    <g clip-path="url(#aa)">
      <path fill-rule="evenodd" clip-rule="evenodd"
        d="M24 2a2 2 0 0 1 2-2h2a2 2 0 0 1 2 2v24a2 2 0 0 1-2 2h-2a2 2 0 0 1-2-2V2ZM12 12a2 2 0 0 1 2-2h2a2 2 0 0 1 2 2v14a2 2 0 0 1-2 2h-2a2 2 0 0 1-2-2V12ZM2 18a2 2 0 0 0-2 2v6a2 2 0 0 0 2 2h2a2 2 0 0 0 2-2v-6a2 2 0 0 0-2-2H2Z"
        fill="#003FFF" />
    </g>
    <defs>
      <clipPath id="aa">
        <path fill="#fff" d="M0 0h30v28H0z" />
      </clipPath>
    </defs>
  </symbol>

  <symbol fill="none" viewBox="0 0 31 28" id="svg-more-clicks" xmlns="http://www.w3.org/2000/svg">
    <g clip-path="url(#aa)" fill-rule="evenodd" clip-rule="evenodd" fill="#003FFF">
      <path
        d="M23.238 4.188 14 13.318v13.035c0 .91.746 1.647 1.667 1.647.92 0 1.666-.737 1.666-1.647v-11.67l8.262-8.165 4.36 4.308c.263.26.712.076.712-.29V.411A.414.414 0 0 0 30.25 0H20.006a.411.411 0 0 0-.295.703l3.527 3.485Z" />
      <path opacity=".3"
        d="m10.42 11.262 2.153-2.515-4.836-4.043 4.048-4a.411.411 0 0 0-.295-.703H1.128A.414.414 0 0 0 .71.413v10.24c0 .367.449.551.711.292l3.95-3.904 5.047 4.22Z" />
    </g>
    <defs>
      <clipPath id="aa">
        <path fill="#fff" transform="matrix(1 0 0 -1 .664 28)" d="M0 0h30v28H0z" />
      </clipPath>
    </defs>
  </symbol>

  <symbol fill="none" viewBox="0 0 38 40" id="svg-icon-help-you" xmlns="http://www.w3.org/2000/svg">
    <path
      d="M17.608 29.357a1.524 1.524 0 0 0 1.927-.001l14.224-11.553 1.855-1.499a1.6 1.6 0 0 0 .003-2.473L19.535.78a1.524 1.524 0 0 0-1.927 0L1.522 13.835a1.6 1.6 0 0 0-.001 2.471l1.843 1.498 14.244 11.553Z"
      fill="#9BB3FD" />
    <path opacity=".3" fill-rule="evenodd" clip-rule="evenodd"
      d="M19.517 34.824a1.523 1.523 0 0 1-1.926 0L4.573 24.266a1.527 1.527 0 0 0-2.187.269l-.398.524a1.6 1.6 0 0 0 .284 2.221l15.36 11.986a1.523 1.523 0 0 0 1.88 0l15.364-11.985a1.6 1.6 0 0 0 .283-2.222l-.416-.547a1.527 1.527 0 0 0-2.187-.268l-13.039 10.58Z"
      fill="#9BB3FD" />
  </symbol>

  <symbol fill="none" viewBox="0 0 33 32" id="svg-icon-logo" xmlns="http://www.w3.org/2000/svg">
    <path d="M16.5 32c8.837 0 16-7.163 16-16s-7.163-16-16-16S.5 7.163.5 16s7.163 16 16 16Z"
      fill="#fff" />
    <path
      d="M26.793 14.08c-.64 0-1.146.507-1.146 1.147 0 5.04-4.08 9.12-9.147 9.12-5.04 0-9.12-4.08-9.12-9.147V9.493c0-.64-.507-1.146-1.147-1.146H1.647C1.007 8.347.5 8.853.5 9.493c0 .64.507 1.147 1.147 1.147h3.44v4.56c0 6.32 5.12 11.44 11.413 11.44 6.32 0 11.413-5.12 11.413-11.44.027-.613-.48-1.12-1.12-1.12Z"
      fill="#F57C00" />
    <path
      d="M13.037 17.494c.64 0 1.147-.507 1.147-1.147v-2.293c0-.64-.507-1.147-1.147-1.147s-1.146.507-1.146 1.147v2.293c0 .64.506 1.147 1.146 1.147ZM19.967 17.494c.64 0 1.147-.507 1.147-1.147v-2.293c0-.64-.507-1.147-1.147-1.147s-1.147.507-1.147 1.147v2.293c0 .64.534 1.147 1.147 1.147ZM11.919 31.227a2.293 2.293 0 1 0-.008-4.587 2.293 2.293 0 0 0 .008 4.587ZM23.411 28.93a2.293 2.293 0 1 0-4.587-.007 2.293 2.293 0 0 0 4.587.008Z"
      fill="#F57C00" />
  </symbol>

  <symbol fill="none" viewBox="0 0 64 64" id="svg-icon-oms" xmlns="http://www.w3.org/2000/svg">
    <path
      d="m25.197 19.585 6.846 4.033 6.846-4.033v-7.64c-4.979-2.208-11.203-1.062-13.692-.213v7.853ZM38.889 44.415l-6.846-4.033-6.846 4.033v7.64c4.979 2.208 11.202 1.062 13.692.213v-7.853ZM38.983 19.796l.01 8.082 6.836 4.05 6.467-3.82c-.62-5.516-4.703-10.457-6.666-12.238l-6.647 3.926ZM25.07 44.341l-.01-8.082-6.835-4.05-6.468 3.821c.62 5.515 4.703 10.457 6.666 12.238l6.647-3.927ZM38.983 44.341l.01-8.082 6.836-4.05 6.467 3.821c-.62 5.515-4.703 10.457-6.666 12.238l-6.647-3.927ZM25.07 19.796l-.01 8.082-6.835 4.05-6.468-3.82c.62-5.516 4.703-10.457 6.666-12.238l6.647 3.926Z"
      fill="#fff" />
    <path fill-rule="evenodd" clip-rule="evenodd"
      d="M32.042 45.792c7.37 0 13.366-6.116 13.366-13.687s-5.996-13.688-13.366-13.688c-7.37 0-13.365 6.116-13.365 13.688 0 7.571 5.996 13.687 13.365 13.687Zm0 .534c7.677 0 13.9-6.367 13.9-14.221s-6.223-14.221-13.9-14.221c-7.676 0-13.899 6.367-13.899 14.22 0 7.855 6.223 14.222 13.9 14.222Z"
      fill="#FF7D0D" />
    <path d="m38.681 27.86-6.846-4.244-7.053 4.245v8.49l7.053 4.033 6.846-4.033v-8.49Z" fill="#fff" />
  </symbol>

  <symbol fill="none" viewBox="0 0 24 24" id="svg-icon-check" xmlns="http://www.w3.org/2000/svg">
    <circle cx="12" cy="12" r="9.004" fill="#0F62FE" stroke="#0F62FE" stroke-width="1.5"
      stroke-linecap="round" stroke-linejoin="round" />
    <path d="m8.443 12.34 2.167 2.167-.014-.014 4.892-4.891" stroke="#fff" stroke-width="1.5"
      stroke-linecap="round" stroke-linejoin="round" />
  </symbol>

  <symbol fill="none" viewBox="0 0 24 24" id="svg-arrow-right" xmlns="http://www.w3.org/2000/svg">
    <path d="M19 12H5M14 17l5-5M14 7l5 5" stroke="#F57C00" stroke-width="1.5" stroke-linecap="round"
      stroke-linejoin="round" />
  </symbol>

  <symbol fill="none" viewBox="0 0 64 65" id="svg-icon-pim" xmlns="http://www.w3.org/2000/svg">
    <path
      d="M30.762 30.54c.732-.422 1.918-.422 2.65 0l13.16 7.599c.733.422.733 1.107 0 1.53l-13.16 7.598c-.732.423-1.918.423-2.65 0l-13.16-7.598c-.733-.423-.733-1.108 0-1.53l13.16-7.599Z"
      fill="#fff" fill-opacity=".6" />
    <path
      d="M30.762 23.945c.732-.423 1.918-.423 2.65 0l13.16 7.598c.733.422.733 1.108 0 1.53l-13.16 7.598c-.732.423-1.918.423-2.65 0l-13.16-7.598c-.733-.422-.733-1.108 0-1.53l13.16-7.598Z"
      fill="#fff" fill-opacity=".8" />
    <path
      d="M30.762 17.349c.732-.423 1.918-.423 2.65 0l13.16 7.598c.733.423.733 1.108 0 1.53l-13.16 7.599c-.732.422-1.918.422-2.65 0l-13.16-7.599c-.733-.422-.733-1.107 0-1.53l13.16-7.598Z"
      fill="#fff" />
  </symbol>

  <symbol fill="none" viewBox="0 0 26 20" id="svg-storefront" xmlns="http://www.w3.org/2000/svg">
    <path
      d="M18.823 5.001h-1.544a.283.283 0 0 1-.283-.264A4.089 4.089 0 0 0 12.926.91a4.089 4.089 0 0 0-4.07 3.827.283.283 0 0 1-.283.264H7.031c-.785 0-1.421.638-1.421 1.426l.001 11.156c0 .374.354.647.714.55 3.355-.904 8.994-3.053 13.72-7.076a.57.57 0 0 0 .198-.434V6.427c0-.788-.636-1.426-1.42-1.426ZM9.272 6.914a.576.576 0 1 1 .002-1.157.576.576 0 0 1-.002 1.157Zm.727-1.913a.284.284 0 0 1-.284-.309 3.235 3.235 0 0 1 3.212-2.927 3.234 3.234 0 0 1 3.211 2.927.284.284 0 0 1-.283.31H10Zm6.541 1.913a.576.576 0 1 1 .002-1.152.576.576 0 0 1-.002 1.152Zm8.68-2.638c-.382-.663-1.067-1.11-2.021-1.328a.28.28 0 0 1-.204-.182 1.425 1.425 0 0 0-1.515-.968 1.432 1.432 0 0 0-1.257 1.328 1.427 1.427 0 0 0 1.422 1.522c.517 0 .97-.277 1.22-.691a.282.282 0 0 1 .319-.13c.62.173 1.062.468 1.297.877.569.988-.04 2.675-1.669 4.63-1.745 2.094-4.436 4.25-7.579 6.07-3.143 1.82-6.35 3.082-9.029 3.551-2.502.438-4.263.123-4.831-.865-.421-.732-.203-1.833.59-3.143.062-.1.18-.152.295-.131a1.432 1.432 0 0 0 1.665-1.297 1.427 1.427 0 0 0-1.535-1.537A1.431 1.431 0 0 0 1.28 14.14a.286.286 0 0 1 0 .295C.273 16.071.04 17.484.634 18.517c.563.979 1.802 1.484 3.571 1.484.647 0 1.364-.067 2.145-.204.187-.033.377-.07.568-.11a.294.294 0 0 1 .07-.006l.042.002h11.792c.785 0 1.42-.64 1.42-1.426v-5.116c0-.085.039-.166.105-.22 1.216-.998 2.273-2.024 3.118-3.038 1.9-2.28 2.523-4.27 1.753-5.607h.001Zm-3.58-.478a.577.577 0 1 1 .001-1.153.577.577 0 0 1-.001 1.153ZM2.526 12.814a.577.577 0 1 1-.002 1.153.577.577 0 0 1 .002-1.153Z"
      fill="#fff" />
  </symbol>

  <symbol fill="none" viewBox="0 0 64 64" id="svg-icon-pos" xmlns="http://www.w3.org/2000/svg">
    <path fill-rule="evenodd" clip-rule="evenodd"
      d="m32 48.929-7.31-4.225-7.31-4.204V23.622l7.31-4.225L32 15.172l6.759 3.899-14.62 8.449v9.082l7.86 4.53 7.883-4.53 6.739-3.898V40.5l-7.31 4.204L32 48.93Z"
      fill="#fff" />
    <path fill-rule="evenodd" clip-rule="evenodd"
      d="M39.882 27.52v6.735l6.74-3.898v-6.735l-5.841-3.388-6.76 3.898 5.861 3.388Z" fill="#fff" />
  </symbol>

  <symbol fill="none" viewBox="0 0 54 54" id="svg-icon-storefront"
    xmlns="http://www.w3.org/2000/svg">
    <path
      d="M16.182 14.77a.575.575 0 0 0-.552.574V42.42c0 .38.358.657.726.56l20.357-5.473a.581.581 0 0 0 .43-.559v-3.574l-1.223-1.226-1.329 2.805-2.607-7.646 5.158 1.77v-8.262a.575.575 0 0 0-.43-.554L16.357 14.79a.506.506 0 0 0-.174-.02Zm16.395 8.923a.404.404 0 0 1 .414.385l.077 1.728a.397.397 0 0 1-.389.41.412.412 0 0 1-.419-.39l-.071-1.723a.397.397 0 0 1 .388-.41Zm2.643 1.251a.42.42 0 0 1 .291.108.405.405 0 0 1 .02.569l-1.175 1.246a.397.397 0 0 1-.567.015.4.4 0 0 1-.026-.564l1.181-1.251a.384.384 0 0 1 .276-.123Zm-5.29.17c.101-.006.209.03.285.107l1.283 1.19a.395.395 0 0 1 .021.564.397.397 0 0 1-.567.016l-1.278-1.19a.4.4 0 0 1-.026-.564.383.383 0 0 1 .282-.124Zm.47 2.692c.22-.005.408.17.418.39a.4.4 0 0 1-.388.41l-1.738.041a.408.408 0 0 1-.42-.384.405.405 0 0 1 .39-.416l1.737-.041Zm.945 1.256a.4.4 0 0 1 .312.672l-1.176 1.252a.402.402 0 0 1-.567.015.4.4 0 0 1-.026-.564l1.181-1.251a.365.365 0 0 1 .276-.123Zm5.797 2.037-.332.158.332.334v-.492Z"
      fill="#FAE5D0" />
    <path
      d="M29.934 10.908c-.88-.01-1.585.677-2.08 1.62-.23.441-.42.954-.573 1.518l-7.73-2.076a.576.576 0 0 0-.726.554V39.6c0 .38.358.656.726.559l20.357-5.472a.581.581 0 0 0 .43-.559V17.995a.575.575 0 0 0-.43-.554l-7.08-1.902c-.092-.929-.292-1.775-.583-2.493-.45-1.123-1.166-2.01-2.132-2.128a1.954 1.954 0 0 0-.179-.01Zm.072.969c.025 0 .05 0 .076.005.41.052.905.523 1.284 1.467.214.533.383 1.195.48 1.923l-3.62-.975c.134-.476.297-.907.482-1.26.414-.796.9-1.155 1.298-1.16Zm-2.27 3.426c.337 0 .613.256.613.574 0 .318-.276.57-.613.57-.337 0-.618-.258-.618-.57 0-.313.276-.574.618-.574Zm4.708.974c.338 0 .614.256.614.57 0 .312-.276.568-.614.568-.337 0-.613-.256-.613-.569 0-.313.27-.569.613-.569Zm-.46 11.031 7.622 2.616-2.796 1.333 2.556 2.564-.89.892-2.555-2.564-1.33 2.805-2.607-7.646Z"
      fill="#fff" />
  </symbol>

  <symbol fill="none" viewBox="0 0 64 64" id="svg-icon-smart-cross"
    xmlns="http://www.w3.org/2000/svg">
    <path
      d="M30.036 43.214c-1.34 0-2.43.969-2.43 2.16 0 1.19 1.09 2.16 2.43 2.16s2.431-.969 2.431-2.16c0-1.192-1.09-2.16-2.43-2.16Zm0 2.8c-.396 0-.719-.288-.719-.64 0-.353.323-.64.72-.64.396 0 .719.287.719.64 0 .352-.322.64-.72.64ZM38.678 43.214c-1.34 0-2.43.969-2.43 2.16 0 1.19 1.09 2.16 2.43 2.16s2.43-.969 2.43-2.16c0-1.192-1.091-2.16-2.43-2.16Zm0 2.8c-.397 0-.72-.288-.72-.64 0-.353.323-.64.72-.64.396 0 .72.287.72.64 0 .352-.324.64-.72.64ZM26.843 31.14l1.194 4.454h11.516l1.553-3.075H30.932l-.37-1.38h7.114l1.62-3.169h-9.583l-.33-1.228h7.744l1.563-3.11H24.83l1.163 4.338.85 3.17Z"
      fill="#fff" />
    <path
      d="m41.815 28.046-1.58 3.094h.492a4.923 4.923 0 0 1 4.918 4.917 4.923 4.923 0 0 1-4.918 4.917H23.635l-4.687-18.353-.81-3.17H10.04v3.17h5.638l5.497 21.523.12-.031v.03h5.854a2.99 2.99 0 0 1 2.764-1.86c1.248 0 2.32.77 2.766 1.86h3.272a2.991 2.991 0 0 1 2.764-1.86c1.248 0 2.298.754 2.752 1.825 4.113-.375 7.347-3.842 7.347-8.051 0-4.21-3.053-7.479-6.998-8.012Z"
      fill="#fff" />
  </symbol>

  <symbol fill="none" viewBox="0 0 64 64" id="svg-icon-cdxp" xmlns="http://www.w3.org/2000/svg">
    <path fill-rule="evenodd" clip-rule="evenodd"
      d="M23.916 18.506 32 13.826l15.894 9.2v18.4l-8.048 4.659V32.952L20.656 44.06l-4.55-2.633v-5.268L35.26 25.072l-11.344-6.566Z"
      fill="#fff" />
    <path fill-rule="evenodd" clip-rule="evenodd"
      d="m36.475 48-4.463 2.56-8.134-4.666 12.597-7.225v9.33ZM16.108 32.429v-9.44l4.399-2.569 8.08 4.72-12.479 7.289Z"
      fill="#fff" fill-opacity=".8" />
  </symbol>

  <symbol fill="none" viewBox="0 0 25 24" id="svg-icon-discover" xmlns="http://www.w3.org/2000/svg">
    <path clip-rule="evenodd"
      d="m18.914 6.414-2.828-2.828A2 2 0 0 0 14.672 3H7.5a2 2 0 0 0-2 2v14a2 2 0 0 0 2 2h10a2 2 0 0 0 2-2V7.828a2 2 0 0 0-.586-1.414v0Z"
      stroke="#fff" stroke-width="1.5" stroke-linecap="round" stroke-linejoin="round" />
    <path
      d="M19.5 8h-4a1 1 0 0 1-1-1V3M10.2 18l1.15-6.91M13.65 18l1.15-6.91M16.3 12.85h-7M15.7 16.25h-7"
      stroke="#fff" stroke-width="1.5" stroke-linecap="round" stroke-linejoin="round" />
  </symbol>

  <symbol fill="none" viewBox="0 0 25 24" id="svg-icon-experience"
    xmlns="http://www.w3.org/2000/svg">
    <path d="M17.5 22a5 5 0 1 1 .001-10.001A5 5 0 0 1 17.5 22" stroke="#fff" stroke-width="1.5"
      stroke-linecap="round" stroke-linejoin="round" />
    <path
      d="M21.5 14.001V7.94a2 2 0 0 0-2-2h-6.471a1 1 0 0 1-.827-.438l-1.405-2.065A1 1 0 0 0 9.971 3H5.5a2 2 0 0 0-2 2v12a2 2 0 0 0 2 2h7.418M17.5 14.778v.744M17.5 18.478v.744M15.578 15.889l.644.367M18.789 17.744l.633.367M15.578 18.111l.644-.367M18.789 16.256l.633-.367"
      stroke="#fff" stroke-width="1.5" stroke-linecap="round" stroke-linejoin="round" />
    <path d="M17.5 15.518a1.482 1.482 0 1 1 0 2.964 1.482 1.482 0 0 1 0-2.964" stroke="#fff"
      stroke-width="1.5" stroke-linecap="round" stroke-linejoin="round" />
  </symbol>

  <symbol fill="none" viewBox="0 0 24 24" id="svg-arrow-up" xmlns="http://www.w3.org/2000/svg">
    <path d="m18 15-6-6-6 6" stroke="#323232" stroke-width="1.5" stroke-linecap="round"
      stroke-linejoin="round" />
  </symbol>

  <symbol fill="none" viewBox="0 0 47 47" id="svg-icon-artwork" xmlns="http://www.w3.org/2000/svg">
    <rect x=".796" y=".413" width="46" height="46" rx="8" fill="#FFF7E6" />
    <path
      d="M24 11c-6.617 0-12 5.383-12 12s5.383 12 12 12 12-5.383 12-12-5.383-12-12-12Zm0 21.473c-5.223 0-9.473-4.25-9.473-9.473 0-5.223 4.25-9.473 9.473-9.473 5.223 0 9.473 4.25 9.473 9.473 0 5.223-4.25 9.473-9.473 9.473Z"
      fill="#F57C00" />
    <path
      d="M29.004 23.134h-4.92v-4.262a1.263 1.263 0 1 0-2.527 0v5.525c0 .698.566 1.264 1.264 1.264h6.183a1.263 1.263 0 1 0 0-2.527Z"
      fill="#F57C00" />
  </symbol>

  <symbol fill="none" viewBox="0 0 33 33" id="svg-icon-repo" xmlns="http://www.w3.org/2000/svg">
    <g clip-path="url(#aa)">
      <path
        d="M25.517 5.66a2.667 2.667 0 0 1 2.667 2.666v16a2.667 2.667 0 0 1-2.667 2.667H6.851a2.667 2.667 0 0 1-2.667-2.667v-16A2.667 2.667 0 0 1 6.85 5.66h18.666Zm0 8H6.851v9.333c0 .684.514 1.247 1.177 1.324l.156.01h16c.684 0 1.247-.515 1.324-1.179l.01-.155V13.66ZM8.184 8.326a1.333 1.333 0 1 0 0 2.667 1.333 1.333 0 0 0 0-2.667Zm4 0a1.333 1.333 0 1 0 0 2.667 1.333 1.333 0 0 0 0-2.667Zm4 0a1.333 1.333 0 1 0 0 2.667 1.333 1.333 0 0 0 0-2.667Z"
        fill="#597EF7" />
    </g>
    <defs>
      <clipPath id="aa">
        <path fill="#fff" transform="translate(.184 .326)" d="M0 0h32v32H0z" />
      </clipPath>
    </defs>
  </symbol>

  <symbol fill="none" viewBox="0 0 24 24" id="svg-icon-barcode" xmlns="http://www.w3.org/2000/svg">
    <path
      d="M2 9.75c-.41 0-.75-.34-.75-.75V6.5c0-2.9 2.36-5.25 5.25-5.25H9c.41 0 .75.34.75.75s-.34.75-.75.75H6.5c-2.07 0-3.75 1.68-3.75 3.75V9c0 .41-.34.75-.75.75ZM22 9.75c-.41 0-.75-.34-.75-.75V6.5c0-2.07-1.68-3.75-3.75-3.75H15c-.41 0-.75-.34-.75-.75s.34-.75.75-.75h2.5c2.89 0 5.25 2.35 5.25 5.25V9c0 .41-.34.75-.75.75ZM17.5 22.75H16c-.41 0-.75-.34-.75-.75s.34-.75.75-.75h1.5c2.07 0 3.75-1.68 3.75-3.75V16c0-.41.34-.75.75-.75s.75.34.75.75v1.5c0 2.9-2.36 5.25-5.25 5.25ZM9 22.75H6.5c-2.89 0-5.25-2.35-5.25-5.25V15c0-.41.34-.75.75-.75s.75.34.75.75v2.5c0 2.07 1.68 3.75 3.75 3.75H9c.41 0 .75.34.75.75s-.34.75-.75.75Z"
      fill="#3EB8B0" />
    <path
      d="M9 5.25H7c-1.14 0-1.75.6-1.75 1.75v2c0 1.15.61 1.75 1.75 1.75h2c1.14 0 1.75-.6 1.75-1.75V7c0-1.15-.61-1.75-1.75-1.75ZM17 5.25h-2c-1.14 0-1.75.6-1.75 1.75v2c0 1.15.61 1.75 1.75 1.75h2c1.14 0 1.75-.6 1.75-1.75V7c0-1.15-.61-1.75-1.75-1.75ZM9 13.25H7c-1.14 0-1.75.6-1.75 1.75v2c0 1.15.61 1.75 1.75 1.75h2c1.14 0 1.75-.6 1.75-1.75v-2c0-1.15-.61-1.75-1.75-1.75ZM17 13.25h-2c-1.14 0-1.75.6-1.75 1.75v2c0 1.15.61 1.75 1.75 1.75h2c1.14 0 1.75-.6 1.75-1.75v-2c0-1.15-.61-1.75-1.75-1.75Z"
      fill="#3EB8B0" />
  </symbol>

  <symbol fill="none" viewBox="0 0 24 24" id="svg-icon-note" xmlns="http://www.w3.org/2000/svg">
    <path
      d="M16 4.25c0 1.24-1.01 2.25-2.25 2.25h-3.5c-.62 0-1.18-.25-1.59-.66C8.25 5.43 8 4.87 8 4.25 8 3.01 9.01 2 10.25 2h3.5c.62 0 1.18.25 1.59.66.41.41.66.97.66 1.59Z"
      fill="#9254DE" />
    <path
      d="M18.83 5.029a2.83 2.83 0 0 0-.77-.45c-.29-.11-.58.12-.64.42-.34 1.71-1.85 3-3.67 3h-3.5c-1 0-1.94-.39-2.65-1.1a3.7 3.7 0 0 1-1.02-1.89c-.06-.3-.36-.54-.65-.42C4.77 5.059 4 6.119 4 8.249v9.75c0 3 1.79 4 4 4h8c2.21 0 4-1 4-4v-9.75c0-1.63-.45-2.63-1.17-3.22ZM8 12.249h4c.41 0 .75.34.75.75s-.34.75-.75.75H8c-.41 0-.75-.34-.75-.75s.34-.75.75-.75Zm8 5.5H8c-.41 0-.75-.34-.75-.75s.34-.75.75-.75h8c.41 0 .75.34.75.75s-.34.75-.75.75Z"
      fill="#9254DE" />
  </symbol>

  <symbol fill="none" viewBox="0 0 24 24" id="svg-icon-box" xmlns="http://www.w3.org/2000/svg">
    <path
      d="m17.578 4.432-2-1.05C13.822 2.461 12.944 2 12 2s-1.822.46-3.578 1.382l-.321.169 8.923 5.099L21.04 6.64c-.646-.732-1.688-1.279-3.462-2.21ZM21.748 7.964l-3.998 2V13a.75.75 0 0 1-1.5 0v-2.287l-3.5 1.75v9.441c.718-.179 1.535-.607 2.828-1.286l2-1.05c2.151-1.129 3.227-1.693 3.825-2.708C22 15.846 22 14.583 22 12.06v-.117c0-1.893 0-3.076-.252-3.978ZM11.25 21.904v-9.44l-8.998-4.5C2 8.866 2 10.05 2 11.941v.117c0 2.525 0 3.788.597 4.802.598 1.015 1.674 1.58 3.825 2.709l2 1.049c1.293.679 2.11 1.107 2.828 1.286ZM2.96 6.641l9.04 4.52 3.411-1.705-8.886-5.078-.103.053C4.65 5.362 3.606 5.91 2.96 6.641Z"
      fill="#FF4D4F" />
  </symbol>

  <symbol fill="none" viewBox="0 0 24 24" id="svg-icon-payment" xmlns="http://www.w3.org/2000/svg">
    <path
      d="M21.988 10.995v5.28a2.75 2.75 0 0 1-2.581 2.746l-.168.005H4.76a2.75 2.75 0 0 1-2.745-2.583l-.005-.167v-5.281h19.977ZM18.253 14.5h-2.5l-.102.007a.75.75 0 0 0 0 1.486l.102.007h2.5l.102-.007a.75.75 0 0 0 0-1.486l-.102-.007Zm.986-9.48a2.75 2.75 0 0 1 2.745 2.583l.005.168v1.724H2.01l.001-1.724a2.75 2.75 0 0 1 2.583-2.745l.167-.005H19.24Z"
      fill="#F57C00" />
  </symbol>

  <symbol fill="none" viewBox="0 0 20 24" id="svg-icon-loudspeaker"
    xmlns="http://www.w3.org/2000/svg">
    <g clip-path="url(#aa)" fill="#597EF7">
      <path
        d="m16.744 18.406-3.282-1.494c-2.011-.917-4.02-1.835-6.034-2.745-.182-.082-.26-.16-.258-.387.013-2.461.01-4.924.001-7.385 0-.15.024-.229.169-.295 3.1-1.405 6.197-2.817 9.296-4.227.026-.012.055-.017.107-.034v16.567ZM0 10.091V6.625c0-.757.385-1.146 1.132-1.147 1.335-.002 2.67-.002 4.005 0 .743 0 1.14.398 1.14 1.148.002 2.33.002 4.661 0 6.992 0 .73-.399 1.13-1.125 1.13-1.345.003-2.69.003-4.034 0-.731 0-1.116-.392-1.117-1.131-.002-1.176 0-2.35 0-3.526H0ZM19.91 10.117c0 2.94 0 5.879.003 8.818 0 .362-.06.699-.33.96-.309.302-.682.41-1.1.288-.413-.121-.682-.4-.775-.826a1.955 1.955 0 0 1-.038-.415c-.002-5.889-.002-11.778-.001-17.666 0-.726.37-1.193.999-1.268a1.094 1.094 0 0 1 1.208.876c.03.155.034.316.034.475.002 2.92.002 5.839.002 8.758h-.001ZM2.045 15.648h1.378c.488 0 .977.005 1.465-.004.168-.003.24.042.274.222.47 2.413.952 4.825 1.423 7.238.118.601-.127.89-.74.892a359.52 359.52 0 0 1-3.081 0c-.516-.003-.74-.223-.74-.726-.003-2.463-.002-4.925 0-7.387 0-.067.012-.135.02-.235h.001Z" />
    </g>
    <defs>
      <clipPath id="aa">
        <path fill="#fff" d="M0 0h19.912v24H0z" />
      </clipPath>
    </defs>
  </symbol>

  <symbol fill="none" viewBox="0 0 46 46" id="svg-user-friendly" xmlns="http://www.w3.org/2000/svg">
    <path d="M21.083 19.167a7.667 7.667 0 1 0 0-15.333 7.667 7.667 0 0 0 0 15.333Z" fill="#C2D5FF" />
    <path fill-rule="evenodd" clip-rule="evenodd"
      d="M27.816 41.184c.982.983 2.564.983 5.726.983s4.743 0 5.726-.983c.982-.982.982-2.563.982-5.726 0-3.162 0-4.743-.982-5.725-.983-.983-2.564-.983-5.726-.983-3.163 0-4.744 0-5.726.983-.982.982-.982 2.563-.982 5.725 0 3.163 0 4.744.982 5.726Zm3.86-2.896c-1.345-.963-2.926-2.095-2.926-4.057 0-2.165 2.636-3.701 4.792-1.62 2.156-2.081 4.791-.545 4.791 1.62 0 1.962-1.58 3.094-2.925 4.057-.14.1-.278.199-.41.296-.498.364-.977.708-1.456.708-.48 0-.959-.344-1.456-.708l-.41-.296Z"
      fill="#C2D5FF" />
    <path
      d="M27.972 41.328a2.458 2.458 0 0 1-.156-.144c-.983-.982-.983-2.563-.983-5.726 0-3.162 0-4.743.983-5.725.982-.983 2.563-.983 5.726-.983h.824c-2.65-2.578-7.607-4.313-13.283-4.313-8.468 0-15.333 3.862-15.333 8.625 0 4.764 0 8.626 15.333 8.626 2.765 0 5.032-.126 6.89-.36Z"
      fill="#F0F5FF" />
  </symbol>

  <symbol fill="none" viewBox="0 0 46 46" id="svg-multiple-devices"
    xmlns="http://www.w3.org/2000/svg">
    <path
      d="M45.303 22.16H39.77v-5.672a.871.871 0 0 0-.872-.871h-1.966V5.383c0-.642-.52-1.162-1.162-1.162H1.162C.52 4.222 0 4.742 0 5.384v22.208c0 .641.52 1.161 1.162 1.161H13.18c-.23 1.328-.728 3.523-1.728 5.701a1.162 1.162 0 0 0 1.056 1.647H20.7v3.052c0 .48.39.87.871.87h12.543v1.058c0 .385.312.697.697.697h10.492a.697.697 0 0 0 .697-.697V22.856a.697.697 0 0 0-.697-.697ZM20.7 16.487v9.942H2.323V6.545h32.285v9.071H21.571a.871.871 0 0 0-.87.872ZM34.114 38.28H22.443V37.27h6.92v.081a.871.871 0 1 0 1.743 0v-.081h3.008v1.011Zm0-15.425v12.671H22.443V17.36h15.584v4.8h-3.216a.697.697 0 0 0-.697.697Zm10.492 17.528h-9.098v-.82h3.852v.069a.697.697 0 1 0 1.394 0v-.07h3.852v.821Zm0-2.215h-9.098V25.768h9.098v12.401Zm0-13.795h-9.098v-.82h9.098v.82Z"
      fill="#F0F5FF" />
  </symbol>

  <symbol fill="none" viewBox="0 0 46 46" id="svg-headphone" xmlns="http://www.w3.org/2000/svg">
    <path fill-rule="evenodd" clip-rule="evenodd"
      d="M37.95 19.512c-.594-6.095-4.197-15.679-15.333-15.679S7.877 13.417 7.284 19.512a5.348 5.348 0 0 0-3.45 5.021v2.684a5.367 5.367 0 1 0 10.733 0v-2.684a5.386 5.386 0 0 0-3.354-4.964c.383-3.526 2.261-11.902 11.404-11.902 9.142 0 11.002 8.376 11.385 11.902a5.367 5.367 0 0 0-3.335 4.964v2.684a5.386 5.386 0 0 0 3.047 4.83c-.805 1.514-2.855 3.565-7.896 4.178a3.833 3.833 0 1 0-3.201 5.942 3.833 3.833 0 0 0 3.412-2.128c8.222-.939 10.848-5.175 11.672-7.666a5.348 5.348 0 0 0 3.7-5.156v-2.684a5.348 5.348 0 0 0-3.45-5.021Zm-27.216 7.705a1.533 1.533 0 1 1-3.067 0v-2.684a1.533 1.533 0 0 1 3.067 0v2.684ZM34.5 24.533a1.533 1.533 0 0 1 3.067 0v2.684a1.533 1.533 0 1 1-3.067 0v-2.684Z"
      fill="#F0F5FF" />
  </symbol>

  <symbol fill="none" viewBox="0 0 37 36" id="svg-icon-pms" xmlns="http://www.w3.org/2000/svg">
    <g clip-path="url(#aa)">
      <path
        d="M32.462 4.725A2.813 2.813 0 0 0 29.83 4.5L15.947 9.968c-.328.133-.68.202-1.035.202H6.025a2.812 2.812 0 0 0-2.813 2.813v.224H.4v6.75h2.812v.293a2.813 2.813 0 0 0 2.813 2.745L9.4 30.15a2.835 2.835 0 0 0 2.542 1.62h1.418a2.812 2.812 0 0 0 2.79-2.813v-5.692l13.68 5.468c.336.133.695.202 1.057.202a2.903 2.903 0 0 0 1.575-.495 2.813 2.813 0 0 0 1.238-2.25V7.043a2.814 2.814 0 0 0-1.238-2.318Zm-19.125 8.258v7.267H6.025v-7.268h7.312Zm0 15.974H11.92l-2.768-5.962h4.185v5.962Zm3.645-8.37a5.157 5.157 0 0 0-.832-.337v-7.425a5.08 5.08 0 0 0 .832-.247l13.905-5.535v19.08l-13.905-5.536Zm16.785-6.817v5.625a2.812 2.812 0 1 0 0-5.625Z"
        fill="#fff" />
    </g>
    <defs>
      <clipPath id="aa">
        <path fill="#fff" transform="translate(.4)" d="M0 0h36v36H0z" />
      </clipPath>
    </defs>
  </symbol>

  <symbol fill="none" viewBox="0 0 24 24" id="svg-icon-users" xmlns="http://www.w3.org/2000/svg">
    <g clip-path="url(#aa)">
      <path
        d="M23.612 13.4a6.794 6.794 0 0 0-2.42-2.4c-.275-.16-.562-.301-.858-.42a3.797 3.797 0 0 0 .146-5.503 3.797 3.797 0 0 0-5.364 0 3.776 3.776 0 0 0-1.103 2.477A3.767 3.767 0 0 0 12 6.976c-.723 0-1.414.201-2.01.576a3.765 3.765 0 0 0-1.106-2.476 3.768 3.768 0 0 0-2.682-1.111A3.768 3.768 0 0 0 3.52 5.076a3.769 3.769 0 0 0-1.112 2.682 3.768 3.768 0 0 0 1.258 2.821c-.296.12-.583.26-.859.42A6.793 6.793 0 0 0 .387 13.4a2.722 2.722 0 0 0-.02 2.766 2.753 2.753 0 0 0 2.418 1.407H5.81c-.048.545.07 1.101.357 1.604a2.753 2.753 0 0 0 2.418 1.407h6.833a2.753 2.753 0 0 0 2.417-1.407 2.744 2.744 0 0 0 .357-1.604h3.024a2.753 2.753 0 0 0 2.418-1.407 2.722 2.722 0 0 0-.02-2.766Zm-1.253 2.04a1.303 1.303 0 0 1-1.144.667h-3.593a6.717 6.717 0 0 0-3.086-2.517 3.782 3.782 0 0 0 1.038-1.543 5.273 5.273 0 0 1 2.225-.495c1.858 0 3.603.994 4.552 2.596.238.4.24.884.008 1.292Zm-5.806 1.718c.238.401.24.884.008 1.293a1.303 1.303 0 0 1-1.145.667H8.584c-.479 0-.907-.25-1.145-.667a1.273 1.273 0 0 1 .008-1.293A5.317 5.317 0 0 1 12 14.562c1.86 0 3.604.995 4.553 2.596ZM1.64 15.44a1.272 1.272 0 0 1 .008-1.292 5.316 5.316 0 0 1 4.553-2.596c.778 0 1.536.175 2.224.495a3.785 3.785 0 0 0 1.038 1.543 6.716 6.716 0 0 0-3.086 2.517H2.785c-.478 0-.906-.25-1.144-.667Zm2.915-6.036a2.313 2.313 0 0 1-.681-1.646c0-.621.242-1.206.681-1.645a2.312 2.312 0 0 1 1.646-.682c.621 0 1.206.242 1.645.682.44.44.682 1.024.682 1.645 0 .622-.242 1.206-.682 1.646-.44.44-1.024.682-1.645.682a2.312 2.312 0 0 1-1.646-.682Zm13.242-3.972a2.32 2.32 0 0 1 1.646.68 2.33 2.33 0 0 1 0 3.292 2.33 2.33 0 0 1-3.291 0 2.33 2.33 0 0 1 0-3.291 2.32 2.32 0 0 1 1.645-.68Zm-4.152 3.691c.44.44.681 1.024.681 1.646 0 .622-.242 1.206-.681 1.646-.44.44-1.024.681-1.646.681a2.312 2.312 0 0 1-1.646-.681 2.312 2.312 0 0 1-.681-1.646c0-.622.242-1.206.681-1.646A2.311 2.311 0 0 1 12 8.442c.622 0 1.206.242 1.646.681Z"
        fill="#333" />
    </g>
    <defs>
      <clipPath id="aa">
        <path fill="#fff" d="M0 0h24v24H0z" />
      </clipPath>
    </defs>
  </symbol>

  <symbol fill="none" viewBox="0 0 24 24" id="svg-icon-items" xmlns="http://www.w3.org/2000/svg">
    <path
      d="M19 22.75a4.74 4.74 0 0 1-4.01-2.22c-.46-.71-.72-1.56-.74-2.43-.03-1.46.59-2.82 1.7-3.74a4.82 4.82 0 0 1 2.94-1.11c1.3-.01 2.47.44 3.39 1.32.92.88 1.44 2.06 1.46 3.33.02.87-.2 1.72-.64 2.47-.24.42-.55.81-.92 1.14-.82.77-1.92 1.22-3.09 1.24H19Zm0-8h-.07c-.74.02-1.44.28-2.02.76-.76.63-1.18 1.56-1.16 2.56.01.59.19 1.17.5 1.66.61.98 1.67 1.58 2.81 1.52a3.21 3.21 0 0 0 2.11-.85c.26-.23.47-.49.63-.77.3-.52.45-1.1.44-1.69-.02-.87-.37-1.68-1-2.28-.6-.59-1.4-.91-2.24-.91Z"
      fill="#333" />
    <path
      d="M18.45 19.75a.75.75 0 0 1-.52-.21l-1.01-.96a.746.746 0 0 1-.02-1.06c.29-.3.76-.31 1.06-.02l.49.47 1.57-1.52c.3-.29.77-.28 1.06.02.29.3.28.77-.02 1.06l-2.09 2.02c-.15.13-.34.2-.52.2ZM12 13.3c-.13 0-.26-.03-.38-.1L2.79 8.09a.752.752 0 0 1-.27-1.03c.21-.36.67-.48 1.02-.27l8.45 4.89 8.4-4.86c.36-.21.82-.08 1.02.27.21.36.08.82-.27 1.03l-8.77 5.08c-.11.06-.24.1-.37.1Z"
      fill="#333" />
    <path
      d="M12 22.36c-.41 0-.75-.34-.75-.75v-9.07c0-.41.34-.75.75-.75s.75.34.75.75v9.07c0 .41-.34.75-.75.75Z"
      fill="#333" />
    <path
      d="M12 22.75c-.88 0-1.76-.19-2.44-.58l-5.34-2.96c-1.45-.8-2.59-2.73-2.59-4.39V9.16c0-1.66 1.14-3.58 2.59-4.39l5.34-2.96c1.36-.77 3.5-.77 4.87 0l5.34 2.96c1.45.8 2.59 2.73 2.59 4.39v5.66c0 .1 0 .18-.02.28-.05.26-.24.48-.49.56-.25.09-.53.03-.74-.14-1.15-1-2.93-1.04-4.14-.07a3.224 3.224 0 0 0-.75 4.2c.08.14.16.25.25.36a.739.739 0 0 1-.21 1.14l-1.83 1.01c-.68.4-1.55.59-2.43.59Zm0-20c-.62 0-1.25.13-1.7.38L4.96 6.09c-.97.53-1.81 1.97-1.81 3.07v5.66c0 1.1.85 2.54 1.81 3.07l5.34 2.96c.91.51 2.5.51 3.41 0l1.12-.62a4.67 4.67 0 0 1-.57-2.25c0-1.46.65-2.81 1.78-3.71 1.36-1.09 3.3-1.32 4.83-.67V9.14c0-1.1-.85-2.54-1.81-3.07l-5.34-2.96c-.47-.23-1.1-.36-1.72-.36Z"
      fill="#333" />
  </symbol>

  <symbol fill="none" viewBox="0 0 41 40" id="svg-icon-box-blue" xmlns="http://www.w3.org/2000/svg">
    <path
      d="m29.796 7.386-3.333-1.75c-2.926-1.535-4.39-2.303-5.963-2.303-1.574 0-3.037.768-5.963 2.304l-.536.28 14.872 8.499 6.694-3.347c-1.077-1.22-2.815-2.132-5.77-3.683Z"
      fill="#0F62FE" />
    <path opacity=".3"
      d="m36.747 13.274-6.664 3.332v5.06a1.25 1.25 0 0 1-2.5 0v-3.81l-5.833 2.916v15.735c1.197-.298 2.558-1.013 4.713-2.144l3.333-1.749c3.586-1.882 5.38-2.823 6.375-4.513.996-1.691.996-3.796.996-8.003v-.195c0-3.155 0-5.127-.42-6.63ZM19.25 36.507V20.773l-14.997-7.5c-.42 1.503-.42 3.475-.42 6.63v.195c0 4.207 0 6.312.996 8.003.996 1.69 2.789 2.631 6.375 4.513l3.333 1.75c2.155 1.13 3.517 1.845 4.713 2.143Z"
      fill="#0F62FE" />
    <path
      d="M5.433 11.069 20.5 18.602l5.685-2.842-14.81-8.464-.171.09C8.247 8.937 6.51 9.849 5.433 11.069Z"
      fill="#0F62FE" />
  </symbol>

  <symbol fill="none" viewBox="0 0 41 40" id="svg-icon-money-bag" xmlns="http://www.w3.org/2000/svg">
    <g clip-path="url(#aa)" fill="#0F62FE">
      <path opacity=".3" d="M21.688 1.792V.002h-8.724l1.426 6.985h12.403l1.314-5.195h-6.419Z" />
      <path
        d="M18.304 22.073c0 .291.001.954 1.008 1.242v-2.484c-1.007.289-1.008.951-1.008 1.242ZM21.688 25.968v2.484c1.007-.288 1.008-.95 1.008-1.242 0-.29-.001-.953-1.008-1.242Z" />
      <path opacity=".3"
        d="M26.203 9.322v-.005H14.867C6.858 9.83.5 16.507.5 24.642c0 8.467 6.889 15.356 15.356 15.356h9.288c8.467 0 15.356-6.889 15.356-15.356 0-8.112-6.322-14.775-14.297-15.32ZM20.5 36.042c-6.286 0-11.4-5.114-11.4-11.4 0-6.287 5.114-11.4 11.4-11.4 6.286 0 11.4 5.113 11.4 11.4 0 6.286-5.114 11.4-11.4 11.4Z" />
      <path
        d="M20.5 15.617c-4.976 0-9.024 4.049-9.024 9.025s4.048 9.024 9.024 9.024c4.976 0 9.025-4.048 9.025-9.024 0-4.976-4.049-9.025-9.025-9.025Zm3.052 8.62c.995.663 1.52 1.691 1.52 2.973 0 1.282-.525 2.31-1.52 2.974-.515.344-1.14.575-1.864.692v1.237h-2.376v-1.237c-.724-.117-1.349-.348-1.864-.692-.994-.664-1.52-1.692-1.52-2.974h2.376c0 .291.001.954 1.008 1.242V25.74c-.724-.118-1.349-.349-1.864-.692-.994-.664-1.52-1.692-1.52-2.974 0-1.282.526-2.31 1.52-2.973.515-.344 1.14-.575 1.864-.693V17.17h2.376v1.237c.724.118 1.349.349 1.864.693.995.663 1.52 1.691 1.52 2.973h-2.376c0-.29-.001-.954-1.008-1.242v2.714c.724.117 1.349.348 1.864.692Z" />
    </g>
    <defs>
      <clipPath id="aa">
        <path fill="#fff" transform="translate(.5)" d="M0 0h40v40H0z" />
      </clipPath>
    </defs>
  </symbol>

  <symbol fill="none" viewBox="0 0 41 40" id="svg-bar-chart" xmlns="http://www.w3.org/2000/svg">
    <g clip-path="url(#aa)" fill="#0F62FE">
      <path
        d="M25.583 3.168H35.86v17.228H25.583V3.168ZM13.04 8.118h10.28v14.753H13.04V8.118ZM.5 13.068h10.28v12.278H.5V13.068Z" />
      <path opacity=".3"
        d="M10.779 27.722v9.902h2.262V25.247h10.28v12.377h2.261V22.772h10.28v14.852h2.262V0H40.5v40H.5V27.722H10.78Z" />
    </g>
    <defs>
      <clipPath id="aa">
        <path fill="#fff" transform="matrix(-1 0 0 1 40.5 0)" d="M0 0h40v40H0z" />
      </clipPath>
    </defs>
  </symbol>

  <symbol fill="none" viewBox="0 0 41 40" id="svg-email-love" xmlns="http://www.w3.org/2000/svg">
    <path
      d="M37.875 22.625c-1.75-1.75-4.75-1.75-6.375 0l-1 1-1-1c-1.75-1.75-4.75-1.75-6.375 0-1.75 1.75-1.75 4.75 0 6.5l6.5 6.75c.25.25.5.375.875.375s.625-.125.875-.375l6.5-6.75c1.75-1.75 1.75-4.75 0-6.5Z"
      fill="#0F62FE" />
    <path opacity=".3"
      d="M21.25 30.875a7.229 7.229 0 0 1-1.625-7.125h-.375c-.25 0-.625-.125-.875-.25l-2-1.75L10 27.25c-.125.125-.5.25-.75.25-.375 0-.75-.125-1-.375-.5-.5-.375-1.25.125-1.75l6.125-5.25-6.125-5.25c-.5-.5-.625-1.25-.125-1.75S9.5 12.5 10 13l9.125 8 9.125-8c.5-.5 1.25-.375 1.75.125s.375 1.25-.125 1.75L25.125 19c.375 0 .625-.125 1-.125 1.5 0 3 .5 4.25 1.375 1.25-.875 2.625-1.375 4.25-1.375h.75V11.25c0-2.125-1.625-3.75-3.75-3.75H6.75C4.625 7.5 3 9.125 3 11.25v17.5c0 2.125 1.625 3.75 3.75 3.75h16.125l-1.625-1.625Z"
      fill="#0F62FE" />
  </symbol>

  <symbol fill="none" viewBox="0 0 40 40" id="svg-package" xmlns="http://www.w3.org/2000/svg">
    <g clip-path="url(#aa)">
      <path
        d="M31.333 8.667v28c0 1.466-1.066 2.666-2.333 2.666h1.667c1.466 0 2.666-1.2 2.666-2.666v-28"
        fill="#FFE100" />
      <path d="M37.333 8.667c0-4.4-3.133-8-7-8-3.866 0-7 3.6-7 8s3.134 8 7 8c3.867 0 7-3.6 7-8Z"
        fill="#00DA6C" />
      <path
        d="M31.333.667H30.8c3.667.333 6.533 3.733 6.533 8 0 4.266-2.866 7.666-6.533 8h.533c4.4 0 8-3.6 8-8s-3.6-8-8-8Z"
        fill="#00AD55" />
      <path
        d="M23.333 8.667h-4.466V7.333h-5.8v1.334H4.933c-1.266 0-2.266 1.2-2.266 2.666v25.334c0 1.466 1 2.666 2.266 2.666H27c1.267 0 2.333-1.2 2.333-2.666v-20c-2.066 0-6-3.6-6-8Z"
        fill="#FFE100" />
      <path
        d="M2.667 36.667V11.333c0-1.466 1-2.666 2.266-2.666H3.267c-1.467 0-2.6 1.2-2.6 2.666v25.334c0 1.466 1.133 2.666 2.6 2.666h1.666c-1.266 0-2.266-1.2-2.266-2.666Z"
        fill="#fff" />
      <path
        d="M29.333 16.667v20c0 1.466-1.066 2.666-2.333 2.666h1.667c1.466 0 2.666-1.2 2.666-2.666v-20"
        fill="#FFA800" />
      <path d="M12 36.667h2v-8h-2v8Z" fill="#3DB9F9" />
      <path d="M4.667 36.667H12v-8H4.667v8Z" fill="#63D3FD" />
      <path
        d="M16.334 14.666 16 14l-2.333 1.867c-.4.333-1 .066-1-.467V7.333h4.666v7.334c0 .533-.6.333-1 0Z"
        fill="#FDCC00" />
      <path
        d="M17.333 7.333v7.334c0 .133-.066.266-.066.333l1.133.867c.4.333 1 .066 1-.467V7.333h-2.067Z"
        fill="#FFA800" />
      <path
        d="M28.667 40H3.333C1.533 40 0 38.533 0 36.667v-18c0-.4.267-.667.667-.667s.666.267.666.667v18c0 1.133.867 2 2 2h25.334c1.133 0 2-.867 2-2V17.333a8.714 8.714 0 0 1-8-8h-3.334c-.4 0-.666-.266-.666-.666V8h-5.334v.667c0 .4-.266.666-.666.666H3.333c-1.133 0-2 .867-2 2v2c0 .4-.266.667-.666.667S0 13.733 0 13.333v-2A3.3 3.3 0 0 1 3.333 8H12v-.667c0-.4.267-.666.667-.666h6.666c.4 0 .667.266.667.666V8h3.333c.4 0 .667.267.667.667A7.312 7.312 0 0 0 31.333 16c.4 0 .667.267.667.667v20A3.3 3.3 0 0 1 28.667 40Z"
        fill="#000" />
      <path
        d="M1.333 16c0-.4-.266-.667-.666-.667S0 15.6 0 16s.267.666.667.666.666-.266.666-.666ZM13.267 16.667c-.2 0-.4-.067-.534-.134A1.232 1.232 0 0 1 12 15.4V7.333c0-.4.267-.666.667-.666h6.666c.4 0 .667.266.667.666V15.4c0 .467-.267.933-.733 1.133-.467.2-.934.134-1.334-.133L16 14.867 14.067 16.4c-.267.2-.534.267-.8.267ZM16 13.333c.133 0 .267.067.4.134l2.267 1.8V8h-5.334v7.267l2.267-1.8c.133-.067.267-.134.4-.134ZM31.333 17.333a8.65 8.65 0 0 1-8.666-8.666A8.65 8.65 0 0 1 31.333 0 8.65 8.65 0 0 1 40 8.667a8.65 8.65 0 0 1-8.667 8.666Zm0-16A7.312 7.312 0 0 0 24 8.667 7.312 7.312 0 0 0 31.333 16a7.312 7.312 0 0 0 7.334-7.333 7.312 7.312 0 0 0-7.334-7.334Z"
        fill="#000" />
      <path
        d="M31.333 14c-.4 0-.666-.267-.666-.667V4c0-.4.266-.667.666-.667S32 3.6 32 4v9.333c0 .4-.267.667-.667.667Z"
        fill="#000" />
      <path
        d="M36 9.333h-9.333c-.4 0-.667-.266-.667-.666S26.267 8 26.667 8H36c.4 0 .667.267.667.667s-.267.666-.667.666ZM14 37.333H4.667c-.4 0-.667-.266-.667-.666v-8c0-.4.267-.667.667-.667H14c.4 0 .667.267.667.667v8c0 .4-.267.666-.667.666ZM5.333 36h8v-6.667h-8V36Z"
        fill="#000" />
      <path
        d="M11.333 32h-4c-.4 0-.666-.267-.666-.667s.266-.666.666-.666h4c.4 0 .667.266.667.666s-.267.667-.667.667ZM10 34.666H7.333c-.4 0-.666-.266-.666-.666s.266-.667.666-.667H10c.4 0 .667.267.667.667s-.267.666-.667.666Z"
        fill="#000" />
    </g>
    <defs>
      <clipPath id="aa">
        <path fill="#fff" d="M0 0h40v40H0z" />
      </clipPath>
    </defs>
  </symbol>

  <symbol fill="none" viewBox="0 0 40 40" id="svg-money-earn" xmlns="http://www.w3.org/2000/svg">
    <g clip-path="url(#aa)">
      <path d="M20.12 23.837a8.267 8.267 0 1 0 0-16.533 8.267 8.267 0 0 0 0 16.533Z" fill="#F5BA46" />
      <path
        d="M15.333 2.667A.666.666 0 0 0 16 2V.667a.666.666 0 1 0-1.334 0V2c0 .369.3.667.667.667ZM26.666 9.333v-4a.666.666 0 1 0-1.333 0v2.999a8.852 8.852 0 0 0-5.213-1.665h-.058c-1.466 0-2.844.35-4.062.986V4.667a.667.667 0 1 0-1.334 0V8.51c-2.128 1.647-3.499 4.306-3.48 7.198.031 4.906 4.032 8.958 8.932 8.958h.058c4.926 0 8.907-4.147 8.875-9.073a8.989 8.989 0 0 0-2.415-6.073c.012-.048.03-.136.03-.188Zm-6.5 14h-.048c-4.168 0-7.572-3.444-7.599-7.618-.027-4.19 3.36-7.715 7.55-7.715h.05c4.168 0 7.572 3.444 7.599 7.618.027 4.19-3.36 7.715-7.551 7.715ZM26 3.334a.666.666 0 0 0 .666-.667V1.334a.666.666 0 1 0-1.333 0v1.333c0 .369.298.667.667.667ZM8 15.334a.666.666 0 0 0-.667.666v5.333a.666.666 0 1 0 1.334 0V16A.666.666 0 0 0 8 15.334ZM8 11.334a.666.666 0 0 0-.667.666v1.334a.666.666 0 1 0 1.334 0V12A.666.666 0 0 0 8 11.334ZM33.333 9.334a.666.666 0 0 0-.667.666v5.333a.666.666 0 1 0 1.333 0V10a.666.666 0 0 0-.666-.666ZM33.333 5.333a.666.666 0 0 0-.667.667v1.333a.666.666 0 1 0 1.333 0V6a.666.666 0 0 0-.666-.667Z"
        fill="#000" />
      <path
        d="m22.658 17.303-.005-.666a1.984 1.984 0 0 0-.595-1.41 1.962 1.962 0 0 0-1.418-.573l-1.333.013h-.004a.671.671 0 0 1-.667-.667l-.004-.668a.668.668 0 0 1 .663-.672l.65-.005c.022.002.04.012.063.012h.004c.023 0 .042-.011.064-.014l1.884-.011a.656.656 0 0 0 .663-.659.656.656 0 0 0-.667-.65h-.004l-1.282-.004-.004-.66A.672.672 0 0 0 20 10h-.004a.671.671 0 0 0-.663.676l.004.658h-.05a1.994 1.994 0 0 0-1.988 2.008l.004.669a2.005 2.005 0 0 0 2 1.99H20.653a.66.66 0 0 1 .469.182.657.657 0 0 1 .198.467l.004.664a.666.666 0 0 1-.662.67l-2.667.017A.667.667 0 0 0 18 19.333h.004l1.333-.008.004.68c.002.366.3.662.667.662h.004a.667.667 0 0 0 .662-.672l-.004-.679a2.002 2.002 0 0 0 1.988-2.012ZM15.333 16.667a.667.667 0 1 0 0-1.334.667.667 0 0 0 0 1.334ZM24.666 16.667a.667.667 0 1 0 0-1.333.667.667 0 0 0 0 1.333Z"
        fill="#000" />
      <path
        d="M39.333 39.333H32A1.333 1.333 0 0 1 30.666 38V28c0-.737.597-1.334 1.334-1.334h7.333v12.667Z"
        fill="#4A88DB" />
      <path d="M30.667 28h-3.88v10h3.88V28Z" fill="#F8F8FA" />
      <path
        d="M20 32.658h-4.973c-.936 0-1.694-.726-1.694-1.634v-.002c0-.667.416-1.269 1.053-1.521l5.22-2.072c.256-.102.538-.123.808-.062l6.252 1.419-.044 8.834-6.316 1.449c-.202.046-.41.046-.612 0L8.667 36.551 1.26 31.758a1.284 1.284 0 0 1-.594-1.076v-1.446c0-.868.863-1.49 1.719-1.239l10.947 3.21"
        fill="#F1998A" />
      <path
        d="M39.333 26H32c-.869 0-1.602.56-1.878 1.333h-3.337c-.36 0-.65.288-.663.646l-5.562-1.262a2.029 2.029 0 0 0-1.201.093l-5.22 2.07a2.318 2.318 0 0 0-1.371 1.467l-10.194-2.99a2.018 2.018 0 0 0-1.788.32c-.5.374-.786.942-.786 1.559v1.446c0 .661.336 1.273.898 1.637l7.406 4.792a.673.673 0 0 0 .214.09l11.026 2.518a2.015 2.015 0 0 0 .911 0l5.803-1.331c.12.165.307.279.528.279h3.337A1.997 1.997 0 0 0 32 40h7.333a.666.666 0 0 0 .667-.667V26.667a.667.667 0 0 0-.667-.667ZM25.958 37.09l-5.802 1.33a.694.694 0 0 1-.314 0L8.93 35.928l-7.308-4.73a.618.618 0 0 1-.289-.517v-1.446c0-.264.158-.42.252-.49a.685.685 0 0 1 .613-.108l10.585 3.108c.31.919 1.199 1.588 2.243 1.588H20A.666.666 0 1 0 20 32h-4.974C14.46 32 14 31.562 14 31.027c0-.396.248-.752.632-.904l5.22-2.072a.7.7 0 0 1 .414-.033l5.73 1.3-.038 7.771Zm1.375-8.423H30v8.666h-2.667v-8.666Zm11.333 10H32a.667.667 0 0 1-.667-.667V28c0-.368.299-.667.667-.667h6.666v11.334Z"
        fill="#000" />
      <path d="M36.119 37.333h-2a.666.666 0 1 1 0-1.333h2a.666.666 0 1 1 0 1.333Z" fill="#000" />
    </g>
    <defs>
      <clipPath id="aa">
        <path fill="#fff" d="M0 0h40v40H0z" />
      </clipPath>
    </defs>
  </symbol>

  <symbol fill="none" viewBox="0 0 40 40" id="svg-tablet-ipad" xmlns="http://www.w3.org/2000/svg">
    <path
      d="M32.067 39.334H7.933c-1.066 0-1.933-.867-1.933-2V2.666c0-1.067.867-2 1.933-2h24.134c1.066 0 1.933.866 1.933 2v34.666c0 1.134-.867 2-1.933 2Z"
      fill="#FCC309" />
    <path d="M22 36c0 1.133-.867 2-2 2s-2-.867-2-2 .867-2 2-2 2 .867 2 2ZM8 32.667h24v-28H8v28Z"
      fill="#FFDD09" />
    <path d="M30 32.667h2v-28h-2v28Z" fill="#FD9808" />
    <path d="M24.666 20h-9.333l-2.667-6.667h14.667L24.667 20Z" fill="#54C9FD" />
    <path d="M25.333 13.333 22.667 20h2l2.666-6.667h-2Z" fill="#33A9F8" />
    <path
      d="M20.666 3.333H20c-.4 0-.667-.266-.667-.666S19.6 2 20 2h.666c.4 0 .667.267.667.667s-.266.666-.666.666Z"
      fill="#000" />
    <path
      d="M32.066 40H7.933c-1.466 0-2.6-1.2-2.6-2.667V2.667C5.333 1.2 6.467 0 7.933 0h24.134c1.466 0 2.6 1.2 2.6 2.667v34.666c0 1.467-1.134 2.667-2.6 2.667ZM7.933 1.333c-.666 0-1.266.6-1.266 1.334v34.666c0 .734.6 1.334 1.266 1.334h24.134c.666 0 1.266-.6 1.266-1.334V2.667c0-.734-.6-1.334-1.266-1.334H7.933Z"
      fill="#000" />
    <path
      d="M32 33.333H8c-.4 0-.667-.266-.667-.666v-28C7.333 4.267 7.6 4 8 4h24c.4 0 .666.267.666.667v28c0 .4-.266.666-.666.666ZM8.667 32h22.666V5.333H8.667V32ZM20 38.666A2.674 2.674 0 0 1 17.333 36c0-1.467 1.2-2.667 2.667-2.667 1.466 0 2.666 1.2 2.666 2.667 0 1.467-1.2 2.666-2.666 2.666Zm0-4c-.733 0-1.334.6-1.334 1.334 0 .733.6 1.333 1.334 1.333.733 0 1.333-.6 1.333-1.333s-.6-1.334-1.333-1.334Z"
      fill="#000" />
    <path
      d="M24.667 20.667h-9.334c-.266 0-.533-.134-.6-.4L12.067 13.6c-.067-.2-.067-.466.066-.6.134-.133.334-.333.534-.333h14.666c.2 0 .4.133.534.266.133.2.133.4.066.6L25.267 20.2c-.067.334-.334.467-.6.467ZM15.8 19.333h8.4L26.333 14H13.667l2.133 5.334Z"
      fill="#000" />
    <path
      d="M16 14c-.067 0-.2 0-.267-.067-.333-.133-.466-.533-.267-.866l2-4c.134-.334.534-.467.867-.267.334.133.467.533.267.867l-2 4A.7.7 0 0 1 16 14ZM24 14c-.267 0-.467-.133-.6-.4l-2-4c-.133-.333 0-.733.267-.867.333-.133.733 0 .866.267l2 4c.134.334 0 .733-.266.867C24.2 14 24.133 14 24 14ZM18.667 24.666h-6c-.4 0-.667-.266-.667-.666s.267-.667.667-.667h6c.4 0 .666.267.666.667s-.266.666-.666.666ZM27.333 24.666h-6c-.4 0-.666-.266-.666-.666s.266-.667.666-.667h6c.4 0 .667.267.667.667s-.267.666-.667.666ZM15.333 28.666h-2.666c-.4 0-.667-.266-.667-.666s.267-.667.667-.667h2.666c.4 0 .667.267.667.667s-.267.666-.667.666ZM27.333 28.666H18c-.4 0-.667-.266-.667-.666s.267-.667.667-.667h9.333c.4 0 .667.267.667.667s-.267.666-.667.666Z"
      fill="#000" />
  </symbol>

  <symbol fill="none" viewBox="0 0 40 40" id="svg-update-rotation"
    xmlns="http://www.w3.org/2000/svg">
    <g clip-path="url(#aa)">
      <path d="M40 0H0v40h40V0Z" fill="#fff" fill-opacity=".01" />
      <path d="M40 0H0v40h40V0Z" fill="#fff" fill-opacity=".01" />
      <path
        d="M20 36.667c9.205 0 16.667-7.462 16.667-16.667 0-9.205-7.462-16.667-16.667-16.667-9.205 0-16.667 7.462-16.667 16.667 0 9.205 7.462 16.667 16.667 16.667Z"
        fill="#F4D40C" stroke="#000" stroke-width="1.5" stroke-linecap="round"
        stroke-linejoin="round" />
      <path d="M27.952 22.5a8.337 8.337 0 0 1-15.904 0v5M27.952 12.5v5a8.337 8.337 0 0 0-15.904 0"
        stroke="#000" stroke-width="1.5" stroke-linecap="round" stroke-linejoin="round" />
    </g>
    <defs>
      <clipPath id="aa">
        <path fill="#fff" d="M0 0h40v40H0z" />
      </clipPath>
    </defs>
  </symbol>

  <symbol fill="none" viewBox="0 0 40 40" id="svg-package-box" xmlns="http://www.w3.org/2000/svg">
    <g clip-path="url(#aa)">
      <path
        d="M20 12.667h-4.667v6.666L12 16.667l-3.333 2.666v-6.666H4a2.675 2.675 0 0 0-2.667 2.666V30c0 1.467 1.2 2.667 2.667 2.667h16c1.466 0 2.666-1.2 2.666-2.667V15.334c0-1.467-1.2-2.667-2.666-2.667Z"
        fill="#FFDD09" />
      <path
        d="M3.333 30V15.333c0-1.466 1.2-2.666 2.667-2.666H4a2.675 2.675 0 0 0-2.667 2.666V30c0 1.467 1.2 2.667 2.667 2.667h2A2.675 2.675 0 0 1 3.333 30Z"
        fill="#fff" />
      <path
        d="M36 16h-3.333v4.667l-2-1.334-2 1.334V16h-6v14c0 1.467-1.2 2.667-2.667 2.667h16c1.467 0 2.667-1.2 2.667-2.667V18.667C38.667 17.2 37.467 16 36 16Z"
        fill="#FFDD09" />
      <path
        d="M36 16h-2c1.467 0 2.667 1.2 2.667 2.667V30c0 1.467-1.2 2.667-2.667 2.667h2c1.467 0 2.667-1.2 2.667-2.667V18.667C38.667 17.2 37.467 16 36 16Z"
        fill="#FD9808" />
      <path
        d="M24.667 1.333H22V6l-2-1.333L18 6V1.333h-2.667A2.675 2.675 0 0 0 12.667 4v8h2.666v.666H20c1.467 0 2.667 1.2 2.667 2.667V16h2c1.466 0 2.666-1.2 2.666-2.667V4c0-1.467-1.2-2.667-2.666-2.667Z"
        fill="#FFDD09" />
      <path
        d="M24.667 1.333h-2c1.466 0 2.666 1.2 2.666 2.667v9.333c0 1.467-1.2 2.667-2.666 2.667h2c1.466 0 2.666-1.2 2.666-2.667V4c0-1.467-1.2-2.667-2.666-2.667Z"
        fill="#FD9808" />
      <path
        d="M15.334 19.333 12 16.667l-3.333 2.666V12h6.667v7.333ZM22 6l-2-1.333L18 6V.667h4V6ZM32.667 20.667l-2-1.334-2 1.334v-5.334h4v5.334Z"
        fill="#54C9FD" />
      <path d="M.667 36.667h38.666v-4H.668v4Z" fill="#FCC309" />
      <path d="M37.333 36.667h2v-4h-2v4Z" fill="#FD9808" />
      <path d="M2 39.334h5.333v-2.667H2v2.666ZM32.667 39.334H38v-2.667h-5.333v2.666Z" fill="#FCC309" />
      <path d="M36 39.334h2v-2.667h-2v2.666Z" fill="#FD9808" />
      <path d="M.667 36.667h2v-4h-2v4ZM2 39.334h2v-2.667H2v2.666Z" fill="#fff" />
      <path d="M17.333 39.334h5.334v-2.667h-5.334v2.666Z" fill="#FCC309" />
      <path
        d="M39.333 37.333H.667c-.4 0-.667-.266-.667-.666v-4c0-.4.267-.667.667-.667h38.666c.4 0 .667.267.667.667v4c0 .4-.267.666-.667.666ZM1.333 36h37.334v-2.667H1.333V36Z"
        fill="#000" />
      <path
        d="M7.333 40H2c-.4 0-.667-.267-.667-.667v-2.666c0-.4.267-.667.667-.667h5.333c.4 0 .667.267.667.667v2.666c0 .4-.267.667-.667.667Zm-4.666-1.333h4v-1.334h-4v1.334ZM38 40h-5.333c-.4 0-.667-.267-.667-.667v-2.666c0-.4.267-.667.667-.667H38c.4 0 .667.267.667.667v2.666c0 .4-.267.667-.667.667Zm-4.667-1.333h4v-1.334h-4v1.334ZM22.667 40h-5.334c-.4 0-.666-.267-.666-.667v-2.666c0-.4.266-.667.666-.667h5.334c.4 0 .666.267.666.667v2.666c0 .4-.266.667-.666.667ZM18 38.667h4v-1.334h-4v1.334ZM15.333 20c-.133 0-.266-.067-.4-.134L12 17.533l-2.933 2.334c-.2.133-.467.2-.734.066a.7.7 0 0 1-.333-.6V12c0-.4.267-.667.667-.667h6.666c.4 0 .667.267.667.667v7.333c0 .267-.133.467-.4.6-.067.067-.2.067-.267.067ZM12 16c.133 0 .267.067.4.133l2.267 1.8v-5.266H9.333v5.266l2.267-1.8c.133-.066.267-.133.4-.133Z"
        fill="#000" />
      <path
        d="M20 33.333H4A3.301 3.301 0 0 1 .667 30V15.333A3.301 3.301 0 0 1 4 12h4.667c.4 0 .666.267.666.667v5.266l2.267-1.8c.267-.2.6-.2.8 0l2.267 1.8v-5.266c0-.4.266-.667.666-.667H20a3.301 3.301 0 0 1 3.334 3.333V30A3.301 3.301 0 0 1 20 33.333Zm-16-20c-1.133 0-2 .867-2 2V30c0 1.133.867 2 2 2h16c1.134 0 2-.867 2-2V15.333c0-1.133-.866-2-2-2h-4v6c0 .267-.133.467-.4.6-.2.134-.533.067-.733-.066L12 17.533l-2.933 2.334c-.2.133-.467.2-.734.066a.7.7 0 0 1-.333-.6v-6H4Z"
        fill="#000" />
      <path
        d="M20 30.666h-2.667c-.4 0-.666-.266-.666-.666s.266-.667.666-.667H20c.4 0 .667.267.667.667s-.267.666-.667.666ZM20 28h-4c-.4 0-.667-.267-.667-.667s.267-.666.667-.666h4c.4 0 .666.266.666.666S20.4 28 20 28ZM22 6.667c-.134 0-.267-.067-.4-.134L20 5.467l-1.6 1.066a.605.605 0 0 1-.667 0c-.266-.066-.4-.266-.4-.533V.667c0-.4.267-.667.667-.667h4c.4 0 .666.267.666.667V6a.7.7 0 0 1-.333.6c-.133.067-.2.067-.333.067ZM20 4c.133 0 .267.067.4.133l.933.667V1.333h-2.666v3.4l.933-.666c.133 0 .266-.067.4-.067ZM36 31.333h-1.333c-.4 0-.667-.266-.667-.666s.267-.667.667-.667H36c.4 0 .667.267.667.667s-.267.666-.667.666ZM36 29.333h-2.667c-.4 0-.666-.266-.666-.666s.266-.667.666-.667H36c.4 0 .667.267.667.667s-.267.666-.667.666Z"
        fill="#000" />
      <path
        d="M36 33.333H20c-.4 0-.667-.266-.667-.666S19.6 32 20 32c1.133 0 2-.867 2-2V16c0-.4.267-.667.666-.667h6c.4 0 .667.267.667.667v3.4l.934-.667a.722.722 0 0 1 .733 0l.933.667V16c0-.4.267-.667.667-.667h3.333a3.3 3.3 0 0 1 3.334 3.334V30c.066 1.866-1.4 3.333-3.267 3.333ZM22.666 32H36c1.133 0 2-.867 2-2V18.666c0-1.133-.867-2-2-2h-2.667v4a.7.7 0 0 1-.333.6.605.605 0 0 1-.667 0l-1.666-1.133-1.6 1.067a.605.605 0 0 1-.667 0c-.267-.067-.4-.267-.4-.534v-4h-4.667V30c0 .733-.266 1.466-.666 2Z"
        fill="#000" />
      <path
        d="M32.667 21.334c-.134 0-.267-.067-.4-.134l-1.6-1.066-1.6 1.066a.605.605 0 0 1-.667 0c-.267-.066-.4-.267-.4-.533v-5.334c0-.4.267-.666.667-.666h4c.4 0 .666.266.666.666v5.334a.7.7 0 0 1-.333.6c-.133.067-.2.067-.333.067Zm-2-2.667c.133 0 .266.066.4.133l.933.667V16h-2.667v3.4l.934-.666c.133 0 .266-.067.4-.067ZM24.667 16.667h-2c-.4 0-.667-.267-.667-.667v-.666c0-1.134-.867-2-2-2h-4.667c-.4 0-.666-.267-.666-.667h-2c-.4 0-.667-.267-.667-.667V4A3.301 3.301 0 0 1 15.333.667H18c.4 0 .667.266.667.666v3.4l.933-.666a.722.722 0 0 1 .733 0l.934.666v-3.4c0-.4.266-.666.666-.666H24.6A3.301 3.301 0 0 1 27.933 4v9.334c.067 1.866-1.4 3.333-3.266 3.333Zm-1.334-1.334h1.334c1.133 0 2-.866 2-2V4c0-1.133-.867-2-2-2h-2v4a.7.7 0 0 1-.334.6.606.606 0 0 1-.666 0L20 5.467l-1.6 1.066a.605.605 0 0 1-.667 0c-.266-.066-.4-.266-.4-.533V2h-2c-1.133 0-2 .867-2 2v7.334h2c.4 0 .667.266.667.666h4a3.301 3.301 0 0 1 3.333 3.334Z"
        fill="#000" />
    </g>
    <defs>
      <clipPath id="aa">
        <path fill="#fff" d="M0 0h40v40H0z" />
      </clipPath>
    </defs>
  </symbol>

  <symbol fill="none" viewBox="0 0 57 57" id="svg-icon-ship4p" xmlns="http://www.w3.org/2000/svg">
    <path
      d="m34.741 21.416-7.287 6.997a4.805 4.805 0 0 1-6.814-.189 4.796 4.796 0 0 1 .19-6.808l7.287-6.998a4.805 4.805 0 0 1 6.814.19c1.798 1.985 1.703 5.011-.19 6.808Z"
      fill="#fff" fill-opacity=".8" />
    <path
      d="M35.498 34.56c.095-.094.095-.189.19-.283l.283-.568c0-.094.095-.189.095-.283.095-.19.095-.378.19-.568 0-.094.094-.189.094-.378s.095-.378.095-.473v-.851c0-.189 0-.378-.095-.567 0-.095-.095-.19-.095-.284-.094-.189-.094-.378-.189-.567 0-.095-.095-.19-.095-.19-.094-.188-.189-.377-.378-.566 0-.095-.095-.095-.095-.19-.094-.094-.189-.283-.284-.378-.094-.094-.189-.094-.189-.189l-.095-.095-7.57-6.713c-1.988-1.797-5.017-1.608-6.815.378-1.798 1.986-1.609 5.012.379 6.808l3.69 3.31-3.596 3.404c-1.892 1.797-1.987 4.823-.189 6.809 1.798 1.985 4.827 1.985 6.814.189l7.287-6.998.095-.095.19-.189c.094-.189.189-.378.283-.472Z"
      fill="#fff" />
  </symbol>

  <symbol fill="none" viewBox="0 0 56 56" id="svg-icon-oms" xmlns="http://www.w3.org/2000/svg">
    <path
      d="M26.282 37.812c-1.172 0-2.126.848-2.126 1.89 0 1.042.954 1.89 2.126 1.89s2.127-.847 2.127-1.89-.954-1.89-2.127-1.89Zm0 2.45c-.347 0-.629-.252-.629-.56 0-.309.282-.56.63-.56.346 0 .629.251.629.56 0 .308-.282.56-.63.56ZM33.843 37.812c-1.173 0-2.126.848-2.126 1.89 0 1.042.953 1.89 2.126 1.89s2.127-.847 2.127-1.89-.955-1.89-2.127-1.89Zm0 2.45c-.347 0-.63-.252-.63-.56 0-.309.283-.56.63-.56.347 0 .63.251.63.56 0 .308-.283.56-.63.56ZM23.487 27.247l1.045 3.898h10.076l1.36-2.69h-8.903l-.323-1.208h6.225l1.416-2.773h-8.385l-.287-1.075h6.775l1.367-2.722H21.727l1.017 3.797.743 2.773Z"
      fill="#fff" />
    <path
      d="m36.59 24.54-1.384 2.707h.431a4.308 4.308 0 0 1 4.303 4.303 4.307 4.307 0 0 1-4.303 4.302H20.682l-4.102-16.06-.708-2.773H8.785v2.774h4.933l4.81 18.833.106-.027v.026h5.121a2.617 2.617 0 0 1 2.42-1.628c1.091 0 2.029.674 2.42 1.628h2.862a2.617 2.617 0 0 1 2.419-1.628c1.092 0 2.01.66 2.407 1.597 3.6-.328 6.43-3.361 6.43-7.045 0-3.683-2.672-6.543-6.124-7.01Z"
      fill="#fff" />
  </symbol>

  <symbol class="aw-6 ah-6 atext-gray-800 adark:text-white" fill="#1135A8" viewBox="0 0 24 24"
    id="svg-play-video" xmlns="http://www.w3.org/2000/svg">
    <path fill-rule="evenodd"
      d="M8.6 5.2A1 1 0 0 0 7 6v12a1 1 0 0 0 1.6.8l8-6a1 1 0 0 0 0-1.6l-8-6Z" clip-rule="evenodd" />
  </symbol>

  <symbol fill="none" viewBox="0 0 25 24" id="svg-icon-check" xmlns="http://www.w3.org/2000/svg">
    <circle cx="12.5" cy="12" r="9.004" fill="#0F62FE" stroke="#fff" stroke-width="1.5"
      stroke-linecap="round" stroke-linejoin="round" />
    <path d="m8.941 12.34 2.168 2.167-.014-.014 4.891-4.891" stroke="#fff" stroke-width="1.5"
      stroke-linecap="round" stroke-linejoin="round" />
  </symbol>

  <symbol fill="none" viewBox="0 0 32 28" id="svg-icon-efex" xmlns="http://www.w3.org/2000/svg">
    <path fill-rule="evenodd" clip-rule="evenodd"
      d="M30.02 27.436a.362.362 0 0 1-.299.566h-9.894a.363.363 0 0 1-.294-.151l-2.604-3.636a.363.363 0 0 1 .009-.433l5.342-6.855a.362.362 0 0 1 .585.018l7.155 10.49ZM27.712 5.793c.289 0 .462.322.302.563l-5.309 8.002a.362.362 0 0 1-.6.006L17.81 8.145a.362.362 0 0 1 .298-.568h5.267a.362.362 0 0 0 .303-.163l.964-1.458a.362.362 0 0 1 .302-.163h2.768Z"
      fill="#fff" />
    <path fill-rule="evenodd" clip-rule="evenodd"
      d="M18.833 5.45a.728.728 0 0 0 .598 1.157c1.45-.019 3.473-.035 3.57.023.094.055.991-1.179 1.676-2.148a.716.716 0 0 0-.59-1.129h-3.355c-.232 0-.45.111-.586.298l-1.313 1.8ZM23.561 1.316c-.365.492.008 1.192.62 1.17 1.203-.04 2.671-.064 2.671.066 0 .122.562-.696 1.055-1.437a.716.716 0 0 0-.6-1.113H24.9a.725.725 0 0 0-.582.293l-.757 1.02ZM26.128 3.78a.725.725 0 0 1 .6-.316h1.521c.585 0 .93.657.596 1.138l-.107.154a.725.725 0 0 1-.61.312l-1.5-.027a.725.725 0 0 1-.586-1.133l.086-.127ZM28.964.963a.725.725 0 0 1 .592-.307h.382c.585 0 .93.657.597 1.138l-.568.82a.725.725 0 0 1-.596.313h-.394a.725.725 0 0 1-.592-1.143l.579-.82ZM1.265 3.867a.362.362 0 0 1 .289-.58h10.574c.115 0 .224.055.293.148l8.772 12.023a.363.363 0 0 1-.004.432l-9.065 11.96a.363.363 0 0 1-.289.144H1.415c-.3 0-.47-.345-.287-.584l8.867-11.516c.1-.129.1-.309.002-.44L1.265 3.868Z"
      fill="#fff" />
  </symbol>

  <symbol fill="none" viewBox="0 0 48 46" id="svg-product-sec" xmlns="http://www.w3.org/2000/svg">
    <path
      d="M35.202 19.235c0-9.685-7.537-17.563-16.8-17.563-9.264 0-16.8 7.878-16.8 17.563 0 9.686 7.536 17.564 16.8 17.564 9.263 0 16.8-7.878 16.8-17.564Zm-8.341-2.509h6.533c.124.82.208 1.654.208 2.51 0 .855-.084 1.689-.21 2.509H26.86a9.527 9.527 0 0 0 .342-2.51c0-.87-.124-1.71-.341-2.509ZM18.4 26.763c-3.97 0-7.2-3.378-7.2-7.528 0-4.15 3.23-7.527 7.2-7.527 3.971 0 7.2 3.377 7.2 7.527s-3.229 7.528-7.2 7.528Zm2.4-23.2v6.83a8.389 8.389 0 0 0-2.4-.357c-.832 0-1.635.13-2.4.356v-6.83a14.484 14.484 0 0 1 2.4-.217c.819 0 1.617.087 2.4.218ZM9.943 21.745H3.41a16.512 16.512 0 0 1-.208-2.51c0-.855.083-1.689.208-2.509h6.533a9.527 9.527 0 0 0-.341 2.51c0 .87.124 1.71.34 2.509Zm6.06 13.163v-6.83a8.389 8.389 0 0 0 2.4.358c.832 0 1.636-.13 2.4-.357v6.83c-.784.13-1.582.217-2.4.217-.819 0-1.616-.087-2.4-.218Z"
      fill="#175CFF" />
    <path
      d="M.8 10.873c.442 0 .8-.375.8-.837 0-4.611 3.589-8.363 8-8.363.442 0 .8-.375.8-.837C10.4.375 10.042 0 9.6 0 4.306 0 0 4.502 0 10.036c0 .462.358.837.8.837ZM27.198 1.673c4.412 0 8 3.752 8 8.363 0 .462.358.837.8.837.443 0 .8-.375.8-.837C36.798 4.502 32.492 0 27.198 0c-.442 0-.8.375-.8.836 0 .462.358.837.8.837ZM9.6 36.8c-4.411 0-8-3.752-8-8.364 0-.462-.358-.836-.8-.836-.442 0-.8.374-.8.836 0 5.534 4.306 10.036 9.6 10.036.442 0 .8-.374.8-.836 0-.462-.358-.836-.8-.836Z"
      fill="#175CFF" />
    <path fill-rule="evenodd" clip-rule="evenodd"
      d="M36.5 26a9 9 0 1 0 9 9 9.026 9.026 0 0 0-9-9ZM35 39.06 30.94 35 32 33.94l3 3 6-6L42.06 32 35 39.06Z"
      fill="#FF8030" />
  </symbol>

  <symbol fill="none" viewBox="0 0 30 28" id="svg-chart-lines" xmlns="http://www.w3.org/2000/svg">
    <g clip-path="url(#aa)">
      <path fill-rule="evenodd" clip-rule="evenodd"
        d="M24 2a2 2 0 0 1 2-2h2a2 2 0 0 1 2 2v24a2 2 0 0 1-2 2h-2a2 2 0 0 1-2-2V2ZM12 12a2 2 0 0 1 2-2h2a2 2 0 0 1 2 2v14a2 2 0 0 1-2 2h-2a2 2 0 0 1-2-2V12ZM2 18a2 2 0 0 0-2 2v6a2 2 0 0 0 2 2h2a2 2 0 0 0 2-2v-6a2 2 0 0 0-2-2H2Z"
        fill="#003FFF" />
    </g>
    <defs>
      <clipPath id="aa">
        <path fill="#fff" d="M0 0h30v28H0z" />
      </clipPath>
    </defs>
  </symbol>
</svg>