<svg width="38" height="40" viewBox="0 0 38 40" fill="none" xmlns="http://www.w3.org/2000/svg">
<g id="Group">
<path id="Path" d="M32.2174 24.8333H6.54175C4.95393 24.8333 3.66675 23.5462 3.66675 21.9583V7.58333C3.66675 5.46624 5.38299 3.75 7.50008 3.75H11.3334" stroke="#F57C00" stroke-width="2.5" stroke-linecap="round" stroke-linejoin="round"/>
<path id="Path_2" fill-rule="evenodd" clip-rule="evenodd" d="M32.4149 38.2499H5.58514C4.38248 38.2499 3.24955 37.6854 2.52529 36.7253C1.80103 35.7651 1.56943 34.5207 1.89978 33.3643L3.93968 26.2234C4.17476 25.4006 4.9269 24.8332 5.78271 24.8333H32.2174C33.0732 24.8333 33.8252 25.4006 34.0603 26.2234L36.1002 33.3643C36.4306 34.5207 36.199 35.7651 35.4747 36.7253C34.7505 37.6854 33.6176 38.2499 32.4149 38.2499V38.2499Z" stroke="#F57C00" stroke-width="2.5" stroke-linecap="round" stroke-linejoin="round"/>
<path id="Path_3" d="M15.1667 32.4998H22.8334" stroke="#F57C00" stroke-width="2.5" stroke-linecap="round" stroke-linejoin="round"/>
<rect id="Rectangle" x="19" y="1.83325" width="17.25" height="15.3333" rx="2" stroke="#F57C00" stroke-width="2.5" stroke-linecap="round" stroke-linejoin="round"/>
<path id="Path_4" fill-rule="evenodd" clip-rule="evenodd" d="M24.75 1.83325H30.5V6.62492C30.5 7.15419 30.0709 7.58325 29.5417 7.58325H25.7083C25.1791 7.58325 24.75 7.15419 24.75 6.62492V1.83325Z" stroke="#F57C00" stroke-width="2.5" stroke-linecap="round" stroke-linejoin="round"/>
</g>
</svg>
