<svg width="44" height="44" viewBox="0 0 44 44" fill="none" xmlns="http://www.w3.org/2000/svg">
<g clip-path="url(#clip0_52366_507111)">
<rect width="44" height="44" rx="22" fill="url(#paint0_linear_52366_507111)"/>
<path d="M30.6201 24.5H13.8751C12.8396 24.5 12.0001 23.6605 12.0001 22.625V13.25C12.0001 11.8693 13.1194 10.75 14.5001 10.75H17.0001" stroke="white" stroke-width="2" stroke-linecap="round" stroke-linejoin="round"/>
<path fill-rule="evenodd" clip-rule="evenodd" d="M30.7489 33.25H13.2513C12.4669 33.25 11.728 32.8818 11.2557 32.2557C10.7834 31.6295 10.6323 30.8179 10.8478 30.0638L12.1781 25.4066C12.3314 24.87 12.822 24.5 13.3801 24.5H30.6201C31.1782 24.5 31.6687 24.87 31.822 25.4066L33.1524 30.0638C33.3678 30.8179 33.2168 31.6295 32.7445 32.2557C32.2721 32.8818 31.5333 33.25 30.7489 33.25V33.25Z" stroke="white" stroke-width="2" stroke-linecap="round" stroke-linejoin="round"/>
<path d="M19.5001 29.5H24.5001" stroke="white" stroke-width="2" stroke-linecap="round" stroke-linejoin="round"/>
<rect x="22.0001" y="9.5" width="11.25" height="10" rx="2" stroke="white" stroke-width="2" stroke-linecap="round" stroke-linejoin="round"/>
<path fill-rule="evenodd" clip-rule="evenodd" d="M25.7501 9.5H29.5001V12.625C29.5001 12.9702 29.2203 13.25 28.8751 13.25H26.3751C26.0299 13.25 25.7501 12.9702 25.7501 12.625V9.5Z" stroke="white" stroke-width="2" stroke-linecap="round" stroke-linejoin="round"/>
</g>
<defs>
<linearGradient id="paint0_linear_52366_507111" x1="22" y1="44.2884" x2="22" y2="0.223957" gradientUnits="userSpaceOnUse">
<stop stop-color="#FF7400"/>
<stop offset="1" stop-color="#FFAB52"/>
</linearGradient>
<clipPath id="clip0_52366_507111">
<rect width="44" height="44" rx="22" fill="white"/>
</clipPath>
</defs>
</svg>
