<svg width="48" height="48" viewBox="0 0 48 48" fill="none" xmlns="http://www.w3.org/2000/svg">
<g id="Group">
<path id="Path" d="M10.5778 6.74292C8.45988 6.74292 6.74292 8.45988 6.74292 10.5778" stroke="#F57C00" stroke-width="2.5" stroke-linecap="round" stroke-linejoin="round"/>
<path id="Path_2" d="M6.74291 16.9629V20.7978" stroke="#F57C00" stroke-width="2.5" stroke-linecap="round" stroke-linejoin="round"/>
<path id="Path_3" d="M16.9629 6.74291H20.7978" stroke="#F57C00" stroke-width="2.5" stroke-linecap="round" stroke-linejoin="round"/>
<path id="Path_4" d="M37.4224 41.2573C39.5403 41.2573 41.2573 39.5403 41.2573 37.4224" stroke="#F57C00" stroke-width="2.5" stroke-linecap="round" stroke-linejoin="round"/>
<path id="Path_5" d="M41.2573 31.0371V27.2021" stroke="#F57C00" stroke-width="2.5" stroke-linecap="round" stroke-linejoin="round"/>
<path id="Path_6" d="M31.0371 41.2573H27.2021" stroke="#F57C00" stroke-width="2.5" stroke-linecap="round" stroke-linejoin="round"/>
<path id="Path_7" d="M14.4128 25.9175V31.3401" stroke="#F57C00" stroke-width="2.5" stroke-linecap="round" stroke-linejoin="round"/>
<path id="Path_8" d="M22.0826 33.0447C22.0826 32.1033 21.3195 31.3401 20.378 31.3401H8.44755C7.50611 31.3401 6.74292 32.1033 6.74292 33.0447" stroke="#F57C00" stroke-width="2.5" stroke-linecap="round" stroke-linejoin="round"/>
<path id="Path_9" fill-rule="evenodd" clip-rule="evenodd" d="M20.378 41.2572H8.66038C7.6014 41.2572 6.74292 40.3987 6.74292 39.3397V30.6038C6.74292 30.1425 6.8363 29.6859 7.01712 29.2615L7.94901 27.0795C8.25144 26.374 8.94547 25.9168 9.71307 25.9175H19.1087C19.876 25.9179 20.5692 26.3758 20.8708 27.0814L21.8046 29.2654C21.9854 29.6898 22.0788 30.1463 22.0788 30.6076V39.5545C22.0778 40.4937 21.3172 41.2551 20.378 41.2572Z" stroke="#F57C00" stroke-width="2.5" stroke-linecap="round" stroke-linejoin="round"/>
<path id="a" fill-rule="evenodd" clip-rule="evenodd" d="M33.5874 4.82544C28.4722 10.1936 28.4722 18.632 33.5874 24.0001C38.7026 18.632 38.7026 10.1936 33.5874 4.82544V4.82544Z" stroke="#F57C00" stroke-width="2.5" stroke-linecap="round" stroke-linejoin="round"/>
<path id="a-2" d="M33.5874 24.0001C38.7026 18.632 38.7026 10.1936 33.5874 4.82544" stroke="#F57C00" stroke-width="2.5" stroke-linecap="round" stroke-linejoin="round"/>
<path id="Path_10" fill-rule="evenodd" clip-rule="evenodd" d="M43.1747 14.4128C43.1747 19.7077 38.8823 24.0001 33.5873 24.0001C28.2924 24.0001 24 19.7077 24 14.4128C24 9.11786 28.2924 4.82545 33.5873 4.82545C36.1313 4.82138 38.5722 5.83016 40.3711 7.62902C42.17 9.42788 43.1787 11.8688 43.1747 14.4128Z" stroke="#F57C00" stroke-width="2.5" stroke-linecap="round" stroke-linejoin="round"/>
<path id="Path_11" d="M24 14.4128H43.1747" stroke="#F57C00" stroke-width="2.5" stroke-linecap="round" stroke-linejoin="round"/>
</g>
</svg>
