<svg width="46" height="46" viewBox="0 0 46 46" fill="none" xmlns="http://www.w3.org/2000/svg">
<g id="Group">
<path id="Path" d="M19.1667 40.25H9.58333C7.46624 40.25 5.75 38.5338 5.75 36.4167V17.6342C5.74999 15.5107 6.92027 13.5601 8.79384 12.5608L20.2938 6.42662C21.9852 5.52446 24.0148 5.52446 25.7062 6.42662L37.2062 12.5608C39.0797 13.5601 40.25 15.5107 40.25 17.6342V19.1667" stroke="#F57C00" stroke-width="2.5" stroke-linecap="round" stroke-linejoin="round"/>
<path id="Path_2" d="M19.1665 17.2501H26.8332" stroke="#F57C00" stroke-width="2.5" stroke-linecap="round" stroke-linejoin="round"/>
<path id="Path_3" d="M19.1665 24.9167H15.3332C14.2746 24.9167 13.4165 25.7749 13.4165 26.8334V40.2501" stroke="#F57C00" stroke-width="2.5" stroke-linecap="round" stroke-linejoin="round"/>
<path id="Path_4" d="M19.1665 32.5833H13.4165" stroke="#F57C00" stroke-width="2.5" stroke-linecap="round" stroke-linejoin="round"/>
<path id="Path_5" fill-rule="evenodd" clip-rule="evenodd" d="M30.6665 24.9167H36.4165V29.7084C36.4165 30.2377 35.9874 30.6667 35.4582 30.6667H31.6248C31.0956 30.6667 30.6665 30.2377 30.6665 29.7084V24.9167Z" stroke="#F57C00" stroke-width="2.5" stroke-linecap="round" stroke-linejoin="round"/>
<rect id="Rectangle" x="24.9165" y="24.9167" width="17.25" height="15.3333" rx="2" stroke="#F57C00" stroke-width="2.5" stroke-linecap="round" stroke-linejoin="round"/>
</g>
</svg>
