<svg width="46" height="46" viewBox="0 0 46 46" fill="none" xmlns="http://www.w3.org/2000/svg">
<g id="Group">
<g id="Group_2">
<path id="Path" d="M5.74992 13.4166H3.83325" stroke="#F57C00" stroke-width="2.5" stroke-linecap="round" stroke-linejoin="round"/>
<path id="Path_2" d="M7.66659 7.66659H3.83325" stroke="#F57C00" stroke-width="2.5" stroke-linecap="round" stroke-linejoin="round"/>
<path id="Path_3" d="M32.5833 38.3333H5.75" stroke="#F57C00" stroke-width="2.5" stroke-linecap="round" stroke-linejoin="round"/>
<path id="Path_4" d="M33.1103 7.6665L31.2205 13.9666C30.9771 14.7773 30.2296 15.3332 29.3843 15.3332H23.4197C22.1355 15.3332 21.2155 14.095 21.5835 12.8664L23.1437 7.6665" stroke="#F57C00" stroke-width="2.5" stroke-linecap="round" stroke-linejoin="round"/>
<path id="Path_5" d="M15.3333 24.9166H19.4158" stroke="#F57C00" stroke-width="2.5" stroke-linecap="round" stroke-linejoin="round"/>
<path id="Path_6" fill-rule="evenodd" clip-rule="evenodd" d="M33.4228 30.6665H13.1291C10.0471 30.6665 7.83719 27.6957 8.72269 24.744L12.8627 10.944C13.4473 8.99859 15.2374 7.6665 17.2691 7.6665H37.5647C40.6467 7.6665 42.8566 10.6373 41.9711 13.589L37.8311 27.389C37.2465 29.3344 35.4544 30.6665 33.4228 30.6665Z" stroke="#F57C00" stroke-width="2.5" stroke-linecap="round" stroke-linejoin="round"/>
</g>
</g>
</svg>
