<svg width="44" height="44" viewBox="0 0 44 44" fill="none" xmlns="http://www.w3.org/2000/svg">
<g clip-path="url(#clip0_52390_507467)">
<rect width="44" height="44" rx="22" fill="url(#paint0_linear_52390_507467)"/>
<path d="M10.75 15.75H9.5" stroke="white" stroke-width="2" stroke-linecap="round" stroke-linejoin="round"/>
<path d="M12 12H9.5" stroke="white" stroke-width="2" stroke-linecap="round" stroke-linejoin="round"/>
<path d="M28.25 32H10.75" stroke="white" stroke-width="2" stroke-linecap="round" stroke-linejoin="round"/>
<path d="M28.5938 12L27.3613 16.1087C27.2025 16.6375 26.715 17 26.1638 17H22.2738C21.4363 17 20.8363 16.1925 21.0763 15.3913L22.0938 12" stroke="white" stroke-width="2" stroke-linecap="round" stroke-linejoin="round"/>
<path d="M17 23.25H19.6625" stroke="white" stroke-width="2" stroke-linecap="round" stroke-linejoin="round"/>
<path fill-rule="evenodd" clip-rule="evenodd" d="M28.7974 27H15.5624C13.5524 27 12.1112 25.0625 12.6887 23.1375L15.3887 14.1375C15.7699 12.8688 16.9374 12 18.2624 12H31.4987C33.5087 12 34.9499 13.9375 34.3724 15.8625L31.6724 24.8625C31.2912 26.1312 30.1224 27 28.7974 27Z" stroke="white" stroke-width="2" stroke-linecap="round" stroke-linejoin="round"/>
</g>
<defs>
<linearGradient id="paint0_linear_52390_507467" x1="22" y1="44.2884" x2="22" y2="0.223957" gradientUnits="userSpaceOnUse">
<stop stop-color="#FF7400"/>
<stop offset="1" stop-color="#FFAB52"/>
</linearGradient>
<clipPath id="clip0_52390_507467">
<rect width="44" height="44" rx="22" fill="white"/>
</clipPath>
</defs>
</svg>
