<svg width="38" height="38" viewBox="0 0 38 38" fill="none" xmlns="http://www.w3.org/2000/svg">
<g id="Group">
<path id="Path" d="M26.6668 22.8333L22.8335 26.6666L26.6668 30.4999" stroke="#F57C00" stroke-width="2.5" stroke-linecap="round" stroke-linejoin="round"/>
<path id="Path_2" d="M22.8335 26.6667H31.4585C34.1049 26.6667 36.2502 28.8121 36.2502 31.4584V31.4584C36.2502 34.1048 34.1049 36.2501 31.4585 36.2501H26.6668" stroke="#F57C00" stroke-width="2.5" stroke-linecap="round" stroke-linejoin="round"/>
<path id="Path_3" d="M19 36.25H6.0625C3.68077 36.25 1.75 34.3192 1.75 31.9375V6.0625C1.75 3.68077 3.68077 1.75 6.0625 1.75H31.9375C34.3192 1.75 36.25 3.68077 36.25 6.0625V20.9167" stroke="#F57C00" stroke-width="2.5" stroke-linecap="round" stroke-linejoin="round"/>
<path id="Path_4" d="M11.3335 1.75V6.54167C11.3335 8.12949 12.6207 9.41667 14.2085 9.41667H23.7918C25.3796 9.41667 26.6668 8.12949 26.6668 6.54167V1.75" stroke="#F57C00" stroke-width="2.5" stroke-linecap="round" stroke-linejoin="round"/>
</g>
</svg>
