<svg width="48" height="48" viewBox="0 0 48 48" fill="none" xmlns="http://www.w3.org/2000/svg">
<g id="Group">
<path id="Path" d="M29.7524 6.89056V13.5806C29.7524 14.6396 28.8939 15.4981 27.8349 15.4981H20.165C19.106 15.4981 18.2476 14.6396 18.2476 13.5806V6.74292" stroke="#F57C00" stroke-width="2.5" stroke-linecap="round" stroke-linejoin="round"/>
<path id="Path_2" d="M41.257 24.0001V10.5779C41.257 8.45988 39.5401 6.74292 37.4221 6.74292H10.5776C8.45963 6.74292 6.74268 8.45988 6.74268 10.5779V35.5049C6.74268 37.6229 8.45963 39.3398 10.5776 39.3398H22.0824" stroke="#F57C00" stroke-width="2.5" stroke-linecap="round" stroke-linejoin="round"/>
<path id="Path_3" fill-rule="evenodd" clip-rule="evenodd" d="M36.3252 40.3292C35.7301 40.9238 34.923 41.2577 34.0817 41.2572V41.2572C33.2406 41.2568 32.4339 40.9231 31.8383 40.3292L28.0264 36.5249C26.5107 34.9589 26.531 32.4667 28.0721 30.9256C29.6132 29.3846 32.1054 29.3642 33.6714 30.8799L34.0741 31.2807L34.4767 30.8799C36.0428 29.3642 38.535 29.3846 40.076 30.9256C41.6171 32.4667 41.6375 34.9589 40.1218 36.5249L36.3252 40.3292Z" stroke="#F57C00" stroke-width="2.5" stroke-linecap="round" stroke-linejoin="round"/>
</g>
</svg>
