<svg width="46" height="46" viewBox="0 0 46 46" fill="none" xmlns="http://www.w3.org/2000/svg">
<g id="Group">
<g id="Group_2">
<path id="Path" fill-rule="evenodd" clip-rule="evenodd" d="M11.8757 11.8757H19.1667V19.1667H11.8757V11.8757Z" stroke="#F57C00" stroke-width="2.5" stroke-linecap="round" stroke-linejoin="round"/>
<path id="Path_2" fill-rule="evenodd" clip-rule="evenodd" d="M11.73 27.0632H19.1666V34.4999H11.73V27.0632Z" stroke="#F57C00" stroke-width="2.5" stroke-linecap="round" stroke-linejoin="round"/>
<path id="Path_3" d="M26.8333 30.6666V26.8333" stroke="#F57C00" stroke-width="2.5" stroke-linecap="round" stroke-linejoin="round"/>
<path id="Path_4" d="M34.1168 34.1168H30.2834" stroke="#F57C00" stroke-width="2.5" stroke-linecap="round" stroke-linejoin="round"/>
<path id="Path_5" fill-rule="evenodd" clip-rule="evenodd" d="M34.2695 18.936H26.8329V11.4994H34.2695V18.936Z" stroke="#F57C00" stroke-width="2.5" stroke-linecap="round" stroke-linejoin="round"/>
<path id="Path_6" d="M41.2082 15.2912V8.62508C41.2082 6.50716 39.4928 4.79175 37.3749 4.79175H30.7087" stroke="#F57C00" stroke-width="2.5" stroke-linecap="round" stroke-linejoin="round"/>
<path id="Path_7" d="M31.2417 26.8333H34.1167" stroke="#F57C00" stroke-width="2.5" stroke-linecap="round" stroke-linejoin="round"/>
<path id="Path_8" d="M15.2912 4.79175H8.62508C6.50716 4.79175 4.79175 6.50716 4.79175 8.62508V15.2912" stroke="#F57C00" stroke-width="2.5" stroke-linecap="round" stroke-linejoin="round"/>
<path id="Path_9" d="M4.79175 30.7087V37.3749C4.79175 39.4928 6.50716 41.2082 8.62508 41.2082H15.2912" stroke="#F57C00" stroke-width="2.5" stroke-linecap="round" stroke-linejoin="round"/>
<path id="Path_10" d="M30.7087 41.2082H37.3749C39.4928 41.2082 41.2082 39.4928 41.2082 37.3749V30.7087" stroke="#F57C00" stroke-width="2.5" stroke-linecap="round" stroke-linejoin="round"/>
</g>
</g>
</svg>
