<svg width="366" height="241" viewBox="0 0 366 241" fill="none" xmlns="http://www.w3.org/2000/svg">
<path d="M83.3991 125.042C83.3991 125.042 80.5374 164.058 80.2661 178.07C79.9947 192.082 88.4031 234.845 88.4031 234.845L92.6269 233.736L99.6607 180.98L105.459 125.04L83.3991 125.042Z" fill="#39548B"/>
<path d="M93.0536 233.135L87.5855 233.008L87.8176 235.784C87.8176 235.784 81.9603 236.907 78.9397 240.211H92.6555L93.0536 233.135Z" fill="#1F1949"/>
<path d="M98.1415 130.062L103.26 179.619C104.768 193.553 118.538 234.902 118.538 234.902L122.586 233.267L122.867 180.044L121.606 127.55L99.8374 130.424" fill="#39548B"/>
<path d="M123.045 232.601L117.604 233.169L118.186 235.893C118.186 235.893 112.768 236.675 110.192 240.336H123.595L123.045 232.601Z" fill="#1F1949"/>
<path d="M132.882 107.089C132.882 107.089 127.199 74.502 103.326 75.8677C96.0563 76.2836 87.3998 77.76 83.6455 84.7777C79.6859 92.1792 75.9476 100.156 74.075 108.366L83.0457 111.649L81.9853 138.586C81.9853 138.586 111.682 146.178 123.013 133.885L119.832 109.692L132.882 107.089Z" fill="#F9DD89"/>
<mask id="mask0_52074_536420" style="mask-type:luminance" maskUnits="userSpaceOnUse" x="74" y="75" width="59" height="66">
<path d="M132.882 107.089C132.882 107.089 127.199 74.502 103.326 75.8677C96.0563 76.2836 87.3998 77.76 83.6455 84.7777C79.6859 92.1792 75.9476 100.156 74.075 108.366L83.0457 111.649L81.9853 138.586C81.9853 138.586 111.682 146.178 123.013 133.885L119.832 109.692L132.882 107.089Z" fill="white"/>
</mask>
<g mask="url(#mask0_52074_536420)">
<path d="M113.207 139.45C114.323 126.047 115.438 112.641 116.554 99.2379C117.759 101.712 118.962 104.188 120.167 106.663C120.516 107.38 120.865 108.098 121.13 108.85C121.517 109.955 121.715 111.115 121.91 112.268C123.106 119.327 124.302 126.386 125.496 133.443C125.555 133.789 123.193 135.26 122.869 135.483C121.879 136.165 120.848 136.788 119.784 137.347C117.775 138.406 115.524 139.546 113.207 139.45Z" fill="#F4C54E"/>
</g>
<mask id="mask1_52074_536420" style="mask-type:luminance" maskUnits="userSpaceOnUse" x="74" y="75" width="59" height="66">
<path d="M132.882 107.089C132.882 107.089 127.199 74.502 103.326 75.8677C96.0563 76.2836 87.3998 77.76 83.6455 84.7777C79.6859 92.1792 75.9476 100.156 74.075 108.366L83.0457 111.649L81.9853 138.586C81.9853 138.586 111.682 146.178 123.013 133.885L119.832 109.692L132.882 107.089Z" fill="white"/>
</mask>
<g mask="url(#mask1_52074_536420)">
<path opacity="0.53" d="M94.5729 76.9246L93.1268 83.3728L96.808 81.5822L92.7359 87.5073L91.1203 95.2195H78.156L84.947 77.2495L94.5729 76.9246Z" fill="#F4C54E"/>
</g>
<mask id="mask2_52074_536420" style="mask-type:luminance" maskUnits="userSpaceOnUse" x="74" y="75" width="59" height="66">
<path d="M132.882 107.089C132.882 107.089 127.199 74.502 103.326 75.8677C96.0563 76.2836 87.3998 77.76 83.6455 84.7777C79.6859 92.1792 75.9476 100.156 74.075 108.366L83.0457 111.649L81.9853 138.586C81.9853 138.586 111.682 146.178 123.013 133.885L119.832 109.692L132.882 107.089Z" fill="white"/>
</mask>
<g mask="url(#mask2_52074_536420)">
<path opacity="0.53" d="M91.5344 128.419L92.336 141.635L80.259 140.903V128.419H91.5344Z" fill="#F4C54E"/>
</g>
<path d="M101.616 162.747L98.9734 144.763C98.9734 144.763 97.2578 164.145 100.377 174.069L101.616 162.747Z" fill="#343766"/>
<path d="M134.368 0.844971C134.368 0.844971 119.214 0.844971 119.698 14.9972C120.199 29.1494 134.368 42.5674 134.368 42.5674C134.368 42.5674 148.537 29.1494 149.037 14.9972C149.538 0.844971 134.368 0.844971 134.368 0.844971ZM134.368 22.1568C130.813 22.1568 127.942 19.2863 127.942 15.7482C127.942 12.1935 130.813 9.32296 134.368 9.32296C137.922 9.32296 140.776 12.1935 140.776 15.7482C140.793 19.2863 137.922 22.1568 134.368 22.1568Z" fill="#F73A30"/>
<path d="M134.368 5.85168C128.894 5.85168 124.471 10.2743 124.471 15.7482C124.471 21.2055 128.911 25.6448 134.368 25.6448C139.825 25.6448 144.264 21.2055 144.264 15.7482C144.281 10.2743 139.842 5.85168 134.368 5.85168ZM134.368 22.1568C130.813 22.1568 127.943 19.2863 127.943 15.7482C127.943 12.1935 130.813 9.32299 134.368 9.32299C137.923 9.32299 140.776 12.1935 140.776 15.7482C140.793 19.2863 137.923 22.1568 134.368 22.1568Z" fill="white"/>
<path d="M97.3149 95.2195H59.8467V131.129H97.3149V95.2195Z" fill="#F1CA89"/>
<path d="M107.814 95.2195H97.3149V131.129H107.814V95.2195Z" fill="#F1B873"/>
<path d="M81.8781 95.2195H76.4171V105.106H81.8781V95.2195Z" fill="#F2F3F7"/>
<path d="M104.506 95.2195H101.15V105.106H104.506V95.2195Z" fill="#F2F3F7"/>
<path d="M131.489 107.366L118.425 109.971L120.134 122.276L98.1415 130.062C98.1415 130.062 96.5902 129.162 95.5762 128.944C94.5621 128.726 91.9236 128.707 92.8591 129.405C93.0179 129.522 95.2388 130.413 95.2388 130.413L92.5556 131.127L88.3264 131.204C88.3264 131.204 92.1128 135.248 94.2479 135.369C96.3831 135.49 100.471 134.792 100.473 134.792C107.284 134.23 127.457 133.523 130.158 131.358C134.073 128.217 131.489 107.366 131.489 107.366Z" fill="#DA8C8D"/>
<mask id="mask3_52074_536420" style="mask-type:luminance" maskUnits="userSpaceOnUse" x="88" y="107" width="45" height="29">
<path d="M131.489 107.366L118.425 109.971L120.134 122.276L98.1415 130.062C98.1415 130.062 96.5902 129.162 95.5762 128.944C94.5621 128.726 91.9236 128.707 92.8591 129.405C93.0179 129.522 95.2388 130.413 95.2388 130.413L92.5556 131.127L88.3264 131.204C88.3264 131.204 92.1128 135.248 94.2479 135.369C96.3831 135.49 100.471 134.792 100.473 134.792C107.284 134.23 127.457 133.523 130.158 131.358C134.073 128.217 131.489 107.366 131.489 107.366Z" fill="white"/>
</mask>
<g mask="url(#mask3_52074_536420)">
<path d="M118.243 115.537C118.243 115.537 131.104 111.961 132.88 109.301L132.325 105.104L116.776 109.208L118.243 115.537Z" fill="#C17276"/>
</g>
<path d="M93.4732 72.5203C85.7842 72.9613 89.9242 58.1154 89.9242 58.1154C92.02 48.2913 101.416 51.2851 104.06 56.8764C104.918 58.692 104.909 60.9325 104.249 63.1443C104.143 66.8058 104.268 72.8238 105.813 77.626C105.813 77.626 100.56 81.6624 96.8079 81.5839C94.7264 81.541 95.0852 76.5353 95.8172 72.0901C95.0638 72.3221 94.2819 72.4739 93.4732 72.5203Z" fill="#DA8C8D"/>
<mask id="mask4_52074_536420" style="mask-type:luminance" maskUnits="userSpaceOnUse" x="88" y="51" width="18" height="31">
<path d="M93.4732 72.5203C85.7842 72.9613 89.9242 58.1154 89.9242 58.1154C92.02 48.2913 101.416 51.2851 104.06 56.8764C104.918 58.692 104.909 60.9325 104.249 63.1443C104.143 66.8058 104.268 72.8238 105.813 77.626C105.813 77.626 100.56 81.6624 96.8079 81.5839C94.7264 81.541 95.0852 76.5353 95.8172 72.0901C95.0638 72.3221 94.2819 72.4739 93.4732 72.5203Z" fill="white"/>
</mask>
<g mask="url(#mask4_52074_536420)">
<path d="M89.3528 60.6611C89.3528 60.6611 92.9965 63.9887 99.0519 59.6221C105.107 55.2554 101.567 52.3955 101.567 52.3955L95.0352 50.3175L88.1657 55.882L89.3528 60.6611Z" fill="#C17276"/>
</g>
<path d="M95.8136 72.1096C95.8136 72.1096 96.9775 71.774 99.8375 69.439C99.8375 69.439 99.3805 74.8571 95.2834 76.562C95.2834 76.562 95.6654 72.9862 95.8136 72.1096Z" fill="#C17276"/>
<path d="M98.1933 58.0565C98.5271 61.5823 100.46 62.2054 100.46 62.2054C100.46 62.2054 100.259 58.9241 102.829 60.1149C105.4 61.3074 103.647 65.1831 102.067 64.7672C101.885 64.719 104.222 69.5765 104.222 69.5765L109.212 63.4443C117.99 51.9529 102.801 47.6041 102.801 47.6041C102.801 47.6041 98.0397 45.585 92.3949 50.7211C87.6712 55.0181 90.1276 57.2764 90.1276 57.2764C90.1276 57.2764 92.4074 52.6366 95.1405 53.8363C95.1673 53.8488 95.1941 53.8595 95.2226 53.872C96.89 54.6253 98.0201 56.2338 98.1933 58.0565Z" fill="#343766"/>
<path d="M93.7588 55.0841C93.05 55.8214 92.4056 56.6265 91.6397 57.3067C90.8739 57.9868 89.9563 58.5474 88.9405 58.6724C87.2856 58.8759 85.6753 57.8762 84.6559 56.5587C85.3111 56.4444 85.7806 55.8785 86.1662 55.3358C87.6176 53.2846 88.7673 50.9656 90.6668 49.3232C91.2809 48.7912 91.9807 48.3342 92.7698 48.1378C94.4425 47.7236 96.3223 48.6823 97.0454 50.2461C97.4881 51.2048 97.4917 52.3277 97.1418 53.3149C97.0204 53.6577 96.8508 54.1968 96.4366 54.2736C96.1081 54.3343 95.76 54.1647 95.4315 54.1593C94.7442 54.1468 94.2086 54.6163 93.7588 55.0841Z" fill="#343766"/>
<path d="M88.8137 65.7097C88.8137 65.7097 91.4701 64.7154 93.2179 65.3456C94.9656 65.9757 98.3968 68.0234 98.3968 68.0234L100.482 68.3126L99.8374 69.4373C99.8374 69.4373 95.0763 73.8396 92.6377 72.956C90.1973 72.0723 88.2728 70.7566 88.8137 65.7097Z" fill="#343766"/>
<path d="M90.0544 67.429C90.0544 67.429 91.804 68.0359 93.1268 67.9538C93.1268 67.9538 92.5823 69.041 91.0185 68.8768C89.4546 68.7125 90.0544 67.429 90.0544 67.429Z" fill="white"/>
<path d="M96.8079 81.5822L100.716 85.7239C100.716 85.7239 105.131 82.9121 107.198 79.5095C108.133 77.9689 107.105 75.9819 105.311 75.8248L105.813 77.6243C105.813 77.6243 100.095 81.4429 96.8079 81.5822Z" fill="white"/>
<path d="M96.8079 81.5821L92.7019 85.1579C92.7019 85.1579 91.5486 80.029 93.3356 77.4512L95.2833 76.9227C95.2833 76.9245 94.6692 81.4322 96.8079 81.5821Z" fill="white"/>
<path d="M111.781 53.9238L84.6577 53.2061C84.6577 53.2061 88.3692 39.767 101.344 40.7721C114.321 41.7772 111.781 53.9238 111.781 53.9238Z" fill="#F4C54E"/>
<mask id="mask5_52074_536420" style="mask-type:luminance" maskUnits="userSpaceOnUse" x="84" y="40" width="28" height="14">
<path d="M111.781 53.9238L84.6577 53.2061C84.6577 53.2061 88.3692 39.767 101.344 40.7721C114.321 41.7772 111.781 53.9238 111.781 53.9238Z" fill="white"/>
</mask>
<g mask="url(#mask5_52074_536420)">
<path d="M95.6458 40.7185C95.6458 40.7185 97.5256 45.9474 106.162 47.2149C114.799 48.4842 116.331 46.7418 116.331 46.7418C116.331 46.7418 113.127 40.8917 107.903 39.1493C102.681 37.4087 95.6458 40.7185 95.6458 40.7185Z" fill="#F9DD89"/>
</g>
<mask id="mask6_52074_536420" style="mask-type:luminance" maskUnits="userSpaceOnUse" x="88" y="38" width="14" height="28">
<path d="M101.456 38.4065L100.196 65.5095C100.196 65.5095 86.834 61.53 88.0984 48.5778C89.3628 35.6237 101.456 38.4065 101.456 38.4065Z" fill="white"/>
</mask>
<g mask="url(#mask6_52074_536420)">
<path d="M85.4273 50.8884L85.4161 51.4489L111.978 51.9802L111.99 51.4198L85.4273 50.8884Z" fill="#343766"/>
</g>
<path d="M102.828 53.6864L98.1701 70.9048L100.482 69.507L104.609 53.7346L102.828 53.6864Z" fill="#F2F3F7"/>
<path d="M102.84 60.4933L101.102 60.0558L100.95 60.66L102.688 61.0975L102.84 60.4933Z" fill="#343766"/>
<path d="M102.444 62.0098L100.694 61.5692L100.542 62.1734L102.292 62.614L102.444 62.0098Z" fill="#343766"/>
<path d="M39.7881 85.3489L57.7849 70.6476L60.3538 75.1374L45.0366 95.2193L39.7881 85.3489Z" fill="#DA8C8D"/>
<mask id="mask7_52074_536420" style="mask-type:luminance" maskUnits="userSpaceOnUse" x="39" y="70" width="22" height="26">
<path d="M39.7881 85.3489L57.7849 70.6476L60.3538 75.1374L45.0366 95.2193L39.7881 85.3489Z" fill="white"/>
</mask>
<g mask="url(#mask7_52074_536420)">
<path d="M45.3526 96.4797C45.224 96.6296 45.1491 96.7171 45.1491 96.7171L38.1867 85.1203L41.2055 82.9281L48.8695 92.3487C48.8695 92.3487 46.1291 95.5674 45.3526 96.4797Z" fill="#C17276"/>
</g>
<path d="M69.3176 77.5952L68.1647 58.1553L58.7503 58.7136L59.9033 78.1535L69.3176 77.5952Z" fill="#A6C4A8"/>
<path d="M59.5683 59.233L60.6555 77.5529L68.4944 77.0887L67.4072 58.7688L59.5683 59.233ZM59.9039 60.4826L60.8447 60.4273L60.7858 59.424L66.22 59.1009L66.2789 60.1041L67.2197 60.0488L68.2159 76.8423L60.9001 77.2761L59.9039 60.4826Z" fill="#F2F3F7"/>
<path d="M61.8526 77.3438L61.7919 76.3209L60.7691 76.3816L60.8297 77.4045L61.8526 77.3438Z" fill="white"/>
<path d="M68.3097 76.9624L68.2491 75.9396L67.2262 76.0002L67.2869 77.0231L68.3097 76.9624Z" fill="white"/>
<path d="M66.2469 68.8107C66.6032 67.5857 65.8988 66.3038 64.6738 65.9476C63.4487 65.5914 62.1669 66.2957 61.8107 67.5208C61.4545 68.7458 62.1588 70.0277 63.3838 70.3839C64.6089 70.7401 65.8907 70.0357 66.2469 68.8107Z" fill="white"/>
<path d="M62.5246 68.4929L62.8691 68.4696C62.9066 68.6589 62.9798 68.8053 63.0887 68.9106C63.2333 69.0498 63.4065 69.1123 63.6082 69.0998C63.8296 69.0838 63.9867 68.9981 64.0813 68.8374C64.1366 68.7428 64.183 68.575 64.2205 68.3304L64.258 68.0822C64.2794 67.9376 64.3062 67.8305 64.3419 67.7609C64.3776 67.6931 64.433 67.6556 64.5079 67.6502C64.6347 67.6413 64.7275 67.702 64.7829 67.8341C64.8114 67.9037 64.8311 67.9948 64.8382 68.109C64.8507 68.2983 64.8132 68.4357 64.7257 68.5196C64.6775 68.566 64.6026 68.6 64.5008 68.6214L64.5311 69.0713C64.7668 69.0552 64.9453 68.957 65.0667 68.7785C65.1542 68.6517 65.2042 68.4946 65.2185 68.309L65.5541 68.2858L65.5237 67.8412L65.1935 67.8645C65.1542 67.6699 65.0792 67.5163 64.9685 67.4039C64.8204 67.2539 64.6436 67.1861 64.4383 67.2003C64.2366 67.2146 64.0884 67.2914 63.992 67.4342C63.9295 67.5253 63.8831 67.6591 63.8546 67.8359L63.7885 68.2393C63.7635 68.3947 63.7385 68.4964 63.7153 68.5464C63.6814 68.6232 63.6225 68.6624 63.5421 68.6696C63.4547 68.6749 63.3833 68.6428 63.3297 68.5732C63.2761 68.5018 63.244 68.4054 63.2351 68.2804C63.2279 68.1679 63.2404 68.0733 63.2726 67.9948C63.3226 67.8769 63.4136 67.8109 63.5493 67.793L63.5171 67.3396C63.2779 67.3646 63.1012 67.4664 62.9869 67.6449C62.9137 67.7609 62.8673 67.8894 62.8477 68.0305L62.4924 68.0555L62.5246 68.4929Z" fill="#A6C4A8"/>
<path d="M63.7885 64.0959C64.3758 64.0602 64.8239 63.5567 64.79 62.9694C64.7543 62.382 64.2509 61.934 63.6635 61.9679C63.0762 62.0036 62.6281 62.507 62.662 63.0943C62.6977 63.6817 63.2012 64.1298 63.7885 64.0959Z" fill="white"/>
<path d="M64.4043 74.4697C64.9917 74.434 65.4398 73.9306 65.4058 73.3433C65.3701 72.7559 64.8667 72.3079 64.2794 72.3418C63.692 72.3775 63.2439 72.8809 63.2779 73.4682C63.3118 74.0556 63.817 74.5037 64.4043 74.4697Z" fill="white"/>
<path d="M57.1082 71.201C57.1082 71.201 59.072 68.325 59.8235 68.0108C60.4412 67.752 62.6817 67.1307 63.4582 66.9183C63.5939 66.8808 63.7224 66.9933 63.7064 67.1343C63.6617 67.5181 63.5154 68.1894 63.0476 68.5446C62.4496 68.9999 60.5662 70.0031 60.5662 70.0031L59.6593 74.1145L57.1082 71.201Z" fill="#DA8C8D"/>
<path d="M43.1818 234.299L42.7355 178.371H27.4701C28.2663 185.987 37.2745 235.464 37.2745 235.464H37.287L37.6887 237.624H47.4199L49.6336 236.4L43.1818 234.299Z" fill="#DA8C8D"/>
<mask id="mask8_52074_536420" style="mask-type:luminance" maskUnits="userSpaceOnUse" x="27" y="178" width="23" height="60">
<path d="M43.1818 234.299L42.7355 178.371H27.4701C28.2663 185.987 37.2745 235.464 37.2745 235.464H37.287L37.6887 237.624H47.4199L49.6336 236.4L43.1818 234.299Z" fill="white"/>
</mask>
<g mask="url(#mask8_52074_536420)">
<path d="M27.4701 189.843C27.4701 189.843 38.185 189.843 44.7885 186.542L43.8798 175.483L24.8655 176.474L27.4701 189.843Z" fill="#C17276"/>
</g>
<path d="M49.6371 236.4L52.6791 237.498C53.7342 237.878 54.5607 238.715 54.9285 239.774L55.091 240.242H37.4173L37.6922 237.624H47.4234L49.6371 236.4Z" fill="#1F1949"/>
<path d="M17.5711 234.299L24.8655 178.371H9.48047C10.2767 185.987 12.6742 234.682 12.6742 234.682L12.0797 237.623H21.811L24.0246 236.398L17.5711 234.299Z" fill="#DA8C8D"/>
<mask id="mask9_52074_536420" style="mask-type:luminance" maskUnits="userSpaceOnUse" x="9" y="178" width="16" height="60">
<path d="M17.5711 234.299L24.8655 178.371H9.48047C10.2767 185.987 12.6742 234.682 12.6742 234.682L12.0797 237.623H21.811L24.0246 236.398L17.5711 234.299Z" fill="white"/>
</mask>
<g mask="url(#mask9_52074_536420)">
<path d="M23.3891 189.686C23.3891 189.686 13.9524 189.845 9.48047 186.93V178.371H24.8655L23.3891 189.686Z" fill="#C17276"/>
</g>
<path d="M24.0282 236.4L27.0703 237.498C28.1253 237.878 28.9519 238.715 29.3196 239.774L29.4821 240.242H11.8066L12.0816 237.624H21.8128L24.0282 236.4Z" fill="#1F1949"/>
<path d="M30.0444 80.3968C30.0444 80.3968 42.6569 83.5941 43.7227 89.9513C44.1511 92.5059 40.254 123.713 40.254 123.713L48.8695 181.822C48.8695 181.822 22.6643 191.236 0.859619 181.433L12.2654 123.713C12.2654 123.713 4.78353 96.7155 11.6816 85.731C15.6412 79.4292 30.0444 80.3968 30.0444 80.3968Z" fill="#F9DD89"/>
<mask id="mask10_52074_536420" style="mask-type:luminance" maskUnits="userSpaceOnUse" x="0" y="80" width="49" height="106">
<path d="M30.0444 80.3968C30.0444 80.3968 42.6569 83.5941 43.7227 89.9513C44.1511 92.5059 40.254 123.713 40.254 123.713L48.8695 181.822C48.8695 181.822 22.6643 191.236 0.859619 181.433L12.2654 123.713C12.2654 123.713 4.78353 96.7155 11.6816 85.731C15.6412 79.4292 30.0444 80.3968 30.0444 80.3968Z" fill="white"/>
</mask>
<g mask="url(#mask10_52074_536420)">
<path opacity="0.53" d="M7.32385 103.653C7.32385 103.653 24.0263 103.797 28.725 96.7172C33.4255 89.6353 35.0358 80.3432 35.0358 80.3432L8.77345 76.6853L7.32385 103.653Z" fill="#F4C54E"/>
</g>
<mask id="mask11_52074_536420" style="mask-type:luminance" maskUnits="userSpaceOnUse" x="0" y="80" width="49" height="106">
<path d="M30.0444 80.3968C30.0444 80.3968 42.6569 83.5941 43.7227 89.9513C44.1511 92.5059 40.254 123.713 40.254 123.713L48.8695 181.822C48.8695 181.822 22.6643 191.236 0.859619 181.433L12.2654 123.713C12.2654 123.713 4.78353 96.7155 11.6816 85.731C15.6412 79.4292 30.0444 80.3968 30.0444 80.3968Z" fill="white"/>
</mask>
<g mask="url(#mask11_52074_536420)">
<path opacity="0.53" d="M5.70648 156.906C5.70648 156.906 10.864 174.123 22.6643 175.047C34.4646 175.972 48.8695 173.887 48.8695 173.887L51.9026 184.336C51.9026 184.336 31.8474 188.786 26.2008 188.593C20.5541 188.401 -1.89319 184.53 -1.89319 184.53L5.70648 156.906Z" fill="#F4C54E"/>
</g>
<path d="M38.7223 61.2271C38.7223 61.2271 39.8719 71.9813 38.7223 74.9983C37.5726 78.0153 28.725 76.0623 28.725 76.0623V60.2881L38.7223 61.2271Z" fill="#DA8C8D"/>
<path d="M38.7223 61.2271C36.7157 62.6177 35.5892 64.9957 35.1179 67.3914C34.6466 69.7854 34.7466 72.2508 34.6948 74.6894C34.5877 79.6559 33.7272 84.9026 30.9601 89.13C28.6715 92.629 24.9547 94.9998 20.9379 96.0245C18.8296 96.5619 16.6106 96.7315 14.4397 96.7136C13.6935 96.7083 6.69189 95.7764 6.6062 95.9371C9.90707 89.6317 6.25451 81.2733 11.8762 75.9016C13.3615 74.4823 15.3377 73.354 16.3356 71.5028C17.2407 69.8247 17.1836 67.8841 17.3104 66.0364C17.4193 64.4351 17.7924 62.8855 18.4475 61.4181C19.9436 58.0654 22.8106 55.2323 26.3186 54.0505C31.0262 52.4634 36.123 54.8163 38.1492 59.3454C38.4188 59.9471 38.6187 60.5772 38.7223 61.2271Z" fill="#343766"/>
<path d="M43.4478 88.9426L50.0709 106.024L36.1069 113.404C36.1069 113.402 32.0277 92.1185 43.4478 88.9426Z" fill="#F4C54E"/>
<path d="M12.2672 123.715C12.2672 123.715 24.3281 127.96 40.2558 123.715L40.6343 126.273C40.6343 126.273 26.615 131.131 11.7709 126.23L12.2672 123.715Z" fill="#39548B"/>
<path d="M18.7041 124.026L17.4158 123.884L16.8945 128.626L18.1828 128.767L18.7041 124.026Z" fill="#F2F3F7"/>
<path d="M31.0848 124.251L29.7986 124.411L30.3867 129.145L31.673 128.985L31.0848 124.251Z" fill="#F2F3F7"/>
<path d="M74.5963 128.98C74.5963 128.98 76.6528 127.627 76.7189 127.398C76.7849 127.169 74.2946 127.594 73.7804 127.726C73.2681 127.857 70.451 129.06 70.451 129.06L51.276 119.165L47.8394 107.204L37.8369 112.49C37.8369 112.49 42.241 125.131 45.3901 126.873C47.6877 128.144 61.9016 130.976 66.6324 131.895C67.6553 132.093 68.6943 132.195 69.7369 132.2C70.758 132.204 72.0309 132.206 72.77 132.188C74.1464 132.156 79.4217 131.131 79.4217 131.131L74.5963 128.98Z" fill="#DA8C8D"/>
<mask id="mask12_52074_536420" style="mask-type:luminance" maskUnits="userSpaceOnUse" x="37" y="107" width="43" height="26">
<path d="M74.5963 128.98C74.5963 128.98 76.6528 127.627 76.7189 127.398C76.7849 127.169 74.2946 127.594 73.7804 127.726C73.2681 127.857 70.451 129.06 70.451 129.06L51.276 119.165L47.8394 107.204L37.8369 112.49C37.8369 112.49 42.241 125.131 45.3901 126.873C47.6877 128.144 61.9016 130.976 66.6324 131.895C67.6553 132.093 68.6943 132.195 69.7369 132.2C70.758 132.204 72.0309 132.206 72.77 132.188C74.1464 132.156 79.4217 131.131 79.4217 131.131L74.5963 128.98Z" fill="white"/>
</mask>
<g mask="url(#mask12_52074_536420)">
<path d="M49.5319 110.76C47.0558 113.038 44.5297 115.264 42.025 117.511C41.427 118.047 40.8307 118.584 40.2327 119.12C39.0812 116.335 37.928 113.55 36.7765 110.767C40.2112 108.919 43.6442 107.071 47.079 105.222C47.179 105.168 49.4158 110.249 49.5319 110.76Z" fill="#C17276"/>
</g>
<path d="M216.898 213.014H216.503H175.056V227.754H178.66C180.961 227.754 182.825 225.889 182.825 223.589V221.459C182.825 219.821 184.153 218.492 185.792 218.492H192.897C193.561 218.492 194.199 218.757 194.668 219.226L197.28 221.838C197.971 222.529 198.908 222.918 199.885 222.918H216.501H216.896H233.993C234.969 222.918 235.907 222.531 236.598 221.84L239.209 219.228C239.679 218.758 240.316 218.494 240.98 218.494H248.085C249.724 218.494 251.053 219.822 251.053 221.461V223.591C251.053 225.892 252.918 227.756 255.217 227.756H258.822V213.015H216.898V213.014Z" fill="#8296C9"/>
<path d="M170.802 240.449H155.517C153.167 240.449 151.264 238.544 151.264 236.196V208.845H175.056V236.196C175.056 238.546 173.151 240.449 170.802 240.449Z" fill="#1F1949"/>
<path d="M277.893 240.449H262.608C260.259 240.449 258.356 238.544 258.356 236.196V208.845H282.147V236.196C282.147 238.546 280.243 240.449 277.893 240.449Z" fill="#1F1949"/>
<path d="M173.49 221.427H152.107C149.825 221.427 147.976 219.578 147.976 217.296V208.847H177.621V217.296C177.621 219.578 175.772 221.427 173.49 221.427Z" fill="#B2BFDF"/>
<path d="M280.942 221.427H259.561C257.279 221.427 255.43 219.578 255.43 217.296V208.847H285.075V217.296C285.073 219.578 283.224 221.427 280.942 221.427Z" fill="#B2BFDF"/>
<path d="M286.207 45.9332H147.758C144.637 45.9332 142.108 48.4629 142.108 51.5834V174.619V181.608V209.168C142.108 211.291 143.829 213.014 145.953 213.014H288.014C290.136 213.014 291.859 211.293 291.859 209.168V181.608V174.619V51.5834C291.857 48.4629 289.328 45.9332 286.207 45.9332Z" fill="#B2BFDF"/>
<mask id="mask13_52074_536420" style="mask-type:luminance" maskUnits="userSpaceOnUse" x="142" y="45" width="150" height="169">
<path d="M286.207 45.9332H147.758C144.637 45.9332 142.108 48.4629 142.108 51.5834V174.619V181.608V209.168C142.108 211.291 143.829 213.014 145.953 213.014H288.014C290.136 213.014 291.859 211.293 291.859 209.168V181.608V174.619V51.5834C291.857 48.4629 289.328 45.9332 286.207 45.9332Z" fill="white"/>
</mask>
<g mask="url(#mask13_52074_536420)">
<path d="M291.857 197.488H142.106V213.015H291.857V197.488Z" fill="#343766"/>
</g>
<path d="M282.153 55.0289H216.898V197.488H282.153V55.0289Z" fill="#8296C9"/>
<mask id="mask14_52074_536420" style="mask-type:luminance" maskUnits="userSpaceOnUse" x="216" y="55" width="67" height="143">
<path d="M282.153 55.0289H216.898V197.488H282.153V55.0289Z" fill="white"/>
</mask>
<g mask="url(#mask14_52074_536420)">
<path opacity="0.3" d="M245.168 98.9578V129.474H223.864V195.699H285.432V134.657V115.187V98.9578H245.168Z" fill="#39548B"/>
</g>
<path d="M229.791 210.468H204.173C203.623 210.468 203.175 210.022 203.175 209.47V200.899C203.175 200.349 203.621 199.901 204.173 199.901H229.791C230.34 199.901 230.788 200.347 230.788 200.899V209.47C230.788 210.022 230.342 210.468 229.791 210.468Z" fill="#E1E5EF"/>
<mask id="mask15_52074_536420" style="mask-type:luminance" maskUnits="userSpaceOnUse" x="203" y="199" width="28" height="12">
<path d="M229.791 210.468H204.173C203.623 210.468 203.175 210.022 203.175 209.47V200.899C203.175 200.349 203.621 199.901 204.173 199.901H229.791C230.34 199.901 230.788 200.347 230.788 200.899V209.47C230.788 210.022 230.342 210.468 229.791 210.468Z" fill="white"/>
</mask>
<g mask="url(#mask15_52074_536420)">
<path d="M221.104 199.225L216.309 211.503H208.707L213.384 199.107L221.104 199.225Z" fill="#CAD2EA"/>
</g>
<mask id="mask16_52074_536420" style="mask-type:luminance" maskUnits="userSpaceOnUse" x="203" y="199" width="28" height="12">
<path d="M229.791 210.468H204.173C203.623 210.468 203.175 210.022 203.175 209.47V200.899C203.175 200.349 203.621 199.901 204.173 199.901H229.791C230.34 199.901 230.788 200.347 230.788 200.899V209.47C230.788 210.022 230.342 210.468 229.791 210.468Z" fill="white"/>
</mask>
<g mask="url(#mask16_52074_536420)">
<path d="M224.608 199.294L219.947 211.26H223.348L228.512 198.917L224.608 199.294Z" fill="#CAD2EA"/>
</g>
<path d="M282.151 140.971H232.117V197.486H282.151V140.971Z" fill="#F1CA89"/>
<mask id="mask17_52074_536420" style="mask-type:luminance" maskUnits="userSpaceOnUse" x="232" y="140" width="51" height="58">
<path d="M282.151 140.971H232.117V197.486H282.151V140.971Z" fill="white"/>
</mask>
<g mask="url(#mask17_52074_536420)">
<path d="M261.641 140.971H254.234V145.034H261.641V140.971Z" fill="white"/>
</g>
<mask id="mask18_52074_536420" style="mask-type:luminance" maskUnits="userSpaceOnUse" x="232" y="140" width="51" height="58">
<path d="M282.151 140.971H232.117V197.486H282.151V140.971Z" fill="white"/>
</mask>
<g mask="url(#mask18_52074_536420)">
<path d="M276.217 138.324L262.355 199.701H286.484V138.068L276.217 138.324Z" fill="#F1B873"/>
</g>
<path d="M282.151 103.867H252.652V140.971H282.151V103.867Z" fill="#F1CA89"/>
<mask id="mask19_52074_536420" style="mask-type:luminance" maskUnits="userSpaceOnUse" x="252" y="103" width="31" height="38">
<path d="M282.151 103.867H252.652V140.971H282.151V103.867Z" fill="white"/>
</mask>
<g mask="url(#mask19_52074_536420)">
<path d="M270.329 103.867H265.24V107.079H270.329V103.867Z" fill="white"/>
</g>
<path opacity="0.8" d="M282.151 141.216H252.652C252.518 141.216 252.408 141.107 252.408 140.971C252.408 140.835 252.516 140.727 252.652 140.727H282.151C282.285 140.727 282.396 140.835 282.396 140.971C282.396 141.107 282.287 141.216 282.151 141.216Z" fill="#ED963E"/>
<path d="M165.357 208.352H148.701C148.32 208.352 148.013 208.045 148.013 207.665V201.942C148.013 201.561 148.32 201.254 148.701 201.254H165.357C165.737 201.254 166.044 201.561 166.044 201.942V207.665C166.046 208.043 165.737 208.352 165.357 208.352Z" fill="#F9DD89"/>
<mask id="mask20_52074_536420" style="mask-type:luminance" maskUnits="userSpaceOnUse" x="148" y="201" width="19" height="8">
<path d="M165.357 208.352H148.701C148.32 208.352 148.013 208.045 148.013 207.665V201.942C148.013 201.561 148.32 201.254 148.701 201.254H165.357C165.737 201.254 166.044 201.561 166.044 201.942V207.665C166.046 208.043 165.737 208.352 165.357 208.352Z" fill="white"/>
</mask>
<g mask="url(#mask20_52074_536420)">
<path d="M157.03 199.901L153.701 210.468H146.378V199.901H157.03Z" fill="#F4C54E"/>
</g>
<path d="M284.745 208.352H268.089C267.709 208.352 267.402 208.045 267.402 207.665V201.942C267.402 201.561 267.709 201.254 268.089 201.254H284.745C285.125 201.254 285.432 201.561 285.432 201.942V207.665C285.432 208.043 285.125 208.352 284.745 208.352Z" fill="#F9DD89"/>
<mask id="mask21_52074_536420" style="mask-type:luminance" maskUnits="userSpaceOnUse" x="267" y="201" width="19" height="8">
<path d="M284.745 208.352H268.089C267.709 208.352 267.402 208.045 267.402 207.665V201.942C267.402 201.561 267.709 201.254 268.089 201.254H284.745C285.125 201.254 285.432 201.561 285.432 201.942V207.665C285.432 208.043 285.125 208.352 284.745 208.352Z" fill="white"/>
</mask>
<g mask="url(#mask21_52074_536420)">
<path d="M281.405 199.901L278.161 209.575H265.497V199.901H281.405Z" fill="#F4C54E"/>
</g>
<path d="M216.898 55.0288H151.643V197.487H216.898V55.0288Z" fill="#CAD2EA"/>
<path d="M153.699 75.8623H149.584V89.7763H153.699V75.8623Z" fill="#8296C9"/>
<path d="M153.699 120.741H149.584V134.655H153.699V120.741Z" fill="#8296C9"/>
<path d="M153.699 165.621H149.584V179.535H153.699V165.621Z" fill="#8296C9"/>
<path d="M152.121 197.489L151.162 197.487L151.366 55.5269C151.366 55.2627 151.58 55.0485 151.844 55.0485L217.46 55.0074V55.9661L152.323 56.0072L152.121 197.489Z" fill="#8296C9"/>
<path d="M163.605 134.282C162.281 134.282 161.202 133.204 161.202 131.879V71.3779C161.202 70.0533 162.281 68.975 163.605 68.975H206.993C208.318 68.975 209.396 70.0533 209.396 71.3779V131.879C209.396 133.204 208.318 134.282 206.993 134.282H163.605Z" fill="#8296C9"/>
<path d="M206.422 132.257H164.175C163.527 132.257 163.002 131.733 163.002 131.084V72.1723C163.002 71.5242 163.527 70.9994 164.175 70.9994H206.422C207.07 70.9994 207.595 71.5242 207.595 72.1723V131.084C207.595 131.733 207.07 132.257 206.422 132.257Z" fill="url(#paint0_linear_52074_536420)"/>
<mask id="mask22_52074_536420" style="mask-type:luminance" maskUnits="userSpaceOnUse" x="163" y="70" width="45" height="63">
<path d="M206.422 132.257H164.175C163.527 132.257 163.002 131.733 163.002 131.084V72.1723C163.002 71.5242 163.527 70.9994 164.175 70.9994H206.422C207.07 70.9994 207.595 71.5242 207.595 72.1723V131.084C207.595 131.733 207.07 132.257 206.422 132.257Z" fill="white"/>
</mask>
<g mask="url(#mask22_52074_536420)">
<path opacity="0.43" d="M211.106 75.4053L157.416 101.628V122.419L211.106 96.8904V75.4053Z" fill="url(#paint1_linear_52074_536420)"/>
</g>
<mask id="mask23_52074_536420" style="mask-type:luminance" maskUnits="userSpaceOnUse" x="163" y="70" width="45" height="63">
<path d="M206.422 132.257H164.175C163.527 132.257 163.002 131.733 163.002 131.084V72.1723C163.002 71.5242 163.527 70.9994 164.175 70.9994H206.422C207.07 70.9994 207.595 71.5242 207.595 72.1723V131.084C207.595 131.733 207.07 132.257 206.422 132.257Z" fill="white"/>
</mask>
<g mask="url(#mask23_52074_536420)">
<path opacity="0.43" d="M157.607 106.249L213.863 78.5455L214.386 68.975H158.241L157.607 106.249Z" fill="url(#paint2_linear_52074_536420)"/>
</g>
<mask id="mask24_52074_536420" style="mask-type:luminance" maskUnits="userSpaceOnUse" x="163" y="70" width="45" height="63">
<path d="M206.422 132.257H164.175C163.527 132.257 163.002 131.733 163.002 131.084V72.1723C163.002 71.5242 163.527 70.9994 164.175 70.9994H206.422C207.07 70.9994 207.595 71.5242 207.595 72.1723V131.084C207.595 131.733 207.07 132.257 206.422 132.257Z" fill="white"/>
</mask>
<g mask="url(#mask24_52074_536420)">
<path opacity="0.43" d="M211.144 104.008L159.241 129.421V134.153H211.356L211.144 104.008Z" fill="url(#paint3_linear_52074_536420)"/>
</g>
<path d="M291.857 195.838V52.5099C291.857 51.6923 292.521 51.0282 293.339 51.0282H359.608C360.426 51.0282 361.09 51.6923 361.09 52.5099V195.838C361.09 196.656 360.426 197.32 359.608 197.32H293.339C292.521 197.32 291.857 196.657 291.857 195.838Z" fill="#8296C9"/>
<path d="M359.171 52.9615H293.916V195.42H359.171V52.9615Z" fill="#CAD2EA"/>
<mask id="mask25_52074_536420" style="mask-type:luminance" maskUnits="userSpaceOnUse" x="293" y="52" width="67" height="144">
<path d="M359.171 52.9615H293.916V195.42H359.171V52.9615Z" fill="white"/>
</mask>
<g mask="url(#mask25_52074_536420)">
<path opacity="0.13" d="M355.641 127.473H345.848L317.543 204.803H356.721V127.473" fill="#39548B"/>
</g>
<path d="M296.692 73.7969H291.857V87.7109H296.692V73.7969Z" fill="#8296C9"/>
<path d="M296.692 118.675H291.857V132.589H296.692V118.675Z" fill="#8296C9"/>
<path d="M296.692 163.554H291.857V177.468H296.692V163.554Z" fill="#8296C9"/>
<path d="M305.878 132.216C304.554 132.216 303.475 131.138 303.475 129.813V69.3125C303.475 67.9878 304.554 66.9095 305.878 66.9095H349.266C350.591 66.9095 351.669 67.9878 351.669 69.3125V129.813C351.669 131.138 350.591 132.216 349.266 132.216H305.878Z" fill="#8296C9"/>
<path d="M348.695 130.19H306.448C305.8 130.19 305.275 129.665 305.275 129.017V70.105C305.275 69.457 305.8 68.9321 306.448 68.9321H348.695C349.343 68.9321 349.868 69.457 349.868 70.105V129.017C349.868 129.665 349.343 130.19 348.695 130.19Z" fill="url(#paint4_linear_52074_536420)"/>
<mask id="mask26_52074_536420" style="mask-type:luminance" maskUnits="userSpaceOnUse" x="305" y="68" width="45" height="63">
<path d="M348.695 130.19H306.448C305.8 130.19 305.275 129.665 305.275 129.017V70.105C305.275 69.457 305.8 68.9321 306.448 68.9321H348.695C349.343 68.9321 349.868 69.457 349.868 70.105V129.017C349.868 129.665 349.343 130.19 348.695 130.19Z" fill="white"/>
</mask>
<g mask="url(#mask26_52074_536420)">
<path opacity="0.43" d="M353.388 70.0907L299.698 96.3138V117.104L353.388 91.5758V70.0907Z" fill="url(#paint5_linear_52074_536420)"/>
</g>
<mask id="mask27_52074_536420" style="mask-type:luminance" maskUnits="userSpaceOnUse" x="305" y="68" width="45" height="63">
<path d="M348.695 130.19H306.448C305.8 130.19 305.275 129.665 305.275 129.017V70.105C305.275 69.457 305.8 68.9321 306.448 68.9321H348.695C349.343 68.9321 349.868 69.457 349.868 70.105V129.017C349.868 129.665 349.343 130.19 348.695 130.19Z" fill="white"/>
</mask>
<g mask="url(#mask27_52074_536420)">
<path opacity="0.43" d="M301.128 90.9188L351.667 66.9094H300.514L301.128 90.9188Z" fill="url(#paint6_linear_52074_536420)"/>
</g>
<mask id="mask28_52074_536420" style="mask-type:luminance" maskUnits="userSpaceOnUse" x="305" y="68" width="45" height="63">
<path d="M348.695 130.19H306.448C305.8 130.19 305.275 129.665 305.275 129.017V70.105C305.275 69.457 305.8 68.9321 306.448 68.9321H348.695C349.343 68.9321 349.868 69.457 349.868 70.105V129.017C349.868 129.665 349.343 130.19 348.695 130.19Z" fill="white"/>
</mask>
<g mask="url(#mask28_52074_536420)">
<path opacity="0.43" d="M352.389 88.2303L300.485 113.643V134.88L352.601 135.458L352.389 88.2303Z" fill="url(#paint7_linear_52074_536420)"/>
</g>
<path d="M364.482 240.845H5.39227C5.02808 240.845 4.73352 240.484 4.73352 240.038C4.73352 239.592 5.02808 239.231 5.39227 239.231H364.482C364.846 239.231 365.14 239.592 365.14 240.038C365.14 240.484 364.844 240.845 364.482 240.845Z" fill="#1F1949"/>
<path d="M177.07 190.806H126.444V239.324H177.07V190.806Z" fill="#F1CA89"/>
<path d="M191.255 190.806H177.07V239.324H191.255V190.806Z" fill="#F1B873"/>
<path d="M156.211 190.806H148.833V204.163H156.211V190.806Z" fill="#F2F3F7"/>
<path d="M186.786 190.806H182.252V204.163H186.786V190.806Z" fill="#F2F3F7"/>
<path d="M184.678 142.287H134.053V190.806H184.678V142.287Z" fill="#F1CA89"/>
<path d="M198.862 142.287H184.676V190.806H198.862V142.287Z" fill="#F1B873"/>
<path d="M163.82 142.287H156.441V155.644H163.82V142.287Z" fill="#F2F3F7"/>
<path d="M194.393 142.287H189.859V155.644H194.393V142.287Z" fill="#F2F3F7"/>
<path opacity="0.8" d="M184.676 191.116H134.053C133.882 191.116 133.742 190.977 133.742 190.805C133.742 190.634 133.882 190.495 134.053 190.495H184.678C184.85 190.495 184.989 190.634 184.989 190.805C184.989 190.977 184.85 191.116 184.676 191.116Z" fill="#ED963E"/>
<defs>
<linearGradient id="paint0_linear_52074_536420" x1="213.161" y1="60.1747" x2="76.0958" y2="264.101" gradientUnits="userSpaceOnUse">
<stop offset="0.00051751" stop-color="#E1E5EF"/>
<stop offset="0.9995" stop-color="#E1E5EF"/>
</linearGradient>
<linearGradient id="paint1_linear_52074_536420" x1="210.11" y1="60.8009" x2="83.7385" y2="248.817" gradientUnits="userSpaceOnUse">
<stop offset="0.00051751" stop-color="#E1E5EF"/>
<stop offset="0.9995" stop-color="#E1E5EF"/>
</linearGradient>
<linearGradient id="paint2_linear_52074_536420" x1="202.941" y1="48.6328" x2="88.2256" y2="219.306" gradientUnits="userSpaceOnUse">
<stop offset="0.00051751" stop-color="#E1E5EF"/>
<stop offset="0.9995" stop-color="#E1E5EF"/>
</linearGradient>
<linearGradient id="paint3_linear_52074_536420" x1="211.251" y1="93.1741" x2="112.358" y2="240.308" gradientUnits="userSpaceOnUse">
<stop offset="0.00051751" stop-color="#E1E5EF"/>
<stop offset="0.9995" stop-color="#E1E5EF"/>
</linearGradient>
<linearGradient id="paint4_linear_52074_536420" x1="355.434" y1="58.1085" x2="218.369" y2="262.035" gradientUnits="userSpaceOnUse">
<stop offset="0.00051751" stop-color="#E1E5EF"/>
<stop offset="0.9995" stop-color="#E1E5EF"/>
</linearGradient>
<linearGradient id="paint5_linear_52074_536420" x1="352.392" y1="55.4857" x2="226.02" y2="243.502" gradientUnits="userSpaceOnUse">
<stop offset="0.00051751" stop-color="#E1E5EF"/>
<stop offset="0.9995" stop-color="#E1E5EF"/>
</linearGradient>
<linearGradient id="paint6_linear_52074_536420" x1="338.552" y1="48.3703" x2="250.381" y2="179.551" gradientUnits="userSpaceOnUse">
<stop offset="0.00051751" stop-color="#E1E5EF"/>
<stop offset="0.9995" stop-color="#E1E5EF"/>
</linearGradient>
<linearGradient id="paint7_linear_52074_536420" x1="357.731" y1="78.1481" x2="233.739" y2="262.625" gradientUnits="userSpaceOnUse">
<stop offset="0.00051751" stop-color="#E1E5EF"/>
<stop offset="0.9995" stop-color="#E1E5EF"/>
</linearGradient>
</defs>
</svg>
