<svg width="309" height="200" viewBox="0 0 309 200" fill="none" xmlns="http://www.w3.org/2000/svg">
<path d="M96.4051 129.08H39.5128V199.549H96.4051V129.08Z" fill="#F1CA89"/>
<path d="M140.112 129.08H96.4052V199.549H140.112V129.08Z" fill="#F1B873"/>
<path d="M96.5489 77.9006H55.2288V129.081H96.5489V77.9006Z" fill="#F1CA89"/>
<path d="M128.291 77.9006H96.5472V129.081H128.291V77.9006Z" fill="#F1B873"/>
<path d="M96.4052 129.468H43.7563C43.5424 129.468 43.3679 129.294 43.3679 129.08C43.3679 128.866 43.5424 128.691 43.7563 128.691H96.4052C96.619 128.691 96.7936 128.866 96.7936 129.08C96.7936 129.294 96.619 129.468 96.4052 129.468Z" fill="#E5A251"/>
<path d="M140.112 129.468H100.705C100.491 129.468 100.317 129.294 100.317 129.08C100.317 128.866 100.491 128.691 100.705 128.691H140.112C140.326 128.691 140.501 128.866 140.501 129.08C140.501 129.294 140.326 129.468 140.112 129.468Z" fill="#E5A251"/>
<path d="M49.1632 91.0449H19.6152V150.02H49.1632V91.0449Z" fill="#F1CA89"/>
<path d="M59.5407 91.0449H43.2755V150.02H59.5407V91.0449Z" fill="#F1B873"/>
<path d="M19.6151 93.8459H16.5797V150.02H19.6151V93.8459Z" fill="#EFA856"/>
<path d="M49.9298 150.145H8.64227V199.549H49.9298V150.145Z" fill="#F1CA89"/>
<path d="M70.6557 150.02H49.9298V199.549H70.6557V150.02Z" fill="#EFA856"/>
<path d="M45.2621 150.468H8.64224C8.46429 150.468 8.31885 150.322 8.31885 150.144C8.31885 149.966 8.46429 149.821 8.64224 149.821H45.2638C45.4417 149.821 45.5872 149.966 45.5872 150.144C45.5872 150.322 45.4417 150.468 45.2621 150.468Z" fill="#E5A251"/>
<path d="M8.64048 154.208H4.70679V199.548H8.64048V154.208Z" fill="#E5A251"/>
<path d="M93.3253 81.1892H69.1961V98.0807H93.3253V81.1892Z" fill="#F2F3F7"/>
<path d="M79.839 83.0012H71.1452V90.381H79.839V83.0012Z" fill="#CAD2EA"/>
<path d="M91.2038 92.1775H71.1452V93.0809H91.2038V92.1775Z" fill="#CAD2EA"/>
<path d="M91.2038 93.6885H71.1452V94.5919H91.2038V93.6885Z" fill="#CAD2EA"/>
<path d="M81.2609 95.1995H71.1452V96.1029H81.2609V95.1995Z" fill="#CAD2EA"/>
<path d="M82.462 83.0012H81.8871V85.6602H82.462V83.0012Z" fill="#CAD2EA"/>
<path d="M85.0182 83.0012H83.0984V85.6602H85.0182V83.0012Z" fill="#CAD2EA"/>
<path d="M86.0944 83.0012H85.5195V85.6602H86.0944V83.0012Z" fill="#CAD2EA"/>
<path d="M87.3042 83.0012H86.7292V85.6602H87.3042V83.0012Z" fill="#CAD2EA"/>
<path d="M88.5156 83.0012H87.9407V85.6602H88.5156V83.0012Z" fill="#CAD2EA"/>
<path d="M89.7254 83.0012H89.1504V85.6602H89.7254V83.0012Z" fill="#CAD2EA"/>
<path d="M90.9368 83.0012H90.3619V85.6602H90.9368V83.0012Z" fill="#CAD2EA"/>
<path d="M86.7294 86.6921H81.8871V87.2534H86.7294V86.6921Z" fill="#CAD2EA"/>
<path d="M89.4379 87.7632H81.8871V88.3244H89.4379V87.7632Z" fill="#CAD2EA"/>
<path d="M84.8232 88.8359H81.8871V89.3972H84.8232V88.8359Z" fill="#CAD2EA"/>
<path d="M88.425 89.9087H81.8871V90.4699H88.425V89.9087Z" fill="#CAD2EA"/>
<path d="M77.5718 132.466H62.5898V142.955H77.5718V132.466Z" fill="#F2F3F7"/>
<path d="M69.1979 133.592H63.7996V138.174H69.1979V133.592Z" fill="#CAD2EA"/>
<path d="M76.2543 139.289H63.7996V139.851H76.2543V139.289Z" fill="#CAD2EA"/>
<path d="M76.2543 140.227H63.7996V140.788H76.2543V140.227Z" fill="#CAD2EA"/>
<path d="M70.0808 141.165H63.7996V141.726H70.0808V141.165Z" fill="#CAD2EA"/>
<path d="M70.8268 133.592H70.4692V135.243H70.8268V133.592Z" fill="#CAD2EA"/>
<path d="M72.4113 133.592H71.2204V135.243H72.4113V133.592Z" fill="#CAD2EA"/>
<path d="M73.082 133.592H72.7244V135.243H73.082V133.592Z" fill="#CAD2EA"/>
<path d="M73.8331 133.592H73.4755V135.243H73.8331V133.592Z" fill="#CAD2EA"/>
<path d="M74.5859 133.592H74.2283V135.243H74.5859V133.592Z" fill="#CAD2EA"/>
<path d="M75.3372 133.592H74.9796V135.243H75.3372V133.592Z" fill="#CAD2EA"/>
<path d="M76.0883 133.592H75.7307V135.243H76.0883V133.592Z" fill="#CAD2EA"/>
<path d="M73.4755 135.883H70.4692V136.232H73.4755V135.883Z" fill="#CAD2EA"/>
<path d="M75.1575 136.549H70.4692V136.898H75.1575V136.549Z" fill="#CAD2EA"/>
<path d="M72.2915 137.214H70.4692V137.563H72.2915V137.214Z" fill="#CAD2EA"/>
<path d="M74.5295 137.88H70.4692V138.229H74.5295V137.88Z" fill="#CAD2EA"/>
<path d="M30.4015 155.87H13.5049V167.698H30.4015V155.87Z" fill="#F2F3F7"/>
<path d="M20.9566 157.139H14.8687V162.308H20.9566V157.139Z" fill="#CAD2EA"/>
<path d="M28.9163 163.564H14.8687V164.198H28.9163V163.564Z" fill="#CAD2EA"/>
<path d="M28.9163 164.624H14.8687V165.257H28.9163V164.624Z" fill="#CAD2EA"/>
<path d="M21.9524 165.681H14.8687V166.314H21.9524V165.681Z" fill="#CAD2EA"/>
<path d="M22.796 157.139H22.3922V159.001H22.796V157.139Z" fill="#CAD2EA"/>
<path d="M24.584 157.139H23.2391V159.001H24.584V157.139Z" fill="#CAD2EA"/>
<path d="M25.3387 157.139H24.9349V159.001H25.3387V157.139Z" fill="#CAD2EA"/>
<path d="M26.1873 157.139H25.7834V159.001H26.1873V157.139Z" fill="#CAD2EA"/>
<path d="M27.0344 157.139H26.6306V159.001H27.0344V157.139Z" fill="#CAD2EA"/>
<path d="M27.8831 157.139H27.4792V159.001H27.8831V157.139Z" fill="#CAD2EA"/>
<path d="M28.7299 157.139H28.3261V159.001H28.7299V157.139Z" fill="#CAD2EA"/>
<path d="M25.7834 159.723H22.3922V160.116H25.7834V159.723Z" fill="#CAD2EA"/>
<path d="M27.681 160.474H22.3922V160.868H27.681V160.474Z" fill="#CAD2EA"/>
<path d="M24.4488 161.225H22.3922V161.619H24.4488V161.225Z" fill="#CAD2EA"/>
<path d="M26.9709 161.975H22.3922V162.368H26.9709V161.975Z" fill="#CAD2EA"/>
<path d="M31.8697 93.8459H21.9542V100.788H31.8697V93.8459Z" fill="#F2F3F7"/>
<path d="M26.3276 94.5903H22.7549V97.6223H26.3276V94.5903Z" fill="#CAD2EA"/>
<path d="M30.9971 98.3616H22.7549V98.7329H30.9971V98.3616Z" fill="#CAD2EA"/>
<path d="M30.9971 98.9827H22.7549V99.354H30.9971V98.9827Z" fill="#CAD2EA"/>
<path d="M26.9111 99.6038H22.7549V99.9751H26.9111V99.6038Z" fill="#CAD2EA"/>
<path d="M27.4038 94.5903H27.1677V95.6837H27.4038V94.5903Z" fill="#CAD2EA"/>
<path d="M28.4543 94.5903H27.6655V95.6837H28.4543V94.5903Z" fill="#CAD2EA"/>
<path d="M28.8975 94.5903H28.6614V95.6837H28.8975V94.5903Z" fill="#CAD2EA"/>
<path d="M29.3937 94.5903H29.1576V95.6837H29.3937V94.5903Z" fill="#CAD2EA"/>
<path d="M29.8917 94.5903H29.6556V95.6837H29.8917V94.5903Z" fill="#CAD2EA"/>
<path d="M30.3896 94.5903H30.1534V95.6837H30.3896V94.5903Z" fill="#CAD2EA"/>
<path d="M30.8857 94.5903H30.6496V95.6837H30.8857V94.5903Z" fill="#CAD2EA"/>
<path d="M29.1576 96.1079H27.1677V96.3389H29.1576V96.1079Z" fill="#CAD2EA"/>
<path d="M30.2715 96.5476H27.1677V96.7786H30.2715V96.5476Z" fill="#CAD2EA"/>
<path d="M28.3739 96.9893H27.1677V97.2202H28.3739V96.9893Z" fill="#CAD2EA"/>
<path d="M29.854 97.429H27.1677V97.66H29.854V97.429Z" fill="#CAD2EA"/>
<path d="M43.2756 109.254C43.0566 109.254 42.8786 109.076 42.8786 108.857V91.0447C42.8786 90.8256 43.0566 90.6477 43.2756 90.6477C43.4946 90.6477 43.6725 90.8256 43.6725 91.0447V108.857C43.6725 109.076 43.4963 109.254 43.2756 109.254Z" fill="#E5A251"/>
<path d="M96.4051 199.946C96.1861 199.946 96.0082 199.768 96.0082 199.549V164.315C96.0082 164.096 96.1861 163.918 96.4051 163.918C96.6241 163.918 96.8021 164.096 96.8021 164.315V199.549C96.8021 199.768 96.6241 199.946 96.4051 199.946Z" fill="#E5A251"/>
<path d="M96.5472 87.0887C96.3282 87.0887 96.1503 86.9108 96.1503 86.6917V77.9004C96.1503 77.6814 96.3282 77.5034 96.5472 77.5034C96.7663 77.5034 96.9442 77.6814 96.9442 77.9004V86.6917C96.9442 86.9108 96.7663 87.0887 96.5472 87.0887Z" fill="#E5A251"/>
<path d="M222.22 199.549H132.972C128.378 199.549 124.653 195.824 124.653 191.23V8.31911C124.653 3.72495 128.378 0 132.972 0H222.22C226.814 0 230.539 3.72495 230.539 8.31911V191.23C230.539 195.824 226.816 199.549 222.22 199.549Z" fill="#39548B"/>
<path d="M222.107 23.2874H133.087V190.551H222.107V23.2874Z" fill="white"/>
<path d="M187.72 7.85372H168.916C168.031 7.85372 167.313 7.13679 167.313 6.25047C167.313 5.36586 168.03 4.64722 168.916 4.64722H187.72C188.605 4.64722 189.324 5.36415 189.324 6.25047C189.324 7.13508 188.605 7.85372 187.72 7.85372Z" fill="white"/>
<path d="M153.126 53.0237H147.964V83.2493H153.126V53.0237Z" fill="#8296C9"/>
<path d="M156.487 53.0237H155.678V83.2493H156.487V53.0237Z" fill="#8296C9"/>
<path d="M163.891 53.0237H160.537V83.2493H163.891V53.0237Z" fill="#8296C9"/>
<path d="M171.987 53.0237H166.825V83.2493H171.987V53.0237Z" fill="#8296C9"/>
<path d="M178.274 53.0237H173.112V83.2493H178.274V53.0237Z" fill="#8296C9"/>
<path d="M181.98 53.0237H179.398V83.2493H181.98V53.0237Z" fill="#8296C9"/>
<path d="M189.921 53.0237H184.759V83.2493H189.921V53.0237Z" fill="#8296C9"/>
<path d="M194.919 53.0237H192.337V83.2493H194.919V53.0237Z" fill="#8296C9"/>
<path d="M203.421 53.0237H198.259V83.2493H203.421V53.0237Z" fill="#8296C9"/>
<path d="M208.419 53.0237H205.837V83.2493H208.419V53.0237Z" fill="#8296C9"/>
<path d="M148.64 86.5327L149.136 87.378C149.266 87.597 149.374 87.8006 149.489 88.0213H149.511C149.626 87.7852 149.74 87.5816 149.857 87.3711L150.344 86.5327H151.027L149.841 88.4354L151.063 90.4681H150.344L149.834 89.5818C149.698 89.3542 149.583 89.1335 149.461 88.8991H149.448C149.333 89.1352 149.21 89.3457 149.082 89.5818L148.578 90.4681H147.882L149.117 88.4594L147.939 86.531H148.64V86.5327Z" fill="#8296C9"/>
<path d="M151.965 86.5327L152.461 87.378C152.591 87.597 152.699 87.8006 152.813 88.0213H152.836C152.95 87.7852 153.065 87.5816 153.181 87.3711L153.669 86.5327H154.352L153.166 88.4354L154.387 90.4681H153.669L153.159 89.5818C153.022 89.3542 152.907 89.1335 152.786 88.8991H152.772C152.658 89.1352 152.536 89.3457 152.406 89.5818L151.903 90.4681H151.207L152.442 88.4594L151.263 86.531H151.965V86.5327Z" fill="#8296C9"/>
<path d="M156.417 88.0044V88.5331H154.642V88.0044H156.417Z" fill="#8296C9"/>
<path d="M157.452 86.5327L157.948 87.378C158.078 87.597 158.186 87.8006 158.301 88.0213H158.323C158.438 87.7852 158.552 87.5816 158.669 87.3711L159.156 86.5327H159.839L158.653 88.4354L159.875 90.4681H159.156L158.646 89.5818C158.509 89.3542 158.395 89.1335 158.273 88.8991H158.26C158.145 89.1352 158.022 89.3457 157.893 89.5818L157.39 90.4681H156.694L157.929 88.4594L156.751 86.531H157.452V86.5327Z" fill="#8296C9"/>
<path d="M160.777 86.5327L161.273 87.378C161.403 87.597 161.511 87.8006 161.625 88.0213H161.648C161.762 87.7852 161.877 87.5816 161.993 87.3711L162.481 86.5327H163.163L161.978 88.4354L163.199 90.4681H162.481L161.971 89.5818C161.834 89.3542 161.719 89.1335 161.598 88.8991H161.584C161.47 89.1352 161.346 89.3457 161.218 89.5818L160.715 90.4681H160.019L161.254 88.4594L160.075 86.531H160.777V86.5327Z" fill="#8296C9"/>
<path d="M164.101 86.5327L164.597 87.378C164.727 87.597 164.835 87.8006 164.95 88.0213H164.972C165.087 87.7852 165.201 87.5816 165.318 87.3711L165.805 86.5327H166.488L165.302 88.4354L166.524 90.4681H165.805L165.295 89.5818C165.159 89.3542 165.044 89.1335 164.922 88.8991H164.909C164.794 89.1352 164.671 89.3457 164.543 89.5818L164.04 90.4681H163.343L164.579 88.4594L163.4 86.531H164.101V86.5327Z" fill="#8296C9"/>
<path d="M168.553 88.0044V88.5331H166.779V88.0044H168.553Z" fill="#8296C9"/>
<path d="M169.587 86.5327L170.083 87.378C170.213 87.597 170.321 87.8006 170.435 88.0213H170.458C170.572 87.7852 170.687 87.5816 170.803 87.3711L171.291 86.5327H171.974L170.788 88.4354L172.01 90.4681H171.291L170.781 89.5818C170.644 89.3542 170.53 89.1335 170.408 88.8991H170.394C170.28 89.1352 170.157 89.3457 170.028 89.5818L169.525 90.4681H168.829L170.064 88.4594L168.885 86.531H169.587V86.5327Z" fill="#8296C9"/>
<path d="M172.913 86.5327L173.409 87.378C173.539 87.597 173.647 87.8006 173.762 88.0213H173.784C173.899 87.7852 174.013 87.5816 174.13 87.3711L174.617 86.5327H175.3L174.114 88.4354L175.336 90.4681H174.617L174.107 89.5818C173.97 89.3542 173.856 89.1335 173.734 88.8991H173.721C173.606 89.1352 173.483 89.3457 173.354 89.5818L172.851 90.4681H172.155L173.39 88.4594L172.213 86.531H172.913V86.5327Z" fill="#8296C9"/>
<path d="M176.238 86.5327L176.734 87.378C176.864 87.597 176.972 87.8006 177.086 88.0213H177.109C177.223 87.7852 177.338 87.5816 177.454 87.3711L177.942 86.5327H178.625L177.439 88.4354L178.66 90.4681H177.942L177.432 89.5818C177.295 89.3542 177.18 89.1335 177.059 88.8991H177.045C176.931 89.1352 176.807 89.3457 176.679 89.5818L176.176 90.4681H175.48L176.715 88.4594L175.536 86.531H176.238V86.5327Z" fill="#8296C9"/>
<path d="M180.69 88.0044V88.5331H178.915V88.0044H180.69Z" fill="#8296C9"/>
<path d="M181.723 86.5327L182.219 87.378C182.349 87.597 182.457 87.8006 182.572 88.0213H182.594C182.709 87.7852 182.823 87.5816 182.94 87.3711L183.427 86.5327H184.11L182.924 88.4354L184.146 90.4681H183.427L182.917 89.5818C182.781 89.3542 182.666 89.1335 182.545 88.8991H182.531C182.416 89.1352 182.293 89.3457 182.165 89.5818L181.662 90.4681H180.965L182.201 88.4594L181.023 86.531H181.723V86.5327Z" fill="#8296C9"/>
<path d="M185.049 86.5327L185.546 87.378C185.676 87.597 185.783 87.8006 185.898 88.0213H185.92C186.035 87.7852 186.15 87.5816 186.266 87.3711L186.754 86.5327H187.436L186.251 88.4354L187.472 90.4681H186.754L186.244 89.5818C186.107 89.3542 185.992 89.1335 185.871 88.8991H185.857C185.742 89.1352 185.619 89.3457 185.491 89.5818L184.988 90.4681H184.291L185.527 88.4594L184.348 86.531H185.049V86.5327Z" fill="#8296C9"/>
<path d="M188.374 86.5327L188.87 87.378C189 87.597 189.108 87.8006 189.223 88.0213H189.245C189.36 87.7852 189.474 87.5816 189.591 87.3711L190.078 86.5327H190.761L189.575 88.4354L190.797 90.4681H190.078L189.568 89.5818C189.432 89.3542 189.317 89.1335 189.195 88.8991H189.182C189.067 89.1352 188.944 89.3457 188.816 89.5818L188.313 90.4681H187.616L188.852 88.4594L187.674 86.531H188.374V86.5327Z" fill="#8296C9"/>
<path d="M192.826 88.0044V88.5331H191.052V88.0044H192.826Z" fill="#8296C9"/>
<path d="M193.86 86.5327L194.356 87.378C194.486 87.597 194.594 87.8006 194.708 88.0213H194.731C194.845 87.7852 194.96 87.5816 195.076 87.3711L195.564 86.5327H196.247L195.061 88.4354L196.283 90.4681H195.564L195.054 89.5818C194.917 89.3542 194.802 89.1335 194.681 88.8991H194.667C194.553 89.1352 194.429 89.3457 194.301 89.5818L193.798 90.4681H193.102L194.337 88.4594L193.16 86.531H193.86V86.5327Z" fill="#8296C9"/>
<path d="M197.186 86.5327L197.682 87.378C197.812 87.597 197.92 87.8006 198.035 88.0213H198.057C198.172 87.7852 198.286 87.5816 198.402 87.3711L198.89 86.5327H199.573L198.387 88.4354L199.609 90.4681H198.89L198.38 89.5818C198.243 89.3542 198.129 89.1335 198.007 88.8991H197.994C197.879 89.1352 197.756 89.3457 197.627 89.5818L197.124 90.4681H196.428L197.663 88.4594L196.486 86.531H197.186V86.5327Z" fill="#8296C9"/>
<path d="M200.511 86.5327L201.007 87.378C201.137 87.597 201.245 87.8006 201.359 88.0213H201.381C201.496 87.7852 201.611 87.5816 201.727 87.3711L202.215 86.5327H202.897L201.712 88.4354L202.933 90.4681H202.215L201.705 89.5818C201.568 89.3542 201.453 89.1335 201.332 88.8991H201.318C201.203 89.1352 201.08 89.3457 200.952 89.5818L200.449 90.4681H199.753L200.988 88.4594L199.811 86.531H200.511V86.5327Z" fill="#8296C9"/>
<path d="M204.963 88.0044V88.5331H203.188V88.0044H204.963Z" fill="#8296C9"/>
<path d="M205.996 86.5327L206.492 87.378C206.622 87.597 206.73 87.8006 206.845 88.0213H206.867C206.982 87.7852 207.096 87.5816 207.213 87.3711L207.7 86.5327H208.383L207.197 88.4354L208.419 90.4681H207.7L207.19 89.5818C207.053 89.3542 206.939 89.1335 206.817 88.8991H206.804C206.689 89.1352 206.566 89.3457 206.437 89.5818L205.934 90.4681H205.238L206.473 88.4594L205.296 86.531H205.996V86.5327Z" fill="#8296C9"/>
<path d="M222.107 116.567H133.087V190.551H222.107V116.567Z" fill="#CAD2EA"/>
<path d="M222.107 11.7119H133.087V23.2803H222.107V11.7119Z" fill="#CAD2EA"/>
<path d="M149.318 14.0632H136.363V15.8239H149.318V14.0632Z" fill="#8296C9"/>
<path d="M149.318 16.616H136.363V18.3766H149.318V16.616Z" fill="#8296C9"/>
<path d="M149.318 19.1672H136.363V20.9279H149.318V19.1672Z" fill="#8296C9"/>
<path d="M296.697 92.3726L298.15 98.0892C298.358 98.9122 298.528 99.7455 298.63 100.587C299.137 104.685 298.913 108.901 298.711 113.021C298.011 127.35 293.949 142.864 293.949 142.864L302.124 190.659L297.848 191.841C297.848 191.841 280.392 155.192 277.496 142.185C277.362 141.584 277.215 140.935 277.056 140.244L271.512 95.8734L296.697 92.3726Z" fill="#39548B"/>
<path d="M302.407 190.212L297.039 191.399L297.893 193.909C297.893 193.909 292.113 195.776 289.909 199.549L303.615 196.846L302.407 190.212Z" fill="#1F1949"/>
<path d="M294.235 95.336L294.137 102.344C294.072 106.945 293.554 111.533 292.507 116.012C289.242 129.983 282.459 144.513 282.459 144.513L281.913 192.999L277.494 193.394C277.494 193.394 266.908 154.206 266.396 140.889C266.372 140.275 266.345 139.609 266.312 138.901L268.831 94.2563L294.235 95.336Z" fill="#39548B"/>
<path d="M282.271 192.609L276.777 192.813L277.165 195.436C277.165 195.436 271.144 196.233 268.299 199.549H282.268L282.271 192.609Z" fill="#1F1949"/>
<path d="M282.324 156.52L282.459 144.512C282.459 144.512 292.734 123.247 293.461 110.96C293.461 110.96 291.714 130.289 287.894 142.106L286.227 166.023L282.324 156.52Z" fill="#343766"/>
<path d="M286.027 22.0947C286.027 22.0947 281.364 19.9182 277.263 24.8563C274.751 27.8797 273.711 34.6709 273.281 39.4823C273.03 42.3073 275.3 44.7164 278.134 44.6428L282.803 44.5214L286.027 22.0947Z" fill="#343766"/>
<path d="M278.142 27.5788C281.835 19.2597 290.169 24.658 291.388 30.1248C291.923 32.5323 290.785 35.1433 288.77 37.2205C288.263 40.2303 287.817 44.2478 288.152 47.9197C288.152 47.9197 282.836 50.5017 279.605 49.7163C277.819 49.2817 279.073 44.9357 280.552 41.1371C279.852 41.1782 279.15 41.1491 278.456 41.0396C271.721 39.9668 278.142 27.5788 278.142 27.5788Z" fill="#DA8C8D"/>
<mask id="mask0_52074_512294" style="mask-type:luminance" maskUnits="userSpaceOnUse" x="275" y="23" width="17" height="27">
<path d="M278.142 27.5788C281.835 19.2597 290.169 24.658 291.388 30.1248C291.923 32.5323 290.785 35.1433 288.77 37.2205C288.263 40.2303 287.817 44.2478 288.152 47.9197C288.152 47.9197 282.836 50.5017 279.605 49.7163C277.819 49.2817 279.073 44.9357 280.552 41.1371C279.852 41.1782 279.15 41.1491 278.456 41.0396C271.721 39.9668 278.142 27.5788 278.142 27.5788Z" fill="white"/>
</mask>
<g mask="url(#mask0_52074_512294)">
<path d="M280.55 41.137C280.55 41.137 281.799 41.0737 283.736 40.0984C283.736 40.0984 282.562 44.0116 279.03 43.7053L280.55 41.137Z" fill="#C17276"/>
</g>
<mask id="mask1_52074_512294" style="mask-type:luminance" maskUnits="userSpaceOnUse" x="275" y="23" width="17" height="27">
<path d="M278.142 27.5788C281.835 19.2597 290.169 24.658 291.388 30.1248C291.923 32.5323 290.785 35.1433 288.77 37.2205C288.263 40.2303 287.817 44.2478 288.152 47.9197C288.152 47.9197 282.836 50.5017 279.605 49.7163C277.819 49.2817 279.073 44.9357 280.552 41.1371C279.852 41.1782 279.15 41.1491 278.456 41.0396C271.721 39.9668 278.142 27.5788 278.142 27.5788Z" fill="white"/>
</mask>
<g mask="url(#mask1_52074_512294)">
<path d="M278.709 25.1251C278.709 25.1251 277.248 31.9145 283.666 35.2562L284.622 22.8203C284.622 22.822 281.306 21.934 278.709 25.1251Z" fill="#C17276"/>
</g>
<mask id="mask2_52074_512294" style="mask-type:luminance" maskUnits="userSpaceOnUse" x="275" y="23" width="17" height="27">
<path d="M278.142 27.5788C281.835 19.2597 290.169 24.658 291.388 30.1248C291.923 32.5323 290.785 35.1433 288.77 37.2205C288.263 40.2303 287.817 44.2478 288.152 47.9197C288.152 47.9197 282.836 50.5017 279.605 49.7163C277.819 49.2817 279.073 44.9357 280.552 41.1371C279.852 41.1782 279.15 41.1491 278.456 41.0396C271.721 39.9668 278.142 27.5788 278.142 27.5788Z" fill="white"/>
</mask>
<g mask="url(#mask2_52074_512294)">
<path d="M276.248 36.3069C276.248 36.3069 277.775 36.9109 279.593 36.6953C279.593 36.6953 278.952 38.5158 277.576 38.1925C276.199 37.8674 276.248 36.3069 276.248 36.3069Z" fill="#F2F3F7"/>
</g>
<path d="M247.595 37.2017C247.595 37.2017 250.295 37.3351 250.625 37.4327C250.956 37.5302 253.337 40.3089 253.337 40.3089L265.754 55.9359L257.541 60.1485L249.642 42.3639L248.013 41.469L247.595 37.2017Z" fill="#DA8C8D"/>
<mask id="mask3_52074_512294" style="mask-type:luminance" maskUnits="userSpaceOnUse" x="247" y="37" width="19" height="24">
<path d="M247.595 37.2017C247.595 37.2017 250.295 37.3351 250.625 37.4327C250.956 37.5302 253.337 40.3089 253.337 40.3089L265.754 55.9359L257.541 60.1485L249.642 42.3639L248.013 41.469L247.595 37.2017Z" fill="white"/>
</mask>
<g mask="url(#mask3_52074_512294)">
<path d="M265.193 54.5156L255.064 56.1223L258.59 61.7893L266.844 58.3535L265.193 54.5156Z" fill="#C17276"/>
</g>
<mask id="mask4_52074_512294" style="mask-type:luminance" maskUnits="userSpaceOnUse" x="247" y="37" width="19" height="24">
<path d="M247.595 37.2017C247.595 37.2017 250.295 37.3351 250.625 37.4327C250.956 37.5302 253.337 40.3089 253.337 40.3089L265.754 55.9359L257.541 60.1485L249.642 42.3639L248.013 41.469L247.595 37.2017Z" fill="white"/>
</mask>
<g mask="url(#mask4_52074_512294)">
<path d="M249.775 40.3293C249.775 40.3293 250.198 42.1105 251.519 42.6701L249.741 44.5471L249.775 40.3293Z" fill="#C17276"/>
</g>
<path d="M265.955 55.3984L256.248 59.0789L261.414 68.9174L269.741 60.1432L265.955 55.3984Z" fill="#F4C54E"/>
<path d="M268.229 93.9228L266.817 69.2701C266.817 69.2701 272.992 46.0015 280.764 44.7713C288.535 43.541 292.349 49.9643 293.102 55.0102C293.855 60.0561 295.652 93.9228 295.652 93.9228H266.348" fill="#F9DD89"/>
<mask id="mask5_52074_512294" style="mask-type:luminance" maskUnits="userSpaceOnUse" x="266" y="44" width="30" height="50">
<path d="M268.229 93.9228L266.817 69.2701C266.817 69.2701 272.992 46.0015 280.764 44.7713C288.535 43.541 292.349 49.9643 293.102 55.0102C293.855 60.0561 295.652 93.9228 295.652 93.9228H266.348" fill="white"/>
</mask>
<g mask="url(#mask5_52074_512294)">
<path d="M278.473 74.506C279.831 71.7752 280.307 69.5422 280.307 69.5422L267.322 77.2899L267.657 83.8996C273.957 82.7977 276.599 78.2737 278.473 74.506Z" fill="#F4C54E"/>
</g>
<path d="M222.451 47.2745L242.392 44.5882L231.503 35.8533L212.077 37.7406L222.451 47.2745Z" fill="#F1CA89"/>
<path d="M222.451 47.2742L218.463 60.4801L236.738 58.0932L242.392 44.5879L222.451 47.2742Z" fill="#ED963E"/>
<path d="M212.077 37.7402L208.672 50.2086L218.463 60.48L222.451 47.2742L212.077 37.7402Z" fill="#F1B873"/>
<path d="M250.682 64.7084L233.333 59.0996V64.0548L249.614 74.8977L250.682 64.7084Z" fill="#DA8C8D"/>
<mask id="mask6_52074_512294" style="mask-type:luminance" maskUnits="userSpaceOnUse" x="233" y="59" width="18" height="16">
<path d="M250.682 64.7084L233.333 59.0996V64.0548L249.614 74.8977L250.682 64.7084Z" fill="white"/>
</mask>
<g mask="url(#mask6_52074_512294)">
<path d="M249.084 64.1919C249.084 64.1919 246.279 71.8266 246.734 73.6009C247.19 75.3753 251.147 74.8979 251.147 74.8979L252.285 64.7275L249.084 64.1919Z" fill="#C17276"/>
</g>
<path d="M282.932 44.7062C279.742 44.4752 276.671 45.9707 274.804 48.5664C270.845 54.0708 260.712 66.4536 259.394 66.4536C257.704 66.4536 250.442 63.7365 250.442 63.7365L249.214 75.4589C249.214 75.4589 261.407 80.1916 263.773 79.6852C266.139 79.1787 284.205 67.5384 287.146 63.2574C291.812 56.4611 291.978 45.3616 282.932 44.7062Z" fill="#F9DD89"/>
<mask id="mask7_52074_512294" style="mask-type:luminance" maskUnits="userSpaceOnUse" x="249" y="44" width="42" height="36">
<path d="M282.932 44.7062C279.742 44.4752 276.671 45.9707 274.804 48.5664C270.845 54.0708 260.712 66.4536 259.394 66.4536C257.704 66.4536 250.442 63.7365 250.442 63.7365L249.214 75.4589C249.214 75.4589 261.407 80.1916 263.773 79.6852C266.139 79.1787 284.205 67.5384 287.146 63.2574C291.812 56.4611 291.978 45.3616 282.932 44.7062Z" fill="white"/>
</mask>
<g mask="url(#mask7_52074_512294)">
<path d="M259.393 66.4553C259.393 66.4553 262.233 68.2434 262.072 72.1788C262.072 72.1788 264.368 67.5897 260.426 65.7777L259.393 66.4553Z" fill="#F4C54E"/>
</g>
<mask id="mask8_52074_512294" style="mask-type:luminance" maskUnits="userSpaceOnUse" x="249" y="44" width="42" height="36">
<path d="M282.932 44.7062C279.742 44.4752 276.671 45.9707 274.804 48.5664C270.845 54.0708 260.712 66.4536 259.394 66.4536C257.704 66.4536 250.442 63.7365 250.442 63.7365L249.214 75.4589C249.214 75.4589 261.407 80.1916 263.773 79.6852C266.139 79.1787 284.205 67.5384 287.146 63.2574C291.812 56.4611 291.978 45.3616 282.932 44.7062Z" fill="white"/>
</mask>
<g mask="url(#mask8_52074_512294)">
<path d="M274.804 48.5681C274.804 48.5681 283.234 48.3115 286.956 55.3986C286.956 55.3986 285.787 46.7373 275.379 46.7373L274.804 48.5681Z" fill="#F4C54E"/>
</g>
<path d="M234.957 39.6945L231.441 36.6848L226.506 37.2546L229.91 40.367L234.957 39.6945Z" fill="#F2F3F7"/>
<path d="M234.938 59.8474L233.938 58.7095C233.416 58.1158 233.027 57.4177 232.798 56.6614L232.321 55.0889C232.3 55.0205 232.221 54.9897 232.158 55.0256C231.9 55.1762 231.321 55.5509 231.297 55.9102C231.267 56.3739 231.133 58.8259 231.133 58.8259L225.925 59.5052C225.925 59.5052 228.421 62.4379 229.07 62.9016C229.718 63.3653 234.495 64.291 234.495 64.291L234.938 59.8474Z" fill="#DA8C8D"/>
<mask id="mask9_52074_512294" style="mask-type:luminance" maskUnits="userSpaceOnUse" x="225" y="55" width="10" height="10">
<path d="M234.938 59.8474L233.938 58.7095C233.416 58.1158 233.027 57.4177 232.798 56.6614L232.321 55.0889C232.3 55.0205 232.221 54.9897 232.158 55.0256C231.9 55.1762 231.321 55.5509 231.297 55.9102C231.267 56.3739 231.133 58.8259 231.133 58.8259L225.925 59.5052C225.925 59.5052 228.421 62.4379 229.07 62.9016C229.718 63.3653 234.495 64.291 234.495 64.291L234.938 59.8474Z" fill="white"/>
</mask>
<g mask="url(#mask9_52074_512294)">
<path d="M231.136 58.8259C231.148 59.264 230.787 59.6216 230.348 59.6062L226.291 59.459L231.136 58.8259Z" fill="#C17276"/>
</g>
<path d="M293.535 55.3217C293.369 52.2846 292.176 49.3775 290.096 47.1583C287.327 44.205 281.768 42.0559 276.041 47.1651C276.041 47.1651 288.15 47.9214 287.418 60.1485C286.961 67.7678 284.583 77.0263 266.776 80.2739L268.222 102.336L299.019 98.2022L293.535 55.3217Z" fill="#39548B"/>
<mask id="mask10_52074_512294" style="mask-type:luminance" maskUnits="userSpaceOnUse" x="266" y="44" width="34" height="59">
<path d="M293.535 55.3217C293.369 52.2846 292.176 49.3775 290.096 47.1583C287.327 44.205 281.768 42.0559 276.041 47.1651C276.041 47.1651 288.15 47.9214 287.418 60.1485C286.961 67.7678 284.583 77.0263 266.776 80.2739L268.222 102.336L299.019 98.2022L293.535 55.3217Z" fill="white"/>
</mask>
<g mask="url(#mask10_52074_512294)">
<path d="M297.121 73.1526L283.378 78.4277L284.099 83.9596L298.596 78.6468L297.121 73.1526Z" fill="white"/>
</g>
<mask id="mask11_52074_512294" style="mask-type:luminance" maskUnits="userSpaceOnUse" x="266" y="44" width="34" height="59">
<path d="M293.535 55.3217C293.369 52.2846 292.176 49.3775 290.096 47.1583C287.327 44.205 281.768 42.0559 276.041 47.1651C276.041 47.1651 288.15 47.9214 287.418 60.1485C286.961 67.7678 284.583 77.0263 266.776 80.2739L268.222 102.336L299.019 98.2022L293.535 55.3217Z" fill="white"/>
</mask>
<g mask="url(#mask11_52074_512294)">
<path d="M298.11 81.0508L284.331 86.0436L285.089 91.8577L299.585 86.5432L298.11 81.0508Z" fill="white"/>
</g>
<path d="M281.734 22.4524C281.734 22.4524 281.298 29.264 282.104 34.7616C282.398 36.7687 282.805 39.4516 283.204 42.049C284.109 47.9487 290.592 51.15 295.835 48.2994C295.905 48.2618 295.973 48.2241 296.043 48.1848L296.998 47.2232C298.567 45.6199 299.027 43.2382 298.17 41.1661L295.203 33.9934C295.203 33.9917 291.598 17.0917 281.734 22.4524Z" fill="#343766"/>
<path d="M250.232 45.1065L244.525 46.5112C244.132 46.6088 243.733 46.3675 243.637 45.974L240.279 32.3318C240.181 31.9382 240.422 31.5396 240.816 31.4438L246.522 30.039C246.916 29.9415 247.314 30.1827 247.41 30.5763L250.769 44.2184C250.866 44.612 250.625 45.0089 250.232 45.1065Z" fill="#343766"/>
<path d="M249.212 37.2939C249.212 37.2939 245.557 41.0976 245.689 41.2037C245.822 41.3098 247.032 41.8077 248.011 41.4655C248.247 41.3833 250.464 40.0658 250.464 40.0658C250.464 40.0658 250.831 37.3881 249.212 37.2939Z" fill="#DA8C8D"/>
<path d="M268.388 102.138L297.679 98.2056C297.679 98.2056 296.469 108.063 267.89 110.961L268.388 102.138Z" fill="#343766"/>
<path d="M307.955 200H0.466243C0.209308 200 0 199.764 0 199.474C0 199.184 0.209308 198.948 0.466243 198.948H307.955C308.212 198.948 308.421 199.184 308.421 199.474C308.421 199.764 308.213 200 307.955 200Z" fill="#1F1949"/>
<path d="M177.346 172.225C188.551 172.225 197.634 163.142 197.634 151.938C197.634 140.733 188.551 131.65 177.346 131.65C166.142 131.65 157.058 140.733 157.058 151.938C157.058 163.142 166.142 172.225 177.346 172.225Z" fill="white"/>
<path d="M170.743 144.221L176.614 150.856L194.506 133.566L199.491 138.496L176.682 160.678L165.632 148.54L170.743 144.221Z" fill="#8296C9"/>
</svg>
