<svg width="400" height="200" viewBox="0 0 400 200" fill="none" xmlns="http://www.w3.org/2000/svg">
<path d="M224.051 71.5984H24.6885V75.0722H224.051V71.5984Z" fill="#B2BFDF"/>
<path d="M70.4856 44.2244H30.5621V71.5987H70.4856V44.2244Z" fill="#CAD2EA"/>
<path d="M119.848 44.2244H79.9246V71.5987H119.848V44.2244Z" fill="#CAD2EA"/>
<path d="M169.21 44.2244H129.287V71.5987H169.21V44.2244Z" fill="#CAD2EA"/>
<path d="M218.573 44.2244H178.65V71.5987H218.573V44.2244Z" fill="#CAD2EA"/>
<path d="M224.051 109.976H24.6884V113.449H224.051V109.976Z" fill="#B2BFDF"/>
<path d="M70.4856 82.5994H30.5621V109.974H70.4856V82.5994Z" fill="#CAD2EA"/>
<path d="M119.848 82.5994H79.9244V109.974H119.848V82.5994Z" fill="#CAD2EA"/>
<path d="M169.21 82.5994H129.287V109.974H169.21V82.5994Z" fill="#CAD2EA"/>
<path d="M218.573 82.5994H178.65V109.974H218.573V82.5994Z" fill="#CAD2EA"/>
<path d="M224.051 148.35H24.6884V151.824H224.051V148.35Z" fill="#B2BFDF"/>
<path d="M70.4856 120.976H30.5621V148.35H70.4856V120.976Z" fill="#CAD2EA"/>
<path d="M119.848 120.976H79.9244V148.35H119.848V120.976Z" fill="#CAD2EA"/>
<path d="M169.21 120.976H129.287V148.35H169.21V120.976Z" fill="#CAD2EA"/>
<path d="M218.573 120.976H178.65V148.35H218.573V120.976Z" fill="#CAD2EA"/>
<path d="M228.892 44.2244H224.049V183.227H228.892V44.2244Z" fill="#B2BFDF"/>
<path d="M24.6885 44.2244H19.8462V183.227H24.6885V44.2244Z" fill="#B2BFDF"/>
<path d="M80.4157 49.5647C80.4157 49.5647 83.3027 55.3556 85.1531 60.0461C87.0034 64.7366 86.964 67.0444 86.964 67.0444H80.8656L80.4157 49.5647Z" fill="#F9DD89"/>
<path d="M75.9241 178.499L80.0653 178.561C80.0653 178.561 86.8667 141.817 87.4947 134.315C88.0459 127.744 82.8305 98.9805 81.2689 91.4873C81.0364 90.3681 80.2265 89.4551 79.1411 89.0933C74.5125 87.5505 62.042 84.2435 61.3221 93.0846C60.4373 103.954 75.2923 135.143 75.2923 135.143C75.2923 135.143 71.7717 142.226 75.9241 178.499Z" fill="#39548B"/>
<path d="M69.6291 122.282L72.8161 106.042C72.8161 106.042 76.2899 125.507 73.4553 131.144L69.6291 122.282Z" fill="#343766"/>
<path d="M56.8247 176.476H62.2463L61.9295 180.053C61.9295 180.053 67.2723 179.357 68.834 183.225H57.0778L56.8247 176.476Z" fill="#1F1949"/>
<path d="M75.5267 176.476H80.5153L80.1984 180.053C80.1984 180.053 86.338 179.357 87.536 183.225H75.7798L75.5267 176.476Z" fill="#1F1949"/>
<path d="M67.9998 134.024C68.7721 128.452 69.5445 122.882 70.3169 117.311C71.078 111.82 71.8391 106.329 72.6021 100.838C73.097 97.2758 73.5901 93.7139 74.085 90.152C74.1844 89.4359 74.4562 88.551 74.0888 88.0167C73.9444 87.8049 73.6988 87.6474 73.3033 87.578C67.353 86.5151 61.249 81.0541 55.4074 82.312C52.541 82.9288 50.0439 91.2524 49.9389 94.4563C49.369 111.739 55.3474 132.874 55.3474 132.874C55.3474 132.874 51.6262 140.722 57.0797 176.476H62.0682L67.9998 134.024Z" fill="#39548B"/>
<path d="M64.3929 46.2695C64.3929 46.2695 55.8949 50.8137 54.8751 56.2278C54.2827 59.3736 51.4988 87.7846 51.4988 87.7846L80.251 88.2589C80.251 88.2589 81.0496 58.3538 80.8284 56.9196C80.6072 55.4855 78.7081 47.7317 78.7081 47.7317C78.7081 47.7317 73.5058 43.5662 72.7803 43.5662C72.0548 43.5662 67.9867 44.1192 64.3929 46.2695Z" fill="#F9DD89"/>
<path d="M80.2451 27.2375C81.6868 28.3774 82.5772 30.0815 83.1584 31.8249C84.5832 36.0974 84.3601 40.7222 84.1201 45.2196C80.9931 45.3715 78.0517 45.0621 75.3915 43.4124C75.0485 39.1381 74.966 34.7157 75.0766 30.4283C75.0935 29.7834 75.1422 29.071 75.5996 28.6155C75.8977 28.3174 76.3214 28.1861 76.7282 28.0774C77.7368 27.8131 79.2103 27.3313 80.2451 27.2375Z" fill="#343766"/>
<path d="M81.0475 30.445C81.0475 30.445 84.0151 42.5349 77.8192 41.9856C71.6234 41.4363 68.0971 34.1756 70.3729 29.7288C72.6488 25.2802 79.6021 22.4607 81.0475 30.445Z" fill="#DA8C8D"/>
<mask id="mask0_52016_527875" style="mask-type:luminance" maskUnits="userSpaceOnUse" x="69" y="25" width="13" height="18">
<path d="M81.0475 30.445C81.0475 30.445 84.0151 42.5349 77.8192 41.9856C71.6234 41.4363 68.0971 34.1756 70.3729 29.7288C72.6488 25.2802 79.6021 22.4607 81.0475 30.445Z" fill="white"/>
</mask>
<g mask="url(#mask0_52016_527875)">
<path d="M81.7579 32.1756C81.7579 32.1756 80.8918 35.8613 73.2224 34.2153L71.9964 30.031L83.9944 27.1121L81.7579 32.1756Z" fill="#C17276"/>
</g>
<path d="M69.6869 32.1755C69.6869 32.1755 69.79 37.226 68.7008 42.3045C68.1853 44.7116 69.3551 47.175 71.5672 48.2567C72.6658 48.7928 73.8487 49.2071 74.8986 49.2184C77.9299 49.2503 74.9679 36.073 74.9679 36.073L69.6869 32.1755Z" fill="#DA8C8D"/>
<mask id="mask1_52016_527875" style="mask-type:luminance" maskUnits="userSpaceOnUse" x="68" y="32" width="9" height="18">
<path d="M69.6869 32.1755C69.6869 32.1755 69.79 37.226 68.7008 42.3045C68.1853 44.7116 69.3551 47.175 71.5672 48.2567C72.6658 48.7928 73.8487 49.2071 74.8986 49.2184C77.9299 49.2503 74.9679 36.073 74.9679 36.073L69.6869 32.1755Z" fill="white"/>
</mask>
<g mask="url(#mask1_52016_527875)">
<path d="M75.9408 41.5938C75.9408 41.5938 73.6912 40.9264 73.2244 40.0828C73.2244 40.0828 74.3398 43.8622 76.4713 44.0009L75.9408 41.5938Z" fill="#C17276"/>
</g>
<path d="M80.5526 29.0036C78.8129 30.9514 76.3533 32.243 73.7624 32.5711C72.2533 36.5717 72.0602 40.936 73.1757 45.0641C70.8979 45.6227 68.4139 44.9553 66.4268 43.7087C64.4396 42.462 62.9023 40.5929 61.755 38.5476C60.0753 35.5519 63.7066 32.0106 65.6225 29.1592C66.753 27.4776 67.9603 25.7435 69.73 24.7555C71.3028 23.8781 73.1738 23.685 74.9735 23.7844C76.4414 23.865 77.9467 24.1481 79.1597 24.9767C80.3745 25.8091 80.7944 27.5544 80.5526 29.0036Z" fill="#343766"/>
<path d="M81.5368 58.9086C81.4168 56.6627 80.8975 52.244 80.6163 50.2119C80.5526 49.7563 80.3408 49.3345 80.0127 49.0121L78.706 47.7298C79.3078 50.3543 79.4072 56.6833 79.4072 56.6833H71.2279C71.2841 54.0981 66.303 45.2795 66.303 45.2795L64.3909 46.2694C64.3909 46.2694 68.0596 52.6883 68.6727 57.0357C69.2876 61.3832 61.322 93.0824 61.322 93.0824C65.4088 94.2841 81.8293 94.2841 81.8293 94.2841C81.8293 94.2841 81.5931 59.9828 81.5368 58.9086Z" fill="#39548B"/>
<path d="M64.9124 54.7993L68.6749 72.3483L55.5933 77.6724C55.5933 77.6724 52.4082 64.8176 52.5919 59.8553C52.7756 54.893 59.0052 50.0769 59.0052 50.0769L64.9124 54.7993Z" fill="#F9DD89"/>
<path d="M98.055 67.0449H69.8483V95.5309H98.055V67.0449Z" fill="#F1CA89"/>
<path d="M110.797 67.0449H98.0548V95.5309H110.797V67.0449Z" fill="#EFA856"/>
<path d="M86.9643 67.0449H82.5269V71.4823H86.9643V67.0449Z" fill="#F2F3F7"/>
<path d="M107.121 67.0449H102.684V71.4823H107.121V67.0449Z" fill="#F2F3F7"/>
<path d="M57.7452 76.7967L60.2554 82.5632L52.4023 78.7163L53.5084 67.9443L55.593 77.6721L57.7452 76.7967Z" fill="#F4C54E"/>
<path d="M67.4129 66.4596L64.912 54.7971C64.912 54.7971 68.2677 58.6234 68.3052 61.4598L67.4129 66.4596Z" fill="#F4C54E"/>
<path d="M87.0656 94.0649L69.629 81.84L67.5088 72.8228L57.7453 76.7971C57.7453 76.7971 61.656 86.2662 62.7695 87.1904C63.885 88.1165 83.4005 95.5309 83.4005 95.5309C83.4005 95.5309 84.396 97.2781 85.1496 97.4469C87.5361 97.9774 92.0541 95.5309 92.0541 95.5309L87.0656 94.0649Z" fill="#DA8C8D"/>
<mask id="mask2_52016_527875" style="mask-type:luminance" maskUnits="userSpaceOnUse" x="57" y="72" width="36" height="26">
<path d="M87.0656 94.0649L69.629 81.84L67.5088 72.8228L57.7453 76.7971C57.7453 76.7971 61.656 86.2662 62.7695 87.1904C63.885 88.1165 83.4005 95.5309 83.4005 95.5309C83.4005 95.5309 84.396 97.2781 85.1496 97.4469C87.5361 97.9774 92.0541 95.5309 92.0541 95.5309L87.0656 94.0649Z" fill="white"/>
</mask>
<g mask="url(#mask2_52016_527875)">
<path d="M68.6748 73.3662C68.6748 73.3662 61.6372 79.8114 58.4896 80.4114L56.8418 76.2889L68.3074 71.4822L68.6748 73.3662Z" fill="#C17276"/>
</g>
<path d="M196.442 100.07H138.281V169.649H196.442V100.07Z" fill="#B2BFDF"/>
<mask id="mask3_52016_527875" style="mask-type:luminance" maskUnits="userSpaceOnUse" x="138" y="100" width="59" height="70">
<path d="M196.442 100.07H138.281V169.649H196.442V100.07Z" fill="white"/>
</mask>
<g mask="url(#mask3_52016_527875)">
<path d="M134.412 115.947C136.285 115.478 191.885 115.947 191.885 115.947V169.651H136.098L134.412 115.947Z" fill="#8296C9"/>
</g>
<path d="M218.591 169.65H196.442V100.069L218.591 75.9495V169.65Z" fill="#8296C9"/>
<path d="M224.096 176.569H111.466C110.574 176.569 109.852 175.847 109.852 174.955V171.265C109.852 170.373 110.574 169.651 111.466 169.651H224.096C224.988 169.651 225.71 170.373 225.71 171.265V174.955C225.71 175.845 224.986 176.569 224.096 176.569Z" fill="#B2BFDF"/>
<path d="M218.771 176.569H116.79V183.226H218.771V176.569Z" fill="#343766"/>
<path d="M167.769 121.048H119.643V169.649H167.769V121.048Z" fill="#F1CA89"/>
<path d="M189.509 121.048H167.768V169.649H189.509V121.048Z" fill="#EFA856"/>
<path d="M148.846 121.048H141.274V128.62H148.846V121.048Z" fill="#F2F3F7"/>
<path d="M183.237 121.048H175.665V128.62H183.237V121.048Z" fill="#F2F3F7"/>
<path d="M218.591 75.9495L196.442 100.069H138.281L162.051 75.9495H218.591Z" fill="#39548B"/>
<path d="M178.04 96.2942H148.991L164.752 79.7275H193.799L178.04 96.2942Z" fill="#343766"/>
<path d="M198.227 84.0843H193.013L197.158 79.7275H202.372L198.227 84.0843Z" fill="#B2BFDF"/>
<path d="M192.419 90.1883H187.205L191.352 85.8315H196.566L192.419 90.1883Z" fill="#B2BFDF"/>
<path d="M186.613 96.2942H181.4L185.545 91.9355H190.758L186.613 96.2942Z" fill="#B2BFDF"/>
<path d="M205.068 84.0843H199.854L203.999 79.7275H209.212L205.068 84.0843Z" fill="#B2BFDF"/>
<path d="M199.26 90.1883H194.046L198.191 85.8315H203.405L199.26 90.1883Z" fill="#B2BFDF"/>
<path d="M193.452 96.2942H188.238L192.385 91.9355H197.599L193.452 96.2942Z" fill="#B2BFDF"/>
<path d="M244.373 53.5943L218.926 39.0186L216.434 43.1223C216.434 43.1223 235.599 62.2048 237.202 62.8216C238.805 63.4402 244.373 53.5943 244.373 53.5943Z" fill="#DA8C8D"/>
<mask id="mask4_52016_527875" style="mask-type:luminance" maskUnits="userSpaceOnUse" x="216" y="39" width="29" height="24">
<path d="M244.373 53.5943L218.926 39.0186L216.434 43.1223C216.434 43.1223 235.599 62.2048 237.202 62.8216C238.805 63.4402 244.373 53.5943 244.373 53.5943Z" fill="white"/>
</mask>
<g mask="url(#mask4_52016_527875)">
<path d="M227.343 55.8404L240.652 50.0813L242.961 51.9691L233.1 60.3977L227.343 55.8404Z" fill="#C17276"/>
</g>
<path d="M220.191 51.4193L204.232 57.8776C203.548 58.1551 202.77 57.8252 202.492 57.1409L194.107 36.4199C193.829 35.7356 194.159 34.9576 194.843 34.6802L210.803 28.2218C211.487 27.9444 212.265 28.2743 212.542 28.9586L220.928 49.6796C221.205 50.3639 220.875 51.1419 220.191 51.4193Z" fill="#8296C9"/>
<path d="M211.173 30.2868L196.023 36.4172L203.876 55.8254L219.027 49.695L211.173 30.2868Z" fill="white"/>
<path d="M205.613 33.3702L202.154 34.7706C201.931 34.8606 201.678 34.7537 201.588 34.5306L200.692 32.3147L204.957 30.5881L205.853 32.804C205.943 33.0271 205.836 33.2802 205.613 33.3702Z" fill="#343766"/>
<path d="M202.147 36.7694L198.887 38.0886L200.125 41.149L203.385 39.8298L202.147 36.7694Z" fill="#CAD2EA"/>
<path d="M210.032 33.58L203.505 36.2212L203.778 36.8955L210.305 34.2543L210.032 33.58Z" fill="#CAD2EA"/>
<path d="M210.514 34.7736L203.987 37.4148L204.26 38.0891L210.787 35.4479L210.514 34.7736Z" fill="#CAD2EA"/>
<path d="M206.823 37.6543L204.469 38.6072L204.741 39.2815L207.096 38.3286L206.823 37.6543Z" fill="#CAD2EA"/>
<path d="M203.853 40.9857L200.592 42.3049L201.831 45.3653L205.091 44.0461L203.853 40.9857Z" fill="#CAD2EA"/>
<path d="M211.738 37.7965L205.21 40.4377L205.483 41.112L212.01 38.4708L211.738 37.7965Z" fill="#CAD2EA"/>
<path d="M212.22 38.9899L205.692 41.6311L205.965 42.3054L212.492 39.6642L212.22 38.9899Z" fill="#CAD2EA"/>
<path d="M208.529 41.8714L206.175 42.8242L206.447 43.4985L208.802 42.5457L208.529 41.8714Z" fill="#CAD2EA"/>
<path d="M205.559 45.2045L202.299 46.5237L203.537 49.584L206.797 48.2648L205.559 45.2045Z" fill="#CAD2EA"/>
<path d="M213.444 42.0133L206.917 44.6545L207.189 45.3288L213.717 42.6876L213.444 42.0133Z" fill="#CAD2EA"/>
<path d="M213.927 43.2057L207.4 45.8469L207.673 46.5212L214.2 43.88L213.927 43.2057Z" fill="#CAD2EA"/>
<path d="M210.237 46.0877L207.882 47.0405L208.155 47.7148L210.51 46.762L210.237 46.0877Z" fill="#CAD2EA"/>
<path d="M207.265 49.4227L204.005 50.7419L205.243 53.8023L208.504 52.4831L207.265 49.4227Z" fill="#CAD2EA"/>
<path d="M215.149 46.2306L208.622 48.8718L208.895 49.5461L215.422 46.9049L215.149 46.2306Z" fill="#CAD2EA"/>
<path d="M215.633 47.4213L209.105 50.0625L209.378 50.7368L215.906 48.0956L215.633 47.4213Z" fill="#CAD2EA"/>
<path d="M211.943 50.304L209.588 51.2568L209.861 51.9311L212.216 50.9783L211.943 50.304Z" fill="#CAD2EA"/>
<path d="M218.927 39.0184L216.012 37.5317C216.012 37.5317 212.345 41.1724 212.499 41.2661C212.653 41.3599 213.629 41.5173 214.321 41.2661C215.015 41.0149 216.996 39.9613 216.996 39.9613L217.838 42.0385L218.927 39.0184Z" fill="#DA8C8D"/>
<path d="M269.366 84.1943L270.708 89.4754C270.901 90.2365 271.057 91.0051 271.153 91.785C271.621 95.5719 271.413 99.4675 271.228 103.275C270.581 116.514 266.828 130.848 266.828 130.848L274.383 175.01L270.431 176.103C270.431 176.103 254.301 142.241 251.626 130.22C251.502 129.665 251.367 129.065 251.219 128.426L246.095 87.4282L269.366 84.1943Z" fill="#39548B"/>
<path d="M274.643 174.598L269.683 175.695L270.47 178.014C270.47 178.014 265.129 179.738 263.093 183.225L275.757 180.726L274.643 174.598Z" fill="#1F1949"/>
<path d="M267.092 86.9336L267.002 93.4088C266.942 97.6587 266.462 101.897 265.495 106.039C262.479 118.946 256.211 132.372 256.211 132.372L255.707 177.174L251.624 177.539C251.624 177.539 241.842 141.33 241.37 129.024C241.347 128.456 241.321 127.841 241.293 127.187L243.619 85.9363L267.092 86.9336Z" fill="#39548B"/>
<path d="M256.039 176.814L250.962 177.001L251.32 179.423C251.32 179.423 245.756 180.16 243.128 183.225H256.035L256.039 176.814Z" fill="#1F1949"/>
<path d="M256.088 143.469L256.213 132.374C256.213 132.374 265.707 112.725 266.378 101.372C266.378 101.372 264.764 119.233 261.234 130.151L259.695 152.25L256.088 143.469Z" fill="#343766"/>
<path d="M252.222 24.3265C255.634 16.6403 263.335 21.6288 264.46 26.6792C264.955 28.9026 263.903 31.3154 262.04 33.2351C261.573 36.0152 261.159 39.729 261.468 43.1203C261.468 43.1203 256.556 45.5049 253.572 44.7813C251.92 44.3801 253.081 40.3645 254.446 36.8532C253.799 36.8907 253.15 36.8645 252.509 36.7632C246.289 35.7734 252.222 24.3265 252.222 24.3265Z" fill="#DA8C8D"/>
<mask id="mask5_52016_527875" style="mask-type:luminance" maskUnits="userSpaceOnUse" x="249" y="20" width="16" height="25">
<path d="M252.222 24.3265C255.634 16.6403 263.335 21.6288 264.46 26.6792C264.955 28.9026 263.903 31.3154 262.04 33.2351C261.573 36.0152 261.159 39.729 261.468 43.1203C261.468 43.1203 256.556 45.5049 253.572 44.7813C251.92 44.3801 253.081 40.3645 254.446 36.8532C253.799 36.8907 253.15 36.8645 252.509 36.7632C246.289 35.7734 252.222 24.3265 252.222 24.3265Z" fill="white"/>
</mask>
<g mask="url(#mask5_52016_527875)">
<path d="M250.527 35.7523C250.6 35.8311 254.457 35.7279 256.052 34.95C256.052 34.95 255.555 36.6372 253.666 37.2146C251.778 37.7957 250.527 35.7523 250.527 35.7523Z" fill="#C17276"/>
</g>
<path d="M243.062 85.6292L242.305 72.3995C241.82 63.9184 243.488 55.411 247.412 47.8766C249.466 43.9304 251.952 40.6403 254.646 40.2147C261.828 39.0768 265.351 45.0121 266.046 49.6744C266.742 54.3368 268.403 85.6292 268.403 85.6292H241.327" fill="#F9DD89"/>
<path d="M266.445 49.9609C266.292 47.1545 265.189 44.4681 263.268 42.4171C260.711 39.6895 253.298 38.2309 250.511 43.0489C250.511 43.0489 261.47 43.122 260.793 54.4189C260.371 61.4603 258.172 70.0145 241.72 73.014V94.6743L243.497 95.0586C251.95 96.8901 260.782 95.5722 268.335 91.3542L271.513 89.5788L266.445 49.9609Z" fill="#39548B"/>
<mask id="mask6_52016_527875" style="mask-type:luminance" maskUnits="userSpaceOnUse" x="241" y="39" width="31" height="57">
<path d="M266.445 49.9609C266.292 47.1545 265.189 44.4681 263.268 42.4171C260.711 39.6895 253.298 38.2309 250.511 43.0489C250.511 43.0489 261.47 43.122 260.793 54.4189C260.371 61.4603 258.172 70.0145 241.72 73.014V94.6743L243.497 95.0586C251.95 96.8901 260.782 95.5722 268.335 91.3542L271.513 89.5788L266.445 49.9609Z" fill="white"/>
</mask>
<g mask="url(#mask6_52016_527875)">
<path d="M269.758 66.4353L257.061 71.3114L257.726 76.4218L271.123 71.512L269.758 66.4353Z" fill="white"/>
</g>
<mask id="mask7_52016_527875" style="mask-type:luminance" maskUnits="userSpaceOnUse" x="241" y="39" width="31" height="57">
<path d="M266.445 49.9609C266.292 47.1545 265.189 44.4681 263.268 42.4171C260.711 39.6895 253.298 38.2309 250.511 43.0489C250.511 43.0489 261.47 43.122 260.793 54.4189C260.371 61.4603 258.172 70.0145 241.72 73.014V94.6743L243.497 95.0586C251.95 96.8901 260.782 95.5722 268.335 91.3542L271.513 89.5788L266.445 49.9609Z" fill="white"/>
</mask>
<g mask="url(#mask7_52016_527875)">
<path d="M270.673 73.7339L257.94 78.3475L258.641 83.7204L272.036 78.8106L270.673 73.7339Z" fill="white"/>
</g>
<path d="M243.109 94.9761C243.109 94.9761 250.231 96.7308 256.614 95.8647C262.998 94.9986 270.825 89.9631 270.825 89.9631C270.825 89.9631 260.407 98.8773 254.19 99.466C247.974 100.055 242.959 97.61 242.959 97.61L243.109 94.9761Z" fill="#343766"/>
<path d="M250.511 43.0488L230.405 59.3212L235.254 72.5509C235.254 72.5509 252.087 67.7611 253.411 64.0885C254.732 60.416 250.511 43.0488 250.511 43.0488Z" fill="#F9DD89"/>
<path d="M242.245 70.2846C242.245 70.2846 251.41 66.7077 254.864 62.3809C254.864 62.3809 255.833 70.6708 242.333 72.8998L242.245 70.2846Z" fill="#F4C54E"/>
<path d="M234.549 70.6478L230.793 60.397L226.284 63.7752L201.699 77.0443C201.699 77.0443 196.699 78.6903 196.564 78.859C196.429 79.0277 193.014 84.5056 193.014 84.5056C193.014 84.5056 194.105 84.9536 194.528 84.5056C194.95 84.0575 197.597 80.8986 197.597 80.8986C197.597 80.8986 198.077 82.704 198.966 83.1689C199.853 83.6338 202.22 83.1258 202.685 82.7471C203.15 82.3665 204.534 80.7899 204.534 80.788C207.661 79.8807 229.201 73.6323 229.677 73.443C230.193 73.2386 234.549 70.6478 234.549 70.6478Z" fill="#DA8C8D"/>
<mask id="mask8_52016_527875" style="mask-type:luminance" maskUnits="userSpaceOnUse" x="193" y="60" width="42" height="25">
<path d="M234.549 70.6478L230.793 60.397L226.284 63.7752L201.699 77.0443C201.699 77.0443 196.699 78.6903 196.564 78.859C196.429 79.0277 193.014 84.5056 193.014 84.5056C193.014 84.5056 194.105 84.9536 194.528 84.5056C194.95 84.0575 197.597 80.8986 197.597 80.8986C197.597 80.8986 198.077 82.704 198.966 83.1689C199.853 83.6338 202.22 83.1258 202.685 82.7471C203.15 82.3665 204.534 80.7899 204.534 80.788C207.661 79.8807 229.201 73.6323 229.677 73.443C230.193 73.2386 234.549 70.6478 234.549 70.6478Z" fill="white"/>
</mask>
<g mask="url(#mask8_52016_527875)">
<path d="M229.456 60.105C229.456 60.105 227.718 74.8514 228.376 75.2263C229.034 75.6012 236.642 70.8114 236.642 70.8114L231.711 59.1658L229.456 60.105Z" fill="#C17276"/>
</g>
<path d="M268.862 19.446C265.563 18.4393 264.391 20.119 263.977 21.3451C262.008 19.281 259.464 17.9125 257.861 18.1562C255.263 18.5518 253.497 22.2243 253.497 22.2243C253.497 22.2243 252.67 25.4544 255.773 28.2739C255.773 28.2739 255.726 26.6879 256.616 26.7198C257.507 26.7517 258.176 28.4352 257.852 29.32C257.634 29.9124 256.616 30.7298 256.616 30.7298L257.691 33.1369C258.169 34.2074 259.234 34.8972 260.405 34.8972H261.787C261.787 34.8972 267.688 29.9593 266.614 25.7787C266.376 24.8545 265.936 23.949 265.375 23.0998C265.621 23.0642 265.909 23.0604 266.26 23.1073C268.21 23.3716 267.707 29.3481 268.834 35.5346C269.961 41.7211 276.608 40.7575 276.608 40.7575C276.608 40.7575 276.608 21.81 268.862 19.446Z" fill="#343766"/>
<path d="M256.238 19.5307C256.238 19.5307 254.95 18.1434 252.67 18.3909C250.39 18.6384 248.062 24.6842 248.062 24.6842C248.062 24.6842 252.522 24.1387 254.307 22.8995C256.091 21.6604 256.238 19.5307 256.238 19.5307Z" fill="#343766"/>
<path d="M322.367 58.0832C322.367 58.0832 325.232 68.8046 327.32 69.7194L332.011 65.1414L323.777 55.2749L322.367 58.0832Z" fill="#C17276"/>
<path d="M330.262 87.6716C330.262 87.6716 320.944 116.33 319.169 127.964C317.394 139.599 319.668 176.125 319.668 176.125L323.307 175.67L334.992 132.531L349.607 96.3308L330.262 87.6716Z" fill="#39548B"/>
<path d="M323.73 175.218L319.192 174.507L319.077 176.845C319.077 176.845 314.077 177.132 311.198 179.55L322.615 181.067L323.73 175.218Z" fill="#1F1949"/>
<path d="M362.445 89.6384H361.952L361.967 89.4978L343.527 89.5728L341.133 130.914C340.904 142.679 347.966 178.591 347.966 178.591L351.513 177.659L357.42 133.356L359.295 115.269C365.799 100.14 362.445 89.6384 362.445 89.6384Z" fill="#39548B"/>
<path d="M351.9 177.023L347.307 177.018L347.552 179.344C347.552 179.344 342.655 180.394 340.181 183.225L351.695 182.972L351.9 177.023Z" fill="#1F1949"/>
<path d="M370.731 67.1368C370.731 67.1368 365.96 39.7719 345.912 40.9173C332.114 41.7066 329.799 47.6812 329.799 47.6812C329.799 47.6812 323.389 59.2668 321.349 68.2054L328.299 70.7493L326.567 93.7462C326.567 93.7462 354.501 100.373 364.016 90.0512L359.773 69.3189L370.731 67.1368Z" fill="#F9DD89"/>
<mask id="mask9_52016_527875" style="mask-type:luminance" maskUnits="userSpaceOnUse" x="321" y="40" width="50" height="56">
<path d="M370.731 67.1368C370.731 67.1368 365.96 39.7719 345.912 40.9173C332.114 41.7066 329.799 47.6812 329.799 47.6812C329.799 47.6812 323.389 59.2668 321.349 68.2054L328.299 70.7493L326.567 93.7462C326.567 93.7462 354.501 100.373 364.016 90.0512L359.773 69.3189L370.731 67.1368Z" fill="white"/>
</mask>
<g mask="url(#mask9_52016_527875)">
<path d="M343.263 46.6237C343.263 46.6237 334.763 60.6614 322.71 60.0559C322.71 60.0559 325.543 43.6767 334.079 40.8853C342.616 38.0939 345.912 40.9209 345.912 40.9209L343.263 46.6237Z" fill="#F4C54E"/>
</g>
<mask id="mask10_52016_527875" style="mask-type:luminance" maskUnits="userSpaceOnUse" x="321" y="40" width="50" height="56">
<path d="M370.731 67.1368C370.731 67.1368 365.96 39.7719 345.912 40.9173C332.114 41.7066 329.799 47.6812 329.799 47.6812C329.799 47.6812 323.389 59.2668 321.349 68.2054L328.299 70.7493L326.567 93.7462C326.567 93.7462 354.501 100.373 364.016 90.0512L359.773 69.3189L370.731 67.1368Z" fill="white"/>
</mask>
<g mask="url(#mask10_52016_527875)">
<path d="M361.867 68.8427L358.506 57.094C358.506 57.094 353.167 79.9765 353.641 86.5548C354.117 93.1331 359.751 97.2293 359.751 97.2293L368.672 90.0811L361.867 68.8427Z" fill="#F4C54E"/>
</g>
<path d="M338.383 39.1847C331.956 39.9045 334.75 27.2672 334.75 27.2672C336.058 18.9342 344.074 21.017 346.547 25.5837C347.349 27.0666 347.445 28.9451 346.991 30.831C347.07 33.9055 347.449 38.9466 348.962 42.9022C348.962 42.9022 344.742 46.526 341.592 46.6309C339.845 46.6891 339.918 42.4766 340.329 38.7141C339.706 38.9447 339.058 39.1097 338.383 39.1847Z" fill="#DA8C8D"/>
<mask id="mask11_52016_527875" style="mask-type:luminance" maskUnits="userSpaceOnUse" x="334" y="21" width="15" height="26">
<path d="M338.383 39.1847C331.956 39.9045 334.75 27.2672 334.75 27.2672C336.058 18.9342 344.074 21.017 346.547 25.5837C347.349 27.0666 347.445 28.9451 346.991 30.831C347.07 33.9055 347.449 38.9466 348.962 42.9022C348.962 42.9022 344.742 46.526 341.592 46.6309C339.845 46.6891 339.918 42.4766 340.329 38.7141C339.706 38.9447 339.058 39.1097 338.383 39.1847Z" fill="white"/>
</mask>
<g mask="url(#mask11_52016_527875)">
<path d="M334.388 29.4289C334.388 29.4289 337.596 32.0535 342.474 28.1148C347.352 24.1779 344.253 21.9395 344.253 21.9395L338.681 20.4941L333.175 25.4733L334.388 29.4289Z" fill="#C17276"/>
</g>
<path d="M340.327 38.7326C340.327 38.7326 341.289 38.399 343.58 36.3105C343.58 36.3105 343.445 40.8735 340.085 42.4914C340.083 42.4914 340.241 39.475 340.327 38.7326Z" fill="#C17276"/>
<path d="M334.165 33.6861C334.165 33.6861 336.347 32.73 337.841 33.18C339.336 33.6299 342.307 35.1896 342.307 35.1896L344.069 35.3377L343.58 36.3107C343.58 36.3107 339.789 40.2194 337.703 39.5895C335.614 38.9578 333.942 37.9436 334.165 33.6861Z" fill="#343766"/>
<path d="M335.284 35.0696C335.284 35.0696 336.778 35.4989 337.884 35.3695C337.884 35.3695 337.478 36.3069 336.16 36.2394C334.84 36.1738 335.284 35.0696 335.284 35.0696Z" fill="white"/>
<path d="M342.127 54.2876H309.368V97.2312H342.127V54.2876Z" fill="#F1CA89"/>
<path d="M358.506 54.2876H342.127V97.2312H358.506V54.2876Z" fill="#F1B873"/>
<path d="M331.709 54.2876H324.197V64.8271H331.709V54.2876Z" fill="#F2F3F7"/>
<path d="M342.127 114.864L341.553 101.651L334.416 134.042L342.127 114.864Z" fill="#343766"/>
<path d="M369.047 67.4727L359.143 69.3624L360.502 76.9211L347.006 95.8743L339.039 97.2297L341.36 98.5214C342.481 99.1456 343.741 99.4737 345.023 99.4812C345.709 99.485 346.487 99.47 347.228 99.41C349.226 99.2506 352.22 97.2278 352.22 97.2278C352.22 97.2278 370.656 79.8663 370.733 78.314C370.808 76.7636 369.047 67.4727 369.047 67.4727Z" fill="#DA8C8D"/>
<mask id="mask12_52016_527875" style="mask-type:luminance" maskUnits="userSpaceOnUse" x="339" y="67" width="32" height="33">
<path d="M369.047 67.4727L359.143 69.3624L360.502 76.9211L347.006 95.8743L339.039 97.2297L341.36 98.5214C342.481 99.1456 343.741 99.4737 345.023 99.4812C345.709 99.485 346.487 99.47 347.228 99.41C349.226 99.2506 352.22 97.2278 352.22 97.2278C352.22 97.2278 370.656 79.8663 370.733 78.314C370.808 76.7636 369.047 67.4727 369.047 67.4727Z" fill="white"/>
</mask>
<g mask="url(#mask12_52016_527875)">
<path d="M370.731 68.7508C370.731 68.7508 364.006 73.5275 359.126 74.6692L357.049 67.9203L369.3 64.8252L370.731 68.7508Z" fill="#C17276"/>
</g>
<path d="M334.789 19.9563C334.789 19.9563 340.087 13.9573 345.496 17.5436C351.995 21.8554 348.058 26.3565 348.058 26.3565C348.058 26.3565 338.539 21.861 334.789 19.9563Z" fill="#F4C54E"/>
<path d="M346.547 25.5837C346.547 25.5837 331.508 16.3621 328.94 19.3672C326.372 22.3705 334.752 27.2672 334.752 27.2672C334.752 27.2672 334.609 20.2521 346.547 25.5837Z" fill="#F9DD89"/>
<path d="M339.618 23.5969C339.618 23.5969 342.393 23.5744 348.056 26.3584L347.17 34.1121C346.206 33.8159 344.875 33.9977 344.5 33.0623L343.825 31.1651C343.825 31.1651 345.387 28.4299 344.256 27.8187C342.325 26.7764 342.668 29.341 342.668 29.341C342.668 29.341 339.283 26.3902 339.618 23.5969Z" fill="#343766"/>
<path d="M311.758 97.2292C312.604 97.2292 318.969 97.2292 318.969 97.2292C318.969 97.2292 315.467 98.9558 313.613 98.5996C312.465 98.3784 311.758 97.2292 311.758 97.2292Z" fill="#DA8C8D"/>
<path d="M389.882 183.599H10.1182C9.71784 183.599 9.39227 183.352 9.39227 183.047C9.39227 182.742 9.71784 182.494 10.1182 182.494H389.882C390.282 182.494 390.608 182.742 390.608 183.047C390.608 183.352 390.282 183.599 389.882 183.599Z" fill="#343766"/>
</svg>
