<svg width="370" height="215" viewBox="0 0 370 215" fill="none" xmlns="http://www.w3.org/2000/svg">
<g clip-path="url(#clip0_52074_534514)">
<path d="M289.643 168.373H244.186V213.83H289.643V168.373Z" fill="#B2BFDF"/>
<path d="M312.372 168.373H289.643V213.83H312.372V168.373Z" fill="#CAD2EA"/>
<path d="M269.969 168.373H263.861V174.481H269.969V168.373Z" fill="white"/>
<path d="M305.083 168.373H298.975V174.481H305.083V168.373Z" fill="white"/>
<path d="M343.902 168.373H298.444V213.83H343.902V168.373Z" fill="#B2BFDF"/>
<path d="M366.63 168.373H343.902V213.83H366.63V168.373Z" fill="#CAD2EA"/>
<path d="M324.227 168.373H318.119V174.481H324.227V168.373Z" fill="white"/>
<path d="M359.34 168.373H353.232V174.481H359.34V168.373Z" fill="white"/>
<path d="M283.563 122.901H238.106V168.358H283.563V122.901Z" fill="#B2BFDF"/>
<path d="M306.293 122.901H283.565V168.358H306.293V122.901Z" fill="#CAD2EA"/>
<path d="M263.89 122.901H257.782V129.009H263.89V122.901Z" fill="white"/>
<path d="M299.002 122.901H292.895V129.009H299.002V122.901Z" fill="white"/>
<path d="M339.574 135.079H306.293V168.36H339.574V135.079Z" fill="#B2BFDF"/>
<path d="M356.215 135.079H339.574V168.36H356.215V135.079Z" fill="#CAD2EA"/>
<path d="M325.169 135.079H320.698V139.551H325.169V135.079Z" fill="white"/>
<path d="M350.876 135.079H346.405V139.551H350.876V135.079Z" fill="white"/>
<path d="M274.011 100.268H251.377V122.902H274.011V100.268Z" fill="#B2BFDF"/>
<path d="M285.326 100.268H274.01V122.902H285.326V100.268Z" fill="#CAD2EA"/>
<path d="M264.213 100.268H261.172V103.309H264.213V100.268Z" fill="white"/>
<path d="M281.697 100.268H278.657V103.309H281.697V100.268Z" fill="white"/>
<path opacity="0.47" d="M244.186 168.373H289.643L244.186 177.247V168.373Z" fill="#8296C9"/>
<path opacity="0.47" d="M339.574 168.36L298.444 175.534V168.373L339.574 168.36Z" fill="#8296C9"/>
<path opacity="0.47" d="M274.01 122.901L238.106 129.009V122.901H274.01Z" fill="#8296C9"/>
<path d="M219.873 214.39H84.7806C80.1062 214.39 76.3158 210.6 76.3158 205.925V8.46484C76.3158 3.79038 80.1062 0 84.7806 0H219.875C224.549 0 228.34 3.79038 228.34 8.46484V205.925C228.338 210.6 224.549 214.39 219.873 214.39Z" fill="#86A7FF"/>
<path d="M179.118 9.43298H125.536V18.4283H179.118V9.43298Z" fill="#D3DFFF"/>
<path d="M213.175 32.1392H91.4807V59.1285H213.175V32.1392Z" fill="#DADADA"/>
<path d="M207.85 35.8301H96.8058V55.436H207.85V35.8301Z" fill="white"/>
<path d="M181.435 82.5456H173.168C170.686 82.5456 168.674 80.5336 168.674 78.0513V76.139C168.674 73.6567 170.686 71.6448 173.168 71.6448H181.435C183.918 71.6448 185.93 73.6567 185.93 76.139V78.0513C185.93 80.5336 183.918 82.5456 181.435 82.5456Z" fill="#1F3C88"/>
<path d="M208.68 82.5456H200.413C197.931 82.5456 195.919 80.5336 195.919 78.0513V76.139C195.919 73.6567 197.931 71.6448 200.413 71.6448H208.68C211.163 71.6448 213.175 73.6567 213.175 76.139V78.0513C213.173 80.5336 211.163 82.5456 208.68 82.5456Z" fill="#1F3C88"/>
<path d="M211.031 109.943H194.424C193.243 109.943 192.283 108.985 192.283 107.803V97.853C192.283 96.6719 193.241 95.7123 194.424 95.7123H211.031C212.212 95.7123 213.171 96.6702 213.171 97.853V107.803C213.171 108.985 212.212 109.943 211.031 109.943Z" fill="#1F3C88"/>
<path d="M177.707 109.943H161.1C159.919 109.943 158.959 108.985 158.959 107.803V97.853C158.959 96.6719 159.917 95.7123 161.1 95.7123H177.707C178.888 95.7123 179.847 96.6702 179.847 97.853V107.803C179.847 108.985 178.89 109.943 177.707 109.943Z" fill="#1F3C88"/>
<path d="M144.385 109.943H127.778C126.597 109.943 125.637 108.985 125.637 107.803V97.853C125.637 96.6719 126.595 95.7123 127.778 95.7123H144.385C145.566 95.7123 146.525 96.6702 146.525 97.853V107.803C146.524 108.985 145.566 109.943 144.385 109.943Z" fill="#1F3C88"/>
<path d="M111.061 109.943H94.454C93.2729 109.943 92.3133 108.985 92.3133 107.803V97.853C92.3133 96.6719 93.2712 95.7123 94.454 95.7123H111.061C112.242 95.7123 113.202 96.6702 113.202 97.853V107.803C113.2 108.985 112.242 109.943 111.061 109.943Z" fill="#1F3C88"/>
<path d="M211.031 135.678H194.424C193.243 135.678 192.283 134.72 192.283 133.537V123.587C192.283 122.406 193.241 121.447 194.424 121.447H211.031C212.212 121.447 213.171 122.405 213.171 123.587V133.537C213.171 134.72 212.212 135.678 211.031 135.678Z" fill="#1F3C88"/>
<path d="M177.707 135.678H161.1C159.919 135.678 158.959 134.72 158.959 133.537V123.587C158.959 122.406 159.917 121.447 161.1 121.447H177.707C178.888 121.447 179.847 122.405 179.847 123.587V133.537C179.847 134.72 178.89 135.678 177.707 135.678Z" fill="#D3DFFF"/>
<path d="M144.385 135.678H127.778C126.597 135.678 125.637 134.72 125.637 133.537V123.587C125.637 122.406 126.595 121.447 127.778 121.447H144.385C145.566 121.447 146.525 122.405 146.525 123.587V133.537C146.524 134.72 145.566 135.678 144.385 135.678Z" fill="#D3DFFF"/>
<path d="M111.061 135.678H94.454C93.2729 135.678 92.3133 134.72 92.3133 133.537V123.587C92.3133 122.406 93.2712 121.447 94.454 121.447H111.061C112.242 121.447 113.202 122.405 113.202 123.587V133.537C113.2 134.72 112.242 135.678 111.061 135.678Z" fill="#D3DFFF"/>
<path d="M211.031 161.411H194.424C193.243 161.411 192.283 160.453 192.283 159.27V149.32C192.283 148.139 193.241 147.179 194.424 147.179H211.031C212.212 147.179 213.171 148.137 213.171 149.32V159.27C213.171 160.453 212.212 161.411 211.031 161.411Z" fill="#1F3C88"/>
<path d="M177.707 161.411H161.1C159.919 161.411 158.959 160.453 158.959 159.27V149.32C158.959 148.139 159.917 147.179 161.1 147.179H177.707C178.888 147.179 179.847 148.137 179.847 149.32V159.27C179.847 160.453 178.89 161.411 177.707 161.411Z" fill="#D3DFFF"/>
<path d="M144.385 161.411H127.778C126.597 161.411 125.637 160.453 125.637 159.27V149.32C125.637 148.139 126.595 147.179 127.778 147.179H144.385C145.566 147.179 146.525 148.137 146.525 149.32V159.27C146.524 160.453 145.566 161.411 144.385 161.411Z" fill="#D3DFFF"/>
<path d="M111.061 161.411H94.454C93.2729 161.411 92.3133 160.453 92.3133 159.27V149.32C92.3133 148.139 93.2712 147.179 94.454 147.179H111.061C112.242 147.179 113.202 148.137 113.202 149.32V159.27C113.2 160.453 112.242 161.411 111.061 161.411Z" fill="#D3DFFF"/>
<path d="M211.031 188.051H194.424C193.243 188.051 192.283 187.094 192.283 185.911V175.961C192.283 174.78 193.241 173.82 194.424 173.82H211.031C212.212 173.82 213.171 174.778 213.171 175.961V185.911C213.171 187.094 212.212 188.051 211.031 188.051Z" fill="#FBC343"/>
<path d="M177.707 188.051H161.1C159.919 188.051 158.959 187.094 158.959 185.911V175.961C158.959 174.78 159.917 173.82 161.1 173.82H177.707C178.888 173.82 179.847 174.778 179.847 175.961V185.911C179.847 187.094 178.89 188.051 177.707 188.051Z" fill="#D3DFFF"/>
<path d="M144.385 188.051H127.778C126.597 188.051 125.637 187.094 125.637 185.911V175.961C125.637 174.78 126.595 173.82 127.778 173.82H144.385C145.566 173.82 146.525 174.778 146.525 175.961V185.911C146.524 187.094 145.566 188.051 144.385 188.051Z" fill="#D3DFFF"/>
<path d="M111.061 188.051H94.454C93.2729 188.051 92.3133 187.094 92.3133 185.911V175.961C92.3133 174.78 93.2712 173.82 94.454 173.82H111.061C112.242 173.82 113.202 174.778 113.202 175.961V185.911C113.2 187.094 112.242 188.051 111.061 188.051Z" fill="#D3DFFF"/>
<path d="M189.189 41.1877C188.868 41.1534 188.496 41.1877 187.991 41.2392C187.131 41.3559 186.319 41.7113 185.696 42.3018C184.97 42.961 184.446 43.9223 184.244 45.2218H184.294C184.903 44.4803 185.78 44.0408 186.875 44.0408C188.851 44.0408 190.116 45.5257 190.116 47.4003C190.116 49.4774 188.614 51.3005 186.369 51.3005C184.124 51.3005 182.74 49.4774 182.74 46.6759C182.74 44.2605 183.55 42.573 184.63 41.5259C185.475 40.6985 186.64 40.192 187.82 40.0564C188.36 39.9723 188.832 39.9551 189.188 39.9723V41.1877H189.189ZM188.65 47.5016C188.65 46.1351 187.823 45.1721 186.541 45.1721C185.545 45.1721 184.767 45.6613 184.379 46.3205C184.294 46.4544 184.246 46.6244 184.246 46.8613C184.246 48.7341 184.937 50.1693 186.491 50.1693C187.754 50.1693 188.65 49.0551 188.65 47.5016Z" fill="#3A6BEA"/>
<path d="M180.773 41.1877C180.452 41.1534 180.079 41.1877 179.574 41.2392C178.714 41.3559 177.902 41.7113 177.279 42.3018C176.553 42.961 176.03 43.9223 175.827 45.2218H175.877C176.486 44.4803 177.363 44.0408 178.459 44.0408C180.435 44.0408 181.7 45.5257 181.7 47.4003C181.7 49.4774 180.198 51.3005 177.952 51.3005C175.707 51.3005 174.323 49.4774 174.323 46.6759C174.323 44.2605 175.134 42.573 176.213 41.5259C177.058 40.6985 178.223 40.192 179.403 40.0564C179.944 39.9723 180.416 39.9551 180.771 39.9723V41.1877H180.773ZM180.232 47.5016C180.232 46.1351 179.405 45.1721 178.122 45.1721C177.125 45.1721 176.349 45.6613 175.961 46.3205C175.875 46.4544 175.827 46.6244 175.827 46.8613C175.827 48.7341 176.519 50.1693 178.072 50.1693C179.338 50.1693 180.232 49.0551 180.232 47.5016Z" fill="#3A6BEA"/>
<path d="M166.835 50.0784C167.156 50.1127 167.529 50.0784 168.033 50.0269C168.893 49.9102 169.705 49.5548 170.329 48.9643C171.055 48.3051 171.578 47.3438 171.781 46.0443H171.731C171.122 46.7859 170.244 47.2253 169.149 47.2253C167.173 47.2253 165.908 45.7404 165.908 43.8658C165.908 41.7887 167.41 39.9656 169.656 39.9656C171.901 39.9656 173.285 41.7887 173.285 44.5903C173.285 47.0056 172.474 48.6931 171.395 49.7402C170.55 50.5677 169.384 51.0741 168.205 51.2097C167.664 51.2938 167.192 51.311 166.837 51.2938V50.0784H166.835ZM167.376 43.7663C167.376 45.1327 168.203 46.0958 169.486 46.0958C170.481 46.0958 171.259 45.6065 171.647 44.9473C171.733 44.8134 171.781 44.6435 171.781 44.4066C171.781 42.5337 171.089 41.0986 169.535 41.0986C168.27 41.0986 167.376 42.2127 167.376 43.7663Z" fill="#3A6BEA"/>
<path d="M158.418 50.0784C158.739 50.1127 159.112 50.0784 159.617 50.0269C160.477 49.9102 161.289 49.5548 161.912 48.9643C162.638 48.3051 163.162 47.3438 163.364 46.0443H163.314C162.705 46.7859 161.828 47.2253 160.732 47.2253C158.757 47.2253 157.491 45.7404 157.491 43.8658C157.491 41.7887 158.993 39.9656 161.239 39.9656C163.484 39.9656 164.868 41.7887 164.868 44.5903C164.868 47.0056 164.058 48.6931 162.978 49.7402C162.133 50.5677 160.968 51.0741 159.788 51.2097C159.248 51.2938 158.775 51.311 158.42 51.2938V50.0784H158.418ZM158.959 43.7663C158.959 45.1327 159.787 46.0958 161.069 46.0958C162.065 46.0958 162.842 45.6065 163.23 44.9473C163.316 44.8134 163.364 44.6435 163.364 44.4066C163.364 42.5337 162.672 41.0986 161.119 41.0986C159.854 41.0986 158.959 42.2127 158.959 43.7663Z" fill="#3A6BEA"/>
<path d="M155.521 41.1879C155.2 41.1536 154.827 41.1879 154.322 41.2394C153.462 41.3562 152.65 41.7115 152.027 42.3021C151.301 42.9613 150.778 43.9226 150.575 45.2221H150.625C151.234 44.4805 152.111 44.041 153.207 44.041C155.182 44.041 156.448 45.5259 156.448 47.4005C156.448 49.4777 154.946 51.3008 152.7 51.3008C150.455 51.3008 149.071 49.4777 149.071 46.6761C149.071 44.2608 149.881 42.5733 150.961 41.5261C151.806 40.6987 152.971 40.1923 154.151 40.0567C154.692 39.9726 155.164 39.9554 155.519 39.9726V41.1879H155.521ZM154.982 47.5018C154.982 46.1354 154.154 45.1723 152.872 45.1723C151.876 45.1723 151.099 45.6616 150.711 46.3208C150.625 46.4547 150.577 46.6246 150.577 46.8615C150.577 48.7344 151.269 50.1695 152.822 50.1695C154.086 50.1695 154.982 49.0554 154.982 47.5018Z" fill="#3A6BEA"/>
<path d="M197.855 41.1878C197.534 41.1535 197.162 41.1878 196.657 41.2393C195.797 41.3561 194.985 41.7114 194.362 42.3019C193.636 42.9611 193.112 43.9225 192.909 45.222H192.959C193.569 44.4804 194.446 44.0409 195.541 44.0409C197.517 44.0409 198.782 45.5258 198.782 47.4004C198.782 49.4776 197.28 51.3007 195.035 51.3007C192.789 51.3007 191.407 49.4776 191.407 46.6743C191.407 44.2589 192.218 42.5715 193.297 41.5243C194.142 40.6969 195.308 40.1905 196.487 40.0548C197.028 39.9707 197.5 39.9536 197.855 39.9707V41.1878ZM197.314 47.5017C197.314 46.1352 196.487 45.1722 195.205 45.1722C194.209 45.1722 193.431 45.6614 193.043 46.3206C192.958 46.4545 192.909 46.6245 192.909 46.8614C192.909 48.7343 193.601 50.1694 195.155 50.1694C196.42 50.1694 197.314 49.0553 197.314 47.5017Z" fill="#3A6BEA"/>
<path d="M262.79 109.636L258.369 123.211L258.041 124.214L255.992 130.517L255.978 130.56L249.369 130.414L224.01 129.839L222.156 124.532L221.844 123.644L216.936 109.633C232.161 114.908 244.71 103.384 262.79 109.636Z" fill="#FBC343"/>
<path d="M258.043 124.214L255.993 130.517L249.37 130.416L224.012 129.841L222.158 124.533C230.873 124.382 245.872 124.178 258.043 124.214Z" fill="#E49B31"/>
<path d="M286.375 200.87C285.073 205.029 282.492 208.519 279.156 210.976C275.812 213.434 271.711 214.843 267.356 214.843H209.922C201.62 214.843 194.334 209.295 192.123 201.283C190.851 196.652 190.168 191.955 190.058 187.281C190.051 186.829 190.044 186.379 190.044 185.928C190.044 185.396 190.051 184.862 190.067 184.331C190.535 167.388 198.815 151.605 212.103 141.084L225.844 130.205L257.288 130.933L274.573 147.473C277.003 149.799 279.17 152.4 280.907 155.282C282.989 158.736 284.677 162.38 285.954 166.147C289.726 177.24 289.973 189.397 286.375 200.87Z" fill="#FBC343"/>
<path d="M235.232 199.656V193.579C230.944 193.387 226.786 192.235 224.352 190.827L226.274 183.339C228.963 184.809 232.736 186.153 236.899 186.153C240.547 186.153 243.043 184.745 243.043 182.187C243.043 179.753 240.995 178.217 236.259 176.617C229.411 174.313 224.738 171.113 224.738 164.907C224.738 159.273 228.709 154.86 235.556 153.516V147.433H241.826V153.068C246.114 153.26 248.996 154.156 251.106 155.177L249.25 162.411C247.588 161.707 244.644 160.233 240.032 160.233C235.874 160.233 234.53 162.025 234.53 163.819C234.53 165.929 236.77 167.275 242.21 169.323C249.824 172.011 252.898 175.53 252.898 181.293C252.898 186.989 248.866 191.85 241.506 193.133V199.658H235.232V199.656Z" fill="white"/>
<path d="M261.778 136.076H218.723C216.491 136.076 214.666 134.251 214.666 132.02C214.666 129.788 216.491 127.963 218.723 127.963H261.778C264.01 127.963 265.835 129.788 265.835 132.02C265.835 134.25 264.008 136.076 261.778 136.076Z" fill="#ED7545"/>
<path opacity="0.4" d="M286.375 200.87C285.073 205.029 282.492 208.519 279.156 210.976C275.812 213.434 271.711 214.843 267.356 214.843H209.922C201.62 214.843 194.334 209.295 192.123 201.283C190.851 196.652 190.168 191.955 190.058 187.281C199.56 196.339 210.756 208.184 236.93 208.548C269.431 209 283.437 193.766 285.952 166.145C289.726 177.24 289.973 189.397 286.375 200.87Z" fill="#E49B31"/>
<path d="M370 213.937H0V214.845H370V213.937Z" fill="#102048"/>
<path d="M42.3208 66.3025L71.3014 49.7024L74.1391 54.3769C74.1391 54.3769 52.3118 76.1098 50.4869 76.8119C48.6604 77.514 42.3208 66.3025 42.3208 66.3025Z" fill="#DA8C8D"/>
<mask id="mask0_52074_534514" style="mask-type:luminance" maskUnits="userSpaceOnUse" x="42" y="49" width="33" height="28">
<path d="M42.3208 66.3025L71.3014 49.7024L74.1391 54.3769C74.1391 54.3769 52.3118 76.1098 50.4869 76.8119C48.6604 77.514 42.3208 66.3025 42.3208 66.3025Z" fill="white"/>
</mask>
<g mask="url(#mask0_52074_534514)">
<path d="M61.7173 68.8585L46.5592 62.3009L43.9293 64.4519L55.1597 74.0497L61.7173 68.8585Z" fill="#C17276"/>
</g>
<path d="M69.5847 63.7139L88.3135 71.2929C88.9401 71.547 89.6525 71.2448 89.9065 70.6183L99.6795 46.4666C99.9335 45.84 99.6314 45.1276 99.0048 44.8735L80.2761 37.2945C79.6495 37.0404 78.9371 37.3426 78.683 37.9691L68.9101 62.1208C68.656 62.7474 68.9582 63.4598 69.5847 63.7139Z" fill="#8296C9"/>
<path d="M71.1931 61.8544L88.4464 68.8358L97.3905 46.7321L80.1371 39.7507L71.1931 61.8544Z" fill="white"/>
<path d="M86.3737 43.2324L90.4937 44.8993C90.6979 44.9817 90.9297 44.8838 91.0121 44.6795L92.0695 42.0651L87.2131 40.0995L86.1557 42.714C86.0715 42.9182 86.1694 43.15 86.3737 43.2324Z" fill="#343766"/>
<path d="M89.0081 50.6191L92.7207 52.1213L94.1309 48.6363L90.4183 47.134L89.0081 50.6191Z" fill="#CAD2EA"/>
<path d="M81.1253 44.2674L88.56 47.2758L88.8704 46.5087L81.4356 43.5003L81.1253 44.2674Z" fill="#CAD2EA"/>
<path d="M80.5763 45.6271L88.0111 48.6355L88.3214 47.8685L80.8867 44.8601L80.5763 45.6271Z" fill="#CAD2EA"/>
<path d="M84.78 48.908L87.4614 49.993L87.7717 49.226L85.0903 48.141L84.78 48.908Z" fill="#CAD2EA"/>
<path d="M87.0646 55.4217L90.7772 56.924L92.1874 53.4389L88.4748 51.9366L87.0646 55.4217Z" fill="#CAD2EA"/>
<path d="M79.1818 49.07L86.6165 52.0784L86.9269 51.3113L79.4921 48.303L79.1818 49.07Z" fill="#CAD2EA"/>
<path d="M78.6335 50.4281L86.0682 53.4365L86.3786 52.6695L78.9439 49.6611L78.6335 50.4281Z" fill="#CAD2EA"/>
<path d="M82.8367 53.7104L85.5181 54.7954L85.8284 54.0284L83.147 52.9434L82.8367 53.7104Z" fill="#CAD2EA"/>
<path d="M85.1213 60.223L88.834 61.7252L90.2441 58.2402L86.5315 56.7379L85.1213 60.223Z" fill="#CAD2EA"/>
<path d="M77.2388 53.8711L84.6735 56.8795L84.9839 56.1125L77.5491 53.1041L77.2388 53.8711Z" fill="#CAD2EA"/>
<path d="M76.6899 55.2307L84.1247 58.2391L84.4351 57.4721L77.0003 54.4637L76.6899 55.2307Z" fill="#CAD2EA"/>
<path d="M80.8929 58.5133L83.5743 59.5983L83.8847 58.8312L81.2033 57.7462L80.8929 58.5133Z" fill="#CAD2EA"/>
<path d="M83.1778 65.0257L86.8904 66.528L88.3006 63.0429L84.588 61.5407L83.1778 65.0257Z" fill="#CAD2EA"/>
<path d="M75.2952 58.6737L82.73 61.6821L83.0403 60.9151L75.6056 57.9067L75.2952 58.6737Z" fill="#CAD2EA"/>
<path d="M74.7467 60.0332L82.1815 63.0416L82.4918 62.2746L75.0571 59.2662L74.7467 60.0332Z" fill="#CAD2EA"/>
<path d="M78.9504 63.3142L81.6318 64.3992L81.9421 63.6321L79.2607 62.5471L78.9504 63.3142Z" fill="#CAD2EA"/>
<path d="M71.3014 49.7024L74.6197 48.0098C74.6197 48.0098 78.7963 52.1555 78.6212 52.2636C78.4461 52.3718 77.3337 52.5503 76.5458 52.2636C75.7561 51.977 73.5004 50.777 73.5004 50.777L72.5425 53.1443L71.3014 49.7024Z" fill="#DA8C8D"/>
<path d="M13.8551 101.154L12.3273 107.169C12.1076 108.035 11.9308 108.912 11.8209 109.799C11.2887 114.112 11.5239 118.549 11.7351 122.885C12.4715 137.964 16.746 154.288 16.746 154.288L8.14209 204.583L12.6415 205.827C12.6415 205.827 31.0114 167.263 34.0585 153.574C34.1992 152.942 34.3538 152.259 34.522 151.531L40.3569 104.84L13.8551 101.154Z" fill="#39548B"/>
<path d="M7.84686 204.111L13.4964 205.36L12.5986 208.001C12.5986 208.001 18.6807 209.965 20.9999 213.935L6.57654 211.091L7.84686 204.111Z" fill="#1F1949"/>
<path d="M16.4473 104.272L16.5503 111.646C16.6173 116.487 17.1649 121.315 18.267 126.028C21.702 140.73 28.8382 156.02 28.8382 156.02L29.4115 207.043L34.062 207.458C34.062 207.458 45.2031 166.219 45.7404 152.206C45.7644 151.56 45.7953 150.86 45.8279 150.113L43.1774 103.133L16.4473 104.272Z" fill="#39548B"/>
<path d="M29.0356 206.634L34.8173 206.849L34.4087 209.607C34.4087 209.607 40.7449 210.447 43.7388 213.937H29.039L29.0356 206.634Z" fill="#1F1949"/>
<path d="M28.9789 168.657L28.8364 156.02C28.8364 156.02 18.0249 133.642 17.2593 120.712C17.2593 120.712 19.0961 141.053 23.1182 153.488L24.8709 178.656L28.9789 168.657Z" fill="#343766"/>
<path d="M33.3804 32.9701C29.4956 24.2169 20.7235 29.8973 19.4428 35.6498C18.878 38.1819 20.0763 40.9303 22.1981 43.1173C22.7302 46.2845 23.2006 50.5127 22.8487 54.3769C22.8487 54.3769 28.4433 57.0943 31.8423 56.2686C33.722 55.812 32.4019 51.2371 30.8466 47.2407C31.583 47.2836 32.3212 47.2544 33.0525 47.1377C40.1389 46.0064 33.3804 32.9701 33.3804 32.9701Z" fill="#DA8C8D"/>
<mask id="mask1_52074_534514" style="mask-type:luminance" maskUnits="userSpaceOnUse" x="19" y="28" width="18" height="29">
<path d="M33.3804 32.9701C29.4956 24.2169 20.7235 29.8973 19.4428 35.6498C18.878 38.1819 20.0763 40.9303 22.1981 43.1173C22.7302 46.2845 23.2006 50.5127 22.8487 54.3769C22.8487 54.3769 28.4433 57.0943 31.8423 56.2686C33.722 55.812 32.4019 51.2371 30.8466 47.2407C31.583 47.2836 32.3212 47.2544 33.0525 47.1377C40.1389 46.0064 33.3804 32.9701 33.3804 32.9701Z" fill="white"/>
</mask>
<g mask="url(#mask1_52074_534514)">
<path d="M35.3116 45.9841C35.2275 46.0733 30.8363 45.9549 29.0184 45.0708C29.0184 45.0708 29.5832 46.9917 31.7358 47.6509C33.8885 48.3101 35.3116 45.9841 35.3116 45.9841Z" fill="#C17276"/>
</g>
<path d="M43.8125 102.785L44.676 87.7179C45.2288 78.0583 43.3284 68.3695 38.86 59.7879C36.5202 55.2937 33.6894 51.5479 30.6217 51.0621C22.4436 49.7678 18.43 56.5262 17.6369 61.8359C16.8438 67.1455 14.9538 102.785 14.9538 102.785H45.7901" fill="#F9DD89"/>
<path d="M17.1838 62.1637C17.3589 58.9672 18.6137 55.9082 20.8025 53.5718C23.7156 50.4646 32.1582 48.8029 35.3323 54.2928C35.3323 54.2928 22.8504 54.3752 23.6212 67.2432C24.1019 75.2618 26.6048 85.0038 45.3438 88.4217V113.09L43.3199 113.528C33.6911 115.614 23.6332 114.113 15.0328 109.308L11.4141 107.286L17.1838 62.1637Z" fill="#39548B"/>
<mask id="mask2_52074_534514" style="mask-type:luminance" maskUnits="userSpaceOnUse" x="11" y="50" width="35" height="65">
<path d="M17.1838 62.1637C17.3589 58.9672 18.6137 55.9082 20.8025 53.5718C23.7156 50.4646 32.1582 48.8029 35.3323 54.2928C35.3323 54.2928 22.8504 54.3752 23.6212 67.2432C24.1019 75.2618 26.6048 85.0038 45.3438 88.4217V113.09L43.3199 113.528C33.6911 115.614 23.6332 114.113 15.0328 109.308L11.4141 107.286L17.1838 62.1637Z" fill="white"/>
</mask>
<g mask="url(#mask2_52074_534514)">
<path d="M13.4105 80.9285L27.8716 86.4801L27.1129 92.3013L11.8569 86.7085L13.4105 80.9285Z" fill="white"/>
</g>
<mask id="mask3_52074_534514" style="mask-type:luminance" maskUnits="userSpaceOnUse" x="11" y="50" width="35" height="65">
<path d="M17.1838 62.1637C17.3589 58.9672 18.6137 55.9082 20.8025 53.5718C23.7156 50.4646 32.1582 48.8029 35.3323 54.2928C35.3323 54.2928 22.8504 54.3752 23.6212 67.2432C24.1019 75.2618 26.6048 85.0038 45.3438 88.4217V113.09L43.3199 113.528C33.6911 115.614 23.6332 114.113 15.0328 109.308L11.4141 107.286L17.1838 62.1637Z" fill="white"/>
</mask>
<g mask="url(#mask3_52074_534514)">
<path d="M12.3685 89.2388L26.8691 94.4935L26.0709 100.612L10.8167 95.0188L12.3685 89.2388Z" fill="white"/>
</g>
<path d="M43.7593 113.432C43.7593 113.432 35.6481 115.43 28.3781 114.443C21.108 113.457 12.1934 107.722 12.1934 107.722C12.1934 107.722 24.0572 117.874 31.1385 118.546C38.2197 119.217 43.9293 116.432 43.9293 116.432L43.7593 113.432Z" fill="#343766"/>
<path d="M35.3305 54.2928L58.229 72.8242L52.7048 87.893C52.7048 87.893 33.5332 82.4375 32.0277 78.2557C30.5222 74.0722 35.3305 54.2928 35.3305 54.2928Z" fill="#F9DD89"/>
<path d="M44.743 85.3094C44.743 85.3094 34.304 81.2358 30.3711 76.309C30.3711 76.309 29.2673 85.7506 44.6417 88.2878L44.743 85.3094Z" fill="#F4C54E"/>
<path d="M53.5082 85.7248L57.7879 74.0498L62.9224 77.8968L90.9211 93.0086C90.9211 93.0086 96.6135 94.8832 96.768 95.0772C96.9225 95.2694 100.812 101.508 100.812 101.508C100.812 101.508 99.5696 102.018 99.0872 101.508C98.6066 100.998 95.5904 97.3998 95.5904 97.3998C95.5904 97.3998 95.0428 99.4564 94.0334 99.9851C93.0223 100.514 90.3271 99.937 89.7984 99.5044C89.2679 99.0718 87.6938 97.2745 87.6938 97.2745C84.1317 96.2411 59.6007 89.1255 59.0582 88.9092C58.4711 88.674 53.5082 85.7248 53.5082 85.7248Z" fill="#DA8C8D"/>
<mask id="mask4_52074_534514" style="mask-type:luminance" maskUnits="userSpaceOnUse" x="53" y="74" width="48" height="28">
<path d="M53.5082 85.7248L57.7879 74.0498L62.9224 77.8968L90.9211 93.0086C90.9211 93.0086 96.6135 94.8832 96.768 95.0772C96.9225 95.2694 100.812 101.508 100.812 101.508C100.812 101.508 99.5696 102.018 99.0872 101.508C98.6066 100.998 95.5904 97.3998 95.5904 97.3998C95.5904 97.3998 95.0428 99.4564 94.0334 99.9851C93.0223 100.514 90.3271 99.937 89.7984 99.5044C89.2679 99.0718 87.6938 97.2745 87.6938 97.2745C84.1317 96.2411 59.6007 89.1255 59.0582 88.9092C58.4711 88.674 53.5082 85.7248 53.5082 85.7248Z" fill="white"/>
</mask>
<g mask="url(#mask4_52074_534514)">
<path d="M59.3106 73.7167C59.3106 73.7167 61.2899 90.5108 60.5414 90.9382C59.7929 91.3657 51.129 85.9101 51.129 85.9101L56.7442 72.6472L59.3106 73.7167Z" fill="#C17276"/>
</g>
<path d="M14.4302 27.4117C18.188 26.2649 19.5218 28.179 19.9939 29.5746C22.2359 27.2245 25.1336 25.6658 26.9584 25.9439C29.9162 26.3937 31.9281 30.5755 31.9281 30.5755C31.9281 30.5755 32.8706 34.2543 29.336 37.4661C29.336 37.4661 29.3892 35.6602 28.3764 35.6962C27.3618 35.7323 26.6013 37.6498 26.9704 38.6592C27.2176 39.3338 28.3764 40.266 28.3764 40.266L27.1524 43.0075C26.6082 44.228 25.3963 45.0126 24.059 45.0126H22.4882C22.4882 45.0126 15.7675 39.3871 16.9898 34.6285C17.2593 33.5745 17.7623 32.5445 18.4009 31.578C18.1228 31.5385 17.7915 31.5334 17.3932 31.5866C15.1736 31.887 15.7435 38.6953 14.4629 45.7404C13.1805 52.7856 5.61005 51.6886 5.61005 51.6886C5.61005 51.6886 5.60833 30.1034 14.4302 27.4117Z" fill="#343766"/>
<path d="M28.8089 27.5077C28.8089 27.5077 30.2766 25.9266 32.8722 26.2099C35.4678 26.4914 38.1201 33.3769 38.1201 33.3769C38.1201 33.3769 33.0405 32.7555 31.0097 31.3444C28.9771 29.935 28.8089 27.5077 28.8089 27.5077Z" fill="#343766"/>
</g>
<defs>
<clipPath id="clip0_52074_534514">
<rect width="370" height="214.845" fill="white"/>
</clipPath>
</defs>
</svg>
