<svg width="100" height="85" viewBox="0 0 100 85" fill="none" xmlns="http://www.w3.org/2000/svg">
<g id="Group">
<g id="Isolation Mode">
<g id="Group_2" style="mix-blend-mode:screen" opacity="0.46">
<g id="Group_3" style="mix-blend-mode:multiply" opacity="0.48">
<path id="Vector" d="M35.611 8.16388C36.5203 7.53922 37.3594 6.76847 38.1067 5.87153L35.611 3.51588L38.865 4.85895C39.6029 3.78817 40.2146 2.59254 40.6817 1.30791L39.4196 0C38.8044 0.632595 38.1432 1.19286 37.4446 1.67356C33.2114 4.57768 28.3332 4.11358 25.413 0.878971L25.2998 0.836782C24.9113 1.68147 24.591 2.5718 24.3434 3.49479L25.7922 4.73238L24.1284 4.37376C23.8829 5.52183 23.748 6.70205 23.7266 7.88964C24.5519 8.50833 25.4358 8.99726 26.3581 9.34521L26.9976 7.40445L27.0712 9.59133C27.8315 9.82355 28.609 9.95787 29.3915 9.99215L30.0479 6.56064L30.3988 9.99215C31.5812 9.92734 32.749 9.64047 33.8623 9.1413L33.551 6.02623L34.8357 8.64908C35.096 8.50141 35.3563 8.33968 35.611 8.16388Z" fill="#FFB200"/>
</g>
</g>
<path id="Vector_2" d="M88.4742 56.0361C88.4742 56.0361 81.4963 49.145 80.4494 52.7382C79.4024 56.3315 88.4742 56.0361 88.4742 56.0361Z" stroke="#DDC8F3" stroke-width="0.36" stroke-miterlimit="10"/>
<path id="Vector_3" d="M88.5078 56.0993C88.7496 56.0568 88.996 56.1126 89.2102 56.2583C89.4244 56.404 89.5949 56.6319 89.6962 56.908C89.8828 57.4735 89.9301 58.0951 89.8321 58.6941C89.7699 59.0959 89.7699 59.5087 89.8321 59.9106C89.8867 60.1639 89.9788 60.4024 90.1037 60.6137C90.4376 61.1878 90.8658 61.6672 91.3601 62.0201C91.714 62.2219 92.0466 62.4769 92.3504 62.7795C92.6061 63.1038 92.7995 63.4956 92.9164 63.9257C93.2103 64.9212 93.3299 65.9832 93.2672 67.0408" stroke="#DDC8F3" stroke-width="0.36" stroke-linecap="round" stroke-linejoin="round"/>
<path id="Vector_4" d="M87.4892 61.6616C87.2311 61.5281 86.9997 61.3262 86.811 61.0699C86.6223 60.8136 86.481 60.5092 86.3969 60.1779C86.3184 59.845 86.2999 59.4947 86.343 59.1519C86.386 58.8091 86.4895 58.4823 86.6459 58.195C86.7599 57.976 86.9205 57.8007 87.11 57.6887C87.2014 57.6383 87.3019 57.6189 87.4014 57.6325C87.5008 57.6461 87.5955 57.6922 87.6759 57.766C87.7628 57.8659 87.8339 57.9852 87.8853 58.1176C88.0325 58.4622 88.14 58.9333 87.8853 59.1935C87.7934 59.2753 87.6821 59.3163 87.5692 59.3099C87.4562 59.3035 87.3483 59.2501 87.2628 59.1583C87.122 58.9921 87.0258 58.7761 86.9873 58.5395C86.9488 58.303 86.9699 58.0575 87.0477 57.8364C87.2101 57.3941 87.4475 57.0006 87.7438 56.6832L88.3098 55.98" stroke="#DDC8F3" stroke-width="0.36" stroke-linecap="round" stroke-linejoin="round"/>
<g id="Vector_5" style="mix-blend-mode:multiply" opacity="0.29">
<path d="M43.8536 60L42 83H58L56.1464 60H43.8536Z" fill="#00194F"/>
</g>
<path id="Vector_6" d="M92.0283 4.45825H7.99418C6.50018 4.45825 5.28906 5.9631 5.28906 7.81944V70.5287C5.28906 72.3851 6.50018 73.8899 7.99418 73.8899H92.0283C93.5223 73.8899 94.7334 72.3851 94.7334 70.5287V7.81944C94.7334 5.9631 93.5223 4.45825 92.0283 4.45825Z" fill="#AFBBD6"/>
<path id="Vector_7" style="mix-blend-mode:multiply" d="M90.7316 9.05005H8.77441V61.725H90.7316V9.05005Z" fill="url(#paint0_linear_647_200)"/>
<path id="Vector_8" style="mix-blend-mode:multiply" d="M90.7316 9.05005H8.77441V61.725H90.7316V9.05005Z" fill="url(#paint1_linear_647_200)"/>
<path id="Vector_9" d="M91 9H9V70H91V9Z" fill="#E6EFF7"/>
<path id="Vector_10" d="M63.3348 82.2434H36.6854C36.0728 82.2434 35.5762 82.8605 35.5762 83.6216C35.5762 84.3828 36.0728 84.9999 36.6854 84.9999H63.3348C63.9474 84.9999 64.444 84.3828 64.444 83.6216C64.444 82.8605 63.9474 82.2434 63.3348 82.2434Z" fill="#00194F"/>
<g id="Group 19734">
<path id="Vector_11" d="M1.81361 20.7863C-0.229376 20.7863 -0.557613 18.8667 0.998679 16.6305L9.0914 5H14.9374L8.01048 16.6305C6.66924 18.8667 3.86226 20.7863 1.81361 20.7863Z" fill="#00194F"/>
<path id="Vector_12" d="M9.22685 20.7863C7.18387 20.7863 6.66322 18.8667 7.9988 16.6305L14.937 5H20.783L14.9993 16.6305C13.8901 18.8667 11.2755 20.7863 9.22685 20.7863Z" fill="#AF2828"/>
<path id="Vector_13" d="M16.6467 20.7863C14.5981 20.7863 13.8907 18.8667 14.9999 16.6305L20.7837 5H26.6296L22.0004 16.6305C21.4574 17.8226 20.6832 18.8272 19.7482 19.553C18.8132 20.2788 17.7471 20.7027 16.6467 20.7863Z" fill="#00194F"/>
<path id="Vector_14" d="M24.0598 20.7863C22.0111 20.7863 21.1113 18.8667 21.9998 16.6305L26.6234 5H32.4751L29.0059 16.6305C28.5752 17.8273 27.8838 18.8506 27.0098 19.5849C26.1358 20.3192 25.114 20.7354 24.0598 20.7863Z" fill="#AF2828"/>
<path id="Vector_15" d="M31.4735 20.7863C29.4248 20.7863 28.3383 18.8667 29.0061 16.6305L32.4752 5H38.3212L36.0065 16.6305C35.5595 18.8667 33.5221 20.7863 31.4735 20.7863Z" fill="#00194F"/>
<path id="Vector_16" d="M38.8876 20.7863C36.8389 20.7863 35.5599 18.8667 36.007 16.6305L38.316 5H44.162L43.0301 16.6305C42.7868 18.8667 40.9362 20.7863 38.8876 20.7863Z" fill="#AF2828"/>
<path id="Vector_17" d="M46.301 20.7863C44.2524 20.7863 42.7866 18.8667 43.0073 16.6305L44.1392 5H49.9852V16.6305C50.0078 18.8667 48.3497 20.7863 46.301 20.7863Z" fill="#00194F"/>
<path id="Vector_18" d="M53.7146 20.7863C51.6716 20.7863 50.0078 18.8667 50.0078 16.6305V5H55.8538L57.014 16.6305C57.246 18.8667 55.7633 20.7863 53.7146 20.7863Z" fill="#AF2828"/>
<path id="Vector_19" d="M61.1336 20.7863C59.0849 20.7863 57.2344 18.8667 57.0137 16.6305L55.8535 5H61.6995L64.0368 16.6305C64.4556 18.8667 63.1766 20.7863 61.1336 20.7863Z" fill="#00194F"/>
<path id="Vector_20" d="M68.5637 20.7863C66.5151 20.7863 64.4721 18.8667 64.0363 16.6305L61.7217 5H67.545L71.0142 16.6305C71.6819 18.8667 70.5954 20.7863 68.5637 20.7863Z" fill="#AF2828"/>
<path id="Vector_21" d="M75.9612 20.7863C74.9069 20.7354 73.8851 20.3192 73.0111 19.5849C72.1371 18.8506 71.4457 17.8273 71.015 16.6305L67.5459 5H73.3919L78.0155 16.6305C78.904 18.8667 78.0098 20.7863 75.9612 20.7863Z" fill="#00194F"/>
<path id="Vector_22" d="M83.3745 20.7863C82.2731 20.7039 81.2059 20.2804 80.2698 19.5546C79.3338 18.8288 78.5587 17.8236 78.0152 16.6305L73.3916 5H79.2376L85.0157 16.6305C86.1079 18.8667 85.4232 20.7863 83.3745 20.7863Z" fill="#AF2828"/>
<path id="Vector_23" d="M90.7878 20.7863C88.7392 20.7863 86.1303 18.8667 85.0154 16.6305L79.2373 5H85.0833L92.0215 16.6305C93.3515 18.8667 92.8365 20.7863 90.7878 20.7863Z" fill="#00194F"/>
<path id="Vector_24" d="M98.2021 20.7863C96.1591 20.7863 93.3521 18.8667 92.0222 16.6305L85.084 5H90.93L99.0227 16.6305C100.579 18.8667 100.256 20.7863 98.2021 20.7863Z" fill="#AF2828"/>
<path id="Vector_25" style="mix-blend-mode:multiply" d="M1.78549 15.4634L0.976218 16.6307C-0.580074 18.8668 -0.251837 20.7864 1.79115 20.7864C3.83414 20.7864 6.63546 18.8738 7.97104 16.6377C6.64678 18.8738 7.16177 20.7864 9.20476 20.7864C11.2477 20.7864 13.8623 18.8738 14.9772 16.6377C13.8453 18.8738 14.5754 20.7864 16.624 20.7864C17.7239 20.7036 18.7896 20.2807 19.7245 19.5562C20.6595 18.8317 21.4339 17.8285 21.9777 16.6377C21.0948 18.8738 21.9777 20.7864 24.0376 20.7864C25.0919 20.7355 26.1137 20.3193 26.9877 19.585C27.8617 18.8507 28.5531 17.8274 28.9838 16.6307C28.316 18.8668 29.4026 20.7864 31.4512 20.7864C33.4942 20.7864 35.5372 18.8738 35.9786 16.6377C35.5372 18.8738 36.8162 20.7864 38.8592 20.7864C40.9022 20.7864 42.7528 18.8738 42.9791 16.6377C42.7584 18.8738 44.2298 20.7864 46.2728 20.7864C48.3158 20.7864 49.9796 18.8738 49.9796 16.6377C49.9796 18.8738 51.6434 20.7864 53.6864 20.7864C55.7294 20.7864 57.2065 18.8668 56.9858 16.6307C57.2065 18.8668 59.057 20.7864 61.1057 20.7864C63.1543 20.7864 64.4277 18.8738 63.9862 16.6377C64.4333 18.8738 66.4706 20.7864 68.5136 20.7864C70.5566 20.7864 71.6432 18.8738 70.9811 16.6377C71.4126 17.8331 72.1043 18.8549 72.9783 19.588C73.8522 20.321 74.8736 20.7361 75.9272 20.7864C77.9702 20.7864 78.87 18.8738 77.9872 16.6377C78.5305 17.8289 79.3049 18.8324 80.2399 19.557C81.1749 20.2816 82.2409 20.7042 83.3409 20.7864C85.3895 20.7864 86.0969 18.8668 84.982 16.6307C86.1139 18.8668 88.7058 20.7864 90.7545 20.7864C92.8031 20.7864 93.3181 18.8738 91.9938 16.6377C93.3238 18.8738 96.1251 20.7864 98.1681 20.7864C100.217 20.7864 100.545 18.8668 98.9887 16.6307L98.1737 15.4634H1.78549Z" fill="url(#paint2_linear_647_200)"/>
</g>
</g>
<g id="Group 19733">
<path id="Vector_26" d="M29.45 60.4982H26.2095C26.0346 60.498 25.8618 60.4565 25.7031 60.3766C25.5444 60.2967 25.4034 60.1803 25.29 60.0354C25.1765 59.8906 25.0933 59.7207 25.046 59.5374C24.9987 59.3542 24.9885 59.162 25.0161 58.9741L28.3312 35.9858C28.3749 35.6759 28.5194 35.3934 28.7385 35.1898C28.9575 34.9862 29.2365 34.875 29.5246 34.8765H33.1464L29.45 60.4982Z" fill="#00194F"/>
<path id="Vector_27" d="M57.3053 60.4982H29.4502L33.1382 34.8765H54.0399C54.359 34.8769 54.6675 35.0018 54.9092 35.2285C55.151 35.4551 55.3101 35.7686 55.3577 36.112L58.6727 58.8117C58.7033 59.0239 58.6905 59.2408 58.6352 59.4469C58.58 59.6531 58.4836 59.8434 58.3531 60.0045C58.2225 60.1655 58.0609 60.2932 57.8798 60.3786C57.6987 60.4639 57.5025 60.5047 57.3053 60.4982Z" fill="#FFB200"/>
<path id="Vector_28" d="M33.2045 35.2011C33.2139 35.151 33.2388 35.1058 33.2749 35.073C33.3111 35.0402 33.3564 35.0218 33.4034 35.0208H54.1228C54.3166 35.0218 54.508 35.0683 54.6839 35.157C54.8598 35.2457 55.0161 35.3746 55.1422 35.5348C55.0197 35.3335 54.8535 35.1682 54.6584 35.0534C54.4633 34.9386 54.2452 34.8778 54.0233 34.8765H33.1382L29.4502 60.4982H29.5745L33.2045 35.2011Z" fill="#FFB200"/>
<g id="Vector_29" style="mix-blend-mode:multiply" opacity="0.29">
<path d="M31.05 34.8765L27.6355 58.5862L25 59.2266C25.0128 59.5671 25.1456 59.8893 25.371 60.1261C25.5963 60.3629 25.8968 60.4961 26.21 60.4982H29.4505L33.1386 34.8765H31.05Z" fill="#00194F"/>
</g>
<path id="Vector_30" style="mix-blend-mode:multiply" opacity="0.48" d="M58.6318 58.8298L55.3167 36.1301C55.2691 35.7867 55.11 35.4732 54.8682 35.2465C54.6265 35.0198 54.3181 34.895 53.9989 34.8945H52.7392C52.7392 35.111 52.7392 35.3184 52.7392 35.5348C52.7392 38.4234 52.2164 41.2837 51.2005 43.9524C50.1847 46.6212 48.6957 49.046 46.8187 51.0885C44.9417 53.1311 42.7133 54.7513 40.2609 55.8567C37.8085 56.9621 35.1799 57.5311 32.5254 57.5311C31.6468 57.5318 30.7691 57.4685 29.8982 57.3417L29.4424 60.5162H57.2975C57.4919 60.5175 57.6844 60.4727 57.8614 60.385C58.0384 60.2974 58.1958 60.1689 58.3227 60.0085C58.4496 59.8481 58.543 59.6596 58.5963 59.4561C58.6497 59.2526 58.6618 59.0389 58.6318 58.8298Z" fill="url(#paint3_linear_647_200)"/>
<path id="Vector_31" style="mix-blend-mode:multiply" opacity="0.48" d="M46.8633 60.4979H57.3058C57.4996 60.4978 57.6911 60.452 57.8671 60.3638C58.0431 60.2756 58.1995 60.1469 58.3255 59.9867C58.4515 59.8264 58.5441 59.6384 58.597 59.4355C58.6499 59.2327 58.6618 59.0197 58.6319 58.8114L56.9743 47.1504C56.2023 50.0017 54.9087 52.6539 53.1712 54.9476C51.4337 57.2412 49.2881 59.1291 46.8633 60.4979Z" fill="url(#paint4_linear_647_200)"/>
<path id="Vector_32" style="mix-blend-mode:multiply" opacity="0.31" d="M36.8188 40.2875C37.7067 40.2875 38.4266 39.5042 38.4266 38.5379C38.4266 37.5717 37.7067 36.7883 36.8188 36.7883C35.9308 36.7883 35.2109 37.5717 35.2109 38.5379C35.2109 39.5042 35.9308 40.2875 36.8188 40.2875Z" fill="url(#paint5_linear_647_200)"/>
<path id="Vector_33" d="M36.7016 40.2336C37.5895 40.2336 38.3094 39.4502 38.3094 38.484C38.3094 37.5177 37.5895 36.7344 36.7016 36.7344C35.8136 36.7344 35.0938 37.5177 35.0938 38.484C35.0938 39.4502 35.8136 40.2336 36.7016 40.2336Z" fill="#FF4342"/>
<path id="Vector_34" style="mix-blend-mode:multiply" opacity="0.48" d="M37.2411 36.8513C37.3973 37.1215 37.4805 37.434 37.4815 37.7532C37.4815 37.9825 37.4398 38.2096 37.3589 38.4214C37.278 38.6331 37.1595 38.8254 37.0101 38.9871C36.8607 39.1489 36.6833 39.2769 36.4883 39.3639C36.2933 39.4508 36.0844 39.4949 35.8737 39.4938C35.6903 39.4933 35.5082 39.4598 35.335 39.3945C35.468 39.6325 35.6515 39.8322 35.8702 39.9769C36.0888 40.1216 36.3362 40.2071 36.5915 40.2263C36.8468 40.2454 37.1026 40.1976 37.3374 40.0869C37.5722 39.9762 37.7792 39.8058 37.941 39.5899C38.1027 39.3741 38.2145 39.1192 38.267 38.8467C38.3195 38.5741 38.3111 38.2918 38.2425 38.0235C38.1739 37.7552 38.0472 37.5087 37.873 37.3048C37.6987 37.1008 37.4821 36.9453 37.2411 36.8513Z" fill="url(#paint6_linear_647_200)"/>
<path id="Vector_35" style="mix-blend-mode:multiply" opacity="0.31" d="M49.8139 40.2875C50.7018 40.2875 51.4217 39.5042 51.4217 38.5379C51.4217 37.5717 50.7018 36.7883 49.8139 36.7883C48.9259 36.7883 48.2061 37.5717 48.2061 38.5379C48.2061 39.5042 48.9259 40.2875 49.8139 40.2875Z" fill="url(#paint7_linear_647_200)"/>
<path id="Vector_36" d="M49.6977 40.2336C50.5856 40.2336 51.3055 39.4502 51.3055 38.484C51.3055 37.5177 50.5856 36.7344 49.6977 36.7344C48.8097 36.7344 48.0898 37.5177 48.0898 38.484C48.0898 39.4502 48.8097 40.2336 49.6977 40.2336Z" fill="#FF4342"/>
<path id="Vector_37" style="mix-blend-mode:multiply" opacity="0.48" d="M50.2445 36.8513C50.3982 37.1223 50.4786 37.4348 50.4766 37.7532C50.4766 37.9825 50.435 38.2096 50.3541 38.4214C50.2732 38.6331 50.1546 38.8254 50.0052 38.9871C49.8558 39.1489 49.6785 39.2769 49.4834 39.3639C49.2884 39.4508 49.0795 39.4949 48.8688 39.4938C48.6854 39.4933 48.5034 39.4598 48.3301 39.3946C48.4634 39.6314 48.6468 39.8302 48.8651 39.9741C49.0834 40.1181 49.3302 40.2031 49.5848 40.2221C49.8395 40.2411 50.0946 40.1935 50.3289 40.0833C50.5632 39.9731 50.7698 39.8035 50.9316 39.5886C51.0933 39.3737 51.2055 39.1199 51.2586 38.8482C51.3118 38.5765 51.3045 38.295 51.2372 38.027C51.17 37.7591 51.0448 37.5126 50.8721 37.308C50.6994 37.1035 50.4842 36.9469 50.2445 36.8513Z" fill="url(#paint8_linear_647_200)"/>
<path id="Vector_38" d="M49.7797 39.1331C49.6236 39.1331 49.474 39.0657 49.3636 38.9456C49.2533 38.8255 49.1913 38.6626 49.1913 38.4928V31.774C49.1913 30.0518 48.5626 28.4002 47.4435 27.1825C46.3245 25.9648 44.8067 25.2806 43.2241 25.2806C41.6415 25.2806 40.1237 25.9648 39.0047 27.1825C37.8856 28.4002 37.2569 30.0518 37.2569 31.774V38.4567C37.2569 38.6266 37.1949 38.7894 37.0846 38.9095C36.9742 39.0296 36.8246 39.0971 36.6685 39.0971C36.5124 39.0971 36.3628 39.0296 36.2524 38.9095C36.1421 38.7894 36.0801 38.6266 36.0801 38.4567V31.774C36.0801 29.7122 36.8328 27.7349 38.1725 26.277C39.5123 24.819 41.3294 24 43.2241 24C45.1188 24 46.9359 24.819 48.2757 26.277C49.6155 27.7349 50.3681 29.7122 50.3681 31.774V38.4567C50.3726 38.5438 50.3608 38.631 50.3332 38.7129C50.3057 38.7948 50.2631 38.8697 50.208 38.933C50.1529 38.9964 50.0865 39.0468 50.0128 39.0812C49.9392 39.1156 49.8598 39.1333 49.7797 39.1331Z" fill="#00194F"/>
<path id="Vector_39" d="M44.5576 64.9264H41.3171C41.1425 64.9275 40.9699 64.8872 40.8111 64.8084C40.6524 64.7295 40.5113 64.614 40.3977 64.4698C40.2841 64.3256 40.2008 64.1562 40.1534 63.9734C40.1061 63.7906 40.0959 63.5988 40.1236 63.4113L43.4387 40.423C43.4824 40.1131 43.627 39.8307 43.846 39.6271C44.0651 39.4235 44.3441 39.3123 44.6321 39.3137H48.2539L44.5576 64.9264Z" fill="#FF4342"/>
<path id="Vector_40" d="M72.4137 64.9264H44.5586L48.2466 39.3137H69.1483C69.4662 39.3138 69.7736 39.4374 70.0152 39.6623C70.2568 39.8872 70.4167 40.1985 70.466 40.5402L73.7811 63.249C73.8119 63.4607 73.7991 63.6772 73.7438 63.883C73.6885 64.0887 73.5921 64.2786 73.4613 64.439C73.3306 64.5993 73.1688 64.7262 72.9877 64.8105C72.8066 64.8948 72.6105 64.9344 72.4137 64.9264Z" fill="url(#paint9_linear_647_200)"/>
<path id="Vector_41" d="M58.3661 59.0011C61.3275 59.0011 63.7282 56.3886 63.7282 53.1661C63.7282 49.9435 61.3275 47.3311 58.3661 47.3311C55.4046 47.3311 53.0039 49.9435 53.0039 53.1661C53.0039 56.3886 55.4046 59.0011 58.3661 59.0011Z" fill="#FFB200"/>
<path id="Vector_42" style="mix-blend-mode:screen" d="M48.3212 39.6384C48.3291 39.5874 48.3535 39.5412 48.39 39.5082C48.4265 39.4751 48.4727 39.4573 48.5201 39.458H69.2395C69.4334 39.4585 69.625 39.5047 69.801 39.5934C69.9769 39.6822 70.1331 39.8113 70.2589 39.9721C70.1364 39.7708 69.9702 39.6055 69.7751 39.4906C69.58 39.3758 69.3618 39.3151 69.14 39.3137H48.2549L44.5586 64.9264H44.6829L48.3212 39.6384Z" fill="url(#paint10_linear_647_200)"/>
<g id="Vector_43" style="mix-blend-mode:multiply" opacity="0.29">
<path d="M46.1584 39.3137L42.7439 63.0235L40.1084 63.6638C40.1212 64.0036 40.2544 64.3247 40.4799 64.5601C40.7055 64.7954 41.0059 64.9267 41.3184 64.9264H44.5589L48.2552 39.3137H46.1584Z" fill="#00194F"/>
</g>
<path id="Vector_44" style="mix-blend-mode:multiply" opacity="0.48" d="M73.7402 63.249L70.4251 40.5402C70.3757 40.1985 70.2158 39.8872 69.9743 39.6623C69.7327 39.4374 69.4252 39.3138 69.1073 39.3137H67.8476C67.8476 39.5211 67.8476 39.7376 67.8476 39.954C67.8454 45.7863 65.7148 51.3788 61.9242 55.5019C58.1336 59.6251 52.9934 61.9413 47.6338 61.9413C46.7555 61.9404 45.8781 61.8802 45.0066 61.7609L44.5508 64.9264H72.4059C72.6 64.929 72.7922 64.8854 72.9693 64.7988C73.1463 64.7122 73.3039 64.5845 73.4309 64.4248C73.558 64.2651 73.6515 64.0771 73.7049 63.874C73.7583 63.671 73.7703 63.4576 73.7402 63.249Z" fill="url(#paint11_linear_647_200)"/>
<path id="Vector_45" style="mix-blend-mode:multiply" opacity="0.48" d="M61.9717 64.9265H72.4142C72.6076 64.9278 72.799 64.8833 72.975 64.7961C73.151 64.7089 73.3076 64.581 73.4337 64.4215C73.5598 64.2619 73.6526 64.0744 73.7055 63.872C73.7584 63.6696 73.7703 63.457 73.7403 63.2491L72.0827 51.5791C71.312 54.4311 70.0189 57.0839 68.2813 59.3778C66.5436 61.6716 64.3973 63.5591 61.9717 64.9265Z" fill="url(#paint12_linear_647_200)"/>
<path id="Vector_46" style="mix-blend-mode:multiply" opacity="0.31" d="M51.9272 44.7243C52.8151 44.7243 53.535 43.941 53.535 42.9747C53.535 42.0084 52.8151 41.2251 51.9272 41.2251C51.0392 41.2251 50.3193 42.0084 50.3193 42.9747C50.3193 43.941 51.0392 44.7243 51.9272 44.7243Z" fill="url(#paint13_linear_647_200)"/>
<path id="Vector_47" d="M51.8109 44.6706C52.6989 44.6706 53.4188 43.8873 53.4188 42.921C53.4188 41.9547 52.6989 41.1714 51.8109 41.1714C50.923 41.1714 50.2031 41.9547 50.2031 42.921C50.2031 43.8873 50.923 44.6706 51.8109 44.6706Z" fill="#FF4342"/>
<path id="Vector_48" style="mix-blend-mode:multiply" opacity="0.48" d="M52.3578 41.2793C52.5068 41.5524 52.5868 41.8635 52.5899 42.1812C52.5899 42.4105 52.5482 42.6376 52.4673 42.8493C52.3864 43.0611 52.2679 43.2534 52.1185 43.4151C51.969 43.5769 51.7917 43.7049 51.5967 43.7918C51.4017 43.8788 51.1928 43.9229 50.9821 43.9217C50.7987 43.9213 50.6166 43.8878 50.4434 43.8225C50.6265 44.145 50.901 44.3939 51.2255 44.532C51.5499 44.67 51.9068 44.6896 52.2424 44.5879C52.5779 44.4862 52.8741 44.2686 53.0862 43.968C53.2984 43.6673 53.415 43.2997 53.4187 42.9207C53.4179 42.5617 53.3157 42.2117 53.126 41.9181C52.9362 41.6244 52.668 41.4014 52.3578 41.2793Z" fill="url(#paint14_linear_647_200)"/>
<path id="Vector_49" style="mix-blend-mode:multiply" opacity="0.31" d="M64.9223 44.7243C65.8103 44.7243 66.5301 43.941 66.5301 42.9747C66.5301 42.0084 65.8103 41.2251 64.9223 41.2251C64.0343 41.2251 63.3145 42.0084 63.3145 42.9747C63.3145 43.941 64.0343 44.7243 64.9223 44.7243Z" fill="url(#paint15_linear_647_200)"/>
<path id="Vector_50" d="M64.8051 44.6706C65.6931 44.6706 66.4129 43.8873 66.4129 42.921C66.4129 41.9547 65.6931 41.1714 64.8051 41.1714C63.9171 41.1714 63.1973 41.9547 63.1973 42.921C63.1973 43.8873 63.9171 44.6706 64.8051 44.6706Z" fill="#FF4342"/>
<path id="Vector_51" style="mix-blend-mode:multiply" opacity="0.48" d="M65.3529 41.2793C65.4996 41.5446 65.5789 41.8475 65.5828 42.1571C65.5868 42.4666 65.5151 42.7718 65.3752 43.0414C65.2354 43.311 65.0322 43.5353 64.7866 43.6916C64.541 43.8478 64.2617 43.9304 63.9772 43.9308C63.7938 43.9303 63.6118 43.8968 63.4385 43.8315C63.5716 44.0717 63.7557 44.2736 63.9755 44.4201C64.1953 44.5666 64.4442 44.6535 64.7013 44.6734C64.9584 44.6933 65.2161 44.6457 65.4528 44.5345C65.6894 44.4233 65.898 44.2519 66.061 44.0346C66.224 43.8173 66.3366 43.5606 66.3893 43.286C66.442 43.0115 66.4333 42.7272 66.3638 42.4571C66.2944 42.1869 66.1664 41.939 65.9904 41.734C65.8145 41.529 65.5959 41.3731 65.3529 41.2793Z" fill="url(#paint16_linear_647_200)"/>
<path id="Vector_52" d="M64.9223 43.57C64.7662 43.57 64.6165 43.5025 64.5062 43.3824C64.3958 43.2624 64.3339 43.0995 64.3339 42.9297V36.283C64.3339 34.5609 63.7052 32.9092 62.5861 31.6915C61.4671 30.4738 59.9493 29.7897 58.3667 29.7897C56.7841 29.7897 55.2663 30.4738 54.1473 31.6915C53.0282 32.9092 52.3995 34.5609 52.3995 36.283V42.9658C52.3995 43.1356 52.3375 43.2984 52.2272 43.4185C52.1168 43.5386 51.9671 43.6061 51.8111 43.6061C51.655 43.6061 51.5054 43.5386 51.395 43.4185C51.2847 43.2984 51.2227 43.1356 51.2227 42.9658V36.283C51.2227 34.2188 51.9762 32.2392 53.3175 30.7796C54.6588 29.32 56.4781 28.5 58.375 28.5C60.2719 28.5 62.0911 29.32 63.4324 30.7796C64.7737 32.2392 65.5273 34.2188 65.5273 36.283V42.9658C65.5187 43.1324 65.4507 43.2888 65.3377 43.4017C65.2247 43.5146 65.0756 43.575 64.9223 43.57Z" fill="#FFB200"/>
</g>
</g>
<defs>
<linearGradient id="paint0_linear_647_200" x1="8.77441" y1="35.384" x2="90.7316" y2="35.384" gradientUnits="userSpaceOnUse">
<stop stop-color="#FEFEFE"/>
<stop offset="1" stop-color="#EFE2FE"/>
</linearGradient>
<linearGradient id="paint1_linear_647_200" x1="8.77441" y1="35.384" x2="90.7316" y2="35.384" gradientUnits="userSpaceOnUse">
<stop stop-color="#FEFEFE"/>
<stop offset="1" stop-color="#EFE2FE"/>
</linearGradient>
<linearGradient id="paint2_linear_647_200" x1="50.0079" y1="16.9822" x2="50.0079" y2="45.4891" gradientUnits="userSpaceOnUse">
<stop stop-color="#FEFEFE"/>
<stop offset="1" stop-color="#EFE2FE"/>
</linearGradient>
<linearGradient id="paint3_linear_647_200" x1="44.0537" y1="31.6208" x2="44.0537" y2="64.0966" gradientUnits="userSpaceOnUse">
<stop stop-color="#FEFEFE"/>
<stop offset="1" stop-color="#EFE2FE"/>
</linearGradient>
<linearGradient id="paint4_linear_647_200" x1="52.7559" y1="45.4459" x2="52.7559" y2="62.3737" gradientUnits="userSpaceOnUse">
<stop stop-color="#FEFEFE"/>
<stop offset="1" stop-color="#EFE2FE"/>
</linearGradient>
<linearGradient id="paint5_linear_647_200" x1="35.2109" y1="38.5379" x2="38.4183" y2="38.5379" gradientUnits="userSpaceOnUse">
<stop stop-color="#FEFEFE"/>
<stop offset="1" stop-color="#EFE2FE"/>
</linearGradient>
<linearGradient id="paint6_linear_647_200" x1="35.335" y1="38.5378" x2="38.3103" y2="38.5378" gradientUnits="userSpaceOnUse">
<stop stop-color="#FEFEFE"/>
<stop offset="1" stop-color="#EFE2FE"/>
</linearGradient>
<linearGradient id="paint7_linear_647_200" x1="48.2061" y1="38.5379" x2="51.4217" y2="38.5379" gradientUnits="userSpaceOnUse">
<stop stop-color="#FEFEFE"/>
<stop offset="1" stop-color="#EFE2FE"/>
</linearGradient>
<linearGradient id="paint8_linear_647_200" x1="48.3301" y1="38.5378" x2="51.3054" y2="38.5378" gradientUnits="userSpaceOnUse">
<stop stop-color="#FEFEFE"/>
<stop offset="1" stop-color="#EFE2FE"/>
</linearGradient>
<linearGradient id="paint9_linear_647_200" x1="59.1616" y1="36.058" x2="59.1616" y2="68.5338" gradientUnits="userSpaceOnUse">
<stop stop-color="#FEFEFE"/>
<stop offset="1" stop-color="#EFE2FE"/>
</linearGradient>
<linearGradient id="paint10_linear_647_200" x1="57.4129" y1="36.058" x2="57.4129" y2="68.5338" gradientUnits="userSpaceOnUse">
<stop stop-color="#FEFEFE"/>
<stop offset="1" stop-color="#EFE2FE"/>
</linearGradient>
<linearGradient id="paint11_linear_647_200" x1="59.1621" y1="36.058" x2="59.1621" y2="68.5338" gradientUnits="userSpaceOnUse">
<stop stop-color="#FEFEFE"/>
<stop offset="1" stop-color="#EFE2FE"/>
</linearGradient>
<linearGradient id="paint12_linear_647_200" x1="67.8643" y1="49.8836" x2="67.8643" y2="66.8114" gradientUnits="userSpaceOnUse">
<stop stop-color="#FEFEFE"/>
<stop offset="1" stop-color="#EFE2FE"/>
</linearGradient>
<linearGradient id="paint13_linear_647_200" x1="50.3193" y1="42.9747" x2="53.5267" y2="42.9747" gradientUnits="userSpaceOnUse">
<stop stop-color="#FEFEFE"/>
<stop offset="1" stop-color="#EFE2FE"/>
</linearGradient>
<linearGradient id="paint14_linear_647_200" x1="50.4434" y1="42.9748" x2="53.4187" y2="42.9748" gradientUnits="userSpaceOnUse">
<stop stop-color="#FEFEFE"/>
<stop offset="1" stop-color="#EFE2FE"/>
</linearGradient>
<linearGradient id="paint15_linear_647_200" x1="63.3227" y1="42.9747" x2="66.5301" y2="42.9747" gradientUnits="userSpaceOnUse">
<stop stop-color="#FEFEFE"/>
<stop offset="1" stop-color="#EFE2FE"/>
</linearGradient>
<linearGradient id="paint16_linear_647_200" x1="63.4385" y1="42.9748" x2="66.4138" y2="42.9748" gradientUnits="userSpaceOnUse">
<stop stop-color="#FEFEFE"/>
<stop offset="1" stop-color="#EFE2FE"/>
</linearGradient>
</defs>
</svg>
