<svg width="32" height="32" viewBox="0 0 32 32" fill="none" xmlns="http://www.w3.org/2000/svg">
<g id="Group">
<path id="Path" d="M13.3323 28.005H10.6646C6.98113 28.005 3.99512 25.019 3.99512 21.3355V10.6644C3.99512 6.98101 6.98113 3.995 10.6646 3.995H21.3357C25.0191 3.995 28.0051 6.98101 28.0051 10.6644V13.3322" stroke="#333333" stroke-width="2.5" stroke-linecap="round" stroke-linejoin="round"/>
<path id="Path_2" d="M9.33008 11.6328L10.5559 12.7373L13.0236 10.515" stroke="#333333" stroke-width="2.5" stroke-linecap="round" stroke-linejoin="round"/>
<path id="Path_3" d="M9.33008 18.3022L10.5559 19.4067L13.0236 17.1844" stroke="#333333" stroke-width="2.5" stroke-linecap="round" stroke-linejoin="round"/>
<path id="Path_4" fill-rule="evenodd" clip-rule="evenodd" d="M18.668 28.6719V28.1303C18.6724 26.5895 19.9203 25.3416 21.4611 25.3372H25.212C26.7528 25.3416 28.0008 26.5895 28.0052 28.1303V28.6719C28.0052 29.0402 27.7066 29.3388 27.3382 29.3388H19.3349C19.158 29.3388 18.9884 29.2686 18.8633 29.1435C18.7382 29.0184 18.668 28.8488 18.668 28.6719Z" stroke="#333333" stroke-width="2.5" stroke-linecap="round" stroke-linejoin="round"/>
<circle id="Oval" cx="23.3357" cy="19.6681" r="2.66778" stroke="#333333" stroke-width="2.5" stroke-linecap="round" stroke-linejoin="round"/>
</g>
</svg>
