<svg width="40" height="40" viewBox="0 0 40 40" fill="none" xmlns="http://www.w3.org/2000/svg">
<g id="Group">
<g id="OBJECTS">
<path id="Vector" d="M2.2091 18.8676C2.2091 19.1007 2.14857 19.3285 2.03517 19.5223C1.92176 19.716 1.76058 19.8671 1.572 19.9563C1.38342 20.0455 1.17591 20.0688 0.975716 20.0233C0.77552 19.9779 0.591629 19.8656 0.447296 19.7008C0.302962 19.536 0.204673 19.3261 0.164851 19.0975C0.12503 18.8689 0.145464 18.632 0.223577 18.4166C0.301689 18.2013 0.433969 18.0173 0.603687 17.8878C0.773405 17.7583 0.97294 17.6892 1.17706 17.6892C1.45077 17.6892 1.71328 17.8134 1.90682 18.0344C2.10037 18.2553 2.2091 18.5551 2.2091 18.8676Z" fill="white"/>
<path id="Vector_2" d="M23.6627 30.438H15.5322C15.5322 30.438 15.7288 37.5532 13.2598 39.9997H25.9352C23.4681 37.5532 23.6627 30.438 23.6627 30.438Z" fill="#C9CBCC"/>
<path id="Vector_3" d="M38.0832 0H1.9225C0.863971 0 0.00585938 0.97979 0.00585938 2.18842V29.2822C0.00585938 30.4908 0.863971 31.4706 1.9225 31.4706H38.0832C39.1417 31.4706 39.9999 30.4908 39.9999 29.2822V2.18842C39.9999 0.97979 39.1417 0 38.0832 0Z" fill="#414042"/>
<path id="Vector_4" d="M37.7645 2.39502H2.24072V23.9964H37.7645V2.39502Z" fill="white"/>
<path id="Vector_5" d="M39.9999 26.2744V29.2821C39.9983 29.8619 39.7959 30.4175 39.4368 30.8276C39.0777 31.2376 38.5911 31.4687 38.0832 31.4705H1.91468C1.40701 31.4687 0.920614 31.2375 0.561823 30.8274C0.203032 30.4173 0.00103685 29.8617 0 29.2821V26.2744H39.9999Z" fill="#DBE6EB"/>
<g id="Group 19721">
<path id="Vector_6" d="M32.6144 4.90015H7.38557C6.62034 4.90015 6 5.53458 6 6.31718V21.1651C6 21.9477 6.62034 22.5822 7.38557 22.5822H32.6144C33.3796 22.5822 33.9999 21.9477 33.9999 21.1651V6.31718C33.9999 5.53458 33.3796 4.90015 32.6144 4.90015Z" fill="#00194F"/>
<path id="Vector_7" d="M16.243 15.6211C16.1986 15.6205 16.1556 15.6053 16.1203 15.5777C16.085 15.5502 16.0593 15.5117 16.0471 15.4681L13.9776 7.98946H10.9429C10.8881 7.98946 10.8356 7.9672 10.7968 7.92758C10.7581 7.88795 10.7363 7.83421 10.7363 7.77818C10.7363 7.72214 10.7581 7.6684 10.7968 7.62878C10.8356 7.58915 10.8881 7.56689 10.9429 7.56689H14.1486C14.1939 7.56752 14.2378 7.58311 14.2738 7.61133C14.3097 7.63956 14.3358 7.67892 14.3481 7.72353L16.4104 15.1912L23.3454 14.7869L24.3926 9.72705H15.5912C15.5364 9.72705 15.4838 9.7048 15.4451 9.66517C15.4063 9.62555 15.3846 9.57181 15.3846 9.51578C15.3846 9.45974 15.4063 9.406 15.4451 9.36638C15.4838 9.32676 15.5364 9.3045 15.5912 9.3045H24.6312C24.6621 9.30476 24.6925 9.31209 24.7203 9.32596C24.748 9.33983 24.7723 9.35988 24.7915 9.38464C24.8106 9.40888 24.8243 9.43707 24.8317 9.46726C24.839 9.49745 24.8399 9.52892 24.8342 9.55949L23.7016 15.0236C23.6929 15.0691 23.6696 15.1103 23.6354 15.1407C23.6012 15.171 23.558 15.1888 23.5128 15.1912L16.2572 15.6138L16.243 15.6211Z" fill="white"/>
<path id="Vector_8" d="M24.1336 17.2854H16.4863C16.3346 17.2994 16.1818 17.2819 16.0369 17.234C15.892 17.1862 15.758 17.1089 15.6429 17.0069C15.5279 16.9049 15.4341 16.7802 15.3673 16.6403C15.3004 16.5004 15.2619 16.3481 15.2538 16.1926C15.2499 16.0596 15.2726 15.9272 15.3203 15.8035C15.3681 15.6798 15.44 15.5673 15.5316 15.4728C15.6232 15.3784 15.7327 15.3041 15.8534 15.2544C15.974 15.2046 16.1033 15.1805 16.2334 15.1836C16.2608 15.1805 16.2886 15.1834 16.3149 15.1921C16.3412 15.2007 16.3654 15.215 16.3859 15.2339C16.4064 15.2529 16.4228 15.276 16.434 15.3018C16.4451 15.3277 16.4508 15.3557 16.4506 15.3839C16.4527 15.4391 16.4338 15.493 16.398 15.5344C16.3622 15.5758 16.3121 15.6015 16.2583 15.6061C16.1814 15.6 16.104 15.6104 16.0313 15.6367C15.9586 15.6631 15.892 15.7047 15.836 15.7589C15.7799 15.8131 15.7356 15.8788 15.7059 15.9516C15.6762 16.0244 15.6617 16.1028 15.6635 16.1817C15.6727 16.2817 15.7015 16.3787 15.7482 16.4671C15.795 16.5554 15.8587 16.6332 15.9355 16.6958C16.0123 16.7583 16.1007 16.8044 16.1953 16.8313C16.2899 16.8581 16.3889 16.8651 16.4863 16.852H24.1336C24.1628 16.848 24.1924 16.8505 24.2206 16.8592C24.2487 16.8679 24.2747 16.8827 24.2969 16.9025C24.319 16.9224 24.3367 16.9468 24.3488 16.9742C24.361 17.0016 24.3673 17.0313 24.3673 17.0614C24.3673 17.0915 24.361 17.1212 24.3488 17.1486C24.3367 17.176 24.319 17.2005 24.2969 17.2203C24.2747 17.2401 24.2487 17.2549 24.2206 17.2636C24.1924 17.2723 24.1628 17.2748 24.1336 17.2709V17.2854Z" fill="white"/>
<path id="Vector_9" d="M19.7947 15.413C19.7405 15.412 19.6888 15.3893 19.6509 15.3498C19.6129 15.3103 19.5916 15.2571 19.5916 15.2017V9.51534C19.5878 9.48551 19.5902 9.45519 19.5987 9.42639C19.6072 9.3976 19.6217 9.37101 19.6411 9.34838C19.6605 9.32576 19.6844 9.30763 19.7112 9.29521C19.7379 9.28279 19.767 9.27637 19.7964 9.27637C19.8258 9.27637 19.8549 9.28279 19.8817 9.29521C19.9085 9.30763 19.9324 9.32576 19.9518 9.34838C19.9712 9.37101 19.9856 9.3976 19.9942 9.42639C20.0027 9.45519 20.0051 9.48551 20.0012 9.51534V15.2017C20.0012 15.2577 19.9795 15.3115 19.9407 15.3511C19.902 15.3907 19.8494 15.413 19.7947 15.413Z" fill="white"/>
<path id="Vector_10" d="M18.1105 15.5118C18.0601 15.5121 18.0115 15.4932 17.974 15.4589C17.9365 15.4246 17.9127 15.3772 17.9074 15.326L17.22 9.54128C17.214 9.48575 17.2297 9.43005 17.2638 9.38636C17.2978 9.34267 17.3474 9.31454 17.4017 9.30814C17.4284 9.30458 17.4555 9.30648 17.4814 9.31374C17.5074 9.321 17.5317 9.33346 17.5529 9.35041C17.5741 9.36736 17.5918 9.38846 17.605 9.41247C17.6182 9.43648 17.6265 9.46293 17.6296 9.49028L18.3135 15.275C18.3206 15.3306 18.3058 15.3867 18.2724 15.4311C18.239 15.4755 18.1897 15.5045 18.1354 15.5118H18.1105Z" fill="white"/>
<path id="Vector_11" d="M21.9114 15.2929H21.8936C21.8669 15.2906 21.8409 15.2829 21.8171 15.2703C21.7933 15.2577 21.7722 15.2404 21.755 15.2194C21.7378 15.1984 21.7248 15.1741 21.7168 15.148C21.7088 15.1218 21.7059 15.0943 21.7084 15.067L22.1821 9.48996C22.1817 9.46046 22.1874 9.43121 22.1988 9.40409C22.2102 9.37698 22.227 9.3526 22.2481 9.33253C22.2693 9.31247 22.2943 9.29715 22.3216 9.28757C22.3489 9.27799 22.3778 9.27436 22.4066 9.27692C22.4353 9.27947 22.4632 9.28816 22.4885 9.30241C22.5137 9.31667 22.5358 9.33617 22.5532 9.35967C22.5707 9.38317 22.5831 9.41015 22.5897 9.43886C22.5964 9.46758 22.597 9.49739 22.5917 9.52639L22.118 15.0925C22.1144 15.1464 22.0912 15.1968 22.0529 15.234C22.0146 15.2711 21.9641 15.2921 21.9114 15.2929Z" fill="white"/>
<path id="Vector_12" d="M24.1334 11.8032H15.1895C15.1625 11.8037 15.1358 11.7987 15.1107 11.7884C15.0857 11.7782 15.0629 11.763 15.0436 11.7437C15.0244 11.7244 15.0091 11.7013 14.9987 11.6759C14.9883 11.6504 14.9829 11.6231 14.9829 11.5956C14.9829 11.5678 14.9883 11.5403 14.9986 11.5147C15.009 11.4891 15.0242 11.4658 15.0434 11.4462C15.0626 11.4265 15.0854 11.411 15.1104 11.4004C15.1355 11.3897 15.1624 11.3843 15.1895 11.3843H24.1334C24.1605 11.3843 24.1874 11.3897 24.2124 11.4004C24.2375 11.411 24.2603 11.4265 24.2795 11.4462C24.2986 11.4658 24.3139 11.4891 24.3242 11.5147C24.3346 11.5403 24.34 11.5678 24.34 11.5956C24.34 11.6231 24.3346 11.6504 24.3242 11.6759C24.3138 11.7013 24.2985 11.7244 24.2792 11.7437C24.26 11.763 24.2372 11.7782 24.2122 11.7884C24.1871 11.7987 24.1603 11.8037 24.1334 11.8032Z" fill="white"/>
<path id="Vector_13" d="M23.8258 13.6247H15.6905C15.6357 13.6247 15.5831 13.6024 15.5444 13.5628C15.5056 13.5232 15.4839 13.4695 15.4839 13.4134C15.4839 13.3574 15.5056 13.3037 15.5444 13.264C15.5831 13.2244 15.6357 13.2021 15.6905 13.2021H23.8258C23.8806 13.2021 23.9331 13.2244 23.9719 13.264C24.0106 13.3037 24.0324 13.3574 24.0324 13.4134C24.0324 13.4695 24.0106 13.5232 23.9719 13.5628C23.9331 13.6024 23.8806 13.6247 23.8258 13.6247Z" fill="white"/>
<path id="Vector_14" d="M18.4911 18.8118C18.4911 19.028 18.4285 19.2393 18.311 19.419C18.1936 19.5987 18.0267 19.7388 17.8315 19.8215C17.6362 19.9042 17.4214 19.9258 17.2141 19.8837C17.0068 19.8415 16.8164 19.7374 16.667 19.5846C16.5175 19.4317 16.4158 19.237 16.3745 19.025C16.3333 18.813 16.3545 18.5933 16.4353 18.3936C16.5162 18.1939 16.6532 18.0232 16.8289 17.9032C17.0046 17.7831 17.2112 17.719 17.4226 17.719C17.706 17.719 17.9778 17.8341 18.1782 18.0391C18.3785 18.244 18.4911 18.522 18.4911 18.8118Z" fill="white"/>
<path id="Vector_15" d="M23.7138 18.8118C23.7138 19.028 23.6511 19.2393 23.5337 19.419C23.4163 19.5987 23.2494 19.7388 23.0541 19.8215C22.8589 19.9042 22.644 19.9258 22.4367 19.8837C22.2295 19.8415 22.0391 19.7374 21.8896 19.5846C21.7402 19.4317 21.6384 19.237 21.5972 19.025C21.556 18.813 21.5771 18.5933 21.658 18.3936C21.7389 18.1939 21.8758 18.0232 22.0516 17.9032C22.2273 17.7831 22.4339 17.719 22.6452 17.719C22.9286 17.719 23.2004 17.8341 23.4008 18.0391C23.6012 18.244 23.7138 18.522 23.7138 18.8118Z" fill="white"/>
</g>
</g>
</g>
</svg>
