<svg width="540" height="232" viewBox="0 0 540 232" fill="none" xmlns="http://www.w3.org/2000/svg">
<g clip-path="url(#clip0_508_18957)">
<rect width="540" height="232" rx="12" fill="#F2F4F8"/>
<path d="M107.731 178.988L107.739 178.996L107.747 179.004C112.193 183.743 112.193 190.463 107.747 195.201L107.739 195.209L107.731 195.218L45.6705 264.381L45.6687 264.383L15.9606 297.672C12.6532 301.127 8.11101 303.205 2.70983 303.205H-93.441C-100.328 303.205 -105.67 299.891 -108.262 295.55C-110.836 291.24 -110.742 285.872 -106.69 281.462L-106.682 281.452L-30.6427 196.561C-25.4849 191.056 -25.4849 183.149 -30.6427 177.644L-106.682 92.7533L-106.682 92.7533L-106.69 92.744C-110.742 88.3334 -110.836 82.9659 -108.262 78.655C-105.67 74.3148 -100.328 71 -93.441 71H2.70983C8.11105 71 12.6533 73.0784 15.9607 76.5338L45.6687 109.822L45.6705 109.824L107.731 178.988Z" stroke="#00194F" stroke-width="2"/>
<g style="mix-blend-mode:multiply">
<path d="M130.917 13.744L130.909 13.7533L71.9126 79.6178C71.9117 79.6188 71.9108 79.6197 71.91 79.6207C68.637 83.2157 63.683 85.0545 58.6666 85.0545C53.6503 85.0545 48.6963 83.2157 45.4233 79.6207C45.4224 79.6198 45.4216 79.6188 45.4207 79.6178L-2.64872 25.8304L-2.65681 25.8213L-2.66513 25.8125C-7.11162 21.074 -7.11162 14.3541 -2.66513 9.61564L-2.65891 9.60901L-2.65281 9.60227L8.26418 -2.46374C11.5718 -5.9206 16.1149 -8 21.5175 -8H117.668C124.556 -8 129.897 -4.68519 132.489 -0.345006C135.063 3.96594 134.969 9.33337 130.917 13.744Z" stroke="#AF0000" stroke-width="2"/>
</g>
<path d="M257.091 45.8385H276.262C278.125 45.8385 279.631 44.3768 279.631 42.5696V35.5888C279.631 33.7815 278.125 32.3198 276.262 32.3198H257.091C255.229 32.3198 253.723 33.7815 253.723 35.5888V42.5696C253.723 44.3768 255.238 45.8385 257.091 45.8385Z" fill="#025FCE"/>
<path d="M269.587 45.8425L272.434 48.605L275.28 45.8425L272.434 43.08L269.587 45.8425Z" fill="#025FCE"/>
<path d="M273.121 41.0724C274.256 41.0724 275.175 40.18 275.175 39.0792C275.175 37.9783 274.256 37.0859 273.121 37.0859C271.987 37.0859 271.067 37.9783 271.067 39.0792C271.067 40.18 271.987 41.0724 273.121 41.0724Z" fill="#E8EDFE"/>
<path d="M266.679 41.0724C267.813 41.0724 268.733 40.18 268.733 39.0792C268.733 37.9783 267.813 37.0859 266.679 37.0859C265.545 37.0859 264.625 37.9783 264.625 39.0792C264.625 40.18 265.545 41.0724 266.679 41.0724Z" fill="#E8EDFE"/>
<path d="M260.232 41.0724C261.366 41.0724 262.286 40.18 262.286 39.0792C262.286 37.9783 261.366 37.0859 260.232 37.0859C259.097 37.0859 258.178 37.9783 258.178 39.0792C258.178 40.18 259.097 41.0724 260.232 41.0724Z" fill="#E8EDFE"/>
<path d="M364.239 177.546C364.239 177.546 353.891 178.946 349.998 179.718C346.106 180.49 329.627 193.668 331.093 194.591C332.559 195.514 339.718 198.92 344.074 197.615C348.429 196.31 347.597 193.262 353.676 193.811C359.755 194.36 366.94 188.957 366.94 188.957L406.919 169.118L401.132 155.662L364.239 177.546Z" fill="#FFD8CC"/>
<path d="M452.13 66.2811C447.92 74.4297 446.926 85.8648 453.793 88.9206C460.669 91.9763 472.81 85.4988 477.019 77.3501C481.229 69.2015 479.06 60.1139 472.192 57.0582C465.325 54.0024 456.34 58.1325 452.13 66.2811Z" fill="#002E42"/>
<path d="M448.379 88.2533C448.379 88.2533 451.517 100.906 439.248 104.447L436.093 122.909L467.635 124.707L470.062 101.065C470.062 101.065 466.024 89.1764 466.744 77.6855L448.379 88.2533Z" fill="#FFD8CC"/>
<path opacity="0.33" d="M470.057 101.072C470.057 101.072 468.59 113.828 446.839 119.232H470.057C470.057 119.232 473.014 106.165 470.057 101.072Z" fill="#FF9E7C"/>
<path d="M423.236 160.524L424.693 108.735C424.693 108.735 417.654 109.857 412.801 119.995C407.949 130.125 398.243 150.847 398.243 150.847L355.126 176.9L367.558 190.214C377.409 185.574 412.073 176.805 423.236 160.524Z" fill="#AB1619"/>
<path opacity="0.14" d="M367.563 190.214C377.406 185.575 412.069 176.805 423.232 160.524L424.124 128.797C421.406 137.741 418.242 146.622 412.618 154.261C406.308 162.84 397.211 169.381 387.386 174.354C384.771 176.781 379.009 178.238 375.64 179.567C371.636 181.142 367.572 182.575 363.482 183.959C363.156 184.071 362.65 184.19 362.067 184.333L367.563 190.214Z" fill="#A695FF"/>
<path d="M490.828 200.853L495.698 232.079H421.046L418.423 197.049L490.828 200.853Z" fill="#002E42"/>
<path d="M418.423 203.392L420.198 220.715C420.198 220.715 431.952 208.238 434.842 197.049L418.423 203.392Z" fill="#023547"/>
<path d="M463.961 204.84C463.961 204.84 471 222.904 495.101 228.18L492.846 213.721L463.961 204.84Z" fill="#023547"/>
<path d="M453.08 213.72L456.423 232.078H452.248L453.08 213.72Z" fill="#023547"/>
<path d="M421.046 199.254C421.046 199.254 437.585 206.893 481.525 204.307C481.311 202.914 470.053 108.736 470.053 108.736C470.053 108.736 464.815 117.171 452.246 117.171C439.677 117.171 438.665 108.027 438.665 108.027C438.665 108.027 419.94 181.437 421.055 198.545" fill="#00184D"/>
<path opacity="0.14" d="M481.534 204.307C481.423 203.599 478.448 178.819 475.559 154.667C455.582 160.15 435.151 156.649 427.674 154.994C423.833 173.042 420.567 191.106 421.055 198.538V199.254C421.047 199.254 437.594 206.893 481.534 204.307Z" fill="#A695FF"/>
<path d="M417.376 56.6925C418.774 65.6448 424.647 70.4194 432.311 70.4194C439.985 70.4194 446.201 63.5759 446.201 55.1328C446.201 46.6898 439.985 39.8462 432.311 39.8462C421.98 39.8462 416.073 48.337 417.376 56.6925Z" fill="#002E42"/>
<path d="M478.363 62.9314C487.525 62.9314 494.953 55.3356 494.953 45.9657C494.953 36.5958 487.525 29 478.363 29C469.2 29 461.772 36.5958 461.772 45.9657C461.772 55.3356 469.2 62.9314 478.363 62.9314Z" fill="#002E42"/>
<path d="M481.918 67.4595C485.261 67.4595 487.971 65.1401 487.971 62.2791C487.971 59.418 485.261 57.0986 481.918 57.0986C478.575 57.0986 475.865 59.418 475.865 62.2791C475.865 65.1401 478.575 67.4595 481.918 67.4595Z" fill="#002E42"/>
<path d="M465.585 81.6709L448.703 90.671C448.832 92.7957 448.643 95.9787 446.954 98.8514C451.009 97.5543 461.778 94.6896 465.585 81.6709Z" fill="#FF9E7C"/>
<path d="M468.268 75.2746C465.421 83.853 459.437 96.999 443.044 97.0069C430.012 97.0149 416.8 69.4098 427.526 49.8261C431.658 42.2743 440.643 37.3724 463.964 47.9083C470.66 50.9402 468.268 75.2746 468.268 75.2746Z" fill="#FFD8CC"/>
<path d="M429.19 46.7217C429.19 46.7217 432.311 66.5362 459.593 60.5521L458.024 50.8915L429.19 46.7217Z" fill="#FF9E7C"/>
<path d="M463.965 47.2148C463.965 47.2148 449.956 57.3847 465.8 69.2575C477.598 78.1064 486.3 47.74 463.965 47.2148Z" fill="#002E42"/>
<path d="M462.902 77.3112C465.851 79.7701 470.609 79.3165 473.516 76.3085C476.422 73.3005 476.388 68.8681 473.439 66.4092C470.489 63.9503 465.731 64.4039 462.825 67.4119C459.918 70.4199 459.952 74.8523 462.902 77.3112Z" fill="#FFD8CC"/>
<path d="M441.888 68.4697C441.939 69.353 442.496 70.0374 443.139 70.0056C443.774 69.9737 444.254 69.2337 444.203 68.3504C444.151 67.4671 443.594 66.7827 442.951 66.8145C442.308 66.8543 441.836 67.5944 441.888 68.4697Z" fill="#00004C"/>
<path d="M429.003 69.8306C429.054 70.7139 429.612 71.3982 430.255 71.3664C430.889 71.3346 431.369 70.5945 431.318 69.7112C431.266 68.8279 430.709 68.1436 430.066 68.1754C429.423 68.2072 428.951 68.9473 429.003 69.8306Z" fill="#00004C"/>
<path d="M441.554 86.9632C439.136 87.4724 437.19 85.9287 436.033 84.6475C435.269 83.8438 434.841 83.1117 434.841 83.1117C434.841 83.1117 439.711 83.3663 445.429 78.7031C445.438 78.7031 447.616 85.6979 441.554 86.9632Z" fill="#B63847"/>
<path d="M445.438 78.7031C443.475 83.6448 438.553 84.5281 436.033 84.6475C435.269 83.8438 434.841 83.1117 434.841 83.1117C434.841 83.1117 439.719 83.3663 445.438 78.7031Z" fill="#FFEEF7"/>
<path d="M445.438 78.7031C443.475 83.6448 438.553 84.5281 436.033 84.6475C435.269 83.8438 434.841 83.1117 434.841 83.1117C434.841 83.1117 439.719 83.3663 445.438 78.7031Z" fill="#FFEEF7"/>
<path d="M441.556 86.9634C444.008 86.4541 445.097 85.0058 445.542 83.462C444.445 83.088 442.893 83.1755 441.367 83.8042C439.832 84.4329 438.718 85.4435 438.289 86.4541C439.232 86.9475 440.33 87.226 441.556 86.9634Z" fill="#D84655"/>
<path fill-rule="evenodd" clip-rule="evenodd" d="M436.061 68.2133C436.375 68.2378 436.608 68.4936 436.582 68.7847C436.329 71.5662 435.087 74.2575 433.097 76.3434C434.007 77.1364 435.148 77.7086 436.367 77.9735C436.673 78.0402 436.863 78.3248 436.792 78.6091C436.72 78.8935 436.413 79.07 436.106 79.0033C434.494 78.6527 433.004 77.8417 431.889 76.713C431.686 76.5073 431.69 76.1906 431.898 75.9895C433.925 74.0324 435.199 71.4088 435.445 68.6959C435.472 68.4049 435.747 68.1888 436.061 68.2133Z" fill="#DE7D65"/>
<path fill-rule="evenodd" clip-rule="evenodd" d="M441.264 61.9321C443.638 61.5184 446.204 62.3844 447.73 64.1376C448.125 64.5922 448.048 65.2581 447.558 65.625C447.068 65.9918 446.35 65.9207 445.954 65.4661C444.959 64.3227 443.239 63.7404 441.685 64.0111C441.066 64.119 440.47 63.7411 440.354 63.1669C440.237 62.5928 440.645 62.04 441.264 61.9321Z" fill="#00004C"/>
<path fill-rule="evenodd" clip-rule="evenodd" d="M426.117 63.4155C427.356 61.6394 429.885 60.793 432.064 61.4294C432.665 61.6049 432.998 62.1989 432.809 62.756C432.62 63.3132 431.979 63.6226 431.379 63.4471C430.179 63.0967 428.714 63.5873 428.032 64.5645C427.69 65.055 426.984 65.1954 426.455 64.8781C425.926 64.5608 425.774 63.906 426.117 63.4155Z" fill="#00004C"/>
<path d="M469.27 67.9688C467.581 68.3348 466.115 69.4727 465.421 70.9369" stroke="#DE7D65" stroke-width="1.0416" stroke-miterlimit="10" stroke-linecap="round" stroke-linejoin="round"/>
<path d="M428.104 41.8601C428.104 41.8601 428.635 67.0381 462.073 59.0168L477.883 59.6852C479.409 46.9132 479.563 50.1997 473.364 42.9582C458.849 25.9926 432.742 29.3507 428.104 41.8601Z" fill="#002E42"/>
<path d="M444.139 102.059L424.694 108.727C424.694 108.727 416.926 132.369 414.259 138.226C411.593 144.083 420.57 164.343 422.019 172.229C423.476 180.107 411.833 198.8 412.073 223.341C412.073 223.341 421.598 213.282 430.892 202.022C440.186 190.762 440.452 168.393 436.088 153.537C431.733 138.68 444.139 102.059 444.139 102.059Z" fill="#AA2839"/>
<path d="M470.056 101.072C470.056 101.072 456.955 130.118 456.715 149.264C456.475 168.402 439.688 213.721 508.149 227.4C508.149 227.4 493.351 183.267 494.079 160.969C494.808 138.68 500.63 111.656 500.63 111.656L470.056 101.072Z" fill="#AB1619"/>
<path opacity="0.14" d="M456.173 156.433C453.815 177.967 447.205 215.216 508.147 227.4C508.147 227.4 493.349 183.267 494.078 160.969C494.155 158.534 494.301 156.043 494.489 153.545L488.951 137.836C486.679 159.505 460.314 158.009 456.173 156.433Z" fill="#A695FF"/>
<path opacity="0.14" d="M454.981 168.146C454.776 171.035 454.664 174.035 454.759 177.099L454.879 177.346C454.879 177.346 467.216 182.717 479.159 188.486C491.068 194.24 505.952 226.77 506.038 226.953C506.732 227.105 507.427 227.256 508.147 227.391C508.147 227.391 498.819 199.571 495.338 176.948L454.981 168.146Z" fill="#A695FF"/>
<path opacity="0.14" d="M430.901 202.031C439.62 191.479 440.392 171.171 436.86 156.433C428.097 157.794 418.426 157.858 414.499 146.749L416.42 153.911C418.538 160.866 421.273 168.187 422.019 172.237C423.476 180.115 411.833 198.808 412.073 223.349C412.073 223.349 421.598 213.291 430.901 202.031Z" fill="#A695FF"/>
<path d="M418.561 140.558L445.937 145.755C447.789 146.105 449.23 147.466 449.573 149.184L456.046 181.325C456.697 184.564 453.362 187.254 449.993 186.203L430.376 180.076C429.116 179.686 428.095 178.803 427.581 177.673L413.349 146.463C411.891 143.272 414.892 139.866 418.561 140.558Z" fill="#EFEEFF"/>
<path d="M416.152 140.558L443.528 145.755C445.38 146.105 446.82 147.466 447.163 149.184L453.637 181.325C454.288 184.564 450.953 187.254 447.583 186.203L427.967 180.076C426.706 179.686 425.686 178.803 425.172 177.673L410.939 146.463C409.482 143.272 412.483 139.866 416.152 140.558Z" fill="#002E42"/>
<path d="M459.209 175.643C459.209 175.643 447.849 176.463 445.148 175.707C442.447 174.951 439.095 169.794 437.843 168.155C436.591 166.516 438.126 166.078 438.126 166.078C438.126 166.078 437.432 165.585 436.266 164.487C435.108 163.404 437.14 162.505 437.14 162.505C436.437 162.075 436.351 161.383 436.694 160.953C437.192 160.317 438.375 160.571 438.375 160.571C437.672 160.102 437.672 158.423 440.638 159.059C443.699 159.72 447.823 161.359 447.823 161.359L452.05 161.709L450.841 155.638C450.841 155.638 458.514 158.622 462.218 163.707L475.748 168.847C475.748 168.847 477.214 177.577 474.384 182.948C474.367 182.948 462.227 175.985 459.209 175.643Z" fill="#FFD8CC"/>
<path d="M463.959 175.421C460.461 174.363 461.121 174.394 451.27 175.055C443.305 175.588 440.99 172.214 440.013 171.084C441.539 173.057 443.468 175.23 445.148 175.699C447.849 176.455 459.209 175.636 459.209 175.636C460.35 175.763 462.81 176.845 465.408 178.134C465.391 176.997 465.108 175.771 463.959 175.421Z" fill="#FF9E7C"/>
<path d="M438.373 160.564C438.373 160.564 444.306 163.517 445.378 164.05C446.441 164.583 447.813 164.551 447.813 164.551" stroke="#FF9E7C" stroke-width="0.6059" stroke-miterlimit="10" stroke-linecap="round" stroke-linejoin="round"/>
<path d="M437.14 162.505C437.14 162.505 442.927 166.866 443.93 167.447C444.942 168.028 449.734 168.84 449.734 168.84" stroke="#FF9E7C" stroke-width="0.6059" stroke-miterlimit="10" stroke-linecap="round" stroke-linejoin="round"/>
<path d="M438.128 166.079C438.128 166.079 443.804 171.474 445.278 171.96C446.762 172.445 449.745 172.851 449.745 172.851" stroke="#FF9E7C" stroke-width="0.6059" stroke-miterlimit="10" stroke-linecap="round" stroke-linejoin="round"/>
<path d="M512.546 192.339C521.977 189.251 520.691 170.734 516.833 152.033C509.091 114.505 500.628 111.656 500.628 111.656C475.216 115.174 490.271 158.678 494.43 169.771C489.86 167.821 465.425 164.232 465.425 164.232C462.492 163.317 458.926 176.129 463.033 178.142C471.924 182.495 499.557 193.397 512.546 192.339Z" fill="#AB1619"/>
<path opacity="0.14" d="M494.43 169.779C494.43 169.779 501.615 171.585 506.759 174.569C506.759 174.569 501.932 169.795 493.093 166.086L494.43 169.779Z" fill="#AB1619"/>
<path opacity="0.14" d="M512.545 192.339C520.527 189.729 520.827 176.065 518.401 160.596C522.516 187.357 504.828 187.89 493.091 184.516C481.602 181.206 462.028 174.8 461.214 174.537C461.351 176.217 461.9 177.593 463.031 178.15C471.922 182.495 499.556 193.397 512.545 192.339Z" fill="#AB1619"/>
<path fill-rule="evenodd" clip-rule="evenodd" d="M486.483 136.359L483.623 135.867L483.026 134.859L484.767 133.379L486.483 136.359Z" fill="white"/>
<path fill-rule="evenodd" clip-rule="evenodd" d="M486.832 131.116L484.86 132.833L483.859 131.031L485.482 131.31L485.866 130.95L486.832 131.116Z" fill="white"/>
<path fill-rule="evenodd" clip-rule="evenodd" d="M484.031 130.835C484.031 130.835 485.33 131.037 485.367 131.065C485.404 131.093 486.152 130.417 486.152 130.417L484.797 130.184L484.031 130.835Z" fill="white"/>
<path fill-rule="evenodd" clip-rule="evenodd" d="M485.435 130.103C485.435 130.103 486.562 130.244 486.553 130.295C486.545 130.346 487.129 129.785 487.129 129.785L486.039 129.598L485.435 130.103Z" fill="white"/>
<path fill-rule="evenodd" clip-rule="evenodd" d="M486.509 130.491L487.168 130.605L486.788 130.913L486.153 130.804L486.509 130.491Z" fill="white"/>
<path fill-rule="evenodd" clip-rule="evenodd" d="M487.248 129.962L487.816 130.06L487.526 130.373L486.898 130.265L487.248 129.962Z" fill="white"/>
<path fill-rule="evenodd" clip-rule="evenodd" d="M479.61 129.277L482.545 129.781L484.362 133.052L481.484 135.498L478.587 134.999L481.502 132.56L479.61 129.277Z" fill="white"/>
<path d="M466.765 128.541L466.644 129.245L468.65 129.591L468.418 130.942L466.411 130.597L466.272 131.406L468.552 131.798L468.306 133.23L464.001 132.49L464.986 126.761L469.291 127.501L469.045 128.933L466.765 128.541Z" fill="white"/>
<path d="M474.618 128.418L474.373 129.842L471.837 129.406L471.701 130.199L473.525 130.513L473.293 131.864L471.469 131.55L471.097 133.711L469.072 133.362L470.058 127.633L474.618 128.418Z" fill="white"/>
<path d="M477.081 130.316L476.96 131.02L478.967 131.365L478.734 132.716L476.728 132.371L476.589 133.18L478.869 133.572L478.622 135.005L474.317 134.264L475.303 128.535L479.608 129.275L479.361 130.708L477.081 130.316Z" fill="white"/>
<path d="M340.089 223.301H392.435V228.244H340.089C339.395 228.244 338.838 227.695 338.838 227.03V224.523C338.838 223.841 339.404 223.301 340.089 223.301Z" fill="#002E42"/>
<path d="M392.682 223.3L426.04 226.117C426.606 226.161 427.035 226.622 427.035 227.171C427.035 227.756 426.542 228.234 425.939 228.234H392.582C391.979 228.234 391.486 227.756 391.486 227.171V224.354C391.495 223.734 392.043 223.247 392.682 223.3Z" fill="#727272"/>
<path d="M239.102 200.709H382.401C388.618 200.709 393.219 195.093 391.822 189.21L368.78 92.3562C367.767 88.095 363.86 85.083 359.359 85.083H216.06C209.843 85.083 205.242 90.6995 206.639 96.5818L229.681 193.436C230.694 197.688 234.601 200.709 239.102 200.709Z" fill="#A7A6AE"/>
<path d="M232.148 200.709H375.447C381.664 200.709 386.265 195.093 384.868 189.21L361.817 92.3562C360.804 88.095 356.897 85.083 352.396 85.083H209.106C202.889 85.083 198.288 90.6995 199.685 96.5818L222.727 193.436C223.74 197.688 227.647 200.709 232.148 200.709Z" fill="#002E42"/>
<path d="M280.841 162.846C280.996 160.676 282.859 158.993 285.105 158.993H307.699C308.238 158.993 308.676 159.418 308.676 159.941C308.676 160.463 308.238 160.888 307.699 160.888H306.311C305.855 160.888 305.481 161.225 305.453 161.668L301.217 219.933C301.007 222.812 303.363 225.257 306.33 225.257H320.507C321.374 225.257 322.068 225.939 322.068 226.772C322.068 227.614 321.365 228.287 320.507 228.287H300.606H282.357H280.659C278.185 228.287 276.222 226.249 276.395 223.849L280.841 162.846Z" fill="#A7A6AE"/>
<path d="M521.469 232.079H190.687C189.838 232.079 189.153 231.308 189.153 230.36C189.153 229.412 189.838 228.642 190.687 228.642H521.469C522.318 228.642 523.003 229.412 523.003 230.36C522.994 231.308 522.309 232.079 521.469 232.079Z" fill="#002E42"/>
<path d="M537.764 232.079H529.758C528.526 232.079 527.521 231.105 527.521 229.909C527.521 228.713 528.526 227.738 529.758 227.738H537.764C538.997 227.738 540.001 228.713 540.001 229.909C540.001 231.105 538.997 232.079 537.764 232.079Z" fill="#002E42"/>
<path d="M227.456 140.823H191.551C188.612 140.823 185.672 138.51 184.997 135.658L178.396 107.903C177.721 105.05 179.547 102.738 182.495 102.738H218.4C221.339 102.738 224.279 105.05 224.955 107.903L231.555 135.658C232.23 138.502 230.405 140.823 227.456 140.823Z" fill="#AB1619"/>
<path fill-rule="evenodd" clip-rule="evenodd" d="M193.042 112.161C193.574 112.557 193.674 113.297 193.265 113.812L188.736 119.524L185.26 116.862C184.733 116.459 184.644 115.719 185.059 115.208C185.475 114.698 186.239 114.611 186.765 115.014L188.31 116.197L191.339 112.377C191.748 111.861 192.511 111.765 193.042 112.161Z" fill="#E8EDFE"/>
<path fill-rule="evenodd" clip-rule="evenodd" d="M195.719 113.875C195.719 113.224 196.262 112.697 196.933 112.697H220.596C221.266 112.697 221.81 113.224 221.81 113.875C221.81 114.525 221.266 115.052 220.596 115.052H196.933C196.262 115.052 195.719 114.525 195.719 113.875Z" fill="#E8EDFE"/>
<path fill-rule="evenodd" clip-rule="evenodd" d="M196.549 117.347C196.549 116.697 197.093 116.17 197.763 116.17H210.617C211.288 116.17 211.831 116.697 211.831 117.347C211.831 117.998 211.288 118.525 210.617 118.525H197.763C197.093 118.525 196.549 117.998 196.549 117.347Z" fill="#E8EDFE"/>
<path fill-rule="evenodd" clip-rule="evenodd" d="M196.196 125.448C196.729 125.844 196.829 126.583 196.421 127.099L191.901 132.813L188.424 130.15C187.897 129.747 187.808 129.007 188.223 128.497C188.639 127.986 189.403 127.899 189.929 128.302L191.473 129.484L194.494 125.666C194.902 125.15 195.664 125.053 196.196 125.448Z" fill="#E8EDFE"/>
<path fill-rule="evenodd" clip-rule="evenodd" d="M198.883 127.162C198.883 126.512 199.427 125.985 200.097 125.985H223.751C224.421 125.985 224.965 126.512 224.965 127.162C224.965 127.813 224.421 128.34 223.751 128.34H200.097C199.427 128.34 198.883 127.813 198.883 127.162Z" fill="#E8EDFE"/>
<path fill-rule="evenodd" clip-rule="evenodd" d="M199.703 130.635C199.703 129.985 200.247 129.458 200.918 129.458H213.78C214.451 129.458 214.995 129.985 214.995 130.635C214.995 131.285 214.451 131.813 213.78 131.813H200.918C200.247 131.813 199.703 131.285 199.703 130.635Z" fill="#E8EDFE"/>
<path d="M316.365 35.4284H330.679C334.75 35.4284 338.055 32.2215 338.055 28.2705V16.1072C338.055 12.1561 334.75 8.94922 330.679 8.94922H316.365C312.293 8.94922 308.988 12.1561 308.988 16.1072V28.2793C308.988 32.2304 312.293 35.4284 316.365 35.4284Z" fill="#AB1619"/>
<path d="M326.033 35.4277L333.638 40.8139L333.035 35.4277H326.033Z" fill="#AB1619"/>
<path d="M328.36 24.6113C326.762 23.5128 326.233 24.4341 325.22 25.4972C324.206 26.5602 321.723 23.814 321.723 23.814C321.723 23.814 319.231 21.0677 320.445 20.235C321.659 19.4022 322.673 19.0124 321.751 17.3293C320.883 15.7435 320.098 14.9108 319.569 14.9285C319.048 14.9374 318.327 15.6018 317.789 16.0713C317.259 16.532 314.292 19.7832 319.596 25.63C324.891 31.4769 328.588 29.0496 329.136 28.5978C329.684 28.146 330.451 27.5347 330.533 27.0297C330.615 26.5071 329.875 25.6478 328.36 24.6113Z" fill="#E8EDFE"/>
<path d="M469.164 70.2836C470.227 67.1404 470.81 63.7265 470.81 60.1695C470.81 44.3258 459.476 31.3071 445.252 31.3071" stroke="#E7EDFD" stroke-width="3" stroke-miterlimit="10" stroke-linecap="round" stroke-linejoin="round"/>
<path d="M467.538 70.2836C468.601 67.1404 469.184 63.7265 469.184 60.1695C469.184 44.3258 457.85 31.3071 443.626 31.3071" stroke="#AB1619" stroke-width="3" stroke-miterlimit="10" stroke-linecap="round" stroke-linejoin="round"/>
<path d="M468.224 75.8696C468.224 75.8696 465.463 90.7345 444.86 90.2411" stroke="#00004C" stroke-width="1.4818" stroke-miterlimit="10"/>
<path d="M439.45 90.8067C439.544 92.1754 441.971 93.1462 444.877 92.9791C447.784 92.812 450.064 91.5626 449.97 90.2019C449.876 88.8332 447.449 87.8623 444.543 88.0295C441.636 88.1966 439.356 89.438 439.45 90.8067Z" fill="#00004C"/>
<path d="M469.82 81.6551H468.002C463.758 81.6551 460.312 78.4561 460.312 74.5171V67.0926C460.312 63.1536 463.758 59.9546 468.002 59.9546H469.82C474.064 59.9546 477.51 63.1536 477.51 67.0926V74.5171C477.51 78.4561 474.072 81.6551 469.82 81.6551Z" fill="#AB1619"/>
<path d="M471.918 78.7347H468.643C466.08 78.7347 463.996 76.801 463.996 74.4217V67.1802C463.996 64.8009 466.08 62.8672 468.643 62.8672H471.918C474.482 62.8672 476.565 64.8009 476.565 67.1802V74.4217C476.565 76.809 474.482 78.7347 471.918 78.7347Z" fill="#E7EDFD"/>
<path d="M472.333 78.7347H469.058C466.495 78.7347 464.411 76.801 464.411 74.4217V67.1802C464.411 64.8009 466.495 62.8672 469.058 62.8672H472.333C474.897 62.8672 476.98 64.8009 476.98 67.1802V74.4217C476.98 76.809 474.897 78.7347 472.333 78.7347Z" fill="#00184D"/>
<path opacity="0.14" d="M474.655 63.4561C475.101 66.9017 475.221 75.3129 466.39 77.9549C467.144 78.4482 468.062 78.7347 469.047 78.7347H472.323C474.886 78.7347 476.97 76.801 476.97 74.4217V67.1802C476.978 65.5887 476.044 64.2041 474.655 63.4561Z" fill="#A695FF"/>
<path d="M256.895 79.0859H200.295C196.762 79.0859 193.247 76.3131 192.426 72.8847L189.331 59.8887C188.518 56.4603 190.718 53.6875 194.242 53.6875H250.842C254.375 53.6875 257.89 56.4603 258.712 59.8887L261.806 72.8847C262.628 76.3042 260.428 79.0859 256.895 79.0859Z" fill="#AB1619"/>
<path fill-rule="evenodd" clip-rule="evenodd" d="M197.402 62.3958C197.402 61.7454 197.946 61.2183 198.617 61.2183H221.439C222.11 61.2183 222.654 61.7454 222.654 62.3958C222.654 63.0461 222.11 63.5732 221.439 63.5732H198.617C197.946 63.5732 197.402 63.0461 197.402 62.3958Z" fill="#E8EDFE"/>
<path fill-rule="evenodd" clip-rule="evenodd" d="M225.775 62.3958C225.775 61.7454 226.319 61.2183 226.99 61.2183H233.307C233.978 61.2183 234.522 61.7454 234.522 62.3958C234.522 63.0461 233.978 63.5732 233.307 63.5732H226.99C226.319 63.5732 225.775 63.0461 225.775 62.3958Z" fill="#E8EDFE"/>
<path fill-rule="evenodd" clip-rule="evenodd" d="M199.291 70.3694C199.291 69.7191 199.835 69.1919 200.505 69.1919H240.217C240.888 69.1919 241.431 69.7191 241.431 70.3694C241.431 71.0197 240.888 71.5469 240.217 71.5469H200.505C199.835 71.5469 199.291 71.0197 199.291 70.3694Z" fill="#E8EDFE"/>
<path fill-rule="evenodd" clip-rule="evenodd" d="M245.018 70.3694C245.018 69.7191 245.561 69.1919 246.232 69.1919H252.54C253.211 69.1919 253.755 69.7191 253.755 70.3694C253.755 71.0197 253.211 71.5469 252.54 71.5469H246.232C245.561 71.5469 245.018 71.0197 245.018 70.3694Z" fill="#E8EDFE"/>
<path d="M352.819 129.192H300.482C297.46 129.192 294.438 126.809 293.735 123.877L280.526 68.3583C279.823 65.426 281.712 63.043 284.734 63.043H337.071C340.093 63.043 343.115 65.426 343.817 68.3583L357.027 123.877C357.73 126.809 355.85 129.192 352.819 129.192Z" fill="#0958D9"/>
<path fill-rule="evenodd" clip-rule="evenodd" d="M289.645 73.2312C289.645 72.5809 290.188 72.0537 290.859 72.0537H312.54C313.211 72.0537 313.755 72.5809 313.755 73.2312C313.755 73.8815 313.211 74.4087 312.54 74.4087H290.859C290.188 74.4087 289.645 73.8815 289.645 73.2312Z" fill="#E8EDFE"/>
<path d="M295.9 83.4895C296.064 84.1894 295.617 84.7475 294.905 84.7475C294.193 84.7475 293.472 84.1805 293.307 83.4895C293.143 82.7897 293.59 82.2315 294.303 82.2315C295.015 82.2227 295.727 82.7897 295.9 83.4895Z" fill="#E8EDFE"/>
<path fill-rule="evenodd" clip-rule="evenodd" d="M299.156 83.49C299.156 82.8397 299.7 82.3125 300.371 82.3125H325.247C325.918 82.3125 326.462 82.8397 326.462 83.49C326.462 84.1403 325.918 84.6675 325.247 84.6675H300.371C299.7 84.6675 299.156 84.1403 299.156 83.49Z" fill="#E8EDFE"/>
<path fill-rule="evenodd" clip-rule="evenodd" d="M329.631 83.49C329.631 82.8397 330.175 82.3125 330.845 82.3125H335.638C336.309 82.3125 336.852 82.8397 336.852 83.49C336.852 84.1403 336.309 84.6675 335.638 84.6675H330.845C330.175 84.6675 329.631 84.1403 329.631 83.49Z" fill="#E8EDFE"/>
<path d="M297.955 92.1277C298.119 92.8275 297.672 93.3857 296.96 93.3857C296.239 93.3857 295.526 92.8187 295.362 92.1277C295.198 91.4367 295.645 90.8697 296.357 90.8697C297.069 90.8609 297.79 91.4278 297.955 92.1277Z" fill="#E8EDFE"/>
<path fill-rule="evenodd" clip-rule="evenodd" d="M301.21 92.1282C301.21 91.4779 301.754 90.9507 302.424 90.9507H334.376C335.047 90.9507 335.591 91.4779 335.591 92.1282C335.591 92.7785 335.047 93.3057 334.376 93.3057H302.424C301.754 93.3057 301.21 92.7785 301.21 92.1282Z" fill="#E8EDFE"/>
<path d="M300.008 100.764C300.173 101.464 299.725 102.022 299.013 102.022C298.292 102.022 297.58 101.455 297.416 100.764C297.252 100.065 297.699 99.5065 298.411 99.5065C299.123 99.4976 299.844 100.065 300.008 100.764Z" fill="#E8EDFE"/>
<path fill-rule="evenodd" clip-rule="evenodd" d="M303.264 100.764C303.264 100.114 303.807 99.5869 304.478 99.5869H313.607C314.278 99.5869 314.822 100.114 314.822 100.764C314.822 101.415 314.278 101.942 313.607 101.942H304.478C303.807 101.942 303.264 101.415 303.264 100.764Z" fill="#E8EDFE"/>
<path fill-rule="evenodd" clip-rule="evenodd" d="M317.87 100.764C317.87 100.114 318.414 99.5869 319.085 99.5869H339.744C340.414 99.5869 340.958 100.114 340.958 100.764C340.958 101.415 340.414 101.942 339.744 101.942H319.085C318.414 101.942 317.87 101.415 317.87 100.764Z" fill="#E8EDFE"/>
<path fill-rule="evenodd" clip-rule="evenodd" d="M304.625 106.452C304.625 105.802 305.169 105.274 305.839 105.274H323.522C324.193 105.274 324.737 105.802 324.737 106.452C324.737 107.102 324.193 107.629 323.522 107.629H305.839C305.169 107.629 304.625 107.102 304.625 106.452Z" fill="#E8EDFE"/>
</g>
<defs>
<clipPath id="clip0_508_18957">
<rect width="540" height="232" rx="12" fill="white"/>
</clipPath>
</defs>
</svg>
