<svg width="41" height="40" viewBox="0 0 41 40" fill="none" xmlns="http://www.w3.org/2000/svg">
<path d="M5.74 0.5H34.4857C35.8741 0.505036 37.2042 1.05881 38.186 2.04058C39.1675 3.02214 39.7213 4.3519 39.7266 5.73998C39.7213 7.12807 39.1675 8.45782 38.186 9.43939C37.2042 10.4212 35.8741 10.9749 34.4857 10.98H22.3933H5.74C4.35027 10.98 3.01745 10.4279 2.03476 9.44521C1.05207 8.46252 0.5 7.12971 0.5 5.73998C0.5 4.35026 1.05207 3.01744 2.03476 2.03475C3.01745 1.05207 4.35026 0.5 5.74 0.5Z" stroke="#DDDDDD"/>
<path d="M6.13326 2.91333L6.96659 4.59999L8.82659 4.87332L7.47993 6.18665L7.79992 8.03998L6.13326 7.16665L4.4666 8.03998L4.7866 6.18665L3.43994 4.87332L5.29993 4.59999L6.13326 2.91333Z" fill="#FFCB00"/>
<path d="M13.1272 2.91333L13.9539 4.59999L15.8206 4.87332L14.4739 6.18665L14.7872 8.03998L13.1272 7.16665L11.4606 8.03998L11.7739 6.18665L10.4272 4.87332L12.2939 4.59999L13.1272 2.91333Z" fill="#FFCB00"/>
<path d="M20.1137 2.91333L20.9471 4.59999L22.8071 4.87332L21.4604 6.18665L21.7804 8.03998L20.1137 7.16665L18.4471 8.03998L18.7671 6.18665L17.4204 4.87332L19.2804 4.59999L20.1137 2.91333Z" fill="#FFCB00"/>
<path d="M27.1067 2.91333L27.9401 4.59999L29.8001 4.87332L28.4534 6.18665L28.7734 8.03998L27.1067 7.16665L25.4401 8.03998L25.7601 6.18665L24.4067 4.87332L26.2734 4.59999L27.1067 2.91333Z" fill="#FFCB00"/>
<path d="M34.0937 2.91333L34.927 4.59999L36.7937 4.87332L35.4404 6.18665L35.7604 8.03998L34.0937 7.16665L32.427 8.03998L32.747 6.18665L31.4004 4.87332L33.2604 4.59999L34.0937 2.91333Z" fill="#FFCB00"/>
<path d="M32.6576 10H9.11098C8.28501 10.0029 7.49377 10.3867 6.91062 11.0673C6.32746 11.7478 6 12.6696 6 13.6306V28.6623C6.00251 29.6214 6.33104 30.5403 6.91393 31.2185C7.49681 31.8967 8.28665 32.279 9.11098 32.2819H16.722L20.9081 37.0858L25.0371 32.2708H32.6482C33.4725 32.2679 34.2623 31.8856 34.8452 31.2074C35.4281 30.5293 35.7566 29.6103 35.7592 28.6512V13.6306C35.7592 12.6715 35.433 11.7514 34.8519 11.0712C34.2708 10.3909 33.482 10.0058 32.6576 10Z" fill="#AF0000"/>
<path d="M26.2839 16.1209C23.7722 14.0842 20.8895 16.9511 20.8895 16.9511C20.8895 16.9511 18.0354 14.0842 15.4857 16.1209C12.9359 18.1576 14.6009 21.4341 15.9424 22.6516C17.2838 23.8692 20.8895 26.891 20.8895 26.891C20.8895 26.891 24.4857 23.8692 25.8272 22.6516C27.1686 21.4341 28.805 18.1687 26.2839 16.1209Z" fill="white"/>
</svg>
