<svg width="340" height="285" viewBox="0 0 340 285" fill="none" xmlns="http://www.w3.org/2000/svg">
<rect width="340" height="285" rx="16" fill="#F0F1FD" fill-opacity="0.96"/>
<path d="M60.0241 218.574H16V264.886H60.0241V218.574Z" fill="#F1CA89"/>
<path d="M93.8455 218.574H60.0244V264.886H93.8455V218.574Z" fill="#EFA856"/>
<path d="M60.0241 172.262H16V218.575H60.0241V172.262Z" fill="#F1CA89"/>
<path d="M93.8455 172.262H60.0244V218.575H93.8455V172.262Z" fill="#F1B873"/>
<path d="M60.0244 218.829H19.284C19.1185 218.829 18.9834 218.714 18.9834 218.574C18.9834 218.433 19.1185 218.318 19.284 218.318H60.0244C60.1899 218.318 60.325 218.433 60.325 218.574C60.325 218.714 60.1899 218.829 60.0244 218.829Z" fill="#E5A251"/>
<path d="M93.8451 218.829H63.3513C63.1858 218.829 63.0508 218.714 63.0508 218.574C63.0508 218.433 63.1858 218.318 63.3513 218.318H93.8451C94.0106 218.318 94.1457 218.433 94.1457 218.574C94.1457 218.714 94.0106 218.829 93.8451 218.829Z" fill="#E5A251"/>
<path d="M137.819 218.574H93.7949V264.886H137.819V218.574Z" fill="#F1CA89"/>
<path d="M171.639 218.574H137.818V264.886H171.639V218.574Z" fill="#F1B873"/>
<path d="M137.931 184.939H105.957V218.575H137.931V184.939Z" fill="#F1CA89"/>
<path d="M162.493 184.939H137.93V218.575H162.493V184.939Z" fill="#F1B873"/>
<path d="M137.819 218.829H97.0789C96.9134 218.829 96.7783 218.714 96.7783 218.574C96.7783 218.433 96.9134 218.318 97.0789 218.318H137.819C137.985 218.318 138.12 218.433 138.12 218.574C138.12 218.714 137.985 218.829 137.819 218.829Z" fill="#E5A251"/>
<path d="M171.64 218.829H141.146C140.981 218.829 140.846 218.714 140.846 218.574C140.846 218.433 140.981 218.318 141.146 218.318H171.64C171.806 218.318 171.941 218.433 171.941 218.574C171.941 218.714 171.806 218.829 171.64 218.829Z" fill="#E5A251"/>
<path d="M101.262 193.577H78.3975V232.335H101.262V193.577Z" fill="#F1CA89"/>
<path d="M109.293 193.577H96.707V232.335H109.293V193.577Z" fill="#F1B873"/>
<path d="M78.3977 195.418H76.0488V232.335H78.3977V195.418Z" fill="#EFA856"/>
<path d="M101.856 232.417H69.9072V264.886H101.856V232.417Z" fill="#F1CA89"/>
<path d="M117.894 232.335H101.856V264.886H117.894V232.335Z" fill="#EFA856"/>
<path d="M98.2438 232.63H69.9055C69.7678 232.63 69.6553 232.535 69.6553 232.418C69.6553 232.301 69.7678 232.205 69.9055 232.205H98.2438C98.3815 232.205 98.494 232.301 98.494 232.418C98.494 232.535 98.3815 232.63 98.2438 232.63Z" fill="#E5A251"/>
<path d="M69.9053 235.088H66.8613V264.885H69.9053V235.088Z" fill="#E5A251"/>
<path d="M39.6549 175.999H20.9834V187.1H39.6549V175.999Z" fill="#F2F3F7"/>
<path d="M29.2186 177.189H22.4912V182.039H29.2186V177.189Z" fill="#CAD2EA"/>
<path d="M38.0128 183.22H22.4912V183.814H38.0128V183.22Z" fill="#CAD2EA"/>
<path d="M38.0128 184.213H22.4912V184.807H38.0128V184.213Z" fill="#CAD2EA"/>
<path d="M30.3189 185.206H22.4912V185.8H30.3189V185.206Z" fill="#CAD2EA"/>
<path d="M31.2496 177.189H30.8047V178.937H31.2496V177.189Z" fill="#CAD2EA"/>
<path d="M33.2278 177.189H31.7422V178.937H33.2278V177.189Z" fill="#CAD2EA"/>
<path d="M34.0611 177.189H33.6162V178.937H34.0611V177.189Z" fill="#CAD2EA"/>
<path d="M34.9976 177.189H34.5527V178.937H34.9976V177.189Z" fill="#CAD2EA"/>
<path d="M35.9341 177.189H35.4893V178.937H35.9341V177.189Z" fill="#CAD2EA"/>
<path d="M36.8697 177.189H36.4248V178.937H36.8697V177.189Z" fill="#CAD2EA"/>
<path d="M37.8082 177.189H37.3633V178.937H37.8082V177.189Z" fill="#CAD2EA"/>
<path d="M34.5517 179.615H30.8047V179.984H34.5517V179.615Z" fill="#CAD2EA"/>
<path d="M36.6476 180.319H30.8047V180.688H36.6476V180.319Z" fill="#CAD2EA"/>
<path d="M33.0767 181.024H30.8047V181.393H33.0767V181.024Z" fill="#CAD2EA"/>
<path d="M35.8638 181.729H30.8047V182.098H35.8638V181.729Z" fill="#CAD2EA"/>
<path d="M135.435 187.1H116.764V198.201H135.435V187.1Z" fill="#F2F3F7"/>
<path d="M124.999 188.29H118.271V193.14H124.999V188.29Z" fill="#CAD2EA"/>
<path d="M133.793 194.321H118.271V194.915H133.793V194.321Z" fill="#CAD2EA"/>
<path d="M133.793 195.313H118.271V195.907H133.793V195.313Z" fill="#CAD2EA"/>
<path d="M126.099 196.306H118.271V196.9H126.099V196.306Z" fill="#CAD2EA"/>
<path d="M127.029 188.29H126.584V190.038H127.029V188.29Z" fill="#CAD2EA"/>
<path d="M129.006 188.29H127.521V190.038H129.006V188.29Z" fill="#CAD2EA"/>
<path d="M129.839 188.29H129.395V190.038H129.839V188.29Z" fill="#CAD2EA"/>
<path d="M130.777 188.29H130.332V190.038H130.777V188.29Z" fill="#CAD2EA"/>
<path d="M131.713 188.29H131.269V190.038H131.713V188.29Z" fill="#CAD2EA"/>
<path d="M132.65 188.29H132.205V190.038H132.65V188.29Z" fill="#CAD2EA"/>
<path d="M133.587 188.29H133.143V190.038H133.587V188.29Z" fill="#CAD2EA"/>
<path d="M130.331 190.716H126.584V191.085H130.331V190.716Z" fill="#CAD2EA"/>
<path d="M132.427 191.42H126.584V191.789H132.427V191.42Z" fill="#CAD2EA"/>
<path d="M128.856 192.125H126.584V192.494H128.856V192.125Z" fill="#CAD2EA"/>
<path d="M131.643 192.83H126.584V193.199H131.643V192.83Z" fill="#CAD2EA"/>
<path d="M123.247 220.799H111.653V227.693H123.247V220.799Z" fill="#F2F3F7"/>
<path d="M116.766 221.54H112.589V224.551H116.766V221.54Z" fill="#CAD2EA"/>
<path d="M122.227 225.284H112.589V225.653H122.227V225.284Z" fill="#CAD2EA"/>
<path d="M122.227 225.9H112.589V226.269H122.227V225.9Z" fill="#CAD2EA"/>
<path d="M117.449 226.517H112.589V226.885H117.449V226.517Z" fill="#CAD2EA"/>
<path d="M118.028 221.54H117.751V222.625H118.028V221.54Z" fill="#CAD2EA"/>
<path d="M119.254 221.54H118.332V222.625H119.254V221.54Z" fill="#CAD2EA"/>
<path d="M119.773 221.54H119.496V222.625H119.773V221.54Z" fill="#CAD2EA"/>
<path d="M120.355 221.54H120.078V222.625H120.355V221.54Z" fill="#CAD2EA"/>
<path d="M120.937 221.54H120.66V222.625H120.937V221.54Z" fill="#CAD2EA"/>
<path d="M121.518 221.54H121.241V222.625H121.518V221.54Z" fill="#CAD2EA"/>
<path d="M122.1 221.54H121.823V222.625H122.1V221.54Z" fill="#CAD2EA"/>
<path d="M120.077 223.045H117.751V223.274H120.077V223.045Z" fill="#CAD2EA"/>
<path d="M121.379 223.482H117.751V223.712H121.379V223.482Z" fill="#CAD2EA"/>
<path d="M119.161 223.92H117.751V224.149H119.161V223.92Z" fill="#CAD2EA"/>
<path d="M120.893 224.357H117.751V224.586H120.893V224.357Z" fill="#CAD2EA"/>
<path d="M39.6549 222.24H20.9834V233.341H39.6549V222.24Z" fill="#F2F3F7"/>
<path d="M29.2186 223.431H22.4912V228.281H29.2186V223.431Z" fill="#CAD2EA"/>
<path d="M38.0128 229.461H22.4912V230.055H38.0128V229.461Z" fill="#CAD2EA"/>
<path d="M38.0128 230.454H22.4912V231.048H38.0128V230.454Z" fill="#CAD2EA"/>
<path d="M30.3189 231.447H22.4912V232.041H30.3189V231.447Z" fill="#CAD2EA"/>
<path d="M31.2496 223.431H30.8047V225.179H31.2496V223.431Z" fill="#CAD2EA"/>
<path d="M33.2278 223.431H31.7422V225.179H33.2278V223.431Z" fill="#CAD2EA"/>
<path d="M34.0611 223.431H33.6162V225.179H34.0611V223.431Z" fill="#CAD2EA"/>
<path d="M34.9976 223.431H34.5527V225.179H34.9976V223.431Z" fill="#CAD2EA"/>
<path d="M35.9341 223.431H35.4893V225.179H35.9341V223.431Z" fill="#CAD2EA"/>
<path d="M36.8697 223.431H36.4248V225.179H36.8697V223.431Z" fill="#CAD2EA"/>
<path d="M37.8082 223.431H37.3633V225.179H37.8082V223.431Z" fill="#CAD2EA"/>
<path d="M34.5517 225.857H30.8047V226.226H34.5517V225.857Z" fill="#CAD2EA"/>
<path d="M36.6476 226.562H30.8047V226.931H36.6476V226.562Z" fill="#CAD2EA"/>
<path d="M33.0767 227.266H30.8047V227.634H33.0767V227.266Z" fill="#CAD2EA"/>
<path d="M35.8638 227.971H30.8047V228.34H35.8638V227.971Z" fill="#CAD2EA"/>
<path d="M86.7451 236.18H73.6689V243.953H86.7451V236.18Z" fill="#F2F3F7"/>
<path d="M79.4355 237.014H74.7246V240.411H79.4355V237.014Z" fill="#CAD2EA"/>
<path d="M85.5949 241.236H74.7246V241.652H85.5949V241.236Z" fill="#CAD2EA"/>
<path d="M85.5949 241.933H74.7246V242.349H85.5949V241.933Z" fill="#CAD2EA"/>
<path d="M80.2061 242.628H74.7246V243.044H80.2061V242.628Z" fill="#CAD2EA"/>
<path d="M80.8571 237.014H80.5459V238.238H80.8571V237.014Z" fill="#CAD2EA"/>
<path d="M82.2419 237.014H81.2012V238.238H82.2419V237.014Z" fill="#CAD2EA"/>
<path d="M82.8252 237.014H82.5127V238.238H82.8252V237.014Z" fill="#CAD2EA"/>
<path d="M83.4824 237.014H83.1699V238.238H83.4824V237.014Z" fill="#CAD2EA"/>
<path d="M84.1377 237.014H83.8252V238.238H84.1377V237.014Z" fill="#CAD2EA"/>
<path d="M84.7949 237.014H84.4824V238.238H84.7949V237.014Z" fill="#CAD2EA"/>
<path d="M85.4492 237.014H85.1367V238.238H85.4492V237.014Z" fill="#CAD2EA"/>
<path d="M83.1692 238.712H80.5449V238.971H83.1692V238.712Z" fill="#CAD2EA"/>
<path d="M84.6375 239.206H80.5449V239.464H84.6375V239.206Z" fill="#CAD2EA"/>
<path d="M82.1364 239.699H80.5449V239.958H82.1364V239.699Z" fill="#CAD2EA"/>
<path d="M84.088 240.192H80.5449V240.451H84.088V240.192Z" fill="#CAD2EA"/>
<path d="M87.8808 195.417H80.208V199.98H87.8808V195.417Z" fill="#F2F3F7"/>
<path d="M83.5907 195.907H80.8262V197.9H83.5907V195.907Z" fill="#CAD2EA"/>
<path d="M87.204 198.386H80.8262V198.63H87.204V198.386Z" fill="#CAD2EA"/>
<path d="M87.204 198.794H80.8262V199.038H87.204V198.794Z" fill="#CAD2EA"/>
<path d="M84.0422 199.202H80.8262V199.446H84.0422V199.202Z" fill="#CAD2EA"/>
<path d="M84.4259 195.907H84.2432V196.626H84.4259V195.907Z" fill="#CAD2EA"/>
<path d="M85.2383 195.907H84.6279V196.626H85.2383V195.907Z" fill="#CAD2EA"/>
<path d="M85.5821 195.907H85.3994V196.626H85.5821V195.907Z" fill="#CAD2EA"/>
<path d="M85.9649 195.907H85.7822V196.626H85.9649V195.907Z" fill="#CAD2EA"/>
<path d="M86.3517 195.907H86.1689V196.626H86.3517V195.907Z" fill="#CAD2EA"/>
<path d="M86.7364 195.907H86.5537V196.626H86.7364V195.907Z" fill="#CAD2EA"/>
<path d="M87.1212 195.907H86.9385V196.626H87.1212V195.907Z" fill="#CAD2EA"/>
<path d="M85.782 196.905H84.2422V197.057H85.782V196.905Z" fill="#CAD2EA"/>
<path d="M86.6427 197.194H84.2422V197.346H86.6427V197.194Z" fill="#CAD2EA"/>
<path d="M85.1756 197.484H84.2422V197.636H85.1756V197.484Z" fill="#CAD2EA"/>
<path d="M86.3209 197.772H84.2422V197.924H86.3209V197.772Z" fill="#CAD2EA"/>
<path d="M96.7056 205.544C96.5361 205.544 96.3984 205.427 96.3984 205.283V193.577C96.3984 193.433 96.5361 193.316 96.7056 193.316C96.8751 193.316 97.0128 193.433 97.0128 193.577V205.283C97.0128 205.427 96.8751 205.544 96.7056 205.544Z" fill="#E5A251"/>
<path d="M137.819 265.147C137.649 265.147 137.512 265.03 137.512 264.886V241.731C137.512 241.587 137.649 241.47 137.819 241.47C137.988 241.47 138.126 241.587 138.126 241.731V264.886C138.126 265.03 137.988 265.147 137.819 265.147Z" fill="#E5A251"/>
<path d="M60.0249 195.872C59.8555 195.872 59.7178 195.755 59.7178 195.611V187.098C59.7178 186.954 59.8555 186.837 60.0249 186.837C60.1944 186.837 60.3321 186.954 60.3321 187.098V195.611C60.3321 195.755 60.1944 195.872 60.0249 195.872Z" fill="#E5A251"/>
<path d="M60.0249 185.068C59.8555 185.068 59.7178 184.951 59.7178 184.807V172.261C59.7178 172.117 59.8555 172 60.0249 172C60.1944 172 60.3321 172.117 60.3321 172.261V184.807C60.3321 184.951 60.1944 185.068 60.0249 185.068Z" fill="#E5A251"/>
<path d="M137.929 190.977C137.76 190.977 137.622 190.86 137.622 190.716V184.938C137.622 184.794 137.76 184.677 137.929 184.677C138.099 184.677 138.236 184.794 138.236 184.938V190.716C138.236 190.86 138.099 190.977 137.929 190.977Z" fill="#E5A251"/>
<path d="M325 264.998C325.001 265.261 324.913 265.521 324.743 265.764C324.573 266.007 324.324 266.228 324.009 266.414C323.694 266.599 323.32 266.747 322.909 266.848C322.497 266.948 322.056 267 321.61 267H17.3899C16.9443 267 16.5031 266.948 16.0915 266.848C15.6798 266.747 15.3059 266.599 14.9911 266.414C14.6762 266.228 14.4266 266.007 14.2566 265.764C14.0865 265.521 13.9993 265.261 14 264.998C14 264.468 14.3571 263.96 14.9929 263.585C15.6286 263.211 16.4908 263 17.3899 263H321.61C322.509 263 323.371 263.211 324.007 263.585C324.643 263.96 325 264.468 325 264.998Z" fill="#298FE2"/>
<path d="M182.222 241.338C182.223 244.945 181.408 248.472 179.88 251.472C178.352 254.473 176.179 256.812 173.636 258.193C171.094 259.575 168.296 259.937 165.596 259.234C162.897 258.531 160.417 256.795 158.47 254.244C156.524 251.694 155.198 248.444 154.66 244.906C154.123 241.368 154.398 237.7 155.451 234.367C156.504 231.034 158.288 228.185 160.576 226.18C162.865 224.176 165.555 223.106 168.307 223.106C171.997 223.106 175.535 225.027 178.145 228.445C180.754 231.864 182.221 236.502 182.222 241.338Z" fill="#4C4C4C"/>
<path d="M180.198 241.338C180.199 244.945 179.384 248.472 177.855 251.472C176.327 254.473 174.154 256.812 171.612 258.193C169.069 259.575 166.271 259.937 163.572 259.234C160.872 258.531 158.392 256.795 156.446 254.244C154.499 251.694 153.173 248.444 152.636 244.906C152.099 241.368 152.374 237.7 153.427 234.367C154.48 231.034 156.263 228.185 158.552 226.18C160.84 224.176 163.531 223.106 166.283 223.106C169.972 223.106 173.511 225.027 176.12 228.445C178.73 231.864 180.196 236.502 180.198 241.338Z" fill="#353535"/>
<path d="M234.056 118H112.084V226.957H234.056V118Z" fill="#FFB210"/>
<path d="M234.056 118H112.084V226.957H234.056V118Z" fill="#FFB210"/>
<path d="M234.056 118H112.084V226.957H234.056V118Z" fill="#FFB210"/>
<g style="mix-blend-mode:multiply" opacity="0.2">
<path d="M173.07 118H112.084V195.854L150.695 156.927L172.935 118.176L173.07 118Z" fill="#FFB210"/>
</g>
<path d="M234.061 118H173.075V226.957H234.061V118Z" fill="#FFC001"/>
<g style="mix-blend-mode:multiply" opacity="0.2">
<path d="M173.07 118H234.062V195.854L195.45 156.927L173.21 118.176L173.07 118Z" fill="#FFC001"/>
</g>
<g style="mix-blend-mode:multiply" opacity="0.4">
<path d="M191.561 206.76H154.314V220.584H191.561V206.76Z" fill="#DB6C21"/>
</g>
<path d="M150.986 147.555H90L112.084 118H173.069L150.986 147.555Z" fill="#FFC001"/>
<path d="M256.145 147.555H195.159L173.07 118H234.062L256.145 147.555Z" fill="#FBD45B"/>
<path d="M233.205 224.104H110.455C109.683 224.104 109.057 224.925 109.057 225.937V231.32C109.057 232.333 109.683 233.154 110.455 233.154H233.205C233.977 233.154 234.603 232.333 234.603 231.32V225.937C234.603 224.925 233.977 224.104 233.205 224.104Z" fill="#4C4C4C"/>
<path d="M241.558 230.514H113.773C113 230.514 112.374 231.335 112.374 232.347V242.086C112.374 243.099 113 243.92 113.773 243.92H241.558C242.33 243.92 242.956 243.099 242.956 242.086V232.347C242.956 231.335 242.33 230.514 241.558 230.514Z" fill="#6D6D6D"/>
<path d="M143.271 225.255C139.495 225.257 135.874 227.224 133.203 230.724C130.533 234.223 129.033 238.97 129.031 243.919H157.51C157.51 238.969 156.01 234.222 153.339 230.722C150.669 227.221 147.047 225.255 143.271 225.255Z" fill="#191919"/>
<path d="M160.614 240.326C160.431 240.327 160.25 240.279 160.081 240.188C159.912 240.096 159.759 239.961 159.63 239.791L150.89 228.336H134.737L125.998 239.82C125.731 240.133 125.384 240.299 125.027 240.286C124.669 240.273 124.329 240.081 124.077 239.75C123.824 239.419 123.678 238.973 123.668 238.505C123.658 238.036 123.785 237.581 124.023 237.232L133.199 225.212C133.327 225.04 133.48 224.904 133.649 224.811C133.819 224.717 134 224.669 134.183 224.669H151.467C151.65 224.669 151.831 224.717 152.001 224.811C152.17 224.904 152.323 225.04 152.451 225.212L161.605 237.202C161.799 237.459 161.931 237.785 161.984 238.14C162.037 238.495 162.009 238.863 161.903 239.196C161.797 239.53 161.618 239.816 161.389 240.017C161.16 240.218 160.89 240.326 160.614 240.326Z" fill="#878787"/>
<path d="M157.74 245.372C157.74 248.98 156.924 252.506 155.394 255.506C153.865 258.505 151.692 260.843 149.149 262.223C146.606 263.604 143.808 263.964 141.108 263.26C138.409 262.556 135.93 260.818 133.984 258.266C132.038 255.715 130.713 252.464 130.177 248.926C129.641 245.387 129.917 241.72 130.971 238.387C132.025 235.055 133.809 232.207 136.098 230.204C138.387 228.2 141.078 227.132 143.831 227.133C145.658 227.133 147.467 227.605 149.155 228.522C150.843 229.438 152.376 230.782 153.668 232.476C154.96 234.17 155.984 236.18 156.683 238.393C157.381 240.606 157.741 242.977 157.74 245.372Z" fill="#4C4C4C"/>
<path d="M155.691 245.372C155.691 248.98 154.875 252.506 153.346 255.506C151.816 258.505 149.643 260.843 147.1 262.223C144.557 263.604 141.759 263.964 139.059 263.26C136.36 262.556 133.881 260.818 131.935 258.266C129.989 255.715 128.664 252.464 128.128 248.926C127.592 245.387 127.868 241.72 128.922 238.387C129.976 235.055 131.761 232.207 134.05 230.204C136.339 228.2 139.029 227.132 141.782 227.133C143.609 227.133 145.418 227.605 147.106 228.522C148.794 229.438 150.327 230.782 151.619 232.476C152.911 234.17 153.935 236.18 154.634 238.393C155.333 240.606 155.692 242.977 155.691 245.372Z" fill="#353535"/>
<path d="M148.368 245.372C148.368 247.08 147.982 248.751 147.257 250.172C146.533 251.593 145.503 252.7 144.298 253.354C143.094 254.007 141.768 254.178 140.49 253.844C139.211 253.51 138.037 252.687 137.115 251.478C136.193 250.269 135.566 248.729 135.312 247.052C135.059 245.376 135.19 243.639 135.69 242.06C136.19 240.482 137.035 239.133 138.12 238.185C139.204 237.236 140.479 236.731 141.783 236.732C142.648 236.732 143.505 236.956 144.304 237.39C145.104 237.824 145.83 238.461 146.442 239.263C147.053 240.065 147.538 241.018 147.869 242.066C148.199 243.114 148.369 244.237 148.368 245.372Z" fill="#4C4C4C"/>
<path d="M143.83 245.372C143.83 245.898 143.71 246.413 143.487 246.851C143.263 247.289 142.946 247.631 142.575 247.832C142.203 248.033 141.794 248.085 141.4 247.982C141.006 247.879 140.644 247.624 140.36 247.251C140.077 246.878 139.884 246.403 139.806 245.886C139.728 245.37 139.769 244.834 139.924 244.348C140.078 243.861 140.34 243.446 140.674 243.155C141.009 242.863 141.402 242.708 141.804 242.709C142.071 242.709 142.334 242.778 142.581 242.912C142.827 243.046 143.05 243.242 143.238 243.49C143.426 243.737 143.576 244.03 143.677 244.353C143.778 244.676 143.83 245.022 143.83 245.372Z" fill="#666666"/>
<path d="M321.154 241.338C321.155 244.945 320.34 248.473 318.811 251.473C317.283 254.474 315.109 256.813 312.567 258.194C310.024 259.575 307.226 259.937 304.526 259.234C301.826 258.53 299.346 256.793 297.4 254.242C295.453 251.69 294.128 248.44 293.591 244.901C293.055 241.363 293.331 237.695 294.385 234.362C295.438 231.029 297.223 228.18 299.512 226.177C301.801 224.173 304.492 223.105 307.245 223.106C310.933 223.108 314.47 225.029 317.078 228.448C319.687 231.867 321.152 236.503 321.154 241.338Z" fill="#4C4C4C"/>
<path d="M319.105 241.338C319.106 244.945 318.291 248.473 316.762 251.473C315.234 254.474 313.061 256.813 310.518 258.194C307.975 259.575 305.177 259.937 302.477 259.234C299.777 258.53 297.297 256.793 295.351 254.242C293.405 251.69 292.079 248.44 291.542 244.901C291.006 241.363 291.282 237.695 292.336 234.362C293.39 231.029 295.174 228.18 297.463 226.177C299.752 224.173 302.443 223.105 305.196 223.106C308.884 223.108 312.421 225.029 315.029 228.448C317.638 231.867 319.104 236.503 319.105 241.338Z" fill="#353535"/>
<path d="M323.818 195.531C317.971 193.984 299.25 189.144 298.08 188.843C293.078 175.642 288.367 163.175 285.637 156.069C285.296 155.159 285.016 154.235 284.244 154.235H232.434C232.063 154.235 231.707 154.429 231.445 154.772C231.183 155.116 231.035 155.583 231.035 156.069V242.086C231.035 242.572 231.183 243.038 231.445 243.382C231.707 243.726 232.063 243.919 232.434 243.919H323.818C324.001 243.919 324.183 243.872 324.352 243.779C324.521 243.687 324.675 243.552 324.805 243.382C324.934 243.211 325.037 243.009 325.106 242.787C325.176 242.564 325.211 242.326 325.211 242.086V197.35C325.181 196.879 325.025 196.438 324.769 196.105C324.514 195.771 324.177 195.568 323.818 195.531Z" fill="#DB4233"/>
<path d="M302.137 242.086V197.351C302.109 196.877 301.952 196.432 301.696 196.095C301.439 195.759 301.1 195.554 300.738 195.517C294.897 193.97 276.176 189.13 275.001 188.829C270.005 175.628 265.294 163.161 262.563 156.055C262.216 155.145 261.942 154.221 261.17 154.221H232.434C232.063 154.221 231.707 154.414 231.445 154.758C231.183 155.102 231.035 155.568 231.035 156.055V242.086C231.035 242.572 231.183 243.039 231.445 243.383C231.707 243.726 232.063 243.92 232.434 243.92H300.738C300.922 243.921 301.104 243.874 301.274 243.782C301.444 243.69 301.599 243.555 301.729 243.385C301.859 243.214 301.962 243.012 302.032 242.789C302.102 242.566 302.138 242.327 302.137 242.086Z" fill="#BF2A22"/>
<path d="M278.721 225.255C274.945 225.257 271.324 227.224 268.654 230.724C265.984 234.223 264.483 238.97 264.481 243.919H292.966C292.964 238.968 291.463 234.221 288.792 230.721C286.12 227.221 282.498 225.255 278.721 225.255Z" fill="#191919"/>
<path d="M325.607 220.459H302.533C302.349 220.458 302.168 220.504 301.998 220.595C301.828 220.687 301.674 220.821 301.544 220.991C301.414 221.16 301.311 221.362 301.241 221.584C301.17 221.806 301.134 222.044 301.134 222.285V231.503H285.261C285.078 231.502 284.896 231.549 284.726 231.64C284.557 231.731 284.402 231.866 284.272 232.035C284.142 232.205 284.039 232.407 283.969 232.629C283.899 232.851 283.862 233.089 283.862 233.329V244.029C283.862 244.269 283.899 244.507 283.969 244.729C284.039 244.952 284.142 245.153 284.272 245.323C284.402 245.492 284.557 245.627 284.726 245.718C284.896 245.81 285.078 245.856 285.261 245.855H325.607C325.79 245.856 325.971 245.809 326.141 245.718C326.31 245.627 326.464 245.492 326.594 245.322C326.723 245.153 326.826 244.951 326.895 244.729C326.965 244.507 327.001 244.269 327 244.029V222.285C327.001 222.045 326.965 221.807 326.895 221.585C326.826 221.363 326.723 221.161 326.594 220.991C326.464 220.821 326.31 220.687 326.141 220.596C325.971 220.504 325.79 220.458 325.607 220.459Z" fill="#878787"/>
<path d="M303.848 244.029V222.285C303.848 222.044 303.884 221.806 303.954 221.584C304.025 221.362 304.128 221.16 304.258 220.991C304.388 220.821 304.542 220.687 304.712 220.595C304.881 220.504 305.063 220.458 305.246 220.459H302.55C302.366 220.458 302.184 220.504 302.015 220.595C301.845 220.687 301.691 220.821 301.561 220.991C301.431 221.16 301.328 221.362 301.257 221.584C301.187 221.806 301.151 222.044 301.151 222.285V231.503H285.261C285.078 231.502 284.896 231.549 284.726 231.64C284.557 231.731 284.402 231.866 284.272 232.035C284.142 232.205 284.039 232.407 283.969 232.629C283.899 232.851 283.862 233.089 283.862 233.329V244.029C283.862 244.269 283.899 244.507 283.969 244.729C284.039 244.952 284.142 245.153 284.272 245.323C284.402 245.492 284.557 245.627 284.726 245.718C284.896 245.81 285.078 245.856 285.261 245.855H305.23C304.862 245.851 304.511 245.657 304.252 245.315C303.993 244.973 303.848 244.511 303.848 244.029Z" fill="#6D6D6D"/>
<path d="M306.982 206.76H302.785C302.013 206.76 301.387 207.581 301.387 208.593V213.213C301.387 214.226 302.013 215.047 302.785 215.047H306.982C307.754 215.047 308.381 214.226 308.381 213.213V208.593C308.381 207.581 307.754 206.76 306.982 206.76Z" fill="#FEC202"/>
<path d="M324.846 206.76H320.65C319.877 206.76 319.251 207.581 319.251 208.593V213.213C319.251 214.226 319.877 215.047 320.65 215.047H324.846C325.619 215.047 326.245 214.226 326.245 213.213V208.593C326.245 207.581 325.619 206.76 324.846 206.76Z" fill="#FEC202"/>
<path d="M306.986 206.76H302.785C302.548 206.763 302.316 206.847 302.111 207.002C301.906 207.158 301.735 207.38 301.615 207.647H305.47C305.653 207.646 305.835 207.693 306.004 207.784C306.174 207.876 306.327 208.01 306.457 208.18C306.586 208.35 306.689 208.551 306.759 208.773C306.829 208.995 306.864 209.233 306.863 209.473V214.093C306.858 214.434 306.779 214.765 306.634 215.047H306.986C307.17 215.047 307.351 214.999 307.521 214.907C307.69 214.815 307.844 214.68 307.974 214.509C308.103 214.339 308.205 214.137 308.275 213.914C308.345 213.692 308.38 213.454 308.38 213.213V208.593C308.38 208.353 308.345 208.115 308.275 207.892C308.205 207.67 308.103 207.468 307.974 207.297C307.844 207.127 307.69 206.992 307.521 206.899C307.351 206.807 307.17 206.76 306.986 206.76Z" fill="#FBD45B"/>
<path d="M324.846 206.76H320.633C320.397 206.765 320.166 206.849 319.962 207.004C319.758 207.16 319.589 207.381 319.469 207.647H323.318C323.502 207.646 323.683 207.693 323.853 207.784C324.023 207.875 324.177 208.01 324.307 208.179C324.437 208.349 324.54 208.551 324.61 208.773C324.681 208.995 324.717 209.233 324.717 209.473V214.093C324.712 214.434 324.632 214.765 324.488 215.047H324.834C325.205 215.047 325.561 214.854 325.823 214.51C326.086 214.166 326.233 213.7 326.233 213.213V208.593C326.233 208.109 326.087 207.645 325.827 207.302C325.568 206.958 325.215 206.764 324.846 206.76Z" fill="#FBD45B"/>
<path d="M296.514 240.326C296.331 240.327 296.15 240.28 295.981 240.188C295.812 240.096 295.658 239.961 295.529 239.791L286.784 228.336H270.659L261.92 239.82C261.653 240.133 261.306 240.299 260.948 240.286C260.591 240.273 260.251 240.081 259.999 239.75C259.746 239.419 259.599 238.973 259.589 238.505C259.579 238.036 259.707 237.581 259.945 237.232L269.093 225.241C269.355 224.896 269.711 224.701 270.083 224.698H287.366C287.549 224.699 287.731 224.748 287.9 224.841C288.069 224.934 288.222 225.07 288.351 225.241L297.504 237.232C297.698 237.488 297.83 237.815 297.883 238.169C297.937 238.524 297.908 238.892 297.803 239.226C297.697 239.56 297.518 239.845 297.289 240.046C297.059 240.247 296.79 240.355 296.514 240.356V240.326Z" fill="#878787"/>
<path d="M256.794 241.807H234.47C234.024 241.807 233.597 241.575 233.283 241.163C232.968 240.75 232.791 240.191 232.791 239.607V161.122C232.798 160.545 232.978 159.995 233.292 159.59C233.606 159.185 234.029 158.958 234.47 158.958H258.595C259.664 158.958 263.743 167.106 263.743 168.016V213.998C263.742 214.083 263.716 214.165 263.672 214.227C263.627 214.289 263.567 214.328 263.502 214.335C261.767 214.424 260.126 215.391 258.924 217.032C257.721 218.672 257.05 220.86 257.051 223.136V241.47C257.05 241.559 257.022 241.643 256.974 241.706C256.926 241.769 256.862 241.805 256.794 241.807ZM258.579 159.626H234.47C234.173 159.626 233.888 159.78 233.678 160.055C233.468 160.331 233.351 160.704 233.351 161.093V239.636C233.351 240.025 233.468 240.398 233.678 240.674C233.888 240.949 234.173 241.103 234.47 241.103H256.536V223.114C256.534 220.718 257.226 218.411 258.472 216.66C259.719 214.909 261.427 213.844 263.25 213.682V168.016C263.2 166.96 259.244 159.824 258.579 159.626Z" fill="#DB4233"/>
<path d="M295.813 187.179C291.572 175.959 287.712 165.787 285.345 159.612C284.998 158.71 284.718 157.778 283.946 157.778H265.404L276.555 187.179H295.813Z" fill="#83E8F2"/>
<path d="M271.956 187.179H236.003C235.819 187.179 235.637 187.132 235.468 187.039C235.299 186.947 235.145 186.812 235.015 186.642C234.886 186.471 234.784 186.269 234.714 186.047C234.644 185.824 234.609 185.586 234.609 185.346V159.333C234.609 158.921 234.734 158.525 234.957 158.234C235.179 157.942 235.481 157.778 235.796 157.778H260.207C260.861 157.778 261.096 158.563 261.393 159.333C263.715 165.383 267.715 175.937 271.956 187.179Z" fill="#83E8F2"/>
<path d="M287.745 165.903L277.903 187.171H285.736L291.275 175.202C290 171.822 288.808 168.683 287.745 165.903Z" fill="#ACF6FC"/>
<path d="M279.85 157.778L271.911 174.932L273.17 178.254L282.648 157.778H279.85Z" fill="#ACF6FC"/>
<path d="M250.108 157.778L236.507 187.179H239.304L252.906 157.778H250.108Z" fill="#ACF6FC"/>
<path d="M261.398 159.333C261.342 159.194 261.292 159.054 261.236 158.922L248.166 187.179H255.999L264.772 168.214C263.457 164.723 262.299 161.687 261.398 159.333Z" fill="#ACF6FC"/>
<path d="M294.337 245.372C294.337 248.98 293.52 252.506 291.991 255.506C290.462 258.505 288.288 260.843 285.745 262.223C283.202 263.604 280.404 263.964 277.705 263.26C275.006 262.556 272.526 260.818 270.58 258.266C268.635 255.715 267.31 252.464 266.774 248.926C266.237 245.387 266.514 241.72 267.568 238.387C268.622 235.055 270.406 232.207 272.695 230.204C274.984 228.2 277.675 227.132 280.427 227.133C282.254 227.133 284.063 227.605 285.751 228.522C287.439 229.438 288.973 230.782 290.265 232.476C291.556 234.17 292.581 236.18 293.279 238.393C293.978 240.606 294.337 242.977 294.337 245.372Z" fill="#4C4C4C"/>
<path d="M292.305 245.372C292.305 248.98 291.489 252.506 289.96 255.506C288.431 258.505 286.257 260.843 283.714 262.223C281.171 263.604 278.373 263.964 275.674 263.26C272.974 262.556 270.495 260.818 268.549 258.266C266.603 255.715 265.279 252.464 264.742 248.926C264.206 245.387 264.482 241.72 265.536 238.387C266.59 235.055 268.375 232.207 270.664 230.204C272.953 228.2 275.644 227.132 278.396 227.133C280.223 227.133 282.032 227.605 283.72 228.522C285.408 229.438 286.942 230.782 288.233 232.476C289.525 234.17 290.549 236.18 291.248 238.393C291.947 240.606 292.306 242.977 292.305 245.372Z" fill="#353535"/>
<path d="M284.982 245.372C284.982 247.08 284.595 248.751 283.871 250.172C283.146 251.593 282.116 252.7 280.912 253.354C279.707 254.007 278.382 254.178 277.103 253.844C275.824 253.51 274.65 252.687 273.728 251.478C272.807 250.269 272.179 248.729 271.926 247.052C271.672 245.376 271.803 243.639 272.303 242.06C272.803 240.482 273.648 239.133 274.733 238.185C275.818 237.236 277.093 236.731 278.396 236.732C279.262 236.732 280.118 236.956 280.918 237.39C281.717 237.824 282.443 238.461 283.055 239.263C283.666 240.065 284.151 241.018 284.482 242.066C284.813 243.114 284.982 244.237 284.982 245.372Z" fill="#4C4C4C"/>
<path d="M280.427 245.372C280.427 245.898 280.308 246.413 280.085 246.851C279.862 247.288 279.545 247.63 279.173 247.831C278.802 248.033 278.394 248.085 278 247.983C277.606 247.88 277.244 247.626 276.96 247.254C276.676 246.882 276.483 246.407 276.404 245.891C276.326 245.375 276.366 244.839 276.52 244.353C276.674 243.866 276.934 243.451 277.268 243.158C277.602 242.866 277.995 242.709 278.396 242.709C278.935 242.709 279.451 242.99 279.832 243.489C280.213 243.988 280.427 244.666 280.427 245.372Z" fill="#666666"/>
<path d="M325.21 224.42H305.432C305.395 224.427 305.358 224.424 305.322 224.41C305.287 224.397 305.254 224.374 305.226 224.342C305.198 224.31 305.176 224.271 305.16 224.227C305.145 224.183 305.137 224.135 305.137 224.086C305.137 224.038 305.145 223.99 305.16 223.946C305.176 223.902 305.198 223.863 305.226 223.831C305.254 223.799 305.287 223.776 305.322 223.762C305.358 223.749 305.395 223.746 305.432 223.753H325.21C325.247 223.746 325.284 223.749 325.32 223.762C325.355 223.776 325.388 223.799 325.416 223.831C325.444 223.863 325.467 223.902 325.482 223.946C325.498 223.99 325.506 224.038 325.506 224.086C325.506 224.135 325.498 224.183 325.482 224.227C325.467 224.271 325.444 224.31 325.416 224.342C325.388 224.374 325.355 224.397 325.32 224.41C325.284 224.424 325.247 224.427 325.21 224.42Z" fill="#4C4C4C"/>
<path d="M325.21 227.47H305.431C305.363 227.47 305.297 227.435 305.249 227.371C305.201 227.308 305.174 227.222 305.174 227.133C305.174 227.043 305.201 226.957 305.249 226.894C305.297 226.831 305.363 226.795 305.431 226.795H325.21C325.278 226.795 325.343 226.831 325.392 226.894C325.44 226.957 325.467 227.043 325.467 227.133C325.467 227.222 325.44 227.308 325.392 227.371C325.343 227.435 325.278 227.47 325.21 227.47Z" fill="#4C4C4C"/>
<path d="M325.21 230.498H305.431C305.363 230.498 305.297 230.463 305.249 230.4C305.201 230.336 305.174 230.251 305.174 230.161C305.174 230.072 305.201 229.986 305.249 229.923C305.297 229.859 305.363 229.824 305.431 229.824H325.21C325.278 229.824 325.343 229.859 325.392 229.923C325.44 229.986 325.467 230.072 325.467 230.161C325.467 230.251 325.44 230.336 325.392 230.4C325.343 230.463 325.278 230.498 325.21 230.498Z" fill="#4C4C4C"/>
<path d="M325.21 233.52H305.432C305.395 233.527 305.358 233.524 305.322 233.51C305.287 233.497 305.254 233.474 305.226 233.442C305.198 233.41 305.176 233.371 305.16 233.327C305.145 233.283 305.137 233.235 305.137 233.186C305.137 233.138 305.145 233.09 305.16 233.046C305.176 233.002 305.198 232.963 305.226 232.931C305.254 232.899 305.287 232.876 305.322 232.862C305.358 232.849 305.395 232.846 305.432 232.853H325.21C325.247 232.846 325.284 232.849 325.32 232.862C325.355 232.876 325.388 232.899 325.416 232.931C325.444 232.963 325.467 233.002 325.482 233.046C325.498 233.09 325.506 233.138 325.506 233.186C325.506 233.235 325.498 233.283 325.482 233.327C325.467 233.371 325.444 233.41 325.416 233.442C325.388 233.474 325.355 233.497 325.32 233.51C325.284 233.524 325.247 233.527 325.21 233.52Z" fill="#4C4C4C"/>
<path d="M325.21 236.549H305.431C305.363 236.549 305.297 236.514 305.249 236.45C305.201 236.387 305.174 236.301 305.174 236.212C305.174 236.122 305.201 236.037 305.249 235.973C305.297 235.91 305.363 235.875 305.431 235.875H325.21C325.278 235.875 325.343 235.91 325.392 235.973C325.44 236.037 325.467 236.122 325.467 236.212C325.467 236.301 325.44 236.387 325.392 236.45C325.343 236.514 325.278 236.549 325.21 236.549Z" fill="#4C4C4C"/>
<path d="M325.21 239.578H305.431C305.363 239.578 305.297 239.542 305.249 239.479C305.201 239.415 305.174 239.33 305.174 239.24C305.174 239.151 305.201 239.065 305.249 239.002C305.297 238.938 305.363 238.903 305.431 238.903H325.21C325.278 238.903 325.343 238.938 325.392 239.002C325.44 239.065 325.467 239.151 325.467 239.24C325.467 239.33 325.44 239.415 325.392 239.479C325.343 239.542 325.278 239.578 325.21 239.578Z" fill="#4C4C4C"/>
<path d="M325.21 242.599H305.432C305.395 242.606 305.358 242.603 305.322 242.59C305.287 242.576 305.254 242.553 305.226 242.521C305.198 242.489 305.176 242.45 305.16 242.406C305.145 242.362 305.137 242.314 305.137 242.266C305.137 242.217 305.145 242.169 305.16 242.125C305.176 242.081 305.198 242.042 305.226 242.01C305.254 241.978 305.287 241.955 305.322 241.942C305.358 241.928 305.395 241.925 305.432 241.932H325.21C325.247 241.925 325.284 241.928 325.32 241.942C325.355 241.955 325.388 241.978 325.416 242.01C325.444 242.042 325.467 242.081 325.482 242.125C325.498 242.169 325.506 242.217 325.506 242.266C325.506 242.314 325.498 242.362 325.482 242.406C325.467 242.45 325.444 242.489 325.416 242.521C325.388 242.553 325.355 242.576 325.32 242.59C325.284 242.603 325.247 242.606 325.21 242.599Z" fill="#4C4C4C"/>
<g clip-path="url(#clip0_508_9805)">
<path d="M99.6212 68C99.6212 68.9487 99.5833 69.8974 99.517 70.8129H93.12C93.2005 69.8642 93.2478 68.944 93.2478 68C93.251 60.7681 90.8412 53.7427 86.4012 48.0403C81.9613 42.3378 75.7461 38.2857 68.7434 36.5279C61.7407 34.77 54.3525 35.4074 47.7529 38.3386C41.1534 41.2699 35.7212 46.3269 32.3198 52.7057C28.9184 59.0846 27.743 66.4194 28.9804 73.5443C30.2177 80.6692 33.7969 87.1753 39.149 92.0286C44.501 96.8819 51.3189 99.8039 58.5189 100.33C65.719 100.856 72.888 98.9566 78.8866 94.9329H88.7354C82.4857 101.406 74.1828 105.501 65.2499 106.514C56.3171 107.527 47.3107 105.395 39.7747 100.485C32.2388 95.5743 26.6425 88.1908 23.9454 79.5999C21.2483 71.009 21.6182 61.7458 24.9919 53.3983C28.3655 45.0507 34.5327 38.1387 42.4362 33.8471C50.3397 29.5556 59.4872 28.1518 68.3107 29.8764C77.1342 31.601 85.0841 36.3465 90.7976 43.2995C96.511 50.2526 99.6321 58.9801 99.6259 67.9858L99.6212 68Z" fill="#AF0000"/>
<path d="M88.7354 94.9329C82.4857 101.406 74.1828 105.501 65.2499 106.514C56.3171 107.527 47.3107 105.395 39.7748 100.485C32.2388 95.5744 26.6425 88.1908 23.9454 79.5999C21.2483 71.009 21.6182 61.7458 24.9919 53.3983C28.3655 45.0507 34.5327 38.1387 42.4362 33.8471C50.3397 29.5556 59.4872 28.1518 68.3107 29.8764C77.1342 31.601 85.0841 36.3465 90.7976 43.2995C96.511 50.2526 99.6321 58.9801 99.6259 67.9858C99.6259 68.9345 99.588 69.8832 99.5217 70.7986" stroke="#AF0000" stroke-width="0.74" stroke-miterlimit="10"/>
<path d="M78.886 94.9328C72.8872 98.9574 65.7177 100.858 58.517 100.333C51.3162 99.8071 44.4974 96.8857 39.1441 92.0327C33.7908 87.1798 30.2102 80.6737 28.9714 73.5484C27.7326 66.423 28.9067 59.0874 32.307 52.7072C35.7073 46.3269 41.1387 41.2682 47.7382 38.335C54.3376 35.4018 61.7263 34.7624 68.7301 36.5183C75.734 38.2743 81.951 42.3249 86.3932 48.0264C90.8354 53.7279 93.2479 60.7531 93.2473 67.9857C93.2473 68.9344 93.1999 69.8831 93.1194 70.7986" stroke="#AF0000" stroke-width="0.74" stroke-miterlimit="10"/>
<path d="M60.8985 65.0781V70.9172L39.6572 68L60.8985 65.0781Z" fill="#AF0000"/>
<path d="M79.3698 47.6841L64.2888 70.3242L59.7764 66.6338L79.3698 47.6841Z" fill="#AF0000"/>
<path d="M66.7025 68.0367C66.7064 64.8329 64.119 62.2324 60.9234 62.2285C57.7277 62.2246 55.134 64.8187 55.1301 68.0226C55.1262 71.2265 57.7136 73.8269 60.9092 73.8308C64.1048 73.8347 66.6986 71.2406 66.7025 68.0367Z" fill="#AF0000"/>
<path d="M75.2451 91.4481V89.4157L77.2663 87.4745C81.2391 83.6222 83.1093 81.505 83.1383 79.1694C83.1383 77.5981 82.331 76.2149 80.1239 76.2149C78.8018 76.2817 77.5362 76.7948 76.5171 77.677L75.582 75.3171C77.0673 74.1172 78.8968 73.4759 80.7744 73.4971C84.509 73.4971 86.3269 75.9662 86.3269 78.8478C86.3269 81.9418 84.2012 84.4351 81.2681 87.2864L79.7871 88.615V88.6696H86.7161V91.436L75.2451 91.4481Z" fill="#AF0000"/>
<path d="M95.7022 91.2527H90.0527V73.8452H95.7489C97.3519 73.8452 98.7318 74.1937 99.8887 74.8907C101.046 75.582 101.935 76.5765 102.558 77.8741C103.186 79.1717 103.499 80.7244 103.499 82.532C103.499 84.3453 103.186 85.9036 102.558 87.2069C101.935 88.5102 101.04 89.5103 99.8731 90.2073C98.7111 90.9043 97.3208 91.2527 95.7022 91.2527ZM93.4222 88.0993H95.5621C96.5582 88.0993 97.396 87.9067 98.0756 87.5213C98.7604 87.1304 99.2739 86.5269 99.6163 85.7109C99.9639 84.8892 100.138 83.8296 100.138 82.532C100.138 81.2457 99.9639 80.1945 99.6163 79.3786C99.2739 78.5626 98.763 77.9619 98.0834 77.5766C97.4038 77.1913 96.5659 76.9986 95.5699 76.9986H93.4222V88.0993Z" fill="#AF0000"/>
</g>
<path d="M139.04 49.1388H229.387C233.865 49.1548 238.155 50.9409 241.322 54.1075C244.488 57.2736 246.274 61.563 246.291 66.0404C246.274 70.5178 244.488 74.8072 241.322 77.9733C238.155 81.1401 233.865 82.9262 229.386 82.942C229.386 82.942 229.385 82.942 229.385 82.942L191.381 82.942H139.04C134.558 82.942 130.259 81.1613 127.089 77.9916C123.92 74.8219 122.139 70.523 122.139 66.0404C122.139 61.5578 123.92 57.2588 127.089 54.0891C130.259 50.9195 134.558 49.1388 139.04 49.1388Z" fill="white" fill-opacity="0.6" stroke="#DDDDDD" stroke-width="2.27758"/>
<path d="M140.277 57.1562L142.897 62.4573L148.742 63.3164L144.51 67.4441L145.516 73.269L140.277 70.5242L135.039 73.269L136.045 67.4441L131.812 63.3164L137.658 62.4573L140.277 57.1562Z" fill="#F57C00"/>
<path d="M162.257 57.1562L164.856 62.4573L170.722 63.3164L166.49 67.4441L167.475 73.269L162.257 70.5242L157.019 73.269L158.004 67.4441L153.771 63.3164L159.638 62.4573L162.257 57.1562Z" fill="#F57C00"/>
<path d="M184.217 57.1562L186.836 62.4573L192.682 63.3164L188.449 67.4441L189.455 73.269L184.217 70.5242L178.979 73.269L179.984 67.4441L175.752 63.3164L181.598 62.4573L184.217 57.1562Z" fill="#F57C00"/>
<path d="M206.195 57.1562L208.814 62.4573L214.66 63.3164L210.427 67.4441L211.433 73.269L206.195 70.5242L200.957 73.269L201.962 67.4441L197.709 63.3164L203.576 62.4573L206.195 57.1562Z" fill="#F57C00"/>
<path d="M228.153 57.1562L230.773 62.4573L236.639 63.3164L232.386 67.4441L233.392 73.269L228.153 70.5242L222.915 73.269L223.921 67.4441L219.688 63.3164L225.534 62.4573L228.153 57.1562Z" fill="#F57C00"/>
<defs>
<clipPath id="clip0_508_9805">
<rect width="83" height="78" fill="white" transform="translate(22 29)"/>
</clipPath>
</defs>
</svg>
