<svg width="101" height="85" viewBox="0 0 101 85" fill="none" xmlns="http://www.w3.org/2000/svg">
<g opacity="0.39">
<path d="M67.539 80.0606L63.2022 77.4095L62.5766 77.0277C62.5223 76.9946 62.488 76.9481 62.4809 76.8977C62.4737 76.8473 62.4943 76.7969 62.5382 76.7569C63.4747 75.7495 64.4137 74.7422 65.3552 73.7348L65.7582 73.3043C65.9501 73.0957 66.3761 73.3422 66.1842 73.548L63.3634 76.5728L62.9604 77.0033C62.9604 76.9112 62.9374 76.8219 62.922 76.7325L67.278 79.3782L67.9036 79.76C68.1722 79.9225 67.823 80.2231 67.5543 80.0606H67.539Z" fill="white"/>
</g>
<g opacity="0.6">
<path d="M65.9816 69.3805C65.4103 68.7381 64.9209 68.0612 64.5193 67.3577C64.0889 66.6116 63.7287 65.8463 63.4409 65.0668C63.1587 64.318 62.9522 63.5561 62.823 62.7867C62.6695 61.847 62.6004 60.9046 62.5735 59.9596C62.5467 59.0145 62.5735 58.064 62.5966 57.1216V56.7723C62.5846 56.7429 62.5595 56.717 62.5249 56.6986C62.4902 56.6801 62.448 56.6702 62.4047 56.6702C62.3613 56.6702 62.3191 56.6801 62.2845 56.6986C62.2499 56.717 62.2247 56.7429 62.2128 56.7723C62.1859 57.7255 62.1591 58.6814 62.1744 59.6346C62.1898 60.5878 62.2435 61.5302 62.3816 62.4888C62.4946 63.2872 62.687 64.0789 62.9573 64.8583C63.232 65.6464 63.5808 66.4208 64.0012 67.1763C64.3976 67.9098 64.8816 68.6182 65.4481 69.2939C65.5133 69.3697 65.5786 69.4455 65.6477 69.5214C65.782 69.673 66.1236 69.5214 65.9892 69.3805H65.9816Z" fill="white"/>
</g>
<path d="M61.1371 0H6.20965C2.78015 0 0 1.96165 0 4.38147V80.6185C0 83.0383 2.78015 85 6.20965 85H61.1371C64.5666 85 67.3467 83.0383 67.3467 80.6185V4.38147C67.3467 1.96165 64.5666 0 61.1371 0Z" fill="#021546"/>
<path d="M63.6587 75.5005V5.85462C63.6587 4.97411 63.163 4.12967 62.2806 3.50706C61.3982 2.88445 60.2014 2.53467 58.9535 2.53467H45.2946L43.2758 3.75866C42.7111 4.10458 41.9897 4.29666 41.2418 4.30025H25.3032C24.4893 4.30093 23.7072 4.07747 23.1233 3.67743L21.473 2.5455H8.38588C7.13798 2.5455 5.94119 2.89528 5.05879 3.51789C4.17639 4.1405 3.68066 4.98495 3.68066 5.86545V75.5005H63.6587Z" fill="white"/>
<path opacity="0.7" d="M41.4529 78.2651H25.8904C24.7924 78.2651 23.9023 78.8932 23.9023 79.6679V80.0768C23.9023 80.8515 24.7924 81.4795 25.8904 81.4795H41.4529C42.5508 81.4795 43.4409 80.8515 43.4409 80.0768V79.6679C43.4409 78.8932 42.5508 78.2651 41.4529 78.2651Z" fill="white"/>
<path d="M20.1221 2.39673H47.2212V2.80834C47.2212 3.55167 46.8027 4.26455 46.0578 4.79017C45.3128 5.31578 44.3025 5.61107 43.249 5.61107H24.0943C23.5723 5.61107 23.0555 5.53849 22.5733 5.39747C22.0911 5.25645 21.653 5.04976 21.2841 4.78921C20.9152 4.52867 20.6227 4.21938 20.4233 3.87902C20.2239 3.53867 20.1216 3.17392 20.1221 2.80563V2.39673Z" fill="#021546"/>
<path d="M22.0726 25V16.6655H23.8348V23.5472H27.4078V25H22.0726ZM30.3369 16.6655V25H28.5748V16.6655H30.3369ZM33.2924 16.6655L35.3068 22.9978H35.3842L37.4027 16.6655H39.356L36.4829 25H34.2121L31.335 16.6655H33.2924ZM40.3592 25V16.6655H45.9752V18.1184H42.1213V20.1043H45.6862V21.5572H42.1213V23.5472H45.9915V25H40.3592Z" fill="#AF0000"/>
<path d="M14.8655 32.0625C14.8329 31.7342 14.6932 31.4792 14.4463 31.2974C14.1994 31.1157 13.8643 31.0248 13.4411 31.0248C13.1535 31.0248 12.9107 31.0655 12.7127 31.1469C12.5146 31.2255 12.3627 31.3354 12.2569 31.4765C12.1538 31.6176 12.1022 31.7776 12.1022 31.9567C12.0968 32.1059 12.128 32.2362 12.1958 32.3474C12.2664 32.4586 12.3627 32.5549 12.4848 32.6363C12.6069 32.715 12.7479 32.7842 12.908 32.8439C13.0681 32.9008 13.239 32.9497 13.4208 32.9904L14.1696 33.1694C14.5331 33.2508 14.8668 33.3593 15.1707 33.495C15.4745 33.6307 15.7377 33.7975 15.9602 33.9956C16.1826 34.1936 16.3549 34.4269 16.477 34.6955C16.6018 34.9641 16.6656 35.272 16.6683 35.6193C16.6656 36.1294 16.5353 36.5716 16.2776 36.946C16.0226 37.3177 15.6536 37.6066 15.1707 37.8128C14.6905 38.0163 14.1112 38.118 13.433 38.118C12.7601 38.118 12.1741 38.0149 11.6749 37.8087C11.1784 37.6025 10.7905 37.2973 10.511 36.8931C10.2343 36.4861 10.0892 35.9829 10.0756 35.3833H11.7807C11.7997 35.6627 11.8798 35.896 12.0208 36.0832C12.1646 36.2677 12.3559 36.4074 12.5946 36.5024C12.8361 36.5946 13.1088 36.6408 13.4126 36.6408C13.7111 36.6408 13.9702 36.5974 14.1899 36.5105C14.4124 36.4237 14.5847 36.303 14.7067 36.1484C14.8288 35.9937 14.8899 35.816 14.8899 35.6152C14.8899 35.428 14.8343 35.2707 14.723 35.1432C14.6145 35.0157 14.4544 34.9071 14.2428 34.8176C14.0339 34.7281 13.7775 34.6467 13.4737 34.5734L12.5662 34.3455C11.8635 34.1746 11.3087 33.9074 10.9017 33.5438C10.4948 33.1803 10.2926 32.6906 10.2953 32.0747C10.2926 31.5701 10.4269 31.1292 10.6982 30.7521C10.9723 30.375 11.348 30.0806 11.8255 29.869C12.303 29.6574 12.8456 29.5516 13.4533 29.5516C14.0719 29.5516 14.6118 29.6574 15.073 29.869C15.5369 30.0806 15.8978 30.375 16.1555 30.7521C16.4132 31.1292 16.5462 31.566 16.5543 32.0625H14.8655ZM17.5361 31.1184V29.6655H24.3811V31.1184H21.8295V38H20.0877V31.1184H17.5361ZM25.5084 38V29.6655H28.7966C29.426 29.6655 29.9632 29.7781 30.4081 30.0033C30.8558 30.2258 31.1962 30.5419 31.4296 30.9515C31.6656 31.3585 31.7836 31.8373 31.7836 32.3881C31.7836 32.9415 31.6642 33.4177 31.4255 33.8165C31.1868 34.2126 30.8408 34.5165 30.3878 34.7281C29.9374 34.9397 29.3921 35.0455 28.7518 35.0455H26.5502V33.6293H28.4669C28.8033 33.6293 29.0828 33.5832 29.3053 33.4909C29.5277 33.3987 29.6932 33.2603 29.8017 33.0758C29.913 32.8914 29.9686 32.6621 29.9686 32.3881C29.9686 32.1114 29.913 31.878 29.8017 31.6881C29.6932 31.4982 29.5264 31.3544 29.3012 31.2567C29.0787 31.1564 28.7979 31.1062 28.4588 31.1062H27.2705V38H25.5084ZM30.0093 34.2072L32.0807 38H30.1354L28.1088 34.2072H30.0093ZM33.0289 38V29.6655H38.6449V31.1184H34.791V33.1043H38.356V34.5572H34.791V36.5472H38.6612V38H33.0289ZM41.4824 38H39.5941L42.4713 29.6655H44.7421L47.6152 38H45.7269L43.6393 31.5701H43.5741L41.4824 38ZM41.3644 34.724H45.8246V36.0995H41.3644V34.724ZM48.6184 29.6655H50.7915L53.0867 35.2653H53.1844L55.4796 29.6655H57.6528V38H55.9436V32.5753H55.8744L53.7175 37.9593H52.5536L50.3968 32.5549H50.3276V38H48.6184V29.6655Z" fill="#00194F"/>
<path d="M44.8887 47.6001H22.5687C20.6172 47.6001 19.0352 48.7164 19.0352 50.0933V63.9035C19.0352 65.2804 20.6172 66.3967 22.5687 66.3967H44.8887C46.8402 66.3967 48.4222 65.2804 48.4222 63.9035V50.0933C48.4222 48.7164 46.8402 47.6001 44.8887 47.6001Z" fill="#F7594F"/>
<path d="M44.6123 47.8376H22.2923C20.3408 47.8376 18.7588 48.9539 18.7588 50.3309V64.141C18.7588 65.518 20.3408 66.6342 22.2923 66.6342H44.6123C46.5638 66.6342 48.1458 65.518 48.1458 64.141V50.3309C48.1458 48.9539 46.5638 47.8376 44.6123 47.8376Z" fill="#F7594F"/>
<path d="M29.3809 60.5281V54.4324C29.3809 53.2346 30.6373 52.4524 31.7121 52.9809L38.0476 56.0965C39.2642 56.6948 39.249 58.4345 38.0223 59.0116L31.6868 61.9918C30.614 62.4964 29.3809 61.7136 29.3809 60.5281Z" fill="white"/>
<path d="M73.7857 56.1731C75.4006 53.8812 77.6517 52.1031 80.266 51.0546C82.8804 50.006 85.7456 49.732 88.5139 50.2658C91.2823 50.7996 93.8349 52.1182 95.862 54.0618C97.8891 56.0053 99.3036 58.4902 99.9338 61.2149C100.564 63.9397 100.383 66.7872 99.4126 69.4119C98.4421 72.0366 96.7241 74.3258 94.4668 76.0017C92.2095 77.6775 89.5101 78.6681 86.696 78.8531C83.8819 79.0381 81.0741 78.4097 78.6133 77.044L70 81L74.2113 73.3352C72.2985 70.8955 71.225 67.9124 71.1484 64.8236C71.0718 61.7348 71.9962 58.7029 73.7857 56.1731Z" fill="#E6EFF7"/>
<path d="M91.1309 61.0423C90.7103 60.6834 90.2088 60.4301 89.6687 60.3035C89.1286 60.1769 88.5657 60.1809 88.0275 60.3151C87.5056 60.4519 87.0166 60.691 86.5894 61.0183C86.1622 61.3455 85.8055 61.7542 85.5403 62.2203C85.2828 61.7508 84.9324 61.3375 84.5101 61.0051C84.0878 60.6728 83.6023 60.4282 83.0825 60.286C82.542 60.1506 81.9766 60.146 81.434 60.2725C80.8913 60.3991 80.3873 60.6531 79.9644 61.0132C79.4099 61.5644 79.0324 62.266 78.8797 63.0296C78.7269 63.7931 78.8057 64.5845 79.106 65.3037C79.7348 66.7403 80.8402 67.9206 82.2388 68.6489C83.228 69.2801 84.328 69.7217 85.4816 69.9506C86.642 69.7254 87.7495 69.2863 88.7465 68.6561C90.1527 67.9436 91.2709 66.7762 91.9159 65.3473C92.2297 64.6333 92.3225 63.8431 92.1828 63.0767C92.043 62.3103 91.677 61.6023 91.1309 61.0423Z" fill="#AF0000"/>
<path d="M73.1866 14.6067C74.2779 12.0352 76.0636 9.8538 78.3275 8.32634C80.5913 6.79888 83.2364 5.99087 85.9426 6.00008C88.6489 6.00929 91.3002 6.83532 93.576 8.37822C95.8517 9.92112 97.6542 12.1148 98.7653 14.6937C99.8765 17.2727 100.249 20.1264 99.837 22.9096C99.4252 25.6927 98.2471 28.2861 96.4453 30.3758C94.6434 32.4655 92.295 33.9621 89.6842 34.6843C87.0733 35.4065 84.312 35.3235 81.7344 34.4453L74.3642 40L76.8718 31.569C74.5964 29.5133 73.01 26.755 72.3465 23.701C71.683 20.647 71.9775 17.4589 73.1866 14.6067Z" fill="#E6EFF7"/>
<path d="M86.9096 16.2356L87.0179 16.0712C87.441 15.4007 87.6891 14.6366 87.7399 13.8477C87.7399 13.2471 87.7399 12.3677 88.397 12.0602C88.6643 11.9705 88.9556 11.9813 89.2153 12.0908C89.4751 12.2003 89.6849 12.4007 89.8049 12.6537C90.0314 13.1708 90.1089 13.74 90.0287 14.2981C89.9782 15.2776 89.8843 16.2499 89.7544 17.2223L92.6425 17.6084C93.2112 17.642 93.7656 17.7981 94.267 18.0659C94.5162 18.2041 94.7148 18.4169 94.8342 18.6739C94.9535 18.9308 94.9875 19.2186 94.9313 19.4959C94.7074 20.2108 93.7255 20.4468 92.9313 20.3896C93.3813 20.4511 93.794 20.6703 94.0947 21.0074C94.3955 21.3446 94.5642 21.7773 94.5703 22.227C94.5539 22.4485 94.4904 22.6641 94.3839 22.8595C94.2773 23.0549 94.1302 23.2258 93.9522 23.3609C93.7742 23.496 93.5693 23.5922 93.351 23.6432C93.1327 23.6942 92.906 23.6989 92.6858 23.6569C92.9851 23.703 93.2555 23.8602 93.4419 24.0966C93.6284 24.333 93.7168 24.6309 93.6894 24.9296C93.6529 25.2301 93.5431 25.5173 93.3695 25.7664C93.1959 26.0155 92.9637 26.2191 92.693 26.3595C92.1555 26.6343 91.5696 26.8042 90.9674 26.86C88.6782 27.1853 86.3539 27.1853 84.0648 26.86C83.7213 26.8333 83.3882 26.7307 83.0901 26.5597C82.7971 26.3348 82.5825 26.0248 82.4764 25.6731C82.184 24.6133 82.199 23.4933 82.5197 22.4415C82.7279 21.5315 82.9883 20.634 83.2995 19.7533C83.45 19.2702 83.6819 18.8157 83.9854 18.4091C84.4186 17.88 85.0251 17.9086 85.5594 17.5583C86.0933 17.2101 86.5522 16.7605 86.9096 16.2356Z" fill="#00194F"/>
<path d="M81.3117 25.2023C81.4272 25.5812 81.5211 25.9888 81.3117 26.2462C81.206 26.335 81.0826 26.4007 80.9494 26.4389C80.8163 26.4771 80.6764 26.487 80.5392 26.4678H79.1456C78.9906 26.4768 78.8354 26.4524 78.6908 26.3963C78.5606 26.3131 78.4513 26.2016 78.3712 26.0703C78.2911 25.939 78.2424 25.7913 78.2287 25.6384C77.7024 23.3033 78.0921 20.8574 79.3189 18.7962C79.4448 18.5409 79.643 18.3272 79.8893 18.1814C80.0934 18.1002 80.3121 18.0613 80.5319 18.067C81.0662 18.067 81.615 17.9883 82.1493 17.9955C82.4958 17.9955 82.8713 17.9526 82.6763 18.403C82.4814 18.8534 82.1854 19.3396 81.9904 19.8329C81.6081 20.7234 81.3295 21.6541 81.1601 22.607C81.0555 23.2703 81.0555 23.9456 81.1601 24.6089C81.1996 24.8093 81.2503 25.0074 81.3117 25.2023Z" fill="#00194F"/>
</svg>
