<svg width="340" height="285" viewBox="0 0 340 285" fill="none" xmlns="http://www.w3.org/2000/svg">
<rect width="340" height="285" rx="16" fill="white" fill-opacity="0.7"/>
<path d="M276.44 188.462H244.079H211.72H179.359H147V155.097V121.731V88.3655V55H179.359H211.72H244.079H276.44V88.3655V121.731V155.097V188.462Z" fill="#E1E5EF"/>
<mask id="mask0_503_6878" style="mask-type:luminance" maskUnits="userSpaceOnUse" x="147" y="55" width="130" height="134">
<path d="M276.44 188.462H244.079H211.72H179.359H147V155.097V121.731V88.3655V55H179.359H211.72H244.079H276.44V88.3655V121.731V155.097V188.462Z" fill="white"/>
</mask>
<g mask="url(#mask0_503_6878)">
<path d="M242.065 194.294H240.127H238.189H236.251H234.313V158.381V122.468V86.5548V50.644H236.251H238.189H240.127H242.065V86.5548V122.468V158.381V194.294Z" fill="#F2F3F7"/>
<path d="M238.189 143.716H213.847H189.504H165.162H140.819V141.777V139.838V137.899V135.959H165.162H189.504H213.847H238.189V137.899V139.838V141.777V143.716Z" fill="#F2F3F7"/>
<path d="M177.163 139.837H175.928H174.695H173.462H172.229V116.736V93.6319V70.5303V47.4287H173.462H174.695H175.928H177.163V70.5303V93.6319V116.736V139.837Z" fill="#F2F3F7"/>
<path d="M174.695 98.3078H166.733H158.769H150.807H142.845V97.0742V95.8407V94.6071V93.3735H150.807H158.769H166.733H174.695V94.6071V95.8407V97.0742V98.3078Z" fill="#F2F3F7"/>
<path d="M276.439 165.579H266.875H257.314H247.752H238.188V164.345V163.112V161.878V160.645H247.752H257.314H266.875H276.439V161.878V163.112V164.345V165.579Z" fill="#F2F3F7"/>
</g>
<path d="M251.855 64.0001C249.73 64.038 247.724 64.5281 245.911 65.371C244.099 66.2139 242.485 67.4143 241.141 68.8752C239.8 70.3361 238.733 72.055 238.018 73.9421C237.303 75.8291 236.941 77.8819 237.008 80.0081C237.112 83.2187 237.781 86.4435 238.789 89.5499C239.795 92.6563 241.139 95.6396 242.585 98.3695C244.03 101.099 245.58 103.574 247.002 105.657C248.424 107.741 249.716 109.434 250.648 110.599C250.838 110.838 251.072 111.015 251.327 111.134C251.583 111.252 251.86 111.311 252.134 111.311C252.411 111.311 252.688 111.252 252.941 111.134C253.197 111.015 253.428 110.835 253.62 110.599C254.574 109.405 255.903 107.665 257.363 105.518C258.823 103.37 260.408 100.818 261.878 98.0025C263.347 95.1897 264.696 92.1141 265.678 88.9248C266.66 85.7355 267.275 82.4279 267.275 79.151C267.275 77.0366 266.842 75.0217 266.059 73.1939C265.275 71.366 264.144 69.7228 262.748 68.3472C261.352 66.9716 259.689 65.8682 257.846 65.1153C256.003 64.3624 253.977 63.9646 251.855 64.0025V64.0001ZM252.137 86.1617C251.062 86.1617 250.038 85.9439 249.106 85.5485C248.173 85.1531 247.336 84.5825 246.631 83.8793C245.926 83.1761 245.355 82.3355 244.963 81.4026C244.567 80.4698 244.35 79.4446 244.35 78.3696C244.35 77.2947 244.556 76.3311 244.927 75.4219C245.299 74.5127 245.838 73.6887 246.505 72.9902C247.172 72.2918 247.97 71.7164 248.857 71.3021C249.744 70.8901 250.722 70.6391 251.753 70.587C251.786 70.587 251.817 70.5847 251.85 70.5823C251.883 70.5823 251.914 70.5823 251.947 70.5799C251.98 70.5799 252.011 70.5799 252.044 70.5799C252.077 70.5799 252.108 70.5799 252.141 70.5799C253.215 70.5799 254.24 70.7978 255.172 71.1932C256.104 71.5886 256.942 72.1592 257.647 72.8624C258.352 73.5656 258.923 74.4061 259.315 75.339C259.71 76.2719 259.928 77.2971 259.928 78.372C259.928 79.4469 259.71 80.4721 259.315 81.405C258.92 82.3379 258.35 83.1761 257.647 83.8816C256.942 84.5872 256.104 85.1578 255.172 85.5508C254.24 85.9463 253.215 86.1641 252.141 86.1641L252.137 86.1617Z" fill="#3B82F4"/>
<path d="M252.545 221.042H243.321V174.48H252.545V221.042Z" fill="#2A437D"/>
<path d="M286.583 238.101L76 238.101V218.957L286.583 218.957V238.101Z" fill="#F08F3C"/>
<path d="M247.934 221.042L76 221.042L76 125L247.934 125V221.042Z" fill="#FDA913"/>
<path d="M311.584 188.461L299.06 158.939C298.351 157.267 296.712 156.184 294.897 156.184H252.546V221.042C266.576 220.558 283.432 219.628 284.423 238.242H315.298C314.717 225.675 317.465 199.931 311.584 188.461Z" fill="#FDA913"/>
<path d="M128.232 244.867C127.809 269.616 90.9956 269.614 90.5766 244.867C90.998 220.116 127.813 220.121 128.232 244.867Z" fill="#2A437D"/>
<path d="M117.578 244.867C117.395 255.612 101.414 255.609 101.231 244.867C101.414 234.123 117.395 234.125 117.578 244.867Z" fill="#152E60"/>
<path d="M112.467 244.867C112.448 248.872 106.359 248.872 106.341 244.867C106.359 240.862 112.448 240.862 112.467 244.867Z" fill="#2A437D"/>
<path d="M110.335 239.167C110.353 240.376 108.455 240.376 108.473 239.167C108.455 237.959 110.353 237.959 110.335 239.167Z" fill="#2A437D"/>
<path d="M110.335 250.567C110.353 251.776 108.455 251.776 108.473 250.567C108.455 249.359 110.353 249.359 110.335 250.567Z" fill="#2A437D"/>
<path d="M114.092 241.494C113.249 242.36 111.909 241.02 112.775 240.177C113.617 239.311 114.96 240.654 114.092 241.494Z" fill="#2A437D"/>
<path d="M106.031 249.555C105.189 250.421 103.848 249.081 104.714 248.238C105.557 247.372 106.9 248.715 106.031 249.555Z" fill="#2A437D"/>
<path d="M115.103 245.798C113.895 245.816 113.895 243.918 115.103 243.936C116.312 243.918 116.312 245.816 115.103 245.798Z" fill="#2A437D"/>
<path d="M103.704 245.798C102.495 245.816 102.495 243.918 103.704 243.936C104.912 243.918 104.912 245.816 103.704 245.798Z" fill="#2A437D"/>
<path d="M112.777 249.556C111.911 248.713 113.251 247.372 114.094 248.238C114.96 249.081 113.617 250.424 112.777 249.556Z" fill="#2A437D"/>
<path d="M104.715 241.495C103.849 240.652 105.19 239.311 106.033 240.177C106.898 241.02 105.556 242.363 104.715 241.495Z" fill="#2A437D"/>
<path d="M280.979 244.867C280.555 269.616 243.742 269.614 243.323 244.867C243.746 220.116 280.559 220.121 280.979 244.867Z" fill="#2A437D"/>
<path d="M270.324 244.867C270.141 255.612 254.16 255.609 253.977 244.867C254.16 234.123 270.144 234.125 270.324 244.867Z" fill="#152E60"/>
<path d="M265.212 244.867C265.193 248.872 259.105 248.872 259.086 244.867C259.107 240.862 265.196 240.862 265.212 244.867Z" fill="#2A437D"/>
<path d="M263.082 239.167C263.1 240.376 261.202 240.376 261.221 239.167C261.202 237.959 263.098 237.959 263.082 239.167Z" fill="#2A437D"/>
<path d="M263.082 250.567C263.1 251.776 261.202 251.776 261.221 250.567C261.202 249.359 263.098 249.359 263.082 250.567Z" fill="#2A437D"/>
<path d="M266.84 241.494C265.997 242.36 264.657 241.02 265.523 240.177C266.365 239.311 267.706 240.654 266.84 241.494Z" fill="#2A437D"/>
<path d="M258.779 249.555C257.937 250.421 256.596 249.081 257.462 248.238C258.305 247.372 259.645 248.715 258.779 249.555Z" fill="#2A437D"/>
<path d="M267.851 245.798C266.643 245.816 266.643 243.918 267.851 243.936C269.06 243.918 269.06 245.816 267.851 245.798Z" fill="#2A437D"/>
<path d="M256.449 245.798C255.241 245.816 255.241 243.918 256.449 243.936C257.658 243.918 257.658 245.816 256.449 245.798Z" fill="#2A437D"/>
<path d="M265.523 249.556C264.657 248.713 265.997 247.372 266.84 248.238C267.706 249.081 266.365 250.424 265.523 249.556Z" fill="#2A437D"/>
<path d="M257.462 241.495C256.596 240.652 257.937 239.311 258.779 240.177C259.645 241.02 258.305 242.363 257.462 241.495Z" fill="#2A437D"/>
<path d="M300.189 161.599C298.503 161.515 296.047 161.451 296.714 163.93L305.896 186.313C306.403 188.033 309.889 187.16 311.116 187.362L300.189 161.599Z" fill="#152E60"/>
<path d="M298.46 182.336C297.483 181.975 279.698 183.248 279.809 181.458L276.739 176.333C276.355 175.691 275.663 175.298 274.915 175.298H265.346C264.807 175.298 264.372 174.86 264.372 174.323V163.194C263.172 161.157 289.627 162.766 289.898 162.28C291.88 161.062 298.3 180.593 299.122 181.338C299.319 181.813 298.971 182.336 298.46 182.336Z" fill="#152E60"/>
<mask id="mask1_503_6878" style="mask-type:luminance" maskUnits="userSpaceOnUse" x="264" y="162" width="36" height="21">
<path d="M298.46 182.336C297.483 181.975 279.698 183.248 279.809 181.458L276.739 176.333C276.355 175.691 275.663 175.298 274.915 175.298H265.346C264.807 175.298 264.372 174.86 264.372 174.323V163.194C263.172 161.157 289.627 162.766 289.898 162.28C291.88 161.062 298.3 180.593 299.122 181.338C299.319 181.813 298.971 182.336 298.46 182.336Z" fill="white"/>
</mask>
<g mask="url(#mask1_503_6878)">
<path d="M284.457 161.599L293.892 183.718H283.92L275.417 161.599H284.457Z" fill="#2A437D"/>
</g>
<path d="M264.529 205.116C263.936 205.008 262.117 205.498 262.149 204.433V197.896C262.114 196.837 263.939 197.312 264.529 197.213C264.906 197.213 265.212 197.518 265.212 197.896V204.433C265.212 204.809 264.906 205.116 264.529 205.116Z" fill="#2A437D"/>
<path d="M316.11 238.236H281.774V232.837H316.11V238.236Z" fill="#152E60"/>
<path d="M316.108 238.235C314.242 237.98 309.112 239.297 309.158 236.093V220.762C309.105 217.567 314.249 218.871 316.108 218.621C317.292 218.621 318.25 219.579 318.25 220.762V236.093C318.25 237.276 317.292 238.235 316.108 238.235Z" fill="#2A437D"/>
<path d="M315.298 206.716C314.589 206.584 312.29 207.188 312.332 205.908C312.286 204.628 314.596 205.232 315.298 205.1V206.716Z" fill="#F9CE68"/>
<path d="M315.298 209.151C314.589 209.019 312.29 209.623 312.332 208.343C312.286 207.063 314.596 207.667 315.298 207.535V209.151Z" fill="#F9CE68"/>
<path d="M315.298 211.585C314.589 211.453 312.29 212.057 312.332 210.777C312.286 209.496 314.596 210.101 315.298 209.969V211.585Z" fill="#F9CE68"/>
<path d="M304.711 210.779H259.184V206.718H304.711V210.779Z" fill="#F9CE68"/>
<path d="M261.589 217.826H296.8C297.288 217.826 297.763 217.687 298.175 217.423L303.683 213.895C306.058 214.015 304.387 190.667 304.857 189.422C304.857 189.084 304.789 188.757 304.662 188.445L293.519 161.58C293.123 160.624 292.2 160.008 291.165 160.008H261.589C260.184 160.008 259.04 161.151 259.04 162.557V215.277C259.04 216.683 260.184 217.826 261.589 217.826ZM291.165 160.297C293.663 158.616 303.373 187.75 304.398 188.558C304.512 188.834 304.57 189.125 304.57 189.424V211.751C304.57 212.527 304.181 213.238 303.528 213.657C302.678 214.073 297.751 217.743 296.8 217.541H261.591C260.343 217.541 259.329 216.527 259.329 215.28V162.559C259.329 161.311 260.343 160.297 261.591 160.297H291.165Z" fill="#152E60"/>
<path d="M182.553 245.781H140.952C139.771 245.781 138.815 244.825 138.815 243.645V232.826C138.815 231.645 139.771 230.689 140.952 230.689H182.553C183.733 230.689 184.689 231.645 184.689 232.826V243.645C184.689 244.825 183.731 245.781 182.553 245.781Z" fill="#D3E0FF"/>
<path d="M148.164 245.781H144.432V230.688H148.164V245.781Z" fill="#152E60"/>
<path d="M179.318 245.781H175.586V230.688H179.318V245.781Z" fill="#839EE2"/>
<path d="M232.817 245.781H191.216C190.036 245.781 189.08 244.825 189.08 243.645V232.826C189.08 231.645 190.036 230.689 191.216 230.689H232.817C233.998 230.689 234.954 231.645 234.954 232.826V243.645C234.954 244.825 233.998 245.781 232.817 245.781Z" fill="#D3E0FF"/>
<path d="M198.429 245.781H194.697V230.688H198.429V245.781Z" fill="#839EE2"/>
<path d="M229.584 245.781H225.852V230.688H229.584V245.781Z" fill="#839EE2"/>
<path d="M247.934 194.668L76 194.668V161.601L247.934 161.601V194.668Z" fill="#F9CE68"/>
<path d="M300.155 184.453C299.588 184.347 297.851 184.819 297.884 183.8V176.276C297.851 175.265 299.592 175.718 300.155 175.623C300.516 175.623 300.808 175.915 300.808 176.276V183.8C300.808 184.159 300.516 184.453 300.155 184.453Z" fill="#2A437D"/>
<path d="M308.046 267.622H31.4194C31.1883 267.622 31 267.445 31 267.226C31 267.007 31.1883 266.831 31.4194 266.831H308.046C308.277 266.831 308.465 267.007 308.465 267.226C308.465 267.445 308.277 267.622 308.046 267.622Z" fill="#1F1949"/>
<path d="M149.414 266.693H41.0966C35.5208 266.693 31 262.443 31 257.201V48.4924C31 43.2503 35.5208 39 41.0966 39H149.414C154.989 39 159.51 43.2503 159.51 48.4924V257.201C159.51 262.443 154.989 266.693 149.414 266.693Z" fill="#00194F"/>
<path d="M149.277 65.5718H41.2363V256.426H149.277V65.5718Z" fill="white"/>
<path d="M107.543 47.961H84.7212C83.6476 47.961 82.7754 47.1429 82.7754 46.1316C82.7754 45.1222 83.6455 44.3022 84.7212 44.3022H107.543C108.617 44.3022 109.489 45.1203 109.489 46.1316C109.489 47.141 108.619 47.961 107.543 47.961Z" fill="white"/>
<path d="M65.5572 99.5015H59.292V133.99H65.5572V99.5015Z" fill="#00194F"/>
<path d="M69.6356 99.5015H68.6533V133.99H69.6356V99.5015Z" fill="#00194F"/>
<path d="M78.622 99.5015H74.5518V133.99H78.622V99.5015Z" fill="#00194F"/>
<path d="M88.4478 99.5015H82.1826V133.99H88.4478V99.5015Z" fill="#00194F"/>
<path d="M96.0777 99.5015H89.8125V133.99H96.0777V99.5015Z" fill="#00194F"/>
<path d="M100.575 99.5015H97.4414V133.99H100.575V99.5015Z" fill="#00194F"/>
<path d="M110.213 99.5015H103.948V133.99H110.213V99.5015Z" fill="#00194F"/>
<path d="M116.28 99.5015H113.146V133.99H116.28V99.5015Z" fill="#00194F"/>
<path d="M126.597 99.5015H120.332V133.99H126.597V99.5015Z" fill="#00194F"/>
<path d="M132.664 99.5015H129.53V133.99H132.664V99.5015Z" fill="#00194F"/>
<path d="M60.1124 137.737L60.7147 138.702C60.8725 138.952 61.0033 139.184 61.1424 139.436H61.1694C61.3086 139.166 61.4477 138.934 61.5868 138.694L62.1787 137.737H63.0073L61.5682 139.908L63.0509 142.228H62.1787L61.5598 141.216C61.3937 140.957 61.2546 140.705 61.1072 140.437H61.0905C60.9514 140.707 60.8019 140.947 60.6461 141.216L60.0356 142.228H59.1904L60.6898 139.936L59.2589 137.735H60.1124V137.737Z" fill="#00194F"/>
<path d="M64.1475 137.737L64.7497 138.702C64.9075 138.952 65.0384 139.184 65.1775 139.436H65.2045C65.3436 139.166 65.4828 138.934 65.624 138.694L66.2158 137.737H67.0444L65.6053 139.908L67.088 142.228H66.2158L65.597 141.216C65.4309 140.957 65.2917 140.705 65.1443 140.437H65.1277C64.9885 140.707 64.8411 140.947 64.6833 141.216L64.0727 142.228H63.2275L64.7269 139.936L63.2961 137.735H64.1496L64.1475 137.737Z" fill="#00194F"/>
<path d="M69.5509 139.417V140.02H67.3975V139.417H69.5509Z" fill="#00194F"/>
<path d="M70.8068 137.737L71.409 138.702C71.5668 138.952 71.6976 139.184 71.8368 139.436H71.8638C72.0029 139.166 72.142 138.934 72.2812 138.694L72.873 137.737H73.7016L72.2625 139.908L73.7452 142.228H72.873L72.2542 141.216C72.0881 140.957 71.9489 140.705 71.8015 140.437H71.7849C71.6457 140.707 71.4962 140.947 71.3405 141.216L70.7299 142.228H69.8848L71.3841 139.936L69.9533 137.735H70.8068V137.737Z" fill="#00194F"/>
<path d="M74.8418 137.737L75.444 138.702C75.6019 138.952 75.7327 139.184 75.8718 139.436H75.8988C76.038 139.166 76.1771 138.934 76.3162 138.694L76.9102 137.737H77.7387L76.2996 139.908L77.7823 142.228H76.9102L76.2913 141.216C76.1252 140.957 75.986 140.705 75.8386 140.437H75.822C75.6829 140.707 75.5333 140.947 75.3776 141.216L74.7671 142.228H73.9219L75.4212 139.936L73.9904 137.735H74.8439L74.8418 137.737Z" fill="#00194F"/>
<path d="M78.8771 137.737L79.4793 138.702C79.6371 138.952 79.768 139.184 79.9071 139.436H79.9341C80.0732 139.166 80.2124 138.934 80.3515 138.694L80.9434 137.737H81.7719L80.3328 139.908L81.8155 142.228H80.9434L80.3245 141.216C80.1584 140.957 80.0192 140.705 79.8718 140.437H79.8552C79.716 140.707 79.5665 140.947 79.4108 141.216L78.8003 142.228H77.9551L79.4544 139.936L78.0236 137.735H78.8771V137.737Z" fill="#00194F"/>
<path d="M84.2794 139.417V140.02H82.126V139.417H84.2794Z" fill="#00194F"/>
<path d="M85.5342 137.737L86.1364 138.702C86.2942 138.952 86.4251 139.184 86.5642 139.436H86.5912C86.7304 139.166 86.8695 138.934 87.0107 138.694L87.6025 137.737H88.4311L86.992 139.908L88.4747 142.228H87.6025L86.9837 141.216C86.8176 140.957 86.6784 140.705 86.531 140.437H86.5144C86.3752 140.707 86.2257 140.947 86.07 141.216L85.4595 142.228H84.6143L86.1136 139.936L84.6828 137.735H85.5363L85.5342 137.737Z" fill="#00194F"/>
<path d="M89.5723 137.737L90.1745 138.702C90.3323 138.952 90.4631 139.184 90.6023 139.436H90.6293C90.7684 139.166 90.9075 138.934 91.0488 138.694L91.6406 137.737H92.4692L91.0301 139.908L92.5128 142.228H91.6406L91.0218 141.216C90.8556 140.957 90.7165 140.705 90.5691 140.437H90.5524C90.4133 140.707 90.2638 140.947 90.108 141.216L89.4975 142.228H88.6523L90.1517 139.936L88.7229 137.735H89.5764L89.5723 137.737Z" fill="#00194F"/>
<path d="M93.6065 137.737L94.2087 138.702C94.3665 138.952 94.4974 139.184 94.6365 139.436H94.6635C94.8026 139.166 94.9418 138.934 95.083 138.694L95.6748 137.737H96.5034L95.0643 139.908L96.547 142.228H95.6748L95.056 141.216C94.8898 140.957 94.7507 140.705 94.6033 140.437H94.5866C94.4475 140.707 94.298 140.947 94.1422 141.216L93.5317 142.228H92.6865L94.1858 139.936L92.755 137.735H93.6086L93.6065 137.737Z" fill="#00194F"/>
<path d="M99.0099 139.417V140.02H96.8564V139.417H99.0099Z" fill="#00194F"/>
<path d="M100.265 137.737L100.867 138.702C101.025 138.952 101.156 139.184 101.295 139.436H101.322C101.461 139.166 101.6 138.934 101.741 138.694L102.333 137.737H103.162L101.722 139.908L103.205 142.228H102.333L101.714 141.216C101.548 140.957 101.409 140.705 101.261 140.437H101.245C101.106 140.707 100.956 140.947 100.8 141.216L100.19 142.228H99.3447L100.844 139.936L99.4153 137.735H100.269L100.265 137.737Z" fill="#00194F"/>
<path d="M104.301 137.737L104.903 138.702C105.061 138.952 105.192 139.184 105.331 139.436H105.358C105.497 139.166 105.636 138.934 105.777 138.694L106.369 137.737H107.198L105.759 139.908L107.241 142.228H106.369L105.75 141.216C105.584 140.957 105.445 140.705 105.298 140.437H105.281C105.142 140.707 104.992 140.947 104.837 141.216L104.226 142.228H103.381L104.88 139.936L103.449 137.735H104.303L104.301 137.737Z" fill="#00194F"/>
<path d="M108.335 137.737L108.937 138.702C109.095 138.952 109.226 139.184 109.365 139.436H109.392C109.531 139.166 109.67 138.934 109.811 138.694L110.403 137.737H111.232L109.793 139.908L111.275 142.228H110.403L109.784 141.216C109.618 140.957 109.479 140.705 109.332 140.437H109.315C109.176 140.707 109.027 140.947 108.871 141.216L108.26 142.228H107.415L108.914 139.936L107.486 137.735H108.339L108.335 137.737Z" fill="#00194F"/>
<path d="M113.738 139.417V140.02H111.585V139.417H113.738Z" fill="#00194F"/>
<path d="M114.994 137.737L115.597 138.702C115.754 138.952 115.885 139.184 116.024 139.436H116.051C116.19 139.166 116.33 138.934 116.469 138.694L117.061 137.737H117.889L116.45 139.908L117.933 142.228H117.061L116.442 141.216C116.276 140.957 116.136 140.705 115.989 140.437H115.972C115.833 140.707 115.684 140.947 115.528 141.216L114.917 142.228H114.072L115.572 139.936L114.143 137.735H114.996L114.994 137.737Z" fill="#00194F"/>
<path d="M119.03 137.737L119.633 138.702C119.79 138.952 119.921 139.184 120.06 139.436H120.087C120.227 139.166 120.366 138.934 120.505 138.694L121.097 137.737H121.925L120.486 139.908L121.969 142.228H121.097L120.478 141.216C120.312 140.957 120.173 140.705 120.025 140.437H120.009C119.869 140.707 119.72 140.947 119.564 141.216L118.954 142.228H118.108L119.608 139.936L118.179 137.735H119.032L119.03 137.737Z" fill="#00194F"/>
<path d="M123.066 137.737L123.668 138.702C123.826 138.952 123.956 139.184 124.096 139.436H124.123C124.262 139.166 124.401 138.934 124.54 138.694L125.132 137.737H125.96L124.521 139.908L126.004 142.228H125.132L124.513 141.216C124.347 140.957 124.208 140.705 124.06 140.437H124.044C123.905 140.707 123.755 140.947 123.599 141.216L122.989 142.228H122.144L123.643 139.936L122.212 137.735H123.066V137.737Z" fill="#00194F"/>
<path d="M128.469 139.417V140.02H126.315V139.417H128.469Z" fill="#00194F"/>
<path d="M129.723 137.737L130.325 138.702C130.483 138.952 130.614 139.184 130.753 139.436H130.78C130.919 139.166 131.058 138.934 131.197 138.694L131.789 137.737H132.618L131.179 139.908L132.661 142.228H131.789L131.17 141.216C131.004 140.957 130.865 140.705 130.718 140.437H130.701C130.562 140.707 130.412 140.947 130.257 141.216L129.646 142.228H128.801L130.3 139.936L128.871 137.735H129.725L129.723 137.737Z" fill="#00194F"/>
<path d="M142.537 89.8906H50.0234V150.779H142.537V89.8906Z" fill="#F2F3F7"/>
<path d="M90.8281 96.4224H57.4951V123.024H90.8281V96.4224Z" fill="#CAD2EA"/>
<path d="M134.402 129.5H57.4951V132.757H134.402V129.5Z" fill="#CAD2EA"/>
<path d="M134.402 134.946H57.4951V138.203H134.402V134.946Z" fill="#CAD2EA"/>
<path d="M96.2797 140.393H57.4951V143.649H96.2797V140.393Z" fill="#CAD2EA"/>
<path d="M100.886 96.4224H98.6816V106.007H100.886V96.4224Z" fill="#CAD2EA"/>
<path d="M110.687 96.4224H103.326V106.007H110.687V96.4224Z" fill="#CAD2EA"/>
<path d="M114.813 96.4224H112.608V106.007H114.813V96.4224Z" fill="#CAD2EA"/>
<path d="M119.452 96.4224H117.248V106.007H119.452V96.4224Z" fill="#CAD2EA"/>
<path d="M124.097 96.4224H121.893V106.007H124.097V96.4224Z" fill="#CAD2EA"/>
<path d="M128.735 96.4224H126.53V106.007H128.735V96.4224Z" fill="#CAD2EA"/>
<path d="M133.379 96.4224H131.175V106.007H133.379V96.4224Z" fill="#CAD2EA"/>
<path d="M117.247 109.726H98.6816V111.749H117.247V109.726Z" fill="#CAD2EA"/>
<path d="M127.632 113.587H98.6816V115.61H127.632V113.587Z" fill="#CAD2EA"/>
<path d="M109.939 117.455H98.6816V119.478H109.939V117.455Z" fill="#CAD2EA"/>
<path d="M123.749 121.321H98.6816V123.344H123.749V121.321Z" fill="#CAD2EA"/>
<path d="M149.277 172.007H41.2363V256.425H149.277V172.007Z" fill="#CAD2EA"/>
<path d="M149.277 52.3638H41.2363V65.5638H149.277V52.3638Z" fill="#CAD2EA"/>
<path d="M60.9341 55.0459H45.2119V57.0549H60.9341V55.0459Z" fill="#00194F"/>
<path d="M60.9341 57.9595H45.2119V59.9685H60.9341V57.9595Z" fill="#00194F"/>
<path d="M60.9341 60.8701H45.2119V62.8791H60.9341V60.8701Z" fill="#00194F"/>
<path d="M191.879 173.664L193.222 178.631C193.415 179.346 193.571 180.07 193.666 180.801C194.134 184.362 193.927 188.025 193.74 191.605C193.094 204.055 189.339 217.535 189.339 217.535L196.895 259.063L192.943 260.09C192.943 260.09 176.811 228.247 174.133 216.945C174.01 216.423 173.874 215.859 173.727 215.259L168.604 176.705L191.878 173.664H191.879Z" fill="#00194F"/>
<path d="M197.156 258.675L192.196 259.707L192.985 261.888C192.985 261.888 187.643 263.51 185.606 266.788L198.273 264.439L197.156 258.677V258.675Z" fill="#1F1949"/>
<path d="M189.605 176.239L189.514 182.328C189.454 186.326 188.975 190.312 188.007 194.204C184.99 206.343 178.722 218.968 178.722 218.968L178.217 261.097L174.133 261.441C174.133 261.441 164.349 227.39 163.876 215.819C163.854 215.286 163.829 214.707 163.799 214.092L166.127 175.301L189.603 176.24L189.605 176.239Z" fill="#00194F"/>
<path d="M178.547 260.758L173.469 260.935L173.828 263.214C173.828 263.214 168.264 263.907 165.634 266.788H178.544L178.547 260.759V260.758Z" fill="#1F1949"/>
<path d="M178.597 229.401L178.722 218.967C178.722 218.967 188.217 200.49 188.89 189.814C188.89 189.814 187.275 206.61 183.744 216.877L182.204 237.658L178.598 229.401H178.597Z" fill="#343766"/>
<path d="M182.019 112.601C182.019 112.601 177.709 110.71 173.919 115.001C171.598 117.628 170.636 123.528 170.239 127.709C170.007 130.164 172.105 132.257 174.724 132.193L179.039 132.087L182.019 112.601Z" fill="#343766"/>
<path d="M174.731 117.365C178.143 110.137 185.846 114.828 186.972 119.578C187.467 121.669 186.415 123.938 184.552 125.743C184.084 128.358 183.672 131.849 183.982 135.039C183.982 135.039 179.068 137.283 176.083 136.6C174.432 136.223 175.591 132.447 176.957 129.146C176.31 129.182 175.662 129.156 175.02 129.061C168.796 128.129 174.731 117.365 174.731 117.365Z" fill="#DA8C8D"/>
<mask id="mask2_503_6878" style="mask-type:luminance" maskUnits="userSpaceOnUse" x="172" y="113" width="16" height="24">
<path d="M174.731 117.365C178.143 110.137 185.846 114.828 186.972 119.578C187.467 121.669 186.415 123.938 184.552 125.743C184.084 128.358 183.672 131.849 183.982 135.039C183.982 135.039 179.068 137.283 176.083 136.6C174.432 136.223 175.591 132.447 176.957 129.146C176.31 129.182 175.662 129.156 175.02 129.061C168.796 128.129 174.731 117.365 174.731 117.365Z" fill="white"/>
</mask>
<g mask="url(#mask2_503_6878)">
<path d="M176.955 129.147C176.955 129.147 178.109 129.092 179.899 128.245C179.899 128.245 178.815 131.646 175.551 131.379L176.955 129.147Z" fill="#C17276"/>
<path d="M175.254 115.234C175.254 115.234 173.904 121.133 179.835 124.036L180.719 113.231C180.719 113.231 177.656 112.461 175.254 115.234Z" fill="#C17276"/>
<path d="M172.981 124.949C172.981 124.949 174.391 125.474 176.072 125.287C176.072 125.287 175.479 126.869 174.208 126.588C172.936 126.307 172.981 124.951 172.981 124.951V124.949Z" fill="#F2F3F7"/>
</g>
<path d="M146.501 125.726C146.501 125.726 148.996 125.842 149.302 125.927C149.607 126.012 151.808 128.426 151.808 128.426L163.284 142.004L155.693 145.664L148.392 130.211L146.887 129.434L146.501 125.728V125.726Z" fill="#DA8C8D"/>
<mask id="mask3_503_6878" style="mask-type:luminance" maskUnits="userSpaceOnUse" x="146" y="125" width="18" height="21">
<path d="M146.501 125.726C146.501 125.726 148.996 125.842 149.302 125.927C149.607 126.012 151.808 128.426 151.808 128.426L163.284 142.004L155.693 145.664L148.392 130.211L146.887 129.434L146.501 125.728V125.726Z" fill="white"/>
</mask>
<g mask="url(#mask3_503_6878)">
<path d="M162.765 140.771L153.403 142.167L156.662 147.091L164.291 144.106L162.765 140.771Z" fill="#C17276"/>
<path d="M148.515 128.444C148.515 128.444 148.906 129.992 150.126 130.478L148.483 132.109L148.517 128.446" fill="#C17276"/>
</g>
<path d="M163.468 141.537L154.497 144.735L159.271 153.284L166.967 145.66L163.468 141.537Z" fill="#D56C00"/>
<path d="M165.569 175.011L164.264 153.591C164.264 153.591 169.971 133.373 177.154 132.304C184.336 131.235 187.861 136.816 188.557 141.201C189.253 145.585 190.913 175.011 190.913 175.011H163.831" fill="#F57C00"/>
<mask id="mask4_503_6878" style="mask-type:luminance" maskUnits="userSpaceOnUse" x="163" y="132" width="28" height="44">
<path d="M165.569 175.011L164.264 153.591C164.264 153.591 169.971 133.373 177.154 132.304C184.336 131.235 187.861 136.816 188.557 141.201C189.253 145.585 190.913 175.011 190.913 175.011H163.831" fill="white"/>
</mask>
<g mask="url(#mask4_503_6878)">
<path d="M175.036 158.14C176.292 155.767 176.731 153.827 176.731 153.827L164.73 160.559L165.04 166.302C170.864 165.345 173.306 161.414 175.038 158.14H175.036Z" fill="#D56C00"/>
</g>
<path d="M128.366 133.312L150.602 130.495L138.459 121.337L116.797 123.316L128.366 133.312Z" fill="#F1CA89"/>
<path d="M128.366 133.312L123.918 147.157L144.298 144.655L150.602 130.496L128.366 133.312Z" fill="#ED963E"/>
<path d="M116.797 123.316L113 136.389L123.918 147.157L128.366 133.312L116.797 123.316Z" fill="#F1B873"/>
<path d="M149.353 149.626L133.32 144.753V149.058L148.367 158.48L149.353 149.626Z" fill="#DA8C8D"/>
<mask id="mask5_503_6878" style="mask-type:luminance" maskUnits="userSpaceOnUse" x="133" y="144" width="17" height="15">
<path d="M149.353 149.626L133.32 144.753V149.058L148.367 158.48L149.353 149.626Z" fill="white"/>
</mask>
<g mask="url(#mask5_503_6878)">
<path d="M147.876 149.178C147.876 149.178 145.284 155.811 145.704 157.353C146.125 158.895 149.783 158.48 149.783 158.48L150.834 149.643L147.876 149.178Z" fill="#C17276"/>
</g>
<path d="M179.159 132.247C176.211 132.046 173.373 133.346 171.647 135.601C167.988 140.384 158.624 151.143 157.406 151.143C155.844 151.143 149.132 148.782 149.132 148.782L147.997 158.967C147.997 158.967 159.266 163.08 161.453 162.64C163.64 162.2 180.335 152.085 183.054 148.366C187.367 142.461 187.521 132.816 179.16 132.247H179.159Z" fill="#F57C00"/>
<mask id="mask6_503_6878" style="mask-type:luminance" maskUnits="userSpaceOnUse" x="147" y="132" width="39" height="31">
<path d="M179.159 132.247C176.211 132.046 173.373 133.346 171.647 135.601C167.988 140.384 158.624 151.143 157.406 151.143C155.844 151.143 149.132 148.782 149.132 148.782L147.997 158.967C147.997 158.967 159.266 163.08 161.453 162.64C163.64 162.2 180.335 152.085 183.054 148.366C187.367 142.461 187.521 132.816 179.16 132.247H179.159Z" fill="white"/>
</mask>
<g mask="url(#mask6_503_6878)">
<path d="M157.404 151.145C157.404 151.145 160.029 152.699 159.881 156.116C159.881 156.116 162.003 152.129 158.36 150.555L157.404 151.143" fill="#D56C00"/>
<path d="M171.647 135.602C171.647 135.602 179.439 135.379 182.878 141.537C182.878 141.537 181.798 134.011 172.179 134.011L171.647 135.602Z" fill="#D56C00"/>
</g>
<path d="M145.48 128.674L138.288 122.768L128.193 123.886L135.155 129.994L145.48 128.674Z" fill="#F2F3F7"/>
<path d="M134.803 145.403L133.878 144.415C133.396 143.899 133.037 143.292 132.825 142.635L132.384 141.269C132.365 141.209 132.292 141.183 132.233 141.214C131.995 141.345 131.46 141.67 131.438 141.982C131.41 142.385 131.286 144.516 131.286 144.516L126.473 145.106C126.473 145.106 128.78 147.654 129.379 148.057C129.978 148.46 134.394 149.264 134.394 149.264L134.8 145.402L134.803 145.403Z" fill="#DA8C8D"/>
<mask id="mask7_503_6878" style="mask-type:luminance" maskUnits="userSpaceOnUse" x="126" y="141" width="9" height="9">
<path d="M134.803 145.403L133.878 144.415C133.396 143.899 133.037 143.292 132.825 142.635L132.384 141.269C132.365 141.209 132.292 141.183 132.233 141.214C131.995 141.345 131.46 141.67 131.438 141.982C131.41 142.385 131.286 144.516 131.286 144.516L126.473 145.106C126.473 145.106 128.78 147.654 129.379 148.057C129.978 148.46 134.394 149.264 134.394 149.264L134.8 145.402L134.803 145.403Z" fill="white"/>
</mask>
<g mask="url(#mask7_503_6878)">
<path d="M131.29 144.515C131.301 144.896 130.967 145.206 130.561 145.193L126.812 145.065L131.29 144.515Z" fill="#C17276"/>
</g>
<path d="M188.957 141.471C188.804 138.832 187.701 136.306 185.778 134.378C183.22 131.812 178.082 129.945 172.789 134.384C172.789 134.384 183.981 135.041 183.304 145.665C182.882 152.285 180.683 160.33 164.227 163.152L165.563 182.321L194.025 178.729L188.957 141.472V141.471Z" fill="#00194F"/>
<mask id="mask8_503_6878" style="mask-type:luminance" maskUnits="userSpaceOnUse" x="164" y="131" width="31" height="52">
<path d="M188.957 141.471C188.804 138.832 187.701 136.306 185.778 134.378C183.22 131.812 178.082 129.945 172.789 134.384C172.789 134.384 183.981 135.041 183.304 145.665C182.882 152.285 180.683 160.33 164.227 163.152L165.563 182.321L194.025 178.729L188.957 141.472V141.471Z" fill="white"/>
</mask>
<g mask="url(#mask8_503_6878)">
<path d="M192.272 156.963L179.57 161.547L180.236 166.353L193.635 161.737L192.272 156.963Z" fill="white"/>
<path d="M193.186 163.826L180.451 168.164L181.152 173.216L194.549 168.598L193.186 163.826Z" fill="white"/>
</g>
<path d="M178.05 112.911C178.05 112.911 177.647 118.83 178.392 123.607C178.664 125.351 179.04 127.682 179.409 129.939C180.245 135.065 186.237 137.846 191.082 135.369C191.145 135.337 191.21 135.304 191.275 135.27L192.157 134.434C193.608 133.041 194.033 130.97 193.241 129.171L190.499 122.939C190.499 122.939 187.167 108.255 178.05 112.913V112.911Z" fill="#343766"/>
<path d="M147.995 125.807C147.995 125.807 144.617 129.112 144.739 129.204C144.862 129.296 145.98 129.729 146.884 129.431C147.103 129.36 149.152 128.215 149.152 128.215C149.152 128.215 149.489 125.887 147.993 125.807H147.995Z" fill="#DA8C8D"/>
<path d="M165.716 182.148L192.787 178.732C192.787 178.732 191.669 187.297 165.256 189.815L165.716 182.15V182.148Z" fill="#343766"/>
</svg>
