<svg width="340" height="285" viewBox="0 0 340 285" fill="none" xmlns="http://www.w3.org/2000/svg">
<rect width="340" height="285" rx="16" fill="#F0F1FD" fill-opacity="0.96"/>
<path d="M52.0023 177.016V21.0979C52.0023 20.6711 52.088 20.2625 52.2459 19.8922C52.4016 19.5219 52.6295 19.1877 52.9093 18.9077C53.1891 18.6277 53.5231 18.4019 53.8931 18.2439C54.2632 18.0881 54.6693 18 55.0981 18H314.688C315.114 18 315.523 18.0858 315.893 18.2439C316.263 18.3997 316.597 18.6277 316.877 18.9077C317.156 19.1877 317.382 19.5219 317.54 19.8922C317.696 20.2625 317.784 20.6689 317.784 21.0979V177.016C317.784 177.442 317.698 177.851 317.54 178.221C317.384 178.592 317.156 178.926 316.877 179.206C316.597 179.486 316.263 179.712 315.893 179.87C315.523 180.028 315.117 180.114 314.688 180.114H55.0958C54.6693 180.114 54.2609 180.028 53.8909 179.87C53.5208 179.714 53.1869 179.486 52.9071 179.206C52.6273 178.926 52.4016 178.592 52.2437 178.221C52.088 177.851 52 177.445 52 177.016H52.0023Z" fill="#8197C9"/>
<path d="M310.667 172.996H247.778H184.89H122.001H59.1123V136.027V99.0577V62.0884V25.1191H122.001H184.89H247.778H310.667V62.0884V99.0577V136.027V172.996Z" fill="#CAD2EA"/>
<path d="M218.508 218.322H201.7H184.89H168.082H151.273V208.769V199.218V189.665V180.111H168.082H184.89H201.7H218.508V189.665V199.218V208.769V218.322Z" fill="#BDC9E4"/>
<path d="M194.026 162.808H163.165H132.306H101.445H70.5859V130.989V99.1706V67.3516V35.5327H101.445H132.306H163.165H194.026V67.3516V99.1706V130.989V162.808Z" fill="#E1E5EF"/>
<mask id="mask0_503_6604" style="mask-type:luminance" maskUnits="userSpaceOnUse" x="70" y="35" width="125" height="128">
<path d="M194.026 162.808H163.165H132.306H101.445H70.5859V130.989V99.1706V67.3516V35.5327H101.445H132.306H163.165H194.026V67.3516V99.1706V130.989V162.808Z" fill="white"/>
</mask>
<g mask="url(#mask0_503_6604)">
<path d="M161.245 168.37H159.397H157.549H155.701H153.853V134.122V99.8731V65.6246V31.3784H155.701H157.549H159.397H161.245V65.6246V99.8731V134.122V168.37Z" fill="#F2F3F7"/>
<path d="M157.549 120.136H134.335H111.12H87.9064H64.6924V118.287V116.437V114.588V112.739H87.9064H111.12H134.335H157.549V114.588V116.437V118.287V120.136Z" fill="#F2F3F7"/>
<path d="M99.3511 116.437H98.1733H96.9977H95.8221H94.6465V94.4065V72.3735V50.3428V28.312H95.8221H96.9977H98.1733H99.3511V50.3428V72.3735V94.4065V116.437Z" fill="#F2F3F7"/>
<path d="M96.9977 76.833H89.4048H81.8097H74.2169H66.624V75.6566V74.4802V73.3038V72.1274H74.2169H81.8097H89.4048H96.9977V73.3038V74.4802V75.6566V76.833Z" fill="#F2F3F7"/>
<path d="M194.026 140.986H184.906H175.787H166.669H157.549V139.809V138.633V137.457V136.28H166.669H175.787H184.906H194.026V137.457V138.633V139.809V140.986Z" fill="#F2F3F7"/>
</g>
<path d="M291.239 57.8032H210.265C209.922 57.8032 209.597 57.7332 209.302 57.609C209.006 57.4825 208.738 57.3019 208.514 57.0784C208.291 56.8548 208.108 56.5861 207.984 56.2903C207.858 55.9946 207.79 55.6672 207.79 55.3262V38.0146C207.79 37.6714 207.86 37.3462 207.984 37.0504C208.11 36.7546 208.291 36.4859 208.514 36.2624C208.738 36.0389 209.006 35.856 209.302 35.7318C209.597 35.6053 209.925 35.5376 210.265 35.5376H291.239C291.582 35.5376 291.907 35.6076 292.203 35.7318C292.498 35.8582 292.767 36.0389 292.99 36.2624C293.214 36.4859 293.396 36.7546 293.52 37.0504C293.647 37.3462 293.715 37.6736 293.715 38.0146V55.3262C293.715 55.6694 293.645 55.9946 293.52 56.2903C293.394 56.5861 293.214 56.8548 292.99 57.0784C292.767 57.3019 292.498 57.4848 292.203 57.609C291.907 57.7354 291.58 57.8032 291.239 57.8032Z" fill="white"/>
<path d="M284.373 43.3907H237.784C237.705 43.3907 237.631 43.3749 237.563 43.3456C237.496 43.3162 237.435 43.2756 237.383 43.2237C237.331 43.1717 237.29 43.1107 237.261 43.043C237.232 42.9753 237.216 42.9008 237.216 42.8217V40.8122C237.216 40.7331 237.232 40.6586 237.261 40.5909C237.29 40.5232 237.331 40.4622 237.383 40.4102C237.435 40.3583 237.496 40.3177 237.563 40.2883C237.631 40.259 237.705 40.2432 237.784 40.2432H284.373C284.452 40.2432 284.526 40.259 284.594 40.2883C284.662 40.3177 284.722 40.3583 284.774 40.4102C284.826 40.4622 284.867 40.5232 284.896 40.5909C284.926 40.6586 284.941 40.7331 284.941 40.8122V42.8217C284.941 42.9008 284.926 42.9753 284.896 43.043C284.867 43.1107 284.826 43.1717 284.774 43.2237C284.722 43.2756 284.662 43.3162 284.594 43.3456C284.526 43.3749 284.452 43.3907 284.373 43.3907Z" fill="#F2F3F7"/>
<path d="M284.373 48.3087H237.784C237.705 48.3087 237.631 48.2929 237.563 48.2635C237.496 48.2342 237.435 48.1936 237.383 48.1416C237.331 48.0897 237.29 48.0287 237.261 47.961C237.232 47.8932 237.216 47.8187 237.216 47.7397V45.7301C237.216 45.6511 237.232 45.5766 237.261 45.5089C237.29 45.4411 237.331 45.3802 237.383 45.3282C237.435 45.2763 237.496 45.2356 237.563 45.2063C237.631 45.1769 237.705 45.1611 237.784 45.1611H284.373C284.452 45.1611 284.526 45.1769 284.594 45.2063C284.662 45.2356 284.722 45.2763 284.774 45.3282C284.826 45.3802 284.867 45.4411 284.896 45.5089C284.926 45.5766 284.941 45.6511 284.941 45.7301V47.7397C284.941 47.8187 284.926 47.8932 284.896 47.961C284.867 48.0287 284.826 48.0897 284.774 48.1416C284.722 48.1936 284.662 48.2342 284.594 48.2635C284.526 48.2929 284.452 48.3087 284.373 48.3087Z" fill="#F2F3F7"/>
<path d="M260.678 53.2286H237.619C237.563 53.2286 237.511 53.2173 237.464 53.197C237.416 53.1767 237.373 53.1473 237.335 53.1112C237.297 53.0751 237.27 53.0322 237.249 52.9825C237.229 52.9328 237.218 52.8809 237.218 52.8267V50.483C237.218 50.4265 237.229 50.3746 237.249 50.3272C237.27 50.2798 237.299 50.2369 237.335 50.1985C237.371 50.1601 237.414 50.133 237.464 50.1127C237.511 50.0923 237.565 50.0811 237.619 50.0811H260.678C260.734 50.0811 260.786 50.0923 260.833 50.1127C260.881 50.133 260.924 50.1623 260.962 50.1985C261 50.2346 261.028 50.2775 261.048 50.3272C261.068 50.3768 261.079 50.4288 261.079 50.483V52.8267C261.079 52.8832 261.068 52.9351 261.048 52.9825C261.028 53.0299 260.998 53.0728 260.962 53.1112C260.926 53.1496 260.883 53.1767 260.833 53.197C260.784 53.2173 260.732 53.2286 260.678 53.2286Z" fill="#F2F3F7"/>
<path d="M226.829 46.9788C226.829 47.9091 226.642 48.7942 226.301 49.6003C225.961 50.4063 225.469 51.1311 224.86 51.7408C224.25 52.3504 223.526 52.8427 222.72 53.1836C221.915 53.5246 221.03 53.712 220.101 53.712C219.171 53.712 218.287 53.5246 217.481 53.1836C216.675 52.8427 215.951 52.3504 215.342 51.7408C214.733 51.1311 214.241 50.4063 213.9 49.6003C213.559 48.7942 213.372 47.9091 213.372 46.9788C213.372 46.0485 213.559 45.1634 213.9 44.3573C214.241 43.5512 214.733 42.8264 215.342 42.2168C215.951 41.6071 216.675 41.1149 217.481 40.774C218.287 40.433 219.171 40.2456 220.101 40.2456C221.03 40.2456 221.915 40.433 222.72 40.774C223.526 41.1149 224.25 41.6071 224.86 42.2168C225.469 42.8264 225.961 43.5512 226.301 44.3573C226.642 45.1634 226.829 46.0485 226.829 46.9788Z" fill="#F2F3F7"/>
<path d="M217.407 43.9778L218.004 44.6552L218.605 45.3326L219.203 46.01L219.803 46.6896L221.628 44.9216L223.454 43.1559L225.281 41.3902L227.107 39.6245L227.615 40.128L228.125 40.6316L228.632 41.1351L229.142 41.6386L226.814 43.9033L224.485 46.1703L222.159 48.435L219.83 50.6997L218.704 49.4601L217.576 48.2205L216.448 46.9809L215.319 45.7413L215.841 45.301L216.362 44.8607L216.883 44.4181L217.407 43.9778Z" fill="#3B82F4"/>
<path d="M291.239 83.9726H210.265C209.922 83.9726 209.597 83.9026 209.302 83.7784C209.006 83.652 208.738 83.4713 208.514 83.2478C208.291 83.0243 208.108 82.7556 207.984 82.4598C207.86 82.164 207.79 81.8366 207.79 81.4956V64.184C207.79 63.8408 207.86 63.5156 207.984 63.2199C208.11 62.9241 208.291 62.6554 208.514 62.4318C208.738 62.2083 209.006 62.0254 209.302 61.9012C209.597 61.7748 209.925 61.707 210.265 61.707H291.239C291.582 61.707 291.907 61.777 292.203 61.9012C292.498 62.0277 292.767 62.2083 292.99 62.4318C293.214 62.6554 293.396 62.9241 293.52 63.2199C293.647 63.5156 293.715 63.843 293.715 64.184V81.4956C293.715 81.8389 293.645 82.164 293.52 82.4598C293.396 82.7556 293.214 83.0243 292.99 83.2478C292.767 83.4713 292.498 83.6542 292.203 83.7784C291.907 83.9049 291.58 83.9726 291.239 83.9726Z" fill="white"/>
<path d="M284.544 69.5623H241.113C241.036 69.5623 240.964 69.5465 240.898 69.5194C240.833 69.4923 240.774 69.4517 240.725 69.402C240.675 69.3523 240.634 69.2936 240.607 69.2281C240.58 69.1626 240.564 69.0904 240.564 69.0136V66.9657C240.564 66.8889 240.58 66.8166 240.607 66.7512C240.634 66.6857 240.675 66.627 240.725 66.5773C240.774 66.5276 240.833 66.487 240.898 66.4599C240.964 66.4328 241.036 66.417 241.113 66.417H284.544C284.621 66.417 284.693 66.4328 284.759 66.4599C284.824 66.487 284.883 66.5276 284.932 66.5773C284.982 66.627 285.023 66.6857 285.05 66.7512C285.077 66.8166 285.093 66.8889 285.093 66.9657V69.0136C285.093 69.0904 285.077 69.1626 285.05 69.2281C285.023 69.2936 284.982 69.3523 284.932 69.402C284.883 69.4517 284.824 69.4923 284.759 69.5194C284.693 69.5465 284.621 69.5623 284.544 69.5623Z" fill="#F2F3F7"/>
<path d="M284.544 74.4803H241.113C241.036 74.4803 240.964 74.4645 240.898 74.4374C240.833 74.4103 240.774 74.3696 240.725 74.32C240.675 74.2703 240.634 74.2116 240.607 74.1461C240.58 74.0806 240.564 74.0084 240.564 73.9316V71.8836C240.564 71.8069 240.58 71.7346 240.607 71.6691C240.634 71.6037 240.675 71.5449 240.725 71.4953C240.774 71.4456 240.833 71.405 240.898 71.3779C240.964 71.3508 241.036 71.335 241.113 71.335H284.544C284.621 71.335 284.693 71.3508 284.759 71.3779C284.824 71.405 284.883 71.4456 284.932 71.4953C284.982 71.5449 285.023 71.6037 285.05 71.6691C285.077 71.7346 285.093 71.8069 285.093 71.8836V73.9316C285.093 74.0084 285.077 74.0806 285.05 74.1461C285.023 74.2116 284.982 74.2703 284.932 74.32C284.883 74.3696 284.824 74.4103 284.759 74.4374C284.693 74.4645 284.621 74.4803 284.544 74.4803Z" fill="#F2F3F7"/>
<path d="M262.441 79.3977H240.953C240.899 79.3977 240.849 79.3864 240.802 79.3661C240.754 79.3458 240.714 79.3187 240.678 79.2825C240.641 79.2464 240.614 79.2058 240.594 79.1583C240.574 79.1109 240.562 79.0613 240.562 79.0071V76.6362C240.562 76.582 240.574 76.5324 240.594 76.4849C240.614 76.4375 240.641 76.3969 240.678 76.3608C240.714 76.3246 240.754 76.2975 240.802 76.2772C240.849 76.2569 240.899 76.2456 240.953 76.2456H262.441C262.495 76.2456 262.545 76.2569 262.592 76.2772C262.639 76.2975 262.68 76.3246 262.716 76.3608C262.752 76.3969 262.779 76.4375 262.8 76.4849C262.82 76.5324 262.831 76.582 262.831 76.6362V79.0071C262.831 79.0613 262.82 79.1109 262.8 79.1583C262.779 79.2058 262.752 79.2464 262.716 79.2825C262.68 79.3187 262.639 79.3458 262.592 79.3661C262.545 79.3864 262.495 79.3977 262.441 79.3977Z" fill="#F2F3F7"/>
<path d="M226.829 73.1482C226.829 74.0785 226.642 74.9636 226.301 75.7697C225.961 76.5758 225.469 77.3006 224.86 77.9102C224.25 78.5199 223.526 79.0121 222.72 79.3531C221.915 79.694 221.03 79.8814 220.101 79.8814C219.171 79.8814 218.287 79.694 217.481 79.3531C216.675 79.0121 215.951 78.5199 215.342 77.9102C214.733 77.3006 214.241 76.5758 213.9 75.7697C213.559 74.9636 213.372 74.0785 213.372 73.1482C213.372 72.2179 213.559 71.3328 213.9 70.5268C214.241 69.7207 214.733 68.9959 215.342 68.3862C215.951 67.7766 216.675 67.2843 217.481 66.9434C218.287 66.6024 219.171 66.415 220.101 66.415C221.03 66.415 221.915 66.6024 222.72 66.9434C223.526 67.2843 224.25 67.7766 224.86 68.3862C225.469 68.9959 225.961 69.7207 226.301 70.5268C226.642 71.3328 226.829 72.2179 226.829 73.1482Z" fill="#F2F3F7"/>
<path d="M217.407 70.1474L218.004 70.8271L218.605 71.5045L219.203 72.1818L219.803 72.8592L221.628 71.0935L223.454 69.3278L225.281 67.5621L227.107 65.7964L227.615 66.2999L228.125 66.8034L228.632 67.3047L229.142 67.8082L226.814 70.0752L224.485 72.3399L222.159 74.6046L219.83 76.8716L218.704 75.632L217.576 74.3924L216.448 73.1528L215.319 71.9132L215.841 71.4706L216.362 71.0303L216.883 70.59L217.407 70.1474Z" fill="#3B82F4"/>
<path d="M291.239 110.143H210.265C209.922 110.143 209.597 110.073 209.302 109.948C209.006 109.822 208.738 109.641 208.514 109.418C208.291 109.194 208.108 108.925 207.984 108.63C207.858 108.334 207.79 108.007 207.79 107.666V90.3539C207.79 90.0107 207.86 89.6856 207.984 89.3898C208.11 89.094 208.291 88.8253 208.514 88.6017C208.738 88.3782 209.006 88.1953 209.302 88.0711C209.597 87.9447 209.925 87.877 210.265 87.877H291.239C291.582 87.877 291.907 87.9469 292.203 88.0711C292.498 88.1976 292.767 88.3782 292.99 88.6017C293.214 88.8253 293.396 89.094 293.52 89.3898C293.647 89.6856 293.715 90.013 293.715 90.3539V107.666C293.715 108.009 293.645 108.334 293.52 108.63C293.394 108.925 293.214 109.194 292.99 109.418C292.767 109.641 292.498 109.824 292.203 109.948C291.907 110.075 291.58 110.143 291.239 110.143Z" fill="white"/>
<path d="M284.373 95.7325H237.784C237.705 95.7325 237.631 95.7167 237.563 95.6874C237.496 95.658 237.435 95.6174 237.383 95.5654C237.331 95.5135 237.29 95.4526 237.261 95.3848C237.232 95.3171 237.216 95.2426 237.216 95.1635V93.154C237.216 93.0749 237.232 93.0004 237.261 92.9327C237.29 92.8649 237.331 92.804 237.383 92.752C237.435 92.7001 237.496 92.6595 237.563 92.6301C237.631 92.6008 237.705 92.585 237.784 92.585H284.373C284.452 92.585 284.526 92.6008 284.594 92.6301C284.662 92.6595 284.722 92.7001 284.774 92.752C284.826 92.804 284.867 92.8649 284.896 92.9327C284.926 93.0004 284.941 93.0749 284.941 93.154V95.1635C284.941 95.2426 284.926 95.3171 284.896 95.3848C284.867 95.4526 284.826 95.5135 284.774 95.5654C284.722 95.6174 284.662 95.658 284.594 95.6874C284.526 95.7167 284.452 95.7325 284.373 95.7325Z" fill="#F2F3F7"/>
<path d="M284.373 100.651H237.784C237.705 100.651 237.631 100.635 237.563 100.605C237.496 100.576 237.435 100.535 237.383 100.483C237.331 100.431 237.29 100.371 237.261 100.303C237.232 100.235 237.216 100.161 237.216 100.081V98.0719C237.216 97.9929 237.232 97.9184 237.261 97.8506C237.29 97.7829 237.331 97.7219 237.383 97.67C237.435 97.6181 237.496 97.5774 237.563 97.5481C237.631 97.5187 237.705 97.5029 237.784 97.5029H284.373C284.452 97.5029 284.526 97.5187 284.594 97.5481C284.662 97.5774 284.722 97.6181 284.774 97.67C284.826 97.7219 284.867 97.7829 284.896 97.8506C284.926 97.9184 284.941 97.9929 284.941 98.0719V100.081C284.941 100.161 284.926 100.235 284.896 100.303C284.867 100.371 284.826 100.431 284.774 100.483C284.722 100.535 284.662 100.576 284.594 100.605C284.526 100.635 284.452 100.651 284.373 100.651Z" fill="#F2F3F7"/>
<path d="M260.678 105.568H237.619C237.563 105.568 237.511 105.557 237.464 105.536C237.416 105.516 237.373 105.487 237.335 105.451C237.297 105.414 237.27 105.372 237.249 105.322C237.229 105.272 237.218 105.22 237.218 105.166V102.822C237.218 102.766 237.229 102.714 237.249 102.667C237.27 102.619 237.299 102.576 237.335 102.538C237.371 102.499 237.414 102.472 237.464 102.452C237.513 102.432 237.565 102.42 237.619 102.42H260.678C260.734 102.42 260.786 102.432 260.833 102.452C260.881 102.472 260.924 102.502 260.962 102.538C261 102.574 261.028 102.617 261.048 102.667C261.068 102.716 261.079 102.768 261.079 102.822V105.166C261.079 105.223 261.068 105.274 261.048 105.322C261.028 105.369 260.998 105.412 260.962 105.451C260.926 105.489 260.883 105.516 260.833 105.536C260.786 105.557 260.732 105.568 260.678 105.568Z" fill="#F2F3F7"/>
<path d="M226.829 99.3206C226.829 100.251 226.642 101.136 226.301 101.942C225.961 102.748 225.469 103.473 224.86 104.083C224.25 104.692 223.526 105.184 222.72 105.525C221.915 105.866 221.03 106.054 220.101 106.054C219.171 106.054 218.287 105.866 217.481 105.525C216.675 105.184 215.951 104.692 215.342 104.083C214.733 103.473 214.241 102.748 213.9 101.942C213.559 101.136 213.372 100.251 213.372 99.3206C213.372 98.3903 213.559 97.5052 213.9 96.6991C214.241 95.893 214.733 95.1682 215.342 94.5586C215.951 93.9489 216.675 93.4567 217.481 93.1158C218.287 92.7748 219.171 92.5874 220.101 92.5874C221.03 92.5874 221.915 92.7748 222.72 93.1158C223.526 93.4567 224.25 93.9489 224.86 94.5586C225.469 95.1682 225.961 95.893 226.301 96.6991C226.642 97.5052 226.829 98.3903 226.829 99.3206Z" fill="#F2F3F7"/>
<path d="M217.407 96.3196L218.004 96.997L218.605 97.6744L219.203 98.3518L219.803 99.0291L221.628 97.2634L223.454 95.4977L225.281 93.732L227.107 91.9663L227.615 92.4698L228.125 92.9734L228.632 93.4769L229.142 93.9804L226.814 96.2451L224.485 98.5121L222.159 100.777L219.83 103.042L218.704 101.802L217.576 100.562L216.448 99.3227L215.319 98.0831L215.841 97.6428L216.362 97.2002L216.883 96.7599L217.407 96.3196Z" fill="#3B82F4"/>
<path d="M291.239 136.361H210.265C209.922 136.361 209.597 136.291 209.302 136.167C209.006 136.041 208.738 135.86 208.514 135.636C208.291 135.413 208.108 135.144 207.984 134.848C207.858 134.553 207.79 134.225 207.79 133.884V116.573C207.79 116.229 207.86 115.904 207.984 115.609C208.11 115.313 208.291 115.044 208.514 114.82C208.738 114.597 209.006 114.414 209.302 114.29C209.597 114.163 209.925 114.096 210.265 114.096H291.239C291.582 114.096 291.907 114.166 292.203 114.29C292.498 114.416 292.767 114.597 292.99 114.82C293.214 115.044 293.396 115.313 293.52 115.609C293.647 115.904 293.715 116.232 293.715 116.573V133.884C293.715 134.228 293.645 134.553 293.52 134.848C293.394 135.144 293.214 135.413 292.99 135.636C292.767 135.86 292.498 136.043 292.203 136.167C291.907 136.294 291.58 136.361 291.239 136.361Z" fill="white"/>
<path d="M284.373 121.951H237.784C237.705 121.951 237.631 121.935 237.563 121.906C237.496 121.877 237.435 121.836 237.383 121.784C237.331 121.732 237.29 121.671 237.261 121.604C237.232 121.536 237.216 121.461 237.216 121.382V119.373C237.216 119.294 237.232 119.219 237.261 119.151C237.29 119.084 237.331 119.023 237.383 118.971C237.435 118.919 237.496 118.878 237.563 118.849C237.631 118.82 237.705 118.804 237.784 118.804H284.373C284.452 118.804 284.526 118.82 284.594 118.849C284.662 118.878 284.722 118.919 284.774 118.971C284.826 119.023 284.867 119.084 284.896 119.151C284.926 119.219 284.941 119.294 284.941 119.373V121.382C284.941 121.461 284.926 121.536 284.896 121.604C284.867 121.671 284.826 121.732 284.774 121.784C284.722 121.836 284.662 121.877 284.594 121.906C284.526 121.935 284.452 121.951 284.373 121.951Z" fill="#F2F3F7"/>
<path d="M284.373 126.869H237.784C237.705 126.869 237.631 126.853 237.563 126.824C237.496 126.795 237.435 126.754 237.383 126.702C237.331 126.65 237.29 126.589 237.261 126.522C237.232 126.454 237.216 126.379 237.216 126.3V124.291C237.216 124.212 237.232 124.137 237.261 124.069C237.29 124.002 237.331 123.941 237.383 123.889C237.435 123.837 237.496 123.796 237.563 123.767C237.631 123.737 237.705 123.722 237.784 123.722H284.373C284.452 123.722 284.526 123.737 284.594 123.767C284.662 123.796 284.722 123.837 284.774 123.889C284.826 123.941 284.867 124.002 284.896 124.069C284.926 124.137 284.941 124.212 284.941 124.291V126.3C284.941 126.379 284.926 126.454 284.896 126.522C284.867 126.589 284.826 126.65 284.774 126.702C284.722 126.754 284.662 126.795 284.594 126.824C284.526 126.853 284.452 126.869 284.373 126.869Z" fill="#F2F3F7"/>
<path d="M260.678 131.787H237.619C237.563 131.787 237.511 131.775 237.464 131.755C237.416 131.735 237.373 131.705 237.335 131.669C237.297 131.633 237.27 131.59 237.249 131.541C237.229 131.491 237.218 131.439 237.218 131.385V129.041C237.218 128.985 237.229 128.933 237.249 128.885C237.27 128.838 237.299 128.795 237.335 128.757C237.371 128.718 237.414 128.691 237.464 128.671C237.513 128.65 237.565 128.639 237.619 128.639H260.678C260.734 128.639 260.786 128.65 260.833 128.671C260.881 128.691 260.924 128.72 260.962 128.757C261 128.793 261.028 128.836 261.048 128.885C261.068 128.935 261.079 128.987 261.079 129.041V131.385C261.079 131.441 261.068 131.493 261.048 131.541C261.028 131.588 260.998 131.631 260.962 131.669C260.926 131.708 260.883 131.735 260.833 131.755C260.786 131.775 260.732 131.787 260.678 131.787Z" fill="#F2F3F7"/>
<path d="M226.829 125.537C226.829 126.467 226.642 127.352 226.301 128.158C225.961 128.964 225.469 129.689 224.86 130.299C224.25 130.909 223.526 131.401 222.72 131.742C221.915 132.083 221.03 132.27 220.101 132.27C219.171 132.27 218.287 132.083 217.481 131.742C216.675 131.401 215.951 130.909 215.342 130.299C214.733 129.689 214.241 128.964 213.9 128.158C213.559 127.352 213.372 126.467 213.372 125.537C213.372 124.607 213.559 123.722 213.9 122.915C214.241 122.109 214.733 121.385 215.342 120.775C215.951 120.165 216.675 119.673 217.481 119.332C218.287 118.991 219.171 118.804 220.101 118.804C221.03 118.804 221.915 118.991 222.72 119.332C223.526 119.673 224.25 120.165 224.86 120.775C225.469 121.385 225.961 122.109 226.301 122.915C226.642 123.722 226.829 124.607 226.829 125.537Z" fill="#F2F3F7"/>
<path d="M217.407 122.536L218.004 123.216L218.605 123.893L219.203 124.571L219.803 125.248L221.628 123.482L223.454 121.716L225.281 119.951L227.107 118.185L227.615 118.689L228.125 119.192L228.632 119.696L229.142 120.199L226.814 122.464L224.485 124.729L222.159 126.996L219.83 129.26L218.704 128.021L217.576 126.781L216.448 125.541L215.319 124.302L215.841 123.859L216.362 123.419L216.883 122.979L217.407 122.536Z" fill="#3B82F4"/>
<path d="M291.239 162.581H210.265C209.922 162.581 209.597 162.511 209.302 162.386C209.006 162.26 208.738 162.079 208.514 161.856C208.291 161.632 208.108 161.363 207.984 161.068C207.858 160.772 207.79 160.445 207.79 160.104V142.792C207.79 142.449 207.86 142.124 207.984 141.828C208.11 141.532 208.291 141.263 208.514 141.04C208.738 140.816 209.006 140.633 209.302 140.509C209.597 140.383 209.925 140.315 210.265 140.315H291.239C291.582 140.315 291.907 140.385 292.203 140.509C292.498 140.636 292.767 140.816 292.99 141.04C293.214 141.263 293.396 141.532 293.52 141.828C293.647 142.124 293.715 142.451 293.715 142.792V160.104C293.715 160.447 293.645 160.772 293.52 161.068C293.394 161.363 293.214 161.632 292.99 161.856C292.767 162.079 292.498 162.262 292.203 162.386C291.907 162.513 291.58 162.581 291.239 162.581Z" fill="white"/>
<path d="M284.373 148.171H237.784C237.705 148.171 237.631 148.155 237.563 148.125C237.496 148.096 237.435 148.055 237.383 148.003C237.331 147.952 237.29 147.891 237.261 147.823C237.232 147.755 237.216 147.681 237.216 147.602V145.592C237.216 145.513 237.232 145.438 237.261 145.371C237.29 145.303 237.331 145.242 237.383 145.19C237.435 145.138 237.496 145.097 237.563 145.068C237.631 145.039 237.705 145.023 237.784 145.023H284.373C284.452 145.023 284.526 145.039 284.594 145.068C284.662 145.097 284.722 145.138 284.774 145.19C284.826 145.242 284.867 145.303 284.896 145.371C284.926 145.438 284.941 145.513 284.941 145.592V147.602C284.941 147.681 284.926 147.755 284.896 147.823C284.867 147.891 284.826 147.952 284.774 148.003C284.722 148.055 284.662 148.096 284.594 148.125C284.526 148.155 284.452 148.171 284.373 148.171Z" fill="#F2F3F7"/>
<path d="M284.373 153.088H237.784C237.705 153.088 237.631 153.073 237.563 153.043C237.496 153.014 237.435 152.973 237.383 152.921C237.331 152.869 237.29 152.808 237.261 152.741C237.232 152.673 237.216 152.599 237.216 152.519V150.51C237.216 150.431 237.232 150.356 237.261 150.289C237.29 150.221 237.331 150.16 237.383 150.108C237.435 150.056 237.496 150.015 237.563 149.986C237.631 149.957 237.705 149.941 237.784 149.941H284.373C284.452 149.941 284.526 149.957 284.594 149.986C284.662 150.015 284.722 150.056 284.774 150.108C284.826 150.16 284.867 150.221 284.896 150.289C284.926 150.356 284.941 150.431 284.941 150.51V152.519C284.941 152.599 284.926 152.673 284.896 152.741C284.867 152.808 284.826 152.869 284.774 152.921C284.722 152.973 284.662 153.014 284.594 153.043C284.526 153.073 284.452 153.088 284.373 153.088Z" fill="#F2F3F7"/>
<path d="M260.678 158.006H237.619C237.563 158.006 237.511 157.995 237.464 157.974C237.416 157.954 237.373 157.925 237.335 157.889C237.297 157.852 237.27 157.81 237.249 157.76C237.229 157.71 237.218 157.658 237.218 157.604V155.26C237.218 155.204 237.229 155.152 237.249 155.105C237.27 155.057 237.299 155.014 237.335 154.976C237.371 154.937 237.414 154.91 237.464 154.89C237.511 154.87 237.565 154.858 237.619 154.858H260.678C260.734 154.858 260.786 154.87 260.833 154.89C260.881 154.91 260.924 154.94 260.962 154.976C261 155.012 261.028 155.055 261.048 155.105C261.068 155.154 261.079 155.206 261.079 155.26V157.604C261.079 157.661 261.068 157.712 261.048 157.76C261.028 157.807 260.998 157.85 260.962 157.889C260.926 157.927 260.883 157.954 260.833 157.974C260.784 157.995 260.732 158.006 260.678 158.006Z" fill="#F2F3F7"/>
<path d="M226.829 151.756C226.829 152.686 226.642 153.572 226.301 154.378C225.961 155.184 225.469 155.908 224.86 156.518C224.25 157.128 223.526 157.62 222.72 157.961C221.915 158.302 221.03 158.489 220.101 158.489C219.171 158.489 218.287 158.302 217.481 157.961C216.675 157.62 215.951 157.128 215.342 156.518C214.733 155.908 214.241 155.184 213.9 154.378C213.559 153.572 213.372 152.686 213.372 151.756C213.372 150.826 213.559 149.941 213.9 149.135C214.241 148.329 214.733 147.604 215.342 146.994C215.951 146.384 216.675 145.892 217.481 145.551C218.287 145.21 219.171 145.023 220.101 145.023C221.03 145.023 221.915 145.21 222.72 145.551C223.526 145.892 224.25 146.384 224.86 146.994C225.469 147.604 225.961 148.329 226.301 149.135C226.642 149.941 226.829 150.826 226.829 151.756Z" fill="#F2F3F7"/>
<path d="M217.407 148.755L218.004 149.433L218.605 150.11L219.203 150.79L219.803 151.467L221.628 149.701L223.454 147.936L225.281 146.168L227.107 144.402L227.615 144.905L228.125 145.409L228.632 145.912L229.142 146.416L226.814 148.683L224.485 150.948L222.159 153.212L219.83 155.479L218.704 154.24L217.576 152.998L216.448 151.758L215.319 150.519L215.841 150.078L216.362 149.638L216.883 149.195L217.407 148.755Z" fill="#3B82F4"/>
<path d="M230.422 218.347H207.657H184.89H162.125H139.357V217.173V215.996V214.822V213.646H162.125H184.89H207.657H230.422V214.822V215.996V217.173V218.347Z" fill="#8197C9"/>
<path d="M70.2461 156.69C70.2461 156.69 72.6544 161.525 74.1979 165.441C75.7414 169.357 75.7085 171.284 75.7085 171.284H70.6214L70.2461 156.69Z" fill="#F9DD89"/>
<path d="M66.4994 264.342L69.9539 264.394C69.9539 264.394 75.6275 233.715 76.1513 227.451C76.6111 221.965 72.2605 197.949 70.9579 191.693C70.764 190.758 70.0884 189.996 69.1829 189.694C65.3219 188.406 54.9193 185.645 54.3188 193.026C53.5807 202.102 65.9724 228.143 65.9724 228.143C65.9724 228.143 63.0355 234.056 66.4994 264.342Z" fill="#39548B"/>
<path d="M61.248 217.404L63.9065 203.845C63.9065 203.845 66.8043 220.097 64.4398 224.803L61.248 217.404Z" fill="#343766"/>
<path d="M50.5674 262.652H55.0899L54.8257 265.639C54.8257 265.639 59.2826 265.058 60.5852 268.287H50.7785L50.5674 262.652Z" fill="#1F1949"/>
<path d="M66.168 262.652H70.3293L70.065 265.639C70.065 265.639 75.1865 265.058 76.1858 268.287H66.3791L66.168 262.652Z" fill="#1F1949"/>
<path d="M59.8888 227.207C60.5331 222.555 61.1774 217.905 61.8217 213.253C62.4566 208.669 63.0915 204.084 63.728 199.499C64.1409 196.525 64.5521 193.551 64.965 190.577C65.0479 189.98 65.2746 189.241 64.9681 188.795C64.8477 188.618 64.6428 188.486 64.3129 188.428C59.3493 187.541 54.2575 182.981 49.3846 184.032C46.9936 184.547 44.9105 191.496 44.823 194.171C44.3476 208.601 49.3346 226.248 49.3346 226.248C49.3346 226.248 46.2304 232.8 50.7796 262.652H54.9409L59.8888 227.207Z" fill="#39548B"/>
<path d="M56.88 153.938C56.88 153.938 49.7912 157.732 48.9405 162.253C48.4463 164.879 46.124 188.601 46.124 188.601L70.1084 188.997C70.1084 188.997 70.7745 164.028 70.59 162.83C70.4055 161.633 68.8213 155.159 68.8213 155.159C68.8213 155.159 64.4817 151.681 63.8765 151.681C63.2713 151.681 59.8778 152.143 56.88 153.938Z" fill="#F9DD89"/>
<path d="M70.1038 138.048C71.3063 139 72.0492 140.423 72.5339 141.878C73.7225 145.446 73.5364 149.307 73.3362 153.062C70.7277 153.189 68.2741 152.931 66.055 151.553C65.7688 147.985 65.7 144.292 65.7923 140.712C65.8064 140.174 65.847 139.579 66.2286 139.199C66.4773 138.95 66.8307 138.84 67.17 138.75C68.0114 138.529 69.2405 138.127 70.1038 138.048Z" fill="#343766"/>
<path d="M70.7734 140.726C70.7734 140.726 73.249 150.821 68.0805 150.362C62.9121 149.903 59.9706 143.841 61.869 140.128C63.7675 136.414 69.5677 134.06 70.7734 140.726Z" fill="#DA8C8D"/>
<mask id="mask1_503_6604" style="mask-type:luminance" maskUnits="userSpaceOnUse" x="61" y="136" width="11" height="15">
<path d="M70.7734 140.726C70.7734 140.726 73.249 150.821 68.0805 150.362C62.9121 149.903 59.9706 143.841 61.869 140.128C63.7675 136.414 69.5677 134.06 70.7734 140.726Z" fill="white"/>
</mask>
<g mask="url(#mask1_503_6604)">
<path d="M71.3658 142.172C71.3658 142.172 70.6433 145.249 64.2457 143.875L63.223 140.381L73.2314 137.944L71.3658 142.172Z" fill="#C17276"/>
</g>
<path d="M61.2963 142.171C61.2963 142.171 61.3823 146.388 60.4737 150.628C60.0437 152.638 61.0195 154.695 62.8648 155.598C63.7812 156.046 64.768 156.392 65.6437 156.401C68.1724 156.428 65.7016 145.426 65.7016 145.426L61.2963 142.171Z" fill="#DA8C8D"/>
<mask id="mask2_503_6604" style="mask-type:luminance" maskUnits="userSpaceOnUse" x="60" y="142" width="7" height="15">
<path d="M61.2963 142.171C61.2963 142.171 61.3823 146.388 60.4737 150.628C60.0437 152.638 61.0195 154.695 62.8648 155.598C63.7812 156.046 64.768 156.392 65.6437 156.401C68.1724 156.428 65.7016 145.426 65.7016 145.426L61.2963 142.171Z" fill="white"/>
</mask>
<g mask="url(#mask2_503_6604)">
<path d="M66.513 150.035C66.513 150.035 64.6365 149.478 64.2471 148.773C64.2471 148.773 65.1775 151.929 66.9556 152.045L66.513 150.035Z" fill="#C17276"/>
</g>
<path d="M70.36 139.523C68.9087 141.149 66.857 142.228 64.6958 142.502C63.4369 145.842 63.2759 149.486 64.2063 152.932C62.3063 153.399 60.2342 152.842 58.5766 151.801C56.9189 150.76 55.6366 149.199 54.6795 147.492C53.2784 144.99 56.3075 142.034 57.9057 139.653C58.8487 138.249 59.8558 136.801 61.332 135.976C62.6441 135.244 64.2048 135.082 65.706 135.165C66.9305 135.233 68.1863 135.469 69.198 136.161C70.2114 136.856 70.5617 138.313 70.36 139.523Z" fill="#343766"/>
<path d="M71.181 164.491C71.081 162.616 70.6478 158.927 70.4132 157.23C70.36 156.85 70.1833 156.497 69.9096 156.228L68.8197 155.158C69.3217 157.349 69.4045 162.633 69.4045 162.633H62.5816C62.6285 160.475 58.4734 153.112 58.4734 153.112L56.8783 153.938C56.8783 153.938 59.9387 159.298 60.4501 162.927C60.963 166.557 54.3184 193.024 54.3184 193.024C57.7275 194.027 71.425 194.027 71.425 194.027C71.425 194.027 71.228 165.388 71.181 164.491Z" fill="#39548B"/>
<path d="M57.3131 161.061L60.4517 175.713L49.5394 180.158C49.5394 180.158 46.8824 169.425 47.0357 165.282C47.1889 161.139 52.3855 157.118 52.3855 157.118L57.3131 161.061Z" fill="#F9DD89"/>
<path d="M84.9599 171.285H61.4307V195.069H84.9599V171.285Z" fill="#F1CA89"/>
<path d="M95.5893 171.285H84.96V195.069H95.5893V171.285Z" fill="#EFA856"/>
<path d="M75.7084 171.285H72.0068V174.99H75.7084V171.285Z" fill="#F2F3F7"/>
<path d="M92.5228 171.285H88.8213V174.99H92.5228V171.285Z" fill="#F2F3F7"/>
<path d="M51.3348 179.427L53.4288 184.241L46.8779 181.03L47.8006 172.036L49.5396 180.158L51.3348 179.427Z" fill="#F4C54E"/>
<path d="M59.3987 170.796L57.3125 161.059C57.3125 161.059 60.1118 164.254 60.143 166.622L59.3987 170.796Z" fill="#F4C54E"/>
<path d="M75.7931 193.845L61.248 183.638L59.4794 176.109L51.335 179.427C51.335 179.427 54.5971 187.333 55.526 188.105C56.4565 188.878 72.7359 195.069 72.7359 195.069C72.7359 195.069 73.5663 196.527 74.1949 196.668C76.1857 197.111 79.9545 195.069 79.9545 195.069L75.7931 193.845Z" fill="#DA8C8D"/>
<mask id="mask3_503_6604" style="mask-type:luminance" maskUnits="userSpaceOnUse" x="51" y="176" width="29" height="21">
<path d="M75.7931 193.845L61.248 183.638L59.4794 176.109L51.335 179.427C51.335 179.427 54.5971 187.333 55.526 188.105C56.4565 188.878 72.7359 195.069 72.7359 195.069C72.7359 195.069 73.5663 196.527 74.1949 196.668C76.1857 197.111 79.9545 195.069 79.9545 195.069L75.7931 193.845Z" fill="white"/>
</mask>
<g mask="url(#mask3_503_6604)">
<path d="M60.4519 176.562C60.4519 176.562 54.5813 181.944 51.9556 182.445L50.5811 179.003L60.1454 174.989L60.4519 176.562Z" fill="#C17276"/>
</g>
<path d="M167.032 198.858H118.516V256.952H167.032V198.858Z" fill="#B2BFDF"/>
<mask id="mask4_503_6604" style="mask-type:luminance" maskUnits="userSpaceOnUse" x="118" y="198" width="50" height="59">
<path d="M167.032 198.858H118.516V256.952H167.032V198.858Z" fill="white"/>
</mask>
<g mask="url(#mask4_503_6604)">
<path d="M115.288 212.114C116.85 211.723 163.23 212.114 163.23 212.114V256.954H116.694L115.288 212.114Z" fill="#8296C9"/>
</g>
<path d="M185.508 256.953H167.031V198.858L185.508 178.719V256.953Z" fill="#8296C9"/>
<path d="M190.1 262.729H96.1472C95.4029 262.729 94.8008 262.127 94.8008 261.382V258.301C94.8008 257.556 95.4029 256.954 96.1472 256.954H190.1C190.844 256.954 191.446 257.556 191.446 258.301V261.382C191.446 262.125 190.843 262.729 190.1 262.729Z" fill="#B2BFDF"/>
<path d="M185.658 262.729H100.588V268.288H185.658V262.729Z" fill="#343766"/>
<path d="M143.114 216.373H102.969V256.952H143.114V216.373Z" fill="#F1CA89"/>
<path d="M161.249 216.373H143.113V256.952H161.249V216.373Z" fill="#EFA856"/>
<path d="M127.329 216.373H121.013V222.695H127.329V216.373Z" fill="#F2F3F7"/>
<path d="M156.016 216.373H149.7V222.695H156.016V216.373Z" fill="#F2F3F7"/>
<path d="M185.508 178.719L167.032 198.858H118.516L138.343 178.719H185.508Z" fill="#39548B"/>
<path d="M151.682 195.706H127.45L140.597 181.874H164.827L151.682 195.706Z" fill="#343766"/>
<path d="M168.521 185.511H164.172L167.629 181.874H171.978L168.521 185.511Z" fill="#B2BFDF"/>
<path d="M163.676 190.607H159.327L162.786 186.97H167.135L163.676 190.607Z" fill="#B2BFDF"/>
<path d="M158.833 195.706H154.484L157.942 192.066H162.291L158.833 195.706Z" fill="#B2BFDF"/>
<path d="M174.228 185.511H169.879L173.337 181.874H177.685L174.228 185.511Z" fill="#B2BFDF"/>
<path d="M169.383 190.607H165.034L168.492 186.97H172.841L169.383 190.607Z" fill="#B2BFDF"/>
<path d="M164.538 195.706H160.189L163.649 192.066H167.998L164.538 195.706Z" fill="#B2BFDF"/>
<path d="M207.015 160.055L185.787 147.885L183.709 151.311C183.709 151.311 199.696 167.244 201.033 167.759C202.37 168.275 207.015 160.055 207.015 160.055Z" fill="#DA8C8D"/>
<mask id="mask5_503_6604" style="mask-type:luminance" maskUnits="userSpaceOnUse" x="183" y="147" width="25" height="21">
<path d="M207.015 160.055L185.787 147.885L183.709 151.311C183.709 151.311 199.696 167.244 201.033 167.759C202.37 168.275 207.015 160.055 207.015 160.055Z" fill="white"/>
</mask>
<g mask="url(#mask5_503_6604)">
<path d="M192.81 161.93L203.911 157.121L205.838 158.697L197.612 165.735L192.81 161.93Z" fill="#C17276"/>
</g>
<path d="M186.843 158.238L173.53 163.631C172.959 163.862 172.31 163.587 172.079 163.016L165.084 145.715C164.853 145.144 165.128 144.494 165.699 144.262L179.011 138.87C179.582 138.639 180.231 138.914 180.463 139.485L187.458 156.786C187.689 157.357 187.414 158.007 186.843 158.238Z" fill="#8296C9"/>
<path d="M179.321 140.594L166.683 145.713L173.234 161.917L185.872 156.799L179.321 140.594Z" fill="white"/>
<path d="M174.682 143.169L171.797 144.338C171.611 144.413 171.4 144.324 171.325 144.138L170.577 142.288L174.135 140.846L174.882 142.696C174.957 142.883 174.868 143.094 174.682 143.169Z" fill="#343766"/>
<path d="M171.791 146.006L169.071 147.108L170.104 149.663L172.824 148.562L171.791 146.006Z" fill="#CAD2EA"/>
<path d="M178.369 143.344L172.924 145.549L173.151 146.112L178.596 143.907L178.369 143.344Z" fill="#CAD2EA"/>
<path d="M178.771 144.34L173.326 146.545L173.554 147.108L178.999 144.903L178.771 144.34Z" fill="#CAD2EA"/>
<path d="M175.692 146.745L173.728 147.541L173.955 148.104L175.919 147.308L175.692 146.745Z" fill="#CAD2EA"/>
<path d="M173.214 149.527L170.494 150.629L171.527 153.184L174.247 152.083L173.214 149.527Z" fill="#CAD2EA"/>
<path d="M179.792 146.864L174.347 149.069L174.574 149.632L180.019 147.427L179.792 146.864Z" fill="#CAD2EA"/>
<path d="M180.193 147.861L174.748 150.066L174.976 150.629L180.421 148.424L180.193 147.861Z" fill="#CAD2EA"/>
<path d="M177.116 150.266L175.151 151.062L175.379 151.625L177.343 150.829L177.116 150.266Z" fill="#CAD2EA"/>
<path d="M174.637 153.049L171.917 154.151L172.95 156.706L175.67 155.605L174.637 153.049Z" fill="#CAD2EA"/>
<path d="M181.214 150.385L175.77 152.59L175.997 153.153L181.442 150.948L181.214 150.385Z" fill="#CAD2EA"/>
<path d="M181.618 151.381L176.173 153.586L176.4 154.149L181.845 151.944L181.618 151.381Z" fill="#CAD2EA"/>
<path d="M178.539 153.787L176.575 154.583L176.803 155.146L178.767 154.35L178.539 153.787Z" fill="#CAD2EA"/>
<path d="M176.06 156.571L173.341 157.673L174.374 160.228L177.093 159.127L176.06 156.571Z" fill="#CAD2EA"/>
<path d="M182.637 153.906L177.192 156.111L177.42 156.674L182.865 154.469L182.637 153.906Z" fill="#CAD2EA"/>
<path d="M183.041 154.9L177.596 157.105L177.823 157.668L183.268 155.463L183.041 154.9Z" fill="#CAD2EA"/>
<path d="M179.962 157.307L177.998 158.103L178.226 158.666L180.19 157.87L179.962 157.307Z" fill="#CAD2EA"/>
<path d="M185.789 147.884L183.357 146.643C183.357 146.643 180.299 149.683 180.427 149.761C180.555 149.839 181.37 149.971 181.947 149.761C182.525 149.551 184.178 148.672 184.178 148.672L184.881 150.406L185.789 147.884Z" fill="#DA8C8D"/>
<path d="M227.863 185.604L228.983 190.013C229.144 190.648 229.273 191.29 229.353 191.941C229.744 195.103 229.571 198.356 229.416 201.535C228.876 212.588 225.745 224.556 225.745 224.556L232.048 261.429L228.751 262.341C228.751 262.341 215.296 234.068 213.064 224.032C212.961 223.568 212.849 223.068 212.725 222.534L208.451 188.304L227.863 185.604Z" fill="#39548B"/>
<path d="M232.265 261.084L228.127 262L228.783 263.936C228.783 263.936 224.328 265.376 222.63 268.287L233.193 266.201L232.265 261.084Z" fill="#1F1949"/>
<path d="M225.967 187.89L225.892 193.297C225.842 196.845 225.441 200.384 224.634 203.842C222.118 214.618 216.89 225.829 216.89 225.829L216.47 263.235L213.064 263.54C213.064 263.54 204.903 233.307 204.509 223.033C204.491 222.559 204.469 222.045 204.445 221.499L206.386 187.058L225.967 187.89Z" fill="#39548B"/>
<path d="M216.747 262.934L212.512 263.091L212.81 265.113C212.81 265.113 208.169 265.728 205.977 268.287H216.743L216.747 262.934Z" fill="#1F1949"/>
<path d="M216.787 235.093L216.892 225.83C216.892 225.83 224.811 209.425 225.371 199.946C225.371 199.946 224.024 214.858 221.08 223.974L219.796 242.425L216.787 235.093Z" fill="#343766"/>
<path d="M213.562 135.617C216.408 129.2 222.833 133.365 223.771 137.582C224.184 139.438 223.306 141.453 221.752 143.055C221.363 145.377 221.017 148.477 221.275 151.309C221.275 151.309 217.178 153.3 214.688 152.696C213.31 152.361 214.278 149.008 215.417 146.076C214.877 146.108 214.336 146.086 213.801 146.001C208.613 145.175 213.562 135.617 213.562 135.617Z" fill="#DA8C8D"/>
<mask id="mask6_503_6604" style="mask-type:luminance" maskUnits="userSpaceOnUse" x="211" y="132" width="13" height="21">
<path d="M213.562 135.617C216.408 129.2 222.833 133.365 223.771 137.582C224.184 139.438 223.306 141.453 221.752 143.055C221.363 145.377 221.017 148.477 221.275 151.309C221.275 151.309 217.178 153.3 214.688 152.696C213.31 152.361 214.278 149.008 215.417 146.076C214.877 146.108 214.336 146.086 213.801 146.001C208.613 145.175 213.562 135.617 213.562 135.617Z" fill="white"/>
</mask>
<g mask="url(#mask6_503_6604)">
<path d="M212.148 145.157C212.209 145.222 215.426 145.136 216.757 144.487C216.757 144.487 216.343 145.896 214.766 146.378C213.192 146.863 212.148 145.157 212.148 145.157Z" fill="#C17276"/>
</g>
<path d="M205.922 186.801L205.29 175.755C204.885 168.674 206.277 161.571 209.55 155.28C211.264 151.986 213.337 149.239 215.585 148.883C221.576 147.933 224.514 152.889 225.094 156.781C225.674 160.674 227.06 186.801 227.06 186.801H204.474" fill="#F9DD89"/>
<path d="M225.427 157.021C225.299 154.677 224.379 152.434 222.776 150.722C220.643 148.445 214.46 147.227 212.134 151.249C212.134 151.249 221.277 151.311 220.712 160.743C220.36 166.622 218.526 173.764 204.802 176.268V194.353L206.284 194.674C213.336 196.203 220.703 195.103 227.003 191.581L229.654 190.099L225.427 157.021Z" fill="#39548B"/>
<mask id="mask7_503_6604" style="mask-type:luminance" maskUnits="userSpaceOnUse" x="204" y="148" width="26" height="48">
<path d="M225.427 157.021C225.299 154.677 224.379 152.434 222.776 150.722C220.643 148.445 214.46 147.227 212.134 151.249C212.134 151.249 221.277 151.311 220.712 160.743C220.36 166.622 218.526 173.764 204.802 176.268V194.353L206.284 194.674C213.336 196.203 220.703 195.103 227.003 191.581L229.654 190.099L225.427 157.021Z" fill="white"/>
</mask>
<g mask="url(#mask7_503_6604)">
<path d="M228.189 170.776L217.598 174.847L218.153 179.114L229.328 175.015L228.189 170.776Z" fill="white"/>
</g>
<mask id="mask8_503_6604" style="mask-type:luminance" maskUnits="userSpaceOnUse" x="204" y="148" width="26" height="48">
<path d="M225.427 157.021C225.299 154.677 224.379 152.434 222.776 150.722C220.643 148.445 214.46 147.227 212.134 151.249C212.134 151.249 221.277 151.311 220.712 160.743C220.36 166.622 218.526 173.764 204.802 176.268V194.353L206.284 194.674C213.336 196.203 220.703 195.103 227.003 191.581L229.654 190.099L225.427 157.021Z" fill="white"/>
</mask>
<g mask="url(#mask8_503_6604)">
<path d="M228.953 176.87L218.332 180.722L218.917 185.208L230.09 181.108L228.953 176.87Z" fill="white"/>
</g>
<path d="M205.96 194.605C205.96 194.605 211.901 196.07 217.226 195.347C222.551 194.624 229.08 190.42 229.08 190.42C229.08 190.42 220.389 197.863 215.204 198.354C210.018 198.846 205.835 196.805 205.835 196.805L205.96 194.605Z" fill="#343766"/>
<path d="M212.134 151.25L195.362 164.836L199.408 175.882C199.408 175.882 213.449 171.883 214.554 168.816C215.656 165.75 212.134 151.25 212.134 151.25Z" fill="#F9DD89"/>
<path d="M205.239 173.99C205.239 173.99 212.885 171.003 215.765 167.391C215.765 167.391 216.574 174.312 205.313 176.173L205.239 173.99Z" fill="#F4C54E"/>
<path d="M198.82 174.293L195.686 165.734L191.925 168.554L171.417 179.633C171.417 179.633 167.246 181.008 167.134 181.148C167.021 181.289 164.172 185.863 164.172 185.863C164.172 185.863 165.082 186.237 165.435 185.863C165.787 185.489 167.995 182.851 167.995 182.851C167.995 182.851 168.396 184.359 169.137 184.747C169.877 185.135 171.852 184.711 172.24 184.395C172.627 184.077 173.782 182.761 173.782 182.759C176.39 182.001 194.358 176.785 194.756 176.626C195.186 176.456 198.82 174.293 198.82 174.293Z" fill="#DA8C8D"/>
<mask id="mask9_503_6604" style="mask-type:luminance" maskUnits="userSpaceOnUse" x="164" y="165" width="35" height="22">
<path d="M198.82 174.293L195.686 165.734L191.925 168.554L171.417 179.633C171.417 179.633 167.246 181.008 167.134 181.148C167.021 181.289 164.172 185.863 164.172 185.863C164.172 185.863 165.082 186.237 165.435 185.863C165.787 185.489 167.995 182.851 167.995 182.851C167.995 182.851 168.396 184.359 169.137 184.747C169.877 185.135 171.852 184.711 172.24 184.395C172.627 184.077 173.782 182.761 173.782 182.759C176.39 182.001 194.358 176.785 194.756 176.626C195.186 176.456 198.82 174.293 198.82 174.293Z" fill="white"/>
</mask>
<g mask="url(#mask9_503_6604)">
<path d="M194.571 165.49C194.571 165.49 193.121 177.802 193.67 178.116C194.219 178.429 200.565 174.429 200.565 174.429L196.452 164.706L194.571 165.49Z" fill="#C17276"/>
</g>
<path d="M227.442 131.543C224.69 130.702 223.713 132.105 223.367 133.128C221.725 131.405 219.603 130.262 218.266 130.466C216.098 130.796 214.625 133.862 214.625 133.862C214.625 133.862 213.936 136.559 216.524 138.913C216.524 138.913 216.485 137.589 217.228 137.616C217.97 137.642 218.529 139.048 218.258 139.787C218.077 140.281 217.228 140.964 217.228 140.964L218.124 142.974C218.522 143.867 219.411 144.443 220.388 144.443H221.541C221.541 144.443 226.464 140.321 225.567 136.83C225.369 136.058 225.001 135.302 224.534 134.593C224.739 134.564 224.979 134.56 225.272 134.6C226.898 134.82 226.479 139.81 227.419 144.976C228.359 150.141 233.904 149.336 233.904 149.336C233.904 149.336 233.904 133.516 227.442 131.543Z" fill="#343766"/>
<path d="M216.912 131.614C216.912 131.614 215.837 130.455 213.936 130.662C212.034 130.869 210.092 135.916 210.092 135.916C210.092 135.916 213.812 135.461 215.301 134.426C216.79 133.392 216.912 131.614 216.912 131.614Z" fill="#343766"/>
<path d="M272.076 163.802C272.076 163.802 274.466 172.753 276.208 173.517L280.12 169.695L273.252 161.457L272.076 163.802Z" fill="#C17276"/>
<path d="M278.661 188.506C278.661 188.506 270.889 212.434 269.408 222.148C267.927 231.862 269.824 262.359 269.824 262.359L272.859 261.979L282.607 225.961L294.798 195.736L278.661 188.506Z" fill="#39548B"/>
<path d="M273.213 261.602L269.427 261.008L269.332 262.96C269.332 262.96 265.161 263.2 262.759 265.219L272.282 266.485L273.213 261.602Z" fill="#1F1949"/>
<path d="M305.507 190.148H305.095L305.108 190.031L289.726 190.093L287.729 224.61C287.538 234.434 293.429 264.417 293.429 264.417L296.388 263.639L301.316 226.65L302.879 211.548C308.304 198.917 305.507 190.148 305.507 190.148Z" fill="#39548B"/>
<path d="M296.711 263.109L292.88 263.104L293.085 265.046C293.085 265.046 289 265.923 286.936 268.287L296.541 268.075L296.711 263.109Z" fill="#1F1949"/>
<path d="M312.419 171.361C312.419 171.361 308.439 148.513 291.716 149.47C280.206 150.129 278.275 155.117 278.275 155.117C278.275 155.117 272.928 164.79 271.227 172.253L277.024 174.377L275.579 193.578C275.579 193.578 298.881 199.111 306.818 190.493L303.279 173.183L312.419 171.361Z" fill="#F9DD89"/>
<mask id="mask10_503_6604" style="mask-type:luminance" maskUnits="userSpaceOnUse" x="271" y="149" width="42" height="47">
<path d="M312.419 171.361C312.419 171.361 308.439 148.513 291.716 149.47C280.206 150.129 278.275 155.117 278.275 155.117C278.275 155.117 272.928 164.79 271.227 172.253L277.024 174.377L275.579 193.578C275.579 193.578 298.881 199.111 306.818 190.493L303.279 173.183L312.419 171.361Z" fill="white"/>
</mask>
<g mask="url(#mask10_503_6604)">
<path d="M289.505 154.234C289.505 154.234 282.415 165.954 272.361 165.449C272.361 165.449 274.724 151.773 281.844 149.443C288.966 147.112 291.715 149.472 291.715 149.472L289.505 154.234Z" fill="#F4C54E"/>
</g>
<mask id="mask11_503_6604" style="mask-type:luminance" maskUnits="userSpaceOnUse" x="271" y="149" width="42" height="47">
<path d="M312.419 171.361C312.419 171.361 308.439 148.513 291.716 149.47C280.206 150.129 278.275 155.117 278.275 155.117C278.275 155.117 272.928 164.79 271.227 172.253L277.024 174.377L275.579 193.578C275.579 193.578 298.881 199.111 306.818 190.493L303.279 173.183L312.419 171.361Z" fill="white"/>
</mask>
<g mask="url(#mask11_503_6604)">
<path d="M305.025 172.785L302.221 162.976C302.221 162.976 297.767 182.081 298.163 187.573C298.56 193.066 303.259 196.486 303.259 196.486L310.701 190.518L305.025 172.785Z" fill="#F4C54E"/>
</g>
<path d="M285.435 148.023C280.074 148.624 282.404 138.073 282.404 138.073C283.496 131.115 290.183 132.854 292.245 136.667C292.915 137.905 292.995 139.474 292.616 141.048C292.682 143.615 292.998 147.824 294.26 151.127C294.26 151.127 290.739 154.152 288.112 154.24C286.655 154.289 286.716 150.772 287.058 147.63C286.539 147.823 285.998 147.96 285.435 148.023Z" fill="#DA8C8D"/>
<mask id="mask12_503_6604" style="mask-type:luminance" maskUnits="userSpaceOnUse" x="281" y="133" width="14" height="22">
<path d="M285.435 148.023C280.074 148.624 282.404 138.073 282.404 138.073C283.496 131.115 290.183 132.854 292.245 136.667C292.915 137.905 292.995 139.474 292.616 141.048C292.682 143.615 292.998 147.824 294.26 151.127C294.26 151.127 290.739 154.152 288.112 154.24C286.655 154.289 286.716 150.772 287.058 147.63C286.539 147.823 285.998 147.96 285.435 148.023Z" fill="white"/>
</mask>
<g mask="url(#mask12_503_6604)">
<path d="M282.103 139.877C282.103 139.877 284.778 142.069 288.847 138.78C292.916 135.493 290.331 133.624 290.331 133.624L285.684 132.417L281.091 136.575L282.103 139.877Z" fill="#C17276"/>
</g>
<path d="M287.057 147.645C287.057 147.645 287.859 147.367 289.77 145.623C289.77 145.623 289.658 149.433 286.855 150.784C286.854 150.784 286.985 148.265 287.057 147.645Z" fill="#C17276"/>
<path d="M281.917 143.432C281.917 143.432 283.737 142.634 284.984 143.009C286.23 143.385 288.709 144.687 288.709 144.687L290.179 144.811L289.771 145.623C289.771 145.623 286.609 148.887 284.868 148.361C283.126 147.833 281.731 146.986 281.917 143.432Z" fill="#343766"/>
<path d="M282.851 144.587C282.851 144.587 284.097 144.946 285.02 144.838C285.02 144.838 284.681 145.62 283.581 145.564C282.48 145.509 282.851 144.587 282.851 144.587Z" fill="white"/>
<path d="M288.559 160.633H261.232V196.488H288.559V160.633Z" fill="#F1CA89"/>
<path d="M302.222 160.633H288.559V196.488H302.222V160.633Z" fill="#F1B873"/>
<path d="M279.868 160.633H273.602V169.433H279.868V160.633Z" fill="#F2F3F7"/>
<path d="M288.559 211.21L288.08 200.178L282.127 227.223L288.559 211.21Z" fill="#343766"/>
<path d="M311.015 171.642L302.753 173.219L303.887 179.53L292.629 195.355L285.982 196.487L287.918 197.565C288.854 198.086 289.905 198.36 290.974 198.367C291.547 198.37 292.195 198.357 292.813 198.307C294.48 198.174 296.978 196.485 296.978 196.485C296.978 196.485 312.356 181.989 312.42 180.693C312.483 179.399 311.015 171.642 311.015 171.642Z" fill="#DA8C8D"/>
<mask id="mask13_503_6604" style="mask-type:luminance" maskUnits="userSpaceOnUse" x="285" y="171" width="28" height="28">
<path d="M311.015 171.642L302.753 173.219L303.887 179.53L292.629 195.355L285.982 196.487L287.918 197.565C288.854 198.086 289.905 198.36 290.974 198.367C291.547 198.37 292.195 198.357 292.813 198.307C294.48 198.174 296.978 196.485 296.978 196.485C296.978 196.485 312.356 181.989 312.42 180.693C312.483 179.399 311.015 171.642 311.015 171.642Z" fill="white"/>
</mask>
<g mask="url(#mask13_503_6604)">
<path d="M312.42 172.709C312.42 172.709 306.81 176.697 302.74 177.65L301.007 172.015L311.226 169.431L312.42 172.709Z" fill="#C17276"/>
</g>
<path d="M282.438 131.969C282.438 131.969 286.857 126.96 291.368 129.954C296.79 133.554 293.506 137.313 293.506 137.313C293.506 137.313 285.565 133.559 282.438 131.969Z" fill="#F4C54E"/>
<path d="M292.246 136.667C292.246 136.667 279.701 128.968 277.559 131.477C275.416 133.984 282.406 138.073 282.406 138.073C282.406 138.073 282.287 132.216 292.246 136.667Z" fill="#F9DD89"/>
<path d="M286.466 135.008C286.466 135.008 288.78 134.99 293.505 137.314L292.765 143.788C291.961 143.54 290.851 143.692 290.538 142.911L289.975 141.327C289.975 141.327 291.278 139.044 290.335 138.533C288.724 137.663 289.01 139.804 289.01 139.804C289.01 139.804 286.186 137.341 286.466 135.008Z" fill="#343766"/>
<path d="M263.226 196.486C263.931 196.486 269.24 196.486 269.24 196.486C269.24 196.486 266.319 197.928 264.772 197.631C263.815 197.446 263.226 196.486 263.226 196.486Z" fill="#DA8C8D"/>
<path d="M328.394 268.6H11.6056C11.2716 268.6 11 268.393 11 268.139C11 267.884 11.2716 267.677 11.6056 267.677H328.394C328.728 267.677 329 267.884 329 268.139C329 268.393 328.728 268.6 328.394 268.6Z" fill="#343766"/>
</svg>
