<svg width="32" height="32" viewBox="0 0 32 32" fill="none" xmlns="http://www.w3.org/2000/svg">
<g id="Group">
<path id="Path" fill-rule="evenodd" clip-rule="evenodd" d="M28.0051 10.7832V25.3372C28.0051 26.8106 26.8107 28.005 25.3373 28.005H6.6629C5.18953 28.005 3.99512 26.8106 3.99512 25.3372V10.7832C3.99461 10.4214 4.06768 10.0633 4.20988 9.73072L5.97061 5.61034C6.39161 4.62973 7.35647 3.99435 8.42363 3.995H23.5766C24.6447 3.995 25.6099 4.63216 26.0296 5.61434L27.7904 9.73072C27.9324 10.0634 28.0054 10.4214 28.0051 10.7832Z" stroke="#AF0000" stroke-width="2.5" stroke-linecap="round" stroke-linejoin="round"/>
<path id="Path_2" d="M3.99512 10.6644H27.9918" stroke="#AF0000" stroke-width="2.5" stroke-linecap="round" stroke-linejoin="round"/>
<path id="Path_3" d="M18.6675 3.995L20.0014 10.6644V14.9662C19.9684 15.5677 19.4558 16.0295 18.8542 16H13.1452C12.5436 16.0295 12.0311 15.5677 11.998 14.9662V10.6644L13.3319 3.995" stroke="#AF0000" stroke-width="2.5" stroke-linecap="round" stroke-linejoin="round"/>
<path id="Path_4" d="M7.99609 24.0032H10.6639" stroke="#AF0000" stroke-width="2.5" stroke-linecap="round" stroke-linejoin="round"/>
</g>
</svg>
