<svg width="30" height="31" viewBox="0 0 30 31" fill="none" xmlns="http://www.w3.org/2000/svg">
<path d="M4.84697 15.227C6.53224 16.1983 8.21448 17.1678 9.92518 18.1539V12.3231C9.8842 12.3405 9.836 12.3556 9.7935 12.3797C9.24705 12.6889 8.70022 12.9985 8.1549 13.3099C7.07756 13.9253 6.00021 14.541 4.92476 15.1598C4.85987 15.1972 4.81699 15.1968 4.7521 15.1598C3.47363 14.4312 2.1925 13.7067 0.913651 12.9785C0.624487 12.8139 0.339497 12.6414 0.0575426 12.4647C0.0226304 12.4428 -0.00772809 12.3684 0.00175893 12.3276C0.352399 10.7972 0.858626 9.32336 1.60886 7.93712C2.31583 6.63053 3.17118 5.43304 4.23828 4.39223C4.50012 4.13702 4.78701 3.90712 5.06593 3.66248C6.6791 4.59684 8.28658 5.5278 9.91721 6.47197C9.91721 6.35683 9.91759 6.26547 9.91721 6.17411C9.91493 5.84227 9.91076 5.51006 9.91 5.17822C9.90734 4.26916 9.90469 3.36009 9.90431 2.45103C9.90431 1.96441 9.91076 1.47817 9.90962 0.991549C9.90962 0.888865 9.9563 0.845073 10.0474 0.817514C10.9577 0.542304 11.8784 0.307488 12.821 0.173847C13.9803 0.00924902 15.1438 -0.0470011 16.3145 0.042093C17.5455 0.135717 18.7424 0.378839 19.9044 0.794485C19.9541 0.812229 20.0065 0.829594 20.0474 0.860928C20.0748 0.881692 20.0991 0.926616 20.0991 0.960593C20.0991 1.49251 20.0941 2.02406 20.0915 2.55598C20.0858 3.80821 20.0793 5.06081 20.0774 6.31304C20.0774 6.41761 20.0414 6.47272 19.9503 6.52444C19.2949 6.89517 18.6434 7.27193 17.991 7.64794C17.2108 8.09718 16.431 8.54756 15.6512 8.99756C15.4679 9.10327 15.2838 9.20784 15.1005 9.31468C15.069 9.33317 15.0413 9.35771 15.025 9.37017C13.3333 8.39655 11.6469 7.42596 9.94188 6.44479V12.3216C11.6541 11.3416 13.3397 10.3766 15.0243 9.41245C16.7084 10.3804 18.3933 11.3491 20.0877 12.3231C20.0877 12.8954 20.0877 13.4798 20.0877 14.0642C20.0877 15.3923 20.0869 16.7204 20.0911 18.0482C20.0911 18.1407 20.0395 18.1746 19.9772 18.2097C19.5534 18.451 19.1276 18.6896 18.7045 18.9323C17.7136 19.5009 16.724 20.0717 15.7335 20.6413C15.488 20.7825 15.2417 20.9226 15.0117 21.0543C13.3265 20.0868 11.642 19.1196 9.93505 18.1399V23.9888C9.99311 23.962 10.0375 23.9457 10.0777 23.9223C11.2234 23.2658 12.369 22.6093 13.5139 21.9517C13.9799 21.684 14.4448 21.4149 14.9078 21.1427C14.97 21.1061 15.0178 21.097 15.0819 21.134C15.4777 21.3635 15.8751 21.5904 16.2728 21.8177C17.2647 22.3843 18.2571 22.9506 19.249 23.5173C19.5052 23.6637 19.7625 23.8083 20.016 23.959C20.0478 23.9778 20.0763 24.0273 20.0793 24.0647C20.0892 24.1847 20.0877 24.3059 20.0884 24.4263C20.0975 26.0296 20.1063 27.6326 20.1146 29.2359C20.1154 29.3911 20.0903 29.4348 19.9571 29.4707C19.3109 29.6451 18.6688 29.8403 18.0153 29.9834C16.8446 30.2393 15.6576 30.3465 14.4573 30.2907C13.3174 30.2374 12.1983 30.0532 11.0959 29.7648C10.7339 29.67 10.3749 29.5624 10.014 29.4639C9.93998 29.4435 9.91493 29.4088 9.91569 29.3299C9.92784 28.123 9.9377 26.9157 9.94491 25.7087C9.94795 25.1848 9.94378 24.6608 9.94188 24.1368C9.94188 24.0967 9.93391 24.0564 9.92632 23.9861C8.33022 24.8956 6.75196 25.7948 5.1718 26.6952C4.18819 25.8745 3.32563 24.9326 2.58109 23.8827C1.75192 22.7135 1.11364 21.4473 0.659779 20.0924C0.456756 19.4865 0.303446 18.864 0.127367 18.2486C0.126229 18.2449 0.12547 18.2415 0.124711 18.2377C0.0670296 17.9949 0.0651322 17.9919 0.287128 17.8643C1.19181 17.3433 2.09725 16.8231 3.00383 16.3048C3.59165 15.9684 4.18136 15.6358 4.76956 15.3002C4.79764 15.2844 4.81851 15.2557 4.84925 15.227H4.84697Z" fill="#F57C00"/>
<path d="M25.0446 3.67468C25.5056 4.13941 25.9925 4.58941 26.4312 5.08207C27.2406 5.99075 27.9184 6.99419 28.4884 8.06974C29.1221 9.26609 29.5805 10.5251 29.8773 11.8438C29.9152 12.0125 29.9562 12.1809 29.9949 12.3497C30.0101 12.4165 29.9873 12.4618 29.9243 12.498C29.3646 12.8219 28.8086 13.1526 28.2474 13.4739C27.4106 13.9534 26.5701 14.4264 25.7318 14.9032C25.5838 14.9874 25.4389 15.0768 25.292 15.1629C25.2229 15.2033 25.1599 15.2112 25.0814 15.1659C23.9854 14.5302 22.8872 13.8979 21.7894 13.2651C21.252 12.9556 20.7136 12.6475 20.1774 12.3349C20.1462 12.3168 20.1166 12.2666 20.1159 12.2307C20.1064 11.7973 20.0973 11.364 20.0977 10.9306C20.098 9.96903 20.1037 9.00712 20.1075 8.04558C20.1094 7.55556 20.1128 7.06554 20.111 6.57553C20.111 6.49776 20.1333 6.45321 20.2024 6.41433C21.0073 5.96282 21.811 5.50904 22.614 5.05413C23.2789 4.67737 23.9418 4.29796 24.6059 3.92007C24.7433 3.84192 24.8822 3.76566 25.0442 3.67468H25.0446Z" fill="#F57C00"/>
<path d="M20.1126 21.0132C20.1126 20.1041 20.1141 19.1951 20.1104 18.286C20.11 18.186 20.1419 18.1309 20.2291 18.081C21.3748 17.4249 22.5182 16.7642 23.6627 16.1059C24.1446 15.8284 24.6273 15.552 25.1119 15.2795C25.1461 15.2602 25.2102 15.2595 25.2443 15.2787C25.4986 15.4203 25.7487 15.5694 26.0007 15.7151C27.2973 16.4653 28.5936 17.2161 29.893 17.9629C29.9799 18.0127 29.9825 18.0678 29.9655 18.1467C29.759 19.0984 29.4832 20.0286 29.104 20.9279C28.7356 21.8022 28.3018 22.6437 27.7751 23.4335C27.0124 24.5766 26.1096 25.6023 25.08 26.5159C24.858 26.713 24.8584 26.7099 24.6007 26.5597C23.2084 25.748 21.8146 24.9386 20.4234 24.1251C20.0709 23.919 20.1141 24.0096 20.113 23.5939C20.1111 22.7339 20.1126 21.8736 20.113 21.0136L20.1126 21.0132Z" fill="#F57C00"/>
<path d="M25.75 15.5C25.75 21.1501 20.9481 25.75 15 25.75C9.05185 25.75 4.25 21.1501 4.25 15.5C4.25 9.84991 9.05185 5.25 15 5.25C20.9481 5.25 25.75 9.84991 25.75 15.5Z" stroke="white" stroke-width="0.5"/>
</svg>
