<svg xmlns="http://www.w3.org/2000/svg" width="40" height="39" viewBox="0 0 40 39" fill="none">
  <g clip-path="url(#clip0_949_1212)">
    <path d="M21.1787 0.771818C20.1713 -0.257273 18.5365 -0.257273 17.5292 0.771818L0.377748 18.2938C-0.125916 18.8083 -0.125916 19.6434 0.377748 20.1579C0.881412 20.6725 1.69883 20.6725 2.2025 20.1579L19.3539 2.63599L36.5053 20.1579C37.009 20.6725 37.8264 20.6725 38.3301 20.1579C38.8337 19.6434 38.8337 18.8083 38.3301 18.2938L32.2572 12.0897V3.40781C32.2572 2.68027 31.6792 2.08981 30.9671 2.08981H28.3868C27.6747 2.08981 27.0967 2.68027 27.0967 3.40781V6.81562L21.1787 0.771818Z" fill="#140097"/>
    <path d="M19.3545 5.49976L31.5147 17.9226C31.3331 17.9142 31.1514 17.91 30.9677 17.91C24.5542 17.91 19.3545 23.222 19.3545 29.7741C19.3545 32.2139 20.0749 34.4809 21.3093 36.364H7.74342C5.60491 36.364 3.87305 34.5948 3.87305 32.4101V21.3178L19.3545 5.49976Z" fill="#140097"/>
    <path d="M30.9665 39.0001C35.9557 39.0001 39.9994 34.869 39.9994 29.772C39.9994 24.6751 35.9557 20.5439 30.9665 20.5439C25.9774 20.5439 21.9336 24.6751 21.9336 29.772C21.9336 34.869 25.9774 39.0001 30.9665 39.0001Z" fill="#2F78F1"/>
    <path d="M28.3896 24.0589C28.54 23.9804 28.7206 23.9804 28.8711 24.0589L32.9054 26.1614C32.9954 26.2084 33.0517 26.2999 33.0517 26.3999C33.0517 26.4999 32.9954 26.5914 32.9054 26.6384L28.76 28.7985C28.6787 28.841 28.5815 28.841 28.5001 28.7985L24.3671 26.6439C24.2959 26.6069 24.2386 26.5454 24.2182 26.4689C24.1849 26.3439 24.2448 26.2189 24.3553 26.1614L28.3896 24.0589Z" fill="#140097"/>
    <path d="M33.2107 27.4239V32.319C33.2107 32.4265 33.1401 32.522 33.0357 32.556L28.6053 34L24.175 32.557C24.0706 32.523 24 32.4275 24 32.32V27.4249C24 27.2344 24.2098 27.1139 24.3802 27.2064L28.6053 29.4999L32.8305 27.2059C33.0009 27.1129 33.2107 27.2334 33.2107 27.4239Z" fill="#140097"/>
    <path d="M35.6333 28.0353C35.7236 27.9882 35.832 27.9882 35.9223 28.0353L38.3428 29.2968C38.3969 29.325 38.4306 29.3799 38.4306 29.4399C38.4306 29.5 38.3969 29.5549 38.3428 29.5831L35.8556 30.8791C35.8068 30.9046 35.7485 30.9046 35.6997 30.8791L33.2198 29.5864C33.1772 29.5642 33.1428 29.5273 33.1305 29.4813C33.1105 29.4063 33.1465 29.3313 33.2128 29.2968L35.6333 28.0353Z" fill="#140097"/>
    <path d="M38.5264 30.0543V32.9914C38.5264 33.0559 38.484 33.1132 38.4214 33.1336L35.7632 34L33.105 33.1342C33.0424 33.1138 33 33.0565 33 32.992V30.0549C33 29.9406 33.1259 29.8683 33.2281 29.9238L35.7632 31.3L38.2983 29.9235C38.4005 29.8677 38.5264 29.94 38.5264 30.0543Z" fill="#140097"/>
  </g>
  <defs>
    <clipPath id="clip0_949_1212">
      <rect width="40" height="39" fill="white"/>
    </clipPath>
  </defs>
</svg>