<svg xmlns="http://www.w3.org/2000/svg" width="39" height="41" viewBox="0 0 39 41" fill="none">
  <g clip-path="url(#clip0_923_1207)">
    <path d="M17.3707 0.241876C17.966 -0.0799742 18.6808 -0.0799742 19.2761 0.241876L35.2397 8.86213C35.5961 9.05483 35.8188 9.42998 35.8188 9.83998C35.8188 10.25 35.5961 10.6251 35.2397 10.8178L18.8367 19.6738C18.5147 19.8481 18.13 19.8481 17.8081 19.6738L1.45362 10.8404C1.17217 10.6887 0.945392 10.4365 0.864399 10.1229C0.732786 9.61038 0.96969 9.09788 1.40705 8.86213L17.3707 0.241876Z" fill="#2F78F1"/>
    <path d="M36.4467 14.0382V34.1077C36.4467 34.5484 36.1673 34.94 35.7542 35.0794L18.2234 40.9998L0.692487 35.0835C0.279425 34.9441 0 34.5525 0 34.1118V14.0423C0 13.2612 0.830175 12.7672 1.50444 13.1464L18.2234 22.5498L34.9423 13.1444C35.6165 12.7631 36.4467 13.2571 36.4467 14.0382Z" fill="#140097"/>
    <path d="M30.9453 41C35.3939 41 39.0001 37.3489 39.0001 32.8451C39.0001 28.3412 35.3939 24.6902 30.9453 24.6902C26.4968 24.6902 22.8906 28.3412 22.8906 32.8451C22.8906 37.3489 26.4968 41 30.9453 41ZM34.8087 30.5306L31.735 35.7171C31.158 36.6929 29.8276 36.8569 29.0339 36.0533L27.2541 34.2514C26.8046 33.7963 26.8046 33.0583 27.2541 32.6032C27.7036 32.1481 28.4325 32.1481 28.8821 32.6032L30.1415 33.8783L32.8365 29.3334C33.1625 28.782 33.8712 28.6036 34.4159 28.9337C34.9606 29.2637 35.1367 29.9812 34.8107 30.5327L34.8087 30.5306Z" fill="#2F78F1"/>
  </g>
  <defs>
    <clipPath id="clip0_923_1207">
      <rect width="39" height="41" fill="white"/>
    </clipPath>
  </defs>
</svg>