<svg xmlns="http://www.w3.org/2000/svg" width="49" height="43" viewBox="0 0 49 43" fill="none">
  <path d="M17.6677 6.80652C18.3496 5.44277 19.5816 4 21.5 4C23.4184 4 24.6504 5.44277 25.3323 6.80652C26.0358 8.2136 26.375 9.92712 26.375 11.3125L26.375 20.3093L38.9789 26.6112C40.2176 27.2305 41 28.4966 41 29.8815V33.25C41 33.6083 40.8424 33.9484 40.569 34.1799C40.2957 34.4115 39.9343 34.5111 39.5809 34.4522L26.1581 32.215L25.2428 37.7067L28.4555 40.9195C28.8041 41.268 28.9084 41.7922 28.7197 42.2476C28.5311 42.7031 28.0867 43 27.5938 43L15.4063 43C14.9133 43 14.4689 42.7031 14.2803 42.2476C14.0916 41.7922 14.1959 41.268 14.5445 40.9195L17.7572 37.7067L16.8419 32.215L3.41911 34.4522C3.06573 34.5111 2.70434 34.4115 2.43098 34.1799C2.15763 33.9484 2 33.6083 2 33.25L2 29.8815C2 28.4966 2.78245 27.2305 4.02112 26.6112L16.625 20.3093V11.3125C16.625 9.92712 16.9642 8.2136 17.6677 6.80652Z" fill="#140097"/>
  <path d="M35.9438 30.0001C42.7252 30.0001 48.2216 24.5037 48.2216 17.7224C48.2216 10.941 42.7252 5.44458 35.9438 5.44458C29.1624 5.44458 23.666 10.941 23.666 17.7224C23.666 24.5037 29.1624 30.0001 35.9438 30.0001Z" fill="#2F78F1"/>
  <path d="M32.4421 10.2221C32.6466 10.1154 32.8921 10.1154 33.0966 10.2221L38.58 13.0799C38.7025 13.1438 38.779 13.2682 38.779 13.4041C38.779 13.54 38.7025 13.6644 38.58 13.7283L32.9456 16.6642C32.8351 16.722 32.7029 16.722 32.5923 16.6642L26.9746 13.7358C26.8779 13.6855 26.8 13.6019 26.7722 13.4979C26.727 13.328 26.8084 13.1581 26.9586 13.0799L32.4421 10.2221Z" fill="#140097"/>
  <path d="M38.9939 14.7957V21.4492C38.9939 21.5953 38.898 21.7251 38.7561 21.7713L32.7343 23.7341L26.7125 21.7727C26.5706 21.7265 26.4746 21.5967 26.4746 21.4505V14.7971C26.4746 14.5381 26.7598 14.3743 26.9914 14.5001L32.7343 17.6175L38.4772 14.4994C38.7088 14.373 38.9939 14.5368 38.9939 14.7957Z" fill="#140097"/>
  <path d="M42.2864 15.6269C42.409 15.5629 42.5564 15.5629 42.679 15.6269L45.9691 17.3416C46.0426 17.3799 46.0885 17.4545 46.0885 17.5361C46.0885 17.6176 46.0426 17.6922 45.9691 17.7306L42.5885 19.4922C42.5221 19.5268 42.4428 19.5268 42.3765 19.4922L39.0059 17.7351C38.9479 17.7049 38.9011 17.6547 38.8844 17.5923C38.8573 17.4904 38.9061 17.3885 38.9963 17.3416L42.2864 15.6269Z" fill="#140097"/>
  <path d="M46.2186 18.3712V22.3633C46.2186 22.4509 46.161 22.5288 46.0759 22.5565L42.4628 23.7342L38.8498 22.5574C38.7646 22.5296 38.707 22.4518 38.707 22.3641V18.372C38.707 18.2166 38.8781 18.1183 39.0171 18.1938L42.4628 20.0642L45.9086 18.1934C46.0475 18.1175 46.2186 18.2158 46.2186 18.3712Z" fill="#140097"/>
</svg>