<svg width="22" height="18" viewBox="0 0 22 18" fill="none" xmlns="http://www.w3.org/2000/svg">
<path d="M21.2188 2.34375H0.78125C0.59375 2.34375 0.5 2.25 0.5 2.0625V0.9375C0.5 0.796875 0.59375 0.65625 0.78125 0.65625H21.2188C21.3594 0.65625 21.5 0.796875 21.5 0.9375V2.0625C21.5 2.25 21.3594 2.34375 21.2188 2.34375ZM21.2188 9.84375H0.78125C0.59375 9.84375 0.5 9.75 0.5 9.5625V8.4375C0.5 8.29688 0.59375 8.15625 0.78125 8.15625H21.2188C21.3594 8.15625 21.5 8.29688 21.5 8.4375V9.5625C21.5 9.75 21.3594 9.84375 21.2188 9.84375ZM21.2188 17.3438H0.78125C0.59375 17.3438 0.5 17.25 0.5 17.0625V15.9375C0.5 15.7969 0.59375 15.6562 0.78125 15.6562H21.2188C21.3594 15.6562 21.5 15.7969 21.5 15.9375V17.0625C21.5 17.25 21.3594 17.3438 21.2188 17.3438Z" fill="#00194F"/>
</svg>
