<svg width="48" height="48" viewBox="0 0 48 48" fill="none" xmlns="http://www.w3.org/2000/svg">
<path d="M24 20.0078C26.4609 20.0078 28.4922 22.0391 28.4922 24.5C28.4922 27 26.4609 28.9922 24 28.9922C21.5 28.9922 19.5078 27 19.5078 24.5C19.5078 22.0391 21.5 20.0078 24 20.0078ZM24 27.4297C25.6016 27.4297 26.8906 26.1406 26.8906 24.5C26.8906 22.8984 25.6016 21.6094 24 21.6094C22.3594 21.6094 21.0703 22.8984 21.0703 24.5C21.0703 26.1406 22.3984 27.4297 24 27.4297ZM29.7031 19.8516C29.7031 19.2656 29.2344 18.7969 28.6484 18.7969C28.0625 18.7969 27.5938 19.2656 27.5938 19.8516C27.5938 20.4375 28.0625 20.9062 28.6484 20.9062C29.2344 20.9062 29.7031 20.4375 29.7031 19.8516ZM32.6719 20.9062C32.75 22.3516 32.75 26.6875 32.6719 28.1328C32.5938 29.5391 32.2812 30.75 31.2656 31.8047C30.25 32.8203 29 33.1328 27.5938 33.2109C26.1484 33.2891 21.8125 33.2891 20.3672 33.2109C18.9609 33.1328 17.75 32.8203 16.6953 31.8047C15.6797 30.75 15.3672 29.5391 15.2891 28.1328C15.2109 26.6875 15.2109 22.3516 15.2891 20.9062C15.3672 19.5 15.6797 18.25 16.6953 17.2344C17.75 16.2188 18.9609 15.9062 20.3672 15.8281C21.8125 15.75 26.1484 15.75 27.5938 15.8281C29 15.9062 30.25 16.2188 31.2656 17.2344C32.2812 18.25 32.5938 19.5 32.6719 20.9062ZM30.7969 29.6562C31.2656 28.5234 31.1484 25.7891 31.1484 24.5C31.1484 23.25 31.2656 20.5156 30.7969 19.3438C30.4844 18.6016 29.8984 17.9766 29.1562 17.7031C27.9844 17.2344 25.25 17.3516 24 17.3516C22.7109 17.3516 19.9766 17.2344 18.8438 17.7031C18.0625 18.0156 17.4766 18.6016 17.1641 19.3438C16.6953 20.5156 16.8125 23.25 16.8125 24.5C16.8125 25.7891 16.6953 28.5234 17.1641 29.6562C17.4766 30.4375 18.0625 31.0234 18.8438 31.3359C19.9766 31.8047 22.7109 31.6875 24 31.6875C25.25 31.6875 27.9844 31.8047 29.1562 31.3359C29.8984 31.0234 30.5234 30.4375 30.7969 29.6562Z" fill="#262626"/>
<rect x="0.5" y="0.5" width="47" height="47" rx="23.5" stroke="#262626"/>
</svg>
