<svg width="48" height="48" viewBox="0 0 48 48" fill="none" xmlns="http://www.w3.org/2000/svg">
<path d="M31 22.5625C29.5938 22.5938 28.2812 22.1562 27.1562 21.3438V26.9375C27.1562 30.8438 22.9062 33.2812 19.5312 31.3438C16.1562 29.375 16.1562 24.5 19.5312 22.5312C20.5 21.9688 21.6562 21.75 22.7812 21.9062V24.7188C21.0625 24.1562 19.4062 25.6875 19.7812 27.4375C20.1875 29.1875 22.3125 29.875 23.6562 28.6562C24.125 28.2188 24.4062 27.5938 24.4062 26.9375V16H27.1562C27.1562 16.25 27.1562 16.4688 27.2188 16.7188C27.4062 17.75 28 18.6562 28.9062 19.2188C29.5 19.625 30.25 19.8438 31 19.8438V22.5625Z" fill="#262626"/>
<rect x="0.5" y="0.5" width="47" height="47" rx="23.5" stroke="#262626"/>
</svg>
