<svg width="48" height="48" viewBox="0 0 48 48" fill="none" xmlns="http://www.w3.org/2000/svg">
<path d="M30.3438 20.75C30.3438 20.9062 30.3438 21.0312 30.3438 21.1875C30.3438 25.5312 27.0625 30.5 21.0312 30.5C19.1562 30.5 17.4375 29.9688 16 29.0312C16.25 29.0625 16.5 29.0938 16.7812 29.0938C18.3125 29.0938 19.7188 28.5625 20.8438 27.6875C19.4062 27.6562 18.1875 26.7188 17.7812 25.4062C18 25.4375 18.1875 25.4688 18.4062 25.4688C18.6875 25.4688 19 25.4062 19.25 25.3438C17.75 25.0312 16.625 23.7188 16.625 22.125V22.0938C17.0625 22.3438 17.5938 22.4688 18.125 22.5C17.2188 21.9062 16.6562 20.9062 16.6562 19.7812C16.6562 19.1562 16.8125 18.5938 17.0938 18.125C18.7188 20.0938 21.1562 21.4062 23.875 21.5625C23.8125 21.3125 23.7812 21.0625 23.7812 20.8125C23.7812 19 25.25 17.5312 27.0625 17.5312C28 17.5312 28.8438 17.9062 29.4688 18.5625C30.1875 18.4062 30.9062 18.125 31.5312 17.75C31.2812 18.5312 30.7812 19.1562 30.0938 19.5625C30.75 19.5 31.4062 19.3125 31.9688 19.0625C31.5312 19.7188 30.9688 20.2812 30.3438 20.75Z" fill="#262626"/>
<rect x="0.5" y="0.5" width="47" height="47" rx="23.5" stroke="#262626"/>
</svg>
