<svg width="48" height="48" viewBox="0 0 48 48" fill="none" xmlns="http://www.w3.org/2000/svg">
<path d="M32.1562 19.9062C32.5312 21.2188 32.5312 24.0312 32.5312 24.0312C32.5312 24.0312 32.5312 26.8125 32.1562 28.1562C31.9688 28.9062 31.375 29.4688 30.6562 29.6562C29.3125 30 24 30 24 30C24 30 18.6562 30 17.3125 29.6562C16.5938 29.4688 16 28.9062 15.8125 28.1562C15.4375 26.8125 15.4375 24.0312 15.4375 24.0312C15.4375 24.0312 15.4375 21.2188 15.8125 19.9062C16 19.1562 16.5938 18.5625 17.3125 18.375C18.6562 18 24 18 24 18C24 18 29.3125 18 30.6562 18.375C31.375 18.5625 31.9688 19.1562 32.1562 19.9062ZM22.25 26.5625L26.6875 24.0312L22.25 21.5V26.5625Z" fill="#262626"/>
<rect x="0.5" y="0.5" width="47" height="47" rx="23.5" stroke="#262626"/>
</svg>
