<svg width="64" height="65" viewBox="0 0 64 65" fill="none" xmlns="http://www.w3.org/2000/svg">
<rect y="0.829102" width="64" height="64" rx="12" fill="url(#paint0_linear_33390_161144)"/>
<path d="M22.88 47.6191C22.3805 47.6164 21.9023 47.4161 21.55 47.062C21.1977 46.7078 21 46.2286 21 45.7291V20.3491C21 19.7364 21.2434 19.1489 21.6766 18.7156C22.1098 18.2824 22.6973 18.0391 23.31 18.0391H40.69C40.9934 18.0391 41.2937 18.0988 41.574 18.2149C41.8543 18.331 42.1089 18.5011 42.3234 18.7156C42.5379 18.9301 42.7081 19.1848 42.8242 19.4651C42.9403 19.7453 43 20.0457 43 20.3491V45.7291C43.0008 46.0369 42.9261 46.3402 42.7823 46.6124C42.6385 46.8846 42.4301 47.1173 42.1753 47.2901C41.9206 47.4629 41.6273 47.5705 41.3212 47.6034C41.0152 47.6364 40.7057 47.5937 40.42 47.4791L32.37 44.2591C32.1383 44.1697 31.8817 44.1697 31.65 44.2591L23.58 47.4791C23.3577 47.5698 23.1201 47.6173 22.88 47.6191ZM32 42.1891C32.3766 42.1894 32.7498 42.2606 33.1 42.3991L41 45.5591V20.3491C41 20.2668 40.9673 20.188 40.9092 20.1299C40.8511 20.0717 40.7722 20.0391 40.69 20.0391H23.31C23.2278 20.0391 23.1489 20.0717 23.0908 20.1299C23.0327 20.188 23 20.2668 23 20.3491V45.5591L30.9 42.3991C31.2502 42.2606 31.6234 42.1894 32 42.1891Z" fill="white"/>
<path d="M40.69 19.0391H23.31C22.9626 19.0391 22.6294 19.1771 22.3837 19.4228C22.138 19.6684 22 20.0016 22 20.3491V45.7291C21.9993 45.8735 22.0342 46.0159 22.1016 46.1437C22.1689 46.2715 22.2667 46.3807 22.3863 46.4618C22.5059 46.5428 22.6436 46.5932 22.7873 46.6084C22.9309 46.6236 23.0761 46.6032 23.21 46.5491L31.26 43.3291C31.7322 43.1425 32.2578 43.1425 32.73 43.3291L40.78 46.5491C40.9144 46.6054 41.0607 46.6274 41.2057 46.6132C41.3508 46.599 41.49 46.5491 41.6109 46.4678C41.7319 46.3865 41.8308 46.2764 41.8987 46.1475C41.9666 46.0186 42.0014 45.8748 42 45.7291V20.3491C42 20.0016 41.862 19.6684 41.6163 19.4228C41.3706 19.1771 41.0374 19.0391 40.69 19.0391ZM36 27.8291H28C27.7348 27.8291 27.4804 27.7237 27.2929 27.5362C27.1054 27.3486 27 27.0943 27 26.8291C27 26.5638 27.1054 26.3095 27.2929 26.122C27.4804 25.9344 27.7348 25.8291 28 25.8291H36C36.2652 25.8291 36.5196 25.9344 36.7071 26.122C36.8947 26.3095 37 26.5638 37 26.8291C37 27.0943 36.8947 27.3486 36.7071 27.5362C36.5196 27.7237 36.2652 27.8291 36 27.8291Z" fill="white"/>
<defs>
<linearGradient id="paint0_linear_33390_161144" x1="32" y1="65.2485" x2="32" y2="1.15486" gradientUnits="userSpaceOnUse">
<stop stop-color="#FF7400"/>
<stop offset="1" stop-color="#FFAB52"/>
</linearGradient>
</defs>
</svg>
