<svg width="64" height="65" viewBox="0 0 64 65" fill="none" xmlns="http://www.w3.org/2000/svg">
<rect y="0.829102" width="64" height="64" rx="12" fill="url(#paint0_linear_33387_161618)"/>
<path d="M46.6743 31.4324H34.275C32.8382 31.4324 31.694 30.1553 31.8803 28.7184L33.6364 14.8291H47.3129L49.069 28.7184C49.2286 30.1553 48.1111 31.4324 46.6743 31.4324Z" fill="white"/>
<path d="M40.4741 22.7854C39.2501 22.7854 38.2656 21.8009 38.2656 20.577V17.3574H38.9308V20.577C38.9308 21.4284 39.6226 22.1202 40.4741 22.1202C41.3255 22.1202 42.0173 21.4284 42.0173 20.577V17.3574H42.6825V20.577C42.6825 21.7743 41.698 22.7854 40.4741 22.7854Z" fill="#CACACA"/>
<path d="M45.9021 42.5275H45.37V38.6161H36.749V38.084H45.9021V42.5275Z" fill="#C8CED2"/>
<path d="M40.714 29.0898V42.6067C40.714 44.2297 39.3836 45.5601 37.7605 45.5601H17.8578C16.2347 45.5601 14.9043 44.2297 14.9043 42.6067V29.0898H40.714Z" fill="#E4E4E4"/>
<path d="M40.714 29.0917V27.6815C40.714 25.8455 39.2239 24.3555 37.388 24.3555H18.2303C16.3943 24.3555 14.9043 25.8455 14.9043 27.6815V29.0917H40.714Z" fill="#CACACA"/>
<path d="M18.3632 27.574C18.8334 27.574 19.2146 27.1928 19.2146 26.7225C19.2146 26.2523 18.8334 25.8711 18.3632 25.8711C17.8929 25.8711 17.5117 26.2523 17.5117 26.7225C17.5117 27.1928 17.8929 27.574 18.3632 27.574Z" fill="#E7EDF2"/>
<path d="M20.9179 27.574C21.3881 27.574 21.7693 27.1928 21.7693 26.7225C21.7693 26.2523 21.3881 25.8711 20.9179 25.8711C20.4476 25.8711 20.0664 26.2523 20.0664 26.7225C20.0664 27.1928 20.4476 27.574 20.9179 27.574Z" fill="#E7EDF2"/>
<path d="M23.4716 27.574C23.9418 27.574 24.323 27.1928 24.323 26.7225C24.323 26.2523 23.9418 25.8711 23.4716 25.8711C23.0013 25.8711 22.6201 26.2523 22.6201 26.7225C22.6201 27.1928 23.0013 27.574 23.4716 27.574Z" fill="#E7EDF2"/>
<path d="M37.8397 30.6875H17.7773V38.0047H37.8397V30.6875Z" fill="white"/>
<path d="M23.3118 39.1221H17.7773V43.1665H23.3118V39.1221Z" fill="white"/>
<path d="M30.5764 39.1221H25.042V43.1665H30.5764V39.1221Z" fill="white"/>
<path d="M37.8665 39.1221H32.332V43.1665H37.8665V39.1221Z" fill="white"/>
<path d="M21.5555 35.7174L20.1719 34.3338L21.5555 32.9502L21.9812 33.3759L21.0233 34.3338L21.9812 35.2917L21.5555 35.7174Z" fill="#C8CED2"/>
<path d="M34.0615 35.7174L33.6357 35.2917L34.6202 34.3338L33.6357 33.3759L34.0615 32.9502L35.4717 34.3338L34.0615 35.7174Z" fill="#C8CED2"/>
<path d="M45.6358 50.8292C43.72 50.8292 42.1768 49.2859 42.1768 47.3702V43.7249C42.1768 42.8202 42.9218 42.0752 43.8264 42.0752H47.4451C48.3498 42.0752 49.0948 42.8202 49.0948 43.7249V47.3968C49.0682 49.2859 47.5249 50.8292 45.6358 50.8292Z" fill="white"/>
<path d="M45.6364 45.1626C45.4236 45.1626 45.2373 44.9764 45.2373 44.7635V43.779C45.2373 43.5661 45.4236 43.3799 45.6364 43.3799C45.8493 43.3799 46.0355 43.5661 46.0355 43.779V44.7635C46.0355 44.9764 45.8493 45.1626 45.6364 45.1626Z" fill="#C8CED2"/>
<defs>
<linearGradient id="paint0_linear_33387_161618" x1="32" y1="65.2485" x2="32" y2="1.15486" gradientUnits="userSpaceOnUse">
<stop stop-color="#FF7400"/>
<stop offset="1" stop-color="#FFAB52"/>
</linearGradient>
</defs>
</svg>
