<svg width="64" height="65" viewBox="0 0 64 65" fill="none" xmlns="http://www.w3.org/2000/svg">
<g clip-path="url(#clip0_33387_161394)">
<rect y="0.829102" width="64" height="64" rx="12" fill="url(#paint0_linear_33387_161394)"/>
<g clip-path="url(#clip1_33387_161394)">
<path d="M19.0188 18.153C18.6509 18.1652 18.3564 18.4731 18.3564 18.8422V51.3351C18.3564 51.7905 18.7858 52.1228 19.2277 52.0059L43.6555 45.4396C43.9563 45.3596 44.1709 45.0826 44.1709 44.7688V40.4796L42.7046 39.0086L41.1096 42.3749L37.9809 33.1994L44.1709 35.3226V25.4085C44.1709 25.0947 43.9563 24.824 43.6555 24.744L19.2277 18.1777C19.16 18.1593 19.0865 18.1467 19.0193 18.153H19.0188ZM38.6926 28.8611C38.9566 28.8548 39.1771 29.058 39.1896 29.3228L39.2815 31.3966C39.2936 31.6614 39.0789 31.8826 38.8154 31.8889C38.5515 31.8952 38.3247 31.6857 38.3126 31.4213L38.2265 29.3538C38.2144 29.089 38.4291 28.8678 38.6926 28.8615V28.8611ZM41.8643 30.3626C41.987 30.3563 42.1157 30.4058 42.2138 30.4917C42.4039 30.6764 42.4222 30.9777 42.2385 31.1746L40.8276 32.6698C40.6435 32.8667 40.3432 32.873 40.1469 32.6883C39.9506 32.5098 39.9385 32.2018 40.116 32.0112L41.5331 30.5097C41.6191 30.4175 41.7415 30.3622 41.8643 30.3622V30.3626ZM35.5151 30.5658C35.6379 30.5595 35.7666 30.6027 35.8585 30.6953L37.3983 32.1231C37.5946 32.3016 37.6067 32.6091 37.423 32.8001C37.2451 32.997 36.9381 33.0033 36.7422 32.8185L35.2086 31.3907C35.0123 31.2123 35.0002 30.9048 35.1781 30.7137C35.27 30.6153 35.3928 30.5658 35.5156 30.5658H35.5151ZM36.0794 33.7968C36.3433 33.7905 36.5701 34 36.5822 34.2648C36.5885 34.5296 36.3797 34.7508 36.1161 34.7571L34.0304 34.8065C33.7665 34.8128 33.5397 34.6096 33.5276 34.3448C33.5213 34.08 33.7301 33.8525 33.9937 33.8462L36.0794 33.7968ZM37.2141 35.3046C37.3369 35.2983 37.4656 35.3415 37.5637 35.4341C37.7537 35.6126 37.7721 35.9201 37.5884 36.1111L36.1775 37.6127C35.9934 37.8033 35.6931 37.8159 35.4968 37.6311C35.3005 37.4526 35.2884 37.1451 35.4663 36.9541L36.8834 35.4525C36.9694 35.3541 37.0918 35.3046 37.2146 35.3046H37.2141ZM44.1705 37.748L43.7721 37.9386L44.1705 38.3387V37.748Z" fill="#FAE5D0"/>
<path d="M35.521 13.5187C34.466 13.5065 33.6194 14.331 33.0243 15.4635C32.7482 15.9926 32.5214 16.6081 32.3372 17.2851L23.0616 14.7927C22.994 14.7743 22.9205 14.7621 22.8532 14.768C22.4853 14.7802 22.1904 15.0881 22.1904 15.4572V47.9506C22.1904 48.406 22.6202 48.7382 23.0616 48.6213L47.4895 42.055C47.7902 41.975 48.0049 41.6981 48.0049 41.3843V22.0235C48.0049 21.7097 47.7902 21.439 47.4895 21.359L38.9933 19.0757C38.883 17.9617 38.6437 16.9466 38.2937 16.0848C37.7541 14.7374 36.895 13.6729 35.7356 13.5313C35.6684 13.525 35.5945 13.5191 35.521 13.5191V13.5187ZM35.607 14.6817C35.6375 14.6817 35.6684 14.6817 35.6989 14.688C36.1896 14.7496 36.7848 15.3156 37.2387 16.448C37.4964 17.0882 37.699 17.8821 37.8155 18.7556L33.4724 17.5863C33.6319 17.014 33.8282 16.497 34.0492 16.0726C34.5462 15.1187 35.1288 14.688 35.6074 14.6817H35.607ZM32.8835 18.7925C33.2882 18.7925 33.6194 19.1 33.6194 19.4817C33.6194 19.8634 33.2882 20.1646 32.8835 20.1646C32.4788 20.1646 32.1413 19.8566 32.1413 19.4817C32.1413 19.1067 32.4725 18.7925 32.8835 18.7925ZM38.5335 19.9618C38.9386 19.9618 39.2698 20.2693 39.2698 20.6447C39.2698 21.0201 38.9386 21.3276 38.5335 21.3276C38.1283 21.3276 37.7976 21.0201 37.7976 20.6447C37.7976 20.2693 38.1225 19.9618 38.5335 19.9618ZM37.9813 33.1991L47.1279 36.3375L43.7725 37.9375L46.8397 41.0143L45.7722 42.0852L42.7049 39.0079L41.1099 42.3743L37.9813 33.1987V33.1991Z" fill="white"/>
</g>
</g>
<defs>
<linearGradient id="paint0_linear_33387_161394" x1="32" y1="65.2485" x2="32" y2="1.15486" gradientUnits="userSpaceOnUse">
<stop stop-color="#FF7400"/>
<stop offset="1" stop-color="#FFAB52"/>
</linearGradient>
<clipPath id="clip0_33387_161394">
<rect y="0.829102" width="64" height="64" rx="12" fill="white"/>
</clipPath>
<clipPath id="clip1_33387_161394">
<rect width="64" height="64" fill="white" transform="translate(0 0.829102)"/>
</clipPath>
</defs>
</svg>
