<svg width="64" height="65" viewBox="0 0 64 65" fill="none" xmlns="http://www.w3.org/2000/svg">
<rect y="0.829102" width="64" height="64" rx="12" fill="url(#paint0_linear_33390_161134)"/>
<path d="M32 26.9229C35.6244 26.9229 38.5625 23.9847 38.5625 20.3604C38.5625 16.736 35.6244 13.7979 32 13.7979C28.3756 13.7979 25.4375 16.736 25.4375 20.3604C25.4375 23.9847 28.3756 26.9229 32 26.9229Z" fill="#E4E4E4"/>
<path d="M32 20.3604C33.4497 20.3604 34.625 19.1851 34.625 17.7354C34.625 16.2856 33.4497 15.1104 32 15.1104C30.5503 15.1104 29.375 16.2856 29.375 17.7354C29.375 19.1851 30.5503 20.3604 32 20.3604Z" fill="white"/>
<path d="M37.8176 23.3866C36.0904 22.2534 34.0663 21.6572 32.0006 21.6732C29.9371 21.6734 27.9175 22.2685 26.1836 23.3873C26.7363 24.453 27.5711 25.3464 28.5969 25.97C29.6227 26.5936 30.8001 26.9234 32.0006 26.9234C33.2011 26.9234 34.3785 26.5936 35.4043 25.97C36.4301 25.3464 37.2649 24.4523 37.8176 23.3866Z" fill="white"/>
<path d="M43.8125 32.1729H32.6562V28.2354C32.6562 28.0613 32.5871 27.8944 32.464 27.7713C32.341 27.6482 32.174 27.5791 32 27.5791C31.826 27.5791 31.659 27.6482 31.536 27.7713C31.4129 27.8944 31.3438 28.0613 31.3438 28.2354V32.1729H20.1875C19.3176 32.1739 18.4836 32.5199 17.8685 33.1351C17.2533 33.7502 16.9073 34.5842 16.9062 35.4541V37.4229C16.9062 37.5969 16.9754 37.7638 17.0985 37.8869C17.2215 38.01 17.3885 38.0791 17.5625 38.0791C17.7365 38.0791 17.9035 38.01 18.0265 37.8869C18.1496 37.7638 18.2188 37.5969 18.2188 37.4229V35.4541C18.2188 34.932 18.4262 34.4312 18.7954 34.062C19.1646 33.6928 19.6654 33.4854 20.1875 33.4854H31.3438V37.4334C31.3438 37.6074 31.4129 37.7743 31.536 37.8974C31.659 38.0205 31.826 38.0896 32 38.0896C32.174 38.0896 32.341 38.0205 32.464 37.8974C32.5871 37.7743 32.6562 37.6074 32.6562 37.4334V33.4854H43.8125C44.3346 33.4854 44.8354 33.6928 45.2046 34.062C45.5738 34.4312 45.7812 34.932 45.7812 35.4541V37.4229C45.7812 37.5969 45.8504 37.7638 45.9735 37.8869C46.0965 38.01 46.2635 38.0791 46.4375 38.0791C46.6115 38.0791 46.7785 38.01 46.9015 37.8869C47.0246 37.7638 47.0938 37.5969 47.0938 37.4229V35.4541C47.0927 34.5842 46.7467 33.7502 46.1315 33.1351C45.5164 32.5199 44.6824 32.1739 43.8125 32.1729Z" fill="white"/>
<path d="M32 51.8604C35.6244 51.8604 38.5625 48.9222 38.5625 45.2979C38.5625 41.6735 35.6244 38.7354 32 38.7354C28.3756 38.7354 25.4375 41.6735 25.4375 45.2979C25.4375 48.9222 28.3756 51.8604 32 51.8604Z" fill="#E4E4E4"/>
<path d="M32 45.2979C33.4497 45.2979 34.625 44.1226 34.625 42.6729C34.625 41.2231 33.4497 40.0479 32 40.0479C30.5503 40.0479 29.375 41.2231 29.375 42.6729C29.375 44.1226 30.5503 45.2979 32 45.2979Z" fill="white"/>
<path d="M37.8176 48.3241C36.0904 47.1909 34.0663 46.5947 32.0006 46.6107C29.9371 46.6109 27.9175 47.206 26.1836 48.3248C26.7363 49.3905 27.5711 50.2839 28.5969 50.9075C29.6227 51.5311 30.8001 51.8609 32.0006 51.8609C33.2011 51.8609 34.3785 51.5311 35.4043 50.9075C36.4301 50.2839 37.2649 49.3898 37.8176 48.3241Z" fill="white"/>
<path d="M17.5625 51.8604C21.1869 51.8604 24.125 48.9222 24.125 45.2979C24.125 41.6735 21.1869 38.7354 17.5625 38.7354C13.9381 38.7354 11 41.6735 11 45.2979C11 48.9222 13.9381 51.8604 17.5625 51.8604Z" fill="#E4E4E4"/>
<path d="M17.5625 45.2979C19.0122 45.2979 20.1875 44.1226 20.1875 42.6729C20.1875 41.2231 19.0122 40.0479 17.5625 40.0479C16.1128 40.0479 14.9375 41.2231 14.9375 42.6729C14.9375 44.1226 16.1128 45.2979 17.5625 45.2979Z" fill="white"/>
<path d="M23.3801 48.3241C21.6529 47.1909 19.6288 46.5947 17.5631 46.6107C15.4996 46.6109 13.48 47.206 11.7461 48.3248C12.2988 49.3905 13.1336 50.2839 14.1594 50.9075C15.1852 51.5311 16.3626 51.8609 17.5631 51.8609C18.7636 51.8609 19.941 51.5311 20.9668 50.9075C21.9926 50.2839 22.8274 49.3898 23.3801 48.3241Z" fill="white"/>
<path d="M46.4375 51.8604C50.0619 51.8604 53 48.9222 53 45.2979C53 41.6735 50.0619 38.7354 46.4375 38.7354C42.8131 38.7354 39.875 41.6735 39.875 45.2979C39.875 48.9222 42.8131 51.8604 46.4375 51.8604Z" fill="#E4E4E4"/>
<path d="M46.4375 45.2979C47.8872 45.2979 49.0625 44.1226 49.0625 42.6729C49.0625 41.2231 47.8872 40.0479 46.4375 40.0479C44.9878 40.0479 43.8125 41.2231 43.8125 42.6729C43.8125 44.1226 44.9878 45.2979 46.4375 45.2979Z" fill="white"/>
<path d="M52.2551 48.3241C50.5279 47.1909 48.5038 46.5947 46.4381 46.6107C44.3746 46.6109 42.355 47.206 40.6211 48.3248C41.1738 49.3905 42.0086 50.2839 43.0344 50.9075C44.0602 51.5311 45.2376 51.8609 46.4381 51.8609C47.6386 51.8609 48.816 51.5311 49.8418 50.9075C50.8676 50.2839 51.7024 49.3898 52.2551 48.3241Z" fill="white"/>
<defs>
<linearGradient id="paint0_linear_33390_161134" x1="32" y1="65.2485" x2="32" y2="1.15486" gradientUnits="userSpaceOnUse">
<stop stop-color="#FF7400"/>
<stop offset="1" stop-color="#FFAB52"/>
</linearGradient>
</defs>
</svg>
