<svg width="64" height="65" viewBox="0 0 64 65" fill="none" xmlns="http://www.w3.org/2000/svg">
<rect y="0.829102" width="64" height="64" rx="12" fill="url(#paint0_linear_33390_161114)"/>
<path d="M27.4381 30.1069H27.4729C27.5563 30.1017 27.6375 30.078 27.7105 30.0375C27.7836 29.9971 27.8467 29.9408 27.8954 29.8729C28.2909 29.32 28.796 28.8543 29.3792 28.5049C29.4513 28.4621 29.5128 28.4038 29.5594 28.3341C29.606 28.2645 29.6365 28.1853 29.6485 28.1024C29.6606 28.0195 29.654 27.9349 29.6292 27.8549C29.6044 27.7748 29.5621 27.7014 29.5052 27.6398L21.4896 18.9537C21.4263 18.885 21.347 18.8332 21.2587 18.8029C21.1704 18.7726 21.076 18.7648 20.9839 18.7801C20.8919 18.7954 20.805 18.8333 20.7313 18.8905C20.6575 18.9477 20.5992 19.0224 20.5615 19.1078C20.4361 19.3918 20.2538 19.6471 20.026 19.858C19.7982 20.0689 19.5296 20.2309 19.2368 20.334C19.1484 20.3645 19.069 20.4164 19.0058 20.4852C18.9426 20.554 18.8974 20.6375 18.8746 20.7281C18.8517 20.8187 18.8517 20.9136 18.8747 21.0042C18.8977 21.0948 18.9429 21.1782 19.0062 21.247L27.0218 29.9263C27.0748 29.9837 27.1392 30.0294 27.2109 30.0605C27.2826 30.0915 27.3599 30.1074 27.4381 30.1069ZM36.3385 30.2217C36.3814 30.2932 36.4397 30.3543 36.5092 30.4005C36.5787 30.4467 36.6575 30.4769 36.7401 30.4888C36.7667 30.4931 36.7936 30.4952 36.8206 30.495C36.9613 30.4951 37.097 30.4423 37.2008 30.3471L43.8552 24.244C43.9202 24.1847 43.9705 24.111 44.0019 24.0289C44.0333 23.9467 44.045 23.8582 44.036 23.7707C44.0271 23.6832 43.9977 23.599 43.9502 23.5249C43.9028 23.4507 43.8387 23.3888 43.7629 23.344C43.2017 23.0096 42.7517 22.5171 42.4692 21.9282C42.4309 21.8493 42.3747 21.7805 42.3051 21.7272C42.2355 21.6739 42.1544 21.6376 42.0683 21.6212C41.9822 21.6048 41.8934 21.6087 41.8091 21.6327C41.7248 21.6567 41.6473 21.7001 41.5827 21.7594L34.9216 27.8642C34.8598 27.9208 34.8114 27.9905 34.78 28.0681C34.7486 28.1458 34.735 28.2294 34.74 28.313C34.7451 28.3967 34.7688 28.4781 34.8093 28.5514C34.8499 28.6247 34.9063 28.688 34.9744 28.7367C35.525 29.1341 35.9891 29.6394 36.3385 30.2217ZM30.475 37.659C29.8212 37.4544 29.2174 37.1153 28.7026 36.6634C28.6393 36.6082 28.5645 36.5678 28.4836 36.5453C28.4027 36.5228 28.3178 36.5186 28.2351 36.5332C28.1524 36.5478 28.074 36.5807 28.0057 36.6295C27.9374 36.6783 27.8808 36.7418 27.8402 36.8153C26.0644 40.0215 24.6829 42.5691 23.734 44.3871C23.69 44.4714 23.6681 44.5654 23.6703 44.6604C23.6726 44.7555 23.6988 44.8484 23.7467 44.9305C23.7945 45.0127 23.8624 45.0813 23.944 45.1301C24.0256 45.1789 24.1182 45.2062 24.2132 45.2095C24.5229 45.2207 24.8269 45.296 25.106 45.4305C25.3851 45.5651 25.6333 45.7561 25.8349 45.9913C25.8877 46.0533 25.9534 46.103 26.0273 46.1371C26.1012 46.1712 26.1816 46.1888 26.263 46.1888C26.2837 46.1888 26.3043 46.1876 26.3249 46.1854C26.4161 46.1753 26.5034 46.1431 26.5793 46.0915C26.6552 46.04 26.7173 45.9706 26.7602 45.8895C27.6535 44.1992 29.1261 41.4942 30.7996 38.4679C30.8399 38.3949 30.8635 38.3139 30.8687 38.2306C30.8739 38.1474 30.8604 38.064 30.8294 37.9866C30.7984 37.9092 30.7506 37.8396 30.6894 37.783C30.6282 37.7263 30.5551 37.684 30.4756 37.659H30.475ZM37.207 35.301C37.1454 35.2444 37.072 35.2022 36.9921 35.1776C36.9122 35.1529 36.8278 35.1463 36.745 35.1584C36.6622 35.1705 36.5832 35.2009 36.5137 35.2473C36.4441 35.2938 36.3858 35.3552 36.343 35.427C35.9915 36.0135 35.5251 36.5229 34.9716 36.9244C34.9042 36.9732 34.8485 37.0364 34.8085 37.1094C34.7685 37.1824 34.7452 37.2633 34.7402 37.3464C34.7353 37.4295 34.7488 37.5126 34.7799 37.5898C34.8109 37.6671 34.8588 37.7364 34.9199 37.7929C37.7104 40.372 40.0156 42.5443 41.4106 43.9107C41.5158 44.0135 41.6571 44.0711 41.8043 44.071C41.8404 44.0712 41.8764 44.0678 41.9117 44.0608C42.0011 44.0434 42.0849 44.0046 42.1559 43.9477C42.2269 43.8908 42.2831 43.8174 42.3196 43.734C42.4445 43.4504 42.6266 43.1955 42.8544 42.9853C43.0822 42.7751 43.3509 42.6141 43.6437 42.5123C43.7335 42.4809 43.8139 42.4272 43.8773 42.3562C43.9408 42.2852 43.9852 42.1993 44.0064 42.1065C44.0275 42.0138 44.0248 41.9171 43.9985 41.8256C43.9722 41.7342 43.923 41.6509 43.8557 41.5836C42.4737 40.201 40.2991 38.1462 37.207 35.301ZM26.9234 34.3105C26.9759 34.2458 27.0136 34.1703 27.0336 34.0894C27.0536 34.0085 27.0555 33.9242 27.0392 33.8425C26.9036 33.1743 26.9036 32.4857 27.0392 31.8175C27.056 31.7357 27.0544 31.6511 27.0344 31.57C27.0145 31.4889 26.9767 31.4133 26.9239 31.3486C26.871 31.2839 26.8044 31.2318 26.7289 31.196C26.6535 31.1603 26.571 31.1418 26.4874 31.1419H19.9568C19.8638 31.1419 19.7723 31.165 19.6904 31.209C19.6085 31.253 19.5388 31.3167 19.4875 31.3943C19.4362 31.4718 19.405 31.5609 19.3966 31.6535C19.3882 31.7461 19.4029 31.8394 19.4393 31.9249C19.5618 32.2107 19.6249 32.5185 19.6249 32.8294C19.6249 33.1404 19.5618 33.4481 19.4393 33.7339C19.4029 33.8195 19.3882 33.9127 19.3966 34.0053C19.405 34.0979 19.4362 34.187 19.4875 34.2646C19.5388 34.3421 19.6085 34.4058 19.6904 34.4498C19.7723 34.4939 19.8638 34.5169 19.9568 34.5169H26.4874C26.5709 34.517 26.6532 34.4985 26.7286 34.4628C26.804 34.4271 26.8706 34.3751 26.9234 34.3105Z" fill="#E4E4E4"/>
<path d="M32 39.0166C35.4173 39.0166 38.1875 36.2464 38.1875 32.8291C38.1875 29.4118 35.4173 26.6416 32 26.6416C28.5827 26.6416 25.8125 29.4118 25.8125 32.8291C25.8125 36.2464 28.5827 39.0166 32 39.0166Z" fill="white"/>
<path d="M18.5 21.5791C20.364 21.5791 21.875 20.0681 21.875 18.2041C21.875 16.3401 20.364 14.8291 18.5 14.8291C16.636 14.8291 15.125 16.3401 15.125 18.2041C15.125 20.0681 16.636 21.5791 18.5 21.5791Z" fill="white"/>
<path d="M24.125 50.8291C25.989 50.8291 27.5 49.3181 27.5 47.4541C27.5 45.5901 25.989 44.0791 24.125 44.0791C22.261 44.0791 20.75 45.5901 20.75 47.4541C20.75 49.3181 22.261 50.8291 24.125 50.8291Z" fill="white"/>
<path d="M45.5 24.9541C47.9853 24.9541 50 22.9394 50 20.4541C50 17.9688 47.9853 15.9541 45.5 15.9541C43.0147 15.9541 41 17.9688 41 20.4541C41 22.9394 43.0147 24.9541 45.5 24.9541Z" fill="white"/>
<path d="M44.375 48.0166C46.239 48.0166 47.75 46.5056 47.75 44.6416C47.75 42.7776 46.239 41.2666 44.375 41.2666C42.511 41.2666 41 42.7776 41 44.6416C41 46.5056 42.511 48.0166 44.375 48.0166Z" fill="white"/>
<path d="M17.375 36.2041C19.239 36.2041 20.75 34.6931 20.75 32.8291C20.75 30.9651 19.239 29.4541 17.375 29.4541C15.511 29.4541 14 30.9651 14 32.8291C14 34.6931 15.511 36.2041 17.375 36.2041Z" fill="white"/>
<defs>
<linearGradient id="paint0_linear_33390_161114" x1="32" y1="65.2485" x2="32" y2="1.15486" gradientUnits="userSpaceOnUse">
<stop stop-color="#FF7400"/>
<stop offset="1" stop-color="#FFAB52"/>
</linearGradient>
</defs>
</svg>
