<svg width="64" height="65" viewBox="0 0 64 65" fill="none" xmlns="http://www.w3.org/2000/svg">
<rect y="0.829102" width="64" height="64" rx="12" fill="url(#paint0_linear_33390_161139)"/>
<g clip-path="url(#clip0_33390_161139)">
<path d="M32 33.9541C31.8508 33.9541 31.7077 33.8948 31.6023 33.7893C31.4968 33.6839 31.4375 33.5408 31.4375 33.3916V18.7666C31.4375 18.6174 31.4968 18.4743 31.6023 18.3689C31.7077 18.2634 31.8508 18.2041 32 18.2041C32.1492 18.2041 32.2923 18.2634 32.3977 18.3689C32.5032 18.4743 32.5625 18.6174 32.5625 18.7666V33.3916C32.5625 33.5408 32.5032 33.6839 32.3977 33.7893C32.2923 33.8948 32.1492 33.9541 32 33.9541Z" fill="#E4E4E4"/>
<path d="M40.4375 26.6416H23.5625C23.4133 26.6416 23.2702 26.5823 23.1648 26.4768C23.0593 26.3714 23 26.2283 23 26.0791C23 25.9299 23.0593 25.7868 23.1648 25.6814C23.2702 25.5759 23.4133 25.5166 23.5625 25.5166H40.4375C40.5867 25.5166 40.7298 25.5759 40.8352 25.6814C40.9407 25.7868 41 25.9299 41 26.0791C41 26.2283 40.9407 26.3714 40.8352 26.4768C40.7298 26.5823 40.5867 26.6416 40.4375 26.6416ZM27.5 35.6416H23.5625C23.4133 35.6416 23.2702 35.5823 23.1648 35.4768C23.0593 35.3714 23 35.2283 23 35.0791C23 34.9299 23.0593 34.7868 23.1648 34.6814C23.2702 34.5759 23.4133 34.5166 23.5625 34.5166H27.5C27.6492 34.5166 27.7923 34.5759 27.8977 34.6814C28.0032 34.7868 28.0625 34.9299 28.0625 35.0791C28.0625 35.2283 28.0032 35.3714 27.8977 35.4768C27.7923 35.5823 27.6492 35.6416 27.5 35.6416ZM40.4375 35.6416H36.5C36.3508 35.6416 36.2077 35.5823 36.1023 35.4768C35.9968 35.3714 35.9375 35.2283 35.9375 35.0791C35.9375 34.9299 35.9968 34.7868 36.1023 34.6814C36.2077 34.5759 36.3508 34.5166 36.5 34.5166H40.4375C40.5867 34.5166 40.7298 34.5759 40.8352 34.6814C40.9407 34.7868 41 34.9299 41 35.0791C41 35.2283 40.9407 35.3714 40.8352 35.4768C40.7298 35.5823 40.5867 35.6416 40.4375 35.6416ZM32 40.7041C31.8508 40.7041 31.7077 40.6448 31.6023 40.5393C31.4968 40.4339 31.4375 40.2908 31.4375 40.1416V36.7666C31.4375 36.6174 31.4968 36.4743 31.6023 36.3689C31.7077 36.2634 31.8508 36.2041 32 36.2041C32.1492 36.2041 32.2923 36.2634 32.3977 36.3689C32.5032 36.4743 32.5625 36.6174 32.5625 36.7666V40.1416C32.5625 40.2908 32.5032 40.4339 32.3977 40.5393C32.2923 40.6448 32.1492 40.7041 32 40.7041ZM32 47.4541C31.8508 47.4541 31.7077 47.3948 31.6023 47.2893C31.4968 47.1839 31.4375 47.0408 31.4375 46.8916V43.5166C31.4375 43.3674 31.4968 43.2243 31.6023 43.1189C31.7077 43.0134 31.8508 42.9541 32 42.9541C32.1492 42.9541 32.2923 43.0134 32.3977 43.1189C32.5032 43.2243 32.5625 43.3674 32.5625 43.5166V46.8916C32.5625 47.0408 32.5032 47.1839 32.3977 47.2893C32.2923 47.3948 32.1492 47.4541 32 47.4541ZM44.9375 40.7041C44.7883 40.7041 44.6452 40.6448 44.5398 40.5393C44.4343 40.4339 44.375 40.2908 44.375 40.1416V36.7666C44.375 36.6174 44.4343 36.4743 44.5398 36.3689C44.6452 36.2634 44.7883 36.2041 44.9375 36.2041C45.0867 36.2041 45.2298 36.2634 45.3352 36.3689C45.4407 36.4743 45.5 36.6174 45.5 36.7666V40.1416C45.5 40.2908 45.4407 40.4339 45.3352 40.5393C45.2298 40.6448 45.0867 40.7041 44.9375 40.7041ZM19.0625 40.7041C18.9133 40.7041 18.7702 40.6448 18.6648 40.5393C18.5593 40.4339 18.5 40.2908 18.5 40.1416V36.7666C18.5 36.6174 18.5593 36.4743 18.6648 36.3689C18.7702 36.2634 18.9133 36.2041 19.0625 36.2041C19.2117 36.2041 19.3548 36.2634 19.4602 36.3689C19.5657 36.4743 19.625 36.6174 19.625 36.7666V40.1416C19.625 40.2908 19.5657 40.4339 19.4602 40.5393C19.3548 40.6448 19.2117 40.7041 19.0625 40.7041ZM44.9375 47.4541C44.7883 47.4541 44.6452 47.3948 44.5398 47.2893C44.4343 47.1839 44.375 47.0408 44.375 46.8916V43.5166C44.375 43.3674 44.4343 43.2243 44.5398 43.1189C44.6452 43.0134 44.7883 42.9541 44.9375 42.9541C45.0867 42.9541 45.2298 43.0134 45.3352 43.1189C45.4407 43.2243 45.5 43.3674 45.5 43.5166V46.8916C45.5 47.0408 45.4407 47.1839 45.3352 47.2893C45.2298 47.3948 45.0867 47.4541 44.9375 47.4541ZM19.0625 47.4541C18.9133 47.4541 18.7702 47.3948 18.6648 47.2893C18.5593 47.1839 18.5 47.0408 18.5 46.8916V43.5166C18.5 43.3674 18.5593 43.2243 18.6648 43.1189C18.7702 43.0134 18.9133 42.9541 19.0625 42.9541C19.2117 42.9541 19.3548 43.0134 19.4602 43.1189C19.5657 43.2243 19.625 43.3674 19.625 43.5166V46.8916C19.625 47.0408 19.5657 47.1839 19.4602 47.2893C19.3548 47.3948 19.2117 47.4541 19.0625 47.4541Z" fill="#E4E4E4"/>
<path d="M36.5 14.8291H27.5C27.1893 14.8291 26.9375 15.0809 26.9375 15.3916V18.7666C26.9375 19.0773 27.1893 19.3291 27.5 19.3291H36.5C36.8107 19.3291 37.0625 19.0773 37.0625 18.7666V15.3916C37.0625 15.0809 36.8107 14.8291 36.5 14.8291Z" fill="white"/>
<path d="M36.5 46.3291H27.5C27.1893 46.3291 26.9375 46.5809 26.9375 46.8916V50.2666C26.9375 50.5773 27.1893 50.8291 27.5 50.8291H36.5C36.8107 50.8291 37.0625 50.5773 37.0625 50.2666V46.8916C37.0625 46.5809 36.8107 46.3291 36.5 46.3291Z" fill="white"/>
<path d="M36.5 39.5791H27.5C27.1893 39.5791 26.9375 39.8309 26.9375 40.1416V43.5166C26.9375 43.8273 27.1893 44.0791 27.5 44.0791H36.5C36.8107 44.0791 37.0625 43.8273 37.0625 43.5166V40.1416C37.0625 39.8309 36.8107 39.5791 36.5 39.5791Z" fill="white"/>
<path d="M36.5 32.8291H27.5C27.1893 32.8291 26.9375 33.0809 26.9375 33.3916V36.7666C26.9375 37.0773 27.1893 37.3291 27.5 37.3291H36.5C36.8107 37.3291 37.0625 37.0773 37.0625 36.7666V33.3916C37.0625 33.0809 36.8107 32.8291 36.5 32.8291Z" fill="white"/>
<path d="M23.5625 46.3291H14.5625C14.2518 46.3291 14 46.5809 14 46.8916V50.2666C14 50.5773 14.2518 50.8291 14.5625 50.8291H23.5625C23.8732 50.8291 24.125 50.5773 24.125 50.2666V46.8916C24.125 46.5809 23.8732 46.3291 23.5625 46.3291Z" fill="white"/>
<path d="M23.5625 39.5791H14.5625C14.2518 39.5791 14 39.8309 14 40.1416V43.5166C14 43.8273 14.2518 44.0791 14.5625 44.0791H23.5625C23.8732 44.0791 24.125 43.8273 24.125 43.5166V40.1416C24.125 39.8309 23.8732 39.5791 23.5625 39.5791Z" fill="white"/>
<path d="M23.5625 32.8291H14.5625C14.2518 32.8291 14 33.0809 14 33.3916V36.7666C14 37.0773 14.2518 37.3291 14.5625 37.3291H23.5625C23.8732 37.3291 24.125 37.0773 24.125 36.7666V33.3916C24.125 33.0809 23.8732 32.8291 23.5625 32.8291Z" fill="white"/>
<path d="M49.4375 46.3291H40.4375C40.1268 46.3291 39.875 46.5809 39.875 46.8916V50.2666C39.875 50.5773 40.1268 50.8291 40.4375 50.8291H49.4375C49.7482 50.8291 50 50.5773 50 50.2666V46.8916C50 46.5809 49.7482 46.3291 49.4375 46.3291Z" fill="white"/>
<path d="M49.4375 39.5791H40.4375C40.1268 39.5791 39.875 39.8309 39.875 40.1416V43.5166C39.875 43.8273 40.1268 44.0791 40.4375 44.0791H49.4375C49.7482 44.0791 50 43.8273 50 43.5166V40.1416C50 39.8309 49.7482 39.5791 49.4375 39.5791Z" fill="white"/>
<path d="M49.4375 32.8291H40.4375C40.1268 32.8291 39.875 33.0809 39.875 33.3916V36.7666C39.875 37.0773 40.1268 37.3291 40.4375 37.3291H49.4375C49.7482 37.3291 50 37.0773 50 36.7666V33.3916C50 33.0809 49.7482 32.8291 49.4375 32.8291Z" fill="white"/>
<path d="M49.4375 23.8291H40.4375C40.1268 23.8291 39.875 24.0809 39.875 24.3916V27.7666C39.875 28.0773 40.1268 28.3291 40.4375 28.3291H49.4375C49.7482 28.3291 50 28.0773 50 27.7666V24.3916C50 24.0809 49.7482 23.8291 49.4375 23.8291Z" fill="white"/>
<path d="M23.5625 23.8291H14.5625C14.2518 23.8291 14 24.0809 14 24.3916V27.7666C14 28.0773 14.2518 28.3291 14.5625 28.3291H23.5625C23.8732 28.3291 24.125 28.0773 24.125 27.7666V24.3916C24.125 24.0809 23.8732 23.8291 23.5625 23.8291Z" fill="white"/>
</g>
<defs>
<linearGradient id="paint0_linear_33390_161139" x1="32" y1="65.2485" x2="32" y2="1.15486" gradientUnits="userSpaceOnUse">
<stop stop-color="#FF7400"/>
<stop offset="1" stop-color="#FFAB52"/>
</linearGradient>
<clipPath id="clip0_33390_161139">
<rect width="36" height="36" fill="white" transform="translate(14 14.8291)"/>
</clipPath>
</defs>
</svg>
