<svg width="64" height="65" viewBox="0 0 64 65" fill="none" xmlns="http://www.w3.org/2000/svg">
<g clip-path="url(#clip0_33387_161535)">
<rect y="0.829102" width="64" height="64" rx="12" fill="url(#paint0_linear_33387_161535)"/>
<g clip-path="url(#clip1_33387_161535)">
<path d="M25.1973 20.4147L32.0431 24.4475L38.8889 20.4147V12.7737C33.9102 10.5663 27.6867 11.7124 25.1973 12.5614V20.4147Z" fill="white"/>
<path d="M38.8887 45.2444L32.0428 41.2117L25.197 45.2444L25.197 52.8855C30.1758 55.0929 36.3993 53.9467 38.8887 53.0977L38.8887 45.2444Z" fill="white"/>
<path d="M38.9832 20.6253L38.9926 28.7076L45.829 32.7571L52.2967 28.9366C51.6757 23.4213 47.5938 18.48 45.6305 16.6987L38.9832 20.6253Z" fill="white"/>
<path d="M25.0705 45.1706L25.0611 37.0883L18.2247 33.0388L11.757 36.8593C12.378 42.3746 16.4599 47.3159 18.4232 49.0972L25.0705 45.1706Z" fill="white"/>
<path d="M38.9832 45.1706L38.9926 37.0883L45.829 33.0388L52.2967 36.8593C51.6757 42.3746 47.5938 47.3159 45.6305 49.0972L38.9832 45.1706Z" fill="white"/>
<path d="M25.0705 20.6253L25.0611 28.7076L18.2247 32.7571L11.757 28.9366C12.378 23.4213 16.4599 18.48 18.4232 16.6987L25.0705 20.6253Z" fill="white"/>
<path fill-rule="evenodd" clip-rule="evenodd" d="M32.0427 46.6222C39.4123 46.6222 45.408 40.5061 45.408 32.9347C45.408 25.3633 39.4123 19.2472 32.0427 19.2472C24.6731 19.2472 18.6773 25.3633 18.6773 32.9347C18.6773 40.5061 24.6731 46.6222 32.0427 46.6222ZM32.0427 47.1555C39.719 47.1555 45.9418 40.7887 45.9418 32.9347C45.9418 25.0808 39.719 18.7139 32.0427 18.7139C24.3664 18.7139 18.1436 25.0808 18.1436 32.9347C18.1436 40.7887 24.3664 47.1555 32.0427 47.1555Z" fill="#FF7D0D"/>
<path d="M38.6814 28.6903L31.8355 24.4453L24.7822 28.6903V37.1804L31.8355 41.2132L38.6814 37.1804V28.6903Z" fill="white"/>
</g>
</g>
<defs>
<linearGradient id="paint0_linear_33387_161535" x1="32" y1="65.2485" x2="32" y2="1.15486" gradientUnits="userSpaceOnUse">
<stop stop-color="#FF7400"/>
<stop offset="1" stop-color="#FFAB52"/>
</linearGradient>
<clipPath id="clip0_33387_161535">
<rect y="0.829102" width="64" height="64" rx="12" fill="white"/>
</clipPath>
<clipPath id="clip1_33387_161535">
<rect width="64" height="64" fill="white" transform="translate(0 0.829102)"/>
</clipPath>
</defs>
</svg>
