<svg width="64" height="65" viewBox="0 0 64 65" fill="none" xmlns="http://www.w3.org/2000/svg">
<g clip-path="url(#clip0_33387_161485)">
<rect y="0.829102" width="64" height="64" rx="12" fill="url(#paint0_linear_33387_161485)"/>
<g clip-path="url(#clip1_33387_161485)">
<path d="M39.4758 24.8861L31.1475 32.8833C28.9843 34.9366 25.5232 34.9366 23.36 32.6672C21.3049 30.5058 21.3049 27.0475 23.5763 24.8861L31.9046 16.889C34.0678 14.8357 37.5289 14.8357 39.6921 17.1051C41.7471 19.3746 41.639 22.8328 39.4758 24.8861Z" fill="white" fill-opacity="0.8"/>
<path d="M40.3404 39.9084C40.4485 39.8003 40.4485 39.6922 40.5567 39.5841C40.6648 39.368 40.773 39.1519 40.8812 38.9357C40.8812 38.8277 40.9893 38.7196 40.9893 38.6115C41.0975 38.3954 41.0975 38.1792 41.2056 37.9631C41.2056 37.855 41.3138 37.747 41.3138 37.5308C41.3138 37.3147 41.422 37.0985 41.422 36.9905C41.422 36.7743 41.422 36.6663 41.422 36.4501C41.422 36.3421 41.422 36.1259 41.422 36.0178C41.422 35.8017 41.422 35.5856 41.3138 35.3694C41.3138 35.2614 41.2056 35.1533 41.2056 35.0452C41.0975 34.8291 41.0975 34.6129 40.9893 34.3968C40.9893 34.2887 40.8812 34.1807 40.8812 34.1807C40.773 33.9645 40.6648 33.7484 40.4485 33.5322C40.4485 33.4242 40.3404 33.4242 40.3404 33.3161C40.2322 33.208 40.124 32.9919 40.0159 32.8838C39.9077 32.7758 39.7996 32.7758 39.7996 32.6677C39.7996 32.6677 39.7996 32.6677 39.6914 32.5596L31.0386 24.8867C28.7673 22.8333 25.3062 23.0495 23.2511 25.3189C21.1961 27.5884 21.4124 31.0466 23.6838 33.1L27.902 36.8824L23.7919 40.7729C21.6287 42.8262 21.5206 46.2845 23.5756 48.5539C25.6306 50.8234 29.0918 50.8234 31.3631 48.7701L39.6914 40.7729L39.7996 40.6648C39.9077 40.5568 39.9077 40.5568 40.0159 40.4487C40.124 40.2326 40.2322 40.0164 40.3404 39.9084Z" fill="white"/>
</g>
</g>
<defs>
<linearGradient id="paint0_linear_33387_161485" x1="32" y1="65.2485" x2="32" y2="1.15486" gradientUnits="userSpaceOnUse">
<stop stop-color="#FF7400"/>
<stop offset="1" stop-color="#FFAB52"/>
</linearGradient>
<clipPath id="clip0_33387_161485">
<rect y="0.829102" width="64" height="64" rx="12" fill="white"/>
</clipPath>
<clipPath id="clip1_33387_161485">
<rect width="64" height="64" fill="white" transform="translate(0 0.829102)"/>
</clipPath>
</defs>
</svg>
