<svg width="64" height="65" viewBox="0 0 64 65" fill="none" xmlns="http://www.w3.org/2000/svg">
<rect y="0.829102" width="64" height="64" rx="12" fill="url(#paint0_linear_33390_161149)"/>
<path d="M18.0001 20.8291H46.0001C47.1001 20.8291 48.0001 19.9291 48.0001 18.8291C48.0001 17.7291 47.1001 16.8291 46.0001 16.8291H18.0001C16.9001 16.8291 16.0001 17.7291 16.0001 18.8291C16.0001 19.9291 16.9001 20.8291 18.0001 20.8291ZM48.3201 24.4291C48.1401 23.5091 47.3201 22.8291 46.3601 22.8291H17.6401C16.6801 22.8291 15.8601 23.5091 15.6801 24.4291L13.6801 34.4291C13.4401 35.6691 14.3801 36.8291 15.6401 36.8291H16.0001V46.8291C16.0001 47.9291 16.9001 48.8291 18.0001 48.8291H34.0001C35.1001 48.8291 36.0001 47.9291 36.0001 46.8291V36.8291H44.0001V46.8291C44.0001 47.9291 44.9001 48.8291 46.0001 48.8291C47.1001 48.8291 48.0001 47.9291 48.0001 46.8291V36.8291H48.3601C49.6201 36.8291 50.5602 35.6691 50.3201 34.4291L48.3201 24.4291ZM32.0001 44.8291H20.0001V36.8291H32.0001V44.8291Z" fill="white"/>
<defs>
<linearGradient id="paint0_linear_33390_161149" x1="32" y1="65.2485" x2="32" y2="1.15486" gradientUnits="userSpaceOnUse">
<stop stop-color="#FF7400"/>
<stop offset="1" stop-color="#FFAB52"/>
</linearGradient>
</defs>
</svg>
