<svg width="64" height="65" viewBox="0 0 64 65" fill="none" xmlns="http://www.w3.org/2000/svg">
<rect y="0.829102" width="64" height="64" rx="12" fill="url(#paint0_linear_33390_161100)"/>
<path fill-rule="evenodd" clip-rule="evenodd" d="M32.2018 15.5791L19.6855 22.9232C21.4575 23.9135 22.3434 24.4086 22.3434 24.4086C27.8807 21.221 30.6495 19.6274 30.6495 19.6274V29.8397H33.8156V19.6274C33.8156 19.6274 36.5844 21.2212 42.1217 24.4086C42.1217 24.4086 43.0076 23.9135 44.7796 22.9232L32.2018 15.5791Z" fill="white"/>
<path d="M28.5566 34.8489C27.3311 34.1388 24.3225 32.3958 19.5208 29.614V40.6441L28.4501 45.7737L28.5566 34.8491V34.8489ZM18.8906 26.3502C26.5965 30.8146 30.4381 33.0403 30.4495 33.0467L31.0819 33.4129L31.0747 34.1408C31.0747 34.1541 31.0297 38.7391 30.9403 47.936L30.9195 50.0788L29.0596 49.0105L17.6351 42.4478L17 42.0828V25.2549L18.8906 26.3502Z" fill="white"/>
<path d="M35.4439 34.8489C36.6694 34.1388 39.6781 32.3958 44.4798 29.614V40.6441L35.5502 45.7737L35.4437 34.8491L35.4439 34.8489ZM45.1102 26.3502C37.4041 30.8146 33.5625 33.0403 33.5513 33.0467L32.9189 33.4129L32.9261 34.1408C32.9261 34.1541 32.9711 38.7391 33.0605 47.936L33.0813 50.0788L34.9412 49.0105L46.3657 42.4478L47.0008 42.0828V25.2549L45.1102 26.3502Z" fill="white"/>
<defs>
<linearGradient id="paint0_linear_33390_161100" x1="32" y1="65.2485" x2="32" y2="1.15486" gradientUnits="userSpaceOnUse">
<stop stop-color="#FF7400"/>
<stop offset="1" stop-color="#FFAB52"/>
</linearGradient>
</defs>
</svg>
