<svg width="1110" height="642" viewBox="0 0 1110 642" fill="none" xmlns="http://www.w3.org/2000/svg">
<path d="M965.295 172.945L970.366 178.1L973.434 175.6L968.898 173.257L972.634 172.164L979.039 175.6L979.172 172.008L983.575 169.196L979.973 164.667L967.43 159.356H965.295L969.698 168.728H966.496L965.295 172.945Z" fill="#C3CDDF" stroke="white" stroke-width="0.6" stroke-miterlimit="10"/>
<path d="M982.508 187.784L974.369 177.631L970.9 179.661V185.128H974.369V193.407L969.165 199.498L967.697 198.249V205.59L964.762 204.809L957.69 205.59L953.02 211.838V214.181L950.351 217.305L958.09 226.52L960.092 224.177V218.086L955.555 214.649L963.161 210.588H967.831V213.556L970.633 216.836L975.837 210.745H980.373V207.308H983.576V203.403L982.508 202.154V187.784Z" fill="#C3CDDF" stroke="white" stroke-width="0.6" stroke-miterlimit="10"/>
<path d="M961.293 213.087V214.024H963.028V212.306H965.163L967.031 214.492L965.163 216.523H963.428V219.334H961.693L960.092 215.586V213.243L961.293 213.087Z" fill="#C3CDDF" stroke="white" stroke-width="0.6" stroke-miterlimit="10"/>
<path d="M791.704 329.922V343.199L793.838 348.197L799.176 344.761V339.762L793.705 329.922H791.704Z" fill="#C3CDDF" stroke="white" stroke-width="0.6" stroke-miterlimit="10"/>
<path d="M942.212 311.648L948.483 317.271L950.618 312.898L945.148 307.587L941.278 308.68L938.743 304.307V299.621H940.878L942.079 294.31L939.944 288.531L933.673 287.281V298.527H931.805L936.208 310.086L942.212 311.648Z" fill="#C3CDDF" stroke="white" stroke-width="0.6" stroke-miterlimit="10"/>
<path d="M938.343 317.271H939.811V312.585L935.674 311.335L938.343 317.271Z" fill="#C3CDDF" stroke="white" stroke-width="0.6" stroke-miterlimit="10"/>
<path d="M943.947 329.766L947.683 333.828L952.619 329.142L949.15 323.206L947.549 325.081L942.612 319.458V326.174H946.482V329.766H943.947Z" fill="#C3CDDF" stroke="white" stroke-width="0.6" stroke-miterlimit="10"/>
<path d="M952.353 319.77L950.618 321.957L954.488 327.58L957.023 323.831L955.422 321.8V318.52L953.821 316.333L950.618 317.271L952.353 319.77Z" fill="#C3CDDF" stroke="white" stroke-width="0.6" stroke-miterlimit="10"/>
<path d="M960.626 340.232L957.023 328.361L954.755 328.986L955.689 332.891L952.62 336.483H947.016L942.079 342.106H943.414L945.548 339.607H951.153V344.918L954.755 349.135H956.089V341.325H959.425V345.542L960.626 340.232Z" fill="#C3CDDF" stroke="white" stroke-width="0.6" stroke-miterlimit="10"/>
<path d="M926.868 337.42L936.475 326.174L934.34 323.831L926.201 335.858L926.868 337.42Z" fill="#C3CDDF" stroke="white" stroke-width="0.6" stroke-miterlimit="10"/>
<path d="M1043.62 597.018L1049.89 599.049L1083.65 577.65V573.12H1080.31L1080.05 570.309L1043.62 597.018Z" fill="#C3CDDF" stroke="white" stroke-width="0.6" stroke-miterlimit="10"/>
<path d="M1086.45 573.432L1088.45 575.463L1109 557.813L1107.27 555.938L1102.46 557.813L1099.13 555.938L1100.99 552.346L1099.26 544.692L1095.66 542.662V553.595L1086.85 564.061L1089.65 568.122L1086.45 573.432Z" fill="#C3CDDF" stroke="white" stroke-width="0.6" stroke-miterlimit="10"/>
<path d="M974.503 433.636L976.237 431.918V429.731H971.567L972.101 430.981L974.503 433.636Z" fill="#C3CDDF" stroke="white" stroke-width="0.6" stroke-miterlimit="10"/>
<path d="M1036.15 490.18V482.839H1033.61V472.217L1025.34 462.533V446.914H1019.47V433.793H1017.2V426.764H1014.27L1010.66 441.759V447.694L1006.79 461.44H1003.32L990.114 445.976L996.519 435.355L994.651 432.231L991.582 434.262L980.107 430.981L979.974 435.667H973.436L967.165 443.009V447.851H962.761L958.358 442.852L940.345 457.847V463.939L907.255 481.745L903.385 492.991L906.054 500.02L902.184 503.769V533.134L899.916 535.789V540.944L902.985 544.38H911.257L917.395 537.351H929.404L932.606 533.603L959.292 527.979L967.965 531.728V544.38L969.433 542.662L978.773 531.884L979.974 534.071L972.635 544.38L974.103 545.786L978.239 541.881L975.971 547.348H979.974V559.063L988.38 562.343L993.584 559.063L996.919 562.343L1011.86 555.939L1016.27 547.816L1030.81 532.509L1040.95 511.735V495.647L1036.15 490.18Z" fill="#C3CDDF" stroke="white" stroke-width="0.6" stroke-miterlimit="10"/>
<path d="M992.516 573.902L987.846 570.466L985.445 573.434V579.057L984.244 580.15V584.836H988.38L990.782 581.868H992.25L999.722 573.121L997.987 571.559L992.516 573.902Z" fill="#C3CDDF" stroke="white" stroke-width="0.6" stroke-miterlimit="10"/>
<path d="M1050.96 399.429H1049.76L1048.16 402.085H1038.28L1039.08 405.521H1042.95L1044.42 407.239L1050.56 403.334H1053.36V396.774H1050.96V399.429Z" fill="#C3CDDF" stroke="white" stroke-width="0.6" stroke-miterlimit="10"/>
<path d="M1048.56 389.433L1055.36 395.525V398.805H1056.96V394.744L1048.56 387.871V389.433Z" fill="#C3CDDF" stroke="white" stroke-width="0.6" stroke-miterlimit="10"/>
<path d="M1061.23 401.303L1064.57 409.894H1066.57V406.302L1062.57 400.679L1061.23 401.303Z" fill="#C3CDDF" stroke="white" stroke-width="0.6" stroke-miterlimit="10"/>
<path d="M1068.04 407.083L1067.9 409.114L1071.24 412.238H1073.51V411.301H1071.64L1068.04 407.083Z" fill="#C3CDDF" stroke="white" stroke-width="0.6" stroke-miterlimit="10"/>
<path d="M1080.05 417.549V414.894L1076.84 412.238H1074.84V413.8H1077.11L1078.71 417.549H1080.05Z" fill="#C3CDDF" stroke="white" stroke-width="0.6" stroke-miterlimit="10"/>
<path d="M1067.9 415.674L1071.51 419.11H1073.51V417.08L1067.9 413.019V415.674Z" fill="#C3CDDF" stroke="white" stroke-width="0.6" stroke-miterlimit="10"/>
<path d="M1078.44 423.016H1082.71V421.454L1078.44 419.892V423.016Z" fill="#C3CDDF" stroke="white" stroke-width="0.6" stroke-miterlimit="10"/>
<path d="M1041.89 421.922V419.891H1038.95L1033.48 408.801H1037.62L1036.41 404.897L1030.28 402.085L1029.48 397.711L1026.54 395.525H1025.47L1014 389.277V420.985L1018.27 421.61L1022.27 413.644L1030.41 415.674L1035.88 425.983H1042.02L1045.22 428.482L1046.29 425.671L1043.49 421.922H1041.89Z" fill="#C3CDDF" stroke="white" stroke-width="0.6" stroke-miterlimit="10"/>
<path d="M656.94 177.787L659.208 179.505H661.343V178.88L660.409 177.787L660.009 175.288L655.072 172.632H651.336L640.795 167.946L639.061 168.415C641.462 171.226 643.731 173.882 643.864 174.038C643.997 174.194 643.864 176.068 643.864 176.068L642.396 177.787H647.6L649.335 179.817H654.939L656.94 177.787Z" fill="#C3CDDF" stroke="white" stroke-width="0.6" stroke-miterlimit="10"/>
<path d="M656.54 186.847L657.207 185.91L660.409 188.252L660.81 190.283L662.811 190.127L662.411 186.691L659.209 185.441L660.142 184.191L656.273 179.818H655.206H649.602L650.269 180.599L653.871 189.346L656.14 186.222L656.54 186.847Z" fill="#C3CDDF" stroke="white" stroke-width="0.6" stroke-miterlimit="10"/>
<path d="M657.206 185.909L656.539 186.846L658.808 190.439L660.809 190.283L660.409 188.252L657.206 185.909Z" fill="#C3CDDF" stroke="white" stroke-width="0.6" stroke-miterlimit="10"/>
<path d="M667.348 176.225L664.946 179.505L661.877 176.069L660.143 175.131L660.543 177.787L661.477 178.88V179.505H659.209L656.94 177.787L655.206 179.817H656.273L660.143 184.191L659.209 185.44L662.411 186.69L662.678 189.814L666.013 186.377L668.015 187.002L667.748 190.907L670.016 192.157V189.658L671.484 187.939V184.503L673.619 183.097L667.348 176.225Z" fill="#C3CDDF" stroke="white" stroke-width="0.6" stroke-miterlimit="10"/>
<path d="M689.63 286.656H679.623L672.551 295.09L671.084 293.372L658.541 292.279V296.027L656.807 298.058L656.94 298.214L661.21 315.396L691.098 301.338V298.214L694.301 296.027L690.298 286.343L689.63 286.656Z" fill="#C3CDDF" stroke="white" stroke-width="0.6" stroke-miterlimit="10"/>
<path d="M701.239 257.291H703.908L702.173 252.293L694.835 261.977H688.163L690.431 266.819L699.505 267.756L701.239 261.509V257.291Z" fill="#C3CDDF" stroke="white" stroke-width="0.6" stroke-miterlimit="10"/>
<path d="M716.85 268.537L712.18 262.914L704.841 259.946L703.907 257.291H701.239V261.508L699.504 267.756L701.906 270.724L700.038 280.564L690.298 286.344L694.301 296.028L710.179 285.719L716.85 268.537Z" fill="#C3CDDF" stroke="white" stroke-width="0.6" stroke-miterlimit="10"/>
<path d="M686.028 258.852V250.574H684.027L682.559 255.103L684.56 259.633L686.028 258.852Z" fill="#C3CDDF" stroke="white" stroke-width="0.6" stroke-miterlimit="10"/>
<path d="M667.348 237.298L660.81 236.673L645.465 222.459H640.662L634.391 225.895L636.792 229.175L635.992 232.612H633.323L631.322 237.298L626.385 235.579L625.317 242.452H628.653L656.807 298.058L658.541 296.028V292.279L671.084 293.372L672.552 295.09L679.623 286.656H689.631L700.038 280.564L701.906 270.724L699.504 267.756L690.431 266.819L688.163 261.977H687.762L686.028 259.79V258.853L684.56 259.634L682.559 255.104L682.292 255.729L674.286 240.109V233.393L669.082 232.456L667.348 237.298Z" fill="#C3CDDF" stroke="white" stroke-width="0.6" stroke-miterlimit="10"/>
<path d="M630.254 215.586V213.087H631.055V211.838L628.119 209.338V210.9L625.984 218.242H627.986L630.254 215.586Z" fill="#C3CDDF" stroke="white" stroke-width="0.6" stroke-miterlimit="10"/>
<path d="M628.119 218.085L627.986 218.242H625.985L623.316 227.457H623.183L626.385 235.111V235.579L626.785 235.736L628.119 227.613V218.085Z" fill="#C3CDDF" stroke="white" stroke-width="0.6" stroke-miterlimit="10"/>
<path d="M631.455 221.834H633.056L646.132 211.525V205.121V203.715V201.528H647.733L650.402 198.561H649.335H643.464L641.062 201.216H630.254L628.119 203.715V209.338L631.055 211.837V213.087H630.254V215.586L628.119 218.085V219.491H629.32L631.455 221.834Z" fill="#C3CDDF" stroke="white" stroke-width="0.6" stroke-miterlimit="10"/>
<path d="M671.885 227.925H670.817V223.083L668.949 220.897H667.615L665.747 218.866H663.746V217.148L660.81 213.868V210.744L662.411 208.87H663.612V208.245L662.812 207.308V204.184H660.41L657.341 198.561H655.74H654.539H650.403L647.734 201.528H646.133V203.715V205.121V211.525L638.928 217.304L640.796 222.459H645.466L660.81 236.672L667.348 237.297L669.083 232.455L674.287 233.392V233.236L671.885 230.581V227.925Z" fill="#C3CDDF" stroke="white" stroke-width="0.6" stroke-miterlimit="10"/>
<path d="M723.521 248.544H726.857V245.108H724.055V239.641H722.187L716.049 232.456L718.985 229.176V225.583H716.316L714.315 216.524L713.381 215.43V201.217H711.112L702.573 195.75H698.97V193.875H691.365V197.624H688.029V199.186L682.025 201.217L675.22 197.155H672.018L670.016 192.782V192.47V192.157L667.748 190.908L668.015 187.003L666.013 186.378L662.677 189.814L662.811 190.127L660.809 190.283L658.808 190.439L656.54 186.846L656.139 186.222L653.871 189.346L657.607 198.561H657.34L660.409 204.184H662.811V207.308L663.611 208.245V208.87H662.411L660.809 210.745V213.868L663.745 217.149V218.867H665.746L667.614 220.897H668.949L670.817 223.084V227.926H671.884V230.582L674.286 233.237V231.987H679.223L684.827 243.077L688.029 243.233L694.033 249.325H701.105V246.982H705.642V251.043L721.386 254.48V251.199L723.521 248.544Z" fill="#C3CDDF" stroke="white" stroke-width="0.6" stroke-miterlimit="10"/>
<path d="M782.764 144.985V141.236L781.163 140.768H775.959L769.421 133.114L763.55 134.364L760.882 131.552L758.347 133.895L742.602 118.9V115.776L737.532 121.712H734.329V118.119H725.923L723.255 112.652L716.717 112.496L696.435 118.588L695.101 120.306L696.569 123.586L694.968 128.897L699.904 130.927V134.832H692.699L690.564 132.333H685.094L682.959 134.832L672.551 129.522H667.214L660.009 134.051L662.277 136.707L660.943 138.269L657.474 134.207L655.339 136.707V145.454H657.741V149.046H661.076L666.414 155.294L667.081 154.513L672.018 151.545H678.422L680.557 154.044V158.886H673.886L670.817 162.479V164.353H672.952L677.622 169.82H680.691V173.413L681.625 176.849L682.292 174.038H684.693L684.827 174.194L686.561 173.413L689.097 175.6L690.698 178.567H692.432L689.23 160.917L697.903 158.262L699.904 159.511L698.837 156.544L699.904 153.888L702.173 154.982L705.508 161.386L704.841 162.791L707.11 164.197L710.712 168.414H720.719L723.922 172.163V174.662H727.257V179.036H732.595V182.16H735.664L741.401 173.1V171.226H748.74V169.352H751.275L752.876 171.226H766.219L771.423 173.1L772.357 168.727L767.42 160.761L771.69 158.886L775.292 159.824V158.73L773.824 156.856V151.233H782.097V149.358L780.496 147.484V144.985H782.764ZM761.415 153.107H750.074L747.138 156.544L747.405 161.229L744.203 159.199V154.201L746.738 151.233H761.282V153.107H761.415Z" fill="#C3CDDF" stroke="white" stroke-width="0.6" stroke-miterlimit="10"/>
<path d="M720.319 206.996V204.653L725.123 202.466V197.312H730.46V193.094H726.857L719.518 188.721L711.112 178.88H704.841V176.225L701.239 172.008H698.437V174.663H696.302V178.88L692.032 178.412L692.165 178.88H690.431L688.83 175.913L686.161 173.726L684.56 174.507L685.494 177.006L688.029 179.349L687.495 181.536H682.158V185.285H684.56L688.029 189.346V197.624H691.365V193.875H698.97V195.75H702.573L711.112 201.217H713.381V205.121L717.917 206.996H720.319Z" fill="#C3CDDF" stroke="white" stroke-width="0.6" stroke-miterlimit="10"/>
<path d="M736.464 194.032L732.194 188.409V186.222H735.663L740.066 180.287L741.934 181.536L740.867 182.63L742.468 184.191H746.338L749.006 181.224L743.802 177.475V179.349L739.533 177.475L741.668 174.82L740.6 174.039L735.263 182.63H732.194V179.349H726.857V174.976H723.521V172.477L720.452 168.728H710.312L706.842 164.667L704.574 163.105L702.84 166.541L699.37 165.448L700.171 161.855L699.504 159.981L697.636 158.731L688.963 161.231L692.032 178.412L696.302 178.881V174.663H698.436V172.008H701.238L704.841 176.225V178.881H711.112L719.518 188.721L726.857 193.095H730.459V196.531L734.596 198.093L736.464 194.032Z" fill="#C3CDDF" stroke="white" stroke-width="0.6" stroke-miterlimit="10"/>
<path d="M489.353 117.964H488.019L487.085 119.214L485.217 117.652L488.686 113.903H484.416V116.714L482.948 118.433H478.545V121.556L480.146 123.587L474.809 129.835L476.81 132.334H482.281L486.017 127.961H489.62L490.954 123.118V120.151L491.755 119.214H489.353V117.964Z" fill="#C3CDDF" stroke="white" stroke-width="0.6" stroke-miterlimit="10"/>
<path d="M491.754 119.213L494.289 116.246L492.155 113.903H488.685L485.216 117.651L487.084 119.213L488.018 117.964H489.353V119.213H491.754Z" fill="#C3CDDF" stroke="white" stroke-width="0.6" stroke-miterlimit="10"/>
<path d="M514.971 126.242L514.037 123.118L512.836 124.68H509.767L511.102 122.337L508.3 116.089H507.232L504.831 113.278L502.162 110.154V108.28L505.231 104.843V103.594H498.826L501.495 100.47V99.064H498.026L495.224 102.344H492.555V106.561L491.488 107.655V110.935H490.821L492.021 112.341L492.689 111.403V113.122H494.023L495.491 111.403L496.291 112.341L494.823 114.215L495.757 115.308H499.493L500.027 119.526V123.118H495.09L495.491 125.305V128.429H493.356V129.991H495.357L497.625 130.772L500.828 129.991L499.093 132.021H495.757L490.821 137.957H492.288L496.425 136.239L498.026 134.364H500.161L501.361 135.614L510.968 134.208L513.103 131.553H511.369L514.971 126.242Z" fill="#C3CDDF" stroke="white" stroke-width="0.6" stroke-miterlimit="10"/>
<path d="M489.753 103.125L492.288 100.626L488.952 100.001V102.032L487.752 102.5L488.952 106.093L489.753 103.125Z" fill="#C3CDDF" stroke="white" stroke-width="0.6" stroke-miterlimit="10"/>
<path d="M503.896 95.6274H501.628V97.658H502.829L503.896 95.6274Z" fill="#C3CDDF" stroke="white" stroke-width="0.6" stroke-miterlimit="10"/>
<path d="M541.39 18.6225L555.8 26.2762L562.739 18.6225L569.544 23.9332L573.546 20.3407L565.541 16.4358H578.483V12.8433L563.673 11.4375L541.39 13.6243V18.6225Z" fill="#C3CDDF" stroke="white" stroke-width="0.6" stroke-miterlimit="10"/>
<path d="M569.41 54.2349H567.275L555.4 64.0752V66.262H553.132V69.0735L550.597 72.1975L551.664 73.2908V75.1652H547.394V91.0972L545.66 96.5641L543.925 97.6575L548.462 107.185L547.795 109.841L543.925 111.403V114.995L547.528 114.683V113.277H548.729H553.399V109.997H558.469L561.138 100.313L565.674 95.0022V94.065L561.004 88.5981V82.194L569.811 75.79L572.079 73.2908L570.611 71.7289L573.68 68.1364H576.215V58.6084L569.41 54.2349Z" fill="#C3CDDF" stroke="white" stroke-width="0.6" stroke-miterlimit="10"/>
<path d="M530.448 150.765V148.89L532.316 148.578L534.184 143.111L524.311 138.269L523.11 139.206L516.438 132.177L513.77 134.364V137.019L508.833 138.894V141.237L505.097 141.08V138.894L502.295 139.518L503.362 141.393V143.892L499.626 144.204L498.692 142.799L493.355 144.517L494.289 147.953L500.293 149.984L500.427 151.389L504.029 155.763L502.161 167.79L508.966 172.32L510.167 170.758L517.239 172.632V170.602L520.708 168.102L526.446 170.289H529.114L533.25 166.697L530.182 164.822V155.451H527.646V154.201L530.448 150.765Z" fill="#C3CDDF" stroke="white" stroke-width="0.6" stroke-miterlimit="10"/>
<path d="M537.787 170.757V172.163H535.652V175.756L536.719 178.255H537.787V175.756H538.854V170.757H537.787Z" fill="#C3CDDF" stroke="white" stroke-width="0.6" stroke-miterlimit="10"/>
<path d="M482.815 194.031L481.881 192.782V191.22L483.348 190.282L481.881 186.377H484.816V180.598L486.417 178.568V176.381H480.546V175.131H478.011V181.535L474.542 190.595L476.143 192.469V199.498L480.813 197.78H481.213V195.905L482.815 194.031Z" fill="#C3CDDF" stroke="white" stroke-width="0.6" stroke-miterlimit="10"/>
<path d="M510.167 170.758L508.966 172.32L502.162 167.79L502.028 168.884L498.959 168.103H485.216L482.281 167.009L480.279 169.352H477.877L476.677 170.914L478.011 172.476V175.131H480.546V176.381H486.417V178.568L484.816 180.598V186.378H481.88L483.348 190.283L481.88 191.22V192.782L482.814 194.031L481.213 195.906V197.78H483.081L484.816 199.811V202.153L487.351 204.028L491.487 199.811H498.559L505.631 191.532V186.378L509.5 181.692V180.13L517.239 176.069V172.632L510.167 170.758Z" fill="#C3CDDF" stroke="white" stroke-width="0.6" stroke-miterlimit="10"/>
<path d="M581.686 50.0179H586.356L590.092 51.8922L590.759 52.9856L594.895 50.955V48.4559L580.885 46.5815L564.473 50.3303L556.468 55.1723V53.298L552.331 56.5781H547.795V57.9839H552.598V59.2335L546.994 65.7937V69.23L539.255 78.4456H537.12V77.0399L526.446 82.8191V97.033L533.117 102.031L541.39 96.8768H543.658L543.925 97.6578L545.66 96.5644L547.394 91.0975V75.1655H551.664V73.2911L550.597 72.1978L553.132 69.0738V66.2623H555.4V64.0756L567.275 54.2352H569.41L571.412 55.4847H581.686V50.0179Z" fill="#C3CDDF" stroke="white" stroke-width="0.6" stroke-miterlimit="10"/>
<path d="M596.764 77.352V74.6966L595.029 72.6661V67.824L591.56 63.2943L593.695 58.9208L589.692 57.515V53.4539L590.759 52.9853L590.092 51.8919L586.356 50.0176H581.686V55.4845H571.412L576.215 58.6084V68.1364H580.485V71.1041L573.28 79.6949V87.3485L578.217 93.1278L590.893 90.1601L592.494 88.9105L593.028 89.5353L599.966 82.975V80.9445L596.764 77.352Z" fill="#C3CDDF" stroke="white" stroke-width="0.6" stroke-miterlimit="10"/>
<path d="M536.853 179.35L535.653 180.755H533.651V182.161L534.985 183.723V189.659H536.853V188.721H538.855V183.411L539.655 182.474L538.855 179.35H536.853Z" fill="#C3CDDF" stroke="white" stroke-width="0.6" stroke-miterlimit="10"/>
<path d="M567.809 185.753L568.743 183.566L560.204 178.256L561.405 176.694L560.737 175.757L557.001 175.913L553.532 172.633L552.065 168.103L547.661 164.042L548.329 161.543L547.261 159.043L551.397 157.638V155.451L546.861 152.015L541.791 152.796L540.59 155.295L538.054 154.982L536.72 156.544L535.119 154.982L533.651 156.857H530.182V164.823L533.251 166.697L536.186 164.042L540.456 166.229L541.39 171.383L550.33 179.661L551.931 179.505L557.935 185.128L559.136 184.816L560.337 189.658L559.003 192.47L552.198 193.251L551.397 194.344L549.529 193.719L548.195 195.593L557.268 201.217L558.336 199.03L557.135 196.999L558.736 194.032L560.604 194.813L564.34 190.283V187.627L561.671 186.066L563.406 182.942L567.809 185.753Z" fill="#C3CDDF" stroke="white" stroke-width="0.6" stroke-miterlimit="10"/>
<path d="M540.59 149.047H532.984L532.317 148.422V148.579L530.449 148.891V150.765L527.647 154.202V155.451H530.182V156.857H533.651L535.119 154.983L536.72 156.545L538.055 154.983L540.59 155.295L541.657 153.108L538.588 151.234L540.59 149.047Z" fill="#C3CDDF" stroke="white" stroke-width="0.6" stroke-miterlimit="10"/>
<path d="M527.647 132.958L524.578 131.24L518.307 130.771L516.439 132.177L523.11 139.206L524.311 138.269L526.713 139.362L528.981 136.707L527.647 132.958Z" fill="#C3CDDF" stroke="white" stroke-width="0.6" stroke-miterlimit="10"/>
<path d="M528.714 130.303H527.38V129.366H529.782L531.116 127.804V126.71H529.915V125.773H531.516V123.43L530.849 122.181H527.113L523.511 124.524V127.023L518.307 130.771L524.578 131.24L527.647 132.958V133.114L528.714 131.709V130.303Z" fill="#C3CDDF" stroke="white" stroke-width="0.6" stroke-miterlimit="10"/>
<path d="M539.389 113.278L542.858 109.217L542.058 108.28L540.59 106.562L541.924 105V103.282H540.19L538.188 105.625H536.32L534.319 107.968V113.435L536.587 116.09L539.389 114.996V113.278Z" fill="#C3CDDF" stroke="white" stroke-width="0.6" stroke-miterlimit="10"/>
<path d="M554.333 129.366V125.773L553.132 124.367L553.265 119.682L550.463 116.401H547.528L545.393 118.744H542.191L540.723 117.026L539.389 115.464V114.996L536.587 116.089L536.987 116.558V120.775H535.786V122.181H533.918V120.775H530.983V122.181H530.849L531.516 123.43V125.773H529.915V126.71H531.116V127.804L529.782 129.366H527.38V130.303H528.714V131.709L527.647 133.114L528.981 136.707L526.713 139.362L534.185 143.111L532.317 148.422L532.984 149.046H538.054H540.59L540.189 149.515L548.729 148.422L549.396 145.766L552.598 143.736L546.861 140.299V136.082L553.532 133.114H555.667V130.771L554.333 129.366Z" fill="#C3CDDF" stroke="white" stroke-width="0.6" stroke-miterlimit="10"/>
<path d="M567.409 137.019V140.143L567.142 140.456H577.15L578.751 142.33H579.551V139.675L582.353 136.395H584.088V134.208L582.353 132.177V128.272H580.485V125.617H582.754V123.118L581.286 121.4V117.339H578.617H570.611L570.078 117.963H566.075V116.401H559.804L553.399 119.838L553.266 119.681L553.132 124.367L554.333 125.773V129.366L555.667 130.771V132.646L562.072 137.019H567.409Z" fill="#C3CDDF" stroke="white" stroke-width="0.6" stroke-miterlimit="10"/>
<path d="M586.622 101.406L588.624 103.749H591.426V103.281L592.76 102.187L590.759 97.9701L592.36 96.4082L592.227 94.8462L591.96 95.0024H581.686L577.416 97.9701L575.147 99.5321L576.081 101.094L578.617 100.469L579.417 98.9073L580.752 100.469H582.486V102.5L584.621 101.406H586.622Z" fill="#C3CDDF" stroke="white" stroke-width="0.6" stroke-miterlimit="10"/>
<path d="M555.667 142.798H558.069L562.205 144.36L563.406 144.829L567.142 140.455L567.409 140.143V137.019H562.071L555.667 132.646V133.114H553.532L546.86 136.082V140.299L552.598 143.735L551.664 144.36H555.667V142.798Z" fill="#C3CDDF" stroke="white" stroke-width="0.6" stroke-miterlimit="10"/>
<path d="M579.018 115.309H576.216L575.682 114.215H574.481L572.88 114.684L570.612 117.339H578.617L579.018 115.309Z" fill="#C3CDDF" stroke="white" stroke-width="0.6" stroke-miterlimit="10"/>
<path d="M557.402 157.169H558.469V155.763L560.07 153.889L560.204 152.327L558.869 153.889H552.064L550.864 155.138L551.397 155.451V157.637L552.198 157.169L552.465 158.731H557.402V157.169Z" fill="#C3CDDF" stroke="white" stroke-width="0.6" stroke-miterlimit="10"/>
<path d="M558.869 153.889L560.204 152.327L560.604 151.858L563.006 147.016L562.205 144.361L558.069 142.799H555.667V144.361H551.664L549.396 145.767L548.729 148.422L540.189 149.515L538.588 151.233L541.657 153.108L541.79 152.795L546.861 152.014L550.864 155.138L552.064 153.889H558.869Z" fill="#C3CDDF" stroke="white" stroke-width="0.6" stroke-miterlimit="10"/>
<path d="M558.603 162.48L561.805 160.449L569.41 160.918V156.857H567.676V157.95H565.007L560.07 153.889L558.469 155.764V157.169H557.402V158.731H552.465L551.264 160.449L554.466 163.417L555.267 161.074L556.468 165.76L568.076 173.257L562.472 167.01L558.603 162.48Z" fill="#C3CDDF" stroke="white" stroke-width="0.6" stroke-miterlimit="10"/>
<path d="M576.215 108.592H584.755L585.822 109.998H587.29L589.158 112.184H590.092H592.494L594.629 109.529L593.428 106.717V104.843H591.426V103.75H588.624L586.623 101.407H584.621L582.486 102.5V107.186H579.951L577.416 104.218H574.748L572.613 106.717V110.935L573.146 111.716L573.413 109.685L576.215 108.592Z" fill="#C3CDDF" stroke="white" stroke-width="0.6" stroke-miterlimit="10"/>
<path d="M586.623 118.901L587.29 119.37L588.224 118.433L587.557 117.495L588.224 114.996L590.626 114.215L590.092 112.185H589.158L587.29 109.998H585.822L584.755 108.592H576.215L573.413 109.686L573.147 111.716V111.872L573.947 113.278L572.88 114.684L574.481 114.215H575.682L576.215 115.309H579.018L578.617 117.339H581.286V119.995H583.954L586.623 118.901Z" fill="#C3CDDF" stroke="white" stroke-width="0.6" stroke-miterlimit="10"/>
<path d="M585.155 129.21H588.891L589.425 129.835H592.627L593.161 130.46H597.698L598.365 131.241H603.035V132.334H603.835V129.835L605.17 128.429V123.275H609.306V120.619L603.035 115.777V112.028L594.896 110.154L594.629 109.529L592.494 112.185H590.092L590.626 114.215L588.224 114.996L587.557 117.495L588.224 118.432L587.29 119.37L586.623 118.901L583.954 119.994H581.286V121.4L582.753 123.118V125.618H580.485V128.273H582.353V130.928H583.687L585.155 129.21Z" fill="#C3CDDF" stroke="white" stroke-width="0.6" stroke-miterlimit="10"/>
<path d="M606.504 156.7L606.637 156.544V153.889H608.906H611.174V155.919H616.378L616.244 156.856L612.508 158.887V159.824H614.776V160.605H616.511V163.104L617.845 164.822L621.848 162.167V160.761H625.851V159.199H621.715L619.847 157.013V155.763L622.916 152.639H625.451L630.388 151.39V146.704H634.924V138.113H628.253L626.385 135.926H620.38L614.109 128.429H605.17L603.835 129.834V132.334H603.035V131.24H598.365L597.697 130.459H593.161L592.627 129.834H589.425L588.891 129.21H585.155L583.687 130.928H582.353V132.177L584.088 134.208V136.395H582.353L579.551 139.675V142.33H578.884L578.484 145.298L581.419 147.485H586.489L587.69 148.89H588.891L589.692 147.953H591.693L593.961 145.298H596.63L601.567 147.641V149.984L603.969 152.952V153.889H600.9V157.325L599.165 159.199L600.499 160.605L601.834 159.356L603.302 159.199V157.794H604.502L605.303 155.763" fill="#C3CDDF"/>
<path d="M606.504 156.7L606.637 156.544V153.889H608.906H611.174V155.919H616.378L616.244 156.856L612.508 158.887V159.824H614.776V160.605H616.511V163.104L617.845 164.822L621.848 162.167V160.761H625.851V159.199H621.715L619.847 157.013V155.763L622.916 152.639H625.451L630.388 151.39V146.704H634.924V138.113H628.253L626.385 135.926H620.38L614.109 128.429H605.17L603.835 129.834V132.334H603.035V131.24H598.365L597.697 130.459H593.161L592.627 129.834H589.425L588.891 129.21H585.155L583.687 130.928H582.353V132.177L584.088 134.208V136.395H582.353L579.551 139.675V142.33H578.884L578.484 145.298L581.419 147.485H586.489L587.69 148.89H588.891L589.692 147.953H591.693L593.961 145.298H596.63L601.567 147.641V149.984L603.969 152.952V153.889H600.9V157.325L599.165 159.199L600.499 160.605L601.834 159.356L603.302 159.199V157.794H604.502L605.303 155.763" stroke="white" stroke-width="0.6" stroke-miterlimit="10"/>
<path d="M598.764 152.795L598.231 158.731L599.298 159.043L600.899 157.325V153.889H603.968V152.951L601.566 149.984V147.641L596.63 145.298H593.961L593.294 146.079L594.895 148.734L598.764 152.795Z" fill="#C3CDDF" stroke="white" stroke-width="0.6" stroke-miterlimit="10"/>
<path d="M568.343 148.422V146.86H575.015L576.349 145.454H578.751L578.484 145.298L578.884 142.33H578.751L577.15 140.456H567.142L563.406 144.83L562.205 144.361L563.006 147.016V147.173L564.607 148.422H568.343Z" fill="#C3CDDF" stroke="white" stroke-width="0.6" stroke-miterlimit="10"/>
<path d="M579.418 148.891V151.39L575.815 155.451H573.414V156.232L574.481 158.262L578.484 162.948H581.953V165.604V165.76L583.688 167.79H592.361L594.362 165.447L598.632 165.916L601.167 168.103H601.3V162.324H604.102V159.512L606.504 156.7L605.303 155.763L604.503 157.794H603.302V159.2L601.834 159.356L600.5 160.605L599.165 159.2L599.299 159.043L598.231 158.731L598.765 152.796L594.896 148.734L593.295 146.079L591.693 147.953H589.692L588.891 148.891H587.69L586.49 147.485H581.419H581.286L580.752 148.891H579.418Z" fill="#C3CDDF" stroke="white" stroke-width="0.6" stroke-miterlimit="10"/>
<path d="M573.413 155.451H575.815L579.418 151.39V148.89H580.752L581.286 147.485L578.751 145.454H576.349L575.014 146.86H568.343V148.422H564.607L563.006 147.172L560.604 151.858L560.204 152.327L560.07 153.889L565.007 157.95H567.676V156.856H569.41L571.145 155.451H573.413Z" fill="#C3CDDF" stroke="white" stroke-width="0.6" stroke-miterlimit="10"/>
<path d="M569.677 168.259H571.145V165.603L569.944 164.197L570.745 163.26V161.542L569.41 160.761V160.917L561.805 160.449L558.603 162.479L562.472 167.009L563.94 169.352L564.874 170.289L565.408 170.914L568.076 173.257L567.809 170.601L569.677 168.259Z" fill="#C3CDDF" stroke="white" stroke-width="0.6" stroke-miterlimit="10"/>
<path d="M575.282 175.131L573.681 173.257H571.813L570.478 174.819H569.678L571.012 176.068L570.745 184.034L573.948 187.002L574.081 187.315H574.882V184.659H575.816L577.283 182.941V181.379L575.015 179.505L575.282 175.131Z" fill="#C3CDDF" stroke="white" stroke-width="0.6" stroke-miterlimit="10"/>
<path d="M581.018 173.882L576.215 174.507L575.414 175.444L575.281 175.132L575.014 179.505L577.282 181.38V181.224H579.284V179.349H581.552L582.353 178.568H583.02V176.225L581.018 173.882Z" fill="#C3CDDF" stroke="white" stroke-width="0.6" stroke-miterlimit="10"/>
<path d="M597.164 174.975L598.765 175.131V168.103H601.167L598.632 165.916L594.362 165.447L592.36 167.79H583.687L581.953 165.76V165.603L581.286 165.916V167.946L582.753 169.508V171.383H581.019V173.882L583.02 176.225V178.568H583.954L584.755 177.474H587.824L588.758 178.724H593.028V176.85H594.095H594.228L594.896 175.444L597.164 174.975Z" fill="#C3CDDF" stroke="white" stroke-width="0.6" stroke-miterlimit="10"/>
<path d="M641.062 201.217L643.464 198.561H649.335H654.539H655.74H657.608L650.269 180.599L647.867 177.787H642.663L640.262 180.599H632.122V179.193H626.652L623.45 175.444H616.111L610.373 178.256V179.193H603.435L598.765 175.132L597.164 174.976L594.896 175.444L594.228 176.85L594.896 177.787V179.037H594.362V181.38L596.63 181.223L597.965 180.755H602.901L604.503 181.38L603.168 183.254L596.897 183.098L593.695 185.128L595.963 191.532L599.566 200.748H604.369L606.104 202.779H609.573V199.186H612.642L616.111 203.247H621.181L623.183 200.904H628.12V203.716L630.254 201.217H641.062Z" fill="#C3CDDF" stroke="white" stroke-width="0.6" stroke-miterlimit="10"/>
<path d="M585.021 196.687L581.285 193.719L582.086 192.625L586.889 196.374V194.031L590.759 195.593V194.656L587.823 192.782L587.156 190.595L582.219 183.097L588.624 180.442L593.961 181.379H594.361V179.036H594.895V177.787L594.095 176.85H593.027V178.724H588.757L587.823 177.474H584.754L583.954 178.568H582.353L581.552 179.349H579.284V181.223H577.282V182.941L575.815 184.659H574.881V187.315H574.08L577.016 192.469L579.417 193.094L577.95 195.437L578.884 198.561L580.485 200.591L580.752 199.342L582.353 201.216L583.153 200.435L584.221 202.778L585.155 201.529L583.954 197.936L585.021 196.687Z" fill="#C3CDDF" stroke="white" stroke-width="0.6" stroke-miterlimit="10"/>
<path d="M593.694 206.683H591.56L591.159 206.371H588.891L588.624 206.059H586.089V208.089H589.291L590.626 209.182H595.429V207.621H593.694V206.683Z" fill="#C3CDDF" stroke="white" stroke-width="0.6" stroke-miterlimit="10"/>
<path d="M592.894 198.561H591.026V199.81H592.894V198.561Z" fill="#C3CDDF" stroke="white" stroke-width="0.6" stroke-miterlimit="10"/>
<path d="M589.558 200.435H588.624V201.216H589.558V200.435Z" fill="#C3CDDF" stroke="white" stroke-width="0.6" stroke-miterlimit="10"/>
<path d="M599.032 204.652H597.964V207.307H599.032V204.652Z" fill="#C3CDDF" stroke="white" stroke-width="0.6" stroke-miterlimit="10"/>
<path d="M595.162 196.218H593.961V197.936H595.162V196.218Z" fill="#C3CDDF" stroke="white" stroke-width="0.6" stroke-miterlimit="10"/>
<path d="M594.228 191.688H593.161V193.875H594.228V191.688Z" fill="#C3CDDF" stroke="white" stroke-width="0.6" stroke-miterlimit="10"/>
<path d="M594.495 199.654H593.561V200.903H594.495V199.654Z" fill="#C3CDDF" stroke="white" stroke-width="0.6" stroke-miterlimit="10"/>
<path d="M601.834 202.466H600.233V204.34H601.834V202.466Z" fill="#C3CDDF" stroke="white" stroke-width="0.6" stroke-miterlimit="10"/>
<path d="M581.285 167.947V165.916L581.953 165.604V162.949H578.483L574.48 158.263L573.413 156.232V155.451H571.145L569.41 156.857V160.762L570.744 161.543V163.261L569.944 164.198L571.145 165.604V168.259H570.878L573.546 173.258H573.68L575.414 175.444L576.215 174.507L581.019 173.882V171.383H582.753V169.509L581.285 167.947Z" fill="#C3CDDF" stroke="white" stroke-width="0.6" stroke-miterlimit="10"/>
<path d="M569.677 168.259L567.809 170.602L568.076 173.257L569.677 174.819H570.478L571.812 173.257H573.547L570.878 168.259H569.677Z" fill="#C3CDDF" stroke="white" stroke-width="0.6" stroke-miterlimit="10"/>
<path d="M644.665 41.8952L646.266 45.8001L653.338 47.5183L662.411 48.1431L662.945 45.9563L656.14 40.8018L662.945 31.5862L680.691 26.2756V23.9326H673.62L672.952 24.7136H662.011L650.936 30.8053L644.665 41.8952Z" fill="#C3CDDF" stroke="white" stroke-width="0.6" stroke-miterlimit="10"/>
<path d="M722.454 12.9992L733.396 17.2165L745.404 17.8412V14.4049L730.327 9.09424L722.454 12.9992Z" fill="#C3CDDF" stroke="white" stroke-width="0.6" stroke-miterlimit="10"/>
<path d="M747.806 15.499V21.1221H751.676L759.815 19.4039V17.842L752.61 15.499H747.806Z" fill="#C3CDDF" stroke="white" stroke-width="0.6" stroke-miterlimit="10"/>
<path d="M846.411 26.9009L846.945 30.0248L854.951 32.3678L866.692 30.8058V28.4628L846.411 26.9009Z" fill="#C3CDDF" stroke="white" stroke-width="0.6" stroke-miterlimit="10"/>
<path d="M870.295 29.5557V31.1176L882.303 32.3672V29.5557H870.295Z" fill="#C3CDDF" stroke="white" stroke-width="0.6" stroke-miterlimit="10"/>
<path d="M864.024 33.6172V36.4287L872.964 37.9907V36.5849L864.024 33.6172Z" fill="#C3CDDF" stroke="white" stroke-width="0.6" stroke-miterlimit="10"/>
<path d="M971.968 45.4882L974.77 47.9874L981.442 46.7378V44.7073L975.838 43.9263L971.968 45.4882Z" fill="#C3CDDF" stroke="white" stroke-width="0.6" stroke-miterlimit="10"/>
<path d="M943.815 116.87L966.231 143.111L965.163 143.736L962.628 140.768H960.093L961.961 147.797L969.7 154.982L968.632 155.451L965.563 153.889L965.83 156.856H964.496L960.893 152.639L959.959 146.547L957.291 143.424L951.82 134.989V132.49L947.551 129.21L946.75 126.086L943.815 122.962L945.015 120.775L942.614 117.651L943.815 116.87Z" fill="#C3CDDF" stroke="white" stroke-width="0.6" stroke-miterlimit="10"/>
<path d="M1009.06 69.5419L1011.73 68.9171L1026.67 74.384L1029.34 72.1972L1025.07 69.2295L1027.07 68.6047L1025.87 65.7932L1014.53 61.4197H1008.79L971.434 51.5793L957.424 50.1735L960.493 53.1413L959.159 54.7032L950.353 50.7983H927.136L924.601 47.8306L907.255 47.362L894.312 44.2381V42.3637L868.293 39.7084L869.894 45.1752L851.348 43.1447V47.8306L835.069 36.272H822.927V39.2398L809.317 36.8968L791.171 35.6473L779.029 39.2398V38.3026L790.237 31.5861V29.7118L783.966 25.6507H770.489V23.9325H764.752V22.2144H756.079V25.9631L727.659 31.2738L729.126 36.5844H715.516L718.986 40.9579L717.785 42.5199L713.248 41.1141L708.711 42.3637L704.041 37.2092H702.707L704.442 41.4265L702.04 43.6133L707.511 52.6727L715.917 53.4537L719.786 58.7643L718.719 59.5453L715.249 55.7966H711.113L707.911 65.1684L704.709 63.6064L707.244 56.4214L703.107 54.3908L700.039 47.0496L697.77 44.3943V38.7712H687.896V43.1447L686.429 44.8629L686.829 50.3297L695.102 54.547L694.168 57.671L684.16 52.6727L666.414 47.2058L665.881 49.5487L673.486 53.9223L670.017 56.89L668.416 53.1413L660.01 55.6404L658.942 56.89H655.74V54.0784L640.929 59.8577V62.6693H636.259L634.391 60.4825V58.7643H636.526L634.391 56.2652H630.388V61.2635L632.79 62.6693L631.856 66.1056L626.786 64.3874L621.849 68.6047L623.85 72.5096L613.843 70.0105L613.309 72.1972L617.579 73.603L617.712 75.7898L609.04 73.2906L607.972 67.3552L601.434 63.294V61.5759L620.114 67.3552L623.85 62.9817L622.516 59.3891L607.305 53.6099L594.896 50.9545L589.826 53.4537V57.5148L593.829 58.9205L591.694 63.294L595.296 67.8237V72.6658L596.897 74.5402V77.1955L600.1 80.9443V82.8186L593.295 89.3789L595.029 91.4094H598.232V92.9714H595.43L592.494 94.6896V96.2515L590.893 97.6573L592.895 101.875L591.56 102.968V104.53H593.562V106.404L595.029 109.684L603.169 111.559V115.307L609.44 120.15V122.805H605.304V128.116H614.11L620.514 135.613H626.519L628.387 137.8H635.058V146.391H630.388V151.076L633.591 150.139V151.545L631.189 153.419H629.321V154.357L631.322 155.919L629.721 157.168V159.043L627.987 159.667L632.256 162.791H634.658C634.658 162.791 636.926 165.447 639.328 168.258L641.063 167.79L651.604 172.475H655.34L661.878 175.912L664.947 179.504L667.482 176.224L662.945 171.226V166.384L659.343 164.509V161.542L662.011 158.418H663.879L666.281 155.606L660.944 149.358H657.608V145.766H655.206V137.019L657.341 134.52L660.81 138.581L662.145 137.019L659.876 134.363L667.081 129.834H672.419L682.826 135.144L684.961 132.645H690.698L692.833 135.144H700.039V131.24L695.102 129.209L696.703 123.898L695.235 120.618L696.569 118.9L716.851 112.808L723.389 112.965L726.057 118.431H734.463V122.024H737.666L742.736 116.088V119.212L758.481 134.207L761.016 131.864L763.685 134.676L769.555 133.426L776.093 141.08H781.297L786.234 142.329L796.642 134.676H804.114V137.956H815.855V133.582L814.121 131.552V127.178L826.53 131.708L830.666 136.55H835.47L837.071 134.676L848.145 138.893L850.414 141.392H864.157L867.76 137.175L879.635 140.299L882.437 136.863V127.022L879.635 123.742L881.636 121.399H894.446L910.59 140.299H918.062L925.668 149.202H931.139V145.297H937.677V160.604H932.206L937.81 171.382L938.744 170.289H947.417L952.354 145.297L946.083 128.584L942.48 123.117L931.672 117.65V121.087L918.329 115.932L926.068 94.0648H948.351L953.021 95.9391V98.5945L961.027 95.6267V93.7524H957.424V83.5996H965.964L970.5 88.9103L973.97 84.8492L971.968 81.569L975.571 81.4128L978.773 87.0359L975.704 96.7201L977.172 98.5945L974.103 107.498L996.119 133.27L1000.12 128.584L998.12 126.085L1000.92 122.805L996.919 118.119H1000.26V115.932L996.653 111.715L998.387 109.684L991.716 101.406H987.846L983.71 91.878H988.78L990.115 93.44H991.983V90.7846H1001.72L1009.2 82.0376L1016.4 82.9748L1016.53 81.1004L1003.06 73.2906L1005.59 70.6353L1001.99 67.6675L1003.72 66.5742L1009.06 69.5419ZM842.675 123.274L838.405 127.491V129.521L833.735 131.552L830.132 129.521L835.336 127.647V125.304L837.071 123.274L839.473 120.462V111.715H840.673L842.675 118.119V123.274Z" fill="#C3CDDF" stroke="white" stroke-width="0.6" stroke-miterlimit="10"/>
<path d="M447.322 69.2299L451.592 76.7274L461.066 78.9141L475.876 69.2299L471.473 64.8564L456.262 68.449L453.727 64.8564L447.322 69.2299Z" fill="#C3CDDF" stroke="white" stroke-width="0.6" stroke-miterlimit="10"/>
<path d="M927.669 264.632L932.072 271.348H933.674V255.885L930.605 255.104L927.669 264.632Z" fill="#C3CDDF" stroke="white" stroke-width="0.6" stroke-miterlimit="10"/>
<path d="M890.576 283.844V288.53H894.845L897.381 285.562V282.595H892.71L890.576 283.844Z" fill="#C3CDDF" stroke="white" stroke-width="0.6" stroke-miterlimit="10"/>
<path d="M923.533 177.631L925 176.381L928.603 177.631L928.069 175.444L932.205 172.632V170.758L932.873 169.977L934.874 171.383H937.676H937.81L932.205 160.449H937.676V145.142H931.138V149.047H925.667L918.062 140.143H910.456L894.445 121.4H881.502L879.501 123.743L882.303 127.023V136.863L879.501 140.3L875.765 139.363V147.016H885.238L893.644 152.952V154.357H882.036V159.199H877.099V162.48H873.363L871.762 160.605H869.894V164.042L872.696 167.009L869.894 169.04V171.539L867.359 173.413H859.353L854.283 177.474L842.674 174.819V172.476H823.193L818.123 164.823L809.717 159.668H800.377V153.889L794.373 148.266L786.233 143.736L785.833 142.174L782.764 141.237V144.986H780.229V147.485L781.697 149.203V151.233H773.424V156.857L775.025 158.731V160.293L771.289 159.512L767.153 161.23L772.09 169.196L771.156 173.57H771.022L771.289 176.381H769.421H767.82V179.974H761.416V183.566H757.813V182.317L753.41 184.503V187.315H752.876V190.126L754.344 191.845L755.278 190.751L759.281 192.782L758.747 195.593L759.948 197.155L758.347 198.873H761.015L763.684 201.685V204.34L770.756 207.464L775.025 204.496L779.562 206.683V210.744L778.094 212.462V213.556H775.559L776.626 216.68H778.761L779.562 219.491L777.961 221.209L776.493 219.804L775.025 221.209L777.427 223.396L777.294 225.895L786.634 232.456L788.769 229.957L809.05 243.389L814.387 241.515L815.455 242.296V245.108H816.389L819.057 240.265L825.061 243.077H828.797V241.671L833.868 235.736L837.204 237.298L839.472 235.423L842.407 237.923L840.94 239.797L844.809 241.359L845.876 239.797L850.146 244.327V253.698L848.278 255.885V261.821H852.948L853.749 265.726H856.284V270.568H858.552V273.535H862.955V274.941H864.957V269.006H866.291V267.6H873.096L875.231 266.819V264.476H876.832L878.834 266.819H882.036V270.411L887.24 273.535L888.574 271.661L894.712 273.379V278.69H896.713L896.313 274.004L914.86 266.194L923.666 255.104L929.67 240.109V233.393L923.933 231.206L926.868 226.989L917.662 213.243L912.191 209.651L915.927 199.342H920.33V197.311L912.992 194.656L908.989 199.342L900.983 190.126L910.59 178.88L914.726 183.722L910.99 188.096L913.392 190.907L920.73 185.44L924.333 179.505L923.533 177.631Z" fill="#C3CDDF" stroke="white" stroke-width="0.6" stroke-miterlimit="10"/>
<path d="M743.803 179.349L739.533 177.474L741.668 174.819L740.601 174.038L741.001 173.57V171.695H748.34V169.821H750.875L752.476 171.695H765.952L771.156 173.57L771.289 176.381H767.82V179.974H761.416V183.566H757.813V182.317L753.41 184.503V187.315L751.142 187.159V188.252L743.002 187.783L742.602 187.315H738.066L737.398 185.597L739.934 183.566L742.202 184.972L742.335 184.191H746.338L749.007 181.223L743.803 177.474V179.349Z" fill="#C3CDDF" stroke="white" stroke-width="0.6" stroke-miterlimit="10"/>
<path d="M937.943 192.001L932.339 186.69L937.41 180.755L935.808 177.631L936.476 172.789L937.676 171.383H934.874L932.873 169.977L932.206 170.758V172.632L928.07 175.444L928.603 177.631L925.001 176.381L923.533 177.631L924.334 179.505L920.731 185.44L925.401 187.471L924.867 194.031L934.608 196.062L937.943 192.001Z" fill="#C3CDDF" stroke="white" stroke-width="0.6" stroke-miterlimit="10"/>
<path d="M945.682 200.436L937.943 192.001L934.607 196.062L934.874 198.561L932.472 199.967L936.475 204.184L937.676 211.526L946.215 208.558L945.682 200.436Z" fill="#C3CDDF" stroke="white" stroke-width="0.6" stroke-miterlimit="10"/>
<path d="M886.439 387.246H882.302V379.749H879.767V375.375L859.886 357.725L857.751 351.009H852.547L850.946 349.134H846.41L861.354 367.097V376.625H863.889L868.426 388.964L881.368 404.116H886.439V387.246Z" fill="#C3CDDF" stroke="white" stroke-width="0.6" stroke-miterlimit="10"/>
<path d="M910.457 408.958L903.518 406.927V409.739L895.513 408.958V406.771L887.64 405.209L883.504 408.958L888.574 409.895L888.04 411.457L916.061 418.173V413.019L910.457 411.613V408.958Z" fill="#C3CDDF" stroke="white" stroke-width="0.6" stroke-miterlimit="10"/>
<path d="M933.539 415.518L927.935 414.737L926.734 417.08L917.661 415.518V417.705L925.8 419.579L933.539 418.173V415.518Z" fill="#C3CDDF" stroke="white" stroke-width="0.6" stroke-miterlimit="10"/>
<path d="M954.888 415.206L935.141 417.08V418.173H941.945L954.888 417.08V415.206Z" fill="#C3CDDF" stroke="white" stroke-width="0.6" stroke-miterlimit="10"/>
<path d="M932.339 421.453V423.64H935.141L937.142 425.983L939.144 423.64L936.609 420.672L932.339 421.453Z" fill="#C3CDDF" stroke="white" stroke-width="0.6" stroke-miterlimit="10"/>
<path d="M956.089 417.08L947.683 425.983L950.084 426.764L962.76 417.08L961.96 415.206L956.089 417.08Z" fill="#C3CDDF" stroke="white" stroke-width="0.6" stroke-miterlimit="10"/>
<path d="M895.779 389.121L892.176 387.715L890.708 390.526L893.777 392.557L895.779 389.121Z" fill="#C3CDDF" stroke="white" stroke-width="0.6" stroke-miterlimit="10"/>
<path d="M887.107 385.84V390.839H889.241V388.34L887.907 383.654L884.438 383.185L884.972 385.84H887.107Z" fill="#C3CDDF" stroke="white" stroke-width="0.6" stroke-miterlimit="10"/>
<path d="M960.092 385.684L953.154 383.966V386.622H958.891V388.496L960.092 385.684Z" fill="#C3CDDF" stroke="white" stroke-width="0.6" stroke-miterlimit="10"/>
<path d="M959.292 390.839V392.87L961.96 395.525L963.962 393.182L962.761 390.839H959.292Z" fill="#C3CDDF" stroke="white" stroke-width="0.6" stroke-miterlimit="10"/>
<path d="M966.097 390.214L967.698 393.182H972.501L975.036 395.525L976.904 393.182L975.036 390.214H966.097Z" fill="#C3CDDF" stroke="white" stroke-width="0.6" stroke-miterlimit="10"/>
<path d="M966.897 376.937V374.282L969.832 375.375V373.657L968.631 372.095L969.832 368.502H967.831L969.832 364.91L968.365 364.129L966.096 365.378L963.961 372.564L965.029 374.282V377.093H963.294V379.749H968.231L966.897 376.937Z" fill="#C3CDDF" stroke="white" stroke-width="0.6" stroke-miterlimit="10"/>
<path d="M978.372 376.781L975.303 376V378.656H978.372V376.781Z" fill="#C3CDDF" stroke="white" stroke-width="0.6" stroke-miterlimit="10"/>
<path d="M1001.59 382.56L999.453 385.059V387.715H997.452L993.716 391.932H990.247V387.402H988.912L989.713 382.872L988.646 379.436H985.977L985.043 378.187H981.841L980.64 379.748H974.902L976.904 384.278H981.44V387.09H986.644V388.964H980.64V390.214L985.577 395.524L987.044 393.181L1002.12 402.553L1004.52 412.081H1001.32L1000.39 415.361H1008.93L1011.33 420.672L1014 420.984V389.276L1001.59 382.56Z" fill="#C3CDDF" stroke="white" stroke-width="0.6" stroke-miterlimit="10"/>
<path d="M932.872 393.494H935.14V402.866H938.343V390.839L940.744 388.027L941.945 389.433V394.275L943.279 395.681V399.429H945.014V398.024H948.483V395.524H946.882L945.014 393.338L946.482 391.463L942.612 387.09L948.75 379.905V378.499L945.948 381.623H943.013L941.812 383.029H939.143V380.998H938.209V374.906L940.077 373.657L953.42 375.063L958.09 369.752L957.023 368.502L953.153 373.032L941.411 369.908L936.475 373.032V379.749H935.14V385.684L932.872 388.183V393.494Z" fill="#C3CDDF" stroke="white" stroke-width="0.6" stroke-miterlimit="10"/>
<path d="M901.249 390.839H907.921V392.557H912.324V390.839H917.661V397.243L923.799 394.275V384.591L928.469 379.124V371.783H933.539L934.207 369.908L930.604 365.691L931.538 364.598L927.668 360.068L929.67 357.569L927.802 355.851H921.931V361.161L918.328 370.533H914.059L912.991 369.283H910.723L908.588 371.783H904.051L902.05 368.971H900.449L899.782 366.003L896.312 370.064V376.625L901.249 382.404V390.839Z" fill="#C3CDDF" stroke="white" stroke-width="0.6" stroke-miterlimit="10"/>
<path d="M927.135 340.7L919.93 353.04L918.862 351.634L910.856 360.85L905.786 361.474V368.972H902.05L904.051 371.783H908.588L910.723 369.284H912.991L914.059 370.534H918.328L921.931 361.162V355.851H927.802L929.67 357.569L935.674 350.541L927.135 340.7Z" fill="#C3CDDF" stroke="white" stroke-width="0.6" stroke-miterlimit="10"/>
<path d="M877.633 352.571L872.963 346.635L870.027 349.135H868.426V346.635L865.624 344.292L864.557 345.386L865.758 346.948L866.692 355.851L870.027 359.912V362.724L878.567 370.846L880.301 373.345H881.502L881.903 367.566L877.633 362.567V352.571Z" fill="#C3CDDF" stroke="white" stroke-width="0.6" stroke-miterlimit="10"/>
<path d="M880.386 373.415L878.573 370.854L881.681 367.665L881.926 367.777L881.484 373.415H880.386Z" fill="url(#paint0_linear_1719_9867)" stroke="white" stroke-width="0.5"/>
<path d="M743.003 196.531V192.158H747.406V199.967L753.677 197.312L759.281 196.219L758.747 195.594L759.281 192.782L755.278 190.752L754.344 191.845L752.876 190.127V187.315L751.142 187.159V188.253L743.003 187.784L742.602 187.315H738.066L737.399 185.597L739.934 183.567L742.202 184.973L742.335 184.192L740.868 182.63L741.935 181.536L740.067 180.287L735.664 186.222H732.195V188.409L736.465 194.032L734.863 197.468L736.331 199.967L743.003 196.531Z" fill="#C3CDDF" stroke="white" stroke-width="0.6" stroke-miterlimit="10"/>
<path d="M732.061 234.955L734.863 233.393V228.551L736.331 226.989H738.866V225.271L740.468 223.709H742.736V225.271H744.204V217.93H747.139V216.524L745.004 214.65V213.869H749.674V205.746L747.806 203.56V201.217L752.61 199.186L757.547 199.967L758.881 198.874H758.347L759.948 197.156L759.281 196.218L753.677 197.312L747.406 199.967V192.157H743.003V196.531L736.331 199.967L734.863 197.468L734.597 198.093L730.46 196.531V197.312H725.123V202.466L720.32 204.653V206.996H717.918L713.381 205.122V215.431L714.315 216.524L716.317 225.583H718.985V229.176L716.05 232.456L717.117 233.706L722.054 234.955H732.061Z" fill="#C3CDDF" stroke="white" stroke-width="0.6" stroke-miterlimit="10"/>
<path d="M754.344 259.79V255.885L750.875 251.98V248.544H748.073V246.201L751.009 242.609H752.877L753.677 243.546H756.346L757.013 238.86L759.815 235.736V232.768H761.683V229.957L763.684 227.614V223.396L764.752 222.303V220.585H762.35V217.93L759.948 215.118V212.619L758.747 211.213V209.807H765.819L769.288 206.84L763.684 204.34V201.685L761.016 198.874H758.881L757.547 199.967L752.61 199.186L747.806 201.216V203.559L749.674 205.746V213.868H745.004V214.649L747.139 216.524V217.93H744.204V225.271H742.736V223.709H740.468L738.866 225.271V226.989H736.331L734.864 228.551V233.393L732.062 234.955H722.054L717.117 233.705L722.188 239.641H724.056V245.108H726.858V248.544H723.522L721.387 251.199V254.48L722.188 254.636H739.534L746.339 262.602V259.79H754.344Z" fill="#C3CDDF" stroke="white" stroke-width="0.6" stroke-miterlimit="10"/>
<path d="M784.499 238.547L796.908 246.67L808.65 249.481L813.586 250.106L814.387 248.544L813.32 246.045L813.053 241.984L809.05 243.389L788.768 229.957L786.634 232.456L785.7 231.831L784.499 233.705V238.547Z" fill="#C3CDDF" stroke="white" stroke-width="0.6" stroke-miterlimit="10"/>
<path d="M820.659 248.7L821.459 247.294L826.797 248.7L827.33 245.42L824.928 244.795L825.062 243.077L819.058 240.265L816.389 245.107H815.855L815.722 247.294L820.659 248.7Z" fill="#C3CDDF" stroke="white" stroke-width="0.6" stroke-miterlimit="10"/>
<path d="M829.998 262.757H828.664V265.881H826.396V259.946H827.997L830.532 256.978L829.065 255.26H819.724V252.448H818.123L816.255 250.262L814.387 252.448L817.323 255.885H815.188V259.946H816.789L817.856 261.195L817.189 262.757L820.392 272.754L826.396 270.099V267.6H828.664L831.066 274.472L832.934 273.847L829.998 262.757Z" fill="#C3CDDF" stroke="white" stroke-width="0.6" stroke-miterlimit="10"/>
<path d="M834.535 269.161L832.934 267.756V265.881H834.135V262.445H836.67L838.404 256.822L837.204 255.416L838.671 253.542V249.324L841.34 246.201H843.875V244.17L844.676 243.233V241.358L840.94 239.796L842.407 237.922L839.472 235.423L837.204 237.297L833.868 235.735L828.798 241.671V243.077H825.062L824.928 244.795L827.33 245.42L826.796 248.7L821.459 247.294L820.658 248.7L815.721 247.294L815.855 245.107H815.455V242.296L814.387 241.515L813.053 241.983L813.32 246.044L814.387 248.544L813.587 250.105L808.65 249.481L796.908 246.669L784.499 238.547V233.705L785.7 231.83L777.294 225.895L777.427 223.396L775.025 221.209L776.493 219.803L777.961 221.209L779.562 219.491L778.761 216.679H776.627L775.559 213.555H778.094V212.462L779.562 210.744V206.683L775.025 204.496L770.756 207.464L769.288 206.839L765.819 209.807H758.747V211.213L759.948 212.618V215.117L762.35 217.929V220.584H764.751V222.302L763.684 223.396V227.613L761.682 229.956V232.768H759.814V235.735L757.012 238.859L756.345 243.545H753.677L752.876 242.608H751.008L748.073 246.201V248.544H750.875V251.98L754.344 255.885V259.79H746.338V262.601L749.54 266.506H753.543V268.849H749.007L756.746 278.065L759.814 274.316V269.318H761.816L766.086 297.121L772.09 308.211V311.491L779.162 327.735V333.202L782.497 337.107H785.833V331.484H788.235V326.329H791.304V299.151L798.376 297.902V294.934L807.449 282.751L812.519 278.377V274.16L817.99 271.036V273.847L820.391 272.754L817.189 262.757L817.856 261.195L816.789 259.946H815.188V255.885H817.323L814.387 252.448L816.255 250.262L818.123 252.448H819.724V255.26H829.064L830.532 256.978L827.997 259.946H826.396V265.881H828.664V262.757H829.998L832 270.567H834.535V269.161Z" fill="#C3CDDF" stroke="white" stroke-width="0.6" stroke-miterlimit="10"/>
<path d="M861.621 319.613L859.62 315.24V310.242L855.884 305.243V302.744H857.351V298.527L852.014 288.999V281.814H856.151V280.096H857.752V278.69H859.62L862.689 273.535H858.552V270.568H856.284V265.726H853.749L852.948 261.821H848.278V255.885L850.146 253.698V244.327L845.877 239.797L844.809 241.359H844.676V243.233L843.875 244.17V246.201H841.34L838.671 249.325V253.542L837.204 255.417L838.404 256.822L836.67 262.445H834.135V265.882H832.934V267.756L834.535 269.162V270.568H832L832.934 273.848L831.066 274.473L840.94 291.498V300.714H845.743L849.346 297.121L849.613 293.216L852.948 298.527L858.419 317.583L857.885 332.578L861.621 321.331V319.613Z" fill="#C3CDDF" stroke="white" stroke-width="0.6" stroke-miterlimit="10"/>
<path d="M871.895 315.865L870.828 311.335L873.897 307.742H881.235V301.338L878.433 297.902V292.279L875.098 288.53H872.829L870.161 291.654L868.293 289.624L865.624 292.748H864.29V282.751H861.621V279.627L859.753 278.377L859.62 278.69H857.752V280.096H856.151V281.814H852.014V288.999L857.351 298.527V302.744H855.884V305.243L859.62 310.242V315.24L861.621 319.613V321.331L857.885 332.578L857.752 336.639L864.557 345.386L865.624 344.292L868.426 346.635V349.134H870.027L872.963 346.635L870.027 342.887H866.958L863.889 332.265H861.621L860.554 329.454L862.822 318.989V312.428H866.691V315.865H869.894L870.961 318.989L872.696 318.364L872.963 318.676L873.096 315.865H871.895Z" fill="#C3CDDF" stroke="white" stroke-width="0.6" stroke-miterlimit="10"/>
<path d="M892.711 301.807L880.435 284.156L887.24 273.535L882.036 270.411V266.819H878.834L876.833 264.476H875.231V266.819L873.097 267.6H866.292V269.005H866.158L869.094 272.285V274.785L872.696 277.128L873.497 276.347L878.167 280.72L876.699 282.438H875.365L874.431 283.375L888.307 299.776L887.64 300.557L889.508 302.9L890.576 316.958L884.838 319.925V323.049H885.906V324.455H882.036V326.642H880.302L881.236 327.579V334.92H883.237L895.913 321.487L896.58 315.708L892.711 301.807Z" fill="#C3CDDF" stroke="white" stroke-width="0.6" stroke-miterlimit="10"/>
<path d="M859.815 278.476L862.621 273.734H862.962V274.916H864.946V268.946H866.103L869.095 272.341V274.744L872.662 277.148L873.446 276.347L878.188 280.705L876.698 282.391H875.42L874.408 283.335L888.38 299.831L887.593 300.651L889.51 302.977L889.875 306.997H884.565V310.251L879.898 307.764H881.208V301.32L878.436 297.861V292.317L875.049 288.535H872.825L870.23 291.625L868.277 289.573L865.607 292.861H864.216V282.813H861.622V279.667L859.815 278.476Z" fill="#C3CDDF" stroke="white" stroke-width="0.5"/>
<path d="M884.838 319.926L890.575 316.958L889.908 306.961H884.571V310.242L879.634 307.742H873.896L870.828 311.335L871.895 315.865H873.096L872.962 318.676L875.231 324.143L878.166 324.299L880.301 326.642H882.036V324.455H885.905V323.05H884.838V319.926Z" fill="#C3CDDF" stroke="white" stroke-width="0.6" stroke-miterlimit="10"/>
<path d="M626.785 235.735L628.119 227.613V219.491H629.32L631.455 221.834H633.056L638.927 217.304L640.662 222.459L634.39 225.895L636.792 229.175L635.991 232.611H633.323L631.321 237.297L626.785 235.735Z" fill="#C3CDDF" stroke="white" stroke-width="0.6" stroke-miterlimit="10"/>
<path d="M1088.18 473.623L1086.32 467.062L1084.05 468.468L1086.98 477.996L1094.19 486.587L1096.19 484.244L1088.18 473.623Z" fill="#C3CDDF" stroke="white" stroke-width="0.6" stroke-miterlimit="10"/>
<path d="M794.373 148.265L800.378 153.888V159.668H809.718L818.124 164.822L823.194 172.476H842.675V174.819L854.283 177.474L859.353 173.413H867.359L869.894 171.538V169.039L872.696 167.009L869.894 164.041V160.605H871.762L873.363 162.479H877.099V159.199H882.036V154.357H893.645V152.951L885.239 147.016H875.765V139.362L867.626 137.175L864.023 141.393H850.28L848.012 138.893L836.937 134.676L835.336 136.55H830.533L826.263 131.552L813.854 127.022V131.396L815.722 133.427V137.8H803.98V134.52H796.508L786.101 142.174H785.834L786.234 143.735L794.373 148.265Z" fill="#C3CDDF" stroke="white" stroke-width="0.6" stroke-miterlimit="10"/>
<path d="M485.883 256.822L518.44 286.031L525.912 283.844L546.861 264.475L547.661 263.695V258.696H540.056L537.387 251.199V231.518L531.116 211.993L534.185 209.651L534.052 198.561H527.647L523.911 200.903L522.577 199.654L510.168 201.216L506.165 204.34H504.297L499.093 207.62H498.96L500.961 222.459H495.224V227.926L474.542 238.859V243.701V246.825L475.076 247.294V246.2V247.294L485.883 256.822Z" fill="#C3CDDF" stroke="white" stroke-width="0.6" stroke-miterlimit="10"/>
<path d="M635.725 294.934V308.523L640.662 305.712L647.467 307.118L655.74 316.802L655.873 316.958L657.741 314.927L646.266 302.588L642.397 289.467L637.86 294.934H635.725Z" fill="#C3CDDF" stroke="white" stroke-width="0.6" stroke-miterlimit="10"/>
<path d="M655.739 316.802L653.737 320.238V324.924L658.007 324.456L661.209 320.707L658.541 315.865L657.74 314.928L655.872 316.958L655.739 316.802Z" fill="#C3CDDF" stroke="white" stroke-width="0.6" stroke-miterlimit="10"/>
<path d="M583.554 311.96V301.182H590.493V280.096H589.158V282.907L561.805 263.695L557.802 266.819L558.069 266.975L561.805 279.784V295.872L551.531 311.96H552.465L554.467 318.989L558.469 313.991L559.137 328.673H555.267L554.6 331.485L560.071 339.763L559.403 341.169L563.673 338.982L564.741 340.544L571.946 333.203H576.883L585.956 323.675L587.023 322.581L583.554 311.96Z" fill="#C3CDDF" stroke="white" stroke-width="0.6" stroke-miterlimit="10"/>
<path d="M592.361 270.724V280.096H590.492V301.182H583.554V311.96L587.023 322.581L585.956 323.675L590.226 328.517V334.608L602.234 348.666V352.259L614.91 358.038H624.517L626.652 355.382L627.186 354.758H634.124V348.666L626.118 339.45H622.649V335.702H626.785L635.725 315.709V309.305V308.524V294.934H637.86L642.397 289.468L637.46 287.437L636.259 271.661L631.189 267.131L629.454 263.227L623.049 270.724H592.361Z" fill="#C3CDDF" stroke="white" stroke-width="0.6" stroke-miterlimit="10"/>
<path d="M623.049 270.724L629.453 263.227L616.644 231.987H618.245L624.249 242.453H625.317L626.384 235.111L623.182 227.458H617.178L613.308 224.958L606.103 229.176L597.83 225.427H592.36V270.724H623.049Z" fill="#C3CDDF" stroke="white" stroke-width="0.6" stroke-miterlimit="10"/>
<path d="M458.53 264.32H462.666V251.824H475.075V247.294L474.542 246.826V243.702H459.331L452.526 257.135L448.523 261.664L446.521 267.912L444.253 270.567V274.316H458.53V264.32Z" fill="#C3CDDF" stroke="white" stroke-width="0.6" stroke-miterlimit="10"/>
<path d="M607.304 455.973L600.766 462.065H594.896L597.964 474.405H603.168L607.438 484.245H614.643H615.577L621.048 470.968V458.472L616.911 453.63H612.642V450.506L607.304 452.693V455.973Z" fill="#C3CDDF" stroke="white" stroke-width="0.6" stroke-miterlimit="10"/>
<path d="M611.841 381.155L607.838 389.433H609.172H612.108V387.871H615.177V383.185H611.841V381.155Z" fill="#C3CDDF" stroke="white" stroke-width="0.6" stroke-miterlimit="10"/>
<path d="M613.442 506.893H617.578L618.646 504.706H617.578V501.114H613.442V506.893Z" fill="#C3CDDF" stroke="white" stroke-width="0.6" stroke-miterlimit="10"/>
<path d="M460.532 306.649V302.119H462.666H483.748V257.135L485.883 256.822L475.075 247.294V251.824H462.666V264.32H458.53V274.316H444.253V275.254L445.721 278.69V297.434H453.593L460.532 306.649Z" fill="#C3CDDF" stroke="white" stroke-width="0.6" stroke-miterlimit="10"/>
<path d="M502.962 303.525H501.361L492.421 312.584L489.753 311.803L484.149 325.392H484.816L488.685 329.922H494.289V324.455L500.294 323.987H503.629H506.965L507.499 323.206L511.769 317.895L502.962 303.525Z" fill="#C3CDDF" stroke="white" stroke-width="0.6" stroke-miterlimit="10"/>
<path d="M612.108 389.433H609.173L611.441 397.087L615.177 392.088V387.871H612.108V389.433Z" fill="#C3CDDF" stroke="white" stroke-width="0.6" stroke-miterlimit="10"/>
<path d="M587.023 458.94L583.02 454.254V438.322H590.092V429.731H583.154V411.613H578.884V408.489L573.68 409.582V415.518H567.276L564.207 405.365H548.329L552.732 418.954H550.731L553.399 428.326V435.042L546.194 451.443V460.19H578.751L587.023 458.94Z" fill="#C3CDDF" stroke="white" stroke-width="0.6" stroke-miterlimit="10"/>
<path d="M546.994 387.559H554.466V378.656L553.665 377.562V375.219L556.067 372.252L553.932 369.909H551.264V365.535H544.992V371.939H539.255L535.652 381.155L543.792 395.369L546.994 392.87V387.559Z" fill="#C3CDDF" stroke="white" stroke-width="0.6" stroke-miterlimit="10"/>
<path d="M544.993 365.535H539.256V371.939H544.993V365.535Z" fill="#C3CDDF" stroke="white" stroke-width="0.6" stroke-miterlimit="10"/>
<path d="M462.666 316.02V314.458V302.119H460.531V306.648L453.593 297.433H445.721V300.244L444.253 305.242V316.02H455.194H462.666Z" fill="#C3CDDF" stroke="white" stroke-width="0.6" stroke-miterlimit="10"/>
<path d="M651.203 361.942L654.005 358.662L650.002 354.132L647.066 357.725V359.287H641.596L637.726 354.757H634.124H627.185L626.651 355.382L631.722 367.097L626.918 375.531L628.786 376.156V380.998L627.719 382.248L640.395 390.526L639.728 394.275L645.999 398.805L653.071 383.653L653.337 383.185L651.203 380.686V361.942Z" fill="#C3CDDF" stroke="white" stroke-width="0.6" stroke-miterlimit="10"/>
<path d="M551.264 365.535H561.805V361.786L556.201 347.729L559.403 341.168L560.07 339.763L554.599 331.484L555.267 328.673H559.136L558.469 313.99L554.466 318.989L555.267 321.8L545.126 345.698L542.457 342.262H538.454L534.452 353.664H535.119L539.255 358.506V365.535H544.993H551.264Z" fill="#C3CDDF" stroke="white" stroke-width="0.6" stroke-miterlimit="10"/>
<path d="M640.395 390.527L627.719 382.248L625.051 385.372V388.34H619.714V380.687H615.177V383.186V387.872V392.089L611.441 397.087L611.041 397.712L616.645 417.861L627.586 422.079L628.787 426.764L629.988 432.231H641.062L649.468 428.17V425.359H645.599V399.899L645.999 398.805L639.728 394.276L640.395 390.527Z" fill="#C3CDDF" stroke="white" stroke-width="0.6" stroke-miterlimit="10"/>
<path d="M629.988 432.231L628.787 426.764L627.319 435.98L628.787 443.165H631.989V453.474L629.721 458.472L625.985 452.537L628.253 449.881V445.352H624.25L622.249 443.321L612.375 447.694L613.442 450.194L612.642 450.506V453.63H616.911L621.048 458.472V470.968L615.577 484.244H614.643L617.579 492.679V501.114V504.706H618.646H619.847V499.083L628.52 492.523V475.029L649.468 450.506V428.17L641.062 432.231H629.988Z" fill="#C3CDDF" stroke="white" stroke-width="0.6" stroke-miterlimit="10"/>
<path d="M467.07 337.107L467.47 336.483L464.268 328.673H458.93L457.73 332.265L457.996 332.422V339.607L462.533 343.512L467.07 337.107Z" fill="#C3CDDF" stroke="white" stroke-width="0.6" stroke-miterlimit="10"/>
<path d="M474.275 343.823V339.762L467.07 337.107L462.533 343.511L476.81 355.07L477.744 347.885L474.275 343.823Z" fill="#C3CDDF" stroke="white" stroke-width="0.6" stroke-miterlimit="10"/>
<path d="M444.253 316.021V316.801L450.524 324.143L455.194 316.021H444.253Z" fill="#C3CDDF" stroke="white" stroke-width="0.6" stroke-miterlimit="10"/>
<path d="M500.294 323.986L494.289 324.455V329.922H495.49V337.419L493.489 339.762V352.102L497.225 353.664L506.832 347.416L503.629 323.986H500.294Z" fill="#C3CDDF" stroke="white" stroke-width="0.6" stroke-miterlimit="10"/>
<path d="M512.569 316.958L511.769 318.051L507.499 323.362L506.965 323.987L509.767 328.048C509.767 328.048 510.168 340.544 510.301 345.23H513.904V333.671L517.907 326.174V322.425V319.926L512.569 316.958Z" fill="#C3CDDF" stroke="white" stroke-width="0.6" stroke-miterlimit="10"/>
<path d="M506.966 323.986H503.63L506.832 347.416L510.301 345.229C510.168 340.387 509.768 328.047 509.768 328.047L506.966 323.986Z" fill="#C3CDDF" stroke="white" stroke-width="0.6" stroke-miterlimit="10"/>
<path d="M474.542 238.86L495.224 227.927V222.46H500.961L498.96 207.621H490.42L488.285 204.966H485.617L482.414 213.244L474.008 219.024L473.608 221.366L470.806 226.677L472.14 231.363L464.535 243.078H459.731L459.331 243.703H474.542V238.86Z" fill="#C3CDDF" stroke="white" stroke-width="0.6" stroke-miterlimit="10"/>
<path d="M566.208 512.203V513.922L572.079 515.015L575.282 512.828V482.214H579.285V464.251L586.89 462.064L595.029 462.689L594.896 462.064H593.828V461.752V459.878H587.691L587.023 458.94L578.751 460.19H546.194V462.533L556.468 486.9L561.672 513.297H562.873L563.006 513.453L564.474 510.641L566.208 512.203Z" fill="#C3CDDF" stroke="white" stroke-width="0.6" stroke-miterlimit="10"/>
<path d="M577.817 505.174H581.419L585.289 497.364H587.958L589.292 500.02H594.496L607.171 483.775L603.169 474.403H597.965L595.029 462.689L586.89 462.064L579.285 464.251V482.213H575.282V495.959L578.351 501.113L577.817 505.174Z" fill="#C3CDDF" stroke="white" stroke-width="0.6" stroke-miterlimit="10"/>
<path d="M618.645 504.706L617.578 506.893H613.442V501.114H617.578V492.679L614.643 484.244H607.437L607.17 483.776L594.495 500.02H589.291L587.957 497.365H585.288L581.419 505.175H577.816L578.35 501.114L575.281 495.959V512.828L572.079 515.015L566.208 513.922V512.204L564.473 510.642L563.005 513.453L569.143 527.979V534.071H566.608L573.947 542.662L597.43 536.414L619.846 510.173V504.706H618.645Z" fill="#C3CDDF" stroke="white" stroke-width="0.6" stroke-miterlimit="10"/>
<path d="M660.943 459.722V464.408L662.01 465.657V472.218L659.875 478.309H658.408L656.673 480.34V485.338L659.075 488.15V493.773L660.809 497.521H663.078V498.771H666.013L667.347 497.365H670.683L674.419 483.151L681.224 463.783V458.628L682.692 455.348L681.091 450.506L682.692 449.1L683.759 452.693L685.36 449.1L683.893 446.445V438.323L680.557 434.574L679.223 436.136V440.51H676.287V446.133L669.883 451.6H662.944V456.129L660.943 459.722Z" fill="#C3CDDF" stroke="white" stroke-width="0.6" stroke-miterlimit="10"/>
<path d="M508.967 302.12H516.306L519.908 298.059V285.563L518.441 286.031L485.884 256.823L483.749 257.135V302.12H462.667V314.459H471.74L474.809 325.393H484.149L489.753 311.804L492.422 312.585L501.361 303.525H502.963L503.496 304.463H507.099L508.967 302.12Z" fill="#C3CDDF" stroke="white" stroke-width="0.6" stroke-miterlimit="10"/>
<path d="M554.466 318.989L552.465 311.96H551.798L547.661 315.24L546.06 313.366H540.857L538.855 315.709H534.986L532.05 312.116L530.182 314.303H528.448L525.912 311.491H518.574V314.303L517.106 316.021V319.457L517.907 319.926V322.425V326.174L513.904 333.671V345.23H520.175L525.512 353.664H534.452L538.455 342.262H542.458L545.126 345.698L555.267 321.8L554.466 318.989Z" fill="#C3CDDF" stroke="white" stroke-width="0.6" stroke-miterlimit="10"/>
<path d="M561.805 295.871V279.783L558.069 266.975L557.802 266.819L552.198 264.476H546.861L525.912 283.844L519.908 285.562V298.058L516.305 302.119H508.967L507.099 304.462H503.496L511.769 317.895L512.569 316.958L517.106 319.457V316.02L518.574 314.302V311.491H525.912L528.447 314.302H530.182L532.05 312.116L534.985 315.708H538.855L540.856 313.365H546.06L547.661 315.239L551.798 311.959H551.531L561.805 295.871Z" fill="#C3CDDF" stroke="white" stroke-width="0.6" stroke-miterlimit="10"/>
<path d="M474.809 325.393L471.74 314.459H462.666V316.021H455.194L450.524 324.143L457.73 332.265L458.93 328.673H464.268L467.47 336.483L467.07 337.107L472.941 339.294L475.476 325.393H474.809Z" fill="#C3CDDF" stroke="white" stroke-width="0.6" stroke-miterlimit="10"/>
<path d="M494.29 329.922H488.686L484.816 325.393H484.149H475.476L472.941 339.294L474.275 339.763V343.824L477.744 347.885L476.81 355.07L477.211 355.382L481.881 351.165H491.354L493.489 352.102V339.763L495.491 337.42V329.922H494.29Z" fill="#C3CDDF" stroke="white" stroke-width="0.6" stroke-miterlimit="10"/>
<path d="M540.056 227.145H542.324V223.24H544.592V217.149L544.059 216.992L539.789 214.806V212.775L543.525 208.402V204.809H541.657V202.466L543.525 200.279V198.717L540.723 199.811V197.468H537.654L536.32 198.561H534.051L534.185 209.651L531.116 211.994L537.387 231.206H540.056V227.145Z" fill="#C3CDDF" stroke="white" stroke-width="0.6" stroke-miterlimit="10"/>
<path d="M591.96 225.427V222.459H585.689V220.116L581.286 218.242L573.947 222.303V224.958L575.281 227.926L571.946 231.831L558.336 226.052V222.147L552.065 219.491H549.129L544.593 217.148V223.24H542.324V227.145H540.056V231.206H537.387V231.519V251.199L540.056 258.697H547.661V263.695L546.861 264.476H552.198L557.802 266.819L561.805 263.695L589.158 282.907V280.096H590.492H592.36V270.724V225.427H591.96Z" fill="#C3CDDF" stroke="white" stroke-width="0.6" stroke-miterlimit="10"/>
<path d="M665.614 352.102L677.489 338.2H674.153L663.078 332.733L657.741 326.486V324.455L653.738 324.924V320.238L655.74 316.801L647.467 307.117L640.662 305.711L635.725 308.523V309.304V315.708L626.786 335.701H622.649V339.45H626.118L634.124 348.665V354.757H637.727L641.596 359.287H647.067V357.725L650.002 354.132L653.071 357.725L662.411 352.102H665.614Z" fill="#C3CDDF" stroke="white" stroke-width="0.6" stroke-miterlimit="10"/>
<path d="M664.413 326.486L661.21 320.707L658.008 324.456H657.741V326.486L663.078 332.734L674.153 338.201H677.489L665.613 352.102H662.411L653.071 357.726L654.005 358.663L651.203 361.943V380.686L653.338 383.186L679.49 349.76L687.496 326.486V319.145L664.413 326.486Z" fill="#C3CDDF" stroke="white" stroke-width="0.6" stroke-miterlimit="10"/>
<path d="M616.778 366.16L611.841 372.095L610.774 383.185L611.841 381.155V383.185H615.177V380.686H619.714V376L625.051 374.907L626.919 375.532L631.722 367.097L626.652 355.382L624.517 358.038H615.177V364.286L616.778 366.16Z" fill="#C3CDDF" stroke="white" stroke-width="0.6" stroke-miterlimit="10"/>
<path d="M552.598 399.273L555.267 397.087V399.273H557.802L562.339 393.963V386.465L568.209 379.749V372.72V359.287H563.539V364.754H561.805V365.535H551.264V369.908H553.933L556.067 372.251L553.666 375.219V377.562L554.466 378.655V387.559H546.994V392.869L543.792 395.369L546.727 400.367L546.861 400.679L550.864 397.087L552.598 399.273Z" fill="#C3CDDF" stroke="white" stroke-width="0.6" stroke-miterlimit="10"/>
<path d="M628.787 443.165L627.319 435.98L628.787 426.764L627.586 422.078L623.183 420.36V435.98L620.781 443.946L622.249 443.321L624.25 445.351H628.253V449.881L625.985 452.536L629.721 458.472L631.989 453.474V443.165H628.787Z" fill="#C3CDDF" stroke="white" stroke-width="0.6" stroke-miterlimit="10"/>
<path d="M616.645 417.86L615.978 415.361L608.372 416.455V418.017L605.837 420.984L607.038 422.39V427.076L605.837 430.2V432.231L607.972 434.73H611.574V440.821H608.639L603.835 435.355L602.901 431.606H600.633V434.417L595.429 432.855V431.293H592.227V429.888L590.759 428.794L590.092 429.731V438.322H583.02V454.254L587.023 458.94L587.69 459.877H593.828V461.752V462.064H594.896H600.767L607.305 455.973V452.692L612.642 450.506L613.442 450.193L612.375 447.694L620.781 443.945L623.183 435.979V420.36L616.645 417.86Z" fill="#C3CDDF" stroke="white" stroke-width="0.6" stroke-miterlimit="10"/>
<path d="M570.211 354.133L574.481 352.414L575.948 355.382L585.288 358.038L585.822 354.133L588.09 354.601L597.964 351.946H602.234V348.666L590.225 334.608V328.516L585.956 323.674L576.882 333.202H571.945L564.74 340.544L563.673 338.982L559.403 341.168L556.201 347.729L561.805 361.786V364.754H563.539V359.287H568.209L570.211 356.788V354.133Z" fill="#C3CDDF" stroke="white" stroke-width="0.6" stroke-miterlimit="10"/>
<path d="M608.371 416.455L615.977 415.362L611.04 397.711L611.44 397.087L609.172 389.433H607.838L610.773 383.185L611.841 372.095L616.778 366.16L615.176 364.285V358.037H614.91L602.234 352.258V351.946H597.964L588.09 354.601L585.822 354.133L585.288 358.037L575.948 355.382L574.48 352.414L570.211 354.133V356.788L568.209 359.287V372.72V379.749L562.338 386.465V393.963L557.802 399.273H555.267V397.087L552.598 399.273L550.863 397.087L546.86 400.679V400.992L548.328 405.365H564.206L567.275 415.518H573.68V409.582L578.884 408.489V411.613H583.153V429.732H590.092L590.759 428.794L592.226 429.888V431.294H595.429V432.856L600.633 434.418V431.606H602.901L603.835 435.355L608.638 440.822H611.574V434.73H607.971L605.836 432.231V430.2L607.037 427.076V422.39L605.836 420.985L608.371 418.017V416.455Z" fill="#C3CDDF" stroke="white" stroke-width="0.6" stroke-miterlimit="10"/>
<path d="M447.322 69.2299L451.592 76.7274L461.066 78.9141L475.876 69.2299L471.473 64.8564L456.262 68.449L453.727 64.8564L447.322 69.2299Z" fill="#C3CDDF" stroke="white" stroke-width="0.6" stroke-miterlimit="10"/>
<path d="M372.869 88.13H381.141V93.1283H387.412L406.493 70.7922H413.965L426.507 56.1097L454.928 50.6428H459.064V37.6785L468.137 27.2133V13.9366H480.813L492.288 9.71933V7.53258H470.939L463.868 1.44092H437.582L403.824 6.12681L387.412 6.7516L368.732 15.3424H357.391L349.919 24.0894L353.388 27.6819H375.404V44.5512H381.275V48.4561H372.869V53.142H379.006L377.005 55.4849H372.335L367.798 63.1385L372.869 88.13Z" fill="#C3CDDF" stroke="white" stroke-width="0.6" stroke-miterlimit="10"/>
<path d="M205.281 270.098L207.282 271.504L213.42 268.38H217.823L216.756 269.63H220.758L225.295 274.159V277.127H230.499V279.626H228.497V281.657H236.903L241.44 280.095V277.908H236.637V275.097H233.167L227.163 268.068H223.427V266.506L219.424 265.1H213.42L205.281 270.098Z" fill="#C3CDDF" stroke="white" stroke-width="0.6" stroke-miterlimit="10"/>
<path d="M211.685 271.504L213.02 270.098L214.487 271.348L213.02 272.753L211.685 271.504Z" fill="#C3CDDF" stroke="white" stroke-width="0.6" stroke-miterlimit="10"/>
<path d="M225.962 287.124L225.028 288.842L227.43 290.873H232.5L232.901 288.998L229.432 287.124H225.962Z" fill="#C3CDDF" stroke="white" stroke-width="0.6" stroke-miterlimit="10"/>
<path d="M265.458 287.75V290.561H269.727L270.795 289.155V287.75H265.458Z" fill="#C3CDDF" stroke="white" stroke-width="0.6" stroke-miterlimit="10"/>
<path d="M320.697 620.448H324.433L325.367 621.697L323.099 625.134L320.697 623.728V620.448Z" fill="#C3CDDF" stroke="white" stroke-width="0.6" stroke-miterlimit="10"/>
<path d="M326.168 622.011L324.167 626.228H326.435L328.837 624.041H330.171V622.011H326.168Z" fill="#C3CDDF" stroke="white" stroke-width="0.6" stroke-miterlimit="10"/>
<path d="M353.254 15.1869L381.942 7.84567L383.009 5.03413L362.194 3.47217L317.896 6.4399V9.40764L322.299 12.2192L321.098 15.1869L313.226 9.40764L300.55 12.844V18.6232L310.824 20.9662V23.3091H301.884V26.7454L324.834 27.8388L332.573 25.1835V20.4976L346.983 14.5621L353.254 15.1869Z" fill="#C3CDDF" stroke="white" stroke-width="0.6" stroke-miterlimit="10"/>
<path d="M275.865 15.6548L279.334 21.7464H297.481V18.7787L293.878 17.0606L288.141 17.8415H282.67L275.865 15.6548Z" fill="#C3CDDF" stroke="white" stroke-width="0.6" stroke-miterlimit="10"/>
<path d="M287.874 24.8712V26.5893H293.478V29.0885L291.21 30.338V32.9934H320.031L322.432 29.7132L313.493 28.9323L309.49 29.557H300.55V23.6216L287.874 24.8712Z" fill="#C3CDDF" stroke="white" stroke-width="0.6" stroke-miterlimit="10"/>
<path d="M221.026 27.8387L243.175 21.7471L247.445 28.9321L252.515 28.3073V25.3396H260.387V30.4941L238.505 34.8676L221.026 27.8387Z" fill="#C3CDDF" stroke="white" stroke-width="0.6" stroke-miterlimit="10"/>
<path d="M267.059 25.1831V29.2442H271.596V31.1186H279.601L283.604 32.9929L288.675 30.0252H282.937V25.1831H267.059Z" fill="#C3CDDF" stroke="white" stroke-width="0.6" stroke-miterlimit="10"/>
<path d="M297.481 35.3359L283.738 44.5515V48.4564H290.676V50.487H309.089L312.158 49.3936L320.164 58.7654L303.352 69.6992H298.015V73.6041H309.223L314.693 79.852H325.501L331.906 72.5107L328.036 67.981L332.173 63.1389L338.577 70.6364L346.583 61.1084L335.508 54.8605L339.911 51.1118L323.767 36.1169L297.481 35.3359Z" fill="#C3CDDF" stroke="white" stroke-width="0.6" stroke-miterlimit="10"/>
<path d="M256.918 39.2411C256.918 39.2411 259.053 45.3327 260.387 45.3327C261.722 45.3327 272.129 40.803 272.129 40.803L274.664 33.1494L256.918 39.2411Z" fill="#C3CDDF" stroke="white" stroke-width="0.6" stroke-miterlimit="10"/>
<path d="M197.008 41.7397L200.477 45.176H207.416L215.555 41.7397V43.4578L213.02 46.4256H210.752V47.519H221.026L223.828 50.9553H211.285V52.6734H216.222V53.7668L214.754 55.485V56.5784H221.026L235.569 52.361V53.923L240.64 55.9536L245.577 55.3288L247.178 51.7363L250.914 52.361L252.515 50.3305L246.511 46.2694L249.046 44.2388L250.113 39.5529L255.45 37.8348V35.648L245.176 37.3662L241.974 43.614L240.239 42.9893L241.307 40.0215L238.238 38.3034L230.766 38.4596L226.63 33.7737H219.691L219.024 32.9927H208.35V35.9604L197.008 41.7397Z" fill="#C3CDDF" stroke="white" stroke-width="0.6" stroke-miterlimit="10"/>
<path d="M273.864 73.4478V74.6974L269.194 76.4155V77.3527H273.464V78.7585H275.865L281.469 74.8535L285.472 77.9775L288.941 76.1031L286.406 73.4478L286.673 72.3544L281.87 67.8247H279.335L273.864 73.4478Z" fill="#C3CDDF" stroke="white" stroke-width="0.6" stroke-miterlimit="10"/>
<path d="M275.065 82.0386V83.6006H278L282.403 80.789V79.2271L278.133 79.8518L275.065 82.0386Z" fill="#C3CDDF" stroke="white" stroke-width="0.6" stroke-miterlimit="10"/>
<path d="M283.738 84.2258L285.739 82.0391H288.141V83.1324L286.006 85.6316L283.738 84.2258Z" fill="#C3CDDF" stroke="white" stroke-width="0.6" stroke-miterlimit="10"/>
<path d="M306.02 138.426L307.889 140.613V141.55L311.758 143.268L314.293 142.799V140.769L309.623 138.426H306.02Z" fill="#C3CDDF" stroke="white" stroke-width="0.6" stroke-miterlimit="10"/>
<path d="M319.497 147.641L332.306 132.646L337.11 130.928V132.334L331.372 139.05H333.907V140.768H339.778V142.486H338.044V144.517H340.979V148.89L337.51 153.108H334.975L337.11 150.608L335.642 149.047L332.039 153.264H328.97V151.233H331.105L332.573 149.515H329.638V148.578H319.497V147.641Z" fill="#C3CDDF" stroke="white" stroke-width="0.6" stroke-miterlimit="10"/>
<path d="M301.884 153.108L305.62 156.076L308.422 154.67V153.733H305.086L303.485 152.639V151.546H302.017L301.884 153.108Z" fill="#C3CDDF" stroke="white" stroke-width="0.6" stroke-miterlimit="10"/>
<path d="M335.909 120.619L335.241 117.807L327.903 112.965V110.466L326.835 109.216L328.837 106.249L326.435 90.7852H324.7L317.896 98.7513H316.294L311.758 100.469L308.822 96.0959L312.825 89.5357L311.224 87.6613H307.488V84.0688L303.485 81.1011L300.817 82.663H297.614L293.878 80.6325L290.276 82.9754V85.9432L287.474 88.5985V93.1282L282.003 99.5322L284.405 102.344V106.717L280.402 111.403L269.194 116.558V119.525L266.925 127.491L263.323 131.084H259.72V129.21L258.252 127.491V124.055L261.321 125.305L261.988 122.962L259.32 120.931V117.495L262.389 115.152V113.434H254.116L252.648 111.716L246.644 107.03L241.974 104.531H237.037L238.905 98.1265H235.303V95.7835L239.973 90.3167L253.049 79.6953H258.786V77.0399H261.855L263.456 74.0722H268.66L274.397 70.6359L274.931 68.9177L279.735 65.7938V63.9194H284.138V65.6376L286.139 68.4491L287.34 65.6376L294.812 62.5137L296.947 59.5459V56.2658H300.55V52.3609H291.343V55.0162L280.135 60.4831L278.801 58.9212L282.003 55.1724L280.001 52.8295L276.666 56.7344L274.931 53.4543V50.7989C274.931 50.7989 277.199 51.7361 277.199 50.7989C277.199 49.8618 277.199 43.4577 277.199 43.4577L280.802 40.0214H284.805L291.743 35.8041V34.7107H280.535L274.531 42.5205L262.789 49.3932L267.726 52.5171V56.7344H260.254V50.9551H256.785L250.914 57.8278H238.772L233.968 55.1724L220.759 61.2641H207.015V57.8278H210.618V54.3915L195.541 50.4865L183.799 48.1436L155.912 54.3915L146.438 51.8923L105.876 93.2844L110.012 98.1265V101.094L107.077 104.843V115.464H111.346L112.814 112.497H114.816V117.963L112.014 121.712L113.748 126.867L111.88 132.177H108.011V137.176L114.015 144.204L113.748 144.829L119.752 147.328V142.955H207.683L220.358 148.109L223.961 146.391L224.495 147.485L230.366 143.267H235.303V147.172H237.704V152.483L238.772 157.481H244.509H247.845L249.046 158.887V161.698L246.644 164.51L245.176 162.792L243.442 164.822H242.107L237.571 170.133H237.037L236.103 173.726L240.907 171.695L246.911 169.508L248.779 165.76L257.852 164.666V165.76L264.39 160.917H276.132L285.872 149.515H290.676V152.327L288.808 156.7L289.875 159.512L297.614 158.106V159.98L290.809 164.51L292.41 168.571L300.95 162.948L310.423 159.824V158.731H312.959L315.093 155.763L313.492 154.67L314.56 152.639L313.092 151.546L308.956 155.763L308.822 157.637H304.819L300.55 154.67V150.452L306.287 144.517V141.705H300.95L286.273 148.734V146.547L297.214 141.237V138.425L299.616 135.614H320.564L328.303 132.021L332.306 131.553L336.709 128.429L339.244 121.868L335.909 120.619ZM178.862 70.6359L187.535 67.1996L181.397 64.0756L196.341 63.607L191.404 67.0434L196.875 70.1673L189.269 71.2607L186.868 71.1045L181.13 72.1979L174.992 75.1656L178.595 71.7293L178.862 70.6359ZM203.279 82.0382L186.2 88.9109H177.127V86.8803L185.8 83.6002L185.934 80.0077L190.87 83.6002L203.146 79.3829V82.0382H203.279ZM210.218 131.865L207.416 137.332L206.615 135.926L208.35 132.646V129.053L207.416 127.491L206.749 117.807L211.018 115.933L210.218 131.865Z" fill="#C3CDDF" stroke="white" stroke-width="0.6" stroke-miterlimit="10"/>
<path d="M105.609 92.9719L105.876 93.2843L146.705 51.736L115.749 43.77L83.0592 55.1724H75.4537L72.2514 56.8905L76.788 63.9194V66.8871H69.316V63.4508H62.7779L54.5053 66.8871V73.7597L68.382 71.4168V75.9465L40.762 85.1621V88.286L36.6257 89.6918V93.1281H43.4306V95.4711L39.4277 100.157H42.0963H49.435L44.7649 103.437L1 119.838V121.712L25.9513 114.527V116.245H29.9542V112.496L50.6358 104.218L63.9788 97.814V95.0025L76.2543 89.2232V91.0976L69.9831 94.8463V96.7206L79.8569 92.9719H85.0607L87.8627 89.848H92.7996L95.6016 92.9719H105.609Z" fill="#C3CDDF" stroke="white" stroke-width="0.6" stroke-miterlimit="10"/>
<path d="M290.943 149.827H286.139L276.399 161.23H264.657L258.119 165.915V168.571H249.046V171.695L236.637 178.724H232.233V175.443L236.236 173.725L237.17 170.133H236.904V165.759L234.368 168.727V167.634L237.704 163.729V159.98L235.569 157.325H233.835L230.499 161.386L229.698 160.449L224.361 166.853V170.289L219.958 175.443H217.289V169.039L227.563 156.856H237.437V154.513H235.569H228.764L227.163 152.639V149.983L218.891 154.201H217.289V152.483L213.02 153.264V151.702L220.225 148.265L207.549 142.955H119.619V147.328L113.748 144.829L109.745 154.045L93.0663 181.848V211.525L100.805 220.584V220.897H110.946L122.287 227.144H132.295V224.021H138.833L143.102 229.019V234.486L146.038 237.922L149.24 234.173H154.044L156.712 237.141V250.262L164.184 253.229L164.318 252.761V245.576L169.388 239.64L182.197 233.392L189.136 237.297L192.872 235.11L194.74 236.672L195.941 235.423L194.073 232.768L197.675 231.049H207.416L209.55 233.392H212.086L213.02 232.299H215.288L218.49 235.891V239.484L215.688 242.608V248.387L219.958 256.353H222.093L224.628 247.45V238.859L222.36 231.518L228.364 221.521H229.698L236.103 214.024H239.572L242.374 210.744H246.377V206.683L248.512 204.027V194.343L250.246 192.469L251.581 194.187L250.513 196.53L251.581 197.155L255.717 192L255.45 188.876H257.185L262.255 182.941V179.973L274.13 177.474V173.413H275.465V170.289L280.268 166.072L289.208 162.323V159.98L290.142 159.824L289.075 157.012L290.943 152.639V149.827Z" fill="url(#paint1_linear_1719_9867)" stroke="white" stroke-width="0.6" stroke-miterlimit="10"/>
<path d="M248.378 281.657L246.11 280.408L243.308 281.657L243.175 282.594L246.244 282.907L246.11 287.124H239.038C239.038 287.593 239.038 288.999 239.038 288.999L241.307 291.654L243.041 288.999H247.845L248.112 289.311L250.113 281.189L248.378 281.657Z" fill="#C3CDDF" stroke="white" stroke-width="0.6" stroke-miterlimit="10"/>
<path d="M259.853 284.937H257.318L252.915 280.408L250.246 281.189L248.245 289.311L249.979 291.498H251.314V288.061H253.315V289.311H255.984V288.061L259.853 289.311L261.454 287.124L259.853 284.937Z" fill="#C3CDDF" stroke="white" stroke-width="0.6" stroke-miterlimit="10"/>
<path d="M184.733 306.493L189.536 300.713H187.401V299.62L186.467 300.245H185.133L186.334 290.873H178.461V293.841L181.263 297.121V299.62H175.526C175.526 299.62 174.192 303.525 173.391 306.024L180.463 311.179H180.863L184.733 306.493Z" fill="#C3CDDF" stroke="white" stroke-width="0.6" stroke-miterlimit="10"/>
<path d="M181.263 299.619V297.12L178.461 293.84V290.872H186.334H186.867L190.737 286.342L192.738 288.685L194.473 283.531V279.938L197.675 276.19L197.809 273.222H191.537L183.798 275.096V281.032L179.662 286.03H174.592V287.904L168.454 289.31L167.387 288.061H163.784L159.781 273.222V267.599L164.184 253.541L156.712 250.573V237.453L154.177 234.485H149.374L146.171 238.234L143.236 234.797V229.018L138.966 224.02H132.428V227.144H122.554L111.213 220.896H101.072V233.704L106.543 240.108V243.701H102.006V245.731L109.478 254.478L106.943 257.446L114.548 266.349V268.38H118.018V261.507L114.415 257.29V251.198L110.279 238.39L107.477 232.611V224.957L115.216 229.331V236.828L122.421 249.011L120.686 251.667L132.161 268.536V278.064H129.359V281.032L136.031 288.842H142.035L159.381 301.806L166.186 297.589L173.391 306.023C174.192 303.524 175.526 299.619 175.526 299.619H181.263Z" fill="#C3CDDF" stroke="white" stroke-width="0.6" stroke-miterlimit="10"/>
<path d="M187.001 290.873H186.467L185.266 300.401H186.6L187.401 299.62V298.37L191.004 294.153L192.872 288.686L190.87 286.343L187.001 290.873Z" fill="#C3CDDF" stroke="white" stroke-width="0.6" stroke-miterlimit="10"/>
<path d="M203.013 324.611V317.895L205.014 316.801V309.773L206.482 308.054V305.711H200.077L193.272 310.397V314.615H190.203V316.645L196.074 323.518L203.146 324.767L203.013 324.611Z" fill="#C3CDDF" stroke="white" stroke-width="0.6" stroke-miterlimit="10"/>
<path d="M184.733 306.493L180.863 311.179H189.669C189.669 310.398 189.669 309.46 189.669 309.46L184.733 306.493Z" fill="#C3CDDF" stroke="white" stroke-width="0.6" stroke-miterlimit="10"/>
<path d="M193.272 310.398L200.077 305.868H206.615V302.9L205.014 301.026H189.669L184.866 306.805L189.803 309.773C189.803 309.773 189.803 310.554 189.803 311.491H190.337V314.927H193.406V310.398H193.272Z" fill="#C3CDDF" stroke="white" stroke-width="0.6" stroke-miterlimit="10"/>
<path d="M203.146 324.768L196.074 323.518L196.341 323.674V329.297L201.812 335.545V337.263L205.014 341.012V338.044H205.948L206.748 328.829L203.146 324.768Z" fill="#C3CDDF" stroke="white" stroke-width="0.6" stroke-miterlimit="10"/>
<path d="M226.496 335.39L222.493 330.548L218.09 330.235L211.686 334.609L206.749 328.83L205.948 338.045H209.017V341.013H215.955V336.952L218.891 333.515L221.96 337.264L220.759 338.67L223.427 341.794L226.496 338.358V335.39Z" fill="#C3CDDF" stroke="white" stroke-width="0.6" stroke-miterlimit="10"/>
<path d="M217.023 397.712L219.024 400.679L221.96 390.995L231.166 386.466V377.094L218.224 367.097L217.29 368.034V370.065L214.221 371.783V376L210.618 380.218V387.559L214.087 391.62V392.87L213.153 393.963L213.554 397.555L217.023 397.712Z" fill="#C3CDDF" stroke="white" stroke-width="0.6" stroke-miterlimit="10"/>
<path d="M239.972 388.027L246.911 386.777L250.513 389.12L248.512 394.431L251.714 395.212L253.582 381.154L250.38 377.406V373.501H254.116V371.158H251.714V368.034H261.455L259.32 362.879V346.166H253.582L250.78 342.886H243.975L242.107 332.733H240.106L242.774 323.986L245.576 322.112L245.443 321.643L249.446 318.52L247.711 315.708L240.506 322.424H235.436L231.833 326.642V330.39L227.03 336.014L226.496 335.389V338.357L223.427 341.793L225.562 344.292V349.134L224.628 350.227V359.599L218.223 367.097L231.166 377.093V378.343L239.038 382.716L239.972 388.027Z" fill="#C3CDDF" stroke="white" stroke-width="0.6" stroke-miterlimit="10"/>
<path d="M255.984 450.35L257.452 444.102L257.719 435.824L254.383 428.639H250.247V423.016H243.442L235.703 413.956L240.106 407.708V400.679L248.379 396.774H251.581L251.714 395.212L248.512 394.431L250.513 389.121L246.911 386.778L239.973 388.027L239.039 382.717L231.166 378.343V386.465L221.96 390.995L219.024 400.679L217.023 397.712L213.553 397.555L213.153 393.963L210.351 397.243V400.367L213.02 403.491V404.74H211.018V406.459L216.489 410.051L219.291 416.143L231.033 440.51V444.258L249.313 458.316V461.127L253.983 464.408L257.318 460.659L256.384 458.628L258.92 454.255L255.984 450.35Z" fill="#C3CDDF" stroke="white" stroke-width="0.6" stroke-miterlimit="10"/>
<path d="M286.006 340.543V342.262H283.337V348.353L285.872 351.477V351.946L287.607 351.79L288.941 357.725L286.539 360.38V365.222H288.007V367.878L291.476 370.689L296.814 367.409V360.38L294.679 357.881V352.414H297.748V347.26L288.941 336.014H288.007V338.2L286.006 340.543Z" fill="#C3CDDF" stroke="white" stroke-width="0.6" stroke-miterlimit="10"/>
<path d="M294.679 352.414V357.881L296.813 360.38V367.409L301.217 367.722V365.222L304.953 363.973L306.554 365.691L308.956 361.005V358.35L307.354 356.788V351.321L309.089 350.852L310.023 348.666L307.221 347.572H298.014L297.747 347.26V352.414H294.679Z" fill="#C3CDDF" stroke="white" stroke-width="0.6" stroke-miterlimit="10"/>
<path d="M268.793 374.75L274.931 367.565V364.91H272.262V360.068L270.261 357.256H277.466L285.872 354.445V351.945V351.477L283.337 348.353V342.261H286.006V340.543L288.007 338.2V336.013H284.805V330.859L279.201 324.455H273.863L271.595 327.11H267.726L266.258 325.392H258.786V322.268H254.383L253.315 318.051H251.714V321.487L247.845 325.08L249.846 328.047L249.312 332.733L247.444 333.514L244.909 329.297L246.377 325.548L245.576 322.112L242.774 323.986L240.106 332.733H242.107L243.975 342.886H250.78L253.582 346.166H259.32V362.879L261.455 368.034H261.188V374.75H268.793Z" fill="#C3CDDF" stroke="white" stroke-width="0.6" stroke-miterlimit="10"/>
<path d="M309.623 365.222L313.359 365.691L318.029 355.538L313.359 350.071L310.023 348.666L309.089 350.852L307.355 351.321V356.788L308.956 358.35V361.005L306.955 364.91L308.689 366.316L309.623 365.222Z" fill="#C3CDDF" stroke="white" stroke-width="0.6" stroke-miterlimit="10"/>
<path d="M376.471 400.679H371.134L360.993 388.808H352.453L347.517 387.559L342.98 391.463V386.153L332.839 379.749L329.637 383.341H327.502L330.037 377.718V376.156H322.966L320.43 379.749L318.963 378.499L323.633 371.314V367.097H321.231L319.096 356.788L318.429 356.007L318.029 355.538L313.359 365.691L309.623 365.222L308.689 366.316L306.954 364.91L306.554 365.691L304.953 363.973L301.216 365.222V367.722L296.813 367.409L291.476 370.689L288.007 367.878V365.222H286.539V360.38L288.941 357.725L287.607 351.79L285.872 351.946V354.445L277.466 357.256H270.261L272.262 360.068V364.91H274.931V367.565L268.793 374.75H261.188V368.034H251.714V371.158H254.116V373.501H250.38V377.406L253.582 381.154L251.581 396.774H248.378L240.106 400.679V407.708L235.702 413.956L243.441 423.015H250.246V428.638H254.383L254.65 429.107L258.386 429.575L259.32 427.545H260.654L264.523 422.859H269.193V431.606L273.997 437.073H276.932L281.335 442.227H285.605L287.34 444.258V454.567H296.28V459.409H298.281L299.882 463.626L297.881 471.28L299.882 476.903V482.057H307.354L309.623 491.585H313.759V499.083H316.828V505.956L305.353 519.545L322.832 532.821L323.9 539.382L325.634 537.351V530.322L330.838 524.231V518.295L335.908 512.36V508.611L334.307 506.737V497.99H335.908L346.316 485.962H356.857V483.463H359.659L363.662 470.187V463.47H364.862V438.322H366.864L371.4 428.326H373.936L379.006 422.234V409.114L376.471 400.679Z" fill="#C3CDDF" stroke="white" stroke-width="0.6" stroke-miterlimit="10"/>
<path d="M261.322 469.406L261.722 476.591L264.924 486.275H267.459H268.393L271.329 481.433L283.471 482.683V470.499L294.546 468.469L298.015 470.499L299.883 463.627L298.282 459.409H296.28V454.567H287.34V444.258L285.606 442.228H281.336L276.933 437.073H273.997L269.194 431.606V422.859H264.524L260.655 427.545H259.32L258.386 429.576L254.65 429.107L257.719 435.824L257.452 444.102L255.985 450.35L258.92 454.255L256.385 458.628L257.319 460.659L256.518 461.44L258.92 467.844L261.322 469.406Z" fill="#C3CDDF" stroke="white" stroke-width="0.6" stroke-miterlimit="10"/>
<path d="M313.092 544.536H319.497L323.9 539.382L322.832 532.821L306.554 520.482L304.819 522.669L307.221 538.757L307.621 538.288L313.092 544.536Z" fill="#C3CDDF" stroke="white" stroke-width="0.6" stroke-miterlimit="10"/>
<path d="M302.952 497.209L299.883 507.049L309.623 508.143L313.493 503.769L314.026 499.083H313.76V491.586H309.623L307.355 482.058H299.883V476.903L297.881 471.28L298.015 470.499L294.546 468.469L283.471 470.499V482.526L288.942 489.555L302.952 497.209Z" fill="#C3CDDF" stroke="white" stroke-width="0.6" stroke-miterlimit="10"/>
<path d="M297.748 627.476H294.946L294.545 625.133L285.606 624.04L283.604 617.792L277.066 612.95L279.067 607.795L277.466 588.271H274.664L267.726 573.12V539.381L262.789 528.291V518.295L265.458 506.736V496.115L268.66 492.366V486.274H267.459H264.924L261.722 476.59L261.321 469.405L258.92 467.999L256.518 461.595L253.983 464.563L254.116 464.719L256.251 477.996V514.858L258.119 517.045V520.481L256.651 522.199V524.855L259.987 533.446C259.987 533.446 260.521 552.345 259.987 552.814C259.453 553.439 258.119 552.814 258.119 552.814V555.157L261.722 564.216V573.432L263.323 575.306V584.366H265.991V575.775L267.326 576.868L270.395 593.894H268.793L267.326 589.208L265.191 588.895L266.525 594.675L264.924 598.736L266.525 601.235H270.661V604.984H267.993L273.463 618.885H275.865V622.009L281.603 629.35L286.673 633.568L301.35 639.191L302.151 637.004L297.748 627.476Z" fill="#C3CDDF" stroke="white" stroke-width="0.6" stroke-miterlimit="10"/>
<path d="M316.828 499.083H314.026L313.492 503.769L309.623 508.142L299.882 507.049L302.951 497.208L288.941 489.555L283.471 482.526V482.682L271.329 481.433L268.393 486.275V492.366L265.191 496.115V506.736L262.522 518.295V528.292L267.593 539.382V573.12L274.397 588.271H277.333L278.934 607.796L276.933 612.95L283.471 617.792L285.472 624.04L294.412 625.133L294.812 627.476H297.748L302.151 636.848L301.484 639.035L305.086 640.441L312.692 637.941V636.067H309.623L297.881 626.539H295.479V624.977L296.413 623.884L292.944 616.855V615.137H295.479V610.139L299.349 605.609V601.391H294.679L290.809 596.862V592.488H294.812V582.648H297.214V577.806H293.078L289.475 573.589V570.621L296.814 573.901L299.882 570.308V565.154L297.881 562.811V560.156L300.55 563.28L313.225 558.594V555.626L314.693 553.908V549.847H311.491V545.629L306.421 539.694L307.221 538.757L304.819 522.668L306.554 520.482L305.353 519.545L316.828 505.955V499.083Z" fill="#C3CDDF" stroke="white" stroke-width="0.6" stroke-miterlimit="10"/>
<path d="M172.59 370.533L173.925 368.19L175.793 370.064L174.191 371.782L172.59 370.533Z" fill="#C3CDDF" stroke="white" stroke-width="0.6" stroke-miterlimit="10"/>
<path d="M175.793 371.158L177.661 377.562L175.926 379.28L172.991 379.593L172.323 376.313L174.992 374.282L174.725 372.095L175.793 371.158Z" fill="#C3CDDF" stroke="white" stroke-width="0.6" stroke-miterlimit="10"/>
<path d="M176.86 371.002L177.261 372.721L178.995 371.783L178.461 369.753L176.86 371.002Z" fill="#C3CDDF" stroke="white" stroke-width="0.6" stroke-miterlimit="10"/>
<path d="M178.862 373.657L178.462 375.063L179.396 375.375L179.796 373.813L178.862 373.657Z" fill="#C3CDDF" stroke="white" stroke-width="0.6" stroke-miterlimit="10"/>
<defs>
<linearGradient id="paint0_linear_1719_9867" x1="880.249" y1="373.453" x2="880.249" y2="367.694" gradientUnits="userSpaceOnUse">
<stop stop-color="#FF7400"/>
<stop offset="1" stop-color="#FFAB52"/>
</linearGradient>
<linearGradient id="paint1_linear_1719_9867" x1="192.004" y1="257.096" x2="192.004" y2="143.532" gradientUnits="userSpaceOnUse">
<stop stop-color="#FF7400"/>
<stop offset="1" stop-color="#FFAB52"/>
</linearGradient>
</defs>
</svg>
