<svg width="84" height="84" viewBox="0 0 84 84" fill="none" xmlns="http://www.w3.org/2000/svg">
<g id="Image" filter="url(#filter0_d_1202_15232)">
<rect x="12" y="8" width="60" height="60" rx="30" fill="#212F4E" shape-rendering="crispEdges"/>
<g id="Group">
<path id="Vector" opacity="0.5" d="M49.4009 32.6646L48.5009 36.9717L46.3626 34.7456L45.2587 39.0751L43.205 36.9315L42.0317 37.972L40.1406 35.996L38.9652 40.6224L37.137 38.7022L35.9594 43.3599L34.6777 44.4964L35.9703 46.2515L38.6833 46.2693L39.3599 46.9928L45.0657 46.9593V46.3118L47.4512 46.3274V46.2783L48.7177 46.2693L48.7091 46.2961L55.4753 46.2537V39.0036L49.4009 32.6646Z" fill="#C5721C"/>
<g id="Group_2">
<path id="Vector_2" d="M37.0418 38.6375H34.6562V44.4429H37.0418V38.6375Z" fill="#E7F5FF"/>
<path id="Vector_3" d="M40.0769 35.958H37.9082V44.4429H40.0769V35.958Z" fill="#E7F5FF"/>
<path id="Vector_4" d="M43.1141 36.8511H40.7285V44.4428H43.1141V36.8511Z" fill="#E7F5FF"/>
<path id="Vector_5" d="M46.5829 34.6184H43.9805V44.443H46.5829V34.6184Z" fill="#E7F5FF"/>
<path id="Vector_6" d="M49.1863 32.832H47.0176V44.4429H49.1863V32.832Z" fill="#E7F5FF"/>
</g>
<g id="Group_3">
<path id="Vector_7" d="M24 47.3389V47.9194C24 47.9194 24.5075 48.5 25.6937 48.5H58.7031C58.7031 48.5 59.6053 48.2097 60 47.9194V47.3389H24Z" fill="#E6E6E6"/>
<g id="Group_4">
<path id="Vector_8" d="M27.8281 27.585C27.8281 27.585 27.8455 27.5738 27.8563 27.5693C27.8476 27.5738 27.839 27.5805 27.8281 27.585Z" fill="#929397"/>
<path id="Vector_9" d="M27.5592 46.7942C27.5592 46.7742 27.5547 46.7518 27.5547 46.7295C27.5547 46.7518 27.5547 46.7719 27.5592 46.7942Z" fill="#929397"/>
<path id="Vector_10" d="M28.0488 27.5067C28.0727 27.5044 28.0944 27.5022 28.1204 27.5022C28.0965 27.5022 28.0727 27.5022 28.0488 27.5067Z" fill="#929397"/>
<path id="Vector_11" d="M55.8821 27.5H34.5098L35.837 28.7772H55.3182V46.1488H53.8847L55.0927 47.3099H55.8821C56.1943 47.3099 56.4459 47.0509 56.4459 46.7293V28.0805C56.4459 27.759 56.1943 27.5 55.8821 27.5Z" fill="white"/>
<path id="Vector_12" d="M27.8169 27.5916C27.6607 27.6943 27.5566 27.8751 27.5566 28.0805C27.5566 28.0805 27.5892 27.7546 27.8169 27.5916Z" fill="#929397"/>
<path id="Vector_13" d="M27.5586 46.7942C27.5955 47.3636 28.1203 47.31 28.1203 47.31C27.8297 47.31 27.5911 47.0845 27.5586 46.7942Z" fill="white"/>
<path id="Vector_14" d="M27.8555 27.567C27.901 27.5425 27.9487 27.5246 28.0008 27.5134C27.9466 27.5246 27.8988 27.5425 27.8555 27.567Z" fill="white"/>
<path id="Vector_15" d="M27.8164 27.5912C27.8164 27.5912 27.825 27.5869 27.8293 27.5847C27.825 27.5869 27.8207 27.589 27.8164 27.5912Z" fill="white"/>
<path id="Vector_16" d="M28.0078 27.5111C28.0208 27.5089 28.0338 27.5066 28.0468 27.5044C28.0338 27.5044 28.0208 27.5089 28.0078 27.5111Z" fill="white"/>
<path id="Vector_17" d="M28.5154 46.1485V28.7791H35.8369L34.5096 27.502H28.1207C28.0947 27.502 28.073 27.5042 28.0491 27.5064C28.0361 27.5064 28.0231 27.5109 28.0101 27.5131C28.0079 27.5131 28.0058 27.5131 28.0014 27.5131C27.9494 27.5243 27.9017 27.5421 27.8561 27.5667C27.8475 27.5712 27.8366 27.5779 27.8279 27.5823C27.8236 27.5846 27.8193 27.5868 27.8149 27.589C27.585 27.752 27.5547 28.078 27.5547 28.078V46.7268C27.5547 46.7492 27.5569 46.7693 27.559 46.7916C27.5894 47.0819 27.8301 47.3074 28.1207 47.3074H55.0925L53.8846 46.1463H28.5154V46.1485Z" fill="white"/>
</g>
</g>
</g>
</g>
<defs>
<filter id="filter0_d_1202_15232" x="0" y="0" width="84" height="84" filterUnits="userSpaceOnUse" color-interpolation-filters="sRGB">
<feFlood flood-opacity="0" result="BackgroundImageFix"/>
<feColorMatrix in="SourceAlpha" type="matrix" values="0 0 0 0 0 0 0 0 0 0 0 0 0 0 0 0 0 0 127 0" result="hardAlpha"/>
<feOffset dy="4"/>
<feGaussianBlur stdDeviation="6"/>
<feComposite in2="hardAlpha" operator="out"/>
<feColorMatrix type="matrix" values="0 0 0 0 1 0 0 0 0 1 0 0 0 0 1 0 0 0 0.08 0"/>
<feBlend mode="normal" in2="BackgroundImageFix" result="effect1_dropShadow_1202_15232"/>
<feBlend mode="normal" in="SourceGraphic" in2="effect1_dropShadow_1202_15232" result="shape"/>
</filter>
</defs>
</svg>
