<svg width="392" height="1016" viewBox="0 0 392 1016" fill="none" xmlns="http://www.w3.org/2000/svg">
<path d="M113.958 24.8825L114.028 4.09666C114.035 1.88753 112.25 0.0906464 110.041 0.0832039L89.2555 0.0131772C87.0464 0.00573478 85.2495 1.79055 85.242 3.99968L85.172 24.7855C85.1646 26.9946 86.9494 28.7915 89.1585 28.7989L109.944 28.869C112.153 28.8764 113.95 27.0916 113.958 24.8825Z" fill="#B6C0D3" fill-opacity="0.4"/>
<path d="M74.3771 24.8825L74.4471 4.09666C74.4545 1.88753 72.6697 0.0906464 70.4606 0.0832039L49.6748 0.0131772C47.4657 0.00573478 45.6688 1.79055 45.6613 3.99968L45.5913 24.7855C45.5839 26.9946 47.3687 28.7915 49.5778 28.7989L70.3636 28.869C72.5727 28.8764 74.3696 27.0916 74.3771 24.8825Z" fill="#B6C0D3" fill-opacity="0.4"/>
<path d="M34.7964 24.8825L34.8664 4.09666C34.8738 1.88753 33.089 0.0906464 30.8799 0.0832039L10.0941 0.0131772C7.88498 0.00573478 6.08809 1.79055 6.08065 3.99968L6.01062 24.7855C6.00318 26.9946 7.788 28.7915 9.99713 28.7989L30.7829 28.869C32.9921 28.8764 34.7889 27.0916 34.7964 24.8825Z" fill="#B6C0D3" fill-opacity="0.4"/>
<path d="M153.538 24.8825L153.608 4.09666C153.616 1.88753 151.831 0.0906464 149.622 0.0832039L128.836 0.0131772C126.627 0.00573478 124.83 1.79055 124.822 3.99968L124.752 24.7855C124.745 26.9946 126.53 28.7915 128.739 28.7989L149.525 28.869C151.734 28.8764 153.531 27.0916 153.538 24.8825Z" fill="#B6C0D3" fill-opacity="0.4"/>
<path d="M193.119 24.8825L193.189 4.09666C193.196 1.88753 191.412 0.0906464 189.202 0.0832039L168.417 0.0131772C166.207 0.00573478 164.411 1.79055 164.403 3.99968L164.333 24.7855C164.326 26.9946 166.111 28.7915 168.32 28.7989L189.105 28.869C191.315 28.8764 193.111 27.0916 193.119 24.8825Z" fill="#B6C0D3" fill-opacity="0.4"/>
<path d="M232.7 24.8825L232.77 4.09666C232.777 1.88753 230.992 0.0906464 228.783 0.0832039L207.997 0.0131772C205.788 0.00573478 203.991 1.79055 203.984 3.99968L203.914 24.7855C203.906 26.9946 205.691 28.7915 207.9 28.7989L228.686 28.869C230.895 28.8764 232.692 27.0916 232.7 24.8825Z" fill="#B6C0D3" fill-opacity="0.4"/>
<path d="M272.28 24.8825L272.35 4.09666C272.358 1.88753 270.573 0.0906464 268.364 0.0832039L247.578 0.0131772C245.369 0.00573478 243.572 1.79055 243.565 3.99968L243.495 24.7855C243.487 26.9946 245.272 28.7915 247.481 28.7989L268.267 28.869C270.476 28.8764 272.273 27.0916 272.28 24.8825Z" fill="#B6C0D3" fill-opacity="0.4"/>
<path d="M311.861 24.8825L311.931 4.09666C311.938 1.88753 310.153 0.0906464 307.944 0.0832039L287.159 0.0131772C284.949 0.00573478 283.153 1.79055 283.145 3.99968L283.075 24.7855C283.068 26.9946 284.852 28.7915 287.062 28.7989L307.847 28.869C310.057 28.8764 311.853 27.0916 311.861 24.8825Z" fill="#B6C0D3" fill-opacity="0.4"/>
<path d="M351.442 24.8825L351.512 4.09666C351.519 1.88753 349.734 0.0906464 347.525 0.0832039L326.739 0.0131772C324.53 0.00573478 322.733 1.79055 322.726 3.99968L322.656 24.7855C322.648 26.9946 324.433 28.7915 326.642 28.7989L347.428 28.869C349.637 28.8764 351.434 27.0916 351.442 24.8825Z" fill="#B6C0D3" fill-opacity="0.4"/>
<path d="M391.022 24.8825L391.092 4.09666C391.1 1.88753 389.315 0.0906464 387.106 0.0832039L366.32 0.0131772C364.111 0.00573478 362.314 1.79055 362.306 3.99968L362.236 24.7855C362.229 26.9946 364.014 28.7915 366.223 28.7989L387.009 28.869C389.218 28.8764 391.015 27.0916 391.022 24.8825Z" fill="#B6C0D3" fill-opacity="0.4"/>
<path d="M391.022 63.2638L391.092 42.478C391.1 40.2689 389.315 38.472 387.106 38.4646L366.32 38.3945C364.111 38.3871 362.314 40.1719 362.306 42.381L362.236 63.1668C362.229 65.376 364.014 67.1729 366.223 67.1803L387.009 67.2503C389.218 67.2578 391.015 65.4729 391.022 63.2638Z" fill="#B6C0D3" fill-opacity="0.4"/>
<path d="M391.022 101.645L391.092 80.8594C391.1 78.6502 389.315 76.8533 387.106 76.8459L366.32 76.7759C364.111 76.7684 362.314 78.5532 362.306 80.7624L362.236 101.548C362.229 103.757 364.014 105.554 366.223 105.562L387.009 105.632C389.218 105.639 391.015 103.854 391.022 101.645Z" fill="#B6C0D3" fill-opacity="0.4"/>
<path d="M232.7 101.645L232.77 80.8594C232.777 78.6502 230.992 76.8533 228.783 76.8459L207.997 76.7759C205.788 76.7684 203.991 78.5532 203.984 80.7624L203.914 101.548C203.906 103.757 205.691 105.554 207.9 105.562L228.686 105.632C230.895 105.639 232.692 103.854 232.7 101.645Z" fill="#B6C0D3" fill-opacity="0.4"/>
<path d="M74.3771 101.645L74.4471 80.8594C74.4545 78.6502 72.6697 76.8533 70.4606 76.8459L49.6748 76.7759C47.4657 76.7684 45.6688 78.5532 45.6613 80.7624L45.5913 101.548C45.5839 103.757 47.3687 105.554 49.5778 105.562L70.3636 105.632C72.5727 105.639 74.3696 103.854 74.3771 101.645Z" fill="#B6C0D3" fill-opacity="0.4"/>
<path d="M391.022 140.027L391.092 119.241C391.1 117.032 389.315 115.235 387.106 115.227L366.32 115.157C364.111 115.15 362.314 116.935 362.306 119.144L362.236 139.93C362.229 142.139 364.014 143.936 366.223 143.943L387.009 144.013C389.218 144.02 391.015 142.236 391.022 140.027Z" fill="#B6C0D3" fill-opacity="0.4"/>
<path d="M232.7 140.027L232.77 119.241C232.777 117.032 230.992 115.235 228.783 115.227L207.997 115.157C205.788 115.15 203.991 116.935 203.984 119.144L203.914 139.93C203.906 142.139 205.691 143.936 207.9 143.943L228.686 144.013C230.895 144.02 232.692 142.236 232.7 140.027Z" fill="#B6C0D3" fill-opacity="0.4"/>
<path d="M74.3771 140.027L74.4471 119.241C74.4545 117.032 72.6697 115.235 70.4606 115.227L49.6748 115.157C47.4657 115.15 45.6688 116.935 45.6613 119.144L45.5913 139.93C45.5839 142.139 47.3687 143.936 49.5778 143.943L70.3636 144.013C72.5727 144.02 74.3696 142.236 74.3771 140.027Z" fill="#B6C0D3" fill-opacity="0.4"/>
<path d="M391.022 178.408L391.092 157.622C391.1 155.413 389.315 153.616 387.106 153.609L366.32 153.539C364.111 153.531 362.314 155.316 362.306 157.525L362.236 178.311C362.229 180.52 364.014 182.317 366.223 182.324L387.009 182.394C389.218 182.402 391.015 180.617 391.022 178.408Z" fill="#B6C0D3" fill-opacity="0.4"/>
<path d="M232.7 178.408L232.77 157.622C232.777 155.413 230.992 153.616 228.783 153.609L207.997 153.539C205.788 153.531 203.991 155.316 203.984 157.525L203.914 178.311C203.906 180.52 205.691 182.317 207.9 182.324L228.686 182.394C230.895 182.402 232.692 180.617 232.7 178.408Z" fill="#B6C0D3" fill-opacity="0.4"/>
<path d="M74.3771 178.408L74.4471 157.622C74.4545 155.413 72.6697 153.616 70.4606 153.609L49.6748 153.539C47.4657 153.531 45.6688 155.316 45.6613 157.525L45.5913 178.311C45.5839 180.52 47.3687 182.317 49.5778 182.324L70.3636 182.394C72.5727 182.402 74.3696 180.617 74.3771 178.408Z" fill="#B6C0D3" fill-opacity="0.4"/>
<path d="M351.442 63.2638L351.512 42.478C351.519 40.2689 349.734 38.472 347.525 38.4646L326.739 38.3945C324.53 38.3871 322.733 40.1719 322.726 42.381L322.656 63.1668C322.648 65.376 324.433 67.1729 326.642 67.1803L347.428 67.2503C349.637 67.2578 351.434 65.4729 351.442 63.2638Z" fill="#B6C0D3" fill-opacity="0.4"/>
<path d="M351.442 101.645L351.512 80.8594C351.519 78.6502 349.734 76.8533 347.525 76.8459L326.739 76.7759C324.53 76.7684 322.733 78.5532 322.726 80.7624L322.656 101.548C322.648 103.757 324.433 105.554 326.642 105.562L347.428 105.632C349.637 105.639 351.434 103.854 351.442 101.645Z" fill="#B6C0D3" fill-opacity="0.4"/>
<path d="M193.119 101.645L193.189 80.8594C193.196 78.6502 191.412 76.8533 189.202 76.8459L168.417 76.7759C166.207 76.7684 164.411 78.5532 164.403 80.7624L164.333 101.548C164.326 103.757 166.111 105.554 168.32 105.562L189.105 105.632C191.315 105.639 193.111 103.854 193.119 101.645Z" fill="#B6C0D3" fill-opacity="0.4"/>
<path d="M34.7964 101.645L34.8664 80.8594C34.8738 78.6502 33.089 76.8533 30.8799 76.8459L10.0941 76.7759C7.88498 76.7684 6.08809 78.5532 6.08065 80.7624L6.01062 101.548C6.00318 103.757 7.788 105.554 9.99713 105.562L30.7829 105.632C32.9921 105.639 34.7889 103.854 34.7964 101.645Z" fill="#B6C0D3" fill-opacity="0.4"/>
<path d="M351.442 140.027L351.512 119.241C351.519 117.032 349.734 115.235 347.525 115.227L326.739 115.157C324.53 115.15 322.733 116.935 322.726 119.144L322.656 139.93C322.648 142.139 324.433 143.936 326.642 143.943L347.428 144.013C349.637 144.02 351.434 142.236 351.442 140.027Z" fill="#B6C0D3" fill-opacity="0.4"/>
<path d="M193.119 140.027L193.189 119.241C193.196 117.032 191.412 115.235 189.202 115.227L168.417 115.157C166.207 115.15 164.411 116.935 164.403 119.144L164.333 139.93C164.326 142.139 166.111 143.936 168.32 143.943L189.105 144.013C191.315 144.02 193.111 142.236 193.119 140.027Z" fill="#B6C0D3" fill-opacity="0.4"/>
<path d="M34.7964 140.027L34.8664 119.241C34.8738 117.032 33.089 115.235 30.8799 115.227L10.0941 115.157C7.88498 115.15 6.08809 116.935 6.08065 119.144L6.01062 139.93C6.00318 142.139 7.788 143.936 9.99713 143.943L30.7829 144.013C32.9921 144.02 34.7889 142.236 34.7964 140.027Z" fill="#B6C0D3" fill-opacity="0.4"/>
<path d="M351.442 178.408L351.512 157.622C351.519 155.413 349.734 153.616 347.525 153.609L326.739 153.539C324.53 153.531 322.733 155.316 322.726 157.525L322.656 178.311C322.648 180.52 324.433 182.317 326.642 182.324L347.428 182.394C349.637 182.402 351.434 180.617 351.442 178.408Z" fill="#B6C0D3" fill-opacity="0.4"/>
<path d="M193.119 178.408L193.189 157.622C193.196 155.413 191.412 153.616 189.202 153.609L168.417 153.539C166.207 153.531 164.411 155.316 164.403 157.525L164.333 178.311C164.326 180.52 166.111 182.317 168.32 182.324L189.105 182.394C191.315 182.402 193.111 180.617 193.119 178.408Z" fill="#B6C0D3" fill-opacity="0.4"/>
<path d="M34.7964 178.408L34.8664 157.622C34.8738 155.413 33.089 153.616 30.8799 153.609L10.0941 153.539C7.88498 153.531 6.08809 155.316 6.08065 157.525L6.01062 178.311C6.00318 180.52 7.788 182.317 9.99713 182.324L30.7829 182.394C32.9921 182.402 34.7889 180.617 34.7964 178.408Z" fill="#B6C0D3" fill-opacity="0.4"/>
<path d="M311.861 63.2638L311.931 42.478C311.938 40.2689 310.153 38.472 307.944 38.4646L287.159 38.3945C284.949 38.3871 283.153 40.1719 283.145 42.381L283.075 63.1668C283.068 65.376 284.852 67.1729 287.062 67.1803L307.847 67.2503C310.057 67.2578 311.853 65.4729 311.861 63.2638Z" fill="#B6C0D3" fill-opacity="0.4"/>
<path d="M272.28 63.2638L272.35 42.478C272.358 40.2689 270.573 38.472 268.364 38.4646L247.578 38.3945C245.369 38.3871 243.572 40.1719 243.565 42.381L243.495 63.1668C243.487 65.376 245.272 67.1729 247.481 67.1803L268.267 67.2503C270.476 67.2578 272.273 65.4729 272.28 63.2638Z" fill="#B6C0D3" fill-opacity="0.4"/>
<path d="M232.7 63.2638L232.77 42.478C232.777 40.2689 230.992 38.472 228.783 38.4646L207.997 38.3945C205.788 38.3871 203.991 40.1719 203.984 42.381L203.914 63.1668C203.906 65.376 205.691 67.1729 207.9 67.1803L228.686 67.2503C230.895 67.2578 232.692 65.4729 232.7 63.2638Z" fill="#B6C0D3" fill-opacity="0.4"/>
<path d="M193.119 63.2638L193.189 42.478C193.196 40.2689 191.412 38.472 189.202 38.4646L168.417 38.3945C166.207 38.3871 164.411 40.1719 164.403 42.381L164.333 63.1668C164.326 65.376 166.111 67.1729 168.32 67.1803L189.105 67.2503C191.315 67.2578 193.111 65.4729 193.119 63.2638Z" fill="#B6C0D3" fill-opacity="0.4"/>
<path d="M153.538 63.2638L153.608 42.478C153.616 40.2689 151.831 38.472 149.622 38.4646L128.836 38.3945C126.627 38.3871 124.83 40.1719 124.822 42.381L124.752 63.1668C124.745 65.376 126.53 67.1729 128.739 67.1803L149.525 67.2503C151.734 67.2578 153.531 65.4729 153.538 63.2638Z" fill="#B6C0D3" fill-opacity="0.4"/>
<path d="M113.958 63.2638L114.028 42.478C114.035 40.2689 112.25 38.472 110.041 38.4646L89.2555 38.3945C87.0464 38.3871 85.2495 40.1719 85.242 42.381L85.172 63.1668C85.1646 65.376 86.9494 67.1729 89.1585 67.1803L109.944 67.2503C112.153 67.2578 113.95 65.4729 113.958 63.2638Z" fill="#B6C0D3" fill-opacity="0.4"/>
<path d="M74.3771 63.2638L74.4471 42.478C74.4545 40.2689 72.6697 38.472 70.4606 38.4646L49.6748 38.3945C47.4657 38.3871 45.6688 40.1719 45.6613 42.381L45.5913 63.1668C45.5839 65.376 47.3687 67.1729 49.5778 67.1803L70.3636 67.2503C72.5727 67.2578 74.3696 65.4729 74.3771 63.2638Z" fill="#B6C0D3" fill-opacity="0.4"/>
<path d="M34.7964 63.2638L34.8664 42.478C34.8738 40.2689 33.089 38.472 30.8799 38.4646L10.0941 38.3945C7.88498 38.3871 6.08809 40.1719 6.08065 42.381L6.01062 63.1668C6.00318 65.376 7.788 67.1729 9.99713 67.1803L30.7829 67.2503C32.9921 67.2578 34.7889 65.4729 34.7964 63.2638Z" fill="#B6C0D3" fill-opacity="0.4"/>
<path d="M107.96 478.261L108.03 457.476C108.038 455.266 106.253 453.47 104.044 453.462L83.258 453.392C81.0489 453.385 79.252 455.169 79.2446 457.379L79.1746 478.164C79.1671 480.374 80.9519 482.17 83.1611 482.178L103.947 482.248C106.156 482.255 107.953 480.471 107.96 478.261Z" fill="#B6C0D3" fill-opacity="0.4"/>
<path d="M68.3799 478.261L68.4499 457.476C68.4573 455.266 66.6725 453.47 64.4634 453.462L43.6776 453.392C41.4685 453.385 39.6716 455.169 39.6641 457.379L39.5941 478.164C39.5867 480.374 41.3715 482.17 43.5806 482.178L64.3664 482.248C66.5755 482.255 68.3724 480.471 68.3799 478.261Z" fill="#B6C0D3" fill-opacity="0.4"/>
<path d="M28.7992 478.261L28.8692 457.476C28.8767 455.266 27.0918 453.47 24.8827 453.462L4.09691 453.392C1.88779 453.385 0.0909009 455.169 0.0834585 457.379L0.0134318 478.164C0.00598928 480.374 1.79081 482.17 3.99994 482.178L24.7857 482.248C26.9949 482.255 28.7917 480.471 28.7992 478.261Z" fill="#B6C0D3" fill-opacity="0.4"/>
<path d="M147.541 478.261L147.611 457.476C147.618 455.266 145.834 453.47 143.625 453.462L122.839 453.392C120.63 453.385 118.833 455.169 118.825 457.379L118.755 478.164C118.748 480.374 120.533 482.17 122.742 482.178L143.528 482.248C145.737 482.255 147.534 480.471 147.541 478.261Z" fill="#B6C0D3" fill-opacity="0.4"/>
<path d="M187.122 478.261L187.192 457.476C187.199 455.266 185.414 453.47 183.205 453.462L162.419 453.392C160.21 453.385 158.413 455.169 158.406 457.379L158.336 478.164C158.328 480.374 160.113 482.17 162.322 482.178L183.108 482.248C185.317 482.255 187.114 480.471 187.122 478.261Z" fill="#B6C0D3" fill-opacity="0.4"/>
<path d="M226.702 478.261L226.772 457.476C226.78 455.266 224.995 453.47 222.786 453.462L202 453.392C199.791 453.385 197.994 455.169 197.987 457.379L197.917 478.164C197.909 480.374 199.694 482.17 201.903 482.178L222.689 482.248C224.898 482.255 226.695 480.471 226.702 478.261Z" fill="#B6C0D3" fill-opacity="0.4"/>
<path d="M266.283 478.261L266.353 457.476C266.36 455.266 264.576 453.47 262.366 453.462L241.581 453.392C239.372 453.385 237.575 455.169 237.567 457.379L237.497 478.164C237.49 480.374 239.275 482.17 241.484 482.178L262.269 482.248C264.479 482.255 266.276 480.471 266.283 478.261Z" fill="#B6C0D3" fill-opacity="0.4"/>
<path d="M305.864 478.261L305.934 457.476C305.941 455.266 304.156 453.47 301.947 453.462L281.161 453.392C278.952 453.385 277.155 455.169 277.148 457.379L277.078 478.164C277.071 480.374 278.855 482.17 281.065 482.178L301.85 482.248C304.059 482.255 305.856 480.471 305.864 478.261Z" fill="#B6C0D3" fill-opacity="0.4"/>
<path d="M345.444 478.261L345.514 457.476C345.522 455.266 343.737 453.47 341.528 453.462L320.742 453.392C318.533 453.385 316.736 455.169 316.729 457.379L316.659 478.164C316.651 480.374 318.436 482.17 320.645 482.178L341.431 482.248C343.64 482.255 345.437 480.471 345.444 478.261Z" fill="#B6C0D3" fill-opacity="0.4"/>
<path d="M385.025 478.261L385.095 457.476C385.102 455.266 383.318 453.47 381.109 453.462L360.323 453.392C358.114 453.385 356.317 455.169 356.309 457.379L356.239 478.164C356.232 480.374 358.017 482.17 360.226 482.178L381.012 482.248C383.221 482.255 385.018 480.471 385.025 478.261Z" fill="#B6C0D3" fill-opacity="0.4"/>
<path d="M385.025 516.643L385.095 495.857C385.102 493.648 383.318 491.851 381.109 491.843L360.323 491.773C358.114 491.766 356.317 493.551 356.309 495.76L356.239 516.546C356.232 518.755 358.017 520.552 360.226 520.559L381.012 520.629C383.221 520.637 385.018 518.852 385.025 516.643Z" fill="#B6C0D3" fill-opacity="0.4"/>
<path d="M385.025 555.024L385.095 534.238C385.102 532.029 383.318 530.232 381.109 530.225L360.323 530.155C358.114 530.147 356.317 531.932 356.309 534.141L356.239 554.927C356.232 557.136 358.017 558.933 360.226 558.941L381.012 559.011C383.221 559.018 385.018 557.233 385.025 555.024Z" fill="#B6C0D3" fill-opacity="0.4"/>
<path d="M226.702 555.024L226.772 534.238C226.78 532.029 224.995 530.232 222.786 530.225L202 530.155C199.791 530.147 197.994 531.932 197.987 534.141L197.917 554.927C197.909 557.136 199.694 558.933 201.903 558.941L222.689 559.011C224.898 559.018 226.695 557.233 226.702 555.024Z" fill="#B6C0D3" fill-opacity="0.4"/>
<path d="M68.3799 555.024L68.4499 534.238C68.4573 532.029 66.6725 530.232 64.4634 530.225L43.6776 530.155C41.4685 530.147 39.6716 531.932 39.6641 534.141L39.5941 554.927C39.5867 557.136 41.3715 558.933 43.5806 558.941L64.3664 559.011C66.5755 559.018 68.3724 557.233 68.3799 555.024Z" fill="#B6C0D3" fill-opacity="0.4"/>
<path d="M385.025 593.405L385.095 572.62C385.102 570.41 383.318 568.614 381.109 568.606L360.323 568.536C358.114 568.529 356.317 570.313 356.309 572.523L356.239 593.308C356.232 595.518 358.017 597.314 360.226 597.322L381.012 597.392C383.221 597.399 385.018 595.615 385.025 593.405Z" fill="#B6C0D3" fill-opacity="0.4"/>
<path d="M226.702 593.405L226.772 572.62C226.78 570.41 224.995 568.614 222.786 568.606L202 568.536C199.791 568.529 197.994 570.313 197.987 572.523L197.917 593.308C197.909 595.518 199.694 597.314 201.903 597.322L222.689 597.392C224.898 597.399 226.695 595.615 226.702 593.405Z" fill="#B6C0D3" fill-opacity="0.4"/>
<path d="M68.3799 593.405L68.4499 572.62C68.4573 570.41 66.6725 568.614 64.4634 568.606L43.6776 568.536C41.4685 568.529 39.6716 570.313 39.6641 572.523L39.5941 593.308C39.5867 595.518 41.3715 597.314 43.5806 597.322L64.3664 597.392C66.5755 597.399 68.3724 595.615 68.3799 593.405Z" fill="#B6C0D3" fill-opacity="0.4"/>
<path d="M385.025 631.787L385.095 611.001C385.103 608.792 383.318 606.995 381.109 606.988L360.323 606.917C358.114 606.91 356.317 608.695 356.309 610.904L356.239 631.69C356.232 633.899 358.017 635.696 360.226 635.703L381.012 635.773C383.221 635.781 385.018 633.996 385.025 631.787Z" fill="#B6C0D3" fill-opacity="0.4"/>
<path d="M226.702 631.787L226.772 611.001C226.78 608.792 224.995 606.995 222.786 606.988L202 606.917C199.791 606.91 197.994 608.695 197.987 610.904L197.917 631.69C197.909 633.899 199.694 635.696 201.903 635.703L222.689 635.773C224.898 635.781 226.695 633.996 226.702 631.787Z" fill="#B6C0D3" fill-opacity="0.4"/>
<path d="M68.3799 631.787L68.4499 611.001C68.4573 608.792 66.6725 606.995 64.4634 606.988L43.6776 606.917C41.4685 606.91 39.6716 608.695 39.6641 610.904L39.5941 631.69C39.5867 633.899 41.3715 635.696 43.5806 635.703L64.3664 635.773C66.5755 635.781 68.3724 633.996 68.3799 631.787Z" fill="#B6C0D3" fill-opacity="0.4"/>
<path d="M345.444 516.643L345.514 495.857C345.522 493.648 343.737 491.851 341.528 491.843L320.742 491.773C318.533 491.766 316.736 493.551 316.729 495.76L316.659 516.546C316.651 518.755 318.436 520.552 320.645 520.559L341.431 520.629C343.64 520.637 345.437 518.852 345.444 516.643Z" fill="#B6C0D3" fill-opacity="0.4"/>
<path d="M345.444 555.024L345.514 534.238C345.522 532.029 343.737 530.232 341.528 530.225L320.742 530.155C318.533 530.147 316.736 531.932 316.729 534.141L316.659 554.927C316.651 557.136 318.436 558.933 320.645 558.941L341.431 559.011C343.64 559.018 345.437 557.233 345.444 555.024Z" fill="#B6C0D3" fill-opacity="0.4"/>
<path d="M187.122 555.024L187.192 534.238C187.199 532.029 185.414 530.232 183.205 530.225L162.419 530.155C160.21 530.147 158.413 531.932 158.406 534.141L158.336 554.927C158.328 557.136 160.113 558.933 162.322 558.941L183.108 559.011C185.317 559.018 187.114 557.233 187.122 555.024Z" fill="#B6C0D3" fill-opacity="0.4"/>
<path d="M28.7992 555.024L28.8692 534.238C28.8767 532.029 27.0918 530.232 24.8827 530.225L4.09691 530.155C1.88779 530.147 0.0909009 531.932 0.0834585 534.141L0.0134318 554.927C0.00598928 557.136 1.79081 558.933 3.99994 558.941L24.7857 559.011C26.9949 559.018 28.7917 557.233 28.7992 555.024Z" fill="#B6C0D3" fill-opacity="0.4"/>
<path d="M345.444 593.405L345.514 572.62C345.522 570.41 343.737 568.614 341.528 568.606L320.742 568.536C318.533 568.529 316.736 570.313 316.729 572.523L316.659 593.308C316.651 595.518 318.436 597.314 320.645 597.322L341.431 597.392C343.64 597.399 345.437 595.615 345.444 593.405Z" fill="#B6C0D3" fill-opacity="0.4"/>
<path d="M187.122 593.405L187.192 572.62C187.199 570.41 185.414 568.614 183.205 568.606L162.419 568.536C160.21 568.529 158.413 570.313 158.406 572.523L158.336 593.308C158.328 595.518 160.113 597.314 162.322 597.322L183.108 597.392C185.317 597.399 187.114 595.615 187.122 593.405Z" fill="#B6C0D3" fill-opacity="0.4"/>
<path d="M28.7992 593.405L28.8692 572.62C28.8767 570.41 27.0918 568.614 24.8827 568.606L4.09691 568.536C1.88779 568.529 0.0909009 570.313 0.0834585 572.523L0.0134318 593.308C0.00598928 595.518 1.79081 597.314 3.99994 597.322L24.7857 597.392C26.9949 597.399 28.7917 595.615 28.7992 593.405Z" fill="#B6C0D3" fill-opacity="0.4"/>
<path d="M345.444 631.787L345.514 611.001C345.522 608.792 343.737 606.995 341.528 606.988L320.742 606.917C318.533 606.91 316.736 608.695 316.729 610.904L316.659 631.69C316.651 633.899 318.436 635.696 320.645 635.703L341.431 635.773C343.64 635.781 345.437 633.996 345.444 631.787Z" fill="#B6C0D3" fill-opacity="0.4"/>
<path d="M187.122 631.787L187.192 611.001C187.199 608.792 185.414 606.995 183.205 606.988L162.419 606.917C160.21 606.91 158.413 608.695 158.406 610.904L158.336 631.69C158.328 633.899 160.113 635.696 162.322 635.703L183.108 635.773C185.317 635.781 187.114 633.996 187.122 631.787Z" fill="#B6C0D3" fill-opacity="0.4"/>
<path d="M28.7993 631.787L28.8693 611.001C28.8768 608.792 27.092 606.995 24.8828 606.988L4.09703 606.917C1.88791 606.91 0.091023 608.695 0.0835805 610.904L0.0135538 631.69C0.00611135 633.899 1.79093 635.696 4.00006 635.703L24.7859 635.773C26.995 635.781 28.7919 633.996 28.7993 631.787Z" fill="#B6C0D3" fill-opacity="0.4"/>
<path d="M305.864 516.643L305.934 495.857C305.941 493.648 304.156 491.851 301.947 491.843L281.161 491.773C278.952 491.766 277.155 493.551 277.148 495.76L277.078 516.546C277.071 518.755 278.855 520.552 281.065 520.559L301.85 520.629C304.059 520.637 305.856 518.852 305.864 516.643Z" fill="#B6C0D3" fill-opacity="0.4"/>
<path d="M266.283 516.643L266.353 495.857C266.36 493.648 264.576 491.851 262.366 491.843L241.581 491.773C239.372 491.766 237.575 493.551 237.567 495.76L237.497 516.546C237.49 518.755 239.275 520.552 241.484 520.559L262.269 520.629C264.479 520.637 266.276 518.852 266.283 516.643Z" fill="#B6C0D3" fill-opacity="0.4"/>
<path d="M226.702 516.643L226.772 495.857C226.78 493.648 224.995 491.851 222.786 491.843L202 491.773C199.791 491.766 197.994 493.551 197.987 495.76L197.917 516.546C197.909 518.755 199.694 520.552 201.903 520.559L222.689 520.629C224.898 520.637 226.695 518.852 226.702 516.643Z" fill="#B6C0D3" fill-opacity="0.4"/>
<path d="M187.122 516.643L187.192 495.857C187.199 493.648 185.414 491.851 183.205 491.843L162.419 491.773C160.21 491.766 158.413 493.551 158.406 495.76L158.336 516.546C158.328 518.755 160.113 520.552 162.322 520.559L183.108 520.629C185.317 520.637 187.114 518.852 187.122 516.643Z" fill="#B6C0D3" fill-opacity="0.4"/>
<path d="M147.541 516.643L147.611 495.857C147.618 493.648 145.834 491.851 143.625 491.843L122.839 491.773C120.63 491.766 118.833 493.551 118.825 495.76L118.755 516.546C118.748 518.755 120.533 520.552 122.742 520.559L143.528 520.629C145.737 520.637 147.534 518.852 147.541 516.643Z" fill="#B6C0D3" fill-opacity="0.4"/>
<path d="M107.96 516.643L108.03 495.857C108.038 493.648 106.253 491.851 104.044 491.843L83.258 491.773C81.0489 491.766 79.252 493.551 79.2446 495.76L79.1746 516.546C79.1671 518.755 80.9519 520.552 83.1611 520.559L103.947 520.629C106.156 520.637 107.953 518.852 107.96 516.643Z" fill="#B6C0D3" fill-opacity="0.4"/>
<path d="M68.3799 516.643L68.4499 495.857C68.4573 493.648 66.6725 491.851 64.4634 491.843L43.6776 491.773C41.4685 491.766 39.6716 493.551 39.6641 495.76L39.5941 516.546C39.5867 518.755 41.3715 520.552 43.5806 520.559L64.3664 520.629C66.5755 520.637 68.3724 518.852 68.3799 516.643Z" fill="#B6C0D3" fill-opacity="0.4"/>
<path d="M28.7992 516.643L28.8692 495.857C28.8767 493.648 27.0918 491.851 24.8827 491.843L4.09691 491.773C1.88779 491.766 0.0909009 493.551 0.0834585 495.76L0.0134318 516.546C0.00598928 518.755 1.79081 520.552 3.99994 520.559L24.7857 520.629C26.9949 520.637 28.7917 518.852 28.7992 516.643Z" fill="#B6C0D3" fill-opacity="0.4"/>
<path d="M113.958 251.572L114.028 230.786C114.035 228.577 112.25 226.78 110.041 226.773L89.2552 226.703C87.0461 226.695 85.2492 228.48 85.2418 230.689L85.1718 251.475C85.1643 253.684 86.9491 255.481 89.1583 255.488L109.944 255.558C112.153 255.566 113.95 253.781 113.958 251.572Z" fill="#B6C0D3" fill-opacity="0.4"/>
<path d="M74.3768 251.572L74.4469 230.786C74.4543 228.577 72.6695 226.78 70.4603 226.773L49.6745 226.703C47.4654 226.695 45.6685 228.48 45.6611 230.689L45.5911 251.475C45.5836 253.684 47.3684 255.481 49.5776 255.488L70.3634 255.558C72.5725 255.566 74.3694 253.781 74.3768 251.572Z" fill="#B6C0D3" fill-opacity="0.4"/>
<path d="M34.7961 251.572L34.8662 230.786C34.8736 228.577 33.0888 226.78 30.8797 226.773L10.0939 226.703C7.88473 226.695 6.08785 228.48 6.08041 230.689L6.01038 251.475C6.00294 253.684 7.78776 255.481 9.99689 255.488L30.7827 255.558C32.9918 255.566 34.7887 253.781 34.7961 251.572Z" fill="#B6C0D3" fill-opacity="0.4"/>
<path d="M153.538 251.572L153.608 230.786C153.616 228.577 151.831 226.78 149.622 226.773L128.836 226.703C126.627 226.695 124.83 228.48 124.822 230.689L124.752 251.475C124.745 253.684 126.53 255.481 128.739 255.488L149.525 255.558C151.734 255.566 153.531 253.781 153.538 251.572Z" fill="#B6C0D3" fill-opacity="0.4"/>
<path d="M193.119 251.572L193.189 230.786C193.196 228.577 191.412 226.78 189.202 226.773L168.417 226.703C166.207 226.695 164.411 228.48 164.403 230.689L164.333 251.475C164.326 253.684 166.111 255.481 168.32 255.488L189.105 255.558C191.315 255.566 193.111 253.781 193.119 251.572Z" fill="#B6C0D3" fill-opacity="0.4"/>
<path d="M232.7 251.572L232.77 230.786C232.777 228.577 230.992 226.78 228.783 226.773L207.997 226.703C205.788 226.695 203.991 228.48 203.984 230.689L203.914 251.475C203.906 253.684 205.691 255.481 207.9 255.488L228.686 255.558C230.895 255.566 232.692 253.781 232.7 251.572Z" fill="#B6C0D3" fill-opacity="0.4"/>
<path d="M272.28 251.572L272.35 230.786C272.358 228.577 270.573 226.78 268.364 226.773L247.578 226.703C245.369 226.695 243.572 228.48 243.565 230.689L243.495 251.475C243.487 253.684 245.272 255.481 247.481 255.488L268.267 255.558C270.476 255.566 272.273 253.781 272.28 251.572Z" fill="#B6C0D3" fill-opacity="0.4"/>
<path d="M311.861 251.572L311.931 230.786C311.938 228.577 310.153 226.78 307.944 226.773L287.159 226.703C284.949 226.695 283.153 228.48 283.145 230.689L283.075 251.475C283.068 253.684 284.852 255.481 287.062 255.488L307.847 255.558C310.057 255.566 311.853 253.781 311.861 251.572Z" fill="#B6C0D3" fill-opacity="0.4"/>
<path d="M351.441 251.572L351.511 230.786C351.519 228.577 349.734 226.78 347.525 226.773L326.739 226.703C324.53 226.695 322.733 228.48 322.726 230.689L322.656 251.475C322.648 253.684 324.433 255.481 326.642 255.488L347.428 255.558C349.637 255.566 351.434 253.781 351.441 251.572Z" fill="#B6C0D3" fill-opacity="0.4"/>
<path d="M391.022 251.572L391.092 230.786C391.1 228.577 389.315 226.78 387.106 226.773L366.32 226.703C364.111 226.695 362.314 228.48 362.306 230.689L362.236 251.475C362.229 253.684 364.014 255.481 366.223 255.488L387.009 255.558C389.218 255.566 391.015 253.781 391.022 251.572Z" fill="#B6C0D3" fill-opacity="0.4"/>
<path d="M391.022 289.953L391.092 269.167C391.1 266.958 389.315 265.161 387.106 265.154L366.32 265.083C364.111 265.076 362.314 266.861 362.306 269.07L362.236 289.856C362.229 292.065 364.014 293.862 366.223 293.869L387.009 293.939C389.218 293.947 391.015 292.162 391.022 289.953Z" fill="#B6C0D3" fill-opacity="0.4"/>
<path d="M391.022 328.334L391.092 307.548C391.1 305.339 389.315 303.542 387.106 303.535L366.32 303.465C364.111 303.457 362.314 305.242 362.306 307.451L362.236 328.237C362.229 330.446 364.014 332.243 366.223 332.251L387.009 332.321C389.218 332.328 391.015 330.543 391.022 328.334Z" fill="#B6C0D3" fill-opacity="0.4"/>
<path d="M232.7 328.334L232.77 307.548C232.777 305.339 230.992 303.542 228.783 303.535L207.997 303.465C205.788 303.457 203.991 305.242 203.984 307.451L203.914 328.237C203.906 330.446 205.691 332.243 207.9 332.251L228.686 332.321C230.895 332.328 232.692 330.543 232.7 328.334Z" fill="#B6C0D3" fill-opacity="0.4"/>
<path d="M391.022 366.715L391.092 345.93C391.1 343.721 389.315 341.924 387.106 341.916L366.32 341.846C364.111 341.839 362.314 343.624 362.306 345.833L362.236 366.619C362.229 368.828 364.014 370.625 366.223 370.632L387.009 370.702C389.218 370.709 391.015 368.925 391.022 366.715Z" fill="#B6C0D3" fill-opacity="0.4"/>
<path d="M232.7 366.715L232.77 345.93C232.777 343.721 230.992 341.924 228.783 341.916L207.997 341.846C205.788 341.839 203.991 343.624 203.984 345.833L203.914 366.619C203.906 368.828 205.691 370.625 207.9 370.632L228.686 370.702C230.895 370.709 232.692 368.925 232.7 366.715Z" fill="#B6C0D3" fill-opacity="0.4"/>
<path d="M391.022 405.097L391.092 384.311C391.1 382.102 389.315 380.305 387.106 380.298L366.32 380.228C364.111 380.22 362.314 382.005 362.306 384.214L362.236 405C362.229 407.209 364.014 409.006 366.223 409.013L387.009 409.083C389.218 409.091 391.015 407.306 391.022 405.097Z" fill="#B6C0D3" fill-opacity="0.4"/>
<path d="M232.7 405.097L232.77 384.311C232.777 382.102 230.992 380.305 228.783 380.298L207.997 380.228C205.788 380.22 203.991 382.005 203.984 384.214L203.914 405C203.906 407.209 205.691 409.006 207.9 409.013L228.686 409.083C230.895 409.091 232.692 407.306 232.7 405.097Z" fill="#B6C0D3" fill-opacity="0.4"/>
<path d="M351.441 289.953L351.511 269.167C351.519 266.958 349.734 265.161 347.525 265.154L326.739 265.083C324.53 265.076 322.733 266.861 322.726 269.07L322.656 289.856C322.648 292.065 324.433 293.862 326.642 293.869L347.428 293.939C349.637 293.947 351.434 292.162 351.441 289.953Z" fill="#B6C0D3" fill-opacity="0.4"/>
<path d="M351.441 328.334L351.511 307.548C351.519 305.339 349.734 303.542 347.525 303.535L326.739 303.465C324.53 303.457 322.733 305.242 322.726 307.451L322.656 328.237C322.648 330.446 324.433 332.243 326.642 332.251L347.428 332.321C349.637 332.328 351.434 330.543 351.441 328.334Z" fill="#B6C0D3" fill-opacity="0.4"/>
<path d="M193.119 328.334L193.189 307.548C193.196 305.339 191.412 303.542 189.202 303.535L168.417 303.465C166.207 303.457 164.411 305.242 164.403 307.451L164.333 328.237C164.326 330.446 166.111 332.243 168.32 332.251L189.105 332.321C191.315 332.328 193.111 330.543 193.119 328.334Z" fill="#B6C0D3" fill-opacity="0.4"/>
<path d="M351.441 366.715L351.511 345.93C351.519 343.721 349.734 341.924 347.525 341.916L326.739 341.846C324.53 341.839 322.733 343.624 322.726 345.833L322.656 366.619C322.648 368.828 324.433 370.625 326.642 370.632L347.428 370.702C349.637 370.709 351.434 368.925 351.441 366.715Z" fill="#B6C0D3" fill-opacity="0.4"/>
<path d="M193.119 366.715L193.189 345.93C193.196 343.721 191.412 341.924 189.202 341.916L168.417 341.846C166.207 341.839 164.411 343.624 164.403 345.833L164.333 366.619C164.326 368.828 166.111 370.625 168.32 370.632L189.105 370.702C191.315 370.709 193.111 368.925 193.119 366.715Z" fill="#B6C0D3" fill-opacity="0.4"/>
<path d="M351.441 405.097L351.511 384.311C351.519 382.102 349.734 380.305 347.525 380.298L326.739 380.228C324.53 380.22 322.733 382.005 322.726 384.214L322.656 405C322.648 407.209 324.433 409.006 326.642 409.013L347.428 409.083C349.637 409.091 351.434 407.306 351.441 405.097Z" fill="#B6C0D3" fill-opacity="0.4"/>
<path d="M193.119 405.097L193.189 384.311C193.196 382.102 191.412 380.305 189.202 380.298L168.417 380.228C166.207 380.22 164.411 382.005 164.403 384.214L164.333 405C164.326 407.209 166.111 409.006 168.32 409.013L189.105 409.083C191.315 409.091 193.111 407.306 193.119 405.097Z" fill="#B6C0D3" fill-opacity="0.4"/>
<path d="M311.861 289.953L311.931 269.167C311.938 266.958 310.153 265.161 307.944 265.154L287.159 265.083C284.949 265.076 283.153 266.861 283.145 269.07L283.075 289.856C283.068 292.065 284.852 293.862 287.062 293.869L307.847 293.939C310.057 293.947 311.853 292.162 311.861 289.953Z" fill="#B6C0D3" fill-opacity="0.4"/>
<path d="M272.28 289.953L272.35 269.167C272.358 266.958 270.573 265.161 268.364 265.154L247.578 265.083C245.369 265.076 243.572 266.861 243.565 269.07L243.495 289.856C243.487 292.065 245.272 293.862 247.481 293.869L268.267 293.939C270.476 293.947 272.273 292.162 272.28 289.953Z" fill="#B6C0D3" fill-opacity="0.4"/>
<path d="M232.7 289.953L232.77 269.167C232.777 266.958 230.992 265.161 228.783 265.154L207.997 265.083C205.788 265.076 203.991 266.861 203.984 269.07L203.914 289.856C203.906 292.065 205.691 293.862 207.9 293.869L228.686 293.939C230.895 293.947 232.692 292.162 232.7 289.953Z" fill="#B6C0D3" fill-opacity="0.4"/>
<path d="M193.119 289.953L193.189 269.167C193.196 266.958 191.412 265.161 189.202 265.154L168.417 265.083C166.207 265.076 164.411 266.861 164.403 269.07L164.333 289.856C164.326 292.065 166.111 293.862 168.32 293.869L189.105 293.939C191.315 293.947 193.111 292.162 193.119 289.953Z" fill="#B6C0D3" fill-opacity="0.4"/>
<path d="M153.538 289.953L153.608 269.167C153.616 266.958 151.831 265.161 149.622 265.154L128.836 265.083C126.627 265.076 124.83 266.861 124.822 269.07L124.752 289.856C124.745 292.065 126.53 293.862 128.739 293.869L149.525 293.939C151.734 293.947 153.531 292.162 153.538 289.953Z" fill="#B6C0D3" fill-opacity="0.4"/>
<path d="M113.958 289.953L114.028 269.167C114.035 266.958 112.25 265.161 110.041 265.154L89.2552 265.083C87.0461 265.076 85.2492 266.861 85.2418 269.07L85.1718 289.856C85.1643 292.065 86.9491 293.862 89.1583 293.869L109.944 293.939C112.153 293.947 113.95 292.162 113.958 289.953Z" fill="#B6C0D3" fill-opacity="0.4"/>
<path d="M74.3768 289.953L74.4469 269.167C74.4543 266.958 72.6695 265.161 70.4603 265.154L49.6745 265.083C47.4654 265.076 45.6685 266.861 45.6611 269.07L45.5911 289.856C45.5836 292.065 47.3684 293.862 49.5776 293.869L70.3634 293.939C72.5725 293.947 74.3694 292.162 74.3768 289.953Z" fill="#B6C0D3" fill-opacity="0.4"/>
<path d="M34.7961 289.953L34.8662 269.167C34.8736 266.958 33.0888 265.161 30.8797 265.154L10.0939 265.083C7.88473 265.076 6.08785 266.861 6.08041 269.07L6.01038 289.856C6.00294 292.065 7.78776 293.862 9.99689 293.869L30.7827 293.939C32.9918 293.947 34.7887 292.162 34.7961 289.953Z" fill="#B6C0D3" fill-opacity="0.4"/>
<path d="M32.0118 934.427L10.0976 934.356C7.88851 934.349 6.09139 936.134 6.08365 938.343L6.01088 959.129C6.00315 961.338 7.78773 963.135 9.99686 963.142L31.911 963.213C34.1201 963.22 35.9173 961.435 35.925 959.226L35.9978 938.44C36.0055 936.231 34.2209 934.434 32.0118 934.427Z" fill="#B6C0D3" fill-opacity="0.4"/>
<path d="M32.0118 974.008L10.0976 973.937C7.88851 973.93 6.09139 975.715 6.08365 977.924L6.01088 998.71C6.00315 1000.92 7.78773 1002.72 9.99686 1002.72L31.911 1002.79C34.1201 1002.8 35.9173 1001.02 35.925 998.807L35.9978 978.021C36.0055 975.812 34.2209 974.015 32.0118 974.008Z" fill="#B6C0D3" fill-opacity="0.4"/>
<path d="M75.6367 915.236L53.7225 915.165C51.5134 915.158 49.7163 916.943 49.7085 919.152L49.6358 939.938C49.628 942.147 51.4126 943.944 53.6217 943.951L75.5359 944.022C77.745 944.029 79.5421 942.244 79.5499 940.035L79.6226 919.249C79.6304 917.04 77.8458 915.244 75.6367 915.236Z" fill="#B6C0D3" fill-opacity="0.4"/>
<path d="M75.6367 954.817L53.7225 954.746C51.5134 954.739 49.7163 956.524 49.7085 958.733L49.6358 979.519C49.628 981.728 51.4126 983.525 53.6217 983.532L75.5359 983.603C77.745 983.61 79.5421 981.825 79.5499 979.616L79.6226 958.83C79.6304 956.621 77.8458 954.825 75.6367 954.817Z" fill="#B6C0D3" fill-opacity="0.4"/>
<path d="M119.262 881.653L97.348 881.582C95.1389 881.575 93.3418 883.36 93.334 885.569L93.2612 906.355C93.2535 908.564 95.0381 910.361 97.2472 910.368L119.161 910.439C121.371 910.446 123.168 908.661 123.175 906.452L123.248 885.666C123.256 883.457 121.471 881.661 119.262 881.653Z" fill="#B6C0D3" fill-opacity="0.4"/>
<path d="M119.262 921.234L97.348 921.163C95.1389 921.156 93.3418 922.941 93.334 925.15L93.2612 945.936C93.2535 948.145 95.0381 949.941 97.2472 949.949L119.161 950.02C121.371 950.027 123.168 948.242 123.175 946.033L123.248 925.247C123.256 923.038 121.471 921.241 119.262 921.234Z" fill="#B6C0D3" fill-opacity="0.4"/>
<path d="M162.887 848.069L140.973 847.998C138.764 847.991 136.967 849.776 136.959 851.985L136.886 872.771C136.878 874.98 138.663 876.777 140.872 876.784L162.786 876.855C164.995 876.862 166.792 875.077 166.8 872.868L166.873 852.082C166.881 849.873 165.096 848.077 162.887 848.069Z" fill="#B6C0D3" fill-opacity="0.4"/>
<path d="M162.887 887.65L140.973 887.579C138.764 887.572 136.967 889.357 136.959 891.566L136.886 912.352C136.878 914.561 138.663 916.358 140.872 916.365L162.786 916.436C164.995 916.443 166.792 914.658 166.8 912.449L166.873 891.663C166.881 889.454 165.096 887.658 162.887 887.65Z" fill="#B6C0D3" fill-opacity="0.4"/>
<path d="M206.512 814.486L184.598 814.415C182.389 814.408 180.592 816.193 180.584 818.402L180.511 839.188C180.504 841.397 182.288 843.193 184.497 843.201L206.411 843.272C208.621 843.279 210.418 841.494 210.425 839.285L210.498 818.499C210.506 816.29 208.721 814.493 206.512 814.486Z" fill="#B6C0D3" fill-opacity="0.4"/>
<path d="M206.512 854.067L184.598 853.996C182.389 853.989 180.592 855.774 180.584 857.983L180.511 878.769C180.504 880.978 182.288 882.774 184.497 882.782L206.411 882.853C208.621 882.86 210.418 881.075 210.425 878.866L210.498 858.08C210.506 855.871 208.721 854.074 206.512 854.067Z" fill="#B6C0D3" fill-opacity="0.4"/>
<path d="M250.137 780.902L228.223 780.831C226.014 780.824 224.216 782.609 224.209 784.818L224.136 805.604C224.128 807.813 225.913 809.61 228.122 809.617L250.036 809.688C252.245 809.695 254.042 807.91 254.05 805.701L254.123 784.915C254.13 782.706 252.346 780.91 250.137 780.902Z" fill="#B6C0D3" fill-opacity="0.4"/>
<path d="M250.137 820.483L228.223 820.412C226.014 820.405 224.216 822.19 224.209 824.399L224.142 843.506C224.134 845.715 225.919 847.512 228.128 847.519L250.042 847.59C252.251 847.597 254.048 845.812 254.056 843.603L254.123 824.496C254.13 822.287 252.346 820.49 250.137 820.483Z" fill="#B6C0D3" fill-opacity="0.4"/>
<path d="M293.762 747.319L271.848 747.248C269.638 747.241 267.841 749.026 267.834 751.235L267.761 772.021C267.753 774.23 269.538 776.026 271.747 776.034L293.661 776.105C295.87 776.112 297.667 774.327 297.675 772.118L297.748 751.332C297.755 749.123 295.971 747.326 293.762 747.319Z" fill="#B6C0D3" fill-opacity="0.4"/>
<path d="M293.762 786.899L271.848 786.828C269.638 786.821 267.841 788.606 267.834 790.815L267.761 811.601C267.753 813.81 269.538 815.607 271.747 815.614L293.661 815.685C295.87 815.692 297.667 813.907 297.675 811.698L297.748 790.912C297.755 788.703 295.971 786.907 293.762 786.899Z" fill="#B6C0D3" fill-opacity="0.4"/>
<path d="M337.387 713.735L315.473 713.664C313.264 713.657 311.467 715.442 311.459 717.651L311.386 738.437C311.378 740.646 313.163 742.443 315.372 742.45L337.286 742.521C339.495 742.528 341.293 740.743 341.3 738.534L341.373 717.748C341.381 715.539 339.596 713.743 337.387 713.735Z" fill="#B6C0D3" fill-opacity="0.4"/>
<path d="M337.387 753.316L315.473 753.245C313.264 753.238 311.467 755.023 311.459 757.232L311.386 778.018C311.378 780.227 313.163 782.023 315.372 782.031L337.286 782.102C339.495 782.109 341.293 780.324 341.3 778.115L341.373 757.329C341.381 755.12 339.596 753.323 337.387 753.316Z" fill="#B6C0D3" fill-opacity="0.4"/>
<path d="M381.012 680.151L359.097 680.08C356.888 680.073 355.091 681.858 355.083 684.067L355.011 704.853C355.003 707.062 356.787 708.859 358.997 708.866L380.911 708.937C383.12 708.944 384.917 707.159 384.925 704.95L384.998 684.164C385.005 681.955 383.221 680.159 381.012 680.151Z" fill="#B6C0D3" fill-opacity="0.4"/>
<path d="M381.012 719.732L359.097 719.661C356.888 719.654 355.091 721.439 355.083 723.648L355.011 744.434C355.003 746.643 356.787 748.44 358.997 748.447L380.911 748.518C383.12 748.525 384.917 746.74 384.925 744.531L384.998 723.745C385.005 721.536 383.221 719.74 381.012 719.732Z" fill="#B6C0D3" fill-opacity="0.4"/>
<path d="M32.012 761.641L10.0979 761.712C7.88875 761.719 6.09163 759.934 6.0839 757.725L6.01112 736.939C6.00339 734.73 7.78798 732.933 9.9971 732.926L31.9113 732.855C34.1204 732.848 35.9175 734.633 35.9252 736.842L35.998 757.628C36.0057 759.837 34.2212 761.633 32.012 761.641Z" fill="#B6C0D3" fill-opacity="0.4"/>
<path d="M32.012 722.06L10.0979 722.131C7.88875 722.138 6.09163 720.353 6.0839 718.144L6.01112 697.358C6.00339 695.149 7.78798 693.352 9.9971 693.345L31.9113 693.274C34.1204 693.267 35.9175 695.052 35.9252 697.261L35.998 718.047C36.0057 720.256 34.2212 722.052 32.012 722.06Z" fill="#B6C0D3" fill-opacity="0.4"/>
<path d="M75.6367 780.831L53.7225 780.902C51.5134 780.909 49.7163 779.124 49.7085 776.915L49.6358 756.129C49.628 753.92 51.4126 752.123 53.6217 752.116L75.5359 752.045C77.745 752.038 79.5421 753.823 79.5499 756.032L79.6226 776.818C79.6304 779.027 77.8458 780.823 75.6367 780.831Z" fill="#B6C0D3" fill-opacity="0.4"/>
<path d="M75.6367 741.25L53.7225 741.321C51.5134 741.328 49.7163 739.543 49.7085 737.334L49.6358 716.548C49.628 714.339 51.4126 712.542 53.6217 712.535L75.5359 712.464C77.745 712.457 79.5421 714.242 79.5499 716.451L79.6226 737.237C79.6304 739.446 77.8458 741.243 75.6367 741.25Z" fill="#B6C0D3" fill-opacity="0.4"/>
<path d="M119.262 814.415L97.3479 814.486C95.1388 814.493 93.3416 812.708 93.3339 810.499L93.2611 789.713C93.2534 787.504 95.038 785.707 97.2471 785.7L119.161 785.629C121.37 785.622 123.168 787.407 123.175 789.616L123.248 810.402C123.256 812.611 121.471 814.407 119.262 814.415Z" fill="#B6C0D3" fill-opacity="0.4"/>
<path d="M119.262 774.834L97.3479 774.905C95.1388 774.912 93.3416 773.127 93.3339 770.918L93.2611 750.132C93.2534 747.923 95.038 746.126 97.2471 746.119L119.161 746.048C121.37 746.041 123.168 747.826 123.175 750.035L123.248 770.821C123.256 773.03 121.471 774.827 119.262 774.834Z" fill="#B6C0D3" fill-opacity="0.4"/>
<path d="M162.887 847.998L140.973 848.069C138.764 848.076 136.966 846.291 136.959 844.082L136.886 823.296C136.878 821.087 138.663 819.29 140.872 819.283L162.786 819.212C164.995 819.205 166.792 820.99 166.8 823.199L166.873 843.985C166.88 846.194 165.096 847.991 162.887 847.998Z" fill="#B6C0D3" fill-opacity="0.4"/>
<path d="M162.887 808.417L140.973 808.488C138.764 808.496 136.966 806.711 136.959 804.501L136.886 783.716C136.878 781.507 138.663 779.71 140.872 779.703L162.786 779.632C164.995 779.625 166.792 781.41 166.8 783.619L166.873 804.405C166.88 806.614 165.096 808.41 162.887 808.417Z" fill="#B6C0D3" fill-opacity="0.4"/>
<path d="M250.137 915.166L228.223 915.237C226.014 915.244 224.216 913.459 224.209 911.25L224.136 890.464C224.128 888.255 225.913 886.458 228.122 886.451L250.036 886.38C252.245 886.373 254.042 888.158 254.05 890.367L254.123 911.153C254.13 913.362 252.346 915.158 250.137 915.166Z" fill="#B6C0D3" fill-opacity="0.4"/>
<path d="M250.137 875.584L228.223 875.655C226.014 875.663 224.216 873.878 224.209 871.668L224.139 851.643C224.131 849.434 225.915 847.638 228.125 847.63L250.039 847.559C252.248 847.552 254.045 849.337 254.053 851.546L254.123 871.572C254.13 873.781 252.346 875.577 250.137 875.584Z" fill="#B6C0D3" fill-opacity="0.4"/>
<path d="M293.762 948.749L271.848 948.82C269.639 948.827 267.842 947.042 267.834 944.833L267.761 924.047C267.753 921.838 269.538 920.041 271.747 920.034L293.661 919.963C295.87 919.956 297.668 921.741 297.675 923.95L297.748 944.736C297.756 946.945 295.971 948.742 293.762 948.749Z" fill="#B6C0D3" fill-opacity="0.4"/>
<path d="M293.762 909.168L271.848 909.239C269.639 909.246 267.842 907.461 267.834 905.252L267.761 884.466C267.753 882.257 269.538 880.46 271.747 880.453L293.661 880.382C295.87 880.375 297.668 882.16 297.675 884.369L297.748 905.155C297.756 907.364 295.971 909.161 293.762 909.168Z" fill="#B6C0D3" fill-opacity="0.4"/>
<path d="M337.387 982.332L315.473 982.404C313.264 982.411 311.467 980.626 311.459 978.417L311.386 957.631C311.378 955.422 313.163 953.625 315.372 953.618L337.286 953.547C339.495 953.54 341.293 955.325 341.3 957.534L341.373 978.32C341.381 980.529 339.596 982.325 337.387 982.332Z" fill="#B6C0D3" fill-opacity="0.4"/>
<path d="M337.387 942.752L315.473 942.823C313.264 942.83 311.467 941.045 311.459 938.836L311.386 918.05C311.378 915.841 313.163 914.044 315.372 914.037L337.286 913.966C339.495 913.959 341.293 915.744 341.3 917.953L341.373 938.739C341.381 940.948 339.596 942.745 337.387 942.752Z" fill="#B6C0D3" fill-opacity="0.4"/>
<path d="M381.011 1015.92L359.097 1015.99C356.888 1015.99 355.091 1014.21 355.083 1012L355.01 991.214C355.003 989.005 356.787 987.208 358.996 987.201L380.911 987.13C383.12 987.123 384.917 988.908 384.925 991.117L384.997 1011.9C385.005 1014.11 383.22 1015.91 381.011 1015.92Z" fill="#B6C0D3" fill-opacity="0.4"/>
<path d="M381.011 976.335L359.097 976.406C356.888 976.414 355.091 974.629 355.083 972.419L355.01 951.634C355.003 949.425 356.787 947.628 358.996 947.621L380.911 947.55C383.12 947.543 384.917 949.328 384.925 951.537L384.997 972.322C385.005 974.532 383.22 976.328 381.011 976.335Z" fill="#B6C0D3" fill-opacity="0.4"/>
</svg>
