<svg width="114" height="37" viewBox="0 0 114 37" fill="none" xmlns="http://www.w3.org/2000/svg">
<g id="Group">
<g id="Logo Efex">
<path id="Vector" fill-rule="evenodd" clip-rule="evenodd" d="M112.567 36.57H98.2779L94.5361 31.6144L101.751 21.8796L112.567 36.57Z" fill="#00194F"/>
<path id="Vector_2" fill-rule="evenodd" clip-rule="evenodd" d="M109.887 7.56323L101.744 18.8109L95.3809 9.89231H103.493L105.058 7.56323H109.887Z" fill="#00194F"/>
<path id="Vector_3" fill-rule="evenodd" clip-rule="evenodd" d="M96.062 8.65598C96.062 8.65598 102.534 8.53826 102.737 8.65598C102.941 8.77371 106.005 4.37646 106.005 4.37646H99.2359L96.062 8.65598Z" fill="#00194F"/>
<path id="Vector_4" fill-rule="evenodd" clip-rule="evenodd" d="M102.263 3.32975C102.263 3.32975 107.849 3.04339 107.849 3.32975C107.849 3.61452 110.216 0 110.216 0H104.774L102.263 3.32975Z" fill="#00194F"/>
<path id="Vector_5" fill-rule="evenodd" clip-rule="evenodd" d="M107.803 4.44653H111.093L109.507 6.49084H106.336L107.803 4.44653Z" fill="#00194F"/>
<path id="Vector_6" fill-rule="evenodd" clip-rule="evenodd" d="M110.939 0.854248H113.78L112.633 2.83969H109.496L110.939 0.854248Z" fill="#00194F"/>
<g id="Group_2">
<path id="Vector_7" fill-rule="evenodd" clip-rule="evenodd" d="M73.2992 4.28906H87.9673L99.5124 20.4701L87.5886 36.5589H73.1099L85.223 20.4701L73.2992 4.28906Z" fill="#AF0000"/>
</g>
<g id="Group_3">
<path id="Vector_8" d="M10.3378 12.3533V16.3195H20.3653V23.9303H10.3378V28.4882H21.7319V36.5557H0.219727V4.28589H21.7319V12.3533H10.3378Z" fill="#00194F"/>
<path id="Vector_9" d="M48.351 4.28589V12.3072H35.6811V16.7745H44.797V24.3853H35.6811V36.5541H25.563V4.28589H48.351Z" fill="#00194F"/>
<path id="Vector_10" d="M61.8862 12.3533V16.3195H71.9136V23.9303H61.8862V28.4882H73.2802V36.5557H51.7681V4.28589H73.2802V12.3533H61.8862Z" fill="#00194F"/>
</g>
</g>
</g>
</svg>
