<svg width="34" height="34" viewBox="0 0 34 34" fill="none" xmlns="http://www.w3.org/2000/svg">
<g id="Group">
<path id="Path" d="M10.999 4.99512V8.99678" stroke="white" stroke-width="2" stroke-linecap="round" stroke-linejoin="round"/>
<path id="Path_2" d="M23.0029 4.99512V8.99678" stroke="white" stroke-width="2" stroke-linecap="round" stroke-linejoin="round"/>
<path id="Path_3" d="M14.3333 29.005H8.99776C6.7877 29.005 4.99609 27.2134 4.99609 25.0033V10.9975C4.99609 8.78746 6.7877 6.99585 8.99776 6.99585H25.0044C27.2145 6.99585 29.0061 8.78746 29.0061 10.9975V14.3322" stroke="white" stroke-width="2" stroke-linecap="round" stroke-linejoin="round"/>
<path id="Path_4" d="M22.8613 20.979V23.324L24.7048 24.4484" stroke="white" stroke-width="2" stroke-linecap="round" stroke-linejoin="round"/>
<path id="Path_5" d="M23.0025 29.005C21.4105 29.005 19.8837 28.3727 18.758 27.247C17.6323 26.1213 17 24.5945 17 23.0025C17.0493 19.706 19.7113 17.0464 23.0078 17C25.1523 17.001 27.1334 18.1459 28.2048 20.0036C29.2762 21.8612 29.2752 24.1494 28.2022 26.0061C27.1291 27.8628 25.147 29.006 23.0025 29.005" stroke="white" stroke-width="2"/>
</g>
</svg>
