<svg width="32" height="32" viewBox="0 0 32 32" fill="none" xmlns="http://www.w3.org/2000/svg">
<g id="Group">
<path id="Path" d="M29.3333 18.6612H24.6667C24.2985 18.6612 24 18.3627 24 17.9945V13.3279H28.2667" stroke="white" stroke-width="2" stroke-linecap="round" stroke-linejoin="round"/>
<path id="Path_2" d="M24.7423 24.5857C25.3144 25.1577 25.4855 26.0179 25.176 26.7653C24.8665 27.5127 24.1372 28 23.3283 28C22.5194 28.0001 21.7901 27.5128 21.4805 26.7655C21.1709 26.0182 21.3419 25.1579 21.9139 24.5859L21.914 24.5857C22.695 23.8048 23.9613 23.8048 24.7423 24.5857V24.5857" stroke="white" stroke-width="2" stroke-linecap="round" stroke-linejoin="round"/>
<path id="Path_3" d="M10.0763 24.5857C10.6483 25.1576 10.8195 26.0179 10.51 26.7652C10.2004 27.5126 9.4712 27.9999 8.66227 28C7.85335 28 7.12405 27.5128 6.81445 26.7654C6.50485 26.0181 6.67591 25.1578 7.24788 24.5858V24.5858L7.24828 24.5854C8.02915 23.8045 9.29518 23.8045 10.0761 24.5854L10.0763 24.5856V24.5856" stroke="white" stroke-width="2" stroke-linecap="round" stroke-linejoin="round"/>
<path id="Path_4" d="M21.4415 25.3334H10.5469" stroke="white" stroke-width="2" stroke-linecap="round" stroke-linejoin="round"/>
<path id="Path_5" d="M25.2139 25.3334H28C28.7364 25.3334 29.3333 24.7364 29.3333 24V16.5084C29.3333 16.1693 29.2686 15.8334 29.1427 15.5185L27.3364 11.004C26.9314 9.99169 25.9509 9.32789 24.8605 9.32788H20" stroke="white" stroke-width="2" stroke-linecap="round" stroke-linejoin="round"/>
<path id="Path_6" d="M6.7748 25.3333H3.99935C3.26297 25.3333 2.66602 24.7364 2.66602 24V16" stroke="white" stroke-width="2" stroke-linecap="round" stroke-linejoin="round"/>
<path id="Path_7" d="M2.66602 19.9945H18.666C19.4024 19.9945 19.9993 19.3975 19.9993 18.6611V7.99447C19.9993 7.25809 19.4024 6.66113 18.666 6.66113H15.9993" stroke="white" stroke-width="2" stroke-linecap="round" stroke-linejoin="round"/>
<path id="Path_8" d="M2.66602 7.33325C2.66602 9.51795 5.05002 11.8517 6.41002 13.0057C6.94711 13.4424 7.71692 13.4424 8.25402 13.0057C9.61535 11.8517 11.9993 9.51795 11.9993 7.33325" stroke="white" stroke-width="2" stroke-linecap="round" stroke-linejoin="round"/>
<path id="Path_9" d="M7.33402 6.98676C7.5253 6.98749 7.67984 7.14302 7.67935 7.33431C7.67886 7.52559 7.52353 7.68033 7.33224 7.68009C7.14096 7.67984 6.98602 7.52471 6.98602 7.33342C6.98553 7.2411 7.02207 7.15243 7.08748 7.08728C7.15289 7.02212 7.2417 6.98591 7.33402 6.98676" stroke="white" stroke-width="2" stroke-linecap="round" stroke-linejoin="round"/>
<path id="Path_10" d="M2.66602 7.33341V7.33341C2.66602 4.75609 4.75535 2.66675 7.33268 2.66675V2.66675C9.91001 2.66675 11.9993 4.75609 11.9993 7.33341V7.33341" stroke="white" stroke-width="2" stroke-linecap="round" stroke-linejoin="round"/>
</g>
</svg>
