<svg width="1110" height="641" viewBox="0 0 1110 641" fill="none" xmlns="http://www.w3.org/2000/svg">
<path d="M965.295 172.504L970.366 177.659L973.434 175.159L968.898 172.817L972.634 171.723L979.039 175.159L979.172 171.567L983.575 168.755L979.973 164.226L967.43 158.915H965.295L969.698 168.287H966.496L965.295 172.504Z" fill="#C3CDDF" stroke="white" stroke-width="0.6" stroke-miterlimit="10"/>
<path d="M982.508 187.343L974.369 177.19L970.9 179.221V184.687H974.369V192.966L969.165 199.057L967.697 197.808V205.149L964.762 204.368L957.69 205.149L953.02 211.397V213.74L950.351 216.864L958.09 226.079L960.092 223.737V217.645L955.555 214.209L963.161 210.147H967.831V213.115L970.633 216.395L975.837 210.304H980.373V206.867H983.576V202.962L982.508 201.713V187.343Z" fill="#C3CDDF" stroke="white" stroke-width="0.6" stroke-miterlimit="10"/>
<path d="M961.293 212.646V213.583H963.028V211.865H965.163L967.031 214.051L965.163 216.082H963.428V218.894H961.693L960.092 215.145V212.802L961.293 212.646Z" fill="#C3CDDF" stroke="white" stroke-width="0.6" stroke-miterlimit="10"/>
<path d="M791.704 329.481V342.758L793.838 347.756L799.176 344.32V339.321L793.705 329.481H791.704Z" fill="#C3CDDF" stroke="white" stroke-width="0.6" stroke-miterlimit="10"/>
<path d="M942.212 311.207L948.483 316.83L950.618 312.457L945.148 307.146L941.278 308.239L938.743 303.866V299.18H940.878L942.079 293.869L939.944 288.09L933.673 286.84V298.086H931.805L936.208 309.645L942.212 311.207Z" fill="#C3CDDF" stroke="white" stroke-width="0.6" stroke-miterlimit="10"/>
<path d="M938.343 316.83H939.811V312.144L935.674 310.895L938.343 316.83Z" fill="#C3CDDF" stroke="white" stroke-width="0.6" stroke-miterlimit="10"/>
<path d="M943.947 329.326L947.683 333.387L952.619 328.701L949.15 322.765L947.549 324.64L942.612 319.017V325.733H946.482V329.326H943.947Z" fill="#C3CDDF" stroke="white" stroke-width="0.6" stroke-miterlimit="10"/>
<path d="M952.353 319.329L950.618 321.516L954.488 327.139L957.023 323.39L955.422 321.359V318.079L953.821 315.893L950.618 316.83L952.353 319.329Z" fill="#C3CDDF" stroke="white" stroke-width="0.6" stroke-miterlimit="10"/>
<path d="M960.626 339.791L957.023 327.92L954.755 328.545L955.689 332.45L952.62 336.042H947.016L942.079 341.665H943.414L945.548 339.166H951.153V344.477L954.755 348.694H956.089V340.884H959.425V345.102L960.626 339.791Z" fill="#C3CDDF" stroke="white" stroke-width="0.6" stroke-miterlimit="10"/>
<path d="M926.868 336.979L936.475 325.733L934.34 323.39L926.201 335.417L926.868 336.979Z" fill="#C3CDDF" stroke="white" stroke-width="0.6" stroke-miterlimit="10"/>
<path d="M1043.62 596.577L1049.89 598.608L1083.65 577.209V572.679H1080.31L1080.05 569.868L1043.62 596.577Z" fill="#C3CDDF" stroke="white" stroke-width="0.6" stroke-miterlimit="10"/>
<path d="M1086.45 572.991L1088.45 575.022L1109 557.372L1107.27 555.497L1102.46 557.372L1099.13 555.497L1100.99 551.905L1099.26 544.251L1095.66 542.221V553.154L1086.85 563.62L1089.65 567.681L1086.45 572.991Z" fill="#C3CDDF" stroke="white" stroke-width="0.6" stroke-miterlimit="10"/>
<path d="M974.503 433.195L976.237 431.477V429.291H971.567L972.101 430.54L974.503 433.195Z" fill="#C3CDDF" stroke="white" stroke-width="0.6" stroke-miterlimit="10"/>
<path d="M1036.15 489.739V482.398H1033.61V471.776L1025.34 462.092V446.473H1019.47V433.352H1017.2V426.323H1014.27L1010.66 441.318V447.254L1006.79 460.999H1003.32L990.114 445.535L996.519 434.914L994.651 431.79L991.582 433.821L980.107 430.541L979.974 435.226H973.436L967.165 442.568V447.41H962.761L958.358 442.411L940.345 457.406V463.498L907.255 481.304L903.385 492.551L906.054 499.579L902.184 503.328V532.693L899.916 535.348V540.503L902.985 543.939H911.257L917.395 536.91H929.404L932.606 533.162L959.292 527.539L967.965 531.287V543.939L969.433 542.221L978.773 531.443L979.974 533.63L972.635 543.939L974.103 545.345L978.239 541.44L975.971 546.907H979.974V558.622L988.38 561.902L993.584 558.622L996.919 561.902L1011.86 555.498L1016.27 547.376L1030.81 532.068L1040.95 511.294V495.206L1036.15 489.739Z" fill="#C3CDDF" stroke="white" stroke-width="0.6" stroke-miterlimit="10"/>
<path d="M992.516 573.461L987.846 570.025L985.445 572.993V578.616L984.244 579.709V584.395H988.38L990.782 581.427H992.25L999.722 572.68L997.987 571.118L992.516 573.461Z" fill="#C3CDDF" stroke="white" stroke-width="0.6" stroke-miterlimit="10"/>
<path d="M1050.96 398.988H1049.76L1048.16 401.644H1038.28L1039.08 405.08H1042.95L1044.42 406.798L1050.56 402.893H1053.36V396.333H1050.96V398.988Z" fill="#C3CDDF" stroke="white" stroke-width="0.6" stroke-miterlimit="10"/>
<path d="M1048.56 388.992L1055.36 395.084V398.364H1056.96V394.303L1048.56 387.43V388.992Z" fill="#C3CDDF" stroke="white" stroke-width="0.6" stroke-miterlimit="10"/>
<path d="M1061.23 400.863L1064.57 409.453H1066.57V405.861L1062.57 400.238L1061.23 400.863Z" fill="#C3CDDF" stroke="white" stroke-width="0.6" stroke-miterlimit="10"/>
<path d="M1068.04 406.643L1067.9 408.673L1071.24 411.797H1073.51V410.86H1071.64L1068.04 406.643Z" fill="#C3CDDF" stroke="white" stroke-width="0.6" stroke-miterlimit="10"/>
<path d="M1080.05 417.108V414.453L1076.84 411.797H1074.84V413.359H1077.11L1078.71 417.108H1080.05Z" fill="#C3CDDF" stroke="white" stroke-width="0.6" stroke-miterlimit="10"/>
<path d="M1067.9 415.233L1071.51 418.669H1073.51V416.639L1067.9 412.578V415.233Z" fill="#C3CDDF" stroke="white" stroke-width="0.6" stroke-miterlimit="10"/>
<path d="M1078.44 422.575H1082.71V421.013L1078.44 419.451V422.575Z" fill="#C3CDDF" stroke="white" stroke-width="0.6" stroke-miterlimit="10"/>
<path d="M1041.89 421.481V419.45H1038.95L1033.48 408.361H1037.62L1036.41 404.456L1030.28 401.644L1029.48 397.271L1026.54 395.084H1025.47L1014 388.836V420.544L1018.27 421.169L1022.27 413.203L1030.41 415.233L1035.88 425.542H1042.02L1045.22 428.041L1046.29 425.23L1043.49 421.481H1041.89Z" fill="#C3CDDF" stroke="white" stroke-width="0.6" stroke-miterlimit="10"/>
<path d="M656.94 177.346L659.208 179.064H661.343V178.439L660.409 177.346L660.009 174.847L655.072 172.191H651.336L640.795 167.505L639.061 167.974C641.462 170.785 643.731 173.441 643.864 173.597C643.997 173.753 643.864 175.628 643.864 175.628L642.396 177.346H647.6L649.335 179.376H654.939L656.94 177.346Z" fill="#C3CDDF" stroke="white" stroke-width="0.6" stroke-miterlimit="10"/>
<path d="M656.54 186.406L657.207 185.469L660.409 187.812L660.81 189.842L662.811 189.686L662.411 186.25L659.209 185L660.142 183.75L656.273 179.377H655.206H649.602L650.269 180.158L653.871 188.905L656.14 185.781L656.54 186.406Z" fill="#C3CDDF" stroke="white" stroke-width="0.6" stroke-miterlimit="10"/>
<path d="M657.206 185.468L656.539 186.405L658.808 189.998L660.809 189.842L660.409 187.811L657.206 185.468Z" fill="#C3CDDF" stroke="white" stroke-width="0.6" stroke-miterlimit="10"/>
<path d="M667.348 175.784L664.946 179.064L661.877 175.628L660.143 174.69L660.543 177.346L661.477 178.439V179.064H659.209L656.94 177.346L655.206 179.376H656.273L660.143 183.75L659.209 184.999L662.411 186.249L662.678 189.373L666.013 185.937L668.015 186.561L667.748 190.466L670.016 191.716V189.217L671.484 187.499V184.062L673.619 182.656L667.348 175.784Z" fill="#C3CDDF" stroke="white" stroke-width="0.6" stroke-miterlimit="10"/>
<path d="M689.63 286.215H679.623L672.551 294.649L671.084 292.931L658.541 291.838V295.587L656.807 297.617L656.94 297.773L661.21 314.955L691.098 300.897V297.773L694.301 295.587L690.298 285.902L689.63 286.215Z" fill="#C3CDDF" stroke="white" stroke-width="0.6" stroke-miterlimit="10"/>
<path d="M701.239 256.85H703.908L702.173 251.852L694.835 261.536H688.163L690.431 266.378L699.505 267.315L701.239 261.068V256.85Z" fill="#C3CDDF" stroke="white" stroke-width="0.6" stroke-miterlimit="10"/>
<path d="M716.85 268.096L712.18 262.473L704.841 259.505L703.907 256.85H701.239V261.067L699.504 267.315L701.906 270.283L700.038 280.123L690.298 285.903L694.301 295.587L710.179 285.278L716.85 268.096Z" fill="#C3CDDF" stroke="white" stroke-width="0.6" stroke-miterlimit="10"/>
<path d="M686.028 258.411V250.133H684.027L682.559 254.663L684.56 259.192L686.028 258.411Z" fill="#C3CDDF" stroke="white" stroke-width="0.6" stroke-miterlimit="10"/>
<path d="M667.348 236.857L660.81 236.232L645.465 222.018H640.662L634.391 225.454L636.792 228.735L635.992 232.171H633.323L631.322 236.857L626.385 235.139L625.317 242.011H628.653L656.807 297.617L658.541 295.587V291.838L671.084 292.931L672.552 294.649L679.623 286.215H689.631L700.038 280.123L701.906 270.283L699.504 267.315L690.431 266.378L688.163 261.536H687.762L686.028 259.349V258.412L684.56 259.193L682.559 254.663L682.292 255.288L674.286 239.668V232.952L669.082 232.015L667.348 236.857Z" fill="#C3CDDF" stroke="white" stroke-width="0.6" stroke-miterlimit="10"/>
<path d="M630.254 215.145V212.646H631.055V211.397L628.119 208.897V210.459L625.984 217.801H627.986L630.254 215.145Z" fill="#C3CDDF" stroke="white" stroke-width="0.6" stroke-miterlimit="10"/>
<path d="M628.119 217.645L627.986 217.801H625.985L623.316 227.016H623.183L626.385 234.67V235.138L626.785 235.295L628.119 227.173V217.645Z" fill="#C3CDDF" stroke="white" stroke-width="0.6" stroke-miterlimit="10"/>
<path d="M631.455 221.393H633.056L646.132 211.084V204.68V203.274V201.087H647.733L650.402 198.12H649.335H643.464L641.062 200.775H630.254L628.119 203.274V208.897L631.055 211.396V212.646H630.254V215.145L628.119 217.644V219.05H629.32L631.455 221.393Z" fill="#C3CDDF" stroke="white" stroke-width="0.6" stroke-miterlimit="10"/>
<path d="M671.885 227.485H670.817V222.642L668.949 220.456H667.615L665.747 218.425H663.746V216.707L660.81 213.427V210.303L662.411 208.429H663.612V207.804L662.812 206.867V203.743H660.41L657.341 198.12H655.74H654.539H650.403L647.734 201.087H646.133V203.274V204.68V211.084L638.928 216.863L640.796 222.018H645.466L660.81 236.232L667.348 236.856L669.083 232.014L674.287 232.951V232.795L671.885 230.14V227.485Z" fill="#C3CDDF" stroke="white" stroke-width="0.6" stroke-miterlimit="10"/>
<path d="M723.521 248.103H726.857V244.667H724.055V239.2H722.187L716.049 232.015L718.985 228.735V225.142H716.316L714.315 216.083L713.381 214.99V200.776H711.112L702.573 195.309H698.97V193.434H691.365V197.183H688.029V198.745L682.025 200.776L675.22 196.715H672.018L670.016 192.341V192.029V191.716L667.748 190.467L668.015 186.562L666.013 185.937L662.677 189.373L662.811 189.686L660.809 189.842L658.808 189.998L656.54 186.406L656.139 185.781L653.871 188.905L657.607 198.12H657.34L660.409 203.743H662.811V206.867L663.611 207.804V208.429H662.411L660.809 210.304V213.428L663.745 216.708V218.426H665.746L667.614 220.456H668.949L670.817 222.643V227.485H671.884V230.141L674.286 232.796V231.546H679.223L684.827 242.636L688.029 242.793L694.033 248.884H701.105V246.541H705.642V250.602L721.386 254.039V250.759L723.521 248.103Z" fill="#C3CDDF" stroke="white" stroke-width="0.6" stroke-miterlimit="10"/>
<path d="M782.764 144.544V140.795L781.163 140.327H775.959L769.421 132.673L763.55 133.923L760.882 131.111L758.347 133.454L742.602 118.459V115.335L737.532 121.271H734.329V117.678H725.923L723.255 112.211L716.717 112.055L696.435 118.147L695.101 119.865L696.569 123.145L694.968 128.456L699.904 130.486V134.391H692.699L690.564 131.892H685.094L682.959 134.391L672.551 129.081H667.214L660.009 133.61L662.277 136.266L660.943 137.828L657.474 133.766L655.339 136.266V145.013H657.741V148.605H661.076L666.414 154.853L667.081 154.072L672.018 151.104H678.422L680.557 153.603V158.446H673.886L670.817 162.038V163.912H672.952L677.622 169.379H680.691V172.972L681.625 176.408L682.292 173.597H684.693L684.827 173.753L686.561 172.972L689.097 175.159L690.698 178.126H692.432L689.23 160.476L697.903 157.821L699.904 159.07L698.837 156.103L699.904 153.447L702.173 154.541L705.508 160.945L704.841 162.35L707.11 163.756L710.712 167.974H720.719L723.922 171.722V174.221H727.257V178.595H732.595V181.719H735.664L741.401 172.659V170.785H748.74V168.911H751.275L752.876 170.785H766.219L771.423 172.659L772.357 168.286L767.42 160.32L771.69 158.446L775.292 159.383V158.289L773.824 156.415V150.792H782.097V148.918L780.496 147.043V144.544H782.764ZM761.415 152.666H750.074L747.138 156.103L747.405 160.788L744.203 158.758V153.76L746.738 150.792H761.282V152.666H761.415Z" fill="#C3CDDF" stroke="white" stroke-width="0.6" stroke-miterlimit="10"/>
<path d="M720.319 206.555V204.212L725.123 202.025V196.871H730.46V192.653H726.857L719.518 188.28L711.112 178.44H704.841V175.784L701.239 171.567H698.437V174.222H696.302V178.44L692.032 177.971L692.165 178.44H690.431L688.83 175.472L686.161 173.285L684.56 174.066L685.494 176.565L688.029 178.908L687.495 181.095H682.158V184.844H684.56L688.029 188.905V197.183H691.365V193.434H698.97V195.309H702.573L711.112 200.776H713.381V204.681L717.917 206.555H720.319Z" fill="#C3CDDF" stroke="white" stroke-width="0.6" stroke-miterlimit="10"/>
<path d="M736.464 193.591L732.194 187.968V185.781H735.663L740.066 179.846L741.934 181.095L740.867 182.189L742.468 183.751H746.338L749.006 180.783L743.802 177.034V178.908L739.533 177.034L741.668 174.379L740.6 173.598L735.263 182.189H732.194V178.908H726.857V174.535H723.521V172.036L720.452 168.287H710.312L706.842 164.226L704.574 162.664L702.84 166.1L699.37 165.007L700.171 161.414L699.504 159.54L697.636 158.291L688.963 160.79L692.032 177.971L696.302 178.44V174.223H698.436V171.567H701.238L704.841 175.785V178.44H711.112L719.518 188.28L726.857 192.654H730.459V196.09L734.596 197.652L736.464 193.591Z" fill="#C3CDDF" stroke="white" stroke-width="0.6" stroke-miterlimit="10"/>
<path d="M489.353 117.523H488.019L487.085 118.773L485.217 117.211L488.686 113.462H484.416V116.273L482.948 117.992H478.545V121.116L480.146 123.146L474.809 129.394L476.81 131.893H482.281L486.017 127.52H489.62L490.954 122.677V119.71L491.755 118.773H489.353V117.523Z" fill="#C3CDDF" stroke="white" stroke-width="0.6" stroke-miterlimit="10"/>
<path d="M491.754 118.772L494.289 115.805L492.155 113.462H488.685L485.216 117.21L487.084 118.772L488.018 117.523H489.353V118.772H491.754Z" fill="#C3CDDF" stroke="white" stroke-width="0.6" stroke-miterlimit="10"/>
<path d="M514.971 125.801L514.037 122.677L512.836 124.239H509.767L511.102 121.896L508.3 115.648H507.232L504.831 112.837L502.162 109.713V107.839L505.231 104.402V103.153H498.826L501.495 100.029V98.623H498.026L495.224 101.903H492.555V106.12L491.488 107.214V110.494H490.821L492.021 111.9L492.689 110.963V112.681H494.023L495.491 110.963L496.291 111.9L494.823 113.774L495.757 114.867H499.493L500.027 119.085V122.677H495.09L495.491 124.864V127.988H493.356V129.55H495.357L497.625 130.331L500.828 129.55L499.093 131.581H495.757L490.821 137.516H492.288L496.425 135.798L498.026 133.923H500.161L501.361 135.173L510.968 133.767L513.103 131.112H511.369L514.971 125.801Z" fill="#C3CDDF" stroke="white" stroke-width="0.6" stroke-miterlimit="10"/>
<path d="M489.753 102.684L492.288 100.185L488.952 99.5601V101.591L487.752 102.059L488.952 105.652L489.753 102.684Z" fill="#C3CDDF" stroke="white" stroke-width="0.6" stroke-miterlimit="10"/>
<path d="M503.896 95.1865H501.628V97.2171H502.829L503.896 95.1865Z" fill="#C3CDDF" stroke="white" stroke-width="0.6" stroke-miterlimit="10"/>
<path d="M541.39 18.1816L555.8 25.8353L562.739 18.1816L569.544 23.4923L573.546 19.8998L565.541 15.9949H578.483V12.4024L563.673 10.9966L541.39 13.1833V18.1816Z" fill="#C3CDDF" stroke="white" stroke-width="0.6" stroke-miterlimit="10"/>
<path d="M569.41 53.7939H567.275L555.4 63.6343V65.8211H553.132V68.6326L550.597 71.7565L551.664 72.8499V74.7243H547.394V90.6563L545.66 96.1232L543.925 97.2166L548.462 106.745L547.795 109.4L543.925 110.962V114.554L547.528 114.242V112.836H548.729H553.399V109.556H558.469L561.138 99.8719L565.674 94.5612V93.6241L561.004 88.1572V81.7531L569.811 75.3491L572.079 72.8499L570.611 71.288L573.68 67.6954H576.215V58.1675L569.41 53.7939Z" fill="#C3CDDF" stroke="white" stroke-width="0.6" stroke-miterlimit="10"/>
<path d="M530.448 150.324V148.449L532.316 148.137L534.184 142.67L524.311 137.828L523.11 138.765L516.438 131.736L513.77 133.923V136.578L508.833 138.453V140.796L505.097 140.64V138.453L502.295 139.078L503.362 140.952V143.451L499.626 143.763L498.692 142.358L493.355 144.076L494.289 147.512L500.293 149.543L500.427 150.949L504.029 155.322L502.161 167.349L508.966 171.879L510.167 170.317L517.239 172.191V170.161L520.708 167.662L526.446 169.848H529.114L533.25 166.256L530.182 164.381V155.01H527.646V153.76L530.448 150.324Z" fill="#C3CDDF" stroke="white" stroke-width="0.6" stroke-miterlimit="10"/>
<path d="M537.787 170.316V171.722H535.652V175.315L536.719 177.814H537.787V175.315H538.854V170.316H537.787Z" fill="#C3CDDF" stroke="white" stroke-width="0.6" stroke-miterlimit="10"/>
<path d="M482.815 193.59L481.881 192.341V190.779L483.348 189.841L481.881 185.937H484.816V180.157L486.417 178.127V175.94H480.546V174.69H478.011V181.094L474.542 190.154L476.143 192.028V199.057L480.813 197.339H481.213V195.465L482.815 193.59Z" fill="#C3CDDF" stroke="white" stroke-width="0.6" stroke-miterlimit="10"/>
<path d="M510.167 170.317L508.966 171.879L502.162 167.349L502.028 168.443L498.959 167.662H485.216L482.281 166.568L480.279 168.911H477.877L476.677 170.473L478.011 172.035V174.691H480.546V175.94H486.417V178.127L484.816 180.157V185.937H481.88L483.348 189.842L481.88 190.779V192.341L482.814 193.59L481.213 195.465V197.339H483.081L484.816 199.37V201.713L487.351 203.587L491.487 199.37H498.559L505.631 191.091V185.937L509.5 181.251V179.689L517.239 175.628V172.191L510.167 170.317Z" fill="#C3CDDF" stroke="white" stroke-width="0.6" stroke-miterlimit="10"/>
<path d="M581.686 49.5769H586.356L590.092 51.4513L590.759 52.5447L594.895 50.5141V48.015L580.885 46.1406L564.473 49.8893L556.468 54.7314V52.8571L552.331 56.1372H547.795V57.543H552.598V58.7925L546.994 65.3528V68.7891L539.255 78.0047H537.12V76.5989L526.446 82.3782V96.5921L533.117 101.59L541.39 96.4359H543.658L543.925 97.2169L545.66 96.1235L547.394 90.6566V74.7246H551.664V72.8502L550.597 71.7568L553.132 68.6329V65.8214H555.4V63.6346L567.275 53.7943H569.41L571.412 55.0438H581.686V49.5769Z" fill="#C3CDDF" stroke="white" stroke-width="0.6" stroke-miterlimit="10"/>
<path d="M596.764 76.9111V74.2557L595.029 72.2252V67.3831L591.56 62.8534L593.695 58.4799L589.692 57.0741V53.013L590.759 52.5444L590.092 51.451L586.356 49.5767H581.686V55.0435H571.412L576.215 58.1675V67.6955H580.485V70.6632L573.28 79.254V86.9076L578.217 92.6869L590.893 89.7192L592.494 88.4696L593.028 89.0944L599.966 82.5341V80.5036L596.764 76.9111Z" fill="#C3CDDF" stroke="white" stroke-width="0.6" stroke-miterlimit="10"/>
<path d="M536.853 178.909L535.653 180.314H533.651V181.72L534.985 183.282V189.218H536.853V188.28H538.855V182.97L539.655 182.033L538.855 178.909H536.853Z" fill="#C3CDDF" stroke="white" stroke-width="0.6" stroke-miterlimit="10"/>
<path d="M567.809 185.312L568.743 183.125L560.204 177.815L561.405 176.253L560.737 175.316L557.001 175.472L553.532 172.192L552.065 167.662L547.661 163.601L548.329 161.102L547.261 158.603L551.397 157.197V155.01L546.861 151.574L541.791 152.355L540.59 154.854L538.054 154.541L536.72 156.103L535.119 154.541L533.651 156.416H530.182V164.382L533.251 166.256L536.186 163.601L540.456 165.788L541.39 170.942L550.33 179.221L551.931 179.064L557.935 184.687L559.136 184.375L560.337 189.217L559.003 192.029L552.198 192.81L551.397 193.903L549.529 193.278L548.195 195.153L557.268 200.776L558.336 198.589L557.135 196.558L558.736 193.591L560.604 194.372L564.34 189.842V187.187L561.671 185.625L563.406 182.501L567.809 185.312Z" fill="#C3CDDF" stroke="white" stroke-width="0.6" stroke-miterlimit="10"/>
<path d="M540.59 148.606H532.984L532.317 147.981V148.138L530.449 148.45V150.324L527.647 153.761V155.01H530.182V156.416H533.651L535.119 154.542L536.72 156.104L538.055 154.542L540.59 154.854L541.657 152.667L538.588 150.793L540.59 148.606Z" fill="#C3CDDF" stroke="white" stroke-width="0.6" stroke-miterlimit="10"/>
<path d="M527.647 132.517L524.578 130.799L518.307 130.331L516.439 131.736L523.11 138.765L524.311 137.828L526.713 138.921L528.981 136.266L527.647 132.517Z" fill="#C3CDDF" stroke="white" stroke-width="0.6" stroke-miterlimit="10"/>
<path d="M528.714 129.862H527.38V128.925H529.782L531.116 127.363V126.269H529.915V125.332H531.516V122.989L530.849 121.74H527.113L523.511 124.083V126.582L518.307 130.331L524.578 130.799L527.647 132.517V132.674L528.714 131.268V129.862Z" fill="#C3CDDF" stroke="white" stroke-width="0.6" stroke-miterlimit="10"/>
<path d="M539.389 112.837L542.858 108.776L542.058 107.839L540.59 106.121L541.924 104.559V102.841H540.19L538.188 105.184H536.32L534.319 107.527V112.994L536.587 115.649L539.389 114.556V112.837Z" fill="#C3CDDF" stroke="white" stroke-width="0.6" stroke-miterlimit="10"/>
<path d="M554.333 128.925V125.332L553.132 123.926L553.265 119.241L550.463 115.96H547.528L545.393 118.303H542.191L540.723 116.585L539.389 115.023V114.555L536.587 115.648L536.987 116.117V120.334H535.786V121.74H533.918V120.334H530.983V121.74H530.849L531.516 122.989V125.332H529.915V126.269H531.116V127.363L529.782 128.925H527.38V129.862H528.714V131.268L527.647 132.673L528.981 136.266L526.713 138.921L534.185 142.67L532.317 147.981L532.984 148.606H538.054H540.59L540.189 149.074L548.729 147.981L549.396 145.325L552.598 143.295L546.861 139.859V135.641L553.532 132.673H555.667V130.331L554.333 128.925Z" fill="#C3CDDF" stroke="white" stroke-width="0.6" stroke-miterlimit="10"/>
<path d="M567.409 136.578V139.702L567.142 140.015H577.15L578.751 141.889H579.551V139.234L582.353 135.954H584.088V133.767L582.353 131.736V127.831H580.485V125.176H582.754V122.677L581.286 120.959V116.898H578.617H570.611L570.078 117.522H566.075V115.96H559.804L553.399 119.397L553.266 119.241L553.132 123.926L554.333 125.332V128.925L555.667 130.331V132.205L562.072 136.578H567.409Z" fill="#C3CDDF" stroke="white" stroke-width="0.6" stroke-miterlimit="10"/>
<path d="M586.622 100.966L588.624 103.308H591.426V102.84L592.76 101.747L590.759 97.5292L592.36 95.9672L592.227 94.4053L591.96 94.5615H581.686L577.416 97.5292L575.147 99.0912L576.081 100.653L578.617 100.028L579.417 98.4664L580.752 100.028H582.486V102.059L584.621 100.966H586.622Z" fill="#C3CDDF" stroke="white" stroke-width="0.6" stroke-miterlimit="10"/>
<path d="M555.667 142.357H558.069L562.205 143.919L563.406 144.388L567.142 140.014L567.409 139.702V136.578H562.071L555.667 132.205V132.673H553.532L546.86 135.641V139.858L552.598 143.295L551.664 143.919H555.667V142.357Z" fill="#C3CDDF" stroke="white" stroke-width="0.6" stroke-miterlimit="10"/>
<path d="M579.018 114.868H576.216L575.682 113.774H574.481L572.88 114.243L570.612 116.898H578.617L579.018 114.868Z" fill="#C3CDDF" stroke="white" stroke-width="0.6" stroke-miterlimit="10"/>
<path d="M557.402 156.728H558.469V155.322L560.07 153.448L560.204 151.886L558.869 153.448H552.064L550.864 154.697L551.397 155.01V157.196L552.198 156.728L552.465 158.29H557.402V156.728Z" fill="#C3CDDF" stroke="white" stroke-width="0.6" stroke-miterlimit="10"/>
<path d="M558.869 153.448L560.204 151.886L560.604 151.417L563.006 146.575L562.205 143.92L558.069 142.358H555.667V143.92H551.664L549.396 145.326L548.729 147.981L540.189 149.074L538.588 150.793L541.657 152.667L541.79 152.354L546.861 151.573L550.864 154.697L552.064 153.448H558.869Z" fill="#C3CDDF" stroke="white" stroke-width="0.6" stroke-miterlimit="10"/>
<path d="M558.603 162.039L561.805 160.008L569.41 160.477V156.416H567.676V157.509H565.007L560.07 153.448L558.469 155.323V156.728H557.402V158.29H552.465L551.264 160.008L554.466 162.976L555.267 160.633L556.468 165.319L568.076 172.817L562.472 166.569L558.603 162.039Z" fill="#C3CDDF" stroke="white" stroke-width="0.6" stroke-miterlimit="10"/>
<path d="M576.215 108.151H584.755L585.822 109.557H587.29L589.158 111.743H590.092H592.494L594.629 109.088L593.428 106.276V104.402H591.426V103.309H588.624L586.623 100.966H584.621L582.486 102.059V106.745H579.951L577.416 103.777H574.748L572.613 106.276V110.494L573.146 111.275L573.413 109.244L576.215 108.151Z" fill="#C3CDDF" stroke="white" stroke-width="0.6" stroke-miterlimit="10"/>
<path d="M586.623 118.46L587.29 118.929L588.224 117.992L587.557 117.055L588.224 114.555L590.626 113.774L590.092 111.744H589.158L587.29 109.557H585.822L584.755 108.151H576.215L573.413 109.245L573.147 111.275V111.431L573.947 112.837L572.88 114.243L574.481 113.774H575.682L576.215 114.868H579.018L578.617 116.898H581.286V119.554H583.954L586.623 118.46Z" fill="#C3CDDF" stroke="white" stroke-width="0.6" stroke-miterlimit="10"/>
<path d="M585.155 128.769H588.891L589.425 129.394H592.627L593.161 130.019H597.698L598.365 130.8H603.035V131.893H603.835V129.394L605.17 127.988V122.834H609.306V120.178L603.035 115.336V111.588L594.896 109.713L594.629 109.088L592.494 111.744H590.092L590.626 113.774L588.224 114.555L587.557 117.054L588.224 117.992L587.29 118.929L586.623 118.46L583.954 119.554H581.286V120.959L582.753 122.677V125.177H580.485V127.832H582.353V130.487H583.687L585.155 128.769Z" fill="#C3CDDF" stroke="white" stroke-width="0.6" stroke-miterlimit="10"/>
<path d="M606.504 156.259L606.637 156.103V153.448H608.906H611.174V155.478H616.378L616.244 156.416L612.508 158.446V159.383H614.776V160.164H616.511V162.663L617.845 164.382L621.848 161.726V160.32H625.851V158.759H621.715L619.847 156.572V155.322L622.916 152.198H625.451L630.388 150.949V146.263H634.924V137.672H628.253L626.385 135.485H620.38L614.109 127.988H605.17L603.835 129.394V131.893H603.035V130.799H598.365L597.697 130.018H593.161L592.627 129.394H589.425L588.891 128.769H585.155L583.687 130.487H582.353V131.737L584.088 133.767V135.954H582.353L579.551 139.234V141.889H578.884L578.484 144.857L581.419 147.044H586.489L587.69 148.45H588.891L589.692 147.512H591.693L593.961 144.857H596.63L601.567 147.2V149.543L603.969 152.511V153.448H600.9V156.884L599.165 158.759L600.499 160.164L601.834 158.915L603.302 158.759V157.353H604.502L605.303 155.322" fill="#C3CDDF"/>
<path d="M606.504 156.259L606.637 156.103V153.448H608.906H611.174V155.478H616.378L616.244 156.416L612.508 158.446V159.383H614.776V160.164H616.511V162.663L617.845 164.382L621.848 161.726V160.32H625.851V158.759H621.715L619.847 156.572V155.322L622.916 152.198H625.451L630.388 150.949V146.263H634.924V137.672H628.253L626.385 135.485H620.38L614.109 127.988H605.17L603.835 129.394V131.893H603.035V130.799H598.365L597.697 130.018H593.161L592.627 129.394H589.425L588.891 128.769H585.155L583.687 130.487H582.353V131.737L584.088 133.767V135.954H582.353L579.551 139.234V141.889H578.884L578.484 144.857L581.419 147.044H586.489L587.69 148.45H588.891L589.692 147.512H591.693L593.961 144.857H596.63L601.567 147.2V149.543L603.969 152.511V153.448H600.9V156.884L599.165 158.759L600.499 160.164L601.834 158.915L603.302 158.759V157.353H604.502L605.303 155.322" stroke="white" stroke-width="0.6" stroke-miterlimit="10"/>
<path d="M598.764 152.354L598.231 158.29L599.298 158.602L600.899 156.884V153.448H603.968V152.511L601.566 149.543V147.2L596.63 144.857H593.961L593.294 145.638L594.895 148.293L598.764 152.354Z" fill="#C3CDDF" stroke="white" stroke-width="0.6" stroke-miterlimit="10"/>
<path d="M568.343 147.981V146.419H575.015L576.349 145.013H578.751L578.484 144.857L578.884 141.889H578.751L577.15 140.015H567.142L563.406 144.389L562.205 143.92L563.006 146.575V146.732L564.607 147.981H568.343Z" fill="#C3CDDF" stroke="white" stroke-width="0.6" stroke-miterlimit="10"/>
<path d="M579.418 148.45V150.949L575.815 155.01H573.414V155.791L574.481 157.822L578.484 162.507H581.953V165.163V165.319L583.688 167.35H592.361L594.362 165.007L598.632 165.475L601.167 167.662H601.3V161.883H604.102V159.071L606.504 156.26L605.303 155.322L604.503 157.353H603.302V158.759L601.834 158.915L600.5 160.164L599.165 158.759L599.299 158.602L598.231 158.29L598.765 152.355L594.896 148.294L593.295 145.638L591.693 147.513H589.692L588.891 148.45H587.69L586.49 147.044H581.419H581.286L580.752 148.45H579.418Z" fill="#C3CDDF" stroke="white" stroke-width="0.6" stroke-miterlimit="10"/>
<path d="M573.413 155.01H575.815L579.418 150.949V148.45H580.752L581.286 147.044L578.751 145.013H576.349L575.014 146.419H568.343V147.981H564.607L563.006 146.731L560.604 151.417L560.204 151.886L560.07 153.448L565.007 157.509H567.676V156.416H569.41L571.145 155.01H573.413Z" fill="#C3CDDF" stroke="white" stroke-width="0.6" stroke-miterlimit="10"/>
<path d="M569.677 167.818H571.145V165.162L569.944 163.757L570.745 162.819V161.101L569.41 160.32V160.476L561.805 160.008L558.603 162.038L562.472 166.568L563.94 168.911L564.874 169.848L565.408 170.473L568.076 172.816L567.809 170.161L569.677 167.818Z" fill="#C3CDDF" stroke="white" stroke-width="0.6" stroke-miterlimit="10"/>
<path d="M575.282 174.69L573.681 172.816H571.813L570.478 174.378H569.678L571.012 175.627L570.745 183.593L573.948 186.561L574.081 186.874H574.882V184.218H575.816L577.283 182.5V180.938L575.015 179.064L575.282 174.69Z" fill="#C3CDDF" stroke="white" stroke-width="0.6" stroke-miterlimit="10"/>
<path d="M581.018 173.441L576.215 174.066L575.414 175.003L575.281 174.691L575.014 179.064L577.282 180.939V180.783H579.284V178.908H581.552L582.353 178.127H583.02V175.784L581.018 173.441Z" fill="#C3CDDF" stroke="white" stroke-width="0.6" stroke-miterlimit="10"/>
<path d="M597.164 174.534L598.765 174.691V167.662H601.167L598.632 165.475L594.362 165.006L592.36 167.349H583.687L581.953 165.319V165.163L581.286 165.475V167.505L582.753 169.067V170.942H581.019V173.441L583.02 175.784V178.127H583.954L584.755 177.033H587.824L588.758 178.283H593.028V176.409H594.095H594.228L594.896 175.003L597.164 174.534Z" fill="#C3CDDF" stroke="white" stroke-width="0.6" stroke-miterlimit="10"/>
<path d="M641.062 200.776L643.464 198.12H649.335H654.539H655.74H657.608L650.269 180.158L647.867 177.346H642.663L640.262 180.158H632.122V178.752H626.652L623.45 175.003H616.111L610.373 177.815V178.752H603.435L598.765 174.691L597.164 174.535L594.896 175.003L594.228 176.409L594.896 177.346V178.596H594.362V180.939L596.63 180.783L597.965 180.314H602.901L604.503 180.939L603.168 182.813L596.897 182.657L593.695 184.687L595.963 191.091L599.566 200.307H604.369L606.104 202.338H609.573V198.745H612.642L616.111 202.806H621.181L623.183 200.463H628.12V203.275L630.254 200.776H641.062Z" fill="#C3CDDF" stroke="white" stroke-width="0.6" stroke-miterlimit="10"/>
<path d="M585.021 196.246L581.285 193.278L582.086 192.185L586.889 195.933V193.59L590.759 195.152V194.215L587.823 192.341L587.156 190.154L582.219 182.657L588.624 180.001L593.961 180.938H594.361V178.595H594.895V177.346L594.095 176.409H593.027V178.283H588.757L587.823 177.033H584.754L583.954 178.127H582.353L581.552 178.908H579.284V180.782H577.282V182.5L575.815 184.219H574.881V186.874H574.08L577.016 192.028L579.417 192.653L577.95 194.996L578.884 198.12L580.485 200.151L580.752 198.901L582.353 200.775L583.153 199.994L584.221 202.337L585.155 201.088L583.954 197.495L585.021 196.246Z" fill="#C3CDDF" stroke="white" stroke-width="0.6" stroke-miterlimit="10"/>
<path d="M593.694 206.242H591.56L591.159 205.93H588.891L588.624 205.618H586.089V207.648H589.291L590.626 208.742H595.429V207.18H593.694V206.242Z" fill="#C3CDDF" stroke="white" stroke-width="0.6" stroke-miterlimit="10"/>
<path d="M592.894 198.12H591.026V199.369H592.894V198.12Z" fill="#C3CDDF" stroke="white" stroke-width="0.6" stroke-miterlimit="10"/>
<path d="M589.558 199.994H588.624V200.775H589.558V199.994Z" fill="#C3CDDF" stroke="white" stroke-width="0.6" stroke-miterlimit="10"/>
<path d="M599.032 204.211H597.964V206.866H599.032V204.211Z" fill="#C3CDDF" stroke="white" stroke-width="0.6" stroke-miterlimit="10"/>
<path d="M595.162 195.777H593.961V197.496H595.162V195.777Z" fill="#C3CDDF" stroke="white" stroke-width="0.6" stroke-miterlimit="10"/>
<path d="M594.228 191.247H593.161V193.434H594.228V191.247Z" fill="#C3CDDF" stroke="white" stroke-width="0.6" stroke-miterlimit="10"/>
<path d="M594.495 199.213H593.561V200.462H594.495V199.213Z" fill="#C3CDDF" stroke="white" stroke-width="0.6" stroke-miterlimit="10"/>
<path d="M601.834 202.025H600.233V203.899H601.834V202.025Z" fill="#C3CDDF" stroke="white" stroke-width="0.6" stroke-miterlimit="10"/>
<path d="M581.285 167.506V165.475L581.953 165.163V162.508H578.483L574.48 157.822L573.413 155.791V155.01H571.145L569.41 156.416V160.321L570.744 161.102V162.82L569.944 163.757L571.145 165.163V167.818H570.878L573.546 172.817H573.68L575.414 175.003L576.215 174.066L581.019 173.441V170.942H582.753V169.068L581.285 167.506Z" fill="#C3CDDF" stroke="white" stroke-width="0.6" stroke-miterlimit="10"/>
<path d="M569.677 167.818L567.809 170.161L568.076 172.816L569.677 174.378H570.478L571.812 172.816H573.547L570.878 167.818H569.677Z" fill="#C3CDDF" stroke="white" stroke-width="0.6" stroke-miterlimit="10"/>
<path d="M644.665 41.4543L646.266 45.3592L653.338 47.0774L662.411 47.7022L662.945 45.5154L656.14 40.3609L662.945 31.1453L680.691 25.8346V23.4917H673.62L672.952 24.2727H662.011L650.936 30.3643L644.665 41.4543Z" fill="#C3CDDF" stroke="white" stroke-width="0.6" stroke-miterlimit="10"/>
<path d="M722.454 12.5582L733.396 16.7755L745.404 17.4003V13.964L730.327 8.65332L722.454 12.5582Z" fill="#C3CDDF" stroke="white" stroke-width="0.6" stroke-miterlimit="10"/>
<path d="M747.806 15.0581V20.6812H751.676L759.815 18.963V17.4011L752.61 15.0581H747.806Z" fill="#C3CDDF" stroke="white" stroke-width="0.6" stroke-miterlimit="10"/>
<path d="M846.411 26.46L846.945 29.5839L854.951 31.9268L866.692 30.3649V28.0219L846.411 26.46Z" fill="#C3CDDF" stroke="white" stroke-width="0.6" stroke-miterlimit="10"/>
<path d="M870.295 29.1147V30.6767L882.303 31.9263V29.1147H870.295Z" fill="#C3CDDF" stroke="white" stroke-width="0.6" stroke-miterlimit="10"/>
<path d="M864.024 33.1763V35.9878L872.964 37.5498V36.144L864.024 33.1763Z" fill="#C3CDDF" stroke="white" stroke-width="0.6" stroke-miterlimit="10"/>
<path d="M971.968 45.0473L974.77 47.5465L981.442 46.2969V44.2663L975.838 43.4854L971.968 45.0473Z" fill="#C3CDDF" stroke="white" stroke-width="0.6" stroke-miterlimit="10"/>
<path d="M943.815 116.429L966.231 142.67L965.163 143.295L962.628 140.327H960.093L961.961 147.356L969.7 154.541L968.632 155.01L965.563 153.448L965.83 156.416H964.496L960.893 152.198L959.959 146.107L957.291 142.983L951.82 134.548V132.049L947.551 128.769L946.75 125.645L943.815 122.521L945.015 120.334L942.614 117.21L943.815 116.429Z" fill="#C3CDDF" stroke="white" stroke-width="0.6" stroke-miterlimit="10"/>
<path d="M1009.06 69.101L1011.73 68.4762L1026.67 73.9431L1029.34 71.7563L1025.07 68.7886L1027.07 68.1638L1025.87 65.3523L1014.53 60.9788H1008.79L971.434 51.1384L957.424 49.7326L960.493 52.7004L959.159 54.2623L950.353 50.3574H927.136L924.601 47.3897L907.255 46.9211L894.312 43.7971V41.9228L868.293 39.2674L869.894 44.7343L851.348 42.7038V47.3897L835.069 35.8311H822.927V38.7989L809.317 36.4559L791.171 35.2063L779.029 38.7989V37.8617L790.237 31.1452V29.2709L783.966 25.2098H770.489V23.4916H764.752V21.7734H756.079V25.5222L727.659 30.8328L729.126 36.1435H715.516L718.986 40.517L717.785 42.079L713.248 40.6732L708.711 41.9228L704.041 36.7683H702.707L704.442 40.9856L702.04 43.1724L707.511 52.2318L715.917 53.0127L719.786 58.3234L718.719 59.1044L715.249 55.3557H711.113L707.911 64.7275L704.709 63.1655L707.244 55.9805L703.107 53.9499L700.039 46.6087L697.77 43.9533V38.3303H687.896V42.7038L686.429 44.4219L686.829 49.8888L695.102 54.1061L694.168 57.23L684.16 52.2318L666.414 46.7649L665.881 49.1078L673.486 53.4813L670.017 56.4491L668.416 52.7004L660.01 55.1995L658.942 56.4491H655.74V53.6375L640.929 59.4168V62.2283H636.259L634.391 60.0416V58.3234H636.526L634.391 55.8243H630.388V60.8226L632.79 62.2283L631.856 65.6647L626.786 63.9465L621.849 68.1638L623.85 72.0687L613.843 69.5696L613.309 71.7563L617.579 73.1621L617.712 75.3489L609.04 72.8497L607.972 66.9142L601.434 62.8531V61.135L620.114 66.9142L623.85 62.5407L622.516 58.9482L607.305 53.1689L594.896 50.5136L589.826 53.0127V57.0739L593.829 58.4796L591.694 62.8531L595.296 67.3828V72.2249L596.897 74.0993V76.7546L600.1 80.5033V82.3777L593.295 88.938L595.029 90.9685H598.232V92.5305H595.43L592.494 94.2486V95.8106L590.893 97.2164L592.895 101.434L591.56 102.527V104.089H593.562V105.963L595.029 109.243L603.169 111.118V114.867L609.44 119.709V122.364H605.304V127.675H614.11L620.514 135.172H626.519L628.387 137.359H635.058V145.95H630.388V150.636L633.591 149.698V151.104L631.189 152.979H629.321V153.916L631.322 155.478L629.721 156.727V158.602L627.987 159.226L632.256 162.35H634.658C634.658 162.35 636.926 165.006 639.328 167.817L641.063 167.349L651.604 172.035H655.34L661.878 175.471L664.947 179.063L667.482 175.783L662.945 170.785V165.943L659.343 164.068V161.101L662.011 157.977H663.879L666.281 155.165L660.944 148.917H657.608V145.325H655.206V136.578L657.341 134.079L660.81 138.14L662.145 136.578L659.876 133.923L667.081 129.393H672.419L682.826 134.704L684.961 132.204H690.698L692.833 134.704H700.039V130.799L695.102 128.768L696.703 123.457L695.235 120.177L696.569 118.459L716.851 112.367L723.389 112.524L726.057 117.991H734.463V121.583H737.666L742.736 115.648V118.771L758.481 133.766L761.016 131.423L763.685 134.235L769.555 132.985L776.093 140.639H781.297L786.234 141.889L796.642 134.235H804.114V137.515H815.855V133.142L814.121 131.111V126.738L826.53 131.267L830.666 136.109H835.47L837.071 134.235L848.145 138.452L850.414 140.951H864.157L867.76 136.734L879.635 139.858L882.437 136.422V126.581L879.635 123.301L881.636 120.958H894.446L910.59 139.858H918.062L925.668 148.761H931.139V144.856H937.677V160.164H932.206L937.81 170.941L938.744 169.848H947.417L952.354 144.856L946.083 128.143L942.48 122.676L931.672 117.21V120.646L918.329 115.491L926.068 93.6238H948.351L953.021 95.4982V98.1535L961.027 95.1858V93.3115H957.424V83.1587H965.964L970.5 88.4694L973.97 84.4082L971.968 81.1281L975.571 80.9719L978.773 86.595L975.704 96.2792L977.172 98.1535L974.103 107.057L996.119 132.829L1000.12 128.143L998.12 125.644L1000.92 122.364L996.919 117.678H1000.26V115.491L996.653 111.274L998.387 109.243L991.716 100.965H987.846L983.71 91.4371H988.78L990.115 92.9991H991.983V90.3437H1001.72L1009.2 81.5967L1016.4 82.5339L1016.53 80.6595L1003.06 72.8497L1005.59 70.1944L1001.99 67.2266L1003.72 66.1333L1009.06 69.101ZM842.675 122.833L838.405 127.05V129.08L833.735 131.111L830.132 129.08L835.336 127.206V124.863L837.071 122.833L839.473 120.021V111.274H840.673L842.675 117.678V122.833Z" fill="#C3CDDF" stroke="white" stroke-width="0.6" stroke-miterlimit="10"/>
<path d="M447.322 68.789L451.592 76.2865L461.066 78.4732L475.876 68.789L471.473 64.4155L456.262 68.008L453.727 64.4155L447.322 68.789Z" fill="#C3CDDF" stroke="white" stroke-width="0.6" stroke-miterlimit="10"/>
<path d="M927.669 264.191L932.072 270.908H933.674V255.444L930.605 254.663L927.669 264.191Z" fill="#C3CDDF" stroke="white" stroke-width="0.6" stroke-miterlimit="10"/>
<path d="M890.576 283.403V288.089H894.845L897.381 285.122V282.154H892.71L890.576 283.403Z" fill="#C3CDDF" stroke="white" stroke-width="0.6" stroke-miterlimit="10"/>
<path d="M923.533 177.19L925 175.94L928.603 177.19L928.069 175.003L932.205 172.191V170.317L932.873 169.536L934.874 170.942H937.676H937.81L932.205 160.008H937.676V144.701H931.138V148.606H925.667L918.062 139.703H910.456L894.445 120.959H881.502L879.501 123.302L882.303 126.582V136.422L879.501 139.859L875.765 138.922V146.575H885.238L893.644 152.511V153.916H882.036V158.759H877.099V162.039H873.363L871.762 160.164H869.894V163.601L872.696 166.568L869.894 168.599V171.098L867.359 172.972H859.353L854.283 177.034L842.674 174.378V172.035H823.193L818.123 164.382L809.717 159.227H800.377V153.448L794.373 147.825L786.233 143.295L785.833 141.733L782.764 140.796V144.545H780.229V147.044L781.697 148.762V150.793H773.424V156.416L775.025 158.29V159.852L771.289 159.071L767.153 160.789L772.09 168.755L771.156 173.129H771.022L771.289 175.94H769.421H767.82V179.533H761.416V183.125H757.813V181.876L753.41 184.062V186.874H752.876V189.685L754.344 191.404L755.278 190.31L759.281 192.341L758.747 195.152L759.948 196.714L758.347 198.432H761.015L763.684 201.244V203.899L770.756 207.023L775.025 204.056L779.562 206.242V210.303L778.094 212.022V213.115H775.559L776.626 216.239H778.761L779.562 219.05L777.961 220.769L776.493 219.363L775.025 220.769L777.427 222.955L777.294 225.454L786.634 232.015L788.769 229.516L809.05 242.948L814.387 241.074L815.455 241.855V244.667H816.389L819.057 239.825L825.061 242.636H828.797V241.23L833.868 235.295L837.204 236.857L839.472 234.982L842.407 237.482L840.94 239.356L844.809 240.918L845.876 239.356L850.146 243.886V253.257L848.278 255.444V261.38H852.948L853.749 265.285H856.284V270.127H858.552V273.094H862.955V274.5H864.957V268.565H866.291V267.159H873.096L875.231 266.378V264.035H876.832L878.834 266.378H882.036V269.97L887.24 273.094L888.574 271.22L894.712 272.938V278.249H896.713L896.313 273.563L914.86 265.753L923.666 254.663L929.67 239.668V232.952L923.933 230.765L926.868 226.548L917.662 212.803L912.191 209.21L915.927 198.901H920.33V196.87L912.992 194.215L908.989 198.901L900.983 189.685L910.59 178.439L914.726 183.281L910.99 187.655L913.392 190.466L920.73 185L924.333 179.064L923.533 177.19Z" fill="#C3CDDF" stroke="white" stroke-width="0.6" stroke-miterlimit="10"/>
<path d="M743.803 178.908L739.533 177.034L741.668 174.378L740.601 173.597L741.001 173.129V171.254H748.34V169.38H750.875L752.476 171.254H765.952L771.156 173.129L771.289 175.94H767.82V179.533H761.416V183.125H757.813V181.876L753.41 184.062V186.874L751.142 186.718V187.811L743.002 187.342L742.602 186.874H738.066L737.398 185.156L739.934 183.125L742.202 184.531L742.335 183.75H746.338L749.007 180.782L743.803 177.034V178.908Z" fill="#C3CDDF" stroke="white" stroke-width="0.6" stroke-miterlimit="10"/>
<path d="M937.943 191.56L932.339 186.249L937.41 180.314L935.808 177.19L936.476 172.348L937.676 170.942H934.874L932.873 169.536L932.206 170.317V172.191L928.07 175.003L928.603 177.19L925.001 175.94L923.533 177.19L924.334 179.064L920.731 185L925.401 187.03L924.867 193.59L934.608 195.621L937.943 191.56Z" fill="#C3CDDF" stroke="white" stroke-width="0.6" stroke-miterlimit="10"/>
<path d="M945.682 199.995L937.943 191.56L934.607 195.621L934.874 198.12L932.472 199.526L936.475 203.743L937.676 211.085L946.215 208.117L945.682 199.995Z" fill="url(#paint0_linear_1719_10125)" stroke="white" stroke-width="0.6" stroke-miterlimit="10"/>
<path d="M886.439 386.805H882.302V379.308H879.767V374.934L859.886 357.284L857.751 350.568H852.547L850.946 348.693H846.41L861.354 366.656V376.184H863.889L868.426 388.524L881.368 403.675H886.439V386.805Z" fill="#C3CDDF" stroke="white" stroke-width="0.6" stroke-miterlimit="10"/>
<path d="M910.457 408.517L903.518 406.486V409.298L895.513 408.517V406.33L887.64 404.768L883.504 408.517L888.574 409.454L888.04 411.016L916.061 417.732V412.578L910.457 411.172V408.517Z" fill="#C3CDDF" stroke="white" stroke-width="0.6" stroke-miterlimit="10"/>
<path d="M933.539 415.077L927.935 414.296L926.734 416.639L917.661 415.077V417.264L925.8 419.138L933.539 417.732V415.077Z" fill="#C3CDDF" stroke="white" stroke-width="0.6" stroke-miterlimit="10"/>
<path d="M954.888 414.765L935.141 416.639V417.732H941.945L954.888 416.639V414.765Z" fill="#C3CDDF" stroke="white" stroke-width="0.6" stroke-miterlimit="10"/>
<path d="M932.339 421.012V423.199H935.141L937.142 425.542L939.144 423.199L936.609 420.231L932.339 421.012Z" fill="#C3CDDF" stroke="white" stroke-width="0.6" stroke-miterlimit="10"/>
<path d="M956.089 416.639L947.683 425.542L950.084 426.323L962.76 416.639L961.96 414.765L956.089 416.639Z" fill="#C3CDDF" stroke="white" stroke-width="0.6" stroke-miterlimit="10"/>
<path d="M895.779 388.68L892.176 387.274L890.708 390.085L893.777 392.116L895.779 388.68Z" fill="#C3CDDF" stroke="white" stroke-width="0.6" stroke-miterlimit="10"/>
<path d="M887.107 385.399V390.398H889.241V387.899L887.907 383.213L884.438 382.744L884.972 385.399H887.107Z" fill="#C3CDDF" stroke="white" stroke-width="0.6" stroke-miterlimit="10"/>
<path d="M960.092 385.244L953.154 383.525V386.181H958.891V388.055L960.092 385.244Z" fill="#C3CDDF" stroke="white" stroke-width="0.6" stroke-miterlimit="10"/>
<path d="M959.292 390.398V392.429L961.96 395.084L963.962 392.741L962.761 390.398H959.292Z" fill="#C3CDDF" stroke="white" stroke-width="0.6" stroke-miterlimit="10"/>
<path d="M966.097 389.773L967.698 392.741H972.501L975.036 395.084L976.904 392.741L975.036 389.773H966.097Z" fill="#C3CDDF" stroke="white" stroke-width="0.6" stroke-miterlimit="10"/>
<path d="M966.897 376.496V373.841L969.832 374.934V373.216L968.631 371.654L969.832 368.062H967.831L969.832 364.469L968.365 363.688L966.096 364.938L963.961 372.123L965.029 373.841V376.652H963.294V379.308H968.231L966.897 376.496Z" fill="#C3CDDF" stroke="white" stroke-width="0.6" stroke-miterlimit="10"/>
<path d="M978.372 376.341L975.303 375.56V378.215H978.372V376.341Z" fill="#C3CDDF" stroke="white" stroke-width="0.6" stroke-miterlimit="10"/>
<path d="M1001.59 382.119L999.453 384.618V387.274H997.452L993.716 391.491H990.247V386.961H988.912L989.713 382.432L988.646 378.995H985.977L985.043 377.746H981.841L980.64 379.308H974.902L976.904 383.837H981.44V386.649H986.644V388.523H980.64V389.773L985.577 395.083L987.044 392.74L1002.12 402.112L1004.52 411.64H1001.32L1000.39 414.92H1008.93L1011.33 420.231L1014 420.543V388.836L1001.59 382.119Z" fill="#C3CDDF" stroke="white" stroke-width="0.6" stroke-miterlimit="10"/>
<path d="M932.872 393.053H935.14V402.425H938.343V390.398L940.744 387.586L941.945 388.992V393.834L943.279 395.24V398.988H945.014V397.583H948.483V395.084H946.882L945.014 392.897L946.482 391.022L942.612 386.649L948.75 379.464V378.058L945.948 381.182H943.013L941.812 382.588H939.143V380.557H938.209V374.466L940.077 373.216L953.42 374.622L958.09 369.311L957.023 368.062L953.153 372.591L941.411 369.467L936.475 372.591V379.308H935.14V385.243L932.872 387.742V393.053Z" fill="#C3CDDF" stroke="white" stroke-width="0.6" stroke-miterlimit="10"/>
<path d="M901.249 390.398H907.921V392.116H912.324V390.398H917.661V396.802L923.799 393.834V384.15L928.469 378.683V371.342H933.539L934.207 369.467L930.604 365.25L931.538 364.157L927.668 359.627L929.67 357.128L927.802 355.41H921.931V360.72L918.328 370.092H914.059L912.991 368.843H910.723L908.588 371.342H904.051L902.05 368.53H900.449L899.782 365.562L896.312 369.624V376.184L901.249 381.963V390.398Z" fill="#C3CDDF" stroke="white" stroke-width="0.6" stroke-miterlimit="10"/>
<path d="M927.135 340.259L919.93 352.599L918.862 351.193L910.856 360.409L905.786 361.033V368.531H902.05L904.051 371.342H908.588L910.723 368.843H912.991L914.059 370.093H918.328L921.931 360.721V355.41H927.802L929.67 357.129L935.674 350.1L927.135 340.259Z" fill="#C3CDDF" stroke="white" stroke-width="0.6" stroke-miterlimit="10"/>
<path d="M877.633 352.13L872.963 346.195L870.027 348.694H868.426V346.195L865.624 343.852L864.557 344.945L865.758 346.507L866.692 355.41L870.027 359.471V362.283L878.567 370.405L880.301 372.904H881.502L881.903 367.125L877.633 362.127V352.13Z" fill="#C3CDDF" stroke="white" stroke-width="0.6" stroke-miterlimit="10"/>
<path d="M880.386 372.974L878.573 370.413L881.681 367.224L881.926 367.336L881.484 372.974H880.386Z" fill="url(#paint1_linear_1719_10125)" stroke="white" stroke-width="0.5"/>
<path d="M743.003 196.09V191.717H747.406V199.526L753.677 196.871L759.281 195.778L758.747 195.153L759.281 192.341L755.278 190.311L754.344 191.404L752.876 189.686V186.875L751.142 186.718V187.812L743.003 187.343L742.602 186.875H738.066L737.399 185.156L739.934 183.126L742.202 184.532L742.335 183.751L740.868 182.189L741.935 181.095L740.067 179.846L735.664 185.781H732.195V187.968L736.465 193.591L734.863 197.027L736.331 199.526L743.003 196.09Z" fill="#C3CDDF" stroke="white" stroke-width="0.6" stroke-miterlimit="10"/>
<path d="M732.061 234.514L734.863 232.952V228.11L736.331 226.548H738.866V224.83L740.468 223.268H742.736V224.83H744.204V217.489H747.139V216.083L745.004 214.209V213.428H749.674V205.305L747.806 203.119V200.776L752.61 198.745L757.547 199.526L758.881 198.433H758.347L759.948 196.715L759.281 195.777L753.677 196.871L747.406 199.526V191.716H743.003V196.09L736.331 199.526L734.863 197.027L734.597 197.652L730.46 196.09V196.871H725.123V202.025L720.32 204.212V206.555H717.918L713.381 204.681V214.99L714.315 216.083L716.317 225.142H718.985V228.735L716.05 232.015L717.117 233.265L722.054 234.514H732.061Z" fill="#C3CDDF" stroke="white" stroke-width="0.6" stroke-miterlimit="10"/>
<path d="M754.344 259.349V255.444L750.875 251.539V248.103H748.073V245.76L751.009 242.168H752.877L753.677 243.105H756.346L757.013 238.419L759.815 235.295V232.327H761.683V229.516L763.684 227.173V222.955L764.752 221.862V220.144H762.35V217.489L759.948 214.677V212.178L758.747 210.772V209.366H765.819L769.288 206.399L763.684 203.899V201.244L761.016 198.433H758.881L757.547 199.526L752.61 198.745L747.806 200.776V203.119L749.674 205.305V213.427H745.004V214.208L747.139 216.083V217.489H744.204V224.83H742.736V223.268H740.468L738.866 224.83V226.548H736.331L734.864 228.11V232.952L732.062 234.514H722.054L717.117 233.264L722.188 239.2H724.056V244.667H726.858V248.103H723.522L721.387 250.758V254.039L722.188 254.195H739.534L746.339 262.161V259.349H754.344Z" fill="#C3CDDF" stroke="white" stroke-width="0.6" stroke-miterlimit="10"/>
<path d="M784.499 238.106L796.908 246.229L808.65 249.04L813.586 249.665L814.387 248.103L813.32 245.604L813.053 241.543L809.05 242.949L788.768 229.516L786.634 232.015L785.7 231.39L784.499 233.264V238.106Z" fill="#C3CDDF" stroke="white" stroke-width="0.6" stroke-miterlimit="10"/>
<path d="M820.659 248.259L821.459 246.853L826.797 248.259L827.33 244.979L824.928 244.354L825.062 242.636L819.058 239.824L816.389 244.666H815.855L815.722 246.853L820.659 248.259Z" fill="#C3CDDF" stroke="white" stroke-width="0.6" stroke-miterlimit="10"/>
<path d="M829.998 262.317H828.664V265.44H826.396V259.505H827.997L830.532 256.537L829.065 254.819H819.724V252.008H818.123L816.255 249.821L814.387 252.008L817.323 255.444H815.188V259.505H816.789L817.856 260.755L817.189 262.317L820.392 272.313L826.396 269.658V267.159H828.664L831.066 274.031L832.934 273.406L829.998 262.317Z" fill="#C3CDDF" stroke="white" stroke-width="0.6" stroke-miterlimit="10"/>
<path d="M834.535 268.721L832.934 267.315V265.44H834.135V262.004H836.67L838.404 256.381L837.204 254.975L838.671 253.101V248.884L841.34 245.76H843.875V243.729L844.676 242.792V240.918L840.94 239.356L842.407 237.481L839.472 234.982L837.204 236.856L833.868 235.294L828.798 241.23V242.636H825.062L824.928 244.354L827.33 244.979L826.796 248.259L821.459 246.853L820.658 248.259L815.721 246.853L815.855 244.666H815.455V241.855L814.387 241.074L813.053 241.542L813.32 245.603L814.387 248.103L813.587 249.665L808.65 249.04L796.908 246.228L784.499 238.106V233.264L785.7 231.39L777.294 225.454L777.427 222.955L775.025 220.768L776.493 219.362L777.961 220.768L779.562 219.05L778.761 216.239H776.627L775.559 213.115H778.094V212.021L779.562 210.303V206.242L775.025 204.055L770.756 207.023L769.288 206.398L765.819 209.366H758.747V210.772L759.948 212.177V214.677L762.35 217.488V220.143H764.751V221.862L763.684 222.955V227.172L761.682 229.515V232.327H759.814V235.294L757.012 238.418L756.345 243.104H753.677L752.876 242.167H751.008L748.073 245.76V248.103H750.875V251.539L754.344 255.444V259.349H746.338V262.16L749.54 266.065H753.543V268.408H749.007L756.746 277.624L759.814 273.875V268.877H761.816L766.086 296.68L772.09 307.77V311.05L779.162 327.294V332.761L782.497 336.666H785.833V331.043H788.235V325.888H791.304V298.71L798.376 297.461V294.493L807.449 282.31L812.519 277.936V273.719L817.99 270.595V273.406L820.391 272.313L817.189 262.316L817.856 260.755L816.789 259.505H815.188V255.444H817.323L814.387 252.008L816.255 249.821L818.123 252.008H819.724V254.819H829.064L830.532 256.537L827.997 259.505H826.396V265.44H828.664V262.316H829.998L832 270.126H834.535V268.721Z" fill="#C3CDDF" stroke="white" stroke-width="0.6" stroke-miterlimit="10"/>
<path d="M861.621 319.172L859.62 314.799V309.801L855.884 304.802V302.303H857.351V298.086L852.014 288.558V281.373H856.151V279.655H857.752V278.249H859.62L862.689 273.094H858.552V270.127H856.284V265.285H853.749L852.948 261.38H848.278V255.444L850.146 253.257V243.886L845.877 239.356L844.809 240.918H844.676V242.792L843.875 243.729V245.76H841.34L838.671 248.884V253.101L837.204 254.976L838.404 256.381L836.67 262.004H834.135V265.441H832.934V267.315L834.535 268.721V270.127H832L832.934 273.407L831.066 274.032L840.94 291.057V300.273H845.743L849.346 296.68L849.613 292.775L852.948 298.086L858.419 317.142L857.885 332.137L861.621 320.891V319.172Z" fill="#C3CDDF" stroke="white" stroke-width="0.6" stroke-miterlimit="10"/>
<path d="M871.895 315.424L870.828 310.894L873.897 307.301H881.235V300.897L878.433 297.461V291.838L875.098 288.089H872.829L870.161 291.213L868.293 289.183L865.624 292.307H864.29V282.31H861.621V279.186L859.753 277.937L859.62 278.249H857.752V279.655H856.151V281.373H852.014V288.558L857.351 298.086V302.303H855.884V304.802L859.62 309.801V314.799L861.621 319.172V320.891L857.885 332.137L857.752 336.198L864.557 344.945L865.624 343.851L868.426 346.194V348.694H870.027L872.963 346.194L870.027 342.446H866.958L863.889 331.824H861.621L860.554 329.013L862.822 318.548V311.987H866.691V315.424H869.894L870.961 318.548L872.696 317.923L872.963 318.235L873.096 315.424H871.895Z" fill="#C3CDDF" stroke="white" stroke-width="0.6" stroke-miterlimit="10"/>
<path d="M892.711 301.366L880.435 283.715L887.24 273.094L882.036 269.97V266.378H878.834L876.833 264.035H875.231V266.378L873.097 267.159H866.292V268.564H866.158L869.094 271.844V274.344L872.696 276.687L873.497 275.906L878.167 280.279L876.699 281.997H875.365L874.431 282.934L888.307 299.335L887.64 300.116L889.508 302.459L890.576 316.517L884.838 319.484V322.608H885.906V324.014H882.036V326.201H880.302L881.236 327.138V334.479H883.237L895.913 321.046L896.58 315.267L892.711 301.366Z" fill="#C3CDDF" stroke="white" stroke-width="0.6" stroke-miterlimit="10"/>
<path d="M859.815 278.035L862.621 273.293H862.962V274.475H864.946V268.505H866.103L869.095 271.9V274.303L872.662 276.707L873.446 275.907L878.188 280.264L876.698 281.95H875.42L874.408 282.894L888.38 299.39L887.593 300.21L889.51 302.536L889.875 306.556H884.565V309.81L879.898 307.323H881.208V300.879L878.436 297.42V291.876L875.049 288.094H872.825L870.23 291.184L868.277 289.132L865.607 292.42H864.216V282.373H861.622V279.226L859.815 278.035Z" fill="#C3CDDF" stroke="white" stroke-width="0.5"/>
<path d="M884.838 319.485L890.575 316.517L889.908 306.521H884.571V309.801L879.634 307.301H873.896L870.828 310.894L871.895 315.424H873.096L872.962 318.235L875.231 323.702L878.166 323.858L880.301 326.201H882.036V324.015H885.905V322.609H884.838V319.485Z" fill="#C3CDDF" stroke="white" stroke-width="0.6" stroke-miterlimit="10"/>
<path d="M626.785 235.294L628.119 227.172V219.05H629.32L631.455 221.393H633.056L638.927 216.863L640.662 222.018L634.39 225.454L636.792 228.734L635.991 232.171H633.323L631.321 236.856L626.785 235.294Z" fill="#C3CDDF" stroke="white" stroke-width="0.6" stroke-miterlimit="10"/>
<path d="M1088.18 473.182L1086.32 466.622L1084.05 468.027L1086.98 477.555L1094.19 486.146L1096.19 483.803L1088.18 473.182Z" fill="#C3CDDF" stroke="white" stroke-width="0.6" stroke-miterlimit="10"/>
<path d="M794.373 147.824L800.378 153.447V159.227H809.718L818.124 164.381L823.194 172.035H842.675V174.378L854.283 177.033L859.353 172.972H867.359L869.894 171.098V168.598L872.696 166.568L869.894 163.6V160.164H871.762L873.363 162.038H877.099V158.758H882.036V153.916H893.645V152.51L885.239 146.575H875.765V138.921L867.626 136.734L864.023 140.952H850.28L848.012 138.452L836.937 134.235L835.336 136.11H830.533L826.263 131.111L813.854 126.582V130.955L815.722 132.986V137.359H803.98V134.079H796.508L786.101 141.733H785.834L786.234 143.295L794.373 147.824Z" fill="#C3CDDF" stroke="white" stroke-width="0.6" stroke-miterlimit="10"/>
<path d="M485.883 256.381L518.44 285.59L525.912 283.403L546.861 264.035L547.661 263.254V258.255H540.056L537.387 250.758V231.077L531.116 211.553L534.185 209.21L534.052 198.12H527.647L523.911 200.463L522.577 199.213L510.168 200.775L506.165 203.899H504.297L499.093 207.179H498.96L500.961 222.018H495.224V227.485L474.542 238.418V243.26V246.384L475.076 246.853V245.76V246.853L485.883 256.381Z" fill="#C3CDDF" stroke="white" stroke-width="0.6" stroke-miterlimit="10"/>
<path d="M635.725 294.493V308.082L640.662 305.271L647.467 306.677L655.74 316.361L655.873 316.517L657.741 314.486L646.266 302.147L642.397 289.026L637.86 294.493H635.725Z" fill="#C3CDDF" stroke="white" stroke-width="0.6" stroke-miterlimit="10"/>
<path d="M655.739 316.361L653.737 319.797V324.483L658.007 324.015L661.209 320.266L658.541 315.424L657.74 314.487L655.872 316.517L655.739 316.361Z" fill="#C3CDDF" stroke="white" stroke-width="0.6" stroke-miterlimit="10"/>
<path d="M583.554 311.519V300.742H590.493V279.655H589.158V282.467L561.805 263.254L557.802 266.378L558.069 266.535L561.805 279.343V295.431L551.531 311.519H552.465L554.467 318.548L558.469 313.55L559.137 328.232H555.267L554.6 331.044L560.071 339.322L559.403 340.728L563.673 338.541L564.741 340.103L571.946 332.762H576.883L585.956 323.234L587.023 322.14L583.554 311.519Z" fill="#C3CDDF" stroke="white" stroke-width="0.6" stroke-miterlimit="10"/>
<path d="M592.361 270.283V279.655H590.492V300.741H583.554V311.519L587.023 322.14L585.956 323.234L590.226 328.076V334.167L602.234 348.225V351.818L614.91 357.597H624.517L626.652 354.942L627.186 354.317H634.124V348.225L626.118 339.01H622.649V335.261H626.785L635.725 315.268V308.864V308.083V294.494H637.86L642.397 289.027L637.46 286.996L636.259 271.22L631.189 266.691L629.454 262.786L623.049 270.283H592.361Z" fill="#C3CDDF" stroke="white" stroke-width="0.6" stroke-miterlimit="10"/>
<path d="M623.049 270.283L629.453 262.786L616.644 231.546H618.245L624.249 242.012H625.317L626.384 234.67L623.182 227.017H617.178L613.308 224.518L606.103 228.735L597.83 224.986H592.36V270.283H623.049Z" fill="#C3CDDF" stroke="white" stroke-width="0.6" stroke-miterlimit="10"/>
<path d="M458.53 263.879H462.666V251.383H475.075V246.853L474.542 246.385V243.261H459.331L452.526 256.694L448.523 261.223L446.521 267.471L444.253 270.127V273.875H458.53V263.879Z" fill="#C3CDDF" stroke="white" stroke-width="0.6" stroke-miterlimit="10"/>
<path d="M607.304 455.532L600.766 461.624H594.896L597.964 473.964H603.168L607.438 483.804H614.643H615.577L621.048 470.527V458.031L616.911 453.189H612.642V450.065L607.304 452.252V455.532Z" fill="#C3CDDF" stroke="white" stroke-width="0.6" stroke-miterlimit="10"/>
<path d="M611.841 380.714L607.838 388.992H609.172H612.108V387.43H615.177V382.744H611.841V380.714Z" fill="#C3CDDF" stroke="white" stroke-width="0.6" stroke-miterlimit="10"/>
<path d="M613.442 506.452H617.578L618.646 504.265H617.578V500.673H613.442V506.452Z" fill="#C3CDDF" stroke="white" stroke-width="0.6" stroke-miterlimit="10"/>
<path d="M460.532 306.208V301.678H462.666H483.748V256.694L485.883 256.382L475.075 246.854V251.383H462.666V263.879H458.53V273.876H444.253V274.813L445.721 278.249V296.993H453.593L460.532 306.208Z" fill="#C3CDDF" stroke="white" stroke-width="0.6" stroke-miterlimit="10"/>
<path d="M502.962 303.084H501.361L492.421 312.143L489.753 311.362L484.149 324.951H484.816L488.685 329.481H494.289V324.014L500.294 323.546H503.629H506.965L507.499 322.765L511.769 317.454L502.962 303.084Z" fill="#C3CDDF" stroke="white" stroke-width="0.6" stroke-miterlimit="10"/>
<path d="M612.108 388.992H609.173L611.441 396.646L615.177 391.647V387.43H612.108V388.992Z" fill="#C3CDDF" stroke="white" stroke-width="0.6" stroke-miterlimit="10"/>
<path d="M587.023 458.499L583.02 453.813V437.881H590.092V429.29H583.154V411.172H578.884V408.048L573.68 409.141V415.077H567.276L564.207 404.924H548.329L552.732 418.513H550.731L553.399 427.885V434.601L546.194 451.002V459.749H578.751L587.023 458.499Z" fill="#C3CDDF" stroke="white" stroke-width="0.6" stroke-miterlimit="10"/>
<path d="M546.994 387.118H554.466V378.215L553.665 377.121V374.778L556.067 371.811L553.932 369.468H551.264V365.094H544.992V371.498H539.255L535.652 380.714L543.792 394.928L546.994 392.429V387.118Z" fill="#C3CDDF" stroke="white" stroke-width="0.6" stroke-miterlimit="10"/>
<path d="M544.993 365.094H539.256V371.498H544.993V365.094Z" fill="#C3CDDF" stroke="white" stroke-width="0.6" stroke-miterlimit="10"/>
<path d="M462.666 315.579V314.017V301.678H460.531V306.207L453.593 296.992H445.721V299.803L444.253 304.802V315.579H455.194H462.666Z" fill="#C3CDDF" stroke="white" stroke-width="0.6" stroke-miterlimit="10"/>
<path d="M651.203 361.501L654.005 358.221L650.002 353.691L647.066 357.284V358.846H641.596L637.726 354.316H634.124H627.185L626.651 354.941L631.722 366.656L626.918 375.09L628.786 375.715V380.557L627.719 381.807L640.395 390.085L639.728 393.834L645.999 398.364L653.071 383.213L653.337 382.744L651.203 380.245V361.501Z" fill="#C3CDDF" stroke="white" stroke-width="0.6" stroke-miterlimit="10"/>
<path d="M551.264 365.094H561.805V361.345L556.201 347.288L559.403 340.728L560.07 339.322L554.599 331.043L555.267 328.232H559.136L558.469 313.549L554.466 318.548L555.267 321.359L545.126 345.257L542.457 341.821H538.454L534.452 353.223H535.119L539.255 358.065V365.094H544.993H551.264Z" fill="#C3CDDF" stroke="white" stroke-width="0.6" stroke-miterlimit="10"/>
<path d="M640.395 390.086L627.719 381.808L625.051 384.931V387.899H619.714V380.246H615.177V382.745V387.431V391.648L611.441 396.646L611.041 397.271L616.645 417.42L627.586 421.638L628.787 426.324L629.988 431.79H641.062L649.468 427.729V424.918H645.599V399.458L645.999 398.364L639.728 393.835L640.395 390.086Z" fill="#C3CDDF" stroke="white" stroke-width="0.6" stroke-miterlimit="10"/>
<path d="M629.988 431.79L628.787 426.323L627.319 435.539L628.787 442.724H631.989V453.033L629.721 458.031L625.985 452.096L628.253 449.44V444.911H624.25L622.249 442.88L612.375 447.254L613.442 449.753L612.642 450.065V453.189H616.911L621.048 458.031V470.527L615.577 483.804H614.643L617.579 492.238V500.673V504.265H618.646H619.847V498.642L628.52 492.082V474.588L649.468 450.065V427.729L641.062 431.79H629.988Z" fill="#C3CDDF" stroke="white" stroke-width="0.6" stroke-miterlimit="10"/>
<path d="M467.07 336.667L467.47 336.042L464.268 328.232H458.93L457.73 331.824L457.996 331.981V339.166L462.533 343.071L467.07 336.667Z" fill="#C3CDDF" stroke="white" stroke-width="0.6" stroke-miterlimit="10"/>
<path d="M474.275 343.382V339.321L467.07 336.666L462.533 343.07L476.81 354.629L477.744 347.444L474.275 343.382Z" fill="#C3CDDF" stroke="white" stroke-width="0.6" stroke-miterlimit="10"/>
<path d="M444.253 315.58V316.361L450.524 323.702L455.194 315.58H444.253Z" fill="#C3CDDF" stroke="white" stroke-width="0.6" stroke-miterlimit="10"/>
<path d="M500.294 323.545L494.289 324.014V329.481H495.49V336.978L493.489 339.321V351.661L497.225 353.223L506.832 346.975L503.629 323.545H500.294Z" fill="#C3CDDF" stroke="white" stroke-width="0.6" stroke-miterlimit="10"/>
<path d="M512.569 316.517L511.769 317.61L507.499 322.921L506.965 323.546L509.767 327.607C509.767 327.607 510.168 340.103 510.301 344.789H513.904V333.23L517.907 325.733V321.984V319.485L512.569 316.517Z" fill="#C3CDDF" stroke="white" stroke-width="0.6" stroke-miterlimit="10"/>
<path d="M506.966 323.545H503.63L506.832 346.975L510.301 344.788C510.168 339.946 509.768 327.607 509.768 327.607L506.966 323.545Z" fill="#C3CDDF" stroke="white" stroke-width="0.6" stroke-miterlimit="10"/>
<path d="M474.542 238.42L495.224 227.486V222.019H500.961L498.96 207.18H490.42L488.285 204.525H485.617L482.414 212.803L474.008 218.583L473.608 220.926L470.806 226.236L472.14 230.922L464.535 242.637H459.731L459.331 243.262H474.542V238.42Z" fill="#C3CDDF" stroke="white" stroke-width="0.6" stroke-miterlimit="10"/>
<path d="M566.208 511.762V513.481L572.079 514.574L575.282 512.387V481.773H579.285V463.81L586.89 461.623L595.029 462.248L594.896 461.623H593.828V461.311V459.437H587.691L587.023 458.5L578.751 459.749H546.194V462.092L556.468 486.459L561.672 512.856H562.873L563.006 513.012L564.474 510.2L566.208 511.762Z" fill="#C3CDDF" stroke="white" stroke-width="0.6" stroke-miterlimit="10"/>
<path d="M577.817 504.733H581.419L585.289 496.923H587.958L589.292 499.579H594.496L607.171 483.334L603.169 473.963H597.965L595.029 462.248L586.89 461.623L579.285 463.81V481.772H575.282V495.518L578.351 500.672L577.817 504.733Z" fill="#C3CDDF" stroke="white" stroke-width="0.6" stroke-miterlimit="10"/>
<path d="M618.645 504.265L617.578 506.452H613.442V500.673H617.578V492.238L614.643 483.804H607.437L607.17 483.335L594.495 499.579H589.291L587.957 496.924H585.288L581.419 504.734H577.816L578.35 500.673L575.281 495.518V512.388L572.079 514.574L566.208 513.481V511.763L564.473 510.201L563.005 513.012L569.143 527.539V533.63H566.608L573.947 542.221L597.43 535.973L619.846 509.732V504.265H618.645Z" fill="#C3CDDF" stroke="white" stroke-width="0.6" stroke-miterlimit="10"/>
<path d="M660.943 459.281V463.967L662.01 465.216V471.777L659.875 477.868H658.408L656.673 479.899V484.897L659.075 487.709V493.332L660.809 497.08H663.078V498.33H666.013L667.347 496.924H670.683L674.419 482.71L681.224 463.342V458.188L682.692 454.907L681.091 450.065L682.692 448.66L683.759 452.252L685.36 448.66L683.893 446.004V437.882L680.557 434.133L679.223 435.695V440.069H676.287V445.692L669.883 451.159H662.944V455.688L660.943 459.281Z" fill="#C3CDDF" stroke="white" stroke-width="0.6" stroke-miterlimit="10"/>
<path d="M508.967 301.679H516.306L519.908 297.618V285.122L518.441 285.591L485.884 256.382L483.749 256.694V301.679H462.667V314.018H471.74L474.809 324.952H484.149L489.753 311.363L492.422 312.144L501.361 303.085H502.963L503.496 304.022H507.099L508.967 301.679Z" fill="#C3CDDF" stroke="white" stroke-width="0.6" stroke-miterlimit="10"/>
<path d="M554.466 318.548L552.465 311.519H551.798L547.661 314.799L546.06 312.925H540.857L538.855 315.268H534.986L532.05 311.675L530.182 313.862H528.448L525.912 311.05H518.574V313.862L517.106 315.58V319.016L517.907 319.485V321.984V325.733L513.904 333.23V344.789H520.175L525.512 353.223H534.452L538.455 341.821H542.458L545.126 345.257L555.267 321.359L554.466 318.548Z" fill="#C3CDDF" stroke="white" stroke-width="0.6" stroke-miterlimit="10"/>
<path d="M561.805 295.43V279.342L558.069 266.534L557.802 266.378L552.198 264.035H546.861L525.912 283.403L519.908 285.121V297.617L516.305 301.678H508.967L507.099 304.021H503.496L511.769 317.454L512.569 316.517L517.106 319.016V315.58L518.574 313.861V311.05H525.912L528.447 313.861H530.182L532.05 311.675L534.985 315.267H538.855L540.856 312.924H546.06L547.661 314.799L551.798 311.518H551.531L561.805 295.43Z" fill="#C3CDDF" stroke="white" stroke-width="0.6" stroke-miterlimit="10"/>
<path d="M474.809 324.952L471.74 314.018H462.666V315.58H455.194L450.524 323.702L457.73 331.824L458.93 328.232H464.268L467.47 336.042L467.07 336.667L472.941 338.853L475.476 324.952H474.809Z" fill="#C3CDDF" stroke="white" stroke-width="0.6" stroke-miterlimit="10"/>
<path d="M494.29 329.481H488.686L484.816 324.952H484.149H475.476L472.941 338.853L474.275 339.322V343.383L477.744 347.444L476.81 354.629L477.211 354.941L481.881 350.724H491.354L493.489 351.661V339.322L495.491 336.979V329.481H494.29Z" fill="#C3CDDF" stroke="white" stroke-width="0.6" stroke-miterlimit="10"/>
<path d="M540.056 226.704H542.324V222.799H544.592V216.708L544.059 216.551L539.789 214.365V212.334L543.525 207.961V204.368H541.657V202.025L543.525 199.838V198.276L540.723 199.37V197.027H537.654L536.32 198.12H534.051L534.185 209.21L531.116 211.553L537.387 230.765H540.056V226.704Z" fill="#C3CDDF" stroke="white" stroke-width="0.6" stroke-miterlimit="10"/>
<path d="M591.96 224.986V222.018H585.689V219.675L581.286 217.801L573.947 221.862V224.517L575.281 227.485L571.946 231.39L558.336 225.611V221.706L552.065 219.05H549.129L544.593 216.708V222.799H542.324V226.704H540.056V230.765H537.387V231.078V250.758L540.056 258.256H547.661V263.254L546.861 264.035H552.198L557.802 266.378L561.805 263.254L589.158 282.466V279.655H590.492H592.36V270.283V224.986H591.96Z" fill="#C3CDDF" stroke="white" stroke-width="0.6" stroke-miterlimit="10"/>
<path d="M665.614 351.661L677.489 337.759H674.153L663.078 332.292L657.741 326.045V324.014L653.738 324.483V319.797L655.74 316.36L647.467 306.676L640.662 305.271L635.725 308.082V308.863V315.267L626.786 335.26H622.649V339.009H626.118L634.124 348.225V354.316H637.727L641.596 358.846H647.067V357.284L650.002 353.691L653.071 357.284L662.411 351.661H665.614Z" fill="#C3CDDF" stroke="white" stroke-width="0.6" stroke-miterlimit="10"/>
<path d="M664.413 326.045L661.21 320.266L658.008 324.015H657.741V326.045L663.078 332.293L674.153 337.76H677.489L665.613 351.662H662.411L653.071 357.285L654.005 358.222L651.203 361.502V380.246L653.338 382.745L679.49 349.319L687.496 326.045V318.704L664.413 326.045Z" fill="#C3CDDF" stroke="white" stroke-width="0.6" stroke-miterlimit="10"/>
<path d="M616.778 365.719L611.841 371.654L610.774 382.744L611.841 380.714V382.744H615.177V380.245H619.714V375.559L625.051 374.466L626.919 375.091L631.722 366.656L626.652 354.941L624.517 357.597H615.177V363.845L616.778 365.719Z" fill="#C3CDDF" stroke="white" stroke-width="0.6" stroke-miterlimit="10"/>
<path d="M552.598 398.832L555.267 396.646V398.832H557.802L562.339 393.522V386.024L568.209 379.308V372.279V358.846H563.539V364.313H561.805V365.094H551.264V369.468H553.933L556.067 371.811L553.666 374.778V377.121L554.466 378.215V387.118H546.994V392.428L543.792 394.928L546.727 399.926L546.861 400.238L550.864 396.646L552.598 398.832Z" fill="#C3CDDF" stroke="white" stroke-width="0.6" stroke-miterlimit="10"/>
<path d="M628.787 442.724L627.319 435.539L628.787 426.323L627.586 421.637L623.183 419.919V435.539L620.781 443.505L622.249 442.88L624.25 444.91H628.253V449.44L625.985 452.095L629.721 458.031L631.989 453.033V442.724H628.787Z" fill="#C3CDDF" stroke="white" stroke-width="0.6" stroke-miterlimit="10"/>
<path d="M616.645 417.42L615.978 414.92L608.372 416.014V417.576L605.837 420.544L607.038 421.949V426.635L605.837 429.759V431.79L607.972 434.289H611.574V440.381H608.639L603.835 434.914L602.901 431.165H600.633V433.976L595.429 432.414V430.853H592.227V429.447L590.759 428.353L590.092 429.291V437.881H583.02V453.813L587.023 458.499L587.69 459.437H593.828V461.311V461.623H594.896H600.767L607.305 455.532V452.251L612.642 450.065L613.442 449.752L612.375 447.253L620.781 443.504L623.183 435.538V419.919L616.645 417.42Z" fill="#C3CDDF" stroke="white" stroke-width="0.6" stroke-miterlimit="10"/>
<path d="M570.211 353.692L574.481 351.974L575.948 354.941L585.288 357.597L585.822 353.692L588.09 354.16L597.964 351.505H602.234V348.225L590.225 334.167V328.075L585.956 323.233L576.882 332.761H571.945L564.74 340.103L563.673 338.541L559.403 340.727L556.201 347.288L561.805 361.345V364.313H563.539V358.846H568.209L570.211 356.347V353.692Z" fill="#C3CDDF" stroke="white" stroke-width="0.6" stroke-miterlimit="10"/>
<path d="M608.371 416.014L615.977 414.921L611.04 397.27L611.44 396.646L609.172 388.992H607.838L610.773 382.744L611.841 371.654L616.778 365.719L615.176 363.844V357.597H614.91L602.234 351.817V351.505H597.964L588.09 354.16L585.822 353.692L585.288 357.597L575.948 354.941L574.48 351.973L570.211 353.692V356.347L568.209 358.846V372.279V379.308L562.338 386.024V393.522L557.802 398.832H555.267V396.646L552.598 398.832L550.863 396.646L546.86 400.238V400.551L548.328 404.924H564.206L567.275 415.077H573.68V409.141L578.884 408.048V411.172H583.153V429.291H590.092L590.759 428.354L592.226 429.447V430.853H595.429V432.415L600.633 433.977V431.165H602.901L603.835 434.914L608.638 440.381H611.574V434.289H607.971L605.836 431.79V429.759L607.037 426.635V421.949L605.836 420.544L608.371 417.576V416.014Z" fill="#C3CDDF" stroke="white" stroke-width="0.6" stroke-miterlimit="10"/>
<path d="M447.322 68.789L451.592 76.2865L461.066 78.4732L475.876 68.789L471.473 64.4155L456.262 68.008L453.727 64.4155L447.322 68.789Z" fill="#C3CDDF" stroke="white" stroke-width="0.6" stroke-miterlimit="10"/>
<path d="M372.869 87.6891H381.141V92.6874H387.412L406.493 70.3513H413.965L426.507 55.6688L454.928 50.2019H459.064V37.2376L468.137 26.7724V13.4957H480.813L492.288 9.27842V7.09166H470.939L463.868 1H437.582L403.824 5.6859L387.412 6.31068L368.732 14.9015H357.391L349.919 23.6485L353.388 27.241H375.404V44.1102H381.275V48.0152H372.869V52.7011H379.006L377.005 55.044H372.335L367.798 62.6976L372.869 87.6891Z" fill="#C3CDDF" stroke="white" stroke-width="0.6" stroke-miterlimit="10"/>
<path d="M205.281 269.657L207.282 271.063L213.42 267.939H217.823L216.756 269.189H220.758L225.295 273.719V276.686H230.499V279.185H228.497V281.216H236.903L241.44 279.654V277.467H236.637V274.656H233.167L227.163 267.627H223.427V266.065L219.424 264.659H213.42L205.281 269.657Z" fill="#C3CDDF" stroke="white" stroke-width="0.6" stroke-miterlimit="10"/>
<path d="M211.685 271.063L213.02 269.657L214.487 270.907L213.02 272.313L211.685 271.063Z" fill="#C3CDDF" stroke="white" stroke-width="0.6" stroke-miterlimit="10"/>
<path d="M225.962 286.683L225.028 288.401L227.43 290.432H232.5L232.901 288.557L229.432 286.683H225.962Z" fill="#C3CDDF" stroke="white" stroke-width="0.6" stroke-miterlimit="10"/>
<path d="M265.458 287.309V290.12H269.727L270.795 288.714V287.309H265.458Z" fill="#C3CDDF" stroke="white" stroke-width="0.6" stroke-miterlimit="10"/>
<path d="M320.697 620.007H324.433L325.367 621.256L323.099 624.693L320.697 623.287V620.007Z" fill="#C3CDDF" stroke="white" stroke-width="0.6" stroke-miterlimit="10"/>
<path d="M326.168 621.57L324.167 625.787H326.435L328.837 623.6H330.171V621.57H326.168Z" fill="#C3CDDF" stroke="white" stroke-width="0.6" stroke-miterlimit="10"/>
<path d="M353.254 14.746L381.942 7.40475L383.009 4.59321L362.194 3.03125L317.896 5.99898V8.96672L322.299 11.7783L321.098 14.746L313.226 8.96672L300.55 12.403V18.1823L310.824 20.5253V22.8682H301.884V26.3045L324.834 27.3979L332.573 24.7426V20.0567L346.983 14.1212L353.254 14.746Z" fill="#C3CDDF" stroke="white" stroke-width="0.6" stroke-miterlimit="10"/>
<path d="M275.865 15.2139L279.334 21.3055H297.481V18.3378L293.878 16.6196L288.141 17.4006H282.67L275.865 15.2139Z" fill="#C3CDDF" stroke="white" stroke-width="0.6" stroke-miterlimit="10"/>
<path d="M287.874 24.4302V26.1484H293.478V28.6475L291.21 29.8971V32.5525H320.031L322.432 29.2723L313.493 28.4913L309.49 29.1161H300.55V23.1807L287.874 24.4302Z" fill="#C3CDDF" stroke="white" stroke-width="0.6" stroke-miterlimit="10"/>
<path d="M221.026 27.3978L243.175 21.3062L247.445 28.4912L252.515 27.8664V24.8987H260.387V30.0532L238.505 34.4267L221.026 27.3978Z" fill="#C3CDDF" stroke="white" stroke-width="0.6" stroke-miterlimit="10"/>
<path d="M267.059 24.7422V28.8033H271.596V30.6777H279.601L283.604 32.552L288.675 29.5843H282.937V24.7422H267.059Z" fill="#C3CDDF" stroke="white" stroke-width="0.6" stroke-miterlimit="10"/>
<path d="M297.481 34.895L283.738 44.1106V48.0155H290.676V50.0461H309.089L312.158 48.9527L320.164 58.3245L303.352 69.2583H298.015V73.1632H309.223L314.693 79.411H325.501L331.906 72.0698L328.036 67.5401L332.173 62.698L338.577 70.1954L346.583 60.6675L335.508 54.4196L339.911 50.6709L323.767 35.676L297.481 34.895Z" fill="#C3CDDF" stroke="white" stroke-width="0.6" stroke-miterlimit="10"/>
<path d="M256.918 38.8002C256.918 38.8002 259.053 44.8918 260.387 44.8918C261.722 44.8918 272.129 40.3621 272.129 40.3621L274.664 32.7085L256.918 38.8002Z" fill="#C3CDDF" stroke="white" stroke-width="0.6" stroke-miterlimit="10"/>
<path d="M197.008 41.2988L200.477 44.7351H207.416L215.555 41.2988V43.0169L213.02 45.9847H210.752V47.078H221.026L223.828 50.5144H211.285V52.2325H216.222V53.3259L214.754 55.0441V56.1374H221.026L235.569 51.9201V53.4821L240.64 55.5126L245.577 54.8879L247.178 51.2953L250.914 51.9201L252.515 49.8896L246.511 45.8285L249.046 43.7979L250.113 39.112L255.45 37.3939V35.2071L245.176 36.9253L241.974 43.1731L240.239 42.5483L241.307 39.5806L238.238 37.8624L230.766 38.0186L226.63 33.3327H219.691L219.024 32.5518H208.35V35.5195L197.008 41.2988Z" fill="#C3CDDF" stroke="white" stroke-width="0.6" stroke-miterlimit="10"/>
<path d="M273.864 73.0069V74.2564L269.194 75.9746V76.9118H273.464V78.3175H275.865L281.469 74.4126L285.472 77.5366L288.941 75.6622L286.406 73.0069L286.673 71.9135L281.87 67.3838H279.335L273.864 73.0069Z" fill="#C3CDDF" stroke="white" stroke-width="0.6" stroke-miterlimit="10"/>
<path d="M275.065 81.5977V83.1596H278L282.403 80.3481V78.7861L278.133 79.4109L275.065 81.5977Z" fill="#C3CDDF" stroke="white" stroke-width="0.6" stroke-miterlimit="10"/>
<path d="M283.738 83.7849L285.739 81.5981H288.141V82.6915L286.006 85.1907L283.738 83.7849Z" fill="#C3CDDF" stroke="white" stroke-width="0.6" stroke-miterlimit="10"/>
<path d="M306.02 137.985L307.889 140.172V141.109L311.758 142.827L314.293 142.358V140.328L309.623 137.985H306.02Z" fill="#C3CDDF" stroke="white" stroke-width="0.6" stroke-miterlimit="10"/>
<path d="M319.497 147.2L332.306 132.205L337.11 130.487V131.893L331.372 138.609H333.907V140.327H339.778V142.045H338.044V144.076H340.979V148.449L337.51 152.667H334.975L337.11 150.168L335.642 148.606L332.039 152.823H328.97V150.792H331.105L332.573 149.074H329.638V148.137H319.497V147.2Z" fill="#C3CDDF" stroke="white" stroke-width="0.6" stroke-miterlimit="10"/>
<path d="M301.884 152.667L305.62 155.635L308.422 154.229V153.292H305.086L303.485 152.198V151.105H302.017L301.884 152.667Z" fill="#C3CDDF" stroke="white" stroke-width="0.6" stroke-miterlimit="10"/>
<path d="M335.909 120.178L335.241 117.366L327.903 112.524V110.025L326.835 108.776L328.837 105.808L326.435 90.3443H324.7L317.896 98.3103H316.294L311.758 100.029L308.822 95.655L312.825 89.0947L311.224 87.2204H307.488V83.6279L303.485 80.6601L300.817 82.2221H297.614L293.878 80.1915L290.276 82.5345V85.5022L287.474 88.1576V92.6873L282.003 99.0913L284.405 101.903V106.276L280.402 110.962L269.194 116.117V119.084L266.925 127.051L263.323 130.643H259.72V128.769L258.252 127.051V123.614L261.321 124.864L261.988 122.521L259.32 120.49V117.054L262.389 114.711V112.993H254.116L252.648 111.275L246.644 106.589L241.974 104.09H237.037L238.905 97.6856H235.303V95.3426L239.973 89.8757L253.049 79.2544H258.786V76.599H261.855L263.456 73.6313H268.66L274.397 70.195L274.931 68.4768L279.735 65.3529V63.4785H284.138V65.1967L286.139 68.0082L287.34 65.1967L294.812 62.0728L296.947 59.105V55.8249H300.55V51.92H291.343V54.5753L280.135 60.0422L278.801 58.4802L282.003 54.7315L280.001 52.3886L276.666 56.2935L274.931 53.0134V50.358C274.931 50.358 277.199 51.2952 277.199 50.358C277.199 49.4208 277.199 43.0168 277.199 43.0168L280.802 39.5805H284.805L291.743 35.3631V34.2698H280.535L274.531 42.0796L262.789 48.9522L267.726 52.0762V56.2935H260.254V50.5142H256.785L250.914 57.3869H238.772L233.968 54.7315L220.759 60.8232H207.015V57.3869H210.618V53.9505L195.541 50.0456L183.799 47.7027L155.912 53.9505L146.438 51.4514L105.876 92.8435L110.012 97.6856V100.653L107.077 104.402V115.023H111.346L112.814 112.056H114.816V117.523L112.014 121.271L113.748 126.426L111.88 131.736H108.011V136.735L114.015 143.764L113.748 144.388L119.752 146.887V142.514H207.683L220.358 147.668L223.961 145.95L224.495 147.044L230.366 142.826H235.303V146.731H237.704V152.042L238.772 157.04H244.509H247.845L249.046 158.446V161.258L246.644 164.069L245.176 162.351L243.442 164.381H242.107L237.571 169.692H237.037L236.103 173.285L240.907 171.254L246.911 169.067L248.779 165.319L257.852 164.225V165.319L264.39 160.477H276.132L285.872 149.074H290.676V151.886L288.808 156.259L289.875 159.071L297.614 157.665V159.539L290.809 164.069L292.41 168.13L300.95 162.507L310.423 159.383V158.29H312.959L315.093 155.322L313.492 154.229L314.56 152.198L313.092 151.105L308.956 155.322L308.822 157.196H304.819L300.55 154.229V150.011L306.287 144.076V141.264H300.95L286.273 148.293V146.106L297.214 140.796V137.984L299.616 135.173H320.564L328.303 131.58L332.306 131.112L336.709 127.988L339.244 121.427L335.909 120.178ZM178.862 70.195L187.535 66.7587L181.397 63.6347L196.341 63.1661L191.404 66.6025L196.875 69.7264L189.269 70.8198L186.868 70.6636L181.13 71.7569L174.992 74.7247L178.595 71.2883L178.862 70.195ZM203.279 81.5973L186.2 88.47H177.127V86.4394L185.8 83.1593L185.934 79.5668L190.87 83.1593L203.146 78.942V81.5973H203.279ZM210.218 131.424L207.416 136.891L206.615 135.485L208.35 132.205V128.612L207.416 127.051L206.749 117.366L211.018 115.492L210.218 131.424Z" fill="#C3CDDF" stroke="white" stroke-width="0.6" stroke-miterlimit="10"/>
<path d="M105.609 92.531L105.876 92.8434L146.705 51.2951L115.749 43.3291L83.0592 54.7314H75.4537L72.2514 56.4496L76.788 63.4785V66.4462H69.316V63.0099H62.7779L54.5053 66.4462V73.3188L68.382 70.9759V75.5056L40.762 84.7212V87.8451L36.6257 89.2509V92.6872H43.4306V95.0301L39.4277 99.716H42.0963H49.435L44.7649 102.996L1 119.397V121.271L25.9513 114.086V115.804H29.9542V112.056L50.6358 103.777L63.9788 97.3731V94.5616L76.2543 88.7823V90.6566L69.9831 94.4054V96.2797L79.8569 92.531H85.0607L87.8627 89.4071H92.7996L95.6016 92.531H105.609Z" fill="#C3CDDF" stroke="white" stroke-width="0.6" stroke-miterlimit="10"/>
<path d="M290.943 149.386H286.139L276.399 160.789H264.657L258.119 165.475V168.13H249.046V171.254L236.637 178.283H232.233V175.003L236.236 173.284L237.17 169.692H236.904V165.318L234.368 168.286V167.193L237.704 163.288V159.539L235.569 156.884H233.835L230.499 160.945L229.698 160.008L224.361 166.412V169.848L219.958 175.003H217.289V168.598L227.563 156.415H237.437V154.072H235.569H228.764L227.163 152.198V149.543L218.891 153.76H217.289V152.042L213.02 152.823V151.261L220.225 147.824L207.549 142.514H119.619V146.887L113.748 144.388L109.745 153.604L93.0663 181.407V211.084L100.805 220.143V220.456H110.946L122.287 226.704H132.295V223.58H138.833L143.102 228.578V234.045L146.038 237.481L149.24 233.732H154.044L156.712 236.7V249.821L164.184 252.788L164.318 252.32V245.135L169.388 239.199L182.197 232.951L189.136 236.856L192.872 234.67L194.74 236.232L195.941 234.982L194.073 232.327L197.675 230.608H207.416L209.55 232.951H212.086L213.02 231.858H215.288L218.49 235.451V239.043L215.688 242.167V247.946L219.958 255.912H222.093L224.628 247.009V238.418L222.36 231.077L228.364 221.08H229.698L236.103 213.583H239.572L242.374 210.303H246.377V206.242L248.512 203.586V193.902L250.246 192.028L251.581 193.746L250.513 196.089L251.581 196.714L255.717 191.559L255.45 188.435H257.185L262.255 182.5V179.532L274.13 177.033V172.972H275.465V169.848L280.268 165.631L289.208 161.882V159.539L290.142 159.383L289.075 156.571L290.943 152.198V149.386Z" fill="#C3CDDF" stroke="white" stroke-width="0.6" stroke-miterlimit="10"/>
<path d="M248.378 281.216L246.11 279.967L243.308 281.216L243.175 282.154L246.244 282.466L246.11 286.683H239.038C239.038 287.152 239.038 288.558 239.038 288.558L241.307 291.213L243.041 288.558H247.845L248.112 288.87L250.113 280.748L248.378 281.216Z" fill="#C3CDDF" stroke="white" stroke-width="0.6" stroke-miterlimit="10"/>
<path d="M259.853 284.497H257.318L252.915 279.967L250.246 280.748L248.245 288.87L249.979 291.057H251.314V287.62H253.315V288.87H255.984V287.62L259.853 288.87L261.454 286.683L259.853 284.497Z" fill="#C3CDDF" stroke="white" stroke-width="0.6" stroke-miterlimit="10"/>
<path d="M184.733 306.052L189.536 300.273H187.401V299.179L186.467 299.804H185.133L186.334 290.432H178.461V293.4L181.263 296.68V299.179H175.526C175.526 299.179 174.192 303.084 173.391 305.583L180.463 310.738H180.863L184.733 306.052Z" fill="#C3CDDF" stroke="white" stroke-width="0.6" stroke-miterlimit="10"/>
<path d="M181.263 299.178V296.679L178.461 293.399V290.431H186.334H186.867L190.737 285.901L192.738 288.244L194.473 283.09V279.497L197.675 275.749L197.809 272.781H191.537L183.798 274.655V280.591L179.662 285.589H174.592V287.463L168.454 288.869L167.387 287.62H163.784L159.781 272.781V267.158L164.184 253.1L156.712 250.132V237.012L154.177 234.044H149.374L146.171 237.793L143.236 234.357V228.577L138.966 223.579H132.428V226.703H122.554L111.213 220.455H101.072V233.263L106.543 239.667V243.26H102.006V245.29L109.478 254.037L106.943 257.005L114.548 265.908V267.939H118.018V261.066L114.415 256.849V250.757L110.279 237.949L107.477 232.17V224.516L115.216 228.89V236.387L122.421 248.57L120.686 251.226L132.161 268.095V277.623H129.359V280.591L136.031 288.401H142.035L159.381 301.365L166.186 297.148L173.391 305.582C174.192 303.083 175.526 299.178 175.526 299.178H181.263Z" fill="#C3CDDF" stroke="white" stroke-width="0.6" stroke-miterlimit="10"/>
<path d="M187.001 290.432H186.467L185.266 299.96H186.6L187.401 299.179V297.929L191.004 293.712L192.872 288.245L190.87 285.902L187.001 290.432Z" fill="#C3CDDF" stroke="white" stroke-width="0.6" stroke-miterlimit="10"/>
<path d="M203.013 324.17V317.454L205.014 316.36V309.332L206.482 307.613V305.271H200.077L193.272 309.956V314.174H190.203V316.204L196.074 323.077L203.146 324.326L203.013 324.17Z" fill="#C3CDDF" stroke="white" stroke-width="0.6" stroke-miterlimit="10"/>
<path d="M184.733 306.052L180.863 310.738H189.669C189.669 309.957 189.669 309.019 189.669 309.019L184.733 306.052Z" fill="#C3CDDF" stroke="white" stroke-width="0.6" stroke-miterlimit="10"/>
<path d="M193.272 309.957L200.077 305.427H206.615V302.459L205.014 300.585H189.669L184.866 306.364L189.803 309.332C189.803 309.332 189.803 310.113 189.803 311.05H190.337V314.486H193.406V309.957H193.272Z" fill="#C3CDDF" stroke="white" stroke-width="0.6" stroke-miterlimit="10"/>
<path d="M203.146 324.327L196.074 323.077L196.341 323.233V328.856L201.812 335.104V336.822L205.014 340.571V337.603H205.948L206.748 328.388L203.146 324.327Z" fill="#C3CDDF" stroke="white" stroke-width="0.6" stroke-miterlimit="10"/>
<path d="M226.496 334.949L222.493 330.107L218.09 329.794L211.686 334.168L206.749 328.389L205.948 337.604H209.017V340.572H215.955V336.511L218.891 333.075L221.96 336.823L220.759 338.229L223.427 341.353L226.496 337.917V334.949Z" fill="#C3CDDF" stroke="white" stroke-width="0.6" stroke-miterlimit="10"/>
<path d="M217.023 397.271L219.024 400.238L221.96 390.554L231.166 386.025V376.653L218.224 366.656L217.29 367.593V369.624L214.221 371.342V375.559L210.618 379.777V387.118L214.087 391.179V392.429L213.153 393.522L213.554 397.115L217.023 397.271Z" fill="#C3CDDF" stroke="white" stroke-width="0.6" stroke-miterlimit="10"/>
<path d="M239.972 387.586L246.911 386.337L250.513 388.679L248.512 393.99L251.714 394.771L253.582 380.713L250.38 376.965V373.06H254.116V370.717H251.714V367.593H261.455L259.32 362.438V345.725H253.582L250.78 342.445H243.975L242.107 332.293H240.106L242.774 323.546L245.576 321.671L245.443 321.203L249.446 318.079L247.711 315.267L240.506 321.984H235.436L231.833 326.201V329.95L227.03 335.573L226.496 334.948V337.916L223.427 341.352L225.562 343.851V348.693L224.628 349.787V359.158L218.223 366.656L231.166 376.652V377.902L239.038 382.275L239.972 387.586Z" fill="#C3CDDF" stroke="white" stroke-width="0.6" stroke-miterlimit="10"/>
<path d="M255.984 449.909L257.452 443.661L257.719 435.383L254.383 428.198H250.247V422.575H243.442L235.703 413.515L240.106 407.267V400.238L248.379 396.334H251.581L251.714 394.772L248.512 393.991L250.513 388.68L246.911 386.337L239.973 387.587L239.039 382.276L231.166 377.902V386.025L221.96 390.554L219.024 400.238L217.023 397.271L213.553 397.115L213.153 393.522L210.351 396.802V399.926L213.02 403.05V404.3H211.018V406.018L216.489 409.61L219.291 415.702L231.033 440.069V443.817L249.313 457.875V460.687L253.983 463.967L257.318 460.218L256.384 458.187L258.92 453.814L255.984 449.909Z" fill="#C3CDDF" stroke="white" stroke-width="0.6" stroke-miterlimit="10"/>
<path d="M286.006 340.102V341.821H283.337V347.912L285.872 351.036V351.505L287.607 351.349L288.941 357.284L286.539 359.939V364.781H288.007V367.437L291.476 370.248L296.814 366.968V359.939L294.679 357.44V351.973H297.748V346.819L288.941 335.573H288.007V337.759L286.006 340.102Z" fill="#C3CDDF" stroke="white" stroke-width="0.6" stroke-miterlimit="10"/>
<path d="M294.679 351.973V357.44L296.813 359.939V366.968L301.217 367.281V364.781L304.953 363.532L306.554 365.25L308.956 360.564V357.909L307.354 356.347V350.88L309.089 350.411L310.023 348.225L307.221 347.131H298.014L297.747 346.819V351.973H294.679Z" fill="#C3CDDF" stroke="white" stroke-width="0.6" stroke-miterlimit="10"/>
<path d="M268.793 374.309L274.931 367.124V364.469H272.262V359.627L270.261 356.815H277.466L285.872 354.004V351.505V351.036L283.337 347.912V341.82H286.006V340.102L288.007 337.759V335.572H284.805V330.418L279.201 324.014H273.863L271.595 326.669H267.726L266.258 324.951H258.786V321.827H254.383L253.315 317.61H251.714V321.046L247.845 324.639L249.846 327.606L249.312 332.292L247.444 333.073L244.909 328.856L246.377 325.107L245.576 321.671L242.774 323.545L240.106 332.292H242.107L243.975 342.445H250.78L253.582 345.725H259.32V362.438L261.455 367.593H261.188V374.309H268.793Z" fill="#C3CDDF" stroke="white" stroke-width="0.6" stroke-miterlimit="10"/>
<path d="M309.623 364.781L313.359 365.25L318.029 355.097L313.359 349.63L310.023 348.225L309.089 350.411L307.355 350.88V356.347L308.956 357.909V360.564L306.955 364.469L308.689 365.875L309.623 364.781Z" fill="#C3CDDF" stroke="white" stroke-width="0.6" stroke-miterlimit="10"/>
<path d="M376.471 400.238H371.134L360.993 388.367H352.453L347.517 387.118L342.98 391.023V385.712L332.839 379.308L329.637 382.9H327.502L330.037 377.277V375.715H322.966L320.43 379.308L318.963 378.058L323.633 370.873V366.656H321.231L319.096 356.347L318.429 355.566L318.029 355.097L313.359 365.25L309.623 364.782L308.689 365.875L306.954 364.469L306.554 365.25L304.953 363.532L301.216 364.782V367.281L296.813 366.968L291.476 370.248L288.007 367.437V364.782H286.539V359.939L288.941 357.284L287.607 351.349L285.872 351.505V354.004L277.466 356.816H270.261L272.262 359.627V364.469H274.931V367.124L268.793 374.31H261.188V367.593H251.714V370.717H254.116V373.06H250.38V376.965L253.582 380.714L251.581 396.333H248.378L240.106 400.238V407.267L235.702 413.515L243.441 422.574H250.246V428.197H254.383L254.65 428.666L258.386 429.134L259.32 427.104H260.654L264.523 422.418H269.193V431.165L273.997 436.632H276.932L281.335 441.786H285.605L287.34 443.817V454.126H296.28V458.968H298.281L299.882 463.185L297.881 470.839L299.882 476.462V481.617H307.354L309.623 491.145H313.759V498.642H316.828V505.515L305.353 519.104L322.832 532.38L323.9 538.941L325.634 536.91V529.881L330.838 523.79V517.854L335.908 511.919V508.17L334.307 506.296V497.549H335.908L346.316 485.521H356.857V483.022H359.659L363.662 469.746V463.029H364.862V437.882H366.864L371.4 427.885H373.936L379.006 421.793V408.673L376.471 400.238Z" fill="#C3CDDF" stroke="white" stroke-width="0.6" stroke-miterlimit="10"/>
<path d="M261.322 468.965L261.722 476.15L264.924 485.834H267.459H268.393L271.329 480.992L283.471 482.242V470.058L294.546 468.028L298.015 470.058L299.883 463.186L298.282 458.968H296.28V454.126H287.34V443.817L285.606 441.787H281.336L276.933 436.632H273.997L269.194 431.165V422.418H264.524L260.655 427.104H259.32L258.386 429.135L254.65 428.666L257.719 435.383L257.452 443.661L255.985 449.909L258.92 453.814L256.385 458.187L257.319 460.218L256.518 460.999L258.92 467.403L261.322 468.965Z" fill="#C3CDDF" stroke="white" stroke-width="0.6" stroke-miterlimit="10"/>
<path d="M313.092 544.095H319.497L323.9 538.941L322.832 532.38L306.554 520.041L304.819 522.228L307.221 538.316L307.621 537.847L313.092 544.095Z" fill="#C3CDDF" stroke="white" stroke-width="0.6" stroke-miterlimit="10"/>
<path d="M302.952 496.768L299.883 506.608L309.623 507.702L313.493 503.328L314.026 498.642H313.76V491.145H309.623L307.355 481.617H299.883V476.462L297.881 470.839L298.015 470.058L294.546 468.028L283.471 470.058V482.086L288.942 489.114L302.952 496.768Z" fill="#C3CDDF" stroke="white" stroke-width="0.6" stroke-miterlimit="10"/>
<path d="M297.748 627.035H294.946L294.545 624.692L285.606 623.599L283.604 617.351L277.066 612.509L279.067 607.354L277.466 587.83H274.664L267.726 572.679V538.94L262.789 527.85V517.854L265.458 506.295V495.674L268.66 491.925V485.833H267.459H264.924L261.722 476.149L261.321 468.964L258.92 467.558L256.518 461.154L253.983 464.122L254.116 464.278L256.251 477.555V514.417L258.119 516.604V520.04L256.651 521.759V524.414L259.987 533.005C259.987 533.005 260.521 551.904 259.987 552.373C259.453 552.998 258.119 552.373 258.119 552.373V554.716L261.722 563.775V572.991L263.323 574.865V583.925H265.991V575.334L267.326 576.427L270.395 593.453H268.793L267.326 588.767L265.191 588.454L266.525 594.234L264.924 598.295L266.525 600.794H270.661V604.543H267.993L273.463 618.444H275.865V621.568L281.603 628.909L286.673 633.127L301.35 638.75L302.151 636.563L297.748 627.035Z" fill="#C3CDDF" stroke="white" stroke-width="0.6" stroke-miterlimit="10"/>
<path d="M316.828 498.642H314.026L313.492 503.328L309.623 507.701L299.882 506.608L302.951 496.768L288.941 489.114L283.471 482.085V482.241L271.329 480.992L268.393 485.834V491.925L265.191 495.674V506.295L262.522 517.854V527.851L267.593 538.941V572.679L274.397 587.83H277.333L278.934 607.355L276.933 612.509L283.471 617.351L285.472 623.599L294.412 624.692L294.812 627.035H297.748L302.151 636.407L301.484 638.594L305.086 640L312.692 637.501V635.626H309.623L297.881 626.098H295.479V624.536L296.413 623.443L292.944 616.414V614.696H295.479V609.698L299.349 605.168V600.951H294.679L290.809 596.421V592.047H294.812V582.207H297.214V577.365H293.078L289.475 573.148V570.18L296.814 573.46L299.882 569.867V564.713L297.881 562.37V559.715L300.55 562.839L313.225 558.153V555.185L314.693 553.467V549.406H311.491V545.188L306.421 539.253L307.221 538.316L304.819 522.228L306.554 520.041L305.353 519.104L316.828 505.515V498.642Z" fill="#C3CDDF" stroke="white" stroke-width="0.6" stroke-miterlimit="10"/>
<path d="M172.59 370.092L173.925 367.749L175.793 369.623L174.191 371.342L172.59 370.092Z" fill="#C3CDDF" stroke="white" stroke-width="0.6" stroke-miterlimit="10"/>
<path d="M175.793 370.717L177.661 377.121L175.926 378.839L172.991 379.152L172.323 375.872L174.992 373.841L174.725 371.654L175.793 370.717Z" fill="#C3CDDF" stroke="white" stroke-width="0.6" stroke-miterlimit="10"/>
<path d="M176.86 370.562L177.261 372.28L178.995 371.343L178.461 369.312L176.86 370.562Z" fill="#C3CDDF" stroke="white" stroke-width="0.6" stroke-miterlimit="10"/>
<path d="M178.862 373.216L178.462 374.622L179.396 374.934L179.796 373.372L178.862 373.216Z" fill="#C3CDDF" stroke="white" stroke-width="0.6" stroke-miterlimit="10"/>
<defs>
<linearGradient id="paint0_linear_1719_10125" x1="939.344" y1="211.213" x2="939.344" y2="191.659" gradientUnits="userSpaceOnUse">
<stop stop-color="#FF7400"/>
<stop offset="1" stop-color="#FFAB52"/>
</linearGradient>
<linearGradient id="paint1_linear_1719_10125" x1="880.249" y1="373.012" x2="880.249" y2="367.253" gradientUnits="userSpaceOnUse">
<stop stop-color="#FF7400"/>
<stop offset="1" stop-color="#FFAB52"/>
</linearGradient>
</defs>
</svg>
