<svg width="1110" height="642" viewBox="0 0 1110 642" fill="none" xmlns="http://www.w3.org/2000/svg">
<path d="M965.295 173.301L970.366 178.455L973.434 175.956L968.898 173.613L972.634 172.52L979.039 175.956L979.172 172.364L983.575 169.552L979.973 165.023L967.43 159.712H965.295L969.698 169.084H966.496L965.295 173.301Z" fill="#C3CDDF" stroke="white" stroke-width="0.6" stroke-miterlimit="10"/>
<path d="M982.508 188.14L974.369 177.987L970.9 180.017V185.484H974.369V193.763L969.165 199.854L967.697 198.605V205.946L964.762 205.165L957.69 205.946L953.02 212.194V214.537L950.351 217.661L958.09 226.876L960.092 224.533V218.442L955.555 215.005L963.161 210.944H967.831V213.912L970.633 217.192L975.837 211.101H980.373V207.664H983.576V203.759L982.508 202.51V188.14Z" fill="#C3CDDF" stroke="white" stroke-width="0.6" stroke-miterlimit="10"/>
<path d="M961.293 213.443V214.38H963.028V212.662H965.163L967.031 214.848L965.163 216.879H963.428V219.69H961.693L960.092 215.942V213.599L961.293 213.443Z" fill="#C3CDDF" stroke="white" stroke-width="0.6" stroke-miterlimit="10"/>
<path d="M791.704 330.278V343.555L793.838 348.553L799.176 345.117V340.118L793.705 330.278H791.704Z" fill="#C3CDDF" stroke="white" stroke-width="0.6" stroke-miterlimit="10"/>
<path d="M942.212 312.004L948.483 317.627L950.618 313.253L945.148 307.943L941.278 309.036L938.743 304.663V299.977H940.878L942.079 294.666L939.944 288.887L933.673 287.637V298.883H931.805L936.208 310.442L942.212 312.004Z" fill="#C3CDDF" stroke="white" stroke-width="0.6" stroke-miterlimit="10"/>
<path d="M938.343 317.627H939.811V312.941L935.674 311.691L938.343 317.627Z" fill="#C3CDDF" stroke="white" stroke-width="0.6" stroke-miterlimit="10"/>
<path d="M943.947 330.122L947.683 334.184L952.619 329.498L949.15 323.562L947.549 325.437L942.612 319.813V326.53H946.482V330.122H943.947Z" fill="#C3CDDF" stroke="white" stroke-width="0.6" stroke-miterlimit="10"/>
<path d="M952.353 320.126L950.618 322.313L954.488 327.936L957.023 324.187L955.422 322.156V318.876L953.821 316.689L950.618 317.627L952.353 320.126Z" fill="#C3CDDF" stroke="white" stroke-width="0.6" stroke-miterlimit="10"/>
<path d="M960.626 340.588L957.023 328.717L954.755 329.342L955.689 333.246L952.62 336.839H947.016L942.079 342.462H943.414L945.548 339.963H951.153V345.274L954.755 349.491H956.089V341.681H959.425V345.898L960.626 340.588Z" fill="#C3CDDF" stroke="white" stroke-width="0.6" stroke-miterlimit="10"/>
<path d="M926.868 337.776L936.475 326.53L934.34 324.187L926.201 336.214L926.868 337.776Z" fill="#C3CDDF" stroke="white" stroke-width="0.6" stroke-miterlimit="10"/>
<path d="M1043.62 597.374L1049.89 599.405L1083.65 578.006V573.476H1080.31L1080.05 570.665L1043.62 597.374Z" fill="#C3CDDF" stroke="white" stroke-width="0.6" stroke-miterlimit="10"/>
<path d="M1086.45 573.788L1088.45 575.819L1109 558.169L1107.27 556.294L1102.46 558.169L1099.13 556.294L1100.99 552.702L1099.26 545.048L1095.66 543.018V553.951L1086.85 564.417L1089.65 568.478L1086.45 573.788Z" fill="#C3CDDF" stroke="white" stroke-width="0.6" stroke-miterlimit="10"/>
<path d="M974.503 433.992L976.237 432.274V430.087H971.567L972.101 431.337L974.503 433.992Z" fill="#C3CDDF" stroke="white" stroke-width="0.6" stroke-miterlimit="10"/>
<path d="M1036.15 490.536V483.195H1033.61V472.573L1025.34 462.889V447.269H1019.47V434.149H1017.2V427.12H1014.27L1010.66 442.115V448.05L1006.79 461.796H1003.32L990.114 446.332L996.519 435.711L994.651 432.587L991.582 434.618L980.107 431.337L979.974 436.023H973.436L967.165 443.365V448.207H962.761L958.358 443.208L940.345 458.203V464.295L907.255 482.101L903.385 493.347L906.054 500.376L902.184 504.125V533.49L899.916 536.145V541.3L902.985 544.736H911.257L917.395 537.707H929.404L932.606 533.959L959.292 528.335L967.965 532.084V544.736L969.433 543.018L978.773 532.24L979.974 534.427L972.635 544.736L974.103 546.142L978.239 542.237L975.971 547.704H979.974V559.419L988.38 562.699L993.584 559.419L996.919 562.699L1011.86 556.295L1016.27 548.172L1030.81 532.865L1040.95 512.091V496.003L1036.15 490.536Z" fill="#C3CDDF" stroke="white" stroke-width="0.6" stroke-miterlimit="10"/>
<path d="M992.516 574.258L987.846 570.822L985.445 573.789V579.413L984.244 580.506V585.192H988.38L990.782 582.224H992.25L999.722 573.477L997.987 571.915L992.516 574.258Z" fill="#C3CDDF" stroke="white" stroke-width="0.6" stroke-miterlimit="10"/>
<path d="M1050.96 399.785H1049.76L1048.16 402.441H1038.28L1039.08 405.877H1042.95L1044.42 407.595L1050.56 403.69H1053.36V397.13H1050.96V399.785Z" fill="#C3CDDF" stroke="white" stroke-width="0.6" stroke-miterlimit="10"/>
<path d="M1048.56 389.789L1055.36 395.881V399.161H1056.96V395.1L1048.56 388.227V389.789Z" fill="#C3CDDF" stroke="white" stroke-width="0.6" stroke-miterlimit="10"/>
<path d="M1061.23 401.659L1064.57 410.25H1066.57V406.658L1062.57 401.035L1061.23 401.659Z" fill="#C3CDDF" stroke="white" stroke-width="0.6" stroke-miterlimit="10"/>
<path d="M1068.04 407.439L1067.9 409.47L1071.24 412.594H1073.51V411.657H1071.64L1068.04 407.439Z" fill="#C3CDDF" stroke="white" stroke-width="0.6" stroke-miterlimit="10"/>
<path d="M1080.05 417.905V415.25L1076.84 412.594H1074.84V414.156H1077.11L1078.71 417.905H1080.05Z" fill="#C3CDDF" stroke="white" stroke-width="0.6" stroke-miterlimit="10"/>
<path d="M1067.9 416.03L1071.51 419.466H1073.51V417.436L1067.9 413.375V416.03Z" fill="#C3CDDF" stroke="white" stroke-width="0.6" stroke-miterlimit="10"/>
<path d="M1078.44 423.372H1082.71V421.81L1078.44 420.248V423.372Z" fill="#C3CDDF" stroke="white" stroke-width="0.6" stroke-miterlimit="10"/>
<path d="M1041.89 422.278V420.247H1038.95L1033.48 409.157H1037.62L1036.41 405.252L1030.28 402.441L1029.48 398.067L1026.54 395.881H1025.47L1014 389.633V421.341L1018.27 421.965L1022.27 413.999L1030.41 416.03L1035.88 426.339H1042.02L1045.22 428.838L1046.29 426.027L1043.49 422.278H1041.89Z" fill="#C3CDDF" stroke="white" stroke-width="0.6" stroke-miterlimit="10"/>
<path d="M656.94 178.143L659.208 179.861H661.343V179.236L660.409 178.143L660.009 175.643L655.072 172.988H651.336L640.795 168.302L639.061 168.771C641.462 171.582 643.731 174.238 643.864 174.394C643.997 174.55 643.864 176.424 643.864 176.424L642.396 178.143H647.6L649.335 180.173H654.939L656.94 178.143Z" fill="#C3CDDF" stroke="white" stroke-width="0.6" stroke-miterlimit="10"/>
<path d="M656.54 187.203L657.207 186.265L660.409 188.608L660.81 190.639L662.811 190.483L662.411 187.046L659.209 185.797L660.142 184.547L656.273 180.174H655.206H649.602L650.269 180.955L653.871 189.702L656.14 186.578L656.54 187.203Z" fill="#C3CDDF" stroke="white" stroke-width="0.6" stroke-miterlimit="10"/>
<path d="M657.206 186.265L656.539 187.202L658.808 190.795L660.809 190.639L660.409 188.608L657.206 186.265Z" fill="#C3CDDF" stroke="white" stroke-width="0.6" stroke-miterlimit="10"/>
<path d="M667.348 176.581L664.946 179.861L661.877 176.424L660.143 175.487L660.543 178.143L661.477 179.236V179.861H659.209L656.94 178.143L655.206 180.173H656.273L660.143 184.547L659.209 185.796L662.411 187.046L662.678 190.17L666.013 186.733L668.015 187.358L667.748 191.263L670.016 192.513V190.014L671.484 188.295V184.859L673.619 183.453L667.348 176.581Z" fill="#C3CDDF" stroke="white" stroke-width="0.6" stroke-miterlimit="10"/>
<path d="M689.63 287.012H679.623L672.551 295.446L671.084 293.728L658.541 292.635V296.383L656.807 298.414L656.94 298.57L661.21 315.752L691.098 301.694V298.57L694.301 296.383L690.298 286.699L689.63 287.012Z" fill="#C3CDDF" stroke="white" stroke-width="0.6" stroke-miterlimit="10"/>
<path d="M701.239 257.647H703.908L702.173 252.649L694.835 262.333H688.163L690.431 267.175L699.505 268.112L701.239 261.865V257.647Z" fill="#C3CDDF" stroke="white" stroke-width="0.6" stroke-miterlimit="10"/>
<path d="M716.85 268.893L712.18 263.27L704.841 260.302L703.907 257.647H701.239V261.864L699.504 268.112L701.906 271.08L700.038 280.92L690.298 286.7L694.301 296.384L710.179 286.075L716.85 268.893Z" fill="#C3CDDF" stroke="white" stroke-width="0.6" stroke-miterlimit="10"/>
<path d="M686.028 259.208V250.93H684.027L682.559 255.459L684.56 259.989L686.028 259.208Z" fill="#C3CDDF" stroke="white" stroke-width="0.6" stroke-miterlimit="10"/>
<path d="M667.348 237.654L660.81 237.029L645.465 222.815H640.662L634.391 226.251L636.792 229.531L635.992 232.968H633.323L631.322 237.654L626.385 235.935L625.317 242.808H628.653L656.807 298.414L658.541 296.384V292.635L671.084 293.728L672.552 295.446L679.623 287.012H689.631L700.038 280.92L701.906 271.08L699.504 268.112L690.431 267.175L688.163 262.333H687.762L686.028 260.146V259.209L684.56 259.99L682.559 255.46L682.292 256.085L674.286 240.465V233.749L669.082 232.812L667.348 237.654Z" fill="#C3CDDF" stroke="white" stroke-width="0.6" stroke-miterlimit="10"/>
<path d="M630.254 215.942V213.443H631.055V212.193L628.119 209.694V211.256L625.984 218.598H627.986L630.254 215.942Z" fill="#C3CDDF" stroke="white" stroke-width="0.6" stroke-miterlimit="10"/>
<path d="M628.119 218.441L627.986 218.598H625.985L623.316 227.813H623.183L626.385 235.467V235.935L626.785 236.092L628.119 227.969V218.441Z" fill="#C3CDDF" stroke="white" stroke-width="0.6" stroke-miterlimit="10"/>
<path d="M631.455 222.19H633.056L646.132 211.881V205.477V204.071V201.884H647.733L650.402 198.917H649.335H643.464L641.062 201.572H630.254L628.119 204.071V209.694L631.055 212.193V213.443H630.254V215.942L628.119 218.441V219.847H629.32L631.455 222.19Z" fill="#C3CDDF" stroke="white" stroke-width="0.6" stroke-miterlimit="10"/>
<path d="M671.885 228.281H670.817V223.439L668.949 221.253H667.615L665.747 219.222H663.746V217.504L660.81 214.224V211.1L662.411 209.225H663.612V208.601L662.812 207.664V204.54H660.41L657.341 198.917H655.74H654.539H650.403L647.734 201.884H646.133V204.071V205.477V211.881L638.928 217.66L640.796 222.815H645.466L660.81 237.028L667.348 237.653L669.083 232.811L674.287 233.748V233.592L671.885 230.937V228.281Z" fill="#C3CDDF" stroke="white" stroke-width="0.6" stroke-miterlimit="10"/>
<path d="M723.521 248.9H726.857V245.464H724.055V239.997H722.187L716.049 232.812L718.985 229.532V225.939H716.316L714.315 216.88L713.381 215.786V201.573H711.112L702.573 196.106H698.97V194.231H691.365V197.98H688.029V199.542L682.025 201.573L675.22 197.511H672.018L670.016 193.138V192.826V192.513L667.748 191.264L668.015 187.359L666.013 186.734L662.677 190.17L662.811 190.483L660.809 190.639L658.808 190.795L656.54 187.202L656.139 186.578L653.871 189.702L657.607 198.917H657.34L660.409 204.54H662.811V207.664L663.611 208.601V209.226H662.411L660.809 211.101V214.224L663.745 217.505V219.223H665.746L667.614 221.253H668.949L670.817 223.44V228.282H671.884V230.937L674.286 233.593V232.343H679.223L684.827 243.433L688.029 243.589L694.033 249.681H701.105V247.338H705.642V251.399L721.386 254.836V251.555L723.521 248.9Z" fill="#C3CDDF" stroke="white" stroke-width="0.6" stroke-miterlimit="10"/>
<path d="M782.764 145.341V141.592L781.163 141.124H775.959L769.421 133.47L763.55 134.72L760.882 131.908L758.347 134.251L742.602 119.256V116.132L737.532 122.068H734.329V118.475H725.923L723.255 113.008L716.717 112.852L696.435 118.944L695.101 120.662L696.569 123.942L694.968 129.253L699.904 131.283V135.188H692.699L690.564 132.689H685.094L682.959 135.188L672.551 129.877H667.214L660.009 134.407L662.277 137.063L660.943 138.624L657.474 134.563L655.339 137.063V145.81H657.741V149.402H661.076L666.414 155.65L667.081 154.869L672.018 151.901H678.422L680.557 154.4V159.242H673.886L670.817 162.835V164.709H672.952L677.622 170.176H680.691V173.769L681.625 177.205L682.292 174.393H684.693L684.827 174.55L686.561 173.769L689.097 175.955L690.698 178.923H692.432L689.23 161.273L697.903 158.618L699.904 159.867L698.837 156.899L699.904 154.244L702.173 155.338L705.508 161.742L704.841 163.147L707.11 164.553L710.712 168.77H720.719L723.922 172.519V175.018H727.257V179.392H732.595V182.516H735.664L741.401 173.456V171.582H748.74V169.708H751.275L752.876 171.582H766.219L771.423 173.456L772.357 169.083L767.42 161.117L771.69 159.242L775.292 160.18V159.086L773.824 157.212V151.589H782.097V149.714L780.496 147.84V145.341H782.764ZM761.415 153.463H750.074L747.138 156.899L747.405 161.585L744.203 159.555V154.557L746.738 151.589H761.282V153.463H761.415Z" fill="#C3CDDF" stroke="white" stroke-width="0.6" stroke-miterlimit="10"/>
<path d="M720.319 207.352V205.009L725.123 202.822V197.668H730.46V193.45H726.857L719.518 189.077L711.112 179.236H704.841V176.581L701.239 172.364H698.437V175.019H696.302V179.236L692.032 178.768L692.165 179.236H690.431L688.83 176.269L686.161 174.082L684.56 174.863L685.494 177.362L688.029 179.705L687.495 181.892H682.158V185.64H684.56L688.029 189.702V197.98H691.365V194.231H698.97V196.106H702.573L711.112 201.573H713.381V205.477L717.917 207.352H720.319Z" fill="#C3CDDF" stroke="white" stroke-width="0.6" stroke-miterlimit="10"/>
<path d="M736.464 194.388L732.194 188.765V186.578H735.663L740.066 180.643L741.934 181.892L740.867 182.985L742.468 184.547H746.338L749.006 181.58L743.802 177.831V179.705L739.533 177.831L741.668 175.176L740.6 174.395L735.263 182.985H732.194V179.705H726.857V175.332H723.521V172.833L720.452 169.084H710.312L706.842 165.023L704.574 163.461L702.84 166.897L699.37 165.804L700.171 162.211L699.504 160.337L697.636 159.087L688.963 161.587L692.032 178.768L696.302 179.237V175.019H698.436V172.364H701.238L704.841 176.581V179.237H711.112L719.518 189.077L726.857 193.451H730.459V196.887L734.596 198.449L736.464 194.388Z" fill="#C3CDDF" stroke="white" stroke-width="0.6" stroke-miterlimit="10"/>
<path d="M489.353 118.32H488.019L487.085 119.569L485.217 118.007L488.686 114.259H484.416V117.07L482.948 118.788H478.545V121.912L480.146 123.943L474.809 130.191L476.81 132.69H482.281L486.017 128.316H489.62L490.954 123.474V120.507L491.755 119.569H489.353V118.32Z" fill="#C3CDDF" stroke="white" stroke-width="0.6" stroke-miterlimit="10"/>
<path d="M491.754 119.569L494.289 116.602L492.155 114.259H488.685L485.216 118.007L487.084 119.569L488.018 118.32H489.353V119.569H491.754Z" fill="#C3CDDF" stroke="white" stroke-width="0.6" stroke-miterlimit="10"/>
<path d="M514.971 126.598L514.037 123.474L512.836 125.036H509.767L511.102 122.693L508.3 116.445H507.232L504.831 113.634L502.162 110.51V108.636L505.231 105.199V103.95H498.826L501.495 100.826V99.4199H498.026L495.224 102.7H492.555V106.917L491.488 108.011V111.291H490.821L492.021 112.697L492.689 111.759V113.478H494.023L495.491 111.759L496.291 112.697L494.823 114.571L495.757 115.664H499.493L500.027 119.882V123.474H495.09L495.491 125.661V128.785H493.356V130.347H495.357L497.625 131.128L500.828 130.347L499.093 132.377H495.757L490.821 138.313H492.288L496.425 136.595L498.026 134.72H500.161L501.361 135.97L510.968 134.564L513.103 131.909H511.369L514.971 126.598Z" fill="#C3CDDF" stroke="white" stroke-width="0.6" stroke-miterlimit="10"/>
<path d="M489.753 103.481L492.288 100.982L488.952 100.357V102.387L487.752 102.856L488.952 106.449L489.753 103.481Z" fill="#C3CDDF" stroke="white" stroke-width="0.6" stroke-miterlimit="10"/>
<path d="M503.896 95.9834H501.628V98.014H502.829L503.896 95.9834Z" fill="#C3CDDF" stroke="white" stroke-width="0.6" stroke-miterlimit="10"/>
<path d="M541.39 18.9785L555.8 26.6321L562.739 18.9785L569.544 24.2892L573.546 20.6967L565.541 16.7917H578.483V13.1992L563.673 11.7935L541.39 13.9802V18.9785Z" fill="#C3CDDF" stroke="white" stroke-width="0.6" stroke-miterlimit="10"/>
<path d="M569.41 54.5908H567.275L555.4 64.4312V66.618H553.132V69.4295L550.597 72.5534L551.664 73.6468V75.5212H547.394V91.4532L545.66 96.9201L543.925 98.0135L548.462 107.541L547.795 110.197L543.925 111.759V115.351L547.528 115.039V113.633H548.729H553.399V110.353H558.469L561.138 100.669L565.674 95.3581V94.4209L561.004 88.9541V82.55L569.811 76.1459L572.079 73.6468L570.611 72.0848L573.68 68.4923H576.215V58.9643L569.41 54.5908Z" fill="#C3CDDF" stroke="white" stroke-width="0.6" stroke-miterlimit="10"/>
<path d="M530.448 151.121V149.246L532.316 148.934L534.184 143.467L524.311 138.625L523.11 139.562L516.438 132.533L513.77 134.72V137.375L508.833 139.25V141.593L505.097 141.436V139.25L502.295 139.874L503.362 141.749V144.248L499.626 144.56L498.692 143.155L493.355 144.873L494.289 148.309L500.293 150.34L500.427 151.745L504.029 156.119L502.161 168.146L508.966 172.676L510.167 171.114L517.239 172.988V170.958L520.708 168.458L526.446 170.645H529.114L533.25 167.053L530.182 165.178V155.806H527.646V154.557L530.448 151.121Z" fill="#C3CDDF" stroke="white" stroke-width="0.6" stroke-miterlimit="10"/>
<path d="M537.787 171.113V172.519H535.652V176.112L536.719 178.611H537.787V176.112H538.854V171.113H537.787Z" fill="#C3CDDF" stroke="white" stroke-width="0.6" stroke-miterlimit="10"/>
<path d="M482.815 194.387L481.881 193.138V191.576L483.348 190.638L481.881 186.733H484.816V180.954L486.417 178.924V176.737H480.546V175.487H478.011V181.891L474.542 190.951L476.143 192.825V199.854L480.813 198.136H481.213V196.261L482.815 194.387Z" fill="#C3CDDF" stroke="white" stroke-width="0.6" stroke-miterlimit="10"/>
<path d="M510.167 171.114L508.966 172.676L502.162 168.146L502.028 169.24L498.959 168.459H485.216L482.281 167.365L480.279 169.708H477.877L476.677 171.27L478.011 172.832V175.487H480.546V176.737H486.417V178.924L484.816 180.954V186.734H481.88L483.348 190.638L481.88 191.576V193.138L482.814 194.387L481.213 196.262V198.136H483.081L484.816 200.166V202.509L487.351 204.384L491.487 200.166H498.559L505.631 191.888V186.734L509.5 182.048V180.486L517.239 176.425V172.988L510.167 171.114Z" fill="#C3CDDF" stroke="white" stroke-width="0.6" stroke-miterlimit="10"/>
<path d="M581.686 50.3738H586.356L590.092 52.2482L590.759 53.3416L594.895 51.311V48.8119L580.885 46.9375L564.473 50.6862L556.468 55.5283V53.6539L552.331 56.9341H547.795V58.3398H552.598V59.5894L546.994 66.1497V69.586L539.255 78.8016H537.12V77.3958L526.446 83.1751V97.389L533.117 102.387L541.39 97.2328H543.658L543.925 98.0138L545.66 96.9204L547.394 91.4535V75.5215H551.664V73.6471L550.597 72.5537L553.132 69.4298V66.6183H555.4V64.4315L567.275 54.5911H569.41L571.412 55.8407H581.686V50.3738Z" fill="#C3CDDF" stroke="white" stroke-width="0.6" stroke-miterlimit="10"/>
<path d="M596.764 77.7079V75.0526L595.029 73.022V68.1799L591.56 63.6502L593.695 59.2767L589.692 57.871V53.8099L590.759 53.3413L590.092 52.2479L586.356 50.3735H581.686V55.8404H571.412L576.215 58.9643V68.4923H580.485V71.4601L573.28 80.0509V87.7045L578.217 93.4838L590.893 90.516L592.494 89.2665L593.028 89.8913L599.966 83.331V81.3004L596.764 77.7079Z" fill="#C3CDDF" stroke="white" stroke-width="0.6" stroke-miterlimit="10"/>
<path d="M536.853 179.706L535.653 181.111H533.651V182.517L534.985 184.079V190.015H536.853V189.077H538.855V183.767L539.655 182.829L538.855 179.706H536.853Z" fill="#C3CDDF" stroke="white" stroke-width="0.6" stroke-miterlimit="10"/>
<path d="M567.809 186.109L568.743 183.922L560.204 178.612L561.405 177.05L560.737 176.112L557.001 176.269L553.532 172.989L552.065 168.459L547.661 164.398L548.329 161.899L547.261 159.399L551.397 157.994V155.807L546.861 152.371L541.791 153.152L540.59 155.651L538.054 155.338L536.72 156.9L535.119 155.338L533.651 157.213H530.182V165.179L533.251 167.053L536.186 164.398L540.456 166.585L541.39 171.739L550.33 180.017L551.931 179.861L557.935 185.484L559.136 185.172L560.337 190.014L559.003 192.826L552.198 193.607L551.397 194.7L549.529 194.075L548.195 195.949L557.268 201.573L558.336 199.386L557.135 197.355L558.736 194.387L560.604 195.168L564.34 190.639V187.983L561.671 186.421L563.406 183.298L567.809 186.109Z" fill="#C3CDDF" stroke="white" stroke-width="0.6" stroke-miterlimit="10"/>
<path d="M540.59 149.403H532.984L532.317 148.778V148.935L530.449 149.247V151.121L527.647 154.558V155.807H530.182V157.213H533.651L535.119 155.339L536.72 156.901L538.055 155.339L540.59 155.651L541.657 153.464L538.588 151.59L540.59 149.403Z" fill="#C3CDDF" stroke="white" stroke-width="0.6" stroke-miterlimit="10"/>
<path d="M527.647 133.314L524.578 131.596L518.307 131.127L516.439 132.533L523.11 139.562L524.311 138.625L526.713 139.718L528.981 137.063L527.647 133.314Z" fill="#C3CDDF" stroke="white" stroke-width="0.6" stroke-miterlimit="10"/>
<path d="M528.714 130.659H527.38V129.722H529.782L531.116 128.16V127.066H529.915V126.129H531.516V123.786L530.849 122.537H527.113L523.511 124.88V127.379L518.307 131.127L524.578 131.596L527.647 133.314V133.47L528.714 132.065V130.659Z" fill="#C3CDDF" stroke="white" stroke-width="0.6" stroke-miterlimit="10"/>
<path d="M539.389 113.634L542.858 109.573L542.058 108.636L540.59 106.918L541.924 105.356V103.638H540.19L538.188 105.981H536.32L534.319 108.324V113.79L536.587 116.446L539.389 115.352V113.634Z" fill="#C3CDDF" stroke="white" stroke-width="0.6" stroke-miterlimit="10"/>
<path d="M554.333 129.722V126.129L553.132 124.723L553.265 120.037L550.463 116.757H547.528L545.393 119.1H542.191L540.723 117.382L539.389 115.82V115.352L536.587 116.445L536.987 116.914V121.131H535.786V122.537H533.918V121.131H530.983V122.537H530.849L531.516 123.786V126.129H529.915V127.066H531.116V128.16L529.782 129.722H527.38V130.659H528.714V132.065L527.647 133.47L528.981 137.063L526.713 139.718L534.185 143.467L532.317 148.778L532.984 149.402H538.054H540.59L540.189 149.871L548.729 148.778L549.396 146.122L552.598 144.092L546.861 140.655V136.438L553.532 133.47H555.667V131.127L554.333 129.722Z" fill="#C3CDDF" stroke="white" stroke-width="0.6" stroke-miterlimit="10"/>
<path d="M567.409 137.375V140.499L567.142 140.812H577.15L578.751 142.686H579.551V140.031L582.353 136.75H584.088V134.564L582.353 132.533V128.628H580.485V125.973H582.754V123.474L581.286 121.756V117.695H578.617H570.611L570.078 118.319H566.075V116.757H559.804L553.399 120.194L553.266 120.037L553.132 124.723L554.333 126.129V129.722L555.667 131.127V133.002L562.072 137.375H567.409Z" fill="#C3CDDF" stroke="white" stroke-width="0.6" stroke-miterlimit="10"/>
<path d="M586.622 101.762L588.624 104.105H591.426V103.637L592.76 102.543L590.759 98.3261L592.36 96.7641L592.227 95.2021L591.96 95.3583H581.686L577.416 98.3261L575.147 99.888L576.081 101.45L578.617 100.825L579.417 99.2633L580.752 100.825H582.486V102.856L584.621 101.762H586.622Z" fill="#C3CDDF" stroke="white" stroke-width="0.6" stroke-miterlimit="10"/>
<path d="M555.667 143.154H558.069L562.205 144.716L563.406 145.185L567.142 140.811L567.409 140.499V137.375H562.071L555.667 133.001V133.47H553.532L546.86 136.438V140.655L552.598 144.091L551.664 144.716H555.667V143.154Z" fill="#C3CDDF" stroke="white" stroke-width="0.6" stroke-miterlimit="10"/>
<path d="M579.018 115.665H576.216L575.682 114.571H574.481L572.88 115.04L570.612 117.695H578.617L579.018 115.665Z" fill="#C3CDDF" stroke="white" stroke-width="0.6" stroke-miterlimit="10"/>
<path d="M557.402 157.525H558.469V156.119L560.07 154.245L560.204 152.683L558.869 154.245H552.064L550.864 155.494L551.397 155.807V157.993L552.198 157.525L552.465 159.087H557.402V157.525Z" fill="#C3CDDF" stroke="white" stroke-width="0.6" stroke-miterlimit="10"/>
<path d="M558.869 154.245L560.204 152.683L560.604 152.214L563.006 147.372L562.205 144.717L558.069 143.155H555.667V144.717H551.664L549.396 146.123L548.729 148.778L540.189 149.871L538.588 151.589L541.657 153.464L541.79 153.151L546.861 152.37L550.864 155.494L552.064 154.245H558.869Z" fill="#C3CDDF" stroke="white" stroke-width="0.6" stroke-miterlimit="10"/>
<path d="M558.603 162.836L561.805 160.805L569.41 161.274V157.213H567.676V158.306H565.007L560.07 154.245L558.469 156.119V157.525H557.402V159.087H552.465L551.264 160.805L554.466 163.773L555.267 161.43L556.468 166.116L568.076 173.613L562.472 167.366L558.603 162.836Z" fill="#C3CDDF" stroke="white" stroke-width="0.6" stroke-miterlimit="10"/>
<path d="M576.215 108.948H584.755L585.822 110.354H587.29L589.158 112.54H590.092H592.494L594.629 109.885L593.428 107.073V105.199H591.426V104.106H588.624L586.623 101.763H584.621L582.486 102.856V107.542H579.951L577.416 104.574H574.748L572.613 107.073V111.291L573.146 112.072L573.413 110.041L576.215 108.948Z" fill="#C3CDDF" stroke="white" stroke-width="0.6" stroke-miterlimit="10"/>
<path d="M586.623 119.257L587.29 119.726L588.224 118.789L587.557 117.851L588.224 115.352L590.626 114.571L590.092 112.541H589.158L587.29 110.354H585.822L584.755 108.948H576.215L573.413 110.042L573.147 112.072V112.228L573.947 113.634L572.88 115.04L574.481 114.571H575.682L576.215 115.665H579.018L578.617 117.695H581.286V120.351H583.954L586.623 119.257Z" fill="#C3CDDF" stroke="white" stroke-width="0.6" stroke-miterlimit="10"/>
<path d="M585.155 129.566H588.891L589.425 130.191H592.627L593.161 130.816H597.698L598.365 131.597H603.035V132.69H603.835V130.191L605.17 128.785V123.631H609.306V120.975L603.035 116.133V112.384L594.896 110.51L594.629 109.885L592.494 112.541H590.092L590.626 114.571L588.224 115.352L587.557 117.851L588.224 118.788L587.29 119.726L586.623 119.257L583.954 120.35H581.286V121.756L582.753 123.474V125.974H580.485V128.629H582.353V131.284H583.687L585.155 129.566Z" fill="#C3CDDF" stroke="white" stroke-width="0.6" stroke-miterlimit="10"/>
<path d="M606.504 157.056L606.637 156.9V154.245H608.906H611.174V156.275H616.378L616.244 157.212L612.508 159.243V160.18H614.776V160.961H616.511V163.46L617.845 165.178L621.848 162.523V161.117H625.851V159.555H621.715L619.847 157.369V156.119L622.916 152.995H625.451L630.388 151.746V147.06H634.924V138.469H628.253L626.385 136.282H620.38L614.109 128.785H605.17L603.835 130.19V132.69H603.035V131.596H598.365L597.697 130.815H593.161L592.627 130.19H589.425L588.891 129.566H585.155L583.687 131.284H582.353V132.533L584.088 134.564V136.751H582.353L579.551 140.031V142.686H578.884L578.484 145.654L581.419 147.841H586.489L587.69 149.246H588.891L589.692 148.309H591.693L593.961 145.654H596.63L601.567 147.997V150.34L603.969 153.308V154.245H600.9V157.681L599.165 159.555L600.499 160.961L601.834 159.712L603.302 159.555V158.15H604.502L605.303 156.119" fill="#C3CDDF"/>
<path d="M606.504 157.056L606.637 156.9V154.245H608.906H611.174V156.275H616.378L616.244 157.212L612.508 159.243V160.18H614.776V160.961H616.511V163.46L617.845 165.178L621.848 162.523V161.117H625.851V159.555H621.715L619.847 157.369V156.119L622.916 152.995H625.451L630.388 151.746V147.06H634.924V138.469H628.253L626.385 136.282H620.38L614.109 128.785H605.17L603.835 130.19V132.69H603.035V131.596H598.365L597.697 130.815H593.161L592.627 130.19H589.425L588.891 129.566H585.155L583.687 131.284H582.353V132.533L584.088 134.564V136.751H582.353L579.551 140.031V142.686H578.884L578.484 145.654L581.419 147.841H586.489L587.69 149.246H588.891L589.692 148.309H591.693L593.961 145.654H596.63L601.567 147.997V150.34L603.969 153.308V154.245H600.9V157.681L599.165 159.555L600.499 160.961L601.834 159.712L603.302 159.555V158.15H604.502L605.303 156.119" stroke="white" stroke-width="0.6" stroke-miterlimit="10"/>
<path d="M598.764 153.151L598.231 159.087L599.298 159.399L600.899 157.681V154.245H603.968V153.307L601.566 150.34V147.997L596.63 145.654H593.961L593.294 146.435L594.895 149.09L598.764 153.151Z" fill="#C3CDDF" stroke="white" stroke-width="0.6" stroke-miterlimit="10"/>
<path d="M568.343 148.778V147.216H575.015L576.349 145.81H578.751L578.484 145.654L578.884 142.686H578.751L577.15 140.812H567.142L563.406 145.186L562.205 144.717L563.006 147.372V147.528L564.607 148.778H568.343Z" fill="#C3CDDF" stroke="white" stroke-width="0.6" stroke-miterlimit="10"/>
<path d="M579.418 149.247V151.746L575.815 155.807H573.414V156.588L574.481 158.618L578.484 163.304H581.953V165.96V166.116L583.688 168.146H592.361L594.362 165.803L598.632 166.272L601.167 168.459H601.3V162.679H604.102V159.868L606.504 157.056L605.303 156.119L604.503 158.15H603.302V159.556L601.834 159.712L600.5 160.961L599.165 159.556L599.299 159.399L598.231 159.087L598.765 153.152L594.896 149.09L593.295 146.435L591.693 148.309H589.692L588.891 149.247H587.69L586.49 147.841H581.419H581.286L580.752 149.247H579.418Z" fill="#C3CDDF" stroke="white" stroke-width="0.6" stroke-miterlimit="10"/>
<path d="M573.413 155.807H575.815L579.418 151.746V149.246H580.752L581.286 147.841L578.751 145.81H576.349L575.014 147.216H568.343V148.778H564.607L563.006 147.528L560.604 152.214L560.204 152.683L560.07 154.245L565.007 158.306H567.676V157.212H569.41L571.145 155.807H573.413Z" fill="#C3CDDF" stroke="white" stroke-width="0.6" stroke-miterlimit="10"/>
<path d="M569.677 168.614H571.145V165.959L569.944 164.553L570.745 163.616V161.898L569.41 161.117V161.273L561.805 160.805L558.603 162.835L562.472 167.365L563.94 169.708L564.874 170.645L565.408 171.27L568.076 173.613L567.809 170.957L569.677 168.614Z" fill="#C3CDDF" stroke="white" stroke-width="0.6" stroke-miterlimit="10"/>
<path d="M575.282 175.487L573.681 173.613H571.813L570.478 175.175H569.678L571.012 176.424L570.745 184.39L573.948 187.358L574.081 187.67H574.882V185.015H575.816L577.283 183.297V181.735L575.015 179.861L575.282 175.487Z" fill="#C3CDDF" stroke="white" stroke-width="0.6" stroke-miterlimit="10"/>
<path d="M581.018 174.238L576.215 174.863L575.414 175.8L575.281 175.488L575.014 179.861L577.282 181.736V181.58H579.284V179.705H581.552L582.353 178.924H583.02V176.581L581.018 174.238Z" fill="#C3CDDF" stroke="white" stroke-width="0.6" stroke-miterlimit="10"/>
<path d="M597.164 175.331L598.765 175.487V168.459H601.167L598.632 166.272L594.362 165.803L592.36 168.146H583.687L581.953 166.116V165.959L581.286 166.272V168.302L582.753 169.864V171.739H581.019V174.238L583.02 176.581V178.924H583.954L584.755 177.83H587.824L588.758 179.08H593.028V177.206H594.095H594.228L594.896 175.8L597.164 175.331Z" fill="#C3CDDF" stroke="white" stroke-width="0.6" stroke-miterlimit="10"/>
<path d="M641.062 201.573L643.464 198.917H649.335H654.539H655.74H657.608L650.269 180.955L647.867 178.143H642.663L640.262 180.955H632.122V179.549H626.652L623.45 175.8H616.111L610.373 178.612V179.549H603.435L598.765 175.488L597.164 175.332L594.896 175.8L594.228 177.206L594.896 178.143V179.393H594.362V181.736L596.63 181.579L597.965 181.111H602.901L604.503 181.736L603.168 183.61L596.897 183.454L593.695 185.484L595.963 191.888L599.566 201.104H604.369L606.104 203.135H609.573V199.542H612.642L616.111 203.603H621.181L623.183 201.26H628.12V204.072L630.254 201.573H641.062Z" fill="#C3CDDF" stroke="white" stroke-width="0.6" stroke-miterlimit="10"/>
<path d="M585.021 197.043L581.285 194.075L582.086 192.981L586.889 196.73V194.387L590.759 195.949V195.012L587.823 193.138L587.156 190.951L582.219 183.453L588.624 180.798L593.961 181.735H594.361V179.392H594.895V178.143L594.095 177.206H593.027V179.08H588.757L587.823 177.83H584.754L583.954 178.924H582.353L581.552 179.705H579.284V181.579H577.282V183.297L575.815 185.015H574.881V187.671H574.08L577.016 192.825L579.417 193.45L577.95 195.793L578.884 198.917L580.485 200.947L580.752 199.698L582.353 201.572L583.153 200.791L584.221 203.134L585.155 201.885L583.954 198.292L585.021 197.043Z" fill="#C3CDDF" stroke="white" stroke-width="0.6" stroke-miterlimit="10"/>
<path d="M593.694 207.039H591.56L591.159 206.727H588.891L588.624 206.415H586.089V208.445H589.291L590.626 209.538H595.429V207.977H593.694V207.039Z" fill="#C3CDDF" stroke="white" stroke-width="0.6" stroke-miterlimit="10"/>
<path d="M592.894 198.917H591.026V200.166H592.894V198.917Z" fill="#C3CDDF" stroke="white" stroke-width="0.6" stroke-miterlimit="10"/>
<path d="M589.558 200.791H588.624V201.572H589.558V200.791Z" fill="#C3CDDF" stroke="white" stroke-width="0.6" stroke-miterlimit="10"/>
<path d="M599.032 205.008H597.964V207.663H599.032V205.008Z" fill="#C3CDDF" stroke="white" stroke-width="0.6" stroke-miterlimit="10"/>
<path d="M595.162 196.574H593.961V198.292H595.162V196.574Z" fill="#C3CDDF" stroke="white" stroke-width="0.6" stroke-miterlimit="10"/>
<path d="M594.228 192.044H593.161V194.231H594.228V192.044Z" fill="#C3CDDF" stroke="white" stroke-width="0.6" stroke-miterlimit="10"/>
<path d="M594.495 200.01H593.561V201.259H594.495V200.01Z" fill="#C3CDDF" stroke="white" stroke-width="0.6" stroke-miterlimit="10"/>
<path d="M601.834 202.822H600.233V204.696H601.834V202.822Z" fill="#C3CDDF" stroke="white" stroke-width="0.6" stroke-miterlimit="10"/>
<path d="M581.285 168.303V166.272L581.953 165.96V163.305H578.483L574.48 158.619L573.413 156.588V155.807H571.145L569.41 157.213V161.118L570.744 161.899V163.617L569.944 164.554L571.145 165.96V168.615H570.878L573.546 173.614H573.68L575.414 175.8L576.215 174.863L581.019 174.238V171.739H582.753V169.865L581.285 168.303Z" fill="#C3CDDF" stroke="white" stroke-width="0.6" stroke-miterlimit="10"/>
<path d="M569.677 168.615L567.809 170.958L568.076 173.613L569.677 175.175H570.478L571.812 173.613H573.547L570.878 168.615H569.677Z" fill="#C3CDDF" stroke="white" stroke-width="0.6" stroke-miterlimit="10"/>
<path d="M644.665 42.2512L646.266 46.1561L653.338 47.8742L662.411 48.499L662.945 46.3123L656.14 41.1578L662.945 31.9422L680.691 26.6315V24.2886H673.62L672.952 25.0696H662.011L650.936 31.1612L644.665 42.2512Z" fill="#C3CDDF" stroke="white" stroke-width="0.6" stroke-miterlimit="10"/>
<path d="M722.454 13.3551L733.396 17.5724L745.404 18.1972V14.7609L730.327 9.4502L722.454 13.3551Z" fill="#C3CDDF" stroke="white" stroke-width="0.6" stroke-miterlimit="10"/>
<path d="M747.806 15.855V21.4781H751.676L759.815 19.7599V18.1979L752.61 15.855H747.806Z" fill="#C3CDDF" stroke="white" stroke-width="0.6" stroke-miterlimit="10"/>
<path d="M846.411 27.2568L846.945 30.3808L854.951 32.7237L866.692 31.1617V28.8188L846.411 27.2568Z" fill="#C3CDDF" stroke="white" stroke-width="0.6" stroke-miterlimit="10"/>
<path d="M870.295 29.9116V31.4736L882.303 32.7232V29.9116H870.295Z" fill="#C3CDDF" stroke="white" stroke-width="0.6" stroke-miterlimit="10"/>
<path d="M864.024 33.9731V36.7847L872.964 38.3466V36.9409L864.024 33.9731Z" fill="#C3CDDF" stroke="white" stroke-width="0.6" stroke-miterlimit="10"/>
<path d="M971.968 45.8442L974.77 48.3433L981.442 47.0938V45.0632L975.838 44.2822L971.968 45.8442Z" fill="#C3CDDF" stroke="white" stroke-width="0.6" stroke-miterlimit="10"/>
<path d="M943.815 117.226L966.231 143.467L965.163 144.092L962.628 141.124H960.093L961.961 148.153L969.7 155.338L968.632 155.807L965.563 154.245L965.83 157.212H964.496L960.893 152.995L959.959 146.903L957.291 143.779L951.82 135.345V132.846L947.551 129.566L946.75 126.442L943.815 123.318L945.015 121.131L942.614 118.007L943.815 117.226Z" fill="#C3CDDF" stroke="white" stroke-width="0.6" stroke-miterlimit="10"/>
<path d="M1009.06 69.8979L1011.73 69.2731L1026.67 74.74L1029.34 72.5532L1025.07 69.5855L1027.07 68.9607L1025.87 66.1491L1014.53 61.7756H1008.79L971.434 51.9353L957.424 50.5295L960.493 53.4972L959.159 55.0592L950.353 51.1543H927.136L924.601 48.1865L907.255 47.718L894.312 44.594V42.7197L868.293 40.0643L869.894 45.5312L851.348 43.5006V48.1865L835.069 36.628H822.927V39.5957L809.317 37.2528L791.171 36.0032L779.029 39.5957V38.6586L790.237 31.9421V30.0677L783.966 26.0066H770.489V24.2885H764.752V22.5703H756.079V26.319L727.659 31.6297L729.126 36.9404H715.516L718.986 41.3139L717.785 42.8759L713.248 41.4701L708.711 42.7197L704.041 37.5652H702.707L704.442 41.7825L702.04 43.9692L707.511 53.0286L715.917 53.8096L719.786 59.1203L718.719 59.9013L715.249 56.1526H711.113L707.911 65.5244L704.709 63.9624L707.244 56.7774L703.107 54.7468L700.039 47.4056L697.77 44.7502V39.1271H687.896V43.5006L686.429 45.2188L686.829 50.6857L695.102 54.903L694.168 58.0269L684.16 53.0286L666.414 47.5618L665.881 49.9047L673.486 54.2782L670.017 57.2459L668.416 53.4972L660.01 55.9964L658.942 57.2459H655.74V54.4344L640.929 60.2137V63.0252H636.259L634.391 60.8385V59.1203H636.526L634.391 56.6212H630.388V61.6194L632.79 63.0252L631.856 66.4615L626.786 64.7434L621.849 68.9607L623.85 72.8656L613.843 70.3665L613.309 72.5532L617.579 73.959L617.712 76.1457L609.04 73.6466L607.972 67.7111L601.434 63.65V61.9318L620.114 67.7111L623.85 63.3376L622.516 59.7451L607.305 53.9658L594.896 51.3105L589.826 53.8096V57.8707L593.829 59.2765L591.694 63.65L595.296 68.1797V73.0218L596.897 74.8962V77.5515L600.1 81.3002V83.1746L593.295 89.7348L595.029 91.7654H598.232V93.3273H595.43L592.494 95.0455V96.6075L590.893 98.0132L592.895 102.231L591.56 103.324V104.886H593.562V106.76L595.029 110.04L603.169 111.915V115.663L609.44 120.506V123.161H605.304V128.472H614.11L620.514 135.969H626.519L628.387 138.156H635.058V146.747H630.388V151.432L633.591 150.495V151.901L631.189 153.775H629.321V154.713L631.322 156.275L629.721 157.524V159.398L627.987 160.023L632.256 163.147H634.658C634.658 163.147 636.926 165.803 639.328 168.614L641.063 168.145L651.604 172.831H655.34L661.878 176.268L664.947 179.86L667.482 176.58L662.945 171.582V166.74L659.343 164.865V161.898L662.011 158.774H663.879L666.281 155.962L660.944 149.714H657.608V146.122H655.206V137.375L657.341 134.876L660.81 138.937L662.145 137.375L659.876 134.719L667.081 130.19H672.419L682.826 135.5L684.961 133.001H690.698L692.833 135.5H700.039V131.595L695.102 129.565L696.703 124.254L695.235 120.974L696.569 119.256L716.851 113.164L723.389 113.32L726.057 118.787H734.463V122.38H737.666L742.736 116.444V119.568L758.481 134.563L761.016 132.22L763.685 135.032L769.555 133.782L776.093 141.436H781.297L786.234 142.685L796.642 135.032H804.114V138.312H815.855V133.938L814.121 131.908V127.534L826.53 132.064L830.666 136.906H835.47L837.071 135.032L848.145 139.249L850.414 141.748H864.157L867.76 137.531L879.635 140.655L882.437 137.219V127.378L879.635 124.098L881.636 121.755H894.446L910.59 140.655H918.062L925.668 149.558H931.139V145.653H937.677V160.96H932.206L937.81 171.738L938.744 170.645H947.417L952.354 145.653L946.083 128.94L942.48 123.473L931.672 118.006V121.443L918.329 116.288L926.068 94.4207H948.351L953.021 96.2951V98.9504L961.027 95.9827V94.1083H957.424V83.9556H965.964L970.5 89.2662L973.97 85.2051L971.968 81.925L975.571 81.7688L978.773 87.3919L975.704 97.0761L977.172 98.9504L974.103 107.854L996.119 133.626L1000.12 128.94L998.12 126.441L1000.92 123.161L996.919 118.475H1000.26V116.288L996.653 112.071L998.387 110.04L991.716 101.762H987.846L983.71 92.234H988.78L990.115 93.7959H991.983V91.1406H1001.72L1009.2 82.3936L1016.4 83.3308L1016.53 81.4564L1003.06 73.6466L1005.59 70.9912L1001.99 68.0235L1003.72 66.9301L1009.06 69.8979ZM842.675 123.629L838.405 127.847V129.877L833.735 131.908L830.132 129.877L835.336 128.003V125.66L837.071 123.629L839.473 120.818V112.071H840.673L842.675 118.475V123.629Z" fill="#C3CDDF" stroke="white" stroke-width="0.6" stroke-miterlimit="10"/>
<path d="M447.322 69.5859L451.592 77.0833L461.066 79.2701L475.876 69.5859L471.473 65.2124L456.262 68.8049L453.727 65.2124L447.322 69.5859Z" fill="#C3CDDF" stroke="white" stroke-width="0.6" stroke-miterlimit="10"/>
<path d="M927.669 264.988L932.072 271.704H933.674V256.241L930.605 255.46L927.669 264.988Z" fill="#C3CDDF" stroke="white" stroke-width="0.6" stroke-miterlimit="10"/>
<path d="M890.576 284.2V288.886H894.845L897.381 285.918V282.951H892.71L890.576 284.2Z" fill="#C3CDDF" stroke="white" stroke-width="0.6" stroke-miterlimit="10"/>
<path d="M923.533 177.987L925 176.737L928.603 177.987L928.069 175.8L932.205 172.988V171.114L932.873 170.333L934.874 171.739H937.676H937.81L932.205 160.805H937.676V145.498H931.138V149.403H925.667L918.062 140.499H910.456L894.445 121.756H881.502L879.501 124.099L882.303 127.379V137.219L879.501 140.656L875.765 139.718V147.372H885.238L893.644 153.308V154.713H882.036V159.555H877.099V162.836H873.363L871.762 160.961H869.894V164.398L872.696 167.365L869.894 169.396V171.895L867.359 173.769H859.353L854.283 177.83L842.674 175.175V172.832H823.193L818.123 165.179L809.717 160.024H800.377V154.245L794.373 148.622L786.233 144.092L785.833 142.53L782.764 141.593V145.342H780.229V147.841L781.697 149.559V151.589H773.424V157.212L775.025 159.087V160.649L771.289 159.868L767.153 161.586L772.09 169.552L771.156 173.926H771.022L771.289 176.737H769.421H767.82V180.33H761.416V183.922H757.813V182.673L753.41 184.859V187.671H752.876V190.482L754.344 192.2L755.278 191.107L759.281 193.138L758.747 195.949L759.948 197.511L758.347 199.229H761.015L763.684 202.041V204.696L770.756 207.82L775.025 204.852L779.562 207.039V211.1L778.094 212.818V213.912H775.559L776.626 217.036H778.761L779.562 219.847L777.961 221.565L776.493 220.16L775.025 221.565L777.427 223.752L777.294 226.251L786.634 232.812L788.769 230.312L809.05 243.745L814.387 241.871L815.455 242.652V245.464H816.389L819.057 240.621L825.061 243.433H828.797V242.027L833.868 236.092L837.204 237.654L839.472 235.779L842.407 238.278L840.94 240.153L844.809 241.715L845.876 240.153L850.146 244.683V254.054L848.278 256.241V262.177H852.948L853.749 266.081H856.284V270.924H858.552V273.891H862.955V275.297H864.957V269.362H866.291V267.956H873.096L875.231 267.175V264.832H876.832L878.834 267.175H882.036V270.767L887.24 273.891L888.574 272.017L894.712 273.735V279.046H896.713L896.313 274.36L914.86 266.55L923.666 255.46L929.67 240.465V233.749L923.933 231.562L926.868 227.345L917.662 213.599L912.191 210.007L915.927 199.698H920.33V197.667L912.992 195.012L908.989 199.698L900.983 190.482L910.59 179.236L914.726 184.078L910.99 188.452L913.392 191.263L920.73 185.796L924.333 179.861L923.533 177.987Z" fill="#C3CDDF" stroke="white" stroke-width="0.6" stroke-miterlimit="10"/>
<path d="M743.803 179.705L739.533 177.83L741.668 175.175L740.601 174.394L741.001 173.925V172.051H748.34V170.177H750.875L752.476 172.051H765.952L771.156 173.925L771.289 176.737H767.82V180.33H761.416V183.922H757.813V182.672L753.41 184.859V187.671L751.142 187.515V188.608L743.002 188.139L742.602 187.671H738.066L737.398 185.953L739.934 183.922L742.202 185.328L742.335 184.547H746.338L749.007 181.579L743.803 177.83V179.705Z" fill="#C3CDDF" stroke="white" stroke-width="0.6" stroke-miterlimit="10"/>
<path d="M937.943 192.357L932.339 187.046L937.41 181.111L935.808 177.987L936.476 173.145L937.676 171.739H934.874L932.873 170.333L932.206 171.114V172.988L928.07 175.8L928.603 177.987L925.001 176.737L923.533 177.987L924.334 179.861L920.731 185.796L925.401 187.827L924.867 194.387L934.608 196.418L937.943 192.357Z" fill="#C3CDDF" stroke="white" stroke-width="0.6" stroke-miterlimit="10"/>
<path d="M945.682 200.792L937.943 192.357L934.607 196.418L934.874 198.917L932.472 200.323L936.475 204.54L937.676 211.882L946.215 208.914L945.682 200.792Z" fill="#C3CDDF" stroke="white" stroke-width="0.6" stroke-miterlimit="10"/>
<path d="M886.439 387.602H882.302V380.105H879.767V375.731L859.886 358.081L857.751 351.365H852.547L850.946 349.49H846.41L861.354 367.453V376.981H863.889L868.426 389.32L881.368 404.471H886.439V387.602Z" fill="#C3CDDF" stroke="white" stroke-width="0.6" stroke-miterlimit="10"/>
<path d="M910.457 409.314L903.518 407.283V410.095L895.513 409.314V407.127L887.64 405.565L883.504 409.314L888.574 410.251L888.04 411.813L916.061 418.529V413.375L910.457 411.969V409.314Z" fill="#C3CDDF" stroke="white" stroke-width="0.6" stroke-miterlimit="10"/>
<path d="M933.539 415.874L927.935 415.093L926.734 417.436L917.661 415.874V418.061L925.8 419.935L933.539 418.529V415.874Z" fill="#C3CDDF" stroke="white" stroke-width="0.6" stroke-miterlimit="10"/>
<path d="M954.888 415.562L935.141 417.436V418.529H941.945L954.888 417.436V415.562Z" fill="#C3CDDF" stroke="white" stroke-width="0.6" stroke-miterlimit="10"/>
<path d="M932.339 421.809V423.996H935.141L937.142 426.338L939.144 423.996L936.609 421.028L932.339 421.809Z" fill="#C3CDDF" stroke="white" stroke-width="0.6" stroke-miterlimit="10"/>
<path d="M956.089 417.436L947.683 426.339L950.084 427.12L962.76 417.436L961.96 415.562L956.089 417.436Z" fill="#C3CDDF" stroke="white" stroke-width="0.6" stroke-miterlimit="10"/>
<path d="M895.779 389.477L892.176 388.071L890.708 390.882L893.777 392.913L895.779 389.477Z" fill="#C3CDDF" stroke="white" stroke-width="0.6" stroke-miterlimit="10"/>
<path d="M887.107 386.196V391.195H889.241V388.696L887.907 384.01L884.438 383.541L884.972 386.196H887.107Z" fill="#C3CDDF" stroke="white" stroke-width="0.6" stroke-miterlimit="10"/>
<path d="M960.092 386.04L953.154 384.322V386.978H958.891V388.852L960.092 386.04Z" fill="#C3CDDF" stroke="white" stroke-width="0.6" stroke-miterlimit="10"/>
<path d="M959.292 391.195V393.226L961.96 395.881L963.962 393.538L962.761 391.195H959.292Z" fill="#C3CDDF" stroke="white" stroke-width="0.6" stroke-miterlimit="10"/>
<path d="M966.097 390.57L967.698 393.538H972.501L975.036 395.88L976.904 393.538L975.036 390.57H966.097Z" fill="#C3CDDF" stroke="white" stroke-width="0.6" stroke-miterlimit="10"/>
<path d="M966.897 377.293V374.638L969.832 375.731V374.013L968.631 372.451L969.832 368.858H967.831L969.832 365.266L968.365 364.485L966.096 365.734L963.961 372.919L965.029 374.638V377.449H963.294V380.105H968.231L966.897 377.293Z" fill="#C3CDDF" stroke="white" stroke-width="0.6" stroke-miterlimit="10"/>
<path d="M978.372 377.137L975.303 376.356V379.012H978.372V377.137Z" fill="#C3CDDF" stroke="white" stroke-width="0.6" stroke-miterlimit="10"/>
<path d="M1001.59 382.916L999.453 385.415V388.07H997.452L993.716 392.288H990.247V387.758H988.912L989.713 383.228L988.646 379.792H985.977L985.043 378.542H981.841L980.64 380.104H974.902L976.904 384.634H981.44V387.446H986.644V389.32H980.64V390.57L985.577 395.88L987.044 393.537L1002.12 402.909L1004.52 412.437H1001.32L1000.39 415.717H1008.93L1011.33 421.028L1014 421.34V389.632L1001.59 382.916Z" fill="#C3CDDF" stroke="white" stroke-width="0.6" stroke-miterlimit="10"/>
<path d="M932.872 393.85H935.14V403.222H938.343V391.195L940.744 388.383L941.945 389.789V394.631L943.279 396.037V399.785H945.014V398.38H948.483V395.88H946.882L945.014 393.694L946.482 391.819L942.612 387.446L948.75 380.261V378.855L945.948 381.979H943.013L941.812 383.385H939.143V381.354H938.209V375.262L940.077 374.013L953.42 375.419L958.09 370.108L957.023 368.858L953.153 373.388L941.411 370.264L936.475 373.388V380.105H935.14V386.04L932.872 388.539V393.85Z" fill="#C3CDDF" stroke="white" stroke-width="0.6" stroke-miterlimit="10"/>
<path d="M901.249 391.195H907.921V392.913H912.324V391.195H917.661V397.599L923.799 394.631V384.947L928.469 379.48V372.139H933.539L934.207 370.264L930.604 366.047L931.538 364.954L927.668 360.424L929.67 357.925L927.802 356.207H921.931V361.517L918.328 370.889H914.059L912.991 369.639H910.723L908.588 372.139H904.051L902.05 369.327H900.449L899.782 366.359L896.312 370.42V376.981L901.249 382.76V391.195Z" fill="#C3CDDF" stroke="white" stroke-width="0.6" stroke-miterlimit="10"/>
<path d="M927.135 341.056L919.93 353.396L918.862 351.99L910.856 361.206L905.786 361.83V369.328H902.05L904.051 372.139H908.588L910.723 369.64H912.991L914.059 370.89H918.328L921.931 361.518V356.207H927.802L929.67 357.925L935.674 350.897L927.135 341.056Z" fill="#C3CDDF" stroke="white" stroke-width="0.6" stroke-miterlimit="10"/>
<path d="M877.633 352.927L872.963 346.991L870.027 349.491H868.426V346.991L865.624 344.648L864.557 345.742L865.758 347.304L866.692 356.207L870.027 360.268V363.08L878.567 371.202L880.301 373.701H881.502L881.903 367.922L877.633 362.923V352.927Z" fill="#C3CDDF" stroke="white" stroke-width="0.6" stroke-miterlimit="10"/>
<path d="M880.386 373.771L878.573 371.21L881.681 368.021L881.926 368.133L881.484 373.771H880.386Z" fill="url(#paint0_linear_1719_9095)" stroke="white" stroke-width="0.5"/>
<path d="M743.003 196.887V192.514H747.406V200.323L753.677 197.668L759.281 196.575L758.747 195.95L759.281 193.138L755.278 191.108L754.344 192.201L752.876 190.483V187.671L751.142 187.515V188.609L743.003 188.14L742.602 187.671H738.066L737.399 185.953L739.934 183.923L742.202 185.328L742.335 184.547L740.868 182.986L741.935 181.892L740.067 180.643L735.664 186.578H732.195V188.765L736.465 194.388L734.863 197.824L736.331 200.323L743.003 196.887Z" fill="#C3CDDF" stroke="white" stroke-width="0.6" stroke-miterlimit="10"/>
<path d="M732.061 235.311L734.863 233.749V228.907L736.331 227.345H738.866V225.627L740.468 224.065H742.736V225.627H744.204V218.286H747.139V216.88L745.004 215.005V214.225H749.674V206.102L747.806 203.916V201.573L752.61 199.542L757.547 200.323L758.881 199.23H758.347L759.948 197.511L759.281 196.574L753.677 197.668L747.406 200.323V192.513H743.003V196.887L736.331 200.323L734.863 197.824L734.597 198.449L730.46 196.887V197.668H725.123V202.822L720.32 205.009V207.352H717.918L713.381 205.477V215.786L714.315 216.88L716.317 225.939H718.985V229.532L716.05 232.812L717.117 234.061L722.054 235.311H732.061Z" fill="#C3CDDF" stroke="white" stroke-width="0.6" stroke-miterlimit="10"/>
<path d="M754.344 260.146V256.241L750.875 252.336V248.9H748.073V246.557L751.009 242.965H752.877L753.677 243.902H756.346L757.013 239.216L759.815 236.092V233.124H761.683V230.313L763.684 227.97V223.752L764.752 222.659V220.941H762.35V218.285L759.948 215.474V212.975L758.747 211.569V210.163H765.819L769.288 207.196L763.684 204.696V202.041L761.016 199.229H758.881L757.547 200.323L752.61 199.542L747.806 201.572V203.915L749.674 206.102V214.224H745.004V215.005L747.139 216.88V218.285H744.204V225.627H742.736V224.065H740.468L738.866 225.627V227.345H736.331L734.864 228.907V233.749L732.062 235.311H722.054L717.117 234.061L722.188 239.997H724.056V245.464H726.858V248.9H723.522L721.387 251.555V254.835L722.188 254.992H739.534L746.339 262.958V260.146H754.344Z" fill="#C3CDDF" stroke="white" stroke-width="0.6" stroke-miterlimit="10"/>
<path d="M784.499 238.903L796.908 247.026L808.65 249.837L813.586 250.462L814.387 248.9L813.32 246.401L813.053 242.34L809.05 243.745L788.768 230.312L786.634 232.812L785.7 232.187L784.499 234.061V238.903Z" fill="#C3CDDF" stroke="white" stroke-width="0.6" stroke-miterlimit="10"/>
<path d="M820.659 249.056L821.459 247.65L826.797 249.056L827.33 245.776L824.928 245.151L825.062 243.433L819.058 240.621L816.389 245.463H815.855L815.722 247.65L820.659 249.056Z" fill="#C3CDDF" stroke="white" stroke-width="0.6" stroke-miterlimit="10"/>
<path d="M829.998 263.113H828.664V266.237H826.396V260.302H827.997L830.532 257.334L829.065 255.616H819.724V252.804H818.123L816.255 250.618L814.387 252.804L817.323 256.241H815.188V260.302H816.789L817.856 261.551L817.189 263.113L820.392 273.11L826.396 270.455V267.955H828.664L831.066 274.828L832.934 274.203L829.998 263.113Z" fill="#C3CDDF" stroke="white" stroke-width="0.6" stroke-miterlimit="10"/>
<path d="M834.535 269.517L832.934 268.112V266.237H834.135V262.801H836.67L838.404 257.178L837.204 255.772L838.671 253.898V249.68L841.34 246.557H843.875V244.526L844.676 243.589V241.714L840.94 240.152L842.407 238.278L839.472 235.779L837.204 237.653L833.868 236.091L828.798 242.027V243.433H825.062L824.928 245.151L827.33 245.776L826.796 249.056L821.459 247.65L820.658 249.056L815.721 247.65L815.855 245.463H815.455V242.652L814.387 241.871L813.053 242.339L813.32 246.4L814.387 248.899L813.587 250.461L808.65 249.837L796.908 247.025L784.499 238.903V234.061L785.7 232.186L777.294 226.251L777.427 223.752L775.025 221.565L776.493 220.159L777.961 221.565L779.562 219.847L778.761 217.035H776.627L775.559 213.911H778.094V212.818L779.562 211.1V207.039L775.025 204.852L770.756 207.82L769.288 207.195L765.819 210.163H758.747V211.569L759.948 212.974V215.473L762.35 218.285V220.94H764.751V222.658L763.684 223.752V227.969L761.682 230.312V233.124H759.814V236.091L757.012 239.215L756.345 243.901H753.677L752.876 242.964H751.008L748.073 246.557V248.899H750.875V252.336L754.344 256.241V260.146H746.338V262.957L749.54 266.862H753.543V269.205H749.007L756.746 278.421L759.814 274.672V269.674H761.816L766.086 297.477L772.09 308.567V311.847L779.162 328.091V333.558L782.497 337.463H785.833V331.84H788.235V326.685H791.304V299.507L798.376 298.258V295.29L807.449 283.107L812.519 278.733V274.516L817.99 271.392V274.203L820.391 273.11L817.189 263.113L817.856 261.551L816.789 260.302H815.188V256.241H817.323L814.387 252.804L816.255 250.618L818.123 252.804H819.724V255.616H829.064L830.532 257.334L827.997 260.302H826.396V266.237H828.664V263.113H829.998L832 270.923H834.535V269.517Z" fill="#C3CDDF" stroke="white" stroke-width="0.6" stroke-miterlimit="10"/>
<path d="M861.621 319.969L859.62 315.596V310.597L855.884 305.599V303.1H857.351V298.883L852.014 289.355V282.17H856.151V280.452H857.752V279.046H859.62L862.689 273.891H858.552V270.924H856.284V266.081H853.749L852.948 262.177H848.278V256.241L850.146 254.054V244.683L845.877 240.153L844.809 241.715H844.676V243.589L843.875 244.526V246.557H841.34L838.671 249.681V253.898L837.204 255.772L838.404 257.178L836.67 262.801H834.135V266.238H832.934V268.112L834.535 269.518V270.924H832L832.934 274.204L831.066 274.828L840.94 291.854V301.069H845.743L849.346 297.477L849.613 293.572L852.948 298.883L858.419 317.939L857.885 332.934L861.621 321.687V319.969Z" fill="#C3CDDF" stroke="white" stroke-width="0.6" stroke-miterlimit="10"/>
<path d="M871.895 316.221L870.828 311.691L873.897 308.098H881.235V301.694L878.433 298.258V292.635L875.098 288.886H872.829L870.161 292.01L868.293 289.98L865.624 293.103H864.29V283.107H861.621V279.983L859.753 278.733L859.62 279.046H857.752V280.452H856.151V282.17H852.014V289.355L857.351 298.883V303.1H855.884V305.599L859.62 310.597V315.596L861.621 319.969V321.687L857.885 332.934L857.752 336.995L864.557 345.742L865.624 344.648L868.426 346.991V349.49H870.027L872.963 346.991L870.027 343.243H866.958L863.889 332.621H861.621L860.554 329.81L862.822 319.345V312.784H866.691V316.221H869.894L870.961 319.345L872.696 318.72L872.963 319.032L873.096 316.221H871.895Z" fill="#C3CDDF" stroke="white" stroke-width="0.6" stroke-miterlimit="10"/>
<path d="M892.711 302.163L880.435 284.512L887.24 273.891L882.036 270.767V267.174H878.834L876.833 264.832H875.231V267.174L873.097 267.955H866.292V269.361H866.158L869.094 272.641V275.141L872.696 277.483L873.497 276.702L878.167 281.076L876.699 282.794H875.365L874.431 283.731L888.307 300.132L887.64 300.913L889.508 303.256L890.576 317.314L884.838 320.281V323.405H885.906V324.811H882.036V326.998H880.302L881.236 327.935V335.276H883.237L895.913 321.843L896.58 316.064L892.711 302.163Z" fill="#C3CDDF" stroke="white" stroke-width="0.6" stroke-miterlimit="10"/>
<path d="M859.815 278.832L862.621 274.09H862.962V275.272H864.946V269.302H866.103L869.095 272.697V275.1L872.662 277.504L873.446 276.703L878.188 281.061L876.698 282.747H875.42L874.408 283.691L888.38 300.187L887.593 301.007L889.51 303.333L889.875 307.353H884.565V310.607L879.898 308.12H881.208V301.676L878.436 298.217V292.673L875.049 288.891H872.825L870.23 291.981L868.277 289.929L865.607 293.217H864.216V283.169H861.622V280.023L859.815 278.832Z" fill="#C3CDDF" stroke="white" stroke-width="0.5"/>
<path d="M884.838 320.282L890.575 317.314L889.908 307.317H884.571V310.598L879.634 308.098H873.896L870.828 311.691L871.895 316.221H873.096L872.962 319.032L875.231 324.499L878.166 324.655L880.301 326.998H882.036V324.811H885.905V323.406H884.838V320.282Z" fill="#C3CDDF" stroke="white" stroke-width="0.6" stroke-miterlimit="10"/>
<path d="M626.785 236.091L628.119 227.969V219.847H629.32L631.455 222.19H633.056L638.927 217.66L640.662 222.815L634.39 226.251L636.792 229.531L635.991 232.967H633.323L631.321 237.653L626.785 236.091Z" fill="#C3CDDF" stroke="white" stroke-width="0.6" stroke-miterlimit="10"/>
<path d="M1088.18 473.979L1086.32 467.418L1084.05 468.824L1086.98 478.352L1094.19 486.943L1096.19 484.6L1088.18 473.979Z" fill="#C3CDDF" stroke="white" stroke-width="0.6" stroke-miterlimit="10"/>
<path d="M794.373 148.621L800.378 154.244V160.023H809.718L818.124 165.178L823.194 172.832H842.675V175.175L854.283 177.83L859.353 173.769H867.359L869.894 171.894V169.395L872.696 167.365L869.894 164.397V160.961H871.762L873.363 162.835H877.099V159.555H882.036V154.713H893.645V153.307L885.239 147.372H875.765V139.718L867.626 137.531L864.023 141.749H850.28L848.012 139.249L836.937 135.032L835.336 136.906H830.533L826.263 131.908L813.854 127.378V131.752L815.722 133.782V138.156H803.98V134.876H796.508L786.101 142.529H785.834L786.234 144.091L794.373 148.621Z" fill="#C3CDDF" stroke="white" stroke-width="0.6" stroke-miterlimit="10"/>
<path d="M485.883 257.178L518.44 286.387L525.912 284.2L546.861 264.831L547.661 264.05V259.052H540.056L537.387 251.555V231.874L531.116 212.349L534.185 210.006L534.052 198.917H527.647L523.911 201.259L522.577 200.01L510.168 201.572L506.165 204.696H504.297L499.093 207.976H498.96L500.961 222.815H495.224V228.281L474.542 239.215V244.057V247.181L475.076 247.65V246.556V247.65L485.883 257.178Z" fill="#C3CDDF" stroke="white" stroke-width="0.6" stroke-miterlimit="10"/>
<path d="M635.725 295.29V308.879L640.662 306.068L647.467 307.473L655.74 317.158L655.873 317.314L657.741 315.283L646.266 302.944L642.397 289.823L637.86 295.29H635.725Z" fill="#C3CDDF" stroke="white" stroke-width="0.6" stroke-miterlimit="10"/>
<path d="M655.739 317.158L653.737 320.594V325.28L658.007 324.812L661.209 321.063L658.541 316.221L657.74 315.284L655.872 317.314L655.739 317.158Z" fill="#C3CDDF" stroke="white" stroke-width="0.6" stroke-miterlimit="10"/>
<path d="M583.554 312.316V301.538H590.493V280.452H589.158V283.263L561.805 264.051L557.802 267.175L558.069 267.331L561.805 280.14V296.228L551.531 312.316H552.465L554.467 319.345L558.469 314.347L559.137 329.029H555.267L554.6 331.841L560.071 340.119L559.403 341.525L563.673 339.338L564.741 340.9L571.946 333.559H576.883L585.956 324.031L587.023 322.937L583.554 312.316Z" fill="#C3CDDF" stroke="white" stroke-width="0.6" stroke-miterlimit="10"/>
<path d="M592.361 271.08V280.452H590.492V301.538H583.554V312.316L587.023 322.937L585.956 324.031L590.226 328.873V334.964L602.234 349.022V352.615L614.91 358.394H624.517L626.652 355.738L627.186 355.114H634.124V349.022L626.118 339.806H622.649V336.058H626.785L635.725 316.065V309.66V308.879V295.29H637.86L642.397 289.824L637.46 287.793L636.259 272.017L631.189 267.487L629.454 263.583L623.049 271.08H592.361Z" fill="#C3CDDF" stroke="white" stroke-width="0.6" stroke-miterlimit="10"/>
<path d="M623.049 271.08L629.453 263.583L616.644 232.343H618.245L624.249 242.808H625.317L626.384 235.467L623.182 227.814H617.178L613.308 225.314L606.103 229.532L597.83 225.783H592.36V271.08H623.049Z" fill="#C3CDDF" stroke="white" stroke-width="0.6" stroke-miterlimit="10"/>
<path d="M458.53 264.676H462.666V252.18H475.075V247.65L474.542 247.182V244.058H459.331L452.526 257.491L448.523 262.02L446.521 268.268L444.253 270.923V274.672H458.53V264.676Z" fill="#C3CDDF" stroke="white" stroke-width="0.6" stroke-miterlimit="10"/>
<path d="M607.304 456.329L600.766 462.421H594.896L597.964 474.76H603.168L607.438 484.601H614.643H615.577L621.048 471.324V458.828L616.911 453.986H612.642V450.862L607.304 453.049V456.329Z" fill="#C3CDDF" stroke="white" stroke-width="0.6" stroke-miterlimit="10"/>
<path d="M611.841 381.511L607.838 389.789H609.172H612.108V388.227H615.177V383.541H611.841V381.511Z" fill="#C3CDDF" stroke="white" stroke-width="0.6" stroke-miterlimit="10"/>
<path d="M613.442 507.249H617.578L618.646 505.062H617.578V501.47H613.442V507.249Z" fill="#C3CDDF" stroke="white" stroke-width="0.6" stroke-miterlimit="10"/>
<path d="M460.532 307.005V302.475H462.666H483.748V257.491L485.883 257.178L475.075 247.65V252.18H462.666V264.676H458.53V274.672H444.253V275.61L445.721 279.046V297.789H453.593L460.532 307.005Z" fill="#C3CDDF" stroke="white" stroke-width="0.6" stroke-miterlimit="10"/>
<path d="M502.962 303.881H501.361L492.421 312.94L489.753 312.159L484.149 325.748H484.816L488.685 330.278H494.289V324.811L500.294 324.343H503.629H506.965L507.499 323.562L511.769 318.251L502.962 303.881Z" fill="#C3CDDF" stroke="white" stroke-width="0.6" stroke-miterlimit="10"/>
<path d="M612.108 389.789H609.173L611.441 397.443L615.177 392.444V388.227H612.108V389.789Z" fill="#C3CDDF" stroke="white" stroke-width="0.6" stroke-miterlimit="10"/>
<path d="M587.023 459.296L583.02 454.61V438.678H590.092V430.087H583.154V411.969H578.884V408.845L573.68 409.938V415.873H567.276L564.207 405.721H548.329L552.732 419.31H550.731L553.399 428.682V435.398L546.194 451.799V460.546H578.751L587.023 459.296Z" fill="#C3CDDF" stroke="white" stroke-width="0.6" stroke-miterlimit="10"/>
<path d="M546.994 387.915H554.466V379.012L553.665 377.918V375.575L556.067 372.608L553.932 370.265H551.264V365.891H544.992V372.295H539.255L535.652 381.511L543.792 395.725L546.994 393.225V387.915Z" fill="#C3CDDF" stroke="white" stroke-width="0.6" stroke-miterlimit="10"/>
<path d="M544.993 365.891H539.256V372.295H544.993V365.891Z" fill="#C3CDDF" stroke="white" stroke-width="0.6" stroke-miterlimit="10"/>
<path d="M462.666 316.376V314.814V302.474H460.531V307.004L453.593 297.789H445.721V300.6L444.253 305.598V316.376H455.194H462.666Z" fill="#C3CDDF" stroke="white" stroke-width="0.6" stroke-miterlimit="10"/>
<path d="M651.203 362.298L654.005 359.018L650.002 354.488L647.066 358.081V359.643H641.596L637.726 355.113H634.124H627.185L626.651 355.738L631.722 367.453L626.918 375.887L628.786 376.512V381.354L627.719 382.604L640.395 390.882L639.728 394.631L645.999 399.16L653.071 384.009L653.337 383.541L651.203 381.042V362.298Z" fill="#C3CDDF" stroke="white" stroke-width="0.6" stroke-miterlimit="10"/>
<path d="M551.264 365.891H561.805V362.142L556.201 348.085L559.403 341.524L560.07 340.119L554.599 331.84L555.267 329.029H559.136L558.469 314.346L554.466 319.344L555.267 322.156L545.126 346.054L542.457 342.618H538.454L534.452 354.02H535.119L539.255 358.862V365.891H544.993H551.264Z" fill="#C3CDDF" stroke="white" stroke-width="0.6" stroke-miterlimit="10"/>
<path d="M640.395 390.883L627.719 382.604L625.051 385.728V388.696H619.714V381.042H615.177V383.542V388.228V392.445L611.441 397.443L611.041 398.068L616.645 418.217L627.586 422.435L628.787 427.12L629.988 432.587H641.062L649.468 428.526V425.715H645.599V400.255L645.999 399.161L639.728 394.632L640.395 390.883Z" fill="#C3CDDF" stroke="white" stroke-width="0.6" stroke-miterlimit="10"/>
<path d="M629.988 432.587L628.787 427.12L627.319 436.336L628.787 443.521H631.989V453.83L629.721 458.828L625.985 452.893L628.253 450.237V445.708H624.25L622.249 443.677L612.375 448.05L613.442 450.55L612.642 450.862V453.986H616.911L621.048 458.828V471.324L615.577 484.6H614.643L617.579 493.035V501.47V505.062H618.646H619.847V499.439L628.52 492.879V475.385L649.468 450.862V428.526L641.062 432.587H629.988Z" fill="#C3CDDF" stroke="white" stroke-width="0.6" stroke-miterlimit="10"/>
<path d="M467.07 337.463L467.47 336.839L464.268 329.029H458.93L457.73 332.621L457.996 332.778V339.963L462.533 343.867L467.07 337.463Z" fill="#C3CDDF" stroke="white" stroke-width="0.6" stroke-miterlimit="10"/>
<path d="M474.275 344.179V340.118L467.07 337.463L462.533 343.867L476.81 355.425L477.744 348.24L474.275 344.179Z" fill="#C3CDDF" stroke="white" stroke-width="0.6" stroke-miterlimit="10"/>
<path d="M444.253 316.376V317.157L450.524 324.499L455.194 316.376H444.253Z" fill="#C3CDDF" stroke="white" stroke-width="0.6" stroke-miterlimit="10"/>
<path d="M500.294 324.342L494.289 324.811V330.278H495.49V337.775L493.489 340.118V352.458L497.225 354.02L506.832 347.772L503.629 324.342H500.294Z" fill="#C3CDDF" stroke="white" stroke-width="0.6" stroke-miterlimit="10"/>
<path d="M512.569 317.314L511.769 318.407L507.499 323.718L506.965 324.343L509.767 328.404C509.767 328.404 510.168 340.9 510.301 345.586H513.904V334.027L517.907 326.53V322.781V320.282L512.569 317.314Z" fill="#C3CDDF" stroke="white" stroke-width="0.6" stroke-miterlimit="10"/>
<path d="M506.966 324.342H503.63L506.832 347.772L510.301 345.585C510.168 340.743 509.768 328.403 509.768 328.403L506.966 324.342Z" fill="#C3CDDF" stroke="white" stroke-width="0.6" stroke-miterlimit="10"/>
<path d="M474.542 239.216L495.224 228.283V222.816H500.961L498.96 207.977H490.42L488.285 205.322H485.617L482.414 213.6L474.008 219.379L473.608 221.722L470.806 227.033L472.14 231.719L464.535 243.434H459.731L459.331 244.058H474.542V239.216Z" fill="#C3CDDF" stroke="white" stroke-width="0.6" stroke-miterlimit="10"/>
<path d="M566.208 512.559V514.277L572.079 515.371L575.282 513.184V482.57H579.285V464.607L586.89 462.42L595.029 463.045L594.896 462.42H593.828V462.108V460.234H587.691L587.023 459.296L578.751 460.546H546.194V462.889L556.468 487.256L561.672 513.653H562.873L563.006 513.809L564.474 510.997L566.208 512.559Z" fill="#C3CDDF" stroke="white" stroke-width="0.6" stroke-miterlimit="10"/>
<path d="M577.817 505.53H581.419L585.289 497.72H587.958L589.292 500.376H594.496L607.171 484.131L603.169 474.759H597.965L595.029 463.045L586.89 462.42L579.285 464.607V482.569H575.282V496.315L578.351 501.469L577.817 505.53Z" fill="#C3CDDF" stroke="white" stroke-width="0.6" stroke-miterlimit="10"/>
<path d="M618.645 505.062L617.578 507.249H613.442V501.47H617.578V493.035L614.643 484.6H607.437L607.17 484.132L594.495 500.376H589.291L587.957 497.721H585.288L581.419 505.531H577.816L578.35 501.47L575.281 496.315V513.184L572.079 515.371L566.208 514.278V512.56L564.473 510.998L563.005 513.809L569.143 528.335V534.427H566.608L573.947 543.018L597.43 536.77L619.846 510.529V505.062H618.645Z" fill="#C3CDDF" stroke="white" stroke-width="0.6" stroke-miterlimit="10"/>
<path d="M660.943 460.078V464.764L662.01 466.013V472.574L659.875 478.665H658.408L656.673 480.696V485.694L659.075 488.506V494.129L660.809 497.877H663.078V499.127H666.013L667.347 497.721H670.683L674.419 483.507L681.224 464.139V458.984L682.692 455.704L681.091 450.862L682.692 449.456L683.759 453.049L685.36 449.456L683.893 446.801V438.679L680.557 434.93L679.223 436.492V440.866H676.287V446.489L669.883 451.956H662.944V456.485L660.943 460.078Z" fill="#C3CDDF" stroke="white" stroke-width="0.6" stroke-miterlimit="10"/>
<path d="M508.967 302.476H516.306L519.908 298.415V285.919L518.441 286.387L485.884 257.179L483.749 257.491V302.476H462.667V314.815H471.74L474.809 325.749H484.149L489.753 312.16L492.422 312.941L501.361 303.881H502.963L503.496 304.819H507.099L508.967 302.476Z" fill="#C3CDDF" stroke="white" stroke-width="0.6" stroke-miterlimit="10"/>
<path d="M554.466 319.345L552.465 312.316H551.798L547.661 315.596L546.06 313.722H540.857L538.855 316.064H534.986L532.05 312.472L530.182 314.659H528.448L525.912 311.847H518.574V314.659L517.106 316.377V319.813L517.907 320.282V322.781V326.53L513.904 334.027V345.586H520.175L525.512 354.02H534.452L538.455 342.618H542.458L545.126 346.054L555.267 322.156L554.466 319.345Z" fill="#C3CDDF" stroke="white" stroke-width="0.6" stroke-miterlimit="10"/>
<path d="M561.805 296.227V280.139L558.069 267.331L557.802 267.174L552.198 264.832H546.861L525.912 284.2L519.908 285.918V298.414L516.305 302.475H508.967L507.099 304.818H503.496L511.769 318.251L512.569 317.314L517.106 319.813V316.376L518.574 314.658V311.847H525.912L528.447 314.658H530.182L532.05 312.471L534.985 316.064H538.855L540.856 313.721H546.06L547.661 315.595L551.798 312.315H551.531L561.805 296.227Z" fill="#C3CDDF" stroke="white" stroke-width="0.6" stroke-miterlimit="10"/>
<path d="M474.809 325.749L471.74 314.815H462.666V316.377H455.194L450.524 324.499L457.73 332.621L458.93 329.029H464.268L467.47 336.839L467.07 337.463L472.941 339.65L475.476 325.749H474.809Z" fill="#C3CDDF" stroke="white" stroke-width="0.6" stroke-miterlimit="10"/>
<path d="M494.29 330.278H488.686L484.816 325.749H484.149H475.476L472.941 339.65L474.275 340.119V344.18L477.744 348.241L476.81 355.426L477.211 355.738L481.881 351.521H491.354L493.489 352.458V340.119L495.491 337.776V330.278H494.29Z" fill="#C3CDDF" stroke="white" stroke-width="0.6" stroke-miterlimit="10"/>
<path d="M540.056 227.501H542.324V223.596H544.592V217.504L544.059 217.348L539.789 215.162V213.131L543.525 208.757V205.165H541.657V202.822L543.525 200.635V199.073L540.723 200.167V197.824H537.654L536.32 198.917H534.051L534.185 210.007L531.116 212.35L537.387 231.562H540.056V227.501Z" fill="#C3CDDF" stroke="white" stroke-width="0.6" stroke-miterlimit="10"/>
<path d="M591.96 225.783V222.815H585.689V220.472L581.286 218.598L573.947 222.659V225.314L575.281 228.282L571.946 232.187L558.336 226.408V222.503L552.065 219.847H549.129L544.593 217.504V223.596H542.324V227.501H540.056V231.562H537.387V231.874V251.555L540.056 259.053H547.661V264.051L546.861 264.832H552.198L557.802 267.175L561.805 264.051L589.158 283.263V280.452H590.492H592.36V271.08V225.783H591.96Z" fill="#C3CDDF" stroke="white" stroke-width="0.6" stroke-miterlimit="10"/>
<path d="M665.614 352.458L677.489 338.556H674.153L663.078 333.089L657.741 326.842V324.811L653.738 325.28V320.594L655.74 317.157L647.467 307.473L640.662 306.067L635.725 308.879V309.66V316.064L626.786 336.057H622.649V339.806H626.118L634.124 349.021V355.113H637.727L641.596 359.643H647.067V358.081L650.002 354.488L653.071 358.081L662.411 352.458H665.614Z" fill="#C3CDDF" stroke="white" stroke-width="0.6" stroke-miterlimit="10"/>
<path d="M664.413 326.842L661.21 321.063L658.008 324.812H657.741V326.842L663.078 333.09L674.153 338.557H677.489L665.613 352.458H662.411L653.071 358.082L654.005 359.019L651.203 362.299V381.042L653.338 383.542L679.49 350.115L687.496 326.842V319.501L664.413 326.842Z" fill="#C3CDDF" stroke="white" stroke-width="0.6" stroke-miterlimit="10"/>
<path d="M616.778 366.516L611.841 372.451L610.774 383.541L611.841 381.511V383.541H615.177V381.042H619.714V376.356L625.051 375.263L626.919 375.888L631.722 367.453L626.652 355.738L624.517 358.394H615.177V364.641L616.778 366.516Z" fill="#C3CDDF" stroke="white" stroke-width="0.6" stroke-miterlimit="10"/>
<path d="M552.598 399.629L555.267 397.443V399.629H557.802L562.339 394.319V386.821L568.209 380.105V373.076V359.643H563.539V365.11H561.805V365.891H551.264V370.264H553.933L556.067 372.607L553.666 375.575V377.918L554.466 379.011V387.915H546.994V393.225L543.792 395.724L546.727 400.723L546.861 401.035L550.864 397.443L552.598 399.629Z" fill="#C3CDDF" stroke="white" stroke-width="0.6" stroke-miterlimit="10"/>
<path d="M628.787 443.521L627.319 436.335L628.787 427.12L627.586 422.434L623.183 420.716V436.335L620.781 444.302L622.249 443.677L624.25 445.707H628.253V450.237L625.985 452.892L629.721 458.828L631.989 453.83V443.521H628.787Z" fill="#C3CDDF" stroke="white" stroke-width="0.6" stroke-miterlimit="10"/>
<path d="M616.645 418.216L615.978 415.717L608.372 416.811V418.373L605.837 421.34L607.038 422.746V427.432L605.837 430.556V432.587L607.972 435.086H611.574V441.177H608.639L603.835 435.711L602.901 431.962H600.633V434.773L595.429 433.211V431.649H592.227V430.244L590.759 429.15L590.092 430.087V438.678H583.02V454.61L587.023 459.296L587.69 460.233H593.828V462.108V462.42H594.896H600.767L607.305 456.328V453.048L612.642 450.862L613.442 450.549L612.375 448.05L620.781 444.301L623.183 436.335V420.716L616.645 418.216Z" fill="#C3CDDF" stroke="white" stroke-width="0.6" stroke-miterlimit="10"/>
<path d="M570.211 354.489L574.481 352.77L575.948 355.738L585.288 358.394L585.822 354.489L588.09 354.957L597.964 352.302H602.234V349.022L590.225 334.964V328.872L585.956 324.03L576.882 333.558H571.945L564.74 340.899L563.673 339.338L559.403 341.524L556.201 348.085L561.805 362.142V365.11H563.539V359.643H568.209L570.211 357.144V354.489Z" fill="#C3CDDF" stroke="white" stroke-width="0.6" stroke-miterlimit="10"/>
<path d="M608.371 416.811L615.977 415.718L611.04 398.067L611.44 397.443L609.172 389.789H607.838L610.773 383.541L611.841 372.451L616.778 366.516L615.176 364.641V358.393H614.91L602.234 352.614V352.302H597.964L588.09 354.957L585.822 354.489L585.288 358.393L575.948 355.738L574.48 352.77L570.211 354.489V357.144L568.209 359.643V373.076V380.105L562.338 386.821V394.319L557.802 399.629H555.267V397.443L552.598 399.629L550.863 397.443L546.86 401.035V401.347L548.328 405.721H564.206L567.275 415.874H573.68V409.938L578.884 408.845V411.969H583.153V430.088H590.092L590.759 429.15L592.226 430.244V431.65H595.429V433.212L600.633 434.774V431.962H602.901L603.835 435.711L608.638 441.178H611.574V435.086H607.971L605.836 432.587V430.556L607.037 427.432V422.746L605.836 421.341L608.371 418.373V416.811Z" fill="#C3CDDF" stroke="white" stroke-width="0.6" stroke-miterlimit="10"/>
<path d="M447.322 69.5859L451.592 77.0833L461.066 79.2701L475.876 69.5859L471.473 65.2124L456.262 68.8049L453.727 65.2124L447.322 69.5859Z" fill="#C3CDDF" stroke="white" stroke-width="0.6" stroke-miterlimit="10"/>
<path d="M372.869 88.4859H381.141V93.4842H387.412L406.493 71.1481H413.965L426.507 56.4657L454.928 50.9988H459.064V38.0345L468.137 27.5693V14.2926H480.813L492.288 10.0753V7.88854H470.939L463.868 1.79688H437.582L403.824 6.48277L387.412 7.10756L368.732 15.6984H357.391L349.919 24.4454L353.388 28.0379H375.404V44.9071H381.275V48.812H372.869V53.4979H379.006L377.005 55.8409H372.335L367.798 63.4945L372.869 88.4859Z" fill="#C3CDDF" stroke="white" stroke-width="0.6" stroke-miterlimit="10"/>
<path d="M205.281 270.454L207.282 271.86L213.42 268.736H217.823L216.756 269.986H220.758L225.295 274.515V277.483H230.499V279.982H228.497V282.013H236.903L241.44 280.451V278.264H236.637V275.453H233.167L227.163 268.424H223.427V266.862L219.424 265.456H213.42L205.281 270.454Z" fill="#C3CDDF" stroke="white" stroke-width="0.6" stroke-miterlimit="10"/>
<path d="M211.685 271.86L213.02 270.454L214.487 271.704L213.02 273.109L211.685 271.86Z" fill="#C3CDDF" stroke="white" stroke-width="0.6" stroke-miterlimit="10"/>
<path d="M225.962 287.48L225.028 289.198L227.43 291.229H232.5L232.901 289.354L229.432 287.48H225.962Z" fill="#C3CDDF" stroke="white" stroke-width="0.6" stroke-miterlimit="10"/>
<path d="M265.458 288.105V290.917H269.727L270.795 289.511V288.105H265.458Z" fill="#C3CDDF" stroke="white" stroke-width="0.6" stroke-miterlimit="10"/>
<path d="M320.697 620.804H324.433L325.367 622.053L323.099 625.49L320.697 624.084V620.804Z" fill="#C3CDDF" stroke="white" stroke-width="0.6" stroke-miterlimit="10"/>
<path d="M326.168 622.367L324.167 626.584H326.435L328.837 624.397H330.171V622.367H326.168Z" fill="#C3CDDF" stroke="white" stroke-width="0.6" stroke-miterlimit="10"/>
<path d="M353.254 15.5429L381.942 8.20163L383.009 5.39009L362.194 3.82812L317.896 6.79586V9.76359L322.299 12.5751L321.098 15.5429L313.226 9.76359L300.55 13.1999V18.9792L310.824 21.3221V23.6651H301.884V27.1014L324.834 28.1948L332.573 25.5394V20.8535L346.983 14.9181L353.254 15.5429Z" fill="#C3CDDF" stroke="white" stroke-width="0.6" stroke-miterlimit="10"/>
<path d="M275.865 16.0107L279.334 22.1024H297.481V19.1347L293.878 17.4165L288.141 18.1975H282.67L275.865 16.0107Z" fill="#C3CDDF" stroke="white" stroke-width="0.6" stroke-miterlimit="10"/>
<path d="M287.874 25.2271V26.9453H293.478V29.4444L291.21 30.694V33.3493H320.031L322.432 30.0692L313.493 29.2882L309.49 29.913H300.55V23.9775L287.874 25.2271Z" fill="#C3CDDF" stroke="white" stroke-width="0.6" stroke-miterlimit="10"/>
<path d="M221.026 28.1947L243.175 22.103L247.445 29.2881L252.515 28.6633V25.6955H260.387V30.85L238.505 35.2235L221.026 28.1947Z" fill="#C3CDDF" stroke="white" stroke-width="0.6" stroke-miterlimit="10"/>
<path d="M267.059 25.5391V29.6002H271.596V31.4745H279.601L283.604 33.3489L288.675 30.3812H282.937V25.5391H267.059Z" fill="#C3CDDF" stroke="white" stroke-width="0.6" stroke-miterlimit="10"/>
<path d="M297.481 35.6919L283.738 44.9075V48.8124H290.676V50.843H309.089L312.158 49.7496L320.164 59.1214L303.352 70.0551H298.015V73.9601H309.223L314.693 80.2079H325.501L331.906 72.8667L328.036 68.337L332.173 63.4949L338.577 70.9923L346.583 61.4643L335.508 55.2165L339.911 51.4677L323.767 36.4729L297.481 35.6919Z" fill="#C3CDDF" stroke="white" stroke-width="0.6" stroke-miterlimit="10"/>
<path d="M256.918 39.597C256.918 39.597 259.053 45.6887 260.387 45.6887C261.722 45.6887 272.129 41.159 272.129 41.159L274.664 33.5054L256.918 39.597Z" fill="#C3CDDF" stroke="white" stroke-width="0.6" stroke-miterlimit="10"/>
<path d="M197.008 42.0956L200.477 45.532H207.416L215.555 42.0956V43.8138L213.02 46.7815H210.752V47.8749H221.026L223.828 51.3112H211.285V53.0294H216.222V54.1228L214.754 55.8409V56.9343H221.026L235.569 52.717V54.279L240.64 56.3095L245.577 55.6847L247.178 52.0922L250.914 52.717L252.515 50.6864L246.511 46.6253L249.046 44.5948L250.113 39.9089L255.45 38.1907V36.004L245.176 37.7221L241.974 43.97L240.239 43.3452L241.307 40.3775L238.238 38.6593L230.766 38.8155L226.63 34.1296H219.691L219.024 33.3486H208.35V36.3164L197.008 42.0956Z" fill="#C3CDDF" stroke="white" stroke-width="0.6" stroke-miterlimit="10"/>
<path d="M273.864 73.8037V75.0533L269.194 76.7715V77.7086H273.464V79.1144H275.865L281.469 75.2095L285.472 78.3334L288.941 76.4591L286.406 73.8037L286.673 72.7104L281.87 68.1807H279.335L273.864 73.8037Z" fill="#C3CDDF" stroke="white" stroke-width="0.6" stroke-miterlimit="10"/>
<path d="M275.065 82.3945V83.9565H278L282.403 81.145V79.583L278.133 80.2078L275.065 82.3945Z" fill="#C3CDDF" stroke="white" stroke-width="0.6" stroke-miterlimit="10"/>
<path d="M283.738 84.5818L285.739 82.395H288.141V83.4884L286.006 85.9875L283.738 84.5818Z" fill="#C3CDDF" stroke="white" stroke-width="0.6" stroke-miterlimit="10"/>
<path d="M306.02 138.782L307.889 140.968V141.906L311.758 143.624L314.293 143.155V141.125L309.623 138.782H306.02Z" fill="#C3CDDF" stroke="white" stroke-width="0.6" stroke-miterlimit="10"/>
<path d="M319.497 147.997L332.306 133.002L337.11 131.284V132.689L331.372 139.406H333.907V141.124H339.778V142.842H338.044V144.873H340.979V149.246L337.51 153.464H334.975L337.11 150.964L335.642 149.402L332.039 153.62H328.97V151.589H331.105L332.573 149.871H329.638V148.934H319.497V147.997Z" fill="#C3CDDF" stroke="white" stroke-width="0.6" stroke-miterlimit="10"/>
<path d="M301.884 153.464L305.62 156.432L308.422 155.026V154.089H305.086L303.485 152.995V151.902H302.017L301.884 153.464Z" fill="#C3CDDF" stroke="white" stroke-width="0.6" stroke-miterlimit="10"/>
<path d="M335.909 120.974L335.241 118.163L327.903 113.321V110.822L326.835 109.572L328.837 106.604L326.435 91.141H324.7L317.896 99.107H316.294L311.758 100.825L308.822 96.4516L312.825 89.8914L311.224 88.017H307.488V84.4245L303.485 81.4568L300.817 83.0187H297.614L293.878 80.9882L290.276 83.3311V86.2989L287.474 88.9542V93.4839L282.003 99.888L284.405 102.7V107.073L280.402 111.759L269.194 116.913V119.881L266.925 127.847L263.323 131.44H259.72V129.565L258.252 127.847V124.411L261.321 125.66L261.988 123.317L259.32 121.287V117.851L262.389 115.508V113.789H254.116L252.648 112.071L246.644 107.385L241.974 104.886H237.037L238.905 98.4822H235.303V96.1392L239.973 90.6724L253.049 80.051H258.786V77.3957H261.855L263.456 74.4279H268.66L274.397 70.9916L274.931 69.2734L279.735 66.1495V64.2752H284.138V65.9933L286.139 68.8049L287.34 65.9933L294.812 62.8694L296.947 59.9017V56.6215H300.55V52.7166H291.343V55.372L280.135 60.8388L278.801 59.2769L282.003 55.5282L280.001 53.1852L276.666 57.0901L274.931 53.81V51.1546C274.931 51.1546 277.199 52.0918 277.199 51.1546C277.199 50.2175 277.199 43.8134 277.199 43.8134L280.802 40.3771H284.805L291.743 36.1598V35.0664H280.535L274.531 42.8762L262.789 49.7489L267.726 52.8728V57.0901H260.254V51.3108H256.785L250.914 58.1835H238.772L233.968 55.5282L220.759 61.6198H207.015V58.1835H210.618V54.7472L195.541 50.8423L183.799 48.4993L155.912 54.7472L146.438 52.248L105.876 93.6401L110.012 98.4822V101.45L107.077 105.199V115.82H111.346L112.814 112.852H114.816V118.319L112.014 122.068L113.748 127.222L111.88 132.533H108.011V137.531L114.015 144.56L113.748 145.185L119.752 147.684V143.311H207.683L220.358 148.465L223.961 146.747L224.495 147.84L230.366 143.623H235.303V147.528H237.704V152.839L238.772 157.837H244.509H247.845L249.046 159.243V162.054L246.644 164.866L245.176 163.148L243.442 165.178H242.107L237.571 170.489H237.037L236.103 174.081L240.907 172.051L246.911 169.864L248.779 166.115L257.852 165.022V166.115L264.39 161.273H276.132L285.872 149.871H290.676V152.682L288.808 157.056L289.875 159.867L297.614 158.462V160.336L290.809 164.866L292.41 168.927L300.95 163.304L310.423 160.18V159.086H312.959L315.093 156.119L313.492 155.025L314.56 152.995L313.092 151.901L308.956 156.119L308.822 157.993H304.819L300.55 155.025V150.808L306.287 144.873V142.061H300.95L286.273 149.09V146.903L297.214 141.592V138.781L299.616 135.969H320.564L328.303 132.377L332.306 131.908L336.709 128.784L339.244 122.224L335.909 120.974ZM178.862 70.9916L187.535 67.5553L181.397 64.4314L196.341 63.9628L191.404 67.3991L196.875 70.523L189.269 71.6164L186.868 71.4602L181.13 72.5536L174.992 75.5213L178.595 72.085L178.862 70.9916ZM203.279 82.394L186.2 89.2666H177.127V87.236L185.8 83.9559L185.934 80.3634L190.87 83.9559L203.146 79.7386V82.394H203.279ZM210.218 132.221L207.416 137.688L206.615 136.282L208.35 133.002V129.409L207.416 127.847L206.749 118.163L211.018 116.289L210.218 132.221Z" fill="#C3CDDF" stroke="white" stroke-width="0.6" stroke-miterlimit="10"/>
<path d="M105.609 93.3279L105.876 93.6403L146.705 52.092L115.749 44.126L83.0592 55.5283H75.4537L72.2514 57.2465L76.788 64.2753V67.2431H69.316V63.8067H62.7779L54.5053 67.2431V74.1157L68.382 71.7728V76.3025L40.762 85.5181V88.642L36.6257 90.0477V93.4841H43.4306V95.827L39.4277 100.513H42.0963H49.435L44.7649 103.793L1 120.194V122.068L25.9513 114.883V116.601H29.9542V112.852L50.6358 104.574L63.9788 98.17V95.3584L76.2543 89.5792V91.4535L69.9831 95.2022V97.0766L79.8569 93.3279H85.0607L87.8627 90.2039H92.7996L95.6016 93.3279H105.609Z" fill="#C3CDDF" stroke="white" stroke-width="0.6" stroke-miterlimit="10"/>
<path d="M290.943 150.183H286.139L276.399 161.586H264.657L258.119 166.271V168.927H249.046V172.051L236.637 179.08H232.233V175.799L236.236 174.081L237.17 170.489H236.904V166.115L234.368 169.083V167.99L237.704 164.085V160.336L235.569 157.681H233.835L230.499 161.742L229.698 160.805L224.361 167.209V170.645L219.958 175.799H217.289V169.395L227.563 157.212H237.437V154.869H235.569H228.764L227.163 152.995V150.339L218.891 154.557H217.289V152.839L213.02 153.62V152.058L220.225 148.621L207.549 143.311H119.619V147.684L113.748 145.185L109.745 154.4L93.0663 182.203V211.881L100.805 220.94V221.253H110.946L122.287 227.5H132.295V224.377H138.833L143.102 229.375V234.842L146.038 238.278L149.24 234.529H154.044L156.712 237.497V250.618L164.184 253.585L164.318 253.117V245.932L169.388 239.996L182.197 233.748L189.136 237.653L192.872 235.466L194.74 237.028L195.941 235.779L194.073 233.124L197.675 231.405H207.416L209.55 233.748H212.086L213.02 232.655H215.288L218.49 236.247V239.84L215.688 242.964V248.743L219.958 256.709H222.093L224.628 247.806V239.215L222.36 231.874L228.364 221.877H229.698L236.103 214.38H239.572L242.374 211.1H246.377V207.039L248.512 204.383V194.699L250.246 192.825L251.581 194.543L250.513 196.886L251.581 197.511L255.717 192.356L255.45 189.232H257.185L262.255 183.297V180.329L274.13 177.83V173.769H275.465V170.645L280.268 166.428L289.208 162.679V160.336L290.142 160.18L289.075 157.368L290.943 152.995V150.183Z" fill="#C3CDDF" stroke="white" stroke-width="0.6" stroke-miterlimit="10"/>
<path d="M248.378 282.013L246.11 280.764L243.308 282.013L243.175 282.95L246.244 283.263L246.11 287.48H239.038C239.038 287.949 239.038 289.355 239.038 289.355L241.307 292.01L243.041 289.355H247.845L248.112 289.667L250.113 281.545L248.378 282.013Z" fill="#C3CDDF" stroke="white" stroke-width="0.6" stroke-miterlimit="10"/>
<path d="M259.853 285.293H257.318L252.915 280.764L250.246 281.545L248.245 289.667L249.979 291.854H251.314V288.417H253.315V289.667H255.984V288.417L259.853 289.667L261.454 287.48L259.853 285.293Z" fill="#C3CDDF" stroke="white" stroke-width="0.6" stroke-miterlimit="10"/>
<path d="M184.733 306.849L189.536 301.069H187.401V299.976L186.467 300.601H185.133L186.334 291.229H178.461V294.197L181.263 297.477V299.976H175.526C175.526 299.976 174.192 303.881 173.391 306.38L180.463 311.535H180.863L184.733 306.849Z" fill="#C3CDDF" stroke="white" stroke-width="0.6" stroke-miterlimit="10"/>
<path d="M181.263 299.975V297.476L178.461 294.196V291.228H186.334H186.867L190.737 286.698L192.738 289.041L194.473 283.887V280.294L197.675 276.546L197.809 273.578H191.537L183.798 275.452V281.388L179.662 286.386H174.592V288.26L168.454 289.666L167.387 288.416H163.784L159.781 273.578V267.955L164.184 253.897L156.712 250.929V237.809L154.177 234.841H149.374L146.171 238.59L143.236 235.153V229.374L138.966 224.376H132.428V227.5H122.554L111.213 221.252H101.072V234.06L106.543 240.464V244.057H102.006V246.087L109.478 254.834L106.943 257.802L114.548 266.705V268.736H118.018V261.863L114.415 257.646V251.554L110.279 238.746L107.477 232.967V225.313L115.216 229.687V237.184L122.421 249.367L120.686 252.023L132.161 268.892V278.42H129.359V281.388L136.031 289.197H142.035L159.381 302.162L166.186 297.944L173.391 306.379C174.192 303.88 175.526 299.975 175.526 299.975H181.263Z" fill="#C3CDDF" stroke="white" stroke-width="0.6" stroke-miterlimit="10"/>
<path d="M187.001 291.229H186.467L185.266 300.757H186.6L187.401 299.976V298.726L191.004 294.509L192.872 289.042L190.87 286.699L187.001 291.229Z" fill="#C3CDDF" stroke="white" stroke-width="0.6" stroke-miterlimit="10"/>
<path d="M203.013 324.967V318.251L205.014 317.157V310.128L206.482 308.41V306.067H200.077L193.272 310.753V314.971H190.203V317.001L196.074 323.874L203.146 325.123L203.013 324.967Z" fill="#C3CDDF" stroke="white" stroke-width="0.6" stroke-miterlimit="10"/>
<path d="M184.733 306.849L180.863 311.535H189.669C189.669 310.754 189.669 309.816 189.669 309.816L184.733 306.849Z" fill="#C3CDDF" stroke="white" stroke-width="0.6" stroke-miterlimit="10"/>
<path d="M193.272 310.754L200.077 306.224H206.615V303.256L205.014 301.382H189.669L184.866 307.161L189.803 310.129C189.803 310.129 189.803 310.91 189.803 311.847H190.337V315.283H193.406V310.754H193.272Z" fill="#C3CDDF" stroke="white" stroke-width="0.6" stroke-miterlimit="10"/>
<path d="M203.146 325.124L196.074 323.874L196.341 324.03V329.653L201.812 335.901V337.619L205.014 341.368V338.4H205.948L206.748 329.185L203.146 325.124Z" fill="#C3CDDF" stroke="white" stroke-width="0.6" stroke-miterlimit="10"/>
<path d="M226.496 335.746L222.493 330.904L218.09 330.591L211.686 334.965L206.749 329.186L205.948 338.401H209.017V341.369H215.955V337.308L218.891 333.871L221.96 337.62L220.759 339.026L223.427 342.15L226.496 338.714V335.746Z" fill="#C3CDDF" stroke="white" stroke-width="0.6" stroke-miterlimit="10"/>
<path d="M217.023 398.068L219.024 401.035L221.96 391.351L231.166 386.822V377.45L218.224 367.453L217.29 368.39V370.421L214.221 372.139V376.356L210.618 380.574V387.915L214.087 391.976V393.226L213.153 394.319L213.554 397.911L217.023 398.068Z" fill="#C3CDDF" stroke="white" stroke-width="0.6" stroke-miterlimit="10"/>
<path d="M239.972 388.383L246.911 387.133L250.513 389.476L248.512 394.787L251.714 395.568L253.582 381.51L250.38 377.762V373.857H254.116V371.514H251.714V368.39H261.455L259.32 363.235V346.522H253.582L250.78 343.242H243.975L242.107 333.089H240.106L242.774 324.342L245.576 322.468L245.443 321.999L249.446 318.876L247.711 316.064L240.506 322.78H235.436L231.833 326.998V330.746L227.03 336.37L226.496 335.745V338.712L223.427 342.149L225.562 344.648V349.49L224.628 350.583V359.955L218.223 367.453L231.166 377.449V378.699L239.038 383.072L239.972 388.383Z" fill="#C3CDDF" stroke="white" stroke-width="0.6" stroke-miterlimit="10"/>
<path d="M255.984 450.706L257.452 444.458L257.719 436.18L254.383 428.995H250.247V423.371H243.442L235.703 414.312L240.106 408.064V401.035L248.379 397.13H251.581L251.714 395.568L248.512 394.787L250.513 389.477L246.911 387.134L239.973 388.383L239.039 383.073L231.166 378.699V386.821L221.96 391.351L219.024 401.035L217.023 398.068L213.553 397.911L213.153 394.319L210.351 397.599V400.723L213.02 403.847V405.096H211.018V406.815L216.489 410.407L219.291 416.499L231.033 440.865V444.614L249.313 458.672V461.483L253.983 464.764L257.318 461.015L256.384 458.984L258.92 454.611L255.984 450.706Z" fill="#C3CDDF" stroke="white" stroke-width="0.6" stroke-miterlimit="10"/>
<path d="M286.006 340.899V342.617H283.337V348.709L285.872 351.833V352.302L287.607 352.145L288.941 358.081L286.539 360.736V365.578H288.007V368.234L291.476 371.045L296.814 367.765V360.736L294.679 358.237V352.77H297.748V347.616L288.941 336.37H288.007V338.556L286.006 340.899Z" fill="#C3CDDF" stroke="white" stroke-width="0.6" stroke-miterlimit="10"/>
<path d="M294.679 352.77V358.237L296.813 360.736V367.765L301.217 368.077V365.578L304.953 364.329L306.554 366.047L308.956 361.361V358.706L307.354 357.144V351.677L309.089 351.208L310.023 349.022L307.221 347.928H298.014L297.747 347.616V352.77H294.679Z" fill="#C3CDDF" stroke="white" stroke-width="0.6" stroke-miterlimit="10"/>
<path d="M268.793 375.106L274.931 367.921V365.266H272.262V360.424L270.261 357.612H277.466L285.872 354.801V352.301V351.833L283.337 348.709V342.617H286.006V340.899L288.007 338.556V336.369H284.805V331.215L279.201 324.811H273.863L271.595 327.466H267.726L266.258 325.748H258.786V322.624H254.383L253.315 318.407H251.714V321.843L247.845 325.436L249.846 328.403L249.312 333.089L247.444 333.87L244.909 329.653L246.377 325.904L245.576 322.468L242.774 324.342L240.106 333.089H242.107L243.975 343.242H250.78L253.582 346.522H259.32V363.235L261.455 368.39H261.188V375.106H268.793Z" fill="#C3CDDF" stroke="white" stroke-width="0.6" stroke-miterlimit="10"/>
<path d="M309.623 365.578L313.359 366.047L318.029 355.894L313.359 350.427L310.023 349.021L309.089 351.208L307.355 351.677V357.144L308.956 358.706V361.361L306.955 365.266L308.689 366.672L309.623 365.578Z" fill="#C3CDDF" stroke="white" stroke-width="0.6" stroke-miterlimit="10"/>
<path d="M376.471 401.035H371.134L360.993 389.164H352.453L347.517 387.915L342.98 391.819V386.509L332.839 380.105L329.637 383.697H327.502L330.037 378.074V376.512H322.966L320.43 380.105L318.963 378.855L323.633 371.67V367.453H321.231L319.096 357.144L318.429 356.363L318.029 355.894L313.359 366.047L309.623 365.578L308.689 366.672L306.954 365.266L306.554 366.047L304.953 364.329L301.216 365.578V368.078L296.813 367.765L291.476 371.045L288.007 368.234V365.578H286.539V360.736L288.941 358.081L287.607 352.146L285.872 352.302V354.801L277.466 357.612H270.261L272.262 360.424V365.266H274.931V367.921L268.793 375.106H261.188V368.39H251.714V371.514H254.116V373.857H250.38V377.762L253.582 381.51L251.581 397.13H248.378L240.106 401.035V408.064L235.702 414.312L243.441 423.371H250.246V428.994H254.383L254.65 429.463L258.386 429.931L259.32 427.901H260.654L264.523 423.215H269.193V431.962L273.997 437.429H276.932L281.335 442.583H285.605L287.34 444.614V454.923H296.28V459.765H298.281L299.882 463.982L297.881 471.636L299.882 477.259V482.413H307.354L309.623 491.941H313.759V499.439H316.828V506.311L305.353 519.901L322.832 533.177L323.9 539.738L325.634 537.707V530.678L330.838 524.587V518.651L335.908 512.716V508.967L334.307 507.092V498.345H335.908L346.316 486.318H356.857V483.819H359.659L363.662 470.542V463.826H364.862V438.678H366.864L371.4 428.682H373.936L379.006 422.59V409.47L376.471 401.035Z" fill="#C3CDDF" stroke="white" stroke-width="0.6" stroke-miterlimit="10"/>
<path d="M261.322 469.762L261.722 476.947L264.924 486.631H267.459H268.393L271.329 481.789L283.471 483.039V470.855L294.546 468.825L298.015 470.855L299.883 463.983L298.282 459.765H296.28V454.923H287.34V444.614L285.606 442.584H281.336L276.933 437.429H273.997L269.194 431.962V423.215H264.524L260.655 427.901H259.32L258.386 429.932L254.65 429.463L257.719 436.18L257.452 444.458L255.985 450.706L258.92 454.611L256.385 458.984L257.319 461.015L256.518 461.796L258.92 468.2L261.322 469.762Z" fill="#C3CDDF" stroke="white" stroke-width="0.6" stroke-miterlimit="10"/>
<path d="M313.092 544.892H319.497L323.9 539.738L322.832 533.177L306.554 520.838L304.819 523.025L307.221 539.113L307.621 538.644L313.092 544.892Z" fill="#C3CDDF" stroke="white" stroke-width="0.6" stroke-miterlimit="10"/>
<path d="M302.952 497.565L299.883 507.405L309.623 508.499L313.493 504.125L314.026 499.439H313.76V491.942H309.623L307.355 482.414H299.883V477.259L297.881 471.636L298.015 470.855L294.546 468.825L283.471 470.855V482.882L288.942 489.911L302.952 497.565Z" fill="#C3CDDF" stroke="white" stroke-width="0.6" stroke-miterlimit="10"/>
<path d="M297.748 627.832H294.946L294.545 625.489L285.606 624.396L283.604 618.148L277.066 613.306L279.067 608.151L277.466 588.627H274.664L267.726 573.475V539.737L262.789 528.647V518.651L265.458 507.092V496.471L268.66 492.722V486.63H267.459H264.924L261.722 476.946L261.321 469.761L258.92 468.355L256.518 461.951L253.983 464.919L254.116 465.075L256.251 478.352V515.214L258.119 517.401V520.837L256.651 522.555V525.211L259.987 533.802C259.987 533.802 260.521 552.701 259.987 553.17C259.453 553.795 258.119 553.17 258.119 553.17V555.513L261.722 564.572V573.788L263.323 575.662V584.722H265.991V576.131L267.326 577.224L270.395 594.25H268.793L267.326 589.564L265.191 589.251L266.525 595.031L264.924 599.092L266.525 601.591H270.661V605.34H267.993L273.463 619.241H275.865V622.365L281.603 629.706L286.673 633.924L301.35 639.547L302.151 637.36L297.748 627.832Z" fill="#C3CDDF" stroke="white" stroke-width="0.6" stroke-miterlimit="10"/>
<path d="M316.828 499.439H314.026L313.492 504.125L309.623 508.498L299.882 507.405L302.951 497.564L288.941 489.911L283.471 482.882V483.038L271.329 481.789L268.393 486.631V492.722L265.191 496.471V507.092L262.522 518.651V528.648L267.593 539.737V573.476L274.397 588.627H277.333L278.934 608.152L276.933 613.306L283.471 618.148L285.472 624.396L294.412 625.489L294.812 627.832H297.748L302.151 637.204L301.484 639.391L305.086 640.797L312.692 638.297V636.423H309.623L297.881 626.895H295.479V625.333L296.413 624.24L292.944 617.211V615.493H295.479V610.494L299.349 605.965V601.747H294.679L290.809 597.218V592.844H294.812V583.004H297.214V578.162H293.078L289.475 573.944V570.977L296.814 574.257L299.882 570.664V565.51L297.881 563.167V560.512L300.55 563.636L313.225 558.95V555.982L314.693 554.264V550.203H311.491V545.985L306.421 540.05L307.221 539.113L304.819 523.024L306.554 520.838L305.353 519.901L316.828 506.311V499.439Z" fill="#C3CDDF" stroke="white" stroke-width="0.6" stroke-miterlimit="10"/>
<path d="M172.59 370.889L173.925 368.546L175.793 370.42L174.191 372.138L172.59 370.889Z" fill="#C3CDDF" stroke="white" stroke-width="0.6" stroke-miterlimit="10"/>
<path d="M175.793 371.514L177.661 377.918L175.926 379.636L172.991 379.949L172.323 376.669L174.992 374.638L174.725 372.451L175.793 371.514Z" fill="#C3CDDF" stroke="white" stroke-width="0.6" stroke-miterlimit="10"/>
<path d="M176.86 371.358L177.261 373.077L178.995 372.139L178.461 370.109L176.86 371.358Z" fill="#C3CDDF" stroke="white" stroke-width="0.6" stroke-miterlimit="10"/>
<path d="M178.862 374.013L178.462 375.419L179.396 375.731L179.796 374.169L178.862 374.013Z" fill="#C3CDDF" stroke="white" stroke-width="0.6" stroke-miterlimit="10"/>
<defs>
<linearGradient id="paint0_linear_1719_9095" x1="880.249" y1="373.809" x2="880.249" y2="368.05" gradientUnits="userSpaceOnUse">
<stop stop-color="#FF7400"/>
<stop offset="1" stop-color="#FFAB52"/>
</linearGradient>
</defs>
</svg>
