<svg width="1110" height="640" viewBox="0 0 1110 640" fill="none" xmlns="http://www.w3.org/2000/svg">
<path d="M965.295 172.098L970.365 177.252L973.434 174.753L968.897 172.41L972.633 171.317L979.038 174.753L979.172 171.161L983.575 168.349L979.972 163.819L967.43 158.509H965.295L969.698 167.881H966.496L965.295 172.098Z" fill="url(#paint0_linear_1719_9866)" stroke="white" stroke-width="0.6" stroke-miterlimit="10"/>
<path d="M982.508 186.936L974.368 176.784L970.899 178.814V184.281H974.368V192.56L969.165 198.651L967.697 197.402V204.743L964.761 203.962L957.69 204.743L953.02 210.991V213.334L950.351 216.458L958.09 225.673L960.091 223.33V217.239L955.555 213.802L963.16 209.741H967.83V212.709L970.632 215.989L975.836 209.897H980.373V206.461H983.575V202.556L982.508 201.307V186.936Z" fill="url(#paint1_linear_1719_9866)" stroke="white" stroke-width="0.6" stroke-miterlimit="10"/>
<path d="M961.293 212.239V213.177H963.027V211.458H965.162L967.03 213.645L965.162 215.676H963.428V218.487H961.693L960.092 214.739V212.396L961.293 212.239Z" fill="#C3CDDF" stroke="white" stroke-width="0.6" stroke-miterlimit="10"/>
<path d="M791.703 329.075V342.351L793.838 347.35L799.175 343.913V338.915L793.705 329.075H791.703Z" fill="#C3CDDF" stroke="white" stroke-width="0.6" stroke-miterlimit="10"/>
<path d="M942.212 310.801L948.483 316.424L950.618 312.05L945.147 306.74L941.278 307.833L938.743 303.46V298.774H940.878L942.078 293.463L939.944 287.684L933.672 286.434V297.68H931.804L936.208 309.239L942.212 310.801Z" fill="#C3CDDF" stroke="white" stroke-width="0.6" stroke-miterlimit="10"/>
<path d="M938.342 316.424H939.81V311.738L935.674 310.488L938.342 316.424Z" fill="#C3CDDF" stroke="white" stroke-width="0.6" stroke-miterlimit="10"/>
<path d="M943.946 328.919L947.682 332.98L952.619 328.295L949.15 322.359L947.549 324.233L942.612 318.61V325.327H946.481V328.919H943.946Z" fill="#C3CDDF" stroke="white" stroke-width="0.6" stroke-miterlimit="10"/>
<path d="M952.352 318.923L950.618 321.109L954.487 326.732L957.022 322.984L955.421 320.953V317.673L953.82 315.486L950.618 316.424L952.352 318.923Z" fill="#C3CDDF" stroke="white" stroke-width="0.6" stroke-miterlimit="10"/>
<path d="M960.626 339.385L957.023 327.514L954.755 328.138L955.689 332.043L952.62 335.636H947.016L942.079 341.259H943.413L945.548 338.76H951.152V344.071L954.755 348.288H956.089V340.478H959.425V344.695L960.626 339.385Z" fill="#C3CDDF" stroke="white" stroke-width="0.6" stroke-miterlimit="10"/>
<path d="M926.868 336.573L936.475 325.327L934.34 322.984L926.201 335.011L926.868 336.573Z" fill="#C3CDDF" stroke="white" stroke-width="0.6" stroke-miterlimit="10"/>
<path d="M1043.62 596.171L1049.89 598.201L1083.65 576.803V572.273H1080.31L1080.05 569.461L1043.62 596.171Z" fill="#C3CDDF" stroke="white" stroke-width="0.6" stroke-miterlimit="10"/>
<path d="M1086.45 572.585L1088.45 574.616L1109 556.966L1107.27 555.091L1102.46 556.966L1099.13 555.091L1100.99 551.499L1099.26 543.845L1095.66 541.814V552.748L1086.85 563.213L1089.65 567.275L1086.45 572.585Z" fill="#C3CDDF" stroke="white" stroke-width="0.6" stroke-miterlimit="10"/>
<path d="M974.502 432.789L976.237 431.071V428.884H971.567L972.101 430.134L974.502 432.789Z" fill="#C3CDDF" stroke="white" stroke-width="0.6" stroke-miterlimit="10"/>
<path d="M1036.15 489.333V481.992H1033.61V471.37L1025.34 461.686V446.066H1019.47V432.946H1017.2V425.917H1014.26L1010.66 440.912V446.847L1006.79 460.593H1003.32L990.114 445.129L996.519 434.508L994.651 431.384L991.582 433.414L980.107 430.134L979.973 434.82H973.435L967.164 442.161V447.004H962.761L958.358 442.005L940.345 457V463.092L907.254 480.898L903.385 492.144L906.053 499.173L902.184 502.922V532.287L899.916 534.942V540.097L902.984 543.533H911.257L917.395 536.504H929.404L932.606 532.755L959.292 527.132L967.965 530.881V543.533L969.432 541.815L978.773 531.037L979.973 533.224L972.635 543.533L974.102 544.939L978.239 541.034L975.971 546.501H979.973V558.215L988.379 561.496L993.583 558.215L996.919 561.496L1011.86 555.091L1016.27 546.969L1030.81 531.662L1040.95 510.888V494.8L1036.15 489.333Z" fill="#C3CDDF" stroke="white" stroke-width="0.6" stroke-miterlimit="10"/>
<path d="M992.516 573.055L987.846 569.619L985.444 572.586V578.209L984.243 579.303V583.989H988.38L990.781 581.021H992.249L999.721 572.274L997.987 570.712L992.516 573.055Z" fill="#C3CDDF" stroke="white" stroke-width="0.6" stroke-miterlimit="10"/>
<path d="M1050.96 398.582H1049.76L1048.16 401.237H1038.28L1039.08 404.674H1042.95L1044.42 406.392L1050.56 402.487H1053.36V395.927H1050.96V398.582Z" fill="#C3CDDF" stroke="white" stroke-width="0.6" stroke-miterlimit="10"/>
<path d="M1048.56 388.586L1055.36 394.678V397.958H1056.96V393.897L1048.56 387.024V388.586Z" fill="#C3CDDF" stroke="white" stroke-width="0.6" stroke-miterlimit="10"/>
<path d="M1061.23 400.456L1064.57 409.047H1066.57V405.455L1062.57 399.832L1061.23 400.456Z" fill="#C3CDDF" stroke="white" stroke-width="0.6" stroke-miterlimit="10"/>
<path d="M1068.04 406.236L1067.9 408.267L1071.24 411.391H1073.51V410.454H1071.64L1068.04 406.236Z" fill="#C3CDDF" stroke="white" stroke-width="0.6" stroke-miterlimit="10"/>
<path d="M1080.05 416.702V414.046L1076.84 411.391H1074.84V412.953H1077.11L1078.71 416.702H1080.05Z" fill="#C3CDDF" stroke="white" stroke-width="0.6" stroke-miterlimit="10"/>
<path d="M1067.9 414.827L1071.51 418.263H1073.51V416.233L1067.9 412.171V414.827Z" fill="#C3CDDF" stroke="white" stroke-width="0.6" stroke-miterlimit="10"/>
<path d="M1078.44 422.168H1082.71V420.606L1078.44 419.044V422.168Z" fill="#C3CDDF" stroke="white" stroke-width="0.6" stroke-miterlimit="10"/>
<path d="M1041.88 421.075V419.044H1038.95L1033.48 407.954H1037.62L1036.41 404.049L1030.28 401.238L1029.48 396.864L1026.54 394.678H1025.47L1014 388.43V420.138L1018.27 420.762L1022.27 412.796L1030.41 414.827L1035.88 425.136H1042.02L1045.22 427.635L1046.29 424.823L1043.49 421.075H1041.88Z" fill="#C3CDDF" stroke="white" stroke-width="0.6" stroke-miterlimit="10"/>
<path d="M656.94 176.939L659.208 178.658H661.343V178.033L660.409 176.939L660.009 174.44L655.072 171.785H651.336L640.795 167.099L639.06 167.568C641.462 170.379 643.73 173.035 643.864 173.191C643.997 173.347 643.864 175.221 643.864 175.221L642.396 176.939H647.6L649.334 178.97H654.938L656.94 176.939Z" fill="#C3CDDF" stroke="white" stroke-width="0.6" stroke-miterlimit="10"/>
<path d="M656.54 186L657.207 185.062L660.409 187.405L660.809 189.436L662.811 189.28L662.41 185.843L659.208 184.594L660.142 183.344L656.273 178.971H655.205H649.601L650.268 179.752L653.871 188.499L656.139 185.375L656.54 186Z" fill="#C3CDDF" stroke="white" stroke-width="0.6" stroke-miterlimit="10"/>
<path d="M657.206 185.062L656.539 185.999L658.807 189.592L660.809 189.436L660.408 187.405L657.206 185.062Z" fill="#C3CDDF" stroke="white" stroke-width="0.6" stroke-miterlimit="10"/>
<path d="M667.347 175.378L664.946 178.658L661.877 175.221L660.142 174.284L660.542 176.94L661.476 178.033V178.658H659.208L656.94 176.94L655.205 178.97H656.273L660.142 183.344L659.208 184.593L662.41 185.843L662.677 188.967L666.013 185.53L668.015 186.155L667.748 190.06L670.016 191.31V188.81L671.484 187.092V183.656L673.619 182.25L667.347 175.378Z" fill="#C3CDDF" stroke="white" stroke-width="0.6" stroke-miterlimit="10"/>
<path d="M689.63 285.808H679.623L672.551 294.243L671.083 292.525L658.541 291.432V295.18L656.806 297.211L656.94 297.367L661.21 314.549L691.098 300.491V297.367L694.3 295.18L690.297 285.496L689.63 285.808Z" fill="#C3CDDF" stroke="white" stroke-width="0.6" stroke-miterlimit="10"/>
<path d="M701.239 256.444H703.907L702.173 251.446L694.834 261.13H688.163L690.431 265.972L699.504 266.909L701.239 260.661V256.444Z" fill="#C3CDDF" stroke="white" stroke-width="0.6" stroke-miterlimit="10"/>
<path d="M716.85 267.69L712.18 262.067L704.841 259.099L703.907 256.444H701.238V260.661L699.504 266.909L701.906 269.877L700.038 279.717L690.297 285.496L694.3 295.181L710.178 284.872L716.85 267.69Z" fill="#C3CDDF" stroke="white" stroke-width="0.6" stroke-miterlimit="10"/>
<path d="M686.028 258.005V249.727H684.026L682.559 254.256L684.56 258.786L686.028 258.005Z" fill="#C3CDDF" stroke="white" stroke-width="0.6" stroke-miterlimit="10"/>
<path d="M667.347 236.45L660.809 235.826L645.465 221.612H640.661L634.39 225.048L636.792 228.328L635.991 231.765H633.323L631.321 236.45L626.384 234.732L625.317 241.605H628.653L656.806 297.211L658.541 295.18V291.432L671.083 292.525L672.551 294.243L679.623 285.809H689.63L700.038 279.717L701.906 269.877L699.504 266.909L690.431 265.972L688.162 261.13H687.762L686.028 258.943V258.006L684.56 258.787L682.558 254.257L682.291 254.882L674.286 239.262V232.546L669.082 231.608L667.347 236.45Z" fill="#C3CDDF" stroke="white" stroke-width="0.6" stroke-miterlimit="10"/>
<path d="M630.254 214.739V212.24H631.054V210.99L628.119 208.491V210.053L625.984 217.394H627.986L630.254 214.739Z" fill="#C3CDDF" stroke="white" stroke-width="0.6" stroke-miterlimit="10"/>
<path d="M628.119 217.238L627.986 217.394H625.984L623.316 226.61H623.182L626.385 234.264V234.732L626.785 234.888L628.119 226.766V217.238Z" fill="#C3CDDF" stroke="white" stroke-width="0.6" stroke-miterlimit="10"/>
<path d="M631.455 220.987H633.056L646.132 210.678V204.274V202.868V200.681H647.733L650.402 197.713H649.334H643.463L641.062 200.369H630.254L628.119 202.868V208.491L631.054 210.99V212.24H630.254V214.739L628.119 217.238V218.644H629.32L631.455 220.987Z" fill="#C3CDDF" stroke="white" stroke-width="0.6" stroke-miterlimit="10"/>
<path d="M671.885 227.078H670.817V222.236L668.949 220.049H667.615L665.747 218.019H663.745V216.301L660.81 213.021V209.897L662.411 208.022H663.612V207.398L662.811 206.46V203.336H660.41L657.341 197.713H655.74H654.539H650.402L647.734 200.681H646.133V202.868V204.274V210.678L638.927 216.457L640.795 221.611H645.465L660.81 235.825L667.348 236.45L669.082 231.608L674.286 232.545V232.389L671.885 229.734V227.078Z" fill="#C3CDDF" stroke="white" stroke-width="0.6" stroke-miterlimit="10"/>
<path d="M723.521 247.697H726.857V244.261H724.055V238.794H722.187L716.049 231.609L718.984 228.329V224.736H716.316L714.314 215.677L713.38 214.583V200.369H711.112L702.572 194.903H698.97V193.028H691.364V196.777H688.029V198.339L682.024 200.369L675.219 196.308H672.017L670.016 191.935V191.622V191.31L667.747 190.06L668.014 186.155L666.013 185.531L662.677 188.967L662.81 189.279L660.809 189.436L658.808 189.592L656.539 185.999L656.139 185.375L653.871 188.498L657.607 197.714H657.34L660.409 203.337H662.81V206.461L663.611 207.398V208.023H662.41L660.809 209.897V213.021L663.744 216.301V218.02H665.746L667.614 220.05H668.948L670.816 222.237V227.079H671.884V229.734L674.285 232.39V231.14H679.222L684.826 242.23L688.029 242.386L694.033 248.478H701.105V246.135H705.641V250.196L721.386 253.632V250.352L723.521 247.697Z" fill="#C3CDDF" stroke="white" stroke-width="0.6" stroke-miterlimit="10"/>
<path d="M782.764 144.138V140.389L781.163 139.92H775.959L769.421 132.267L763.55 133.516L760.881 130.705L758.346 133.048L742.601 118.053V114.929L737.531 120.865H734.329V117.272H725.923L723.254 111.805L716.716 111.649L696.435 117.741L695.101 119.459L696.568 122.739L694.967 128.05L699.904 130.08V133.985H692.699L690.564 131.486H685.093L682.958 133.985L672.551 128.674H667.214L660.009 133.204L662.277 135.859L660.943 137.421L657.473 133.36L655.339 135.859V144.606H657.74V148.199H661.076L666.413 154.447L667.08 153.666L672.017 150.698H678.422L680.557 153.197V158.039H673.885L670.816 161.632V163.506H672.951L677.621 168.973H680.69V172.566L681.624 176.002L682.291 173.19H684.693L684.826 173.347L686.561 172.566L689.096 174.752L690.697 177.72H692.432L689.23 160.07L697.903 157.415L699.904 158.664L698.837 155.696L699.904 153.041L702.172 154.134L705.508 160.538L704.841 161.944L707.109 163.35L710.712 167.567H720.719L723.921 171.316V173.815H727.257V178.189H732.594V181.313H735.663L741.401 172.253V170.379H748.739V168.504H751.274L752.876 170.379H766.219L771.422 172.253L772.356 167.88L767.419 159.914L771.689 158.039L775.292 158.976V157.883L773.824 156.009V150.386H782.097V148.511L780.496 146.637V144.138H782.764ZM761.415 152.26H750.074L747.138 155.696L747.405 160.382L744.203 158.352V153.353L746.738 150.386H761.282V152.26H761.415Z" fill="#C3CDDF" stroke="white" stroke-width="0.6" stroke-miterlimit="10"/>
<path d="M720.319 206.149V203.806L725.122 201.619V196.464H730.459V192.247H726.857L719.518 187.874L711.112 178.033H704.841V175.378L701.238 171.161H698.436V173.816H696.301V178.033L692.032 177.565L692.165 178.033H690.43L688.829 175.066L686.161 172.879L684.559 173.66L685.494 176.159L688.029 178.502L687.495 180.689H682.158V184.437H684.559L688.029 188.498V196.777H691.364V193.028H698.97V194.903H702.573L711.112 200.369H713.38V204.274L717.917 206.149H720.319Z" fill="#C3CDDF" stroke="white" stroke-width="0.6" stroke-miterlimit="10"/>
<path d="M736.463 193.185L732.194 187.562V185.375H735.663L740.066 179.439L741.934 180.689L740.867 181.782L742.468 183.344H746.337L749.006 180.377L743.802 176.628V178.502L739.532 176.628L741.667 173.973L740.6 173.192L735.263 181.782H732.194V178.502H726.856V174.129H723.521V171.63L720.452 167.881H710.311L706.842 163.82L704.574 162.258L702.839 165.694L699.37 164.601L700.171 161.008L699.503 159.134L697.635 157.884L688.963 160.383L692.031 177.565L696.301 178.034V173.816H698.436V171.161H701.238L704.841 175.378V178.034H711.112L719.518 187.874L726.856 192.247H730.459V195.684L734.595 197.246L736.463 193.185Z" fill="#C3CDDF" stroke="white" stroke-width="0.6" stroke-miterlimit="10"/>
<path d="M489.353 117.117H488.018L487.084 118.366L485.216 116.804L488.685 113.056H484.416V115.867L482.948 117.585H478.545V120.709L480.146 122.74L474.809 128.988L476.81 131.487H482.281L486.017 127.113H489.619L490.954 122.271V119.304L491.754 118.366H489.353V117.117Z" fill="#C3CDDF" stroke="white" stroke-width="0.6" stroke-miterlimit="10"/>
<path d="M491.754 118.366L494.289 115.399L492.154 113.056H488.685L485.216 116.804L487.084 118.366L488.018 117.117H489.352V118.366H491.754Z" fill="#C3CDDF" stroke="white" stroke-width="0.6" stroke-miterlimit="10"/>
<path d="M514.971 125.395L514.037 122.271L512.836 123.833H509.767L511.101 121.49L508.299 115.242H507.232L504.83 112.431L502.162 109.307V107.432L505.231 103.996V102.746H498.826L501.494 99.6226V98.2168H498.025L495.223 101.497H492.555V105.714L491.487 106.808V110.088H490.82L492.021 111.494L492.688 110.556V112.274H494.022L495.49 110.556L496.291 111.494L494.823 113.368L495.757 114.461H499.493L500.027 118.679V122.271H495.09L495.49 124.458V127.582H493.355V129.144H495.357L497.625 129.925L500.827 129.144L499.093 131.174H495.757L490.82 137.11H492.288L496.424 135.392L498.025 133.517H500.16L501.361 134.767L510.968 133.361L513.103 130.706H511.368L514.971 125.395Z" fill="#C3CDDF" stroke="white" stroke-width="0.6" stroke-miterlimit="10"/>
<path d="M489.753 102.278L492.288 99.7786L488.952 99.1538V101.184L487.751 101.653L488.952 105.245L489.753 102.278Z" fill="#C3CDDF" stroke="white" stroke-width="0.6" stroke-miterlimit="10"/>
<path d="M503.896 94.7803H501.628V96.8108H502.829L503.896 94.7803Z" fill="#C3CDDF" stroke="white" stroke-width="0.6" stroke-miterlimit="10"/>
<path d="M541.39 17.7754L555.8 25.429L562.738 17.7754L569.543 23.0861L573.546 19.4935L565.54 15.5886H578.483V11.9961L563.672 10.5903L541.39 12.7771V17.7754Z" fill="#C3CDDF" stroke="white" stroke-width="0.6" stroke-miterlimit="10"/>
<path d="M569.41 53.3877H567.275L555.4 63.2281V65.4148H553.132V68.2264L550.596 71.3503L551.664 72.4437V74.318H547.394V90.2501L545.659 95.717L543.925 96.8103L548.461 106.338L547.794 108.994L543.925 110.556V114.148L547.527 113.836V112.43H548.728H553.398V109.15H558.469L561.137 99.4657L565.674 94.155V93.2178L561.004 87.7509V81.3469L569.81 74.9428L572.078 72.4437L570.611 70.8817L573.68 67.2892H576.215V57.7612L569.41 53.3877Z" fill="#C3CDDF" stroke="white" stroke-width="0.6" stroke-miterlimit="10"/>
<path d="M530.448 149.917V148.043L532.316 147.731L534.184 142.264L524.31 137.422L523.109 138.359L516.438 131.33L513.769 133.517V136.172L508.832 138.047V140.389L505.096 140.233V138.047L502.294 138.671L503.362 140.546V143.045L499.626 143.357L498.692 141.951L493.354 143.67L494.289 147.106L500.293 149.136L500.426 150.542L504.029 154.916L502.161 166.943L508.966 171.473L510.167 169.911L517.238 171.785V169.754L520.708 167.255L526.445 169.442H529.114L533.25 165.85L530.181 163.975V154.603H527.646V153.354L530.448 149.917Z" fill="#C3CDDF" stroke="white" stroke-width="0.6" stroke-miterlimit="10"/>
<path d="M537.786 169.91V171.316H535.651V174.908L536.719 177.408H537.786V174.908H538.854V169.91H537.786Z" fill="#C3CDDF" stroke="white" stroke-width="0.6" stroke-miterlimit="10"/>
<path d="M482.814 193.184L481.88 191.934V190.372L483.348 189.435L481.88 185.53H484.816V179.751L486.417 177.72V175.534H480.546V174.284H478.011V180.688L474.542 189.748L476.143 191.622V198.651L480.813 196.933H481.213V195.058L482.814 193.184Z" fill="#C3CDDF" stroke="white" stroke-width="0.6" stroke-miterlimit="10"/>
<path d="M510.167 169.911L508.966 171.473L502.161 166.943L502.028 168.036L498.959 167.255H485.216L482.28 166.162L480.279 168.505H477.877L476.676 170.067L478.01 171.629V174.284H480.546V175.534H486.417V177.721L484.815 179.751V185.53H481.88L483.348 189.435L481.88 190.373V191.935L482.814 193.184L481.213 195.058V196.933H483.081L484.815 198.963V201.306L487.351 203.181L491.487 198.963H498.559L505.63 190.685V185.53L509.5 180.845V179.283L517.239 175.221V171.785L510.167 169.911Z" fill="#C3CDDF" stroke="white" stroke-width="0.6" stroke-miterlimit="10"/>
<path d="M581.685 49.1707H586.355L590.091 51.0451L590.759 52.1384L594.895 50.1079V47.6087L580.885 45.7344L564.473 49.4831L556.467 54.3252V52.4508L552.331 55.7309H547.794V57.1367H552.598V58.3863L546.994 64.9465V68.3829L539.255 77.5985H537.12V76.1927L526.445 81.972V96.1858L533.117 101.184L541.39 96.0296H543.658L543.925 96.8106L545.659 95.7173L547.394 90.2504V74.3183H551.664V72.444L550.596 71.3506L553.131 68.2267V65.4151H555.4V63.2284L567.275 53.388H569.41L571.411 54.6376H581.685V49.1707Z" fill="#C3CDDF" stroke="white" stroke-width="0.6" stroke-miterlimit="10"/>
<path d="M596.763 76.5048V73.8495L595.029 71.8189V66.9768L591.559 62.4471L593.694 58.0736L589.691 56.6678V52.6067L590.759 52.1381L590.092 51.0448L586.356 49.1704H581.686V54.6373H571.412L576.215 57.7612V67.2892H580.485V70.2569L573.28 78.8477V86.5014L578.216 92.2806L590.892 89.3129L592.493 88.0633L593.027 88.6881L599.966 82.1279V80.0973L596.763 76.5048Z" fill="#C3CDDF" stroke="white" stroke-width="0.6" stroke-miterlimit="10"/>
<path d="M536.853 178.502L535.652 179.908H533.651V181.314L534.985 182.876V188.811H536.853V187.874H538.854V182.564L539.655 181.626L538.854 178.502H536.853Z" fill="#C3CDDF" stroke="white" stroke-width="0.6" stroke-miterlimit="10"/>
<path d="M567.809 184.906L568.743 182.719L560.203 177.409L561.404 175.847L560.737 174.909L557.001 175.066L553.532 171.785L552.064 167.256L547.661 163.195L548.328 160.695L547.261 158.196L551.397 156.791V154.604L546.86 151.167L541.79 151.948L540.589 154.448L538.054 154.135L536.72 155.697L535.119 154.135L533.651 156.01H530.182V163.976L533.251 165.85L536.186 163.195L540.456 165.381L541.39 170.536L550.33 178.814L551.931 178.658L557.935 184.281L559.136 183.969L560.337 188.811L559.003 191.622L552.198 192.403L551.397 193.497L549.529 192.872L548.195 194.746L557.268 200.369L558.335 198.183L557.135 196.152L558.736 193.184L560.604 193.965L564.34 189.436V186.78L561.671 185.218L563.406 182.094L567.809 184.906Z" fill="#C3CDDF" stroke="white" stroke-width="0.6" stroke-miterlimit="10"/>
<path d="M540.589 148.2H532.984L532.317 147.575V147.731L530.449 148.044V149.918L527.647 153.354V154.604H530.182V156.01H533.651L535.119 154.135L536.72 155.697L538.054 154.135L540.589 154.448L541.657 152.261L538.588 150.387L540.589 148.2Z" fill="#C3CDDF" stroke="white" stroke-width="0.6" stroke-miterlimit="10"/>
<path d="M527.646 132.111L524.577 130.393L518.306 129.924L516.438 131.33L523.11 138.359L524.311 137.422L526.712 138.515L528.981 135.86L527.646 132.111Z" fill="#C3CDDF" stroke="white" stroke-width="0.6" stroke-miterlimit="10"/>
<path d="M528.714 129.456H527.38V128.519H529.781L531.116 126.957V125.863H529.915V124.926H531.516V122.583L530.849 121.333H527.113L523.51 123.676V126.176L518.306 129.924L524.578 130.393L527.647 132.111V132.267L528.714 130.861V129.456Z" fill="#C3CDDF" stroke="white" stroke-width="0.6" stroke-miterlimit="10"/>
<path d="M539.389 112.431L542.858 108.37L542.057 107.433L540.59 105.715L541.924 104.153V102.435H540.189L538.188 104.778H536.32L534.318 107.12V112.587L536.587 115.243L539.389 114.149V112.431Z" fill="#C3CDDF" stroke="white" stroke-width="0.6" stroke-miterlimit="10"/>
<path d="M554.332 128.519V124.926L553.132 123.52L553.265 118.834L550.463 115.554H547.528L545.393 117.897H542.19L540.723 116.179L539.388 114.617V114.148L536.586 115.242L536.987 115.71V119.928H535.786V121.333H533.918V119.928H530.982V121.333H530.849L531.516 122.583V124.926H529.915V125.863H531.116V126.957L529.781 128.519H527.38V129.456H528.714V130.861L527.647 132.267L528.981 135.86L526.713 138.515L534.185 142.264L532.317 147.575L532.984 148.199H538.054H540.589L540.189 148.668L548.728 147.575L549.396 144.919L552.598 142.889L546.86 139.452V135.235L553.532 132.267H555.667V129.924L554.332 128.519Z" fill="#C3CDDF" stroke="white" stroke-width="0.6" stroke-miterlimit="10"/>
<path d="M567.409 136.172V139.296L567.142 139.608H577.149L578.75 141.483H579.551V138.827L582.353 135.547H584.087V133.361L582.353 131.33V127.425H580.485V124.77H582.753V122.271L581.285 120.552V116.491H578.617H570.611L570.077 117.116H566.074V115.554H559.803L553.399 118.991L553.265 118.834L553.132 123.52L554.333 124.926V128.519L555.667 129.924V131.799L562.072 136.172H567.409Z" fill="#C3CDDF" stroke="white" stroke-width="0.6" stroke-miterlimit="10"/>
<path d="M586.622 100.559L588.624 102.902H591.426V102.434L592.76 101.34L590.758 97.123L592.36 95.561L592.226 93.999L591.959 94.1552H581.685L577.415 97.123L575.147 98.6849L576.081 100.247L578.616 99.6221L579.417 98.0601L580.751 99.6221H582.486V101.653L584.621 100.559H586.622Z" fill="#C3CDDF" stroke="white" stroke-width="0.6" stroke-miterlimit="10"/>
<path d="M555.666 141.951H558.068L562.204 143.513L563.405 143.982L567.141 139.608L567.408 139.296V136.172H562.071L555.666 131.798V132.267H553.532L546.86 135.235V139.452L552.598 142.888L551.664 143.513H555.666V141.951Z" fill="#C3CDDF" stroke="white" stroke-width="0.6" stroke-miterlimit="10"/>
<path d="M579.017 114.462H576.215L575.682 113.368H574.481L572.88 113.837L570.611 116.492H578.617L579.017 114.462Z" fill="#C3CDDF" stroke="white" stroke-width="0.6" stroke-miterlimit="10"/>
<path d="M557.401 156.322H558.469V154.916L560.07 153.041L560.203 151.479L558.869 153.041H552.064L550.863 154.291L551.397 154.603V156.79L552.198 156.322L552.464 157.884H557.401V156.322Z" fill="#C3CDDF" stroke="white" stroke-width="0.6" stroke-miterlimit="10"/>
<path d="M558.869 153.042L560.203 151.48L560.604 151.011L563.005 146.169L562.205 143.514L558.068 141.952H555.667V143.514H551.664L549.395 144.919L548.728 147.575L540.189 148.668L538.588 150.386L541.657 152.261L541.79 151.948L546.86 151.167L550.863 154.291L552.064 153.042H558.869Z" fill="#C3CDDF" stroke="white" stroke-width="0.6" stroke-miterlimit="10"/>
<path d="M558.602 161.633L561.805 159.602L569.41 160.071V156.01H567.675V157.103H565.007L560.07 153.042L558.469 154.916V156.322H557.401V157.884H552.464L551.264 159.602L554.466 162.57L555.266 160.227L556.467 164.913L568.076 172.41L562.472 166.162L558.602 161.633Z" fill="#C3CDDF" stroke="white" stroke-width="0.6" stroke-miterlimit="10"/>
<path d="M576.215 107.745H584.754L585.822 109.15H587.29L589.158 111.337H590.092H592.493L594.628 108.682L593.427 105.87V103.996H591.426V102.903H588.624L586.622 100.56H584.621L582.486 101.653V106.339H579.951L577.416 103.371H574.747L572.612 105.87V110.088L573.146 110.869L573.413 108.838L576.215 107.745Z" fill="#C3CDDF" stroke="white" stroke-width="0.6" stroke-miterlimit="10"/>
<path d="M586.623 118.054L587.29 118.523L588.224 117.586L587.557 116.648L588.224 114.149L590.626 113.368L590.092 111.338H589.158L587.29 109.151H585.822L584.755 107.745H576.215L573.413 108.838L573.146 110.869V111.025L573.947 112.431L572.879 113.837L574.481 113.368H575.681L576.215 114.462H579.017L578.617 116.492H581.285V119.147H583.954L586.623 118.054Z" fill="#C3CDDF" stroke="white" stroke-width="0.6" stroke-miterlimit="10"/>
<path d="M585.155 128.363H588.891L589.425 128.988H592.627L593.161 129.612H597.697L598.364 130.393H603.034V131.487H603.835V128.988L605.169 127.582V122.427H609.306V119.772L603.034 114.93V111.181L594.895 109.307L594.628 108.682L592.493 111.337H590.092L590.625 113.368L588.224 114.149L587.557 116.648L588.224 117.585L587.29 118.523L586.623 118.054L583.954 119.147H581.285V120.553L582.753 122.271V124.77H580.485V127.426H582.353V130.081H583.687L585.155 128.363Z" fill="#C3CDDF" stroke="white" stroke-width="0.6" stroke-miterlimit="10"/>
<path d="M606.503 155.853L606.637 155.697V153.042H608.905H611.173V155.072H616.377L616.244 156.009L612.508 158.04V158.977H614.776V159.758H616.511V162.257L617.845 163.975L621.848 161.32V159.914H625.851V158.352H621.714L619.846 156.166V154.916L622.915 151.792H625.45L630.387 150.542V145.857H634.924V137.266H628.252L626.384 135.079H620.38L614.109 127.582H605.169L603.835 128.987V131.486H603.034V130.393H598.364L597.697 129.612H593.16L592.627 128.987H589.424L588.891 128.363H585.155L583.687 130.081H582.353V131.33L584.087 133.361V135.548H582.353L579.551 138.828V141.483H578.883L578.483 144.451L581.419 146.638H586.489L587.69 148.043H588.891L589.691 147.106H591.693L593.961 144.451H596.63L601.567 146.794V149.137L603.968 152.104V153.042H600.899V156.478L599.165 158.352L600.499 159.758L601.833 158.508L603.301 158.352V156.946H604.502L605.303 154.916" fill="#C3CDDF"/>
<path d="M606.503 155.853L606.637 155.697V153.042H608.905H611.173V155.072H616.377L616.244 156.009L612.508 158.04V158.977H614.776V159.758H616.511V162.257L617.845 163.975L621.848 161.32V159.914H625.851V158.352H621.714L619.846 156.166V154.916L622.915 151.792H625.45L630.387 150.542V145.857H634.924V137.266H628.252L626.384 135.079H620.38L614.109 127.582H605.169L603.835 128.987V131.486H603.034V130.393H598.364L597.697 129.612H593.16L592.627 128.987H589.424L588.891 128.363H585.155L583.687 130.081H582.353V131.33L584.087 133.361V135.548H582.353L579.551 138.828V141.483H578.883L578.483 144.451L581.419 146.638H586.489L587.69 148.043H588.891L589.691 147.106H591.693L593.961 144.451H596.63L601.567 146.794V149.137L603.968 152.104V153.042H600.899V156.478L599.165 158.352L600.499 159.758L601.833 158.508L603.301 158.352V156.946H604.502L605.303 154.916" stroke="white" stroke-width="0.6" stroke-miterlimit="10"/>
<path d="M598.764 151.948L598.23 157.884L599.298 158.196L600.899 156.478V153.041H603.968V152.104L601.566 149.137V146.794L596.629 144.451H593.961L593.294 145.232L594.895 147.887L598.764 151.948Z" fill="#C3CDDF" stroke="white" stroke-width="0.6" stroke-miterlimit="10"/>
<path d="M568.343 147.575V146.013H575.014L576.349 144.607H578.75L578.483 144.451L578.884 141.483H578.75L577.149 139.609H567.142L563.406 143.982L562.205 143.514L563.006 146.169V146.325L564.607 147.575H568.343Z" fill="#C3CDDF" stroke="white" stroke-width="0.6" stroke-miterlimit="10"/>
<path d="M579.417 148.043V150.543L575.815 154.604H573.413V155.385L574.481 157.415L578.483 162.101H581.953V164.756V164.913L583.687 166.943H592.36L594.362 164.6L598.631 165.069L601.166 167.256H601.3V161.476H604.102V158.665L606.504 155.853L605.303 154.916L604.502 156.947H603.301V158.352L601.834 158.509L600.499 159.758L599.165 158.352L599.298 158.196L598.231 157.884L598.765 151.948L594.895 147.887L593.294 145.232L591.693 147.106H589.692L588.891 148.043H587.69L586.489 146.638H581.419H581.286L580.752 148.043H579.417Z" fill="#C3CDDF" stroke="white" stroke-width="0.6" stroke-miterlimit="10"/>
<path d="M573.413 154.604H575.815L579.417 150.542V148.043H580.752L581.285 146.637L578.75 144.607H576.348L575.014 146.013H568.343V147.575H564.607L563.005 146.325L560.604 151.011L560.203 151.48L560.07 153.042L565.007 157.103H567.675V156.009H569.41L571.145 154.604H573.413Z" fill="#C3CDDF" stroke="white" stroke-width="0.6" stroke-miterlimit="10"/>
<path d="M569.677 167.411H571.145V164.756L569.944 163.35L570.744 162.413V160.695L569.41 159.914V160.07L561.805 159.602L558.602 161.632L562.472 166.162L563.94 168.505L564.873 169.442L565.407 170.067L568.076 172.41L567.809 169.754L569.677 167.411Z" fill="#C3CDDF" stroke="white" stroke-width="0.6" stroke-miterlimit="10"/>
<path d="M575.281 174.284L573.68 172.41H571.812L570.478 173.972H569.677L571.012 175.221L570.745 183.187L573.947 186.155L574.081 186.467H574.881V183.812H575.815L577.283 182.094V180.532L575.015 178.658L575.281 174.284Z" fill="#C3CDDF" stroke="white" stroke-width="0.6" stroke-miterlimit="10"/>
<path d="M581.018 173.035L576.215 173.66L575.414 174.597L575.281 174.285L575.014 178.658L577.282 180.533V180.376H579.284V178.502H581.552L582.352 177.721H583.02V175.378L581.018 173.035Z" fill="#C3CDDF" stroke="white" stroke-width="0.6" stroke-miterlimit="10"/>
<path d="M597.164 174.128L598.765 174.284V167.255H601.166L598.631 165.069L594.361 164.6L592.36 166.943H583.687L581.953 164.912V164.756L581.285 165.069V167.099L582.753 168.661V170.536H581.018V173.035L583.02 175.378V177.721H583.954L584.755 176.627H587.823L588.757 177.877H593.027V176.002H594.095H594.228L594.895 174.597L597.164 174.128Z" fill="#C3CDDF" stroke="white" stroke-width="0.6" stroke-miterlimit="10"/>
<path d="M641.062 200.369L643.464 197.714H649.335H654.538H655.739H657.607L650.269 179.751L647.867 176.94H642.663L640.261 179.751H632.122V178.346H626.652L623.449 174.597H616.111L610.373 177.409V178.346H603.435L598.765 174.285L597.164 174.128L594.895 174.597L594.228 176.003L594.895 176.94V178.19H594.362V180.532L596.63 180.376L597.964 179.908H602.901L604.502 180.532L603.168 182.407L596.897 182.251L593.694 184.281L595.963 190.685L599.565 199.901H604.369L606.103 201.931H609.573V198.339H612.641L616.111 202.4H621.181L623.182 200.057H628.119V202.869L630.254 200.369H641.062Z" fill="#C3CDDF" stroke="white" stroke-width="0.6" stroke-miterlimit="10"/>
<path d="M585.021 195.839L581.285 192.872L582.085 191.778L586.889 195.527V193.184L590.758 194.746V193.809L587.823 191.934L587.156 189.748L582.219 182.25L588.624 179.595L593.961 180.532H594.361V178.189H594.895V176.94L594.094 176.002H593.027V177.877H588.757L587.823 176.627H584.754L583.954 177.721H582.352L581.552 178.502H579.283V180.376H577.282V182.094L575.814 183.812H574.88V186.468H574.08L577.015 191.622L579.417 192.247L577.949 194.59L578.883 197.714L580.484 199.744L580.751 198.495L582.352 200.369L583.153 199.588L584.22 201.931L585.154 200.681L583.954 197.089L585.021 195.839Z" fill="#C3CDDF" stroke="white" stroke-width="0.6" stroke-miterlimit="10"/>
<path d="M593.694 205.836H591.559L591.159 205.524H588.891L588.624 205.211H586.089V207.242H589.291L590.625 208.335H595.429V206.773H593.694V205.836Z" fill="#C3CDDF" stroke="white" stroke-width="0.6" stroke-miterlimit="10"/>
<path d="M592.894 197.713H591.026V198.963H592.894V197.713Z" fill="#C3CDDF" stroke="white" stroke-width="0.6" stroke-miterlimit="10"/>
<path d="M589.558 199.587H588.624V200.368H589.558V199.587Z" fill="#C3CDDF" stroke="white" stroke-width="0.6" stroke-miterlimit="10"/>
<path d="M599.032 203.805H597.964V206.46H599.032V203.805Z" fill="#C3CDDF" stroke="white" stroke-width="0.6" stroke-miterlimit="10"/>
<path d="M595.162 195.371H593.961V197.089H595.162V195.371Z" fill="#C3CDDF" stroke="white" stroke-width="0.6" stroke-miterlimit="10"/>
<path d="M594.228 190.841H593.161V193.028H594.228V190.841Z" fill="#C3CDDF" stroke="white" stroke-width="0.6" stroke-miterlimit="10"/>
<path d="M594.495 198.807H593.561V200.056H594.495V198.807Z" fill="#C3CDDF" stroke="white" stroke-width="0.6" stroke-miterlimit="10"/>
<path d="M601.834 201.619H600.232V203.493H601.834V201.619Z" fill="#C3CDDF" stroke="white" stroke-width="0.6" stroke-miterlimit="10"/>
<path d="M581.285 167.1V165.069L581.952 164.757V162.101H578.483L574.48 157.416L573.413 155.385V154.604H571.144L569.41 156.01V159.915L570.744 160.696V162.414L569.944 163.351L571.144 164.757V167.412H570.878L573.546 172.41H573.68L575.414 174.597L576.215 173.66L581.018 173.035V170.536H582.753V168.662L581.285 167.1Z" fill="#C3CDDF" stroke="white" stroke-width="0.6" stroke-miterlimit="10"/>
<path d="M569.677 167.412L567.809 169.755L568.076 172.41L569.677 173.972H570.477L571.812 172.41H573.546L570.878 167.412H569.677Z" fill="#C3CDDF" stroke="white" stroke-width="0.6" stroke-miterlimit="10"/>
<path d="M644.665 41.048L646.266 44.953L653.338 46.6711L662.411 47.2959L662.945 45.1092L656.14 39.9547L662.945 30.7391L680.691 25.4284V23.0854H673.619L672.952 23.8664H662.011L650.936 29.9581L644.665 41.048Z" fill="#C3CDDF" stroke="white" stroke-width="0.6" stroke-miterlimit="10"/>
<path d="M722.454 12.152L733.395 16.3693L745.404 16.9941V13.5578L730.326 8.24707L722.454 12.152Z" fill="#C3CDDF" stroke="white" stroke-width="0.6" stroke-miterlimit="10"/>
<path d="M747.806 14.6519V20.2749H751.675L759.815 18.5568V16.9948L752.609 14.6519H747.806Z" fill="#C3CDDF" stroke="white" stroke-width="0.6" stroke-miterlimit="10"/>
<path d="M846.411 26.0537L846.944 29.1776L854.95 31.5206L866.692 29.9586V27.6157L846.411 26.0537Z" fill="#C3CDDF" stroke="white" stroke-width="0.6" stroke-miterlimit="10"/>
<path d="M870.294 28.7085V30.2705L882.303 31.52V28.7085H870.294Z" fill="#C3CDDF" stroke="white" stroke-width="0.6" stroke-miterlimit="10"/>
<path d="M864.023 32.77V35.5816L872.963 37.1435V35.7378L864.023 32.77Z" fill="#C3CDDF" stroke="white" stroke-width="0.6" stroke-miterlimit="10"/>
<path d="M971.968 44.6411L974.77 47.1402L981.441 45.8906V43.8601L975.837 43.0791L971.968 44.6411Z" fill="#C3CDDF" stroke="white" stroke-width="0.6" stroke-miterlimit="10"/>
<path d="M943.814 116.023L966.23 142.264L965.163 142.889L962.628 139.921H960.092L961.96 146.95L969.699 154.135L968.632 154.603L965.563 153.042L965.83 156.009H964.496L960.893 151.792L959.959 145.7L957.29 142.576L951.82 134.142V131.643L947.55 128.362L946.75 125.239L943.814 122.115L945.015 119.928L942.613 116.804L943.814 116.023Z" fill="#C3CDDF" stroke="white" stroke-width="0.6" stroke-miterlimit="10"/>
<path d="M1009.06 68.6947L1011.73 68.07L1026.67 73.5368L1029.34 71.3501L1025.07 68.3823L1027.07 67.7576L1025.87 64.946L1014.53 60.5725H1008.79L971.434 50.7321L957.424 49.3264L960.493 52.2941L959.159 53.8561L950.352 49.9512H927.135L924.6 46.9834L907.254 46.5148L894.312 43.3909V41.5165L868.293 38.8612L869.894 44.3281L851.347 42.2975V46.9834L835.069 35.4249H822.927V38.3926L809.317 36.0497L791.171 34.8001L779.029 38.3926V37.4554L790.237 30.739V28.8646L783.965 24.8035H770.489V23.0853H764.752V21.3672H756.079V25.1159L727.658 30.4266L729.126 35.7373H715.516L718.985 40.1108L717.784 41.6727L713.248 40.267L708.711 41.5165L704.041 36.3621H702.707L704.441 40.5794L702.04 42.7661L707.51 51.8255L715.916 52.6065L719.786 57.9172L718.718 58.6982L715.249 54.9494H711.113L707.91 64.3212L704.708 62.7593L707.243 55.5742L703.107 53.5437L700.038 46.2024L697.77 43.5471V37.924H687.896V42.2975L686.428 44.0157L686.829 49.4826L695.101 53.6999L694.167 56.8238L684.16 51.8255L666.414 46.3586L665.88 48.7016L673.486 53.0751L670.017 56.0428L668.415 52.2941L660.009 54.7932L658.942 56.0428H655.74V53.2313L640.929 59.0106V61.8221H636.259L634.391 59.6353V57.9172H636.526L634.391 55.418H630.388V60.4163L632.79 61.8221L631.856 65.2584L626.785 63.5402L621.848 67.7576L623.85 71.6625L613.843 69.1633L613.309 71.3501L617.579 72.7558L617.712 74.9426L609.039 72.4435L607.972 66.508L601.434 62.4469V60.7287L620.114 66.508L623.85 62.1345L622.516 58.542L607.305 52.7627L594.896 50.1073L589.825 52.6065V56.6676L593.828 58.0734L591.693 62.4469L595.296 66.9766V71.8187L596.897 73.693V76.3484L600.099 80.0971V81.9714L593.294 88.5317L595.029 90.5623H598.231V92.1242H595.429L592.494 93.8424V95.4044L590.893 96.8101L592.894 101.027L591.56 102.121V103.683H593.561V105.557L595.029 108.837L603.168 110.712V114.46L609.439 119.302V121.958H605.303V127.268H614.109L620.514 134.766H626.518L628.386 136.953H635.058V145.543H630.388V150.229L633.59 149.292V150.698L631.188 152.572H629.32V153.509L631.322 155.071L629.721 156.321V158.195L627.986 158.82L632.256 161.944H634.658C634.658 161.944 636.926 164.599 639.328 167.411L641.062 166.942L651.603 171.628H655.339L661.877 175.065L664.946 178.657L667.481 175.377L662.945 170.379V165.537L659.342 163.662V160.695L662.011 157.571H663.879L666.28 154.759L660.943 148.511H657.608V144.919H655.206V136.172L657.341 133.673L660.81 137.734L662.144 136.172L659.876 133.516L667.081 128.987H672.418L682.826 134.297L684.961 131.798H690.698L692.833 134.297H700.038V130.392L695.101 128.362L696.702 123.051L695.235 119.771L696.569 118.053L716.85 111.961L723.388 112.117L726.057 117.584H734.463V121.177H737.665L742.736 115.241V118.365L758.48 133.36L761.016 131.017L763.684 133.829L769.555 132.579L776.093 140.233H781.297L786.234 141.482L796.641 133.829H804.113V137.109H815.855V132.735L814.121 130.705V126.331L826.529 130.861L830.666 135.703H835.469L837.07 133.829L848.145 138.046L850.413 140.545H864.157L867.759 136.328L879.634 139.452L882.436 136.015V126.175L879.634 122.895L881.636 120.552H894.445L910.59 139.452H918.062L925.668 148.355H931.138V144.45H937.676V159.757H932.206L937.81 170.535L938.744 169.442H947.417L952.354 144.45L946.082 127.737L942.48 122.27L931.672 116.803V120.24L918.329 115.085L926.068 93.2176H948.351L953.021 95.0919V97.7473L961.026 94.7796V92.9052H957.424V82.7524H965.963L970.5 88.0631L973.969 84.002L971.968 80.7219L975.57 80.5657L978.773 86.1888L975.704 95.8729L977.172 97.7473L974.103 106.65L996.118 132.423L1000.12 127.737L998.12 125.238L1000.92 121.958L996.919 117.272H1000.25V115.085L996.652 110.868L998.387 108.837L991.715 100.559H987.846L983.71 91.0308H988.78L990.114 92.5928H991.982V89.9375H1001.72L1009.19 81.1905L1016.4 82.1276L1016.53 80.2533L1003.06 72.4435L1005.59 69.7881L1001.99 66.8204L1003.72 65.727L1009.06 68.6947ZM842.674 122.426L838.405 126.644V128.674L833.735 130.705L830.132 128.674L835.336 126.8V124.457L837.07 122.426L839.472 119.615V110.868H840.673L842.674 117.272V122.426Z" fill="#C3CDDF" stroke="white" stroke-width="0.6" stroke-miterlimit="10"/>
<path d="M447.322 68.3828L451.592 75.8802L461.065 78.067L475.876 68.3828L471.473 64.0093L456.262 67.6018L453.727 64.0093L447.322 68.3828Z" fill="#C3CDDF" stroke="white" stroke-width="0.6" stroke-miterlimit="10"/>
<path d="M927.669 263.785L932.072 270.501H933.673V255.038L930.604 254.257L927.669 263.785Z" fill="#C3CDDF" stroke="white" stroke-width="0.6" stroke-miterlimit="10"/>
<path d="M890.575 282.997V287.683H894.845L897.38 284.715V281.748H892.71L890.575 282.997Z" fill="#C3CDDF" stroke="white" stroke-width="0.6" stroke-miterlimit="10"/>
<path d="M923.532 176.783L925 175.534L928.603 176.783L928.069 174.597L932.205 171.785V169.911L932.872 169.13L934.874 170.536H937.676H937.809L932.205 159.602H937.676V144.295H931.138V148.2H925.667L918.062 139.296H910.456L894.445 120.553H881.502L879.5 122.896L882.302 126.176V136.016L879.5 139.453L875.764 138.515V146.169H885.238L893.644 152.104V153.51H882.036V158.352H877.099V161.632H873.363L871.761 159.758H869.893V163.194L872.695 166.162L869.893 168.193V170.692L867.358 172.566H859.352L854.282 176.627L842.674 173.972V171.629H823.193L818.123 163.975L809.717 158.821H800.377V153.042L794.372 147.419L786.233 142.889L785.833 141.327L782.764 140.39V144.138H780.229V146.638L781.696 148.356V150.386H773.424V156.009L775.025 157.884V159.446L771.289 158.665L767.153 160.383L772.09 168.349L771.155 172.722H771.022L771.289 175.534H769.421H767.82V179.126H761.415V182.719H757.813V181.469L753.409 183.656V186.468H752.876V189.279L754.343 190.997L755.277 189.904L759.28 191.935L758.747 194.746L759.947 196.308L758.346 198.026H761.015L763.683 200.838V203.493L770.755 206.617L775.025 203.649L779.562 205.836V209.897L778.094 211.615V212.709H775.559L776.626 215.833H778.761L779.562 218.644L777.96 220.362L776.493 218.957L775.025 220.362L777.427 222.549L777.293 225.048L786.633 231.608L788.768 229.109L809.05 242.542L814.387 240.668L815.454 241.449V244.26H816.388L819.057 239.418L825.061 242.23H828.797V240.824L833.867 234.889L837.203 236.451L839.471 234.576L842.407 237.075L840.939 238.95L844.809 240.512L845.876 238.95L850.146 243.479V252.851L848.278 255.038V260.973H852.948L853.748 264.878H856.284V269.72H858.552V272.688H862.955V274.094H864.957V268.158H866.291V266.753H873.096L875.231 265.972V263.629H876.832L878.833 265.972H882.036V269.564L887.239 272.688L888.574 270.814L894.711 272.532V277.843H896.713L896.312 273.157L914.859 265.347L923.666 254.257L929.67 239.262V232.546L923.932 230.359L926.868 226.142L917.661 212.396L912.191 208.804L915.927 198.495H920.33V196.464L912.991 193.809L908.988 198.495L900.983 189.279L910.589 178.033L914.726 182.875L910.99 187.249L913.391 190.06L920.73 184.593L924.333 178.658L923.532 176.783Z" fill="#C3CDDF" stroke="white" stroke-width="0.6" stroke-miterlimit="10"/>
<path d="M743.803 178.502L739.533 176.627L741.668 173.972L740.6 173.191L741.001 172.722V170.848H748.339V168.974H750.874L752.476 170.848H765.952L771.156 172.722L771.289 175.534H767.82V179.126H761.415V182.719H757.813V181.469L753.41 183.656V186.468L751.141 186.311V187.405L743.002 186.936L742.602 186.468H738.065L737.398 184.749L739.933 182.719L742.202 184.125L742.335 183.344H746.338L749.006 180.376L743.803 176.627V178.502Z" fill="#C3CDDF" stroke="white" stroke-width="0.6" stroke-miterlimit="10"/>
<path d="M937.943 191.154L932.339 185.843L937.409 179.907L935.808 176.784L936.475 171.941L937.676 170.536H934.874L932.873 169.13L932.206 169.911V171.785L928.069 174.597L928.603 176.784L925 175.534L923.533 176.784L924.333 178.658L920.731 184.593L925.401 186.624L924.867 193.184L934.607 195.215L937.943 191.154Z" fill="#C3CDDF" stroke="white" stroke-width="0.6" stroke-miterlimit="10"/>
<path d="M945.681 199.588L937.942 191.154L934.607 195.215L934.874 197.714L932.472 199.12L936.475 203.337L937.676 210.678L946.215 207.711L945.681 199.588Z" fill="#C3CDDF" stroke="white" stroke-width="0.6" stroke-miterlimit="10"/>
<path d="M886.438 386.399H882.302V378.902H879.767V374.528L859.886 356.878L857.751 350.161H852.547L850.946 348.287H846.409L861.353 366.25V375.778H863.889L868.425 388.117L881.368 403.268H886.438V386.399Z" fill="#C3CDDF" stroke="white" stroke-width="0.6" stroke-miterlimit="10"/>
<path d="M910.456 408.111L903.518 406.08V408.892L895.512 408.111V405.924L887.64 404.362L883.503 408.111L888.574 409.048L888.04 410.61L916.06 417.326V412.172L910.456 410.766V408.111Z" fill="#C3CDDF" stroke="white" stroke-width="0.6" stroke-miterlimit="10"/>
<path d="M933.539 414.671L927.934 413.89L926.734 416.233L917.66 414.671V416.857L925.8 418.732L933.539 417.326V414.671Z" fill="#C3CDDF" stroke="white" stroke-width="0.6" stroke-miterlimit="10"/>
<path d="M954.888 414.358L935.14 416.233V417.326H941.945L954.888 416.233V414.358Z" fill="#C3CDDF" stroke="white" stroke-width="0.6" stroke-miterlimit="10"/>
<path d="M932.338 420.606V422.792H935.14L937.142 425.135L939.143 422.792L936.608 419.825L932.338 420.606Z" fill="#C3CDDF" stroke="white" stroke-width="0.6" stroke-miterlimit="10"/>
<path d="M956.088 416.233L947.682 425.136L950.084 425.917L962.76 416.233L961.959 414.358L956.088 416.233Z" fill="#C3CDDF" stroke="white" stroke-width="0.6" stroke-miterlimit="10"/>
<path d="M895.778 388.273L892.176 386.868L890.708 389.679L893.777 391.71L895.778 388.273Z" fill="#C3CDDF" stroke="white" stroke-width="0.6" stroke-miterlimit="10"/>
<path d="M887.106 384.993V389.992H889.241V387.492L887.907 382.806L884.438 382.338L884.971 384.993H887.106Z" fill="#C3CDDF" stroke="white" stroke-width="0.6" stroke-miterlimit="10"/>
<path d="M960.092 384.837L953.153 383.119V385.774H958.891V387.649L960.092 384.837Z" fill="#C3CDDF" stroke="white" stroke-width="0.6" stroke-miterlimit="10"/>
<path d="M959.291 389.992V392.023L961.96 394.678L963.961 392.335L962.76 389.992H959.291Z" fill="#C3CDDF" stroke="white" stroke-width="0.6" stroke-miterlimit="10"/>
<path d="M966.096 389.367L967.698 392.334H972.501L975.036 394.677L976.904 392.334L975.036 389.367H966.096Z" fill="#C3CDDF" stroke="white" stroke-width="0.6" stroke-miterlimit="10"/>
<path d="M966.896 376.09V373.435L969.832 374.528V372.81L968.631 371.248L969.832 367.655H967.83L969.832 364.063L968.364 363.282L966.096 364.531L963.961 371.716L965.028 373.435V376.246H963.294V378.901H968.231L966.896 376.09Z" fill="#C3CDDF" stroke="white" stroke-width="0.6" stroke-miterlimit="10"/>
<path d="M978.372 375.934L975.303 375.153V377.809H978.372V375.934Z" fill="#C3CDDF" stroke="white" stroke-width="0.6" stroke-miterlimit="10"/>
<path d="M1001.59 381.713L999.453 384.212V386.867H997.452L993.716 391.085H990.246V386.555H988.912L989.713 382.025L988.645 378.589H985.977L985.043 377.339H981.84L980.639 378.901H974.902L976.903 383.431H981.44V386.243H986.644V388.117H980.639V389.366L985.576 394.677L987.044 392.334L1002.12 401.706L1004.52 411.234H1001.32L1000.39 414.514H1008.93L1011.33 419.825L1014 420.137V388.429L1001.59 381.713Z" fill="#C3CDDF" stroke="white" stroke-width="0.6" stroke-miterlimit="10"/>
<path d="M932.872 392.647H935.14V402.019H938.342V389.991L940.744 387.18L941.945 388.586V393.428L943.279 394.834V398.582H945.014V397.176H948.483V394.677H946.882L945.014 392.491L946.481 390.616L942.612 386.243L948.75 379.058V377.652L945.948 380.776H943.012L941.811 382.182H939.143V380.151H938.209V374.059L940.077 372.81L953.42 374.216L958.09 368.905L957.022 367.655L953.153 372.185L941.411 369.061L936.474 372.185V378.901H935.14V384.837L932.872 387.336V392.647Z" fill="#C3CDDF" stroke="white" stroke-width="0.6" stroke-miterlimit="10"/>
<path d="M901.249 389.991H907.921V391.71H912.324V389.991H917.661V396.395L923.799 393.428V383.744L928.469 378.277V370.935H933.539L934.206 369.061L930.604 364.844L931.538 363.75L927.668 359.221L929.67 356.722L927.802 355.003H921.931V360.314L918.328 369.686H914.058L912.991 368.436H910.723L908.588 370.935H904.051L902.05 368.124H900.449L899.781 365.156L896.312 369.217V375.778L901.249 381.557V389.991Z" fill="#C3CDDF" stroke="white" stroke-width="0.6" stroke-miterlimit="10"/>
<path d="M927.134 339.853L919.929 352.193L918.862 350.787L910.856 360.002L905.786 360.627V368.125H902.05L904.051 370.936H908.588L910.723 368.437H912.991L914.058 369.687H918.328L921.931 360.315V355.004H927.802L929.67 356.722L935.674 349.693L927.134 339.853Z" fill="#C3CDDF" stroke="white" stroke-width="0.6" stroke-miterlimit="10"/>
<path d="M877.633 351.724L872.963 345.788L870.027 348.287H868.426V345.788L865.624 343.445L864.557 344.539L865.757 346.101L866.691 355.004L870.027 359.065V361.877L878.567 369.999L880.301 372.498H881.502L881.902 366.719L877.633 361.72V351.724Z" fill="#C3CDDF" stroke="white" stroke-width="0.6" stroke-miterlimit="10"/>
<path d="M880.386 372.568L878.573 370.007L881.68 366.817L881.925 366.93L881.484 372.568H880.386Z" fill="url(#paint2_linear_1719_9866)" stroke="white" stroke-width="0.5"/>
<path d="M743.002 195.684V191.31H747.405V199.12L753.677 196.465L759.281 195.372L758.747 194.747L759.281 191.935L755.278 189.905L754.344 190.998L752.876 189.28V186.468L751.141 186.312V187.405L743.002 186.937L742.602 186.468H738.065L737.398 184.75L739.933 182.72L742.202 184.125L742.335 183.344L740.867 181.782L741.935 180.689L740.067 179.439L735.664 185.375H732.194V187.562L736.464 193.185L734.863 196.621L736.331 199.12L743.002 195.684Z" fill="#C3CDDF" stroke="white" stroke-width="0.6" stroke-miterlimit="10"/>
<path d="M732.061 234.108L734.863 232.546V227.704L736.331 226.142H738.866V224.424L740.467 222.862H742.735V224.424H744.203V217.082H747.139V215.677L745.004 213.802V213.021H749.674V204.899L747.806 202.712V200.369L752.609 198.339L757.546 199.12L758.88 198.027H758.347L759.948 196.308L759.281 195.371L753.677 196.465L747.406 199.12V191.31H743.002V195.684L736.331 199.12L734.863 196.621L734.596 197.246L730.46 195.684V196.465H725.123V201.619L720.319 203.806V206.149H717.918L713.381 204.274V214.583L714.315 215.677L716.316 224.736H718.985V228.329L716.05 231.609L717.117 232.858L722.054 234.108H732.061Z" fill="#C3CDDF" stroke="white" stroke-width="0.6" stroke-miterlimit="10"/>
<path d="M754.344 258.943V255.038L750.875 251.133V247.697H748.073V245.354L751.008 241.761H752.876L753.677 242.699H756.345L757.013 238.013L759.815 234.889V231.921H761.683V229.11L763.684 226.767V222.549L764.751 221.456V219.738H762.35V217.082L759.948 214.271V211.772L758.747 210.366V208.96H765.819L769.288 205.992L763.684 203.493V200.838L761.015 198.026H758.88L757.546 199.12L752.609 198.339L747.806 200.369V202.712L749.674 204.899V213.021H745.004V213.802L747.139 215.677V217.082H744.203V224.424H742.736V222.862H740.467L738.866 224.424V226.142H736.331L734.863 227.704V232.546L732.061 234.108H722.054L717.117 232.858L722.187 238.794H724.055V244.261H726.857V247.697H723.522L721.387 250.352V253.632L722.187 253.789H739.533L746.338 261.755V258.943H754.344Z" fill="#C3CDDF" stroke="white" stroke-width="0.6" stroke-miterlimit="10"/>
<path d="M784.498 237.7L796.907 245.822L808.649 248.634L813.586 249.259L814.387 247.697L813.319 245.198L813.052 241.137L809.049 242.542L788.768 229.109L786.633 231.609L785.699 230.984L784.498 232.858V237.7Z" fill="#C3CDDF" stroke="white" stroke-width="0.6" stroke-miterlimit="10"/>
<path d="M820.658 247.853L821.459 246.447L826.796 247.853L827.33 244.572L824.928 243.948L825.062 242.23L819.057 239.418L816.389 244.26H815.855L815.721 246.447L820.658 247.853Z" fill="#C3CDDF" stroke="white" stroke-width="0.6" stroke-miterlimit="10"/>
<path d="M829.998 261.91H828.664V265.034H826.396V259.099H827.997L830.532 256.131L829.064 254.413H819.724V251.601H818.123L816.255 249.415L814.387 251.601L817.322 255.038H815.188V259.099H816.789L817.856 260.348L817.189 261.91L820.391 271.907L826.396 269.252V266.752H828.664L831.066 273.625L832.934 273L829.998 261.91Z" fill="#C3CDDF" stroke="white" stroke-width="0.6" stroke-miterlimit="10"/>
<path d="M834.535 268.314L832.933 266.909V265.034H834.134V261.598H836.669L838.404 255.975L837.203 254.569L838.671 252.695V248.477L841.339 245.353H843.875V243.323L844.675 242.386V240.511L840.939 238.949L842.407 237.075L839.472 234.576L837.203 236.45L833.867 234.888L828.797 240.824V242.229H825.061L824.928 243.948L827.329 244.572L826.796 247.853L821.459 246.447L820.658 247.853L815.721 246.447L815.854 244.26H815.454V241.448L814.387 240.668L813.052 241.136L813.319 245.197L814.387 247.696L813.586 249.258L808.649 248.634L796.907 245.822L784.499 237.7V232.858L785.699 230.983L777.293 225.048L777.427 222.549L775.025 220.362L776.493 218.956L777.96 220.362L779.562 218.644L778.761 215.832H776.626L775.559 212.708H778.094V211.615L779.562 209.897V205.836L775.025 203.649L770.755 206.617L769.288 205.992L765.818 208.96H758.747V210.365L759.947 211.771V214.27L762.349 217.082V219.737H764.751V221.455L763.684 222.549V226.766L761.682 229.109V231.92H759.814V234.888L757.012 238.012L756.345 242.698H753.676L752.876 241.761H751.008L748.072 245.353V247.696H750.874V251.133L754.343 255.038V258.942H746.338V261.754L749.54 265.659H753.543V268.002H749.006L756.745 277.217L759.814 273.469V268.47H761.816L766.085 296.273L772.09 307.363V310.644L779.161 326.888V332.355L782.497 336.26H785.833V330.637H788.235V325.482H791.303V298.304L798.375 297.054V294.087L807.448 281.903L812.519 277.53V273.313L817.989 270.189V273L820.391 271.907L817.189 261.91L817.856 260.348L816.788 259.099H815.187V255.038H817.322L814.387 251.601L816.255 249.415L818.123 251.601H819.724V254.413H829.064L830.532 256.131L827.997 259.099H826.395V265.034H828.664V261.91H829.998L831.999 269.72H834.535V268.314Z" fill="#C3CDDF" stroke="white" stroke-width="0.6" stroke-miterlimit="10"/>
<path d="M861.621 318.766L859.619 314.393V309.394L855.883 304.396V301.897H857.351V297.68L852.014 288.152V280.967H856.15V279.248H857.751V277.843H859.619L862.688 272.688H858.552V269.72H856.284V264.878H853.749L852.948 260.973H848.278V255.038L850.146 252.851V243.479L845.876 238.95L844.809 240.512H844.675V242.386L843.875 243.323V245.354H841.34L838.671 248.478V252.695L837.203 254.569L838.404 255.975L836.669 261.598H834.134V265.035H832.933V266.909L834.535 268.315V269.72H831.999L832.933 273.001L831.065 273.625L840.939 290.651V299.866H845.743L849.345 296.274L849.612 292.369L852.948 297.68L858.419 316.736L857.885 331.73L861.621 320.484V318.766Z" fill="#C3CDDF" stroke="white" stroke-width="0.6" stroke-miterlimit="10"/>
<path d="M871.895 315.017L870.827 310.488L873.896 306.895H881.235V300.491L878.433 297.055V291.432L875.097 287.683H872.829L870.16 290.807L868.292 288.776L865.624 291.9H864.289V281.904H861.621V278.78L859.753 277.53L859.619 277.843H857.751V279.248H856.15V280.967H852.014V288.152L857.351 297.68V301.897H855.883V304.396L859.619 309.394V314.393L861.621 318.766V320.484L857.885 331.73L857.751 335.792L864.556 344.539L865.624 343.445L868.426 345.788V348.287H870.027L872.962 345.788L870.027 342.039H866.958L863.889 331.418H861.621L860.553 328.607L862.822 318.141V311.581H866.691V315.017H869.893L870.961 318.141L872.695 317.517L872.962 317.829L873.096 315.017H871.895Z" fill="#C3CDDF" stroke="white" stroke-width="0.6" stroke-miterlimit="10"/>
<path d="M892.71 300.959L880.435 283.309L887.24 272.688L882.036 269.564V265.971H878.834L876.832 263.628H875.231V265.971L873.096 266.752H866.291V268.158H866.158L869.093 271.438V273.937L872.696 276.28L873.496 275.499L878.166 279.873L876.699 281.591H875.364L874.43 282.528L888.307 298.929L887.64 299.71L889.508 302.053L890.575 316.11L884.838 319.078V322.202H885.905V323.608H882.036V325.795H880.301L881.235 326.732V334.073H883.237L895.913 320.64L896.58 314.861L892.71 300.959Z" fill="#C3CDDF" stroke="white" stroke-width="0.6" stroke-miterlimit="10"/>
<path d="M859.814 277.629L862.621 272.887H862.962V274.069H864.946V268.099H866.102L869.094 271.494V273.897L872.662 276.301L873.445 275.5L878.187 279.857L876.698 281.543H875.42L874.408 282.487L888.379 298.984L887.593 299.803L889.509 302.13L889.875 306.15H884.564V309.404L879.897 306.917H881.208V300.473L878.435 297.014V291.47L875.049 287.688H872.824L870.229 290.778L868.277 288.726L865.607 292.013H864.215V281.966H861.621V278.819L859.814 277.629Z" fill="#C3CDDF" stroke="white" stroke-width="0.5"/>
<path d="M884.837 319.079L890.575 316.111L889.908 306.114H884.57V309.394L879.634 306.895H873.896L870.827 310.488L871.895 315.017H873.096L872.962 317.829L875.23 323.296L878.166 323.452L880.301 325.795H882.035V323.608H885.905V322.202H884.837V319.079Z" fill="#C3CDDF" stroke="white" stroke-width="0.6" stroke-miterlimit="10"/>
<path d="M626.784 234.888L628.119 226.766V218.644H629.32L631.454 220.987H633.056L638.927 216.457L640.661 221.612L634.39 225.048L636.792 228.328L635.991 231.764H633.323L631.321 236.45L626.784 234.888Z" fill="#C3CDDF" stroke="white" stroke-width="0.6" stroke-miterlimit="10"/>
<path d="M1088.18 472.776L1086.32 466.215L1084.05 467.621L1086.98 477.149L1094.19 485.74L1096.19 483.397L1088.18 472.776Z" fill="#C3CDDF" stroke="white" stroke-width="0.6" stroke-miterlimit="10"/>
<path d="M794.373 147.418L800.377 153.041V158.82H809.717L818.123 163.975L823.194 171.628H842.674V173.971L854.283 176.627L859.353 172.566H867.359L869.894 170.691V168.192L872.696 166.162L869.894 163.194V159.758H871.762L873.363 161.632H877.099V158.352H882.036V153.51H893.644V152.104L885.238 146.168H875.765V138.515L867.626 136.328L864.023 140.545H850.28L848.011 138.046L836.937 133.829L835.336 135.703H830.532L826.262 130.705L813.853 126.175V130.549L815.722 132.579V136.953H803.98V133.673H796.508L786.1 141.326H785.833L786.234 142.888L794.373 147.418Z" fill="#C3CDDF" stroke="white" stroke-width="0.6" stroke-miterlimit="10"/>
<path d="M485.883 255.975L518.44 285.183L525.912 282.997L546.86 263.628L547.661 262.847V257.849H540.056L537.387 250.352V230.671L531.116 211.146L534.185 208.803L534.051 197.713H527.647L523.911 200.056L522.576 198.807L510.167 200.369L506.164 203.493H504.296L499.093 206.773H498.959L500.961 221.611H495.223V227.078L474.542 238.012V242.854V245.978L475.075 246.447V245.353V246.447L485.883 255.975Z" fill="#C3CDDF" stroke="white" stroke-width="0.6" stroke-miterlimit="10"/>
<path d="M635.725 294.087V307.676L640.662 304.865L647.467 306.27L655.739 315.955L655.873 316.111L657.741 314.08L646.266 301.741L642.396 288.62L637.86 294.087H635.725Z" fill="#C3CDDF" stroke="white" stroke-width="0.6" stroke-miterlimit="10"/>
<path d="M655.738 315.955L653.737 319.391V324.077L658.007 323.609L661.209 319.86L658.54 315.018L657.74 314.081L655.872 316.111L655.738 315.955Z" fill="#C3CDDF" stroke="white" stroke-width="0.6" stroke-miterlimit="10"/>
<path d="M583.554 311.113V300.335H590.492V279.249H589.158V282.06L561.805 262.848L557.802 265.972L558.069 266.128L561.805 278.936V295.025L551.531 311.113H552.465L554.466 318.142L558.469 313.143L559.136 327.826H555.267L554.6 330.637L560.07 338.916L559.403 340.322L563.673 338.135L564.74 339.697L571.945 332.356H576.882L585.956 322.828L587.023 321.734L583.554 311.113Z" fill="#C3CDDF" stroke="white" stroke-width="0.6" stroke-miterlimit="10"/>
<path d="M592.36 269.877V279.249H590.492V300.335H583.554V311.113L587.023 321.734L585.956 322.827L590.225 327.67V333.761L602.234 347.819V351.411L614.91 357.191H624.517L626.652 354.535L627.185 353.911H634.124V347.819L626.118 338.603H622.649V334.855H626.785L635.725 314.861V308.457V307.676V294.087H637.86L642.396 288.62L637.459 286.59L636.258 270.814L631.188 266.284L629.454 262.379L623.049 269.877H592.36Z" fill="#C3CDDF" stroke="white" stroke-width="0.6" stroke-miterlimit="10"/>
<path d="M623.048 269.877L629.453 262.379L616.644 231.14H618.245L624.249 241.605H625.317L626.384 234.264L623.182 226.61H617.177L613.308 224.111L606.103 228.329L597.83 224.58H592.359V269.877H623.048Z" fill="#C3CDDF" stroke="white" stroke-width="0.6" stroke-miterlimit="10"/>
<path d="M458.53 263.472H462.666V250.977H475.075V246.447L474.541 245.978V242.854H459.33L452.525 256.287L448.522 260.817L446.521 267.065L444.253 269.72V273.469H458.53V263.472Z" fill="#C3CDDF" stroke="white" stroke-width="0.6" stroke-miterlimit="10"/>
<path d="M607.304 455.126L600.766 461.218H594.895L597.964 473.557H603.168L607.437 483.398H614.643H615.577L621.047 470.121V457.625L616.911 452.783H612.641V449.659L607.304 451.846V455.126Z" fill="#C3CDDF" stroke="white" stroke-width="0.6" stroke-miterlimit="10"/>
<path d="M611.841 380.308L607.838 388.586H609.172H612.107V387.024H615.176V382.338H611.841V380.308Z" fill="#C3CDDF" stroke="white" stroke-width="0.6" stroke-miterlimit="10"/>
<path d="M613.441 506.046H617.578L618.645 503.859H617.578V500.267H613.441V506.046Z" fill="#C3CDDF" stroke="white" stroke-width="0.6" stroke-miterlimit="10"/>
<path d="M460.531 305.802V301.272H462.666H483.748V256.288L485.883 255.975L475.075 246.447V250.977H462.666V263.473H458.53V273.469H444.253V274.406L445.72 277.843V296.586H453.593L460.531 305.802Z" fill="#C3CDDF" stroke="white" stroke-width="0.6" stroke-miterlimit="10"/>
<path d="M502.962 302.678H501.361L492.421 311.737L489.752 310.956L484.148 324.545H484.815L488.685 329.075H494.289V323.608L500.293 323.139H503.629H506.965L507.498 322.358L511.768 317.048L502.962 302.678Z" fill="#C3CDDF" stroke="white" stroke-width="0.6" stroke-miterlimit="10"/>
<path d="M612.108 388.586H609.172L611.441 396.24L615.177 391.241V387.024H612.108V388.586Z" fill="#C3CDDF" stroke="white" stroke-width="0.6" stroke-miterlimit="10"/>
<path d="M587.023 458.093L583.02 453.407V437.475H590.092V428.884H583.154V410.765H578.884V407.642L573.68 408.735V414.67H567.275L564.207 404.518H548.328L552.732 418.107H550.73L553.399 427.478V434.195L546.194 450.595V459.342H578.75L587.023 458.093Z" fill="#C3CDDF" stroke="white" stroke-width="0.6" stroke-miterlimit="10"/>
<path d="M546.993 386.712H554.466V377.809L553.665 376.715V374.372L556.067 371.404L553.932 369.061H551.263V364.688H544.992V371.092H539.255L535.652 380.308L543.791 394.522L546.993 392.022V386.712Z" fill="#C3CDDF" stroke="white" stroke-width="0.6" stroke-miterlimit="10"/>
<path d="M544.993 364.688H539.255V371.092H544.993V364.688Z" fill="#C3CDDF" stroke="white" stroke-width="0.6" stroke-miterlimit="10"/>
<path d="M462.666 315.173V313.611V301.271H460.531V305.801L453.593 296.585H445.72V299.397L444.253 304.395V315.173H455.194H462.666Z" fill="#C3CDDF" stroke="white" stroke-width="0.6" stroke-miterlimit="10"/>
<path d="M651.202 361.095L654.004 357.815L650.001 353.285L647.066 356.878V358.44H641.595L637.726 353.91H634.123H627.185L626.651 354.535L631.721 366.249L626.918 374.684L628.786 375.309V380.151L627.719 381.401L640.394 389.679L639.727 393.428L645.998 397.957L653.07 382.806L653.337 382.338L651.202 379.839V361.095Z" fill="#C3CDDF" stroke="white" stroke-width="0.6" stroke-miterlimit="10"/>
<path d="M551.263 364.688H561.804V360.939L556.2 346.882L559.403 340.321L560.07 338.915L554.599 330.637L555.266 327.826H559.136L558.469 313.143L554.466 318.141L555.266 320.953L545.126 344.851L542.457 341.415H538.454L534.451 352.817H535.118L539.255 357.659V364.688H544.992H551.263Z" fill="#C3CDDF" stroke="white" stroke-width="0.6" stroke-miterlimit="10"/>
<path d="M640.395 389.68L627.719 381.401L625.051 384.525V387.493H619.713V379.839H615.177V382.338V387.024V391.242L611.441 396.24L611.04 396.865L616.645 417.014L627.586 421.231L628.787 425.917L629.987 431.384H641.062L649.468 427.323V424.512H645.599V399.052L645.999 397.958L639.728 393.428L640.395 389.68Z" fill="#C3CDDF" stroke="white" stroke-width="0.6" stroke-miterlimit="10"/>
<path d="M629.987 431.384L628.786 425.917L627.319 435.133L628.786 442.318H631.989V452.627L629.72 457.625L625.984 451.689L628.253 449.034V444.504H624.25L622.248 442.474L612.375 446.847L613.442 449.346L612.641 449.659V452.783H616.911L621.047 457.625V470.121L615.577 483.397H614.643L617.578 491.832V500.267V503.859H618.646H619.847V498.236L628.519 491.676V474.182L649.468 449.659V427.323L641.062 431.384H629.987Z" fill="#C3CDDF" stroke="white" stroke-width="0.6" stroke-miterlimit="10"/>
<path d="M467.069 336.26L467.47 335.636L464.267 327.826H458.93L457.729 331.418L457.996 331.574V338.759L462.533 342.664L467.069 336.26Z" fill="#C3CDDF" stroke="white" stroke-width="0.6" stroke-miterlimit="10"/>
<path d="M474.274 342.976V338.915L467.069 336.26L462.533 342.664L476.81 354.222L477.744 347.037L474.274 342.976Z" fill="#C3CDDF" stroke="white" stroke-width="0.6" stroke-miterlimit="10"/>
<path d="M444.253 315.173V315.954L450.524 323.296L455.194 315.173H444.253Z" fill="#C3CDDF" stroke="white" stroke-width="0.6" stroke-miterlimit="10"/>
<path d="M500.293 323.139L494.289 323.608V329.075H495.49V336.572L493.488 338.915V351.255L497.224 352.816L506.831 346.569L503.629 323.139H500.293Z" fill="#C3CDDF" stroke="white" stroke-width="0.6" stroke-miterlimit="10"/>
<path d="M512.569 316.111L511.768 317.204L507.499 322.515L506.965 323.14L509.767 327.201C509.767 327.201 510.167 339.697 510.301 344.382H513.903V332.824L517.906 325.326V321.578V319.079L512.569 316.111Z" fill="#C3CDDF" stroke="white" stroke-width="0.6" stroke-miterlimit="10"/>
<path d="M506.965 323.139H503.629L506.832 346.569L510.301 344.382C510.167 339.54 509.767 327.2 509.767 327.2L506.965 323.139Z" fill="#C3CDDF" stroke="white" stroke-width="0.6" stroke-miterlimit="10"/>
<path d="M474.542 238.013L495.223 227.08V221.613H500.961L498.959 206.774H490.42L488.285 204.119H485.616L482.414 212.397L474.008 218.176L473.608 220.519L470.806 225.83L472.14 230.516L464.534 242.231H459.731L459.331 242.855H474.542V238.013Z" fill="#C3CDDF" stroke="white" stroke-width="0.6" stroke-miterlimit="10"/>
<path d="M566.208 511.356V513.074L572.079 514.168L575.281 511.981V481.367H579.284V463.404L586.89 461.217L595.029 461.842L594.895 461.217H593.828V460.905V459.03H587.69L587.023 458.093L578.75 459.343H546.194V461.686L556.468 486.052L561.671 512.45H562.872L563.006 512.606L564.473 509.794L566.208 511.356Z" fill="#C3CDDF" stroke="white" stroke-width="0.6" stroke-miterlimit="10"/>
<path d="M577.817 504.327H581.419L585.289 496.517H587.957L589.291 499.173H594.495L607.171 482.928L603.168 473.556H597.964L595.029 461.842L586.89 461.217L579.284 463.404V481.366H575.281V495.111L578.35 500.266L577.817 504.327Z" fill="#C3CDDF" stroke="white" stroke-width="0.6" stroke-miterlimit="10"/>
<path d="M618.645 503.859L617.578 506.046H613.441V500.267H617.578V491.832L614.642 483.397H607.437L607.17 482.929L594.494 499.173H589.291L587.956 496.518H585.288L581.418 504.328H577.816L578.349 500.267L575.28 495.112V511.981L572.078 514.168L566.207 513.075V511.356L564.473 509.794L563.005 512.606L569.143 527.132V533.224H566.608L573.946 541.815L597.43 535.567L619.846 509.326V503.859H618.645Z" fill="#C3CDDF" stroke="white" stroke-width="0.6" stroke-miterlimit="10"/>
<path d="M660.942 458.875V463.561L662.01 464.81V471.37L659.875 477.462H658.407L656.673 479.493V484.491L659.074 487.302V492.925L660.809 496.674H663.077V497.924H666.013L667.347 496.518H670.683L674.419 482.304L681.224 462.936V457.781L682.691 454.501L681.09 449.659L682.691 448.253L683.759 451.846L685.36 448.253L683.892 445.598V437.476L680.557 433.727L679.222 435.289V439.662H676.287V445.286L669.882 450.752H662.944V455.282L660.942 458.875Z" fill="#C3CDDF" stroke="white" stroke-width="0.6" stroke-miterlimit="10"/>
<path d="M508.967 301.273H516.305L519.908 297.211V284.716L518.44 285.184L485.883 255.976L483.748 256.288V301.273H462.666V313.612H471.74L474.809 324.546H484.149L489.753 310.957L492.421 311.738L501.361 302.678H502.962L503.496 303.616H507.099L508.967 301.273Z" fill="#C3CDDF" stroke="white" stroke-width="0.6" stroke-miterlimit="10"/>
<path d="M554.466 318.141L552.465 311.113H551.797L547.661 314.393L546.06 312.518H540.856L538.855 314.861H534.985L532.05 311.269L530.182 313.456H528.447L525.912 310.644H518.573V313.456L517.106 315.174V318.61L517.906 319.079V321.578V325.327L513.903 332.824V344.382H520.175L525.512 352.817H534.452L538.454 341.415H542.457L545.126 344.851L555.267 320.953L554.466 318.141Z" fill="#C3CDDF" stroke="white" stroke-width="0.6" stroke-miterlimit="10"/>
<path d="M561.804 295.024V278.936L558.068 266.128L557.802 265.971L552.197 263.628H546.86L525.912 282.997L519.908 284.715V297.211L516.305 301.272H508.966L507.098 303.615H503.496L511.768 317.048L512.569 316.11L517.105 318.61V315.173L518.573 313.455V310.644H525.912L528.447 313.455H530.182L532.05 311.268L534.985 314.861H538.854L540.856 312.518H546.06L547.661 314.392L551.797 311.112H551.53L561.804 295.024Z" fill="#C3CDDF" stroke="white" stroke-width="0.6" stroke-miterlimit="10"/>
<path d="M474.808 324.546L471.739 313.612H462.666V315.174H455.194L450.524 323.296L457.729 331.418L458.93 327.826H464.267L467.47 335.636L467.069 336.26L472.94 338.447L475.475 324.546H474.808Z" fill="#C3CDDF" stroke="white" stroke-width="0.6" stroke-miterlimit="10"/>
<path d="M494.289 329.075H488.685L484.816 324.545H484.149H475.476L472.941 338.447L474.275 338.915V342.977L477.744 347.038L476.81 354.223L477.21 354.535L481.88 350.318H491.354L493.489 351.255V338.915L495.49 336.573V329.075H494.289Z" fill="#C3CDDF" stroke="white" stroke-width="0.6" stroke-miterlimit="10"/>
<path d="M540.055 226.298H542.324V222.393H544.592V216.301L544.058 216.145L539.789 213.958V211.928L543.525 207.554V203.962H541.657V201.619L543.525 199.432V197.87L540.723 198.964V196.621H537.654L536.319 197.714H534.051L534.185 208.804L531.116 211.147L537.387 230.359H540.055V226.298Z" fill="#C3CDDF" stroke="white" stroke-width="0.6" stroke-miterlimit="10"/>
<path d="M591.96 224.58V221.612H585.688V219.269L581.285 217.395L573.947 221.456V224.111L575.281 227.079L571.945 230.984L558.335 225.204V221.3L552.064 218.644H549.129L544.592 216.301V222.393H542.324V226.298H540.056V230.359H537.387V230.671V250.352L540.056 257.85H547.661V262.848L546.86 263.629H552.198L557.802 265.972L561.805 262.848L589.158 282.06V279.248H590.492H592.36V269.877V224.58H591.96Z" fill="#C3CDDF" stroke="white" stroke-width="0.6" stroke-miterlimit="10"/>
<path d="M665.613 351.255L677.488 337.353H674.153L663.078 331.886L657.741 325.638V323.608L653.738 324.076V319.391L655.739 315.954L647.467 306.27L640.662 304.864L635.725 307.676V308.457V314.861L626.785 334.854H622.649V338.603H626.118L634.124 347.818V353.91H637.726L641.596 358.44H647.067V356.878L650.002 353.285L653.071 356.878L662.411 351.255H665.613Z" fill="#C3CDDF" stroke="white" stroke-width="0.6" stroke-miterlimit="10"/>
<path d="M664.412 325.639L661.21 319.86L658.008 323.609H657.741V325.639L663.078 331.887L674.152 337.354H677.488L665.613 351.255H662.411L653.071 356.878L654.005 357.816L651.203 361.096V379.839L653.338 382.338L679.49 348.912L687.495 325.639V318.298L664.412 325.639Z" fill="#C3CDDF" stroke="white" stroke-width="0.6" stroke-miterlimit="10"/>
<path d="M616.778 365.313L611.841 371.248L610.773 382.338L611.841 380.308V382.338H615.177V379.839H619.713V375.153L625.05 374.06L626.918 374.685L631.722 366.25L626.652 354.535L624.517 357.191H615.177V363.438L616.778 365.313Z" fill="#C3CDDF" stroke="white" stroke-width="0.6" stroke-miterlimit="10"/>
<path d="M552.598 398.426L555.267 396.24V398.426H557.802L562.338 393.116V385.618L568.209 378.902V371.873V358.44H563.539V363.907H561.805V364.688H551.264V369.061H553.932L556.067 371.404L553.665 374.372V376.715L554.466 377.808V386.712H546.994V392.022L543.792 394.521L546.727 399.52L546.86 399.832L550.863 396.24L552.598 398.426Z" fill="#C3CDDF" stroke="white" stroke-width="0.6" stroke-miterlimit="10"/>
<path d="M628.786 442.317L627.319 435.132L628.786 425.917L627.586 421.231L623.182 419.513V435.132L620.781 443.098L622.248 442.474L624.25 444.504H628.253V449.034L625.984 451.689L629.72 457.625L631.989 452.626V442.317H628.786Z" fill="#C3CDDF" stroke="white" stroke-width="0.6" stroke-miterlimit="10"/>
<path d="M616.644 417.013L615.977 414.514L608.372 415.608V417.17L605.837 420.137L607.037 421.543V426.229L605.837 429.353V431.383L607.971 433.883H611.574V439.974H608.639L603.835 434.507L602.901 430.759H600.633V433.57L595.429 432.008V430.446H592.227V429.04L590.759 427.947L590.092 428.884V437.475H583.02V453.407L587.023 458.093L587.69 459.03H593.828V460.905V461.217H594.895H600.766L607.304 455.125V451.845L612.641 449.658L613.442 449.346L612.375 446.847L620.781 443.098L623.182 435.132V419.512L616.644 417.013Z" fill="#C3CDDF" stroke="white" stroke-width="0.6" stroke-miterlimit="10"/>
<path d="M570.21 353.285L574.48 351.567L575.948 354.535L585.288 357.19L585.822 353.285L588.09 353.754L597.964 351.099H602.234V347.819L590.225 333.761V327.669L585.955 322.827L576.882 332.355H571.945L564.74 339.696L563.672 338.134L559.403 340.321L556.2 346.881L561.804 360.939V363.907H563.539V358.44H568.209L570.21 355.941V353.285Z" fill="#C3CDDF" stroke="white" stroke-width="0.6" stroke-miterlimit="10"/>
<path d="M608.371 415.608L615.977 414.514L611.04 396.864L611.44 396.239L609.172 388.586H607.837L610.773 382.338L611.84 371.248L616.777 365.313L615.176 363.438V357.19H614.909L602.233 351.411V351.099H597.964L588.09 353.754L585.822 353.285L585.288 357.19L575.948 354.535L574.48 351.567L570.21 353.285V355.941L568.209 358.44V371.873V378.902L562.338 385.618V393.116L557.801 398.426H555.266V396.239L552.598 398.426L550.863 396.239L546.86 399.832V400.144L548.328 404.518H564.206L567.275 414.671H573.679V408.735L578.883 407.642V410.766H583.153V428.884H590.091L590.758 427.947L592.226 429.041V430.446H595.428V432.008L600.632 433.57V430.759H602.9L603.835 434.508L608.638 439.974H611.573V433.883H607.971L605.836 431.384V429.353L607.037 426.229V421.543L605.836 420.137L608.371 417.17V415.608Z" fill="#C3CDDF" stroke="white" stroke-width="0.6" stroke-miterlimit="10"/>
<path d="M447.322 68.3828L451.592 75.8802L461.065 78.067L475.876 68.3828L471.473 64.0093L456.262 67.6018L453.727 64.0093L447.322 68.3828Z" fill="#C3CDDF" stroke="white" stroke-width="0.6" stroke-miterlimit="10"/>
<path d="M372.868 87.2828H381.141V92.2811H387.412L406.492 69.945H413.964L426.507 55.2625L454.927 49.7957H459.064V36.8313L468.137 26.3662V13.0895H480.813L492.288 8.87217V6.68541H470.939L463.867 0.59375H437.582L403.824 5.27965L387.412 5.90443L368.732 14.4952H357.39L349.918 23.2422L353.387 26.8348H375.403V43.704H381.274V47.6089H372.868V52.2948H379.006L377.004 54.6377H372.334L367.798 62.2914L372.868 87.2828Z" fill="#C3CDDF" stroke="white" stroke-width="0.6" stroke-miterlimit="10"/>
<path d="M205.28 269.251L207.282 270.657L213.419 267.533H217.823L216.755 268.783H220.758L225.295 273.312V276.28H230.498V278.779H228.497V280.81H236.903L241.44 279.248V277.061H236.636V274.249H233.167L227.163 267.221H223.427V265.659L219.424 264.253H213.419L205.28 269.251Z" fill="#C3CDDF" stroke="white" stroke-width="0.6" stroke-miterlimit="10"/>
<path d="M211.685 270.657L213.019 269.251L214.487 270.501L213.019 271.906L211.685 270.657Z" fill="#C3CDDF" stroke="white" stroke-width="0.6" stroke-miterlimit="10"/>
<path d="M225.962 286.277L225.028 287.995L227.43 290.026H232.5L232.9 288.151L229.431 286.277H225.962Z" fill="#C3CDDF" stroke="white" stroke-width="0.6" stroke-miterlimit="10"/>
<path d="M265.457 286.902V289.714H269.727L270.794 288.308V286.902H265.457Z" fill="#C3CDDF" stroke="white" stroke-width="0.6" stroke-miterlimit="10"/>
<path d="M320.697 619.601H324.433L325.367 620.85L323.099 624.287L320.697 622.881V619.601Z" fill="#C3CDDF" stroke="white" stroke-width="0.6" stroke-miterlimit="10"/>
<path d="M326.168 621.164L324.166 625.381H326.435L328.836 623.194H330.171V621.164H326.168Z" fill="#C3CDDF" stroke="white" stroke-width="0.6" stroke-miterlimit="10"/>
<path d="M353.254 14.3397L381.941 6.9985L383.009 4.18696L362.194 2.625L317.895 5.59273V8.56047L322.298 11.372L321.098 14.3397L313.225 8.56047L300.549 11.9968V17.7761L310.823 20.119V22.462H301.884V25.8983L324.834 26.9917L332.572 24.3363V19.6504L346.983 13.715L353.254 14.3397Z" fill="#C3CDDF" stroke="white" stroke-width="0.6" stroke-miterlimit="10"/>
<path d="M275.865 14.8076L279.334 20.8993H297.48V17.9315L293.878 16.2134L288.14 16.9944H282.67L275.865 14.8076Z" fill="#C3CDDF" stroke="white" stroke-width="0.6" stroke-miterlimit="10"/>
<path d="M287.874 24.024V25.7421H293.478V28.2413L291.209 29.4909V32.1462H320.03L322.432 28.8661L313.492 28.0851L309.489 28.7099H300.55V22.7744L287.874 24.024Z" fill="#C3CDDF" stroke="white" stroke-width="0.6" stroke-miterlimit="10"/>
<path d="M221.025 26.9916L243.175 20.8999L247.444 28.0849L252.515 27.4602V24.4924H260.387V29.6469L238.504 34.0204L221.025 26.9916Z" fill="#C3CDDF" stroke="white" stroke-width="0.6" stroke-miterlimit="10"/>
<path d="M267.059 24.3359V28.397H271.595V30.2714H279.601L283.604 32.1458L288.674 29.178H282.937V24.3359H267.059Z" fill="#C3CDDF" stroke="white" stroke-width="0.6" stroke-miterlimit="10"/>
<path d="M297.481 34.4888L283.737 43.7044V47.6093H290.676V49.6398H309.089L312.158 48.5465L320.164 57.9183L303.351 68.852H298.014V72.7569H309.222L314.693 79.0048H325.501L331.905 71.6636L328.036 67.1339L332.172 62.2918L338.577 69.7892L346.583 60.2612L335.508 54.0133L339.911 50.2646L323.766 35.2698L297.481 34.4888Z" fill="#C3CDDF" stroke="white" stroke-width="0.6" stroke-miterlimit="10"/>
<path d="M256.918 38.3939C256.918 38.3939 259.053 44.4856 260.387 44.4856C261.721 44.4856 272.129 39.9559 272.129 39.9559L274.664 32.3022L256.918 38.3939Z" fill="#C3CDDF" stroke="white" stroke-width="0.6" stroke-miterlimit="10"/>
<path d="M197.008 40.8925L200.477 44.3288H207.415L215.555 40.8925V42.6107L213.019 45.5784H210.751V46.6718H221.025L223.827 50.1081H211.285V51.8263H216.222V52.9196L214.754 54.6378V55.7312H221.025L235.569 51.5139V53.0758L240.639 55.1064L245.576 54.4816L247.177 50.8891L250.914 51.5139L252.515 49.4833L246.51 45.4222L249.045 43.3917L250.113 38.7058L255.45 36.9876V34.8009L245.176 36.519L241.974 42.7669L240.239 42.1421L241.307 39.1744L238.238 37.4562L230.766 37.6124L226.629 32.9265H219.691L219.024 32.1455H208.349V35.1132L197.008 40.8925Z" fill="#C3CDDF" stroke="white" stroke-width="0.6" stroke-miterlimit="10"/>
<path d="M273.864 72.6006V73.8502L269.194 75.5683V76.5055H273.463V77.9113H275.865L281.469 74.0064L285.472 77.1303L288.941 75.2559L286.406 72.6006L286.673 71.5072L281.869 66.9775H279.334L273.864 72.6006Z" fill="#C3CDDF" stroke="white" stroke-width="0.6" stroke-miterlimit="10"/>
<path d="M275.064 81.1914V82.7534H278L282.403 79.9418V78.3799L278.133 79.0047L275.064 81.1914Z" fill="#C3CDDF" stroke="white" stroke-width="0.6" stroke-miterlimit="10"/>
<path d="M283.737 83.3786L285.739 81.1919H288.14V82.2853L286.006 84.7844L283.737 83.3786Z" fill="#C3CDDF" stroke="white" stroke-width="0.6" stroke-miterlimit="10"/>
<path d="M306.02 137.579L307.888 139.765V140.703L311.758 142.421L314.293 141.952V139.922L309.623 137.579H306.02Z" fill="#C3CDDF" stroke="white" stroke-width="0.6" stroke-miterlimit="10"/>
<path d="M319.497 146.794L332.306 131.799L337.109 130.081V131.486L331.372 138.203H333.907V139.921H339.778V141.639H338.043V143.67H340.979V148.043L337.51 152.26H334.974L337.109 149.761L335.642 148.199L332.039 152.417H328.97V150.386H331.105L332.573 148.668H329.637V147.731H319.497V146.794Z" fill="#C3CDDF" stroke="white" stroke-width="0.6" stroke-miterlimit="10"/>
<path d="M301.884 152.261L305.62 155.228L308.422 153.823V152.885H305.086L303.485 151.792V150.699H302.017L301.884 152.261Z" fill="#C3CDDF" stroke="white" stroke-width="0.6" stroke-miterlimit="10"/>
<path d="M335.908 119.771L335.241 116.96L327.902 112.118V109.619L326.835 108.369L328.836 105.401L326.435 89.9378H324.7L317.895 97.9039H316.294L311.757 99.622L308.822 95.2485L312.825 88.6883L311.224 86.8139H307.488V83.2214L303.485 80.2536L300.816 81.8156H297.614L293.878 79.7851L290.275 82.128V85.0957L287.473 87.7511V92.2808L282.003 98.6848L284.404 101.496V105.87L280.401 110.556L269.193 115.71V118.678L266.925 126.644L263.322 130.237H259.72V128.362L258.252 126.644V123.208L261.321 124.457L261.988 122.114L259.32 120.084V116.647L262.388 114.304V112.586H254.116L252.648 110.868L246.644 106.182L241.974 103.683H237.037L238.905 97.2791H235.302V94.9361L239.972 89.4692L253.048 78.8479H258.786V76.1925H261.855L263.456 73.2248H268.66L274.397 69.7885L274.931 68.0703L279.734 64.9464V63.072H284.137V64.7902L286.139 67.6017L287.34 64.7902L294.812 61.6663L296.947 58.6985V55.4184H300.549V51.5135H291.343V54.1688L280.135 59.6357L278.8 58.0737L282.003 54.325L280.001 51.9821L276.665 55.887L274.931 52.6069V49.9515C274.931 49.9515 277.199 50.8887 277.199 49.9515C277.199 49.0143 277.199 42.6103 277.199 42.6103L280.802 39.174H284.805L291.743 34.9567V33.8633H280.535L274.531 41.6731L262.789 48.5458L267.726 51.6697V55.887H260.254V50.1077H256.784L250.913 56.9804H238.771L233.968 54.325L220.758 60.4167H207.015V56.9804H210.618V53.544L195.54 49.6391L183.798 47.2962L155.912 53.544L146.438 51.0449L105.875 92.437L110.012 97.2791V100.247L107.076 103.996V114.617H111.346L112.814 111.649H114.815V117.116L112.013 120.865L113.748 126.019L111.88 131.33H108.01V136.328L114.015 143.357L113.748 143.982L119.752 146.481V142.107H207.682L220.358 147.262L223.961 145.544L224.494 146.637L230.365 142.42H235.302V146.325H237.704V151.635L238.771 156.634H244.509H247.845L249.045 158.04V160.851L246.644 163.663L245.176 161.944L243.441 163.975H242.107L237.571 169.286H237.037L236.103 172.878L240.906 170.848L246.911 168.661L248.779 164.912L257.852 163.819V164.912L264.39 160.07H276.132L285.872 148.668H290.676V151.479L288.807 155.853L289.875 158.664L297.614 157.259V159.133L290.809 163.663L292.41 167.724L300.95 162.101L310.423 158.977V157.883H312.958L315.093 154.916L313.492 153.822L314.559 151.792L313.092 150.698L308.955 154.916L308.822 156.79H304.819L300.549 153.822V149.605L306.287 143.669V140.858H300.95L286.272 147.887V145.7L297.214 140.389V137.578L299.615 134.766H320.564L328.303 131.174L332.306 130.705L336.709 127.581L339.244 121.021L335.908 119.771ZM178.861 69.7885L187.534 66.3522L181.397 63.2282L196.341 62.7596L191.404 66.196L196.874 69.3199L189.269 70.4133L186.867 70.2571L181.13 71.3504L174.992 74.3182L178.595 70.8819L178.861 69.7885ZM203.279 81.1908L186.2 88.0635H177.127V86.0329L185.8 82.7528L185.933 79.1603L190.87 82.7528L203.146 78.5355V81.1908H203.279ZM210.217 131.018L207.415 136.484L206.615 135.079L208.349 131.799V128.206L207.415 126.644L206.748 116.96L211.018 115.085L210.217 131.018Z" fill="#C3CDDF" stroke="white" stroke-width="0.6" stroke-miterlimit="10"/>
<path d="M105.608 92.1248L105.875 92.4371L146.705 50.8889L115.749 42.9229L83.0589 54.3252H75.4534L72.2511 56.0434L76.7877 63.0722V66.0399H69.3156V62.6036H62.7776L54.5049 66.0399V72.9126L68.3816 70.5696V75.0993L40.7617 84.3149V87.4389L36.6253 88.8446V92.2809H43.4303V94.6239L39.4274 99.3098H42.096H49.4346L44.7646 102.59L0.999634 118.991V120.865L25.951 113.68V115.398H29.9539V111.649L50.6355 103.371L63.9784 96.9668V94.1553L76.254 88.376V90.2504L69.9828 93.9991V95.8735L79.8566 92.1248H85.0603L87.8623 89.0008H92.7992L95.6012 92.1248H105.608Z" fill="#C3CDDF" stroke="white" stroke-width="0.6" stroke-miterlimit="10"/>
<path d="M290.942 148.98H286.139L276.398 160.382H264.657L258.118 165.068V167.724H249.045V170.848L236.636 177.876H232.233V174.596L236.236 172.878L237.17 169.286H236.903V164.912L234.368 167.88V166.786L237.704 162.882V159.133L235.569 156.477H233.834L230.499 160.539L229.698 159.601L224.361 166.005V169.442L219.958 174.596H217.289V168.192L227.563 156.009H237.437V153.666H235.569H228.764L227.163 151.792V149.136L218.89 153.354H217.289V151.635L213.019 152.416V150.854L220.224 147.418L207.549 142.107H119.618V146.481L113.748 143.982L109.745 153.197L93.0659 181V210.678L100.805 219.737V220.049H110.946L122.287 226.297H132.294V223.173H138.832L143.102 228.172V233.639L146.038 237.075L149.24 233.326H154.043L156.712 236.294V249.414L164.184 252.382L164.317 251.914V244.729L169.388 238.793L182.197 232.545L189.135 236.45L192.871 234.263L194.739 235.825L195.94 234.576L194.072 231.92L197.675 230.202H207.415L209.55 232.545H212.085L213.019 231.452H215.288L218.49 235.044V238.637L215.688 241.761V247.54L219.958 255.506H222.092L224.628 246.603V238.012L222.359 230.671L228.364 220.674H229.698L236.103 213.177H239.572L242.374 209.897H246.377V205.836L248.512 203.18V193.496L250.246 191.622L251.58 193.34L250.513 195.683L251.58 196.308L255.717 191.153L255.45 188.029H257.184L262.255 182.094V179.126L274.13 176.627V172.566H275.464V169.442L280.268 165.224L289.208 161.476V159.133L290.142 158.977L289.074 156.165L290.942 151.792V148.98Z" fill="#C3CDDF" stroke="white" stroke-width="0.6" stroke-miterlimit="10"/>
<path d="M248.378 280.81L246.11 279.561L243.308 280.81L243.174 281.747L246.243 282.06L246.11 286.277H239.038C239.038 286.746 239.038 288.151 239.038 288.151L241.306 290.807L243.041 288.151H247.844L248.111 288.464L250.113 280.342L248.378 280.81Z" fill="#C3CDDF" stroke="white" stroke-width="0.6" stroke-miterlimit="10"/>
<path d="M259.853 284.09H257.318L252.915 279.561L250.246 280.342L248.245 288.464L249.979 290.651H251.313V287.214H253.315V288.464H255.983V287.214L259.853 288.464L261.454 286.277L259.853 284.09Z" fill="#C3CDDF" stroke="white" stroke-width="0.6" stroke-miterlimit="10"/>
<path d="M184.732 305.646L189.536 299.866H187.401V298.773L186.467 299.398H185.133L186.333 290.026H178.461V292.994L181.263 296.274V298.773H175.526C175.526 298.773 174.191 302.678 173.391 305.177L180.462 310.331H180.863L184.732 305.646Z" fill="#C3CDDF" stroke="white" stroke-width="0.6" stroke-miterlimit="10"/>
<path d="M181.263 298.772V296.273L178.461 292.993V290.025H186.333H186.867L190.736 285.495L192.738 287.838L194.472 282.684V279.091L197.675 275.342L197.808 272.375H191.537L183.798 274.249V280.185L179.662 285.183H174.591V287.057L168.454 288.463L167.386 287.213H163.784L159.781 272.375V266.752L164.184 252.694L156.712 249.726V236.606L154.177 233.638H149.373L146.171 237.387L143.235 233.95V228.171L138.966 223.173H132.428V226.297H122.554L111.212 220.049H101.072V232.857L106.542 239.261V242.854H102.006V244.884L109.478 253.631L106.943 256.599L114.548 265.502V267.533H118.017V260.66L114.415 256.443V250.351L110.278 237.543L107.476 231.764V224.11L115.215 228.483V235.981L122.42 248.164L120.686 250.82L132.161 267.689V277.217H129.359V280.185L136.03 287.994H142.035L159.38 300.959L166.185 296.741L173.391 305.176C174.191 302.677 175.525 298.772 175.525 298.772H181.263Z" fill="#C3CDDF" stroke="white" stroke-width="0.6" stroke-miterlimit="10"/>
<path d="M187 290.026H186.467L185.266 299.554H186.6L187.401 298.773V297.523L191.003 293.306L192.871 287.839L190.87 285.496L187 290.026Z" fill="#C3CDDF" stroke="white" stroke-width="0.6" stroke-miterlimit="10"/>
<path d="M203.012 323.764V317.048L205.014 315.954V308.925L206.481 307.207V304.864H200.077L193.272 309.55V313.767H190.203V315.798L196.074 322.671L203.146 323.92L203.012 323.764Z" fill="#C3CDDF" stroke="white" stroke-width="0.6" stroke-miterlimit="10"/>
<path d="M184.732 305.646L180.863 310.331H189.669C189.669 309.55 189.669 308.613 189.669 308.613L184.732 305.646Z" fill="#C3CDDF" stroke="white" stroke-width="0.6" stroke-miterlimit="10"/>
<path d="M193.272 309.55L200.077 305.021H206.615V302.053L205.014 300.179H189.669L184.866 305.958L189.803 308.926C189.803 308.926 189.803 309.707 189.803 310.644H190.336V314.08H193.405V309.55H193.272Z" fill="#C3CDDF" stroke="white" stroke-width="0.6" stroke-miterlimit="10"/>
<path d="M203.145 323.92L196.074 322.671L196.341 322.827V328.45L201.811 334.698V336.416L205.013 340.165V337.197H205.947L206.748 327.982L203.145 323.92Z" fill="#C3CDDF" stroke="white" stroke-width="0.6" stroke-miterlimit="10"/>
<path d="M226.496 334.543L222.493 329.701L218.09 329.388L211.685 333.762L206.748 327.982L205.948 337.198H209.017V340.166H215.955V336.105L218.89 332.668L221.959 336.417L220.758 337.823L223.427 340.947L226.496 337.51V334.543Z" fill="#C3CDDF" stroke="white" stroke-width="0.6" stroke-miterlimit="10"/>
<path d="M217.023 396.865L219.024 399.832L221.959 390.148L231.166 385.618V376.247L218.223 366.25L217.289 367.187V369.218L214.221 370.936V375.153L210.618 379.371V386.712L214.087 390.773V392.022L213.153 393.116L213.553 396.708L217.023 396.865Z" fill="#C3CDDF" stroke="white" stroke-width="0.6" stroke-miterlimit="10"/>
<path d="M239.972 387.18L246.91 385.93L250.513 388.273L248.512 393.584L251.714 394.365L253.582 380.307L250.38 376.559V372.654H254.116V370.311H251.714V367.187H261.454L259.319 362.032V345.319H253.582L250.78 342.039H243.975L242.107 331.886H240.105L242.774 323.139L245.576 321.265L245.443 320.796L249.446 317.672L247.711 314.861L240.506 321.577H235.435L231.833 325.795V329.543L227.029 335.166L226.496 334.542V337.509L223.427 340.946L225.562 343.445V348.287L224.628 349.38V358.752L218.223 366.25L231.166 376.246V377.496L239.038 381.869L239.972 387.18Z" fill="#C3CDDF" stroke="white" stroke-width="0.6" stroke-miterlimit="10"/>
<path d="M255.984 449.503L257.451 443.255L257.718 434.976L254.383 427.791H250.246V422.168H243.441L235.702 413.109L240.106 406.861V399.832L248.378 395.927H251.581L251.714 394.365L248.512 393.584L250.513 388.274L246.911 385.931L239.972 387.18L239.038 381.87L231.166 377.496V385.618L221.959 390.148L219.024 399.832L217.022 396.864L213.553 396.708L213.153 393.116L210.351 396.396V399.52L213.019 402.644V403.893H211.018V405.611L216.489 409.204L219.291 415.296L231.032 439.662V443.411L249.312 457.469V460.28L253.982 463.56L257.318 459.812L256.384 457.781L258.919 453.408L255.984 449.503Z" fill="#C3CDDF" stroke="white" stroke-width="0.6" stroke-miterlimit="10"/>
<path d="M286.005 339.696V341.414H283.337V347.506L285.872 350.63V351.099L287.607 350.942L288.941 356.878L286.539 359.533V364.375H288.007V367.031L291.476 369.842L296.813 366.562V359.533L294.678 357.034V351.567H297.747V346.413L288.941 335.167H288.007V337.353L286.005 339.696Z" fill="#C3CDDF" stroke="white" stroke-width="0.6" stroke-miterlimit="10"/>
<path d="M294.678 351.567V357.034L296.813 359.533V366.562L301.216 366.874V364.375L304.952 363.126L306.553 364.844L308.955 360.158V357.503L307.354 355.941V350.474L309.089 350.005L310.023 347.818L307.221 346.725H298.014L297.747 346.413V351.567H294.678Z" fill="#C3CDDF" stroke="white" stroke-width="0.6" stroke-miterlimit="10"/>
<path d="M268.793 373.903L274.931 366.718V364.063H272.262V359.22L270.261 356.409H277.466L285.872 353.597V351.098V350.63L283.337 347.506V341.414H286.005V339.696L288.007 337.353V335.166H284.804V330.012L279.2 323.608H273.863L271.595 326.263H267.725L266.258 324.545H258.786V321.421H254.382L253.315 317.204H251.714V320.64L247.844 324.232L249.846 327.2L249.312 331.886L247.444 332.667L244.909 328.45L246.377 324.701L245.576 321.265L242.774 323.139L240.105 331.886H242.107L243.975 342.039H250.78L253.582 345.319H259.319V362.032L261.454 367.187H261.187V373.903H268.793Z" fill="#C3CDDF" stroke="white" stroke-width="0.6" stroke-miterlimit="10"/>
<path d="M309.623 364.375L313.359 364.844L318.029 354.691L313.359 349.224L310.023 347.818L309.089 350.005L307.354 350.474V355.941L308.956 357.503V360.158L306.954 364.063L308.689 365.469L309.623 364.375Z" fill="#C3CDDF" stroke="white" stroke-width="0.6" stroke-miterlimit="10"/>
<path d="M376.47 399.832H371.133L360.993 387.961H352.453L347.516 386.711L342.98 390.616V385.306L332.839 378.902L329.637 382.494H327.502L330.037 376.871V375.309H322.965L320.43 378.902L318.962 377.652L323.632 370.467V366.25H321.231L319.096 355.941L318.429 355.16L318.028 354.691L313.358 364.844L309.622 364.375L308.688 365.469L306.954 364.063L306.553 364.844L304.952 363.126L301.216 364.375V366.874L296.813 366.562L291.476 369.842L288.007 367.031V364.375H286.539V359.533L288.941 356.878L287.606 350.942L285.872 351.099V353.598L277.466 356.409H270.26L272.262 359.221V364.063H274.93V366.718L268.793 373.903H261.187V367.187H251.714V370.311H254.115V372.654H250.379V376.559L253.582 380.307L251.58 395.927H248.378L240.105 399.832V406.861L235.702 413.109L243.441 422.168H250.246V427.791H254.382L254.649 428.26L258.385 428.728L259.319 426.698H260.653L264.523 422.012H269.193V430.759L273.996 436.226H276.932L281.335 441.38H285.605L287.339 443.411V453.72H296.279V458.562H298.281L299.882 462.779L297.88 470.433L299.882 476.056V481.21H307.354L309.622 490.738H313.758V498.236H316.827V505.108L305.352 518.697L322.832 531.974L323.899 538.534L325.634 536.504V529.475L330.837 523.383V517.448L335.908 511.512V507.764L334.307 505.889V497.142H335.908L346.315 485.115H356.856V482.616H359.658L363.661 469.339V462.623H364.862V437.475H366.864L371.4 427.479H373.935L379.006 421.387V408.266L376.47 399.832Z" fill="#C3CDDF" stroke="white" stroke-width="0.6" stroke-miterlimit="10"/>
<path d="M261.321 468.559L261.722 475.744L264.924 485.428H267.459H268.393L271.329 480.586L283.471 481.835V469.652L294.545 467.622L298.014 469.652L299.882 462.78L298.281 458.562H296.28V453.72H287.34V443.411L285.605 441.381H281.336L276.933 436.226H273.997L269.194 430.759V422.012H264.524L260.654 426.698H259.32L258.386 428.729L254.65 428.26L257.719 434.977L257.452 443.255L255.984 449.503L258.92 453.408L256.384 457.781L257.318 459.812L256.518 460.593L258.92 466.997L261.321 468.559Z" fill="#C3CDDF" stroke="white" stroke-width="0.6" stroke-miterlimit="10"/>
<path d="M313.092 543.689H319.496L323.899 538.534L322.832 531.974L306.554 519.635L304.819 521.821L307.221 537.91L307.621 537.441L313.092 543.689Z" fill="#C3CDDF" stroke="white" stroke-width="0.6" stroke-miterlimit="10"/>
<path d="M302.951 496.362L299.882 506.202L309.623 507.296L313.492 502.922L314.026 498.236H313.759V490.739H309.623L307.355 481.211H299.882V476.056L297.881 470.433L298.014 469.652L294.545 467.622L283.471 469.652V481.679L288.941 488.708L302.951 496.362Z" fill="#C3CDDF" stroke="white" stroke-width="0.6" stroke-miterlimit="10"/>
<path d="M297.747 626.629H294.945L294.545 624.286L285.605 623.192L283.604 616.945L277.066 612.102L279.067 606.948L277.466 587.423H274.664L267.726 572.272V538.534L262.789 527.444V517.447L265.457 505.889V495.267L268.66 491.519V485.427H267.459H264.924L261.721 475.743L261.321 468.558L258.919 467.152L256.518 460.748L253.982 463.716L254.116 463.872L256.251 477.149V514.011L258.119 516.198V519.634L256.651 521.352V524.008L259.987 532.598C259.987 532.598 260.52 551.498 259.987 551.967C259.453 552.592 258.119 551.967 258.119 551.967V554.31L261.721 563.369V572.585L263.322 574.459V583.519H265.991V574.928L267.325 576.021L270.394 593.046H268.793L267.325 588.361L265.19 588.048L266.525 593.827L264.924 597.889L266.525 600.388H270.661V604.136H267.992L273.463 618.038H275.865V621.162L281.602 628.503L286.673 632.72L301.35 638.343L302.15 636.157L297.747 626.629Z" fill="#C3CDDF" stroke="white" stroke-width="0.6" stroke-miterlimit="10"/>
<path d="M316.828 498.236H314.026L313.492 502.922L309.622 507.295L299.882 506.202L302.951 496.361L288.941 488.708L283.47 481.679V481.835L271.328 480.585L268.393 485.428V491.519L265.19 495.268V505.889L262.522 517.448V527.444L267.592 538.534V572.273L274.397 587.424H277.333L278.934 606.948L276.932 612.103L283.47 616.945L285.472 623.193L294.412 624.286L294.812 626.629H297.747L302.15 636.001L301.483 638.188L305.086 639.593L312.691 637.094V635.22H309.622L297.881 625.692H295.479V624.13L296.413 623.037L292.944 616.008V614.29H295.479V609.291L299.348 604.762V600.544H294.678L290.809 596.015V591.641H294.812V581.801H297.214V576.959H293.077L289.475 572.741V569.774L296.813 573.054L299.882 569.461V564.307L297.881 561.964V559.308L300.549 562.432L313.225 557.746V554.779L314.693 553.061V548.999H311.491V544.782L306.42 538.847L307.221 537.91L304.819 521.821L306.554 519.635L305.353 518.697L316.828 505.108V498.236Z" fill="#C3CDDF" stroke="white" stroke-width="0.6" stroke-miterlimit="10"/>
<path d="M172.59 369.686L173.924 367.343L175.792 369.217L174.191 370.935L172.59 369.686Z" fill="#C3CDDF" stroke="white" stroke-width="0.6" stroke-miterlimit="10"/>
<path d="M175.792 370.311L177.66 376.715L175.926 378.433L172.99 378.746L172.323 375.466L174.992 373.435L174.725 371.248L175.792 370.311Z" fill="#C3CDDF" stroke="white" stroke-width="0.6" stroke-miterlimit="10"/>
<path d="M176.86 370.155L177.26 371.873L178.995 370.936L178.461 368.906L176.86 370.155Z" fill="#C3CDDF" stroke="white" stroke-width="0.6" stroke-miterlimit="10"/>
<path d="M178.862 372.81L178.461 374.216L179.395 374.528L179.796 372.966L178.862 372.81Z" fill="#C3CDDF" stroke="white" stroke-width="0.6" stroke-miterlimit="10"/>
<defs>
<linearGradient id="paint0_linear_1719_9866" x1="974.435" y1="177.375" x2="974.435" y2="158.604" gradientUnits="userSpaceOnUse">
<stop stop-color="#FF7400"/>
<stop offset="1" stop-color="#FFAB52"/>
</linearGradient>
<linearGradient id="paint1_linear_1719_9866" x1="966.963" y1="225.994" x2="966.963" y2="177.033" gradientUnits="userSpaceOnUse">
<stop stop-color="#FF7400"/>
<stop offset="1" stop-color="#FFAB52"/>
</linearGradient>
<linearGradient id="paint2_linear_1719_9866" x1="880.249" y1="372.605" x2="880.249" y2="366.847" gradientUnits="userSpaceOnUse">
<stop stop-color="#FF7400"/>
<stop offset="1" stop-color="#FFAB52"/>
</linearGradient>
</defs>
</svg>
