<svg width="20" height="21" viewBox="0 0 20 21" fill="none" xmlns="http://www.w3.org/2000/svg">
<path d="M16.3479 13.5907C15.7978 12.8062 15.5078 11.8688 15.5189 10.9107C15.5143 10.0203 15.7873 9.15067 16.2999 8.42268C16.6948 7.89385 17.1553 7.41737 17.6704 7.00468C17.3119 6.54814 16.8912 6.14419 16.4204 5.80468C15.669 5.28449 14.7741 5.01149 13.8604 5.02368C13.1502 5.05025 12.4487 5.18827 11.7814 5.43268C11.2318 5.65278 10.6527 5.7906 10.0629 5.84168C9.49848 5.78273 8.9423 5.66184 8.40437 5.48118C7.71475 5.26543 6.99907 5.14416 6.27687 5.12068C5.611 5.11332 4.95315 5.26631 4.35885 5.56672C3.76456 5.86713 3.25128 6.30614 2.86237 6.84668C1.91522 8.14873 1.43659 9.733 1.50437 11.3417C1.5597 13.4759 2.16859 15.5591 3.27137 17.3872C4.46504 19.4625 5.67087 20.5002 6.88887 20.5002C7.43882 20.4659 7.97723 20.3272 8.47537 20.0917C9.01396 19.8521 9.59332 19.7175 10.1824 19.6952C10.8052 19.7159 11.4196 19.8461 11.9974 20.0797C12.5348 20.2947 13.1024 20.4244 13.6799 20.4642C14.7055 20.4642 15.7352 19.679 16.7689 18.1087C17.4044 17.184 17.9024 16.1719 18.2474 15.1042C17.4602 14.8309 16.7901 14.2969 16.3479 13.5907Z" fill="#666A6E"/>
<path d="M12.2619 4.29985C12.7439 3.82915 13.1244 3.26472 13.3799 2.64135C13.5958 2.12256 13.7144 1.56852 13.7299 1.00685C13.7299 0.974847 13.7299 0.934847 13.7239 0.886847C13.7179 0.838847 13.7179 0.798847 13.7179 0.766847C13.7053 0.723471 13.6953 0.679396 13.6879 0.634847C13.6802 0.589239 13.6697 0.544152 13.6564 0.499847C12.2461 0.828514 11.2444 1.42151 10.6514 2.27885C10.0359 3.19107 9.70927 4.26742 9.71392 5.36785C10.1361 5.33921 10.5546 5.27074 10.9639 5.16335C11.4575 4.97972 11.9018 4.68415 12.2619 4.29985Z" fill="#666A6E"/>
</svg>
