<svg width="14" height="17" viewBox="0 0 14 17" fill="none" xmlns="http://www.w3.org/2000/svg">
<path d="M9.21875 4.125L8.59375 4.75C8.46875 4.90625 8.46875 5.125 8.625 5.28125L11.125 7.6875H0.375C0.15625 7.6875 0 7.875 0 8.0625V8.9375C0 9.15625 0.15625 9.3125 0.375 9.3125H11.125L8.625 11.75C8.46875 11.9062 8.46875 12.125 8.59375 12.2812L9.21875 12.9062C9.375 13.0312 9.59375 13.0312 9.75 12.9062L13.875 8.78125C14 8.625 14 8.40625 13.875 8.25L9.75 4.125C9.59375 4 9.375 4 9.21875 4.125Z" fill="black"/>
</svg>
