<svg width="18" height="21" viewBox="0 0 18 21" fill="none" xmlns="http://www.w3.org/2000/svg">
<path d="M0.00195312 19.8043V1.16739C0.0661746 1.01626 0.106278 0.849856 0.252389 0.744568C0.286323 0.77596 0.321658 0.806241 0.35419 0.8393C1.16411 1.66586 1.97394 2.49252 2.78367 3.31927C3.45673 4.00638 4.13092 4.69293 4.80623 5.37892C5.86144 6.4531 6.91684 7.52728 7.97243 8.60147C8.57819 9.21819 9.18376 9.83511 9.78914 10.4522C9.83065 10.4944 9.8629 10.55 9.92936 10.5633C9.92744 10.572 9.9265 10.5808 9.92656 10.5897C9.8929 10.6214 9.85841 10.6525 9.8256 10.6856C8.25268 12.2685 6.67987 13.852 5.10714 15.436C3.50731 17.0443 1.90775 18.6529 0.308478 20.2618C0.260241 20.2474 0.239208 20.2037 0.207238 20.1715C0.103754 20.0679 0.0762706 19.9234 0.00195312 19.8043Z" fill="#3BC4F2"/>
<path d="M0.982788 0.50238C1.90292 0.952425 2.77398 1.4897 3.66467 1.99142C6.32944 3.49286 8.99113 4.9995 11.6497 6.51131C12.1475 6.79329 12.6425 7.08026 13.1389 7.36501C13.0985 7.40946 13.0604 7.45613 13.018 7.49863C12.0658 8.4491 11.1131 9.39873 10.1597 10.3475C10.0851 10.4217 10.0302 10.5181 9.92781 10.5631C9.8619 10.5506 9.82965 10.495 9.78758 10.452C9.18201 9.83711 8.57663 9.22047 7.97143 8.60208C6.91641 7.5279 5.861 6.45372 4.80523 5.37953C4.13104 4.69298 3.45686 4.00643 2.78267 3.31988C1.97238 2.49351 1.16255 1.66676 0.353193 0.839636C0.320662 0.806577 0.285326 0.776297 0.251953 0.744905C0.367776 0.602113 0.537444 0.556552 0.702345 0.50238H0.982788Z" fill="#66BE69"/>
<path d="M13.1621 13.7664C12.6195 14.072 12.0777 14.3812 11.5336 14.6854C8.18231 16.5589 4.83158 18.4324 1.48141 20.306C1.34715 20.3776 1.20907 20.442 1.06775 20.4988H0.703177C0.575856 20.4132 0.407029 20.3951 0.308594 20.2621C1.90787 18.6526 3.50714 17.0435 5.10641 15.4346C6.67951 13.8515 8.25233 12.268 9.82487 10.6842C9.85768 10.6511 9.89218 10.62 9.92583 10.5883C10.0495 10.7072 10.1746 10.8247 10.2969 10.945C11.2524 11.8857 12.2075 12.8261 13.1621 13.7664Z" fill="#EE364D"/>
<path d="M13.1621 13.7669C12.2073 12.8266 11.2522 11.8866 10.2968 10.9469C10.1745 10.8266 10.0495 10.7091 9.92578 10.5902C9.92573 10.5813 9.92667 10.5724 9.92859 10.5638C10.0309 10.5188 10.0859 10.4224 10.1605 10.3482C11.114 9.39976 12.0668 8.45012 13.0188 7.49929C13.0611 7.45678 13.0993 7.41011 13.1397 7.36566C13.5121 7.54568 13.8632 7.76431 14.223 7.96683C15.2803 8.56217 16.3325 9.1664 17.392 9.75618C17.6753 9.9137 17.9061 10.0993 18.0006 10.4179V10.7791C17.9406 10.8305 17.9428 10.9113 17.9055 10.9735C17.8309 11.108 17.721 11.22 17.5875 11.2977C16.1253 12.116 14.6627 12.9335 13.2 13.7505C13.1877 13.7566 13.175 13.7621 13.1621 13.7669Z" fill="#FBD206"/>
<path d="M0.308488 20.2607C0.406923 20.3938 0.57575 20.4118 0.703071 20.4974C0.492739 20.4974 0.282406 20.4946 0.0723543 20.4993C0.0117786 20.5016 0 20.488 0 20.428C0.00476753 20.2199 0.0019631 20.0112 0.0019631 19.8032C0.0762805 19.9223 0.103764 20.0668 0.206967 20.1704C0.238938 20.2027 0.259971 20.2463 0.308488 20.2607Z" fill="#FEFEFE"/>
<path d="M0.702972 0.501816C0.538071 0.555988 0.368403 0.601548 0.25258 0.74434C0.106469 0.849629 0.0663658 1.01603 0.00214438 1.16716C0.00214438 0.965751 0.00438792 0.764065 0.00214438 0.562378C0.000181274 0.511539 0.0128012 0.500427 0.0646832 0.500427C0.27754 0.503761 0.490115 0.501816 0.702972 0.501816Z" fill="#FEFEFE"/>
</svg>
