<svg viewBox="0 0 24 25" fill="none" xmlns="http://www.w3.org/2000/svg">
<g id="Group">
<path id="Path" fill-rule="evenodd" clip-rule="evenodd" d="M7.5 3.47369H16.504C18.987 3.47369 21 5.48669 21 7.96969V16.9787C21 19.4607 18.987 21.4737 16.504 21.4737H7.496C5.013 21.4737 3 19.4607 3 16.9777V7.97369C3 5.48869 5.015 3.47369 7.5 3.47369V3.47369Z" stroke="black" stroke-width="1.5" stroke-linecap="round" stroke-linejoin="round"/>
<path id="Path_2" d="M8.12012 11.5737V16.9737" stroke="black" stroke-width="1.5" stroke-linecap="round" stroke-linejoin="round"/>
<g id="Group_2">
<path id="Path_3" d="M11.7192 16.9737V13.8237C11.7192 12.5807 12.7262 11.5737 13.9692 11.5737V11.5737C15.2122 11.5737 16.2192 12.5807 16.2192 13.8237V16.9737" stroke="black" stroke-width="1.5" stroke-linecap="round" stroke-linejoin="round"/>
<path id="Path_4" d="M8.11814 8.31168C7.99414 8.31168 7.89314 8.41268 7.89414 8.53668C7.89414 8.66068 7.99514 8.76168 8.11914 8.76168C8.24314 8.76168 8.34414 8.66068 8.34414 8.53668C8.34414 8.41168 8.24314 8.31168 8.11814 8.31168" stroke="black" stroke-width="1.5" stroke-linecap="round" stroke-linejoin="round"/>
</g>
</g>
</svg>
