<svg width="104" height="40" viewBox="0 0 104 40" fill="none" xmlns="http://www.w3.org/2000/svg">
<g clip-path="url(#clip0_491_1307)">
<path d="M52.8589 8.74047C53.0026 8.66368 53.1233 8.56385 53.2196 8.43969C53.3171 8.31554 53.3903 8.17475 53.4416 8.01732C53.493 7.85989 53.5187 7.70374 53.5187 7.55143C53.5187 7.39912 53.4904 7.25065 53.4352 7.1073C53.38 6.96395 53.3056 6.8398 53.2132 6.73484C53.1207 6.62989 53.0116 6.54413 52.8871 6.47758C52.7626 6.41102 52.6304 6.37646 52.4918 6.37646H49.9644V8.85695H52.3531C52.5457 8.85439 52.7151 8.81727 52.8589 8.74047Z" fill="black"/>
<path d="M52.5044 10.6221H49.9629V13.2728H52.7124C52.8792 13.2728 53.0358 13.2318 53.1847 13.1512C53.3324 13.0706 53.462 12.9618 53.5737 12.8235C53.6853 12.6853 53.7726 12.5343 53.8381 12.3679C53.9023 12.2015 53.9356 12.0325 53.9356 11.8623C53.9356 11.5103 53.8086 11.216 53.5531 10.9792C53.2977 10.7411 52.9486 10.6221 52.5044 10.6221Z" fill="black"/>
<path d="M57.2332 0H46.2189C43.8199 0 41.874 1.94036 41.874 4.33252V15.3155C41.874 17.7077 43.8199 19.648 46.2189 19.648H57.2332C59.6322 19.648 61.5781 17.709 61.5781 15.3155V4.33252C61.5781 1.94036 59.6335 0 57.2332 0ZM55.6288 13.4123C55.4619 13.8052 55.2347 14.1226 54.9485 14.3645C54.661 14.6064 54.3259 14.7792 53.9422 14.8829C53.5584 14.9866 53.1476 15.039 52.7125 15.039H48.0185V4.60771H52.4904C52.8973 4.60771 53.2824 4.64866 53.6431 4.7293C54.0038 4.80993 54.3182 4.9584 54.5878 5.17215C54.8561 5.38718 55.0691 5.68156 55.227 6.05785C55.3849 6.43415 55.4632 6.91796 55.4632 7.508C55.4632 7.71791 55.4221 7.94189 55.3387 8.17996C55.2553 8.41802 55.1423 8.63817 54.9985 8.83784C54.8548 9.0375 54.6815 9.20773 54.4774 9.34468C54.2733 9.48291 54.0513 9.55715 53.8112 9.56611C54.0615 9.58531 54.3093 9.65826 54.5544 9.78625C54.7996 9.91425 55.0204 10.087 55.2142 10.3046C55.408 10.5222 55.5684 10.7744 55.693 11.0585C55.8175 11.3426 55.8804 11.646 55.8804 11.9685C55.8791 12.5394 55.7956 13.0193 55.6288 13.4123Z" fill="black"/>
<path d="M8.58859 31.0815C8.58859 31.3235 8.5411 31.582 8.44483 31.8572C8.34856 32.1324 8.21763 32.3858 8.05204 32.6162C7.88646 32.8466 7.68622 33.0424 7.45132 33.2011C7.21642 33.3611 6.9597 33.4456 6.68244 33.4571C6.97125 33.4788 7.25621 33.5633 7.53989 33.7118C7.82228 33.859 8.07643 34.0586 8.30106 34.3108C8.52569 34.5629 8.70925 34.8522 8.8543 35.1798C8.99806 35.5075 9.07122 35.8582 9.07122 36.2294C9.07122 36.886 8.97495 37.4402 8.78241 37.8933C8.58987 38.3464 8.32802 38.7137 7.99685 38.9914C7.66568 39.2705 7.27803 39.4701 6.83519 39.5904C6.39234 39.7108 5.91869 39.7709 5.41681 39.7709H0V27.7358H5.1588C5.6286 27.7358 6.07144 27.7832 6.48861 27.8766C6.90579 27.9701 7.26776 28.1403 7.57839 28.3873C7.88774 28.6343 8.13419 28.9761 8.31518 29.41C8.49745 29.8426 8.58859 30.4006 8.58859 31.0815ZM2.24374 32.6341H4.99964C5.22427 32.6341 5.41937 32.5906 5.58496 32.5023C5.75054 32.4139 5.88917 32.2987 6.00213 32.1554C6.1138 32.012 6.1998 31.8495 6.25885 31.6677C6.3179 31.486 6.34742 31.3068 6.34742 31.1302C6.34742 30.9536 6.31533 30.7833 6.25115 30.6182C6.18697 30.4531 6.10097 30.3098 5.99443 30.1882C5.88789 30.0666 5.7621 29.968 5.61833 29.8912C5.47457 29.8144 5.32182 29.7748 5.16137 29.7748H2.24374V32.6341ZM5.41552 37.7307C5.60806 37.7307 5.78905 37.6846 5.95977 37.5912C6.13049 37.4978 6.28067 37.3723 6.40775 37.2124C6.53611 37.0536 6.63751 36.8783 6.71196 36.6863C6.78641 36.4943 6.82364 36.2998 6.82364 36.1027C6.82364 35.6969 6.67602 35.3578 6.38336 35.0838C6.08941 34.8099 5.68636 34.673 5.17421 34.673H2.24374V37.7307H5.41552Z" fill="black"/>
<path d="M15.91 39.9832C15.1514 39.9832 14.4621 39.8628 13.8435 39.6209C13.2235 39.3803 12.6947 39.0399 12.257 38.6021C11.8193 38.1644 11.4804 37.6319 11.2391 37.0073C10.9991 36.3827 10.8784 35.6865 10.8784 34.9198V27.751H13.1221V34.9083C13.1221 35.5098 13.2184 36.0077 13.4109 36.4019C13.6034 36.7962 13.8409 37.1085 14.1233 37.3376C14.4057 37.5679 14.7112 37.7267 15.0359 37.8137C15.3619 37.9007 15.6533 37.9455 15.9087 37.9455C16.1654 37.9455 16.4555 37.902 16.7816 37.8137C17.1076 37.7267 17.4118 37.5679 17.6942 37.3376C17.9766 37.1085 18.2153 36.7962 18.4066 36.4019C18.5978 36.0077 18.6954 35.5098 18.6954 34.9083V27.751H20.9391V34.9198C20.9391 35.6877 20.821 36.3827 20.5861 37.0073C20.3512 37.6319 20.0149 38.1644 19.5772 38.6021C19.1395 39.0411 18.6107 39.3803 17.9907 39.6209C17.3733 39.8628 16.6789 39.9832 15.91 39.9832Z" fill="black"/>
<path d="M32.8284 27.751C32.5294 28.2553 32.1854 28.8312 31.7952 29.4776C31.4049 30.1239 31.007 30.7844 30.6014 31.4589C30.1958 32.1334 29.7953 32.7964 29.4 33.4479C29.0047 34.1006 28.6581 34.6894 28.359 35.2155V39.7694H26.1153V35.2155C25.4209 33.9663 24.6842 32.7222 23.9038 31.4832C23.1233 30.2443 22.3814 29.0002 21.6768 27.751H24.2888C24.7689 28.5727 25.2605 29.4225 25.7624 30.2993C26.2642 31.176 26.7558 32.0259 27.2359 32.8476C27.4708 32.4636 27.716 32.0528 27.9727 31.615C28.2294 31.1773 28.4848 30.7357 28.7415 30.2916C28.9982 29.8475 29.2511 29.4097 29.5027 28.9759C29.753 28.5432 29.9917 28.135 30.2151 27.751H32.8284Z" fill="black"/>
<path d="M41.9137 29.7733V32.7491H47.5692V34.8699H41.9137V39.7694H39.6699V27.7344H48.2906V29.7733H41.9137Z" fill="black"/>
<path d="M55.5965 39.9999C54.7635 39.9999 53.9779 39.8348 53.2412 39.5072C52.5044 39.1782 51.86 38.7315 51.3107 38.1671C50.76 37.6026 50.3249 36.9422 50.0053 36.1858C49.6844 35.4293 49.5239 34.6179 49.5239 33.7527C49.5239 32.8977 49.6844 32.0888 50.0053 31.3272C50.3262 30.5657 50.7613 29.9027 51.3107 29.3382C51.8613 28.7738 52.5044 28.3271 53.2412 27.9981C53.9779 27.6692 54.7635 27.5054 55.5965 27.5054C56.4398 27.5054 57.2305 27.6692 57.9673 27.9981C58.704 28.3271 59.3471 28.7738 59.8978 29.3382C60.4484 29.9027 60.8835 30.5657 61.2031 31.3272C61.524 32.0888 61.6832 32.8977 61.6832 33.7527C61.6832 34.6192 61.5228 35.4293 61.2031 36.1858C60.8823 36.9422 60.4471 37.6026 59.8978 38.1671C59.3471 38.7315 58.704 39.1782 57.9673 39.5072C57.2305 39.8361 56.4398 39.9999 55.5965 39.9999ZM55.6042 29.6582C55.0715 29.6582 54.5722 29.7708 54.1088 29.9948C53.6455 30.2201 53.2399 30.5183 52.8933 30.8908C52.5467 31.2632 52.2721 31.6997 52.0705 32.1976C51.8677 32.6967 51.7663 33.2138 51.7663 33.7514C51.7663 34.2992 51.8677 34.8201 52.0705 35.3129C52.2733 35.8056 52.548 36.2421 52.8933 36.6197C53.2399 36.9985 53.6442 37.2993 54.1088 37.5246C54.5722 37.7498 55.0715 37.8612 55.6042 37.8612C56.1369 37.8612 56.6349 37.7486 57.0996 37.5246C57.5629 37.3006 57.9685 36.9985 58.3151 36.6197C58.6617 36.2421 58.9364 35.8056 59.1379 35.3129C59.3407 34.8201 59.4421 34.2992 59.4421 33.7514C59.4421 33.2138 59.3407 32.6967 59.1379 32.1976C58.9351 31.6984 58.6604 31.2632 58.3151 30.8908C57.9685 30.5183 57.5642 30.2188 57.0996 29.9948C56.6349 29.7708 56.1369 29.6582 55.6042 29.6582Z" fill="black"/>
<path d="M65.9141 39.7694H63.6704V27.7344H68.9985C69.5979 27.7344 70.146 27.8355 70.6441 28.039C71.1421 28.2425 71.5669 28.5266 71.9199 28.894C72.2729 29.2613 72.5489 29.699 72.7465 30.2097C72.9442 30.7191 73.043 31.2759 73.043 31.8788C73.043 32.7888 72.821 33.5836 72.3769 34.2632C71.9328 34.9429 71.3423 35.4305 70.603 35.7262C71.5888 37.0637 72.5617 38.4115 73.5231 39.7707H70.8469C70.3784 39.1461 69.9201 38.5164 69.4734 37.8803C69.0268 37.2442 68.5788 36.5978 68.1321 35.9399H65.9128V39.7694H65.9141ZM65.9141 33.8997H68.996C69.1988 33.8997 69.408 33.8588 69.6262 33.7769C69.8444 33.695 70.0382 33.5682 70.2089 33.3993C70.3796 33.2291 70.5208 33.0192 70.6325 32.7657C70.7442 32.5136 70.8007 32.2179 70.8007 31.8775C70.8007 31.7021 70.7788 31.4935 70.7365 31.2529C70.6941 31.0122 70.6081 30.7819 70.481 30.5617C70.354 30.3428 70.173 30.156 69.9381 30.0024C69.7032 29.8488 69.39 29.772 68.996 29.772H65.9141V33.8997Z" fill="black"/>
<path d="M92.4939 27.751V39.7707H90.2502V33.6872L86.5818 38.2092L82.9287 33.6872V39.7707H80.6851V27.751H80.8288L86.5805 34.6894L92.3489 27.751H92.4939Z" fill="black"/>
<path d="M97.3167 29.7735V32.7826H102.989V34.8701H97.3167V37.6987H103.709V39.7709H95.0742V27.7358H103.71V29.7748H97.3167V29.7735Z" fill="black"/>
</g>
<defs>
<clipPath id="clip0_491_1307">
<rect width="103.71" height="40" fill="white"/>
</clipPath>
</defs>
</svg>
