<svg viewBox="0 0 42 26" fill="none" xmlns="http://www.w3.org/2000/svg">
<g clip-path="url(#clip0_491_206)">
<path d="M21.0086 22.1576C20.7316 22.399 20.4545 22.6402 20.1624 22.8631C19.146 23.6407 18.0155 24.251 16.8125 24.6715C16.0971 24.9218 15.3598 25.1018 14.6107 25.2091C13.7174 25.3388 12.8126 25.3667 11.9132 25.2922C10.0331 25.1472 8.21424 24.5475 6.60839 23.5432C4.21247 22.0455 2.5189 19.9561 1.52768 17.2751C1.19307 16.3614 0.970883 15.4091 0.866162 14.44C0.775217 13.6453 0.761746 12.8434 0.825945 12.046C1.02556 9.62572 1.84597 7.44386 3.31195 5.52537C4.97 3.35551 7.10531 1.90265 9.71788 1.16679C10.4968 0.948848 11.2962 0.81453 12.1027 0.766041C13.7051 0.658004 15.3126 0.876037 16.8311 1.40737C18.3495 1.9387 19.7483 2.77264 20.9456 3.86034C20.9653 3.87823 20.987 3.89395 21.0077 3.91069C21.0444 3.95426 21.0033 3.97257 20.9796 3.99362C20.6469 4.29038 20.3312 4.60633 20.0342 4.93992C19.967 5.01517 19.9029 5.09318 19.8357 5.17185C19.8665 5.18977 19.9026 5.1957 19.9374 5.18854C20.6683 5.18922 21.3992 5.18895 22.1301 5.18774C22.1549 5.18576 22.1797 5.19037 22.2021 5.2011C22.2245 5.21184 22.2438 5.22834 22.2581 5.24897C22.371 5.39979 22.4889 5.54678 22.6015 5.69786C22.7802 5.93763 22.9462 6.18655 23.1058 6.43978C23.1166 6.45695 23.1401 6.47441 23.127 6.49614C23.1146 6.5169 23.0879 6.5041 23.0676 6.50611C23.0517 6.50769 23.0356 6.50643 23.0196 6.50643C21.6645 6.50643 20.3093 6.50594 18.9542 6.50495C18.9271 6.50241 18.8998 6.5082 18.8759 6.52157C18.852 6.53494 18.8327 6.55529 18.8203 6.57998C18.6407 6.87813 18.4732 7.18304 18.3178 7.49472C18.2699 7.59035 18.2267 7.68839 18.177 7.79449H18.2844C20.109 7.79449 21.9336 7.79401 23.7582 7.79305C23.7839 7.78944 23.81 7.7951 23.832 7.80903C23.854 7.82297 23.8706 7.8443 23.8787 7.86932C24.0482 8.25207 24.2039 8.64019 24.3396 9.0367C24.3626 9.10382 24.3433 9.11311 24.2824 9.11246C24.0316 9.10982 23.7809 9.11136 23.5301 9.11136C21.6042 9.11136 19.6782 9.11108 17.7522 9.11052C17.6943 9.11049 17.656 9.11491 17.6352 9.18479C17.5265 9.54979 17.4222 9.91581 17.3419 10.2885C17.318 10.3995 17.3172 10.3994 17.4273 10.3994C19.8148 10.3994 22.2022 10.3994 24.5897 10.3994C24.6137 10.3994 24.6378 10.4007 24.6617 10.3992C24.7005 10.3969 24.7174 10.413 24.7252 10.4533C24.7673 10.6735 24.819 10.8918 24.8407 11.1156C24.559 11.0778 24.3008 11.1254 24.0766 11.318C23.931 11.4453 23.8017 11.5907 23.6918 11.7509C23.6744 11.7757 23.6628 11.809 23.6251 11.8138C23.6087 11.7898 23.6192 11.7658 23.6227 11.7434C23.6487 11.5722 23.6728 11.4006 23.7044 11.2304C23.7148 11.1744 23.6998 11.1672 23.6511 11.1674C23.2936 11.1691 22.9361 11.17 22.5786 11.1666C22.5202 11.166 22.5073 11.191 22.5002 11.2394C22.4841 11.3491 22.4648 11.4583 22.4468 11.5678C22.3801 11.5676 22.3132 11.5714 22.2469 11.5662C22.1935 11.562 22.1722 11.581 22.164 11.634C22.0893 12.1175 22.0135 12.6008 21.9366 13.0839C21.8383 13.7059 21.7396 14.3278 21.6408 14.9497C21.5543 15.4942 21.4674 16.0387 21.3803 16.5831C21.374 16.622 21.3773 16.6427 21.4253 16.6425C21.8332 16.641 22.2411 16.641 22.649 16.6425C22.6923 16.6426 22.7012 16.6231 22.7065 16.5851C22.7223 16.4727 22.7424 16.3609 22.7608 16.2489C22.8325 16.2469 22.9042 16.2428 22.9758 16.2438C23.0172 16.2444 23.0375 16.2348 23.0431 16.1877C23.0547 16.0912 23.0739 15.9956 23.0898 15.8997C23.1987 15.2468 23.2826 14.5896 23.4108 13.94C23.4494 13.7084 23.5081 13.4807 23.5862 13.2596C23.5968 13.251 23.614 13.2453 23.6012 13.2259L23.6009 13.2263C23.6244 13.2411 23.634 13.2177 23.6468 13.2075C23.8196 13.0696 24.0131 13.0453 24.2214 13.096C24.2542 13.1039 24.2726 13.112 24.2671 13.154C24.2375 13.3797 24.227 13.6067 24.2191 13.8342C24.2051 14.1916 24.2373 14.5494 24.315 14.8983C24.3889 15.2176 24.516 15.5216 24.6907 15.7974C24.6851 15.8154 24.6781 15.833 24.674 15.8513C24.5971 16.1915 24.4991 16.5256 24.3985 16.8592C24.3966 16.8714 24.3923 16.8832 24.3858 16.8937C24.3794 16.9043 24.371 16.9134 24.361 16.9206C24.3511 16.9279 24.3399 16.933 24.328 16.9358C24.3161 16.9386 24.3037 16.9389 24.2917 16.9368C23.6328 16.9344 22.9739 16.9353 22.315 16.9353C20.7971 16.9353 19.2793 16.9353 17.7614 16.9353C17.6709 16.9353 17.6703 16.9358 17.6998 17.0227C17.8274 17.399 17.9744 17.7675 18.1316 18.132C18.1409 18.1621 18.1602 18.188 18.1863 18.205C18.2125 18.2221 18.2436 18.2293 18.2744 18.2253C20.1044 18.2228 21.9344 18.2222 23.7644 18.2234C23.8671 18.2234 23.868 18.2239 23.8246 18.3157C23.6399 18.7065 23.4342 19.0857 23.2149 19.4577C23.2011 19.4859 23.1791 19.5091 23.1519 19.5242C23.1247 19.5393 23.0936 19.5455 23.0628 19.5421C21.7024 19.5402 20.3419 19.5399 18.9814 19.5412C18.9557 19.5412 18.9203 19.5277 18.9061 19.5508C18.8882 19.5798 18.9211 19.6046 18.9358 19.6277C19.1783 20.0103 19.4408 20.3794 19.7222 20.7334C19.7405 20.759 19.7648 20.7794 19.793 20.7927C19.8212 20.806 19.8523 20.8117 19.8833 20.8094C20.6436 20.8072 21.4038 20.8069 22.1641 20.8085C22.195 20.8025 22.2271 20.8068 22.2553 20.821C21.8719 21.2964 21.4553 21.7431 21.0086 22.1576ZM8.02762 13.8618C8.01565 13.8618 8.00829 13.866 8.01161 13.8799L8.01271 13.879C7.98327 13.8736 7.97089 13.899 7.95416 13.9143C7.81999 14.0351 7.71007 14.1811 7.63046 14.3443C7.41766 14.7861 7.37685 15.2518 7.46503 15.7299C7.53153 16.0903 7.70731 16.3818 8.03199 16.5624C8.53011 16.8394 9.26607 16.7553 9.72563 16.3743C9.80506 16.3084 9.87385 16.2311 9.94781 16.1586C9.94781 16.2994 9.94896 16.4338 9.94711 16.5682C9.94656 16.6077 9.95384 16.6265 9.99879 16.6263C10.3429 16.6247 10.687 16.6247 11.0311 16.6264C11.0737 16.6266 11.085 16.6095 11.0897 16.5712C11.1034 16.4585 11.12 16.3461 11.1355 16.2336C11.221 16.2256 11.307 16.2256 11.3924 16.2335C11.3806 16.3137 11.3705 16.3942 11.3564 16.474C11.3478 16.5223 11.3603 16.55 11.4102 16.5605C11.5064 16.5809 11.6013 16.6088 11.6981 16.6254C12.1066 16.6867 12.5196 16.7118 12.9324 16.7003C13.1456 16.7014 13.3582 16.6763 13.5655 16.6256C13.9269 16.533 14.241 16.3646 14.4637 16.0496C14.4789 16.0281 14.5106 16.0102 14.492 15.9744V15.9745C14.5114 15.984 14.5094 15.9699 14.5094 15.9582L14.5082 15.9593C14.521 15.962 14.5239 15.952 14.5279 15.9434C14.6911 15.8085 14.8255 15.6412 14.9229 15.4517C14.911 15.5782 14.9116 15.7057 14.9249 15.8321C14.9726 16.2187 15.1339 16.5234 15.5127 16.6674C15.6817 16.7276 15.8614 16.7506 16.0398 16.7346C16.2811 16.7147 16.5203 16.6738 16.7548 16.6124C16.8742 16.5834 16.9342 16.5326 16.9302 16.4055C16.9326 16.3542 16.9394 16.3032 16.9505 16.2531C17.0319 16.2289 17.113 16.2037 17.1948 16.1811C17.2102 16.1792 17.2243 16.1716 17.2345 16.1598C17.2448 16.148 17.2504 16.1328 17.2504 16.1171C17.2615 16.0125 17.2792 15.9087 17.2951 15.8047C17.3261 15.6024 17.3574 15.4001 17.389 15.1979C17.3959 15.2182 17.4042 15.2381 17.4096 15.2588C17.4585 15.4529 17.5349 15.6387 17.6364 15.8104C17.9552 16.3379 18.4427 16.5918 19.0249 16.6909C19.3879 16.7527 19.7523 16.7378 20.1158 16.7025C20.389 16.6783 20.6585 16.6218 20.9189 16.5344C20.9395 16.5304 20.9582 16.5195 20.972 16.5035C20.9858 16.4874 20.9939 16.4671 20.9949 16.4458C21.0042 16.3628 21.023 16.2809 21.0378 16.1985C21.0898 16.1787 21.1414 16.1579 21.1938 16.1393C21.2079 16.1359 21.2206 16.1281 21.2302 16.1171C21.2399 16.1062 21.246 16.0924 21.2478 16.0778C21.316 15.6921 21.3852 15.3066 21.4553 14.9212C21.465 14.8677 21.4512 14.8621 21.4028 14.8817C21.0417 15.0358 20.6598 15.1333 20.2699 15.171C19.9834 15.1937 19.699 15.1779 19.4304 15.0617C19.1953 14.96 19.0278 14.7927 18.9705 14.5298C19.7127 14.531 20.455 14.5314 21.1973 14.535C21.2596 14.5352 21.2877 14.5189 21.2962 14.4547C21.3103 14.3478 21.3315 14.2419 21.3497 14.1356C21.4029 14.134 21.4562 14.1292 21.5092 14.1316C21.557 14.1338 21.5794 14.1219 21.5876 14.0678C21.6126 13.9021 21.6462 13.7377 21.6738 13.5723C21.7358 13.1997 21.7773 12.8272 21.6978 12.4506C21.6111 12.0393 21.4471 11.67 21.1132 11.4079C20.6086 11.0117 20.0322 10.9426 19.4305 11.0938C18.944 11.216 18.5845 11.5363 18.2894 11.9367C18.269 11.9746 18.2413 12.0079 18.208 12.0348C18.1968 12.045 18.1816 12.0533 18.1908 12.073L18.1917 12.0716C18.1762 12.0684 18.169 12.0727 18.176 12.0897L18.1762 12.0895C18.1328 12.0846 18.1216 12.1248 18.1013 12.1484C17.8497 12.444 17.6562 12.7859 17.5314 13.1556C17.3186 13.7626 17.2608 14.4146 17.3635 15.0505C17.2166 15.0892 17.0639 15.0993 16.9134 15.0803C16.6804 15.0434 16.5691 14.9031 16.6053 14.6681C16.7001 14.0548 16.8005 13.4424 16.8986 12.8297C17.0418 12.8302 17.185 12.8287 17.3281 12.8323C17.3755 12.8335 17.3935 12.8183 17.3979 12.7707C17.4091 12.6475 17.4245 12.5247 17.4383 12.4018C17.4807 12.3978 17.5233 12.3972 17.5658 12.3999C17.6299 12.4086 17.6519 12.3842 17.66 12.3202C17.7057 11.9582 17.754 11.5965 17.8048 11.2352C17.8125 11.1796 17.7961 11.1662 17.7433 11.1672C17.5755 11.1702 17.4075 11.1658 17.2398 11.1696C17.1799 11.171 17.1699 11.153 17.1805 11.0963C17.2194 10.8865 17.2526 10.6756 17.2906 10.4656C17.2996 10.4162 17.2908 10.3996 17.2373 10.3999C16.8484 10.402 16.4594 10.4021 16.0704 10.4001C16.025 10.3999 16.004 10.4122 15.9961 10.4602C15.9772 10.5747 15.9527 10.6883 15.9304 10.8022C15.8691 10.802 15.8075 10.8053 15.7465 10.8007C15.6908 10.7965 15.6672 10.8142 15.6571 10.8732C15.6053 11.177 15.5455 11.4793 15.4944 11.7832C15.3774 12.4791 15.2644 13.1757 15.1483 13.8717C15.1216 14.0314 15.1085 14.1935 15.0681 14.3509C15.0624 14.3331 15.0576 14.315 15.0538 14.2967C15.0315 14.1243 14.9741 13.9585 14.8853 13.8098C14.7966 13.6612 14.6783 13.5329 14.5382 13.4331C14.3806 13.327 14.2138 13.2358 14.0398 13.1608C13.9186 13.1117 13.8036 13.0479 13.6973 12.9708C13.6058 12.8966 13.5409 12.8085 13.5494 12.6816C13.6407 12.6636 13.7333 12.654 13.8263 12.653C14.1237 12.6542 14.4208 12.6717 14.7163 12.7052C14.7822 12.7114 14.8045 12.6906 14.8113 12.6271C14.8231 12.5147 14.8417 12.403 14.8575 12.291C14.9187 12.2896 14.9799 12.2939 15.0403 12.3039C15.1292 12.3265 15.1397 12.2782 15.1489 12.2097C15.1932 11.8799 15.2395 11.5504 15.2875 11.2211C15.2946 11.1725 15.2916 11.1508 15.2347 11.1415C14.759 11.0558 14.2746 11.031 13.7928 11.0679C13.2091 11.1225 12.6987 11.3242 12.3804 11.8685C12.3713 11.8748 12.3614 11.8805 12.3642 11.8944L12.3652 11.8935C12.3294 11.8889 12.3157 11.9206 12.296 11.9397C12.1217 12.1111 11.9947 12.3261 11.9279 12.5631C11.9184 12.4691 11.9129 12.3744 11.8988 12.2811C11.8322 11.8417 11.6311 11.4922 11.2372 11.2746C10.9369 11.1088 10.6106 11.0553 10.2741 11.0463C9.72402 11.0322 9.17604 11.1204 8.65714 11.3065C8.63664 11.3105 8.61808 11.3214 8.60451 11.3375C8.59094 11.3536 8.58315 11.374 8.58243 11.3952C8.57412 11.4754 8.55364 11.5542 8.53832 11.6337C8.4648 11.6574 8.3915 11.6818 8.31769 11.7046C8.29844 11.7085 8.28104 11.7189 8.26821 11.734C8.25538 11.7491 8.24786 11.7681 8.24682 11.788C8.20919 12.0339 8.16539 12.2789 8.12462 12.5243C8.10681 12.6316 8.09105 12.7391 8.07327 12.8536C8.5691 12.6863 9.09024 12.6101 9.61235 12.6285C9.75657 12.6262 9.90022 12.6474 10.0378 12.6914C10.1754 12.7415 10.2715 12.8296 10.2972 12.9825C10.0049 12.968 9.71192 12.9841 9.42289 13.0308C8.86982 13.1359 8.38428 13.3579 8.04864 13.8425C8.03799 13.8456 8.02764 13.8491 8.02619 13.8628L8.02762 13.8618ZM6.10588 13.0154C6.10333 13.0529 6.10352 13.0908 6.0978 13.1278C6.05861 13.3814 6.01768 13.6347 5.97825 13.8883C5.88486 14.4888 5.79171 15.0894 5.69879 15.69C5.65431 15.9755 5.60889 16.2609 5.56254 16.5462C5.55307 16.6044 5.55954 16.6327 5.63089 16.6321C6.02253 16.6285 6.41421 16.6294 6.80586 16.6316C6.85596 16.6318 6.87617 16.6159 6.88295 16.5664C6.89797 16.4567 6.91747 16.3476 6.93515 16.2383C7.0071 16.2374 7.07918 16.2336 7.15096 16.2367C7.19421 16.2386 7.20898 16.225 7.21579 16.1811C7.25396 15.9352 7.29628 15.69 7.33622 15.4444C7.4773 14.5768 7.61822 13.7091 7.75896 12.8415C7.90996 11.9152 8.06167 10.989 8.21408 10.063C8.22116 10.0199 8.21786 10.0001 8.16597 10.0003C7.52316 10.0019 6.88034 10.002 6.23752 10.0006C6.22922 9.99918 6.22073 9.99944 6.21253 10.0014C6.20434 10.0033 6.19659 10.0069 6.18976 10.0119C6.18292 10.0168 6.17712 10.0232 6.17269 10.0304C6.16826 10.0377 6.16529 10.0458 6.16395 10.0542C6.13028 10.1651 6.0901 10.274 6.05252 10.3837C5.98584 10.3831 5.91893 10.3858 5.85258 10.3807C5.80295 10.377 5.78354 10.3983 5.76892 10.4434C5.57239 11.0497 5.37481 11.6556 5.17618 12.2612C5.08707 12.5328 4.99497 12.8035 4.90423 13.0746C4.89891 12.869 4.89228 12.6635 4.88851 12.4579C4.87394 11.665 4.86001 10.872 4.8467 10.079C4.84593 10.0333 4.84979 9.99931 4.78277 9.99964C4.1966 10.0026 3.61042 10.0027 3.02423 10.0001C2.97527 9.99993 2.95975 10.0184 2.95307 10.0628C2.93621 10.175 2.91609 10.2866 2.89728 10.3984C2.81197 10.3981 2.72662 10.3993 2.64138 10.3968C2.60223 10.3957 2.58499 10.407 2.5803 10.4497C2.57204 10.5248 2.55607 10.599 2.54372 10.6736C2.42865 11.3695 2.31363 12.0653 2.19864 12.7612C2.08927 13.4224 1.97982 14.0836 1.87029 14.7447C1.76939 15.3553 1.66951 15.966 1.56692 16.5763C1.55863 16.6256 1.57569 16.6308 1.61491 16.6308C2.00414 16.6301 2.39337 16.6302 2.7826 16.6312C2.82512 16.6314 2.84597 16.6179 2.85225 16.5747C2.86855 16.4624 2.88711 16.3504 2.90477 16.2383C2.97403 16.2374 3.04353 16.2326 3.11248 16.2369C3.16267 16.24 3.18143 16.2223 3.18951 16.1731C3.30165 15.4902 3.41481 14.8075 3.52898 14.1249C3.56908 13.8852 3.61278 13.6462 3.65483 13.4069C3.65675 13.4258 3.65992 13.4446 3.66042 13.4634C3.67497 14.0156 3.6893 14.5678 3.70343 15.12C3.7154 15.6018 3.72645 16.0837 3.73658 16.5656C3.73756 16.6136 3.75035 16.6318 3.80018 16.6314C4.05876 16.6292 4.31738 16.6297 4.57598 16.6311C4.59157 16.6337 4.60754 16.6302 4.62068 16.6213C4.63383 16.6123 4.64317 16.5987 4.64685 16.5831C4.68467 16.4678 4.72479 16.3532 4.76402 16.2383C4.79576 16.2344 4.8278 16.2339 4.85965 16.2367C4.94488 16.2526 4.9756 16.211 5.00259 16.1335C5.27909 15.3387 5.55828 14.545 5.84015 13.7522C5.9274 13.5061 6.00523 13.2565 6.10588 13.0154Z" fill="#CB0000"/>
<path d="M24.8404 11.1146C24.8187 10.8908 24.767 10.6724 24.7249 10.4523C24.7171 10.412 24.7002 10.3958 24.6614 10.3982C24.6375 10.3996 24.6134 10.3984 24.5894 10.3984C22.2019 10.3984 19.8145 10.3984 17.427 10.3984C17.3169 10.3984 17.3177 10.3985 17.3416 10.2875C17.4219 9.9148 17.5262 9.54877 17.6349 9.18378C17.6557 9.1139 17.694 9.10948 17.7519 9.10951C19.6779 9.11051 21.6039 9.11079 23.5298 9.11034C23.7806 9.11034 24.0313 9.1088 24.2821 9.11145C24.343 9.11209 24.3623 9.10281 24.3393 9.03568C24.2036 8.63917 24.0479 8.25106 23.8784 7.8683C23.8703 7.84328 23.8537 7.82195 23.8317 7.80802C23.8097 7.79408 23.7836 7.78843 23.7579 7.79204C21.9333 7.79381 20.1087 7.79429 18.2841 7.79348H18.1767C18.2264 7.68738 18.2696 7.58933 18.3175 7.49371C18.4736 7.18235 18.641 6.87743 18.82 6.57896C18.8324 6.55427 18.8517 6.53393 18.8756 6.52056C18.8995 6.50718 18.9268 6.50139 18.9539 6.50394C20.309 6.50589 21.6642 6.50638 23.0193 6.50542C23.0353 6.50542 23.0514 6.50667 23.0673 6.5051C23.0876 6.50308 23.1143 6.51588 23.1267 6.49513C23.1398 6.4734 23.1163 6.45594 23.1055 6.43876C22.9458 6.18554 22.7799 5.93661 22.6012 5.69685C22.4886 5.54576 22.3707 5.39877 22.2578 5.24795C22.2435 5.22732 22.2242 5.21083 22.2018 5.20009C22.1793 5.18935 22.1545 5.18475 22.1298 5.18672C21.3989 5.18873 20.668 5.189 19.9371 5.18753C19.9023 5.19469 19.8662 5.18876 19.8354 5.17084C19.9026 5.09216 19.9667 5.01415 20.0339 4.93891C20.3309 4.60532 20.6466 4.28936 20.9793 3.99261C21.003 3.97156 21.0441 3.95324 21.0074 3.90967C21.7446 3.23399 22.5599 2.65175 23.4352 2.17573C24.5319 1.58077 25.7127 1.16218 26.9356 0.934894C27.7647 0.777984 28.6081 0.712503 29.4511 0.739591C32.3088 0.835621 34.8378 1.81437 37.009 3.70504C38.9347 5.38205 40.2115 7.48239 40.8525 9.9768C41.1434 11.1111 41.268 12.2829 41.2221 13.4542C41.122 16.1268 40.2627 18.5192 38.6442 20.6315C36.87 22.9314 34.347 24.513 31.5284 25.0923C29.6764 25.4738 27.7622 25.4089 25.9394 24.9029C24.1165 24.3969 22.4357 23.4637 21.0318 22.1783C21.0239 22.1711 21.0161 22.1638 21.0083 22.1565C21.455 21.7421 21.8716 21.2954 22.255 20.8199C22.2268 20.8058 22.1947 20.8014 22.1638 20.8075C21.4035 20.8069 20.6433 20.8072 19.883 20.8084C19.852 20.8107 19.8209 20.805 19.7927 20.7917C19.7645 20.7784 19.7401 20.758 19.7219 20.7324C19.4405 20.3784 19.178 20.0093 18.9355 19.6267C18.9208 19.6036 18.8878 19.5788 18.9058 19.5498C18.92 19.5267 18.9554 19.5401 18.9811 19.5401C20.3416 19.5397 21.7021 19.54 23.0625 19.5411C23.0933 19.5445 23.1244 19.5383 23.1516 19.5232C23.1788 19.5081 23.2008 19.4849 23.2146 19.4567C23.4339 19.0847 23.6396 18.7055 23.8243 18.3147C23.8677 18.2229 23.8668 18.2224 23.764 18.2224C21.9341 18.2223 20.1041 18.223 18.2741 18.2243C18.2433 18.2282 18.2121 18.2211 18.186 18.204C18.1599 18.1869 18.1406 18.1611 18.1313 18.131C17.9741 17.7665 17.8271 17.398 17.6995 17.0217C17.67 16.9348 17.6706 16.9343 17.7611 16.9343C19.279 16.9343 20.7968 16.9343 22.3147 16.9343C22.9736 16.9343 23.6325 16.9334 24.2914 16.9358C24.3034 16.9379 24.3157 16.9375 24.3277 16.9348C24.3396 16.932 24.3508 16.9268 24.3607 16.9196C24.3707 16.9124 24.3791 16.9033 24.3855 16.8927C24.392 16.8822 24.3963 16.8704 24.3982 16.8582C24.4988 16.5246 24.5968 16.1904 24.6737 15.8503C24.6778 15.832 24.6847 15.8143 24.6904 15.7964C24.7436 15.8637 24.7941 15.9334 24.8504 15.998C25.2856 16.4973 25.8462 16.7123 26.4886 16.7385C26.898 16.7553 27.2933 16.6627 27.6893 16.5753C27.705 16.5729 27.7194 16.5649 27.7297 16.5526C27.7401 16.5403 27.7457 16.5246 27.7456 16.5085C27.7583 16.4173 27.7729 16.3265 27.7867 16.2355C27.8607 16.2171 27.9343 16.1964 28.0089 16.1812C28.0296 16.1799 28.049 16.1705 28.0631 16.155C28.0772 16.1395 28.0848 16.1191 28.0844 16.098C28.0905 16.0317 28.1064 15.9664 28.118 15.9007C28.1796 16.0796 28.2782 16.2431 28.4071 16.3801C28.6048 16.5777 28.8654 16.697 29.1419 16.7166C29.6061 16.7558 30.0295 16.6433 30.3894 16.3298C30.414 16.3083 30.4561 16.296 30.4532 16.2499L30.452 16.2507C30.47 16.2646 30.4737 16.2459 30.4818 16.2371L30.57 16.2046C30.5682 16.3264 30.5679 16.4483 30.5637 16.5701C30.5622 16.6125 30.5742 16.6255 30.6168 16.6253C30.9607 16.6237 31.3046 16.6236 31.6485 16.6249C31.6828 16.625 31.7003 16.6189 31.7047 16.5782C31.7173 16.4627 31.7355 16.3477 31.7515 16.2326C31.9174 16.2257 32.0833 16.2257 32.2491 16.2326C32.2314 16.3502 32.2155 16.4681 32.1951 16.5852C32.1879 16.6265 32.1925 16.6418 32.2387 16.6416C32.6464 16.64 33.0542 16.64 33.4619 16.6416C33.4993 16.6417 33.5125 16.6307 33.5167 16.5932C33.5298 16.4777 33.5466 16.3627 33.562 16.2474C33.6391 16.246 33.7162 16.2427 33.7933 16.2439C33.8341 16.2445 33.8556 16.2349 33.8627 16.1885C33.9094 15.8841 33.9585 15.5801 34.0075 15.2761C34.1077 14.6552 34.1862 14.0302 34.3502 13.4215C34.4028 13.4106 34.4187 13.359 34.4503 13.3257C34.5704 13.1995 34.7054 13.1056 34.884 13.0909C34.9331 13.0869 34.9462 13.0993 34.9304 13.1484C34.8224 13.4944 34.7568 13.8527 34.7351 14.215C34.7025 14.6949 34.7282 15.168 34.904 15.6218C35.0652 16.0378 35.3096 16.3822 35.7212 16.5775C36.2719 16.8388 36.9948 16.6954 37.4505 16.2363C37.4681 16.2186 37.4797 16.1907 37.5169 16.1899C37.501 16.318 37.4867 16.4441 37.4691 16.5697C37.4634 16.6105 37.4694 16.6267 37.5154 16.6265C37.8995 16.6248 38.2836 16.6247 38.6677 16.6262C38.7024 16.6263 38.7218 16.6181 38.7271 16.5797C38.7428 16.4645 38.7611 16.3496 38.7784 16.2346C38.845 16.2333 38.9119 16.2272 38.978 16.2323C39.0406 16.2371 39.0581 16.2123 39.0673 16.1521C39.1415 15.6656 39.2194 15.1796 39.2963 14.6935C39.4113 13.9669 39.5263 13.2404 39.6414 12.514C39.7459 11.8542 39.8502 11.1945 39.9543 10.5347C39.9819 10.3601 40.0089 10.1854 40.037 10.0052C39.6136 10.0052 39.2006 10.0059 38.7875 10.004C38.7427 10.0038 38.7428 10.0311 38.7378 10.0596C38.7182 10.1714 38.6992 10.2833 38.6799 10.3951C38.6239 10.3945 38.5679 10.3941 38.5119 10.3934C38.361 10.3915 38.364 10.3919 38.3445 10.5431C38.304 10.857 38.26 11.1705 38.2175 11.4842C38.2007 11.4714 38.1834 11.4591 38.167 11.4457C37.7945 11.1418 37.3784 11.0045 36.9021 11.1137C36.5154 11.2023 36.2029 11.419 35.9359 11.7099C35.9121 11.7422 35.8824 11.7697 35.8485 11.7906C35.8397 11.7954 35.8301 11.7994 35.8318 11.8124L35.8333 11.811C35.7979 11.8218 35.7661 11.8422 35.7413 11.8701C35.539 12.0367 35.3661 12.2373 35.2304 12.4631C35.2669 12.2558 35.3163 12.0509 35.3781 11.8498C35.4478 11.6199 35.5356 11.3962 35.6408 11.1807C35.6507 11.1599 35.6952 11.1207 35.6278 11.1131C35.4142 11.0889 35.2086 11.1054 35.0207 11.2279C34.8018 11.3788 34.6168 11.5749 34.4777 11.8035C34.4633 11.8256 34.4491 11.8479 34.4348 11.8701C34.4566 11.655 34.4864 11.4465 34.5221 11.2391C34.5322 11.1805 34.5209 11.165 34.462 11.1654C34.1077 11.1678 33.7534 11.1677 33.3991 11.1652C33.3424 11.1648 33.3266 11.1878 33.3196 11.2382C33.3045 11.3479 33.2849 11.457 33.2671 11.5663C33.1901 11.5661 33.1132 11.5673 33.0363 11.5651C32.9996 11.564 32.9862 11.5774 32.9814 11.6147C32.9682 11.716 32.9507 11.8168 32.9341 11.9177C32.8966 12.1458 32.8589 12.3739 32.8209 12.6019C32.8105 12.4945 32.8049 12.3863 32.7889 12.2797C32.7208 11.827 32.5081 11.4734 32.099 11.2574C31.8917 11.1507 31.6662 11.0852 31.4347 11.0643C30.8385 11.0094 30.2374 11.0765 29.6671 11.2617C29.5359 11.3021 29.4454 11.353 29.455 11.5075C29.4534 11.5237 29.4493 11.5395 29.4428 11.5544C29.2719 11.5945 29.1031 11.6437 28.9372 11.7018C28.9169 11.7062 28.8986 11.7173 28.885 11.7332C28.8714 11.7492 28.8634 11.7693 28.862 11.7903C28.83 12.0068 28.7916 12.2223 28.7557 12.4382C28.7332 12.5734 28.7111 12.7087 28.6874 12.8532C29.069 12.7222 29.4672 12.6476 29.8697 12.6315C30.1146 12.6203 30.3602 12.6124 30.6008 12.6742C30.7577 12.7145 30.8773 12.7998 30.9123 12.9735C30.8618 12.9762 30.8114 12.9788 30.7609 12.9814C30.1703 13.0112 29.6208 13.1567 29.1654 13.5668C29.1497 13.567 29.1341 13.5692 29.1189 13.5733C28.5519 13.8048 28.1975 14.2168 28.0846 14.8333C27.9272 14.906 27.7637 14.964 27.596 15.0066C27.2862 15.0994 26.954 15.0758 26.6599 14.9401C26.2837 14.7635 26.0896 14.4403 26.0043 14.0438C25.9109 13.6098 25.9527 13.1771 26.0451 12.7484C26.1023 12.4533 26.2175 12.173 26.3839 11.9243L26.4036 11.9071L26.4015 11.9087C26.4117 11.9069 26.4187 11.9021 26.4188 11.8904L26.4171 11.8921C26.4416 11.8768 26.4669 11.8625 26.4907 11.8461C26.6302 11.746 26.7869 11.6734 26.9527 11.6317C27.3334 11.5412 27.6981 11.6114 28.0549 11.7506C28.1969 11.8084 28.3336 11.8786 28.4635 11.9604C28.4927 11.777 28.5206 11.6012 28.5484 11.4254C28.6305 11.4688 28.7126 11.5123 28.7981 11.5575C28.8015 11.5434 28.8047 11.5337 28.8062 11.5237C28.8726 11.0905 28.9391 10.6574 29.0058 10.2243C29.0111 10.1902 29.001 10.1766 28.9703 10.1651C28.5438 10.0045 28.1079 9.87991 27.651 9.86272C27.0169 9.83887 26.4502 10.0382 25.9464 10.4271C25.932 10.4313 25.9136 10.427 25.906 10.4462L25.9082 10.4448C25.8982 10.4463 25.8816 10.4409 25.8907 10.4623L25.8917 10.4605C25.8677 10.4423 25.8532 10.4663 25.837 10.475C25.564 10.6151 25.3212 10.8091 25.1228 11.0457C25.0404 11.1465 24.9691 11.2005 24.8478 11.129L24.8404 11.1146ZM40.011 16.2533C40.0623 16.2538 40.1133 16.2438 40.1608 16.224C40.2083 16.2042 40.2515 16.175 40.2878 16.1381C40.3241 16.1011 40.3527 16.0572 40.3721 16.0089C40.3915 15.9605 40.4012 15.9088 40.4006 15.8566C40.4007 15.8043 40.3905 15.7525 40.3708 15.7042C40.3511 15.6559 40.3222 15.6121 40.2858 15.5751C40.2494 15.5382 40.2062 15.509 40.1586 15.489C40.111 15.4691 40.0601 15.459 40.0086 15.4591C39.9572 15.4593 39.9063 15.4697 39.8588 15.4899C39.8114 15.5101 39.7683 15.5396 39.7321 15.5767C39.6959 15.6139 39.6672 15.6579 39.6478 15.7063C39.6284 15.7547 39.6185 15.8065 39.6188 15.8588C39.6187 15.911 39.6288 15.9627 39.6485 16.0109C39.6682 16.0591 39.6971 16.1028 39.7336 16.1395C39.7701 16.1763 39.8134 16.2052 39.861 16.2248C39.9087 16.2443 39.9596 16.254 40.011 16.2533Z" fill="#FE9800"/>
<path d="M40.0124 20.2523C39.9614 20.2518 39.9109 20.2412 39.8639 20.2209C39.817 20.2006 39.7744 20.1711 39.7387 20.134C39.7029 20.097 39.6748 20.0531 39.6558 20.005C39.6368 19.9568 39.6273 19.9053 39.628 19.8535C39.6286 19.8016 39.6393 19.7504 39.6595 19.7027C39.6796 19.6551 39.7089 19.6119 39.7455 19.5758C39.7821 19.5397 39.8254 19.5112 39.8729 19.4921C39.9203 19.473 39.971 19.4636 40.0221 19.4645C40.1248 19.4659 40.2229 19.5086 40.2946 19.5834C40.3664 19.6582 40.4059 19.7588 40.4047 19.8633C40.4034 19.9677 40.3614 20.0674 40.2878 20.1403C40.2142 20.2132 40.1152 20.2535 40.0124 20.2523ZM40.0128 20.1913C40.0559 20.1921 40.0987 20.1843 40.1388 20.1682C40.1789 20.1521 40.2154 20.1282 40.2464 20.0977C40.2773 20.0673 40.302 20.0309 40.3191 19.9907C40.3362 19.9505 40.3453 19.9073 40.3459 19.8635C40.3465 19.8198 40.3386 19.7763 40.3227 19.7356C40.3067 19.695 40.283 19.6579 40.2529 19.6266C40.2228 19.5953 40.1869 19.5703 40.1473 19.5531C40.1077 19.5359 40.0651 19.5268 40.022 19.5263C39.9788 19.5253 39.9358 19.533 39.8955 19.5489C39.8553 19.5649 39.8185 19.5888 39.7873 19.6193C39.7562 19.6497 39.7313 19.6862 39.7141 19.7265C39.6969 19.7668 39.6877 19.8102 39.6871 19.8541C39.6865 19.898 39.6945 19.9417 39.7106 19.9825C39.7266 20.0232 39.7505 20.0604 39.7808 20.0917C39.8111 20.1231 39.8472 20.148 39.887 20.1651C39.9268 20.1822 39.9696 20.1911 40.0128 20.1913Z" fill="#FE9800"/>
<path d="M2.89675 10.3973C2.91557 10.2855 2.93569 10.1738 2.95254 10.0617C2.95922 10.0172 2.97474 9.9988 3.0237 9.99896C3.60988 10.0009 4.19606 10.0007 4.78225 9.99851C4.84926 9.99817 4.8454 10.0322 4.84618 10.0778C4.85961 10.8708 4.87355 11.6638 4.88798 12.4568C4.89176 12.6624 4.89838 12.8679 4.9037 13.0734V13.7916C4.94149 13.7658 4.9412 13.7333 4.95007 13.7067C5.09279 13.2797 5.2348 12.8525 5.37612 12.425C5.60157 11.7442 5.82687 11.0634 6.05199 10.3826C6.08958 10.2729 6.12975 10.164 6.16343 10.0531C6.16477 10.0447 6.16774 10.0366 6.17216 10.0293C6.17659 10.022 6.18239 10.0157 6.18923 10.0107C6.19607 10.0057 6.20381 10.0022 6.21201 10.0002C6.2202 9.99831 6.2287 9.99804 6.237 9.99946C6.87981 10.0005 7.52263 10.0004 8.16544 9.99914C8.21733 9.99901 8.22063 10.0188 8.21355 10.0619C8.06125 10.9879 7.90954 11.9141 7.75844 12.8403C7.61701 13.7079 7.47609 14.5755 7.33569 15.4433C7.29576 15.6889 7.25344 15.9341 7.21527 16.18C7.20845 16.2239 7.19368 16.2375 7.15043 16.2356C7.07865 16.2324 7.00657 16.2363 6.93462 16.2372C6.91869 16.2363 6.90275 16.2346 6.88682 16.2346C6.57491 16.2344 6.263 16.2334 5.9511 16.2355C5.90273 16.2359 5.88083 16.2267 5.8959 16.1742C5.89941 16.1584 5.90195 16.1423 5.90349 16.1262C6.00777 15.4584 6.11207 14.7907 6.21637 14.1229C6.32068 13.4551 6.42496 12.7874 6.52923 12.1196C6.55497 11.9546 6.58039 11.7896 6.6055 11.6245C6.55676 11.7228 6.51525 11.8246 6.4813 11.9291C6.35997 12.2777 6.23882 12.6264 6.11787 12.9751C6.11231 12.98 6.10813 12.9862 6.10576 12.9933C6.10339 13.0004 6.10291 13.0079 6.10438 13.0152L6.10536 13.0143C6.0047 13.2553 5.92687 13.505 5.83963 13.751C5.55843 14.5441 5.27925 15.3378 5.00207 16.1323C4.97507 16.2099 4.94435 16.2515 4.85913 16.2356C4.82728 16.2328 4.79523 16.2333 4.76349 16.2372C4.55562 16.2363 4.34773 16.2335 4.1399 16.2357C4.08781 16.2363 4.07325 16.2219 4.07222 16.1687C4.06302 15.6949 4.05117 15.2211 4.0395 14.7473C4.0143 13.724 3.98877 12.7007 3.96294 11.6774C3.96234 11.6537 3.96891 11.6278 3.94976 11.604C3.89459 11.9315 3.83885 12.2562 3.78545 12.5813C3.74033 12.8559 3.69792 13.1309 3.6543 13.4058C3.61225 13.6451 3.56855 13.8841 3.52845 14.1238C3.41424 14.8063 3.30109 15.4891 3.18898 16.172C3.18091 16.2212 3.16214 16.2389 3.11195 16.2358C3.043 16.2315 2.97351 16.2363 2.90425 16.2372C2.61093 16.2363 2.31757 16.2326 2.02431 16.2363C1.94875 16.2373 1.93335 16.22 1.9467 16.1438C2.01761 15.739 2.08302 15.3331 2.15016 14.9276C2.27075 14.1993 2.39123 13.471 2.51162 12.7426C2.64042 11.9609 2.7688 11.1791 2.89675 10.3973Z" fill="#FDFDFD"/>
<path d="M8.53785 11.6339C8.55316 11.5545 8.57364 11.4756 8.58195 11.3954C8.58268 11.3742 8.59046 11.3539 8.60403 11.3377C8.61761 11.3216 8.63616 11.3107 8.65666 11.3067C9.17556 11.1206 9.72355 11.0324 10.2736 11.0465C10.6101 11.0555 10.9365 11.109 11.2367 11.2748C11.6306 11.4924 11.8318 11.8419 11.8983 12.2814C11.9124 12.3747 11.9179 12.4693 11.9274 12.5633C11.9011 12.7749 11.8747 12.9865 11.8484 13.1981C11.8313 13.3097 11.8128 13.421 11.7971 13.5328C11.7098 14.1551 11.6229 14.7775 11.5364 15.3999C11.5022 15.6402 11.4693 15.8806 11.4325 16.1205C11.4266 16.1591 11.4424 16.21 11.392 16.2337C11.3065 16.2258 11.2205 16.2258 11.1351 16.2338C11.106 16.2321 11.077 16.229 11.048 16.229C10.8142 16.2286 10.5804 16.227 10.3467 16.23C10.291 16.2308 10.2798 16.2129 10.287 16.1607C10.2992 16.0753 10.3071 15.9893 10.3107 15.903C10.3126 15.8482 10.3357 15.792 10.3076 15.7376C10.3093 15.7392 10.311 15.7409 10.3127 15.7425L10.3124 15.743L10.308 15.7375C10.3027 15.7466 10.2968 15.7554 10.2903 15.7637C9.89121 16.2053 9.39123 16.3834 8.81361 16.3123C8.34753 16.2549 8.00568 15.9981 7.85782 15.538C7.77177 15.2809 7.73812 15.0086 7.75889 14.7378C7.77967 14.4671 7.85444 14.2034 7.97867 13.9629C7.99183 13.9365 8.02278 13.9159 8.01223 13.8793L8.01114 13.8801C8.03045 13.8868 8.02913 13.8747 8.02714 13.862L8.02572 13.863C8.04143 13.8656 8.04269 13.8518 8.04817 13.8427C8.38381 13.3582 8.86935 13.1361 9.42241 13.0311C9.71145 12.9844 10.0045 12.9682 10.2968 12.9827C10.3843 12.9905 10.4721 12.9955 10.5591 13.0072C10.6032 13.013 10.6079 12.9852 10.6149 12.9568C10.6307 12.8854 10.6388 12.8125 10.6391 12.7394C10.6478 12.4598 10.544 12.316 10.2743 12.2677C9.8681 12.195 9.46192 12.2299 9.05737 12.2925C8.8399 12.3274 8.6258 12.3812 8.41744 12.4535C8.41011 12.4345 8.40996 12.4134 8.41704 12.3942C8.45735 12.1408 8.49762 11.8873 8.53785 11.6339ZM9.06537 14.4776C9.04974 14.4732 9.05381 14.4852 9.05295 14.4931C9.01594 14.5951 9.00471 14.7049 9.0203 14.8125C9.02975 14.9174 9.07464 15.0157 9.14734 15.0907C9.22004 15.1658 9.31607 15.2129 9.4191 15.2241C9.5783 15.2492 9.74117 15.2191 9.8815 15.1387C9.99806 15.0773 10.0967 14.9859 10.1676 14.8737C10.3241 14.6336 10.4152 14.3556 10.4317 14.0681C10.438 13.9882 10.4059 13.9643 10.3375 13.9586C10.1408 13.941 9.94273 13.9485 9.74791 13.9811C9.5755 14.0035 9.41141 14.0697 9.27084 14.1736C9.16697 14.2456 9.09329 14.3543 9.06423 14.4786L9.06537 14.4776Z" fill="#FDFDFD"/>
<path d="M18.2077 12.0337C18.2411 12.0069 18.2688 11.9735 18.2892 11.9356C18.5842 11.5352 18.9437 11.215 19.4302 11.0928C20.032 10.9415 20.6084 11.0106 21.113 11.4068C21.4468 11.669 21.6108 12.0383 21.6976 12.4495C21.7771 12.8261 21.7356 13.1987 21.6735 13.5713C21.646 13.7367 21.6123 13.901 21.5873 14.0668C21.5792 14.1208 21.5568 14.1328 21.5089 14.1306C21.4559 14.1281 21.4026 14.1329 21.3495 14.1346C21.3203 14.1329 21.2912 14.1297 21.2621 14.1297C20.9421 14.1294 20.6221 14.1293 20.3022 14.1295C19.8782 14.1295 19.4543 14.1294 19.0303 14.1293C18.9902 14.1293 18.9478 14.1214 18.9454 14.1837C18.9318 14.2993 18.9402 14.4164 18.9702 14.5287C19.0275 14.7917 19.195 14.959 19.4301 15.0607C19.6988 15.1768 19.9831 15.1927 20.2697 15.1699C20.6595 15.1323 21.0415 15.0347 21.4026 14.8807C21.451 14.8611 21.4648 14.8667 21.4551 14.9202C21.3853 15.3056 21.3161 15.6911 21.2476 16.0768C21.2458 16.0914 21.2397 16.1051 21.23 16.1161C21.2204 16.1271 21.2076 16.1348 21.1936 16.1383C21.1412 16.1569 21.0895 16.1776 21.0375 16.1975C21.0142 16.2024 20.9907 16.2071 20.9674 16.2124C20.3893 16.3447 19.8067 16.3896 19.2232 16.2645C18.464 16.1018 17.9517 15.6512 17.7543 14.8774C17.5566 14.1023 17.6407 13.3426 17.9253 12.6015C17.9938 12.4228 18.0934 12.26 18.176 12.0885L18.1757 12.0886C18.19 12.0908 18.1908 12.0807 18.1915 12.0706L18.1906 12.072C18.1978 12.0692 18.2036 12.0636 18.2068 12.0564C18.21 12.0493 18.2104 12.0411 18.2077 12.0337ZM20.1598 13.0891C20.2583 13.0903 20.3568 13.0896 20.4552 13.0936C20.5004 13.0955 20.5085 13.0729 20.5099 13.0352C20.5179 12.9163 20.5127 12.7969 20.4943 12.6791C20.4442 12.4114 20.2882 12.2459 20.0461 12.2044C19.8713 12.1728 19.6912 12.2035 19.536 12.2912C19.3809 12.379 19.2603 12.5184 19.1945 12.686C19.1366 12.798 19.0969 12.9188 19.0771 13.0437C19.0679 13.0876 19.087 13.0934 19.123 13.0932C19.4686 13.0912 19.8142 13.0898 20.1598 13.0891Z" fill="#FDFDFD"/>
<path d="M12.38 11.8668C12.6983 11.3226 13.2088 11.1208 13.7924 11.0662C14.2742 11.0293 14.7586 11.0541 15.2343 11.1398C15.2912 11.1491 15.2942 11.1708 15.2872 11.2194C15.2392 11.5487 15.193 11.8782 15.1485 12.208C15.1393 12.2766 15.1288 12.3248 15.0399 12.3022C14.9795 12.2922 14.9183 12.2879 14.8571 12.2893C14.6583 12.2762 14.4597 12.259 14.2607 12.2512C14.0984 12.2397 13.9355 12.262 13.782 12.3165C13.6171 12.3803 13.5429 12.4991 13.5491 12.6799C13.5406 12.8068 13.6054 12.8949 13.697 12.9691C13.8032 13.0462 13.9182 13.11 14.0394 13.1591C14.2134 13.2341 14.3802 13.3253 14.5378 13.4314C14.678 13.5312 14.7962 13.6595 14.8849 13.8081C14.9737 13.9568 15.0311 14.1226 15.0535 14.295C15.0572 14.3133 15.062 14.3313 15.0677 14.3491C15.0985 14.7267 15.0763 15.0973 14.9226 15.45C14.8251 15.6395 14.6907 15.8068 14.5274 15.9417C14.5173 15.9425 14.5096 15.9463 14.5078 15.9576L14.509 15.9565C14.4989 15.9571 14.49 15.9591 14.4916 15.9728L14.4916 15.9727C14.4795 15.9767 14.4678 15.9818 14.4565 15.9879C14.1822 16.1614 13.8699 16.2633 13.5474 16.2846C13.186 16.3099 12.8232 16.3075 12.4621 16.2776C12.2282 16.2639 11.9961 16.2279 11.7689 16.1702C11.6999 16.1522 11.6831 16.1219 11.6948 16.0527C11.7277 15.8585 11.754 15.6631 11.7829 15.4682C11.8033 15.3376 11.8272 15.2074 11.8427 15.0761C11.8503 15.0107 11.8669 14.9932 11.9335 15.0146C12.2039 15.1048 12.484 15.1617 12.7677 15.1839C13.0011 15.1998 13.2353 15.2125 13.4642 15.1426C13.5063 15.1366 13.5468 15.122 13.5832 15.0996C13.6406 15.0732 13.6903 15.0323 13.7278 14.9808C13.7653 14.9294 13.7893 14.8691 13.7975 14.8056C13.8058 14.7421 13.7979 14.6776 13.7748 14.618C13.7516 14.5585 13.714 14.5059 13.6653 14.4652C13.6215 14.4256 13.5739 14.3908 13.523 14.3613C13.4074 14.2947 13.2899 14.2314 13.1715 14.1702C12.943 14.052 12.7199 13.926 12.5405 13.7352C12.2201 13.3943 12.158 12.9768 12.1956 12.5295C12.2176 12.309 12.2748 12.0936 12.3648 11.8918L12.3638 11.8927C12.3778 11.8896 12.3789 11.8782 12.38 11.8668Z" fill="#FDFDFD"/>
<path d="M16.8978 12.8287C16.7997 13.4414 16.6993 14.0538 16.6046 14.6671C16.5683 14.9021 16.6796 15.0424 16.9126 15.0792C17.0632 15.0983 17.2159 15.0882 17.3627 15.0495C17.3888 15.0527 17.4062 15.0596 17.3982 15.0945C17.3926 15.1284 17.3892 15.1626 17.3882 15.1969C17.3569 15.3992 17.3256 15.6014 17.2944 15.8037C17.2784 15.9076 17.2608 16.0115 17.2496 16.116C17.2496 16.1318 17.244 16.1469 17.2338 16.1587C17.2236 16.1706 17.2094 16.1781 17.1941 16.1801C17.1123 16.2027 17.0311 16.2279 16.9497 16.252C16.6976 16.3104 16.4396 16.338 16.181 16.3342C15.6973 16.3167 15.3593 16.0174 15.2746 15.5345C15.2316 15.2898 15.2591 15.0492 15.2901 14.8071C15.3884 14.0394 15.5132 13.2758 15.6398 12.5126C15.7345 11.9418 15.8329 11.3716 15.9297 10.8012C15.9519 10.6872 15.9764 10.5737 15.9953 10.4591C16.0032 10.4112 16.0242 10.3989 16.0696 10.3991C16.4586 10.4007 16.8476 10.4006 17.2366 10.3988C17.2901 10.3985 17.2988 10.4152 17.2898 10.4646C17.2518 10.6746 17.2187 10.8855 17.1797 11.0952C17.1692 11.152 17.1792 11.17 17.239 11.1686C17.4068 11.1648 17.5747 11.1692 17.7425 11.1662C17.7954 11.1652 17.8117 11.1786 17.804 11.2341C17.7538 11.5956 17.7056 11.9572 17.6592 12.3192C17.6512 12.3832 17.6292 12.4076 17.565 12.3989C17.5225 12.3962 17.4799 12.3968 17.4375 12.4007C17.2948 12.3997 17.1521 12.3997 17.0094 12.3969C16.9718 12.3962 16.9609 12.4108 16.956 12.4473C16.9388 12.5747 16.9175 12.7016 16.8978 12.8287Z" fill="#FDFDFD"/>
<path d="M24.8402 11.1155L24.8476 11.13C24.6136 11.5808 24.4799 12.0652 24.3887 12.5629C24.376 12.632 24.3531 12.6329 24.2964 12.6181C24.2299 12.597 24.1593 12.5932 24.091 12.6072C24.0227 12.6212 23.9589 12.6524 23.9056 12.6981C23.753 12.8382 23.6464 13.0226 23.6003 13.2262L23.6006 13.2259C23.583 13.2313 23.5861 13.2463 23.5856 13.2596C23.5076 13.4807 23.4489 13.7083 23.4103 13.9399C23.282 14.5896 23.1981 15.2467 23.0893 15.8996C23.0733 15.9956 23.0541 16.0911 23.0426 16.1876C23.0369 16.2348 23.0166 16.2444 22.9752 16.2438C22.9036 16.2427 22.8319 16.2469 22.7602 16.2489C22.7312 16.2467 22.7022 16.2428 22.6732 16.2428C22.377 16.2423 22.0809 16.2411 21.7848 16.2437C21.7264 16.2442 21.7077 16.2363 21.7189 16.1686C21.8049 15.6454 21.8861 15.1214 21.9691 14.5977C22.0784 13.9084 22.1878 13.219 22.2972 12.5297C22.3478 12.2092 22.3966 11.8884 22.4462 11.5677C22.4642 11.4583 22.4835 11.3491 22.4996 11.2394C22.5068 11.191 22.5196 11.166 22.578 11.1665C22.9355 11.17 23.293 11.169 23.6505 11.1674C23.6992 11.1672 23.7143 11.1743 23.7038 11.2304C23.6722 11.4005 23.6482 11.5721 23.6221 11.7433C23.6187 11.7658 23.6082 11.7897 23.6245 11.8138C23.6622 11.8089 23.6738 11.7756 23.6912 11.7508C23.8011 11.5907 23.9304 11.4452 24.076 11.3179C24.3002 11.1253 24.5585 11.0777 24.8402 11.1155Z" fill="#FDFDFD"/>
<path d="M23.6006 13.2265C23.6467 13.0228 23.7533 12.8385 23.9059 12.6984C23.9592 12.6527 24.0229 12.6215 24.0912 12.6075C24.1595 12.5935 24.2302 12.5973 24.2967 12.6184C24.3533 12.6332 24.3763 12.6323 24.3889 12.5632C24.4802 12.0655 24.6139 11.5811 24.8478 11.1303C24.9691 11.2017 25.0404 11.1478 25.1229 11.047C25.3212 10.8104 25.564 10.6164 25.837 10.4763C25.8532 10.4676 25.8677 10.4436 25.8917 10.4617C25.8895 10.4838 25.8696 10.4911 25.8563 10.5025C25.5106 10.8025 25.2326 11.1745 25.041 11.5933C24.831 12.0498 24.7007 12.5399 24.656 13.0417C24.6052 13.5513 24.6082 14.0584 24.7231 14.5599C24.8309 15.0304 25.0248 15.4566 25.3827 15.7864C25.9138 16.2759 26.554 16.3945 27.243 16.3237C27.4252 16.3049 27.6055 16.2663 27.7867 16.2368C27.7729 16.3277 27.7583 16.4186 27.7456 16.5097C27.7457 16.5259 27.7401 16.5415 27.7297 16.5538C27.7194 16.5661 27.7051 16.5742 27.6893 16.5766C27.2934 16.664 26.898 16.7565 26.4886 16.7398C25.8462 16.7136 25.2856 16.4985 24.8504 15.9992C24.7942 15.9347 24.7436 15.865 24.6904 15.7977C24.5157 15.5219 24.3886 15.2178 24.3147 14.8986C24.237 14.5496 24.2048 14.1919 24.2189 13.8344C24.2267 13.607 24.2372 13.3799 24.2668 13.1543C24.2723 13.1122 24.2539 13.1042 24.2211 13.0962C24.0128 13.0455 23.8193 13.0699 23.6465 13.2077C23.6337 13.2179 23.6241 13.2413 23.6006 13.2265Z" fill="#020266"/>
<path d="M17.3885 15.1981C17.3895 15.1638 17.3928 15.1295 17.3984 15.0957C17.4064 15.0607 17.3891 15.0539 17.3629 15.0507C17.2603 14.4148 17.3181 13.7628 17.5309 13.1558C17.6557 12.7861 17.8491 12.4442 18.1007 12.1486C18.1211 12.125 18.1323 12.0848 18.1757 12.0897C18.0932 12.2612 17.9936 12.424 17.925 12.6027C17.6405 13.3438 17.5563 14.1035 17.754 14.8786C17.9514 15.6524 18.4637 16.103 19.2229 16.2657C19.8064 16.3908 20.389 16.3459 20.9671 16.2136C20.9904 16.2083 21.0139 16.2037 21.0373 16.1987C21.0225 16.2811 21.0037 16.3629 20.9944 16.4459C20.9934 16.4672 20.9853 16.4876 20.9715 16.5036C20.9577 16.5197 20.939 16.5306 20.9183 16.5345C20.658 16.622 20.3885 16.6784 20.1153 16.7026C19.7517 16.7379 19.3874 16.7528 19.0244 16.691C18.4422 16.5919 17.9547 16.3381 17.6359 15.8105C17.5344 15.6388 17.458 15.453 17.4091 15.259C17.4036 15.2383 17.3954 15.2184 17.3885 15.1981Z" fill="#020266"/>
<path d="M2.89686 10.398C2.76852 11.1797 2.64014 11.9615 2.51172 12.7433C2.3917 13.4717 2.27121 14.2 2.15026 14.9283C2.08312 15.3338 2.01771 15.7396 1.9468 16.1445C1.93346 16.2206 1.94885 16.2379 2.02442 16.237C2.31768 16.2333 2.61103 16.2369 2.90435 16.2378C2.88669 16.3499 2.86812 16.4619 2.85183 16.5742C2.84555 16.6175 2.8247 16.6309 2.78218 16.6307C2.39295 16.6293 2.00372 16.6292 1.61449 16.6303C1.57527 16.6304 1.55821 16.6252 1.5665 16.5758C1.66909 15.9656 1.76897 15.3548 1.86987 14.7443C1.97915 14.0831 2.0886 13.4219 2.19822 12.7607C2.31332 12.0649 2.42835 11.369 2.5433 10.6732C2.55565 10.5985 2.57162 10.5243 2.57988 10.4492C2.58457 10.4066 2.60181 10.3952 2.64096 10.3964C2.72621 10.3989 2.81155 10.3977 2.89686 10.398Z" fill="#020266"/>
<path d="M15.9301 10.7995C15.8333 11.3699 15.7349 11.9401 15.6402 12.5109C15.5136 13.2741 15.3888 14.0376 15.2905 14.8054C15.2595 15.0474 15.232 15.288 15.2749 15.5328C15.3597 16.0156 15.6977 16.3149 16.1814 16.3324C16.44 16.3362 16.698 16.3086 16.9501 16.2503C16.9391 16.3004 16.9323 16.3514 16.9299 16.4027C16.9339 16.5298 16.8738 16.5807 16.7544 16.6097C16.52 16.6711 16.2808 16.7119 16.0394 16.7319C15.861 16.7478 15.6813 16.7249 15.5123 16.6646C15.1336 16.5207 14.9722 16.2159 14.9245 15.8293C14.9113 15.7029 14.9106 15.5755 14.9226 15.4489C15.0763 15.0962 15.0985 14.7257 15.0677 14.348C15.1081 14.1908 15.1212 14.0287 15.1479 13.869C15.2641 13.1729 15.377 12.4763 15.494 11.7805C15.5452 11.4766 15.6049 11.1742 15.6568 10.8704C15.6668 10.8114 15.6904 10.7937 15.7461 10.7979C15.8071 10.8026 15.8687 10.7993 15.9301 10.7995Z" fill="#020266"/>
<path d="M8.0122 13.8778C8.02275 13.9145 7.9918 13.9351 7.97864 13.9615C7.85441 14.202 7.77964 14.4656 7.75886 14.7364C7.73809 15.0072 7.77175 15.2794 7.85779 15.5366C8.00565 15.9967 8.3475 16.2535 8.81359 16.3109C9.39121 16.382 9.89118 16.2039 10.2902 15.7623C10.2968 15.754 10.3027 15.7452 10.308 15.7361L10.3076 15.7362C10.3357 15.7906 10.3126 15.8468 10.3106 15.9016C10.3071 15.9878 10.2992 16.0738 10.2869 16.1593C10.2797 16.2115 10.291 16.2293 10.3466 16.2286C10.5804 16.2255 10.8142 16.2271 11.048 16.2275C11.077 16.2276 11.106 16.2307 11.135 16.2323C11.1195 16.3449 11.1028 16.4573 11.0892 16.57C11.0845 16.6083 11.0732 16.6254 11.0306 16.6252C10.6865 16.6234 10.3424 16.6234 9.99828 16.6251C9.95334 16.6253 9.94606 16.6065 9.9466 16.567C9.94845 16.4326 9.94731 16.2982 9.94731 16.1574C9.87334 16.2299 9.80456 16.3072 9.72512 16.373C9.26556 16.7541 8.5296 16.8382 8.03149 16.5611C7.70681 16.3806 7.53102 16.0891 7.46453 15.7286C7.37634 15.2506 7.41716 14.7849 7.62995 14.3431C7.70956 14.1799 7.81948 14.0339 7.95365 13.9131C7.97039 13.8978 7.98277 13.8724 8.0122 13.8778Z" fill="#020266"/>
<path d="M22.4458 11.5658C22.3962 11.8865 22.3474 12.2073 22.2968 12.5278C22.1879 13.2172 22.0786 13.9066 21.9687 14.5958C21.8857 15.1195 21.8045 15.6435 21.7185 16.1667C21.7073 16.2344 21.726 16.2423 21.7844 16.2418C22.0805 16.2392 22.3766 16.2404 22.6728 16.2409C22.7018 16.2409 22.7308 16.2449 22.7598 16.247C22.7414 16.359 22.7214 16.4708 22.7056 16.5831C22.7002 16.6211 22.6913 16.6407 22.6481 16.6405C22.2402 16.6392 21.8322 16.6392 21.4243 16.6406C21.3764 16.6408 21.3731 16.62 21.3793 16.5811C21.4666 16.0367 21.5534 15.4923 21.6398 14.9478C21.7386 14.3259 21.8372 13.7039 21.9356 13.0819C22.012 12.5988 22.0878 12.1155 22.163 11.6321C22.1712 11.5791 22.1925 11.56 22.2459 11.5642C22.3122 11.5694 22.3792 11.5657 22.4458 11.5658Z" fill="#020266"/>
<path d="M3.6543 13.4041C3.69791 13.1292 3.74032 12.8542 3.78544 12.5796C3.83885 12.2545 3.89458 11.9298 3.94975 11.6023C3.9689 11.6261 3.96233 11.652 3.96293 11.6757C3.98879 12.699 4.01431 13.7223 4.03949 14.7456C4.05116 15.2194 4.06302 15.6932 4.07221 16.167C4.07324 16.2202 4.08781 16.2346 4.13989 16.234C4.34772 16.2318 4.5556 16.2345 4.76348 16.2355C4.72426 16.3503 4.68414 16.4649 4.64632 16.5803C4.64264 16.5959 4.63329 16.6095 4.62015 16.6184C4.60701 16.6273 4.59104 16.6308 4.57544 16.6283C4.31685 16.6269 4.05823 16.6264 3.79964 16.6285C3.74981 16.6289 3.73702 16.6108 3.73604 16.5628C3.72622 16.0809 3.71517 15.599 3.70289 15.1171C3.68918 14.5649 3.67484 14.0128 3.65988 13.4606C3.65939 13.4417 3.65622 13.4229 3.6543 13.4041Z" fill="#020266"/>
<path d="M6.11786 12.9753C6.23898 12.6266 6.36012 12.2779 6.48129 11.9293C6.51524 11.8248 6.55676 11.7229 6.6055 11.6246C6.58009 11.7897 6.55466 11.9547 6.52922 12.1198C6.42504 12.7875 6.32076 13.4553 6.21637 14.123C6.11207 14.7908 6.00777 15.4586 5.90348 16.1263C5.90194 16.1425 5.89941 16.1585 5.89589 16.1744C5.88082 16.2269 5.90273 16.236 5.95109 16.2357C6.26299 16.2335 6.5749 16.2346 6.88681 16.2347C6.90275 16.2347 6.91868 16.2364 6.93461 16.2373C6.91694 16.3466 6.89743 16.4557 6.88242 16.5654C6.87564 16.6149 6.85543 16.6309 6.80533 16.6306C6.41368 16.6285 6.02199 16.6276 5.63036 16.6311C5.55901 16.6317 5.55253 16.6034 5.56201 16.5452C5.60842 16.26 5.65384 15.9746 5.69826 15.689C5.79179 15.0885 5.88494 14.4879 5.97772 13.8873C6.01715 13.6338 6.05808 13.3805 6.09727 13.1269C6.10299 13.0899 6.1028 13.0519 6.10535 13.0144L6.10437 13.0154C6.12237 13.0067 6.11786 12.9902 6.11786 12.9753Z" fill="#020266"/>
<path d="M12.3649 11.8913C12.2749 12.0932 12.2177 12.3086 12.1957 12.529C12.1581 12.9764 12.2202 13.3939 12.5406 13.7348C12.72 13.9256 12.9431 14.0516 13.1716 14.1697C13.29 14.231 13.4075 14.2943 13.5231 14.3608C13.574 14.3904 13.6217 14.4252 13.6654 14.4648C13.7141 14.5055 13.7518 14.558 13.7749 14.6176C13.798 14.6771 13.8059 14.7417 13.7977 14.8052C13.7894 14.8686 13.7655 14.929 13.728 14.9804C13.6904 15.0318 13.6407 15.0727 13.5833 15.0992C13.5469 15.1215 13.5064 15.1362 13.4643 15.1422C13.4579 14.9524 13.3354 14.8446 13.1908 14.7602C13.02 14.6606 12.8426 14.5728 12.6692 14.4778C12.4664 14.3735 12.2857 14.2298 12.1373 14.0549C11.9353 13.8056 11.8582 13.5122 11.8486 13.1958C11.875 12.9842 11.9013 12.7726 11.9276 12.561C11.9945 12.324 12.1214 12.109 12.2957 11.9376C12.3154 11.9185 12.3291 11.8868 12.3649 11.8913Z" fill="#020266"/>
<path d="M11.783 15.4669C11.7541 15.6619 11.7278 15.8572 11.6949 16.0515C11.6832 16.1207 11.6999 16.1509 11.7689 16.1689C11.9962 16.2266 12.2283 16.2626 12.4621 16.2763C12.8232 16.3063 13.186 16.3086 13.5475 16.2833C13.8699 16.262 14.1822 16.1601 14.4566 15.9866C14.4678 15.9806 14.4796 15.9755 14.4917 15.9715C14.5103 16.0072 14.4785 16.0252 14.4634 16.0466C14.2406 16.3616 13.9265 16.53 13.5651 16.6227C13.3578 16.6734 13.1453 16.6984 12.932 16.6974C12.5192 16.7088 12.1062 16.6838 11.6977 16.6224C11.6009 16.6058 11.5061 16.5779 11.4098 16.5576C11.3599 16.547 11.3474 16.5193 11.356 16.471C11.3702 16.3912 11.3803 16.3107 11.3921 16.2306C11.4426 16.2068 11.4267 16.156 11.4327 16.1173C11.4694 15.8774 11.5023 15.637 11.5365 15.3967C11.6186 15.4202 11.7008 15.4436 11.783 15.4669Z" fill="#020266"/>
<path d="M8.5383 11.6327C8.49804 11.8861 8.45777 12.1396 8.41749 12.393C8.41041 12.4121 8.41056 12.4333 8.41789 12.4523C8.62625 12.38 8.84035 12.3261 9.05782 12.2912C9.46237 12.2287 9.86856 12.1938 10.2748 12.2665C10.5444 12.3148 10.6483 12.4586 10.6396 12.7381C10.6393 12.8113 10.6311 12.8841 10.6154 12.9555C10.6083 12.9839 10.6036 13.0118 10.5596 13.0059C10.4726 12.9943 10.3847 12.9893 10.2972 12.9815C10.2715 12.8286 10.1754 12.7404 10.0378 12.6904C9.90019 12.6464 9.75654 12.6252 9.61232 12.6275C9.09022 12.6091 8.56907 12.6853 8.07324 12.8525C8.09102 12.7381 8.10678 12.6305 8.12459 12.5233C8.16536 12.2779 8.20917 12.0329 8.24679 11.787C8.24783 11.7671 8.25536 11.7481 8.26819 11.733C8.28101 11.7178 8.29842 11.7075 8.31766 11.7035C8.39147 11.6808 8.46478 11.6564 8.5383 11.6327Z" fill="#020266"/>
<path d="M18.9696 14.5291C18.9396 14.4168 18.9312 14.2996 18.9448 14.1841C18.9472 14.1217 18.9896 14.1297 19.0298 14.1297C19.4537 14.13 19.8777 14.13 20.3016 14.1299C20.6216 14.1299 20.9415 14.1299 21.2615 14.1301C21.2906 14.1301 21.3197 14.1332 21.3489 14.1349C21.3307 14.2412 21.3094 14.3471 21.2954 14.454C21.2869 14.5182 21.2588 14.5346 21.1965 14.5343C20.4542 14.5307 19.7119 14.5303 18.9696 14.5291Z" fill="#020266"/>
<path d="M6.05161 10.3824C5.82633 11.0632 5.60104 11.744 5.37573 12.4248C5.23417 12.8522 5.09216 13.2795 4.94968 13.7066C4.94081 13.7331 4.9411 13.7657 4.90332 13.7914V13.0732C4.99406 12.8022 5.08616 12.5315 5.17527 12.2599C5.37392 11.6543 5.5715 11.0484 5.76801 10.4421C5.78263 10.397 5.80204 10.3757 5.85167 10.3794C5.91802 10.3845 5.98493 10.3818 6.05161 10.3824Z" fill="#020266"/>
<path d="M13.5492 12.6791C13.543 12.4983 13.6172 12.3794 13.7821 12.3157C13.9357 12.2611 14.0985 12.2389 14.2608 12.2503C14.4598 12.2582 14.6585 12.2753 14.8573 12.2885C14.8415 12.4005 14.8229 12.5122 14.811 12.6246C14.8043 12.6881 14.7819 12.7089 14.7161 12.7027C14.4205 12.6692 14.1234 12.6517 13.826 12.6504C13.7331 12.6515 13.6404 12.6611 13.5492 12.6791Z" fill="#020266"/>
<path d="M16.8979 12.8293C16.9177 12.7022 16.9389 12.5753 16.9561 12.4479C16.961 12.4114 16.9719 12.3968 17.0095 12.3975C17.1522 12.4003 17.2949 12.4003 17.4376 12.4014C17.4239 12.5243 17.4085 12.6471 17.3972 12.7703C17.3928 12.8178 17.3749 12.8331 17.3274 12.8319C17.1843 12.8283 17.0411 12.8298 16.8979 12.8293Z" fill="#020266"/>
<path d="M23.5859 13.258C23.5865 13.2447 23.5833 13.2297 23.6013 13.2243C23.6144 13.2437 23.5968 13.2493 23.5859 13.258Z" fill="#020266"/>
<path d="M18.208 12.0331C18.2107 12.0405 18.2103 12.0486 18.2071 12.0558C18.2038 12.063 18.1978 12.0685 18.1904 12.0714C18.181 12.0517 18.1965 12.0433 18.208 12.0331Z" fill="#020266"/>
<path d="M14.4909 15.9728C14.4892 15.9591 14.4983 15.9571 14.5087 15.9565C14.5087 15.9683 14.5108 15.9824 14.4909 15.9728Z" fill="#020266"/>
<path d="M12.3804 11.8685C12.3792 11.8799 12.3781 11.8913 12.3638 11.8944C12.3609 11.8805 12.371 11.8747 12.3804 11.8685Z" fill="#020266"/>
<path d="M14.5078 15.9587C14.5097 15.9474 14.5176 15.9436 14.5279 15.9428C14.5239 15.9514 14.5209 15.9614 14.5078 15.9587Z" fill="#020266"/>
<path d="M18.1917 12.0717C18.191 12.0818 18.1902 12.0919 18.1756 12.0897C18.1684 12.0727 18.1758 12.0684 18.1917 12.0717Z" fill="#020266"/>
<path d="M8.04835 13.8416C8.04275 13.8506 8.04146 13.8645 8.02539 13.8619C8.02687 13.8482 8.03745 13.8447 8.04835 13.8416Z" fill="#020266"/>
<path d="M8.02744 13.8593C8.02948 13.8721 8.03083 13.8842 8.01107 13.8775C8.00768 13.8635 8.0152 13.8593 8.02744 13.8593Z" fill="#020266"/>
<path d="M35.8484 11.7909C35.8823 11.7699 35.912 11.7425 35.9358 11.7102C36.2028 11.4193 36.5153 11.2026 36.902 11.114C37.3783 11.0048 37.7944 11.1421 38.1669 11.446C38.1833 11.4593 38.2006 11.4717 38.2174 11.4845C38.3063 11.5695 38.39 11.6599 38.468 11.7553C38.5015 11.5471 38.5333 11.3555 38.5631 11.1636C38.6028 10.9077 38.641 10.6515 38.6798 10.3954C38.6991 10.2835 38.7181 10.1717 38.7377 10.0599C38.7427 10.0314 38.7426 10.0041 38.7874 10.0043C39.2005 10.0062 39.6135 10.0054 40.0369 10.0054C40.0088 10.1857 39.9818 10.3604 39.9543 10.535C39.8501 11.1947 39.7458 11.8545 39.6414 12.5142C39.5264 13.2407 39.4113 13.9672 39.2962 14.6937C39.2193 15.1798 39.1414 15.6658 39.0672 16.1524C39.058 16.2126 39.0405 16.2373 38.9779 16.2325C38.9118 16.2275 38.8449 16.2336 38.7783 16.2349C38.4826 16.2335 38.1868 16.2302 37.8911 16.2322C37.8217 16.2326 37.793 16.2248 37.8095 16.1416C37.8325 16.0257 37.8385 15.9062 37.8544 15.7645C37.7313 15.9082 37.5822 16.0266 37.4151 16.1133C36.8803 16.3838 36.3491 16.4004 35.8413 16.0507C35.4855 15.8057 35.2954 15.4384 35.1754 15.03C35.0427 14.5785 35.0344 14.1184 35.0942 13.655C35.1799 12.9908 35.402 12.3824 35.8139 11.8524C35.8232 11.8405 35.8392 11.8309 35.8332 11.8113L35.8317 11.8127C35.8481 11.814 35.8518 11.8052 35.8484 11.7909ZM37.5777 14.8681L37.576 14.8697C37.6603 14.8129 37.7324 14.7391 37.7879 14.6531C38.0011 14.3534 38.0987 14.0106 38.1349 13.6486C38.1733 13.3525 38.1462 13.0514 38.0557 12.7672C37.9869 12.5685 37.8637 12.4211 37.6537 12.3634C37.2268 12.246 36.8695 12.5194 36.7112 12.8359L36.7125 12.8345C36.6984 12.8379 36.6975 12.8499 36.6953 12.8611C36.6895 12.8664 36.6843 12.8725 36.6799 12.8791C36.4215 13.3877 36.3572 13.9755 36.4994 14.5293C36.6293 15.0356 37.1646 15.2021 37.5618 14.8822L37.5777 14.8681Z" fill="#FDFDFD"/>
<path d="M32.2489 16.2325C32.083 16.2256 31.9172 16.2256 31.7513 16.2325C31.5783 16.2308 31.4052 16.2279 31.2322 16.2283C31.1885 16.2284 31.1696 16.2195 31.1764 16.1699C31.1875 16.0896 31.1953 16.0085 31.1992 15.9275C31.2023 15.8644 31.2237 15.8006 31.1979 15.7376C31.1996 15.7391 31.2013 15.7406 31.203 15.7421L31.1985 15.7373C31.1924 15.7459 31.1869 15.7551 31.1801 15.7631C31.0115 15.9545 30.803 16.1053 30.5698 16.2045L30.4816 16.237C30.4702 16.2383 30.4564 16.2341 30.4517 16.2507L30.453 16.2498C30.2138 16.307 29.9734 16.3513 29.7259 16.3163C29.2745 16.2524 28.9398 16.026 28.7658 15.5881C28.6269 15.2386 28.6261 14.8747 28.6849 14.5089C28.7414 14.1506 28.9097 13.8203 29.1651 13.5667C29.6206 13.1566 30.1701 13.0112 30.7607 12.9814C30.8112 12.9788 30.8616 12.9762 30.912 12.9735C31.0902 12.9838 31.2686 12.9917 31.4465 13.006C31.4951 13.0098 31.4998 12.9816 31.5067 12.9506C31.5277 12.8471 31.5349 12.7411 31.5281 12.6355C31.5276 12.5659 31.5067 12.4981 31.4681 12.4406C31.4295 12.383 31.375 12.3385 31.3114 12.3126C31.1958 12.263 31.0717 12.2367 30.9462 12.2353C30.4985 12.2092 30.0494 12.2521 29.6142 12.3622C29.5108 12.3895 29.4083 12.42 29.299 12.4508C29.3026 12.4263 29.3047 12.4105 29.3072 12.3948C29.3523 12.1146 29.3975 11.8345 29.4426 11.5543C29.449 11.5394 29.4531 11.5236 29.4548 11.5074C29.4452 11.3529 29.5357 11.302 29.6669 11.2616C30.2372 11.0765 30.8383 11.0094 31.4345 11.0643C31.666 11.0851 31.8914 11.1507 32.0987 11.2574C32.5079 11.4733 32.7206 11.8269 32.7887 12.2797C32.8047 12.3862 32.8103 12.4944 32.8207 12.6017C32.7926 12.7996 32.7645 12.9975 32.7364 13.1955C32.6582 13.7468 32.5801 14.2982 32.502 14.8496C32.4408 15.2833 32.3803 15.7172 32.3204 16.1512C32.3142 16.1961 32.3081 16.2374 32.2489 16.2325ZM30.4499 15.2247C30.553 15.2245 30.6546 15.2009 30.7475 15.1556C30.8404 15.1103 30.9221 15.0444 30.9868 14.9629C31.2054 14.7044 31.2958 14.3948 31.3228 14.0605C31.3286 13.9878 31.2997 13.9634 31.2379 13.9586C30.9566 13.9363 30.6774 13.9453 30.4083 14.0403C30.2312 14.1028 30.0759 14.1992 29.9907 14.381C29.9486 14.4498 29.9223 14.5274 29.9138 14.608C29.8508 14.9863 30.0836 15.2534 30.4499 15.2247H30.4499Z" fill="#FDFDFD"/>
<path d="M27.7867 16.2341C27.6055 16.2636 27.4252 16.3022 27.243 16.321C26.554 16.3918 25.9138 16.2731 25.3827 15.7837C25.0248 15.4539 24.8309 15.0277 24.7231 14.5572C24.6082 14.0557 24.6051 13.5486 24.6559 13.039C24.7007 12.5372 24.8309 12.047 25.041 11.5906C25.2325 11.1718 25.5106 10.7997 25.8563 10.4998C25.8696 10.4884 25.8895 10.4811 25.8917 10.459L25.8907 10.4608C25.9021 10.4608 25.9124 10.4596 25.9082 10.4434L25.906 10.4447C25.925 10.4505 25.9337 10.4337 25.9464 10.4257C26.4502 10.0367 27.0169 9.83741 27.651 9.86126C28.1079 9.87845 28.5437 10.003 28.9703 10.1636C29.001 10.1752 29.0111 10.1887 29.0058 10.2228C28.9385 10.6558 28.8719 11.089 28.8062 11.5222C28.8047 11.5322 28.8015 11.5419 28.7981 11.5561C28.7126 11.5108 28.6305 11.4674 28.5484 11.424C28.3941 11.3452 28.231 11.2856 28.0627 11.2463C27.4055 11.0852 26.839 11.2882 26.4474 11.8257C26.4339 11.8442 26.4035 11.8578 26.4171 11.8906L26.4188 11.889C26.3981 11.8803 26.4006 11.8945 26.4015 11.9072L26.4036 11.9056C26.3888 11.9016 26.3882 11.9144 26.3839 11.9228C26.2175 12.1716 26.1023 12.4519 26.0451 12.747C25.9527 13.1756 25.9109 13.6084 26.0043 14.0423C26.0896 14.4388 26.2837 14.762 26.6599 14.9386C26.954 15.0743 27.2862 15.0979 27.596 15.0051C27.7637 14.9625 27.9272 14.9045 28.0845 14.8318L28.2996 14.7423C28.2827 14.8505 28.2675 14.9483 28.2522 15.0461C28.2075 15.3305 28.1628 15.6148 28.118 15.8992C28.1064 15.9649 28.0905 16.0303 28.0844 16.0965C28.0848 16.1176 28.0772 16.138 28.0631 16.1535C28.049 16.169 28.0296 16.1784 28.0089 16.1797C27.9343 16.195 27.8607 16.2157 27.7867 16.2341Z" fill="#FDFDFD"/>
<path d="M34.3496 13.4215C34.1856 14.0302 34.1071 14.6552 34.0069 15.2761C33.9579 15.5801 33.9088 15.8841 33.8621 16.1884C33.855 16.2348 33.8335 16.2444 33.7927 16.2438C33.7156 16.2427 33.6385 16.246 33.5613 16.2474C33.5323 16.2454 33.5033 16.2418 33.4743 16.2418C33.1837 16.2414 32.893 16.2395 32.6024 16.2431C32.5374 16.2439 32.5286 16.225 32.5386 16.1647C32.5976 15.81 32.653 15.4547 32.7093 15.0995C32.819 14.4078 32.9285 13.7161 33.0379 13.0244C33.1146 12.5384 33.1908 12.0524 33.2664 11.5662C33.2842 11.4569 33.3038 11.3479 33.319 11.2382C33.326 11.1878 33.3418 11.1647 33.3985 11.1652C33.7528 11.168 34.1071 11.168 34.4614 11.1654C34.5203 11.165 34.5316 11.1805 34.5215 11.239C34.4857 11.4465 34.4559 11.655 34.4342 11.87C34.4485 11.8479 34.4627 11.8256 34.477 11.8035C34.6161 11.5749 34.8012 11.3788 35.0201 11.2279C35.208 11.1054 35.4136 11.0888 35.6272 11.113C35.6946 11.1207 35.6501 11.1598 35.6402 11.1806C35.535 11.3961 35.4472 11.6199 35.3775 11.8498C35.3157 12.0508 35.2664 12.2556 35.2298 12.463C35.2205 12.5049 35.2099 12.5469 35.202 12.5893C35.1954 12.6246 35.1833 12.6393 35.1442 12.6246C35.0835 12.6032 35.0189 12.5958 34.955 12.6028C34.7609 12.6197 34.6467 12.749 34.5545 12.9041C34.4644 13.0668 34.3955 13.2407 34.3496 13.4215Z" fill="#FDFDFD"/>
<path d="M34.3496 13.4204C34.3956 13.2396 34.4644 13.0657 34.5545 12.903C34.6468 12.7479 34.761 12.6186 34.955 12.6017C35.0189 12.5947 35.0836 12.6021 35.1443 12.6235C35.1834 12.6382 35.1954 12.6235 35.202 12.5882C35.21 12.5458 35.2205 12.5038 35.2299 12.4619C35.3656 12.236 35.5384 12.0355 35.7408 11.8689C35.7656 11.8411 35.7974 11.8207 35.8327 11.8099C35.8387 11.8295 35.8227 11.8391 35.8135 11.851C35.4015 12.381 35.1795 12.9894 35.0937 13.6536C35.0339 14.117 35.0422 14.5771 35.1749 15.0286C35.2949 15.437 35.4851 15.8043 35.8409 16.0493C36.3486 16.399 36.8798 16.3824 37.4147 16.1119C37.5817 16.0252 37.7308 15.9068 37.8539 15.7631C37.838 15.9048 37.832 16.0243 37.8091 16.1402C37.7926 16.2234 37.8212 16.2312 37.8906 16.2308C38.1863 16.2288 38.4821 16.2321 38.7778 16.2335C38.7605 16.3485 38.7423 16.4633 38.7265 16.5786C38.7212 16.617 38.7019 16.6251 38.6671 16.625C38.283 16.6241 37.8989 16.6242 37.5149 16.6254C37.4688 16.6256 37.4628 16.6094 37.4685 16.5686C37.4861 16.443 37.5005 16.3169 37.5163 16.1888C37.4792 16.1896 37.4675 16.2175 37.45 16.2352C36.9943 16.6943 36.2713 16.8377 35.7206 16.5764C35.309 16.3811 35.0646 16.0366 34.9034 15.6206C34.7276 15.1669 34.702 14.6938 34.7345 14.2139C34.7563 13.8515 34.8219 13.4933 34.9299 13.1473C34.9456 13.0981 34.9325 13.0858 34.8835 13.0898C34.7048 13.1045 34.5698 13.1983 34.4497 13.3246C34.4181 13.3579 34.4022 13.4095 34.3496 13.4204Z" fill="#020266"/>
<path d="M28.1179 15.9002C28.1627 15.6159 28.2074 15.3315 28.2521 15.0471C28.2674 14.9494 28.2826 14.8516 28.2995 14.7433L28.0845 14.8328C28.1974 14.2164 28.5518 13.8044 29.1188 13.5728C29.134 13.5687 29.1496 13.5665 29.1653 13.5663C28.9099 13.8199 28.7415 14.1502 28.685 14.5085C28.6262 14.8743 28.627 15.2382 28.7659 15.5878C28.9399 16.0257 29.2746 16.252 29.7261 16.3159C29.9735 16.3509 30.2139 16.3066 30.4531 16.2494C30.456 16.2956 30.4139 16.3079 30.3893 16.3293C30.0294 16.6429 29.606 16.7553 29.1419 16.7162C28.8653 16.6966 28.6047 16.5773 28.407 16.3797C28.2781 16.2426 28.1796 16.0792 28.1179 15.9002Z" fill="#020266"/>
<path d="M33.2666 11.568C33.1905 12.054 33.1143 12.5401 33.0381 13.0261C32.929 13.7179 32.8194 14.4096 32.7095 15.1012C32.6532 15.4564 32.5978 15.8118 32.5388 16.1665C32.5288 16.2268 32.5376 16.2457 32.6025 16.2448C32.8932 16.2412 33.1838 16.2431 33.4745 16.2435C33.5035 16.2436 33.5325 16.2472 33.5615 16.2491C33.5461 16.3644 33.5294 16.4794 33.5163 16.5949C33.512 16.6324 33.4988 16.6434 33.4615 16.6433C33.0537 16.6418 32.646 16.6419 32.2382 16.6433C32.192 16.6435 32.1874 16.6282 32.1946 16.5869C32.2151 16.4698 32.231 16.3519 32.2487 16.2343C32.3079 16.2392 32.3139 16.1979 32.3201 16.1529C32.3801 15.719 32.4407 15.2851 32.5017 14.8514C32.5794 14.2999 32.6576 13.7485 32.7361 13.1972C32.7642 12.9993 32.7923 12.8014 32.8204 12.6035C32.8582 12.3755 32.8959 12.1475 32.9337 11.9194C32.9502 11.8185 32.9677 11.7178 32.9809 11.6164C32.9858 11.5791 32.9991 11.5657 33.0359 11.5668C33.1127 11.569 33.1897 11.5678 33.2666 11.568Z" fill="#020266"/>
<path d="M29.443 11.5539C29.3978 11.834 29.3527 12.1142 29.3076 12.3943C29.305 12.41 29.3029 12.4258 29.2994 12.4504C29.4086 12.4196 29.5112 12.389 29.6146 12.3618C30.0498 12.2516 30.4988 12.2088 30.9466 12.2348C31.0721 12.2362 31.1962 12.2625 31.3118 12.3122C31.3754 12.3381 31.4299 12.3826 31.4685 12.4401C31.5071 12.4976 31.5279 12.5655 31.5284 12.6351C31.5353 12.7406 31.5281 12.8466 31.507 12.9502C31.5001 12.9811 31.4954 13.0094 31.4469 13.0055C31.269 12.9913 31.0906 12.9833 30.9124 12.973C30.8775 12.7993 30.7578 12.714 30.6009 12.6737C30.3604 12.6119 30.1148 12.6197 29.8698 12.631C29.4673 12.647 29.0692 12.7217 28.6875 12.8526C28.7113 12.7082 28.7334 12.5729 28.7558 12.4377C28.7917 12.2218 28.8301 12.0063 28.8622 11.7898C28.8635 11.7687 28.8716 11.7487 28.8852 11.7327C28.8987 11.7167 28.9171 11.7057 28.9374 11.7012C29.1032 11.6431 29.272 11.594 29.443 11.5539Z" fill="#020266"/>
<path d="M26.417 11.8913C26.4034 11.8585 26.4338 11.8449 26.4473 11.8264C26.839 11.2889 27.4054 11.0859 28.0626 11.247C28.2309 11.2863 28.394 11.3459 28.5484 11.4247C28.5205 11.6004 28.4926 11.7762 28.4635 11.9597C28.3335 11.8778 28.1968 11.8076 28.0548 11.7498C27.698 11.6107 27.3333 11.5405 26.9526 11.6309C26.7868 11.6726 26.6301 11.7453 26.4906 11.8453C26.4668 11.8618 26.4416 11.876 26.417 11.8913Z" fill="#020266"/>
<path d="M30.5699 16.2053C30.8031 16.1061 31.0116 15.9553 31.1802 15.7638C31.1871 15.7559 31.1925 15.7467 31.1986 15.7381L31.198 15.7384C31.2238 15.8014 31.2024 15.8652 31.1994 15.9283C31.1955 16.0093 31.1876 16.0904 31.1766 16.1707C31.1697 16.2203 31.1887 16.2292 31.2323 16.2291C31.4054 16.2287 31.5784 16.2316 31.7514 16.2333C31.7354 16.3484 31.7173 16.4634 31.7046 16.5789C31.7002 16.6196 31.6827 16.6257 31.6484 16.6256C31.3045 16.6248 30.9606 16.6249 30.6168 16.626C30.5742 16.6262 30.5621 16.6132 30.5636 16.5708C30.5678 16.449 30.5681 16.3271 30.5699 16.2053Z" fill="#020266"/>
<path d="M38.6797 10.3942C38.6409 10.6503 38.6027 10.9065 38.563 11.1625C38.5332 11.3544 38.5014 11.546 38.4679 11.7541C38.3899 11.6588 38.3062 11.5683 38.2173 11.4834C38.2598 11.1697 38.3038 10.8562 38.3443 10.5422C38.3637 10.391 38.3608 10.3907 38.5117 10.3925C38.5677 10.3932 38.6237 10.3937 38.6797 10.3942Z" fill="#020266"/>
<path d="M40.0108 16.2521C39.9594 16.2527 39.9085 16.243 39.8608 16.2235C39.8132 16.204 39.7699 16.175 39.7334 16.1383C39.6969 16.1016 39.668 16.0578 39.6483 16.0096C39.6286 15.9614 39.6185 15.9097 39.6187 15.8575C39.6183 15.8053 39.6282 15.7534 39.6476 15.705C39.667 15.6566 39.6957 15.6126 39.7319 15.5755C39.7681 15.5383 39.8112 15.5088 39.8586 15.4886C39.9061 15.4685 39.957 15.458 40.0084 15.4578C40.0599 15.4577 40.1109 15.4679 40.1584 15.4878C40.206 15.5077 40.2492 15.5369 40.2856 15.5739C40.3221 15.6108 40.3509 15.6547 40.3706 15.703C40.3903 15.7513 40.4005 15.803 40.4004 15.8553C40.401 15.9075 40.3913 15.9593 40.3719 16.0076C40.3525 16.056 40.3239 16.0999 40.2876 16.1368C40.2513 16.1738 40.2081 16.203 40.1606 16.2228C40.1131 16.2426 40.0621 16.2525 40.0108 16.2521ZM40.3338 15.8564C40.3338 15.7913 40.3148 15.7276 40.2792 15.6735C40.2436 15.6193 40.193 15.5771 40.1338 15.5522C40.0745 15.5273 40.0094 15.5207 39.9465 15.5335C39.8837 15.5462 39.826 15.5775 39.7807 15.6236C39.7353 15.6697 39.7045 15.7283 39.692 15.7922C39.6795 15.8561 39.686 15.9223 39.7105 15.9825C39.735 16.0426 39.7766 16.0941 39.8299 16.1302C39.8832 16.1664 39.9458 16.1857 40.0099 16.1856C40.0526 16.1862 40.0949 16.178 40.1345 16.1616C40.174 16.1452 40.2099 16.121 40.2401 16.0903C40.2702 16.0597 40.2941 16.0232 40.3102 15.983C40.3263 15.9428 40.3343 15.8998 40.3338 15.8564Z" fill="#FDFDFD"/>
<path d="M25.9471 10.4257C25.9341 10.4337 25.9252 10.4505 25.9058 10.4447C25.9135 10.4256 25.9323 10.4299 25.9471 10.4257Z" fill="#020266"/>
<path d="M30.4517 16.2491C30.4564 16.2325 30.4706 16.2367 30.4822 16.2354C30.474 16.2442 30.4702 16.2629 30.4517 16.2491Z" fill="#020266"/>
<path d="M25.9088 10.444C25.9131 10.4603 25.9025 10.4614 25.8909 10.4614C25.8816 10.4401 25.8986 10.4455 25.9088 10.444Z" fill="#020266"/>
<path d="M35.8488 11.7911C35.8523 11.8055 35.8486 11.8143 35.8317 11.8129C35.83 11.7999 35.8399 11.7959 35.8488 11.7911Z" fill="#020266"/>
<path d="M26.4015 11.9092C26.4006 11.8965 26.398 11.8823 26.4192 11.8909C26.4191 11.9026 26.4119 11.9074 26.4015 11.9092Z" fill="#020266"/>
<path d="M26.3838 11.9261C26.3882 11.9177 26.3888 11.9049 26.4039 11.9089L26.3838 11.9261Z" fill="#020266"/>
<path d="M40.0123 20.192C39.969 20.1918 39.9263 20.1829 39.8864 20.1658C39.8466 20.1487 39.8105 20.1238 39.7802 20.0924C39.7499 20.0611 39.7261 20.0239 39.71 19.9831C39.6939 19.9423 39.6859 19.8987 39.6866 19.8548C39.6872 19.8108 39.6963 19.7675 39.7135 19.7272C39.7307 19.6869 39.7556 19.6504 39.7868 19.6199C39.8179 19.5895 39.8547 19.5655 39.895 19.5496C39.9353 19.5336 39.9783 19.526 40.0215 19.527C40.0646 19.5275 40.1071 19.5365 40.1467 19.5537C40.1864 19.5709 40.2222 19.5959 40.2523 19.6272C40.2824 19.6586 40.3061 19.6956 40.3221 19.7363C40.3381 19.777 40.346 19.8204 40.3454 19.8642C40.3447 19.908 40.3356 19.9512 40.3186 19.9914C40.3015 20.0316 40.2767 20.068 40.2458 20.0984C40.2149 20.1289 40.1783 20.1528 40.1382 20.1689C40.0981 20.1849 40.0553 20.1928 40.0123 20.192ZM40.185 20.064C40.1599 20.0212 40.1323 19.98 40.1025 19.9404C40.0738 19.9063 40.0576 19.8863 40.1118 19.8609C40.1316 19.8517 40.1476 19.8357 40.157 19.8157C40.1663 19.7957 40.1684 19.773 40.1629 19.7516C40.1592 19.7286 40.1483 19.7075 40.1319 19.6913C40.1155 19.6752 40.0943 19.6648 40.0716 19.6618C40.0109 19.6542 39.9496 19.6514 39.8884 19.6534C39.862 19.6524 39.849 19.6629 39.8491 19.6908C39.8495 19.8072 39.8493 19.9236 39.8494 20.04C39.8494 20.0583 39.8561 20.0706 39.8768 20.0717C39.9013 20.0729 39.91 20.0605 39.9097 20.0375C39.9093 20.0077 39.9119 19.9778 39.9094 19.9482C39.9044 19.8891 39.9354 19.8862 39.9786 19.8993C40.0398 19.9178 40.0588 19.9757 40.0859 20.0236C40.0891 20.0334 40.0944 20.0424 40.1013 20.05C40.1083 20.0575 40.1168 20.0634 40.1262 20.0673C40.1357 20.0711 40.1458 20.0728 40.156 20.0723C40.1661 20.0717 40.1761 20.0689 40.185 20.064Z" fill="#FDFDFD"/>
<path d="M6.11865 12.974C6.11865 12.9889 6.12326 13.0054 6.10486 13.0141C6.10336 13.0068 6.10384 12.9993 6.10627 12.9922C6.10869 12.9852 6.11297 12.9789 6.11865 12.974Z" fill="#CB0000"/>
<path d="M11.7826 15.47C11.7005 15.4466 11.6183 15.4233 11.5361 15.3998C11.623 14.7775 11.7099 14.1551 11.7969 13.5327C11.8126 13.421 11.831 13.3096 11.8482 13.198C11.8578 13.5145 11.9349 13.8079 12.1369 14.0572C12.2853 14.2321 12.466 14.3757 12.6688 14.48C12.8422 14.5751 13.0196 14.6629 13.1904 14.7625C13.335 14.8469 13.4575 14.9546 13.4639 15.1445C13.235 15.2143 13.0007 15.2017 12.7674 15.1857C12.4836 15.1635 12.2036 15.1067 11.9332 15.0165C11.8666 14.995 11.85 15.0125 11.8423 15.078C11.8269 15.2092 11.803 15.3394 11.7826 15.47Z" fill="#CB0000"/>
<path d="M9.8817 15.1385C9.74136 15.2189 9.57849 15.249 9.41929 15.2239C9.31626 15.2127 9.22024 15.1656 9.14754 15.0905C9.07483 15.0155 9.02994 14.9172 9.02049 14.8123C9.00491 14.7047 9.01613 14.5949 9.05314 14.4929L9.06557 14.4774L9.06442 14.4784C9.32627 14.3785 9.60548 14.3342 9.88483 14.3482C10.0186 14.3529 10.0168 14.3504 10.016 14.4841C10.0079 14.7083 9.96248 14.9296 9.8817 15.1385Z" fill="#CB0000"/>
<path d="M9.88124 15.1377C9.96202 14.9289 10.0074 14.7076 10.0155 14.4833C10.0163 14.3497 10.0181 14.3521 9.88437 14.3474C9.60502 14.3334 9.32581 14.3778 9.06396 14.4777C9.09303 14.3534 9.16671 14.2446 9.27057 14.1726C9.41115 14.0687 9.57523 14.0025 9.74765 13.9802C9.94247 13.9476 10.1405 13.94 10.3372 13.9577C10.4057 13.9634 10.4377 13.9873 10.4314 14.0672C10.4149 14.3547 10.3238 14.6326 10.1674 14.8727C10.0965 14.985 9.9978 15.0764 9.88124 15.1377Z" fill="#020266"/>
<path d="M9.06593 14.4769L9.05322 14.4923C9.0541 14.4844 9.04995 14.4725 9.06593 14.4769Z" fill="#020266"/>
<path d="M10.308 15.7341L10.3124 15.7397L10.3128 15.7392C10.3111 15.7375 10.3094 15.7359 10.3076 15.7343L10.308 15.7341Z" fill="#020266"/>
<path d="M19.1948 12.6858C19.2606 12.5182 19.3812 12.3787 19.5363 12.291C19.6915 12.2033 19.8716 12.1726 20.0464 12.2042C20.2885 12.2457 20.4445 12.4112 20.4946 12.6789C20.513 12.7966 20.5182 12.9161 20.5102 13.035C20.5088 13.0727 20.5007 13.0953 20.4555 13.0934C20.3571 13.0894 20.2586 13.0901 20.1601 13.0889C20.0949 12.783 19.9507 12.6344 19.6748 12.5969C19.5096 12.576 19.3421 12.607 19.1948 12.6858Z" fill="#020266"/>
<path d="M19.194 12.6867C19.3413 12.6079 19.5088 12.5769 19.674 12.5979C19.9499 12.6354 20.094 12.784 20.1592 13.0898C19.8136 13.091 19.468 13.0924 19.1224 13.0939C19.0864 13.0941 19.0673 13.0883 19.0765 13.0444C19.0963 12.9195 19.136 12.7987 19.194 12.6867Z" fill="#CB0000"/>
<path d="M37.5616 14.8811C37.1644 15.201 36.6292 15.0345 36.4993 14.5283C36.3571 13.9744 36.4213 13.3867 36.6797 12.878C36.6841 12.8714 36.6893 12.8653 36.6951 12.86C36.704 12.8533 36.7212 12.852 36.7123 12.8334L36.711 12.8348C36.735 12.8536 36.7495 12.829 36.7659 12.8207C37.2133 12.5944 37.6331 12.7867 37.7533 13.28C37.8359 13.6428 37.8324 14.0203 37.7431 14.3814C37.6967 14.547 37.6408 14.7097 37.5758 14.8686L37.5775 14.867C37.5658 14.8643 37.564 14.8731 37.5616 14.8811Z" fill="#FE9800"/>
<path d="M37.5757 14.8711C37.6407 14.7122 37.6966 14.5495 37.743 14.3839C37.8324 14.0228 37.8358 13.6452 37.7532 13.2825C37.6331 12.7892 37.2132 12.5969 36.7659 12.8231C36.7494 12.8315 36.7349 12.8561 36.7109 12.8373C36.8692 12.5208 37.2265 12.2474 37.6535 12.3648C37.8634 12.4225 37.9866 12.5699 38.0555 12.7686C38.146 13.0528 38.173 13.3539 38.1346 13.65C38.0985 14.012 38.0008 14.3548 37.7876 14.6545C37.7322 14.7405 37.6601 14.8143 37.5757 14.8711Z" fill="#020266"/>
<path d="M36.7128 12.8336C36.7219 12.8522 36.7044 12.8535 36.6953 12.8602C36.6975 12.849 36.6985 12.837 36.7128 12.8336Z" fill="#020266"/>
<path d="M37.562 14.8838C37.5645 14.8758 37.5663 14.8669 37.5783 14.8696L37.562 14.8838Z" fill="#020266"/>
<path d="M29.9907 14.3814C30.0759 14.1996 30.2312 14.1033 30.4083 14.0408C30.6774 13.9457 30.9566 13.9367 31.2379 13.959C31.2997 13.9639 31.3286 13.9882 31.3228 14.061C31.2958 14.3952 31.2054 14.7048 30.9868 14.9633C30.9221 15.0449 30.8404 15.1107 30.7475 15.156C30.6546 15.2013 30.553 15.2249 30.4499 15.2251C30.5685 14.9831 30.6313 14.7169 30.6338 14.4466C30.635 14.3708 30.608 14.3489 30.5381 14.3474C30.355 14.3422 30.1718 14.3535 29.9907 14.3814Z" fill="#020266"/>
<path d="M29.9905 14.3812C30.1717 14.3534 30.3549 14.342 30.538 14.3472C30.6079 14.3487 30.6348 14.3707 30.6336 14.4465C30.6312 14.7168 30.5683 14.983 30.4498 15.225C30.0835 15.2536 29.8506 14.9865 29.9136 14.6083C29.9221 14.5277 29.9484 14.4501 29.9905 14.3812Z" fill="#FE9800"/>
<path d="M31.1984 15.7381L31.203 15.7428C31.2012 15.7413 31.1995 15.7398 31.1978 15.7383L31.1984 15.7381Z" fill="#020266"/>
<path d="M40.334 15.8578C40.3339 15.9228 40.3148 15.9864 40.2791 16.0405C40.2434 16.0946 40.1928 16.1367 40.1336 16.1615C40.0744 16.1863 40.0092 16.1927 39.9464 16.18C39.8836 16.1672 39.826 16.1358 39.7807 16.0897C39.7355 16.0436 39.7047 15.985 39.6922 15.9211C39.6798 15.8573 39.6862 15.7911 39.7107 15.731C39.7353 15.6709 39.7768 15.6195 39.8301 15.5833C39.8833 15.5472 39.9459 15.5279 40.01 15.5278C40.0528 15.5271 40.0953 15.5352 40.1349 15.5515C40.1746 15.5679 40.2106 15.5922 40.2409 15.623C40.2711 15.6537 40.2949 15.6904 40.3109 15.7307C40.3269 15.7711 40.3348 15.8143 40.334 15.8578ZM40.0642 15.8887C40.1277 15.8578 40.1762 15.819 40.1605 15.745C40.1438 15.6662 40.0812 15.651 40.0127 15.6502C39.9781 15.6498 39.9431 15.6524 39.9088 15.6485C39.8549 15.6424 39.8326 15.6592 39.8362 15.7186C39.8411 15.8022 39.8335 15.8867 39.8393 15.9702C39.8418 16.0055 39.805 16.0729 39.8739 16.072C39.9412 16.0711 39.8971 16.0042 39.9088 15.9686C39.9165 15.9451 39.894 15.9088 39.9279 15.8978C39.9448 15.8925 39.9629 15.8929 39.9795 15.8988C39.9961 15.9048 40.0104 15.916 40.0203 15.9308C40.0436 15.9604 40.0639 15.9923 40.081 16.026C40.0837 16.0363 40.0888 16.0459 40.0959 16.0539C40.1029 16.0619 40.1117 16.0682 40.1215 16.0721C40.1314 16.076 40.142 16.0776 40.1525 16.0766C40.1631 16.0756 40.1732 16.0721 40.1822 16.0664C40.1506 16.0022 40.111 15.9425 40.0642 15.8887Z" fill="#FE9800"/>
<path d="M40.1856 20.0657C40.1766 20.0706 40.1667 20.0734 40.1565 20.074C40.1463 20.0745 40.1362 20.0728 40.1267 20.069C40.1173 20.0651 40.1088 20.0592 40.1018 20.0517C40.0949 20.0441 40.0896 20.0351 40.0865 20.0253C40.0593 19.9774 40.0403 19.9195 39.9791 19.901C39.9359 19.8879 39.905 19.8908 39.9099 19.9499C39.9124 19.9795 39.9099 20.0094 39.9102 20.0392C39.9105 20.0622 39.9018 20.0746 39.8773 20.0733C39.8567 20.0723 39.8499 20.06 39.8499 20.0417C39.8498 19.9253 39.85 19.8089 39.8496 19.6925C39.8495 19.6646 39.8625 19.6541 39.8889 19.6551C39.9501 19.6531 40.0114 19.6559 40.0722 19.6635C40.0948 19.6665 40.116 19.6769 40.1324 19.693C40.1489 19.7092 40.1598 19.7303 40.1635 19.7533C40.1689 19.7747 40.1668 19.7974 40.1575 19.8174C40.1481 19.8374 40.1322 19.8534 40.1123 19.8626C40.0581 19.888 40.0743 19.908 40.103 19.9421C40.1329 19.9816 40.1604 20.0229 40.1856 20.0657ZM39.9998 19.7104C39.9492 19.7092 39.9016 19.6962 39.9093 19.7689C39.9135 19.8089 39.9022 19.8528 39.9666 19.8458C40.0197 19.84 40.0893 19.8566 40.0942 19.7758C40.0985 19.7052 40.0363 19.7143 39.9998 19.7104Z" fill="#FE9800"/>
<path d="M40.0641 15.8895C40.1108 15.9432 40.1505 16.003 40.182 16.0672C40.1731 16.0729 40.1629 16.0763 40.1524 16.0773C40.1419 16.0783 40.1312 16.0768 40.1214 16.0729C40.1116 16.0689 40.1028 16.0627 40.0957 16.0547C40.0887 16.0467 40.0836 16.0371 40.0808 16.0267C40.0637 15.9931 40.0434 15.9612 40.0202 15.9316C40.0103 15.9168 39.996 15.9056 39.9794 15.8996C39.9627 15.8937 39.9447 15.8933 39.9278 15.8986C39.8938 15.9096 39.9164 15.9459 39.9087 15.9694C39.897 16.0049 39.941 16.0718 39.8738 16.0727C39.8048 16.0737 39.8416 16.0062 39.8392 15.9709C39.8333 15.8874 39.841 15.803 39.836 15.7194C39.8325 15.66 39.8548 15.6432 39.9087 15.6493C39.943 15.6532 39.9779 15.6506 40.0126 15.651C40.0811 15.6518 40.1436 15.667 40.1603 15.7458C40.176 15.8198 40.1275 15.8586 40.0641 15.8895ZM40.0035 15.7117C39.9469 15.71 39.9046 15.6979 39.9071 15.7661C39.9089 15.8149 39.9162 15.8449 39.9725 15.8368C40.0199 15.83 40.0865 15.8477 40.0877 15.7718C40.0888 15.7066 40.0308 15.7133 40.0035 15.7117Z" fill="#FDFDFD"/>
<path d="M39.9995 19.7098C40.0361 19.7137 40.0982 19.7047 40.0939 19.7753C40.0891 19.856 40.0194 19.8394 39.9663 19.8453C39.902 19.8523 39.9132 19.8083 39.909 19.7684C39.9014 19.6956 39.949 19.7087 39.9995 19.7098Z" fill="#FDFDFD"/>
<path d="M40.0033 15.7112C40.0305 15.7129 40.0885 15.7062 40.0875 15.7714C40.0862 15.8473 40.0196 15.8295 39.9722 15.8364C39.9159 15.8445 39.9086 15.8145 39.9068 15.7657C39.9044 15.6975 39.9467 15.7096 40.0033 15.7112Z" fill="#FE9800"/>
</g>
<defs>
<clipPath id="clip0_491_206">
<rect width="41" height="25" fill="white" transform="translate(0.5 0.473694)"/>
</clipPath>
</defs>
</svg>
