<svg viewBox="0 0 98 26" fill="none" xmlns="http://www.w3.org/2000/svg">
<g clip-path="url(#clip0_491_176)">
<path d="M75.3831 7.03622H70.0875C69.776 7.03622 69.4645 7.34872 69.3607 7.66122L67.1802 21.3071C67.1802 21.6196 67.284 21.7237 67.5955 21.7237H70.399C70.7105 21.7237 70.8144 21.6196 70.8144 21.3071L71.4374 17.4529C71.4374 17.1404 71.7489 16.8279 72.1642 16.8279H73.8255C77.3559 16.8279 79.4326 15.1612 79.8479 11.7237C80.1594 10.3696 79.8479 9.11956 79.2249 8.28622C78.4981 7.45289 77.0444 7.03622 75.3831 7.03622ZM76.0061 12.1404C75.6946 14.0154 74.3447 14.0154 72.891 14.0154H71.9565L72.5795 10.4737C72.5795 10.3696 72.6834 10.1612 72.9949 10.1612H73.3064C74.2409 10.1612 75.1754 10.1612 75.5907 10.7862C76.0061 10.8904 76.0061 11.3071 76.0061 12.1404Z" fill="#2FA1D9"/>
<path d="M37.4841 7.03622H32.1886C31.8771 7.03622 31.5656 7.34872 31.4618 7.66122L29.2812 21.3071C29.2812 21.6196 29.3851 21.7237 29.6966 21.7237H32.1886C32.5001 21.7237 32.8116 21.4112 32.9154 21.0987L33.5384 17.3487C33.5384 17.0362 33.8499 16.7237 34.2653 16.7237H35.9266C39.457 16.7237 41.5336 15.0571 41.949 11.6196C42.2605 10.2654 41.949 9.01539 41.326 8.18206C40.5991 7.45289 39.3531 7.03622 37.4841 7.03622ZM38.1071 12.1404C37.7956 14.0154 36.342 14.0154 34.9921 14.0154H34.2653L34.8883 10.4737C34.8883 10.3696 34.9921 10.1612 35.3036 10.1612H35.6151C36.5496 10.1612 37.4841 10.1612 37.8995 10.7862C38.1071 10.8904 38.211 11.3071 38.1071 12.1404Z" fill="#0B2A6F"/>
<path d="M53.3708 11.9324H50.8788C50.775 11.9324 50.4635 12.0366 50.4635 12.2449L50.3597 12.9741L50.2558 12.6616C49.6328 11.9324 48.5945 11.6199 47.3485 11.6199C44.545 11.6199 42.0529 13.8074 41.6376 16.7241C41.3261 18.2866 41.7414 19.6407 42.5721 20.5782C43.2989 21.5157 44.4411 21.8282 45.791 21.8282C48.0753 21.8282 49.3213 20.4741 49.3213 20.4741L49.1136 21.3074C49.1136 21.6199 49.2175 21.7241 49.529 21.7241H51.8133C52.1248 21.7241 52.4363 21.4116 52.5402 21.0991L53.89 12.4532C53.89 12.2449 53.5785 11.9324 53.3708 11.9324ZM49.8405 16.9324C49.529 18.2866 48.4906 19.4324 46.9331 19.4324C46.2063 19.4324 45.5833 19.1199 45.2718 18.8074C44.9603 18.3907 44.8565 17.7657 44.8565 16.9324C44.9603 15.5782 46.2063 14.4324 47.66 14.4324C48.3868 14.4324 48.906 14.7449 49.3213 15.0574C49.7366 15.5782 49.8405 16.3074 49.8405 16.9324Z" fill="#0B2A6F"/>
<path d="M91.1662 11.9323H88.6742C88.5704 11.9323 88.2589 12.0365 88.2589 12.2448L88.1551 12.974L88.0512 12.6615C87.4282 11.9323 86.3899 11.6198 85.1439 11.6198C82.3404 11.6198 79.8483 13.8073 79.433 16.724C79.1215 18.2865 79.5368 19.6406 80.3675 20.5781C81.0944 21.5156 82.2365 21.8281 83.5864 21.8281C85.8707 21.8281 87.1167 20.474 87.1167 20.474L86.8052 21.3073C86.8052 21.6198 86.9091 21.724 87.2206 21.724H89.5049C89.8164 21.724 90.1279 21.4115 90.2317 21.099L91.5816 12.4531C91.5816 12.2448 91.4777 11.9323 91.1662 11.9323ZM87.6359 16.9323C87.3244 18.2865 86.286 19.4323 84.7285 19.4323C84.0017 19.4323 83.3787 19.1198 83.0672 18.8073C82.7557 18.3906 82.6519 17.7656 82.6519 16.9323C82.7557 15.5781 84.0017 14.4323 85.4554 14.4323C86.1822 14.4323 86.7014 14.7448 87.1167 15.0573C87.6359 15.5781 87.7397 16.3073 87.6359 16.9323Z" fill="#2FA1D9"/>
<path d="M66.8688 11.9324H64.273C63.9615 11.9324 63.8576 12.0365 63.65 12.2449L60.2234 17.5574L58.6659 12.5574C58.5621 12.2449 58.3544 12.1407 57.9391 12.1407H55.4471C55.1356 12.1407 55.0317 12.4532 55.0317 12.7657L57.8353 20.9949L55.2394 24.7449C55.1356 25.0574 55.2394 25.474 55.5509 25.474H58.0429C58.3544 25.474 58.4583 25.3699 58.6659 25.1615L67.1803 12.8699C67.4918 12.4532 67.1803 11.9324 66.8688 11.9324Z" fill="#0B2A6F"/>
<path d="M94.0736 7.45258L91.8931 21.4109C91.8931 21.7234 91.9969 21.8276 92.3084 21.8276H94.4889C94.8004 21.8276 95.1119 21.5151 95.2157 21.2026L97.3963 7.55674C97.3963 7.24424 97.2924 7.14008 96.9809 7.14008H94.4889C94.3851 7.03591 94.2812 7.14008 94.0736 7.45258Z" fill="#2FA1D9"/>
<path d="M17.7556 2.34869C16.7173 1.09869 14.6406 0.473694 11.8371 0.473694H4.15335C3.73802 0.473694 3.21885 0.890361 3.11502 1.41119L0 21.7237C0 22.1404 0.311502 22.4529 0.623003 22.4529H5.39936L6.64537 14.8487V15.1612C6.7492 14.7445 7.26837 14.2237 7.68371 14.2237H9.96805C14.4329 14.2237 17.8594 12.3487 18.8978 7.24453C18.8978 7.14036 18.8978 6.93203 18.8978 6.82786C18.7939 6.82786 18.7939 6.82786 18.8978 6.82786C19.2093 4.84869 18.8978 3.59869 17.7556 2.34869Z" fill="#0B2A6F"/>
<path d="M18.8976 6.82751C18.8976 6.93168 18.8976 7.14001 18.8976 7.24418C17.8593 12.5567 14.4328 14.2233 9.96791 14.2233H7.57973C7.1644 14.2233 6.64523 14.64 6.54139 15.1608L4.98389 24.64C4.98389 24.9525 5.08772 25.265 5.60689 25.265H9.65641C10.0717 25.265 10.5909 24.9525 10.5909 24.5358V24.4317L11.3178 19.64V19.2233C11.3178 18.8067 11.7331 18.4942 12.2523 18.4942H12.8753C16.7171 18.4942 19.8321 16.9317 20.6628 12.2442C20.9743 10.3692 20.7666 8.70252 19.936 7.55668C19.6245 7.34835 19.313 7.03585 18.8976 6.82751Z" fill="#2FA1D9"/>
<path d="M17.7557 6.41121C17.6519 6.41121 17.4442 6.30704 17.3404 6.30704C17.2366 6.30704 17.0289 6.30704 16.9251 6.20288C16.3021 6.09871 15.6791 6.09871 14.9522 6.09871H8.82602C8.72218 6.09871 8.51452 6.09871 8.41068 6.20288C8.09918 6.20288 7.89151 6.51538 7.89151 6.82788L6.64551 14.9529V15.2654C6.74934 14.8487 7.26851 14.3279 7.68385 14.3279H9.96819C14.433 14.3279 17.8596 12.4529 18.8979 7.34871C18.8979 7.24454 18.8979 7.03621 19.0017 6.93204C18.8979 6.72371 18.6902 6.51538 18.3787 6.51538C17.9634 6.41121 17.9634 6.41121 17.7557 6.41121Z" fill="#0B2A6F"/>
</g>
<defs>
<clipPath id="clip0_491_176">
<rect width="97.5" height="25" fill="white" transform="translate(0 0.473694)"/>
</clipPath>
</defs>
</svg>
