<svg viewBox="0 0 100 100" fill="none" xmlns="http://www.w3.org/2000/svg">
<path d="M100 0H0V100H100V0Z" fill="#F2F2F2"/>
<path d="M7.40732 3.70026H3.70361V7.40396H7.40732V3.70026Z" fill="black"/>
<path d="M11.1114 3.70026H7.40771V7.40396H11.1114V3.70026Z" fill="black"/>
<path d="M14.815 3.70026H11.1113V7.40396H14.815V3.70026Z" fill="black"/>
<path d="M18.5191 3.70026H14.8154V7.40396H18.5191V3.70026Z" fill="black"/>
<path d="M22.2227 3.70026H18.519V7.40396H22.2227V3.70026Z" fill="black"/>
<path d="M25.9268 3.70026H22.2231V7.40396H25.9268V3.70026Z" fill="black"/>
<path d="M29.6305 3.70026H25.9268V7.40396H29.6305V3.70026Z" fill="black"/>
<path d="M44.4459 3.70026H40.7422V7.40396H44.4459V3.70026Z" fill="black"/>
<path d="M55.5538 3.70026H51.8501V7.40396H55.5538V3.70026Z" fill="black"/>
<path d="M59.2579 3.70026H55.5542V7.40396H59.2579V3.70026Z" fill="black"/>
<path d="M62.9615 3.70026H59.2578V7.40396H62.9615V3.70026Z" fill="black"/>
<path d="M66.6651 3.70026H62.9614V7.40396H66.6651V3.70026Z" fill="black"/>
<path d="M74.0728 3.70026H70.3691V7.40396H74.0728V3.70026Z" fill="black"/>
<path d="M77.777 3.70026H74.0732V7.40396H77.777V3.70026Z" fill="black"/>
<path d="M81.4806 3.70026H77.7769V7.40396H81.4806V3.70026Z" fill="black"/>
<path d="M85.1847 3.70026H81.481V7.40396H85.1847V3.70026Z" fill="black"/>
<path d="M88.8883 3.70026H85.1846V7.40396H88.8883V3.70026Z" fill="black"/>
<path d="M92.5924 3.70026H88.8887V7.40396H92.5924V3.70026Z" fill="black"/>
<path d="M96.296 3.70026H92.5923V7.40396H96.296V3.70026Z" fill="black"/>
<path d="M7.40732 7.40762H3.70361V11.1113H7.40732V7.40762Z" fill="black"/>
<path d="M29.629 7.40762H25.9253V11.1113H29.629V7.40762Z" fill="black"/>
<path d="M37.0362 7.40762H33.3325V11.1113H37.0362V7.40762Z" fill="black"/>
<path d="M40.7403 7.40762H37.0366V11.1113H40.7403V7.40762Z" fill="black"/>
<path d="M44.4439 7.40762H40.7402V11.1113H44.4439V7.40762Z" fill="black"/>
<path d="M55.5558 7.40762H51.8521V11.1113H55.5558V7.40762Z" fill="black"/>
<path d="M59.2594 7.40762H55.5557V11.1113H59.2594V7.40762Z" fill="black"/>
<path d="M62.9635 7.40762H59.2598V11.1113H62.9635V7.40762Z" fill="black"/>
<path d="M74.0748 7.40762H70.3711V11.1113H74.0748V7.40762Z" fill="black"/>
<path d="M96.296 7.40762H92.5923V11.1113H96.296V7.40762Z" fill="black"/>
<path d="M7.40732 11.108H3.70361V14.8117H7.40732V11.108Z" fill="black"/>
<path d="M14.815 11.108H11.1113V14.8117H14.815V11.108Z" fill="black"/>
<path d="M18.5191 11.108H14.8154V14.8117H18.5191V11.108Z" fill="black"/>
<path d="M22.2227 11.108H18.519V14.8117H22.2227V11.108Z" fill="black"/>
<path d="M29.6305 11.108H25.9268V14.8117H29.6305V11.108Z" fill="black"/>
<path d="M37.0382 11.108H33.3345V14.8117H37.0382V11.108Z" fill="black"/>
<path d="M59.2579 11.108H55.5542V14.8117H59.2579V11.108Z" fill="black"/>
<path d="M62.9615 11.108H59.2578V14.8117H62.9615V11.108Z" fill="black"/>
<path d="M74.0728 11.108H70.3691V14.8117H74.0728V11.108Z" fill="black"/>
<path d="M81.4806 11.108H77.7769V14.8117H81.4806V11.108Z" fill="black"/>
<path d="M85.1847 11.108H81.481V14.8117H85.1847V11.108Z" fill="black"/>
<path d="M88.8883 11.108H85.1846V14.8117H88.8883V11.108Z" fill="black"/>
<path d="M96.296 11.108H92.5923V14.8117H96.296V11.108Z" fill="black"/>
<path d="M7.40732 14.8154H3.70361V18.5191H7.40732V14.8154Z" fill="black"/>
<path d="M14.815 14.8154H11.1113V18.5191H14.815V14.8154Z" fill="black"/>
<path d="M18.5191 14.8154H14.8154V18.5191H18.5191V14.8154Z" fill="black"/>
<path d="M22.2227 14.8154H18.519V18.5191H22.2227V14.8154Z" fill="black"/>
<path d="M29.629 14.8154H25.9253V18.5191H29.629V14.8154Z" fill="black"/>
<path d="M40.7403 14.8154H37.0366V18.5191H40.7403V14.8154Z" fill="black"/>
<path d="M51.8517 14.8154H48.1479V18.5191H51.8517V14.8154Z" fill="black"/>
<path d="M59.2594 14.8154H55.5557V18.5191H59.2594V14.8154Z" fill="black"/>
<path d="M74.0748 14.8154H70.3711V18.5191H74.0748V14.8154Z" fill="black"/>
<path d="M81.4806 14.8154H77.7769V18.5191H81.4806V14.8154Z" fill="black"/>
<path d="M85.1847 14.8154H81.481V18.5191H85.1847V14.8154Z" fill="black"/>
<path d="M88.8883 14.8154H85.1846V18.5191H88.8883V14.8154Z" fill="black"/>
<path d="M96.296 14.8154H92.5923V18.5191H96.296V14.8154Z" fill="black"/>
<path d="M7.40732 18.5156H3.70361V22.2193H7.40732V18.5156Z" fill="black"/>
<path d="M14.815 18.5156H11.1113V22.2193H14.815V18.5156Z" fill="black"/>
<path d="M18.5191 18.5156H14.8154V22.2193H18.5191V18.5156Z" fill="black"/>
<path d="M22.2227 18.5156H18.519V22.2193H22.2227V18.5156Z" fill="black"/>
<path d="M29.6305 18.5156H25.9268V22.2193H29.6305V18.5156Z" fill="black"/>
<path d="M37.0382 18.5156H33.3345V22.2193H37.0382V18.5156Z" fill="black"/>
<path d="M40.7423 18.5156H37.0386V22.2193H40.7423V18.5156Z" fill="black"/>
<path d="M44.4459 18.5156H40.7422V22.2193H44.4459V18.5156Z" fill="black"/>
<path d="M51.8536 18.5156H48.1499V22.2193H51.8536V18.5156Z" fill="black"/>
<path d="M55.5538 18.5156H51.8501V22.2193H55.5538V18.5156Z" fill="black"/>
<path d="M62.9615 18.5156H59.2578V22.2193H62.9615V18.5156Z" fill="black"/>
<path d="M66.6651 18.5156H62.9614V22.2193H66.6651V18.5156Z" fill="black"/>
<path d="M74.0728 18.5156H70.3691V22.2193H74.0728V18.5156Z" fill="black"/>
<path d="M81.4806 18.5156H77.7769V22.2193H81.4806V18.5156Z" fill="black"/>
<path d="M85.1847 18.5156H81.481V22.2193H85.1847V18.5156Z" fill="black"/>
<path d="M88.8883 18.5156H85.1846V22.2193H88.8883V18.5156Z" fill="black"/>
<path d="M96.296 18.5156H92.5923V22.2193H96.296V18.5156Z" fill="black"/>
<path d="M7.40732 22.223H3.70361V25.9267H7.40732V22.223Z" fill="black"/>
<path d="M29.629 22.223H25.9253V25.9267H29.629V22.223Z" fill="black"/>
<path d="M37.0362 22.223H33.3325V25.9267H37.0362V22.223Z" fill="black"/>
<path d="M44.4439 22.223H40.7402V25.9267H44.4439V22.223Z" fill="black"/>
<path d="M51.8517 22.223H48.1479V25.9267H51.8517V22.223Z" fill="black"/>
<path d="M55.5558 22.223H51.8521V25.9267H55.5558V22.223Z" fill="black"/>
<path d="M62.9635 22.223H59.2598V25.9267H62.9635V22.223Z" fill="black"/>
<path d="M74.0748 22.223H70.3711V25.9267H74.0748V22.223Z" fill="black"/>
<path d="M96.296 22.223H92.5923V25.9267H96.296V22.223Z" fill="black"/>
<path d="M7.40732 25.9232H3.70361V29.627H7.40732V25.9232Z" fill="black"/>
<path d="M11.1114 25.9232H7.40771V29.627H11.1114V25.9232Z" fill="black"/>
<path d="M14.815 25.9232H11.1113V29.627H14.815V25.9232Z" fill="black"/>
<path d="M18.5191 25.9232H14.8154V29.627H18.5191V25.9232Z" fill="black"/>
<path d="M22.2227 25.9232H18.519V29.627H22.2227V25.9232Z" fill="black"/>
<path d="M25.9268 25.9232H22.2231V29.627H25.9268V25.9232Z" fill="black"/>
<path d="M29.6305 25.9232H25.9268V29.627H29.6305V25.9232Z" fill="black"/>
<path d="M37.0382 25.9232H33.3345V29.627H37.0382V25.9232Z" fill="black"/>
<path d="M44.4459 25.9232H40.7422V29.627H44.4459V25.9232Z" fill="black"/>
<path d="M51.8536 25.9232H48.1499V29.627H51.8536V25.9232Z" fill="black"/>
<path d="M59.2579 25.9232H55.5542V29.627H59.2579V25.9232Z" fill="black"/>
<path d="M66.6651 25.9232H62.9614V29.627H66.6651V25.9232Z" fill="black"/>
<path d="M74.0728 25.9232H70.3691V29.627H74.0728V25.9232Z" fill="black"/>
<path d="M77.777 25.9232H74.0732V29.627H77.777V25.9232Z" fill="black"/>
<path d="M81.4806 25.9232H77.7769V29.627H81.4806V25.9232Z" fill="black"/>
<path d="M85.1847 25.9232H81.481V29.627H85.1847V25.9232Z" fill="black"/>
<path d="M88.8883 25.9232H85.1846V29.627H88.8883V25.9232Z" fill="black"/>
<path d="M92.5924 25.9232H88.8887V29.627H92.5924V25.9232Z" fill="black"/>
<path d="M96.296 25.9232H92.5923V29.627H96.296V25.9232Z" fill="black"/>
<path d="M37.0362 29.6306H33.3325V33.3343H37.0362V29.6306Z" fill="black"/>
<path d="M44.4439 29.6306H40.7402V33.3343H44.4439V29.6306Z" fill="black"/>
<path d="M48.148 29.6306H44.4443V33.3343H48.148V29.6306Z" fill="black"/>
<path d="M59.2594 29.6306H55.5557V33.3343H59.2594V29.6306Z" fill="black"/>
<path d="M62.9635 29.6306H59.2598V33.3343H62.9635V29.6306Z" fill="black"/>
<path d="M7.40732 33.331H3.70361V37.0347H7.40732V33.331Z" fill="black"/>
<path d="M11.1114 33.331H7.40771V37.0347H11.1114V33.331Z" fill="black"/>
<path d="M18.5191 33.331H14.8154V37.0347H18.5191V33.331Z" fill="black"/>
<path d="M29.6305 33.331H25.9268V37.0347H29.6305V33.331Z" fill="black"/>
<path d="M33.3346 33.331H29.6309V37.0347H33.3346V33.331Z" fill="black"/>
<path d="M48.1495 33.331H44.4458V37.0347H48.1495V33.331Z" fill="black"/>
<path d="M51.8536 33.331H48.1499V37.0347H51.8536V33.331Z" fill="black"/>
<path d="M55.5538 33.331H51.8501V37.0347H55.5538V33.331Z" fill="black"/>
<path d="M74.0728 33.331H70.3691V37.0347H74.0728V33.331Z" fill="black"/>
<path d="M77.777 33.331H74.0732V37.0347H77.777V33.331Z" fill="black"/>
<path d="M81.4806 33.331H77.7769V37.0347H81.4806V33.331Z" fill="black"/>
<path d="M88.8883 33.331H85.1846V37.0347H88.8883V33.331Z" fill="black"/>
<path d="M92.5924 33.331H88.8887V37.0347H92.5924V33.331Z" fill="black"/>
<path d="M14.815 37.0384H11.1113V40.7421H14.815V37.0384Z" fill="black"/>
<path d="M25.9268 37.0384H22.2231V40.7421H25.9268V37.0384Z" fill="black"/>
<path d="M33.3326 37.0384H29.6289V40.7421H33.3326V37.0384Z" fill="black"/>
<path d="M40.7403 37.0384H37.0366V40.7421H40.7403V37.0384Z" fill="black"/>
<path d="M48.148 37.0384H44.4443V40.7421H48.148V37.0384Z" fill="black"/>
<path d="M51.8517 37.0384H48.1479V40.7421H51.8517V37.0384Z" fill="black"/>
<path d="M55.5558 37.0384H51.8521V40.7421H55.5558V37.0384Z" fill="black"/>
<path d="M59.2594 37.0384H55.5557V40.7421H59.2594V37.0384Z" fill="black"/>
<path d="M66.6671 37.0384H62.9634V40.7421H66.6671V37.0384Z" fill="black"/>
<path d="M70.3712 37.0384H66.6675V40.7421H70.3712V37.0384Z" fill="black"/>
<path d="M74.0748 37.0384H70.3711V40.7421H74.0748V37.0384Z" fill="black"/>
<path d="M96.296 37.0384H92.5923V40.7421H96.296V37.0384Z" fill="black"/>
<path d="M22.2227 40.7386H18.519V44.4423H22.2227V40.7386Z" fill="black"/>
<path d="M25.9268 40.7386H22.2231V44.4423H25.9268V40.7386Z" fill="black"/>
<path d="M29.6305 40.7386H25.9268V44.4423H29.6305V40.7386Z" fill="black"/>
<path d="M48.1495 40.7386H44.4458V44.4423H48.1495V40.7386Z" fill="black"/>
<path d="M51.8536 40.7386H48.1499V44.4423H51.8536V40.7386Z" fill="black"/>
<path d="M55.5538 40.7386H51.8501V44.4423H55.5538V40.7386Z" fill="black"/>
<path d="M70.3692 40.7386H66.6655V44.4423H70.3692V40.7386Z" fill="black"/>
<path d="M74.0728 40.7386H70.3691V44.4423H74.0728V40.7386Z" fill="black"/>
<path d="M77.777 40.7386H74.0732V44.4423H77.777V40.7386Z" fill="black"/>
<path d="M92.5924 40.7386H88.8887V44.4423H92.5924V40.7386Z" fill="black"/>
<path d="M96.296 40.7386H92.5923V44.4423H96.296V40.7386Z" fill="black"/>
<path d="M7.40732 44.446H3.70361V48.1497H7.40732V44.446Z" fill="black"/>
<path d="M11.1114 44.446H7.40771V48.1497H11.1114V44.446Z" fill="black"/>
<path d="M25.9268 44.446H22.2231V48.1497H25.9268V44.446Z" fill="black"/>
<path d="M37.0362 44.446H33.3325V48.1497H37.0362V44.446Z" fill="black"/>
<path d="M40.7403 44.446H37.0366V48.1497H40.7403V44.446Z" fill="black"/>
<path d="M44.4439 44.446H40.7402V48.1497H44.4439V44.446Z" fill="black"/>
<path d="M48.148 44.446H44.4443V48.1497H48.148V44.446Z" fill="black"/>
<path d="M51.8517 44.446H48.1479V48.1497H51.8517V44.446Z" fill="black"/>
<path d="M55.5558 44.446H51.8521V48.1497H55.5558V44.446Z" fill="black"/>
<path d="M66.6671 44.446H62.9634V48.1497H66.6671V44.446Z" fill="black"/>
<path d="M70.3712 44.446H66.6675V48.1497H70.3712V44.446Z" fill="black"/>
<path d="M7.40732 48.1463H3.70361V51.85H7.40732V48.1463Z" fill="black"/>
<path d="M11.1114 48.1463H7.40771V51.85H11.1114V48.1463Z" fill="black"/>
<path d="M14.815 48.1463H11.1113V51.85H14.815V48.1463Z" fill="black"/>
<path d="M18.5191 48.1463H14.8154V51.85H18.5191V48.1463Z" fill="black"/>
<path d="M29.6305 48.1463H25.9268V51.85H29.6305V48.1463Z" fill="black"/>
<path d="M33.3346 48.1463H29.6309V51.85H33.3346V48.1463Z" fill="black"/>
<path d="M44.4459 48.1463H40.7422V51.85H44.4459V48.1463Z" fill="black"/>
<path d="M48.1495 48.1463H44.4458V51.85H48.1495V48.1463Z" fill="black"/>
<path d="M55.5538 48.1463H51.8501V51.85H55.5538V48.1463Z" fill="black"/>
<path d="M62.9615 48.1463H59.2578V51.85H62.9615V48.1463Z" fill="black"/>
<path d="M66.6651 48.1463H62.9614V51.85H66.6651V48.1463Z" fill="black"/>
<path d="M70.3692 48.1463H66.6655V51.85H70.3692V48.1463Z" fill="black"/>
<path d="M74.0728 48.1463H70.3691V51.85H74.0728V48.1463Z" fill="black"/>
<path d="M85.1847 48.1463H81.481V51.85H85.1847V48.1463Z" fill="black"/>
<path d="M92.5924 48.1463H88.8887V51.85H92.5924V48.1463Z" fill="black"/>
<path d="M96.296 48.1463H92.5923V51.85H96.296V48.1463Z" fill="black"/>
<path d="M11.1114 51.8537H7.40771V55.5574H11.1114V51.8537Z" fill="black"/>
<path d="M14.815 51.8537H11.1113V55.5574H14.815V51.8537Z" fill="black"/>
<path d="M18.5191 51.8537H14.8154V55.5574H18.5191V51.8537Z" fill="black"/>
<path d="M25.9268 51.8537H22.2231V55.5574H25.9268V51.8537Z" fill="black"/>
<path d="M48.1495 51.8537H44.4458V55.5574H48.1495V51.8537Z" fill="black"/>
<path d="M66.6651 51.8537H62.9614V55.5574H66.6651V51.8537Z" fill="black"/>
<path d="M70.3692 51.8537H66.6655V55.5574H70.3692V51.8537Z" fill="black"/>
<path d="M74.0728 51.8537H70.3691V55.5574H74.0728V51.8537Z" fill="black"/>
<path d="M77.777 51.8537H74.0732V55.5574H77.777V51.8537Z" fill="black"/>
<path d="M85.1847 51.8537H81.481V55.5574H85.1847V51.8537Z" fill="black"/>
<path d="M88.8883 51.8537H85.1846V55.5574H88.8883V51.8537Z" fill="black"/>
<path d="M96.296 51.8537H92.5923V55.5574H96.296V51.8537Z" fill="black"/>
<path d="M7.40732 55.554H3.70361V59.2577H7.40732V55.554Z" fill="black"/>
<path d="M18.5191 55.554H14.8154V59.2577H18.5191V55.554Z" fill="black"/>
<path d="M29.629 55.554H25.9253V59.2577H29.629V55.554Z" fill="black"/>
<path d="M33.3326 55.554H29.6289V59.2577H33.3326V55.554Z" fill="black"/>
<path d="M37.0362 55.554H33.3325V59.2577H37.0362V55.554Z" fill="black"/>
<path d="M40.7403 55.554H37.0366V59.2577H40.7403V55.554Z" fill="black"/>
<path d="M48.148 55.554H44.4443V59.2577H48.148V55.554Z" fill="black"/>
<path d="M55.5558 55.554H51.8521V59.2577H55.5558V55.554Z" fill="black"/>
<path d="M77.7784 55.554H74.0747V59.2577H77.7784V55.554Z" fill="black"/>
<path d="M81.4806 55.554H77.7769V59.2577H81.4806V55.554Z" fill="black"/>
<path d="M88.8883 55.554H85.1846V59.2577H88.8883V55.554Z" fill="black"/>
<path d="M96.296 55.554H92.5923V59.2577H96.296V55.554Z" fill="black"/>
<path d="M11.1114 59.2614H7.40771V62.9651H11.1114V59.2614Z" fill="black"/>
<path d="M18.5191 59.2614H14.8154V62.9651H18.5191V59.2614Z" fill="black"/>
<path d="M22.2227 59.2614H18.519V62.9651H22.2227V59.2614Z" fill="black"/>
<path d="M33.3346 59.2614H29.6309V62.9651H33.3346V59.2614Z" fill="black"/>
<path d="M48.1495 59.2614H44.4458V62.9651H48.1495V59.2614Z" fill="black"/>
<path d="M55.5538 59.2614H51.8501V62.9651H55.5538V59.2614Z" fill="black"/>
<path d="M59.2579 59.2614H55.5542V62.9651H59.2579V59.2614Z" fill="black"/>
<path d="M70.3692 59.2614H66.6655V62.9651H70.3692V59.2614Z" fill="black"/>
<path d="M81.4806 59.2614H77.7769V62.9651H81.4806V59.2614Z" fill="black"/>
<path d="M85.1847 59.2614H81.481V62.9651H85.1847V59.2614Z" fill="black"/>
<path d="M92.5924 59.2614H88.8887V62.9651H92.5924V59.2614Z" fill="black"/>
<path d="M7.40732 62.9616H3.70361V66.6653H7.40732V62.9616Z" fill="black"/>
<path d="M11.1114 62.9616H7.40771V66.6653H11.1114V62.9616Z" fill="black"/>
<path d="M14.815 62.9616H11.1113V66.6653H14.815V62.9616Z" fill="black"/>
<path d="M18.5191 62.9616H14.8154V66.6653H18.5191V62.9616Z" fill="black"/>
<path d="M25.9268 62.9616H22.2231V66.6653H25.9268V62.9616Z" fill="black"/>
<path d="M29.629 62.9616H25.9253V66.6653H29.629V62.9616Z" fill="black"/>
<path d="M33.3326 62.9616H29.6289V66.6653H33.3326V62.9616Z" fill="black"/>
<path d="M37.0362 62.9616H33.3325V66.6653H37.0362V62.9616Z" fill="black"/>
<path d="M40.7403 62.9616H37.0366V66.6653H40.7403V62.9616Z" fill="black"/>
<path d="M44.4439 62.9616H40.7402V66.6653H44.4439V62.9616Z" fill="black"/>
<path d="M51.8517 62.9616H48.1479V66.6653H51.8517V62.9616Z" fill="black"/>
<path d="M62.9635 62.9616H59.2598V66.6653H62.9635V62.9616Z" fill="black"/>
<path d="M66.6671 62.9616H62.9634V66.6653H66.6671V62.9616Z" fill="black"/>
<path d="M70.3712 62.9616H66.6675V66.6653H70.3712V62.9616Z" fill="black"/>
<path d="M74.0748 62.9616H70.3711V66.6653H74.0748V62.9616Z" fill="black"/>
<path d="M77.7784 62.9616H74.0747V66.6653H77.7784V62.9616Z" fill="black"/>
<path d="M81.4806 62.9616H77.7769V66.6653H81.4806V62.9616Z" fill="black"/>
<path d="M85.1847 62.9616H81.481V66.6653H85.1847V62.9616Z" fill="black"/>
<path d="M88.8883 62.9616H85.1846V66.6653H88.8883V62.9616Z" fill="black"/>
<path d="M37.0382 66.669H33.3345V70.3727H37.0382V66.669Z" fill="black"/>
<path d="M40.7423 66.669H37.0386V70.3727H40.7423V66.669Z" fill="black"/>
<path d="M51.8536 66.669H48.1499V70.3727H51.8536V66.669Z" fill="black"/>
<path d="M55.5538 66.669H51.8501V70.3727H55.5538V66.669Z" fill="black"/>
<path d="M62.9615 66.669H59.2578V70.3727H62.9615V66.669Z" fill="black"/>
<path d="M66.6651 66.669H62.9614V70.3727H66.6651V66.669Z" fill="black"/>
<path d="M81.4806 66.669H77.7769V70.3727H81.4806V66.669Z" fill="black"/>
<path d="M85.1847 66.669H81.481V70.3727H85.1847V66.669Z" fill="black"/>
<path d="M88.8883 66.669H85.1846V70.3727H88.8883V66.669Z" fill="black"/>
<path d="M96.296 66.669H92.5923V70.3727H96.296V66.669Z" fill="black"/>
<path d="M7.40732 70.3694H3.70361V74.0731H7.40732V70.3694Z" fill="black"/>
<path d="M11.1114 70.3694H7.40771V74.0731H11.1114V70.3694Z" fill="black"/>
<path d="M14.815 70.3694H11.1113V74.0731H14.815V70.3694Z" fill="black"/>
<path d="M18.5191 70.3694H14.8154V74.0731H18.5191V70.3694Z" fill="black"/>
<path d="M22.2227 70.3694H18.519V74.0731H22.2227V70.3694Z" fill="black"/>
<path d="M25.9268 70.3694H22.2231V74.0731H25.9268V70.3694Z" fill="black"/>
<path d="M29.629 70.3694H25.9253V74.0731H29.629V70.3694Z" fill="black"/>
<path d="M37.0362 70.3694H33.3325V74.0731H37.0362V70.3694Z" fill="black"/>
<path d="M48.148 70.3694H44.4443V74.0731H48.148V70.3694Z" fill="black"/>
<path d="M51.8517 70.3694H48.1479V74.0731H51.8517V70.3694Z" fill="black"/>
<path d="M55.5558 70.3694H51.8521V74.0731H55.5558V70.3694Z" fill="black"/>
<path d="M59.2594 70.3694H55.5557V74.0731H59.2594V70.3694Z" fill="black"/>
<path d="M62.9635 70.3694H59.2598V74.0731H62.9635V70.3694Z" fill="black"/>
<path d="M66.6671 70.3694H62.9634V74.0731H66.6671V70.3694Z" fill="black"/>
<path d="M74.0748 70.3694H70.3711V74.0731H74.0748V70.3694Z" fill="black"/>
<path d="M81.4806 70.3694H77.7769V74.0731H81.4806V70.3694Z" fill="black"/>
<path d="M92.5924 70.3694H88.8887V74.0731H92.5924V70.3694Z" fill="black"/>
<path d="M96.296 70.3694H92.5923V74.0731H96.296V70.3694Z" fill="black"/>
<path d="M7.40732 74.0768H3.70361V77.7805H7.40732V74.0768Z" fill="black"/>
<path d="M29.6305 74.0768H25.9268V77.7805H29.6305V74.0768Z" fill="black"/>
<path d="M44.4459 74.0768H40.7422V77.7805H44.4459V74.0768Z" fill="black"/>
<path d="M51.8536 74.0768H48.1499V77.7805H51.8536V74.0768Z" fill="black"/>
<path d="M59.2579 74.0768H55.5542V77.7805H59.2579V74.0768Z" fill="black"/>
<path d="M66.6651 74.0768H62.9614V77.7805H66.6651V74.0768Z" fill="black"/>
<path d="M81.4806 74.0768H77.7769V77.7805H81.4806V74.0768Z" fill="black"/>
<path d="M85.1847 74.0768H81.481V77.7805H85.1847V74.0768Z" fill="black"/>
<path d="M88.8883 74.0768H85.1846V77.7805H88.8883V74.0768Z" fill="black"/>
<path d="M92.5924 74.0768H88.8887V77.7805H92.5924V74.0768Z" fill="black"/>
<path d="M7.40732 77.777H3.70361V81.4807H7.40732V77.777Z" fill="black"/>
<path d="M14.815 77.777H11.1113V81.4807H14.815V77.777Z" fill="black"/>
<path d="M18.5191 77.777H14.8154V81.4807H18.5191V77.777Z" fill="black"/>
<path d="M22.2227 77.777H18.519V81.4807H22.2227V77.777Z" fill="black"/>
<path d="M29.629 77.777H25.9253V81.4807H29.629V77.777Z" fill="black"/>
<path d="M44.4439 77.777H40.7402V81.4807H44.4439V77.777Z" fill="black"/>
<path d="M51.8517 77.777H48.1479V81.4807H51.8517V77.777Z" fill="black"/>
<path d="M55.5558 77.777H51.8521V81.4807H55.5558V77.777Z" fill="black"/>
<path d="M59.2594 77.777H55.5557V81.4807H59.2594V77.777Z" fill="black"/>
<path d="M66.6671 77.777H62.9634V81.4807H66.6671V77.777Z" fill="black"/>
<path d="M70.3712 77.777H66.6675V81.4807H70.3712V77.777Z" fill="black"/>
<path d="M74.0748 77.777H70.3711V81.4807H74.0748V77.777Z" fill="black"/>
<path d="M77.7784 77.777H74.0747V81.4807H77.7784V77.777Z" fill="black"/>
<path d="M81.4806 77.777H77.7769V81.4807H81.4806V77.777Z" fill="black"/>
<path d="M92.5924 77.777H88.8887V81.4807H92.5924V77.777Z" fill="black"/>
<path d="M7.40732 81.4844H3.70361V85.1881H7.40732V81.4844Z" fill="black"/>
<path d="M14.815 81.4844H11.1113V85.1881H14.815V81.4844Z" fill="black"/>
<path d="M18.5191 81.4844H14.8154V85.1881H18.5191V81.4844Z" fill="black"/>
<path d="M22.2227 81.4844H18.519V85.1881H22.2227V81.4844Z" fill="black"/>
<path d="M29.6305 81.4844H25.9268V85.1881H29.6305V81.4844Z" fill="black"/>
<path d="M37.0382 81.4844H33.3345V85.1881H37.0382V81.4844Z" fill="black"/>
<path d="M44.4459 81.4844H40.7422V85.1881H44.4459V81.4844Z" fill="black"/>
<path d="M48.1495 81.4844H44.4458V85.1881H48.1495V81.4844Z" fill="black"/>
<path d="M55.5538 81.4844H51.8501V85.1881H55.5538V81.4844Z" fill="black"/>
<path d="M59.2579 81.4844H55.5542V85.1881H59.2579V81.4844Z" fill="black"/>
<path d="M62.9615 81.4844H59.2578V85.1881H62.9615V81.4844Z" fill="black"/>
<path d="M66.6651 81.4844H62.9614V85.1881H66.6651V81.4844Z" fill="black"/>
<path d="M77.777 81.4844H74.0732V85.1881H77.777V81.4844Z" fill="black"/>
<path d="M81.4806 81.4844H77.7769V85.1881H81.4806V81.4844Z" fill="black"/>
<path d="M88.8883 81.4844H85.1846V85.1881H88.8883V81.4844Z" fill="black"/>
<path d="M7.40732 85.1846H3.70361V88.8883H7.40732V85.1846Z" fill="black"/>
<path d="M14.815 85.1846H11.1113V88.8883H14.815V85.1846Z" fill="black"/>
<path d="M18.5191 85.1846H14.8154V88.8883H18.5191V85.1846Z" fill="black"/>
<path d="M22.2227 85.1846H18.519V88.8883H22.2227V85.1846Z" fill="black"/>
<path d="M29.629 85.1846H25.9253V88.8883H29.629V85.1846Z" fill="black"/>
<path d="M51.8517 85.1846H48.1479V88.8883H51.8517V85.1846Z" fill="black"/>
<path d="M62.9635 85.1846H59.2598V88.8883H62.9635V85.1846Z" fill="black"/>
<path d="M66.6671 85.1846H62.9634V88.8883H66.6671V85.1846Z" fill="black"/>
<path d="M81.4806 85.1846H77.7769V88.8883H81.4806V85.1846Z" fill="black"/>
<path d="M85.1847 85.1846H81.481V88.8883H85.1847V85.1846Z" fill="black"/>
<path d="M88.8883 85.1846H85.1846V88.8883H88.8883V85.1846Z" fill="black"/>
<path d="M96.296 85.1846H92.5923V88.8883H96.296V85.1846Z" fill="black"/>
<path d="M7.40732 88.892H3.70361V92.5957H7.40732V88.892Z" fill="black"/>
<path d="M29.6305 88.892H25.9268V92.5957H29.6305V88.892Z" fill="black"/>
<path d="M37.0382 88.892H33.3345V92.5957H37.0382V88.892Z" fill="black"/>
<path d="M48.1495 88.892H44.4458V92.5957H48.1495V88.892Z" fill="black"/>
<path d="M51.8536 88.892H48.1499V92.5957H51.8536V88.892Z" fill="black"/>
<path d="M55.5538 88.892H51.8501V92.5957H55.5538V88.892Z" fill="black"/>
<path d="M62.9615 88.892H59.2578V92.5957H62.9615V88.892Z" fill="black"/>
<path d="M66.6651 88.892H62.9614V92.5957H66.6651V88.892Z" fill="black"/>
<path d="M74.0728 88.892H70.3691V92.5957H74.0728V88.892Z" fill="black"/>
<path d="M85.1847 88.892H81.481V92.5957H85.1847V88.892Z" fill="black"/>
<path d="M7.40732 92.5924H3.70361V96.2961H7.40732V92.5924Z" fill="black"/>
<path d="M11.1114 92.5924H7.40771V96.2961H11.1114V92.5924Z" fill="black"/>
<path d="M14.815 92.5924H11.1113V96.2961H14.815V92.5924Z" fill="black"/>
<path d="M18.5191 92.5924H14.8154V96.2961H18.5191V92.5924Z" fill="black"/>
<path d="M22.2227 92.5924H18.519V96.2961H22.2227V92.5924Z" fill="black"/>
<path d="M25.9268 92.5924H22.2231V96.2961H25.9268V92.5924Z" fill="black"/>
<path d="M29.629 92.5924H25.9253V96.2961H29.629V92.5924Z" fill="black"/>
<path d="M37.0362 92.5924H33.3325V96.2961H37.0362V92.5924Z" fill="black"/>
<path d="M44.4439 92.5924H40.7402V96.2961H44.4439V92.5924Z" fill="black"/>
<path d="M51.8517 92.5924H48.1479V96.2961H51.8517V92.5924Z" fill="black"/>
<path d="M55.5558 92.5924H51.8521V96.2961H55.5558V92.5924Z" fill="black"/>
<path d="M62.9635 92.5924H59.2598V96.2961H62.9635V92.5924Z" fill="black"/>
<path d="M66.6671 92.5924H62.9634V96.2961H66.6671V92.5924Z" fill="black"/>
<path d="M70.3712 92.5924H66.6675V96.2961H70.3712V92.5924Z" fill="black"/>
<path d="M74.0748 92.5924H70.3711V96.2961H74.0748V92.5924Z" fill="black"/>
<path d="M77.7784 92.5924H74.0747V96.2961H77.7784V92.5924Z" fill="black"/>
<path d="M92.5924 92.5924H88.8887V96.2961H92.5924V92.5924Z" fill="black"/>
<path d="M96.296 92.5924H92.5923V96.2961H96.296V92.5924Z" fill="black"/>
</svg>
