<svg viewBox="0 0 24 25" fill="none" xmlns="http://www.w3.org/2000/svg">
<path fill-rule="evenodd" clip-rule="evenodd" d="M7.5 3.47369H16.504C18.987 3.47369 21 5.48669 21 7.96969V16.9787C21 19.4607 18.987 21.4737 16.504 21.4737H7.496C5.013 21.4737 3 19.4607 3 16.9777V7.97369C3 5.48869 5.015 3.47369 7.5 3.47369V3.47369Z" stroke="black" stroke-width="1.5" stroke-linecap="round" stroke-linejoin="round"/>
<path d="M17.8 11.0237C17.8 10.6095 17.4642 10.2737 17.05 10.2737C16.6358 10.2737 16.3 10.6095 16.3 11.0237H17.8ZM6.85559 15.3812C6.61124 15.0468 6.14201 14.9737 5.80755 15.2181C5.47309 15.4624 5.40005 15.9317 5.64441 16.2661L6.85559 15.3812ZM6.13303 15.0829C5.72388 15.1475 5.44458 15.5315 5.50918 15.9407C5.57378 16.3498 5.95783 16.6291 6.36697 16.5645L6.13303 15.0829ZM8.05 15.2237L8.28837 15.9348C8.53392 15.8525 8.71963 15.6493 8.77961 15.3974C8.83959 15.1454 8.76534 14.8804 8.58322 14.6963L8.05 15.2237ZM7.45 8.02368L8.11062 7.66859C7.98802 7.44052 7.75645 7.29181 7.49805 7.27522C7.23965 7.25863 6.99096 7.37651 6.84021 7.58704L7.45 8.02368ZM11.05 11.0237L10.8727 11.7524C11.0921 11.8058 11.3239 11.7575 11.5037 11.6209C11.6835 11.4843 11.7922 11.274 11.7996 11.0483L11.05 11.0237ZM16.45 9.22368L15.824 9.63678C15.9628 9.84712 16.198 9.97368 16.45 9.97368V9.22368ZM18.25 9.22368L18.874 9.63971C19.0275 9.40956 19.0418 9.11366 18.9113 8.86979C18.7807 8.62592 18.5266 8.47368 18.25 8.47368V9.22368ZM16.426 10.6077C16.1962 10.9523 16.2893 11.418 16.634 11.6477C16.9786 11.8775 17.4443 11.7844 17.674 11.4397L16.426 10.6077ZM16.3 11.0237C16.3 12.9856 15.7401 14.5947 14.7626 15.7025C13.7954 16.7986 12.3593 17.4737 10.45 17.4737V18.9737C12.7407 18.9737 14.6046 18.1487 15.8874 16.6949C17.1599 15.2527 17.8 13.2617 17.8 11.0237H16.3ZM10.45 17.4737C9.39463 17.4737 8.7077 17.2027 8.19749 16.8416C7.66436 16.4643 7.27821 15.9597 6.85559 15.3812L5.64441 16.2661C6.05979 16.8347 6.57364 17.5301 7.33101 18.066C8.1113 18.6182 9.10537 18.9737 10.45 18.9737V17.4737ZM6.36697 16.5645C6.39335 16.5603 6.41373 16.5556 6.42051 16.5541C6.42992 16.5519 6.43748 16.5499 6.44194 16.5487C6.45085 16.5464 6.45799 16.5443 6.46146 16.5433C6.46891 16.5412 6.47537 16.5392 6.47894 16.5381C6.48681 16.5356 6.49542 16.5329 6.50327 16.5303C6.51958 16.5251 6.54143 16.5179 6.56708 16.5095C6.61878 16.4925 6.69084 16.4686 6.77585 16.4404C6.9461 16.3838 7.17099 16.3087 7.39489 16.2339C7.61889 16.159 7.84225 16.0842 8.00959 16.0282C8.09327 16.0002 8.16295 15.9768 8.21172 15.9605C8.2361 15.9523 8.25526 15.9459 8.26832 15.9415C8.27485 15.9393 8.27986 15.9376 8.28324 15.9365C8.28493 15.9359 8.28621 15.9355 8.28707 15.9352C8.2875 15.9351 8.28782 15.935 8.28804 15.9349C8.28815 15.9349 8.28823 15.9348 8.28828 15.9348C8.28831 15.9348 8.28833 15.9348 8.28835 15.9348C8.28836 15.9348 8.28837 15.9348 8.05 15.2237C7.81163 14.5126 7.81163 14.5126 7.81161 14.5126C7.8116 14.5126 7.81158 14.5126 7.81155 14.5126C7.8115 14.5126 7.81142 14.5126 7.81131 14.5127C7.8111 14.5127 7.81078 14.5129 7.81035 14.513C7.8095 14.5133 7.80822 14.5137 7.80654 14.5143C7.80318 14.5154 7.79818 14.5171 7.79167 14.5193C7.77863 14.5236 7.75951 14.53 7.73515 14.5382C7.68645 14.5545 7.61684 14.5778 7.53325 14.6058C7.36606 14.6618 7.14299 14.7365 6.91936 14.8112C6.69564 14.886 6.47171 14.9608 6.30268 15.017C6.21805 15.0451 6.14785 15.0683 6.09852 15.0846C6.07365 15.0927 6.05529 15.0987 6.04342 15.1026C6.03718 15.1046 6.03471 15.1053 6.03473 15.1053C6.0349 15.1053 6.03561 15.1051 6.03673 15.1047C6.03774 15.1044 6.03992 15.1038 6.04287 15.1029C6.0452 15.1022 6.05141 15.1004 6.0596 15.0983C6.06369 15.0972 6.07094 15.0953 6.0801 15.0932C6.08662 15.0917 6.10679 15.087 6.13303 15.0829L6.36697 16.5645ZM8.58322 14.6963C6.84139 12.9353 6.71219 10.3423 8.05979 8.46033L6.84021 7.58704C5.07581 10.0511 5.25061 13.4601 7.51678 15.7511L8.58322 14.6963ZM6.78938 8.37877C7.60057 9.88792 9.1313 11.3288 10.8727 11.7524L11.2273 10.2949C10.0007 9.99656 8.77543 8.90544 8.11062 7.66859L6.78938 8.37877ZM11.7996 11.0483C11.8227 10.346 12.0694 9.78192 12.4448 9.39839C12.8161 9.01893 13.3541 8.77368 14.05 8.77368V7.27368C12.9789 7.27368 12.0454 7.66193 11.3727 8.34922C10.7041 9.03244 10.3343 9.96833 10.3004 10.999L11.7996 11.0483ZM14.05 8.77368C14.5545 8.77368 14.9057 8.86929 15.1646 9.00745C15.4218 9.14477 15.6339 9.34868 15.824 9.63678L17.076 8.81059C16.7771 8.35769 16.3907 7.96159 15.8709 7.68417C15.3528 7.40757 14.7485 7.27368 14.05 7.27368V8.77368ZM16.45 9.97368H18.25V8.47368H16.45V9.97368ZM17.626 8.80766L16.426 10.6077L17.674 11.4397L18.874 9.63971L17.626 8.80766Z" fill="black"/>
</svg>
