<svg viewBox="0 0 67 21" fill="none" xmlns="http://www.w3.org/2000/svg">
<g clip-path="url(#clip0_491_188)">
<path d="M24.7002 20.4733L28.0002 1.57332H33.3002L30.0002 20.4733H24.7002Z" fill="#1F2967"/>
<path d="M24.7002 20.4733L29.0002 1.57332H33.3002L30.0002 20.4733H24.7002Z" fill="#1F2967"/>
<path d="M49.0001 1.77369C48.0001 1.37369 46.3001 0.973694 44.2001 0.973694C39.0001 0.973694 35.2001 3.57369 35.2001 7.37369C35.2001 10.1737 37.8001 11.6737 39.9001 12.5737C42.0001 13.4737 42.6001 14.1737 42.6001 14.9737C42.6001 16.2737 40.9001 16.8737 39.5001 16.8737C37.4001 16.8737 36.3001 16.5737 34.5001 15.8737L33.8001 15.5737L33.1001 19.8737C34.4001 20.3737 36.7001 20.8737 39.1001 20.8737C44.6001 20.8737 48.3001 18.2737 48.3001 14.2737C48.3001 12.0737 46.9001 10.3737 43.8001 9.07369C41.9001 8.17369 40.8001 7.57369 40.8001 6.67369C40.8001 5.87369 41.7001 4.97369 43.8001 4.97369C45.6001 4.97369 46.8001 5.27369 47.8001 5.67369L48.3001 5.87369L49.0001 1.77369Z" fill="#1F2967"/>
<path d="M49.0001 1.77369C48.0001 1.37369 46.3001 0.973694 44.2001 0.973694C39.0001 0.973694 36.1001 3.57369 36.1001 7.37369C36.1001 10.1737 37.8001 11.6737 39.9001 12.5737C42.0001 13.4737 42.6001 14.1737 42.6001 14.9737C42.6001 16.2737 40.9001 16.8737 39.5001 16.8737C37.4001 16.8737 36.3001 16.5737 34.5001 15.8737L33.8001 15.5737L33.1001 19.8737C34.4001 20.3737 36.7001 20.8737 39.1001 20.8737C44.6001 20.8737 48.3001 18.2737 48.3001 14.2737C48.3001 12.0737 46.9001 10.3737 43.8001 9.07369C41.9001 8.17369 40.8001 7.57369 40.8001 6.67369C40.8001 5.87369 41.7001 4.97369 43.8001 4.97369C45.6001 4.97369 46.8001 5.27369 47.8001 5.67369L48.3001 5.87369L49.0001 1.77369Z" fill="#1F2967"/>
<path d="M57.9999 1.57332C56.6999 1.57332 55.7999 1.67332 55.2999 2.97332L47.3999 20.4733H53.0999L54.0999 17.3733H60.7999L61.3999 20.4733H66.3999L62.0999 1.57332H57.9999ZM55.5999 14.1733C55.8999 13.2733 57.6999 8.67332 57.6999 8.67332C57.6999 8.67332 58.0999 7.47332 58.3999 6.77332L58.6999 8.57332C58.6999 8.57332 59.6999 13.2733 59.9999 14.3733H55.5999V14.1733Z" fill="#1F2967"/>
<path d="M59.1999 1.57332C57.8999 1.57332 56.9999 1.67332 56.4999 2.97332L47.3999 20.4733H53.0999L54.0999 17.3733H60.7999L61.3999 20.4733H66.3999L62.0999 1.57332H59.1999ZM55.5999 14.1733C55.9999 13.1733 57.6999 8.67332 57.6999 8.67332C57.6999 8.67332 58.0999 7.47332 58.3999 6.77332L58.6999 8.57332C58.6999 8.57332 59.6999 13.2733 59.9999 14.3733H55.5999V14.1733Z" fill="#1F2967"/>
<path d="M15.1002 14.7732L14.5002 12.0732C13.6002 8.97322 10.5002 5.47322 7.2002 3.77322L11.9002 20.5732H17.6002L26.1002 1.77322H20.4002L15.1002 14.7732Z" fill="#1F2967"/>
<path d="M15.1002 14.7732L14.5002 12.0732C13.6002 8.97322 10.5002 5.47322 7.2002 3.77322L11.9002 20.5732H17.6002L26.1002 1.77322H21.5002L15.1002 14.7732Z" fill="#1F2967"/>
<path d="M0.5 1.57332L1.4 1.77332C8.1 3.37332 12.8 7.37332 14.5 12.0733L12.6 3.17332C12.3 1.87332 11.3 1.57332 10.2 1.57332H0.5Z" fill="#1F2967"/>
<path d="M0.5 1.57332C7.2 3.17332 12.8 7.27332 14.5 11.9733L12.7 4.57332C12.4 3.27332 11.3 2.57332 10.2 2.57332L0.5 1.57332Z" fill="#1F2967"/>
<path d="M0.5 1.57332C7.2 3.17332 12.8 7.27332 14.5 11.9733L13.2 7.87332C12.9 6.57332 12.5 5.37332 11 4.87332L0.5 1.57332Z" fill="#1F2967"/>
<path d="M20.2998 14.1736L16.6998 10.5736L14.9998 14.5736L14.5998 11.9736C13.6998 8.87355 10.5998 5.37355 7.2998 3.67355L11.9998 20.4736H17.6998L20.2998 14.1736Z" fill="#1F2967"/>
<path d="M29.9997 20.4737L25.4997 15.8737L24.6997 20.4737H29.9997Z" fill="#1F2967"/>
<path d="M42.1 13.9734C42.5 14.3734 42.7 14.6734 42.6 15.1734C42.6 16.4734 40.9 17.0734 39.5 17.0734C37.4 17.0734 36.3 16.7734 34.5 16.0734L33.8 15.7734L33 19.9734C34.3 20.4734 36.6 20.9734 39 20.9734C42.4 20.9734 45.1 20.0734 46.6 18.3734L42.1 13.9734Z" fill="#1F2967"/>
<path d="M48.0996 20.4732H52.9996L53.9996 17.3732H60.6996L61.2996 20.4732H66.2996L64.4996 12.8732L58.1996 6.77318L58.4996 8.47318C58.4996 8.47318 59.4996 13.1732 59.7996 14.2732H55.3996C55.7996 13.2732 57.4996 8.77318 57.4996 8.77318C57.4996 8.77318 57.8996 7.57318 58.1996 6.87318" fill="#1F2967"/>
</g>
<defs>
<clipPath id="clip0_491_188">
<rect width="66" height="20" fill="white" transform="translate(0.5 0.973694)"/>
</clipPath>
</defs>
</svg>
