<svg width="14" height="14" viewBox="0 0 14 14" fill="none" xmlns="http://www.w3.org/2000/svg">
<g id="Group">
<g id="Group_2">
<path id="Path (Stroke)" fill-rule="evenodd" clip-rule="evenodd" d="M1.66667 7.5C1.57481 7.5 1.5 7.57481 1.5 7.66667C1.5 7.94281 1.27614 8.16667 1 8.16667C0.723858 8.16667 0.5 7.94281 0.5 7.66667C0.5 7.02252 1.02252 6.5 1.66667 6.5C1.94281 6.5 2.16667 6.72386 2.16667 7C2.16667 7.27614 1.94281 7.5 1.66667 7.5Z" fill="#1D39C4"/>
<path id="Path (Stroke)_2" fill-rule="evenodd" clip-rule="evenodd" d="M1 9.16675C1.27614 9.16675 1.5 9.39061 1.5 9.66675V10.3334C1.5 10.6096 1.27614 10.8334 1 10.8334C0.723858 10.8334 0.5 10.6096 0.5 10.3334V9.66675C0.5 9.39061 0.723858 9.16675 1 9.16675Z" fill="#1D39C4"/>
<path id="Path (Stroke)_3" fill-rule="evenodd" clip-rule="evenodd" d="M1 11.8333C1.27614 11.8333 1.5 12.0571 1.5 12.3333C1.5 12.4251 1.57481 12.4999 1.66667 12.4999C1.94281 12.4999 2.16667 12.7238 2.16667 12.9999C2.16667 13.2761 1.94281 13.4999 1.66667 13.4999C1.02252 13.4999 0.5 12.9774 0.5 12.3333C0.5 12.0571 0.723858 11.8333 1 11.8333Z" fill="#1D39C4"/>
<path id="Path (Stroke)_4" fill-rule="evenodd" clip-rule="evenodd" d="M3.16797 13C3.16797 12.7239 3.39183 12.5 3.66797 12.5H4.33464C4.61078 12.5 4.83464 12.7239 4.83464 13C4.83464 13.2761 4.61078 13.5 4.33464 13.5H3.66797C3.39183 13.5 3.16797 13.2761 3.16797 13Z" fill="#1D39C4"/>
<path id="Path (Stroke)_5" fill-rule="evenodd" clip-rule="evenodd" d="M3.16797 7C3.16797 6.72386 3.39183 6.5 3.66797 6.5H4.33464C4.61078 6.5 4.83464 6.72386 4.83464 7C4.83464 7.27614 4.61078 7.5 4.33464 7.5H3.66797C3.39183 7.5 3.16797 7.27614 3.16797 7Z" fill="#1D39C4"/>
<path id="Path (Stroke)_6" fill-rule="evenodd" clip-rule="evenodd" d="M6.9987 11.8333C7.27484 11.8333 7.4987 12.0571 7.4987 12.3333C7.4987 12.9774 6.97617 13.4999 6.33203 13.4999C6.05589 13.4999 5.83203 13.2761 5.83203 12.9999C5.83203 12.7238 6.05589 12.4999 6.33203 12.4999C6.42389 12.4999 6.4987 12.4251 6.4987 12.3333C6.4987 12.0571 6.72256 11.8333 6.9987 11.8333Z" fill="#1D39C4"/>
<path id="Path (Stroke)_7" fill-rule="evenodd" clip-rule="evenodd" d="M7 9.16675C7.27614 9.16675 7.5 9.39061 7.5 9.66675V10.3334C7.5 10.6096 7.27614 10.8334 7 10.8334C6.72386 10.8334 6.5 10.6096 6.5 10.3334V9.66675C6.5 9.39061 6.72386 9.16675 7 9.16675Z" fill="#1D39C4"/>
<path id="Path (Stroke)_8" fill-rule="evenodd" clip-rule="evenodd" d="M5.83203 7C5.83203 6.72386 6.05589 6.5 6.33203 6.5C6.97617 6.5 7.4987 7.02252 7.4987 7.66667C7.4987 7.94281 7.27484 8.16667 6.9987 8.16667C6.72256 8.16667 6.4987 7.94281 6.4987 7.66667C6.4987 7.57481 6.42389 7.5 6.33203 7.5C6.05589 7.5 5.83203 7.27614 5.83203 7Z" fill="#1D39C4"/>
<path id="Path (Stroke)_9" fill-rule="evenodd" clip-rule="evenodd" d="M5.0013 1.5C4.54078 1.5 4.16797 1.87281 4.16797 2.33333V7C4.16797 7.27614 3.94411 7.5 3.66797 7.5C3.39183 7.5 3.16797 7.27614 3.16797 7V2.33333C3.16797 1.32052 3.98849 0.5 5.0013 0.5H11.668C12.6808 0.5 13.5013 1.32052 13.5013 2.33333V9C13.5013 10.0128 12.6808 10.8333 11.668 10.8333H7.0013C6.72516 10.8333 6.5013 10.6095 6.5013 10.3333C6.5013 10.0572 6.72516 9.83333 7.0013 9.83333H11.668C12.1285 9.83333 12.5013 9.46052 12.5013 9V2.33333C12.5013 1.87281 12.1285 1.5 11.668 1.5H5.0013Z" fill="#1D39C4"/>
<path id="Path (Stroke)_10" fill-rule="evenodd" clip-rule="evenodd" d="M11.3523 2.64645C11.5475 2.84171 11.5475 3.15829 11.3523 3.35355L8.68558 6.02022C8.49032 6.21548 8.17374 6.21548 7.97848 6.02022C7.78322 5.82496 7.78322 5.50838 7.97848 5.31311L10.6451 2.64645C10.8404 2.45118 11.157 2.45118 11.3523 2.64645Z" fill="#1D39C4"/>
<path id="Path (Stroke)_11" fill-rule="evenodd" clip-rule="evenodd" d="M8.5 3C8.5 2.72386 8.72386 2.5 9 2.5H11C11.2761 2.5 11.5 2.72386 11.5 3V5C11.5 5.27614 11.2761 5.5 11 5.5C10.7239 5.5 10.5 5.27614 10.5 5V3.5H9C8.72386 3.5 8.5 3.27614 8.5 3Z" fill="#1D39C4"/>
</g>
</g>
</svg>
