<svg width="24" height="24" viewBox="0 0 24 24" fill="none" xmlns="http://www.w3.org/2000/svg">
<path d="M18.0499 7.1642C18.383 5.46899 18.1967 4.18243 17.4095 3.67117C17.1309 3.49846 16.8053 3.41747 16.4783 3.43962C14.5662 3.51221 11.4809 6.14497 8.96018 10.0266C5.97261 14.6271 4.91091 19.2376 6.59044 20.3283C7.38769 20.8461 8.6581 20.4791 10.0933 19.4563" stroke="#666666" stroke-width="1.5" stroke-linecap="round" stroke-linejoin="round"/>
<path d="M12.1924 8.38086C17.6703 8.66798 22.0225 10.5194 21.9177 12.5193C21.8724 13.384 21.0005 14.137 19.5825 14.687" stroke="#666666" stroke-width="1.5" stroke-linecap="round" stroke-linejoin="round"/>
<path d="M10.1504 8.35217C10.3263 8.348 10.5007 8.34201 10.6796 8.34141C11.1736 8.33973 11.6786 8.35392 12.1921 8.38082" stroke="#666666" stroke-width="1.5" stroke-linecap="round" stroke-linejoin="round"/>
<path d="M6.86362 8.66455C4.05613 9.16114 2.15032 10.1922 2.08291 11.4798C2.03764 12.3429 2.82396 13.1798 4.17178 13.8742" stroke="#666666" stroke-width="1.5" stroke-linecap="round" stroke-linejoin="round"/>
<path d="M18.0499 7.1642C18.383 5.46899 18.1967 4.18243 17.4095 3.67117C17.1309 3.49846 16.8053 3.41747 16.4783 3.43962C14.5662 3.51221 11.4809 6.14497 8.96018 10.0266C5.97261 14.6271 4.91091 19.2376 6.59044 20.3283C7.38769 20.8461 8.6581 20.4791 10.0933 19.4563" stroke="#666666" stroke-width="1.5" stroke-linecap="round" stroke-linejoin="round"/>
<path d="M10.6454 4.18338C9.94854 3.48372 9.0198 3.06315 8.03426 3.00098C7.84553 3.01339 7.66123 3.06366 7.49232 3.14878C5.70798 4.05794 6.27801 8.76003 8.76833 13.6476C11.2587 18.5351 14.7238 21.7596 16.5082 20.8504C18.2241 19.976 17.761 15.5946 15.5081 10.9133" stroke="#666666" stroke-width="1.5" stroke-linecap="round" stroke-linejoin="round"/>
<path d="M10.6454 4.18338C9.94854 3.48372 9.0198 3.06315 8.03426 3.00098C7.84553 3.01339 7.66123 3.06366 7.49232 3.14878C5.70798 4.05794 6.27801 8.76003 8.76833 13.6476C11.2587 18.5351 14.7238 21.7596 16.5082 20.8504C18.2241 19.976 17.761 15.5946 15.5081 10.9133" stroke="#666666" stroke-width="1.5" stroke-linecap="round" stroke-linejoin="round"/>
<path d="M12.3148 12.1402C12.3146 12.2782 12.2026 12.39 12.0646 12.39C11.9265 12.3899 11.8146 12.278 11.8146 12.14C11.8145 12.0019 11.9263 11.8899 12.0644 11.8898C12.1308 11.8897 12.1945 11.916 12.2415 11.963C12.2885 12.01 12.3148 12.0737 12.3148 12.1402" stroke="#666666" stroke-width="1.5" stroke-linecap="round" stroke-linejoin="round"/>
</svg>
