<svg width="119" height="36" viewBox="0 0 119 36" fill="none" xmlns="http://www.w3.org/2000/svg">
<g clip-path="url(#clip0_34492_4394)">
<path d="M91.8587 9.02267C90.8612 9.02267 90.0451 9.83879 90.0451 10.8363C90.0451 18.7708 83.6068 25.2544 75.627 25.2544C67.6925 25.2544 61.2088 18.8161 61.2088 10.8363V1.8136C61.2088 0.816121 60.3927 0 59.3952 0H52.1862C51.1887 0 50.3726 0.816121 50.3726 1.8136C50.3726 2.81108 51.1887 3.6272 52.1862 3.6272H57.627V10.8363C57.627 20.7657 65.6975 28.8363 75.627 28.8363C85.5564 28.8363 93.627 20.7657 93.627 10.8363C93.6723 9.79345 92.8562 9.02267 91.8587 9.02267Z" fill="#F9A236"/>
<path d="M70.2316 14.4181C71.2291 14.4181 72.0452 13.6019 72.0452 12.6045V9.02259C72.0452 8.02511 71.2291 7.20898 70.2316 7.20898C69.2341 7.20898 68.418 8.02511 68.418 9.02259V12.6045C68.418 13.6019 69.2341 14.4181 70.2316 14.4181Z" fill="#F9A236"/>
<path d="M81.1134 14.4181C82.1109 14.4181 82.927 13.6019 82.927 12.6045V9.02259C82.927 8.02511 82.1109 7.20898 81.1134 7.20898C80.1159 7.20898 79.2998 8.02511 79.2998 9.02259V12.6045C79.3451 13.6019 80.1159 14.4181 81.1134 14.4181Z" fill="#F9A236"/>
<path d="M68.4183 28.791C66.4233 28.791 64.8364 30.4233 64.8364 32.3729C64.8364 34.3678 66.4687 35.9547 68.4183 35.9547C70.4132 35.9547 72.0002 34.3225 72.0002 32.3729C72.0455 30.4233 70.4132 28.791 68.4183 28.791Z" fill="#F9A236"/>
<path d="M82.9271 28.791C80.9321 28.791 79.3452 30.4233 79.3452 32.3729C79.3452 34.3678 80.9775 35.9547 82.9271 35.9547C84.922 35.9547 86.5089 34.3225 86.5089 32.3729C86.5089 30.4233 84.922 28.791 82.9271 28.791Z" fill="#F9A236"/>
<path d="M1.8136 7.20898C0.816121 7.20898 0 8.02511 0 9.02259V27.0226C0 28.0201 0.816121 28.8362 1.8136 28.8362C2.81108 28.8362 3.6272 28.0201 3.6272 27.0226V9.02259C3.58186 8.02511 2.81108 7.20898 1.8136 7.20898Z" fill="#F9A236"/>
<path d="M45.0228 7.20898C44.0253 7.20898 43.2092 8.02511 43.2092 9.02259V16.2317H32.4182V9.02259C32.4182 8.52385 32.2369 8.07045 31.8741 7.75307C31.5568 7.43568 31.1034 7.20898 30.6046 7.20898C29.6071 7.20898 28.791 8.02511 28.791 9.02259V27.0226C28.791 28.0201 29.6071 28.8362 30.6046 28.8362C31.6021 28.8362 32.4182 28.0201 32.4182 27.0226V19.8135H43.2092V27.0226C43.2092 28.0201 44.0253 28.8362 45.0228 28.8362C46.0202 28.8362 46.8364 28.0201 46.8364 27.0226V9.02259C46.8364 8.52385 46.655 8.07045 46.2923 7.75307C45.9296 7.39034 45.4762 7.20898 45.0228 7.20898Z" fill="#F9A236"/>
<path d="M52.3676 7.20898H52.1409C51.1888 7.20898 50.418 7.97977 50.418 8.93191V27.1133C50.418 28.0654 51.1888 28.8362 52.1409 28.8362H52.3223C53.2744 28.8362 54.0452 28.0654 54.0452 27.1133V8.88657C54.0452 7.97977 53.2744 7.20898 52.3676 7.20898Z" fill="#F9A236"/>
<path d="M18.0453 10.8362C19.7682 10.8362 21.4458 11.4709 22.7607 12.6044C23.5315 13.2392 24.665 13.1939 25.2997 12.4231C25.9345 11.6523 25.8892 10.5188 25.1184 9.88405C23.1688 8.16113 20.6297 7.20898 18.0453 7.20898C12.1058 7.20898 7.25439 12.0604 7.25439 17.9999C7.25439 23.9395 12.1058 28.7908 18.0453 28.7908C20.675 28.7908 23.1688 27.8387 25.1184 26.1158C25.8892 25.481 25.9345 24.3022 25.2997 23.5767C24.665 22.806 23.4861 22.7606 22.7607 23.3954C21.4458 24.5289 19.7682 25.1636 18.0453 25.1636C14.1007 25.1636 10.8816 21.9445 10.8816 17.9999C10.8816 14.0553 14.1007 10.8362 18.0453 10.8362Z" fill="#F9A236"/>
<path d="M108.091 7.25439C102.106 7.25439 97.2998 12.1058 97.2998 18.0453C97.2998 23.9849 102.151 28.8363 108.091 28.8363C110.856 28.8363 113.396 27.7934 115.3 26.0705V27.0227C115.3 28.0201 116.116 28.8363 117.113 28.8363C118.111 28.8363 118.927 28.0201 118.927 27.0227V18.0907C118.882 12.1058 114.076 7.25439 108.091 7.25439ZM108.091 25.2544C104.101 25.2544 100.882 22.0352 100.882 18.0453C100.882 14.0554 104.101 10.8363 108.091 10.8363C112.081 10.8363 115.3 14.0554 115.3 18.0453C115.3 22.0352 112.081 25.2544 108.091 25.2544Z" fill="#F9A236"/>
<path d="M98.5238 3.94451C98.6145 3.89917 98.7052 3.85383 98.7505 3.80849C98.7959 3.76315 98.8412 3.71781 98.8866 3.62713C98.9319 3.53645 98.9319 3.49111 98.9319 3.35509V2.58431C98.9319 2.44829 98.8865 2.31227 98.8412 2.26693C98.7959 2.22159 98.7052 2.13091 98.6599 2.13091C98.5692 2.13091 98.4785 2.08557 98.3425 2.08557H97.3903C97.2543 2.08557 97.1636 2.13091 97.1183 2.17625C97.0729 2.22159 97.0276 2.31227 97.0276 2.40295C97.0276 2.53897 97.0729 2.58431 97.1636 2.62965C97.2543 2.67499 97.345 2.72033 97.5264 2.72033H98.2065V3.40043C98.0251 3.49111 97.8437 3.58179 97.6624 3.62713C97.481 3.67247 97.2996 3.71781 97.1183 3.71781C96.7102 3.71781 96.3928 3.58179 96.1661 3.30975C95.9394 3.03771 95.8034 2.67499 95.8034 2.17625C95.8034 1.94955 95.8488 1.72285 95.8941 1.54149C95.9394 1.36013 96.0301 1.17877 96.1661 1.04275C96.2568 0.906731 96.3928 0.816051 96.5742 0.725371C96.7556 0.634691 96.8916 0.634691 97.1183 0.634691C97.2996 0.634691 97.481 0.680031 97.5717 0.725371C97.7077 0.770711 97.7984 0.861391 97.8891 0.952071C97.9797 1.04275 98.0704 1.17877 98.1611 1.31479C98.2064 1.36013 98.2518 1.40547 98.2971 1.45081C98.3425 1.49615 98.4331 1.49615 98.4785 1.49615C98.5692 1.49615 98.7052 1.45081 98.7505 1.36013C98.7959 1.26945 98.8866 1.17877 98.8866 1.08809C98.8866 0.997411 98.8412 0.861391 98.7959 0.725371C98.7052 0.589351 98.6145 0.45333 98.4785 0.36265C98.3425 0.22663 98.1611 0.13595 97.9344 0.09061C97.7077 0.0452699 97.481 -0.0454102 97.1636 -0.0454102C96.8009 -0.0454102 96.5289 -7.01025e-05 96.2568 0.09061C95.9848 0.18129 95.7581 0.31731 95.5767 0.544011C95.3954 0.725371 95.2593 0.952071 95.1233 1.22411C95.0326 1.49615 94.9873 1.81353 94.9873 2.13091C94.9873 2.44829 95.0326 2.76567 95.1233 3.03771C95.214 3.30975 95.35 3.53645 95.5767 3.71781C95.7581 3.89917 95.9848 4.03519 96.2568 4.17121C96.5289 4.26189 96.8009 4.30723 97.1636 4.30723C97.4357 4.30723 97.7077 4.26189 97.9344 4.21655C98.1611 4.17121 98.2518 4.12587 98.5238 3.94451Z" fill="#F9A236"/>
<path d="M100.201 4.3073H102.287C102.423 4.3073 102.514 4.26196 102.604 4.21662C102.695 4.17128 102.695 4.0806 102.695 3.94458C102.695 3.8539 102.65 3.76322 102.604 3.67254C102.514 3.6272 102.423 3.58186 102.287 3.58186H100.564V0.498741C100.564 0.31738 100.519 0.18136 100.428 0.0906801C100.337 0 100.247 0 100.111 0C99.9746 0 99.8839 0.0453401 99.7932 0.13602C99.7026 0.2267 99.6572 0.36272 99.6572 0.544081V3.80856C99.6572 3.98992 99.7026 4.12594 99.7932 4.21662C99.8839 4.26196 100.02 4.3073 100.201 4.3073Z" fill="#F9A236"/>
<path d="M103.33 3.76322C103.512 3.94458 103.738 4.12594 103.965 4.21662C104.237 4.3073 104.509 4.39798 104.872 4.39798C105.189 4.39798 105.507 4.35264 105.733 4.26196C105.96 4.17128 106.187 3.98992 106.368 3.80856C106.549 3.6272 106.685 3.4005 106.776 3.12846C106.867 2.85642 106.912 2.58438 106.912 2.22166C106.912 1.76826 106.821 1.40554 106.685 1.08816C106.549 0.770781 106.277 0.49874 105.96 0.31738C105.643 0.0906801 105.28 0 104.826 0C104.509 0 104.237 0.0453401 103.965 0.13602C103.693 0.2267 103.512 0.36272 103.33 0.589421C103.149 0.770781 103.013 0.997481 102.922 1.26952C102.831 1.54156 102.786 1.85894 102.786 2.17632C102.786 2.4937 102.831 2.76574 102.922 3.03778C103.013 3.30982 103.149 3.58186 103.33 3.76322ZM103.738 1.54156C103.784 1.3602 103.874 1.17884 103.965 1.08816C104.056 0.997481 104.192 0.861461 104.328 0.816121C104.464 0.770781 104.645 0.725441 104.781 0.725441C105.008 0.725441 105.234 0.770781 105.416 0.906801C105.597 1.04282 105.733 1.17884 105.824 1.40554C105.915 1.63224 105.96 1.90428 105.96 2.22166C105.96 2.53904 105.915 2.85642 105.779 3.08312C105.643 3.30982 105.507 3.49118 105.325 3.58186C105.144 3.67254 104.962 3.76322 104.736 3.76322C104.554 3.76322 104.418 3.71788 104.282 3.67254C104.146 3.6272 104.01 3.49118 103.92 3.4005C103.829 3.30982 103.738 3.12846 103.648 2.90176C103.602 2.7204 103.557 2.4937 103.557 2.267C103.648 1.94962 103.693 1.72292 103.738 1.54156Z" fill="#F9A236"/>
<path d="M108.136 4.30737H109.405C109.632 4.30737 109.813 4.30737 109.995 4.26203C110.176 4.26203 110.312 4.21669 110.448 4.12601C110.675 4.03533 110.811 3.89931 110.947 3.71795C111.083 3.53659 111.128 3.30989 111.128 3.08319C111.128 2.58445 110.856 2.22173 110.312 2.04037C110.72 1.85901 110.947 1.54163 110.947 1.13357C110.947 0.997551 110.947 0.906871 110.902 0.770851C110.856 0.634831 110.811 0.544151 110.72 0.453471C110.63 0.36279 110.539 0.27211 110.448 0.22677C110.312 0.13609 110.222 0.0907502 110.04 0.0907502C109.904 0.0454102 109.723 0.0454102 109.496 0.0454102H108.136C107.955 0.0454102 107.818 0.0907502 107.728 0.18143C107.637 0.27211 107.592 0.408131 107.592 0.589491V3.76329C107.592 3.94465 107.637 4.08067 107.728 4.17135C107.818 4.26203 107.955 4.30737 108.136 4.30737ZM108.499 0.725511H109.179C109.496 0.725511 109.723 0.770851 109.859 0.816191C109.995 0.906871 110.085 1.04289 110.085 1.22425C110.085 1.31493 110.04 1.40561 109.995 1.49629C109.949 1.58697 109.859 1.67765 109.723 1.72299C109.632 1.76833 109.496 1.81367 109.269 1.81367H108.499V0.725511ZM108.499 2.40309H109.405C109.723 2.40309 109.904 2.44843 110.085 2.53911C110.222 2.62979 110.312 2.81115 110.312 2.99251C110.312 3.40057 110.04 3.62727 109.451 3.62727H108.544V2.40309H108.499Z" fill="#F9A236"/>
<path d="M111.763 4.35264C111.899 4.35264 111.99 4.3073 112.035 4.26196C112.08 4.21662 112.171 4.03526 112.216 3.8539L112.398 3.30982H114.121L114.302 3.8539C114.347 3.89924 114.347 3.98992 114.393 4.0806C114.438 4.17128 114.483 4.21662 114.483 4.26196C114.483 4.3073 114.574 4.35264 114.619 4.35264C114.665 4.35264 114.71 4.39798 114.801 4.39798C114.937 4.39798 115.028 4.35264 115.118 4.26196C115.209 4.17128 115.254 4.0806 115.254 3.98992C115.254 3.89924 115.209 3.76322 115.118 3.53652L114.03 0.816121C113.985 0.680101 113.939 0.589421 113.894 0.498741C113.849 0.40806 113.803 0.36272 113.758 0.27204C113.713 0.18136 113.622 0.13602 113.577 0.0906801C113.531 0.04534 113.395 0 113.305 0C113.169 0 113.078 0 112.987 0.04534C112.897 0.0906801 112.851 0.13602 112.806 0.2267C112.761 0.31738 112.715 0.40806 112.67 0.498741C112.624 0.589421 112.579 0.725441 112.579 0.770781L111.491 3.49118C111.446 3.58186 111.4 3.67254 111.4 3.76322C111.4 3.80856 111.355 3.89924 111.355 3.94458C111.355 4.03526 111.4 4.12594 111.491 4.21662C111.582 4.3073 111.672 4.35264 111.763 4.35264ZM113.305 0.906801L113.939 2.62972H112.67L113.305 0.906801Z" fill="#F9A236"/>
<path d="M116.388 4.3073H118.473C118.609 4.3073 118.7 4.26196 118.791 4.21662C118.882 4.17128 118.882 4.0806 118.882 3.94458C118.882 3.8539 118.836 3.76322 118.791 3.67254C118.7 3.6272 118.609 3.58186 118.473 3.58186H116.751V0.498741C116.751 0.31738 116.705 0.18136 116.615 0.0906801C116.524 0 116.433 0 116.297 0C116.161 0 116.07 0.0453401 115.98 0.13602C115.889 0.2267 115.844 0.36272 115.844 0.544081V3.80856C115.844 3.98992 115.889 4.12594 115.98 4.21662C116.07 4.26196 116.206 4.3073 116.388 4.3073Z" fill="#F9A236"/>
</g>
<defs>
<clipPath id="clip0_34492_4394">
<rect width="118.882" height="36" fill="white"/>
</clipPath>
</defs>
</svg>
