<svg xmlns="http://www.w3.org/2000/svg" width="17" height="16" viewBox="0 0 17 16" fill="none">
  <path fill-rule="evenodd" clip-rule="evenodd" d="M14.5 11.5V11.5C14.5 12.8807 13.3807 14 12 14V14C10.6193 14 9.5 12.8807 9.5 11.5V11.5C9.5 10.1193 10.6193 9 12 9V9C13.3807 9 14.5 10.1193 14.5 11.5Z" stroke="#1D39C4" stroke-width="1.5" stroke-linecap="round" stroke-linejoin="round"/>
  <path fill-rule="evenodd" clip-rule="evenodd" d="M7.5 11.5V11.5C7.5 12.8807 6.38071 14 5 14V14C3.61929 14 2.5 12.8807 2.5 11.5V11.5C2.5 10.1193 3.61929 9 5 9V9C6.38071 9 7.5 10.1193 7.5 11.5Z" stroke="#1D39C4" stroke-width="1.5" stroke-linecap="round" stroke-linejoin="round"/>
  <path fill-rule="evenodd" clip-rule="evenodd" d="M14.5 4.5V4.5C14.5 5.88071 13.3807 7 12 7V7C10.6193 7 9.5 5.88071 9.5 4.5V4.5C9.5 3.11929 10.6193 2 12 2V2C13.3807 2 14.5 3.11929 14.5 4.5Z" stroke="#1D39C4" stroke-width="1.5" stroke-linecap="round" stroke-linejoin="round"/>
  <path fill-rule="evenodd" clip-rule="evenodd" d="M7.5 4.5V4.5C7.5 5.88071 6.38071 7 5 7V7C3.61929 7 2.5 5.88071 2.5 4.5V4.5C2.5 3.11929 3.61929 2 5 2V2C6.38071 2 7.5 3.11929 7.5 4.5Z" stroke="#1D39C4" stroke-width="1.5" stroke-linecap="round" stroke-linejoin="round"/>
</svg>