<svg width="24" height="24" viewBox="0 0 24 24" fill="none" xmlns="http://www.w3.org/2000/svg">
<path d="M10.091 8.15901C10.9697 9.03769 10.9697 10.4623 10.091 11.341C9.21231 12.2197 7.78769 12.2197 6.90901 11.341C6.03033 10.4623 6.03033 9.03769 6.90901 8.15901C7.78769 7.28033 9.21231 7.28033 10.091 8.15901" stroke="#666666" stroke-width="1.5" stroke-linecap="round" stroke-linejoin="round"/>
<path fill-rule="evenodd" clip-rule="evenodd" d="M2 18.5V5.541C2 4.414 2.914 3.5 4.041 3.5H20C21.105 3.5 22 4.395 22 5.5V18.5C22 19.605 21.105 20.5 20 20.5H4C2.895 20.5 2 19.605 2 18.5Z" stroke="#666666" stroke-width="1.5" stroke-linecap="round" stroke-linejoin="round"/>
<path d="M15 9.5H19" stroke="#666666" stroke-width="1.5" stroke-linecap="round" stroke-linejoin="round"/>
<path d="M17.4 13.5H15" stroke="#666666" stroke-width="1.5" stroke-linecap="round" stroke-linejoin="round"/>
<path d="M12.0948 16.5C11.9198 16.061 11.6498 15.667 11.3028 15.346V15.346C10.7158 14.802 9.94579 14.5 9.14579 14.5H7.85379C7.05379 14.5 6.28379 14.802 5.69679 15.346V15.346C5.34979 15.667 5.07979 16.061 4.90479 16.5" stroke="#666666" stroke-width="1.5" stroke-linecap="round" stroke-linejoin="round"/>
</svg>
