<svg width="24" height="24" viewBox="0 0 24 24" fill="none" xmlns="http://www.w3.org/2000/svg">
<path d="M17.625 2H6.375C3.95875 2 2 3.95875 2 6.375V17.625C2 20.0413 3.95875 22 6.375 22H17.625C20.0413 22 22 20.0413 22 17.625V6.375C22 3.95875 20.0413 2 17.625 2Z" fill="#E12A28"/>
<path d="M12.1783 7.72773L13.2004 10.7921L16.4306 10.8172C16.6113 10.8186 16.6861 11.0491 16.5409 11.1564L13.9422 13.0753L14.9166 16.1552C14.9711 16.3275 14.775 16.4699 14.628 16.3649L12 14.4865L9.37195 16.3649C9.225 16.47 9.02891 16.3275 9.0834 16.1553L10.0578 13.0754L7.45914 11.1564C7.31383 11.0491 7.38875 10.8186 7.56938 10.8172L10.7996 10.7922L11.8217 7.72777C11.8788 7.55637 12.1212 7.55637 12.1783 7.72773Z" fill="#FDCE0C"/>
</svg>
