<svg xmlns="http://www.w3.org/2000/svg" width="78" height="89" viewBox="0 0 78 89" fill="none">
    <path fill-rule="evenodd" clip-rule="evenodd"
        d="M67.0016 0.525146H0.5V79.6776H67.0016V0.525146ZM38.2804 15.2577H49.1199H59.9594V19.4316H38.2804V15.2577ZM38.2804 27.8638H59.9594V32.0377H38.2804V27.8638ZM38.2804 40.4695H59.9594V44.6434H38.2804V40.4695ZM38.2804 53.0756H59.9594V57.2495H38.2804V53.0756ZM7.70475 65.6812H59.9594V69.8551H7.70475V65.6812ZM69.7219 9.4975V13.4888H73.4999V84.6641H14.9984V81.8939H10.98V88.6699H77.5V9.49733L69.7219 9.4975ZM33.8824 31.9697C34.0251 32.3816 34.1159 32.8032 34.1159 33.2366C34.1159 37.2717 27.5532 40.5469 19.4583 40.5469C11.3634 40.5469 4.8007 37.2717 4.8007 33.2366C4.8007 32.8032 4.88947 32.3816 5.0341 31.9697C7.52284 34.8974 12.9713 36.8915 19.4583 36.8915C25.9448 36.8915 31.3936 34.8973 33.8824 31.9697ZM19.4583 41.7655C12.9713 41.7655 7.5229 39.7708 5.0341 36.8443C4.88941 37.2557 4.8007 37.6771 4.8007 38.1096C4.8007 42.1462 11.3633 45.4204 19.4583 45.4204C27.5532 45.4204 34.1159 42.1462 34.1159 38.1096C34.1159 37.6766 34.0251 37.2557 33.8824 36.8443C31.3937 39.7714 25.9448 41.7655 19.4583 41.7655ZM19.4583 46.639C12.9713 46.639 7.5229 44.6448 5.0341 41.7177C4.88941 42.1291 4.8007 42.5506 4.8007 42.9842C4.8007 47.0197 11.3633 50.2943 19.4583 50.2943C27.5532 50.2943 34.1159 47.0197 34.1159 42.9841C34.1159 42.5501 34.0251 42.1291 33.8824 41.7177C31.3937 44.6449 25.9448 46.639 19.4583 46.639ZM19.4583 51.5125C12.9713 51.5125 7.5229 49.5188 5.0341 46.5916C4.88941 47.0031 4.8007 47.4241 4.8007 47.8571C4.8007 51.8932 11.3633 55.1678 19.4583 55.1678C27.5532 55.1678 34.1159 51.8932 34.1159 47.8571C34.1159 47.4241 34.0251 47.0031 33.8824 46.5917C31.3937 49.5188 25.9448 51.5125 19.4583 51.5125ZM19.4583 56.3864C12.9713 56.3864 7.5229 54.3923 5.0341 51.4647C4.88941 51.8766 4.8007 52.298 4.8007 52.7311C4.8007 56.7666 11.3633 60.0417 19.4583 60.0417C27.5532 60.0417 34.1159 56.7666 34.1159 52.7311C34.1159 52.298 34.0251 51.8766 33.8824 51.4647C31.3937 54.3922 25.9448 56.3864 19.4583 56.3864ZM4.8007 28.3627C4.8007 24.3266 11.3633 21.052 19.4583 21.052C27.5532 21.052 34.1159 24.3266 34.1159 28.3627C34.1159 32.3982 27.5532 35.6734 19.4583 35.6734C11.3634 35.6734 4.8007 32.3982 4.8007 28.3627ZM22.0968 29.9861C22.0968 30.2286 21.892 30.4373 21.4811 30.6088C21.0712 30.7828 20.4273 30.8683 19.5561 30.8683C17.6931 30.8683 16.5959 30.4669 16.2636 29.6622L12.6853 30.0334C13.4079 31.3134 15.2815 32.0155 18.3087 32.1392V33.2366H20.6225V32.1343C22.438 32.0582 23.8261 31.8038 24.7877 31.3748C25.7497 30.9448 26.2311 30.4096 26.2311 29.7614C26.2311 29.3429 25.9967 28.9763 25.5324 28.6619C25.065 28.3501 24.4417 28.1027 23.6592 27.9251C22.8792 27.7481 21.8012 27.558 20.4273 27.3583C19.1764 27.1757 18.3586 27.0198 17.9789 26.8966C17.5972 26.7724 17.4066 26.5939 17.4066 26.3635C17.4066 26.1351 17.6043 25.9395 18.0012 25.7801C18.3939 25.6206 18.9193 25.5396 19.5732 25.5396C20.8751 25.5396 21.8341 25.8993 22.4567 26.6159L25.6447 26.0924C24.8834 25.0488 23.2085 24.4644 20.6224 24.3402V23.4891H18.3087V24.3407C16.5954 24.4382 15.3405 24.7023 14.5433 25.1333C13.7472 25.5638 13.3463 26.0521 13.3463 26.5918C13.3463 27.0012 13.5707 27.3628 14.0164 27.6741C14.4631 27.9839 15.0445 28.2248 15.7605 28.3964C16.4759 28.5674 17.4702 28.7438 18.7418 28.9194C20.1571 29.1191 21.0712 29.281 21.4811 29.4148C21.892 29.5425 22.0968 29.7331 22.0968 29.9861Z"
        fill="#1D39C4" />
</svg>