<svg xmlns="http://www.w3.org/2000/svg" width="88" height="87" viewBox="0 0 88 87" fill="none">
    <path
        d="M86.0472 57.1758C85.5385 57.1758 85.1122 56.8046 85.0435 56.3096C84.686 54.1646 83.8335 52.0746 82.5272 50.2734C82.2385 49.8609 82.2797 49.3109 82.6235 48.9396L84.026 47.5646L81.9085 45.4609L80.5197 46.8359C80.3272 47.0284 80.0797 47.1246 79.8047 47.1246C79.5847 47.1246 79.3785 47.0696 79.1997 46.9321C77.426 45.6534 75.3223 44.7871 73.1498 44.4159C72.6548 44.3471 72.2973 43.9209 72.2973 43.4259V41.4734H70.8673L70.8123 41.4872L70.661 41.4734H69.2998V43.4259C69.2998 43.9209 68.9285 44.3471 68.4335 44.4159C67.4985 44.5809 66.5773 44.8284 65.6835 45.1721C65.0648 45.3921 64.4735 45.6671 63.8823 45.9971C63.3735 46.2859 62.8648 46.6021 62.3698 46.9459C62.2048 47.0696 61.9986 47.1384 61.8061 47.1384C61.5311 47.1384 61.2698 47.0284 61.0636 46.8359L59.6886 45.4609L57.5711 47.5646L58.9598 48.9396C59.3173 49.2971 59.3586 49.8609 59.0836 50.2734C57.7636 52.0884 56.9248 54.1371 56.5536 56.3233C56.4848 56.8183 56.0586 57.1758 55.5636 57.1758H53.6111V60.1596H55.5636C56.0586 60.1596 56.4848 60.5308 56.5536 61.0258C56.9248 63.1983 57.7911 65.3021 59.0836 67.0896C59.3586 67.4883 59.3173 68.0521 58.9598 68.4096L57.5711 69.7846L59.6886 71.902L61.0636 70.5133C61.2561 70.3208 61.5311 70.2108 61.7923 70.2108C62.0123 70.2108 62.2186 70.2795 62.3973 70.4033C64.1985 71.7095 66.2885 72.562 68.4473 72.9333C68.9423 73.002 69.2998 73.4145 69.2998 73.9233V75.8758H70.7298L70.7985 75.862L70.9498 75.8758H72.2973V73.9233C72.2973 73.4283 72.6685 72.9883 73.1498 72.9333C75.3085 72.562 77.3985 71.6958 79.186 70.417C79.3647 70.2795 79.5847 70.2245 79.8047 70.2245C80.066 70.2245 80.3272 70.3208 80.5197 70.5133L81.9085 71.8883L84.0122 69.7846L82.6235 68.3958C82.266 68.0246 82.2247 67.4883 82.5272 67.0758C83.8335 65.2746 84.686 63.1846 85.0435 61.0258C85.1122 60.5308 85.5522 60.1596 86.0472 60.1596H87.9997V57.1758H86.0472ZM70.7848 69.2208C64.9685 69.2208 60.2386 64.5046 60.2386 58.6746C60.2386 52.8446 64.9548 48.1146 70.7848 48.1146C76.6147 48.1146 81.3447 52.8584 81.3447 58.6746C81.3447 64.4908 76.6147 69.2208 70.7848 69.2208Z"
        fill="#F57C00" />
    <path
        d="M70.7847 50.6021C66.3435 50.6021 62.7273 54.2321 62.7273 58.6734C62.7273 63.1146 66.3435 66.7308 70.7847 66.7308C75.226 66.7308 78.856 63.1146 78.856 58.6734C78.856 54.2321 75.2397 50.6021 70.7847 50.6021ZM0 83.5745C0 85.2108 0.811247 86.5445 1.81499 86.5445H4.79873C5.80248 86.5445 6.61373 85.2108 6.61373 83.5745V79.202H0V83.5745Z"
        fill="#2A2F64" />
    <path d="M6.61373 50.7944H0V76.2731H6.61373V50.7944Z" fill="#2A2F64" />
    <path
        d="M4.24864 40.125C4.11114 39.52 3.72614 39.1213 3.29989 39.1213C2.87364 39.1213 2.48864 39.5338 2.35114 40.125L0.274902 47.8662H6.33863L4.24864 40.125ZM56.7734 9.64136C56.7734 9.57261 56.7734 9.49011 56.7597 9.43511C56.7734 9.42136 56.7734 9.42136 56.7597 9.42136C56.7597 9.29762 56.7459 9.18762 56.7184 9.06387C56.4434 7.48262 55.0685 6.28638 53.4185 6.28638H45.7185C44.921 6.28638 44.261 5.62638 44.261 4.82888C44.261 2.46389 42.336 0.525146 39.9573 0.525146C37.5785 0.525146 35.6673 2.45014 35.6673 4.82888C35.6673 5.62638 35.0073 6.28638 34.2098 6.28638H26.5098C24.6536 6.28638 23.1411 7.79887 23.1411 9.65511V12.1439H56.7872V9.64136H56.7734Z"
        fill="#2A2F64" />
    <path
        d="M67.0999 76.892V75.1045L67.0449 74.857L66.8249 74.8158C66.5087 74.7333 66.1924 74.637 65.8899 74.5545L65.5049 74.4308V82.1445C65.5049 82.7907 64.9824 83.3132 64.3362 83.3132H15.5514C14.9051 83.3132 14.3826 82.7907 14.3826 82.1445V19.1972C14.3826 18.551 14.9051 18.0285 15.5514 18.0285H64.3499C64.9962 18.0285 65.5187 18.551 65.5187 19.1972V42.6271V42.9296L65.8074 42.8334L65.9037 42.8059C66.2199 42.6821 66.5637 42.5996 66.8799 42.5171L67.0999 42.4759V40.4546C67.0999 39.8084 67.6224 39.2859 68.2687 39.2859H69.6299V14.646C69.6299 13.0235 68.2962 11.7035 66.6737 11.7035H59.3862V13.5872C59.3862 14.2335 58.8637 14.756 58.2175 14.756H21.6426C20.9964 14.756 20.4739 14.2335 20.4739 13.5872V11.7035H13.1864C11.5364 11.7035 10.2439 12.996 10.2439 14.646V83.8907C10.2439 85.527 11.5364 86.8195 13.1864 86.8195H66.6874C68.3374 86.8195 69.6437 85.527 69.6437 83.8907V78.0607H68.2824C67.6362 78.0607 67.0999 77.5382 67.0999 76.892Z"
        fill="#2A2F64" />
    <path
        d="M58.6579 42.9712C58.9191 42.6962 59.3041 42.5312 59.7029 42.5312C60.0879 42.5312 60.4454 42.6962 60.7204 42.9712L61.9991 44.2224C62.2879 44.0437 62.5904 43.8649 62.8929 43.7274V20.655H17.0093V80.6873H62.8791V73.5923C62.5766 73.4411 62.2741 73.2761 61.9854 73.0973L60.7066 74.3486C60.4316 74.6236 60.0604 74.7748 59.6891 74.7748C59.2904 74.7748 58.9191 74.6236 58.6441 74.3486L55.0966 70.8011C54.5329 70.2373 54.5329 69.2886 55.0966 68.7248L56.3479 67.4736C55.4266 65.9611 54.7529 64.3248 54.3404 62.6336H52.5529C51.7554 62.6336 51.0954 61.9873 51.0954 61.1761V56.1436C51.0954 55.3461 51.7554 54.6861 52.5529 54.6861H54.3404C54.7529 52.9949 55.4404 51.3586 56.3479 49.8599L55.0966 48.5811C54.5329 48.0174 54.5329 47.0961 55.0966 46.5187L58.6579 42.9712ZM30.0442 65.9061L24.9017 71.0486C24.6267 71.3236 24.2555 71.4748 23.8568 71.4748C23.458 71.4748 23.1005 71.3236 22.8255 71.0486L20.5705 68.7936C20.0068 68.2298 20.0068 67.3086 20.5705 66.7173C21.1343 66.1536 22.0555 66.1536 22.6468 66.7173L23.8568 67.9411L27.9817 63.8161C28.5455 63.2523 29.4667 63.2523 30.0442 63.8161C30.608 64.4073 30.608 65.3286 30.0442 65.9061ZM30.0442 49.1861L24.9017 54.3286C24.613 54.6174 24.2418 54.7686 23.8568 54.7686C23.4718 54.7686 23.1143 54.6174 22.8255 54.3286L20.5705 52.0736C20.0068 51.5099 20.0068 50.5886 20.5705 50.0111C21.1343 49.4474 22.0555 49.4474 22.6468 50.0111L23.8568 51.2211L27.9817 47.1099C28.5455 46.5462 29.4667 46.5462 30.0442 47.1099C30.608 47.6874 30.608 48.6086 30.0442 49.1861ZM30.0442 32.37L24.9017 37.5262C24.613 37.8012 24.2418 37.9524 23.8568 37.9524C23.4718 37.9524 23.1143 37.8012 22.8255 37.5262L20.5705 35.2712C20.0068 34.7074 20.0068 33.7587 20.5705 33.195C21.1343 32.6312 22.0555 32.6312 22.6468 33.195L23.8568 34.4187L27.9817 30.2937C28.5455 29.73 29.4667 29.73 30.0442 30.2937C30.608 30.885 30.608 31.8062 30.0442 32.37ZM49.4042 68.9036H33.5642C32.7667 68.9036 32.1067 68.2436 32.1067 67.4461C32.1067 66.6486 32.7667 65.9886 33.5642 65.9886H49.4042C50.2292 65.9886 50.8617 66.6486 50.8617 67.4461C50.8617 68.2436 50.2154 68.9036 49.4042 68.9036ZM49.4042 52.1561H33.5642C32.7667 52.1561 32.1067 51.4961 32.1067 50.6986C32.1067 49.8736 32.7667 49.2411 33.5642 49.2411H49.4042C50.2292 49.2411 50.8617 49.8874 50.8617 50.6986C50.8617 51.4961 50.2154 52.1561 49.4042 52.1561ZM33.5642 35.3812C32.7667 35.3812 32.1067 34.7212 32.1067 33.9237C32.1067 33.1262 32.7667 32.4662 33.5642 32.4662H58.2866C59.1116 32.4662 59.7441 33.1262 59.7441 33.9237C59.7441 34.7212 59.0979 35.3812 58.2866 35.3812H33.5642Z"
        fill="#1D39C4" />
</svg>