<svg xmlns="http://www.w3.org/2000/svg" width="86" height="88" viewBox="0 0 86 88" fill="none">
    <path
        d="M63.9106 45.8643C64.27 45.8643 64.6147 45.7215 64.8689 45.4673C65.1231 45.2131 65.2659 44.8684 65.2659 44.5089C65.2659 44.1495 65.1231 43.8047 64.8689 43.5506C64.6147 43.2964 64.27 43.1536 63.9106 43.1536H60.6335V38.7707C60.6335 38.3661 60.3098 38.0424 59.8917 38.0424H53.7556C53.3645 38.0424 53.0274 38.3661 53.0274 38.7707V43.1536H50.1144V34.7788C50.111 34.5867 50.0331 34.4035 49.8973 34.2677C49.7615 34.1319 49.5782 34.054 49.3862 34.0506H43.2366C42.832 34.0506 42.5083 34.3877 42.5083 34.7788V43.1536H39.6088V30.787C39.6088 30.3824 39.2852 30.0587 38.8671 30.0587C33.7478 30.3015 32.0028 29.5085 32.0028 30.787V43.1536H29.0898V26.7951C29.0863 26.6031 29.0085 26.4198 28.8727 26.284C28.7368 26.1482 28.5536 26.0703 28.3615 26.0669H22.2119C21.8074 26.0669 21.4837 26.404 21.4837 26.7951V43.1536H18.5842V22.8033C18.5842 22.4122 18.2606 22.075 17.8425 22.075H11.7064C11.5143 22.0785 11.3311 22.1563 11.1953 22.2922C11.0594 22.428 10.9816 22.6112 10.9781 22.8033V43.1536H7.70104C7.34158 43.1536 6.99685 43.2964 6.74267 43.5506C6.4885 43.8047 6.3457 44.1495 6.3457 44.5089C6.3457 44.8684 6.4885 45.2131 6.74267 45.4673C6.99685 45.7215 7.34158 45.8643 7.70104 45.8643H63.9106ZM17.1952 49.8426H11.4097C9.35982 49.8426 7.70104 51.5149 7.70104 53.5513V59.3367C7.70104 61.3866 9.35982 63.0454 11.4097 63.0454H17.1952C19.2315 63.0454 20.9038 61.3866 20.9038 59.3367V53.5513C20.9038 51.5149 19.2315 49.8426 17.1952 49.8426ZM17.9369 55.736L14.6193 59.0535C14.3663 59.3041 14.0246 59.4446 13.6686 59.4446C13.3125 59.4446 12.9708 59.3041 12.7178 59.0535L10.9107 57.2464C10.3847 56.7205 10.3847 55.8709 10.9107 55.3449C11.4367 54.8189 12.2998 54.8189 12.8257 55.3449L13.6618 56.1945L16.0219 53.8345C16.1463 53.7064 16.2952 53.6046 16.4596 53.5351C16.6241 53.4656 16.8008 53.4298 16.9794 53.4298C17.1579 53.4298 17.3347 53.4656 17.4991 53.5351C17.6636 53.6046 17.8125 53.7064 17.9369 53.8345C18.4628 54.3604 18.4628 55.21 17.9369 55.736ZM17.1952 67.4823H11.4097C9.35982 67.4823 7.70104 69.141 7.70104 71.1909V76.9764C7.70104 79.0128 9.35982 80.685 11.4097 80.685H17.1952C19.2315 80.685 20.9038 79.0128 20.9038 76.9764V71.1909C20.9038 69.141 19.2315 67.4823 17.1952 67.4823ZM16.912 74.7782C17.4379 75.3041 17.4379 76.1672 16.912 76.6932C16.3995 77.2057 15.5404 77.2232 15.0104 76.6932L14.3092 75.9919L13.5944 76.6932C13.0658 77.2218 12.2054 77.2057 11.6929 76.6932C11.1669 76.1672 11.1669 75.3041 11.6929 74.7782L12.3942 74.0769L11.6929 73.3756C11.5679 73.2509 11.4687 73.1027 11.401 72.9395C11.3333 72.7764 11.2985 72.6015 11.2985 72.4249C11.2985 72.2483 11.3333 72.0734 11.401 71.9102C11.4687 71.7471 11.5679 71.5989 11.6929 71.4741C12.2188 70.9347 13.0685 70.9347 13.5944 71.4741L14.3092 72.1754L15.0104 71.4741C15.5364 70.9347 16.386 70.9347 16.912 71.4741C17.4379 72.0001 17.4379 72.8497 16.912 73.3756L16.2107 74.0769L16.912 74.7782ZM55.9673 29.3709L55.9269 29.5193C55.6099 30.7006 56.941 31.7903 58.1925 31.3129L61.1324 30.1531C62.0886 29.7876 62.3866 28.6333 61.7123 27.847L59.6625 25.4465C58.8452 24.4593 57.1136 24.7088 56.8169 25.959L56.6281 26.7412C41.9109 25.3953 27.5227 21.1742 15.3071 12.6483C15.1629 12.5463 14.9999 12.4736 14.8275 12.4347C14.6552 12.3957 14.4768 12.3911 14.3027 12.4212C14.1285 12.4512 13.9621 12.5154 13.8127 12.6099C13.6634 12.7044 13.5342 12.8275 13.4326 12.972C13.3301 13.1161 13.2572 13.2791 13.2181 13.4515C13.1789 13.6239 13.1742 13.8024 13.2043 13.9766C13.2344 14.1509 13.2986 14.3174 13.3934 14.4667C13.4881 14.616 13.6114 14.7451 13.7562 14.8465C25.2328 22.8977 39.4335 27.7931 55.9673 29.3709ZM62.8047 51.4475H29.0898C28.3481 51.4475 27.7412 52.0408 27.7412 52.7961C27.7412 53.5378 28.3481 54.1447 29.0898 54.1447H62.8047C63.5464 54.1447 64.1533 53.5378 64.1533 52.7961C64.1533 52.0408 63.5464 51.4475 62.8047 51.4475ZM47.9701 58.7434H29.0898C28.3481 58.7434 27.7412 59.3502 27.7412 60.092C27.7412 60.8472 28.3481 61.4406 29.0898 61.4406H47.9701C48.7119 61.4406 49.3187 60.8472 49.3187 60.092C49.3187 59.3502 48.7119 58.7434 47.9701 58.7434ZM47.9701 76.383H29.0898C28.3481 76.383 27.7412 76.9764 27.7412 77.7316C27.7412 78.4733 28.3481 79.0802 29.0898 79.0802H47.9701C48.7119 79.0802 49.3187 78.4733 49.3187 77.7316C49.3187 76.9764 48.7119 76.383 47.9701 76.383ZM74.025 16.3435C73.4276 17.1607 73.4263 18.628 74.025 19.4453C74.3352 19.8498 74.7533 20.0521 75.2927 20.0521C75.8321 20.0521 76.2637 19.8498 76.5604 19.4453C77.1753 18.6428 77.1807 17.1526 76.5604 16.3435C76.2637 15.9389 75.8321 15.7366 75.2927 15.7366C74.7533 15.7366 74.3352 15.9389 74.025 16.3435ZM66.3515 9.24987C65.7298 10.0617 65.7419 11.556 66.3515 12.3516C66.6482 12.7562 67.0663 12.9585 67.6192 12.9585C68.1586 12.9585 68.5767 12.7562 68.8869 12.3516C69.3966 11.8297 69.5666 10.1764 68.8869 9.24987C68.5632 8.83181 68.1249 8.64301 67.6192 8.64301C67.0663 8.64301 66.6482 8.84529 66.3515 9.24987Z"
        fill="#1D39C4" />
    <path
        d="M71.6105 55.1838V28.0905C79.1087 27.9826 85.1908 21.833 85.1908 14.3078C85.1908 6.71521 79.0008 0.525146 71.4082 0.525146C69.2639 0.525146 67.241 1.01064 65.4339 1.88723C64.2336 1.38825 62.9255 1.11853 61.5634 1.11853H10.0336C4.50431 1.11853 0 5.62284 0 11.1521V77.3817C0 82.9244 4.50431 87.4287 10.0336 87.4287H61.5634C62.885 87.4287 64.1392 87.1725 65.299 86.714C66.742 87.1455 68.2794 87.3748 69.8708 87.3748C78.7715 87.3748 86 80.1328 86 71.2321C86 62.9247 79.702 56.0604 71.6105 55.1838ZM69.8708 84.6776C67.9228 84.677 65.9982 84.2532 64.2301 83.4355C62.462 82.6178 60.8927 81.4258 59.6307 79.9419C58.3687 78.458 57.4441 76.7177 56.9209 74.8412C56.3977 72.9648 56.2884 70.9971 56.6006 69.0743C57.6458 62.6145 63.264 57.7866 69.8708 57.7866C77.5065 57.7866 83.3028 64.0508 83.3028 71.2321C83.3028 78.6494 77.2746 84.6776 69.8708 84.6776ZM10.0336 84.7315C5.98777 84.7315 2.69719 81.4275 2.69719 77.3817V11.1521C2.69719 7.1063 5.98777 3.81572 10.0336 3.81572H61.5634C61.8601 3.81572 62.1433 3.82921 62.4265 3.86967C60.9198 5.15946 59.7104 6.76042 58.8816 8.56235C58.0528 10.3643 57.6243 12.3244 57.6255 14.3078C57.6255 21.0508 62.494 26.6879 68.9133 27.8612V55.1298C61.1723 55.5749 54.8879 61.4952 53.8764 69.0743H29.0892C28.3475 69.0743 27.7406 69.6812 27.7406 70.4229C27.7406 71.1646 28.3475 71.7715 29.0892 71.7715H53.7416C53.9169 77.1929 56.7759 81.9399 61.0375 84.7315H10.0336ZM70.653 10.8015C70.653 11.9073 70.3064 12.7219 69.8708 13.2289C69.2733 13.9167 68.5222 14.1864 67.6186 14.1864C66.6341 14.1864 65.8924 13.8628 65.3665 13.2289C64.827 12.5951 64.5708 11.7859 64.5708 10.8015C64.5708 9.81698 64.827 9.00782 65.3665 8.36049C65.8924 7.72665 66.6341 7.40299 67.6186 7.40299C68.4413 7.40299 69.1763 7.6363 69.7494 8.22563C70.2646 8.74619 70.653 9.62817 70.653 10.8015ZM77.5443 20.3225C77.0183 20.9564 76.2631 21.2801 75.2921 21.2801C74.3211 21.2801 73.5794 20.9564 73.04 20.3225C71.9692 19.0319 71.9746 16.7515 73.04 15.4676C73.5794 14.8203 74.3211 14.5101 75.2921 14.5101C76.2631 14.5101 77.0183 14.8203 77.5443 15.4676C78.6137 16.7231 78.6137 19.0657 77.5443 20.3225ZM75.7776 7.71317C76.0163 7.89792 75.9894 8.2607 75.8316 8.5493L68.185 20.7946C67.9221 21.1614 67.5404 21.249 67.1736 20.9564C67.0712 20.859 67.0058 20.7292 66.9886 20.589C66.9714 20.4487 67.0034 20.3069 67.0792 20.1877L74.7797 7.86151C74.833 7.78316 74.902 7.71671 74.9823 7.66634C75.0626 7.61596 75.1524 7.58276 75.2462 7.56883C75.3399 7.55489 75.4355 7.56052 75.527 7.58536C75.6185 7.61021 75.7038 7.65372 75.7776 7.71317Z"
        fill="#00194F" />
    <path
        d="M79.8363 69.6674C78.9867 69.6674 78.2855 70.3822 78.2855 71.2453C78.2855 71.6602 78.4503 72.0581 78.7437 72.3515C79.037 72.6449 79.4349 72.8097 79.8498 72.8097C80.2647 72.8097 80.6626 72.6449 80.956 72.3515C81.2494 72.0581 81.4142 71.6602 81.4142 71.2453C81.4142 70.3822 80.7129 69.6674 79.8363 69.6674ZM59.8636 69.6674C58.9628 69.6674 58.3127 70.451 58.3127 71.2453C58.3127 71.6602 58.4776 72.0581 58.7709 72.3515C59.0643 72.6449 59.4622 72.8097 59.8771 72.8097C60.292 72.8097 60.6899 72.6449 60.9833 72.3515C61.2767 72.0581 61.4415 71.6602 61.4415 71.2453C61.4415 70.4254 60.7739 69.6674 59.8636 69.6674ZM72.8102 71.7713C72.4595 71.6229 72.0684 71.4881 71.6099 71.3397C71.2728 71.2453 70.9086 71.1509 70.5175 71.0565V66.4713C71.4731 66.5096 72.418 66.6868 73.3226 66.9972C73.9335 67.2427 74.4015 66.7787 74.4015 66.269C74.4015 65.8779 74.2262 65.6217 73.8621 65.5003C73.1878 65.2306 72.4326 65.0552 71.6099 64.9608C71.2593 64.9069 70.8951 64.8799 70.5175 64.8664V63.5313C70.5179 63.4533 70.5028 63.376 70.4731 63.3038C70.4434 63.2317 70.3997 63.1661 70.3445 63.1109C70.2894 63.0558 70.2238 63.0121 70.1517 62.9824C70.0795 62.9527 70.0022 62.9376 69.9242 62.9379C69.56 62.9379 69.3443 63.2212 69.3443 63.5313V64.8799C69.1959 64.8934 69.0476 64.9069 68.9127 64.9339C67.196 65.1888 66.1036 66.0127 65.5412 66.9568C64.8979 68.0828 64.8494 69.658 65.6491 70.6789C66.4569 71.6742 67.6046 72.0868 68.9127 72.4456C69.0476 72.486 69.1959 72.5265 69.3443 72.5669V76.9903C69.1959 76.9903 69.0476 76.9768 68.9127 76.9499C67.9282 76.8824 66.9842 76.6397 66.0807 76.2216C65.6586 76.0814 65.3443 76.1758 65.1366 76.3835C64.7375 76.8636 64.9236 77.5028 65.4603 77.7455C66.4987 78.1906 67.6181 78.4738 68.8048 78.5952C68.9801 78.6221 69.1555 78.6356 69.3443 78.6491V80.0112C69.3443 80.3847 69.5803 80.5911 69.9242 80.5911C70.2788 80.5911 70.5175 80.3605 70.5175 80.0112V78.6491C70.8817 78.6221 71.2188 78.5817 71.5425 78.5008C72.0145 78.4198 72.446 78.2715 72.8506 78.0827C73.5249 77.759 74.0509 77.314 74.415 76.7611C74.7791 76.2081 74.9544 75.6013 74.9544 74.9135C74.9544 74.0908 74.7521 73.4165 74.3476 72.9041C73.9366 72.4052 73.4084 72.016 72.8102 71.7713ZM69.3443 70.7598C69.1959 70.7194 69.0476 70.6789 68.9127 70.6384C68.2789 70.4496 67.7934 70.2339 67.4562 69.9776C66.5877 69.3532 66.5702 67.9763 67.4967 67.24C67.8608 66.9433 68.3463 66.7275 68.9127 66.6061C69.0476 66.5792 69.1959 66.5522 69.3443 66.5387V70.7598ZM71.6099 76.815C71.2997 76.9094 70.9356 76.9634 70.5175 76.9903V72.8636C71.1244 73.0201 72.005 73.3181 72.5404 73.6458C73.5896 74.2621 73.5775 76.2486 71.6099 76.815Z"
        fill="#1D39C4" />
</svg>