<svg xmlns="http://www.w3.org/2000/svg" width="41" height="40" viewBox="0 0 41 40" fill="none">
  <path d="M34.4757 15.5864C34.9309 17.0136 35.1659 18.5019 35.1727 19.9999C35.1727 28.2876 28.4541 35.0062 20.1664 35.0062C11.8787 35.0062 5.16016 28.2876 5.16016 19.9999C5.16016 11.7122 11.8787 4.99365 20.1664 4.99365C21.6644 5.00042 23.1527 5.23544 24.5799 5.69061" stroke="#160677" stroke-width="2.5" stroke-linecap="round" stroke-linejoin="round"/>
  <path d="M35.173 7.11816L31.8583 10.4329L29.7324 8.30699" stroke="#160677" stroke-width="2.5" stroke-linecap="round" stroke-linejoin="round"/>
  <path d="M12.8848 17.8757C12.8848 16.5183 13.9851 15.418 15.3425 15.418C16.6998 15.418 17.8001 16.5183 17.8001 17.8757C17.8001 20.9469 12.8848 20.9469 12.8848 24.5851H17.8001" stroke="#160677" stroke-width="2.5" stroke-linecap="round" stroke-linejoin="round"/>
  <path d="M26.0557 24.5854V16.2686C26.0574 15.8896 25.8074 15.5554 25.4433 15.45C25.0792 15.3446 24.6893 15.4937 24.4884 15.8151C23.4429 17.5058 22.3025 19.425 21.317 21.1207C21.1531 21.4044 21.1535 21.7542 21.3181 22.0376C21.4827 22.321 21.7863 22.4947 22.114 22.4929H27.4479" stroke="#160677" stroke-width="2.5" stroke-linecap="round" stroke-linejoin="round"/>
</svg>