<svg xmlns="http://www.w3.org/2000/svg" width="48" height="48" viewBox="0 0 48 48" fill="none">
  <path d="M40.5195 0H7.48053C3.34915 0 0 3.43845 0 7.68V40.32C0 44.5615 3.34915 48 7.48053 48H40.5195C44.6509 48 48 44.5615 48 40.32V7.68C48 3.43845 44.6509 0 40.5195 0Z" fill="#D1F5FF"/>
  <path d="M7.0649 7.46681C7.86822 7.46681 8.51944 6.79822 8.51944 5.97348C8.51944 5.14873 7.86822 4.48015 7.0649 4.48015C6.26157 4.48015 5.61035 5.14873 5.61035 5.97348C5.61035 6.79822 6.26157 7.46681 7.0649 7.46681Z" fill="black"/>
  <path d="M12.8833 7.46681C13.6866 7.46681 14.3378 6.79822 14.3378 5.97348C14.3378 5.14873 13.6866 4.48015 12.8833 4.48015C12.0799 4.48015 11.4287 5.14873 11.4287 5.97348C11.4287 6.79822 12.0799 7.46681 12.8833 7.46681Z" fill="black"/>
  <path d="M18.7016 7.46681C19.5049 7.46681 20.1562 6.79822 20.1562 5.97348C20.1562 5.14873 19.5049 4.48015 18.7016 4.48015C17.8983 4.48015 17.2471 5.14873 17.2471 5.97348C17.2471 6.79822 17.8983 7.46681 18.7016 7.46681Z" fill="black"/>
  <path opacity="0.626674" d="M42.1825 23.8941H30.1305C29.442 23.8941 28.8838 24.4672 28.8838 25.1741V25.6008C28.8838 26.3077 29.442 26.8808 30.1305 26.8808H42.1825C42.871 26.8808 43.4292 26.3077 43.4292 25.6008V25.1741C43.4292 24.4672 42.871 23.8941 42.1825 23.8941Z" fill="#199FD8"/>
  <path opacity="0.5" d="M42.1825 17.92H30.1305C29.442 17.92 28.8838 18.4931 28.8838 19.2V19.6267C28.8838 20.3336 29.442 20.9067 30.1305 20.9067H42.1825C42.871 20.9067 43.4292 20.3336 43.4292 19.6267V19.2C43.4292 18.4931 42.871 17.92 42.1825 17.92Z" fill="black"/>
  <path d="M37.8189 29.8665H30.1305C29.442 29.8665 28.8838 30.4396 28.8838 31.1465V31.5732C28.8838 32.2801 29.442 32.8532 30.1305 32.8532H37.8189C38.5074 32.8532 39.0656 32.2801 39.0656 31.5732V31.1465C39.0656 30.4396 38.5074 29.8665 37.8189 29.8665Z" fill="#1A6B8E"/>
  <rect x="5" y="16" width="19" height="19" rx="2" fill="#199FD8"/>
  <path d="M14.7038 21.2014L12.4512 20.3567C11.9283 20.1606 11.3462 20.4308 11.1583 20.9567L9.30448 26.1475C9.13164 26.6314 9.35373 27.1676 9.81813 27.3875L17.6808 31.112C18.1457 31.3322 18.7017 31.1638 18.9664 30.7227L19.5983 29.6695C19.8344 29.276 19.7724 28.7724 19.4479 28.4479L15.3784 24.3784C15.142 24.142 15.0394 23.8031 15.105 23.4752L15.3332 22.3339C15.4294 21.8531 15.1628 21.3736 14.7038 21.2014Z" fill="black"/>
</svg>