<svg xmlns="http://www.w3.org/2000/svg" width="41" height="40" viewBox="0 0 41 40" fill="none">
  <path d="M2.7091 18.8676C2.7091 19.1007 2.64857 19.3285 2.53517 19.5223C2.42176 19.716 2.26058 19.8671 2.072 19.9563C1.88342 20.0455 1.67591 20.0688 1.47572 20.0233C1.27552 19.9779 1.09163 19.8656 0.947296 19.7008C0.802962 19.536 0.704673 19.3261 0.664851 19.0975C0.62503 18.8689 0.645464 18.632 0.723577 18.4166C0.801689 18.2013 0.933969 18.0173 1.10369 17.8878C1.2734 17.7583 1.47294 17.6892 1.67706 17.6892C1.95077 17.6892 2.21328 17.8134 2.40682 18.0344C2.60037 18.2553 2.7091 18.5551 2.7091 18.8676Z" fill="white"/>
  <path d="M24.1627 30.438H16.0322C16.0322 30.438 16.2288 37.5532 13.7598 39.9997H26.4352C23.9681 37.5532 24.1627 30.438 24.1627 30.438Z" fill="#C9CBCC"/>
  <path d="M38.5832 0H2.4225C1.36397 0 0.505859 0.97979 0.505859 2.18842V29.2822C0.505859 30.4908 1.36397 31.4706 2.4225 31.4706H38.5832C39.6417 31.4706 40.4999 30.4908 40.4999 29.2822V2.18842C40.4999 0.97979 39.6417 0 38.5832 0Z" fill="#414042"/>
  <path d="M38.2645 2.39502H2.74072V23.9964H38.2645V2.39502Z" fill="white"/>
  <path d="M40.4999 26.2744V29.2821C40.4983 29.8619 40.2959 30.4175 39.9368 30.8276C39.5777 31.2376 39.0911 31.4687 38.5832 31.4705H2.41468C1.90701 31.4687 1.42061 31.2375 1.06182 30.8274C0.703032 30.4173 0.501037 29.8617 0.5 29.2821V26.2744H40.4999Z" fill="#DBE6EB"/>
  <path d="M33.1144 4.90015H7.88557C7.12034 4.90015 6.5 5.53458 6.5 6.31718V21.1651C6.5 21.9477 7.12034 22.5822 7.88557 22.5822H33.1144C33.8796 22.5822 34.4999 21.9477 34.4999 21.1651V6.31718C34.4999 5.53458 33.8796 4.90015 33.1144 4.90015Z" fill="#00194F"/>
  <path d="M16.743 15.6211C16.6986 15.6205 16.6556 15.6053 16.6203 15.5777C16.585 15.5502 16.5593 15.5117 16.5471 15.4681L14.4776 7.98946H11.4429C11.3881 7.98946 11.3356 7.9672 11.2968 7.92758C11.2581 7.88795 11.2363 7.83421 11.2363 7.77818C11.2363 7.72214 11.2581 7.6684 11.2968 7.62878C11.3356 7.58915 11.3881 7.56689 11.4429 7.56689H14.6486C14.6939 7.56752 14.7378 7.58311 14.7738 7.61133C14.8097 7.63956 14.8358 7.67892 14.8481 7.72353L16.9104 15.1912L23.8454 14.7869L24.8926 9.72705H16.0912C16.0364 9.72705 15.9838 9.7048 15.9451 9.66517C15.9063 9.62555 15.8846 9.57181 15.8846 9.51578C15.8846 9.45974 15.9063 9.406 15.9451 9.36638C15.9838 9.32676 16.0364 9.3045 16.0912 9.3045H25.1312C25.1621 9.30476 25.1925 9.31209 25.2203 9.32596C25.248 9.33983 25.2723 9.35988 25.2915 9.38464C25.3106 9.40888 25.3243 9.43707 25.3317 9.46726C25.339 9.49745 25.3399 9.52892 25.3342 9.55949L24.2016 15.0236C24.1929 15.0691 24.1696 15.1103 24.1354 15.1407C24.1012 15.171 24.058 15.1888 24.0128 15.1912L16.7572 15.6138L16.743 15.6211Z" fill="white"/>
  <path d="M24.6336 17.2854H16.9863C16.8346 17.2994 16.6818 17.2819 16.5369 17.234C16.392 17.1862 16.258 17.1089 16.1429 17.0069C16.0279 16.9049 15.9341 16.7802 15.8673 16.6403C15.8004 16.5004 15.7619 16.3481 15.7538 16.1926C15.7499 16.0596 15.7726 15.9272 15.8203 15.8035C15.8681 15.6798 15.94 15.5673 16.0316 15.4728C16.1232 15.3784 16.2327 15.3041 16.3534 15.2544C16.474 15.2046 16.6033 15.1805 16.7334 15.1836C16.7608 15.1805 16.7886 15.1834 16.8149 15.1921C16.8412 15.2007 16.8654 15.215 16.8859 15.2339C16.9064 15.2529 16.9228 15.276 16.934 15.3018C16.9451 15.3277 16.9508 15.3557 16.9506 15.3839C16.9527 15.4391 16.9338 15.493 16.898 15.5344C16.8622 15.5758 16.8121 15.6015 16.7583 15.6061C16.6814 15.6 16.604 15.6104 16.5313 15.6367C16.4586 15.6631 16.392 15.7047 16.336 15.7589C16.2799 15.8131 16.2356 15.8788 16.2059 15.9516C16.1762 16.0244 16.1617 16.1028 16.1635 16.1817C16.1727 16.2817 16.2015 16.3787 16.2482 16.4671C16.295 16.5554 16.3587 16.6332 16.4355 16.6958C16.5123 16.7583 16.6007 16.8044 16.6953 16.8313C16.7899 16.8581 16.8889 16.8651 16.9863 16.852H24.6336C24.6628 16.848 24.6924 16.8505 24.7206 16.8592C24.7487 16.8679 24.7747 16.8827 24.7969 16.9025C24.819 16.9224 24.8367 16.9468 24.8488 16.9742C24.861 17.0016 24.8673 17.0313 24.8673 17.0614C24.8673 17.0915 24.861 17.1212 24.8488 17.1486C24.8367 17.176 24.819 17.2005 24.7969 17.2203C24.7747 17.2401 24.7487 17.2549 24.7206 17.2636C24.6924 17.2723 24.6628 17.2748 24.6336 17.2709V17.2854Z" fill="white"/>
  <path d="M20.2947 15.413C20.2405 15.412 20.1888 15.3893 20.1509 15.3498C20.1129 15.3103 20.0916 15.2571 20.0916 15.2017V9.51534C20.0878 9.48551 20.0902 9.45519 20.0987 9.42639C20.1072 9.3976 20.1217 9.37101 20.1411 9.34838C20.1605 9.32576 20.1844 9.30763 20.2112 9.29521C20.2379 9.28279 20.267 9.27637 20.2964 9.27637C20.3258 9.27637 20.3549 9.28279 20.3817 9.29521C20.4085 9.30763 20.4324 9.32576 20.4518 9.34838C20.4712 9.37101 20.4856 9.3976 20.4942 9.42639C20.5027 9.45519 20.5051 9.48551 20.5012 9.51534V15.2017C20.5012 15.2577 20.4795 15.3115 20.4407 15.3511C20.402 15.3907 20.3494 15.413 20.2947 15.413Z" fill="white"/>
  <path d="M18.6105 15.5118C18.5601 15.5121 18.5115 15.4932 18.474 15.4589C18.4365 15.4246 18.4127 15.3772 18.4074 15.326L17.72 9.54128C17.714 9.48575 17.7297 9.43005 17.7638 9.38636C17.7978 9.34267 17.8474 9.31454 17.9017 9.30814C17.9284 9.30458 17.9555 9.30648 17.9814 9.31374C18.0074 9.321 18.0317 9.33346 18.0529 9.35041C18.0741 9.36736 18.0918 9.38846 18.105 9.41247C18.1182 9.43648 18.1265 9.46293 18.1296 9.49028L18.8135 15.275C18.8206 15.3306 18.8058 15.3867 18.7724 15.4311C18.739 15.4755 18.6897 15.5045 18.6354 15.5118H18.6105Z" fill="white"/>
  <path d="M22.4114 15.2929H22.3936C22.3669 15.2906 22.3409 15.2829 22.3171 15.2703C22.2933 15.2577 22.2722 15.2404 22.255 15.2194C22.2378 15.1984 22.2248 15.1741 22.2168 15.148C22.2088 15.1218 22.2059 15.0943 22.2084 15.067L22.6821 9.48996C22.6817 9.46046 22.6874 9.43121 22.6988 9.40409C22.7102 9.37698 22.727 9.3526 22.7481 9.33253C22.7693 9.31247 22.7943 9.29715 22.8216 9.28757C22.8489 9.27799 22.8778 9.27436 22.9066 9.27692C22.9353 9.27947 22.9632 9.28816 22.9885 9.30241C23.0137 9.31667 23.0358 9.33617 23.0532 9.35967C23.0707 9.38317 23.0831 9.41015 23.0897 9.43886C23.0964 9.46758 23.097 9.49739 23.0917 9.52639L22.618 15.0925C22.6144 15.1464 22.5912 15.1968 22.5529 15.234C22.5146 15.2711 22.4641 15.2921 22.4114 15.2929Z" fill="white"/>
  <path d="M24.6334 11.8032H15.6895C15.6625 11.8037 15.6358 11.7987 15.6107 11.7884C15.5857 11.7782 15.5629 11.763 15.5436 11.7437C15.5244 11.7244 15.5091 11.7013 15.4987 11.6759C15.4883 11.6504 15.4829 11.6231 15.4829 11.5956C15.4829 11.5678 15.4883 11.5403 15.4986 11.5147C15.509 11.4891 15.5242 11.4658 15.5434 11.4462C15.5626 11.4265 15.5854 11.411 15.6104 11.4004C15.6355 11.3897 15.6624 11.3843 15.6895 11.3843H24.6334C24.6605 11.3843 24.6874 11.3897 24.7124 11.4004C24.7375 11.411 24.7603 11.4265 24.7795 11.4462C24.7986 11.4658 24.8139 11.4891 24.8242 11.5147C24.8346 11.5403 24.84 11.5678 24.84 11.5956C24.84 11.6231 24.8346 11.6504 24.8242 11.6759C24.8138 11.7013 24.7985 11.7244 24.7792 11.7437C24.76 11.763 24.7372 11.7782 24.7122 11.7884C24.6871 11.7987 24.6603 11.8037 24.6334 11.8032Z" fill="white"/>
  <path d="M24.3258 13.6247H16.1905C16.1357 13.6247 16.0831 13.6024 16.0444 13.5628C16.0056 13.5232 15.9839 13.4695 15.9839 13.4134C15.9839 13.3574 16.0056 13.3037 16.0444 13.264C16.0831 13.2244 16.1357 13.2021 16.1905 13.2021H24.3258C24.3806 13.2021 24.4331 13.2244 24.4719 13.264C24.5106 13.3037 24.5324 13.3574 24.5324 13.4134C24.5324 13.4695 24.5106 13.5232 24.4719 13.5628C24.4331 13.6024 24.3806 13.6247 24.3258 13.6247Z" fill="white"/>
  <path d="M18.9911 18.8118C18.9911 19.028 18.9285 19.2393 18.811 19.419C18.6936 19.5987 18.5267 19.7388 18.3315 19.8215C18.1362 19.9042 17.9214 19.9258 17.7141 19.8837C17.5068 19.8415 17.3164 19.7374 17.167 19.5846C17.0175 19.4317 16.9158 19.237 16.8745 19.025C16.8333 18.813 16.8545 18.5933 16.9353 18.3936C17.0162 18.1939 17.1532 18.0232 17.3289 17.9032C17.5046 17.7831 17.7112 17.719 17.9226 17.719C18.206 17.719 18.4778 17.8341 18.6782 18.0391C18.8785 18.244 18.9911 18.522 18.9911 18.8118Z" fill="white"/>
  <path d="M24.2138 18.8118C24.2138 19.028 24.1511 19.2393 24.0337 19.419C23.9163 19.5987 23.7494 19.7388 23.5541 19.8215C23.3589 19.9042 23.144 19.9258 22.9367 19.8837C22.7295 19.8415 22.5391 19.7374 22.3896 19.5846C22.2402 19.4317 22.1384 19.237 22.0972 19.025C22.056 18.813 22.0771 18.5933 22.158 18.3936C22.2389 18.1939 22.3758 18.0232 22.5516 17.9032C22.7273 17.7831 22.9339 17.719 23.1452 17.719C23.4286 17.719 23.7004 17.8341 23.9008 18.0391C24.1012 18.244 24.2138 18.522 24.2138 18.8118Z" fill="white"/>
</svg>