<svg xmlns="http://www.w3.org/2000/svg" width="61" height="60" viewBox="0 0 61 60" fill="none">
  <g clip-path="url(#clip0_94_959)">
    <path d="M53.6368 15.907H1V59.7275H53.6368V15.907Z" fill="#175CFF"/>
    <path d="M4.5166 56.5315V49.5002H23.2666V56.5315H4.5166Z" fill="white" fill-opacity="0.7"/>
    <path d="M6.77246 51.5461H16.9238M6.77246 54.6143H14.7485" stroke="#2A50A8" stroke-linecap="round"/>
    <path d="M43.4333 12H13.4007L1 15.9067H53.6368L43.4333 12Z" fill="#2B50A8"/>
    <path d="M19.418 15.9084H33.1359L31.1731 12.0002H21.0217L19.418 15.9084Z" fill="#BEC6D8"/>
    <path d="M33.1359 15.9084H19.418V33.3071H33.1359V15.9084Z" fill="white"/>
    <path fill-rule="evenodd" clip-rule="evenodd" d="M49.5 0C52.55 0 55.4751 1.2116 57.6317 3.36827C59.7884 5.52494 61 8.45001 61 11.5C61 17.8513 55.8513 23 49.5 23C43.1487 23 38 17.8513 38 11.5C38 5.14873 43.1487 0 49.5 0ZM49.5 6.82812H48.7812V12.9375L52.0156 15.4531L52.375 14.7344L49.5 12.5781V6.82812Z" fill="#FF8030"/>
    <path d="M49.5 6.82812H48.7812V12.9375L52.0156 15.4531L52.375 14.7344L49.5 12.5781V6.82812Z" fill="#102042"/>
    <path d="M47.7812 13.4266L48.1673 13.7269L51.4017 16.2425L52.3645 16.9914L52.9101 15.9003L53.2694 15.1816L53.6427 14.4351L52.975 13.9344L50.5 12.0781V6.82812V5.82812H49.5H48.7812H47.7812V6.82812V12.9375V13.4266ZM49.5 1C52.2848 1 54.9555 2.10625 56.9246 4.07538C58.8938 6.04451 60 8.71523 60 11.5C60 17.299 55.299 22 49.5 22C43.701 22 39 17.299 39 11.5C39 5.70101 43.701 1 49.5 1Z" stroke="white" stroke-width="2"/>
  </g>
  <defs>
    <clipPath id="clip0_94_959">
      <rect width="60" height="60" fill="white" transform="translate(0.5)"/>
    </clipPath>
  </defs>
</svg>