<svg width="48" height="48" viewBox="0 0 48 48" fill="none" xmlns="http://www.w3.org/2000/svg">
<path d="M40.5195 0H7.48053C3.34915 0 0 3.43845 0 7.68V40.32C0 44.5615 3.34915 48 7.48053 48H40.5195C44.6509 48 48 44.5615 48 40.32V7.68C48 3.43845 44.6509 0 40.5195 0Z" fill="#D1F5FF"/>
<path d="M7.0649 7.46681C7.86822 7.46681 8.51944 6.79822 8.51944 5.97348C8.51944 5.14874 7.86822 4.48015 7.0649 4.48015C6.26157 4.48015 5.61035 5.14874 5.61035 5.97348C5.61035 6.79822 6.26157 7.46681 7.0649 7.46681Z" fill="black"/>
<path d="M12.8833 7.46681C13.6866 7.46681 14.3378 6.79822 14.3378 5.97348C14.3378 5.14874 13.6866 4.48015 12.8833 4.48015C12.0799 4.48015 11.4287 5.14874 11.4287 5.97348C11.4287 6.79822 12.0799 7.46681 12.8833 7.46681Z" fill="black"/>
<path d="M18.7016 7.46681C19.5049 7.46681 20.1562 6.79822 20.1562 5.97348C20.1562 5.14874 19.5049 4.48015 18.7016 4.48015C17.8983 4.48015 17.2471 5.14874 17.2471 5.97348C17.2471 6.79822 17.8983 7.46681 18.7016 7.46681Z" fill="black"/>
<path fill-rule="evenodd" clip-rule="evenodd" d="M18.6434 29.6203L16.8525 21.1667H31.5829C32.3424 21.1667 32.8989 21.8795 32.7145 22.6168L31.1419 28.9075C30.9027 29.863 30.0907 30.5653 29.1107 30.6633L21.1587 31.459C19.9734 31.5768 18.8895 30.7847 18.6434 29.6203Z" fill="#199FD8" stroke="#199FD8" stroke-width="2" stroke-linecap="round" stroke-linejoin="round"/>
<path d="M16.8527 21.1667L16.0943 17.6667H14.083" stroke="#199FD8" stroke-width="2" stroke-linecap="round" stroke-linejoin="round"/>
<path d="M29.6523 33.3906C29.4166 33.3906 29.2253 33.5819 29.2276 33.8176C29.2276 34.0533 29.419 34.2446 29.6546 34.2446C29.8903 34.2446 30.0816 34.0533 30.0816 33.8176C30.0805 33.5819 29.8891 33.3906 29.6523 33.3906" stroke="black" stroke-width="2" stroke-linecap="round" stroke-linejoin="round"/>
<path d="M19.8921 34.247C19.6565 34.247 19.4651 34.4384 19.4675 34.674C19.4651 34.9109 19.6576 35.1022 19.8933 35.1022C20.129 35.1022 20.3203 34.9109 20.3203 34.6752C20.3203 34.4384 20.129 34.247 19.8921 34.247" stroke="black" stroke-width="2" stroke-linecap="round" stroke-linejoin="round"/>
<path d="M24.123 14.8617L24.6336 16.6184" stroke="black" stroke-linecap="round"/>
<path d="M27.5732 13.7755L26.806 16.2267" stroke="black" stroke-linecap="round"/>
<path d="M30.3818 15.5934L29.1132 16.7894" stroke="black" stroke-linecap="round"/>
</svg>
