<svg xmlns="http://www.w3.org/2000/svg" width="81" height="25" viewBox="0 0 81 25" fill="none">
  <path fill-rule="evenodd" clip-rule="evenodd" d="M79.1976 24.9735H69.2464L66.6406 21.5893L71.665 14.9414L79.1976 24.9735Z" fill="#00194F"/>
  <path fill-rule="evenodd" clip-rule="evenodd" d="M77.3313 5.16489L71.6611 12.8459L67.2295 6.75541H72.8787L73.9688 5.16489H77.3313Z" fill="#00194F"/>
  <path fill-rule="evenodd" clip-rule="evenodd" d="M67.7031 5.9114C67.7031 5.9114 72.2101 5.831 72.3519 5.9114C72.4937 5.99179 74.6275 2.98892 74.6275 2.98892H69.9134L67.7031 5.9114Z" fill="#00194F"/>
  <path fill-rule="evenodd" clip-rule="evenodd" d="M72.0215 2.27388C72.0215 2.27388 75.9113 2.07833 75.9113 2.27388C75.9113 2.46835 77.5599 0 77.5599 0H73.7698L72.0215 2.27388Z" fill="#00194F"/>
  <path fill-rule="evenodd" clip-rule="evenodd" d="M75.8799 3.03638H78.171L77.0664 4.43243H74.8584L75.8799 3.03638Z" fill="#00194F"/>
  <path fill-rule="evenodd" clip-rule="evenodd" d="M78.0635 0.583435H80.0422L79.2434 1.93929H77.0586L78.0635 0.583435Z" fill="#00194F"/>
  <path fill-rule="evenodd" clip-rule="evenodd" d="M51.8516 2.92892H62.0664L70.1064 13.9789L61.8027 24.9659H51.7197L60.1553 13.9789L51.8516 2.92892Z" fill="#AF0000"/>
  <path d="M8.00523 8.43603V11.1445H14.9883V16.3419H8.00523V19.4545H15.94V24.9638H0.958984V2.92679H15.94V8.43603H8.00523Z" fill="#00194F"/>
  <path d="M34.477 2.92682V8.40456H25.6537V11.4552H32.0019V16.6527H25.6537V24.9627H18.6074V2.92682H34.477Z" fill="#00194F"/>
  <path d="M43.9037 8.43606V11.1445H50.8868V16.342H43.9037V19.4546H51.8384V24.9638H36.8574V2.92682H51.8384V8.43606H43.9037Z" fill="#00194F"/>
</svg>