<svg xmlns="http://www.w3.org/2000/svg" width="25" height="26" viewBox="0 0 25 26" fill="none">
  <path fill-rule="evenodd" clip-rule="evenodd" d="M6.59695 22.0038H4.59612C4.0436 22.0038 3.5957 21.5559 3.5957 21.0033V15.0008C3.5957 14.4483 4.0436 14.0004 4.59612 14.0004H6.59695C7.14947 14.0004 7.59737 14.4483 7.59737 15.0008V21.0033C7.59737 21.5559 7.14947 22.0038 6.59695 22.0038Z" stroke="url(#paint0_linear_296_29)" stroke-linecap="round" stroke-linejoin="round"/>
  <path d="M14.1008 4.99664V9.59856" stroke="url(#paint1_linear_296_29)" stroke-linecap="round" stroke-linejoin="round"/>
  <path d="M20.6031 15.0008V11.0392C20.6003 10.2431 19.9545 9.59912 19.1585 9.59857H9.04226C8.24621 9.59912 7.60041 10.2431 7.59766 11.0392V16.1013" stroke="url(#paint2_linear_296_29)" stroke-linecap="round" stroke-linejoin="round"/>
  <path d="M7.59766 15.0008V8.96931C7.59787 8.57907 7.67681 8.19287 7.82975 7.83384L8.62108 5.98307C8.87676 5.38459 9.4649 4.99643 10.1157 4.99665H18.084C18.7369 4.99455 19.3277 5.38294 19.5846 5.98307L20.376 7.83584C20.5274 8.19515 20.6047 8.58139 20.6031 8.97131V15.486" stroke="url(#paint3_linear_296_29)" stroke-linecap="round" stroke-linejoin="round"/>
  <path d="M13.6002 18.0021H15.9341C16.3671 18.0021 16.7883 17.8617 17.1346 17.6019L19.5516 15.7892C20.1551 15.3369 20.9992 15.397 21.5325 15.9302V15.9302C21.8168 16.2143 21.9765 16.5998 21.9765 17.0017C21.9765 17.4036 21.8168 17.789 21.5325 18.0731L19.4586 20.147C18.9 20.7057 18.1885 21.0865 17.4137 21.2415L14.4825 21.8277C13.9014 21.9439 13.3017 21.9295 12.7268 21.7857L10.0757 21.1234C9.75875 21.0435 9.43314 21.0032 9.10628 21.0034H7.59766" stroke="url(#paint4_linear_296_29)" stroke-linecap="round" stroke-linejoin="round"/>
  <path d="M13.6002 18.0021H15.0858C15.9228 18.0021 16.6014 17.3235 16.6014 16.4865V16.1863C16.6014 15.4912 16.1283 14.8852 15.4539 14.7167L13.161 14.1435C12.7884 14.0495 12.4057 14.0014 12.0215 14.0004V14.0004C11.0939 14.0001 10.187 14.2748 9.41541 14.7898L7.59766 16.0013" stroke="url(#paint5_linear_296_29)" stroke-linecap="round" stroke-linejoin="round"/>
  <defs>
    <linearGradient id="paint0_linear_296_29" x1="3.5957" y1="22.0038" x2="7.6933" y2="21.9674" gradientUnits="userSpaceOnUse">
      <stop stop-color="#AA0606"/>
      <stop offset="0.786458" stop-color="#00194F"/>
    </linearGradient>
    <linearGradient id="paint1_linear_296_29" x1="13.6006" y1="9.59856" x2="14.6251" y2="9.59461" gradientUnits="userSpaceOnUse">
      <stop stop-color="#AA0606"/>
      <stop offset="0.786458" stop-color="#00194F"/>
    </linearGradient>
    <linearGradient id="paint2_linear_296_29" x1="7.59766" y1="16.1013" x2="20.8991" y2="15.629" gradientUnits="userSpaceOnUse">
      <stop stop-color="#AA0606"/>
      <stop offset="0.786458" stop-color="#00194F"/>
    </linearGradient>
    <linearGradient id="paint3_linear_296_29" x1="7.59766" y1="15.486" x2="20.9095" y2="15.193" gradientUnits="userSpaceOnUse">
      <stop stop-color="#AA0606"/>
      <stop offset="0.786458" stop-color="#00194F"/>
    </linearGradient>
    <linearGradient id="paint4_linear_296_29" x1="7.59766" y1="21.9053" x2="22.2992" y2="21.3208" gradientUnits="userSpaceOnUse">
      <stop stop-color="#AA0606"/>
      <stop offset="0.786458" stop-color="#00194F"/>
    </linearGradient>
    <linearGradient id="paint5_linear_296_29" x1="7.59766" y1="18.0021" x2="16.8033" y2="17.6344" gradientUnits="userSpaceOnUse">
      <stop stop-color="#AA0606"/>
      <stop offset="0.786458" stop-color="#00194F"/>
    </linearGradient>
  </defs>
</svg>