<svg xmlns="http://www.w3.org/2000/svg" width="41" height="40" viewBox="0 0 41 40" fill="none">
  <path fill-rule="evenodd" clip-rule="evenodd" d="M32.4993 28.3332H30.8327C29.9127 28.3332 29.166 27.5865 29.166 26.6665V18.3332C29.166 17.4132 29.9127 16.6665 30.8327 16.6665H32.4993C34.341 16.6665 35.8327 18.1582 35.8327 19.9998V24.9998C35.8327 26.8415 34.341 28.3332 32.4993 28.3332Z" stroke="#160677" stroke-width="2.5" stroke-linecap="round" stroke-linejoin="round"/>
  <path fill-rule="evenodd" clip-rule="evenodd" d="M10.833 28.3332H9.16634C7.32467 28.3332 5.83301 26.8415 5.83301 24.9998V19.9998C5.83301 18.1582 7.32467 16.6665 9.16634 16.6665H10.833C11.753 16.6665 12.4997 17.4132 12.4997 18.3332V26.6665C12.4997 27.5865 11.753 28.3332 10.833 28.3332Z" stroke="#160677" stroke-width="2.5" stroke-linecap="round" stroke-linejoin="round"/>
  <path d="M31.6667 16.6667V15.8333C31.6667 9.85 26.8167 5 20.8333 5V5C14.85 5 10 9.85 10 15.8333V16.6667" stroke="#160677" stroke-width="2.5" stroke-linecap="round" stroke-linejoin="round"/>
  <path fill-rule="evenodd" clip-rule="evenodd" d="M21.8747 35.4167H19.7913C18.6413 35.4167 17.708 34.4833 17.708 33.3333V33.3333C17.708 32.1833 18.6413 31.25 19.7913 31.25H21.8747C23.0247 31.25 23.958 32.1833 23.958 33.3333V33.3333C23.958 34.4833 23.0247 35.4167 21.8747 35.4167Z" stroke="#160677" stroke-width="2.5" stroke-linecap="round" stroke-linejoin="round"/>
  <path d="M23.958 33.3335H27.4997C29.3413 33.3335 30.833 31.8418 30.833 30.0002V28.3335" stroke="#160677" stroke-width="2.5" stroke-linecap="round" stroke-linejoin="round"/>
</svg>