<svg xmlns="http://www.w3.org/2000/svg" width="41" height="40" viewBox="0 0 41 40" fill="none">
  <path d="M23.8332 17.498L19.669 21.6673L17.168 19.1662" stroke="#160677" stroke-width="2.5" stroke-linecap="round" stroke-linejoin="round"/>
  <path fill-rule="evenodd" clip-rule="evenodd" d="M20.4994 6.66113C12.2126 6.66113 5.49316 12.2613 5.49316 19.1615C5.61842 23.3254 7.91484 27.1196 11.5457 29.1618C11.185 30.1419 10.6835 31.0642 10.057 31.8998C9.71114 32.4047 9.7197 33.0724 10.0783 33.5683C10.437 34.0641 11.0684 34.2814 11.6562 34.111C13.6609 33.5274 15.5479 32.5969 17.2314 31.3619C18.3089 31.5639 19.4031 31.6643 20.4994 31.6619C28.7862 31.6619 35.5057 26.0617 35.5057 19.1615C35.5057 12.2613 28.7862 6.66113 20.4994 6.66113Z" stroke="#160677" stroke-width="2.5" stroke-linecap="round" stroke-linejoin="round"/>
</svg>