<svg xmlns="http://www.w3.org/2000/svg" width="48" height="48" viewBox="0 0 48 48" fill="none">
  <g clip-path="url(#clip0_241_5436)">
    <path d="M39.6665 11.668H3V45.333H39.6665V11.668Z" fill="white"/>
    <path d="M32.5588 8.6665H11.6382L3 11.6678H39.6665L32.5588 8.6665Z" fill="#BCBCBC"/>
    <path d="M13.6914 11.669H25.6362L23.9271 8.6665H15.0879L13.6914 11.669Z" fill="#102042"/>
    <path d="M25.6362 11.669H13.6914V25.0355H25.6362V11.669Z" fill="#204186"/>
    <path fill-rule="evenodd" clip-rule="evenodd" d="M35 0C38.4478 0 41.7544 1.36964 44.1924 3.80761C46.6304 6.24558 48 9.55219 48 13C48 20.1797 42.1797 26 35 26C27.8203 26 22 20.1797 22 13C22 5.8203 27.8203 0 35 0ZM35 7.71875H34.1875V14.625L37.8438 17.4688L38.25 16.6562L35 14.2188V7.71875Z" fill="#FF8030"/>
    <path d="M35 7.71875H34.1875V14.625L37.8438 17.4688L38.25 16.6562L35 14.2188V7.71875Z" fill="#102042"/>
    <path d="M33.1875 15.1141L33.5736 15.4144L37.2298 18.2581L38.1927 19.007L38.7382 17.916L39.1444 17.1035L39.5177 16.357L38.85 15.8562L36 13.7188V7.71875V6.71875H35H34.1875H33.1875V7.71875V14.625V15.1141ZM35 1C38.1826 1 41.2348 2.26428 43.4853 4.51472C45.7357 6.76515 47 9.8174 47 13C47 19.6274 41.6274 25 35 25C28.3726 25 23 19.6274 23 13C23 6.37258 28.3726 1 35 1Z" stroke="#112143" stroke-width="2"/>
  </g>
  <defs>
    <clipPath id="clip0_241_5436">
      <rect width="48" height="48" fill="white"/>
    </clipPath>
  </defs>
</svg>