<svg xmlns="http://www.w3.org/2000/svg" width="61" height="60" viewBox="0 0 61 60" fill="none">
  <g clip-path="url(#clip0_50_8808)">
    <path d="M17.8928 24.1074L20.5983 26.4264L23.3038 24.1074C23.6904 23.7209 24.3667 23.7209 24.7532 24.1074L27.4588 26.4264L30.1643 24.1074C30.5508 23.7209 31.2272 23.7209 31.6137 24.1074L33.1597 25.4601V11.4494V10.2899V9.13037H14.8008V10.2899V11.4494V25.4601L16.3468 24.1074C16.8299 23.8175 17.5063 23.8175 17.8928 24.1074Z" fill="#175CFF"/>
    <path d="M44.658 9.13037H35.6718V10.2899V11.4494V27.9724C35.6718 28.4555 35.3819 28.842 34.9954 29.0353C34.8021 29.1319 34.7055 29.1319 34.5123 29.1319C34.2224 29.1319 33.9325 29.0353 33.7393 28.842L31.0337 26.523L28.3282 28.842C27.9417 29.2285 27.2653 29.2285 26.8788 28.842L24.0767 26.523L21.3712 28.842C20.9847 29.2285 20.3083 29.2285 19.9218 28.842L17.1196 26.523L14.4141 28.842C14.0276 29.1319 13.5445 29.2285 13.158 29.0353C12.7715 28.842 12.4816 28.4555 12.4816 27.9724V11.4494V10.2899V9.13037H3.59202C1.85276 9.13037 0.5 10.4831 0.5 12.2224V43.5291C0.5 45.2684 1.85276 46.6212 3.59202 46.6212H44.658C46.3972 46.6212 47.75 45.2684 47.75 43.5291V12.2224C47.75 10.4831 46.3972 9.13037 44.658 9.13037Z" fill="#175CFF"/>
    <path d="M53.8333 46.5H0.5V48.5H53.8333C56.4167 48.5 58.5 50.5833 58.5 53.1667C58.5 55.75 56.4167 57.8333 53.8333 57.8333H0.5V59.8333H53.8333C57.5 59.8333 60.5 56.8333 60.5 53.1667C60.5 49.5 57.5 46.5 53.8333 46.5Z" fill="#FF8030"/>
    <path d="M53.8333 56.5834C55.6743 56.5834 57.1667 55.091 57.1667 53.2501C57.1667 51.4091 55.6743 49.9167 53.8333 49.9167C51.9924 49.9167 50.5 51.4091 50.5 53.2501C50.5 55.091 51.9924 56.5834 53.8333 56.5834Z" fill="#FF8030"/>
    <path d="M38.0003 56.5834C39.8413 56.5834 41.3337 55.091 41.3337 53.2501C41.3337 51.4091 39.8413 49.9167 38.0003 49.9167C36.1594 49.9167 34.667 51.4091 34.667 53.2501C34.667 55.091 36.1594 56.5834 38.0003 56.5834Z" fill="#FF8030"/>
    <path d="M22.1663 56.5834C24.0073 56.5834 25.4997 55.091 25.4997 53.2501C25.4997 51.4091 24.0073 49.9167 22.1663 49.9167C20.3254 49.9167 18.833 51.4091 18.833 53.2501C18.833 55.091 20.3254 56.5834 22.1663 56.5834Z" fill="#FF8030"/>
    <path d="M6.33333 56.5834C8.17428 56.5834 9.66667 55.091 9.66667 53.2501C9.66667 51.4091 8.17428 49.9167 6.33333 49.9167C4.49238 49.9167 3 51.4091 3 53.2501C3 55.091 4.49238 56.5834 6.33333 56.5834Z" fill="#FF8030"/>
  </g>
  <defs>
    <clipPath id="clip0_50_8808">
      <rect width="60" height="60" fill="white" transform="translate(0.5)"/>
    </clipPath>
  </defs>
</svg>