<svg xmlns="http://www.w3.org/2000/svg" width="48" height="48" viewBox="0 0 48 48" fill="none">
  <path d="M41.7125 18.4319C43.0308 21.041 43.7775 23.9829 43.7775 27.0967C43.7775 31.3571 42.3845 35.2985 40.0317 38.499C38.3276 37.7953 36.072 37.2286 35.3386 37.0528C34.6183 36.291 32.4569 34.1992 30.6882 34.4508C28.8247 34.7109 27.1066 36.5473 26.916 36.7563C26.7807 36.905 26.7083 37.1008 26.7153 37.3021C26.7503 38.3442 26.706 39.4459 26.6173 40.0033C26.5582 39.987 26.4976 39.9708 26.4439 39.9561C25.7501 39.7664 24.7009 39.4784 23.8469 40.1589C22.9991 40.8332 22.9843 42.0673 23.0839 42.8717C22.2913 43.179 21.3736 43.6668 21.1317 44.3295C20.9225 44.9016 21.1371 45.579 21.4311 46.2348C18.726 45.8307 16.2045 44.866 13.9831 43.4701C14.8091 42.5125 15.4072 41.2676 15.6297 40.7628C16.0139 40.4624 16.843 39.7316 17.1767 38.7909C17.5049 37.8634 17.3571 36.7656 17.2661 36.2864C17.6115 35.2343 18.1893 33.1339 17.6542 32.2017C17.1588 31.3408 15.7806 30.8252 15.0619 30.6069C14.687 30.075 13.7506 28.9974 12.1763 28.7279C11.8287 28.6923 10.6908 28.4663 10.6908 27.0967C10.6908 26.1027 11.5635 24.4025 12.0161 23.6276C12.7286 23.2621 13.7552 22.6389 14.0251 21.9685C14.2476 21.4134 14.3432 20.4325 14.3759 19.9981C14.743 19.3045 15.9003 16.8557 14.9592 15.1695C14.6333 14.5865 13.7739 14.2165 13.2232 14.0307L11.9741 12.1656C14.8115 9.83453 18.3262 8.30085 22.1723 7.87504C22.2633 7.32072 22.3831 6.78265 22.5465 6.27246C17.9677 6.65956 13.805 8.51452 10.5321 11.362C10.5243 11.3667 10.5158 11.3667 10.508 11.3721C10.4753 11.3938 10.4567 11.4263 10.4279 11.4518C6.0809 15.2841 3.33301 20.8753 3.33301 27.0967C3.33301 34.1907 6.90456 40.467 12.349 44.2474C12.3708 44.2598 12.3871 44.2799 12.4089 44.29C15.366 46.3285 18.8707 47.6276 22.6561 47.9272C22.6771 47.9287 22.6973 47.9372 22.7183 47.9372C22.7253 47.9372 22.7331 47.9341 22.7401 47.9341C23.2675 47.9736 23.7971 47.9999 24.333 47.9999C31.0025 47.9999 36.9517 44.8854 40.8009 40.0443C40.839 40.0118 40.8639 39.9654 40.8958 39.9243C43.6725 36.3801 45.333 31.9292 45.333 27.0967C45.333 23.4263 44.3748 19.9757 42.6987 16.9749C42.3837 17.4688 42.0531 17.9558 41.7125 18.4319Z" fill="white"/>
  <path d="M33.6658 0C28.695 0 23.5547 3.67432 23.5547 9.82297C23.5547 15.679 32.7465 24.2083 33.1377 24.5683C33.287 24.7061 33.476 24.7742 33.6658 24.7742C33.8556 24.7742 34.0446 24.7061 34.1939 24.5683C34.5851 24.2083 43.7769 15.679 43.7769 9.82297C43.7769 3.67432 38.6366 0 33.6658 0ZM33.6658 13.1613C31.9477 13.1613 30.5547 11.7747 30.5547 10.0645C30.5547 8.35432 31.9477 6.96774 33.6658 6.96774C35.3839 6.96774 36.7769 8.35432 36.7769 10.0645C36.7769 11.7747 35.3839 13.1613 33.6658 13.1613Z" fill="#FF8030"/>
</svg>