<svg xmlns="http://www.w3.org/2000/svg" width="61" height="60" viewBox="0 0 61 60" fill="none">
  <g clip-path="url(#clip0_50_8821)">
    <path d="M33.7067 51.6834L36.7417 48.5183H23.2625V44.6912H1.44851C1.19479 44.6932 0.952272 44.7969 0.774377 44.9794C0.596481 45.1619 0.497802 45.4083 0.500037 45.6642C0.514174 50.4115 4.33019 54.2538 9.036 54.2591H35.1806L33.7067 51.6834Z" fill="#175CFF"/>
    <path d="M53.6122 14.074V34.7206L54.4108 37.5374C54.5057 37.5938 54.6081 37.6522 54.7048 37.7096L55.5091 37.5067V13.1172C55.5091 10.4751 53.386 8.33325 50.7669 8.33325H10.9326C8.31358 8.33325 6.19043 10.4751 6.19043 13.1172V42.7777H8.0873V14.074C8.0873 13.5456 8.51193 13.1172 9.03574 13.1172H52.6638C53.1876 13.1172 53.6122 13.5456 53.6122 14.074Z" fill="#175CFF"/>
    <path d="M57.4059 47.5616C57.4037 47.1474 57.372 46.734 57.311 46.3244L60.4997 42.9996L58.6028 39.6853L54.1584 40.8076C53.5119 40.2911 52.7943 39.8721 52.0282 39.5638L50.7668 35.1233H46.9731L45.7155 39.5657C44.9494 39.874 44.2319 40.293 43.5853 40.8095L39.1409 39.6872L37.244 43.0015L40.4289 46.3244C40.3675 46.7339 40.3358 47.1474 40.334 47.5616C40.3362 47.9757 40.3679 48.3891 40.4289 48.7987L37.2402 52.1235L39.1371 55.4379L43.5815 54.3155C44.2281 54.8321 44.9456 55.2511 45.7117 55.5594L46.9731 59.9998H50.7668L52.0245 55.5575C52.7905 55.2491 53.5081 54.8302 54.1546 54.3136L58.599 55.4359L60.4959 52.1216L57.311 48.7987C57.3725 48.3892 57.4042 47.9757 57.4059 47.5616ZM48.87 50.4319C47.2985 50.4319 46.0246 49.1468 46.0246 47.5616C46.0246 45.9763 47.2985 44.6912 48.87 44.6912C50.4414 44.6912 51.7153 45.9763 51.7153 47.5616C51.7153 49.1468 50.4414 50.4319 48.87 50.4319Z" fill="#175CFF"/>
    <path fill-rule="evenodd" clip-rule="evenodd" d="M27.9905 36.6666C27.7052 36.6667 27.4315 36.54 27.2297 36.3144L22.167 30.6501L23.6879 28.9486L27.9905 33.7618L37.3127 23.3333L38.8337 25.0347L28.7513 36.3144C28.5495 36.54 28.2758 36.6667 27.9905 36.6666Z" fill="#F57C00"/>
  </g>
  <defs>
    <clipPath id="clip0_50_8821">
      <rect width="60" height="60" fill="white" transform="translate(0.5)"/>
    </clipPath>
  </defs>
</svg>