<svg xmlns="http://www.w3.org/2000/svg" width="40" height="40" viewBox="0 0 40 40" fill="none">
  <g clip-path="url(#clip0_241_5314)">
    <path d="M39.2719 11.9338C37.7654 16.8645 32.3947 19.6867 27.2734 18.2369C22.1531 16.7871 19.2224 11.6144 20.728 6.6837C22.2335 1.75303 27.6052 -1.07002 32.7255 0.38065C37.8468 1.83042 40.7774 7.00317 39.271 11.9338H39.2719Z" fill="#BBCCCE"/>
    <path d="M35.0305 4.99064C34.9473 4.84215 34.753 5.16072 34.867 5.23182C34.9801 5.30381 35.1632 5.22462 35.0305 4.99064Z" fill="white"/>
    <path d="M33.3596 5.31465C33.0269 5.26246 32.6297 5.35965 32.4774 5.52973C32.3241 5.69982 31.9232 5.83931 31.5858 5.83841H31.5503C31.2129 5.83751 30.9372 6.10298 30.9363 6.42785L30.9316 8.71995C30.9316 9.04483 31.2055 9.3103 31.5428 9.3112L32.8801 9.3139C33.2175 9.3139 33.5352 9.57758 33.5857 9.89885L33.7633 11.0184C33.8147 11.3396 33.8764 11.8661 33.9007 12.1901L34.0577 14.2653C34.0829 14.5892 34.2885 14.6576 34.5165 14.4183L37.6276 11.1398C37.8547 10.9005 37.8752 10.491 37.6743 10.2318L37.6444 10.1931C37.4425 9.93305 37.2528 9.45609 37.222 9.13302L37.1145 8.00002C37.0837 7.67695 36.8416 7.24858 36.5762 7.0497L34.9922 5.86C34.7268 5.66022 34.2371 5.45414 33.9044 5.40194L33.3605 5.31645L33.3596 5.31465Z" fill="white"/>
    <path d="M35.5962 14.4976C35.4953 14.4319 35.599 14.1826 35.828 13.9441L36.6868 13.0451C36.9149 12.8057 37.1775 12.678 37.27 12.7589C37.3625 12.8399 37.2504 13.1009 37.0205 13.3376L36.199 14.1853C35.9691 14.4229 35.6981 14.5624 35.5972 14.4976H35.5962Z" fill="white"/>
    <path d="M24.1389 6.5746C23.8651 6.68619 23.5184 7.01376 23.366 7.30353L23.1072 7.79759C22.9558 8.08736 22.924 8.57422 23.0352 8.88109L23.3342 9.69102C23.4473 9.997 23.4782 10.5064 23.4034 10.8222L22.9567 12.7175C22.8819 13.0342 22.9623 13.5211 23.1343 13.8001L23.3118 14.0871C23.4838 14.3661 23.6595 14.331 23.7015 14.0088L23.7454 13.6678C23.7875 13.3456 24.0286 12.9064 24.2819 12.6923L25.2192 11.8976C25.4725 11.6834 25.9173 11.4765 26.207 11.4378C26.4967 11.3991 26.8771 11.1408 27.0509 10.8627L27.3602 10.3696C27.535 10.0924 27.4995 9.66132 27.2836 9.41295L25.0286 6.82477C24.8117 6.57639 24.4118 6.4639 24.1379 6.5746H24.1389Z" fill="white"/>
    <path d="M27.9693 1.88701L27.8824 1.10678C27.846 0.783709 27.6787 0.556929 27.5095 0.601025C27.3404 0.645121 27.2236 0.611824 27.2488 0.527231C27.2581 0.498434 27.2507 0.450738 27.231 0.394043C26.9554 0.473236 26.6853 0.564128 26.4189 0.667619C26.4049 0.714415 26.3937 0.751312 26.3872 0.77561C26.3629 0.865602 26.1554 1.09058 25.9264 1.27687C25.6975 1.46225 25.5508 1.47125 25.6003 1.29666C25.6236 1.21387 25.5816 1.13648 25.4956 1.07798C24.2218 1.72413 23.0976 2.64025 22.2247 3.77775C22.15 4.03422 22.0976 4.3222 22.0967 4.53368V4.64347C22.0939 4.96834 22.2715 5.4345 22.4911 5.68108L22.9621 6.21023C23.1817 6.45591 23.3621 6.39202 23.363 6.06805V5.58389C23.3639 5.25902 23.221 4.97914 23.0443 4.96204C22.8677 4.94494 22.7817 4.78476 22.8528 4.60657C22.9238 4.42839 23.149 4.2754 23.3527 4.2655C23.5565 4.25561 23.8097 4.3393 23.9134 4.45269C24.0181 4.56518 24.219 4.45809 24.3602 4.21241C24.5013 3.96673 24.8256 3.59416 25.0816 3.38268L26.1956 2.46206C26.4516 2.25058 26.9245 2.15339 27.2479 2.24698L27.4488 2.30548C27.7712 2.39907 28.0058 2.21098 27.9693 1.88881V1.88701Z" fill="white"/>
    <path d="M30.2701 0.467006C30.3916 0.333817 30.4514 0.168232 30.4533 0.0125455C30.1243 -0.00275311 29.7972 -0.00185322 29.4711 0.0152453C29.4477 0.174531 29.4739 0.346416 29.557 0.485004C29.7084 0.737882 30.0159 0.745081 30.2383 0.501203L30.2701 0.466106V0.467006Z" fill="white"/>
    <path d="M24.6909 15.8259C24.6385 15.5056 24.403 15.2095 24.1675 15.169C23.932 15.1276 23.6956 15.3517 23.6423 15.6666C23.6096 15.8664 23.6386 16.1346 23.7096 16.374C24.0516 16.6566 24.4161 16.9175 24.8011 17.1542C24.8404 17.0084 24.8516 16.8239 24.8226 16.644L24.6909 15.8259Z" fill="white"/>
    <path d="M3.33301 13.3213H22.6436C24.3004 13.3213 25.6436 14.6644 25.6436 16.3213V32.2115C25.6436 33.8683 24.3004 35.2115 22.6436 35.2115H3.33302C1.67616 35.2115 0.333015 33.8683 0.333015 32.2115V16.3213C0.333015 14.6644 1.67616 13.3213 3.33301 13.3213Z" fill="#175CFF"/>
    <path d="M25.9876 23.0145C25.9876 22.1982 26.6505 21.53 27.4602 21.53H32.9993C33.8091 21.53 34.8372 22.0872 35.2837 22.7671L38.8553 28.2022C39.3017 28.8821 39.667 30.1074 39.667 30.9237V33.727C39.667 34.5432 39.0041 35.2114 38.1943 35.2114H27.4583C26.6485 35.2114 25.9856 34.5432 25.9856 33.727V23.0125L25.9876 23.0145Z" fill="#F57C00"/>
    <path d="M35.7518 28.0337C36.5495 28.0337 37.0261 27.1456 36.5852 26.4809L34.6407 23.5497C34.4554 23.2704 34.1426 23.1025 33.8074 23.1025H29.4634C28.9111 23.1025 28.4634 23.5503 28.4634 24.1025V27.0337C28.4634 27.586 28.9111 28.0337 29.4634 28.0337H35.7518Z" fill="#F9F9F9"/>
    <path d="M32.6378 40.4998C30.4304 40.4998 28.6156 38.7596 28.6156 36.5795C28.6156 34.3994 30.4304 32.6592 32.6378 32.6592C34.8453 32.6592 36.6602 34.3994 36.6602 36.5795C36.6602 38.7596 34.8453 40.4998 32.6378 40.4998Z" fill="#2F3E54" stroke="white"/>
    <path d="M30.8718 36.5812C30.8718 37.5289 31.6621 38.2949 32.6375 38.2949C33.613 38.2949 34.4033 37.5271 34.4033 36.5812C34.4033 35.6352 33.613 34.8674 32.6375 34.8674C31.6621 34.8674 30.8718 35.6352 30.8718 36.5812Z" fill="#F9F9F9"/>
    <path d="M8.30192 40.4998C6.09452 40.4998 4.27962 38.7596 4.27962 36.5795C4.27962 34.3994 6.09452 32.6592 8.30192 32.6592C10.5093 32.6592 12.3242 34.3994 12.3242 36.5795C12.3242 38.7596 10.5093 40.4998 8.30192 40.4998Z" fill="#2F3E54" stroke="white"/>
    <path d="M6.53582 36.5814C6.53582 37.5291 7.32617 38.2951 8.30161 38.2951C9.27704 38.2951 10.0674 37.5273 10.0674 36.5814C10.0674 35.6355 9.27704 34.8677 8.30161 34.8677C7.32617 34.8677 6.53582 35.6355 6.53582 36.5814Z" fill="#F9F9F9"/>
  </g>
  <defs>
    <clipPath id="clip0_241_5314">
      <rect width="40" height="40" fill="white"/>
    </clipPath>
  </defs>
</svg>