<svg xmlns="http://www.w3.org/2000/svg" width="24" height="24" viewBox="0 0 24 24" fill="none">
  <g clip-path="url(#clip0_241_1989)">
    <path d="M20.4852 3.51479C19.3835 2.4131 18.1001 1.54781 16.6712 0.943476C15.1912 0.317485 13.6196 0 12 0C10.3803 0 8.80877 0.317485 7.32884 0.943212C5.89989 1.54754 4.61648 2.41284 3.51479 3.51453C2.4131 4.61622 1.54781 5.89963 0.943476 7.32858C0.317485 8.80877 0 10.3803 0 12C0 13.6197 0.317485 15.1912 0.943212 16.6712C1.54754 18.1001 2.41284 19.3835 3.51453 20.4852C4.61622 21.5869 5.89963 22.4522 7.32858 23.0565C8.8085 23.6825 10.3801 23.9997 11.9997 23.9997C13.6194 23.9997 15.191 23.6822 16.6709 23.0565C18.0998 22.4522 19.3833 21.5869 20.4849 20.4852C21.5866 19.3835 22.4519 18.1001 23.0563 16.6712C23.6822 15.1912 23.9995 13.6197 23.9995 12C23.9995 10.3803 23.682 8.80877 23.0563 7.32884C22.4519 5.89989 21.5866 4.61648 20.4849 3.51479H20.4852ZM19.4258 19.426C17.4422 21.4097 14.8051 22.5018 12 22.5018C9.19493 22.5018 6.55758 21.4094 4.57422 19.426C2.5906 17.4424 1.49841 14.8053 1.49841 12.0003C1.49841 9.19519 2.59086 6.55784 4.57422 4.57448C6.55758 2.5906 9.19466 1.49815 12 1.49815C14.8053 1.49815 17.4424 2.5906 19.4258 4.57396C21.4094 6.55758 22.5016 9.19466 22.5016 11.9997C22.5016 14.8048 21.4091 17.4422 19.4258 19.4255V19.426Z" fill="#C62C2C"/>
    <path d="M16.8818 7.11803C16.526 6.76225 15.9492 6.76225 15.5934 7.11803L11.9996 10.7118L8.40586 7.11803C8.05007 6.76225 7.47321 6.76225 7.11742 7.11803C6.76164 7.47382 6.76164 8.05068 7.11742 8.40647L10.7112 12.0002L7.11742 15.594C6.76164 15.9498 6.76164 16.5266 7.11742 16.8824C7.29545 17.0605 7.52841 17.1492 7.76164 17.1492C7.99487 17.1492 8.22783 17.0602 8.40586 16.8824L11.9996 13.2887L15.5934 16.8824C15.7711 17.0602 16.0044 17.1492 16.2376 17.1492C16.4708 17.1492 16.7038 17.0602 16.8818 16.8824C17.2376 16.5266 17.2376 15.9498 16.8818 15.594L13.2881 12.0002L16.8818 8.40647C17.2376 8.05068 17.2376 7.47382 16.8818 7.11803Z" fill="#C62C2C"/>
  </g>
  <defs>
    <clipPath id="clip0_241_1989">
      <rect width="24" height="24" fill="white"/>
    </clipPath>
  </defs>
</svg>