<svg xmlns="http://www.w3.org/2000/svg" width="30" height="26" viewBox="0 0 30 26" fill="none">
  <path fill-rule="evenodd" clip-rule="evenodd" d="M27.8627 25.3082C28.0269 25.5488 27.8545 25.875 27.5633 25.875H18.5347C18.4178 25.875 18.3081 25.8186 18.24 25.7236L15.8667 22.41C15.7732 22.2794 15.7768 22.1029 15.8755 21.9761L20.7506 15.7208C20.9016 15.527 21.1976 15.5364 21.336 15.7393L27.8627 25.3082Z" fill="white"/>
  <path fill-rule="evenodd" clip-rule="evenodd" d="M25.717 5.45052C26.0062 5.45052 26.179 5.77247 26.0191 6.01341L21.1906 13.2911C21.0489 13.5048 20.7361 13.5077 20.5903 13.2967L16.6964 7.65899C16.5303 7.41854 16.7024 7.09049 16.9946 7.09049H21.7676C21.8892 7.09049 22.0028 7.02945 22.0699 6.92797L22.9396 5.61304C23.0067 5.51156 23.1202 5.45052 23.2419 5.45052H25.717Z" fill="white"/>
  <path fill-rule="evenodd" clip-rule="evenodd" d="M17.6741 5.04078C17.3208 5.52482 17.6735 6.20532 18.2727 6.19772C19.5952 6.18093 21.3513 6.16861 21.4387 6.22C21.522 6.26891 22.2954 5.21074 22.9155 4.33507C23.2526 3.859 22.91 3.20667 22.3267 3.20667H19.381C19.1495 3.20667 18.9319 3.31725 18.7954 3.50427L17.6741 5.04078Z" fill="white"/>
  <path fill-rule="evenodd" clip-rule="evenodd" d="M22.0264 1.23354C21.661 1.72599 22.034 2.42546 22.6468 2.40562C23.7268 2.37067 24.9796 2.35486 24.9796 2.46957C24.9796 2.57724 25.4525 1.89325 25.8905 1.23675C26.209 0.7593 25.864 0.125 25.2901 0.125H23.2137C22.9841 0.125 22.7682 0.233686 22.6314 0.418017L22.0264 1.23354Z" fill="white"/>
  <path fill-rule="evenodd" clip-rule="evenodd" d="M24.2961 3.62568C24.4311 3.42747 24.6557 3.30842 24.8956 3.30842H26.153C26.7378 3.30842 27.082 3.96531 26.749 4.44613L26.7317 4.47108C26.5936 4.67054 26.3649 4.78769 26.1223 4.78321L24.8808 4.76027C24.3046 4.74963 23.9717 4.10193 24.2961 3.62568Z" fill="white"/>
  <path fill-rule="evenodd" clip-rule="evenodd" d="M26.9044 1.03344C27.0403 0.840967 27.2611 0.726498 27.4967 0.726498H27.707C28.2916 0.726498 28.6358 1.38297 28.3032 1.86383L27.862 2.50182C27.7267 2.6976 27.5038 2.81445 27.2658 2.81445H27.0465C26.4587 2.81445 26.1152 2.15168 26.4541 1.67143L26.9044 1.03344Z" fill="white"/>
  <path fill-rule="evenodd" clip-rule="evenodd" d="M1.48404 3.72571C1.30404 3.48685 1.47445 3.14507 1.77354 3.14507H11.4243C11.5401 3.14507 11.6489 3.20037 11.7172 3.29389L19.763 14.3208C19.8573 14.4501 19.8557 14.6259 19.7591 14.7534L11.4447 25.7236C11.3762 25.814 11.2693 25.8671 11.1558 25.8671H1.64674C1.34591 25.8671 1.176 25.5219 1.35952 25.2835L9.46402 14.7574C9.56353 14.6281 9.56446 14.4483 9.4663 14.3181L1.48404 3.72571Z" fill="white"/>
</svg>