<svg xmlns="http://www.w3.org/2000/svg" width="33" height="32" viewBox="0 0 33 32" fill="none">
  <path d="M9.69335 29.084C8.70935 29.084 7.77735 28.8667 6.94002 28.4787L2.91602 29.3333L3.75735 25.3013C3.36668 24.4613 3.14802 23.5253 3.14802 22.5387C3.14802 18.928 6.07468 16 9.68668 16C13.2987 16 16.2253 18.928 16.2253 22.5387C16.2253 26.1493 13.2973 29.0773 9.68668 29.0773" stroke="#B81010" stroke-width="1.5" stroke-linecap="round" stroke-linejoin="round"/>
  <path d="M9.066 16.0254C8.542 14.8854 8.25 13.6361 8.25 12.3201C8.25 6.96408 13.0473 2.66675 18.9167 2.66675C24.786 2.66675 29.5833 6.96408 29.5833 12.3201C29.5833 15.4854 27.9007 18.2721 25.318 20.0294C25.3193 21.0374 25.3167 22.3961 25.3167 23.8227L21.1313 21.7614C20.4153 21.8987 19.6753 21.9734 18.9167 21.9734C17.9687 21.9734 17.0527 21.8507 16.1753 21.6401" stroke="#B81010" stroke-width="1.5" stroke-linecap="round" stroke-linejoin="round"/>
  <path d="M6.64349 22.6195C6.66953 22.6456 6.66953 22.6878 6.64349 22.7138C6.61746 22.7398 6.57525 22.7398 6.54921 22.7138C6.52318 22.6878 6.52318 22.6456 6.54921 22.6195C6.57525 22.5935 6.61746 22.5935 6.64349 22.6195" stroke="#B81010" stroke-width="1.5" stroke-linecap="round" stroke-linejoin="round"/>
  <path d="M9.64349 22.6195C9.66953 22.6456 9.66953 22.6878 9.64349 22.7138C9.61746 22.7398 9.57525 22.7398 9.54921 22.7138C9.52318 22.6878 9.52318 22.6456 9.54921 22.6195C9.57525 22.5935 9.61746 22.5935 9.64349 22.6195" stroke="#B81010" stroke-width="1.5" stroke-linecap="round" stroke-linejoin="round"/>
  <path d="M12.6435 22.6195C12.6695 22.6456 12.6695 22.6878 12.6435 22.7138C12.6175 22.7398 12.5752 22.7398 12.5492 22.7138C12.5232 22.6878 12.5232 22.6456 12.5492 22.6195C12.5752 22.5935 12.6175 22.5935 12.6435 22.6195" stroke="#B81010" stroke-width="1.5" stroke-linecap="round" stroke-linejoin="round"/>
  <path d="M18.9168 13.3919C18.9168 12.5159 19.4582 12.0413 20.0008 11.6759C20.5315 11.3186 21.0622 10.8533 21.0622 9.99592C21.0622 8.81059 20.1022 7.85059 18.9168 7.85059C17.7315 7.85059 16.7715 8.81059 16.7715 9.99592" stroke="#B81010" stroke-width="1.5" stroke-linecap="round" stroke-linejoin="round"/>
  <path d="M18.9167 16.6107C18.8433 16.6107 18.7833 16.6707 18.7833 16.7441C18.7833 16.8174 18.8433 16.8774 18.9167 16.8774C18.99 16.8774 19.05 16.8174 19.05 16.7441C19.05 16.6707 18.99 16.6107 18.9167 16.6107" stroke="#B81010" stroke-width="1.5" stroke-linecap="round" stroke-linejoin="round"/>
</svg>