<svg xmlns="http://www.w3.org/2000/svg" width="74" height="74" viewBox="0 0 74 74" fill="none">
  <path fill-rule="evenodd" clip-rule="evenodd" d="M23.9962 30.9973H50.0081C51.3346 30.997 52.6067 30.4697 53.5444 29.5314C54.4822 28.5932 55.0087 27.3208 55.0082 25.9942V11.9904C55.0082 10.6634 54.4815 9.39062 53.5432 8.45229C52.6048 7.51395 51.3321 6.98695 50.0051 6.9873H23.9932C22.6667 6.98758 21.3946 7.51488 20.4569 8.45316C19.5192 9.39145 18.9926 10.6638 18.9932 11.9904V25.9972C18.9932 27.3238 19.5207 28.5958 20.459 29.5336C21.3973 30.4713 22.6697 30.9978 23.9962 30.9973Z" stroke="white" stroke-width="2.5" stroke-linecap="round" stroke-linejoin="round"/>
  <path d="M51.8703 60.7422H49.0165C48.2406 60.7416 47.4736 60.9081 46.7678 61.2304L35.3564 66.4276" stroke="white" stroke-width="2.5" stroke-linecap="round" stroke-linejoin="round"/>
  <path d="M64.0118 43.2681H56.5087C54.0224 43.2681 52.0068 45.2836 52.0068 47.7699V59.7749C52.0068 62.2613 54.0224 64.2768 56.5087 64.2768H64.0118" stroke="white" stroke-width="2.5" stroke-linecap="round" stroke-linejoin="round"/>
  <path d="M9.98926 64.2768H17.4924C19.9787 64.2768 21.9943 62.2613 21.9943 59.7749V47.7699C21.9943 45.2836 19.9787 43.2681 17.4924 43.2681H9.98926" stroke="white" stroke-width="2.5" stroke-linecap="round" stroke-linejoin="round"/>
  <path d="M53.2237 44.5523L43.9286 40.4606C42.2567 39.7248 40.3268 39.8798 38.7938 40.8729L31.7143 45.4597C30.6504 46.1492 29.967 47.2936 29.8644 48.5573C29.7619 49.821 30.2519 51.0606 31.1908 51.9126V51.9126C32.4094 53.0162 34.1707 53.2823 35.661 52.5879L39.8815 50.6161L42.8483 53.3088C43.7154 54.0958 44.2343 55.1949 44.2909 56.3644C44.3476 57.534 43.9373 58.6781 43.1503 59.5451C43.0587 59.6461 42.9625 59.7427 42.8618 59.8349L36.5749 65.589C34.5086 67.4802 31.3423 67.4873 29.2674 65.6056L25.4882 62.1777C24.5578 61.3518 23.3881 60.8444 22.1494 60.7292" stroke="white" stroke-width="2.5" stroke-linecap="round" stroke-linejoin="round"/>
  <path d="M22.0547 46.4306L28.6081 44.0687C30.1153 43.5402 31.7793 43.7071 33.1515 44.5243" stroke="white" stroke-width="2.5" stroke-linecap="round" stroke-linejoin="round"/>
  <path d="M40.1847 15.8078C41.9434 17.5665 41.9434 20.4178 40.1847 22.1765C38.4261 23.9351 35.5747 23.9351 33.8161 22.1765C32.0574 20.4178 32.0574 17.5665 33.8161 15.8078C34.6606 14.9633 35.806 14.4888 37.0004 14.4888C38.1948 14.4888 39.3402 14.9633 40.1847 15.8078" stroke="white" stroke-width="2.5" stroke-linecap="round" stroke-linejoin="round"/>
</svg>