<svg xmlns="http://www.w3.org/2000/svg" width="33" height="32" viewBox="0 0 33 32" fill="none">
  <path d="M15.4167 4H22.0833C25.7652 4 28.75 6.98477 28.75 10.6667V19.9052C28.75 21.6734 28.0476 23.3691 26.7974 24.6193L25.3693 26.0474C24.1191 27.2976 22.4234 28 20.6552 28H11.4167C7.73477 28 4.75 25.0152 4.75 21.3333V14.6667" stroke="#B81010" stroke-width="1.5" stroke-linecap="round" stroke-linejoin="round"/>
  <path d="M28.75 20H24.75C22.5409 20 20.75 21.7909 20.75 24V28" stroke="#B81010" stroke-width="1.5" stroke-linecap="round" stroke-linejoin="round"/>
  <path d="M15.416 10.6667H22.0827" stroke="#B81010" stroke-width="1.5" stroke-linecap="round" stroke-linejoin="round"/>
  <path d="M11.416 15.9999H22.0827" stroke="#B81010" stroke-width="1.5" stroke-linecap="round" stroke-linejoin="round"/>
  <path d="M11.416 21.3334H14.0827" stroke="#B81010" stroke-width="1.5" stroke-linecap="round" stroke-linejoin="round"/>
  <path d="M6.75 10L10.75 6" stroke="#B81010" stroke-width="1.5" stroke-linecap="round" stroke-linejoin="round"/>
  <path d="M10.75 10L6.75 6" stroke="#B81010" stroke-width="1.5" stroke-linecap="round" stroke-linejoin="round"/>
</svg>