<svg width="120" height="120" viewBox="0 0 120 120" fill="none" xmlns="http://www.w3.org/2000/svg">
<path d="M120 120C80 120 40 120 0 120C0 101.172 0 82.3438 0 63.5156C39.9718 63.5156 79.9436 63.5156 120 63.5156C120 82.4469 120 101.225 120 120ZM63.5241 109.341C65.9382 109.341 68.2145 109.341 70.5722 109.341C70.5722 106.491 70.5002 103.722 70.591 100.959C70.7006 97.5906 70.3061 94.4094 67.9014 91.8125C68.0736 91.5719 68.1832 91.4125 68.299 91.2594C73.3526 84.5312 69.5577 75.3063 61.2196 74.25C58.8744 73.9531 56.4665 74.1344 54.0869 74.1125C52.5746 74.0969 51.0654 74.1094 49.4935 74.1094C49.4935 85.9281 49.4935 97.6156 49.4935 109.35C51.8356 109.35 54.1088 109.35 56.5104 109.35C56.5104 104.65 56.5104 100.025 56.5104 95.3187C57.6031 95.3187 58.5769 95.3125 59.5476 95.3187C62.1589 95.3406 63.5178 96.6906 63.5241 99.2844C63.5272 102.594 63.5241 105.913 63.5241 109.341ZM84.6967 95.2031C86.3624 95.2031 87.8873 95.3187 89.3902 95.1812C94.663 94.7 98.7084 90.2156 98.8274 84.8281C98.9401 79.6594 95.0168 74.8125 89.863 74.3344C85.9147 73.9687 81.9131 74.1875 77.9335 74.15C77.8708 74.15 77.8051 74.2219 77.7143 74.2781C77.7143 85.9531 77.7143 97.6406 77.7143 109.356C80.0501 109.356 82.2982 109.356 84.6967 109.356C84.6967 104.672 84.6967 100.05 84.6967 95.2031ZM24.7703 74.175C24.7703 85.9188 24.7703 97.6062 24.7703 109.316C30.663 109.316 36.4869 109.316 42.2888 109.316C42.2888 106.959 42.2888 104.712 42.2888 102.359C38.782 102.359 35.3597 102.359 31.856 102.359C31.856 99.9781 31.856 97.7062 31.856 95.2687C34.2106 95.2687 36.4869 95.2687 38.7663 95.2687C38.7663 92.8562 38.7663 90.6125 38.7663 88.2C36.418 88.2 34.1386 88.2 31.8497 88.2C31.8497 85.7844 31.8497 83.5375 31.8497 81.1344C35.3722 81.1344 38.8196 81.1344 42.3076 81.1344C42.3076 78.7344 42.3076 76.4875 42.3076 74.175C36.4399 74.175 30.6474 74.175 24.7703 74.175Z" fill="#0930A4"/>
<path d="M69.8427 0.000195312C70.8164 3.93457 71.7683 7.87832 72.7953 11.8002C72.9049 12.2221 73.3777 12.6752 73.7941 12.8658C75.3847 13.6002 77.0066 14.2783 78.6505 14.8783C79.0732 15.0314 79.7151 14.9971 80.0971 14.7752C83.2344 12.9533 86.3342 11.0658 89.4466 9.2002C89.7753 9.00332 90.1166 8.82207 90.3515 8.6877C94.9918 13.3283 99.5695 17.9033 104.247 22.5814C104.15 22.7596 103.981 23.0971 103.787 23.4221C101.902 26.5689 99.9953 29.7033 98.1573 32.8752C97.935 33.2564 97.9131 33.9033 98.0697 34.3283C98.6614 35.9346 99.4254 37.4783 100.002 39.0908C100.249 39.7846 100.618 40.0627 101.282 40.2221C104.805 41.0783 108.315 42.0033 111.843 42.8314C112.667 43.0252 112.986 43.2971 112.974 44.1971C112.917 47.9064 112.952 51.6158 112.949 55.3283C112.949 55.6721 112.921 56.0127 112.902 56.4127C101.016 56.4127 89.2055 56.4127 77.3792 56.4127C79.5397 44.9814 70.519 35.2908 59.9984 35.2846C49.7096 35.2814 40.4791 44.7096 42.6145 56.4096C30.7914 56.4096 18.9777 56.4096 7.10449 56.4096C7.10449 51.9908 7.10449 47.6314 7.10449 43.1377C8.94246 42.6721 10.818 42.1908 12.6967 41.7189C14.7382 41.2064 16.7953 40.7408 18.818 40.1627C19.247 40.0408 19.7135 39.5971 19.9076 39.1814C20.6466 37.5939 21.3198 35.9721 21.9272 34.3283C22.0837 33.9033 22.0618 33.2564 21.8427 32.8783C19.8262 29.4096 17.744 25.9752 15.6618 22.4939C15.8403 22.2877 15.9781 22.1064 16.1378 21.9471C20.3585 17.7158 24.5949 13.5002 28.7969 9.25332C29.3323 8.7127 29.7018 8.6502 30.3655 9.05957C33.5217 11.0033 36.7217 12.8721 39.8841 14.8033C40.4477 15.1471 40.8736 15.1564 41.4779 14.8783C43.034 14.1596 44.656 13.5877 46.209 12.8689C46.6254 12.6752 47.092 12.2189 47.2016 11.7939C48.2286 7.87207 49.1804 3.93145 50.1542 -0.00292969C56.7201 0.000195312 63.283 0.000195312 69.8427 0.000195312Z" fill="#F57C00"/>
<path d="M69.9429 56.475C63.4521 56.475 57.0615 56.4625 50.6709 56.4906C49.8474 56.4937 49.8412 55.9312 49.7191 55.4375C48.2756 49.4562 52.1864 43.5531 58.2858 42.4937C65.7942 41.1875 72.2881 48.3937 70.2091 55.7281C70.1433 55.9468 70.0525 56.1593 69.9429 56.475Z" fill="#0930A4"/>
<path d="M56.5322 88.1908C56.5322 85.7908 56.5322 83.5439 56.5322 81.2814C57.9757 81.2814 59.3847 81.1314 60.7467 81.3189C62.4939 81.5595 63.6336 83.2189 63.5146 84.9689C63.3988 86.647 62.0743 88.0533 60.3522 88.1752C59.1123 88.2595 57.8661 88.1908 56.5322 88.1908Z" fill="#0930A4"/>
<path d="M84.7969 81.1848C86.0963 81.1848 87.3049 81.0973 88.4979 81.2035C90.4579 81.3785 91.8137 82.9504 91.7511 84.816C91.6853 86.6973 90.2575 88.1191 88.2724 88.2098C87.1515 88.2598 86.0243 88.2191 84.7969 88.2191C84.7969 85.8629 84.7969 83.5973 84.7969 81.1848Z" fill="#0930A4"/>
</svg>
