<svg width="120" height="120" viewBox="0 0 120 120" fill="none" xmlns="http://www.w3.org/2000/svg">
<g clip-path="url(#clip0_31202_167809)">
<path d="M51.426 34.252C51.426 44.026 51.4296 53.8036 51.426 63.5776C51.426 66.9406 49.7878 68.5648 46.4004 68.5648C32.6076 68.5684 18.8148 68.5684 5.02206 68.5648C1.64898 68.5684 0 66.9262 0 63.5704C0 44.0188 0 24.4672 0.00357696 4.91921C0.00357696 1.64212 1.65613 0.0035776 4.95767 0C18.7969 0 32.6326 0 46.4719 0C49.7448 0 51.426 1.66716 51.426 4.92636C51.4296 14.704 51.426 24.478 51.426 34.252ZM25.8471 8.57194C21.5619 8.57194 17.2767 8.55047 12.9951 8.57909C10.3982 8.59698 8.62764 10.3715 8.57756 12.9509C8.55252 14.3355 8.54894 15.72 8.57756 17.1009C8.63121 19.5301 10.3911 21.3976 12.7876 21.4084C21.401 21.4442 30.0143 21.4442 38.6276 21.4084C41.0385 21.3976 42.7841 19.548 42.8449 17.1081C42.8771 15.813 42.8628 14.5179 42.852 13.2264C42.827 10.3285 41.0779 8.57909 38.1662 8.57194C34.0599 8.56478 29.9535 8.57194 25.8471 8.57194Z" fill="#F57C00"/>
<path d="M34.2853 94.3452C62.8831 94.3452 91.345 94.3452 119.914 94.3452C119.939 94.7316 119.989 95.1144 119.989 95.4972C119.997 99.2465 120.007 102.996 119.989 106.745C119.954 114.437 114.409 119.986 106.705 119.989C86.974 120.004 67.2435 120.004 47.5165 119.989C39.8976 119.982 34.3247 114.412 34.2889 106.82C34.2674 102.713 34.2853 98.6061 34.2853 94.3452ZM81.4154 107.167H81.4118C81.4118 106.409 81.4583 105.647 81.4011 104.892C81.3081 103.697 80.4246 102.878 79.3086 102.863C78.1925 102.849 77.2303 103.658 77.1695 104.835C77.0944 106.348 77.098 107.872 77.1624 109.385C77.2125 110.577 78.1317 111.4 79.2477 111.414C80.4138 111.432 81.3188 110.577 81.4047 109.31C81.4547 108.598 81.4154 107.879 81.4154 107.167ZM85.7185 107.049C85.7185 107.808 85.6755 108.57 85.7292 109.325C85.815 110.584 86.7343 111.439 87.9004 111.414C89.0129 111.389 89.9178 110.563 89.9715 109.368C90.0359 107.897 90.0359 106.42 89.9751 104.949C89.9214 103.69 88.9735 102.835 87.8074 102.863C86.6914 102.889 85.8222 103.715 85.7328 104.91C85.6755 105.618 85.722 106.334 85.7185 107.049ZM94.2889 107.039C94.2889 107.797 94.2495 108.559 94.2996 109.314C94.3819 110.577 95.2904 111.432 96.4601 111.414C97.5761 111.396 98.4882 110.573 98.5419 109.378C98.6098 107.908 98.6063 106.43 98.549 104.96C98.499 103.693 97.5618 102.842 96.3921 102.86C95.226 102.881 94.3676 103.747 94.296 105.024C94.2531 105.697 94.2853 106.366 94.2889 107.039ZM107.127 107.225C107.127 106.466 107.17 105.704 107.116 104.949C107.03 103.69 106.111 102.835 104.945 102.863C103.829 102.889 102.927 103.715 102.877 104.91C102.813 106.38 102.816 107.858 102.874 109.328C102.924 110.588 103.875 111.443 105.041 111.414C106.154 111.389 107.023 110.563 107.116 109.368C107.17 108.656 107.127 107.937 107.127 107.225Z" fill="#0930A4"/>
<path d="M34.3496 89.8983C34.3496 84.1956 34.3496 78.5895 34.3496 72.8546C38.016 72.8546 41.618 72.8617 45.2236 72.851C46.2931 72.8474 47.3805 72.9082 48.4285 72.7365C52.6136 72.0567 55.0996 69.2018 55.7935 64.3506C77.1408 64.3506 98.5025 64.3506 119.925 64.3506C119.925 72.876 119.925 81.3371 119.925 89.8983C91.4344 89.8983 62.9403 89.8983 34.3496 89.8983ZM77.1516 77.1298C77.1516 77.8882 77.1015 78.6503 77.1623 79.4051C77.2589 80.5929 78.1531 81.4086 79.2691 81.4158C80.3816 81.4229 81.333 80.6072 81.3903 79.4266C81.4654 77.9133 81.4618 76.3892 81.3938 74.8759C81.3402 73.6846 80.4066 72.8724 79.2906 72.8653C78.171 72.8581 77.2624 73.6702 77.1659 74.8544C77.1015 75.6057 77.1516 76.3713 77.1516 77.1298ZM85.722 77.1369C85.722 77.8954 85.6719 78.6574 85.7327 79.4123C85.8293 80.5965 86.7307 81.4122 87.8503 81.4158C88.9663 81.4158 89.907 80.6036 89.9642 79.4159C90.0358 77.9025 90.0358 76.3785 89.9642 74.8652C89.907 73.6774 88.9699 72.8653 87.8538 72.8653C86.7342 72.8653 85.8329 73.6774 85.7363 74.8652C85.6719 75.6165 85.722 76.3785 85.722 77.1369ZM98.5561 77.2228C98.5561 76.4644 98.599 75.7023 98.5454 74.9475C98.4595 73.6881 97.5331 72.8367 96.367 72.8653C95.251 72.8939 94.3532 73.7203 94.3031 74.9152C94.2387 76.3856 94.2423 77.8632 94.2995 79.3336C94.3496 80.5893 95.3047 81.4444 96.4707 81.4158C97.5832 81.3871 98.4524 80.5607 98.5418 79.3622C98.599 78.6538 98.5561 77.9348 98.5561 77.2228ZM107.123 77.1298C107.123 76.3713 107.177 75.6093 107.112 74.8544C107.012 73.6702 106.104 72.8581 104.988 72.8617C103.868 72.8653 102.938 73.681 102.884 74.8687C102.816 76.3821 102.813 77.9061 102.884 79.4195C102.941 80.6036 103.886 81.4158 105.002 81.4122C106.118 81.4086 107.016 80.5929 107.112 79.4051C107.173 78.6538 107.123 77.8882 107.123 77.1298Z" fill="#0930A4"/>
<path d="M55.7754 59.9069C55.7754 51.3457 55.7754 42.8811 55.7754 34.3521C77.1513 34.3521 98.4665 34.3521 119.889 34.3521C119.889 42.8274 119.889 51.3206 119.889 59.9069C98.5702 59.9069 77.2229 59.9069 55.7754 59.9069ZM81.4079 47.1635C81.4115 47.1635 81.4151 47.1635 81.4222 47.1635C81.4222 46.4944 81.4222 45.8254 81.4222 45.1564C81.4222 45.067 81.4222 44.9775 81.4115 44.8881C81.2756 43.6968 80.4207 42.8775 79.3047 42.8667C78.1887 42.8524 77.23 43.6646 77.1728 44.8416C77.0977 46.3549 77.1013 47.879 77.1692 49.3923C77.2229 50.5836 78.1422 51.4029 79.2582 51.4172C80.3706 51.4315 81.2935 50.6194 81.3972 49.4388C81.4616 48.6875 81.4079 47.9219 81.4079 47.1635ZM89.9819 47.2636C89.9819 46.4587 90.0356 45.6537 89.9676 44.8559C89.8674 43.6717 88.9553 42.8596 87.8393 42.8667C86.7197 42.8739 85.7933 43.6896 85.7396 44.8774C85.6717 46.3907 85.6681 47.9148 85.7396 49.4281C85.7969 50.6087 86.7483 51.4244 87.8608 51.4172C88.9768 51.4101 89.8674 50.5944 89.9676 49.4066C90.032 48.6947 89.9819 47.9756 89.9819 47.2636ZM98.5523 47.1348C98.5559 47.1348 98.5595 47.1348 98.563 47.1348C98.563 46.4658 98.563 45.7968 98.563 45.1278C98.563 45.0384 98.563 44.9489 98.5523 44.8595C98.4092 43.6789 97.5329 42.8632 96.4169 42.8667C95.2973 42.8703 94.3637 43.6824 94.31 44.8702C94.2385 46.3835 94.2385 47.9076 94.31 49.4209C94.3673 50.6051 95.3116 51.4172 96.4276 51.4172C97.5436 51.4136 98.4414 50.598 98.5416 49.4102C98.6024 48.6553 98.5523 47.8933 98.5523 47.1348ZM107.126 47.0597C107.126 46.3442 107.169 45.6287 107.116 44.9167C107.026 43.7182 106.161 42.8918 105.045 42.8632C103.875 42.8346 102.923 43.6824 102.873 44.9418C102.812 46.4122 102.812 47.8897 102.877 49.3601C102.927 50.555 103.828 51.385 104.941 51.4136C106.103 51.4458 107.03 50.5908 107.119 49.3315C107.169 48.5802 107.126 47.8182 107.126 47.0597Z" fill="#0930A4"/>
<path d="M119.993 29.9339C98.4736 29.9339 77.1585 29.9339 55.7754 29.9339C55.7754 21.4049 55.7754 12.9439 55.7754 4.28605C56.2475 4.28605 56.7161 4.28605 57.1883 4.28605C73.6137 4.28605 90.0356 4.28247 106.461 4.28963C114.506 4.29321 119.982 9.77409 119.993 17.8237C120 21.8306 119.993 25.8375 119.993 29.9339ZM81.4115 17.144C81.4115 16.3855 81.4616 15.6235 81.4008 14.8686C81.3006 13.6808 80.3992 12.8687 79.2832 12.8687C78.1636 12.8687 77.2264 13.6808 77.1692 14.865C77.0977 16.3784 77.0977 17.9024 77.1692 19.4157C77.2229 20.5999 78.1636 21.4156 79.2796 21.4192C80.3956 21.4192 81.297 20.6071 81.3972 19.4193C81.4616 18.6644 81.4115 17.9024 81.4115 17.144ZM85.7217 17.1547C85.7217 17.9131 85.6717 18.6752 85.7325 19.43C85.8326 20.6107 86.7448 21.4264 87.8608 21.4192C88.9768 21.412 89.9068 20.5999 89.964 19.4086C90.0356 17.8953 90.0356 16.3712 89.9604 14.8579C89.9032 13.6737 88.9517 12.8616 87.8393 12.8687C86.7197 12.8759 85.829 13.6916 85.7325 14.8793C85.6717 15.6306 85.7217 16.3927 85.7217 17.1547ZM98.5559 17.2262C98.5559 16.4678 98.5988 15.7058 98.5452 14.9509C98.4593 13.6916 97.5365 12.8401 96.3704 12.8687C95.2544 12.8973 94.353 13.7202 94.3029 14.9151C94.2385 16.3855 94.2421 17.8631 94.2993 19.3335C94.3494 20.5928 95.3008 21.4478 96.4669 21.4192C97.5794 21.3942 98.4486 20.5641 98.5416 19.3692C98.5988 18.6573 98.5559 17.9418 98.5559 17.2262ZM102.866 17.1296C102.863 17.1296 102.859 17.1296 102.855 17.1296C102.855 17.7987 102.855 18.4677 102.855 19.1367C102.855 19.2261 102.855 19.3156 102.866 19.405C103.002 20.5892 103.868 21.4085 104.984 21.4156C106.096 21.4228 107.048 20.6071 107.105 19.4265C107.18 17.9131 107.176 16.3891 107.108 14.8758C107.055 13.6844 106.121 12.8723 105.005 12.8651C103.886 12.858 102.977 13.6701 102.88 14.8543C102.812 15.6092 102.866 16.3712 102.866 17.1296Z" fill="#0930A4"/>
</g>
<defs>
<clipPath id="clip0_31202_167809">
<rect width="120" height="120" fill="white"/>
</clipPath>
</defs>
</svg>
