<svg width="120" height="120" viewBox="0 0 120 120" fill="none" xmlns="http://www.w3.org/2000/svg">
<path d="M120 4.28571V30H0V4.28571C0 3.14907 0.451529 2.05898 1.25526 1.25526C2.05898 0.451529 3.14907 0 4.28571 0H115.714C116.851 0 117.941 0.451529 118.745 1.25526C119.548 2.05898 120 3.14907 120 4.28571Z" fill="#FC7D25"/>
<path d="M120 30V115.714C120 116.851 119.548 117.941 118.745 118.745C117.941 119.548 116.851 120 115.714 120H4.28571C3.14907 120 2.05898 119.548 1.25526 118.745C0.451529 117.941 0 116.851 0 115.714V30H120Z" fill="url(#paint0_linear_18487_84061)"/>
<path d="M68.5713 8.57129H12.857C10.4901 8.57129 8.57129 10.4901 8.57129 12.857V17.1427C8.57129 19.5097 10.4901 21.4284 12.857 21.4284H68.5713C70.9382 21.4284 72.857 19.5097 72.857 17.1427V12.857C72.857 10.4901 70.9382 8.57129 68.5713 8.57129Z" fill="#0930A4"/>
<path d="M96.4283 19.2858C95.5807 19.2858 94.7521 19.0344 94.0473 18.5635C93.3425 18.0926 92.7932 17.4233 92.4688 16.6401C92.1444 15.857 92.0596 14.9953 92.2249 14.164C92.3903 13.3326 92.7985 12.569 93.3978 11.9696C93.9972 11.3702 94.7608 10.9621 95.5922 10.7967C96.4235 10.6313 97.2853 10.7162 98.0684 11.0406C98.8515 11.365 99.5208 11.9143 99.9917 12.6191C100.463 13.3238 100.714 14.1524 100.714 15.0001C100.714 16.1367 100.262 17.2268 99.4588 18.0305C98.655 18.8343 97.5649 19.2858 96.4283 19.2858Z" fill="#0930A4"/>
<path d="M83.5718 19.2858C82.7242 19.2858 81.8956 19.0344 81.1908 18.5635C80.4861 18.0926 79.9367 17.4233 79.6124 16.6401C79.288 15.857 79.2031 14.9953 79.3685 14.164C79.5338 13.3326 79.942 12.569 80.5414 11.9696C81.1408 11.3702 81.9044 10.9621 82.7357 10.7967C83.5671 10.6313 84.4288 10.7162 85.2119 11.0406C85.995 11.365 86.6644 11.9143 87.1353 12.6191C87.6062 13.3238 87.8576 14.1524 87.8576 15.0001C87.8576 16.1367 87.406 17.2268 86.6023 18.0305C85.7986 18.8343 84.7085 19.2858 83.5718 19.2858Z" fill="#D7E9F7"/>
<path d="M109.286 19.2858C108.438 19.2858 107.609 19.0344 106.905 18.5635C106.2 18.0926 105.651 17.4233 105.326 16.6401C105.002 15.857 104.917 14.9953 105.082 14.164C105.248 13.3326 105.656 12.569 106.255 11.9696C106.855 11.3702 107.618 10.9621 108.45 10.7967C109.281 10.6313 110.143 10.7162 110.926 11.0406C111.709 11.365 112.378 11.9143 112.849 12.6191C113.32 13.3238 113.571 14.1524 113.571 15.0001C113.571 16.1367 113.12 17.2268 112.316 18.0305C111.512 18.8343 110.422 19.2858 109.286 19.2858Z" fill="#D7E9F7"/>
<path d="M60.0001 98.5717C59.4318 98.5717 58.8868 98.3459 58.4849 97.9441C58.083 97.5422 57.8573 96.9972 57.8573 96.4289V75.0003C57.8573 74.432 58.083 73.8869 58.4849 73.485C58.8868 73.0832 59.4318 72.8574 60.0001 72.8574C60.5685 72.8574 61.1135 73.0832 61.5154 73.485C61.9172 73.8869 62.143 74.432 62.143 75.0003V96.4289C62.143 96.9972 61.9172 97.5422 61.5154 97.9441C61.1135 98.3459 60.5685 98.5717 60.0001 98.5717ZM81.4287 98.5717C80.8604 98.5717 80.3153 98.3459 79.9135 97.9441C79.5116 97.5422 79.2859 96.9972 79.2859 96.4289V75.0003C79.2859 74.432 79.5116 73.8869 79.9135 73.485C80.3153 73.0832 80.8604 72.8574 81.4287 72.8574C81.997 72.8574 82.5421 73.0832 82.9439 73.485C83.3458 73.8869 83.5716 74.432 83.5716 75.0003V96.4289C83.5716 96.9972 83.3458 97.5422 82.9439 97.9441C82.5421 98.3459 81.997 98.5717 81.4287 98.5717ZM38.5716 98.5717C38.0032 98.5717 37.4582 98.3459 37.0563 97.9441C36.6545 97.5422 36.4287 96.9972 36.4287 96.4289V75.0003C36.4287 74.432 36.6545 73.8869 37.0563 73.485C37.4582 73.0832 38.0032 72.8574 38.5716 72.8574C39.1399 72.8574 39.6849 73.0832 40.0868 73.485C40.4887 73.8869 40.7144 74.432 40.7144 75.0003V96.4289C40.7144 96.9972 40.4887 97.5422 40.0868 97.9441C39.6849 98.3459 39.1399 98.5717 38.5716 98.5717Z" fill="#B4CDE1"/>
<path d="M42.8569 92.1426H34.2854C33.102 92.1426 32.1426 93.102 32.1426 94.2854V100.714C32.1426 101.897 33.102 102.857 34.2854 102.857H42.8569C44.0403 102.857 44.9997 101.897 44.9997 100.714V94.2854C44.9997 93.102 44.0403 92.1426 42.8569 92.1426Z" fill="url(#paint1_linear_18487_84061)"/>
<path d="M64.2856 92.1426H55.7141C54.5307 92.1426 53.5713 93.102 53.5713 94.2854V100.714C53.5713 101.897 54.5307 102.857 55.7141 102.857H64.2856C65.469 102.857 66.4284 101.897 66.4284 100.714V94.2854C66.4284 93.102 65.469 92.1426 64.2856 92.1426Z" fill="url(#paint2_linear_18487_84061)"/>
<path d="M85.7143 92.1426H77.1429C75.9594 92.1426 75 93.102 75 94.2854V100.714C75 101.897 75.9594 102.857 77.1429 102.857H85.7143C86.8978 102.857 87.8571 101.897 87.8571 100.714V94.2854C87.8571 93.102 86.8978 92.1426 85.7143 92.1426Z" fill="url(#paint3_linear_18487_84061)"/>
<path d="M91.0719 69.6427C91.0652 71.6846 90.3298 73.657 88.998 75.2048C87.6662 76.7527 85.8257 77.7742 83.8077 78.0856H83.1648C82.9439 78.1068 82.7214 78.1068 82.5005 78.0856H39.6434C39.4225 78.1068 39.2 78.1068 38.9791 78.0856C36.1375 77.9975 33.4473 76.7842 31.5002 74.7126C29.5532 72.641 28.5089 69.8808 28.5969 67.0392C28.685 64.1976 29.8983 61.5073 31.97 59.5603C34.0416 57.6133 36.8018 56.5689 39.6434 56.657H39.8362C39.7077 55.95 39.6431 55.2328 39.6434 54.5142C39.6869 51.6033 40.7169 48.7934 42.5651 46.5441C44.4132 44.2948 46.97 42.7392 49.8172 42.132C52.6643 41.5247 55.6333 41.9017 58.2383 43.2012C60.8434 44.5007 62.9303 46.6458 64.1577 49.2856C65.9155 47.4839 68.2516 46.3587 70.7562 46.1072C73.2607 45.8558 75.7739 46.4942 77.8548 47.9104C79.9358 49.3267 81.4516 51.4304 82.1365 53.8526C82.8214 56.2748 82.6317 58.8608 81.6005 61.157H82.5005C84.759 61.1569 86.9263 62.0482 88.5313 63.6372C90.1363 65.2261 91.0494 67.3843 91.0719 69.6427Z" fill="#0930A4"/>
<defs>
<linearGradient id="paint0_linear_18487_84061" x1="0" y1="75" x2="120" y2="75" gradientUnits="userSpaceOnUse">
<stop stop-color="#D3E6F5"/>
<stop offset="1" stop-color="#F0F7FC"/>
</linearGradient>
<linearGradient id="paint1_linear_18487_84061" x1="33.2997" y1="102.771" x2="43.8426" y2="92.2283" gradientUnits="userSpaceOnUse">
<stop stop-color="#FE9661"/>
<stop offset="1" stop-color="#FFB369"/>
</linearGradient>
<linearGradient id="paint2_linear_18487_84061" x1="54.7284" y1="102.771" x2="65.2713" y2="92.2283" gradientUnits="userSpaceOnUse">
<stop stop-color="#FE9661"/>
<stop offset="1" stop-color="#FFB369"/>
</linearGradient>
<linearGradient id="paint3_linear_18487_84061" x1="76.1571" y1="102.771" x2="86.7" y2="92.2283" gradientUnits="userSpaceOnUse">
<stop stop-color="#FE9661"/>
<stop offset="1" stop-color="#FFB369"/>
</linearGradient>
</defs>
</svg>
