<svg width="120" height="86" viewBox="0 0 120 86" fill="none" xmlns="http://www.w3.org/2000/svg">
<path d="M115.714 47.6013V10.6637C115.714 10.0936 115.489 9.54686 115.087 9.14374C114.685 8.74063 114.14 8.51416 113.571 8.51416C113.003 8.51416 112.458 8.74063 112.056 9.14374C111.654 9.54686 111.429 10.0936 111.429 10.6637V47.6013C110.558 47.9065 109.763 48.3963 109.097 49.0372C102.566 28.0749 83.0271 12.8132 60 12.8132C36.9729 12.8132 17.4343 28.0749 10.9029 49.0372C10.2374 48.3963 9.44227 47.9065 8.57143 47.6013V10.6637C8.57143 10.0936 8.34566 9.54686 7.9438 9.14374C7.54194 8.74063 6.99689 8.51416 6.42857 8.51416C5.86025 8.51416 5.31521 8.74063 4.91334 9.14374C4.51148 9.54686 4.28571 10.0936 4.28571 10.6637V47.6013C1.8 48.4912 0 50.8557 0 53.6544V70.8506C0 74.4059 2.88429 77.2992 6.42857 77.2992C8.44286 77.2992 10.2257 76.3448 11.4086 74.8788C15.0857 81.4177 21.9943 85.8973 30 85.8973H90C98.0057 85.8973 104.914 81.4177 108.591 74.8788C109.774 76.3405 111.553 77.2992 113.571 77.2992C117.116 77.2992 120 74.4059 120 70.8506V53.6544C120 50.8557 118.2 48.4955 115.714 47.6013Z" fill="#F57C00"/>
<path d="M79.2402 38.7944H40.7589C32.5068 38.7944 25.7939 45.5859 25.7939 53.9346C25.7939 62.2834 32.5068 69.0748 40.7589 69.0748H79.2402C87.4923 69.0748 94.2052 62.2834 94.2052 53.9346C94.2052 45.5859 87.4923 38.7944 79.2402 38.7944Z" fill="url(#paint0_linear_18487_84084)"/>
<path d="M79.2402 38.7944H40.7589C32.5068 38.7944 25.7939 45.5859 25.7939 53.9346C25.7939 62.2834 32.5068 69.0748 40.7589 69.0748H79.2402C87.4923 69.0748 94.2052 62.2834 94.2052 53.9346C94.2052 45.5859 87.4923 38.7944 79.2402 38.7944Z" fill="url(#paint1_linear_18487_84084)"/>
<path d="M45.14 60.1033C48.7015 60.1033 51.5886 57.2161 51.5886 53.6547C51.5886 50.0932 48.7015 47.2061 45.14 47.2061C41.5785 47.2061 38.6914 50.0932 38.6914 53.6547C38.6914 57.2161 41.5785 60.1033 45.14 60.1033Z" fill="#0930A4"/>
<path d="M74.8597 60.1033C78.4212 60.1033 81.3083 57.2161 81.3083 53.6547C81.3083 50.0932 78.4212 47.2061 74.8597 47.2061C71.2983 47.2061 68.4111 50.0932 68.4111 53.6547C68.4111 57.2161 71.2983 60.1033 74.8597 60.1033Z" fill="#0930A4"/>
<path d="M6.4486 13.5608C10.0101 13.5608 12.8972 10.6736 12.8972 7.11217C12.8972 3.55071 10.0101 0.663574 6.4486 0.663574C2.88714 0.663574 0 3.55071 0 7.11217C0 10.6736 2.88714 13.5608 6.4486 13.5608Z" fill="#F57C00"/>
<path d="M113.551 13.0002C117.113 13.0002 120 10.1131 120 6.55163C120 2.99016 117.113 0.103027 113.551 0.103027C109.99 0.103027 107.103 2.99016 107.103 6.55163C107.103 10.1131 109.99 13.0002 113.551 13.0002Z" fill="#F57C00"/>
<defs>
<linearGradient id="paint0_linear_18487_84084" x1="94" y1="54" x2="26" y2="54" gradientUnits="userSpaceOnUse">
<stop stop-color="#F1F2F2"/>
<stop offset="1" stop-color="#F1F2F2" stop-opacity="0"/>
</linearGradient>
<linearGradient id="paint1_linear_18487_84084" x1="25.7939" y1="53.9346" x2="94.2052" y2="53.9346" gradientUnits="userSpaceOnUse">
<stop stop-color="#D3E6F5"/>
<stop offset="1" stop-color="#F0F7FC"/>
</linearGradient>
</defs>
</svg>
