<svg width="120" height="120" viewBox="0 0 120 120" fill="none" xmlns="http://www.w3.org/2000/svg">
<path d="M91.3035 62.6087C85.6281 62.6087 80.0801 64.2917 75.3611 67.4448C70.6421 70.5979 66.9641 75.0796 64.7922 80.323C62.6203 85.5664 62.052 91.3362 63.1593 96.9026C64.2665 102.469 66.9995 107.582 71.0127 111.595C75.0258 115.608 80.1389 118.341 85.7053 119.449C91.2717 120.556 97.0415 119.988 102.285 117.816C107.528 115.644 112.01 111.966 115.163 107.247C118.316 102.528 119.999 96.9798 119.999 91.3043C119.999 83.6938 116.976 76.3949 111.594 71.0135C106.213 65.632 98.9141 62.6087 91.3035 62.6087ZM97.8253 104.348H78.2601C77.5682 104.348 76.9047 104.073 76.4154 103.584C75.9262 103.095 75.6514 102.431 75.6514 101.739C75.6514 101.047 75.9262 100.384 76.4154 99.8945C76.9047 99.4053 77.5682 99.1304 78.2601 99.1304H97.8253C99.555 99.1304 101.214 98.4433 102.437 97.2203C103.66 95.9972 104.347 94.3384 104.347 92.6087C104.347 90.879 103.66 89.2202 102.437 87.9971C101.214 86.7741 99.555 86.087 97.8253 86.087H84.547L85.3296 86.8435C85.6975 87.2084 85.9484 87.6745 86.0504 88.1826C86.1523 88.6906 86.1006 89.2175 85.9019 89.696C85.7032 90.1746 85.3665 90.5831 84.9347 90.8696C84.5029 91.156 83.9956 91.3074 83.4775 91.3043C82.0427 91.3043 81.9644 90.887 76.4079 85.3304C76.0459 84.9636 75.8007 84.4978 75.7032 83.9917C75.6057 83.4856 75.6603 82.962 75.8601 82.4869C76.1731 81.7565 75.8601 82.2 81.6253 76.4087C82.1165 75.9175 82.7828 75.6415 83.4775 75.6415C84.1722 75.6415 84.8384 75.9175 85.3296 76.4087C85.8209 76.8999 86.0968 77.5662 86.0968 78.2609C86.0968 78.9556 85.8209 79.6218 85.3296 80.113L84.547 80.8696H97.8253C100.939 80.8696 103.925 82.1064 106.126 84.3079C108.328 86.5094 109.564 89.4953 109.564 92.6087C109.564 95.7221 108.328 98.708 106.126 100.91C103.925 103.111 100.939 104.348 97.8253 104.348ZM39.1296 0H65.2166V26.087H39.1296V0ZM15.6514 78.2609H36.5209V88.6956H15.6514V78.2609Z" fill="#0930A4"/>
<path d="M70.4348 0V28.6957C70.4348 29.3875 70.1599 30.0511 69.6707 30.5403C69.1815 31.0295 68.518 31.3043 67.8261 31.3043H36.5217C35.8299 31.3043 35.1663 31.0295 34.6771 30.5403C34.1879 30.0511 33.913 29.3875 33.913 28.6957V0H5.21739C3.83365 0 2.50659 0.549688 1.52814 1.52814C0.549688 2.50659 0 3.83365 0 5.21739V99.1304C0 100.514 0.549688 101.841 1.52814 102.82C2.50659 103.798 3.83365 104.348 5.21739 104.348H60C48.4696 76.5913 76.487 48.4174 104.348 60V5.21739C104.348 3.83365 103.798 2.50659 102.82 1.52814C101.841 0.549688 100.514 0 99.1304 0H70.4348ZM41.7391 91.3043C41.7391 91.9962 41.4643 92.6597 40.9751 93.149C40.4858 93.6382 39.8223 93.913 39.1304 93.913H13.0435C12.3516 93.913 11.6881 93.6382 11.1989 93.149C10.7096 92.6597 10.4348 91.9962 10.4348 91.3043V75.6522C10.4348 74.9603 10.7096 74.2968 11.1989 73.8075C11.6881 73.3183 12.3516 73.0435 13.0435 73.0435H39.1304C39.8223 73.0435 40.4858 73.3183 40.9751 73.8075C41.4643 74.2968 41.7391 74.9603 41.7391 75.6522V91.3043Z" fill="#F57C00"/>
</svg>
