<svg width="120" height="122" viewBox="0 0 120 122" fill="none" xmlns="http://www.w3.org/2000/svg">
<path d="M60.0106 98.9361C55.0288 98.9361 50.0959 97.9549 45.4933 96.0485C40.8908 94.1421 36.7088 91.3478 33.1862 87.8251C29.6636 84.3025 26.8693 80.1206 24.9629 75.518C23.0564 70.9155 22.0752 65.9825 22.0752 61.0008C22.0752 56.0191 23.0564 51.0861 24.9628 46.4836C26.8693 41.881 29.6636 37.6991 33.1862 34.1764C36.7088 30.6538 40.8908 27.8595 45.4933 25.9531C50.0959 24.0467 55.0288 23.0654 60.0106 23.0654C70.0717 23.0654 79.7207 27.0622 86.8349 34.1765C93.9492 41.2907 97.9459 50.9397 97.9459 61.0008C97.9459 71.0619 93.9492 80.7109 86.8349 87.8251C79.7206 94.9394 70.0716 98.9361 60.0106 98.9361Z" fill="#F57C00"/>
<path d="M62.7771 35.8682C58.372 35.8682 57.1534 39.4997 56.2923 43.8199L53.8631 60.0132L48.2935 61.739C44.0859 63.0431 40.3418 63.8187 40.3418 68.2238C40.3418 72.6289 43.8884 74.0079 48.2935 74.0079H60.6094C65.0145 74.0079 68.5611 70.4612 68.5611 66.0561V43.8199C68.5611 39.4148 67.1822 35.8682 62.7771 35.8682Z" fill="white"/>
<path d="M62.7771 35.8682C58.372 35.8682 57.1534 39.4997 56.2923 43.8199L53.8631 60.0132L48.2935 61.739C44.0859 63.0431 40.3418 63.8187 40.3418 68.2238C40.3418 72.6289 43.8884 74.0079 48.2935 74.0079H60.6094C65.0145 74.0079 68.5611 70.4612 68.5611 66.0561V43.8199C68.5611 39.4148 67.1822 35.8682 62.7771 35.8682Z" fill="url(#paint0_linear_18487_84073)"/>
<path d="M60.0105 0.997559C31.4143 0.997559 6.73464 21.246 1.1558 49.2927C-4.42304 77.3395 10.6223 105.494 37.0417 116.437C63.4612 127.381 94.0143 118.118 109.902 94.3416C122.804 75.0319 123.162 50.4502 112.011 31.0646C114.469 31.3997 116.801 29.8825 117.49 27.4998C118.258 24.8477 116.732 22.0749 114.08 21.306L100.362 17.3232C100.362 17.3232 97.7521 16.6534 95.7807 18.108C93.8094 19.5625 93.9021 21.8798 93.9021 22.1029V35.8873C93.8999 38.6497 96.1381 40.8905 98.9006 40.8916C101.285 40.8934 103.339 39.2115 103.807 36.8737C112.649 52.8994 112.186 72.9214 101.588 88.7825C88.3177 108.643 62.9423 116.343 40.8741 107.202C18.8058 98.0611 6.30717 74.6697 10.9672 51.2421C15.6272 27.8146 36.124 11.0004 60.0105 11.0004C62.7729 10.9982 65.0103 8.75651 65.007 5.99408C65.0048 3.23547 62.7691 0.999709 60.0105 0.997559Z" fill="#0930A4"/>
<defs>
<linearGradient id="paint0_linear_18487_84073" x1="49" y1="36" x2="59" y2="74" gradientUnits="userSpaceOnUse">
<stop stop-color="#D3E6F5"/>
<stop offset="1" stop-color="#F0F7FC"/>
</linearGradient>
</defs>
</svg>
