<svg width="120" height="118" viewBox="0 0 120 118" fill="none" xmlns="http://www.w3.org/2000/svg">
<path d="M64.2853 62.2142C64.8536 62.2142 65.3987 61.9884 65.8005 61.5866C66.2024 61.1847 66.4281 60.6397 66.4281 60.0713C66.4281 59.503 66.2024 58.958 65.8005 58.5561C65.3987 58.1542 64.8536 57.9285 64.2853 57.9285H55.7139V17.2142C55.7139 16.6459 55.9396 16.1008 56.3415 15.699C56.7434 15.2971 57.2884 15.0714 57.8567 15.0714H64.2853C64.8536 15.0714 65.3987 14.8456 65.8005 14.4437C66.2024 14.0419 66.4281 13.4968 66.4281 12.9285C66.4281 12.3602 66.2024 11.8151 65.8005 11.4133C65.3987 11.0114 64.8536 10.7856 64.2853 10.7856H57.8567C56.1518 10.7856 54.5166 11.4629 53.311 12.6685C52.1054 13.8741 51.4281 15.5093 51.4281 17.2142V57.9285H42.8567C42.2884 57.9285 41.7434 58.1542 41.3415 58.5561C40.9396 58.958 40.7139 59.503 40.7139 60.0713C40.7139 60.6397 40.9396 61.1847 41.3415 61.5866C41.7434 61.9884 42.2884 62.2142 42.8567 62.2142H51.4281V102.928C51.4281 104.633 52.1054 106.269 53.311 107.474C54.5166 108.68 56.1518 109.357 57.8567 109.357H64.2853C64.8536 109.357 65.3987 109.131 65.8005 108.729C66.2024 108.328 66.4281 107.783 66.4281 107.214C66.4281 106.646 66.2024 106.101 65.8005 105.699C65.3987 105.297 64.8536 105.071 64.2853 105.071H57.8567C57.2884 105.071 56.7434 104.846 56.3415 104.444C55.9396 104.042 55.7139 103.497 55.7139 102.928V62.2142H64.2853Z" fill="#F57C00"/>
<path d="M38.5714 15.0713H4.28571C1.91878 15.0713 0 16.9901 0 19.357V100.786C0 103.152 1.91878 105.071 4.28571 105.071H38.5714C40.9383 105.071 42.8571 103.152 42.8571 100.786V19.357C42.8571 16.9901 40.9383 15.0713 38.5714 15.0713Z" fill="#0930A4"/>
<path d="M21.4288 94.3572C26.1627 94.3572 30.0003 90.5196 30.0003 85.7858C30.0003 81.0519 26.1627 77.2144 21.4288 77.2144C16.695 77.2144 12.8574 81.0519 12.8574 85.7858C12.8574 90.5196 16.695 94.3572 21.4288 94.3572Z" fill="#F57C00"/>
<path d="M32.1427 25.7856H10.7141C9.53068 25.7856 8.57129 26.745 8.57129 27.9285V32.2142C8.57129 33.3977 9.53068 34.3571 10.7141 34.3571H32.1427C33.3262 34.3571 34.2856 33.3977 34.2856 32.2142V27.9285C34.2856 26.745 33.3262 25.7856 32.1427 25.7856Z" fill="#D7E9F7"/>
<path d="M32.1427 42.9282H10.7141C9.53068 42.9282 8.57129 43.8876 8.57129 45.0711V49.3568C8.57129 50.5403 9.53068 51.4996 10.7141 51.4996H32.1427C33.3262 51.4996 34.2856 50.5403 34.2856 49.3568V45.0711C34.2856 43.8876 33.3262 42.9282 32.1427 42.9282Z" fill="#D7E9F7"/>
<path d="M32.1427 60.0713H10.7141C9.53068 60.0713 8.57129 61.0307 8.57129 62.2141V66.4999C8.57129 67.6833 9.53068 68.6427 10.7141 68.6427H32.1427C33.3262 68.6427 34.2856 67.6833 34.2856 66.4999V62.2141C34.2856 61.0307 33.3262 60.0713 32.1427 60.0713Z" fill="#D7E9F7"/>
<path d="M115.715 0.0712891H68.5718C66.2049 0.0712891 64.2861 1.99007 64.2861 4.357V21.4999C64.2861 23.8668 66.2049 25.7856 68.5718 25.7856H115.715C118.082 25.7856 120 23.8668 120 21.4999V4.357C120 1.99007 118.082 0.0712891 115.715 0.0712891Z" fill="#0930A4"/>
<path d="M72.8577 19.3571C72.2894 19.3571 71.7443 19.1314 71.3425 18.7295C70.9406 18.3276 70.7148 17.7826 70.7148 17.2143V8.64286C70.7148 8.07454 70.9406 7.52949 71.3425 7.12763C71.7443 6.72576 72.2894 6.5 72.8577 6.5C73.426 6.5 73.9711 6.72576 74.3729 7.12763C74.7748 7.52949 75.0006 8.07454 75.0006 8.64286V17.2143C75.0006 17.7826 74.7748 18.3276 74.3729 18.7295C73.9711 19.1314 73.426 19.3571 72.8577 19.3571ZM81.4291 19.3571C80.8608 19.3571 80.3158 19.1314 79.9139 18.7295C79.512 18.3276 79.2863 17.7826 79.2863 17.2143V8.64286C79.2863 8.07454 79.512 7.52949 79.9139 7.12763C80.3158 6.72576 80.8608 6.5 81.4291 6.5C81.9974 6.5 82.5425 6.72576 82.9444 7.12763C83.3462 7.52949 83.572 8.07454 83.572 8.64286V17.2143C83.572 17.7826 83.3462 18.3276 82.9444 18.7295C82.5425 19.1314 81.9974 19.3571 81.4291 19.3571ZM90.0005 19.3571C89.4322 19.3571 88.8872 19.1314 88.4853 18.7295C88.0835 18.3276 87.8577 17.7826 87.8577 17.2143V8.64286C87.8577 8.07454 88.0835 7.52949 88.4853 7.12763C88.8872 6.72576 89.4322 6.5 90.0005 6.5C90.5689 6.5 91.1139 6.72576 91.5158 7.12763C91.9176 7.52949 92.1434 8.07454 92.1434 8.64286V17.2143C92.1434 17.7826 91.9176 18.3276 91.5158 18.7295C91.1139 19.1314 90.5689 19.3571 90.0005 19.3571Z" fill="#D7E9F7"/>
<path d="M107.143 17.214C109.51 17.214 111.429 15.2952 111.429 12.9283C111.429 10.5614 109.51 8.64258 107.143 8.64258C104.776 8.64258 102.857 10.5614 102.857 12.9283C102.857 15.2952 104.776 17.214 107.143 17.214Z" fill="#F57C00"/>
<path d="M115.715 47.2139H68.5718C66.2049 47.2139 64.2861 49.1326 64.2861 51.4996V68.6424C64.2861 71.0094 66.2049 72.9281 68.5718 72.9281H115.715C118.082 72.9281 120 71.0094 120 68.6424V51.4996C120 49.1326 118.082 47.2139 115.715 47.2139Z" fill="#0930A4"/>
<path d="M72.8577 66.4997C72.2894 66.4997 71.7443 66.274 71.3425 65.8721C70.9406 65.4702 70.7148 64.9252 70.7148 64.3569V55.7854C70.7148 55.2171 70.9406 54.6721 71.3425 54.2702C71.7443 53.8683 72.2894 53.6426 72.8577 53.6426C73.426 53.6426 73.9711 53.8683 74.3729 54.2702C74.7748 54.6721 75.0006 55.2171 75.0006 55.7854V64.3569C75.0006 64.9252 74.7748 65.4702 74.3729 65.8721C73.9711 66.274 73.426 66.4997 72.8577 66.4997ZM81.4291 66.4997C80.8608 66.4997 80.3158 66.274 79.9139 65.8721C79.512 65.4702 79.2863 64.9252 79.2863 64.3569V55.7854C79.2863 55.2171 79.512 54.6721 79.9139 54.2702C80.3158 53.8683 80.8608 53.6426 81.4291 53.6426C81.9974 53.6426 82.5425 53.8683 82.9444 54.2702C83.3462 54.6721 83.572 55.2171 83.572 55.7854V64.3569C83.572 64.9252 83.3462 65.4702 82.9444 65.8721C82.5425 66.274 81.9974 66.4997 81.4291 66.4997ZM90.0005 66.4997C89.4322 66.4997 88.8872 66.274 88.4853 65.8721C88.0835 65.4702 87.8577 64.9252 87.8577 64.3569V55.7854C87.8577 55.2171 88.0835 54.6721 88.4853 54.2702C88.8872 53.8683 89.4322 53.6426 90.0005 53.6426C90.5689 53.6426 91.1139 53.8683 91.5158 54.2702C91.9176 54.6721 92.1434 55.2171 92.1434 55.7854V64.3569C92.1434 64.9252 91.9176 65.4702 91.5158 65.8721C91.1139 66.274 90.5689 66.4997 90.0005 66.4997Z" fill="#D7E9F7"/>
<path d="M107.143 64.3571C109.51 64.3571 111.429 62.4383 111.429 60.0714C111.429 57.7044 109.51 55.7856 107.143 55.7856C104.776 55.7856 102.857 57.7044 102.857 60.0714C102.857 62.4383 104.776 64.3571 107.143 64.3571Z" fill="#F57C00"/>
<path d="M115.715 92.2139H68.5718C66.2049 92.2139 64.2861 94.1326 64.2861 96.4996V113.642C64.2861 116.009 66.2049 117.928 68.5718 117.928H115.715C118.082 117.928 120 116.009 120 113.642V96.4996C120 94.1326 118.082 92.2139 115.715 92.2139Z" fill="#0930A4"/>
<path d="M72.8577 111.5C72.2894 111.5 71.7443 111.274 71.3425 110.872C70.9406 110.47 70.7148 109.925 70.7148 109.357V100.785C70.7148 100.217 70.9406 99.6721 71.3425 99.2702C71.7443 98.8683 72.2894 98.6426 72.8577 98.6426C73.426 98.6426 73.9711 98.8683 74.3729 99.2702C74.7748 99.6721 75.0006 100.217 75.0006 100.785V109.357C75.0006 109.925 74.7748 110.47 74.3729 110.872C73.9711 111.274 73.426 111.5 72.8577 111.5ZM81.4291 111.5C80.8608 111.5 80.3158 111.274 79.9139 110.872C79.512 110.47 79.2863 109.925 79.2863 109.357V100.785C79.2863 100.217 79.512 99.6721 79.9139 99.2702C80.3158 98.8683 80.8608 98.6426 81.4291 98.6426C81.9974 98.6426 82.5425 98.8683 82.9444 99.2702C83.3462 99.6721 83.572 100.217 83.572 100.785V109.357C83.572 109.925 83.3462 110.47 82.9444 110.872C82.5425 111.274 81.9974 111.5 81.4291 111.5ZM90.0005 111.5C89.4322 111.5 88.8872 111.274 88.4853 110.872C88.0835 110.47 87.8577 109.925 87.8577 109.357V100.785C87.8577 100.217 88.0835 99.6721 88.4853 99.2702C88.8872 98.8683 89.4322 98.6426 90.0005 98.6426C90.5689 98.6426 91.1139 98.8683 91.5158 99.2702C91.9176 99.6721 92.1434 100.217 92.1434 100.785V109.357C92.1434 109.925 91.9176 110.47 91.5158 110.872C91.1139 111.274 90.5689 111.5 90.0005 111.5Z" fill="#D7E9F7"/>
<path d="M107.143 109.357C109.51 109.357 111.429 107.438 111.429 105.071C111.429 102.704 109.51 100.786 107.143 100.786C104.776 100.786 102.857 102.704 102.857 105.071C102.857 107.438 104.776 109.357 107.143 109.357Z" fill="#F57C00"/>
</svg>
