<svg width="120" height="118" viewBox="0 0 120 118" fill="none" xmlns="http://www.w3.org/2000/svg">
<path d="M117.579 43.7301C116.422 41.9785 114.897 40.4996 113.111 39.3958C111.325 38.2921 109.321 37.5899 107.236 37.338C106.972 35.6297 106.514 33.9571 105.871 32.3526C104.073 27.6879 100.902 23.6792 96.7754 20.857C92.6492 18.0348 87.7632 16.5322 82.7643 16.5481C80.0857 16.5551 77.4253 16.988 74.8827 17.8307C71.5743 11.5139 66.3144 6.43452 59.8859 3.34868C53.4575 0.262829 46.2044 -0.664429 39.2064 0.704946C32.2084 2.07432 25.8398 5.6671 21.0486 10.9484C16.2575 16.2297 13.3001 22.9171 12.6167 30.015C11.407 30.4089 10.2422 30.9289 9.14133 31.5665L8.8931 31.7113C6.36439 33.2621 4.23796 35.3885 2.68718 37.9172C2.62682 37.9998 2.5781 38.0903 2.54237 38.1861C0.888904 41.0163 0.0119375 44.2329 0.000121014 47.5107C-0.0116955 50.7884 0.842057 54.0112 2.47507 56.8533C4.10809 59.6953 6.46249 62.0558 9.30027 63.6962C12.138 65.3367 15.3586 66.1988 18.6364 66.1955H105.519C107.535 66.1905 109.527 65.7647 111.369 64.9454C113.211 64.1261 114.861 62.9314 116.214 61.4377C118.656 58.7895 120.008 55.3171 120 51.715C120.015 48.8704 119.172 46.0874 117.579 43.7301Z" fill="#FC7D25"/>
<path d="M93.1075 93.0874H26.911C23.4836 93.0874 20.7051 95.8659 20.7051 99.2933V111.705C20.7051 115.133 23.4836 117.911 26.911 117.911H93.1075C96.5349 117.911 99.3134 115.133 99.3134 111.705V99.2933C99.3134 95.8659 96.5349 93.0874 93.1075 93.0874Z" fill="url(#paint0_linear_18408_87970)"/>
<path d="M93.1075 68.2642H26.911C23.4836 68.2642 20.7051 71.0426 20.7051 74.4701V86.8819C20.7051 90.3094 23.4836 93.0878 26.911 93.0878H93.1075C96.5349 93.0878 99.3134 90.3094 99.3134 86.8819V74.4701C99.3134 71.0426 96.5349 68.2642 93.1075 68.2642Z" fill="url(#paint1_linear_18408_87970)"/>
<path d="M93.1075 43.4404H26.911C23.4836 43.4404 20.7051 46.2189 20.7051 49.6464V62.0582C20.7051 65.4856 23.4836 68.2641 26.911 68.2641H93.1075C96.5349 68.2641 99.3134 65.4856 99.3134 62.0582V49.6464C99.3134 46.2189 96.5349 43.4404 93.1075 43.4404Z" fill="url(#paint2_linear_18408_87970)"/>
<path d="M33.1168 109.637C35.4017 109.637 37.2541 107.785 37.2541 105.5C37.2541 103.215 35.4017 101.362 33.1168 101.362C30.8318 101.362 28.9795 103.215 28.9795 105.5C28.9795 107.785 30.8318 109.637 33.1168 109.637Z" fill="url(#paint3_linear_18408_87970)"/>
<path d="M45.5289 109.637C47.8138 109.637 49.6662 107.785 49.6662 105.5C49.6662 103.215 47.8138 101.362 45.5289 101.362C43.2439 101.362 41.3916 103.215 41.3916 105.5C41.3916 107.785 43.2439 109.637 45.5289 109.637Z" fill="#0930A4"/>
<path d="M33.1168 59.9894C32.2985 59.9894 31.4986 59.7468 30.8182 59.2922C30.1379 58.8375 29.6076 58.1914 29.2944 57.4354C28.9813 56.6794 28.8994 55.8475 29.059 55.045C29.2186 54.2424 29.6127 53.5052 30.1913 52.9266C30.7699 52.348 31.5071 51.954 32.3096 51.7943C33.1122 51.6347 33.9441 51.7166 34.7 52.0298C35.456 52.3429 36.1022 52.8732 36.5568 53.5536C37.0114 54.2339 37.2541 55.0339 37.2541 55.8521C37.2541 56.9494 36.8182 58.0017 36.0423 58.7776C35.2664 59.5535 34.2141 59.9894 33.1168 59.9894Z" fill="url(#paint4_linear_18408_87970)"/>
<path d="M45.5289 59.9894C44.7106 59.9894 43.9107 59.7468 43.2303 59.2922C42.55 58.8375 42.0197 58.1914 41.7065 57.4354C41.3934 56.6794 41.3115 55.8475 41.4711 55.045C41.6307 54.2424 42.0248 53.5052 42.6034 52.9266C43.182 52.348 43.9192 51.954 44.7217 51.7943C45.5243 51.6347 46.3562 51.7166 47.1122 52.0298C47.8681 52.3429 48.5143 52.8732 48.9689 53.5536C49.4235 54.2339 49.6662 55.0339 49.6662 55.8521C49.6662 56.9494 49.2303 58.0017 48.4544 58.7776C47.6785 59.5535 46.6262 59.9894 45.5289 59.9894Z" fill="#0930A4"/>
<path d="M33.1168 84.8131C35.4017 84.8131 37.2541 82.9608 37.2541 80.6759C37.2541 78.3909 35.4017 76.5386 33.1168 76.5386C30.8318 76.5386 28.9795 78.3909 28.9795 80.6759C28.9795 82.9608 30.8318 84.8131 33.1168 84.8131Z" fill="url(#paint5_linear_18408_87970)"/>
<path d="M45.5289 84.8131C47.8138 84.8131 49.6662 82.9608 49.6662 80.6759C49.6662 78.3909 47.8138 76.5386 45.5289 76.5386C43.2439 76.5386 41.3916 78.3909 41.3916 80.6759C41.3916 82.9608 43.2439 84.8131 45.5289 84.8131Z" fill="#0930A4"/>
<defs>
<linearGradient id="paint0_linear_18408_87970" x1="60.0093" y1="117.911" x2="60.0093" y2="93.0874" gradientUnits="userSpaceOnUse">
<stop stop-color="#D3E6F5"/>
<stop offset="1" stop-color="#F0F7FC"/>
</linearGradient>
<linearGradient id="paint1_linear_18408_87970" x1="-6.18725" y1="93.0878" x2="-4.11861" y2="68.2642" gradientUnits="userSpaceOnUse">
<stop stop-color="#D3E6F5"/>
<stop offset="1" stop-color="#F0F7FC"/>
</linearGradient>
<linearGradient id="paint2_linear_18408_87970" x1="-6.18725" y1="68.2641" x2="-4.11861" y2="43.4404" gradientUnits="userSpaceOnUse">
<stop stop-color="#D3E6F5"/>
<stop offset="1" stop-color="#F0F7FC"/>
</linearGradient>
<linearGradient id="paint3_linear_18408_87970" x1="28.9795" y1="105.5" x2="37.2541" y2="105.5" gradientUnits="userSpaceOnUse">
<stop stop-color="#FE9661"/>
<stop offset="1" stop-color="#FFB369"/>
</linearGradient>
<linearGradient id="paint4_linear_18408_87970" x1="-6.1874" y1="55.8521" x2="-4.11876" y2="55.8521" gradientUnits="userSpaceOnUse">
<stop stop-color="#FE9661"/>
<stop offset="1" stop-color="#FFB369"/>
</linearGradient>
<linearGradient id="paint5_linear_18408_87970" x1="-6.1874" y1="80.6759" x2="-4.11876" y2="80.6759" gradientUnits="userSpaceOnUse">
<stop stop-color="#FE9661"/>
<stop offset="1" stop-color="#FFB369"/>
</linearGradient>
</defs>
</svg>
