<svg xmlns="http://www.w3.org/2000/svg" width="41" height="40" viewBox="0 0 41 40" fill="none">
  <path d="M18.833 36.6666C18.7135 36.6666 18.5953 36.6421 18.4858 36.5944C18.3762 36.5467 18.2775 36.4769 18.1958 36.3894L3.3367 20.4399C2.36723 19.4371 1.61592 18.2427 1.13048 16.9326C0.645052 15.6224 0.436114 14.2251 0.516948 12.8294C0.597782 11.4337 0.96662 10.0702 1.60003 8.82541C2.23343 7.58068 3.11757 6.48195 4.19623 5.59903C5.2749 4.71611 6.52453 4.06831 7.86573 3.6968C9.20692 3.3253 10.6103 3.23818 11.9868 3.44101C13.3633 3.64385 14.6828 4.13218 15.8614 4.875C17.04 5.6178 18.052 6.59885 18.833 7.7558C19.6143 6.59805 20.6268 5.61638 21.8063 4.87326C22.9857 4.13015 24.306 3.64183 25.6835 3.43938C27.0608 3.23693 28.4652 3.32478 29.8068 3.69733C31.1487 4.0699 32.3985 4.71901 33.4772 5.6034C34.5557 6.48778 35.4393 7.58806 36.0717 8.83426C36.7042 10.0805 37.0715 11.4453 37.1505 12.8419C37.2295 14.2386 37.0183 15.6364 36.5305 16.9466C36.0427 18.2567 35.2888 19.4506 34.317 20.4521L19.4702 36.3894C19.3885 36.4769 19.2897 36.5467 19.1802 36.5944C19.0705 36.6421 18.9523 36.6666 18.833 36.6666Z" fill="url(#paint0_linear_885_6575)"/>
  <path opacity="0.6" d="M28.8332 36.6668C28.7572 36.6668 28.6819 36.6521 28.6122 36.6234C28.5424 36.5949 28.4797 36.5529 28.4277 36.5004L18.9719 26.9308C18.3549 26.3291 17.8769 25.6124 17.5679 24.8264C17.259 24.0403 17.1261 23.2019 17.1775 22.3644C17.2289 21.5271 17.4637 20.7089 17.8667 19.9621C18.2699 19.2153 18.8324 18.5559 19.5189 18.0263C20.2052 17.4964 21.0005 17.1078 21.854 16.8849C22.7075 16.662 23.6005 16.6097 24.4765 16.7314C25.3525 16.8531 26.192 17.1461 26.9422 17.5918C27.6922 18.0374 28.336 18.6261 28.8332 19.3203C29.3304 18.6256 29.9747 18.0366 30.7252 17.5908C31.4757 17.1449 32.316 16.8519 33.1925 16.7304C34.069 16.609 34.9627 16.6617 35.8165 16.8853C36.6704 17.1088 37.4657 17.4983 38.1522 18.0289C38.8385 18.5594 39.4009 19.2196 39.8032 19.9674C40.2057 20.7151 40.4395 21.5339 40.4897 22.3719C40.54 23.2099 40.4057 24.0486 40.0952 24.8348C39.7849 25.6209 39.305 26.3373 38.6865 26.9381L29.2385 36.5004C29.1865 36.5529 29.1239 36.5949 29.054 36.6234C28.9844 36.6521 28.9092 36.6668 28.8332 36.6668Z" fill="#99CBF1"/>
  <defs>
    <linearGradient id="paint0_linear_885_6575" x1="13.3911" y1="13.049" x2="-5.28917" y2="52.6514" gradientUnits="userSpaceOnUse">
      <stop stop-color="#537CD7"/>
      <stop offset="1" stop-color="#537CD7" stop-opacity="0"/>
    </linearGradient>
  </defs>
</svg>