<svg xmlns="http://www.w3.org/2000/svg" width="41" height="44" viewBox="0 0 41 44" fill="none">
  <path d="M3.53569 23.0476C3.13817 23.0462 2.7443 23.1309 2.37657 23.297C2.00884 23.4632 1.67446 23.7074 1.39255 24.0157C1.11063 24.324 0.886707 24.6905 0.73356 25.0941C0.580413 25.4977 0.501049 25.9305 0.500006 26.3679V40.6578C0.498421 41.5421 0.81604 42.3909 1.38305 43.0176C1.95005 43.6443 2.72004 43.9977 3.52375 44H16.5119C16.91 44.0008 17.3042 43.9154 17.6723 43.7486C18.0403 43.5817 18.3748 43.3367 18.6567 43.0275C18.9386 42.7184 19.1624 42.3511 19.3153 41.9468C19.4681 41.5424 19.5471 41.1089 19.5476 40.671V26.3898C19.5502 25.5067 19.2341 24.6585 18.6685 24.0318C18.103 23.4051 17.3345 23.0511 16.5318 23.0476H11.9564V28.0991C11.9564 28.4953 11.5586 28.8083 11.0791 28.8083H8.96848C8.47712 28.8083 8.07726 28.4931 8.07726 28.0991V23.0476H3.53569Z" fill="url(#paint0_linear_885_6604)"/>
  <path d="M24.4922 23.0476C23.6879 23.0459 22.916 23.3951 22.346 24.0187C21.7761 24.6422 21.4547 25.4889 21.4526 26.3727V40.6486C21.4513 41.0882 21.5289 41.5238 21.6811 41.9303C21.8333 42.3368 22.0569 42.7064 22.3393 43.0177C22.6217 43.3291 22.9572 43.5761 23.3267 43.7447C23.6961 43.9132 24.0922 44 24.4922 44H37.4606C38.2648 44.0017 39.0368 43.6525 39.6067 43.0289C40.1767 42.4054 40.4981 41.5587 40.5002 40.6749V26.388C40.5015 25.9508 40.4244 25.5175 40.2734 25.113C40.1223 24.7085 39.9003 24.3407 39.6199 24.0305C39.3395 23.7203 39.0062 23.4739 38.6391 23.3052C38.2721 23.1366 37.8784 23.049 37.4805 23.0476H32.9241V28.0965C32.9241 28.4924 32.526 28.8052 32.0403 28.8052H29.9224C29.4307 28.8052 29.0366 28.4902 29.0366 28.0965V23.0476H24.4922Z" fill="url(#paint1_linear_885_6604)"/>
  <path d="M14.0159 6.49115e-06C13.2117 -0.00173633 12.4397 0.347535 11.8698 0.971046C11.2998 1.59456 10.9784 2.44127 10.9763 3.32508V17.601C10.975 18.0406 11.0527 18.4762 11.2048 18.8827C11.357 19.2892 11.5807 19.6588 11.8631 19.9701C12.1455 20.2815 12.481 20.5285 12.8504 20.6971C13.2198 20.8656 13.6159 20.9524 14.0159 20.9524H26.9843C27.7886 20.9541 28.5605 20.6048 29.1305 19.9813C29.7004 19.3578 30.0218 18.5111 30.0239 17.6273V3.3404C30.0252 2.90317 29.9482 2.46994 29.7971 2.06544C29.6461 1.66094 29.424 1.2931 29.1436 0.982912C28.8632 0.672728 28.53 0.426275 28.1629 0.257629C27.7958 0.0889817 27.4021 0.0014405 27.0043 6.49115e-06H22.4479V5.04887C22.4479 5.44482 22.0498 5.75763 21.5641 5.75763H19.4461C18.9545 5.75763 18.5603 5.44263 18.5603 5.04887V6.49115e-06H14.0159Z" fill="url(#paint2_linear_885_6604)"/>
  <defs>
    <linearGradient id="paint0_linear_885_6604" x1="7.19672" y1="29.1547" x2="-5.90432" y2="52.1088" gradientUnits="userSpaceOnUse">
      <stop stop-color="#537CD7"/>
      <stop offset="1" stop-color="#537CD7" stop-opacity="0"/>
    </linearGradient>
    <linearGradient id="paint1_linear_885_6604" x1="28.1493" y1="29.1547" x2="15.0483" y2="52.1088" gradientUnits="userSpaceOnUse">
      <stop stop-color="#537CD7"/>
      <stop offset="1" stop-color="#537CD7" stop-opacity="0"/>
    </linearGradient>
    <linearGradient id="paint2_linear_885_6604" x1="17.673" y1="6.10707" x2="4.572" y2="29.0612" gradientUnits="userSpaceOnUse">
      <stop stop-color="#537CD7"/>
      <stop offset="1" stop-color="#537CD7" stop-opacity="0"/>
    </linearGradient>
  </defs>
</svg>