<svg xmlns="http://www.w3.org/2000/svg" width="41" height="40" viewBox="0 0 41 40" fill="none">
  <g clip-path="url(#clip0_885_6608)">
    <path d="M38.646 11.3247L38.0776 10.9712C37.3676 12.0983 36.5981 13.187 35.7725 14.2326C35.7725 14.2326 32.4767 10.1526 31.3939 6.81954L22.2135 1.11814C21.6681 0.779221 21.0388 0.599609 20.3967 0.599609C19.7546 0.599609 19.1253 0.779221 18.58 1.11814L9.74276 6.60651C8.66329 8.87098 7.32976 11.0053 5.76787 12.9684C5.76787 12.9684 4.8488 11.8354 3.82555 10.2791L2.14369 11.3274C1.72596 11.5863 1.38115 11.9474 1.14188 12.3766C0.902597 12.8059 0.776754 13.289 0.776245 13.7805V37.8595C0.776245 38.427 1.00166 38.9712 1.4029 39.3724C1.80414 39.7737 2.34834 39.9991 2.91578 39.9991H7.34834C7.48429 39.9983 7.61442 39.9438 7.71028 39.8474C7.80615 39.751 7.85997 39.6206 7.85997 39.4847V20.3126C7.84362 19.8516 8.0107 19.403 8.32457 19.0651C8.63845 18.7272 9.07351 18.5275 9.53439 18.5098H31.2488C31.7093 18.5272 32.144 18.7265 32.4579 19.0638C32.7717 19.4012 32.9391 19.8493 32.9232 20.3098V39.4856C32.923 39.5528 32.936 39.6195 32.9617 39.6817C32.9873 39.7439 33.025 39.8004 33.0725 39.8479C33.1201 39.8955 33.1766 39.9331 33.2388 39.9588C33.301 39.9844 33.3676 39.9975 33.4349 39.9972H37.8721C38.4395 39.9972 38.9837 39.7718 39.3849 39.3706C39.7862 38.9693 40.0116 38.4251 40.0116 37.8577V13.7805C40.0125 13.2888 39.8877 12.8051 39.649 12.3753C39.4103 11.9455 39.0657 11.5838 38.6479 11.3247M24.4572 15.0149H16.3316C15.9379 14.9641 15.5797 14.7612 15.3337 14.4497C15.0877 14.1381 14.9734 13.7427 15.0153 13.3479C14.9726 12.9522 15.0863 12.5554 15.3323 12.2425C15.5783 11.9296 15.937 11.7254 16.3316 11.6735H24.4581C24.8527 11.7254 25.2114 11.9296 25.4574 12.2425C25.7034 12.5554 25.8171 12.9522 25.7744 13.3479C25.8163 13.7427 25.702 14.1381 25.456 14.4497C25.21 14.7612 24.8518 14.9641 24.4581 15.0149" fill="url(#paint0_linear_885_6608)"/>
    <path d="M11.9949 31.093C11.809 31.0924 11.6248 31.1284 11.4528 31.199C11.2809 31.2696 11.1245 31.3734 10.9927 31.5045C10.8609 31.6355 10.7562 31.7913 10.6845 31.9628C10.6129 32.1343 10.5758 32.3183 10.5753 32.5042V38.5805C10.5747 38.7663 10.6107 38.9505 10.6813 39.1225C10.7519 39.2944 10.8557 39.4508 10.9868 39.5826C11.1178 39.7145 11.2736 39.8192 11.4451 39.8908C11.6166 39.9624 11.8006 39.9995 11.9865 40H18.0628C18.2487 40.0006 18.4328 39.9646 18.6048 39.894C18.7767 39.8234 18.9331 39.7196 19.0649 39.5886C19.1968 39.4575 19.3015 39.3018 19.3731 39.1302C19.4447 38.9587 19.4818 38.7747 19.4823 38.5888V32.5126C19.4829 32.3267 19.4469 32.1425 19.3763 31.9705C19.3057 31.7986 19.2019 31.6422 19.0709 31.5104C18.9398 31.3786 18.7841 31.2738 18.6125 31.2022C18.441 31.1306 18.257 31.0935 18.0711 31.093H15.9316V33.2446C15.9316 33.4093 15.7456 33.5433 15.5214 33.5433H14.5353C14.3056 33.5433 14.1186 33.4102 14.1186 33.2446V31.093H11.9949Z" fill="url(#paint1_linear_885_6608)"/>
    <path d="M22.7298 31.093C22.5437 31.0925 22.3594 31.1287 22.1873 31.1994C22.0153 31.2702 21.8588 31.3741 21.7269 31.5053C21.595 31.6366 21.4902 31.7925 21.4186 31.9642C21.3469 32.1359 21.3098 32.32 21.3093 32.506V38.5805C21.309 38.7666 21.3453 38.951 21.4162 39.1231C21.4871 39.2951 21.5912 39.4516 21.7226 39.5834C21.854 39.7152 22.0101 39.8199 22.182 39.8914C22.3538 39.9628 22.5381 39.9998 22.7242 40H28.7903C29.1656 40.0012 29.5261 39.8534 29.7924 39.5889C30.0588 39.3245 30.2092 38.9651 30.2107 38.5898V32.5126C30.2113 32.3267 30.1753 32.1425 30.1047 31.9705C30.0341 31.7986 29.9303 31.6422 29.7993 31.5104C29.6682 31.3786 29.5125 31.2738 29.3409 31.2022C29.1694 31.1306 28.9854 31.0935 28.7996 31.093H26.6703V33.2446C26.6703 33.4093 26.4842 33.5433 26.2572 33.5433H25.2675C25.0377 33.5433 24.8535 33.4102 24.8535 33.2446V31.093H22.7298Z" fill="url(#paint2_linear_885_6608)"/>
    <path d="M11.9947 20.3599C11.8089 20.3593 11.6247 20.3953 11.4527 20.4659C11.2808 20.5365 11.1244 20.6403 10.9926 20.7713C10.8607 20.9024 10.756 21.0581 10.6844 21.2297C10.6128 21.4012 10.5757 21.5851 10.5752 21.771V27.8445C10.5745 28.2203 10.723 28.5811 10.9881 28.8475C11.2533 29.1138 11.6133 29.264 11.9892 29.265H18.0626C18.2488 29.2654 18.4331 29.229 18.6052 29.1581C18.7773 29.0872 18.9337 28.9831 19.0656 28.8517C19.1974 28.7203 19.302 28.5642 19.3735 28.3923C19.445 28.2205 19.4819 28.0362 19.4822 27.8501V21.7803C19.4834 21.405 19.3356 21.0445 19.0711 20.7782C18.8067 20.5118 18.4473 20.3613 18.0719 20.3599H15.9324V22.5068C15.9324 22.6752 15.7464 22.8082 15.5222 22.8082H14.5352C14.3054 22.8082 14.1185 22.6743 14.1185 22.5068V20.3599H11.9947Z" fill="url(#paint3_linear_885_6608)"/>
    <path d="M22.7298 20.3599C22.354 20.3591 21.9932 20.5076 21.7269 20.7728C21.4605 21.0379 21.3103 21.398 21.3093 21.7738V27.8445C21.3087 28.0314 21.345 28.2167 21.4161 28.3895C21.4872 28.5624 21.5918 28.7195 21.7237 28.8519C21.8557 28.9843 22.0125 29.0894 22.1851 29.1611C22.3578 29.2327 22.5429 29.2696 22.7298 29.2696H28.7903C29.1661 29.2704 29.5268 29.1219 29.7932 28.8567C30.0596 28.5916 30.2097 28.2315 30.2107 27.8557V21.7803C30.2113 21.5944 30.1753 21.4102 30.1047 21.2382C30.0341 21.0662 29.9304 20.9097 29.7993 20.7778C29.6683 20.6459 29.5126 20.5411 29.341 20.4694C29.1695 20.3977 28.9855 20.3605 28.7996 20.3599H26.6703V22.5068C26.6703 22.6752 26.4842 22.8082 26.2572 22.8082H25.2675C25.0377 22.8082 24.8535 22.6743 24.8535 22.5068V20.3599H22.7298Z" fill="url(#paint4_linear_885_6608)"/>
    <path d="M38.0776 10.9702C37.3676 12.0974 36.5981 13.1861 35.7725 14.2316C35.7725 14.2316 32.4767 10.1498 31.3939 6.8186L38.0776 10.9702Z" fill="#547DD8"/>
    <path d="M11.6321 5.4353C10.1345 8.5769 8.2845 11.5379 6.11765 14.2613C6.11765 14.2613 4.84788 12.6893 3.42834 10.5293L11.6321 5.4353Z" fill="#547DD8"/>
  </g>
  <defs>
    <linearGradient id="paint0_linear_885_6608" x1="14.5705" y1="12.0835" x2="-8.87921" y2="57.0897" gradientUnits="userSpaceOnUse">
      <stop stop-color="#537CD7"/>
      <stop offset="1" stop-color="#537CD7" stop-opacity="0"/>
    </linearGradient>
    <linearGradient id="paint1_linear_885_6608" x1="13.7068" y1="33.6892" x2="8.41826" y2="43.8818" gradientUnits="userSpaceOnUse">
      <stop stop-color="#537CD7"/>
      <stop offset="1" stop-color="#537CD7" stop-opacity="0"/>
    </linearGradient>
    <linearGradient id="paint2_linear_885_6608" x1="24.4389" y1="33.6892" x2="19.1484" y2="43.879" gradientUnits="userSpaceOnUse">
      <stop stop-color="#537CD7"/>
      <stop offset="1" stop-color="#537CD7" stop-opacity="0"/>
    </linearGradient>
    <linearGradient id="paint3_linear_885_6608" x1="13.7067" y1="22.9555" x2="8.41988" y2="33.1468" gradientUnits="userSpaceOnUse">
      <stop stop-color="#537CD7"/>
      <stop offset="1" stop-color="#537CD7" stop-opacity="0"/>
    </linearGradient>
    <linearGradient id="paint4_linear_885_6608" x1="24.4389" y1="22.9568" x2="19.1458" y2="33.1485" gradientUnits="userSpaceOnUse">
      <stop stop-color="#537CD7"/>
      <stop offset="1" stop-color="#537CD7" stop-opacity="0"/>
    </linearGradient>
    <clipPath id="clip0_885_6608">
      <rect width="40" height="40" fill="white" transform="translate(0.5)"/>
    </clipPath>
  </defs>
</svg>