<svg width="47" height="47" viewBox="0 0 47 47" fill="none" xmlns="http://www.w3.org/2000/svg">
<path d="M29.0024 16.1992H37.2916C38.0755 16.1997 38.7802 16.6773 39.071 17.4053L42.1505 25.102C42.3311 25.5546 42.4242 26.0374 42.4247 26.5248V38.0967C42.4247 39.1557 41.5662 40.0141 40.5072 40.0141H36.9963" stroke="white" stroke-width="3" stroke-linecap="round" stroke-linejoin="round"/>
<path d="M30.9199 40.0139H15.9061" stroke="white" stroke-width="3" stroke-linecap="round" stroke-linejoin="round"/>
<path d="M42.4247 29.6215H34.7548V21.9517H40.8907" stroke="white" stroke-width="3" stroke-linecap="round" stroke-linejoin="round"/>
<path d="M24.3161 12.3643H27.0849C28.1439 12.3643 29.0024 13.2227 29.0024 14.2817V31.5389H4.07535" stroke="white" stroke-width="3" stroke-linecap="round" stroke-linejoin="round"/>
<path d="M36.097 37.8664C36.9657 38.735 37.2256 40.0414 36.7556 41.1764C36.2855 42.3114 35.1779 43.0514 33.9495 43.0514C32.721 43.0514 31.6135 42.3114 31.1434 41.1764C30.6733 40.0414 30.9332 38.735 31.8019 37.8664C32.3712 37.2964 33.1438 36.9761 33.9495 36.9761C34.7551 36.9761 35.5277 37.2964 36.097 37.8664" stroke="white" stroke-width="3" stroke-linecap="round" stroke-linejoin="round"/>
<path d="M15.0049 37.8664C15.8736 38.735 16.1335 40.0414 15.6634 41.1764C15.1933 42.3114 14.0858 43.0514 12.8573 43.0514C11.6289 43.0514 10.5213 42.3114 10.0512 41.1764C9.58115 40.0414 9.84106 38.735 10.7098 37.8664C11.2791 37.2964 12.0517 36.9761 12.8573 36.9761C13.663 36.9761 14.4356 37.2964 15.0049 37.8664" stroke="white" stroke-width="3" stroke-linecap="round" stroke-linejoin="round"/>
<path d="M9.82774 40.0064H5.99281C4.93383 40.0064 4.07535 39.148 4.07535 38.089V14.2817C4.07535 13.2227 4.93383 12.3643 5.99281 12.3643H8.36664" stroke="white" stroke-width="3" stroke-linecap="round" stroke-linejoin="round"/>
<path d="M14.4603 10.79L18.2205 14.5502" stroke="white" stroke-width="3" stroke-linecap="round" stroke-linejoin="round"/>
<path d="M14.4603 14.5502L18.2205 10.79" stroke="white" stroke-width="3" stroke-linecap="round" stroke-linejoin="round"/>
<path fill-rule="evenodd" clip-rule="evenodd" d="M16.3414 20.6438C20.7457 20.6438 24.3161 17.0734 24.3161 12.6691C24.3161 8.26475 20.7457 4.69434 16.3414 4.69434C11.9371 4.69434 8.36664 8.26475 8.36664 12.6691C8.36664 17.0734 11.9371 20.6438 16.3414 20.6438Z" stroke="white" stroke-width="3" stroke-linecap="round" stroke-linejoin="round"/>
</svg>
