<svg width="47" height="47" viewBox="0 0 47 47" fill="none" xmlns="http://www.w3.org/2000/svg">
<path d="M27.0833 39.2025H10.0729C7.82275 39.2025 6 37.3797 6 35.1296V15.9246C6 15.3745 6.11117 14.8282 6.32775 14.3241L8.5645 9.09164C9.20467 7.59281 10.6786 6.61914 12.3097 6.61914H32.2756C33.9067 6.61914 35.3787 7.59281 36.0207 9.09164L38.2575 14.3241C38.4722 14.8301 38.5833 15.3745 38.5833 15.9246V23.8691" stroke="white" stroke-width="3" stroke-linecap="round" stroke-linejoin="round"/>
<path d="M22.2917 6.61914V15.1291" stroke="white" stroke-width="3" stroke-linecap="round" stroke-linejoin="round"/>
<path d="M38.5009 15.1292H6.08241" stroke="white" stroke-width="3" stroke-linecap="round" stroke-linejoin="round"/>
<path d="M11.75 31.536H15.5833" stroke="white" stroke-width="3" stroke-linecap="round" stroke-linejoin="round"/>
<path d="M32.8333 41.1193C27.5414 41.1193 23.25 36.8279 23.25 31.536C23.25 26.2441 27.5414 21.9526 32.8333 21.9526C38.1272 21.9526 42.4167 26.2441 42.4167 31.536C42.4167 36.8279 38.1272 41.1193 32.8333 41.1193" stroke="white" stroke-width="3" stroke-linecap="round" stroke-linejoin="round"/>
<path d="M29.0006 28.6606L36.6672 35.369M36.6672 28.6606L29.0006 35.369" stroke="white" stroke-width="3" stroke-linecap="round" stroke-linejoin="round"/>
</svg>
