<svg width="100" height="85" viewBox="0 0 100 85" fill="none" xmlns="http://www.w3.org/2000/svg">
<circle cx="38.5" cy="44.5" r="36.5" fill="#E6EFF7"/>
<rect width="56" height="28" rx="4" fill="url(#paint0_linear_2345_8115)"/>
<path d="M14.517 20H11.8807L15.8977 8.36364H19.0682L23.0795 20H20.4432L17.5284 11.0227H17.4375L14.517 20ZM14.3523 15.4261H20.5795V17.3466H14.3523V15.4261ZM28.6051 20H24.4801V8.36364H28.6392C29.8097 8.36364 30.8172 8.59659 31.6619 9.0625C32.5066 9.52462 33.1563 10.1894 33.6108 11.0568C34.0691 11.9242 34.2983 12.9621 34.2983 14.1705C34.2983 15.3826 34.0691 16.4242 33.6108 17.2955C33.1563 18.1667 32.5028 18.8352 31.6506 19.3011C30.8021 19.767 29.7869 20 28.6051 20ZM26.9403 17.892H28.5028C29.2301 17.892 29.8419 17.7633 30.3381 17.5057C30.8381 17.2443 31.2131 16.8409 31.4631 16.2955C31.7169 15.7462 31.8438 15.0379 31.8438 14.1705C31.8438 13.3106 31.7169 12.608 31.4631 12.0625C31.2131 11.517 30.84 11.1155 30.3438 10.858C29.8475 10.6004 29.2358 10.4716 28.5085 10.4716H26.9403V17.892ZM43.3366 13.7614L41.1207 13.8977C41.0829 13.7083 41.0014 13.5379 40.8764 13.3864C40.7514 13.2311 40.5866 13.108 40.3821 13.017C40.1813 12.9223 39.9408 12.875 39.6605 12.875C39.2855 12.875 38.9692 12.9545 38.7116 13.1136C38.4541 13.2689 38.3253 13.4773 38.3253 13.7386C38.3253 13.947 38.4086 14.1231 38.5753 14.267C38.742 14.411 39.0279 14.5265 39.4332 14.6136L41.0128 14.9318C41.8613 15.1061 42.4938 15.3864 42.9105 15.7727C43.3272 16.1591 43.5355 16.6667 43.5355 17.2955C43.5355 17.8674 43.367 18.3693 43.0298 18.8011C42.6965 19.233 42.2382 19.5701 41.6548 19.8125C41.0753 20.0511 40.4067 20.1705 39.6491 20.1705C38.4938 20.1705 37.5734 19.9299 36.8878 19.4489C36.206 18.964 35.8063 18.3049 35.6889 17.4716L38.0696 17.3466C38.1416 17.6989 38.3158 17.9678 38.5923 18.1534C38.8688 18.3352 39.223 18.4261 39.6548 18.4261C40.0791 18.4261 40.42 18.3447 40.6776 18.1818C40.9389 18.0152 41.0715 17.8011 41.0753 17.5398C41.0715 17.3201 40.9787 17.1402 40.7969 17C40.6151 16.8561 40.3348 16.7462 39.956 16.6705L38.4446 16.3693C37.5923 16.1989 36.9579 15.9034 36.5412 15.483C36.1283 15.0625 35.9219 14.5265 35.9219 13.875C35.9219 13.3144 36.0734 12.8314 36.3764 12.4261C36.6832 12.0208 37.1132 11.7083 37.6662 11.4886C38.223 11.2689 38.8745 11.1591 39.6207 11.1591C40.723 11.1591 41.5904 11.392 42.223 11.858C42.8594 12.3239 43.2306 12.9583 43.3366 13.7614Z" fill="white"/>
<path d="M44.9948 60.4793L52.6629 57.303C52.9262 57.1884 53.2235 57.1799 53.4929 57.2793C53.7623 57.3787 53.983 57.5782 54.1088 57.8363L62.4051 74.4289C62.5268 74.7109 62.5343 75.0291 62.426 75.3166C62.3177 75.604 62.1019 75.8381 61.8244 75.9696L52.9829 79.6081C52.8291 79.6628 52.6656 79.6851 52.5028 79.6737C52.3399 79.6622 52.1812 79.6173 52.0365 79.5416C51.8919 79.466 51.7644 79.3612 51.6621 79.234C51.5599 79.1068 51.485 78.9598 51.4422 78.8022C50.8108 75.8668 49.9142 72.9948 48.7636 70.2215C47.6017 67.4005 46.1855 64.691 44.5325 62.1267C44.4513 61.989 44.3988 61.8363 44.3781 61.6778C44.3574 61.5193 44.3691 61.3583 44.4123 61.2044C44.4554 61.0505 44.5293 60.9069 44.6294 60.7823C44.7295 60.6577 44.8538 60.5546 44.9948 60.4793Z" fill="url(#paint1_linear_2345_8115)"/>
<path style="mix-blend-mode:multiply" opacity="0.75" d="M52.6619 57.3029L44.9938 60.4792C44.8478 60.5493 44.7177 60.6485 44.6115 60.7707C44.5054 60.893 44.4254 61.0357 44.3765 61.1901C44.3277 61.3445 44.311 61.5072 44.3274 61.6683C44.3439 61.8294 44.3932 61.9853 44.4723 62.1266C45.4938 63.7179 46.4275 65.3638 47.2693 67.057C50.3152 66.7014 57.2367 67.057 62.1552 75.6733C62.3118 75.5015 62.4144 75.2874 62.4502 75.0577C62.486 74.828 62.4535 74.5928 62.3567 74.3814L54.0604 57.7888C53.9273 57.5506 53.7113 57.3695 53.4535 57.28C53.1958 57.1904 52.9141 57.1986 52.6619 57.3029Z" fill="url(#paint2_linear_2345_8115)"/>
<path d="M58.2685 66.5829L59.347 66.1326C59.429 66.0983 59.502 66.0456 59.5605 65.9787C59.6189 65.9117 59.6612 65.8323 59.6841 65.7464C59.707 65.6605 59.7099 65.5706 59.6926 65.4834C59.6752 65.3962 59.6381 65.3142 59.5841 65.2437C58.7733 64.3266 58.1923 63.2297 57.8892 62.0437C57.8778 61.9855 57.8537 61.9306 57.8186 61.8829C57.7835 61.8351 57.7383 61.7957 57.6863 61.7674C57.6342 61.7391 57.5765 61.7227 57.5174 61.7192C57.4582 61.7157 57.399 61.7254 57.344 61.7474L56.0996 62.2689L57.8181 66.3933C57.835 66.4355 57.8602 66.4739 57.892 66.5063C57.9239 66.5387 57.9618 66.5645 58.0037 66.5821C58.0456 66.5997 58.0906 66.6089 58.136 66.609C58.1815 66.6092 58.2265 66.6003 58.2685 66.5829Z" fill="#AF0000"/>
<path d="M54.1681 54.1624C54.1041 54.0195 54.0124 53.8907 53.8983 53.7834C53.7843 53.6762 53.65 53.5926 53.5035 53.5375C53.3569 53.4824 53.2009 53.4569 53.0444 53.4624C52.8879 53.468 52.7341 53.5045 52.5918 53.5698L51.5251 54.0083C51.2741 53.9315 51.0058 53.9315 50.7547 54.0083L42.3162 57.5165C42.142 57.5774 41.9844 57.6783 41.8561 57.8109C41.7277 57.9435 41.6321 58.1043 41.5768 58.2804C41.5215 58.4565 41.5082 58.6431 41.5378 58.8253C41.5674 59.0075 41.6392 59.1803 41.7473 59.3298C42.5651 60.598 43.4185 62.032 44.2481 63.6202C44.315 63.7515 44.423 63.8573 44.5557 63.9215C44.6884 63.9857 44.8384 64.0047 44.9829 63.9757H45.0659C45.4096 64.5802 45.7533 65.1609 46.097 65.8602C46.1672 65.988 46.2762 66.0902 46.4083 66.152C46.5404 66.2138 46.6887 66.2319 46.8318 66.2039C50.2238 65.4305 53.7012 65.0959 57.1785 65.2083C57.2954 65.2166 57.4124 65.1938 57.5177 65.1422C57.6229 65.0905 57.7126 65.012 57.7776 64.9144C57.8427 64.8169 57.8807 64.7039 57.8878 64.5869C57.895 64.4699 57.8711 64.3531 57.8184 64.2483L56.9533 62.5061H57.1666C57.284 62.5119 57.4008 62.487 57.5056 62.4338C57.6104 62.3806 57.6995 62.3011 57.7641 62.2029C57.8287 62.1048 57.8666 61.9915 57.8741 61.8742C57.8816 61.757 57.8583 61.6398 57.8066 61.5343L54.1681 54.1624Z" fill="#0C172D"/>
<path d="M35.9746 47.063C33.9864 47.9317 32.4176 49.5448 31.6045 51.5564C30.7915 53.5681 30.7988 55.8182 31.625 57.8245C32.4629 59.8196 34.0472 61.4083 36.0399 62.2519C38.0326 63.0955 40.276 63.1271 42.2917 62.34C52.2591 58.3934 69.5509 52.5148 77.302 55.7148L71.3761 41.3386L65.4502 26.9741C62.1909 34.7252 45.8709 42.7963 35.9746 47.063Z" fill="#2A4B91"/>
<path d="M41.9371 43.0215C37.789 44.823 36.1061 50.2156 38.1446 55.1222C40.1831 60.0289 45.1845 62.6363 49.3801 61.0482C59.3712 57.1133 76.7341 51.4363 84.9356 55.6082L77.8719 38.6482L70.8675 21.7356C68.0586 30.4586 51.7979 38.7311 41.9371 43.0215Z" fill="#AF0000"/>
<path d="M43.5012 42.3579C39.3649 44.1712 37.6819 49.5519 39.7086 54.4586C41.7471 59.3653 46.7486 61.9727 50.956 60.3845C60.9352 56.4616 78.2982 50.7727 86.4522 54.9445L79.436 38.0438L72.4315 21.1431C69.6463 29.7949 53.3619 38.0675 43.5012 42.3579Z" fill="#0C172D"/>
<path d="M70.1447 21.9607C65.5699 29.2022 55.247 34.7488 48.4084 37.7948C44.8529 39.3948 43.9877 45.5814 46.524 51.697C49.0484 57.8007 54.0262 61.5814 57.7003 60.171C64.681 57.4925 75.9047 54.1029 84.2484 55.9755L70.1447 21.9607Z" fill="#63A5DE"/>
<path style="mix-blend-mode:multiply" opacity="0.48" d="M72.6924 40.7935L71.365 41.3386L46.4761 51.6498L31.6494 57.8246C32.4873 59.8196 34.0716 61.4084 36.0643 62.252C38.057 63.0956 40.3004 63.1272 42.3161 62.3401C43.7146 61.7831 45.2672 61.1549 46.9027 60.586C48.5383 60.0171 50.1738 59.4009 51.8923 58.8557C53.8479 60.2779 55.922 60.8112 57.6998 60.1238C63.7675 57.6808 70.1529 56.1164 76.6627 55.4779L77.3383 55.7149L77.2198 55.4423C77.7294 55.4423 78.2509 55.4423 78.7605 55.4423L72.6924 40.7935Z" fill="url(#paint3_linear_2345_8115)"/>
<path d="M87.3015 57.9189C94.3149 55.0096 96.3183 43.7749 91.7762 32.8255C87.2341 21.8762 77.8665 15.3585 70.8531 18.2678C63.8397 21.1772 61.8364 32.4119 66.3785 43.3612C70.9206 54.3106 80.2881 60.8283 87.3015 57.9189Z" fill="#AF0000"/>
<path d="M86.3822 54.8953C92.2106 52.4775 93.7962 42.95 89.9237 33.6149C86.0513 24.2798 78.1872 18.6722 72.3589 21.09C66.5305 23.5078 64.9449 33.0353 68.8173 42.3704C72.6898 51.7055 80.5539 57.3131 86.3822 54.8953Z" fill="#2A4B91"/>
<path style="mix-blend-mode:multiply" opacity="0.48" d="M68.8047 42.4052C70.3335 46.2508 72.7739 49.6674 75.9158 52.3608L76.5558 52.8585C76.7691 53.0126 76.9825 53.1667 77.2076 53.3089C78.421 54.1459 79.7675 54.7711 81.1898 55.1578H81.2847C81.4635 55.2098 81.6456 55.2494 81.8299 55.2763H81.9839L82.458 55.3474H82.6595C82.8017 55.3474 82.9439 55.3474 83.0861 55.3474H83.9395H84.3306H84.5558L84.9469 55.2763H85.1721L85.575 55.1697H85.7647C85.9543 55.0985 86.1558 55.0393 86.3454 54.9563C87.622 54.4162 88.728 53.5395 89.5454 52.42C90.052 51.7473 90.4739 51.0149 90.8017 50.2393C91.1571 49.3942 91.4309 48.5171 91.6195 47.62C91.6195 47.383 91.7143 47.146 91.7498 46.9089C91.9926 45.3729 92.0602 43.8143 91.9513 42.263C91.8974 41.4208 91.7985 40.5821 91.655 39.7504C91.5602 39.1815 91.4417 38.5652 91.2995 38.0319C91.1572 37.4985 91.015 36.8467 90.8254 36.3015C90.6358 35.7563 90.458 35.1163 90.2328 34.5474C90.1261 34.263 90.0076 33.9667 89.8891 33.6704L68.8047 42.4052Z" fill="url(#paint4_linear_2345_8115)"/>
<path d="M66.7432 33.8955C67.2288 39.7821 69.5457 45.3689 73.3684 49.8718C74.4517 49.4611 75.4415 48.837 76.2791 48.0365C77.1167 47.2361 77.7849 46.2755 78.2443 45.2119C78.7036 44.1483 78.9447 43.0033 78.9531 41.8447C78.9616 40.6862 78.7372 39.5378 78.2934 38.4676C77.8496 37.3974 77.1954 36.4272 76.3696 35.6146C75.5437 34.8021 74.5631 34.1636 73.4859 33.7372C72.4086 33.3108 71.2567 33.1051 70.0984 33.1323C68.9402 33.1595 67.7992 33.419 66.7432 33.8955Z" fill="#0C172D"/>
<defs>
<linearGradient id="paint0_linear_2345_8115" x1="-2.09926e-07" y1="28" x2="57.2748" y2="25.9666" gradientUnits="userSpaceOnUse">
<stop stop-color="#00194F"/>
<stop offset="0.838542" stop-color="#AF0000"/>
</linearGradient>
<linearGradient id="paint1_linear_2345_8115" x1="59.3872" y1="79.2731" x2="50.0867" y2="56.8531" gradientUnits="userSpaceOnUse">
<stop stop-color="#FEFEFE"/>
<stop offset="1" stop-color="#9BB8E4"/>
</linearGradient>
<linearGradient id="paint2_linear_2345_8115" x1="47.9656" y1="70.3919" x2="58.9019" y2="65.8552" gradientUnits="userSpaceOnUse">
<stop stop-color="#FEFEFE"/>
<stop offset="1" stop-color="#EFE2FE"/>
</linearGradient>
<linearGradient id="paint3_linear_2345_8115" x1="34.728" y1="65.0799" x2="75.7804" y2="48.0503" gradientUnits="userSpaceOnUse">
<stop stop-color="#FEFEFE"/>
<stop offset="1" stop-color="#EFE2FE"/>
</linearGradient>
<linearGradient id="paint4_linear_2345_8115" x1="94.4121" y1="41.6812" x2="73.3495" y2="50.4186" gradientUnits="userSpaceOnUse">
<stop stop-color="#FEFEFE"/>
<stop offset="1" stop-color="#EFE2FE"/>
</linearGradient>
</defs>
</svg>
