<svg width="24" height="18" viewBox="0 0 24 18" fill="none" xmlns="http://www.w3.org/2000/svg">
<rect y="0.428711" width="24" height="17.1429" rx="4" fill="white"/>
<mask id="mask0_15640_553" style="mask-type:luminance" maskUnits="userSpaceOnUse" x="0" y="0" width="24" height="18">
<rect y="0.428711" width="24" height="17.1429" rx="4" fill="white"/>
</mask>
<g mask="url(#mask0_15640_553)">
<path fill-rule="evenodd" clip-rule="evenodd" d="M24 0.428711H0V1.57157H24V0.428711ZM24 2.71443H0V3.85728H24V2.71443ZM0 5.00014H24V6.143H0V5.00014ZM24 7.28585H0V8.42871H24V7.28585ZM0 9.57157H24V10.7144H0V9.57157ZM24 11.8573H0V13.0001H24V11.8573ZM0 14.143H24V15.2859H0V14.143ZM24 16.4287H0V17.5716H24V16.4287Z" fill="#D02F44"/>
<rect y="0.428711" width="10.2857" height="8" fill="#46467F"/>
<g filter="url(#filter0_d_15640_553)">
<path fill-rule="evenodd" clip-rule="evenodd" d="M1.90705 1.8784L1.71461 1.28613L1.52216 1.8784H0.899414L1.40323 2.24445L1.21079 2.83672L1.71461 2.47067L2.21842 2.83672L2.02598 2.24445L2.5298 1.8784H1.90705ZM1.90705 4.44983L1.71461 3.85756L1.52216 4.44983H0.899414L1.40323 4.81588L1.21079 5.40815L1.71461 5.0421L2.21842 5.40815L2.02598 4.81588L2.5298 4.44983H1.90705ZM1.71461 6.42899L1.90705 7.02126H2.5298L2.02598 7.3873L2.21842 7.97958L1.71461 7.61353L1.21079 7.97958L1.40323 7.3873L0.899414 7.02126H1.52216L1.71461 6.42899ZM4.0499 1.8784L3.85746 1.28613L3.66502 1.8784H3.04227L3.54609 2.24445L3.35365 2.83672L3.85746 2.47067L4.36128 2.83672L4.16884 2.24445L4.67265 1.8784H4.0499ZM3.85746 3.85756L4.0499 4.44983H4.67265L4.16884 4.81588L4.36128 5.40815L3.85746 5.0421L3.35365 5.40815L3.54609 4.81588L3.04227 4.44983H3.66502L3.85746 3.85756ZM4.0499 7.02126L3.85746 6.42899L3.66502 7.02126H3.04227L3.54609 7.3873L3.35365 7.97958L3.85746 7.61353L4.36128 7.97958L4.16884 7.3873L4.67265 7.02126H4.0499ZM6.00032 1.28613L6.19276 1.8784H6.81551L6.3117 2.24445L6.50414 2.83672L6.00032 2.47067L5.4965 2.83672L5.68894 2.24445L5.18513 1.8784H5.80788L6.00032 1.28613ZM6.19276 4.44983L6.00032 3.85756L5.80788 4.44983H5.18513L5.68894 4.81588L5.4965 5.40815L6.00032 5.0421L6.50414 5.40815L6.3117 4.81588L6.81551 4.44983H6.19276ZM6.00032 6.42899L6.19276 7.02126H6.81551L6.3117 7.3873L6.50414 7.97958L6.00032 7.61353L5.4965 7.97958L5.68894 7.3873L5.18513 7.02126H5.80788L6.00032 6.42899ZM5.33562 3.16412L5.14318 2.57185L4.95074 3.16412H4.32799L4.8318 3.53016L4.63936 4.12243L5.14318 3.75639L5.64699 4.12243L5.45455 3.53016L5.95837 3.16412H5.33562ZM5.14318 5.14328L5.33562 5.73555H5.95837L5.45455 6.10159L5.64699 6.69386L5.14318 6.32782L4.63936 6.69386L4.8318 6.10159L4.32799 5.73555H4.95074L5.14318 5.14328ZM3.19276 3.16412L3.00032 2.57185L2.80788 3.16412H2.18513L2.68894 3.53016L2.4965 4.12243L3.00032 3.75639L3.50414 4.12243L3.3117 3.53016L3.81551 3.16412H3.19276ZM3.00032 5.14328L3.19276 5.73555H3.81551L3.3117 6.10159L3.50414 6.69386L3.00032 6.32782L2.4965 6.69386L2.68894 6.10159L2.18513 5.73555H2.80788L3.00032 5.14328ZM7.47847 3.16412L7.28603 2.57185L7.09359 3.16412H6.47084L6.97466 3.53016L6.78222 4.12243L7.28603 3.75639L7.78985 4.12243L7.59741 3.53016L8.10123 3.16412H7.47847ZM7.28603 5.14328L7.47847 5.73555H8.10123L7.59741 6.10159L7.78985 6.69386L7.28603 6.32782L6.78222 6.69386L6.97466 6.10159L6.47084 5.73555H7.09359L7.28603 5.14328ZM8.33562 1.8784L8.14318 1.28613L7.95074 1.8784H7.32799L7.8318 2.24445L7.63936 2.83672L8.14318 2.47067L8.64699 2.83672L8.45455 2.24445L8.95837 1.8784H8.33562ZM8.14318 3.85756L8.33562 4.44983H8.95837L8.45455 4.81588L8.64699 5.40815L8.14318 5.0421L7.63936 5.40815L7.8318 4.81588L7.32799 4.44983H7.95074L8.14318 3.85756ZM8.33562 7.02126L8.14318 6.42899L7.95074 7.02126H7.32799L7.8318 7.3873L7.63936 7.97958L8.14318 7.61353L8.64699 7.97958L8.45455 7.3873L8.95837 7.02126H8.33562Z" fill="url(#paint0_linear_15640_553)"/>
</g>
</g>
<defs>
<filter id="filter0_d_15640_553" x="0.899414" y="1.28613" width="8.05859" height="8.69336" filterUnits="userSpaceOnUse" color-interpolation-filters="sRGB">
<feFlood flood-opacity="0" result="BackgroundImageFix"/>
<feColorMatrix in="SourceAlpha" type="matrix" values="0 0 0 0 0 0 0 0 0 0 0 0 0 0 0 0 0 0 127 0" result="hardAlpha"/>
<feOffset dy="2"/>
<feColorMatrix type="matrix" values="0 0 0 0 0 0 0 0 0 0 0 0 0 0 0 0 0 0 0.06 0"/>
<feBlend mode="normal" in2="BackgroundImageFix" result="effect1_dropShadow_15640_553"/>
<feBlend mode="normal" in="SourceGraphic" in2="effect1_dropShadow_15640_553" result="shape"/>
</filter>
<linearGradient id="paint0_linear_15640_553" x1="1.13769" y1="1.28613" x2="1.13769" y2="7.28612" gradientUnits="userSpaceOnUse">
<stop stop-color="white"/>
<stop offset="1" stop-color="#F0F0F0"/>
</linearGradient>
</defs>
</svg>
