<svg width="1184" height="549" viewBox="0 0 1184 549" fill="none" xmlns="http://www.w3.org/2000/svg">
<path opacity="0.2" fill-rule="evenodd" clip-rule="evenodd" d="M183.446 35.3683C256.388 229.719 380.431 322.491 591.665 322.491C803.372 322.491 927.497 229.304 1000.37 34.0628C1010.06 8.12434 1023.72 -7.82774 1050.37 3.93222C1075.92 15.205 1111.68 30.9853 1157.65 51.2734C1182.11 62.0649 1189.96 81.9145 1179.44 111.359C1077.44 397.014 884.936 549 591.665 549C298.81 549 106.438 397.444 4.32056 112.572C-6.66394 81.9345 4.32056 60.6975 25.7078 51.2621C51.1088 40.0505 86.7572 24.3188 132.653 4.067C154.487 -5.56599 171.695 4.067 183.446 35.3683Z" fill="url(#paint0_linear_345_9955)"/>
<defs>
<linearGradient id="paint0_linear_345_9955" x1="516.983" y1="587.656" x2="536.267" y2="-391.08" gradientUnits="userSpaceOnUse">
<stop stop-color="#39A5E7"/>
<stop offset="0.460635" stop-color="#C3DEEE"/>
<stop offset="1" stop-color="#F0F3F5" stop-opacity="0.21"/>
</linearGradient>
</defs>
</svg>
