<svg width="64" height="64" viewBox="0 0 64 64" fill="none" xmlns="http://www.w3.org/2000/svg">
<g clip-path="url(#clip0_557_55422)">
<g opacity="0.7">
<path d="M44.2021 7.68005H28.7998V24.0343H44.2021V7.68005Z" fill="#CBD1DE"/>
<path d="M61.416 7.68005H46.0137V24.0343H61.416V7.68005Z" fill="#CBD1DE"/>
<path d="M44.2021 25.2458H28.7998V41.6001H44.2021V25.2458Z" fill="#CBD1DE"/>
<path d="M61.416 25.2458H46.0137V41.6001H61.416V25.2458Z" fill="#CBD1DE"/>
</g>
<path d="M58.4675 62.7422L4.20312 65.4842V62.7422H58.4675Z" fill="#1F160F"/>
<path d="M23.4747 29.6328L16.6611 29.7646V23.3801H23.4747V29.6328Z" fill="#F0BEA8"/>
<path d="M23.4749 27.7602V23.3801H17.4257C17.4257 23.3801 17.2099 28.2491 23.4749 27.7602Z" fill="#1F160F"/>
<path d="M26.7188 13.3786H27.1248C27.1248 13.3786 26.2251 10.8609 23.7674 11.4053C23.12 10.0771 21.039 10.247 21.039 10.247L21.5511 10.7776C15.1289 9.5812 13.6074 15.019 13.6074 15.019L14.3499 14.797C13.7281 16.6974 13.9256 19.1042 15.2825 21.6982L25.7094 21.8924C26.5323 20.533 26.5579 18.7505 26.8614 17.6095C27.3552 16.1044 27.2747 14.5542 26.7151 13.3786H26.7188Z" fill="#1F160F"/>
<path d="M26.3745 20.3907C26.2867 25.1939 25.4602 26.9729 21.9199 26.914C18.3833 26.855 15.783 25.017 15.8744 20.2173C15.9622 15.4212 19.2574 13.8571 21.2433 13.8918C23.2329 13.923 26.4623 15.5946 26.3745 20.3907Z" fill="#F0BEA8"/>
<path d="M13.7063 19.8914C13.9257 18.3309 15.0741 17.9286 16.2554 19.1319L16.1896 22.6172C14.6901 23.7547 13.4832 21.452 13.7026 19.8914H13.7063Z" fill="#F0BEA8"/>
<path d="M14.2696 20.0301C14.2696 20.0301 14.2513 20.0301 14.244 20.0267C14.1928 20.0128 14.1672 19.9608 14.1818 19.9157C14.2989 19.5412 14.5366 19.3088 14.8474 19.2637C15.1876 19.2117 15.5716 19.399 15.8203 19.7423C15.8495 19.7839 15.8386 19.8394 15.7947 19.8671C15.7508 19.8949 15.6923 19.8845 15.663 19.8429C15.4546 19.5585 15.1437 19.399 14.8767 19.4406C14.639 19.4753 14.4598 19.6591 14.361 19.9677C14.3501 20.0059 14.3098 20.0301 14.2696 20.0301Z" fill="#1F160F"/>
<path d="M18.8516 16.1287C22.2456 17.5714 23.8072 15.1403 25.9138 15.9622C26.9488 16.3645 26.1332 12.8966 21.6896 12.8237C16.1306 12.7301 15.966 18.0291 15.9989 18.8961C16.0355 19.8637 16.5841 21.3861 16.7816 20.7307C17.7178 17.5575 18.5297 18.6222 18.8552 16.1287H18.8516Z" fill="#1F160F"/>
<path d="M19.3981 20.4708H21.7095C21.9115 20.4708 22.0752 20.3156 22.0752 20.124V19.2328C22.0752 19.0412 21.9115 18.886 21.7095 18.886H19.3981C19.1961 18.886 19.0323 19.0412 19.0323 19.2328V20.124C19.0323 20.3156 19.1961 20.4708 19.3981 20.4708Z" fill="white"/>
<path d="M23.3547 20.4708H25.3882C25.5902 20.4708 25.7539 20.3156 25.7539 20.124V19.2328C25.7539 19.0412 25.5902 18.886 25.3882 18.886H23.3547C23.1527 18.886 22.989 19.0412 22.989 19.2328V20.124C22.989 20.3156 23.1527 20.4708 23.3547 20.4708Z" fill="white"/>
<path d="M23.1212 19.5343H21.7972C21.746 19.5343 21.7021 19.4927 21.7021 19.4442C21.7021 19.3956 21.746 19.354 21.7972 19.354H23.1212C23.1724 19.354 23.2163 19.3956 23.2163 19.4442C23.2163 19.4927 23.1724 19.5343 23.1212 19.5343Z" fill="white"/>
<path d="M19.2331 19.5344C19.2331 19.5344 19.2149 19.5344 19.2039 19.5309L16.0769 18.5668L15.777 18.6743C15.7295 18.6917 15.6746 18.6674 15.6563 18.6223C15.638 18.5772 15.6636 18.5252 15.7112 18.5079L16.0403 18.39C16.0623 18.383 16.0842 18.383 16.1025 18.39L19.2624 19.361C19.3136 19.3749 19.3392 19.4269 19.3246 19.4754C19.31 19.5136 19.2734 19.5379 19.2331 19.5379V19.5344Z" fill="white"/>
<path d="M25.6585 19.5343C25.611 19.5343 25.5707 19.5031 25.5634 19.458C25.5561 19.4095 25.5927 19.3644 25.6439 19.3575L26.4339 19.2534C26.4851 19.25 26.5326 19.2812 26.5399 19.3297C26.5472 19.3783 26.5107 19.4234 26.4595 19.4303L25.6695 19.5343C25.6695 19.5343 25.6622 19.5343 25.6549 19.5343H25.6585Z" fill="white"/>
<path d="M22.3018 22.6104C22.2104 22.6104 22.1226 22.593 22.0385 22.5583C21.991 22.5375 21.969 22.4855 21.991 22.4404C22.0129 22.3953 22.0678 22.3745 22.1153 22.3953C22.3494 22.4959 22.6017 22.3641 22.6968 22.3017C22.8724 22.1907 22.9601 22.0555 22.9601 22.0035C22.9601 21.948 22.9016 21.8093 22.8431 21.6601C22.6968 21.2925 22.4737 20.7342 22.4847 20.162C22.4847 20.1134 22.5176 20.0718 22.5798 20.0753C22.631 20.0753 22.6749 20.1169 22.6712 20.1654C22.6602 20.703 22.876 21.2405 23.0187 21.5977C23.0955 21.7884 23.143 21.9133 23.1467 21.9965C23.154 22.156 22.9748 22.3399 22.7992 22.4508C22.631 22.5549 22.4591 22.6104 22.2945 22.6104H22.3018Z" fill="#1F160F"/>
<path d="M24.5657 19.7667C24.5621 20.0649 24.3865 20.3007 24.178 20.2973C23.9696 20.2938 23.805 20.051 23.8087 19.7528C23.8123 19.4546 23.9879 19.2187 24.1963 19.2222C24.4048 19.2222 24.5694 19.4684 24.5657 19.7667Z" fill="#1F160F"/>
<path d="M25.1463 18.858C25.1024 18.858 25.0585 18.8476 25.0146 18.8268C24.6379 18.6395 24.2941 18.5563 23.6651 18.6811C23.5115 18.7089 23.3615 18.6187 23.3286 18.4731C23.2957 18.3274 23.3944 18.1852 23.548 18.154C24.2319 18.0222 24.7147 18.0743 25.2743 18.3517C25.4133 18.421 25.4681 18.584 25.395 18.7158C25.3438 18.8095 25.245 18.8615 25.1426 18.8615L25.1463 18.858Z" fill="#1F160F"/>
<path d="M20.2559 19.68C20.2523 19.9783 20.4168 20.221 20.6253 20.2245C20.8338 20.228 21.0093 19.9887 21.013 19.6939C21.0166 19.3957 20.8521 19.1529 20.6436 19.1495C20.4351 19.146 20.2596 19.3853 20.2559 19.68Z" fill="#1F160F"/>
<path d="M19.6762 18.7401C19.5811 18.7401 19.486 18.695 19.4348 18.6118C19.3543 18.4835 19.3946 18.3205 19.5299 18.2407C20.0931 17.9148 20.6161 17.8489 21.4609 17.9876C21.6145 18.0119 21.7169 18.154 21.6913 18.2997C21.6657 18.4453 21.5158 18.5425 21.3622 18.5182C20.5685 18.3864 20.2101 18.48 19.8261 18.702C19.7786 18.7297 19.7274 18.7401 19.6798 18.7401H19.6762Z" fill="#1F160F"/>
<path d="M23.4616 24.1199C22.2082 24.1561 21.1527 23.7573 20.5386 23.1097C20.5386 23.1097 20.3458 24.1872 21.1273 24.5809C22.1574 25.1041 23.4616 24.1147 23.4616 24.1147V24.1199Z" fill="white"/>
<path d="M37.105 46.6328C34.8192 47.0351 32.2079 44.3474 29.5088 39.3085C29.5088 39.3085 29.9477 46.13 30.4341 62.7068H7.06039L7.54681 49.6014C7.54681 49.6014 5.76205 46.7577 5.8352 44.937C6.19361 36.2879 7.45903 33.0905 8.76103 31.6617C11.1236 29.0711 17.7982 28.7174 20.6326 28.8041C24.6446 28.922 27.6656 29.2514 29.304 29.6953C31.2314 30.2155 35.0716 34.3008 38.0266 39.9015C38.0266 39.9015 41.0073 45.9323 37.105 46.6294V46.6328Z" fill="#1E88E5"/>
<path d="M23.4747 28.9255C23.4747 30.4479 22.8017 32.2686 20.8414 32.2686C18.8811 32.2686 16.6611 30.7115 16.6611 28.8284C16.6611 28.8284 18.8336 28.6931 20.3513 28.6931C21.8691 28.6931 23.4747 28.9289 23.4747 28.9289V28.9255Z" fill="#F0BEA8"/>
<path d="M29.5099 39.3988C29.4587 39.3988 29.4184 39.3606 29.4148 39.3121C29.3526 37.3457 29.0527 33.6211 29.0491 33.5865C29.0454 33.5379 29.0856 33.4928 29.1368 33.4894C29.188 33.4859 29.2356 33.524 29.2392 33.5726C29.2392 33.6107 29.5428 37.3388 29.605 39.3086C29.605 39.3571 29.5647 39.3987 29.5135 39.4022L29.5099 39.3988Z" fill="#1F160F"/>
<path d="M17.7156 33.6419C20.4696 31.8593 22.0056 32.5876 23.8745 33.5032C23.8745 33.5032 24.5475 30.9507 24.4999 29.0052L23.4722 28.2111C23.4722 29.3173 22.386 32.0466 20.9194 32.0466C17.306 32.0466 16.6587 28.2111 16.6587 28.2111L15.3604 29.0989C15.5249 31.027 17.7156 33.6384 17.7156 33.6384V33.6419Z" fill="white"/>
<path d="M13.0924 45.5127C13.0924 45.5127 13.0814 45.5127 13.0778 45.5127C13.0266 45.5058 12.99 45.4607 13.001 45.4087C13.8495 40.3351 14.4785 37.0509 14.4858 37.0197C14.4932 36.9712 14.5444 36.9399 14.5956 36.9469C14.6468 36.9573 14.6797 37.0024 14.6724 37.0509C14.665 37.0821 14.0396 40.3663 13.1875 45.4364C13.1802 45.4815 13.14 45.5127 13.0961 45.5127H13.0924Z" fill="#1F160F"/>
<path d="M20.9225 37.3318C20.8713 37.3318 20.8311 37.2902 20.8311 37.2382C20.8311 37.2139 20.9225 34.7135 20.8311 32.7264C20.8311 32.6779 20.8676 32.6362 20.9225 32.6328C20.9773 32.6224 21.0176 32.6709 21.0212 32.7195C21.1127 34.7135 21.0212 37.2209 21.0212 37.2452C21.0212 37.2937 20.9773 37.3318 20.9261 37.3318H20.9225Z" fill="#1F160F"/>
<path d="M37.501 42.0413H21.4053V63.7056H37.501V42.0413Z" fill="#BB884F"/>
<path d="M57.6122 42.0413H37.4971V63.7056H57.6122V42.0413Z" fill="#EFCD90"/>
<path d="M47.4679 59.5267H40.1533V61.6075H47.4679V59.5267Z" fill="#F7ECEA"/>
<path d="M43.0792 56.7523H40.1533V58.8331H43.0792V56.7523Z" fill="#F7ECEA"/>
<path d="M47.4678 56.7523H44.542V58.8331H47.4678V56.7523Z" fill="#F7ECEA"/>
<path d="M31.2803 42.0413V46.8964L30.6732 46.2028L30.0625 46.8964L29.4553 46.2028L28.8446 46.8964L28.2338 46.2028L27.623 46.8964V42.0413H31.2803Z" fill="#F7ECEA"/>
<path d="M21.0794 57.8552C23.4603 58.5037 24.6635 58.7985 26.4958 59.017C27.8161 59.173 30.6761 59.4747 30.7712 58.8782C30.8517 58.3893 27.8783 58.1153 27.8783 58.1153C27.8783 58.1153 31.0016 57.8933 31.6819 57.7407C32.3402 57.5951 32.289 56.8252 31.6636 56.9119C31.1735 56.9813 27.8783 57.0437 27.8783 57.0437C27.8783 57.0437 31.8574 56.5894 32.2122 56.5408C32.7973 56.4576 32.6657 55.6045 32.1024 55.653C30.4237 55.7918 27.5235 55.9062 27.5235 55.9062C27.5235 55.9062 31.4917 55.3583 31.6636 55.3305C32.2049 55.2369 32.2048 54.467 31.477 54.5364C29.162 54.7548 25.9692 54.7895 25.9692 54.7895C25.9692 54.7895 26.0021 54.4601 26.1045 54.3144C26.2069 54.1688 26.6202 53.6555 27.3809 53.7457C29.7033 54.0231 29.2424 53.0798 29.2424 53.0798C29.2424 53.0798 27.7759 52.6116 27.1432 52.4591C26.5653 52.3203 24.9927 52.4591 24.2649 52.74C23.7455 52.9376 21.6755 53.8913 21.5109 53.7977C16.2847 50.8083 12.77 47.3958 12.77 47.3958L12.7627 45.4295C9.17125 45.7035 5.83946 44.9509 5.83946 44.9509C5.83946 44.9509 5.67488 48.3287 6.00038 49.0743C6.32588 49.8234 15.5532 56.357 21.0867 57.8656L21.0794 57.8552Z" fill="#F0BEA8"/>
<path d="M21.9458 34.1413C22.1478 34.1413 22.3115 33.9861 22.3115 33.7945C22.3115 33.603 22.1478 33.4478 21.9458 33.4478C21.7438 33.4478 21.5801 33.603 21.5801 33.7945C21.5801 33.9861 21.7438 34.1413 21.9458 34.1413Z" fill="#1F160F"/>
<path d="M21.9458 36.0488C22.1478 36.0488 22.3115 35.8936 22.3115 35.702C22.3115 35.5105 22.1478 35.3552 21.9458 35.3552C21.7438 35.3552 21.5801 35.5105 21.5801 35.702C21.5801 35.8936 21.7438 36.0488 21.9458 36.0488Z" fill="#1F160F"/>
</g>
<defs>
<clipPath id="clip0_557_55422">
<rect width="58.88" height="58.88" fill="white" transform="translate(2.55957 5.12)"/>
</clipPath>
</defs>
</svg>
