<svg width="64" height="64" viewBox="0 0 64 64" fill="none" xmlns="http://www.w3.org/2000/svg">
<path opacity="0.3" d="M53.0739 23.3359L62.6911 28.8196L53.4185 34.1116L43.8013 28.6341L53.0739 23.3359Z" fill="black"/>
<path d="M53.412 24.2385L44.1143 18.9403V28.665L53.412 33.9694V24.2385Z" fill="#EFC58B"/>
<path d="M62.3777 28.8505L53.4121 33.9694V24.2386L62.3777 19.1259V28.8505Z" fill="#C79D5C"/>
<path d="M54.1138 31.2677V32.906L55.5548 32.0837V30.4454L54.1138 31.2677ZM54.1764 32.7947V31.2986L55.4859 30.5505V32.0466L54.1764 32.7947Z" fill="#995D43"/>
<path d="M55.16 31.1008L54.947 31.0946L54.853 31.1502V31.1008L54.8405 31.0946L54.8154 31.107L54.8029 31.1317V31.1811L54.7089 31.2368L54.4959 31.4841L54.3706 31.7746V31.8674L54.8029 31.6201V32.1332L54.7152 32.2816L54.6651 32.3063L54.5774 32.2569V32.1889V32.1703L54.5648 32.1641L54.546 32.1765L54.5335 32.2012V32.2136V32.3063L54.6463 32.3743L54.734 32.3249L54.853 32.127V31.5954L55.2853 31.3481V31.2553L55.16 31.1008Z" fill="#995D43"/>
<path d="M55.8555 30.2786V31.9231L57.2902 31.1008V29.4625L55.8555 30.2786ZM55.9181 31.8118V30.3219L57.2276 29.5738V31.0637L55.9181 31.8118Z" fill="#995D43"/>
<path d="M59.0318 28.4672L57.5908 29.2832V30.9215L59.0318 30.1055V28.4672ZM57.6535 30.8164V29.3203L58.9629 28.5723V30.0684L57.6535 30.8164Z" fill="#995D43"/>
<path d="M56.1499 30.9586L56.2564 31.0204L56.3003 30.9957V31.4284L56.2564 31.4531L56.1499 31.5521V31.5583L56.507 31.3542V31.348L56.4005 31.3666L56.3504 31.3975V30.9647L56.4005 30.9338L56.507 30.7545V30.1858L56.1499 30.3898V30.9586Z" fill="#995D43"/>
<path d="M56.645 30.6804L56.7515 30.736L56.8017 30.7113V31.144L56.7515 31.1749L56.645 31.2677L57.0021 31.0699L56.8956 31.0822L56.8455 31.1131V30.6804L56.8956 30.6556L57.0021 30.4764V29.9076L56.645 30.1116V30.6804ZM56.6763 30.1301L56.9708 29.9632V30.4702L56.8768 30.6371L56.7515 30.7051L56.6763 30.6618V30.1301Z" fill="#995D43"/>
<path d="M58.5625 29.1904L58.5938 29.141L58.5813 29.1348L58.5562 29.178L58.5249 29.1966L58.4998 29.1842V29.1471L58.5249 29.1039L58.5562 29.0853L58.5813 29.1039L58.5938 29.0853L58.5625 29.0668L58.5186 29.0977L58.4873 29.1471V29.2028L58.5186 29.2151L58.5625 29.1904Z" fill="#995D43"/>
<path d="M58.0991 29.8148L58.1304 29.7653L58.1242 29.7592L58.0991 29.8024L58.0615 29.821L58.0365 29.8086V29.7715L58.0615 29.7283L58.0991 29.7159L58.1242 29.7283L58.1304 29.7097L58.0991 29.6912L58.0553 29.7159L58.0239 29.7715V29.821L58.0553 29.8395L58.0991 29.8148Z" fill="#995D43"/>
<path d="M58.3803 29.4316V29.1225L58.3365 29.0978L58.2863 29.1287L58.2488 29.1905V29.6418L58.1485 29.8087L58.0044 29.8953V29.92L58.1548 29.8335L58.2488 29.6789V30.0251L58.1736 30.1549V30.2848L58.255 30.3342L58.3678 30.2662L58.4492 30.1302V30.0004L58.374 29.9571V29.4687L58.468 29.2956L58.6184 29.2152V29.1905L58.4618 29.2771L58.374 29.4378L58.3803 29.4316ZM58.3615 29.4625L58.2738 29.6109V29.1905L58.2989 29.1472L58.3302 29.1287L58.3552 29.1411V29.4625H58.3615Z" fill="#995D43"/>
<path d="M53.0804 13.8214L57.228 16.1892L57.3596 16.69L58.2305 16.758L62.3781 19.1258L53.4124 24.2385L44.1147 18.9403L53.0804 13.8214Z" fill="#F7E6BB"/>
<path d="M49.2589 21.8707L48.883 21.9511L48.2627 21.3019L57.2283 16.1892L58.2308 16.758L49.2589 21.8707Z" fill="#B88F5A"/>
<path d="M49.2589 25.8087L48.2627 25.24V21.3019L49.2589 21.8706V25.8087Z" fill="#A16739"/>
<path d="M51.9573 17.7533L42.6533 12.449V18.5447L51.9573 23.8429V17.7533Z" fill="#EFC58B"/>
<path d="M60.9227 18.7301L51.957 23.8429V17.7533L60.9227 12.6406V18.7301Z" fill="#C79D5C"/>
<path d="M52.6582 21.1412V22.7795L54.0992 21.9573V20.319L52.6582 21.1412ZM52.7209 22.6682V21.1721L54.0303 20.4241V21.9202L52.7209 22.6682Z" fill="#995D43"/>
<path d="M53.7045 20.9681L53.4915 20.9619L53.3912 21.0176V20.9681L53.3787 20.9619L53.3599 20.9743L53.3473 20.999V21.0485L53.2471 21.1041L53.0341 21.3514L52.915 21.642V21.7347L53.3473 21.4936V22.0005L53.2596 22.1489L53.2095 22.1736L53.1218 22.1242V22.0562V22.0376L53.1093 22.0314L53.0842 22.05L53.0779 22.0685V22.0809V22.1736L53.1907 22.2416L53.2784 22.1922L53.3975 21.9943V21.4627L53.8298 21.2154V21.1226L53.7045 20.9681Z" fill="#995D43"/>
<path d="M54.3999 20.1459V21.7904L55.8347 20.9681V19.3298L54.3999 20.1459ZM54.4626 21.6791V20.183L55.772 19.4349V20.9249L54.4626 21.6729V21.6791Z" fill="#995D43"/>
<path d="M57.5763 18.3407L56.1353 19.1567V20.795L57.5763 19.9728V18.3345V18.3407ZM56.2042 20.6899V19.2L57.5136 18.4519V19.948L56.2042 20.6899Z" fill="#995D43"/>
<path d="M54.6943 20.8259L54.7946 20.8877L54.8447 20.863V21.2895L54.7946 21.3205L54.6943 21.4194V21.4256L55.0515 21.2215V21.2154L54.9449 21.2401L54.8948 21.2648V20.8321L54.9449 20.8073L55.0515 20.6281V20.0531L54.6943 20.2633V20.8259Z" fill="#995D43"/>
<path d="M55.1831 20.5477L55.2834 20.6034L55.3335 20.5786V21.0114L55.2834 21.0423L55.1831 21.1412L55.5402 20.9434L55.4337 20.9558L55.3836 20.9867V20.5539L55.4337 20.5292L55.5402 20.3499V19.7811L55.1831 19.9851V20.5539V20.5477ZM55.2144 19.9975L55.5089 19.8306V20.3375L55.4149 20.5045L55.2834 20.5786L55.2082 20.5354V20.0037L55.2144 19.9975Z" fill="#995D43"/>
<path d="M57.1069 19.064L57.1382 19.0084L57.1257 19.0022L57.1006 19.0455L57.0693 19.064L57.0443 19.0517V19.0146L57.0693 18.9713L57.1006 18.9589L57.1257 18.9713L57.1382 18.9527L57.1069 18.9342L57.0631 18.9651L57.0317 19.0146V19.0702L57.0631 19.0826L57.1069 19.064Z" fill="#995D43"/>
<path d="M56.6435 19.6822L56.6749 19.6328L56.6623 19.6266L56.6373 19.6699L56.606 19.6884L56.5809 19.6761V19.639L56.606 19.6019L56.6373 19.5833L56.6623 19.5957L56.6749 19.5771L56.6435 19.5586L56.5997 19.5833L56.5684 19.639V19.6884L56.5997 19.7132L56.6435 19.6822Z" fill="#995D43"/>
<path d="M56.9185 19.2989V18.9898L56.8809 18.9651L56.8308 18.996L56.7932 19.064V19.5153L56.6929 19.6822L56.5488 19.7626V19.7873L56.6992 19.6946L56.7932 19.54V19.8862L56.718 20.0161V20.1459L56.7994 20.1892L56.9122 20.1273L56.9937 19.9913V19.8615L56.9185 19.8182V19.3298L57.0125 19.1629L57.1628 19.0764V19.0578L57.0125 19.1444L56.9185 19.3051V19.2989ZM56.8997 19.3237L56.8182 19.472V19.0516L56.8433 19.0084L56.8809 18.9836L56.9059 18.996V19.3175L56.8997 19.3237Z" fill="#995D43"/>
<path d="M51.6252 7.34241L55.7666 9.70403L55.8982 10.2048L56.7753 10.2728L60.9229 12.6406L51.9573 17.7533L42.6533 12.4489L51.6252 7.34241Z" fill="#F7E6BB"/>
<path d="M47.8032 15.3856L47.4273 15.466L46.8008 14.8168L55.7727 9.7041L56.7751 10.2729L47.8032 15.3856Z" fill="#B88F5A"/>
<path d="M47.8032 16.8446L46.8008 16.2758V14.8168L47.8032 15.3855V16.8446Z" fill="#A16739"/>
<path opacity="0.3" d="M47.203 26.88L1.27979 52.1858L18.0765 61.44L63.9998 36.1343L47.203 26.88Z" fill="black"/>
<path d="M59.8782 20.4982H59.4897V20.5538L59.7466 20.6651L59.8782 20.5538V20.4982Z" fill="#836E69"/>
<path d="M59.489 20.4982L59.2134 20.764V20.8258L59.4013 20.7702L59.489 20.5538V20.4982Z" fill="#685750"/>
<path d="M59.8774 20.4982L60.1531 20.764V20.8258L59.9589 20.7702L59.8774 20.5538V20.4982Z" fill="#403531"/>
<path d="M60.1532 20.8259L59.8775 20.5538H59.489L59.2134 20.8259V22.4271L59.489 22.6929H59.8775L60.1532 22.4271V20.8259Z" fill="#544540"/>
<path d="M60.0158 20.9309L59.878 20.7949H59.6837L59.5459 20.9309V22.019L59.6837 22.155H59.878L60.0158 22.019V20.9309Z" fill="#403531"/>
<path d="M51.9326 36.0156L47.4404 33.4561V31.2924L52.8724 33.314L51.9326 36.0156Z" fill="#685750"/>
<path d="M51.9326 33.8519L47.4404 31.2924L48.3865 30.7607L52.8724 33.314L51.9326 33.8519Z" fill="#836E69"/>
<path d="M52.8729 35.4778L51.9331 36.0156V33.8518L52.8729 33.314V35.4778Z" fill="#544540"/>
<path d="M49.2756 34.501L38.7562 40.4916L37.027 39.5148L31.4258 42.7048V41.3262L49.2756 31.1564V34.501Z" fill="#544540"/>
<path d="M49.5955 36.535L46.939 35.0204V32.5289L49.5955 34.0498L49.915 35.2862L49.5955 36.535Z" fill="#D6A950"/>
<path d="M43.5618 40.5597L41.1309 39.1811V36.5784L44.3826 37.5057L43.5618 40.5597Z" fill="#211A1A"/>
<path d="M43.5618 37.9569L41.1309 36.5783L42.7473 33.8148L47.4588 33.8952L43.5618 37.9569Z" fill="#362C29"/>
<path d="M45.1717 35.1935L42.7471 33.8148L45.0339 32.5104L47.4586 33.8952L45.1717 35.1935Z" fill="#574943"/>
<path d="M49.0754 34.8164L47.4589 33.8953L45.1721 35.1935L43.5557 37.957V40.5597L45.1721 41.4809L47.4589 40.1826L49.0754 37.4191V34.8164Z" fill="#0A0808"/>
<path d="M47.885 36.0528V37.5365L46.964 39.1068L45.6671 39.8425L45.4541 39.7188L46.751 38.9831L47.672 37.4067V35.9353L47.885 36.0528Z" fill="#574943"/>
<path d="M47.672 35.9353V37.4067L46.751 38.9831L45.4541 39.7188L44.7461 39.3232V38.1547L44.9027 37.5736L45.6671 36.2753L46.964 35.5334L47.672 35.9353Z" fill="#D8D1C7"/>
<path d="M45.3222 37.5304V37.8086L45.153 38.1054L44.9024 38.2475L44.7959 38.1857L45.034 38.0435L45.2157 37.7468V37.4624L45.3222 37.5304Z" fill="#A39C95"/>
<path d="M45.216 37.4623V37.7467L45.0343 38.0434L44.7962 38.1856L44.7461 38.1547V37.8394L44.9027 37.5736L45.1534 37.4314L45.216 37.4623Z" fill="#0A0808"/>
<path d="M47.4716 36.3063V36.5845L47.2962 36.8813L47.0581 37.0235L46.9453 36.9616L47.1897 36.8195L47.3651 36.5227V36.2445L47.4716 36.3063Z" fill="#A39C95"/>
<path d="M47.3648 36.2445V36.5227L47.1893 36.8194L46.945 36.9616L46.8823 36.9245V36.6463L47.0578 36.3434L47.2958 36.2074L47.3648 36.2445Z" fill="#0A0808"/>
<path d="M46.9012 36.0528L46.8323 36.0095L46.7384 36.0652L46.6694 36.1765V36.2877L46.7384 36.3248L46.8323 36.2754L46.9012 36.1579V36.0528Z" fill="#A39C95"/>
<path d="M46.2181 38.7791L46.1492 38.7358L46.0553 38.7915L45.9863 38.9089V39.014L46.0553 39.0511L46.1492 39.0017L46.2181 38.8842V38.7791Z" fill="#A39C95"/>
<path d="M47.2206 37.2336L47.1517 37.1965L47.0577 37.2522L46.9888 37.3634V37.4747L47.0577 37.5118L47.1517 37.4562L47.2206 37.3449V37.2336Z" fill="#A39C95"/>
<path d="M45.2162 38.3773L45.1473 38.3402L45.0533 38.3958L44.9844 38.5071V38.6122L45.0533 38.6555L45.1473 38.5999L45.2162 38.4886V38.3773Z" fill="#A39C95"/>
<path d="M45.5297 36.8318L45.4608 36.7947L45.3669 36.8503L45.3042 36.9616V37.0667L45.3669 37.1038L45.4608 37.0543L45.5297 36.9369V36.8318Z" fill="#A39C95"/>
<path d="M46.3997 36.0405V36.3187L46.2243 36.6154L45.98 36.7576L45.8672 36.6958L46.1115 36.5536L46.287 36.2568V35.9786L46.3997 36.0405Z" fill="#A39C95"/>
<path d="M46.2871 35.9786V36.2568L46.1117 36.5536L45.8673 36.6958L45.8047 36.6587V36.3743L45.9801 36.0837L46.2245 35.9415L46.2871 35.9786Z" fill="#0A0808"/>
<path d="M45.7611 38.6122V38.8904L45.5856 39.1934L45.3413 39.3294L45.2285 39.2676L45.4791 39.1254L45.6483 38.8348V38.5504L45.7611 38.6122Z" fill="#A39C95"/>
<path d="M45.6484 38.5504V38.8348L45.4793 39.1253L45.2287 39.2675L45.166 39.2304V38.9522L45.3414 38.6555L45.5858 38.5133L45.6484 38.5504Z" fill="#0A0808"/>
<path d="M47.0389 37.8827V38.1671L46.8635 38.4639L46.6191 38.6061L46.5063 38.5381L46.7507 38.4021L46.9261 38.1053V37.8209L47.0389 37.8827Z" fill="#A39C95"/>
<path d="M46.9263 37.8209V38.1053L46.7508 38.402L46.5065 38.5381L46.4438 38.501V38.2228L46.6193 37.926L46.8636 37.7838L46.9263 37.8209Z" fill="#0A0808"/>
<path d="M46.4941 37.0977L46.2811 36.974L45.9239 37.178L45.6733 37.6108V38.0126L45.8864 38.1363L46.2811 37.9508L46.5317 37.5242L46.4941 37.0977Z" fill="#B5AFA7"/>
<path d="M46.7446 37.2398L46.494 37.0977L46.1368 37.3017L45.8862 37.7282V38.1363L46.1368 38.2846L46.494 38.0744L46.7446 37.6479V37.2398Z" fill="#A39C95"/>
<path d="M37.4027 44.0711L34.978 42.6862V40.0835L38.2235 41.0108L37.4027 44.0711Z" fill="#211A1A"/>
<path d="M37.4027 41.4622L34.978 40.0835L36.5945 37.3201L41.306 37.4004L37.4027 41.4622Z" fill="#362C29"/>
<path d="M39.0189 38.7049L36.5942 37.3201L38.8748 36.0156L41.3057 37.4004L39.0189 38.7049Z" fill="#574943"/>
<path d="M42.9163 38.3215L41.3061 37.4004L39.0193 38.6987L37.4028 41.4621V44.071L39.0193 44.986L41.3061 43.6877L42.9163 40.9243V38.3215Z" fill="#0A0808"/>
<path d="M41.7259 39.558V41.0418L40.8049 42.612L39.508 43.3539L39.3013 43.2303L40.5982 42.4884L41.5129 40.9181V39.4406L41.7259 39.558Z" fill="#574943"/>
<path d="M41.5129 39.4406V40.9181L40.5981 42.4884L39.3012 43.2303L38.5933 42.8284V41.6662L38.7499 41.0788L39.508 39.7806L40.8049 39.0387L41.5129 39.4406Z" fill="#D8D1C7"/>
<path d="M39.163 41.0356V41.32L38.9938 41.6167L38.7495 41.7589L38.6367 41.6909L38.8811 41.5549L39.0565 41.2581V40.9738L39.163 41.0356Z" fill="#A39C95"/>
<path d="M39.0569 40.9737V41.2581L38.8815 41.5549L38.6371 41.6909L38.5933 41.6661V41.3509L38.7499 41.0788L38.9942 40.9366L39.0569 40.9737Z" fill="#0A0808"/>
<path d="M41.3182 39.8116V40.0898L41.1428 40.3927L40.8984 40.5287L40.7856 40.4669L41.03 40.3247L41.2117 40.0279V39.7498L41.3182 39.8116Z" fill="#A39C95"/>
<path d="M41.2118 39.7498V40.0279L41.0301 40.3247L40.7858 40.4669L40.7231 40.4298V40.1516L40.8986 39.8548L41.1429 39.7126L41.2118 39.7498Z" fill="#0A0808"/>
<path d="M40.7479 39.558L40.679 39.5148L40.5788 39.5704L40.5161 39.6879V39.793L40.5788 39.8362L40.679 39.7806L40.7479 39.6631V39.558Z" fill="#A39C95"/>
<path d="M40.0594 42.2844L39.9968 42.2473L39.8965 42.303L39.8276 42.4142V42.5193L39.8965 42.5626L39.9968 42.507L40.0594 42.3957V42.2844Z" fill="#A39C95"/>
<path d="M41.061 40.7451L40.9921 40.7018L40.9044 40.7574L40.8354 40.8749V40.98L40.9044 41.0171L40.9984 40.9676L41.061 40.8502V40.7451Z" fill="#A39C95"/>
<path d="M39.0566 41.8826L38.9877 41.8455L38.9 41.9011L38.8311 42.0186V42.1237L38.9 42.1608L38.9877 42.1113L39.0566 41.9938V41.8826Z" fill="#A39C95"/>
<path d="M39.3768 40.337L39.3079 40.2999L39.2139 40.3494L39.145 40.4668V40.5719L39.2139 40.6152L39.3079 40.5596L39.3768 40.4421V40.337Z" fill="#A39C95"/>
<path d="M40.2469 39.5457V39.8301L40.0715 40.1268L39.8271 40.269L39.7144 40.201L39.9587 40.065L40.1279 39.7621V39.4839L40.2469 39.5457Z" fill="#A39C95"/>
<path d="M40.128 39.4839V39.7621L39.9588 40.065L39.7145 40.201L39.6519 40.1639V39.8857L39.821 39.589L40.0716 39.4468L40.128 39.4839Z" fill="#0A0808"/>
<path d="M39.602 42.1237V42.4019L39.4328 42.6987L39.1822 42.8409L39.0757 42.7728L39.32 42.6306L39.4955 42.3339V42.0619L39.602 42.1237Z" fill="#A39C95"/>
<path d="M39.4956 42.0618V42.3339L39.3202 42.6306L39.0758 42.7728L39.0132 42.7419V42.4575L39.1824 42.1608L39.433 42.0186L39.4956 42.0618Z" fill="#0A0808"/>
<path d="M40.8798 41.3942V41.6724L40.7044 41.9691L40.46 42.1113L40.3535 42.0495L40.5979 41.9073L40.7733 41.6105V41.3262L40.8798 41.3942Z" fill="#A39C95"/>
<path d="M40.7734 41.3262V41.6106L40.598 41.9073L40.3537 42.0495L40.291 42.0124V41.7342L40.4602 41.4313L40.7045 41.2953L40.7734 41.3262Z" fill="#0A0808"/>
<path d="M40.3412 40.6029L40.1219 40.4792L39.7648 40.6833L39.5142 41.116V41.524L39.7334 41.6415L40.1219 41.4622L40.3788 41.0295L40.3412 40.6029Z" fill="#B5AFA7"/>
<path d="M40.5913 40.7513L40.3406 40.6029L39.9773 40.8069L39.7329 41.2397V41.6415L39.9773 41.7899L40.3406 41.5859L40.5913 41.1531V40.7513Z" fill="#A39C95"/>
<path d="M38.55 37.7405L35.8872 36.2259L45.2288 30.903L47.8852 32.4176L41.3318 36.4917L38.55 37.7405Z" fill="#FBE979"/>
<path d="M36.2628 41.6415L33.6001 40.133L35.8869 36.2258L38.5497 37.7405L37.4971 40.1206L36.2628 41.6415Z" fill="#E3BD5E"/>
<path d="M36.2628 44.133L33.6001 42.6183V40.1331L36.2628 41.6415L36.5824 42.8841L36.2628 44.133Z" fill="#D6A950"/>
<path d="M36.8396 43.8053L36.2632 44.133V41.6415L38.55 37.7405L47.8853 32.4176L50.1721 33.7221V36.2135L49.5957 36.535V34.3156L47.6472 33.2089L38.7881 38.2598L36.8396 41.5859V43.8053Z" fill="#CC934C"/>
<path d="M32.1093 42.1114L26.4204 38.8719L29.9478 36.8564L35.6367 40.1021L34.1518 41.6539L32.1093 42.1114Z" fill="#FBE979"/>
<path d="M32.1093 46.0865L26.4204 42.847V38.8718L32.1093 42.1113L32.7484 43.7929L32.1093 46.0865Z" fill="#E3BD5E"/>
<path d="M35.6367 40.1022L32.1094 42.1114V46.0866L35.6367 44.0774V40.1022Z" fill="#CC934C"/>
<path d="M32.974 40.9305L16.3271 31.447V16.2015L35.2233 24.3992L32.974 40.9305Z" fill="#F4EFE9"/>
<path d="M32.1656 37.3758V39.7065L17.1289 31.1317V18.1923L19.1714 19.3545V29.9694L32.1656 37.3758Z" fill="#3E6669"/>
<path d="M32.1656 26.7608V37.3757L19.1714 29.9694V19.3545L32.1656 26.7608Z" fill="#418080"/>
<path d="M32.974 25.6851L16.3271 16.2015L36.8961 4.47998L53.5618 13.9574L43.6564 21.5244L34.8223 25.6851H32.974Z" fill="#D0D0D0"/>
<path d="M53.5619 13.9574L32.9741 25.6851V40.9305L53.5619 29.1966V13.9574Z" fill="#868686"/>
<path d="M51.6514 17.2464L51.4697 17.1536V16.7085L51.7893 16.7394L51.6514 17.2464Z" fill="#DE822B"/>
<path d="M51.6514 16.8135L51.4697 16.7084L51.7391 16.2448L52.303 16.1273L51.6514 16.8135Z" fill="#EF8F2D"/>
<path d="M51.921 16.3499L51.7393 16.2448L52.1277 16.0284L52.3032 16.1274L51.921 16.3499Z" fill="#FDBD6F"/>
<path d="M52.5786 16.2819L52.303 16.1273L51.9208 16.3499L51.6514 16.8135V17.2463L51.9208 17.4009L52.303 17.1845L52.5786 16.7208V16.2819Z" fill="#D66B24"/>
<path d="M7.78076 32.3866L8.14416 32.1764L9.35963 32.9182L9.72301 33.5365V34.7235L9.06516 35.1006L8.14416 34.1918L7.78076 33.5798V32.3866Z" fill="#0A0808"/>
<path d="M7.65527 32.4546L8.01865 32.2444L8.93965 33.1594L9.30305 33.7776V34.9646L8.93965 35.1686L8.01865 34.2598L7.65527 33.6477V32.4546Z" fill="#362C29"/>
<path d="M9.66661 34.9091L9.34082 34.7298V34.5629L9.71674 34.7236L9.66661 34.9091Z" fill="#211A1A"/>
<path d="M9.66661 34.7482L9.34082 34.5628L9.44107 34.3896L9.91096 34.4886L9.66661 34.7482Z" fill="#362C29"/>
<path d="M9.76719 34.5752L9.44141 34.3897L9.59177 34.3093L9.9113 34.4886L9.76719 34.5752Z" fill="#574943"/>
<path d="M10.0174 34.5443L9.91086 34.4886L9.76675 34.5752L9.6665 34.7483V34.909L9.76675 34.9709L9.91086 34.8905L10.0174 34.7112V34.5443Z" fill="#0A0808"/>
<path d="M22.9553 50.6799L18.8892 48.3677V45.9875L25.3299 48.3121L22.9553 50.6799Z" fill="#403531"/>
<path d="M21.0499 48.918L18.619 47.5393L16.3384 48.8438L18.7819 51.1559L21.0499 48.918Z" fill="#574943"/>
<path d="M18.5504 50.1049L18.2246 49.9194L20.5114 48.615L20.8372 48.8005L18.5504 50.1049Z" fill="#362C29"/>
<path d="M17.9923 49.7834L17.6665 49.5979L19.9534 48.2935L20.2791 48.4789L17.9923 49.7834Z" fill="#362C29"/>
<path d="M17.4293 49.462L17.1035 49.2765L19.3903 47.9783L19.7224 48.1637L17.4293 49.462Z" fill="#362C29"/>
<path d="M19.158 47.8422L16.8711 49.1467L16.5391 48.9612L18.8259 47.6567L19.158 47.8422Z" fill="#362C29"/>
<path d="M18.7632 50.2224L16.3385 48.8438L14.7158 51.601L17.1468 55.5886L18.7632 50.2224Z" fill="#362C29"/>
<path d="M18.2193 49.9155L16.6074 52.6736L16.9331 52.8589L18.5449 50.1007L18.2193 49.9155Z" fill="#0A0808"/>
<path d="M16.3756 52.5468L16.0498 52.3614L17.6662 49.5979L17.9921 49.7834L16.3756 52.5468Z" fill="#0A0808"/>
<path d="M15.8121 52.2254L15.4863 52.04L17.1028 49.2765L17.4286 49.462L15.8121 52.2254Z" fill="#0A0808"/>
<path d="M16.871 49.1466L15.2545 51.9039L14.9287 51.7246L16.5389 48.9612L16.871 49.1466Z" fill="#0A0808"/>
<path d="M17.1468 52.9859L14.7158 51.6011V54.2038L17.1468 55.5886V52.9859Z" fill="#211A1A"/>
<path d="M16.9338 55.4712L16.6143 55.2857V52.683L16.9338 52.8623V55.4712Z" fill="black"/>
<path d="M16.3756 55.1496L16.0498 54.9642V52.3615L16.3756 52.5469V55.1496Z" fill="black"/>
<path d="M15.8121 54.8282L15.4863 54.6428V52.04L15.8121 52.2255V54.8282Z" fill="black"/>
<path d="M15.2545 51.904V54.5067L14.9287 54.3275V51.7247L15.2545 51.904Z" fill="black"/>
<path d="M18.7629 56.5098L17.1465 55.5886V52.9859L18.7629 50.2224L21.0498 48.918L22.6662 49.8391V52.448L21.0498 55.2115L18.7629 56.5098Z" fill="#0A0808"/>
<path d="M19.2521 54.8715L20.5553 54.1358L21.4763 52.5593V51.0818L21.257 50.9581V52.4419L20.3423 54.0122L19.0391 54.754L19.2521 54.8715Z" fill="#362C29"/>
<path d="M19.0386 54.754L20.3418 54.0122L21.2565 52.4419V50.9581L20.5548 50.5563L19.5336 51.1374L19.095 51.5702L18.3369 52.8684V54.3522L19.0386 54.754Z" fill="#D8D1C7"/>
<path d="M19.2705 51.9473L19.5148 51.8051L19.6903 51.5084V51.224L19.5775 51.1683L19.5838 51.4465L19.4021 51.7433L19.1577 51.8855L19.2705 51.9473Z" fill="#A39C95"/>
<path d="M19.1579 51.8854L19.4022 51.7432L19.5839 51.4464L19.5776 51.1683L19.5338 51.1373L19.2581 51.2981L19.0952 51.5701V51.8421L19.1579 51.8854Z" fill="#0A0808"/>
<path d="M19.2705 54.3954L19.5211 54.2594L19.6903 53.9565V53.6783L19.5838 53.6165V53.9008L19.4083 54.1914L19.1577 54.3336L19.2705 54.3954Z" fill="#A39C95"/>
<path d="M19.1579 54.3336L19.4085 54.1914L19.5839 53.9008V53.6164L19.515 53.5793L19.2706 53.7215L19.0952 54.0183V54.2965L19.1579 54.3336Z" fill="#0A0808"/>
<path d="M18.7565 54.0369L18.6938 53.9998V53.8885L18.7628 53.771L18.8568 53.7216L18.9194 53.7586V53.8638L18.8568 53.9812L18.7565 54.0369Z" fill="#A39C95"/>
<path d="M20.8121 52.0894L20.7432 52.0462V51.9349L20.8121 51.8236L20.9061 51.7679L20.975 51.8051V51.9163L20.9061 52.0338L20.8121 52.0894Z" fill="#A39C95"/>
<path d="M19.9595 53.7154L19.8906 53.6784L19.8969 53.5732L19.9595 53.4558L20.0535 53.4001L20.1224 53.4372V53.5485L20.0535 53.6598L19.9595 53.7154Z" fill="#A39C95"/>
<path d="M19.9595 51.428L19.8906 51.3909L19.8969 51.2796L19.9595 51.1683L20.0535 51.1127L20.1224 51.1498V51.2611L20.0535 51.3723L19.9595 51.428Z" fill="#A39C95"/>
<path d="M18.7565 52.4728L18.6938 52.4357V52.3244L18.7565 52.2131L18.8505 52.1575L18.9194 52.1946V52.3059L18.8568 52.4171L18.7565 52.4728Z" fill="#A39C95"/>
<path d="M18.5005 53.6103L18.7448 53.4743L18.9202 53.1776V52.8932L18.8075 52.8252V53.1096L18.632 53.4063L18.3877 53.5485L18.5005 53.6103Z" fill="#A39C95"/>
<path d="M18.3874 53.5484L18.6317 53.4062L18.8071 53.1095V52.8251L18.7507 52.7942L18.5001 52.9364L18.3247 53.2331V53.5113L18.3874 53.5484Z" fill="#0A0808"/>
<path d="M20.4361 51.7742L20.6867 51.6382L20.8621 51.3415V51.0571L20.7494 50.9952V51.2796L20.5739 51.5764L20.3296 51.7186L20.4361 51.7742Z" fill="#A39C95"/>
<path d="M20.3297 51.7186L20.5741 51.5764L20.7495 51.2797V50.9953L20.6869 50.9644L20.4362 51.1004L20.2671 51.3971V51.6753L20.3297 51.7186Z" fill="#0A0808"/>
<path d="M20.4424 53.2332L20.6867 53.0971L20.8621 52.7942V52.516L20.7494 52.448V52.7324L20.5739 53.0291L20.3296 53.1713L20.4424 53.2332Z" fill="#A39C95"/>
<path d="M20.3297 53.1713L20.5741 53.0292L20.7495 52.7324V52.448L20.6869 52.4171L20.4425 52.5593L20.2671 52.856V53.1343L20.3297 53.1713Z" fill="#0A0808"/>
<path d="M19.4713 53.1652L19.2646 53.0416L19.2583 52.6335L19.5152 52.2008L19.866 52.0029L20.0853 52.1204L20.1229 52.5532L19.8723 52.9859L19.4713 53.1652Z" fill="#B5AFA7"/>
<path d="M19.7218 53.3074L19.4712 53.1652V52.7571L19.7218 52.3306L20.0852 52.1204L20.3358 52.2687V52.6768L20.0852 53.1033L19.7218 53.3074Z" fill="#A39C95"/>
<path d="M15.7126 48.0339L2.21094 40.3432L6.83473 35.9414L21.0507 43.5579L15.7126 48.0339Z" fill="#D0D0D0"/>
<path d="M4.20957 42.8223L2.21094 43.2797L3.80233 46.2163L12.1289 51.5145L12.7554 49.2765L12.8745 46.612L4.20957 42.8223Z" fill="#A39C95"/>
<path d="M4.71683 46.4636V44.8809L5.05516 43.6197L4.7231 43.4281L4.38477 44.6893V46.2719L4.71683 46.4636Z" fill="#362C29"/>
<path d="M5.68858 47.0138V45.4373L6.02691 44.1761L5.69485 43.9845L5.36279 45.2457V46.8221L5.68858 47.0138Z" fill="#362C29"/>
<path d="M6.66546 47.5703V45.9876L6.99752 44.7264L6.66546 44.5348L6.32715 45.8021L6.3334 47.3786L6.66546 47.5703Z" fill="#362C29"/>
<path d="M7.63667 48.1205V46.544L7.96873 45.2828L7.64292 45.0912L7.29834 46.3524V47.9288L7.63667 48.1205Z" fill="#362C29"/>
<path d="M8.60745 48.6768V47.0942L8.93951 45.8392L8.60745 45.6414L8.27539 46.9087V48.4852L8.60745 48.6768Z" fill="#362C29"/>
<path d="M9.57913 49.2332V47.6506L9.91744 46.3894L9.58538 46.1978L9.24707 47.4589V49.0416L9.57913 49.2332Z" fill="#362C29"/>
<path d="M10.5498 49.7835V48.2008L10.8882 46.9396L10.5561 46.7542L10.2178 48.0153V49.5918L10.5498 49.7835Z" fill="#362C29"/>
<path d="M11.521 50.3337V48.7573L11.8594 47.4961L11.5273 47.3044L11.189 48.5656V50.1483L11.521 50.3337Z" fill="#362C29"/>
<path d="M3.80241 46.2163L1.21484 44.7387V43.527L3.80241 44.9984V46.2163Z" fill="#DE822B"/>
<path d="M3.80241 44.9984L1.21484 43.527V42.884L3.80241 44.3554V44.9984Z" fill="#D8D1C7"/>
<path d="M3.80241 44.3554L1.21484 42.884L1.62208 41.3508L4.20965 42.8222L3.80241 44.3554Z" fill="white"/>
<path d="M2.22437 40.364L1.63525 41.3705L15.1336 49.0635L15.7227 48.0571L2.22437 40.364Z" fill="#F4EFE9"/>
<path d="M20.3372 43.6321L6.83545 35.9414L11.4028 29.0543L22.9874 31.5334L25.6564 37.8207L20.3372 43.6321Z" fill="#F4EFE9"/>
<path d="M17.8681 24.4857L12.9937 27.4655L11.4023 29.0544L24.9041 36.7513L26.5518 37.116L31.3699 32.1764L17.8681 24.4857Z" fill="white"/>
<path d="M13.9648 28.0157L25.5306 34.606L27.053 32.7575L27.9302 28.9987L14.015 25.8025L13.9648 28.0157Z" fill="#E0DEDC"/>
<path d="M25.5804 32.3928L14.0146 25.8025L16.3579 22.4084L26.9838 26.6186L30.4047 27.0328L25.5804 32.3928Z" fill="#F4EFE9"/>
<path d="M25.5303 34.6061L30.4047 31.6262V27.0328L27.9299 28.9988L25.5804 32.3928L25.5303 34.6061Z" fill="#D1D1D1"/>
<path d="M27.9304 28.9987L16.3584 22.4085L18.8395 20.4425L30.4052 27.0328L27.9304 28.9987Z" fill="#D0D0D0"/>
<path d="M31.37 32.1764L26.4956 35.1562L24.9042 36.7513L20.3368 43.6321L15.713 48.0339L15.124 49.0416L15.832 48.6335L16.0701 48.7634L16.0638 51.669L17.4485 50.8777V51.1806L18.6201 49.1776L21.3392 47.5949L22.9556 48.3986V50.6799L23.4819 50.55L31.37 46.0555V32.1764Z" fill="#868686"/>
<path opacity="0.4" d="M30.4739 46.2287L23.6071 50.1359V47.9597L22.6172 47.4095V41.0109L25.1045 36.8997L26.5393 35.4778L30.4676 33.0358V46.2225L30.4739 46.2287ZM23.6948 49.9937L30.3924 46.1792V33.1903L26.558 35.5705L25.1484 36.9677L22.7049 41.0047V47.323L23.6948 47.8732V49.9937Z" fill="#574943"/>
<path d="M14.4475 55.2794L0.312988 47.2301V46.0679L14.4475 54.1171L14.9299 54.5623L14.4475 55.2794Z" fill="#F4EFE9"/>
<path d="M17.1539 52.5901L15.7128 53.1156L14.4473 54.1171V55.2794L15.1177 55.4463L17.1539 54.2902V52.5901Z" fill="#D1D1D1"/>
<path d="M16.377 52.1574L14.2468 53.0786L0.112305 45.0231L1.215 44.3987V44.7387L14.7167 52.4294L17.4484 50.8777L17.7742 51.0631L16.377 52.1574Z" fill="#574943"/>
<path d="M14.2468 54.2346L0.112305 46.1853V45.0231L14.2468 53.0785L14.7167 53.4371L14.2468 54.2346Z" fill="#362C29"/>
<path d="M17.1537 52.4356L17.7739 51.366V51.0631L14.2466 53.0785V54.2346L17.1537 52.5839V52.4356Z" fill="#0A0808"/>
<path d="M14.717 52.4294L12.1294 50.958V49.7401L14.717 51.2177L15.0177 51.5824L14.717 52.4294Z" fill="#DE822B"/>
<path d="M14.717 51.2176L12.1294 49.74V49.1033L14.717 50.5747L14.93 50.8158L14.717 51.2176Z" fill="#D8D1C7"/>
<path d="M14.717 50.5747L12.1294 49.1033L12.5367 47.564L15.1242 49.0415L15.1931 50.0121L14.717 50.5747Z" fill="white"/>
<path d="M14.7168 51.2176L16.0638 50.451V51.669L14.7168 52.4294V51.2176Z" fill="#AB531F"/>
<path d="M16.0638 49.8081L14.7168 50.5747V51.2177L16.0638 50.4511V49.8081Z" fill="#A39C95"/>
<path d="M16.0701 48.7634L15.832 48.6335L15.124 49.0416L14.7168 50.5748L16.0701 49.8082V48.7634Z" fill="#E0DEDC"/>
<path d="M29.3834 34.1918L26.6768 35.7373L25.2483 37.1964L21.7397 42.9335V43.4033L29.3396 39.0757L29.5526 38.6492V34.3649L29.3834 34.1918Z" fill="#0A0808"/>
<path d="M29.3582 34.3711L29.2767 34.4205V38.5379L29.1013 38.9027L23.3623 42.1669V42.3153L29.2329 38.9707L29.4083 38.6121V34.4205L29.3582 34.3711Z" fill="#211A1A"/>
<path d="M26.7644 35.8486L25.3609 37.2891L23.3623 40.5595V42.1669L29.1013 38.9027L29.2767 38.5379V34.4205L26.7644 35.8486Z" fill="#403531"/>
<path d="M29.3403 40.0403L29.1899 40.2999V41.5054L29.3403 41.592L29.6536 41.4127L29.8039 41.153V39.9475L29.6536 39.861L29.3403 40.0403Z" fill="#574943"/>
<path d="M29.0952 40.2505L29.1892 40.2999V41.5055L29.0952 41.4498V40.2505Z" fill="#0A0808"/>
<path d="M29.2488 39.995L29.0923 40.2556L29.1839 40.3092L29.3404 40.0485L29.2488 39.995Z" fill="#211A1A"/>
<path d="M29.5531 39.8115L29.6533 39.861L29.3401 40.0403L29.2461 39.9908L29.5531 39.8115Z" fill="#362C29"/>
<path d="M20.2676 43.255L7.26709 35.8487L11.5024 29.4686L24.5029 36.8749L20.2676 43.255Z" fill="#0A0808"/>
<path d="M20.2929 42.946L20.2177 43.0634L7.47412 35.7993L11.5466 29.6665L11.6155 29.6974L7.61196 35.7251L20.2929 42.946Z" fill="#403531"/>
<path d="M24.2895 36.9244L20.2923 42.9459L7.61133 35.7251L11.6149 29.6974L12.0973 29.9756L13.1498 31.6386L15.2738 31.787L24.2895 36.9244Z" fill="#736656"/>
<path d="M12.0982 29.9756L10.2061 33.0605V34.6741L15.2747 31.787L12.0982 29.9756Z" fill="#A39685"/>
<path d="M23.2502 42.4141L22.9307 42.2348V42.0679L23.3003 42.2286L23.2502 42.4141Z" fill="#211A1A"/>
<path d="M23.2502 42.2533L22.9307 42.0679L23.0309 41.8948L23.4945 41.9937L23.2502 42.2533Z" fill="#362C29"/>
<path d="M23.3508 42.0741L23.0312 41.8948L23.1753 41.8145L23.4949 41.9937L23.3508 42.0741Z" fill="#574943"/>
<path d="M23.6009 42.0494L23.4944 41.9938L23.3502 42.0741L23.25 42.2534V42.4142L23.3502 42.476L23.4944 42.3956L23.6009 42.2163V42.0494Z" fill="#403531"/>
<path d="M23.3389 41.3941L23.9905 41.0232L25.2936 41.7156L25.657 42.3338V43.5208L25.2936 43.7248L23.696 43.1993L23.3389 42.5873V41.3941Z" fill="#0A0808"/>
<path d="M23.2134 41.4683L23.5705 41.2643L25.1744 41.7836L25.5315 42.4018V43.5888L25.1744 43.7928L23.5705 43.2735L23.2134 42.6553V41.4683Z" fill="#362C29"/>
<path d="M23.2751 50.8654L22.9556 50.6799V48.343L23.2751 48.5285V50.8654Z" fill="white"/>
<path d="M21.4837 47.4158L18.7269 48.9799L17.3799 51.292L17.8874 51.0015L18.94 49.1963L21.4837 47.7434L23.2755 48.7697V50.8655L23.57 50.6985V48.6028L21.4837 47.4158Z" fill="#E0DEDC"/>
<path d="M18.7263 48.9798L18.4067 48.8005L21.1572 47.2302L21.483 47.4157L18.7263 48.9798Z" fill="white"/>
<path d="M17.0474 51.1003L18.4069 48.8005L18.7265 48.9798L17.3794 51.292L17.0474 51.1003Z" fill="#F4EFE9"/>
<path opacity="0.3" d="M38.901 45.3879L48.5183 50.8654L39.2519 56.1574L29.6284 50.6799L38.901 45.3879Z" fill="black"/>
<path d="M39.2454 49.9195L29.9414 44.6213V50.7109L39.2454 56.0152V49.9195Z" fill="#EFC58B"/>
<path d="M48.2045 50.9026L39.2451 56.0153V49.9196L48.2045 44.8069V50.9026Z" fill="#C79D5C"/>
<path d="M39.9409 53.3074V54.9456L41.3819 54.1234V52.4851L39.9409 53.3074ZM40.0036 54.8344V53.3444L41.313 52.5964V54.0925L40.0036 54.8405V54.8344Z" fill="#995D43"/>
<path d="M40.9935 53.1404L40.7805 53.1343L40.6803 53.1899V53.1404L40.6677 53.1343L40.649 53.1466L40.6364 53.1714V53.2146L40.5362 53.2703L40.3231 53.5238L40.2041 53.8143V53.9071L40.6364 53.6598V54.1667L40.5487 54.3213L40.4986 54.346L40.4109 54.2965V54.2223V54.21L40.3921 54.2038L40.3733 54.2162L40.3607 54.2409V54.2533V54.346L40.4798 54.4078L40.5675 54.3645L40.6803 54.1605V53.635L41.1126 53.3878V53.2888L40.9935 53.1404Z" fill="#995D43"/>
<path d="M41.6826 52.3182V53.9565L43.1174 53.1343V51.496L41.6826 52.312V52.3182ZM41.7453 53.8452V52.3553L43.0547 51.6072V53.1033L41.7453 53.8514V53.8452Z" fill="#995D43"/>
<path d="M44.8653 50.5068L43.4243 51.3291V52.9674L44.8653 52.1451V50.5068ZM43.4932 52.8561V51.36L44.8027 50.6119V52.1018L43.4932 52.8499V52.8561Z" fill="#995D43"/>
<path d="M41.9771 52.9982L42.0835 53.0601L42.1337 53.0292V53.4619L42.0835 53.4928L41.9771 53.5917V53.5979L42.3404 53.3939V53.3877L42.2339 53.4063L42.1838 53.4372V53.0044L42.2339 52.9735L42.3404 52.7942V52.2255L41.9771 52.4295V52.9982Z" fill="#995D43"/>
<path d="M42.4722 52.72L42.5724 52.7757L42.6225 52.751V53.1837L42.5724 53.2085L42.4722 53.3074L42.8293 53.1095L42.7228 53.1219L42.6726 53.1528V52.72L42.7228 52.6953L42.8293 52.516V51.9473L42.4722 52.1513V52.72ZM42.5035 52.1698L42.798 52.0029V52.5099L42.704 52.6768L42.5787 52.7448L42.5035 52.7077V52.176V52.1698Z" fill="#995D43"/>
<path d="M44.3959 51.2302L44.4272 51.1808L44.4084 51.1746L44.3896 51.2178L44.352 51.2364L44.3332 51.224V51.1869L44.352 51.1437L44.3896 51.1251L44.4084 51.1375L44.4272 51.1189L44.3959 51.1066L44.352 51.1313L44.3145 51.1869V51.2364L44.352 51.2549L44.3959 51.2302Z" fill="#995D43"/>
<path d="M43.9316 51.8546L43.9629 51.8052L43.9504 51.799L43.9254 51.8361L43.894 51.8608L43.869 51.8484V51.8113L43.894 51.768L43.9254 51.7495L43.9504 51.768L43.9629 51.7495L43.9316 51.731L43.8878 51.7557L43.8564 51.8113V51.8608L43.8878 51.8793L43.9316 51.8546Z" fill="#995D43"/>
<path d="M44.2075 51.4713V51.1622L44.17 51.1375L44.1198 51.1684L44.0822 51.2302V51.6815L43.982 51.8546L43.8379 51.935V51.9597L43.9883 51.8731L44.0822 51.7186V52.0648L44.007 52.1946V52.3245L44.0885 52.3739L44.2013 52.3059L44.2827 52.1699V52.0401L44.2075 51.9906V51.5022L44.3015 51.3291L44.4519 51.2487V51.224L44.2952 51.3106L44.2075 51.4713ZM44.1887 51.5022L44.101 51.6506V51.2302L44.1261 51.1869L44.1574 51.1622L44.1825 51.1745V51.496L44.1887 51.5022Z" fill="#995D43"/>
<path d="M38.907 39.5087L43.0547 41.8703L43.1862 42.3772L44.0634 42.4452L48.2047 44.8069L39.2454 49.9196L29.9414 44.6214L38.907 39.5087Z" fill="#F7E6BB"/>
<path d="M35.0923 47.5517L34.7164 47.6383L34.0898 46.9891L43.0555 41.8702L44.0642 42.4452L35.0923 47.5517Z" fill="#B88F5A"/>
<path d="M35.0923 49.0107L34.0898 48.442V46.9891L35.0923 47.5517V49.0107Z" fill="#A16739"/>
<path opacity="0.3" d="M54.3825 35.521L63.9997 40.9985L54.7271 46.2905L45.1099 40.813L54.3825 35.521Z" fill="black"/>
<path d="M54.7205 40.0588L45.4229 34.7544V40.8439L54.7205 46.1483V40.0588Z" fill="#EFC58B"/>
<path d="M63.6868 41.0355L54.7212 46.1483V40.0588L63.6868 34.946V41.0355Z" fill="#C79D5C"/>
<path d="M55.4229 43.4466V45.0849L56.8576 44.2627V42.6244L55.4229 43.4466ZM55.4855 44.9737V43.4775L56.795 42.7295V44.2194L55.4855 44.9675V44.9737Z" fill="#995D43"/>
<path d="M56.4754 43.2735L56.2624 43.2673L56.1621 43.323V43.2797L56.1496 43.2673L56.1308 43.2797L56.1182 43.3044V43.3539L56.018 43.4095L55.805 43.6568L55.6797 43.9474V44.0401L56.1182 43.7928V44.2998L56.0305 44.4543L55.9804 44.479L55.8927 44.4296V44.3554V44.3616V44.343L55.8739 44.3369L55.8551 44.3492L55.8426 44.374V44.3863V44.479L55.9616 44.5471L56.0493 44.4976L56.1621 44.2998V43.7681L56.5944 43.5208V43.4281L56.4754 43.2735Z" fill="#995D43"/>
<path d="M57.1646 42.4513V44.0896L58.6056 43.2673V41.629L57.1646 42.4451V42.4513ZM57.2335 43.9783V42.4822L58.5429 41.7341V43.224L57.2335 43.9721V43.9783Z" fill="#995D43"/>
<path d="M60.341 40.6399L58.9062 41.4621V43.1004L60.341 42.2844V40.6461V40.6399ZM58.9689 42.9891V41.4992L60.2784 40.7512V42.2473L58.9689 42.9953V42.9891Z" fill="#995D43"/>
<path d="M57.459 43.1313L57.5592 43.1932L57.6156 43.1684V43.595L57.5592 43.6259L57.459 43.7248V43.731L57.8161 43.527V43.5208L57.7159 43.5394L57.6657 43.5703V43.1375L57.7159 43.1066L57.8161 42.9273V42.3647L57.459 42.5688V43.1313Z" fill="#995D43"/>
<path d="M57.9541 42.8531L58.0606 42.9088L58.1107 42.884V43.3168L58.0606 43.3415L57.9541 43.4404L58.3112 43.2426L58.2047 43.255L58.1546 43.2859V42.8531L58.2047 42.8284L58.3112 42.6491V42.0803L57.9541 42.2843V42.8531ZM57.9854 42.3029L58.2799 42.136V42.6367L58.1796 42.8037L58.0543 42.8717L57.9791 42.8346V42.3029H57.9854Z" fill="#995D43"/>
<path d="M59.8711 41.3633L59.9024 41.3138L59.8899 41.3076L59.8711 41.3509L59.8398 41.3694L59.8084 41.3571V41.32L59.8398 41.2767L59.8711 41.2582L59.8899 41.2767L59.9024 41.2582L59.8711 41.2396L59.8272 41.2644L59.7959 41.32V41.3694L59.8272 41.388L59.8711 41.3633Z" fill="#995D43"/>
<path d="M59.4145 41.9876L59.4395 41.9382L59.4333 41.932L59.4082 41.9753L59.3706 41.9938L59.3518 41.9815V41.9444L59.3706 41.9073L59.4082 41.8887L59.4333 41.9011L59.4395 41.8826L59.4145 41.864L59.3706 41.8949L59.333 41.9444V41.9938L59.3706 42.0124L59.4145 41.9876Z" fill="#995D43"/>
<path d="M59.6895 41.6044V41.2953L59.6519 41.2767L59.6018 41.3076L59.5642 41.3695V41.8208L59.4639 41.9877L59.3198 42.0681V42.0928L59.4702 42.0062L59.5642 41.8517V42.1979L59.489 42.3277V42.4575L59.5704 42.507L59.6832 42.439L59.7647 42.303V42.1732L59.6895 42.1299V41.6415L59.7897 41.4684L59.9338 41.388V41.3633L59.7835 41.4498L59.6895 41.6106V41.6044ZM59.6707 41.6353L59.583 41.7837V41.3633L59.608 41.32L59.6393 41.3015L59.6644 41.3138V41.6353H59.6707Z" fill="#995D43"/>
<path d="M54.3885 29.6417L58.5361 32.0095L58.6677 32.5103L59.5386 32.5783L63.6862 34.9461L54.7205 40.0588L45.4229 34.7545L54.3885 29.6417Z" fill="#F7E6BB"/>
<path d="M50.5675 37.691L50.1915 37.7714L49.5713 37.1222L58.5369 32.0095L59.5394 32.5783L50.5675 37.691Z" fill="#B88F5A"/>
<path d="M50.5675 39.1438L49.5713 38.575V37.1222L50.5675 37.691V39.1438Z" fill="#A16739"/>
</svg>
