<svg width="64" height="64" viewBox="0 0 64 64" fill="none" xmlns="http://www.w3.org/2000/svg">
<path d="M62.9002 34.3127L30.7139 53.4327C29.2415 54.3054 26.8231 54.3054 25.3436 53.4327L1.11683 39.1345C0.36997 38.6909 0.000100656 38.1163 0.000100656 37.5345V39.7672C-0.00701232 40.3491 0.362861 40.9309 1.10972 41.3672L25.3365 55.6654C26.816 56.5381 29.2344 56.5381 30.7068 55.6654L62.893 36.5454C63.6257 36.109 63.9884 35.5418 63.9884 34.9672V32.7345C63.9884 33.309 63.6257 33.8836 62.893 34.3127H62.9002Z" fill="#D51E18"/>
<path d="M62.8856 31.1273C64.3651 32 64.3722 33.4327 62.8998 34.3127L30.7136 53.4327C29.2412 54.3055 26.8228 54.3055 25.3433 53.4327L1.11653 39.1346C-0.362972 38.2618 -0.370088 36.8291 1.1023 35.9491L33.2885 16.8291C34.7609 15.9564 37.1793 15.9564 38.6588 16.8291L62.8856 31.1273Z" fill="#F25757"/>
<path d="M44.6551 21.7819L44.648 23.9491L43.7944 24.4509L43.8016 22.2837L44.6551 21.7819Z" fill="#8D8D8D"/>
<path d="M43.8016 22.2837V24.451C43.6451 24.5382 43.5669 24.6619 43.5669 24.7782V22.611C43.5669 22.4946 43.6523 22.371 43.8016 22.2837Z" fill="#BDBDBD"/>
<path d="M31.5173 21.4473L31.5102 23.6145L29.5186 24.7927L29.5257 22.6254L31.5173 21.4473Z" fill="#8D8D8D"/>
<path d="M51.9529 22.829V24.9963C51.9529 24.8509 51.8533 24.6981 51.6612 24.589C51.2842 24.3636 50.6654 24.3636 50.2884 24.589C50.0964 24.6981 50.0039 24.8509 50.0039 24.9963V22.829C50.0039 22.6836 50.1035 22.5381 50.2955 22.4218C50.6725 22.1963 51.2914 22.1963 51.6683 22.4218C51.8604 22.5381 51.9529 22.6836 51.9529 22.829Z" fill="#BA7F27"/>
<path d="M43.8087 22.9527V25.12C43.6451 25.0254 43.5669 24.9091 43.5669 24.7854V22.6182C43.5669 22.7418 43.6522 22.8582 43.8087 22.9527Z" fill="#BA7F27"/>
<path d="M27.5698 23.7964L27.5627 25.9564L25.5781 27.1346L25.5852 24.9746L27.5698 23.7964Z" fill="#8D8D8D"/>
<path d="M53.6957 26C53.7384 25.9128 53.7668 25.8182 53.7739 25.7237V23.5564C53.7739 23.7964 53.6317 24.0364 53.3329 24.2109C52.9844 24.4219 52.6714 24.6037 52.458 24.7273V26.8946C52.5434 26.8437 52.6572 26.7709 52.7781 26.6982V28.7346L53.6032 28.24C53.7597 28.1455 53.8379 28.0291 53.8379 27.9055V25.7382C53.8379 25.8255 53.7881 25.9128 53.7028 25.9928L53.6957 26Z" fill="#895D1A"/>
<path d="M52.7781 26.5746L52.771 28.7419L51.9175 29.2437L51.9246 27.0837L52.7781 26.5746Z" fill="#895D1A"/>
<path d="M50.8009 27.0837L50.7938 29.2437L43.8018 25.12L43.8089 22.9528L50.8009 27.0837Z" fill="#8B5D1A"/>
<path d="M51.9249 27.0836V29.2509C51.6119 29.4327 51.1069 29.4327 50.7939 29.2509V27.0836C51.1069 27.2654 51.619 27.2654 51.9249 27.0836Z" fill="#BA7F27"/>
<path d="M53.6101 25.4109C53.9231 25.5927 53.9231 25.8909 53.6101 26.08L52.7779 26.5746L51.9244 27.0836C51.6185 27.2655 51.1064 27.2655 50.8005 27.0836L43.8085 22.9527C43.4955 22.7709 43.4955 22.4727 43.8085 22.2836L44.662 21.7746L45.4943 21.28C45.8072 21.0909 46.3122 21.0909 46.6252 21.28L47.7775 21.9564C47.9838 21.8327 48.2968 21.6436 48.6524 21.44C49.2855 21.0618 50.3666 21.0909 51.0637 21.4982L53.2403 22.7855C53.9373 23.2 53.98 23.84 53.347 24.2182C52.9984 24.4291 52.6855 24.6109 52.4721 24.7345L53.6244 25.4109H53.6101ZM50.2955 23.2364C50.6796 23.4618 51.2913 23.4618 51.6754 23.2364C52.0524 23.0109 52.0524 22.6473 51.6754 22.4218C51.2984 22.1964 50.6796 22.1964 50.3026 22.4218C49.9256 22.6473 49.9256 23.0109 50.3026 23.2364H50.2955Z" fill="#FFBD00"/>
<path d="M23.6149 26.1382L23.6078 28.3055L21.6304 29.4836L21.6375 27.3164L23.6149 26.1382Z" fill="#8D8D8D"/>
<path d="M19.4611 28.611V30.771L17.4766 31.9492L17.4837 29.7892L19.4611 28.611Z" fill="#8D8D8D"/>
<path d="M15.5204 30.9528L15.5133 33.12L13.5288 34.2982V32.1309L15.5204 30.9528Z" fill="#8D8D8D"/>
<path d="M53.3827 34.3564L53.3755 36.5236L31.5103 23.6145L31.5174 21.4473L53.3827 34.3564Z" fill="#8D8D8D"/>
<path d="M51.3909 35.5346L51.3838 37.7018L29.5186 24.7928L29.5257 22.6255L51.3909 35.5346Z" fill="#6C6C6D"/>
<path d="M53.3825 34.3563L53.3754 36.5236L51.3838 37.7018L51.3909 35.5345L53.3825 34.3563Z" fill="#6B6B6D"/>
<path d="M49.4349 36.7055L49.4278 38.8655L27.5625 25.9564L27.5696 23.7964L49.4349 36.7055Z" fill="#8D8D8D"/>
<path d="M49.4348 36.7055L47.4503 37.8837L25.585 24.9746L27.5695 23.7964L49.4348 36.7055Z" fill="#C5C5C8"/>
<path d="M49.4355 36.7054L49.4284 38.8654L47.4438 40.0436L47.451 37.8836L49.4355 36.7054Z" fill="#6B6B6D"/>
<path d="M47.4505 37.8837L47.4434 40.0437L25.5781 27.1346L25.5852 24.9746L47.4505 37.8837Z" fill="#6C6C6D"/>
<path d="M45.4803 39.0473V41.2145L23.6079 28.3055L23.615 26.1382L45.4803 39.0473Z" fill="#8D8D8D"/>
<path d="M45.4801 39.0472V41.2145L43.4956 42.3927L43.5027 40.2254L45.4801 39.0472Z" fill="#6B6B6D"/>
<path d="M43.5028 40.2255L43.4957 42.3928L21.6304 29.4837L21.6375 27.3164L43.5028 40.2255Z" fill="#6C6C6D"/>
<path d="M41.3333 41.5128L41.3262 43.6801L19.4609 30.771V28.611L41.3333 41.5128Z" fill="#8D8D8D"/>
<path d="M41.3334 41.5127L41.3263 43.68L39.3418 44.8582L39.3489 42.6909L41.3334 41.5127Z" fill="#6B6B6D"/>
<path d="M39.349 42.6909L39.3418 44.8582L17.4766 31.9491L17.4837 29.7891L39.349 42.6909Z" fill="#6C6C6D"/>
<path d="M37.3856 43.8619L37.3785 46.0219L15.5132 33.12L15.5203 30.9528L37.3856 43.8619Z" fill="#8D8D8D"/>
<path d="M35.4012 45.0399L35.3941 47.2072L13.5288 34.2981V32.1309L35.4012 45.0399Z" fill="#6C6C6D"/>
<path d="M37.3857 43.8618L37.3786 46.0218L35.394 47.2073L35.4012 45.04L37.3857 43.8618Z" fill="#6B6B6D"/>
<path d="M52.7781 26.5746L61.2425 31.5709L34.9387 47.2L28.0036 43.1055L21.1182 47.2L3.00146 36.5018L36.1977 16.7782L44.6622 21.7746L43.8086 22.2836C43.5027 22.4655 43.5027 22.7636 43.8086 22.9527L50.8007 27.0837C51.1136 27.2655 51.6186 27.2655 51.9245 27.0837L52.7781 26.5746ZM35.4011 45.04L37.3927 43.8618L15.5274 30.9527L13.5358 32.1309L35.4011 45.04ZM51.3981 35.5346L53.3898 34.3564L31.5245 21.4473L29.5329 22.6255L51.3981 35.5346ZM47.4576 37.8764L49.4421 36.6982L27.5768 23.7891L25.5923 24.9673L47.4576 37.8764ZM43.5099 40.2255L45.4944 39.0473L23.6291 26.1382L21.6446 27.3164L43.5099 40.2255ZM39.3559 42.6909L41.3404 41.5127L19.4751 28.6036L17.4906 29.7818L39.3559 42.6909Z" fill="#FEFEFE"/>
<path d="M53.3828 34.3564L51.3912 35.5345L29.5259 22.6254L31.5175 21.4473L53.3828 34.3564Z" fill="#C5C5C8"/>
<path d="M45.4804 39.0473L43.503 40.2255L21.6377 27.3164L23.6151 26.1382L45.4804 39.0473Z" fill="#C5C5C8"/>
<path d="M41.3337 41.5128L39.3492 42.691L17.4839 29.7892L19.4613 28.611L41.3337 41.5128Z" fill="#C5C5C8"/>
<path d="M37.3857 43.8619L35.4012 45.04L13.5288 32.1309L15.5204 30.9528L37.3857 43.8619Z" fill="#C5C5C8"/>
<path d="M34.9388 47.2L34.9317 49.3673L27.9966 45.2727L28.0037 43.1055L34.9388 47.2Z" fill="#8D8D8D"/>
<path d="M28.0038 43.1055L27.9967 45.2727L21.1113 49.3673L21.1184 47.2L28.0038 43.1055Z" fill="#8D8D8D"/>
<path d="M34.9387 47.2H21.1182L28.0035 43.1055L34.9387 47.2Z" fill="#E3E3E3"/>
<path d="M61.2428 31.5709L34.939 47.2H21.1185L21.1114 49.36L21.1185 47.2L2.99463 36.5091V38.6691L21.1114 49.3673H34.9319L61.2357 33.7382L61.2428 31.5709Z" fill="#8D8D8D"/>
<path d="M46.2134 15.1927L45.9502 32.5018L32.6489 40.16L32.9121 22.8437L46.2134 15.1927Z" fill="#B98347"/>
<path d="M32.9121 22.8437L32.649 40.16L19.2837 32L19.5469 14.6909L32.9121 22.8437Z" fill="#E0B171"/>
<path d="M20.6143 31.5417V31.8399L22.7908 33.1272V32.829L20.6143 31.5417Z" fill="#553819"/>
<path d="M21.0338 31.6218L21.2828 31.7672V30.2036L21.5246 30.3418L21.1547 29.4763L20.792 29.9127L21.0338 30.0581V31.6218Z" fill="#553819"/>
<path d="M22.1293 32.2691L22.3712 32.4146V30.8437L22.6201 30.9891L22.2502 30.1237L21.8804 30.56L22.1293 30.6982V32.2691Z" fill="#553819"/>
<path d="M22.7765 33.6291L20.6355 32.3637C20.223 32.1237 19.8887 31.5782 19.8887 31.1564V28.9673C19.8887 28.5455 20.223 28.4 20.6355 28.6473L22.7765 29.9127C23.1891 30.1527 23.5234 30.6982 23.5234 31.12V33.3091C23.5234 33.7309 23.1891 33.8764 22.7765 33.6291ZM20.6355 28.8C20.3083 28.6037 20.038 28.72 20.038 29.0618V31.2509C20.038 31.5855 20.3083 32.0218 20.6355 32.2182L22.7765 33.4837C23.1037 33.68 23.374 33.5637 23.374 33.2218V31.0327C23.374 30.6982 23.1037 30.2618 22.7765 30.0655L20.6355 28.8Z" fill="#553819"/>
<path d="M27.2929 34.3055C27.2929 34.3055 27.2787 34.2909 27.2787 34.2836C27.2787 34.2327 27.0937 34.0727 26.8306 33.92C26.5674 33.7673 26.3824 33.7091 26.3824 33.76C26.3824 33.76 26.3824 33.7673 26.3682 33.76C26.3682 33.76 26.354 33.7455 26.354 33.7382C26.354 33.6945 26.2046 33.5564 25.9841 33.4182V34.7709C25.9557 34.9164 25.8205 34.9382 25.664 34.8436C25.4933 34.7418 25.3511 34.5164 25.3511 34.3491C25.3511 34.3055 25.3795 34.2909 25.4222 34.3127C25.4577 34.3346 25.4933 34.3855 25.4933 34.4291C25.4933 34.5164 25.5716 34.6327 25.6711 34.6909C25.8632 34.8 25.8419 34.5673 25.8419 34.5673V33.3309C25.6214 33.2073 25.4649 33.1636 25.4649 33.2073C25.4649 33.2073 25.4649 33.2146 25.4506 33.2073C25.4506 33.2073 25.4364 33.1927 25.4364 33.1855C25.4364 33.1346 25.2515 32.9746 24.9883 32.8218C24.7251 32.6691 24.5402 32.6109 24.5402 32.6618C24.5402 32.6618 24.5402 32.6691 24.5259 32.6618C24.5259 32.6618 24.5117 32.6473 24.5117 32.64C24.5331 32.0946 25.1021 31.8836 25.7992 32.24C25.7992 32.2036 25.8418 32.1964 25.8987 32.2327C25.9557 32.2691 25.9983 32.32 25.9983 32.3636C26.6954 32.8218 27.2644 33.7164 27.2858 34.2836C27.2858 34.2836 27.2858 34.2909 27.2716 34.2836L27.2929 34.3055Z" fill="#553819"/>
<path d="M26.987 36.1164L24.846 34.851C24.4334 34.6037 24.0991 34.0655 24.0991 33.6437V31.4546C24.0991 31.0328 24.4334 30.8873 24.846 31.1346L26.987 32.4001C27.3995 32.6401 27.7339 33.1855 27.7339 33.6073V35.7964C27.7339 36.2182 27.3995 36.3637 26.987 36.1164ZM24.846 31.2873C24.5188 31.091 24.2485 31.2073 24.2485 31.5491V33.7382C24.2485 34.0728 24.5188 34.5091 24.846 34.7055L26.987 35.971C27.3142 36.1673 27.5845 36.051 27.5845 35.7091V33.52C27.5845 33.1855 27.3142 32.7491 26.987 32.5528L24.846 31.2873Z" fill="#553819"/>
<path d="M30.6995 35.9128C30.6924 36.2546 30.4648 36.4 30.1803 36.2618V37.3455L30.5502 37.5637V37.7018L29.725 37.2146V37.0764L30.0949 37.2946V36.2109C29.8104 36.0146 29.5828 35.6 29.5757 35.2509V34.4509L30.7066 35.12V35.92L30.6995 35.9128Z" fill="#553819"/>
<path d="M31.1979 38.6109L29.0569 37.3455C28.6444 37.0982 28.3101 36.56 28.3101 36.1382V33.9491C28.3101 33.5273 28.6444 33.3818 29.0569 33.6291L31.1979 34.8945C31.6105 35.1418 31.9448 35.68 31.9448 36.1018V38.2909C31.9448 38.7127 31.6105 38.8582 31.1979 38.6182V38.6109ZM29.0569 33.7818C28.7297 33.5855 28.4594 33.7018 28.4594 34.0436V36.2327C28.4594 36.5673 28.7297 37.0036 29.0569 37.2L31.1979 38.4655C31.5251 38.6618 31.7954 38.5455 31.7954 38.2036V36.0146C31.7954 35.68 31.5251 35.2436 31.1979 35.0473L29.0569 33.7818Z" fill="#553819"/>
<path d="M46.2134 15.1928L32.9122 22.8437L19.5469 14.6909L32.841 7.04004L46.2134 15.1928Z" fill="#F0CC8C"/>
<path d="M27.6626 10.0145L24.917 11.6L38.2894 19.7527L41.035 18.1672L27.6626 10.0145Z" fill="#F8ECEA"/>
<path d="M38.2895 19.7528L41.0351 18.1674L40.9995 20.9819L38.2539 22.5528L38.2895 19.7528Z" fill="#C0A899"/>
</svg>
