<svg width="64" height="64" viewBox="0 0 64 64" fill="none" xmlns="http://www.w3.org/2000/svg">
<path d="M47.1509 44.5943L49.1348 43.6052L49.234 13.6957L47.2501 14.6848L47.1509 44.5943Z" fill="#001F33"/>
<path d="M47.2499 14.6843L49.2339 13.6954L45.0676 11.6387L43.0767 12.6276L47.2499 14.6843Z" fill="#003553"/>
<path d="M43.0767 12.6277L42.9775 42.5312L47.1508 44.5943L47.25 14.6848L43.0767 12.6277Z" fill="#003B5B"/>
<path d="M54.5405 18.3013L56.5244 17.3122L56.5528 9.15063L54.5689 10.1397L54.5405 18.3013Z" fill="#001F33"/>
<path d="M54.5693 10.1398L56.5532 9.15066L38.0603 0L36.0693 0.989095L54.5693 10.1398Z" fill="#003553"/>
<path d="M36.0693 0.989136L36.041 9.15677L54.5409 18.3014L54.5693 10.1398L36.0693 0.989136Z" fill="#003B5B"/>
<path d="M47.3137 13.2528L37.543 8.41658L37.5571 3.2041L47.3137 8.03429V13.2528Z" fill="#F2FAFD"/>
<path d="M51.7068 9.79382L51.6997 11.6867L53.6269 12.6393L53.634 10.7463L51.7068 9.79382Z" fill="#2B94DB"/>
<path d="M49.4182 8.68945L49.4111 10.5824L51.3384 11.5349L51.3454 9.64198L49.4182 8.68945Z" fill="#2B94DB"/>
<path d="M51.7068 12.0634L51.6997 13.9563L53.6269 14.9088L53.634 13.0098L51.7068 12.0634Z" fill="#EA3017"/>
<path d="M49.4182 10.959L49.4111 12.8519L51.3384 13.8044L51.3454 11.9115L49.4182 10.959Z" fill="#2B94DB"/>
<path d="M7.79883 47.8167L7.81299 51.0873L32.9448 63.5937L32.9378 60.323L7.79883 47.8167Z" fill="#002439"/>
<path d="M32.938 60.3229L32.9451 63.5936L59.664 50.3894L59.6499 47.1127L32.938 60.3229Z" fill="#002236"/>
<path d="M7.79883 47.8165L32.9378 60.3228L59.6496 47.1126L34.5107 34.6063L7.79883 47.8165Z" fill="#00486D"/>
<path d="M38.9107 60.256L38.9036 61.7063L34.291 64L34.2981 62.5497L38.9107 60.256Z" fill="#803F1D"/>
<path d="M34.2979 62.5496L34.2908 63.9999L3.2002 48.6234V47.1792L34.2979 62.5496Z" fill="#693317"/>
<path d="M38.9105 60.2559L34.2979 62.5496L3.2002 47.1792L7.81985 44.8794L38.9105 60.2559Z" fill="#A05027"/>
<path d="M50.6294 54.7158L50.6224 56.1661L46.0098 58.4598V57.0156L50.6294 54.7158Z" fill="#803F1D"/>
<path d="M46.0098 57.0155V58.4598L14.9121 43.0832L14.9192 41.639L46.0098 57.0155Z" fill="#693317"/>
<path d="M50.6293 54.7158L46.0096 57.0156L14.9189 41.6391L19.5315 39.3453L50.6293 54.7158Z" fill="#A05027"/>
<path d="M60.627 49.4185L60.6199 50.8687L56.0073 53.1625V51.7122L60.627 49.4185Z" fill="#803F1D"/>
<path d="M56.0074 51.7121V53.1624L24.9097 37.7859L24.9168 36.3417L56.0074 51.7121Z" fill="#693317"/>
<path d="M60.6273 49.4184L56.0076 51.7121L24.917 36.3417L29.5296 34.0419L60.6273 49.4184Z" fill="#A05027"/>
<path d="M5.52393 50.5652V52.0155L10.1365 54.3092V52.865L5.52393 50.5652Z" fill="#803F1D"/>
<path d="M10.1362 52.865V54.3092L41.234 38.9388L41.2269 37.4885L10.1362 52.865Z" fill="#693317"/>
<path d="M5.52393 50.5653L10.1365 52.8651L41.2271 37.4886L36.6146 35.1948L5.52393 50.5653Z" fill="#B55B2D"/>
<path d="M18.2847 57.1067V58.5509L22.9043 60.8507L22.8973 59.4004L18.2847 57.1067Z" fill="#803F1D"/>
<path d="M22.897 59.4003L22.9041 60.8506L53.9947 45.4741L53.9876 44.0299L22.897 59.4003Z" fill="#693317"/>
<path d="M18.2847 57.1066L22.8973 59.4003L53.9879 44.0299L49.3753 41.7301L18.2847 57.1066Z" fill="#B55B2D"/>
<path d="M14.0801 28.8894L14.4545 49.5515L33.4037 58.6835L33.0212 38.0214L14.0801 28.8894Z" fill="#B98347"/>
<path d="M33.021 38.0213L33.4036 58.6834L52.4504 48.9519L52.076 28.2898L33.021 38.0213Z" fill="#E0B171"/>
<path d="M50.5542 48.4081V48.7566L47.4448 50.2899V49.9414L50.5542 48.4081Z" fill="#553819"/>
<path d="M49.9521 48.4984L49.6103 48.6726V46.8047L49.2603 46.972L49.7812 45.9404L50.3021 46.4562L49.9521 46.6304V48.4984Z" fill="#553819"/>
<path d="M48.3973 49.2719L48.0473 49.4462V47.5713L47.6973 47.7455L48.2182 46.707L48.7473 47.2298L48.3973 47.397V49.2719Z" fill="#553819"/>
<path d="M46.4111 50.5134V47.8992C46.4111 47.3973 46.8914 46.749 47.4774 46.4562L50.5298 44.9505C51.1159 44.6577 51.5961 44.832 51.5961 45.3339V47.948C51.5961 48.45 51.1159 49.0983 50.5298 49.391L47.4774 50.8968C46.8914 51.1896 46.4111 51.0153 46.4111 50.5134ZM47.4774 46.6445C47.0053 46.8745 46.6228 47.3904 46.6228 47.7947V50.4088C46.6228 50.8131 47.0053 50.9525 47.4774 50.7155L50.5298 49.2098C51.0019 48.9798 51.3845 48.4639 51.3845 48.0596V45.4455C51.3845 45.0411 51.0019 44.9017 50.5298 45.1387L47.4774 46.6445Z" fill="#553819"/>
<path d="M41.0384 51.7049C41.0384 51.7049 41.0547 51.691 41.0547 51.684C41.0547 51.6283 41.3152 51.4331 41.6896 51.2519C42.064 51.0637 42.3245 51.001 42.3245 51.0567C42.3245 51.0637 42.3245 51.0637 42.3408 51.0567C42.3489 51.0567 42.3571 51.0428 42.3571 51.0358C42.3571 50.987 42.5687 50.8198 42.8861 50.6525V52.2625C42.9268 52.4368 43.114 52.4646 43.3419 52.3531C43.5861 52.2277 43.7896 51.9628 43.7896 51.7607C43.7896 51.7049 43.7408 51.691 43.6919 51.7189C43.635 51.7468 43.5943 51.8095 43.5943 51.8652C43.5943 51.9698 43.4803 52.1092 43.3419 52.1719C43.0733 52.3043 43.0978 52.0256 43.0978 52.0256V50.5549C43.4152 50.4086 43.6268 50.3598 43.6268 50.4086C43.6268 50.4155 43.6268 50.4155 43.6431 50.4086C43.6513 50.4086 43.6594 50.3946 43.6594 50.3877C43.6594 50.3319 43.9199 50.1367 44.2943 49.9555C44.6687 49.7673 44.9292 49.7046 44.9292 49.7604C44.9292 49.7673 44.9292 49.7673 44.9455 49.7604C44.9536 49.7604 44.9617 49.7464 44.9617 49.7395C44.9292 49.0913 44.1152 48.8334 43.1303 49.2655C43.1303 49.2167 43.0652 49.2167 42.9838 49.2585C42.9024 49.3004 42.8373 49.3631 42.8373 49.4119C41.8442 49.9625 41.0303 51.0219 41.0059 51.698C41.0059 51.7049 41.0059 51.7049 41.0221 51.698L41.0384 51.7049Z" fill="#553819"/>
<path d="M40.4033 53.483V50.8689C40.4033 50.3669 40.8836 49.7186 41.4696 49.4259L44.522 47.9201C45.1081 47.6273 45.5883 47.8016 45.5883 48.3035V50.9176C45.5883 51.4196 45.1081 52.0679 44.522 52.3607L41.4696 53.8664C40.8836 54.1592 40.4033 53.9849 40.4033 53.483ZM41.4696 49.6141C40.9975 49.8441 40.615 50.36 40.615 50.7643V53.3784C40.615 53.7827 40.9975 53.9222 41.4696 53.6851L44.522 52.1794C44.9941 51.9494 45.3767 51.4335 45.3767 51.0292V48.4151C45.3767 48.0107 44.9941 47.8713 44.522 48.1083L41.4696 49.6141Z" fill="#553819"/>
<path d="M36.187 53.6221C36.2033 54.0264 36.5207 54.2076 36.9277 54.0333V55.3228L36.4068 55.5806V55.7479L37.587 55.1624V54.9952L37.0661 55.2531V53.9636C37.4731 53.7336 37.7987 53.2388 37.8068 52.8206V51.8657L36.1952 52.6603V53.6151L36.187 53.6221Z" fill="#553819"/>
<path d="M34.3965 56.4528V53.8387C34.3965 53.3368 34.8767 52.6885 35.4628 52.3957L38.5152 50.89C39.1012 50.5972 39.5815 50.7714 39.5815 51.2734V53.8875C39.5815 54.3894 39.1012 55.0377 38.5152 55.3305L35.4628 56.8362C34.8767 57.129 34.3965 56.9547 34.3965 56.4528ZM35.4628 52.5839C34.9907 52.814 34.6081 53.3298 34.6081 53.7341V56.3483C34.6081 56.7526 34.9907 56.892 35.4628 56.655L38.5152 55.1493C38.9873 54.9192 39.3698 54.4033 39.3698 53.999V51.3849C39.3698 50.9806 38.9873 50.8412 38.5152 51.0782L35.4628 52.5839Z" fill="#553819"/>
<path d="M14.0801 28.8893L33.0212 38.0213L52.0762 28.2898L33.1351 19.1577L14.0801 28.8893Z" fill="#F0CC8C"/>
<path d="M40.5015 22.7059L44.4248 24.602L25.3698 34.3336L21.4546 32.4375L40.5015 22.7059Z" fill="#F8ECEA"/>
<path d="M25.3617 34.3337L21.4546 32.4376L21.5034 35.8046L25.4186 37.6798L25.3617 34.3337Z" fill="#C0A899"/>
</svg>
