<svg width="80" height="64" viewBox="0 0 80 64" fill="none" xmlns="http://www.w3.org/2000/svg">
<g id="Distributor">
<g id="Group 19638">
<g id="Group">
<path id="Vector" d="M24.1499 5.52101V36.4281L28.8711 33.8788V2.97168L24.1499 5.52101Z" fill="#2672AB"/>
<path id="Vector_2" d="M24.1575 5.52088V36.428L22.9229 35.7767V4.88354L24.1575 5.52088Z" fill="#3F92D1"/>
<path id="Vector_3" d="M22.9229 4.8836L24.1575 5.52094L28.8709 2.97161L27.6208 2.32727L22.9229 4.8836Z" fill="#72B5E8"/>
</g>
<g id="Vector_4" style="mix-blend-mode:multiply" opacity="0.2">
<path d="M27.9781 13.365L26.4329 14.1775V7.19482H25.4545V14.6957L25.1128 14.8778V20.971L25.4545 20.7889V34.1449C25.4545 34.292 25.6719 34.404 25.9437 34.404C26.2154 34.404 26.4329 34.292 26.4329 34.1449V20.2707L27.9781 19.4582V13.365Z" fill="#92B4D1"/>
</g>
<path id="Vector_5" d="M27.3881 7.71301H26.4097V33.8436C26.4097 33.9907 26.6271 34.1028 26.8989 34.1028C27.1706 34.1028 27.3881 33.9907 27.3881 33.8436V7.71301Z" fill="#03336E"/>
<path id="Vector_6" opacity="0.2" d="M47.1499 38.8373L12.6494 56.7246L0.807617 50.5544L35.7973 32.4149C45.3251 27.4493 60.7312 27.4283 70.1968 32.3589L79.3442 36.9533L67.4247 43.1585L58.7588 38.8163C55.5673 37.1494 50.3647 37.1634 47.1499 38.8373Z" fill="#92B4D1"/>
<path id="Vector_7" d="M78.777 37.2824L70.1965 32.3239C60.7231 27.3933 45.3248 27.4143 35.797 32.3799L1.55273 50.9536V43.6488L35.797 25.0751C45.3248 20.1095 60.7308 20.0885 70.1965 25.019L78.777 29.9776V37.2824Z" fill="#A8CFF0"/>
<path id="Vector_8" d="M79.3364 29.6205L70.189 25.0261C60.7156 20.0955 45.3173 20.1166 35.7895 25.0822L0.799805 43.2216L1.52973 43.5998L35.7895 25.8385C45.3173 20.873 60.7233 20.8519 70.189 25.7825L78.7695 30.0337L79.3364 29.6205Z" fill="#D1EBFF"/>
<path id="Vector_9" d="M47.1499 33.4165L12.9057 51.1708L12.6494 52.1443L1.11822 46.1351L0.807617 45.1336L35.7973 26.9941C45.3251 22.0285 60.7312 22.0075 70.1968 26.9381L79.3442 31.5325L78.9559 33.0033L67.4247 39.0054L67.0442 37.5486L58.7588 33.3955C55.5673 31.7286 50.3647 31.7426 47.1499 33.4165Z" fill="#084C94"/>
<g id="Group_2">
<g id="Group_3">
<path id="Vector_10" opacity="0.5" d="M77.6821 31.1963L65.7471 37.4085L66.0654 37.5766L78.0005 31.3574L77.6821 31.1963Z" fill="#03336E"/>
<path id="Vector_11" opacity="0.5" d="M73.9394 29.3264L62.0044 35.5387L62.315 35.7067L74.25 29.4945L73.9394 29.3264Z" fill="#03336E"/>
<path id="Vector_12" opacity="0.5" d="M70.1889 27.4564L58.2539 33.6757L58.5723 33.8368L70.5073 27.6245L70.1889 27.4564Z" fill="#03336E"/>
</g>
<g id="Group_4">
<path id="Vector_13" opacity="0.5" d="M35.5176 27.4984L47.3827 33.6756L47.7011 33.5075L35.836 27.3303L35.5176 27.4984Z" fill="#03336E"/>
<path id="Vector_14" opacity="0.5" d="M31.3545 29.6555L43.2119 35.8327L43.5302 35.6646L31.6729 29.4944L31.3545 29.6555Z" fill="#03336E"/>
<path id="Vector_15" opacity="0.5" d="M27.1929 31.8197L39.0502 37.9899L39.3686 37.8288L27.5112 31.6516L27.1929 31.8197Z" fill="#03336E"/>
<path id="Vector_16" opacity="0.5" d="M23.0229 33.9768L34.8881 40.154L35.1987 39.9859L23.3413 33.8087L23.0229 33.9768Z" fill="#03336E"/>
<path id="Vector_17" opacity="0.5" d="M18.8608 36.1339L30.7182 42.3111L31.0366 42.143L19.1792 35.9658L18.8608 36.1339Z" fill="#03336E"/>
<path id="Vector_18" opacity="0.5" d="M14.6914 38.2911L26.5565 44.4683L26.8749 44.3072L15.0098 38.13L14.6914 38.2911Z" fill="#03336E"/>
<path id="Vector_19" opacity="0.5" d="M10.5288 40.4552L22.3862 46.6324L22.7045 46.4643L10.8472 40.2871L10.5288 40.4552Z" fill="#03336E"/>
<path id="Vector_20" opacity="0.5" d="M6.3667 42.6123L18.2241 48.7895L18.5424 48.6214L6.67731 42.4442L6.3667 42.6123Z" fill="#03336E"/>
<path id="Vector_21" opacity="0.5" d="M2.19727 44.7694L14.0546 50.9466L14.373 50.7855L2.51563 44.6083L2.19727 44.7694Z" fill="#03336E"/>
</g>
<path id="Vector_22" opacity="0.5" d="M53.0046 23.7725L52.9502 32.534H53.4006L53.4549 23.7725H53.0046Z" fill="#03336E"/>
<path id="Vector_23" opacity="0.5" d="M46.4658 24.1857L50.7755 32.6391L51.2025 32.5831L46.9007 24.1227L46.4658 24.1857Z" fill="#03336E"/>
<path id="Vector_24" opacity="0.5" d="M40.479 25.5234L48.8421 33.0943L49.2303 32.9823L40.8673 25.4043L40.479 25.5234Z" fill="#03336E"/>
<path id="Vector_25" opacity="0.5" d="M59.1704 24.1997L54.7598 32.6671L55.1946 32.7232L59.5974 24.2557L59.1704 24.1997Z" fill="#03336E"/>
<path id="Vector_26" opacity="0.5" d="M64.8698 25.3693L56.4136 32.9682L56.8018 33.0803L65.2581 25.4813L64.8698 25.3693Z" fill="#03336E"/>
</g>
<path id="Vector_27" d="M0.799805 43.2216L1.52973 43.5998V50.9536L0.799805 50.5194V43.2216Z" fill="#72B5E8"/>
<path id="Vector_28" d="M79.3364 29.6205L78.7695 30.0337V37.3315L79.3364 36.9183V29.6205Z" fill="#72B5E8"/>
<path id="Vector_29" d="M47.1501 31.6306C50.3649 29.9567 55.5598 29.9497 58.759 31.6095L66.8192 36.2109V43.5298L58.759 39.1805C55.5675 37.5136 50.3649 37.5276 47.1501 39.2015L13.2476 56.9698L13.2709 49.8541L47.1501 31.6376V31.6306Z" fill="#A8CFF0"/>
<path id="Vector_30" d="M47.1494 32.3099C50.3642 30.636 55.5591 30.629 58.7583 32.2889L66.7331 36.274L67.4242 35.9518L58.7583 31.6025C55.5668 29.9357 50.3642 29.9497 47.1494 31.6235L12.6489 49.5109L13.2779 49.8331L47.1494 32.3029V32.3099Z" fill="#D1EBFF"/>
<path id="Vector_31" d="M13.2779 49.84V57.0047L12.6489 56.7036V49.5178L13.2779 49.84Z" fill="#72B5E8"/>
<path id="Vector_32" d="M67.4172 35.9587L66.7339 36.2739V43.5297L67.4172 43.2075V35.9587Z" fill="#72B5E8"/>
<g id="Group_5">
<path id="Vector_33" d="M26.1226 16.4747V22.5609L28.9879 21.0481V14.9619L26.1226 16.4747Z" fill="#03336E"/>
<path id="Vector_34" d="M26.1377 16.4746V22.5608L25.1826 22.0425V15.9703L26.1377 16.4746Z" fill="#084C94"/>
<path id="Vector_35" d="M25.1826 15.9704L26.1377 16.4747L28.9875 14.9619L28.0091 14.4436L25.1826 15.9704Z" fill="#2672AB"/>
</g>
<g id="Group_6">
<path id="Vector_36" d="M42.77 14.3666V16.8879L45.216 15.6202V13.0919L42.77 14.3666Z" fill="url(#paint0_linear_557_55215)"/>
<path id="Vector_37" d="M42.7777 14.3665V16.8878L25.3916 7.99319V5.47888L42.7777 14.3665Z" fill="#3F92D1"/>
<path id="Vector_38" d="M25.3916 5.47893L42.7777 14.3666L45.216 13.0919L27.8143 4.19727L25.3916 5.47893Z" fill="#72B5E8"/>
</g>
<g id="Group_7">
<path id="Vector_39" d="M35.3007 21.2162V21.6714L27.4424 17.6653V17.2101L35.3007 21.2162Z" fill="#084C94"/>
<path id="Vector_40" d="M35.3008 21.2161V21.6713L35.8055 21.3982V20.95L35.3008 21.2161Z" fill="#03336E"/>
<path id="Vector_41" d="M35.8054 20.95L35.3007 21.2161L27.4424 17.21L27.9471 16.9369L35.8054 20.95Z" fill="#2672AB"/>
</g>
<g id="Group_8">
<path id="Vector_42" d="M35.3007 23.7795V24.2348L27.4424 20.2287V19.7734L35.3007 23.7795Z" fill="#084C94"/>
<path id="Vector_43" d="M35.3008 23.7794V24.2347L35.8055 23.9615V23.5133L35.3008 23.7794Z" fill="#03336E"/>
<path id="Vector_44" d="M35.8054 23.5133L35.3007 23.7795L27.4424 19.7734L27.9471 19.5002L35.8054 23.5133Z" fill="#2672AB"/>
</g>
<g id="Group_9">
<path id="Vector_45" opacity="0.3" d="M33.0164 28.9851L41.3185 33.5935L33.3138 38.0459L25.0117 33.4375L33.0164 28.9851Z" fill="black"/>
<path id="Vector_46" d="M33.3085 32.8029L25.2822 28.3401V33.4634L33.3085 37.9262V32.8029Z" fill="#EFC58B"/>
<path id="Vector_47" d="M41.0482 33.6247L33.3086 37.9262V32.8029L41.0482 28.5013V33.6247Z" fill="#C79D5C"/>
<g id="Group_10">
<path id="Vector_48" d="M33.9146 35.6533V37.0317L35.1531 36.3399V34.9615L33.9146 35.6533ZM33.9686 36.9381V35.6793L35.099 35.05V36.3035L33.9686 36.9329V36.9381Z" fill="#995D43"/>
<path id="Vector_49" d="M34.8231 35.5076L34.6392 35.5024L34.5527 35.5493V35.5128L34.5419 35.5024L34.5256 35.5128L34.5148 35.5336V35.5753L34.4283 35.6221L34.2444 35.8301L34.1362 36.0746V36.1526L34.5148 35.9446V36.3711L34.4391 36.5011L34.3958 36.5219L34.3201 36.4803V36.4179V36.4231V36.4075L34.3039 36.4023L34.2877 36.4127L34.2768 36.4335V36.4439V36.5219L34.3796 36.5791L34.4553 36.5375L34.5527 36.3711V35.9238L34.9259 35.7157V35.6377L34.8231 35.5076Z" fill="#995D43"/>
<path id="Vector_50" d="M35.418 34.8159V36.1943L36.6619 35.5025V34.1241L35.418 34.8107V34.8159ZM35.4775 36.1007V34.8419L36.6078 34.2126V35.4661L35.4775 36.0955V36.1007Z" fill="#995D43"/>
<path id="Vector_51" d="M38.1599 33.2917L36.9214 33.9835V35.3619L38.1599 34.6753V33.297V33.2917ZM36.9755 35.2683V34.0147L38.1059 33.3854V34.6441L36.9755 35.2735V35.2683Z" fill="#995D43"/>
<path id="Vector_52" d="M35.6724 35.388L35.7589 35.44L35.8076 35.4192V35.7781L35.7589 35.8041L35.6724 35.8873V35.8925L35.9807 35.7209V35.7157L35.8941 35.7313L35.8508 35.7573V35.3932L35.8941 35.3672L35.9807 35.2164V34.743L35.6724 34.9147V35.388Z" fill="#995D43"/>
<path id="Vector_53" d="M36.0996 35.154L36.1915 35.2008L36.2348 35.18V35.5441L36.1915 35.5649L36.0996 35.6481L36.4079 35.4816L36.3159 35.4921L36.2727 35.5181V35.154L36.3159 35.1332L36.4079 34.9823V34.5038L36.0996 34.6754V35.154ZM36.1266 34.691L36.3808 34.5506V34.9719L36.2943 35.1124L36.1861 35.1696L36.1212 35.1384V34.691H36.1266Z" fill="#995D43"/>
<path id="Vector_54" d="M37.7549 33.9004L37.7819 33.8588L37.7711 33.8536L37.7549 33.89L37.7278 33.9056L37.7008 33.8952V33.864L37.7278 33.8276L37.7549 33.812L37.7711 33.8276L37.7819 33.812L37.7549 33.7964L37.717 33.8172L37.6899 33.864V33.9056L37.717 33.9212L37.7549 33.9004Z" fill="#995D43"/>
<path id="Vector_55" d="M37.3599 34.4258L37.3815 34.3842L37.3761 34.379L37.3545 34.4154L37.322 34.431L37.3058 34.4206V34.3894L37.322 34.3582L37.3545 34.3426L37.3761 34.353L37.3815 34.3374L37.3599 34.3218L37.322 34.3478L37.2896 34.3894V34.431L37.322 34.4466L37.3599 34.4258Z" fill="#995D43"/>
<path id="Vector_56" d="M37.5979 34.1032V33.8431L37.5655 33.8275L37.5222 33.8535L37.4897 33.9055V34.2852L37.4032 34.4257L37.2788 34.4933V34.5141L37.4086 34.4413L37.4897 34.3112V34.6025L37.4248 34.7118V34.821L37.4951 34.8626L37.5925 34.8054L37.6628 34.6909V34.5817L37.5979 34.5453V34.1344L37.6844 33.9888L37.8088 33.9211V33.9003L37.679 33.9732L37.5979 34.1084V34.1032ZM37.5817 34.1292L37.506 34.254V33.9003L37.5276 33.8639L37.5546 33.8483L37.5763 33.8587V34.1292H37.5817Z" fill="#995D43"/>
</g>
<path id="Vector_57" d="M33.0219 24.0386L36.6023 26.0307L36.7159 26.452L37.4677 26.5092L41.0481 28.5014L33.3085 32.8029L25.2822 28.3401L33.0219 24.0386Z" fill="#F7E6BB"/>
<g id="Group_11">
<path id="Vector_58" d="M29.7228 30.8108L29.3982 30.8784L28.8628 30.3323L36.6024 26.0308L37.4678 26.5093L29.7228 30.8108Z" fill="#B88F5A"/>
<path id="Vector_59" d="M29.7228 32.0331L28.8628 31.5546V30.3323L29.7228 30.8108V32.0331Z" fill="#A16739"/>
</g>
</g>
<g id="Group_12">
<path id="Vector_60" d="M37.6138 22.9042V27.7227L40.6732 26.0698V21.2583L37.6138 22.9042Z" fill="#72B5E8"/>
<path id="Vector_61" d="M37.6293 22.9042V27.7227L32.1782 24.8722V20.0747L37.6293 22.9042Z" fill="#A8CFF0"/>
<path id="Vector_62" d="M32.1782 20.0747L37.6293 22.9041L40.6733 21.2583L35.1989 18.4148L32.1782 20.0747Z" fill="#D1EBFF"/>
</g>
<g id="Group_13">
<path id="Vector_63" d="M45.8612 26.5949V27.0501L38.8726 23.4643V23.009L45.8612 26.5949Z" fill="#084C94"/>
<path id="Vector_64" d="M45.8613 26.5949V27.0501L46.3661 26.777V26.3287L45.8613 26.5949Z" fill="#03336E"/>
<path id="Vector_65" d="M46.3659 26.3288L45.8612 26.5949L38.8726 23.0091L39.3773 22.7429L46.3659 26.3288Z" fill="#2672AB"/>
</g>
<g id="Group_14">
<path id="Vector_66" d="M45.8612 29.1583V29.6135L38.8726 26.0276V25.5724L45.8612 29.1583Z" fill="#084C94"/>
<path id="Vector_67" d="M45.8613 29.1582V29.6135L46.3661 29.3403V28.8921L45.8613 29.1582Z" fill="#03336E"/>
<path id="Vector_68" d="M46.3659 28.8921L45.8612 29.1583L38.8726 25.5724L39.3773 25.3063L46.3659 28.8921Z" fill="#2672AB"/>
</g>
<g id="Group_15">
<path id="Vector_69" d="M43.019 15.1791V44.6785L47.7402 42.1362V12.6298L43.019 15.1791Z" fill="#2672AB"/>
<path id="Vector_70" d="M43.0266 15.1791V44.6785L41.792 44.0341V14.5417L43.0266 15.1791Z" fill="#3F92D1"/>
<path id="Vector_71" d="M41.792 14.5417L43.0266 15.179L47.7401 12.6297L46.4899 11.9854L41.792 14.5417Z" fill="#72B5E8"/>
<path id="Vector_72" d="M41.792 14.5416L43.0266 15.179L47.7401 12.6296L43.0266 14.9759L41.792 14.5416Z" fill="#A8CFF0"/>
</g>
<path id="Vector_73" d="M47.1578 26.1327L43.9741 27.7926V23.2823L47.1578 21.6294V26.1327Z" fill="#72B5E8"/>
<path id="Vector_74" d="M46.8317 23.3733V22.3228L44.2925 23.6464V24.704L46.8317 23.3733Z" fill="#03336E"/>
<path id="Vector_75" d="M46.9715 26.0207V21.7274L47.1578 21.6294V26.1327L43.9741 27.7926V27.5895L46.9715 26.0207Z" fill="#3F92D1"/>
<path id="Vector_76" d="M46.4821 31.9667L45.0767 32.6951V28.1007L46.4821 27.3864V31.9667Z" fill="#72B5E8"/>
<path id="Vector_77" d="M46.2958 31.8617V27.4774L46.4821 27.3864V31.9667L45.0767 32.6951V32.492L46.2958 31.8617Z" fill="#3F92D1"/>
<g id="Group_16">
<path id="Vector_78" d="M46.0552 24.6689C46.0552 24.5008 46.1872 24.2977 46.3502 24.2137C46.4357 24.1717 46.5055 24.1646 46.5599 24.1997L46.7152 24.2767L46.6609 24.3678C46.6609 24.3678 46.6609 24.3748 46.6609 24.3818C46.6609 24.5499 46.5288 24.753 46.3658 24.837C46.3658 24.837 46.3502 24.844 46.3425 24.844L46.2959 24.914L46.1639 24.851C46.094 24.83 46.0552 24.767 46.0552 24.6689Z" fill="#3F92D1"/>
<path id="Vector_79" d="M46.2031 24.739C46.2031 24.9071 46.3351 24.9771 46.4982 24.8931C46.6613 24.8091 46.7933 24.6059 46.7933 24.4379C46.7933 24.2698 46.6613 24.1997 46.4982 24.2838C46.3351 24.3678 46.2031 24.5709 46.2031 24.739Z" fill="#A8CFF0"/>
</g>
<g id="Group_17">
<path id="Vector_80" d="M45.1699 25.1382C45.1699 24.9701 45.3019 24.767 45.465 24.6829C45.5504 24.6409 45.6203 24.6339 45.6747 24.6689L45.83 24.7459L45.7756 24.837C45.7756 24.837 45.7756 24.844 45.7756 24.851C45.7756 25.0191 45.6436 25.2222 45.4805 25.3062C45.4805 25.3062 45.465 25.3132 45.4572 25.3202L45.4106 25.3903L45.2786 25.3273C45.2087 25.3062 45.1699 25.2432 45.1699 25.1452V25.1382Z" fill="#3F92D1"/>
<path id="Vector_81" d="M45.3174 25.2083C45.3174 25.3763 45.4494 25.4464 45.6125 25.3623C45.7755 25.2783 45.9075 25.0752 45.9075 24.9071C45.9075 24.739 45.7755 24.669 45.6125 24.753C45.4494 24.8371 45.3174 25.0402 45.3174 25.2083Z" fill="#A8CFF0"/>
</g>
<g id="Group_18">
<path id="Vector_82" d="M44.2925 25.5865C44.2925 25.4184 44.4245 25.2153 44.5876 25.1313C44.673 25.0893 44.7429 25.0823 44.7972 25.1173L44.9525 25.1943L44.8982 25.2854C44.8982 25.2854 44.8982 25.2924 44.8982 25.2994C44.8982 25.4675 44.7661 25.6706 44.6031 25.7546C44.6031 25.7546 44.5876 25.7616 44.5798 25.7616L44.5332 25.8316L44.4012 25.7686C44.3313 25.7476 44.2925 25.6846 44.2925 25.5865Z" fill="#3F92D1"/>
<path id="Vector_83" d="M44.4482 25.6566C44.4482 25.8247 44.5803 25.8947 44.7433 25.8107C44.9064 25.7267 45.0384 25.5236 45.0384 25.3555C45.0384 25.1874 44.9064 25.1173 44.7433 25.2014C44.5803 25.2854 44.4482 25.4885 44.4482 25.6566Z" fill="#A8CFF0"/>
</g>
<g id="Group_19">
<path id="Vector_84" d="M46.0552 25.6284C46.0552 25.4603 46.1872 25.2572 46.3502 25.1731C46.4357 25.1311 46.5055 25.1241 46.5599 25.1591L46.7152 25.2362L46.6609 25.3272C46.6609 25.3272 46.6609 25.3342 46.6609 25.3412C46.6609 25.5093 46.5288 25.7124 46.3658 25.7965C46.3658 25.7965 46.3502 25.8035 46.3425 25.8035L46.2959 25.8735L46.1639 25.8105C46.094 25.7895 46.0552 25.7264 46.0552 25.6284Z" fill="#3F92D1"/>
<path id="Vector_85" d="M46.2031 25.6985C46.2031 25.8666 46.3351 25.9366 46.4982 25.8526C46.6613 25.7685 46.7933 25.5654 46.7933 25.3973C46.7933 25.2292 46.6613 25.1592 46.4982 25.2433C46.3351 25.3273 46.2031 25.5304 46.2031 25.6985Z" fill="#A8CFF0"/>
</g>
<g id="Group_20">
<path id="Vector_86" d="M45.1699 26.0977C45.1699 25.9297 45.3019 25.7266 45.465 25.6425C45.5504 25.6005 45.6203 25.5935 45.6747 25.6285L45.83 25.7055L45.7756 25.7966C45.7756 25.7966 45.7756 25.8036 45.7756 25.8106C45.7756 25.9787 45.6436 26.1818 45.4805 26.2658C45.4805 26.2658 45.465 26.2728 45.4572 26.2798L45.4106 26.3499L45.2786 26.2868C45.2087 26.2658 45.1699 26.2028 45.1699 26.1047V26.0977Z" fill="#3F92D1"/>
<path id="Vector_87" d="M45.3174 26.1679C45.3174 26.3359 45.4494 26.406 45.6125 26.3219C45.7755 26.2379 45.9075 26.0348 45.9075 25.8667C45.9075 25.6986 45.7755 25.6286 45.6125 25.7126C45.4494 25.7967 45.3174 25.9998 45.3174 26.1679Z" fill="#A8CFF0"/>
</g>
<g id="Group_21">
<path id="Vector_88" d="M44.2925 26.546C44.2925 26.3779 44.4245 26.1748 44.5876 26.0908C44.673 26.0487 44.7429 26.0417 44.7972 26.0767L44.9525 26.1538L44.8982 26.2448C44.8982 26.2448 44.8982 26.2518 44.8982 26.2588C44.8982 26.4269 44.7661 26.63 44.6031 26.7141C44.6031 26.7141 44.5876 26.7211 44.5798 26.7211L44.5332 26.7911L44.4012 26.7281C44.3313 26.7071 44.2925 26.644 44.2925 26.546Z" fill="#3F92D1"/>
<path id="Vector_89" d="M44.4482 26.6231C44.4482 26.7911 44.5803 26.8612 44.7433 26.7771C44.9064 26.6931 45.0384 26.49 45.0384 26.3219C45.0384 26.1538 44.9064 26.0838 44.7433 26.1678C44.5803 26.2519 44.4482 26.455 44.4482 26.6231Z" fill="#A8CFF0"/>
</g>
<path id="Vector_90" d="M45.2163 29.4245C45.2163 29.2004 45.3871 28.9343 45.6046 28.8222C45.7133 28.7662 45.8142 28.7592 45.8841 28.8012L46.0938 28.8992L46.0161 29.0113C46.0161 29.0113 46.0161 29.0253 46.0161 29.0323C46.0161 29.2564 45.8453 29.5226 45.6279 29.6346C45.6201 29.6346 45.6046 29.6416 45.5968 29.6486L45.5347 29.7467L45.3638 29.6626C45.2784 29.6346 45.2163 29.5506 45.2163 29.4245Z" fill="#001A46"/>
<path id="Vector_91" d="M45.418 29.5226C45.418 29.7467 45.5888 29.8307 45.8062 29.7187C46.0159 29.6066 46.1945 29.3405 46.1945 29.1164C46.1945 28.8923 46.0236 28.8082 45.8062 28.9203C45.5966 29.0323 45.418 29.2985 45.418 29.5226Z" fill="#03336E"/>
<path id="Vector_92" d="M45.2163 30.8881C45.2163 30.664 45.3871 30.3979 45.6046 30.2858C45.7133 30.2298 45.8142 30.2228 45.8841 30.2648L46.0938 30.3629L46.0161 30.4819C46.0161 30.4819 46.0161 30.4959 46.0161 30.5029C46.0161 30.727 45.8453 30.9932 45.6279 31.1052C45.6201 31.1052 45.6046 31.1123 45.5968 31.1193L45.5347 31.2173L45.3638 31.1333C45.2784 31.1052 45.2163 31.0212 45.2163 30.8951V30.8881Z" fill="#001A46"/>
<path id="Vector_93" d="M45.418 30.9863C45.418 31.2104 45.5888 31.2945 45.8062 31.1824C46.0159 31.0704 46.1945 30.8042 46.1945 30.5801C46.1945 30.356 46.0236 30.272 45.8062 30.384C45.5966 30.4961 45.418 30.7622 45.418 30.9863Z" fill="#03336E"/>
<g id="Vector_94">
<path d="M14.1214 43.2448L13.9718 47.7829L7.81982 44.1102L7.96946 39.5721L14.1214 43.2448Z" fill="#DDA95D"/>
<path d="M25.1157 37.5894L24.9713 42.1276L13.9718 47.7829L14.1214 43.2448L25.1157 37.5894Z" fill="#C88B5C"/>
<path d="M7.96946 39.5721L18.964 33.9117L25.1157 37.5894L14.1214 43.2448L7.96946 39.5721Z" fill="#E5BE83"/>
<path d="M10.4617 41.0723L21.5519 35.3744L22.6823 36.0558L11.5972 41.7588L10.4617 41.0723Z" fill="white"/>
<path d="M11.5972 41.7588L11.5699 42.5377L10.434 41.8612L10.4617 41.0723L11.5972 41.7588Z" fill="#CCCCCC"/>
</g>
<g id="Group_22">
<g id="Group_23">
<path id="Vector_95" d="M70.826 22.5509L70.6972 29.7964L64.1787 33.0014L64.3125 25.7516L70.826 22.5509Z" fill="#BB884F"/>
<path id="Vector_96" d="M64.312 25.7516L64.1781 33.0014L57.625 29.5864L57.7539 22.3409L64.312 25.7516Z" fill="#E0B477"/>
<g id="Group_24">
<g id="Group_25">
<path id="Vector_97" d="M58.2798 29.3937V29.5179L59.3455 30.0578V29.9336L58.2798 29.3937Z" fill="#5C4123"/>
<path id="Vector_98" d="M58.4832 29.4279L58.6072 29.4879V28.8323L58.7261 28.8923L58.5477 28.5281L58.3643 28.7123L58.4832 28.7723V29.4279Z" fill="#5C4123"/>
<path id="Vector_99" d="M59.0238 29.6978L59.1427 29.7578V29.1022L59.2617 29.1622L59.0832 28.798L58.9048 28.9822L59.0238 29.0422V29.6978Z" fill="#5C4123"/>
</g>
<path id="Vector_100" d="M59.3405 30.2677L58.2897 29.7364C58.0864 29.6335 57.9229 29.4064 57.9229 29.2308V28.3138C57.9229 28.1382 58.0864 28.0782 58.2897 28.1767L59.3405 28.708C59.5438 28.8109 59.7074 29.0379 59.7074 29.2136V30.1306C59.7074 30.3062 59.5438 30.3662 59.3405 30.2677ZM58.2897 28.2453C58.1261 28.1639 57.9972 28.211 57.9972 28.3524V29.2693C57.9972 29.4107 58.131 29.5907 58.2897 29.6721L59.3405 30.2034C59.4992 30.2848 59.633 30.2377 59.633 30.0963V29.1793C59.633 29.0379 59.4992 28.858 59.3405 28.7766L58.2897 28.2496V28.2453Z" fill="#5C4123"/>
</g>
<g id="Group_26">
<path id="Vector_101" d="M61.5562 30.5505C61.5562 30.5505 61.5513 30.5462 61.5513 30.5419C61.5513 30.5205 61.4621 30.4562 61.3332 30.3877C61.2043 30.3234 61.1151 30.302 61.1151 30.3191C61.1151 30.3191 61.1101 30.3148 61.1101 30.3106C61.1101 30.2934 61.0358 30.2377 60.9267 30.1777V30.7433C60.9118 30.8033 60.8474 30.8119 60.7681 30.7776C60.6838 30.7347 60.6144 30.6405 60.6144 30.5676C60.6144 30.5505 60.6293 30.5419 60.6491 30.5548C60.6689 30.5634 60.6838 30.5848 60.6838 30.6062C60.6838 30.6405 60.7235 30.6919 60.7681 30.7133C60.8623 30.7605 60.8523 30.6619 60.8523 30.6619V30.1477C60.7433 30.0963 60.6689 30.0792 60.6689 30.0963C60.6689 30.0963 60.6689 30.0963 60.664 30.0963C60.664 30.0963 60.659 30.092 60.659 30.0877C60.659 30.0706 60.5698 30.0021 60.4409 29.9378C60.312 29.8735 60.2228 29.8478 60.2228 29.8692C60.2228 29.8692 60.2228 29.8692 60.2178 29.8692C60.2178 29.8692 60.2129 29.8649 60.2129 29.8607C60.2228 29.6336 60.5054 29.5436 60.8424 29.6936C60.8424 29.6936 60.8672 29.6764 60.892 29.6936C60.9217 29.7064 60.9416 29.7321 60.9416 29.7493C61.2836 29.9421 61.5612 30.3148 61.5711 30.5505C61.5711 30.5505 61.5711 30.5505 61.5661 30.5505H61.5562Z" fill="#5C4123"/>
<path id="Vector_102" d="M61.4021 31.309L60.3512 30.782C60.148 30.6791 59.9844 30.452 59.9844 30.2764V29.3594C59.9844 29.1838 60.148 29.1195 60.3512 29.2223L61.4021 29.7493C61.6053 29.8522 61.7689 30.0793 61.7689 30.2549V31.1719C61.7689 31.3476 61.6053 31.4118 61.4021 31.309ZM60.3512 29.2866C60.1876 29.2052 60.0587 29.2523 60.0587 29.3937V30.3064C60.0587 30.4478 60.1876 30.6277 60.3512 30.7091L61.4021 31.2362C61.5657 31.3176 61.6945 31.2704 61.6945 31.129V30.2121C61.6945 30.0707 61.5657 29.8907 61.4021 29.8093L60.3512 29.278V29.2866Z" fill="#5C4123"/>
</g>
<g id="Group_27">
<path id="Vector_103" d="M63.2213 31.2233C63.2163 31.3647 63.1073 31.429 62.9635 31.369V31.8189L63.142 31.9089V31.9689L62.7355 31.7632V31.7032L62.9189 31.7932V31.3433C62.7751 31.2619 62.6661 31.0905 62.6611 30.9405V30.6063L63.2163 30.8848V31.219L63.2213 31.2233Z" fill="#5C4123"/>
<path id="Vector_104" d="M63.4695 32.3502L62.4186 31.8189C62.2153 31.716 62.0518 31.489 62.0518 31.3133V30.3963C62.0518 30.2207 62.2153 30.1607 62.4186 30.2592L63.4695 30.7863C63.6727 30.8891 63.8363 31.1162 63.8363 31.2919V32.2088C63.8363 32.3845 63.6727 32.4445 63.4695 32.3459V32.3502ZM62.4186 30.3278C62.255 30.2464 62.1261 30.2935 62.1261 30.4349V31.3518C62.1261 31.4932 62.255 31.6732 62.4186 31.7546L63.4695 32.2859C63.633 32.3673 63.7619 32.3202 63.7619 32.1788V31.2619C63.7619 31.1205 63.633 30.9405 63.4695 30.8591L62.4186 30.3278Z" fill="#5C4123"/>
</g>
<path id="Vector_105" d="M70.825 22.5509L64.3115 25.7516L57.7534 22.341L64.2719 19.136L70.825 22.5509Z" fill="#EFCD90"/>
</g>
<path id="Vector_106" d="M61.734 20.3828L60.3857 21.0469L66.9438 24.4576L68.2921 23.7978L61.734 20.3828Z" fill="#F7ECEA"/>
<path id="Vector_107" d="M66.9441 24.4576L68.2924 23.7977L68.2726 24.976L66.9243 25.6316L66.9441 24.4576Z" fill="#C2AB9D"/>
</g>
</g>
<g id="Group 19639">
<g id="Group_28">
<g id="Group_29">
<path id="Vector_108" d="M56.2601 52.3026L56.2427 56.4643L63.1847 53.2612L63.2021 49.0995L56.2601 52.3026Z" fill="#DDA95D"/>
<path id="Vector_109" d="M44.3246 46.8274L44.313 50.9937L56.2426 56.4644L56.26 52.3026L44.3246 46.8274Z" fill="#C88B5C"/>
<path id="Vector_110" d="M63.2016 49.0995L51.2662 43.6243L44.3242 46.8274L56.2596 52.3026L63.2016 49.0995Z" fill="#E5BE83"/>
<path id="Vector_111" d="M60.3836 50.4085L48.3554 44.8964L47.0737 45.4909L59.1077 51.0076L60.3836 50.4085Z" fill="white"/>
<path id="Vector_112" d="M59.1074 51.0076V51.7219L60.3833 51.132V50.4084L59.1074 51.0076Z" fill="#CCCCCC"/>
</g>
<g id="Group_30">
<path id="Vector_113" d="M56.2601 47.9335L56.2427 52.0952L63.1847 48.8921L63.2021 44.7303L56.2601 47.9335Z" fill="#DDA95D"/>
<path id="Vector_114" d="M44.3246 42.4629L44.313 46.6246L56.2426 52.0952L56.26 47.9335L44.3246 42.4629Z" fill="#C88B5C"/>
<path id="Vector_115" d="M63.2016 44.7304L51.2662 39.2551L44.3242 42.4628L56.2596 47.9335L63.2016 44.7304Z" fill="#E5BE83"/>
<path id="Vector_116" d="M60.3836 46.0393L48.3554 40.5272L47.0737 41.1264L59.1077 46.6385L60.3836 46.0393Z" fill="white"/>
<path id="Vector_117" d="M59.1074 46.6385V47.3528L60.3833 46.7629V46.0393L59.1074 46.6385Z" fill="#CCCCCC"/>
</g>
<g id="Group_31">
<path id="Vector_118" d="M56.2601 43.5874L56.2427 47.7491L63.1847 44.546L63.2021 40.3843L56.2601 43.5874Z" fill="#DDA95D"/>
<path id="Vector_119" d="M44.3251 38.1121L44.3135 42.2738L56.2431 47.749L56.2605 43.5873L44.3251 38.1121Z" fill="#C88B5C"/>
<path id="Vector_120" d="M63.2021 40.3843L51.2667 34.9091L44.3247 38.1122L56.2601 43.5874L63.2021 40.3843Z" fill="#E5BE83"/>
<path id="Vector_121" d="M60.3841 41.6931L48.3559 36.181L47.0742 36.7756L59.1082 42.2923L60.3841 41.6931Z" fill="white"/>
<path id="Vector_122" d="M59.1079 42.2923V43.0066L60.3838 42.4167V41.6931L59.1079 42.2923Z" fill="#CCCCCC"/>
</g>
</g>
<g id="Group_32">
<path id="Vector_123" d="M40.8699 56.7588L40.8525 60.9205L47.7945 57.7174L47.8119 53.5557L40.8699 56.7588Z" fill="#DDA95D"/>
<path id="Vector_124" d="M28.9344 51.2836L28.9229 55.4453L40.8524 60.9205L40.8698 56.7588L28.9344 51.2836Z" fill="#C88B5C"/>
<path id="Vector_125" d="M47.8115 53.5557L35.8761 48.0804L28.9341 51.2835L40.8695 56.7588L47.8115 53.5557Z" fill="#E5BE83"/>
<path id="Vector_126" d="M44.9934 54.8645L32.9653 49.3524L31.6836 49.947L43.7176 55.4637L44.9934 54.8645Z" fill="white"/>
<path id="Vector_127" d="M43.7173 55.4636V56.178L44.9932 55.5881V54.8645L43.7173 55.4636Z" fill="#CCCCCC"/>
</g>
<g id="Group_33">
<path id="Vector_128" d="M40.8704 52.3896L40.853 56.5514L47.795 53.3483L47.8124 49.1865L40.8704 52.3896Z" fill="#DDA95D"/>
<path id="Vector_129" d="M28.9349 46.9191L28.9233 51.0808L40.8529 56.5514L40.8703 52.3897L28.9349 46.9191Z" fill="#C88B5C"/>
<path id="Vector_130" d="M47.8129 49.1867L35.8776 43.7114L28.9355 46.9191L40.8709 52.3898L47.8129 49.1867Z" fill="#E5BE83"/>
<path id="Vector_131" d="M44.9934 50.4955L32.9653 44.9834L31.6836 45.5825L43.7176 51.0946L44.9934 50.4955Z" fill="white"/>
<path id="Vector_132" d="M43.7178 51.0946V51.809L44.9937 51.2191V50.4955L43.7178 51.0946Z" fill="#CCCCCC"/>
</g>
</g>
</g>
<defs>
<linearGradient id="paint0_linear_557_55215" x1="43.4999" y1="15.123" x2="49.9024" y2="13.0019" gradientUnits="userSpaceOnUse">
<stop stop-color="#9F79C8"/>
<stop offset="0.14" stop-color="#A47FCA"/>
<stop offset="0.33" stop-color="#B491D3"/>
<stop offset="0.55" stop-color="#CDAFE1"/>
<stop offset="0.58" stop-color="#D1B4E3"/>
<stop offset="0.76" stop-color="#DAC3E8"/>
<stop offset="1" stop-color="#EBDEF3"/>
</linearGradient>
</defs>
</svg>
