<svg width="40" height="40" viewBox="0 0 40 40" fill="none" xmlns="http://www.w3.org/2000/svg">
<rect width="40" height="40" rx="4" fill="white"/>
<rect x="8" y="11" width="24" height="18" rx="4" fill="#E12A28"/>
<path d="M20.3591 16.1168L21.288 18.9021L24.2241 18.9249C24.3883 18.9262 24.4563 19.1357 24.3243 19.2332L21.9623 20.9774L22.848 23.7768C22.8975 23.9333 22.7193 24.0628 22.5857 23.9674L20.197 22.26L17.8083 23.9674C17.6747 24.0629 17.4965 23.9334 17.546 23.7768L18.4317 20.9774L16.0697 19.2333C15.9376 19.1357 16.0057 18.9262 16.1699 18.9249L19.106 18.9022L20.0349 16.1169C20.0869 15.9611 20.3071 15.9611 20.3591 16.1168Z" fill="#FDCE0C"/>
</svg>
