<svg width="64" height="64" viewBox="0 0 64 64" fill="none" xmlns="http://www.w3.org/2000/svg">
<path d="M38.416 5.48189C38.9739 5.18107 39.4298 5.42428 39.4366 6.02591L39.4978 25.611C39.4978 26.2126 39.042 26.9486 38.4841 27.2559L5.67652 45.0744C5.11861 45.3752 4.66276 45.132 4.65596 44.5368L4.59473 24.9517C4.59473 24.3501 5.04377 23.6077 5.60847 23.3069L38.416 5.48828V5.48189Z" fill="#FEFEFE"/>
<path d="M14.3294 37.9897L8.31788 41.3602L8.86117 33.6437L14.8727 30.2732L14.3294 37.9897Z" fill="#CED3F8"/>
<path d="M22.3499 33.4229L16.3384 36.7923L16.8818 29.0748L22.8932 25.7053L22.3499 33.4229Z" fill="#CED3F8"/>
<path d="M29.7322 28.8098L23.7207 32.1793L24.2641 24.4617L30.2756 21.0923L29.7322 28.8098Z" fill="#FFAD02"/>
<path d="M37.7078 24.8803L31.6963 28.2497L32.2397 20.5322L38.2511 17.1627L37.7078 24.8803Z" fill="#CED3F8"/>
<path d="M61.7728 39.6917C61.7728 39.6917 61.7728 39.7365 61.7728 39.7557C61.7728 39.7749 61.7728 39.8005 61.7728 39.8197C61.7728 39.8389 61.7592 39.8581 61.7592 39.8773C61.7592 39.8965 61.7456 39.9221 61.7388 39.9413C61.732 39.9605 61.7252 39.9733 61.7116 39.9925C61.7048 40.0181 61.6912 40.0373 61.6776 40.0629C61.6708 40.0821 61.6572 40.0949 61.6504 40.1141C61.6368 40.1397 61.6163 40.1653 61.5959 40.1909C61.5823 40.2037 61.5687 40.2229 61.5551 40.2357C61.5279 40.2677 61.5007 40.2997 61.4667 40.3253C61.453 40.3381 61.4395 40.3573 61.419 40.3701C61.3986 40.3893 61.3782 40.4021 61.3578 40.4213C61.3374 40.4405 61.3102 40.4597 61.2898 40.4725C61.2694 40.4917 61.2421 40.5045 61.2149 40.5173C61.1809 40.5429 61.1401 40.5621 61.0993 40.5877L48.5532 47.3977V46.6873L45.7773 45.1704L49.7779 42.9879V42.7062L50.0364 42.847L55.4726 39.8773V38.0916L52.9212 36.7091L52.3361 37.0291V36.3955L51.4856 35.9283L49.7915 35.0066L46.8455 33.4065L46.1107 33.8098V33.0033L43.5593 31.6208L42.9877 31.9345V31.3136L40.4432 29.9312L37.8033 31.3712V31.9217L37.2998 31.6464L34.6668 33.0865V33.6306L34.1633 33.3553L31.5303 34.7954V35.3458L31.0268 35.0706L28.3938 36.5107V37.0611L27.8903 36.7859L25.2504 38.226V38.7764L24.7538 38.5012L22.1139 39.9413V40.4917L21.6104 40.2165L18.9706 41.6566V42.207L18.4671 41.9318L15.8341 43.3719V43.9223L15.3306 43.6471L12.6908 45.0872V46.8729L14.174 47.6729L13.548 48.0185V47.3977L11.0034 46.0152L8.36359 47.4553V49.241L10.9082 50.6235L11.4797 50.3099V50.9307L14.0243 52.3132L14.5958 51.9995V52.6204L17.1404 54.0029L17.7051 53.6956V54.3165L20.2497 55.6989L20.8348 55.3789V56.019L23.3794 57.4014L28.9653 54.3485V53.99L29.2918 54.1693L33.4149 51.9163V51.5067L33.7891 51.7115L35.2995 50.8859V51.5707L38.0687 53.0876L27.8086 58.6559C27.7066 58.7135 27.5977 58.7583 27.4821 58.8031C27.448 58.8159 27.4208 58.8287 27.3868 58.8351C27.312 58.8607 27.2371 58.8799 27.1555 58.8991C27.0874 58.9183 27.0194 58.9375 26.9446 58.9503C26.8493 58.9695 26.7473 58.9887 26.6452 58.9951C26.6248 58.9951 26.6044 58.9951 26.584 59.0015C26.4547 59.0143 26.3254 59.0207 26.1894 59.0207C26.1689 59.0207 26.1485 59.0207 26.1281 59.0207C25.9988 59.0207 25.8696 59.0143 25.7471 59.0015C25.7267 59.0015 25.7063 59.0015 25.6859 59.0015C25.5634 58.9887 25.4409 58.9695 25.3185 58.9439C25.2981 58.9439 25.2709 58.9311 25.2504 58.9311C25.1348 58.9055 25.0259 58.8735 24.9171 58.8351C24.9035 58.8351 24.8898 58.8287 24.883 58.8223C24.7606 58.7775 24.6381 58.7263 24.5292 58.6623L5.39037 48.1977C4.94132 47.9545 4.7168 47.6345 4.7168 47.3081C4.7168 47.9033 4.7168 48.4986 4.7168 49.0938C4.7168 49.4138 4.94132 49.7338 5.39037 49.9834L24.5292 60.448C24.6381 60.5056 24.7538 60.5568 24.8762 60.6016C24.8762 60.6016 24.8762 60.6016 24.883 60.6016C24.8966 60.6016 24.9102 60.608 24.9239 60.6144C24.9987 60.64 25.0803 60.6656 25.1552 60.6848C25.1892 60.6912 25.2232 60.6976 25.2572 60.704C25.2845 60.704 25.3049 60.7168 25.3321 60.7232C25.3525 60.7232 25.3797 60.736 25.4001 60.736C25.475 60.7488 25.5498 60.7616 25.6315 60.7744C25.6519 60.7744 25.6791 60.7744 25.6995 60.7808C25.7199 60.7808 25.7403 60.7808 25.7539 60.7808C25.7879 60.7808 25.822 60.7872 25.856 60.7872C25.9308 60.7872 26.0057 60.8 26.0873 60.8H26.1485C26.1485 60.8 26.1894 60.8 26.2098 60.8C26.2506 60.8 26.2846 60.8 26.3254 60.8C26.4139 60.8 26.4955 60.7936 26.584 60.7808C26.5908 60.7808 26.5976 60.7808 26.6044 60.7808C26.6248 60.7808 26.6452 60.7808 26.6588 60.7744C26.7268 60.768 26.8017 60.7616 26.8697 60.7488C26.8969 60.7488 26.9242 60.736 26.9582 60.7296C27.0262 60.7168 27.0943 60.6976 27.1623 60.6848C27.2031 60.672 27.2439 60.6656 27.2847 60.6528C27.3256 60.64 27.3596 60.6272 27.3936 60.6144C27.4276 60.608 27.4548 60.5952 27.4889 60.5824C27.6045 60.5376 27.7134 60.4928 27.8154 60.4352L61.0857 42.367C61.0857 42.367 61.1401 42.3414 61.1605 42.3222C61.1741 42.3158 61.1877 42.303 61.2013 42.2966C61.2285 42.2838 61.2489 42.2646 61.2762 42.2454C61.3034 42.2262 61.3238 42.2134 61.3442 42.1942C61.3646 42.175 61.385 42.1622 61.4054 42.1494C61.4122 42.143 61.4258 42.1366 61.4326 42.1302C61.4394 42.1238 61.4463 42.111 61.4599 42.1046C61.4939 42.0726 61.5211 42.0406 61.5483 42.015C61.5483 42.0086 61.5619 41.9958 61.5687 41.9894C61.5687 41.9894 61.5755 41.9766 61.5823 41.9702C61.6027 41.9446 61.6163 41.919 61.6367 41.8934C61.6436 41.8806 61.6572 41.8678 61.664 41.855C61.664 41.855 61.664 41.8486 61.664 41.8422C61.6776 41.8166 61.6844 41.791 61.698 41.7718C61.698 41.759 61.7116 41.7462 61.7184 41.7334C61.7184 41.7334 61.7184 41.7334 61.7184 41.727C61.7252 41.7014 61.732 41.6822 61.7388 41.6566C61.7388 41.6438 61.7456 41.6246 61.7524 41.6118C61.7524 41.6118 61.7524 41.6118 61.7524 41.6054C61.7524 41.5862 61.7524 41.5606 61.7592 41.5414C61.7592 41.5222 61.7592 41.5094 61.7592 41.4902V41.4774C61.7592 40.8821 61.7592 40.2869 61.7592 39.6917H61.7728Z" fill="#4C555A"/>
<path d="M61.1063 38.8021L41.9674 28.3375C41.0693 27.8447 39.5929 27.8447 38.688 28.3375L5.41781 46.4057C4.51291 46.8985 4.50611 47.6986 5.4042 48.1914L24.5431 58.656C25.4412 59.1488 26.9176 59.1488 27.8225 58.656L61.0927 40.5878C61.9976 40.095 61.9976 39.2885 61.1063 38.8021Z" fill="#677B85"/>
<path d="M39.1101 34.0529L41.6547 35.4353L39.0216 36.8754L36.4771 35.4865L39.1101 34.0529Z" fill="#D6E7F8"/>
<path d="M43.1716 35.2306L45.7162 36.6131L43.0763 38.0531L40.5317 36.6707L43.1716 35.2306Z" fill="#D6E7F8"/>
<path d="M46.8458 33.4065L49.7918 35.0066L51.4859 35.9282L52.3364 36.3955L47.8867 38.8212L45.3421 37.4387L46.7097 36.6899L43.7637 35.0898L46.8458 33.4065Z" fill="#D6E7F8"/>
<path d="M40.2053 36.8499L42.7499 38.2323L40.1168 39.6724L37.5654 38.2899L40.2053 36.8499Z" fill="#D6E7F8"/>
<path d="M52.9215 36.709L55.4661 38.0979L50.0299 41.0676L47.4854 39.6851L52.9215 36.709Z" fill="#D6E7F8"/>
<path d="M47.2266 39.8197L49.7712 41.2086L45.6481 43.4551L43.1035 42.0726L47.2266 39.8197Z" fill="#D6E7F8"/>
<path d="M39.1027 40.8501L41.6473 42.2326L39.0075 43.6727L36.4629 42.2838L39.1027 40.8501Z" fill="#D6E7F8"/>
<path d="M40.4436 29.9247L42.9882 31.3072L40.3551 32.7536L37.8105 31.3648L40.4436 29.9247Z" fill="#D6E7F8"/>
<path d="M37.3068 31.64L39.8514 33.0225L37.2116 34.4626L34.667 33.0801L37.3068 31.64Z" fill="#D6E7F8"/>
<path d="M43.5593 31.6208L46.1038 33.0033L42.0216 35.237L39.4702 33.8546L43.5593 31.6208Z" fill="#D6E7F8"/>
<path d="M34.1633 33.3552L36.7147 34.7377L34.0749 36.1778L31.5303 34.7953L34.1633 33.3552Z" fill="#D6E7F8"/>
<path d="M31.0271 35.0706L33.5717 36.453L30.9386 37.8931L28.394 36.5106L31.0271 35.0706Z" fill="#D6E7F8"/>
<path d="M36.1091 35.6851L38.6537 37.0739L36.0207 38.514L33.4761 37.1251L36.1091 35.6851Z" fill="#D6E7F8"/>
<path d="M27.8903 36.7795L30.4349 38.1684L27.7951 39.6085L25.2505 38.2196L27.8903 36.7795Z" fill="#D6E7F8"/>
<path d="M33.1091 37.33L35.6537 38.7124L33.0138 40.1525L30.4692 38.7636L33.1091 37.33Z" fill="#D6E7F8"/>
<path d="M45.0017 37.6244L47.5463 39.0069L44.9132 40.4469L42.3687 39.0645L45.0017 37.6244Z" fill="#D6E7F8"/>
<path d="M24.7473 38.4948L27.2919 39.8836L24.6588 41.3173L22.1074 39.9348L24.7473 38.4948Z" fill="#D6E7F8"/>
<path d="M37.2385 38.4691L39.7831 39.8516L37.15 41.2917L34.5986 39.9092L37.2385 38.4691Z" fill="#D6E7F8"/>
<path d="M30.1086 38.9684L32.6532 40.3509L30.0201 41.7909L27.4688 40.4021L30.1086 38.9684Z" fill="#D6E7F8"/>
<path d="M42.0354 39.2437L44.5799 40.6261L41.9469 42.0662L39.3955 40.6837L42.0354 39.2437Z" fill="#D6E7F8"/>
<path d="M34.2727 40.0885L36.8173 41.471L34.1842 42.9111L31.6328 41.5286L34.2727 40.0885Z" fill="#D6E7F8"/>
<path d="M21.6106 40.2101L24.1551 41.5926L21.5153 43.0326L18.9707 41.6502L21.6106 40.2101Z" fill="#D6E7F8"/>
<path d="M27.1081 40.6006L29.6527 41.9895L27.0197 43.4295L24.4683 42.0407L27.1081 40.6006Z" fill="#D6E7F8"/>
<path d="M31.3059 41.7078L33.8505 43.0902L31.2106 44.5303L28.666 43.1478L31.3059 41.7078Z" fill="#D6E7F8"/>
<path d="M18.4675 41.9254L21.0189 43.3079L18.3791 44.748L15.8345 43.3655L18.4675 41.9254Z" fill="#D6E7F8"/>
<path d="M24.1076 42.2454L26.6522 43.6278L24.0124 45.0679L21.4678 43.679L24.1076 42.2454Z" fill="#D6E7F8"/>
<path d="M36.0417 42.5206L38.5795 43.9031L35.9464 45.3432L33.4019 43.9607L36.0417 42.5206Z" fill="#D6E7F8"/>
<path d="M28.3396 43.327L30.8842 44.7095L28.2511 46.1496L25.6997 44.7671L28.3396 43.327Z" fill="#D6E7F8"/>
<path d="M15.3308 43.6407L17.8754 45.0232L15.2423 46.4633L12.6909 45.0744L15.3308 43.6407Z" fill="#D6E7F8"/>
<path d="M21.1071 43.8776L23.6517 45.2664L21.0119 46.7065L18.4673 45.3176L21.1071 43.8776Z" fill="#D6E7F8"/>
<path d="M33.1023 44.1207L35.6469 45.5032L33.0138 46.9433L30.4692 45.5608L33.1023 44.1207Z" fill="#D6E7F8"/>
<path d="M25.3732 44.9463L27.9178 46.3288L25.278 47.7688L22.7334 46.3864L25.3732 44.9463Z" fill="#D6E7F8"/>
<path d="M30.1355 45.74L32.6801 47.1225L30.047 48.5625L27.5024 47.1801L30.1355 45.74Z" fill="#D6E7F8"/>
<path d="M11.0036 46.0024L13.5482 47.3849L10.9084 48.825L8.36377 47.4425L11.0036 46.0024Z" fill="#D6E7F8"/>
<path d="M22.4065 46.5656L24.951 47.948L22.318 49.3881L19.7666 48.0056L22.4065 46.5656Z" fill="#D6E7F8"/>
<path d="M42.8382 42.2197L45.3828 43.6022L33.7961 49.9257L31.2515 48.5433L42.8382 42.2197Z" fill="#D6E7F8"/>
<path d="M27.2034 47.3464L29.7479 48.7289L27.1149 50.169L24.5703 48.7801L27.2034 47.3464Z" fill="#D6E7F8"/>
<path d="M17.9707 45.5928L20.5153 46.9752L14.0246 50.521L11.48 49.1386L17.9707 45.5928Z" fill="#D6E7F8"/>
<path d="M44.791 44.639L48.5467 46.6935L39.0623 51.8458L35.3066 49.7913L44.791 44.639Z" fill="#D6E7F8"/>
<path d="M19.4263 48.1914L21.9777 49.5739L17.1403 52.2172L14.5957 50.8284L19.4263 48.1914Z" fill="#D6E7F8"/>
<path d="M30.8775 48.7482L33.4221 50.1306L29.3058 52.3836L26.7612 50.9947L30.8775 48.7482Z" fill="#D6E7F8"/>
<path d="M24.2027 48.9785L26.7473 50.361L20.2565 53.9068L17.7119 52.5243L24.2027 48.9785Z" fill="#D6E7F8"/>
<path d="M26.4277 51.1803L28.9722 52.5628L23.3864 55.6093L20.8418 54.2269L26.4277 51.1803Z" fill="#D6E7F8"/>
<path d="M39.6404 3.8498C39.6404 3.8498 39.5995 3.82419 39.5791 3.81779C39.4226 3.73459 39.2662 3.64499 39.1097 3.56178C38.9532 3.47858 38.7967 3.38897 38.6402 3.30577C38.3408 3.13936 37.9258 3.16496 37.47 3.41457L4.19976 21.4827C3.29486 21.9756 2.56006 23.1724 2.56006 24.1517L2.62129 44.972C2.62129 45.4584 2.80499 45.8041 3.10436 45.9641C3.49217 46.1753 3.88679 46.3929 4.2746 46.6041C3.97524 46.4441 3.79153 46.0985 3.79153 45.612L3.7303 24.7917C3.7303 23.8125 4.4651 22.6156 5.37 22.1228L38.6402 4.05461C39.0961 3.80499 39.5111 3.78579 39.8105 3.9522C39.7492 3.9202 39.6948 3.8882 39.6336 3.8562L39.6404 3.8498Z" fill="#677B85"/>
<path d="M38.6472 4.05457C39.5521 3.56175 40.2937 3.95857 40.3005 4.93782L40.3618 25.7581C40.3618 26.7374 39.627 27.9407 38.7221 28.4271L5.45185 46.4953C4.54695 46.9881 3.80534 46.5849 3.79854 45.6056L3.7373 24.7853C3.7373 23.806 4.47211 22.6092 5.377 22.1164L38.6472 4.04817V4.05457ZM39.035 25.5981L38.9806 6.53151C38.9806 5.94908 38.5316 5.70586 37.9873 6.00028L6.03697 23.3516C5.49267 23.646 5.05043 24.3693 5.05043 24.9581L5.10486 44.0247C5.10486 44.6072 5.5539 44.844 6.0982 44.5496L38.0417 27.1982C38.586 26.9038 39.0282 26.187 39.0282 25.5981H39.035Z" fill="#4C555A"/>
<path d="M59.5171 42.8982L59.3448 53.6384L50.6299 58.3893L50.8022 47.6491L59.5171 42.8982Z" fill="#BB884F"/>
<path d="M50.8018 47.6491L50.6295 58.3894L41.8682 53.3273L42.0405 42.587L50.8018 47.6491Z" fill="#E0B477"/>
<path d="M42.7432 53.0479V53.2257L44.168 54.026V53.8418L42.7432 53.0479Z" fill="#5C4123"/>
<path d="M43.015 53.0922L43.1807 53.1811V52.2094L43.3398 52.2983L43.1012 51.7648L42.856 52.0315L43.015 52.1204V53.0922Z" fill="#5C4123"/>
<path d="M43.737 53.4924L43.896 53.5813V52.6095L44.0551 52.6984L43.8165 52.1649L43.5713 52.4317L43.737 52.5206V53.4924Z" fill="#5C4123"/>
<path d="M44.1547 54.3371L42.7497 53.5559C42.478 53.4035 42.2593 53.0669 42.2593 52.8064V51.4472C42.2593 51.1868 42.478 51.0979 42.7497 51.2504L44.1547 52.0316C44.4264 52.184 44.6451 52.5206 44.6451 52.781V54.1402C44.6451 54.4007 44.4264 54.4896 44.1547 54.3435V54.3371ZM42.7497 51.3393C42.531 51.2186 42.3587 51.2885 42.3587 51.4981V52.8573C42.3587 53.0669 42.5376 53.3336 42.7497 53.4543L44.1547 54.2419C44.3734 54.3625 44.5457 54.2863 44.5457 54.0831V52.7239C44.5457 52.5143 44.3668 52.2475 44.1547 52.1205L42.7497 51.3393Z" fill="#5C4123"/>
<path d="M47.1241 54.7564C47.1241 54.7564 47.1175 54.75 47.1175 54.7437C47.1175 54.7119 46.9982 54.6167 46.8259 54.515C46.6536 54.4198 46.5343 54.3817 46.5343 54.4134C46.5343 54.4134 46.5343 54.4134 46.5277 54.4134C46.5277 54.4134 46.521 54.4071 46.521 54.4007C46.521 54.3753 46.4216 54.2864 46.2758 54.2038V55.0422C46.256 55.1311 46.1698 55.1438 46.0704 55.093C45.9577 55.0295 45.8649 54.8898 45.8649 54.7818C45.8649 54.7564 45.8848 54.7437 45.9113 54.7564C45.9378 54.7691 45.9577 54.8009 45.9577 54.8326C45.9577 54.8834 46.0107 54.9596 46.0704 54.9914C46.1963 55.0613 46.1831 54.9152 46.1831 54.9152V54.153C46.0373 54.0768 45.9378 54.0514 45.9378 54.0768C45.9378 54.0768 45.9378 54.0768 45.9312 54.0768C45.9312 54.0768 45.9246 54.0704 45.9246 54.0641C45.9246 54.0323 45.8053 53.9307 45.633 53.8354C45.4607 53.7402 45.3414 53.7021 45.3414 53.7338C45.3414 53.7338 45.3414 53.7338 45.3348 53.7338C45.3348 53.7338 45.3281 53.7275 45.3281 53.7211C45.3414 53.3845 45.7191 53.2511 46.1698 53.4734C46.1698 53.4734 46.2029 53.448 46.2361 53.4734C46.2758 53.4925 46.3023 53.5306 46.3023 53.5496C46.7596 53.8354 47.1308 54.388 47.144 54.7373C47.144 54.7373 47.144 54.7373 47.1374 54.7373L47.1241 54.7564Z" fill="#5C4123"/>
<path d="M46.9186 55.8806L45.5202 55.0994C45.2485 54.947 45.0298 54.6103 45.0298 54.3499V52.9907C45.0298 52.724 45.2485 52.635 45.5202 52.7875L46.9186 53.5751C47.1903 53.7275 47.409 54.0641 47.409 54.3245V55.6837C47.409 55.9441 47.1903 56.033 46.9186 55.887V55.8806ZM45.5202 52.8827C45.3015 52.7621 45.1292 52.8319 45.1292 53.0415V54.4007C45.1292 54.6103 45.3015 54.8771 45.5202 54.9978L46.9186 55.779C47.1373 55.8997 47.3096 55.8298 47.3096 55.6202V54.261C47.3096 54.0514 47.1373 53.7846 46.9186 53.664L45.5202 52.8827Z" fill="#5C4123"/>
<path d="M49.3509 55.7536C49.3443 55.9632 49.1985 56.0585 49.0063 55.9695V56.6364L49.2449 56.7698V56.8524L48.7015 56.5475V56.4586L48.94 56.592V55.9251C48.7545 55.8044 48.6087 55.544 48.6021 55.3281V54.8326L49.3443 55.2455V55.7409L49.3509 55.7536Z" fill="#5C4123"/>
<path d="M49.682 57.424L48.277 56.6365C48.0053 56.484 47.7866 56.1474 47.7866 55.887V54.5278C47.7866 54.2674 48.0053 54.1785 48.277 54.3245L49.682 55.1121C49.9538 55.2645 50.1725 55.5948 50.1725 55.8616V57.2208C50.1725 57.4812 49.9538 57.5701 49.682 57.424ZM48.277 54.4262C48.0583 54.3055 47.886 54.3754 47.886 54.5849V55.9441C47.886 56.1537 48.0583 56.4205 48.277 56.5412L49.682 57.3224C49.9007 57.4431 50.0731 57.3732 50.0731 57.1636V55.8044C50.0731 55.5948 49.9007 55.3281 49.682 55.2074L48.277 54.4262Z" fill="#5C4123"/>
<path d="M59.5168 42.8983L50.8019 47.6491L42.0405 42.587L50.7555 37.8362L59.5168 42.8983Z" fill="#EFCD90"/>
<path d="M47.3622 39.6844L45.5596 40.6689L54.3209 45.7246L56.1236 44.7465L47.3622 39.6844Z" fill="#F7ECEA"/>
<path d="M54.3278 45.7247L56.1238 44.7466L56.1039 46.4932L54.3013 47.465L54.3278 45.7247Z" fill="#C2AB9D"/>
<path d="M40.6885 36.7944L40.5162 47.5347L31.8013 52.2855L31.9736 41.5453L40.6885 36.7944Z" fill="#BB884F"/>
<path d="M31.9737 41.5454L31.8014 52.2856L23.04 47.2235L23.2124 36.4833L31.9737 41.5454Z" fill="#E0B477"/>
<path d="M23.9146 46.9441V47.1219L25.3394 47.9222V47.738L23.9146 46.9441Z" fill="#5C4123"/>
<path d="M24.1864 46.9886L24.3521 47.0775V46.1057L24.5111 46.1947L24.2659 45.6611L24.0273 45.9279L24.1864 46.0168V46.9886Z" fill="#5C4123"/>
<path d="M24.9022 47.3887L25.0679 47.484V46.5059L25.227 46.5948L24.9817 46.0613L24.7432 46.328L24.9022 46.417V47.3887Z" fill="#5C4123"/>
<path d="M25.3261 48.2334L23.9211 47.4521C23.6494 47.2997 23.4307 46.9631 23.4307 46.7027V45.3435C23.4307 45.083 23.6494 44.9941 23.9211 45.1402L25.3261 45.9214C25.5978 46.0739 25.8165 46.4105 25.8165 46.6709V48.0301C25.8165 48.2905 25.5978 48.3794 25.3261 48.227V48.2334ZM23.9211 45.2355C23.7024 45.1148 23.5301 45.1847 23.5301 45.3943V46.7535C23.5301 46.9631 23.709 47.2298 23.9211 47.3505L25.3261 48.1317C25.5448 48.2524 25.7171 48.1825 25.7171 47.9729V46.6137C25.7171 46.4041 25.5382 46.1374 25.3261 46.0167L23.9211 45.2355Z" fill="#5C4123"/>
<path d="M28.2884 48.659C28.2884 48.659 28.2818 48.6526 28.2818 48.6463C28.2818 48.6145 28.1625 48.5193 27.9902 48.4176C27.8179 48.3224 27.6986 48.2843 27.6986 48.316C27.6986 48.316 27.6986 48.316 27.6919 48.316C27.6919 48.316 27.6853 48.3097 27.6853 48.3033C27.6853 48.2779 27.5859 48.1953 27.4401 48.1064V48.9448C27.4202 49.0401 27.3341 49.0528 27.2347 48.9956C27.122 48.9321 27.0292 48.7924 27.0292 48.6844C27.0292 48.659 27.0491 48.6463 27.0756 48.659C27.1021 48.6717 27.122 48.7034 27.122 48.7352C27.122 48.786 27.175 48.8622 27.2347 48.894C27.3606 48.9639 27.3473 48.8178 27.3473 48.8178V48.0493C27.2015 47.973 27.1021 47.9476 27.1021 47.973C27.1021 47.973 27.1021 47.973 27.0955 47.973C27.0955 47.973 27.0955 47.9667 27.0955 47.9603C27.0955 47.9286 26.9762 47.8333 26.8039 47.7317C26.6316 47.6364 26.5123 47.5983 26.5123 47.6301C26.5123 47.6301 26.5123 47.6301 26.5056 47.6301C26.5056 47.6301 26.499 47.6237 26.499 47.6174C26.5123 47.2807 26.89 47.1474 27.3407 47.3697C27.3407 47.3697 27.3672 47.3442 27.407 47.3697C27.4467 47.3887 27.4732 47.4268 27.4732 47.4459C27.9305 47.7317 28.3017 48.2843 28.3149 48.6336C28.3149 48.6336 28.3149 48.6336 28.3083 48.6336L28.2884 48.659Z" fill="#5C4123"/>
<path d="M28.0898 49.7768L26.6848 48.9892C26.413 48.8368 26.1943 48.5002 26.1943 48.2398V46.8806C26.1943 46.6202 26.413 46.5312 26.6848 46.6773L28.0898 47.4585C28.3615 47.611 28.5802 47.9476 28.5802 48.208V49.5672C28.5802 49.8276 28.3615 49.9165 28.0898 49.7705V49.7768ZM26.6848 46.7789C26.4661 46.6583 26.2937 46.7281 26.2937 46.9377V48.2969C26.2937 48.5065 26.4661 48.7733 26.6848 48.894L28.0898 49.6752C28.3085 49.7959 28.4808 49.726 28.4808 49.5164V48.1572C28.4808 47.9476 28.3085 47.6808 28.0898 47.5602L26.6848 46.7789Z" fill="#5C4123"/>
<path d="M30.5228 49.6498C30.5228 49.8594 30.3704 49.9547 30.1848 49.8658V50.539L30.4234 50.6724V50.7613L29.88 50.4565V50.3675L30.1185 50.5009V49.834C29.933 49.7133 29.7872 49.4593 29.7739 49.237V48.7416L30.5162 49.1544V49.6498H30.5228Z" fill="#5C4123"/>
<path d="M30.8534 51.3201L29.4484 50.5389C29.1767 50.3865 28.958 50.0499 28.958 49.7895V48.4302C28.958 48.1698 29.1767 48.0809 29.4484 48.227L30.8534 49.0146C31.1251 49.167 31.3439 49.5036 31.3439 49.764V51.1232C31.3439 51.3837 31.1251 51.4726 30.8534 51.3201ZM29.4484 48.3286C29.2297 48.208 29.0574 48.2778 29.0574 48.4874V49.8466C29.0574 50.0562 29.2297 50.323 29.4484 50.4436L30.8534 51.2249C31.0721 51.3455 31.2444 51.2757 31.2444 51.0661V49.7069C31.2444 49.4973 31.0721 49.2305 30.8534 49.1099L29.4484 48.3286Z" fill="#5C4123"/>
<path d="M40.6882 36.7945L31.9733 41.5454L23.2119 36.4833L31.9269 31.7324L40.6882 36.7945Z" fill="#EFCD90"/>
<path d="M28.5336 33.5807L26.731 34.5652L35.4923 39.6272L37.2949 38.6428L28.5336 33.5807Z" fill="#F7ECEA"/>
<path d="M35.4992 39.6273L37.2952 38.6428L37.2753 40.3895L35.4727 41.3612L35.4992 39.6273Z" fill="#C2AB9D"/>
<path d="M45.0294 46.5248L44.857 57.265L36.1421 62.0159L36.3144 51.2693L45.0294 46.5248Z" fill="#BB884F"/>
<path d="M36.3145 51.2694L36.1422 62.016L27.3809 56.9539L27.5532 46.2136L36.3145 51.2694Z" fill="#E0B477"/>
<path d="M28.2554 56.6743V56.8522L29.6803 57.6524V57.4682L28.2554 56.6743Z" fill="#5C4123"/>
<path d="M28.5272 56.7188L28.6929 56.8077V55.836L28.852 55.9249L28.6134 55.385L28.3682 55.6581L28.5272 55.747V56.7188Z" fill="#5C4123"/>
<path d="M29.2497 57.119L29.4087 57.2079V56.2361L29.5678 56.325L29.3292 55.7915L29.084 56.0583L29.2497 56.1472V57.119Z" fill="#5C4123"/>
<path d="M29.6669 57.9637L28.2619 57.1825C27.9902 57.0301 27.7715 56.6934 27.7715 56.433V55.0738C27.7715 54.8134 27.9902 54.7245 28.2619 54.8769L29.6669 55.6582C29.9386 55.8106 30.1573 56.1472 30.1573 56.4076V57.7668C30.1573 58.0272 29.9386 58.1162 29.6669 57.9701V57.9637ZM28.2619 54.9659C28.0432 54.8452 27.8709 54.9151 27.8709 55.1246V56.4838C27.8709 56.6934 28.0498 56.9602 28.2619 57.0809L29.6669 57.8621C29.8856 57.9828 30.0579 57.9129 30.0579 57.7033V56.3441C30.0579 56.1345 29.879 55.8678 29.6669 55.7471L28.2619 54.9659Z" fill="#5C4123"/>
<path d="M32.6297 58.383C32.6297 58.383 32.6231 58.3766 32.6231 58.3703C32.6231 58.3385 32.5038 58.2433 32.3315 58.1416C32.1592 58.0464 32.0399 58.0083 32.0399 58.04C32.0399 58.04 32.0399 58.04 32.0333 58.04C32.0333 58.04 32.0266 58.0337 32.0266 58.0273C32.0266 58.0019 31.9272 57.9193 31.7814 57.8304V58.6688C31.7615 58.7577 31.6754 58.7704 31.576 58.7196C31.4633 58.6561 31.3705 58.5164 31.3705 58.4084C31.3705 58.383 31.3904 58.3703 31.4169 58.383C31.4434 58.3957 31.4633 58.4274 31.4633 58.4592C31.4633 58.51 31.5163 58.5862 31.576 58.618C31.7019 58.6879 31.6886 58.5418 31.6886 58.5418V57.7732C31.5428 57.697 31.4434 57.6716 31.4434 57.697C31.4434 57.697 31.4368 57.6907 31.4368 57.6843C31.4368 57.6526 31.3175 57.5573 31.1452 57.462C30.9729 57.3668 30.8536 57.3286 30.8536 57.3604C30.8536 57.3604 30.8536 57.3604 30.847 57.3604C30.847 57.3604 30.8403 57.3541 30.8403 57.3477C30.8536 57.0111 31.2313 56.8777 31.682 57.1C31.682 57.1 31.7151 57.0746 31.7483 57.1C31.788 57.1191 31.8146 57.1572 31.8146 57.1762C32.2718 57.462 32.643 58.0146 32.6562 58.3639C32.6562 58.3639 32.6562 58.3639 32.6496 58.3639L32.6297 58.383Z" fill="#5C4123"/>
<path d="M32.4306 59.5072L31.0256 58.726C30.7539 58.5735 30.5352 58.2369 30.5352 57.9765V56.6173C30.5352 56.3505 30.7539 56.2616 31.0256 56.4141L32.4306 57.2016C32.7023 57.3541 32.921 57.6843 32.921 57.9511V59.3103C32.921 59.5707 32.7023 59.6596 32.4306 59.5072ZM31.0256 56.5093C30.8069 56.3887 30.6346 56.4585 30.6346 56.6745V58.0337C30.6346 58.2433 30.8069 58.51 31.0256 58.6307L32.4306 59.4119C32.6493 59.5326 32.8216 59.4627 32.8216 59.2531V57.8939C32.8216 57.6843 32.6493 57.4176 32.4306 57.2969L31.0256 56.5093Z" fill="#5C4123"/>
<path d="M34.8626 59.3802C34.8626 59.5898 34.7102 59.685 34.5246 59.5961V60.2694L34.7632 60.4028V60.4917L34.2197 60.1868V60.0979L34.4649 60.2313V59.5644C34.2794 59.4437 34.127 59.1896 34.127 58.9673V58.4719L34.8692 58.8848V59.3802H34.8626Z" fill="#5C4123"/>
<path d="M35.1942 61.0506L33.7893 60.263C33.5175 60.1106 33.2988 59.774 33.2988 59.5136V58.1544C33.2988 57.894 33.5175 57.805 33.7893 57.9511L35.1942 58.7387C35.466 58.8911 35.6847 59.2278 35.6847 59.4882V60.8474C35.6847 61.1078 35.466 61.1967 35.1942 61.0506ZM33.7893 58.0527C33.5706 57.9321 33.3982 58.0019 33.3982 58.2115V59.5707C33.3982 59.7803 33.5706 60.0471 33.7893 60.1678L35.1942 60.9553C35.413 61.076 35.5853 61.0062 35.5853 60.7966V59.4374C35.5853 59.2278 35.4063 58.961 35.1942 58.8403L33.7893 58.0591V58.0527Z" fill="#5C4123"/>
<path d="M45.029 46.5248L36.3141 51.2694L27.5527 46.2136L36.2677 41.4628L45.029 46.5248Z" fill="#EFCD90"/>
<path d="M32.8744 43.311L31.0718 44.2955L39.8331 49.3512L41.6358 48.3731L32.8744 43.311Z" fill="#F7ECEA"/>
<path d="M39.84 49.3513L41.636 48.3732L41.6161 50.1198L39.8135 51.0916L39.84 49.3513Z" fill="#C2AB9D"/>
<path d="M50.2588 31.942L50.0865 42.6823L41.3716 47.4331L41.5505 36.6865L50.2588 31.942Z" fill="#BB884F"/>
<path d="M41.5501 36.6865L41.3712 47.4331L32.6099 42.371L32.7822 31.6307L41.5501 36.6865Z" fill="#E0B477"/>
<path d="M33.4849 42.0852V42.2694L34.9097 43.0697V42.8855L33.4849 42.0852Z" fill="#5C4123"/>
<path d="M33.7567 42.136L33.9224 42.225V41.2532L34.0815 41.3421L33.8429 40.8022L33.5977 41.0754L33.7567 41.1643V42.136Z" fill="#5C4123"/>
<path d="M34.4789 42.5362L34.6379 42.6251V41.6533L34.797 41.7423L34.5584 41.2024L34.3198 41.4755L34.4789 41.5644V42.5362Z" fill="#5C4123"/>
<path d="M34.9032 43.3809L33.4982 42.5934C33.2265 42.4409 33.0078 42.1043 33.0078 41.8439V40.4847C33.0078 40.2243 33.2265 40.1354 33.4982 40.2814L34.9032 41.069C35.175 41.2215 35.3937 41.5581 35.3937 41.8185V43.1777C35.3937 43.4381 35.175 43.527 34.9032 43.3809ZM33.4982 40.3831C33.2795 40.2624 33.1072 40.3323 33.1072 40.5419V41.9011C33.1072 42.1107 33.2862 42.3774 33.4982 42.4981L34.9032 43.2857C35.1153 43.4063 35.2942 43.3365 35.2942 43.1269V41.7677C35.2942 41.5581 35.1153 41.2913 34.9032 41.1706L33.4982 40.3894V40.3831Z" fill="#5C4123"/>
<path d="M37.8653 43.8002C37.8653 43.8002 37.8587 43.7939 37.8587 43.7875C37.8587 43.7558 37.7394 43.6605 37.5671 43.5589C37.3948 43.4636 37.2755 43.4318 37.2755 43.4572C37.2755 43.4572 37.2689 43.4509 37.2689 43.4445C37.2689 43.4191 37.1695 43.3366 37.0237 43.2476V44.086C37.0038 44.1749 36.9176 44.1876 36.8116 44.1368C36.6989 44.0733 36.6062 43.9336 36.6062 43.8256C36.6062 43.8002 36.626 43.7875 36.6525 43.8066C36.6791 43.8193 36.6989 43.851 36.6989 43.8828C36.6989 43.9336 36.752 44.0098 36.8116 44.0416C36.9375 44.1114 36.9243 43.9653 36.9243 43.9653V43.2032C36.7785 43.127 36.6791 43.1016 36.6791 43.127C36.6791 43.127 36.6791 43.127 36.6724 43.127C36.6724 43.127 36.6658 43.1206 36.6658 43.1143C36.6658 43.0889 36.5465 42.9872 36.3742 42.892C36.2019 42.7967 36.0826 42.7586 36.0826 42.7903C36.0826 42.7903 36.0826 42.7903 36.076 42.7903C36.076 42.7903 36.0693 42.784 36.0693 42.7776C36.0826 42.441 36.4603 42.3076 36.911 42.5299C36.911 42.5299 36.9441 42.5045 36.9773 42.5299C37.017 42.549 37.0436 42.5871 37.0436 42.6125C37.5008 42.8983 37.872 43.4509 37.8852 43.8002C37.8852 43.8002 37.8852 43.8002 37.8786 43.8002H37.8653Z" fill="#5C4123"/>
<path d="M37.6601 44.9244L36.2551 44.1432C35.9833 43.9907 35.7646 43.6541 35.7646 43.3937V42.0345C35.7646 41.7741 35.9833 41.6788 36.2551 41.8313L37.6601 42.6125C37.9318 42.7649 38.1505 43.1015 38.1505 43.362V44.7212C38.1505 44.9816 37.9318 45.0768 37.6601 44.9244ZM36.2551 41.9265C36.0364 41.8059 35.8641 41.8757 35.8641 42.0853V43.4382C35.8641 43.6478 36.0364 43.9145 36.2551 44.0352L37.6601 44.8164C37.8788 44.9371 38.0511 44.8672 38.0511 44.6576V43.2984C38.0511 43.0888 37.8788 42.8221 37.6601 42.7014L36.2551 41.9138V41.9265Z" fill="#5C4123"/>
<path d="M40.0926 44.7974C40.086 45.007 39.9402 45.1023 39.748 45.0134V45.6803L39.9866 45.8136V45.9026L39.4432 45.5977V45.5088L39.6884 45.6422V44.9753C39.4962 44.8546 39.3504 44.6005 39.3438 44.3782V43.8828L40.086 44.2957V44.7911L40.0926 44.7974Z" fill="#5C4123"/>
<path d="M40.4237 46.4679L39.0187 45.6803C38.747 45.5278 38.5283 45.1912 38.5283 44.9308V43.5716C38.5283 43.3112 38.747 43.2223 39.0187 43.3684L40.4237 44.1496C40.6955 44.302 40.9142 44.6386 40.9142 44.8991V46.2583C40.9142 46.5187 40.6955 46.6076 40.4237 46.4615V46.4679ZM39.0187 43.47C38.8 43.3493 38.6277 43.4192 38.6277 43.6288V44.988C38.6277 45.1976 38.8 45.4643 39.0187 45.585L40.4237 46.3726C40.6424 46.4933 40.8148 46.4234 40.8148 46.2138V44.8546C40.8148 44.645 40.6424 44.3782 40.4237 44.2576L39.0187 43.47Z" fill="#5C4123"/>
<path d="M50.2585 31.9421L41.5502 36.6866L32.7822 31.6309L41.4972 26.88L50.2585 31.9421Z" fill="#EFCD90"/>
<path d="M38.1034 28.7283L36.3008 29.7127L45.0688 34.7685L46.8714 33.7904L38.1034 28.7283Z" fill="#F7ECEA"/>
<path d="M45.069 34.7685L46.8716 33.7904L46.8451 35.537L45.0425 36.5088L45.069 34.7685Z" fill="#C2AB9D"/>
<path d="M36.3448 5.49575L36.405 6.74785L45.2525 17.3763L45.1788 16.0877L36.3448 5.49575Z" fill="#CDCED0"/>
<path d="M45.1786 16.0877L45.2523 17.3763L49.238 15.2237L49.1638 13.9258L45.1786 16.0877Z" fill="#A0A0A1"/>
<path d="M36.3448 5.49573L45.1789 16.0877L49.164 13.9259L39.7262 3.66313L36.3448 5.49573Z" fill="#FAFBFD"/>
<path d="M32.3472 7.6488L32.4192 8.90959L41.2667 19.538L41.1817 18.25L32.3472 7.6488Z" fill="#C7391C"/>
<path d="M41.1816 18.2501L41.2665 19.5382L45.2516 17.3763L45.178 16.0877L41.1816 18.2501Z" fill="#C2556D"/>
<path d="M32.3471 7.64884L41.1816 18.2501L45.1781 16.0876L36.344 5.49568L32.3471 7.64884Z" fill="#FF708F"/>
<path d="M28.3623 9.81067L28.4344 11.0715L37.2705 21.7005L37.1969 20.4119L28.3623 9.81067Z" fill="#CDCED0"/>
<path d="M37.1967 20.412L37.2704 21.7006L41.2668 19.5382L41.1818 18.2502L37.1967 20.412Z" fill="#A0A0A1"/>
<path d="M28.3627 9.81069L37.1973 20.4119L41.1824 18.2501L32.3479 7.64886L28.3627 9.81069Z" fill="#FAFBFD"/>
<path d="M24.3774 11.9726L33.212 22.5738L37.1971 20.412L28.3625 9.81073L24.3774 11.9726Z" fill="#FF708F"/>
<path d="M24.3774 11.9725L24.449 13.2241L33.2857 23.8624L33.212 22.5738L24.3774 11.9725Z" fill="#C7391C"/>
<path d="M33.2114 22.5739L33.285 23.8625L37.2701 21.7006L37.1965 20.412L33.2114 22.5739Z" fill="#C2556D"/>
<path d="M20.4025 14.1151L20.4525 15.3864L29.2999 26.0148L29.2155 24.7361L20.4025 14.1151Z" fill="#CDCED0"/>
<path d="M29.2158 24.7362L29.3002 26.015L33.2858 23.8624L33.2122 22.5738L29.2158 24.7362Z" fill="#A0A0A1"/>
<path d="M20.4022 14.1152L29.2153 24.7361L33.2117 22.5737L24.3771 11.9725L20.4022 14.1152Z" fill="#FAFBFD"/>
<path d="M16.4058 16.2777L16.4671 17.5484L25.3033 28.1774L25.2296 26.8888L16.4058 16.2777Z" fill="#C7391C"/>
<path d="M25.2299 26.8888L25.3035 28.1774L29.2999 26.015L29.2155 24.7363L25.2299 26.8888Z" fill="#C2556D"/>
<path d="M16.4062 16.2776L25.23 26.8887L29.2157 24.7361L20.4026 14.1152L16.4062 16.2776Z" fill="#FF708F"/>
<path d="M12.3984 18.45L12.4818 19.7101L21.3179 30.3392L21.2443 29.0506L12.3984 18.45Z" fill="#CDCED0"/>
<path d="M21.2441 29.0507L21.3177 30.3393L25.3029 28.1774L25.2292 26.8889L21.2441 29.0507Z" fill="#A0A0A1"/>
<path d="M12.3984 18.45L21.2443 29.0506L25.2294 26.8888L16.4056 16.2777L12.3984 18.45Z" fill="#FAFBFD"/>
<path d="M8.41357 20.6118L8.4851 21.8633L17.3331 32.5011L17.2482 31.213L8.41357 20.6118Z" fill="#C7391C"/>
<path d="M17.248 31.213L17.3329 32.501L21.318 30.3392L21.2444 29.0506L17.248 31.213Z" fill="#C2556D"/>
<path d="M8.41351 20.6118L17.2481 31.2131L21.2445 29.0507L12.3986 18.45L8.41351 20.6118Z" fill="#FF708F"/>
<path d="M4.4292 22.7737L4.50073 24.0252L13.3374 34.6635L13.2632 33.3656L4.4292 22.7737Z" fill="#CDCED0"/>
<path d="M13.2631 33.3656L13.3373 34.6635L17.3337 32.5011L17.2487 31.2131L13.2631 33.3656Z" fill="#A0A0A1"/>
<path d="M4.42865 22.7736L13.2627 33.3655L17.2484 31.213L8.41378 20.6118L4.42865 22.7736Z" fill="#FAFBFD"/>
<path d="M59.0078 17.3602L59.7728 16.8555C59.3077 17.1608 58.661 17.1203 57.9482 16.653L57.1831 17.1577C57.8959 17.6219 58.5426 17.6655 59.0078 17.3602Z" fill="#D28F2B"/>
<mask id="mask0_557_55414" style="mask-type:luminance" maskUnits="userSpaceOnUse" x="57" y="16" width="3" height="2">
<path d="M59.0078 17.3602L59.7728 16.8555C59.3077 17.1608 58.661 17.1203 57.9482 16.653L57.1831 17.1577C57.8959 17.6219 58.5426 17.6655 59.0078 17.3602Z" fill="white"/>
</mask>
<g mask="url(#mask0_557_55414)">
<path d="M59.0078 17.3602L59.7728 16.8555C59.3077 17.1608 58.661 17.1203 57.9482 16.653L57.1831 17.1577C57.8959 17.6219 58.5426 17.6655 59.0078 17.3602Z" fill="#D28F2B"/>
</g>
<path d="M56.1401 9.77356L55.3751 10.2783C54.9155 10.5805 54.6292 11.2255 54.6265 12.1415C54.621 13.9859 55.7659 16.2292 57.1832 17.1545L57.9483 16.6498C56.531 15.7244 55.3861 13.4781 55.3916 11.6367C55.3916 10.7207 55.6778 10.0789 56.1401 9.77356Z" fill="#D28F2B"/>
<mask id="mask1_557_55414" style="mask-type:luminance" maskUnits="userSpaceOnUse" x="54" y="9" width="4" height="9">
<path d="M56.1401 9.77356L55.3751 10.2783C54.9155 10.5805 54.6292 11.2255 54.6265 12.1415C54.621 13.9859 55.7659 16.2292 57.1832 17.1545L57.9483 16.6498C56.531 15.7244 55.3861 13.4781 55.3916 11.6367C55.3916 10.7207 55.6778 10.0789 56.1401 9.77356Z" fill="white"/>
</mask>
<g mask="url(#mask1_557_55414)">
<path d="M57.1832 17.1545L57.9483 16.6498C56.531 15.7244 55.3861 13.4781 55.3916 11.6367C55.3943 10.7207 55.6805 10.0758 56.1401 9.77356L55.3751 10.2783C54.9155 10.5805 54.6292 11.2255 54.6265 12.1415C54.621 13.9859 55.7659 16.2292 57.1832 17.1545Z" fill="#D28F2B"/>
</g>
<path d="M54.621 6.76077L53.856 7.2655C54.7119 6.70157 55.898 6.78258 57.2053 7.63627L57.9704 7.13153C56.6631 6.27473 55.477 6.19684 54.621 6.76077Z" fill="#D28F2B"/>
<mask id="mask2_557_55414" style="mask-type:luminance" maskUnits="userSpaceOnUse" x="53" y="6" width="5" height="2">
<path d="M54.621 6.76077L53.856 7.2655C54.7119 6.70157 55.898 6.78258 57.2053 7.63627L57.9704 7.13153C56.6631 6.27473 55.477 6.19684 54.621 6.76077Z" fill="white"/>
</mask>
<g mask="url(#mask2_557_55414)">
<path d="M57.2053 7.63311L57.9704 7.12838C56.6631 6.27469 55.477 6.19368 54.621 6.75762L53.856 7.26235C54.7119 6.69842 55.898 6.77943 57.2053 7.63311Z" fill="#D28F2B"/>
</g>
<path d="M57.1587 26.2117L57.9238 25.707C58.1605 25.5013 62.6547 21.5663 62.6684 16.3413C62.6767 12.9546 60.5741 8.83261 57.9706 7.13147L57.2055 7.6362C59.809 9.33735 61.9116 13.4625 61.9033 16.8461C61.8896 22.071 57.3954 26.003 57.1587 26.2117Z" fill="#D28F2B"/>
<mask id="mask3_557_55414" style="mask-type:luminance" maskUnits="userSpaceOnUse" x="57" y="7" width="6" height="20">
<path d="M57.1587 26.2117L57.9238 25.707C58.1605 25.5013 62.6547 21.5663 62.6684 16.3413C62.6767 12.9546 60.5741 8.83261 57.9706 7.13147L57.2055 7.6362C59.809 9.33735 61.9116 13.4625 61.9033 16.8461C61.8896 22.071 57.3954 26.003 57.1587 26.2117Z" fill="white"/>
</mask>
<g mask="url(#mask3_557_55414)">
<path d="M57.1587 26.2117L57.9238 25.707C58.1605 25.5013 62.6547 21.5663 62.6684 16.3413C62.6767 12.9546 60.5741 8.83261 57.9706 7.13147L57.2055 7.6362C59.809 9.33735 61.9116 13.4625 61.9033 16.8461C61.8896 22.071 57.3954 26.003 57.1587 26.2117Z" fill="#D28F2B"/>
</g>
<path d="M61.9033 16.843C61.8895 22.0679 57.3953 26.003 57.1586 26.2086C56.9247 25.6945 52.4663 15.9083 52.48 10.6833C52.4883 7.29661 54.6046 5.93196 57.2054 7.6331C59.8089 9.33425 61.9115 13.4594 61.9033 16.843ZM57.1834 17.1545C58.6035 18.083 59.7538 17.3384 59.7566 15.4939C59.7621 13.6494 58.6172 11.4062 57.1999 10.4808C55.7826 9.55546 54.6294 10.297 54.6267 12.1414C54.6212 13.9859 55.766 16.2292 57.1834 17.1545Z" fill="#F6B450"/>
<path d="M55.502 29.0719C55.502 28.0344 56.245 27.1963 57.1587 27.1963C58.0724 27.1963 58.8155 28.0375 58.8155 29.0719C58.8155 30.1094 58.0724 30.9475 57.1587 30.9475C56.245 30.9475 55.502 30.1063 55.502 29.0719Z" fill="#FFB36D"/>
</svg>
