<svg width="19" height="32" viewBox="0 0 19 32" fill="none" xmlns="http://www.w3.org/2000/svg">
<g id="Group 19078">
<path id="Vector" d="M16.2751 8.71307L8.55788 16.0917C6.5404 18.0245 3.33782 17.954 1.40498 15.9365C-0.527851 13.919 -0.45731 10.7165 1.56017 8.78362L9.29151 1.40498C11.309 -0.527851 14.5116 -0.45731 16.4444 1.56017C18.3631 3.59177 18.2926 6.78024 16.2751 8.71307Z" fill="#F57C00" fill-opacity="0.8"/>
<path id="Union" fill-rule="evenodd" clip-rule="evenodd" d="M16.1095 15.5475L8.44485 8.68469C6.35682 6.80829 3.16835 6.99169 1.30605 9.06561C-0.556238 11.1395 -0.386939 14.3421 1.70109 16.2185L5.57702 19.689L1.81413 23.2868C-0.203355 25.2196 -0.273896 28.4222 1.65894 30.4397C3.59177 32.4572 6.79435 32.5277 8.81184 30.5949L16.3396 23.3974C16.4994 23.2591 16.6522 23.1093 16.7969 22.9482C17.6382 22.0113 18.062 20.8442 18.0827 19.6743C18.1134 18.379 17.6514 17.0728 16.6843 16.0633C16.5031 15.8743 16.3109 15.7023 16.1095 15.5475Z" fill="#F57C00"/>
</g>
</svg>
